<?xml version="1.0" encoding="UTF-8" standalone="no"?><svg xmlns="http://www.w3.org/2000/svg" xmlns:xlink="http://www.w3.org/1999/xlink" contentScriptType="application/ecmascript" contentStyleType="text/css" height="1035px" preserveAspectRatio="none" style="width:739px;height:1035px;" version="1.1" viewBox="0 0 739 1035" width="739px" zoomAndPan="magnify"><defs><filter height="300%" id="f85i1msrse4r1" width="300%" x="-1" y="-1"><feGaussianBlur result="blurOut" stdDeviation="2.0"/><feColorMatrix in="blurOut" result="blurOut2" type="matrix" values="0 0 0 0 0 0 0 0 0 0 0 0 0 0 0 0 0 0 .4 0"/><feOffset dx="4.0" dy="4.0" in="blurOut2" result="blurOut3"/><feBlend in="SourceGraphic" in2="blurOut3" mode="normal"/></filter></defs><g><rect fill="#FFFFFF" filter="url(#f85i1msrse4r1)" height="910.5469" style="stroke:#A80036;stroke-width:1.0;" width="10" x="132.5" y="99.6094"/><rect fill="#FFFFFF" filter="url(#f85i1msrse4r1)" height="30.3516" style="stroke:#A80036;stroke-width:1.0;" width="10" x="666.5" y="121.9609"/><rect fill="#FFFFFF" filter="url(#f85i1msrse4r1)" height="55.7031" style="stroke:#A80036;stroke-width:1.0;" width="10" x="666.5" y="182.6641"/><rect fill="#FFFFFF" filter="url(#f85i1msrse4r1)" height="30.3516" style="stroke:#A80036;stroke-width:1.0;" width="10" x="666.5" y="268.7188"/><rect fill="#FFFFFF" filter="url(#f85i1msrse4r1)" height="37.3516" style="stroke:#A80036;stroke-width:1.0;" width="10" x="666.5" y="329.4219"/><rect fill="#FFFFFF" filter="url(#f85i1msrse4r1)" height="55.7031" style="stroke:#A80036;stroke-width:1.0;" width="10" x="666.5" y="397.125"/><rect fill="#FFFFFF" filter="url(#f85i1msrse4r1)" height="37.3516" style="stroke:#A80036;stroke-width:1.0;" width="10" x="666.5" y="483.1797"/><rect fill="#FFFFFF" filter="url(#f85i1msrse4r1)" height="55.7031" style="stroke:#A80036;stroke-width:1.0;" width="10" x="666.5" y="550.8828"/><rect fill="#FFFFFF" filter="url(#f85i1msrse4r1)" height="30.3516" style="stroke:#A80036;stroke-width:1.0;" width="10" x="666.5" y="636.9375"/><rect fill="#FFFFFF" filter="url(#f85i1msrse4r1)" height="55.7031" style="stroke:#A80036;stroke-width:1.0;" width="10" x="666.5" y="697.6406"/><rect fill="#FFFFFF" filter="url(#f85i1msrse4r1)" height="30.3516" style="stroke:#A80036;stroke-width:1.0;" width="10" x="666.5" y="783.6953"/><rect fill="#FFFFFF" filter="url(#f85i1msrse4r1)" height="37.3516" style="stroke:#A80036;stroke-width:1.0;" width="10" x="666.5" y="844.3984"/><rect fill="#FFFFFF" filter="url(#f85i1msrse4r1)" height="37.3516" style="stroke:#A80036;stroke-width:1.0;" width="10" x="666.5" y="912.1016"/><rect fill="#FFFFFF" filter="url(#f85i1msrse4r1)" height="30.3516" style="stroke:#A80036;stroke-width:1.0;" width="10" x="666.5" y="979.8047"/><rect fill="#FFFFFF" filter="url(#f85i1msrse4r1)" height="139.7578" style="stroke:#000000;stroke-width:2.0;" width="695.5" x="20" y="197.6641"/><rect fill="#FFFFFF" filter="url(#f85i1msrse4r1)" height="79.0547" style="stroke:#000000;stroke-width:2.0;" width="695.5" x="20" y="412.125"/><rect fill="#FFFFFF" filter="url(#f85i1msrse4r1)" height="354.2188" style="stroke:#000000;stroke-width:2.0;" width="715.5" x="10" y="565.8828"/><rect fill="#FFFFFF" filter="url(#f85i1msrse4r1)" height="139.7578" style="stroke:#000000;stroke-width:2.0;" width="695.5" x="20" y="712.6406"/><line style="stroke:#A80036;stroke-width:1.0;stroke-dasharray:5.0,5.0;" x1="137" x2="137" y1="89.6094" y2="1028.1563"/><line style="stroke:#A80036;stroke-width:1.0;stroke-dasharray:5.0,5.0;" x1="671.5" x2="671.5" y1="89.6094" y2="1028.1563"/><text fill="#000000" font-family="sans-serif" font-size="14" lengthAdjust="spacing" textLength="209" x="30" y="86.5332">Gestor de Serviços de Help Desk</text><ellipse cx="137.5" cy="15" fill="#FEFECE" filter="url(#f85i1msrse4r1)" rx="8" ry="8" style="stroke:#A80036;stroke-width:2.0;"/><path d="M137.5,23 L137.5,50 M124.5,31 L150.5,31 M137.5,50 L124.5,65 M137.5,50 L150.5,65 " fill="none" filter="url(#f85i1msrse4r1)" style="stroke:#A80036;stroke-width:2.0;"/><rect fill="#FEFECE" filter="url(#f85i1msrse4r1)" height="31.6094" style="stroke:#A80036;stroke-width:1.5;" width="64" x="637.5" y="53"/><text fill="#000000" font-family="sans-serif" font-size="14" lengthAdjust="spacing" textLength="50" x="644.5" y="74.5332">:System</text><rect fill="#FFFFFF" filter="url(#f85i1msrse4r1)" height="910.5469" style="stroke:#A80036;stroke-width:1.0;" width="10" x="132.5" y="99.6094"/><rect fill="#FFFFFF" filter="url(#f85i1msrse4r1)" height="30.3516" style="stroke:#A80036;stroke-width:1.0;" width="10" x="666.5" y="121.9609"/><rect fill="#FFFFFF" filter="url(#f85i1msrse4r1)" height="55.7031" style="stroke:#A80036;stroke-width:1.0;" width="10" x="666.5" y="182.6641"/><rect fill="#FFFFFF" filter="url(#f85i1msrse4r1)" height="30.3516" style="stroke:#A80036;stroke-width:1.0;" width="10" x="666.5" y="268.7188"/><rect fill="#FFFFFF" filter="url(#f85i1msrse4r1)" height="37.3516" style="stroke:#A80036;stroke-width:1.0;" width="10" x="666.5" y="329.4219"/><rect fill="#FFFFFF" filter="url(#f85i1msrse4r1)" height="55.7031" style="stroke:#A80036;stroke-width:1.0;" width="10" x="666.5" y="397.125"/><rect fill="#FFFFFF" filter="url(#f85i1msrse4r1)" height="37.3516" style="stroke:#A80036;stroke-width:1.0;" width="10" x="666.5" y="483.1797"/><rect fill="#FFFFFF" filter="url(#f85i1msrse4r1)" height="55.7031" style="stroke:#A80036;stroke-width:1.0;" width="10" x="666.5" y="550.8828"/><rect fill="#FFFFFF" filter="url(#f85i1msrse4r1)" height="30.3516" style="stroke:#A80036;stroke-width:1.0;" width="10" x="666.5" y="636.9375"/><rect fill="#FFFFFF" filter="url(#f85i1msrse4r1)" height="55.7031" style="stroke:#A80036;stroke-width:1.0;" width="10" x="666.5" y="697.6406"/><rect fill="#FFFFFF" filter="url(#f85i1msrse4r1)" height="30.3516" style="stroke:#A80036;stroke-width:1.0;" width="10" x="666.5" y="783.6953"/><rect fill="#FFFFFF" filter="url(#f85i1msrse4r1)" height="37.3516" style="stroke:#A80036;stroke-width:1.0;" width="10" x="666.5" y="844.3984"/><rect fill="#FFFFFF" filter="url(#f85i1msrse4r1)" height="37.3516" style="stroke:#A80036;stroke-width:1.0;" width="10" x="666.5" y="912.1016"/><rect fill="#FFFFFF" filter="url(#f85i1msrse4r1)" height="30.3516" style="stroke:#A80036;stroke-width:1.0;" width="10" x="666.5" y="979.8047"/><polygon fill="#A80036" points="654.5,117.9609,664.5,121.9609,654.5,125.9609,658.5,121.9609" style="stroke:#A80036;stroke-width:1.0;"/><line style="stroke:#A80036;stroke-width:1.0;" x1="142.5" x2="660.5" y1="121.9609" y2="121.9609"/><text fill="#000000" font-family="sans-serif" font-size="13" font-weight="bold" lengthAdjust="spacing" textLength="7" x="149.5" y="117.1045">1</text><text fill="#000000" font-family="sans-serif" font-size="13" lengthAdjust="spacing" textLength="254" x="160.5" y="117.1045">envia um pedido para especificar um servico</text><polygon fill="#A80036" points="153.5,148.3125,143.5,152.3125,153.5,156.3125,149.5,152.3125" style="stroke:#A80036;stroke-width:1.0;"/><line style="stroke:#A80036;stroke-width:1.0;" x1="147.5" x2="670.5" y1="152.3125" y2="152.3125"/><text fill="#000000" font-family="sans-serif" font-size="13" font-weight="bold" lengthAdjust="spacing" textLength="7" x="159.5" y="147.4561">2</text><text fill="#000000" font-family="sans-serif" font-size="13" lengthAdjust="spacing" textLength="343" x="170.5" y="147.4561">solicita a introdução de dados (descrição breve e completa)</text><polygon fill="#A80036" points="654.5,178.6641,664.5,182.6641,654.5,186.6641,658.5,182.6641" style="stroke:#A80036;stroke-width:1.0;"/><line style="stroke:#A80036;stroke-width:1.0;" x1="142.5" x2="660.5" y1="182.6641" y2="182.6641"/><text fill="#000000" font-family="sans-serif" font-size="13" font-weight="bold" lengthAdjust="spacing" textLength="7" x="149.5" y="177.8076">3</text><text fill="#000000" font-family="sans-serif" font-size="13" lengthAdjust="spacing" textLength="103" x="160.5" y="177.8076">introduz os dados</text><path d="M20,197.6641 L93,197.6641 L93,205.6641 L83,215.6641 L20,215.6641 L20,197.6641 " fill="#EEEEEE" style="stroke:#000000;stroke-width:1.0;"/><rect fill="none" height="139.7578" style="stroke:#000000;stroke-width:2.0;" width="695.5" x="20" y="197.6641"/><text fill="#000000" font-family="sans-serif" font-size="13" font-weight="bold" lengthAdjust="spacing" textLength="28" x="35" y="212.1592">loop</text><text fill="#000000" font-family="sans-serif" font-size="11" font-weight="bold" lengthAdjust="spacing" textLength="228" x="108" y="211.083">[até não serem precisas mais keywords]</text><polygon fill="#A80036" points="153.5,234.3672,143.5,238.3672,153.5,242.3672,149.5,238.3672" style="stroke:#A80036;stroke-width:1.0;"/><line style="stroke:#A80036;stroke-width:1.0;" x1="147.5" x2="670.5" y1="238.3672" y2="238.3672"/><text fill="#000000" font-family="sans-serif" font-size="13" font-weight="bold" lengthAdjust="spacing" textLength="7" x="159.5" y="233.5107">4</text><text fill="#000000" font-family="sans-serif" font-size="13" lengthAdjust="spacing" textLength="122" x="170.5" y="233.5107">solicita uma keyword</text><polygon fill="#A80036" points="654.5,264.7188,664.5,268.7188,654.5,272.7188,658.5,268.7188" style="stroke:#A80036;stroke-width:1.0;"/><line style="stroke:#A80036;stroke-width:1.0;" x1="142.5" x2="660.5" y1="268.7188" y2="268.7188"/><text fill="#000000" font-family="sans-serif" font-size="13" font-weight="bold" lengthAdjust="spacing" textLength="7" x="149.5" y="263.8623">5</text><text fill="#000000" font-family="sans-serif" font-size="13" lengthAdjust="spacing" textLength="127" x="160.5" y="263.8623">introduz uma keyword</text><polygon fill="#A80036" points="153.5,295.0703,143.5,299.0703,153.5,303.0703,149.5,299.0703" style="stroke:#A80036;stroke-width:1.0;"/><line style="stroke:#A80036;stroke-width:1.0;" x1="147.5" x2="670.5" y1="299.0703" y2="299.0703"/><text fill="#000000" font-family="sans-serif" font-size="13" font-weight="bold" lengthAdjust="spacing" textLength="7" x="159.5" y="294.2139">6</text><text fill="#000000" font-family="sans-serif" font-size="13" lengthAdjust="spacing" textLength="275" x="170.5" y="294.2139">questiona se pretende adicionar mais keywords</text><polygon fill="#A80036" points="654.5,325.4219,664.5,329.4219,654.5,333.4219,658.5,329.4219" style="stroke:#A80036;stroke-width:1.0;"/><line style="stroke:#A80036;stroke-width:1.0;" x1="142.5" x2="660.5" y1="329.4219" y2="329.4219"/><text fill="#000000" font-family="sans-serif" font-size="13" font-weight="bold" lengthAdjust="spacing" textLength="7" x="149.5" y="324.5654">7</text><text fill="#000000" font-family="sans-serif" font-size="13" lengthAdjust="spacing" textLength="315" x="160.5" y="324.5654">responde se pretende ou não adicionar mais keywords</text><polygon fill="#A80036" points="153.5,362.7734,143.5,366.7734,153.5,370.7734,149.5,366.7734" style="stroke:#A80036;stroke-width:1.0;"/><line style="stroke:#A80036;stroke-width:1.0;" x1="147.5" x2="670.5" y1="366.7734" y2="366.7734"/><text fill="#000000" font-family="sans-serif" font-size="13" font-weight="bold" lengthAdjust="spacing" textLength="7" x="159.5" y="361.917">8</text><text fill="#000000" font-family="sans-serif" font-size="13" lengthAdjust="spacing" textLength="219" x="170.5" y="361.917">pergunta se o serviço requer feedback</text><polygon fill="#A80036" points="654.5,393.125,664.5,397.125,654.5,401.125,658.5,397.125" style="stroke:#A80036;stroke-width:1.0;"/><line style="stroke:#A80036;stroke-width:1.0;" x1="142.5" x2="660.5" y1="397.125" y2="397.125"/><text fill="#000000" font-family="sans-serif" font-size="13" font-weight="bold" lengthAdjust="spacing" textLength="7" x="149.5" y="392.2686">9</text><text fill="#000000" font-family="sans-serif" font-size="13" lengthAdjust="spacing" textLength="306" x="160.5" y="392.2686">seleciona se pretende ou não feedback neste serviço</text><path d="M20,412.125 L81,412.125 L81,420.125 L71,430.125 L20,430.125 L20,412.125 " fill="#EEEEEE" style="stroke:#000000;stroke-width:1.0;"/><rect fill="none" height="79.0547" style="stroke:#000000;stroke-width:2.0;" width="695.5" x="20" y="412.125"/><text fill="#000000" font-family="sans-serif" font-size="13" font-weight="bold" lengthAdjust="spacing" textLength="16" x="35" y="426.6201">alt</text><text fill="#000000" font-family="sans-serif" font-size="11" font-weight="bold" lengthAdjust="spacing" textLength="192" x="96" y="425.5439">[caso o serviço requeira feedback]</text><polygon fill="#A80036" points="153.5,448.8281,143.5,452.8281,153.5,456.8281,149.5,452.8281" style="stroke:#A80036;stroke-width:1.0;"/><line style="stroke:#A80036;stroke-width:1.0;" x1="147.5" x2="670.5" y1="452.8281" y2="452.8281"/><text fill="#000000" font-family="sans-serif" font-size="13" font-weight="bold" lengthAdjust="spacing" textLength="14" x="159.5" y="447.9717">10</text><text fill="#000000" font-family="sans-serif" font-size="13" lengthAdjust="spacing" textLength="305" x="177.5" y="447.9717">solicita a duração máxima permitida para o feedback</text><polygon fill="#A80036" points="654.5,479.1797,664.5,483.1797,654.5,487.1797,658.5,483.1797" style="stroke:#A80036;stroke-width:1.0;"/><line style="stroke:#A80036;stroke-width:1.0;" x1="142.5" x2="660.5" y1="483.1797" y2="483.1797"/><text fill="#000000" font-family="sans-serif" font-size="13" font-weight="bold" lengthAdjust="spacing" textLength="14" x="149.5" y="478.3232">11</text><text fill="#000000" font-family="sans-serif" font-size="13" lengthAdjust="spacing" textLength="157" x="167.5" y="478.3232">introduz a duração máxima</text><polygon fill="#A80036" points="153.5,516.5313,143.5,520.5313,153.5,524.5313,149.5,520.5313" style="stroke:#A80036;stroke-width:1.0;"/><line style="stroke:#A80036;stroke-width:1.0;" x1="147.5" x2="670.5" y1="520.5313" y2="520.5313"/><text fill="#000000" font-family="sans-serif" font-size="13" font-weight="bold" lengthAdjust="spacing" textLength="14" x="159.5" y="515.6748">12</text><text fill="#000000" font-family="sans-serif" font-size="13" lengthAdjust="spacing" textLength="366" x="177.5" y="515.6748">mostra a lista de catálogos e solicita a escolha de um catálogo</text><polygon fill="#A80036" points="654.5,546.8828,664.5,550.8828,654.5,554.8828,658.5,550.8828" style="stroke:#A80036;stroke-width:1.0;"/><line style="stroke:#A80036;stroke-width:1.0;" x1="142.5" x2="660.5" y1="550.8828" y2="550.8828"/><text fill="#000000" font-family="sans-serif" font-size="13" font-weight="bold" lengthAdjust="spacing" textLength="14" x="149.5" y="546.0264">13</text><text fill="#000000" font-family="sans-serif" font-size="13" lengthAdjust="spacing" textLength="314" x="167.5" y="546.0264">escolhe o catálogo onde será disponibilizado o serviço</text><path d="M10,565.8828 L83,565.8828 L83,573.8828 L73,583.8828 L10,583.8828 L10,565.8828 " fill="#EEEEEE" style="stroke:#000000;stroke-width:1.0;"/><rect fill="none" height="354.2188" style="stroke:#000000;stroke-width:2.0;" width="715.5" x="10" y="565.8828"/><text fill="#000000" font-family="sans-serif" font-size="13" font-weight="bold" lengthAdjust="spacing" textLength="28" x="25" y="580.3779">loop</text><text fill="#000000" font-family="sans-serif" font-size="11" font-weight="bold" lengthAdjust="spacing" textLength="238" x="98" y="579.3018">[até não serem precisos mais formulários]</text><polygon fill="#A80036" points="153.5,602.5859,143.5,606.5859,153.5,610.5859,149.5,606.5859" style="stroke:#A80036;stroke-width:1.0;"/><line style="stroke:#A80036;stroke-width:1.0;" x1="147.5" x2="670.5" y1="606.5859" y2="606.5859"/><text fill="#000000" font-family="sans-serif" font-size="13" font-weight="bold" lengthAdjust="spacing" textLength="14" x="159.5" y="601.7295">14</text><text fill="#000000" font-family="sans-serif" font-size="13" lengthAdjust="spacing" textLength="248" x="177.5" y="601.7295">solicita a introdução do nome do formulário</text><polygon fill="#A80036" points="654.5,632.9375,664.5,636.9375,654.5,640.9375,658.5,636.9375" style="stroke:#A80036;stroke-width:1.0;"/><line style="stroke:#A80036;stroke-width:1.0;" x1="142.5" x2="660.5" y1="636.9375" y2="636.9375"/><text fill="#000000" font-family="sans-serif" font-size="13" font-weight="bold" lengthAdjust="spacing" textLength="14" x="149.5" y="632.0811">15</text><text fill="#000000" font-family="sans-serif" font-size="13" lengthAdjust="spacing" textLength="103" x="167.5" y="632.0811">introduz os dados</text><polygon fill="#A80036" points="153.5,663.2891,143.5,667.2891,153.5,671.2891,149.5,667.2891" style="stroke:#A80036;stroke-width:1.0;"/><line style="stroke:#A80036;stroke-width:1.0;" x1="147.5" x2="670.5" y1="667.2891" y2="667.2891"/><text fill="#000000" font-family="sans-serif" font-size="13" font-weight="bold" lengthAdjust="spacing" textLength="14" x="159.5" y="662.4326">16</text><text fill="#000000" font-family="sans-serif" font-size="13" lengthAdjust="spacing" textLength="252" x="177.5" y="662.4326">apresenta os tipos de formulário disponiveis</text><polygon fill="#A80036" points="654.5,693.6406,664.5,697.6406,654.5,701.6406,658.5,697.6406" style="stroke:#A80036;stroke-width:1.0;"/><line style="stroke:#A80036;stroke-width:1.0;" x1="142.5" x2="660.5" y1="697.6406" y2="697.6406"/><text fill="#000000" font-family="sans-serif" font-size="13" font-weight="bold" lengthAdjust="spacing" textLength="14" x="149.5" y="692.7842">17</text><text fill="#000000" font-family="sans-serif" font-size="13" lengthAdjust="spacing" textLength="169" x="167.5" y="692.7842">seleciona o tipo de formulário</text><path d="M20,712.6406 L93,712.6406 L93,720.6406 L83,730.6406 L20,730.6406 L20,712.6406 " fill="#EEEEEE" style="stroke:#000000;stroke-width:1.0;"/><rect fill="none" height="139.7578" style="stroke:#000000;stroke-width:2.0;" width="695.5" x="20" y="712.6406"/><text fill="#000000" font-family="sans-serif" font-size="13" font-weight="bold" lengthAdjust="spacing" textLength="28" x="35" y="727.1357">loop</text><text fill="#000000" font-family="sans-serif" font-size="11" font-weight="bold" lengthAdjust="spacing" textLength="223" x="108" y="726.0596">[até não serem precisos mais atributos]</text><polygon fill="#A80036" points="153.5,749.3438,143.5,753.3438,153.5,757.3438,149.5,753.3438" style="stroke:#A80036;stroke-width:1.0;"/><line style="stroke:#A80036;stroke-width:1.0;" x1="147.5" x2="670.5" y1="753.3438" y2="753.3438"/><text fill="#000000" font-family="sans-serif" font-size="13" font-weight="bold" lengthAdjust="spacing" textLength="14" x="159.5" y="748.4873">18</text><text fill="#000000" font-family="sans-serif" font-size="13" lengthAdjust="spacing" textLength="482" x="177.5" y="748.4873">solicita a introdução de dados (tipo de dados, regex, descrição, script, label, nome)</text><polygon fill="#A80036" points="654.5,779.6953,664.5,783.6953,654.5,787.6953,658.5,783.6953" style="stroke:#A80036;stroke-width:1.0;"/><line style="stroke:#A80036;stroke-width:1.0;" x1="142.5" x2="660.5" y1="783.6953" y2="783.6953"/><text fill="#000000" font-family="sans-serif" font-size="13" font-weight="bold" lengthAdjust="spacing" textLength="14" x="149.5" y="778.8389">19</text><text fill="#000000" font-family="sans-serif" font-size="13" lengthAdjust="spacing" textLength="103" x="167.5" y="778.8389">introduz os dados</text><polygon fill="#A80036" points="153.5,810.0469,143.5,814.0469,153.5,818.0469,149.5,814.0469" style="stroke:#A80036;stroke-width:1.0;"/><line style="stroke:#A80036;stroke-width:1.0;" x1="147.5" x2="670.5" y1="814.0469" y2="814.0469"/><text fill="#000000" font-family="sans-serif" font-size="13" font-weight="bold" lengthAdjust="spacing" textLength="14" x="159.5" y="809.1904">20</text><text fill="#000000" font-family="sans-serif" font-size="13" lengthAdjust="spacing" textLength="402" x="177.5" y="809.1904">pergunta se deseja adicionar mais atributos ao formulário em questão</text><polygon fill="#A80036" points="654.5,840.3984,664.5,844.3984,654.5,848.3984,658.5,844.3984" style="stroke:#A80036;stroke-width:1.0;"/><line style="stroke:#A80036;stroke-width:1.0;" x1="142.5" x2="660.5" y1="844.3984" y2="844.3984"/><text fill="#000000" font-family="sans-serif" font-size="13" font-weight="bold" lengthAdjust="spacing" textLength="14" x="149.5" y="839.542">21</text><text fill="#000000" font-family="sans-serif" font-size="13" lengthAdjust="spacing" textLength="310" x="167.5" y="839.542">responde se pretende ou não adicionar mais atributos</text><polygon fill="#A80036" points="153.5,877.75,143.5,881.75,153.5,885.75,149.5,881.75" style="stroke:#A80036;stroke-width:1.0;"/><line style="stroke:#A80036;stroke-width:1.0;" x1="147.5" x2="670.5" y1="881.75" y2="881.75"/><text fill="#000000" font-family="sans-serif" font-size="13" font-weight="bold" lengthAdjust="spacing" textLength="14" x="159.5" y="876.8936">22</text><text fill="#000000" font-family="sans-serif" font-size="13" lengthAdjust="spacing" textLength="399" x="177.5" y="876.8936">pergunta se deseja adicionar mais formulários ao serviço em questão</text><polygon fill="#A80036" points="654.5,908.1016,664.5,912.1016,654.5,916.1016,658.5,912.1016" style="stroke:#A80036;stroke-width:1.0;"/><line style="stroke:#A80036;stroke-width:1.0;" x1="142.5" x2="660.5" y1="912.1016" y2="912.1016"/><text fill="#000000" font-family="sans-serif" font-size="13" font-weight="bold" lengthAdjust="spacing" textLength="14" x="149.5" y="907.2451">23</text><text fill="#000000" font-family="sans-serif" font-size="13" lengthAdjust="spacing" textLength="323" x="167.5" y="907.2451">responde se pretende ou não adicionar mais formulários</text><polygon fill="#A80036" points="153.5,945.4531,143.5,949.4531,153.5,953.4531,149.5,949.4531" style="stroke:#A80036;stroke-width:1.0;"/><line style="stroke:#A80036;stroke-width:1.0;" x1="147.5" x2="670.5" y1="949.4531" y2="949.4531"/><text fill="#000000" font-family="sans-serif" font-size="13" font-weight="bold" lengthAdjust="spacing" textLength="14" x="159.5" y="944.5967">24</text><text fill="#000000" font-family="sans-serif" font-size="13" lengthAdjust="spacing" textLength="375" x="177.5" y="944.5967">valida, apresenta os dados do servico e solicita uma confirmação</text><polygon fill="#A80036" points="654.5,975.8047,664.5,979.8047,654.5,983.8047,658.5,979.8047" style="stroke:#A80036;stroke-width:1.0;"/><line style="stroke:#A80036;stroke-width:1.0;" x1="142.5" x2="660.5" y1="979.8047" y2="979.8047"/><text fill="#000000" font-family="sans-serif" font-size="13" font-weight="bold" lengthAdjust="spacing" textLength="14" x="149.5" y="974.9482">25</text><text fill="#000000" font-family="sans-serif" font-size="13" lengthAdjust="spacing" textLength="49" x="167.5" y="974.9482">confirma</text><polygon fill="#A80036" points="148.5,1006.1563,138.5,1010.1563,148.5,1014.1563,144.5,1010.1563" style="stroke:#A80036;stroke-width:1.0;"/><line style="stroke:#A80036;stroke-width:1.0;" x1="142.5" x2="670.5" y1="1010.1563" y2="1010.1563"/><text fill="#000000" font-family="sans-serif" font-size="13" font-weight="bold" lengthAdjust="spacing" textLength="14" x="154.5" y="1005.2998">26</text><text fill="#000000" font-family="sans-serif" font-size="13" lengthAdjust="spacing" textLength="297" x="172.5" y="1005.2998">regista o servico e informa do sucesso da operação</text><!--MD5=[f1ae63343cb5a572e0c677d8e1de9ae4]
@startuml
autonumber
hide footbox

actor "Gestor de Serviços de Help Desk" as GSH
participant ":System" as SYST

activate GSH

GSH -> SYST : envia um pedido para especificar um servico
activate SYST
SYST -> GSH : solicita a introdução de dados (descrição breve e completa)
deactivate SYST

GSH -> SYST : introduz os dados
activate SYST

loop até não serem precisas mais keywords

SYST -> GSH : solicita uma keyword
deactivate SYST

GSH -> SYST : introduz uma keyword
activate SYST

SYST -> GSH : questiona se pretende adicionar mais keywords
deactivate SYST

GSH -> SYST : responde se pretende ou não adicionar mais keywords
activate SYST
end

SYST -> GSH : pergunta se o serviço requer feedback
deactivate SYST

GSH -> SYST : seleciona se pretende ou não feedback neste serviço
activate SYST

alt caso o serviço requeira feedback

SYST -> GSH : solicita a duração máxima permitida para o feedback
deactivate SYST

GSH -> SYST : introduz a duração máxima
activate SYST
end

SYST -> GSH : mostra a lista de catálogos e solicita a escolha de um catálogo
deactivate SYST

GSH -> SYST : escolhe o catálogo onde será disponibilizado o serviço
activate SYST

loop até não serem precisos mais formulários
SYST -> GSH : solicita a introdução do nome do formulário
deactivate SYST

GSH -> SYST : introduz os dados
activate SYST

SYST -> GSH : apresenta os tipos de formulário disponiveis
deactivate SYST

GSH -> SYST : seleciona o tipo de formulário
activate SYST

loop até não serem precisos mais atributos
SYST -> GSH : solicita a introdução de dados (tipo de dados, regex, descrição, script, label, nome)
deactivate SYST

GSH -> SYST : introduz os dados
activate SYST

SYST -> GSH : pergunta se deseja adicionar mais atributos ao formulário em questão
deactivate SYST

GSH -> SYST : responde se pretende ou não adicionar mais atributos
activate SYST
end

SYST -> GSH : pergunta se deseja adicionar mais formulários ao serviço em questão
deactivate SYST

GSH -> SYST : responde se pretende ou não adicionar mais formulários
activate SYST
end

SYST -> GSH : valida, apresenta os dados do servico e solicita uma confirmação
deactivate SYST

GSH -> SYST : confirma
activate SYST
SYST -> GSH : regista o servico e informa do sucesso da operação
deactivate SYST

deactivate GSH

@enduml

PlantUML version 1.2021.5(Sun Apr 25 12:20:28 BST 2021)
(GPL source distribution)
Java Runtime: OpenJDK Runtime Environment
JVM: Dynamic Code Evolution 64-Bit Server VM
Default Encoding: Cp1252
Language: pt
Country: PT
--></g></svg>