<?xml version="1.0" encoding="UTF-8" standalone="no"?><svg xmlns="http://www.w3.org/2000/svg" xmlns:xlink="http://www.w3.org/1999/xlink" contentScriptType="application/ecmascript" contentStyleType="text/css" height="907px" preserveAspectRatio="none" style="width:1228px;height:907px;" version="1.1" viewBox="0 0 1228 907" width="1228px" zoomAndPan="magnify"><defs><filter height="300%" id="fxrjhh1y7f56c" width="300%" x="-1" y="-1"><feGaussianBlur result="blurOut" stdDeviation="2.0"/><feColorMatrix in="blurOut" result="blurOut2" type="matrix" values="0 0 0 0 0 0 0 0 0 0 0 0 0 0 0 0 0 0 .4 0"/><feOffset dx="4.0" dy="4.0" in="blurOut2" result="blurOut3"/><feBlend in="SourceGraphic" in2="blurOut3" mode="normal"/></filter></defs><g><!--MD5=[8fd473fd151a2794da4f2c8684676405]
cluster Presentation--><polygon fill="#DDDDDD" filter="url(#fxrjhh1y7f56c)" points="32,6,128,6,135,29.6094,272,29.6094,272,134,32,134,32,6" style="stroke:#000000;stroke-width:1.5;"/><line style="stroke:#000000;stroke-width:1.5;" x1="32" x2="135" y1="29.6094" y2="29.6094"/><text fill="#000000" font-family="sans-serif" font-size="14" font-weight="bold" lengthAdjust="spacing" textLength="90" x="36" y="22.5332">Presentation</text><!--MD5=[d64883541e3d62e3241c4d12decf100d]
cluster Application--><polygon fill="#DDDDDD" filter="url(#fxrjhh1y7f56c)" points="16,167,100,167,107,190.6094,288,190.6094,288,420,16,420,16,167" style="stroke:#000000;stroke-width:1.5;"/><line style="stroke:#000000;stroke-width:1.5;" x1="16" x2="107" y1="190.6094" y2="190.6094"/><text fill="#000000" font-family="sans-serif" font-size="14" font-weight="bold" lengthAdjust="spacing" textLength="78" x="20" y="183.5332">Application</text><!--MD5=[121a8bf1197281ab89ed693fab589f94]
cluster Domain--><polygon fill="#DDDDDD" filter="url(#fxrjhh1y7f56c)" points="943,470,1001,470,1008,493.6094,1211,493.6094,1211,765,943,765,943,470" style="stroke:#000000;stroke-width:1.5;"/><line style="stroke:#000000;stroke-width:1.5;" x1="943" x2="1008" y1="493.6094" y2="493.6094"/><text fill="#000000" font-family="sans-serif" font-size="14" font-weight="bold" lengthAdjust="spacing" textLength="52" x="947" y="486.5332">Domain</text><!--MD5=[bc6b40dadbf86ab6a0c8405a467a48af]
cluster Persistence--><polygon fill="#DDDDDD" filter="url(#fxrjhh1y7f56c)" points="66,481.5,156,481.5,163,505.1094,919,505.1094,919,900,66,900,66,481.5" style="stroke:#000000;stroke-width:1.5;"/><line style="stroke:#000000;stroke-width:1.5;" x1="66" x2="163" y1="505.1094" y2="505.1094"/><text fill="#000000" font-family="sans-serif" font-size="14" font-weight="bold" lengthAdjust="spacing" textLength="84" x="70" y="498.0332">Persistence</text><!--MD5=[0d5799440b3bfefd92b00abfcd2c79b9]
cluster Factory--><polygon fill="#DDDDDD" filter="url(#fxrjhh1y7f56c)" points="733,525.5,791,525.5,798,549.1094,895,549.1094,895,709.5,733,709.5,733,525.5" style="stroke:#000000;stroke-width:1.5;"/><line style="stroke:#000000;stroke-width:1.5;" x1="733" x2="798" y1="549.1094" y2="549.1094"/><text fill="#000000" font-family="sans-serif" font-size="14" font-weight="bold" lengthAdjust="spacing" textLength="52" x="737" y="542.0332">Factory</text><!--MD5=[71971f99a41bb66cf321ce46bb59f738]
cluster Repository--><polygon fill="#DDDDDD" filter="url(#fxrjhh1y7f56c)" points="471,532.5,553,532.5,560,556.1094,709,556.1094,709,876,471,876,471,532.5" style="stroke:#000000;stroke-width:1.5;"/><line style="stroke:#000000;stroke-width:1.5;" x1="471" x2="560" y1="556.1094" y2="556.1094"/><text fill="#000000" font-family="sans-serif" font-size="14" font-weight="bold" lengthAdjust="spacing" textLength="76" x="475" y="549.0332">Repository</text><!--MD5=[f2a871a6b1874b838d7f8c38e9288d2d]
class ServiceDraftFieldSpecificationUI--><rect codeLine="4" fill="#FEFECE" filter="url(#fxrjhh1y7f56c)" height="56.1875" id="ServiceDraftFieldSpecificationUI" style="stroke:#A80036;stroke-width:1.5;" width="207" x="48.5" y="62"/><ellipse cx="63.5" cy="82.0938" fill="#ADD1B2" rx="11" ry="11" style="stroke:#A80036;stroke-width:1.0;"/><path d="M65.5,78.5938 Q65.7031,78.0938 65.9375,77.8438 Q66.1719,77.5938 66.4375,77.5938 Q66.9063,77.5938 67.2031,77.875 Q67.5,78.1563 67.5,78.8125 L67.5,80.375 Q67.5,81.0313 67.2188,81.3125 Q66.9375,81.5938 66.5,81.5938 Q66.1094,81.5938 65.8594,81.4219 Q65.6094,81.25 65.5,80.7969 Q65.4531,80.4844 65.2813,80.3125 Q64.9688,79.9844 64.4063,79.7969 Q63.8438,79.5938 63.2813,79.5938 Q62.5781,79.5938 61.9844,79.875 Q61.4063,80.1563 60.9531,80.7813 Q60.5,81.4063 60.5,82.2656 L60.5,83.1875 Q60.5,84.2188 61.3438,84.9063 Q62.1875,85.5938 63.6875,85.5938 Q64.5781,85.5938 65.2031,85.3906 Q65.5625,85.2813 65.9688,84.9219 Q66.2344,84.7188 66.375,84.6563 Q66.5156,84.5938 66.6875,84.5938 Q67.0156,84.5938 67.25,84.8594 Q67.5,85.1094 67.5,85.4688 Q67.5,85.8125 67.1563,86.2188 Q66.6563,86.8125 65.8594,87.1406 Q64.8125,87.5938 63.5313,87.5938 Q62.0313,87.5938 60.8281,87 Q59.8594,86.5313 59.1719,85.5156 Q58.5,84.5 58.5,83.2969 L58.5,82.2031 Q58.5,80.9531 59.0938,79.8594 Q59.7031,78.7656 60.75,78.1875 Q61.8125,77.5938 63,77.5938 Q63.7188,77.5938 64.3438,77.8438 Q64.9688,78.0938 65.5,78.5938 Z " fill="#000000"/><text fill="#000000" font-family="sans-serif" font-size="12" font-style="italic" lengthAdjust="spacing" textLength="82" x="124" y="79.457">«presentation»</text><text fill="#000000" font-family="sans-serif" font-size="12" lengthAdjust="spacing" textLength="175" x="77.5" y="94.5508">ServiceDraftFieldSpecificationUI</text><line style="stroke:#A80036;stroke-width:1.5;" x1="49.5" x2="254.5" y1="102.1875" y2="102.1875"/><line style="stroke:#A80036;stroke-width:1.5;" x1="49.5" x2="254.5" y1="110.1875" y2="110.1875"/><!--MD5=[78ca3c1b028cc8a220cf10e5ffc69797]
class ServiceDraftSpecificationController--><rect codeLine="11" fill="#FEFECE" filter="url(#fxrjhh1y7f56c)" height="180.7109" id="ServiceDraftSpecificationController" style="stroke:#A80036;stroke-width:1.5;" width="239" x="32.5" y="223"/><ellipse cx="55.15" cy="243.0938" fill="#ADD1B2" rx="11" ry="11" style="stroke:#A80036;stroke-width:1.0;"/><path d="M57.15,239.5938 Q57.3531,239.0938 57.5875,238.8438 Q57.8219,238.5938 58.0875,238.5938 Q58.5563,238.5938 58.8531,238.875 Q59.15,239.1563 59.15,239.8125 L59.15,241.375 Q59.15,242.0313 58.8688,242.3125 Q58.5875,242.5938 58.15,242.5938 Q57.7594,242.5938 57.5094,242.4219 Q57.2594,242.25 57.15,241.7969 Q57.1031,241.4844 56.9313,241.3125 Q56.6188,240.9844 56.0563,240.7969 Q55.4938,240.5938 54.9313,240.5938 Q54.2281,240.5938 53.6344,240.875 Q53.0563,241.1563 52.6031,241.7813 Q52.15,242.4063 52.15,243.2656 L52.15,244.1875 Q52.15,245.2188 52.9938,245.9063 Q53.8375,246.5938 55.3375,246.5938 Q56.2281,246.5938 56.8531,246.3906 Q57.2125,246.2813 57.6188,245.9219 Q57.8844,245.7188 58.025,245.6563 Q58.1656,245.5938 58.3375,245.5938 Q58.6656,245.5938 58.9,245.8594 Q59.15,246.1094 59.15,246.4688 Q59.15,246.8125 58.8063,247.2188 Q58.3063,247.8125 57.5094,248.1406 Q56.4625,248.5938 55.1813,248.5938 Q53.6813,248.5938 52.4781,248 Q51.5094,247.5313 50.8219,246.5156 Q50.15,245.5 50.15,244.2969 L50.15,243.2031 Q50.15,241.9531 50.7438,240.8594 Q51.3531,239.7656 52.4,239.1875 Q53.4625,238.5938 54.65,238.5938 Q55.3688,238.5938 55.9938,238.8438 Q56.6188,239.0938 57.15,239.5938 Z " fill="#000000"/><text fill="#000000" font-family="sans-serif" font-size="12" font-style="italic" lengthAdjust="spacing" textLength="74" x="128.85" y="240.457">«application»</text><text fill="#000000" font-family="sans-serif" font-size="12" lengthAdjust="spacing" textLength="190" x="70.85" y="255.5508">ServiceDraftSpecificationController</text><line style="stroke:#A80036;stroke-width:1.5;" x1="33.5" x2="270.5" y1="263.1875" y2="263.1875"/><line style="stroke:#A80036;stroke-width:1.5;" x1="33.5" x2="270.5" y1="271.1875" y2="271.1875"/><text fill="#000000" font-family="sans-serif" font-size="11" lengthAdjust="spacing" textLength="45" x="38.5" y="286.6064">+create()</text><text fill="#000000" font-family="sans-serif" font-size="11" lengthAdjust="spacing" textLength="59" x="38.5" y="300.4424">+getDrafts()</text><text fill="#000000" font-family="sans-serif" font-size="11" lengthAdjust="spacing" textLength="60" x="38.5" y="314.2783">+newDraft()</text><text fill="#000000" font-family="sans-serif" font-size="11" lengthAdjust="spacing" textLength="51" x="38.5" y="328.1143">+addTitle()</text><text fill="#000000" font-family="sans-serif" font-size="11" lengthAdjust="spacing" textLength="185" x="38.5" y="341.9502">+addBriefDescription(briefDescription)</text><text fill="#000000" font-family="sans-serif" font-size="11" lengthAdjust="spacing" textLength="227" x="38.5" y="355.7861">+addCompleteDescription(completeDescription)</text><text fill="#000000" font-family="sans-serif" font-size="11" lengthAdjust="spacing" textLength="154" x="38.5" y="369.6221">+addKeywordList(keywordList)</text><text fill="#000000" font-family="sans-serif" font-size="11" lengthAdjust="spacing" textLength="124" x="38.5" y="383.458">+addFeedback(feedback)</text><text fill="#000000" font-family="sans-serif" font-size="11" lengthAdjust="spacing" textLength="159" x="38.5" y="397.2939">+saveServiceDraft(serviceDraft)</text><!--MD5=[925d5031f5a4e53e61ccd699b6d8c35b]
class ServiceDraft--><rect codeLine="26" fill="#FEFECE" filter="url(#fxrjhh1y7f56c)" height="223.4766" id="ServiceDraft" style="stroke:#A80036;stroke-width:1.5;" width="236" x="959" y="526"/><ellipse cx="1039.75" cy="553.6406" fill="#ADD1B2" rx="11" ry="11" style="stroke:#A80036;stroke-width:1.0;"/><path d="M1041.75,550.1406 Q1041.9531,549.6406 1042.1875,549.3906 Q1042.4219,549.1406 1042.6875,549.1406 Q1043.1563,549.1406 1043.4531,549.4219 Q1043.75,549.7031 1043.75,550.3594 L1043.75,551.9219 Q1043.75,552.5781 1043.4688,552.8594 Q1043.1875,553.1406 1042.75,553.1406 Q1042.3594,553.1406 1042.1094,552.9688 Q1041.8594,552.7969 1041.75,552.3438 Q1041.7031,552.0313 1041.5313,551.8594 Q1041.2188,551.5313 1040.6563,551.3438 Q1040.0938,551.1406 1039.5313,551.1406 Q1038.8281,551.1406 1038.2344,551.4219 Q1037.6563,551.7031 1037.2031,552.3281 Q1036.75,552.9531 1036.75,553.8125 L1036.75,554.7344 Q1036.75,555.7656 1037.5938,556.4531 Q1038.4375,557.1406 1039.9375,557.1406 Q1040.8281,557.1406 1041.4531,556.9375 Q1041.8125,556.8281 1042.2188,556.4688 Q1042.4844,556.2656 1042.625,556.2031 Q1042.7656,556.1406 1042.9375,556.1406 Q1043.2656,556.1406 1043.5,556.4063 Q1043.75,556.6563 1043.75,557.0156 Q1043.75,557.3594 1043.4063,557.7656 Q1042.9063,558.3594 1042.1094,558.6875 Q1041.0625,559.1406 1039.7813,559.1406 Q1038.2813,559.1406 1037.0781,558.5469 Q1036.1094,558.0781 1035.4219,557.0625 Q1034.75,556.0469 1034.75,554.8438 L1034.75,553.75 Q1034.75,552.5 1035.3438,551.4063 Q1035.9531,550.3125 1037,549.7344 Q1038.0625,549.1406 1039.25,549.1406 Q1039.9688,549.1406 1040.5938,549.3906 Q1041.2188,549.6406 1041.75,550.1406 Z " fill="#000000"/><text fill="#000000" font-family="sans-serif" font-size="12" font-style="italic" lengthAdjust="spacing" textLength="44" x="1071.25" y="543.457">«Entity»</text><text fill="#000000" font-family="sans-serif" font-size="12" font-style="italic" lengthAdjust="spacing" textLength="40" x="1073.25" y="558.5508">«Root»</text><text fill="#000000" font-family="sans-serif" font-size="12" lengthAdjust="spacing" textLength="66" x="1060.25" y="573.6445">ServiceDraft</text><line style="stroke:#A80036;stroke-width:1.5;" x1="960" x2="1194" y1="581.2813" y2="581.2813"/><text fill="#000000" font-family="sans-serif" font-size="11" lengthAdjust="spacing" textLength="20" x="965" y="596.7002">-title</text><text fill="#000000" font-family="sans-serif" font-size="11" lengthAdjust="spacing" textLength="80" x="965" y="610.5361">-briefDescription</text><text fill="#000000" font-family="sans-serif" font-size="11" lengthAdjust="spacing" textLength="101" x="965" y="624.3721">-completeDescription</text><text fill="#000000" font-family="sans-serif" font-size="11" lengthAdjust="spacing" textLength="47" x="965" y="638.208">-keyword</text><text fill="#000000" font-family="sans-serif" font-size="11" lengthAdjust="spacing" textLength="49" x="965" y="652.0439">-feedback</text><line style="stroke:#A80036;stroke-width:1.5;" x1="960" x2="1194" y1="658.4609" y2="658.4609"/><text fill="#000000" font-family="sans-serif" font-size="11" lengthAdjust="spacing" textLength="45" x="965" y="673.8799">+create()</text><text fill="#000000" font-family="sans-serif" font-size="11" lengthAdjust="spacing" textLength="48" x="965" y="687.7158">+setTitle()</text><text fill="#000000" font-family="sans-serif" font-size="11" lengthAdjust="spacing" textLength="182" x="965" y="701.5518">+setBriefDescription(briefDescription)</text><text fill="#000000" font-family="sans-serif" font-size="11" lengthAdjust="spacing" textLength="224" x="965" y="715.3877">+setCompleteDescription(completeDescription)</text><text fill="#000000" font-family="sans-serif" font-size="11" lengthAdjust="spacing" textLength="151" x="965" y="729.2236">+setKeywordList(keywordList)</text><text fill="#000000" font-family="sans-serif" font-size="11" lengthAdjust="spacing" textLength="121" x="965" y="743.0596">+setFeedback(feedback)</text><!--MD5=[e8c189551b7885b999ad7cefb30fc2a3]
class PersistenceContext--><rect codeLine="43" fill="#FEFECE" filter="url(#fxrjhh1y7f56c)" height="70.0234" id="PersistenceContext" style="stroke:#A80036;stroke-width:1.5;" width="139" x="82.5" y="602.5"/><ellipse cx="97.5" cy="622.5938" fill="#ADD1B2" rx="11" ry="11" style="stroke:#A80036;stroke-width:1.0;"/><path d="M99.5,619.0938 Q99.7031,618.5938 99.9375,618.3438 Q100.1719,618.0938 100.4375,618.0938 Q100.9063,618.0938 101.2031,618.375 Q101.5,618.6563 101.5,619.3125 L101.5,620.875 Q101.5,621.5313 101.2188,621.8125 Q100.9375,622.0938 100.5,622.0938 Q100.1094,622.0938 99.8594,621.9219 Q99.6094,621.75 99.5,621.2969 Q99.4531,620.9844 99.2813,620.8125 Q98.9688,620.4844 98.4063,620.2969 Q97.8438,620.0938 97.2813,620.0938 Q96.5781,620.0938 95.9844,620.375 Q95.4063,620.6563 94.9531,621.2813 Q94.5,621.9063 94.5,622.7656 L94.5,623.6875 Q94.5,624.7188 95.3438,625.4063 Q96.1875,626.0938 97.6875,626.0938 Q98.5781,626.0938 99.2031,625.8906 Q99.5625,625.7813 99.9688,625.4219 Q100.2344,625.2188 100.375,625.1563 Q100.5156,625.0938 100.6875,625.0938 Q101.0156,625.0938 101.25,625.3594 Q101.5,625.6094 101.5,625.9688 Q101.5,626.3125 101.1563,626.7188 Q100.6563,627.3125 99.8594,627.6406 Q98.8125,628.0938 97.5313,628.0938 Q96.0313,628.0938 94.8281,627.5 Q93.8594,627.0313 93.1719,626.0156 Q92.5,625 92.5,623.7969 L92.5,622.7031 Q92.5,621.4531 93.0938,620.3594 Q93.7031,619.2656 94.75,618.6875 Q95.8125,618.0938 97,618.0938 Q97.7188,618.0938 98.3438,618.3438 Q98.9688,618.5938 99.5,619.0938 Z " fill="#000000"/><text fill="#000000" font-family="sans-serif" font-size="12" font-style="italic" lengthAdjust="spacing" textLength="77" x="126.5" y="619.957">«persistence»</text><text fill="#000000" font-family="sans-serif" font-size="12" lengthAdjust="spacing" textLength="107" x="111.5" y="635.0508">PersistenceContext</text><line style="stroke:#A80036;stroke-width:1.5;" x1="83.5" x2="220.5" y1="642.6875" y2="642.6875"/><line style="stroke:#A80036;stroke-width:1.5;" x1="83.5" x2="220.5" y1="650.6875" y2="650.6875"/><text fill="#000000" font-family="sans-serif" font-size="11" lengthAdjust="spacing" textLength="71" x="88.5" y="666.1064">+repositories()</text><!--MD5=[b8e4c95865208c934bfcfda4f90bf50c]
class AppSettings--><rect codeLine="47" fill="#FEFECE" filter="url(#fxrjhh1y7f56c)" height="83.8594" id="AppSettings" style="stroke:#A80036;stroke-width:1.5;" width="130" x="325" y="595.5"/><ellipse cx="351.25" cy="615.5938" fill="#ADD1B2" rx="11" ry="11" style="stroke:#A80036;stroke-width:1.0;"/><path d="M353.25,612.0938 Q353.4531,611.5938 353.6875,611.3438 Q353.9219,611.0938 354.1875,611.0938 Q354.6563,611.0938 354.9531,611.375 Q355.25,611.6563 355.25,612.3125 L355.25,613.875 Q355.25,614.5313 354.9688,614.8125 Q354.6875,615.0938 354.25,615.0938 Q353.8594,615.0938 353.6094,614.9219 Q353.3594,614.75 353.25,614.2969 Q353.2031,613.9844 353.0313,613.8125 Q352.7188,613.4844 352.1563,613.2969 Q351.5938,613.0938 351.0313,613.0938 Q350.3281,613.0938 349.7344,613.375 Q349.1563,613.6563 348.7031,614.2813 Q348.25,614.9063 348.25,615.7656 L348.25,616.6875 Q348.25,617.7188 349.0938,618.4063 Q349.9375,619.0938 351.4375,619.0938 Q352.3281,619.0938 352.9531,618.8906 Q353.3125,618.7813 353.7188,618.4219 Q353.9844,618.2188 354.125,618.1563 Q354.2656,618.0938 354.4375,618.0938 Q354.7656,618.0938 355,618.3594 Q355.25,618.6094 355.25,618.9688 Q355.25,619.3125 354.9063,619.7188 Q354.4063,620.3125 353.6094,620.6406 Q352.5625,621.0938 351.2813,621.0938 Q349.7813,621.0938 348.5781,620.5 Q347.6094,620.0313 346.9219,619.0156 Q346.25,618 346.25,616.7969 L346.25,615.7031 Q346.25,614.4531 346.8438,613.3594 Q347.4531,612.2656 348.5,611.6875 Q349.5625,611.0938 350.75,611.0938 Q351.4688,611.0938 352.0938,611.3438 Q352.7188,611.5938 353.25,612.0938 Z " fill="#000000"/><text fill="#000000" font-family="sans-serif" font-size="12" font-style="italic" lengthAdjust="spacing" textLength="77" x="365.75" y="612.957">«persistence»</text><text fill="#000000" font-family="sans-serif" font-size="12" lengthAdjust="spacing" textLength="66" x="371.25" y="628.0508">AppSettings</text><line style="stroke:#A80036;stroke-width:1.5;" x1="326" x2="454" y1="635.6875" y2="635.6875"/><line style="stroke:#A80036;stroke-width:1.5;" x1="326" x2="454" y1="643.6875" y2="643.6875"/><text fill="#000000" font-family="sans-serif" font-size="11" lengthAdjust="spacing" textLength="55" x="331" y="659.1064">+instance()</text><text fill="#000000" font-family="sans-serif" font-size="11" lengthAdjust="spacing" textLength="118" x="331" y="672.9424">+getRepositoryFactory()</text><!--MD5=[48590afff58a68e2fcba47824d6f8a11]
class RepositoryFactory--><rect codeLine="53" fill="#FEFECE" filter="url(#fxrjhh1y7f56c)" height="111.5313" id="RepositoryFactory" style="stroke:#A80036;stroke-width:1.5;" width="130" x="749" y="581.5"/><ellipse cx="764" cy="601.5938" fill="#ADD1B2" rx="11" ry="11" style="stroke:#A80036;stroke-width:1.0;"/><path d="M766,598.0938 Q766.2031,597.5938 766.4375,597.3438 Q766.6719,597.0938 766.9375,597.0938 Q767.4063,597.0938 767.7031,597.375 Q768,597.6563 768,598.3125 L768,599.875 Q768,600.5313 767.7188,600.8125 Q767.4375,601.0938 767,601.0938 Q766.6094,601.0938 766.3594,600.9219 Q766.1094,600.75 766,600.2969 Q765.9531,599.9844 765.7813,599.8125 Q765.4688,599.4844 764.9063,599.2969 Q764.3438,599.0938 763.7813,599.0938 Q763.0781,599.0938 762.4844,599.375 Q761.9063,599.6563 761.4531,600.2813 Q761,600.9063 761,601.7656 L761,602.6875 Q761,603.7188 761.8438,604.4063 Q762.6875,605.0938 764.1875,605.0938 Q765.0781,605.0938 765.7031,604.8906 Q766.0625,604.7813 766.4688,604.4219 Q766.7344,604.2188 766.875,604.1563 Q767.0156,604.0938 767.1875,604.0938 Q767.5156,604.0938 767.75,604.3594 Q768,604.6094 768,604.9688 Q768,605.3125 767.6563,605.7188 Q767.1563,606.3125 766.3594,606.6406 Q765.3125,607.0938 764.0313,607.0938 Q762.5313,607.0938 761.3281,606.5 Q760.3594,606.0313 759.6719,605.0156 Q759,604 759,602.7969 L759,601.7031 Q759,600.4531 759.5938,599.3594 Q760.2031,598.2656 761.25,597.6875 Q762.3125,597.0938 763.5,597.0938 Q764.2188,597.0938 764.8438,597.3438 Q765.4688,597.5938 766,598.0938 Z " fill="#000000"/><text fill="#000000" font-family="sans-serif" font-size="12" font-style="italic" lengthAdjust="spacing" textLength="50" x="802" y="598.957">«factory»</text><text fill="#000000" font-family="sans-serif" font-size="12" lengthAdjust="spacing" textLength="98" x="778" y="614.0508">RepositoryFactory</text><line style="stroke:#A80036;stroke-width:1.5;" x1="750" x2="878" y1="621.6875" y2="621.6875"/><line style="stroke:#A80036;stroke-width:1.5;" x1="750" x2="878" y1="629.6875" y2="629.6875"/><text fill="#000000" font-family="sans-serif" font-size="11" lengthAdjust="spacing" textLength="45" x="755" y="645.1064">+create()</text><text fill="#000000" font-family="sans-serif" font-size="11" lengthAdjust="spacing" textLength="56" x="755" y="658.9424">+servicos()</text><text fill="#000000" font-family="sans-serif" font-size="11" lengthAdjust="spacing" textLength="61" x="755" y="672.7783">+catalogos()</text><text fill="#000000" font-family="sans-serif" font-size="11" lengthAdjust="spacing" textLength="68" x="755" y="686.6143">+formularios()</text><!--MD5=[c442d1a7174f61885988a69cb0f958b4]
class ServiceDraftRepository--><rect codeLine="62" fill="#FEFECE" filter="url(#fxrjhh1y7f56c)" height="97.6953" id="ServiceDraftRepository" style="stroke:#A80036;stroke-width:1.5;" width="157" x="507.5" y="588.5"/><ellipse cx="522.5" cy="608.5938" fill="#ADD1B2" rx="11" ry="11" style="stroke:#A80036;stroke-width:1.0;"/><path d="M524.5,605.0938 Q524.7031,604.5938 524.9375,604.3438 Q525.1719,604.0938 525.4375,604.0938 Q525.9063,604.0938 526.2031,604.375 Q526.5,604.6563 526.5,605.3125 L526.5,606.875 Q526.5,607.5313 526.2188,607.8125 Q525.9375,608.0938 525.5,608.0938 Q525.1094,608.0938 524.8594,607.9219 Q524.6094,607.75 524.5,607.2969 Q524.4531,606.9844 524.2813,606.8125 Q523.9688,606.4844 523.4063,606.2969 Q522.8438,606.0938 522.2813,606.0938 Q521.5781,606.0938 520.9844,606.375 Q520.4063,606.6563 519.9531,607.2813 Q519.5,607.9063 519.5,608.7656 L519.5,609.6875 Q519.5,610.7188 520.3438,611.4063 Q521.1875,612.0938 522.6875,612.0938 Q523.5781,612.0938 524.2031,611.8906 Q524.5625,611.7813 524.9688,611.4219 Q525.2344,611.2188 525.375,611.1563 Q525.5156,611.0938 525.6875,611.0938 Q526.0156,611.0938 526.25,611.3594 Q526.5,611.6094 526.5,611.9688 Q526.5,612.3125 526.1563,612.7188 Q525.6563,613.3125 524.8594,613.6406 Q523.8125,614.0938 522.5313,614.0938 Q521.0313,614.0938 519.8281,613.5 Q518.8594,613.0313 518.1719,612.0156 Q517.5,611 517.5,609.7969 L517.5,608.7031 Q517.5,607.4531 518.0938,606.3594 Q518.7031,605.2656 519.75,604.6875 Q520.8125,604.0938 522,604.0938 Q522.7188,604.0938 523.3438,604.3438 Q523.9688,604.5938 524.5,605.0938 Z " fill="#000000"/><text fill="#000000" font-family="sans-serif" font-size="12" font-style="italic" lengthAdjust="spacing" textLength="68" x="565" y="605.957">«repository»</text><text fill="#000000" font-family="sans-serif" font-size="12" lengthAdjust="spacing" textLength="125" x="536.5" y="621.0508">ServiceDraftRepository</text><line style="stroke:#A80036;stroke-width:1.5;" x1="508.5" x2="663.5" y1="628.6875" y2="628.6875"/><line style="stroke:#A80036;stroke-width:1.5;" x1="508.5" x2="663.5" y1="636.6875" y2="636.6875"/><text fill="#000000" font-family="sans-serif" font-size="11" lengthAdjust="spacing" textLength="45" x="513.5" y="652.1064">+create()</text><text fill="#000000" font-family="sans-serif" font-size="11" lengthAdjust="spacing" textLength="44" x="513.5" y="665.9424">+findAll()</text><text fill="#000000" font-family="sans-serif" font-size="11" lengthAdjust="spacing" textLength="98" x="513.5" y="679.7783">+save(serviceDraft)</text><!--MD5=[22f89721c89d5b9566a4ffee303fac63]
class ServiceDraftRepositoryInterface--><rect codeLine="68" fill="#FEFECE" filter="url(#fxrjhh1y7f56c)" height="48" id="ServiceDraftRepositoryInterface" style="stroke:#A80036;stroke-width:1.5;" width="206" x="487" y="812"/><ellipse cx="502" cy="828" fill="#B4A7E5" rx="11" ry="11" style="stroke:#A80036;stroke-width:1.0;"/><path d="M503,825 L503,831 L505,831 L505.4844,831 L506,831.625 L506,832 L506,832.375 L505.4844,833 L505,833 L499,833 L498.5156,833 L498,832.375 L498,832 L498,831.625 L498.5156,831 L499,831 L501,831 L501,825 L499,825 L498.5156,825 L498,824.375 L498,824 L498,823.625 L498.5156,823 L499,823 L505,823 L505.4844,823 L506,823.625 L506,824 L506,824.375 L505.4844,825 L505,825 L503,825 Z " fill="#000000"/><text fill="#000000" font-family="sans-serif" font-size="12" font-style="italic" lengthAdjust="spacing" textLength="174" x="516" y="832.9102">ServiceDraftRepositoryInterface</text><line style="stroke:#A80036;stroke-width:1.5;" x1="488" x2="692" y1="844" y2="844"/><line style="stroke:#A80036;stroke-width:1.5;" x1="488" x2="692" y1="852" y2="852"/><!--MD5=[d568bf6952dfaa758c50ee009ebf67dd]
link ServiceDraftFieldSpecificationUI to ServiceDraftSpecificationController--><path codeLine="74" d="M152,118.16 C152,143.04 152,181.39 152,217.46 " fill="none" id="ServiceDraftFieldSpecificationUI-to-ServiceDraftSpecificationController" style="stroke:#A80036;stroke-width:1.0;stroke-dasharray:7.0,7.0;"/><polygon fill="#A80036" points="152,222.77,156,213.77,152,217.77,148,213.77,152,222.77" style="stroke:#A80036;stroke-width:1.0;"/><!--MD5=[c4515eb8dbaedaae32cf288fd2687d91]
link ServiceDraftSpecificationController to PersistenceContext--><path codeLine="75" d="M152,404.19 C152,467.57 152,549.43 152,597.13 " fill="none" id="ServiceDraftSpecificationController-to-PersistenceContext" style="stroke:#A80036;stroke-width:1.0;stroke-dasharray:7.0,7.0;"/><polygon fill="#A80036" points="152,602.21,156,593.21,152,597.21,148,593.21,152,602.21" style="stroke:#A80036;stroke-width:1.0;"/><!--MD5=[013c093f641f8740a568aa5157f9e0d6]
link ServiceDraftRepository to ServiceDraftRepositoryInterface--><path codeLine="77" d="M586.98,686.57 C587.74,724.16 588.78,775.15 589.42,806.53 " fill="none" id="ServiceDraftRepository-to-ServiceDraftRepositoryInterface" style="stroke:#A80036;stroke-width:1.0;stroke-dasharray:7.0,7.0;"/><polygon fill="#A80036" points="589.53,811.77,593.3487,802.6916,589.4297,806.771,585.3503,802.852,589.53,811.77" style="stroke:#A80036;stroke-width:1.0;"/><!--MD5=[d66efb439816738ddd3e9d5fff4bf3a7]
link AppSettings to RepositoryFactory--><path codeLine="79" d="M397.92,595.2 C407.72,556.13 428.61,500.31 471,474 C515.94,446.11 662.58,448.65 709,474 C748.67,495.67 775.57,539.44 792.21,576.25 " fill="none" id="AppSettings-to-RepositoryFactory" style="stroke:#A80036;stroke-width:1.0;"/><polygon fill="#A80036" points="794.39,581.16,794.3957,571.3111,792.362,576.5898,787.0833,574.556,794.39,581.16" style="stroke:#A80036;stroke-width:1.0;"/><text fill="#000000" font-family="sans-serif" font-size="13" lengthAdjust="spacing" textLength="43" x="705.5" y="450.4951">creates</text><!--MD5=[27fe1c91fe18bafc5695938053528609]
link PersistenceContext to AppSettings--><path codeLine="80" d="M221.8,637.5 C252.53,637.5 288.57,637.5 319.39,637.5 " fill="none" id="PersistenceContext-to-AppSettings" style="stroke:#A80036;stroke-width:1.0;"/><polygon fill="#A80036" points="324.69,637.5,315.69,633.5,319.69,637.5,315.69,641.5,324.69,637.5" style="stroke:#A80036;stroke-width:1.0;"/><text fill="#000000" font-family="sans-serif" font-size="13" lengthAdjust="spacing" textLength="67" x="239.75" y="630.9951">implements</text><!--MD5=[c099f118843079ed39661509eb060af6]
link RepositoryFactory to ServiceDraftRepository--><path codeLine="82" d="M748.82,637.5 C724.27,637.5 695.99,637.5 669.96,637.5 " fill="none" id="RepositoryFactory-to-ServiceDraftRepository" style="stroke:#A80036;stroke-width:1.0;"/><polygon fill="#A80036" points="664.78,637.5,673.78,641.5,669.78,637.5,673.78,633.5,664.78,637.5" style="stroke:#A80036;stroke-width:1.0;"/><text fill="#000000" font-family="sans-serif" font-size="13" lengthAdjust="spacing" textLength="21" x="696.25" y="630.9951">has</text><text fill="#000000" font-family="sans-serif" font-size="13" lengthAdjust="spacing" textLength="7" x="733.8789" y="634.1175">1</text><text fill="#000000" font-family="sans-serif" font-size="13" lengthAdjust="spacing" textLength="7" x="672.6223" y="634.2639">1</text><!--MD5=[d53e096ef2f9280c1f0af98ac059945b]
link ServiceDraftRepository to ServiceDraft--><path codeLine="84" d="M614.09,588.21 C639.5,549.09 680.88,497.23 733,474 C798.76,444.69 827.77,448.24 895,474 C923.49,484.92 950.33,502.59 974.19,522.36 " fill="none" id="ServiceDraftRepository-to-ServiceDraft" style="stroke:#A80036;stroke-width:1.0;"/><polygon fill="#A80036" points="978.3,525.81,973.9791,516.9596,974.4706,522.595,968.8352,523.0866,978.3,525.81" style="stroke:#A80036;stroke-width:1.0;"/><text fill="#000000" font-family="sans-serif" font-size="13" lengthAdjust="spacing" textLength="33" x="665.5" y="450.4951">saves</text><text fill="#000000" font-family="sans-serif" font-size="13" lengthAdjust="spacing" textLength="7" x="610.548" y="577.6949">1</text><text fill="#000000" font-family="sans-serif" font-size="13" lengthAdjust="spacing" textLength="5" x="966.5006" y="515.2592">*</text><!--MD5=[a49a0d9b7e06ca5e60bc4acaa76a45a7]
@startuml
skinparam classAttributeIconSize 0

package "Presentation" #DDDDDD {
class ServiceDraftFieldSpecificationUI<<presentation>>{

}
}


package "Application" #DDDDDD {
class ServiceDraftSpecificationController<<application>>{
+create()
+getDrafts()
+newDraft()
+addTitle()
+addBriefDescription(briefDescription)
+addCompleteDescription(completeDescription)
+addKeywordList(keywordList)
+addFeedback(feedback)
+saveServiceDraft(serviceDraft)
}
}


package "Domain" #DDDDDD {
class ServiceDraft<<Entity>><<Root>>{
- title
- briefDescription
- completeDescription
- keyword
- feedback
+create()
+setTitle()
+setBriefDescription(briefDescription)
+setCompleteDescription(completeDescription)
+setKeywordList(keywordList)
+setFeedback(feedback)
}

}

package Persistence #DDDDDD {
class PersistenceContext<<persistence>>{
+repositories()
}

class AppSettings<<persistence>>{
+instance()
+getRepositoryFactory()
}

package Factory #DDDDDD {
class RepositoryFactory<<factory>>{
+create()
+servicos()
+catalogos()
+formularios()
}
}

package "Repository" #DDDDDD {
class ServiceDraftRepository<<repository>>{
+create()
+findAll()
+save(serviceDraft)
}

interface ServiceDraftRepositoryInterface{

}



ServiceDraftFieldSpecificationUI ..> ServiceDraftSpecificationController
ServiceDraftSpecificationController ..> PersistenceContext

ServiceDraftRepository ..> ServiceDraftRepositoryInterface

AppSettings -> RepositoryFactory : creates
PersistenceContext -> AppSettings : implements

RepositoryFactory "1" -> "1" ServiceDraftRepository : has

ServiceDraftRepository "1" -> "*" ServiceDraft : saves

@enduml

PlantUML version 1.2021.5(Sun Apr 25 12:20:28 BST 2021)
(GPL source distribution)
Java Runtime: OpenJDK Runtime Environment
JVM: Dynamic Code Evolution 64-Bit Server VM
Default Encoding: Cp1252
Language: pt
Country: PT
--></g></svg>