<?xml version="1.0" encoding="UTF-8" standalone="no"?><svg xmlns="http://www.w3.org/2000/svg" xmlns:xlink="http://www.w3.org/1999/xlink" contentScriptType="application/ecmascript" contentStyleType="text/css" height="1521px" preserveAspectRatio="none" style="width:1572px;height:1521px;" version="1.1" viewBox="0 0 1572 1521" width="1572px" zoomAndPan="magnify"><defs><filter height="300%" id="f1oc2w83e7y7pv" width="300%" x="-1" y="-1"><feGaussianBlur result="blurOut" stdDeviation="2.0"/><feColorMatrix in="blurOut" result="blurOut2" type="matrix" values="0 0 0 0 0 0 0 0 0 0 0 0 0 0 0 0 0 0 .4 0"/><feOffset dx="4.0" dy="4.0" in="blurOut2" result="blurOut3"/><feBlend in="SourceGraphic" in2="blurOut3" mode="normal"/></filter></defs><g><rect fill="#FFFFFF" filter="url(#f1oc2w83e7y7pv)" height="1396.875" style="stroke:#A80036;stroke-width:1.0;" width="10" x="129" y="99.6094"/><rect fill="#FFFFFF" filter="url(#f1oc2w83e7y7pv)" height="142.2734" style="stroke:#A80036;stroke-width:1.0;" width="10" x="505" y="121.9609"/><rect fill="#FFFFFF" filter="url(#f1oc2w83e7y7pv)" height="177.1094" style="stroke:#A80036;stroke-width:1.0;" width="10" x="505" y="294.5859"/><rect fill="#FFFFFF" filter="url(#f1oc2w83e7y7pv)" height="173.1094" style="stroke:#A80036;stroke-width:1.0;" width="10" x="505" y="502.0469"/><rect fill="#FFFFFF" filter="url(#f1oc2w83e7y7pv)" height="30.3516" style="stroke:#A80036;stroke-width:1.0;" width="10" x="505" y="705.5078"/><rect fill="#FFFFFF" filter="url(#f1oc2w83e7y7pv)" height="81.0547" style="stroke:#A80036;stroke-width:1.0;" width="10" x="505" y="766.2109"/><rect fill="#FFFFFF" filter="url(#f1oc2w83e7y7pv)" height="30.3516" style="stroke:#A80036;stroke-width:1.0;" width="10" x="505" y="877.6172"/><rect fill="#FFFFFF" filter="url(#f1oc2w83e7y7pv)" height="143.8906" style="stroke:#A80036;stroke-width:1.0;" width="10" x="505" y="938.3203"/><rect fill="#FFFFFF" filter="url(#f1oc2w83e7y7pv)" height="101.4063" style="stroke:#A80036;stroke-width:1.0;" width="10" x="505" y="1112.5625"/><rect fill="#FFFFFF" filter="url(#f1oc2w83e7y7pv)" height="53.7031" style="stroke:#A80036;stroke-width:1.0;" width="10" x="505" y="1244.3203"/><rect fill="#FFFFFF" filter="url(#f1oc2w83e7y7pv)" height="168.1094" style="stroke:#A80036;stroke-width:1.0;" width="10" x="505" y="1328.375"/><rect fill="#FFFFFF" filter="url(#f1oc2w83e7y7pv)" height="101.9219" style="stroke:#A80036;stroke-width:1.0;" width="10" x="743.5" y="162.3125"/><rect fill="#FFFFFF" filter="url(#f1oc2w83e7y7pv)" height="91.0547" style="stroke:#A80036;stroke-width:1.0;" width="10" x="743.5" y="350.2891"/><rect fill="#FFFFFF" filter="url(#f1oc2w83e7y7pv)" height="30.3516" style="stroke:#A80036;stroke-width:1.0;" width="10" x="743.5" y="548.2344"/><rect fill="#FFFFFF" filter="url(#f1oc2w83e7y7pv)" height="60.3516" style="stroke:#A80036;stroke-width:1.0;" width="10" x="743.5" y="975.6719"/><rect fill="#FFFFFF" filter="url(#f1oc2w83e7y7pv)" height="91.0547" style="stroke:#A80036;stroke-width:1.0;" width="10" x="743.5" y="1358.7266"/><rect fill="#FFFFFF" filter="url(#f1oc2w83e7y7pv)" height="30.3516" style="stroke:#A80036;stroke-width:1.0;" width="10" x="948.5" y="380.6406"/><rect fill="#FFFFFF" filter="url(#f1oc2w83e7y7pv)" height="30.3516" style="stroke:#A80036;stroke-width:1.0;" width="10" x="948.5" y="1389.0781"/><rect fill="#FFFFFF" filter="url(#f1oc2w83e7y7pv)" height="30" style="stroke:#A80036;stroke-width:1.0;" width="10" x="1082.5" y="1006.0234"/><rect fill="#FFFFFF" filter="url(#f1oc2w83e7y7pv)" height="310.8672" style="stroke:#000000;stroke-width:2.0;" width="1115.5" x="30" y="309.5859"/><rect fill="#FFFFFF" height="110.4063" style="stroke:none;stroke-width:1.0;" width="1115.5" x="30" y="510.0469"/><rect fill="#FFFFFF" filter="url(#f1oc2w83e7y7pv)" height="617.8672" style="stroke:#000000;stroke-width:2.0;" width="1145.5" x="10" y="634.4531"/><rect fill="#FFFFFF" filter="url(#f1oc2w83e7y7pv)" height="387.0547" style="stroke:#000000;stroke-width:2.0;" width="1125.5" x="20" y="781.2109"/><rect fill="#FFFFFF" filter="url(#f1oc2w83e7y7pv)" height="139.7578" style="stroke:#000000;stroke-width:2.0;" width="599.5" x="30" y="806.5625"/><rect fill="#FFFFFF" height="124.2422" style="stroke:none;stroke-width:1.0;" width="1125.5" x="20" y="1044.0234"/><line style="stroke:#A80036;stroke-width:1.0;stroke-dasharray:5.0,5.0;" x1="134" x2="134" y1="89.6094" y2="1514.4844"/><line style="stroke:#A80036;stroke-width:1.0;stroke-dasharray:5.0,5.0;" x1="509.5" x2="509.5" y1="89.6094" y2="1514.4844"/><line style="stroke:#A80036;stroke-width:1.0;stroke-dasharray:5.0,5.0;" x1="748.5" x2="748.5" y1="172.0703" y2="1514.4844"/><line style="stroke:#A80036;stroke-width:1.0;stroke-dasharray:5.0,5.0;" x1="953.5" x2="953.5" y1="89.6094" y2="1514.4844"/><line style="stroke:#A80036;stroke-width:1.0;stroke-dasharray:5.0,5.0;" x1="1087.5" x2="1087.5" y1="598.3438" y2="1514.4844"/><line style="stroke:#A80036;stroke-width:1.0;stroke-dasharray:5.0,5.0;" x1="1215.5" x2="1215.5" y1="89.6094" y2="1514.4844"/><line style="stroke:#A80036;stroke-width:1.0;stroke-dasharray:5.0,5.0;" x1="1356.5" x2="1356.5" y1="89.6094" y2="1514.4844"/><line style="stroke:#A80036;stroke-width:1.0;stroke-dasharray:5.0,5.0;" x1="1495.5" x2="1495.5" y1="89.6094" y2="1514.4844"/><text fill="#000000" font-family="sans-serif" font-size="14" lengthAdjust="spacing" textLength="182" x="40" y="86.5332">Help Desk Services Manager</text><ellipse cx="134" cy="15" fill="#FEFECE" filter="url(#f1oc2w83e7y7pv)" rx="8" ry="8" style="stroke:#A80036;stroke-width:2.0;"/><path d="M134,23 L134,50 M121,31 L147,31 M134,50 L121,65 M134,50 L147,65 " fill="none" filter="url(#f1oc2w83e7y7pv)" style="stroke:#A80036;stroke-width:2.0;"/><rect fill="#FEFECE" filter="url(#f1oc2w83e7y7pv)" height="49.2188" style="stroke:#A80036;stroke-width:1.5;" width="215" x="400.5" y="35.3906"/><text fill="#000000" font-family="sans-serif" font-size="14" lengthAdjust="spacing" textLength="111" x="452.5" y="56.9238">&lt;&lt;presentation&gt;&gt;</text><text fill="#000000" font-family="sans-serif" font-size="14" lengthAdjust="spacing" textLength="201" x="407.5" y="74.5332">ServiceDraftFieldSpecificationUI</text><text fill="#000000" font-family="sans-serif" font-size="14" lengthAdjust="spacing" textLength="95" x="903" y="68.9238">&lt;&lt;repository&gt;&gt;</text><text fill="#000000" font-family="sans-serif" font-size="14" lengthAdjust="spacing" textLength="146" x="877.5" y="86.5332">ServiceDraftRepository</text><path d="M935.5,18.3906 C935.5,8.3906 953.5,8.3906 953.5,8.3906 C953.5,8.3906 971.5,8.3906 971.5,18.3906 L971.5,44.3906 C971.5,54.3906 953.5,54.3906 953.5,54.3906 C953.5,54.3906 935.5,54.3906 935.5,44.3906 L935.5,18.3906 " fill="#FEFECE" filter="url(#f1oc2w83e7y7pv)" style="stroke:#000000;stroke-width:1.5;"/><path d="M935.5,18.3906 C935.5,28.3906 953.5,28.3906 953.5,28.3906 C953.5,28.3906 971.5,28.3906 971.5,18.3906 " fill="none" style="stroke:#000000;stroke-width:1.5;"/><rect fill="#FEFECE" filter="url(#f1oc2w83e7y7pv)" height="49.2188" style="stroke:#A80036;stroke-width:1.5;" width="136" x="1145.5" y="35.3906"/><text fill="#000000" font-family="sans-serif" font-size="14" lengthAdjust="spacing" textLength="105" x="1161" y="56.9238">&lt;&lt;persistence&gt;&gt;</text><text fill="#000000" font-family="sans-serif" font-size="14" lengthAdjust="spacing" textLength="122" x="1152.5" y="74.5332">PersistenceContext</text><rect fill="#FEFECE" filter="url(#f1oc2w83e7y7pv)" height="49.2188" style="stroke:#A80036;stroke-width:1.5;" width="119" x="1295.5" y="35.3906"/><text fill="#000000" font-family="sans-serif" font-size="14" lengthAdjust="spacing" textLength="105" x="1302.5" y="56.9238">&lt;&lt;persistence&gt;&gt;</text><text fill="#000000" font-family="sans-serif" font-size="14" lengthAdjust="spacing" textLength="76" x="1317" y="74.5332">AppSettings</text><rect fill="#FEFECE" filter="url(#f1oc2w83e7y7pv)" height="49.2188" style="stroke:#A80036;stroke-width:1.5;" width="130" x="1428.5" y="35.3906"/><text fill="#000000" font-family="sans-serif" font-size="14" lengthAdjust="spacing" textLength="75" x="1456" y="56.9238">&lt;&lt;factory&gt;&gt;</text><text fill="#000000" font-family="sans-serif" font-size="14" lengthAdjust="spacing" textLength="116" x="1435.5" y="74.5332">RepositoryFactory</text><rect fill="#FFFFFF" filter="url(#f1oc2w83e7y7pv)" height="1396.875" style="stroke:#A80036;stroke-width:1.0;" width="10" x="129" y="99.6094"/><rect fill="#FFFFFF" filter="url(#f1oc2w83e7y7pv)" height="142.2734" style="stroke:#A80036;stroke-width:1.0;" width="10" x="505" y="121.9609"/><rect fill="#FFFFFF" filter="url(#f1oc2w83e7y7pv)" height="177.1094" style="stroke:#A80036;stroke-width:1.0;" width="10" x="505" y="294.5859"/><rect fill="#FFFFFF" filter="url(#f1oc2w83e7y7pv)" height="173.1094" style="stroke:#A80036;stroke-width:1.0;" width="10" x="505" y="502.0469"/><rect fill="#FFFFFF" filter="url(#f1oc2w83e7y7pv)" height="30.3516" style="stroke:#A80036;stroke-width:1.0;" width="10" x="505" y="705.5078"/><rect fill="#FFFFFF" filter="url(#f1oc2w83e7y7pv)" height="81.0547" style="stroke:#A80036;stroke-width:1.0;" width="10" x="505" y="766.2109"/><rect fill="#FFFFFF" filter="url(#f1oc2w83e7y7pv)" height="30.3516" style="stroke:#A80036;stroke-width:1.0;" width="10" x="505" y="877.6172"/><rect fill="#FFFFFF" filter="url(#f1oc2w83e7y7pv)" height="143.8906" style="stroke:#A80036;stroke-width:1.0;" width="10" x="505" y="938.3203"/><rect fill="#FFFFFF" filter="url(#f1oc2w83e7y7pv)" height="101.4063" style="stroke:#A80036;stroke-width:1.0;" width="10" x="505" y="1112.5625"/><rect fill="#FFFFFF" filter="url(#f1oc2w83e7y7pv)" height="53.7031" style="stroke:#A80036;stroke-width:1.0;" width="10" x="505" y="1244.3203"/><rect fill="#FFFFFF" filter="url(#f1oc2w83e7y7pv)" height="168.1094" style="stroke:#A80036;stroke-width:1.0;" width="10" x="505" y="1328.375"/><rect fill="#FFFFFF" filter="url(#f1oc2w83e7y7pv)" height="101.9219" style="stroke:#A80036;stroke-width:1.0;" width="10" x="743.5" y="162.3125"/><rect fill="#FFFFFF" filter="url(#f1oc2w83e7y7pv)" height="91.0547" style="stroke:#A80036;stroke-width:1.0;" width="10" x="743.5" y="350.2891"/><rect fill="#FFFFFF" filter="url(#f1oc2w83e7y7pv)" height="30.3516" style="stroke:#A80036;stroke-width:1.0;" width="10" x="743.5" y="548.2344"/><rect fill="#FFFFFF" filter="url(#f1oc2w83e7y7pv)" height="60.3516" style="stroke:#A80036;stroke-width:1.0;" width="10" x="743.5" y="975.6719"/><rect fill="#FFFFFF" filter="url(#f1oc2w83e7y7pv)" height="91.0547" style="stroke:#A80036;stroke-width:1.0;" width="10" x="743.5" y="1358.7266"/><rect fill="#FFFFFF" filter="url(#f1oc2w83e7y7pv)" height="30.3516" style="stroke:#A80036;stroke-width:1.0;" width="10" x="948.5" y="380.6406"/><rect fill="#FFFFFF" filter="url(#f1oc2w83e7y7pv)" height="30.3516" style="stroke:#A80036;stroke-width:1.0;" width="10" x="948.5" y="1389.0781"/><rect fill="#FFFFFF" filter="url(#f1oc2w83e7y7pv)" height="30" style="stroke:#A80036;stroke-width:1.0;" width="10" x="1082.5" y="1006.0234"/><polygon fill="#A80036" points="493,117.9609,503,121.9609,493,125.9609,497,121.9609" style="stroke:#A80036;stroke-width:1.0;"/><line style="stroke:#A80036;stroke-width:1.0;" x1="139" x2="499" y1="121.9609" y2="121.9609"/><text fill="#000000" font-family="sans-serif" font-size="13" font-weight="bold" lengthAdjust="spacing" textLength="7" x="146" y="117.1045">1</text><text fill="#000000" font-family="sans-serif" font-size="13" lengthAdjust="spacing" textLength="333" x="157" y="117.1045">initiates the request to add/update a field in a service draft</text><polygon fill="#A80036" points="617.5,148.3125,627.5,152.3125,617.5,156.3125,621.5,152.3125" style="stroke:#A80036;stroke-width:1.0;"/><line style="stroke:#A80036;stroke-width:1.0;" x1="515" x2="623.5" y1="152.3125" y2="152.3125"/><text fill="#000000" font-family="sans-serif" font-size="13" font-weight="bold" lengthAdjust="spacing" textLength="7" x="522" y="147.4561">2</text><text fill="#000000" font-family="sans-serif" font-size="13" lengthAdjust="spacing" textLength="36" x="533" y="147.4561">create</text><rect fill="#FEFECE" filter="url(#f1oc2w83e7y7pv)" height="49.2188" style="stroke:#A80036;stroke-width:1.5;" width="234" x="629.5" y="129.9609"/><text fill="#000000" font-family="sans-serif" font-size="14" lengthAdjust="spacing" textLength="100" x="696.5" y="151.4941">&lt;&lt;application&gt;&gt;</text><text fill="#000000" font-family="sans-serif" font-size="14" lengthAdjust="spacing" textLength="220" x="636.5" y="169.1035">ServiceDraftSpecificationController</text><rect fill="#FFFFFF" filter="url(#f1oc2w83e7y7pv)" height="42.7031" style="stroke:#000000;stroke-width:2.0;" width="240" x="626.5" y="194.1797"/><polygon fill="#EEEEEE" points="626.5,194.1797,688.5,194.1797,688.5,202.1797,678.5,212.1797,626.5,212.1797,626.5,194.1797" style="stroke:#000000;stroke-width:2.0;"/><text fill="#000000" font-family="sans-serif" font-size="13" font-weight="bold" lengthAdjust="spacing" textLength="17" x="639.5" y="209.6748">ref</text><text fill="#000000" font-family="sans-serif" font-size="13" lengthAdjust="spacing" textLength="123" x="687" y="229.6748">US-1-2002_SD_Repo</text><polygon fill="#A80036" points="150,260.2344,140,264.2344,150,268.2344,146,264.2344" style="stroke:#A80036;stroke-width:1.0;"/><line style="stroke:#A80036;stroke-width:1.0;" x1="144" x2="509" y1="264.2344" y2="264.2344"/><text fill="#000000" font-family="sans-serif" font-size="13" font-weight="bold" lengthAdjust="spacing" textLength="7" x="156" y="259.3779">3</text><text fill="#000000" font-family="sans-serif" font-size="13" lengthAdjust="spacing" textLength="279" x="167" y="259.3779">asks if the user pretends to use an existing draft</text><polygon fill="#A80036" points="493,290.5859,503,294.5859,493,298.5859,497,294.5859" style="stroke:#A80036;stroke-width:1.0;"/><line style="stroke:#A80036;stroke-width:1.0;" x1="139" x2="499" y1="294.5859" y2="294.5859"/><text fill="#000000" font-family="sans-serif" font-size="13" font-weight="bold" lengthAdjust="spacing" textLength="7" x="146" y="289.7295">4</text><text fill="#000000" font-family="sans-serif" font-size="13" lengthAdjust="spacing" textLength="53" x="157" y="289.7295">responds</text><path d="M30,309.5859 L91,309.5859 L91,317.5859 L81,327.5859 L30,327.5859 L30,309.5859 " fill="#EEEEEE" style="stroke:#000000;stroke-width:1.0;"/><rect fill="none" height="310.8672" style="stroke:#000000;stroke-width:2.0;" width="1115.5" x="30" y="309.5859"/><text fill="#000000" font-family="sans-serif" font-size="13" font-weight="bold" lengthAdjust="spacing" textLength="16" x="45" y="324.0811">alt</text><text fill="#000000" font-family="sans-serif" font-size="11" font-weight="bold" lengthAdjust="spacing" textLength="249" x="106" y="323.0049">[if the user pretends to use an existing draft]</text><polygon fill="#A80036" points="731.5,346.2891,741.5,350.2891,731.5,354.2891,735.5,350.2891" style="stroke:#A80036;stroke-width:1.0;"/><line style="stroke:#A80036;stroke-width:1.0;" x1="515" x2="737.5" y1="350.2891" y2="350.2891"/><text fill="#000000" font-family="sans-serif" font-size="13" font-weight="bold" lengthAdjust="spacing" textLength="7" x="522" y="345.4326">5</text><text fill="#000000" font-family="sans-serif" font-size="13" lengthAdjust="spacing" textLength="60" x="533" y="345.4326">getDrafts()</text><polygon fill="#A80036" points="936.5,376.6406,946.5,380.6406,936.5,384.6406,940.5,380.6406" style="stroke:#A80036;stroke-width:1.0;"/><line style="stroke:#A80036;stroke-width:1.0;" x1="753.5" x2="942.5" y1="380.6406" y2="380.6406"/><text fill="#000000" font-family="sans-serif" font-size="13" font-weight="bold" lengthAdjust="spacing" textLength="7" x="760.5" y="375.7842">6</text><text fill="#000000" font-family="sans-serif" font-size="13" lengthAdjust="spacing" textLength="43" x="771.5" y="375.7842">findAll()</text><polygon fill="#A80036" points="764.5,406.9922,754.5,410.9922,764.5,414.9922,760.5,410.9922" style="stroke:#A80036;stroke-width:1.0;"/><line style="stroke:#A80036;stroke-width:1.0;stroke-dasharray:2.0,2.0;" x1="758.5" x2="952.5" y1="410.9922" y2="410.9922"/><text fill="#000000" font-family="sans-serif" font-size="13" font-weight="bold" lengthAdjust="spacing" textLength="7" x="770.5" y="406.1357">7</text><text fill="#000000" font-family="sans-serif" font-size="13" lengthAdjust="spacing" textLength="32" x="781.5" y="406.1357">drafts</text><polygon fill="#A80036" points="526,437.3438,516,441.3438,526,445.3438,522,441.3438" style="stroke:#A80036;stroke-width:1.0;"/><line style="stroke:#A80036;stroke-width:1.0;stroke-dasharray:2.0,2.0;" x1="520" x2="747.5" y1="441.3438" y2="441.3438"/><text fill="#000000" font-family="sans-serif" font-size="13" font-weight="bold" lengthAdjust="spacing" textLength="7" x="532" y="436.4873">8</text><text fill="#000000" font-family="sans-serif" font-size="13" lengthAdjust="spacing" textLength="32" x="543" y="436.4873">drafts</text><polygon fill="#A80036" points="150,467.6953,140,471.6953,150,475.6953,146,471.6953" style="stroke:#A80036;stroke-width:1.0;"/><line style="stroke:#A80036;stroke-width:1.0;" x1="144" x2="509" y1="471.6953" y2="471.6953"/><text fill="#000000" font-family="sans-serif" font-size="13" font-weight="bold" lengthAdjust="spacing" textLength="7" x="156" y="466.8389">9</text><text fill="#000000" font-family="sans-serif" font-size="13" lengthAdjust="spacing" textLength="331" x="167" y="466.8389">presents the draft list and asks the user to choose a draft</text><polygon fill="#A80036" points="493,498.0469,503,502.0469,493,506.0469,497,502.0469" style="stroke:#A80036;stroke-width:1.0;"/><line style="stroke:#A80036;stroke-width:1.0;" x1="139" x2="499" y1="502.0469" y2="502.0469"/><text fill="#000000" font-family="sans-serif" font-size="13" font-weight="bold" lengthAdjust="spacing" textLength="14" x="146" y="497.1904">10</text><text fill="#000000" font-family="sans-serif" font-size="13" lengthAdjust="spacing" textLength="89" x="164" y="497.1904">chooses a draft</text><line style="stroke:#000000;stroke-width:1.0;stroke-dasharray:2.0,2.0;" x1="30" x2="1145.5" y1="511.0469" y2="511.0469"/><text fill="#000000" font-family="sans-serif" font-size="11" font-weight="bold" lengthAdjust="spacing" textLength="260" x="35" y="522.4658">[if the user pretends to use create a new draft]</text><polygon fill="#A80036" points="731.5,544.2344,741.5,548.2344,731.5,552.2344,735.5,548.2344" style="stroke:#A80036;stroke-width:1.0;"/><line style="stroke:#A80036;stroke-width:1.0;" x1="515" x2="737.5" y1="548.2344" y2="548.2344"/><text fill="#000000" font-family="sans-serif" font-size="13" font-weight="bold" lengthAdjust="spacing" textLength="14" x="522" y="543.3779">11</text><text fill="#000000" font-family="sans-serif" font-size="13" lengthAdjust="spacing" textLength="58" x="540" y="543.3779">newDraft()</text><polygon fill="#A80036" points="1027.5,574.5859,1037.5,578.5859,1027.5,582.5859,1031.5,578.5859" style="stroke:#A80036;stroke-width:1.0;"/><line style="stroke:#A80036;stroke-width:1.0;stroke-dasharray:2.0,2.0;" x1="748.5" x2="1033.5" y1="578.5859" y2="578.5859"/><text fill="#000000" font-family="sans-serif" font-size="13" font-weight="bold" lengthAdjust="spacing" textLength="14" x="755.5" y="573.7295">12</text><text fill="#000000" font-family="sans-serif" font-size="13" lengthAdjust="spacing" textLength="36" x="773.5" y="573.7295">create</text><rect fill="#FEFECE" filter="url(#f1oc2w83e7y7pv)" height="49.2188" style="stroke:#A80036;stroke-width:1.5;" width="92" x="1039.5" y="556.2344"/><text fill="#000000" font-family="sans-serif" font-size="14" lengthAdjust="spacing" textLength="78" x="1046.5" y="577.7676">&lt;&lt;domain&gt;&gt;</text><text fill="#000000" font-family="sans-serif" font-size="14" lengthAdjust="spacing" textLength="78" x="1046.5" y="595.377">ServiceDraft</text><path d="M10,634.4531 L83,634.4531 L83,642.4531 L73,652.4531 L10,652.4531 L10,634.4531 " fill="#EEEEEE" style="stroke:#000000;stroke-width:1.0;"/><rect fill="none" height="617.8672" style="stroke:#000000;stroke-width:2.0;" width="1145.5" x="10" y="634.4531"/><text fill="#000000" font-family="sans-serif" font-size="13" font-weight="bold" lengthAdjust="spacing" textLength="28" x="25" y="648.9482">loop</text><text fill="#000000" font-family="sans-serif" font-size="11" font-weight="bold" lengthAdjust="spacing" textLength="261" x="98" y="647.8721">[until the user doesn't want to add more fields]</text><polygon fill="#A80036" points="150,671.1563,140,675.1563,150,679.1563,146,675.1563" style="stroke:#A80036;stroke-width:1.0;"/><line style="stroke:#A80036;stroke-width:1.0;" x1="144" x2="509" y1="675.1563" y2="675.1563"/><text fill="#000000" font-family="sans-serif" font-size="13" font-weight="bold" lengthAdjust="spacing" textLength="14" x="156" y="670.2998">13</text><text fill="#000000" font-family="sans-serif" font-size="13" lengthAdjust="spacing" textLength="305" x="174" y="670.2998">asks which field does the user pretend to add/update</text><polygon fill="#A80036" points="493,701.5078,503,705.5078,493,709.5078,497,705.5078" style="stroke:#A80036;stroke-width:1.0;"/><line style="stroke:#A80036;stroke-width:1.0;" x1="139" x2="499" y1="705.5078" y2="705.5078"/><text fill="#000000" font-family="sans-serif" font-size="13" font-weight="bold" lengthAdjust="spacing" textLength="14" x="146" y="700.6514">14</text><text fill="#000000" font-family="sans-serif" font-size="13" lengthAdjust="spacing" textLength="98" x="164" y="700.6514">chooses the field</text><polygon fill="#A80036" points="150,731.8594,140,735.8594,150,739.8594,146,735.8594" style="stroke:#A80036;stroke-width:1.0;"/><line style="stroke:#A80036;stroke-width:1.0;" x1="144" x2="509" y1="735.8594" y2="735.8594"/><text fill="#000000" font-family="sans-serif" font-size="13" font-weight="bold" lengthAdjust="spacing" textLength="14" x="156" y="731.0029">15</text><text fill="#000000" font-family="sans-serif" font-size="13" lengthAdjust="spacing" textLength="201" x="174" y="731.0029">requests the user to insert the field</text><polygon fill="#A80036" points="493,762.2109,503,766.2109,493,770.2109,497,766.2109" style="stroke:#A80036;stroke-width:1.0;"/><line style="stroke:#A80036;stroke-width:1.0;" x1="139" x2="499" y1="766.2109" y2="766.2109"/><text fill="#000000" font-family="sans-serif" font-size="13" font-weight="bold" lengthAdjust="spacing" textLength="14" x="146" y="761.3545">16</text><text fill="#000000" font-family="sans-serif" font-size="13" lengthAdjust="spacing" textLength="91" x="164" y="761.3545">selects the field</text><path d="M20,781.2109 L81,781.2109 L81,789.2109 L71,799.2109 L20,799.2109 L20,781.2109 " fill="#EEEEEE" style="stroke:#000000;stroke-width:1.0;"/><rect fill="none" height="387.0547" style="stroke:#000000;stroke-width:2.0;" width="1125.5" x="20" y="781.2109"/><text fill="#000000" font-family="sans-serif" font-size="13" font-weight="bold" lengthAdjust="spacing" textLength="16" x="35" y="795.7061">alt</text><text fill="#000000" font-family="sans-serif" font-size="11" font-weight="bold" lengthAdjust="spacing" textLength="212" x="96" y="794.6299">[if the user chooses to add keywords]</text><path d="M30,806.5625 L103,806.5625 L103,814.5625 L93,824.5625 L30,824.5625 L30,806.5625 " fill="#EEEEEE" style="stroke:#000000;stroke-width:1.0;"/><rect fill="none" height="139.7578" style="stroke:#000000;stroke-width:2.0;" width="599.5" x="30" y="806.5625"/><text fill="#000000" font-family="sans-serif" font-size="13" font-weight="bold" lengthAdjust="spacing" textLength="28" x="45" y="821.0576">loop</text><text fill="#000000" font-family="sans-serif" font-size="11" font-weight="bold" lengthAdjust="spacing" textLength="224" x="118" y="819.9814">[until there is no more keywords to add]</text><polygon fill="#A80036" points="150,843.2656,140,847.2656,150,851.2656,146,847.2656" style="stroke:#A80036;stroke-width:1.0;"/><line style="stroke:#A80036;stroke-width:1.0;" x1="144" x2="509" y1="847.2656" y2="847.2656"/><text fill="#000000" font-family="sans-serif" font-size="13" font-weight="bold" lengthAdjust="spacing" textLength="14" x="156" y="842.4092">17</text><text fill="#000000" font-family="sans-serif" font-size="13" lengthAdjust="spacing" textLength="226" x="174" y="842.4092">requests the user to insert the keyword</text><polygon fill="#A80036" points="493,873.6172,503,877.6172,493,881.6172,497,877.6172" style="stroke:#A80036;stroke-width:1.0;"/><line style="stroke:#A80036;stroke-width:1.0;" x1="139" x2="499" y1="877.6172" y2="877.6172"/><text fill="#000000" font-family="sans-serif" font-size="13" font-weight="bold" lengthAdjust="spacing" textLength="14" x="146" y="872.7607">18</text><text fill="#000000" font-family="sans-serif" font-size="13" lengthAdjust="spacing" textLength="113" x="164" y="872.7607">inserts the keyword</text><polygon fill="#A80036" points="150,903.9688,140,907.9688,150,911.9688,146,907.9688" style="stroke:#A80036;stroke-width:1.0;"/><line style="stroke:#A80036;stroke-width:1.0;" x1="144" x2="509" y1="907.9688" y2="907.9688"/><text fill="#000000" font-family="sans-serif" font-size="13" font-weight="bold" lengthAdjust="spacing" textLength="14" x="156" y="903.1123">19</text><text fill="#000000" font-family="sans-serif" font-size="13" lengthAdjust="spacing" textLength="259" x="174" y="903.1123">asks if the user wants to add more keywords</text><polygon fill="#A80036" points="493,934.3203,503,938.3203,493,942.3203,497,938.3203" style="stroke:#A80036;stroke-width:1.0;"/><line style="stroke:#A80036;stroke-width:1.0;" x1="139" x2="499" y1="938.3203" y2="938.3203"/><text fill="#000000" font-family="sans-serif" font-size="13" font-weight="bold" lengthAdjust="spacing" textLength="14" x="146" y="933.4639">20</text><text fill="#000000" font-family="sans-serif" font-size="13" lengthAdjust="spacing" textLength="53" x="164" y="933.4639">responds</text><polygon fill="#A80036" points="731.5,971.6719,741.5,975.6719,731.5,979.6719,735.5,975.6719" style="stroke:#A80036;stroke-width:1.0;"/><line style="stroke:#A80036;stroke-width:1.0;" x1="515" x2="737.5" y1="975.6719" y2="975.6719"/><text fill="#000000" font-family="sans-serif" font-size="13" font-weight="bold" lengthAdjust="spacing" textLength="14" x="522" y="970.8154">21</text><text fill="#000000" font-family="sans-serif" font-size="13" lengthAdjust="spacing" textLength="169" x="540" y="970.8154">addKeywordList(keywordList)</text><polygon fill="#A80036" points="1070.5,1002.0234,1080.5,1006.0234,1070.5,1010.0234,1074.5,1006.0234" style="stroke:#A80036;stroke-width:1.0;"/><line style="stroke:#A80036;stroke-width:1.0;" x1="753.5" x2="1076.5" y1="1006.0234" y2="1006.0234"/><text fill="#000000" font-family="sans-serif" font-size="13" font-weight="bold" lengthAdjust="spacing" textLength="14" x="760.5" y="1001.167">22</text><text fill="#000000" font-family="sans-serif" font-size="13" lengthAdjust="spacing" textLength="166" x="778.5" y="1001.167">setKeywordList(keywordList)</text><line style="stroke:#000000;stroke-width:1.0;stroke-dasharray:2.0,2.0;" x1="20" x2="1145.5" y1="1045.0234" y2="1045.0234"/><text fill="#000000" font-family="sans-serif" font-size="11" font-weight="bold" lengthAdjust="spacing" textLength="212" x="25" y="1056.4424">[if the user chooses to any other field]</text><polygon fill="#A80036" points="150,1078.2109,140,1082.2109,150,1086.2109,146,1082.2109" style="stroke:#A80036;stroke-width:1.0;"/><line style="stroke:#A80036;stroke-width:1.0;" x1="144" x2="509" y1="1082.2109" y2="1082.2109"/><text fill="#000000" font-family="sans-serif" font-size="13" font-weight="bold" lengthAdjust="spacing" textLength="14" x="156" y="1077.3545">23</text><text fill="#000000" font-family="sans-serif" font-size="13" lengthAdjust="spacing" textLength="226" x="174" y="1077.3545">requests the user to insert the keyword</text><polygon fill="#A80036" points="493,1108.5625,503,1112.5625,493,1116.5625,497,1112.5625" style="stroke:#A80036;stroke-width:1.0;"/><line style="stroke:#A80036;stroke-width:1.0;" x1="139" x2="499" y1="1112.5625" y2="1112.5625"/><text fill="#000000" font-family="sans-serif" font-size="13" font-weight="bold" lengthAdjust="spacing" textLength="14" x="146" y="1107.7061">24</text><text fill="#000000" font-family="sans-serif" font-size="13" lengthAdjust="spacing" textLength="91" x="164" y="1107.7061">selects the field</text><rect fill="#FFFFFF" filter="url(#f1oc2w83e7y7pv)" height="42.7031" style="stroke:#000000;stroke-width:2.0;" width="221" x="397.5" y="1120.5625"/><polygon fill="#EEEEEE" points="397.5,1120.5625,459.5,1120.5625,459.5,1128.5625,449.5,1138.5625,397.5,1138.5625,397.5,1120.5625" style="stroke:#000000;stroke-width:2.0;"/><text fill="#000000" font-family="sans-serif" font-size="13" font-weight="bold" lengthAdjust="spacing" textLength="17" x="410.5" y="1136.0576">ref</text><text fill="#000000" font-family="sans-serif" font-size="13" lengthAdjust="spacing" textLength="144" x="438" y="1156.0576">US-1-2002_SD_AddField</text><polygon fill="#A80036" points="150,1209.9688,140,1213.9688,150,1217.9688,146,1213.9688" style="stroke:#A80036;stroke-width:1.0;"/><line style="stroke:#A80036;stroke-width:1.0;" x1="144" x2="509" y1="1213.9688" y2="1213.9688"/><text fill="#000000" font-family="sans-serif" font-size="13" font-weight="bold" lengthAdjust="spacing" textLength="14" x="156" y="1200.9365">25</text><text fill="#000000" font-family="sans-serif" font-size="13" lengthAdjust="spacing" textLength="172" x="174" y="1192.7607">saves the field in the draft and</text><text fill="#000000" font-family="sans-serif" font-size="13" lengthAdjust="spacing" textLength="192" x="178" y="1209.1123">asks if there is more fields to add</text><polygon fill="#A80036" points="493,1240.3203,503,1244.3203,493,1248.3203,497,1244.3203" style="stroke:#A80036;stroke-width:1.0;"/><line style="stroke:#A80036;stroke-width:1.0;" x1="139" x2="499" y1="1244.3203" y2="1244.3203"/><text fill="#000000" font-family="sans-serif" font-size="13" font-weight="bold" lengthAdjust="spacing" textLength="14" x="146" y="1239.4639">26</text><text fill="#000000" font-family="sans-serif" font-size="13" lengthAdjust="spacing" textLength="53" x="164" y="1239.4639">responds</text><polygon fill="#A80036" points="150,1294.0234,140,1298.0234,150,1302.0234,146,1298.0234" style="stroke:#A80036;stroke-width:1.0;"/><line style="stroke:#A80036;stroke-width:1.0;" x1="144" x2="509" y1="1298.0234" y2="1298.0234"/><text fill="#000000" font-family="sans-serif" font-size="13" font-weight="bold" lengthAdjust="spacing" textLength="14" x="156" y="1284.9912">27</text><text fill="#000000" font-family="sans-serif" font-size="13" lengthAdjust="spacing" textLength="174" x="174" y="1276.8154">validates, presents the current</text><text fill="#000000" font-family="sans-serif" font-size="13" lengthAdjust="spacing" textLength="277" x="174" y="1293.167">information in the draft and asks for confirmation</text><polygon fill="#A80036" points="493,1324.375,503,1328.375,493,1332.375,497,1328.375" style="stroke:#A80036;stroke-width:1.0;"/><line style="stroke:#A80036;stroke-width:1.0;" x1="139" x2="499" y1="1328.375" y2="1328.375"/><text fill="#000000" font-family="sans-serif" font-size="13" font-weight="bold" lengthAdjust="spacing" textLength="14" x="146" y="1323.5186">28</text><text fill="#000000" font-family="sans-serif" font-size="13" lengthAdjust="spacing" textLength="49" x="164" y="1323.5186">confirms</text><polygon fill="#A80036" points="731.5,1354.7266,741.5,1358.7266,731.5,1362.7266,735.5,1358.7266" style="stroke:#A80036;stroke-width:1.0;"/><line style="stroke:#A80036;stroke-width:1.0;" x1="515" x2="737.5" y1="1358.7266" y2="1358.7266"/><text fill="#000000" font-family="sans-serif" font-size="13" font-weight="bold" lengthAdjust="spacing" textLength="14" x="522" y="1353.8701">29</text><text fill="#000000" font-family="sans-serif" font-size="13" lengthAdjust="spacing" textLength="170" x="540" y="1353.8701">saveServiceDraft(serviceDraft)</text><polygon fill="#A80036" points="936.5,1385.0781,946.5,1389.0781,936.5,1393.0781,940.5,1389.0781" style="stroke:#A80036;stroke-width:1.0;"/><line style="stroke:#A80036;stroke-width:1.0;" x1="753.5" x2="942.5" y1="1389.0781" y2="1389.0781"/><text fill="#000000" font-family="sans-serif" font-size="13" font-weight="bold" lengthAdjust="spacing" textLength="14" x="760.5" y="1384.2217">30</text><text fill="#000000" font-family="sans-serif" font-size="13" lengthAdjust="spacing" textLength="101" x="778.5" y="1384.2217">save(serviceDraft)</text><polygon fill="#A80036" points="764.5,1415.4297,754.5,1419.4297,764.5,1423.4297,760.5,1419.4297" style="stroke:#A80036;stroke-width:1.0;"/><line style="stroke:#A80036;stroke-width:1.0;stroke-dasharray:2.0,2.0;" x1="758.5" x2="952.5" y1="1419.4297" y2="1419.4297"/><text fill="#000000" font-family="sans-serif" font-size="13" font-weight="bold" lengthAdjust="spacing" textLength="14" x="770.5" y="1414.5732">31</text><text fill="#000000" font-family="sans-serif" font-size="13" lengthAdjust="spacing" textLength="67" x="788.5" y="1414.5732">serviceDraft</text><polygon fill="#A80036" points="526,1445.7813,516,1449.7813,526,1453.7813,522,1449.7813" style="stroke:#A80036;stroke-width:1.0;"/><line style="stroke:#A80036;stroke-width:1.0;stroke-dasharray:2.0,2.0;" x1="520" x2="747.5" y1="1449.7813" y2="1449.7813"/><text fill="#000000" font-family="sans-serif" font-size="13" font-weight="bold" lengthAdjust="spacing" textLength="14" x="532" y="1444.9248">32</text><text fill="#000000" font-family="sans-serif" font-size="13" lengthAdjust="spacing" textLength="67" x="550" y="1444.9248">serviceDraft</text><polygon fill="#A80036" points="145,1492.4844,135,1496.4844,145,1500.4844,141,1496.4844" style="stroke:#A80036;stroke-width:1.0;"/><line style="stroke:#A80036;stroke-width:1.0;" x1="139" x2="509" y1="1496.4844" y2="1496.4844"/><text fill="#000000" font-family="sans-serif" font-size="13" font-weight="bold" lengthAdjust="spacing" textLength="14" x="151" y="1483.4521">33</text><text fill="#000000" font-family="sans-serif" font-size="13" lengthAdjust="spacing" textLength="208" x="169" y="1475.2764">registers the draft in the persistence</text><text fill="#000000" font-family="sans-serif" font-size="13" lengthAdjust="spacing" textLength="249" x="173" y="1491.6279">and informs of the success of the operation</text><!--MD5=[ff8411f9c9eccc1cb032822bae4eac1f]
@startuml
autonumber
hide footbox

actor "Help Desk Services Manager" as HSM

participant "<<presentation>>\nServiceDraftFieldSpecificationUI" as UI
participant "<<application>>\nServiceDraftSpecificationController" as CTRL
database "<<repository>>\nServiceDraftRepository" as SR
participant "<<domain>>\nServiceDraft" as S
participant "<<persistence>>\nPersistenceContext" as PC
participant "<<persistence>>\nAppSettings" as AS
participant "<<factory>>\nRepositoryFactory" as RF

activate HSM

HSM -> UI : initiates the request to add/update a field in a service draft
activate UI

UI -> CTRL** : create
activate CTRL

ref over CTRL
  US-1-2002_SD_Repo
end ref

UI -> HSM : asks if the user pretends to use an existing draft
deactivate CTRL
deactivate UI

HSM -> UI : responds
activate UI

alt if the user pretends to use an existing draft

UI -> CTRL : getDrafts()
activate CTRL

CTRL -> SR : findAll()
activate SR
SR - -> CTRL : drafts
deactivate SR

CTRL - -> UI : drafts
deactivate CTRL

UI -> HSM : presents the draft list and asks the user to choose a draft
deactivate UI

HSM -> UI : chooses a draft
activate UI

else if the user pretends to use create a new draft

UI -> CTRL : newDraft()
activate CTRL

CTRL - -> S** : create
deactivate CTRL
end

loop until the user doesn't want to add more fields
UI -> HSM : asks which field does the user pretend to add/update
deactivate UI

HSM -> UI : chooses the field
activate UI

UI -> HSM : requests the user to insert the field
deactivate UI

HSM -> UI : selects the field
activate UI

alt if the user chooses to add keywords
loop until there is no more keywords to add
UI -> HSM : requests the user to insert the keyword
deactivate UI

HSM -> UI : inserts the keyword
activate UI

UI -> HSM : asks if the user wants to add more keywords
deactivate UI

HSM -> UI : responds
activate UI
end

UI -> CTRL : addKeywordList(keywordList)
activate CTRL

CTRL -> S : setKeywordList(keywordList)
activate S
deactivate S
deactivate CTRL

else if the user chooses to any other field

UI -> HSM : requests the user to insert the keyword
deactivate UI

HSM -> UI : selects the field
activate UI

ref over UI
    US-1-2002_SD_AddField
end ref
end

UI -> HSM : saves the field in the draft and\n asks if there is more fields to add
deactivate UI

HSM -> UI : responds
activate UI
end

UI -> HSM : validates, presents the current \ninformation in the draft and asks for confirmation
deactivate UI

HSM -> UI : confirms
activate UI

UI -> CTRL : saveServiceDraft(serviceDraft)
activate CTRL

CTRL -> SR : save(serviceDraft)
activate SR
SR - -> CTRL : serviceDraft
deactivate SR


CTRL - -> UI : serviceDraft
deactivate CTRL

UI -> HSM : registers the draft in the persistence\n and informs of the success of the operation
deactivate UI
deactivate HSM

@enduml

PlantUML version 1.2021.5(Sun Apr 25 12:20:28 BST 2021)
(GPL source distribution)
Java Runtime: OpenJDK Runtime Environment
JVM: Dynamic Code Evolution 64-Bit Server VM
Default Encoding: Cp1252
Language: pt
Country: PT
--></g></svg>