<?xml version="1.0" encoding="UTF-8" standalone="no"?><svg xmlns="http://www.w3.org/2000/svg" xmlns:xlink="http://www.w3.org/1999/xlink" contentScriptType="application/ecmascript" contentStyleType="text/css" height="757px" preserveAspectRatio="none" style="width:2978px;height:757px;" version="1.1" viewBox="0 0 2978 757" width="2978px" zoomAndPan="magnify"><defs><filter height="300%" id="f13u7bz8i63dgk" width="300%" x="-1" y="-1"><feGaussianBlur result="blurOut" stdDeviation="2.0"/><feColorMatrix in="blurOut" result="blurOut2" type="matrix" values="0 0 0 0 0 0 0 0 0 0 0 0 0 0 0 0 0 0 .4 0"/><feOffset dx="4.0" dy="4.0" in="blurOut2" result="blurOut3"/><feBlend in="SourceGraphic" in2="blurOut3" mode="normal"/></filter></defs><g><!--MD5=[8fd473fd151a2794da4f2c8684676405]
cluster Presentation--><polygon fill="#DDDDDD" filter="url(#f13u7bz8i63dgk)" points="48,6,144,6,151,29.6094,202,29.6094,202,134,48,134,48,6" style="stroke:#000000;stroke-width:1.5;"/><line style="stroke:#000000;stroke-width:1.5;" x1="48" x2="151" y1="29.6094" y2="29.6094"/><text fill="#000000" font-family="sans-serif" font-size="14" font-weight="bold" lengthAdjust="spacing" textLength="90" x="52" y="22.5332">Presentation</text><!--MD5=[d64883541e3d62e3241c4d12decf100d]
cluster Application--><polygon fill="#DDDDDD" filter="url(#f13u7bz8i63dgk)" points="27,167,111,167,118,190.6094,223,190.6094,223,337,27,337,27,167" style="stroke:#000000;stroke-width:1.5;"/><line style="stroke:#000000;stroke-width:1.5;" x1="27" x2="118" y1="190.6094" y2="190.6094"/><text fill="#000000" font-family="sans-serif" font-size="14" font-weight="bold" lengthAdjust="spacing" textLength="78" x="31" y="183.5332">Application</text><!--MD5=[121a8bf1197281ab89ed693fab589f94]
cluster Domain--><polygon fill="#DDDDDD" filter="url(#f13u7bz8i63dgk)" points="907,437.5,965,437.5,972,461.1094,2961,461.1094,2961,608.5,907,608.5,907,437.5" style="stroke:#000000;stroke-width:1.5;"/><line style="stroke:#000000;stroke-width:1.5;" x1="907" x2="972" y1="461.1094" y2="461.1094"/><text fill="#000000" font-family="sans-serif" font-size="14" font-weight="bold" lengthAdjust="spacing" textLength="52" x="911" y="454.0332">Domain</text><!--MD5=[bc6b40dadbf86ab6a0c8405a467a48af]
cluster Persistence--><polygon fill="#DDDDDD" filter="url(#f13u7bz8i63dgk)" points="16,387,106,387,113,410.6094,883,410.6094,883,750,16,750,16,387" style="stroke:#000000;stroke-width:1.5;"/><line style="stroke:#000000;stroke-width:1.5;" x1="16" x2="113" y1="410.6094" y2="410.6094"/><text fill="#000000" font-family="sans-serif" font-size="14" font-weight="bold" lengthAdjust="spacing" textLength="84" x="20" y="403.5332">Persistence</text><!--MD5=[0d5799440b3bfefd92b00abfcd2c79b9]
cluster Factory--><polygon fill="#DDDDDD" filter="url(#f13u7bz8i63dgk)" points="469,431,527,431,534,454.6094,631,454.6094,631,615,469,615,469,431" style="stroke:#000000;stroke-width:1.5;"/><line style="stroke:#000000;stroke-width:1.5;" x1="469" x2="534" y1="454.6094" y2="454.6094"/><text fill="#000000" font-family="sans-serif" font-size="14" font-weight="bold" lengthAdjust="spacing" textLength="52" x="473" y="447.5332">Factory</text><!--MD5=[71971f99a41bb66cf321ce46bb59f738]
cluster Repository--><polygon fill="#DDDDDD" filter="url(#f13u7bz8i63dgk)" points="655,438,737,438,744,461.6094,859,461.6094,859,726,655,726,655,438" style="stroke:#000000;stroke-width:1.5;"/><line style="stroke:#000000;stroke-width:1.5;" x1="655" x2="744" y1="461.6094" y2="461.6094"/><text fill="#000000" font-family="sans-serif" font-size="14" font-weight="bold" lengthAdjust="spacing" textLength="76" x="659" y="454.5332">Repository</text><!--MD5=[d025959dd6eef884eded5968396c57e0]
class SearchTicketsUI--><rect codeLine="4" fill="#FEFECE" filter="url(#f13u7bz8i63dgk)" height="56.1875" id="SearchTicketsUI" style="stroke:#A80036;stroke-width:1.5;" width="122" x="64" y="62"/><ellipse cx="79" cy="82.0938" fill="#ADD1B2" rx="11" ry="11" style="stroke:#A80036;stroke-width:1.0;"/><path d="M81,78.5938 Q81.2031,78.0938 81.4375,77.8438 Q81.6719,77.5938 81.9375,77.5938 Q82.4063,77.5938 82.7031,77.875 Q83,78.1563 83,78.8125 L83,80.375 Q83,81.0313 82.7188,81.3125 Q82.4375,81.5938 82,81.5938 Q81.6094,81.5938 81.3594,81.4219 Q81.1094,81.25 81,80.7969 Q80.9531,80.4844 80.7813,80.3125 Q80.4688,79.9844 79.9063,79.7969 Q79.3438,79.5938 78.7813,79.5938 Q78.0781,79.5938 77.4844,79.875 Q76.9063,80.1563 76.4531,80.7813 Q76,81.4063 76,82.2656 L76,83.1875 Q76,84.2188 76.8438,84.9063 Q77.6875,85.5938 79.1875,85.5938 Q80.0781,85.5938 80.7031,85.3906 Q81.0625,85.2813 81.4688,84.9219 Q81.7344,84.7188 81.875,84.6563 Q82.0156,84.5938 82.1875,84.5938 Q82.5156,84.5938 82.75,84.8594 Q83,85.1094 83,85.4688 Q83,85.8125 82.6563,86.2188 Q82.1563,86.8125 81.3594,87.1406 Q80.3125,87.5938 79.0313,87.5938 Q77.5313,87.5938 76.3281,87 Q75.3594,86.5313 74.6719,85.5156 Q74,84.5 74,83.2969 L74,82.2031 Q74,80.9531 74.5938,79.8594 Q75.2031,78.7656 76.25,78.1875 Q77.3125,77.5938 78.5,77.5938 Q79.2188,77.5938 79.8438,77.8438 Q80.4688,78.0938 81,78.5938 Z " fill="#000000"/><text fill="#000000" font-family="sans-serif" font-size="12" font-style="italic" lengthAdjust="spacing" textLength="82" x="97" y="79.457">«presentation»</text><text fill="#000000" font-family="sans-serif" font-size="12" lengthAdjust="spacing" textLength="90" x="93" y="94.5508">SearchTicketsUI</text><line style="stroke:#A80036;stroke-width:1.5;" x1="65" x2="185" y1="102.1875" y2="102.1875"/><line style="stroke:#A80036;stroke-width:1.5;" x1="65" x2="185" y1="110.1875" y2="110.1875"/><!--MD5=[11da391e1834855571bd456b0e62b364]
class SearchTicketsController--><rect codeLine="11" fill="#FEFECE" filter="url(#f13u7bz8i63dgk)" height="97.6953" id="SearchTicketsController" style="stroke:#A80036;stroke-width:1.5;" width="164" x="43" y="223"/><ellipse cx="58" cy="243.0938" fill="#ADD1B2" rx="11" ry="11" style="stroke:#A80036;stroke-width:1.0;"/><path d="M60,239.5938 Q60.2031,239.0938 60.4375,238.8438 Q60.6719,238.5938 60.9375,238.5938 Q61.4063,238.5938 61.7031,238.875 Q62,239.1563 62,239.8125 L62,241.375 Q62,242.0313 61.7188,242.3125 Q61.4375,242.5938 61,242.5938 Q60.6094,242.5938 60.3594,242.4219 Q60.1094,242.25 60,241.7969 Q59.9531,241.4844 59.7813,241.3125 Q59.4688,240.9844 58.9063,240.7969 Q58.3438,240.5938 57.7813,240.5938 Q57.0781,240.5938 56.4844,240.875 Q55.9063,241.1563 55.4531,241.7813 Q55,242.4063 55,243.2656 L55,244.1875 Q55,245.2188 55.8438,245.9063 Q56.6875,246.5938 58.1875,246.5938 Q59.0781,246.5938 59.7031,246.3906 Q60.0625,246.2813 60.4688,245.9219 Q60.7344,245.7188 60.875,245.6563 Q61.0156,245.5938 61.1875,245.5938 Q61.5156,245.5938 61.75,245.8594 Q62,246.1094 62,246.4688 Q62,246.8125 61.6563,247.2188 Q61.1563,247.8125 60.3594,248.1406 Q59.3125,248.5938 58.0313,248.5938 Q56.5313,248.5938 55.3281,248 Q54.3594,247.5313 53.6719,246.5156 Q53,245.5 53,244.2969 L53,243.2031 Q53,241.9531 53.5938,240.8594 Q54.2031,239.7656 55.25,239.1875 Q56.3125,238.5938 57.5,238.5938 Q58.2188,238.5938 58.8438,238.8438 Q59.4688,239.0938 60,239.5938 Z " fill="#000000"/><text fill="#000000" font-family="sans-serif" font-size="12" font-style="italic" lengthAdjust="spacing" textLength="74" x="101" y="240.457">«application»</text><text fill="#000000" font-family="sans-serif" font-size="12" lengthAdjust="spacing" textLength="132" x="72" y="255.5508">SearchTicketsController</text><line style="stroke:#A80036;stroke-width:1.5;" x1="44" x2="206" y1="263.1875" y2="263.1875"/><line style="stroke:#A80036;stroke-width:1.5;" x1="44" x2="206" y1="271.1875" y2="271.1875"/><text fill="#000000" font-family="sans-serif" font-size="11" lengthAdjust="spacing" textLength="45" x="49" y="286.6064">+create()</text><text fill="#000000" font-family="sans-serif" font-size="11" lengthAdjust="spacing" textLength="91" x="49" y="300.4424">+getTicketHistory()</text><text fill="#000000" font-family="sans-serif" font-size="11" lengthAdjust="spacing" textLength="105" x="49" y="314.2783">+getOnGoingTickets()</text><!--MD5=[dbb8b4f13c7b21394f9d757e58732f45]
class Service--><rect codeLine="21" fill="#FEFECE" filter="url(#f13u7bz8i63dgk)" height="85.1172" id="Service" style="stroke:#A80036;stroke-width:1.5;" width="72" x="2255" y="500.5"/><ellipse cx="2270" cy="528.1406" fill="#ADD1B2" rx="11" ry="11" style="stroke:#A80036;stroke-width:1.0;"/><path d="M2272,524.6406 Q2272.2031,524.1406 2272.4375,523.8906 Q2272.6719,523.6406 2272.9375,523.6406 Q2273.4063,523.6406 2273.7031,523.9219 Q2274,524.2031 2274,524.8594 L2274,526.4219 Q2274,527.0781 2273.7188,527.3594 Q2273.4375,527.6406 2273,527.6406 Q2272.6094,527.6406 2272.3594,527.4688 Q2272.1094,527.2969 2272,526.8438 Q2271.9531,526.5313 2271.7813,526.3594 Q2271.4688,526.0313 2270.9063,525.8438 Q2270.3438,525.6406 2269.7813,525.6406 Q2269.0781,525.6406 2268.4844,525.9219 Q2267.9063,526.2031 2267.4531,526.8281 Q2267,527.4531 2267,528.3125 L2267,529.2344 Q2267,530.2656 2267.8438,530.9531 Q2268.6875,531.6406 2270.1875,531.6406 Q2271.0781,531.6406 2271.7031,531.4375 Q2272.0625,531.3281 2272.4688,530.9688 Q2272.7344,530.7656 2272.875,530.7031 Q2273.0156,530.6406 2273.1875,530.6406 Q2273.5156,530.6406 2273.75,530.9063 Q2274,531.1563 2274,531.5156 Q2274,531.8594 2273.6563,532.2656 Q2273.1563,532.8594 2272.3594,533.1875 Q2271.3125,533.6406 2270.0313,533.6406 Q2268.5313,533.6406 2267.3281,533.0469 Q2266.3594,532.5781 2265.6719,531.5625 Q2265,530.5469 2265,529.3438 L2265,528.25 Q2265,527 2265.5938,525.9063 Q2266.2031,524.8125 2267.25,524.2344 Q2268.3125,523.6406 2269.5,523.6406 Q2270.2188,523.6406 2270.8438,523.8906 Q2271.4688,524.1406 2272,524.6406 Z " fill="#000000"/><text fill="#000000" font-family="sans-serif" font-size="12" font-style="italic" lengthAdjust="spacing" textLength="44" x="2282" y="517.957">«Entity»</text><text fill="#000000" font-family="sans-serif" font-size="12" font-style="italic" lengthAdjust="spacing" textLength="40" x="2284" y="533.0508">«Root»</text><text fill="#000000" font-family="sans-serif" font-size="12" lengthAdjust="spacing" textLength="40" x="2284" y="548.1445">Service</text><line style="stroke:#A80036;stroke-width:1.5;" x1="2256" x2="2326" y1="555.7813" y2="555.7813"/><line style="stroke:#A80036;stroke-width:1.5;" x1="2256" x2="2326" y1="563.7813" y2="563.7813"/><text fill="#000000" font-family="sans-serif" font-size="11" lengthAdjust="spacing" textLength="45" x="2261" y="579.2002">+create()</text><!--MD5=[6f29f313cd4199edbf91b9ce3a4faa98]
class Form--><rect codeLine="25" fill="#FEFECE" filter="url(#f13u7bz8i63dgk)" height="85.1172" id="Form" style="stroke:#A80036;stroke-width:1.5;" width="197" x="2384.5" y="500.5"/><ellipse cx="2458.75" cy="528.1406" fill="#ADD1B2" rx="11" ry="11" style="stroke:#A80036;stroke-width:1.0;"/><path d="M2460.75,524.6406 Q2460.9531,524.1406 2461.1875,523.8906 Q2461.4219,523.6406 2461.6875,523.6406 Q2462.1563,523.6406 2462.4531,523.9219 Q2462.75,524.2031 2462.75,524.8594 L2462.75,526.4219 Q2462.75,527.0781 2462.4688,527.3594 Q2462.1875,527.6406 2461.75,527.6406 Q2461.3594,527.6406 2461.1094,527.4688 Q2460.8594,527.2969 2460.75,526.8438 Q2460.7031,526.5313 2460.5313,526.3594 Q2460.2188,526.0313 2459.6563,525.8438 Q2459.0938,525.6406 2458.5313,525.6406 Q2457.8281,525.6406 2457.2344,525.9219 Q2456.6563,526.2031 2456.2031,526.8281 Q2455.75,527.4531 2455.75,528.3125 L2455.75,529.2344 Q2455.75,530.2656 2456.5938,530.9531 Q2457.4375,531.6406 2458.9375,531.6406 Q2459.8281,531.6406 2460.4531,531.4375 Q2460.8125,531.3281 2461.2188,530.9688 Q2461.4844,530.7656 2461.625,530.7031 Q2461.7656,530.6406 2461.9375,530.6406 Q2462.2656,530.6406 2462.5,530.9063 Q2462.75,531.1563 2462.75,531.5156 Q2462.75,531.8594 2462.4063,532.2656 Q2461.9063,532.8594 2461.1094,533.1875 Q2460.0625,533.6406 2458.7813,533.6406 Q2457.2813,533.6406 2456.0781,533.0469 Q2455.1094,532.5781 2454.4219,531.5625 Q2453.75,530.5469 2453.75,529.3438 L2453.75,528.25 Q2453.75,527 2454.3438,525.9063 Q2454.9531,524.8125 2456,524.2344 Q2457.0625,523.6406 2458.25,523.6406 Q2458.9688,523.6406 2459.5938,523.8906 Q2460.2188,524.1406 2460.75,524.6406 Z " fill="#000000"/><text fill="#000000" font-family="sans-serif" font-size="12" font-style="italic" lengthAdjust="spacing" textLength="44" x="2477.25" y="517.957">«Entity»</text><text fill="#000000" font-family="sans-serif" font-size="12" font-style="italic" lengthAdjust="spacing" textLength="40" x="2479.25" y="533.0508">«Root»</text><text fill="#000000" font-family="sans-serif" font-size="12" lengthAdjust="spacing" textLength="29" x="2484.75" y="548.1445">Form</text><line style="stroke:#A80036;stroke-width:1.5;" x1="2385.5" x2="2580.5" y1="555.7813" y2="555.7813"/><line style="stroke:#A80036;stroke-width:1.5;" x1="2385.5" x2="2580.5" y1="563.7813" y2="563.7813"/><text fill="#000000" font-family="sans-serif" font-size="11" lengthAdjust="spacing" textLength="185" x="2390.5" y="579.2002">+create(name, formType, attributeList)</text><!--MD5=[787494ff879e99315e413996e631a796]
class Attribute--><rect codeLine="29" fill="#FEFECE" filter="url(#f13u7bz8i63dgk)" height="70.0234" id="Attribute" style="stroke:#A80036;stroke-width:1.5;" width="305" x="2639.5" y="508"/><ellipse cx="2765.75" cy="528.0938" fill="#ADD1B2" rx="11" ry="11" style="stroke:#A80036;stroke-width:1.0;"/><path d="M2767.75,524.5938 Q2767.9531,524.0938 2768.1875,523.8438 Q2768.4219,523.5938 2768.6875,523.5938 Q2769.1563,523.5938 2769.4531,523.875 Q2769.75,524.1563 2769.75,524.8125 L2769.75,526.375 Q2769.75,527.0313 2769.4688,527.3125 Q2769.1875,527.5938 2768.75,527.5938 Q2768.3594,527.5938 2768.1094,527.4219 Q2767.8594,527.25 2767.75,526.7969 Q2767.7031,526.4844 2767.5313,526.3125 Q2767.2188,525.9844 2766.6563,525.7969 Q2766.0938,525.5938 2765.5313,525.5938 Q2764.8281,525.5938 2764.2344,525.875 Q2763.6563,526.1563 2763.2031,526.7813 Q2762.75,527.4063 2762.75,528.2656 L2762.75,529.1875 Q2762.75,530.2188 2763.5938,530.9063 Q2764.4375,531.5938 2765.9375,531.5938 Q2766.8281,531.5938 2767.4531,531.3906 Q2767.8125,531.2813 2768.2188,530.9219 Q2768.4844,530.7188 2768.625,530.6563 Q2768.7656,530.5938 2768.9375,530.5938 Q2769.2656,530.5938 2769.5,530.8594 Q2769.75,531.1094 2769.75,531.4688 Q2769.75,531.8125 2769.4063,532.2188 Q2768.9063,532.8125 2768.1094,533.1406 Q2767.0625,533.5938 2765.7813,533.5938 Q2764.2813,533.5938 2763.0781,533 Q2762.1094,532.5313 2761.4219,531.5156 Q2760.75,530.5 2760.75,529.2969 L2760.75,528.2031 Q2760.75,526.9531 2761.3438,525.8594 Q2761.9531,524.7656 2763,524.1875 Q2764.0625,523.5938 2765.25,523.5938 Q2765.9688,523.5938 2766.5938,523.8438 Q2767.2188,524.0938 2767.75,524.5938 Z " fill="#000000"/><text fill="#000000" font-family="sans-serif" font-size="12" font-style="italic" lengthAdjust="spacing" textLength="44" x="2786.25" y="525.457">«Entity»</text><text fill="#000000" font-family="sans-serif" font-size="12" lengthAdjust="spacing" textLength="44" x="2786.25" y="540.5508">Attribute</text><line style="stroke:#A80036;stroke-width:1.5;" x1="2640.5" x2="2943.5" y1="548.1875" y2="548.1875"/><line style="stroke:#A80036;stroke-width:1.5;" x1="2640.5" x2="2943.5" y1="556.1875" y2="556.1875"/><text fill="#000000" font-family="sans-serif" font-size="11" lengthAdjust="spacing" textLength="293" x="2645.5" y="571.6064">+create(name, label, description, regex, scriptPath, dataType</text><!--MD5=[a77781830b4eef1927aef37ad01ad2c2]
class Catalogue--><rect codeLine="33" fill="#FEFECE" filter="url(#f13u7bz8i63dgk)" height="85.1172" id="Catalogue" style="stroke:#A80036;stroke-width:1.5;" width="89" x="923.5" y="500.5"/><ellipse cx="938.5" cy="528.1406" fill="#ADD1B2" rx="11" ry="11" style="stroke:#A80036;stroke-width:1.0;"/><path d="M940.5,524.6406 Q940.7031,524.1406 940.9375,523.8906 Q941.1719,523.6406 941.4375,523.6406 Q941.9063,523.6406 942.2031,523.9219 Q942.5,524.2031 942.5,524.8594 L942.5,526.4219 Q942.5,527.0781 942.2188,527.3594 Q941.9375,527.6406 941.5,527.6406 Q941.1094,527.6406 940.8594,527.4688 Q940.6094,527.2969 940.5,526.8438 Q940.4531,526.5313 940.2813,526.3594 Q939.9688,526.0313 939.4063,525.8438 Q938.8438,525.6406 938.2813,525.6406 Q937.5781,525.6406 936.9844,525.9219 Q936.4063,526.2031 935.9531,526.8281 Q935.5,527.4531 935.5,528.3125 L935.5,529.2344 Q935.5,530.2656 936.3438,530.9531 Q937.1875,531.6406 938.6875,531.6406 Q939.5781,531.6406 940.2031,531.4375 Q940.5625,531.3281 940.9688,530.9688 Q941.2344,530.7656 941.375,530.7031 Q941.5156,530.6406 941.6875,530.6406 Q942.0156,530.6406 942.25,530.9063 Q942.5,531.1563 942.5,531.5156 Q942.5,531.8594 942.1563,532.2656 Q941.6563,532.8594 940.8594,533.1875 Q939.8125,533.6406 938.5313,533.6406 Q937.0313,533.6406 935.8281,533.0469 Q934.8594,532.5781 934.1719,531.5625 Q933.5,530.5469 933.5,529.3438 L933.5,528.25 Q933.5,527 934.0938,525.9063 Q934.7031,524.8125 935.75,524.2344 Q936.8125,523.6406 938,523.6406 Q938.7188,523.6406 939.3438,523.8906 Q939.9688,524.1406 940.5,524.6406 Z " fill="#000000"/><text fill="#000000" font-family="sans-serif" font-size="12" font-style="italic" lengthAdjust="spacing" textLength="44" x="959" y="517.957">«Entity»</text><text fill="#000000" font-family="sans-serif" font-size="12" font-style="italic" lengthAdjust="spacing" textLength="40" x="961" y="533.0508">«Root»</text><text fill="#000000" font-family="sans-serif" font-size="12" lengthAdjust="spacing" textLength="57" x="952.5" y="548.1445">Catalogue</text><line style="stroke:#A80036;stroke-width:1.5;" x1="924.5" x2="1011.5" y1="555.7813" y2="555.7813"/><line style="stroke:#A80036;stroke-width:1.5;" x1="924.5" x2="1011.5" y1="563.7813" y2="563.7813"/><text fill="#000000" font-family="sans-serif" font-size="11" lengthAdjust="spacing" textLength="45" x="929.5" y="579.2002">+create()</text><!--MD5=[ac6bea31e13c94c7baa9ad18feb7405e]
class Ticket--><rect codeLine="37" fill="#FEFECE" filter="url(#f13u7bz8i63dgk)" height="98.9531" id="Ticket" style="stroke:#A80036;stroke-width:1.5;" width="191" x="1047.5" y="493.5"/><ellipse cx="1118.75" cy="521.1406" fill="#ADD1B2" rx="11" ry="11" style="stroke:#A80036;stroke-width:1.0;"/><path d="M1120.75,517.6406 Q1120.9531,517.1406 1121.1875,516.8906 Q1121.4219,516.6406 1121.6875,516.6406 Q1122.1563,516.6406 1122.4531,516.9219 Q1122.75,517.2031 1122.75,517.8594 L1122.75,519.4219 Q1122.75,520.0781 1122.4688,520.3594 Q1122.1875,520.6406 1121.75,520.6406 Q1121.3594,520.6406 1121.1094,520.4688 Q1120.8594,520.2969 1120.75,519.8438 Q1120.7031,519.5313 1120.5313,519.3594 Q1120.2188,519.0313 1119.6563,518.8438 Q1119.0938,518.6406 1118.5313,518.6406 Q1117.8281,518.6406 1117.2344,518.9219 Q1116.6563,519.2031 1116.2031,519.8281 Q1115.75,520.4531 1115.75,521.3125 L1115.75,522.2344 Q1115.75,523.2656 1116.5938,523.9531 Q1117.4375,524.6406 1118.9375,524.6406 Q1119.8281,524.6406 1120.4531,524.4375 Q1120.8125,524.3281 1121.2188,523.9688 Q1121.4844,523.7656 1121.625,523.7031 Q1121.7656,523.6406 1121.9375,523.6406 Q1122.2656,523.6406 1122.5,523.9063 Q1122.75,524.1563 1122.75,524.5156 Q1122.75,524.8594 1122.4063,525.2656 Q1121.9063,525.8594 1121.1094,526.1875 Q1120.0625,526.6406 1118.7813,526.6406 Q1117.2813,526.6406 1116.0781,526.0469 Q1115.1094,525.5781 1114.4219,524.5625 Q1113.75,523.5469 1113.75,522.3438 L1113.75,521.25 Q1113.75,520 1114.3438,518.9063 Q1114.9531,517.8125 1116,517.2344 Q1117.0625,516.6406 1118.25,516.6406 Q1118.9688,516.6406 1119.5938,516.8906 Q1120.2188,517.1406 1120.75,517.6406 Z " fill="#000000"/><text fill="#000000" font-family="sans-serif" font-size="12" font-style="italic" lengthAdjust="spacing" textLength="44" x="1137.25" y="510.957">«Entity»</text><text fill="#000000" font-family="sans-serif" font-size="12" font-style="italic" lengthAdjust="spacing" textLength="40" x="1139.25" y="526.0508">«Root»</text><text fill="#000000" font-family="sans-serif" font-size="12" lengthAdjust="spacing" textLength="32" x="1143.25" y="541.1445">Ticket</text><line style="stroke:#A80036;stroke-width:1.5;" x1="1048.5" x2="1237.5" y1="548.7813" y2="548.7813"/><line style="stroke:#A80036;stroke-width:1.5;" x1="1048.5" x2="1237.5" y1="556.7813" y2="556.7813"/><text fill="#000000" font-family="sans-serif" font-size="11" lengthAdjust="spacing" textLength="171" x="1053.5" y="572.2002">+create(service, urgency, limitDate,</text><text fill="#000000" font-family="sans-serif" font-size="11" lengthAdjust="spacing" textLength="176" x="1056.5" y="586.0361">creationDate, lstFiles, lstResponses)</text><!--MD5=[a539556bf0fa8c194d1de4bbb958d218]
class TicketUrgency--><rect codeLine="41" fill="#FEFECE" filter="url(#f13u7bz8i63dgk)" height="83.8594" id="TicketUrgency" style="stroke:#A80036;stroke-width:1.5;" width="127" x="2092.5" y="501"/><ellipse cx="2113.8" cy="521.0938" fill="#ADD1B2" rx="11" ry="11" style="stroke:#A80036;stroke-width:1.0;"/><path d="M2115.8,517.5938 Q2116.0031,517.0938 2116.2375,516.8438 Q2116.4719,516.5938 2116.7375,516.5938 Q2117.2063,516.5938 2117.5031,516.875 Q2117.8,517.1563 2117.8,517.8125 L2117.8,519.375 Q2117.8,520.0313 2117.5188,520.3125 Q2117.2375,520.5938 2116.8,520.5938 Q2116.4094,520.5938 2116.1594,520.4219 Q2115.9094,520.25 2115.8,519.7969 Q2115.7531,519.4844 2115.5813,519.3125 Q2115.2688,518.9844 2114.7063,518.7969 Q2114.1438,518.5938 2113.5813,518.5938 Q2112.8781,518.5938 2112.2844,518.875 Q2111.7063,519.1563 2111.2531,519.7813 Q2110.8,520.4063 2110.8,521.2656 L2110.8,522.1875 Q2110.8,523.2188 2111.6438,523.9063 Q2112.4875,524.5938 2113.9875,524.5938 Q2114.8781,524.5938 2115.5031,524.3906 Q2115.8625,524.2813 2116.2688,523.9219 Q2116.5344,523.7188 2116.675,523.6563 Q2116.8156,523.5938 2116.9875,523.5938 Q2117.3156,523.5938 2117.55,523.8594 Q2117.8,524.1094 2117.8,524.4688 Q2117.8,524.8125 2117.4563,525.2188 Q2116.9563,525.8125 2116.1594,526.1406 Q2115.1125,526.5938 2113.8313,526.5938 Q2112.3313,526.5938 2111.1281,526 Q2110.1594,525.5313 2109.4719,524.5156 Q2108.8,523.5 2108.8,522.2969 L2108.8,521.2031 Q2108.8,519.9531 2109.3938,518.8594 Q2110.0031,517.7656 2111.05,517.1875 Q2112.1125,516.5938 2113.3,516.5938 Q2114.0188,516.5938 2114.6438,516.8438 Q2115.2688,517.0938 2115.8,517.5938 Z " fill="#000000"/><text fill="#000000" font-family="sans-serif" font-size="12" font-style="italic" lengthAdjust="spacing" textLength="85" x="2127.2" y="518.457">«Value Object»</text><text fill="#000000" font-family="sans-serif" font-size="12" lengthAdjust="spacing" textLength="77" x="2131.2" y="533.5508">TicketUrgency</text><line style="stroke:#A80036;stroke-width:1.5;" x1="2093.5" x2="2218.5" y1="541.1875" y2="541.1875"/><line style="stroke:#A80036;stroke-width:1.5;" x1="2093.5" x2="2218.5" y1="549.1875" y2="549.1875"/><text fill="#000000" font-family="sans-serif" font-size="11" lengthAdjust="spacing" textLength="111" x="2098.5" y="564.6064">+create(ticketUrgency)</text><text fill="#000000" font-family="sans-serif" font-size="11" lengthAdjust="spacing" textLength="115" x="2098.5" y="578.4424">-validate(ticketUrgency)</text><!--MD5=[a3897caa7208c40f066d12f96f8814dc]
class TicketLimitDate--><rect codeLine="46" fill="#FEFECE" filter="url(#f13u7bz8i63dgk)" height="83.8594" id="TicketLimitDate" style="stroke:#A80036;stroke-width:1.5;" width="129" x="1928.5" y="501"/><ellipse cx="1948.9" cy="521.0938" fill="#ADD1B2" rx="11" ry="11" style="stroke:#A80036;stroke-width:1.0;"/><path d="M1950.9,517.5938 Q1951.1031,517.0938 1951.3375,516.8438 Q1951.5719,516.5938 1951.8375,516.5938 Q1952.3063,516.5938 1952.6031,516.875 Q1952.9,517.1563 1952.9,517.8125 L1952.9,519.375 Q1952.9,520.0313 1952.6188,520.3125 Q1952.3375,520.5938 1951.9,520.5938 Q1951.5094,520.5938 1951.2594,520.4219 Q1951.0094,520.25 1950.9,519.7969 Q1950.8531,519.4844 1950.6813,519.3125 Q1950.3688,518.9844 1949.8063,518.7969 Q1949.2438,518.5938 1948.6813,518.5938 Q1947.9781,518.5938 1947.3844,518.875 Q1946.8063,519.1563 1946.3531,519.7813 Q1945.9,520.4063 1945.9,521.2656 L1945.9,522.1875 Q1945.9,523.2188 1946.7438,523.9063 Q1947.5875,524.5938 1949.0875,524.5938 Q1949.9781,524.5938 1950.6031,524.3906 Q1950.9625,524.2813 1951.3688,523.9219 Q1951.6344,523.7188 1951.775,523.6563 Q1951.9156,523.5938 1952.0875,523.5938 Q1952.4156,523.5938 1952.65,523.8594 Q1952.9,524.1094 1952.9,524.4688 Q1952.9,524.8125 1952.5563,525.2188 Q1952.0563,525.8125 1951.2594,526.1406 Q1950.2125,526.5938 1948.9313,526.5938 Q1947.4313,526.5938 1946.2281,526 Q1945.2594,525.5313 1944.5719,524.5156 Q1943.9,523.5 1943.9,522.2969 L1943.9,521.2031 Q1943.9,519.9531 1944.4938,518.8594 Q1945.1031,517.7656 1946.15,517.1875 Q1947.2125,516.5938 1948.4,516.5938 Q1949.1188,516.5938 1949.7438,516.8438 Q1950.3688,517.0938 1950.9,517.5938 Z " fill="#000000"/><text fill="#000000" font-family="sans-serif" font-size="12" font-style="italic" lengthAdjust="spacing" textLength="85" x="1964.1" y="518.457">«Value Object»</text><text fill="#000000" font-family="sans-serif" font-size="12" lengthAdjust="spacing" textLength="85" x="1964.1" y="533.5508">TicketLimitDate</text><line style="stroke:#A80036;stroke-width:1.5;" x1="1929.5" x2="2056.5" y1="541.1875" y2="541.1875"/><line style="stroke:#A80036;stroke-width:1.5;" x1="1929.5" x2="2056.5" y1="549.1875" y2="549.1875"/><text fill="#000000" font-family="sans-serif" font-size="11" lengthAdjust="spacing" textLength="113" x="1934.5" y="564.6064">+create(ticketLimitDate)</text><text fill="#000000" font-family="sans-serif" font-size="11" lengthAdjust="spacing" textLength="117" x="1934.5" y="578.4424">-validate(ticketLimitDate)</text><!--MD5=[110963dc43e3cbe9ec4779c530423b98]
class TicketCreationDate--><rect codeLine="51" fill="#FEFECE" filter="url(#f13u7bz8i63dgk)" height="83.8594" id="TicketCreationDate" style="stroke:#A80036;stroke-width:1.5;" width="148" x="1745" y="501"/><ellipse cx="1764.95" cy="521.0938" fill="#ADD1B2" rx="11" ry="11" style="stroke:#A80036;stroke-width:1.0;"/><path d="M1766.95,517.5938 Q1767.1531,517.0938 1767.3875,516.8438 Q1767.6219,516.5938 1767.8875,516.5938 Q1768.3563,516.5938 1768.6531,516.875 Q1768.95,517.1563 1768.95,517.8125 L1768.95,519.375 Q1768.95,520.0313 1768.6688,520.3125 Q1768.3875,520.5938 1767.95,520.5938 Q1767.5594,520.5938 1767.3094,520.4219 Q1767.0594,520.25 1766.95,519.7969 Q1766.9031,519.4844 1766.7313,519.3125 Q1766.4188,518.9844 1765.8563,518.7969 Q1765.2938,518.5938 1764.7313,518.5938 Q1764.0281,518.5938 1763.4344,518.875 Q1762.8563,519.1563 1762.4031,519.7813 Q1761.95,520.4063 1761.95,521.2656 L1761.95,522.1875 Q1761.95,523.2188 1762.7938,523.9063 Q1763.6375,524.5938 1765.1375,524.5938 Q1766.0281,524.5938 1766.6531,524.3906 Q1767.0125,524.2813 1767.4188,523.9219 Q1767.6844,523.7188 1767.825,523.6563 Q1767.9656,523.5938 1768.1375,523.5938 Q1768.4656,523.5938 1768.7,523.8594 Q1768.95,524.1094 1768.95,524.4688 Q1768.95,524.8125 1768.6063,525.2188 Q1768.1063,525.8125 1767.3094,526.1406 Q1766.2625,526.5938 1764.9813,526.5938 Q1763.4813,526.5938 1762.2781,526 Q1761.3094,525.5313 1760.6219,524.5156 Q1759.95,523.5 1759.95,522.2969 L1759.95,521.2031 Q1759.95,519.9531 1760.5438,518.8594 Q1761.1531,517.7656 1762.2,517.1875 Q1763.2625,516.5938 1764.45,516.5938 Q1765.1688,516.5938 1765.7938,516.8438 Q1766.4188,517.0938 1766.95,517.5938 Z " fill="#000000"/><text fill="#000000" font-family="sans-serif" font-size="12" font-style="italic" lengthAdjust="spacing" textLength="85" x="1790.05" y="518.457">«Value Object»</text><text fill="#000000" font-family="sans-serif" font-size="12" lengthAdjust="spacing" textLength="105" x="1780.05" y="533.5508">TicketCreationDate</text><line style="stroke:#A80036;stroke-width:1.5;" x1="1746" x2="1892" y1="541.1875" y2="541.1875"/><line style="stroke:#A80036;stroke-width:1.5;" x1="1746" x2="1892" y1="549.1875" y2="549.1875"/><text fill="#000000" font-family="sans-serif" font-size="11" lengthAdjust="spacing" textLength="132" x="1751" y="564.6064">+create(ticketCreationDate)</text><text fill="#000000" font-family="sans-serif" font-size="11" lengthAdjust="spacing" textLength="136" x="1751" y="578.4424">-validate(ticketCreationDate)</text><!--MD5=[5474846ab8f4d3c6b1b21ba7ddf315a0]
class TicketFile--><rect codeLine="56" fill="#FEFECE" filter="url(#f13u7bz8i63dgk)" height="83.8594" id="TicketFile" style="stroke:#A80036;stroke-width:1.5;" width="113" x="1596.5" y="501"/><ellipse cx="1611.5" cy="521.0938" fill="#ADD1B2" rx="11" ry="11" style="stroke:#A80036;stroke-width:1.0;"/><path d="M1613.5,517.5938 Q1613.7031,517.0938 1613.9375,516.8438 Q1614.1719,516.5938 1614.4375,516.5938 Q1614.9063,516.5938 1615.2031,516.875 Q1615.5,517.1563 1615.5,517.8125 L1615.5,519.375 Q1615.5,520.0313 1615.2188,520.3125 Q1614.9375,520.5938 1614.5,520.5938 Q1614.1094,520.5938 1613.8594,520.4219 Q1613.6094,520.25 1613.5,519.7969 Q1613.4531,519.4844 1613.2813,519.3125 Q1612.9688,518.9844 1612.4063,518.7969 Q1611.8438,518.5938 1611.2813,518.5938 Q1610.5781,518.5938 1609.9844,518.875 Q1609.4063,519.1563 1608.9531,519.7813 Q1608.5,520.4063 1608.5,521.2656 L1608.5,522.1875 Q1608.5,523.2188 1609.3438,523.9063 Q1610.1875,524.5938 1611.6875,524.5938 Q1612.5781,524.5938 1613.2031,524.3906 Q1613.5625,524.2813 1613.9688,523.9219 Q1614.2344,523.7188 1614.375,523.6563 Q1614.5156,523.5938 1614.6875,523.5938 Q1615.0156,523.5938 1615.25,523.8594 Q1615.5,524.1094 1615.5,524.4688 Q1615.5,524.8125 1615.1563,525.2188 Q1614.6563,525.8125 1613.8594,526.1406 Q1612.8125,526.5938 1611.5313,526.5938 Q1610.0313,526.5938 1608.8281,526 Q1607.8594,525.5313 1607.1719,524.5156 Q1606.5,523.5 1606.5,522.2969 L1606.5,521.2031 Q1606.5,519.9531 1607.0938,518.8594 Q1607.7031,517.7656 1608.75,517.1875 Q1609.8125,516.5938 1611,516.5938 Q1611.7188,516.5938 1612.3438,516.8438 Q1612.9688,517.0938 1613.5,517.5938 Z " fill="#000000"/><text fill="#000000" font-family="sans-serif" font-size="12" font-style="italic" lengthAdjust="spacing" textLength="85" x="1623.5" y="518.457">«Value Object»</text><text fill="#000000" font-family="sans-serif" font-size="12" lengthAdjust="spacing" textLength="52" x="1640" y="533.5508">TicketFile</text><line style="stroke:#A80036;stroke-width:1.5;" x1="1597.5" x2="1708.5" y1="541.1875" y2="541.1875"/><line style="stroke:#A80036;stroke-width:1.5;" x1="1597.5" x2="1708.5" y1="549.1875" y2="549.1875"/><text fill="#000000" font-family="sans-serif" font-size="11" lengthAdjust="spacing" textLength="86" x="1602.5" y="564.6064">+create(ticketFile)</text><text fill="#000000" font-family="sans-serif" font-size="11" lengthAdjust="spacing" textLength="90" x="1602.5" y="578.4424">-validate(ticketFile)</text><!--MD5=[6395256d0a50d27ca1f6d8b64b5d949b]
class TicketStatus--><rect codeLine="61" fill="#FEFECE" filter="url(#f13u7bz8i63dgk)" height="83.8594" id="TicketStatus" style="stroke:#A80036;stroke-width:1.5;" width="117" x="1444.5" y="501"/><ellipse cx="1461.3" cy="521.0938" fill="#ADD1B2" rx="11" ry="11" style="stroke:#A80036;stroke-width:1.0;"/><path d="M1463.3,517.5938 Q1463.5031,517.0938 1463.7375,516.8438 Q1463.9719,516.5938 1464.2375,516.5938 Q1464.7063,516.5938 1465.0031,516.875 Q1465.3,517.1563 1465.3,517.8125 L1465.3,519.375 Q1465.3,520.0313 1465.0188,520.3125 Q1464.7375,520.5938 1464.3,520.5938 Q1463.9094,520.5938 1463.6594,520.4219 Q1463.4094,520.25 1463.3,519.7969 Q1463.2531,519.4844 1463.0813,519.3125 Q1462.7688,518.9844 1462.2063,518.7969 Q1461.6438,518.5938 1461.0813,518.5938 Q1460.3781,518.5938 1459.7844,518.875 Q1459.2063,519.1563 1458.7531,519.7813 Q1458.3,520.4063 1458.3,521.2656 L1458.3,522.1875 Q1458.3,523.2188 1459.1438,523.9063 Q1459.9875,524.5938 1461.4875,524.5938 Q1462.3781,524.5938 1463.0031,524.3906 Q1463.3625,524.2813 1463.7688,523.9219 Q1464.0344,523.7188 1464.175,523.6563 Q1464.3156,523.5938 1464.4875,523.5938 Q1464.8156,523.5938 1465.05,523.8594 Q1465.3,524.1094 1465.3,524.4688 Q1465.3,524.8125 1464.9563,525.2188 Q1464.4563,525.8125 1463.6594,526.1406 Q1462.6125,526.5938 1461.3313,526.5938 Q1459.8313,526.5938 1458.6281,526 Q1457.6594,525.5313 1456.9719,524.5156 Q1456.3,523.5 1456.3,522.2969 L1456.3,521.2031 Q1456.3,519.9531 1456.8938,518.8594 Q1457.5031,517.7656 1458.55,517.1875 Q1459.6125,516.5938 1460.8,516.5938 Q1461.5188,516.5938 1462.1438,516.8438 Q1462.7688,517.0938 1463.3,517.5938 Z " fill="#000000"/><text fill="#000000" font-family="sans-serif" font-size="12" font-style="italic" lengthAdjust="spacing" textLength="85" x="1473.7" y="518.457">«Value Object»</text><text fill="#000000" font-family="sans-serif" font-size="12" lengthAdjust="spacing" textLength="67" x="1482.7" y="533.5508">TicketStatus</text><line style="stroke:#A80036;stroke-width:1.5;" x1="1445.5" x2="1560.5" y1="541.1875" y2="541.1875"/><line style="stroke:#A80036;stroke-width:1.5;" x1="1445.5" x2="1560.5" y1="549.1875" y2="549.1875"/><text fill="#000000" font-family="sans-serif" font-size="11" lengthAdjust="spacing" textLength="101" x="1450.5" y="564.6064">+create(ticketStatus)</text><text fill="#000000" font-family="sans-serif" font-size="11" lengthAdjust="spacing" textLength="105" x="1450.5" y="578.4424">-validate(ticketStatus)</text><!--MD5=[62ba8ad8b61caf20139235a169a8c31d]
class Response--><rect codeLine="66" fill="#FEFECE" filter="url(#f13u7bz8i63dgk)" height="83.8594" id="Response" style="stroke:#A80036;stroke-width:1.5;" width="113" x="1296.5" y="501"/><ellipse cx="1311.5" cy="521.0938" fill="#ADD1B2" rx="11" ry="11" style="stroke:#A80036;stroke-width:1.0;"/><path d="M1313.5,517.5938 Q1313.7031,517.0938 1313.9375,516.8438 Q1314.1719,516.5938 1314.4375,516.5938 Q1314.9063,516.5938 1315.2031,516.875 Q1315.5,517.1563 1315.5,517.8125 L1315.5,519.375 Q1315.5,520.0313 1315.2188,520.3125 Q1314.9375,520.5938 1314.5,520.5938 Q1314.1094,520.5938 1313.8594,520.4219 Q1313.6094,520.25 1313.5,519.7969 Q1313.4531,519.4844 1313.2813,519.3125 Q1312.9688,518.9844 1312.4063,518.7969 Q1311.8438,518.5938 1311.2813,518.5938 Q1310.5781,518.5938 1309.9844,518.875 Q1309.4063,519.1563 1308.9531,519.7813 Q1308.5,520.4063 1308.5,521.2656 L1308.5,522.1875 Q1308.5,523.2188 1309.3438,523.9063 Q1310.1875,524.5938 1311.6875,524.5938 Q1312.5781,524.5938 1313.2031,524.3906 Q1313.5625,524.2813 1313.9688,523.9219 Q1314.2344,523.7188 1314.375,523.6563 Q1314.5156,523.5938 1314.6875,523.5938 Q1315.0156,523.5938 1315.25,523.8594 Q1315.5,524.1094 1315.5,524.4688 Q1315.5,524.8125 1315.1563,525.2188 Q1314.6563,525.8125 1313.8594,526.1406 Q1312.8125,526.5938 1311.5313,526.5938 Q1310.0313,526.5938 1308.8281,526 Q1307.8594,525.5313 1307.1719,524.5156 Q1306.5,523.5 1306.5,522.2969 L1306.5,521.2031 Q1306.5,519.9531 1307.0938,518.8594 Q1307.7031,517.7656 1308.75,517.1875 Q1309.8125,516.5938 1311,516.5938 Q1311.7188,516.5938 1312.3438,516.8438 Q1312.9688,517.0938 1313.5,517.5938 Z " fill="#000000"/><text fill="#000000" font-family="sans-serif" font-size="12" font-style="italic" lengthAdjust="spacing" textLength="85" x="1323.5" y="518.457">«Value Object»</text><text fill="#000000" font-family="sans-serif" font-size="12" lengthAdjust="spacing" textLength="58" x="1337" y="533.5508">Response</text><line style="stroke:#A80036;stroke-width:1.5;" x1="1297.5" x2="1408.5" y1="541.1875" y2="541.1875"/><line style="stroke:#A80036;stroke-width:1.5;" x1="1297.5" x2="1408.5" y1="549.1875" y2="549.1875"/><text fill="#000000" font-family="sans-serif" font-size="11" lengthAdjust="spacing" textLength="91" x="1302.5" y="564.6064">+create(response)</text><text fill="#000000" font-family="sans-serif" font-size="11" lengthAdjust="spacing" textLength="95" x="1302.5" y="578.4424">-validate(response)</text><!--MD5=[e8c189551b7885b999ad7cefb30fc2a3]
class PersistenceContext--><rect codeLine="73" fill="#FEFECE" filter="url(#f13u7bz8i63dgk)" height="70.0234" id="PersistenceContext" style="stroke:#A80036;stroke-width:1.5;" width="139" x="32.5" y="508"/><ellipse cx="47.5" cy="528.0938" fill="#ADD1B2" rx="11" ry="11" style="stroke:#A80036;stroke-width:1.0;"/><path d="M49.5,524.5938 Q49.7031,524.0938 49.9375,523.8438 Q50.1719,523.5938 50.4375,523.5938 Q50.9063,523.5938 51.2031,523.875 Q51.5,524.1563 51.5,524.8125 L51.5,526.375 Q51.5,527.0313 51.2188,527.3125 Q50.9375,527.5938 50.5,527.5938 Q50.1094,527.5938 49.8594,527.4219 Q49.6094,527.25 49.5,526.7969 Q49.4531,526.4844 49.2813,526.3125 Q48.9688,525.9844 48.4063,525.7969 Q47.8438,525.5938 47.2813,525.5938 Q46.5781,525.5938 45.9844,525.875 Q45.4063,526.1563 44.9531,526.7813 Q44.5,527.4063 44.5,528.2656 L44.5,529.1875 Q44.5,530.2188 45.3438,530.9063 Q46.1875,531.5938 47.6875,531.5938 Q48.5781,531.5938 49.2031,531.3906 Q49.5625,531.2813 49.9688,530.9219 Q50.2344,530.7188 50.375,530.6563 Q50.5156,530.5938 50.6875,530.5938 Q51.0156,530.5938 51.25,530.8594 Q51.5,531.1094 51.5,531.4688 Q51.5,531.8125 51.1563,532.2188 Q50.6563,532.8125 49.8594,533.1406 Q48.8125,533.5938 47.5313,533.5938 Q46.0313,533.5938 44.8281,533 Q43.8594,532.5313 43.1719,531.5156 Q42.5,530.5 42.5,529.2969 L42.5,528.2031 Q42.5,526.9531 43.0938,525.8594 Q43.7031,524.7656 44.75,524.1875 Q45.8125,523.5938 47,523.5938 Q47.7188,523.5938 48.3438,523.8438 Q48.9688,524.0938 49.5,524.5938 Z " fill="#000000"/><text fill="#000000" font-family="sans-serif" font-size="12" font-style="italic" lengthAdjust="spacing" textLength="77" x="76.5" y="525.457">«persistence»</text><text fill="#000000" font-family="sans-serif" font-size="12" lengthAdjust="spacing" textLength="107" x="61.5" y="540.5508">PersistenceContext</text><line style="stroke:#A80036;stroke-width:1.5;" x1="33.5" x2="170.5" y1="548.1875" y2="548.1875"/><line style="stroke:#A80036;stroke-width:1.5;" x1="33.5" x2="170.5" y1="556.1875" y2="556.1875"/><text fill="#000000" font-family="sans-serif" font-size="11" lengthAdjust="spacing" textLength="71" x="38.5" y="571.6064">+repositories()</text><!--MD5=[b8e4c95865208c934bfcfda4f90bf50c]
class AppSettings--><rect codeLine="77" fill="#FEFECE" filter="url(#f13u7bz8i63dgk)" height="83.8594" id="AppSettings" style="stroke:#A80036;stroke-width:1.5;" width="130" x="275" y="501"/><ellipse cx="301.25" cy="521.0938" fill="#ADD1B2" rx="11" ry="11" style="stroke:#A80036;stroke-width:1.0;"/><path d="M303.25,517.5938 Q303.4531,517.0938 303.6875,516.8438 Q303.9219,516.5938 304.1875,516.5938 Q304.6563,516.5938 304.9531,516.875 Q305.25,517.1563 305.25,517.8125 L305.25,519.375 Q305.25,520.0313 304.9688,520.3125 Q304.6875,520.5938 304.25,520.5938 Q303.8594,520.5938 303.6094,520.4219 Q303.3594,520.25 303.25,519.7969 Q303.2031,519.4844 303.0313,519.3125 Q302.7188,518.9844 302.1563,518.7969 Q301.5938,518.5938 301.0313,518.5938 Q300.3281,518.5938 299.7344,518.875 Q299.1563,519.1563 298.7031,519.7813 Q298.25,520.4063 298.25,521.2656 L298.25,522.1875 Q298.25,523.2188 299.0938,523.9063 Q299.9375,524.5938 301.4375,524.5938 Q302.3281,524.5938 302.9531,524.3906 Q303.3125,524.2813 303.7188,523.9219 Q303.9844,523.7188 304.125,523.6563 Q304.2656,523.5938 304.4375,523.5938 Q304.7656,523.5938 305,523.8594 Q305.25,524.1094 305.25,524.4688 Q305.25,524.8125 304.9063,525.2188 Q304.4063,525.8125 303.6094,526.1406 Q302.5625,526.5938 301.2813,526.5938 Q299.7813,526.5938 298.5781,526 Q297.6094,525.5313 296.9219,524.5156 Q296.25,523.5 296.25,522.2969 L296.25,521.2031 Q296.25,519.9531 296.8438,518.8594 Q297.4531,517.7656 298.5,517.1875 Q299.5625,516.5938 300.75,516.5938 Q301.4688,516.5938 302.0938,516.8438 Q302.7188,517.0938 303.25,517.5938 Z " fill="#000000"/><text fill="#000000" font-family="sans-serif" font-size="12" font-style="italic" lengthAdjust="spacing" textLength="77" x="315.75" y="518.457">«persistence»</text><text fill="#000000" font-family="sans-serif" font-size="12" lengthAdjust="spacing" textLength="66" x="321.25" y="533.5508">AppSettings</text><line style="stroke:#A80036;stroke-width:1.5;" x1="276" x2="404" y1="541.1875" y2="541.1875"/><line style="stroke:#A80036;stroke-width:1.5;" x1="276" x2="404" y1="549.1875" y2="549.1875"/><text fill="#000000" font-family="sans-serif" font-size="11" lengthAdjust="spacing" textLength="55" x="281" y="564.6064">+instance()</text><text fill="#000000" font-family="sans-serif" font-size="11" lengthAdjust="spacing" textLength="118" x="281" y="578.4424">+getRepositoryFactory()</text><!--MD5=[48590afff58a68e2fcba47824d6f8a11]
class RepositoryFactory--><rect codeLine="83" fill="#FEFECE" filter="url(#f13u7bz8i63dgk)" height="111.5313" id="RepositoryFactory" style="stroke:#A80036;stroke-width:1.5;" width="130" x="485" y="487"/><ellipse cx="500" cy="507.0938" fill="#ADD1B2" rx="11" ry="11" style="stroke:#A80036;stroke-width:1.0;"/><path d="M502,503.5938 Q502.2031,503.0938 502.4375,502.8438 Q502.6719,502.5938 502.9375,502.5938 Q503.4063,502.5938 503.7031,502.875 Q504,503.1563 504,503.8125 L504,505.375 Q504,506.0313 503.7188,506.3125 Q503.4375,506.5938 503,506.5938 Q502.6094,506.5938 502.3594,506.4219 Q502.1094,506.25 502,505.7969 Q501.9531,505.4844 501.7813,505.3125 Q501.4688,504.9844 500.9063,504.7969 Q500.3438,504.5938 499.7813,504.5938 Q499.0781,504.5938 498.4844,504.875 Q497.9063,505.1563 497.4531,505.7813 Q497,506.4063 497,507.2656 L497,508.1875 Q497,509.2188 497.8438,509.9063 Q498.6875,510.5938 500.1875,510.5938 Q501.0781,510.5938 501.7031,510.3906 Q502.0625,510.2813 502.4688,509.9219 Q502.7344,509.7188 502.875,509.6563 Q503.0156,509.5938 503.1875,509.5938 Q503.5156,509.5938 503.75,509.8594 Q504,510.1094 504,510.4688 Q504,510.8125 503.6563,511.2188 Q503.1563,511.8125 502.3594,512.1406 Q501.3125,512.5938 500.0313,512.5938 Q498.5313,512.5938 497.3281,512 Q496.3594,511.5313 495.6719,510.5156 Q495,509.5 495,508.2969 L495,507.2031 Q495,505.9531 495.5938,504.8594 Q496.2031,503.7656 497.25,503.1875 Q498.3125,502.5938 499.5,502.5938 Q500.2188,502.5938 500.8438,502.8438 Q501.4688,503.0938 502,503.5938 Z " fill="#000000"/><text fill="#000000" font-family="sans-serif" font-size="12" font-style="italic" lengthAdjust="spacing" textLength="77" x="524.5" y="504.457">«persistence»</text><text fill="#000000" font-family="sans-serif" font-size="12" lengthAdjust="spacing" textLength="98" x="514" y="519.5508">RepositoryFactory</text><line style="stroke:#A80036;stroke-width:1.5;" x1="486" x2="614" y1="527.1875" y2="527.1875"/><line style="stroke:#A80036;stroke-width:1.5;" x1="486" x2="614" y1="535.1875" y2="535.1875"/><text fill="#000000" font-family="sans-serif" font-size="11" lengthAdjust="spacing" textLength="45" x="491" y="550.6064">+create()</text><text fill="#000000" font-family="sans-serif" font-size="11" lengthAdjust="spacing" textLength="56" x="491" y="564.4424">+servicos()</text><text fill="#000000" font-family="sans-serif" font-size="11" lengthAdjust="spacing" textLength="61" x="491" y="578.2783">+catalogos()</text><text fill="#000000" font-family="sans-serif" font-size="11" lengthAdjust="spacing" textLength="68" x="491" y="592.1143">+formularios()</text><!--MD5=[92a0a821d4a69608f6ec4b5426de1e8a]
class TicketRepository--><rect codeLine="93" fill="#FEFECE" filter="url(#f13u7bz8i63dgk)" height="97.6953" id="TicketRepository" style="stroke:#A80036;stroke-width:1.5;" width="165" x="674.5" y="494"/><ellipse cx="708.4" cy="514.0938" fill="#ADD1B2" rx="11" ry="11" style="stroke:#A80036;stroke-width:1.0;"/><path d="M710.4,510.5938 Q710.6031,510.0938 710.8375,509.8438 Q711.0719,509.5938 711.3375,509.5938 Q711.8063,509.5938 712.1031,509.875 Q712.4,510.1563 712.4,510.8125 L712.4,512.375 Q712.4,513.0313 712.1188,513.3125 Q711.8375,513.5938 711.4,513.5938 Q711.0094,513.5938 710.7594,513.4219 Q710.5094,513.25 710.4,512.7969 Q710.3531,512.4844 710.1813,512.3125 Q709.8688,511.9844 709.3063,511.7969 Q708.7438,511.5938 708.1813,511.5938 Q707.4781,511.5938 706.8844,511.875 Q706.3063,512.1563 705.8531,512.7813 Q705.4,513.4063 705.4,514.2656 L705.4,515.1875 Q705.4,516.2188 706.2438,516.9063 Q707.0875,517.5938 708.5875,517.5938 Q709.4781,517.5938 710.1031,517.3906 Q710.4625,517.2813 710.8688,516.9219 Q711.1344,516.7188 711.275,516.6563 Q711.4156,516.5938 711.5875,516.5938 Q711.9156,516.5938 712.15,516.8594 Q712.4,517.1094 712.4,517.4688 Q712.4,517.8125 712.0563,518.2188 Q711.5563,518.8125 710.7594,519.1406 Q709.7125,519.5938 708.4313,519.5938 Q706.9313,519.5938 705.7281,519 Q704.7594,518.5313 704.0719,517.5156 Q703.4,516.5 703.4,515.2969 L703.4,514.2031 Q703.4,512.9531 703.9938,511.8594 Q704.6031,510.7656 705.65,510.1875 Q706.7125,509.5938 707.9,509.5938 Q708.6188,509.5938 709.2438,509.8438 Q709.8688,510.0938 710.4,510.5938 Z " fill="#000000"/><text fill="#000000" font-family="sans-serif" font-size="12" font-style="italic" lengthAdjust="spacing" textLength="68" x="738.1" y="511.457">«repository»</text><text fill="#000000" font-family="sans-serif" font-size="12" lengthAdjust="spacing" textLength="91" x="726.6" y="526.5508">TicketRepository</text><line style="stroke:#A80036;stroke-width:1.5;" x1="675.5" x2="838.5" y1="534.1875" y2="534.1875"/><line style="stroke:#A80036;stroke-width:1.5;" x1="675.5" x2="838.5" y1="542.1875" y2="542.1875"/><text fill="#000000" font-family="sans-serif" font-size="11" lengthAdjust="spacing" textLength="45" x="680.5" y="557.6064">+create()</text><text fill="#000000" font-family="sans-serif" font-size="11" lengthAdjust="spacing" textLength="139" x="680.5" y="571.4424">+getTicketHistory(username)</text><text fill="#000000" font-family="sans-serif" font-size="11" lengthAdjust="spacing" textLength="153" x="680.5" y="585.2783">+getOnGoingTickets(username)</text><!--MD5=[cab4563c58fd86a508f6beb0373b4d78]
class TicketRepositoryInterface--><rect codeLine="99" fill="#FEFECE" filter="url(#f13u7bz8i63dgk)" height="48" id="TicketRepositoryInterface" style="stroke:#A80036;stroke-width:1.5;" width="172" x="671" y="662"/><ellipse cx="686" cy="678" fill="#B4A7E5" rx="11" ry="11" style="stroke:#A80036;stroke-width:1.0;"/><path d="M687,675 L687,681 L689,681 L689.4844,681 L690,681.625 L690,682 L690,682.375 L689.4844,683 L689,683 L683,683 L682.5156,683 L682,682.375 L682,682 L682,681.625 L682.5156,681 L683,681 L685,681 L685,675 L683,675 L682.5156,675 L682,674.375 L682,674 L682,673.625 L682.5156,673 L683,673 L689,673 L689.4844,673 L690,673.625 L690,674 L690,674.375 L689.4844,675 L689,675 L687,675 Z " fill="#000000"/><text fill="#000000" font-family="sans-serif" font-size="12" font-style="italic" lengthAdjust="spacing" textLength="140" x="700" y="682.9102">TicketRepositoryInterface</text><line style="stroke:#A80036;stroke-width:1.5;" x1="672" x2="842" y1="694" y2="694"/><line style="stroke:#A80036;stroke-width:1.5;" x1="672" x2="842" y1="702" y2="702"/><!--MD5=[8128b4507af6ce26fb09976f0d993347]
link SearchTicketsUI to SearchTicketsController--><path codeLine="107" d="M125,118.34 C125,144.57 125,184.9 125,217.53 " fill="none" id="SearchTicketsUI-to-SearchTicketsController" style="stroke:#A80036;stroke-width:1.0;stroke-dasharray:7.0,7.0;"/><polygon fill="#A80036" points="125,222.69,129,213.69,125,217.69,121,213.69,125,222.69" style="stroke:#A80036;stroke-width:1.0;"/><!--MD5=[8b76e5fb25cbca2070d0f9a7a1b0e142]
link SearchTicketsController to PersistenceContext--><path codeLine="108" d="M120.89,321.09 C116.45,373 109.47,454.68 105.35,502.83 " fill="none" id="SearchTicketsController-to-PersistenceContext" style="stroke:#A80036;stroke-width:1.0;stroke-dasharray:7.0,7.0;"/><polygon fill="#A80036" points="104.91,507.96,109.6415,499.3221,105.324,502.9772,101.669,498.6597,104.91,507.96" style="stroke:#A80036;stroke-width:1.0;"/><!--MD5=[f0632e9f68a629f324b3185f3ed5cb71]
link SearchTicketsController to TicketRepository--><path codeLine="109" d="M207.21,273.16 C312.99,276.97 498.84,296.21 631,379 C673.82,405.82 707.75,452.67 729.56,489.28 " fill="none" id="SearchTicketsController-to-TicketRepository" style="stroke:#A80036;stroke-width:1.0;stroke-dasharray:7.0,7.0;"/><polygon fill="#A80036" points="732.16,493.69,731.0601,483.9027,729.6318,489.3763,724.1582,487.9479,732.16,493.69" style="stroke:#A80036;stroke-width:1.0;"/><!--MD5=[4f6e8106ead5ec04d25ee13ebd908ed4]
link TicketRepository to TicketRepositoryInterface--><path codeLine="111" d="M757,592.13 C757,613.71 757,638.42 757,656.92 " fill="none" id="TicketRepository-to-TicketRepositoryInterface" style="stroke:#A80036;stroke-width:1.0;stroke-dasharray:7.0,7.0;"/><polygon fill="#A80036" points="757,661.97,761,652.97,757,656.97,753,652.97,757,661.97" style="stroke:#A80036;stroke-width:1.0;"/><!--MD5=[d66efb439816738ddd3e9d5fff4bf3a7]
link AppSettings to RepositoryFactory--><path codeLine="113" d="M405.01,543 C428.74,543 455.67,543 479.83,543 " fill="none" id="AppSettings-to-RepositoryFactory" style="stroke:#A80036;stroke-width:1.0;"/><polygon fill="#A80036" points="484.94,543,475.94,539,479.94,543,475.94,547,484.94,543" style="stroke:#A80036;stroke-width:1.0;"/><text fill="#000000" font-family="sans-serif" font-size="13" lengthAdjust="spacing" textLength="43" x="423.5" y="536.4951">creates</text><!--MD5=[27fe1c91fe18bafc5695938053528609]
link PersistenceContext to AppSettings--><path codeLine="114" d="M171.8,543 C202.53,543 238.57,543 269.39,543 " fill="none" id="PersistenceContext-to-AppSettings" style="stroke:#A80036;stroke-width:1.0;"/><polygon fill="#A80036" points="274.69,543,265.69,539,269.69,543,265.69,547,274.69,543" style="stroke:#A80036;stroke-width:1.0;"/><text fill="#000000" font-family="sans-serif" font-size="13" lengthAdjust="spacing" textLength="67" x="189.75" y="536.4951">implements</text><!--MD5=[5bff1ba4545904566950db729078bbcb]
link RepositoryFactory to TicketRepository--><path codeLine="116" d="M615.21,543 C632.33,543 651.07,543 669.16,543 " fill="none" id="RepositoryFactory-to-TicketRepository" style="stroke:#A80036;stroke-width:1.0;"/><polygon fill="#A80036" points="674.24,543,665.24,539,669.24,543,665.24,547,674.24,543" style="stroke:#A80036;stroke-width:1.0;"/><text fill="#000000" font-family="sans-serif" font-size="13" lengthAdjust="spacing" textLength="21" x="634.25" y="536.4951">has</text><text fill="#000000" font-family="sans-serif" font-size="13" lengthAdjust="spacing" textLength="7" x="623.1546" y="539.6175">1</text><text fill="#000000" font-family="sans-serif" font-size="13" lengthAdjust="spacing" textLength="7" x="659.5575" y="539.8118">1</text><!--MD5=[8d13ccae9c336ce6f49923e618723811]
link TicketRepository to Ticket--><path codeLine="118" d="M791.02,493.85 C817.98,459.52 859.02,416.49 907,397 C957.65,376.42 980.92,372.92 1030,397 C1068.97,416.12 1098.33,455.86 1117.34,489.06 " fill="none" id="TicketRepository-to-Ticket" style="stroke:#A80036;stroke-width:1.0;"/><polygon fill="#A80036" points="1119.84,493.49,1118.9033,483.6858,1117.3839,489.1348,1111.9349,487.6155,1119.84,493.49" style="stroke:#A80036;stroke-width:1.0;"/><text fill="#000000" font-family="sans-serif" font-size="13" lengthAdjust="spacing" textLength="33" x="926.5" y="367.4951">saves</text><text fill="#000000" font-family="sans-serif" font-size="13" lengthAdjust="spacing" textLength="7" x="788.5026" y="482.9994">1</text><text fill="#000000" font-family="sans-serif" font-size="13" lengthAdjust="spacing" textLength="5" x="1111.0712" y="482.5676">*</text><!--MD5=[84b7c641586de9d73bc51d19d15fe34b]
link Catalogue to Service--><path codeLine="120" d="M973.37,500.36 C980.19,466 995.55,419.8 1030,397 C1085.92,359.99 2181.97,358.68 2237,397 C2268.47,418.92 2281.65,461.4 2287.14,494.91 " fill="none" id="Catalogue-to-Service" style="stroke:#A80036;stroke-width:1.0;"/><polygon fill="#A80036" points="2287.95,500.21,2290.5412,490.7081,2287.1929,495.2676,2282.6334,491.9194,2287.95,500.21" style="stroke:#A80036;stroke-width:1.0;"/><text fill="#000000" font-family="sans-serif" font-size="13" lengthAdjust="spacing" textLength="21" x="1498.5" y="367.4951">has</text><text fill="#000000" font-family="sans-serif" font-size="13" lengthAdjust="spacing" textLength="7" x="966.6797" y="489.4873">1</text><text fill="#000000" font-family="sans-serif" font-size="13" lengthAdjust="spacing" textLength="5" x="2287.8623" y="489.6291">*</text><!--MD5=[97e168008b52a7eda5de4adba506e93f]
link Service to Form--><path codeLine="121" d="M2327.11,543 C2342.11,543 2360.35,543 2378.99,543 " fill="none" id="Service-to-Form" style="stroke:#A80036;stroke-width:1.0;"/><polygon fill="#A80036" points="2384.26,543,2375.26,539,2379.26,543,2375.26,547,2384.26,543" style="stroke:#A80036;stroke-width:1.0;"/><text fill="#000000" font-family="sans-serif" font-size="13" lengthAdjust="spacing" textLength="21" x="2345.25" y="536.4951">has</text><text fill="#000000" font-family="sans-serif" font-size="13" lengthAdjust="spacing" textLength="7" x="2334.9082" y="538.9432">1</text><text fill="#000000" font-family="sans-serif" font-size="13" lengthAdjust="spacing" textLength="5" x="2371.5088" y="539.8916">*</text><!--MD5=[971d5490c4dc9d82955338ed7a7bbf99]
link Form to Attribute--><path codeLine="122" d="M2581.62,543 C2598.49,543 2616.39,543 2634.34,543 " fill="none" id="Form-to-Attribute" style="stroke:#A80036;stroke-width:1.0;"/><polygon fill="#A80036" points="2639.41,543,2630.41,539,2634.41,543,2630.41,547,2639.41,543" style="stroke:#A80036;stroke-width:1.0;"/><text fill="#000000" font-family="sans-serif" font-size="13" lengthAdjust="spacing" textLength="21" x="2600" y="536.4951">has</text><text fill="#000000" font-family="sans-serif" font-size="13" lengthAdjust="spacing" textLength="7" x="2589.4386" y="539.8916">1</text><text fill="#000000" font-family="sans-serif" font-size="13" lengthAdjust="spacing" textLength="20" x="2611.5345" y="556.8906">1..*</text><!--MD5=[896a845be905199eb0b9f67eff0d40fd]
link Ticket to Service--><path codeLine="124" d="M1173.31,493.24 C1197.24,459.1 1234.05,416.56 1279,397 C1376.6,354.53 2149.65,336.17 2237,397 C2268.47,418.92 2281.65,461.4 2287.14,494.91 " fill="none" id="Ticket-to-Service" style="stroke:#A80036;stroke-width:1.0;"/><polygon fill="#A80036" points="2287.95,500.21,2290.5412,490.7081,2287.1929,495.2676,2282.6334,491.9194,2287.95,500.21" style="stroke:#A80036;stroke-width:1.0;"/><text fill="#000000" font-family="sans-serif" font-size="13" lengthAdjust="spacing" textLength="21" x="2015.5" y="367.4951">has</text><text fill="#000000" font-family="sans-serif" font-size="13" lengthAdjust="spacing" textLength="7" x="1170.0802" y="482.6406">1</text><text fill="#000000" font-family="sans-serif" font-size="13" lengthAdjust="spacing" textLength="20" x="2265.8702" y="489.6291">1..*</text><!--MD5=[a512ce3b4bc7659f5d71d37f3ce339fe]
link Ticket to TicketUrgency--><path codeLine="125" d="M1173.31,493.24 C1197.24,459.1 1234.05,416.56 1279,397 C1360.1,361.71 1998.79,352.13 2075,397 C2110.95,418.17 2132.08,461.68 2143.69,495.72 " fill="none" id="Ticket-to-TicketUrgency" style="stroke:#A80036;stroke-width:1.0;"/><polygon fill="#A80036" points="2145.33,500.67,2146.2964,490.8687,2143.7574,495.9237,2138.7024,493.3848,2145.33,500.67" style="stroke:#A80036;stroke-width:1.0;"/><text fill="#000000" font-family="sans-serif" font-size="13" lengthAdjust="spacing" textLength="21" x="1255.5" y="367.4951">has</text><text fill="#000000" font-family="sans-serif" font-size="13" lengthAdjust="spacing" textLength="7" x="1178.0645" y="482.6406">1</text><text fill="#000000" font-family="sans-serif" font-size="13" lengthAdjust="spacing" textLength="20" x="2122.0357" y="490.183">1..*</text><!--MD5=[59cb4316f109ed81e99887aa34707e55]
link Ticket to TicketLimitDate--><path codeLine="126" d="M1173.31,493.24 C1197.24,459.1 1234.05,416.56 1279,397 C1343.39,368.98 1850.4,361.53 1911,397 C1947.23,418.2 1968.68,461.94 1980.49,496.04 " fill="none" id="Ticket-to-TicketLimitDate" style="stroke:#A80036;stroke-width:1.0;"/><polygon fill="#A80036" points="1982.17,501,1983.0743,491.1927,1980.5674,496.2638,1975.4964,493.7569,1982.17,501" style="stroke:#A80036;stroke-width:1.0;"/><text fill="#000000" font-family="sans-serif" font-size="13" lengthAdjust="spacing" textLength="21" x="1754.5" y="367.4951">has</text><text fill="#000000" font-family="sans-serif" font-size="13" lengthAdjust="spacing" textLength="7" x="1170.0802" y="482.6406">1</text><text fill="#000000" font-family="sans-serif" font-size="13" lengthAdjust="spacing" textLength="20" x="1958.72" y="490.2546">1..*</text><!--MD5=[32e66de84d0a391b308a9864f42a8cc1]
link Ticket to TicketCreationDate--><path codeLine="127" d="M1173.31,493.24 C1197.24,459.1 1234.05,416.56 1279,397 C1370.29,357.28 1639.84,348.9 1727,397 C1764.88,417.9 1789.3,461.68 1803.39,495.87 " fill="none" id="Ticket-to-TicketCreationDate" style="stroke:#A80036;stroke-width:1.0;"/><polygon fill="#A80036" points="1805.39,500.84,1805.7248,490.9968,1803.5158,496.2046,1798.3081,493.9956,1805.39,500.84" style="stroke:#A80036;stroke-width:1.0;"/><text fill="#000000" font-family="sans-serif" font-size="13" lengthAdjust="spacing" textLength="21" x="1346.5" y="367.4951">has</text><text fill="#000000" font-family="sans-serif" font-size="13" lengthAdjust="spacing" textLength="7" x="1182.0609" y="482.3182">1</text><text fill="#000000" font-family="sans-serif" font-size="13" lengthAdjust="spacing" textLength="20" x="1781.4796" y="490.0681">1..*</text><!--MD5=[5fced67a21f069320c2f5830c2c62e89]
link Ticket to TicketFile--><path codeLine="128" d="M1173.31,493.24 C1197.24,459.1 1234.05,416.56 1279,397 C1340.13,370.4 1522.19,362.11 1579,397 C1613.85,418.41 1632.9,461.89 1642.91,495.86 " fill="none" id="Ticket-to-TicketFile" style="stroke:#A80036;stroke-width:1.0;"/><polygon fill="#A80036" points="1644.32,500.8,1645.7013,491.0485,1642.9502,495.9913,1638.0073,493.2402,1644.32,500.8" style="stroke:#A80036;stroke-width:1.0;"/><text fill="#000000" font-family="sans-serif" font-size="13" lengthAdjust="spacing" textLength="21" x="1558.5" y="367.4951">has</text><text fill="#000000" font-family="sans-serif" font-size="13" lengthAdjust="spacing" textLength="7" x="1178.0645" y="482.6406">1</text><text fill="#000000" font-family="sans-serif" font-size="13" lengthAdjust="spacing" textLength="20" x="1621.2261" y="490.0215">1..*</text><!--MD5=[b58d93e04cfc8eaf29daaa2f5c8c28e8]
link Ticket to TicketStatus--><path codeLine="129" d="M1173.31,493.24 C1197.24,459.1 1234.05,416.56 1279,397 C1339.32,370.75 1370.77,362.88 1427,397 C1462.16,418.34 1481.81,461.83 1492.27,495.82 " fill="none" id="Ticket-to-TicketStatus" style="stroke:#A80036;stroke-width:1.0;"/><polygon fill="#A80036" points="1493.75,500.76,1495.0086,490.9919,1492.3198,495.9689,1487.3428,493.2802,1493.75,500.76" style="stroke:#A80036;stroke-width:1.0;"/><text fill="#000000" font-family="sans-serif" font-size="13" lengthAdjust="spacing" textLength="21" x="1406.5" y="367.4951">has</text><text fill="#000000" font-family="sans-serif" font-size="13" lengthAdjust="spacing" textLength="7" x="1193.1734" y="482.3182">1</text><text fill="#000000" font-family="sans-serif" font-size="13" lengthAdjust="spacing" textLength="20" x="1470.682" y="490.2873">1..*</text><!--MD5=[754338f72ea9698c39181035caf26fec]
link Ticket to Response--><path codeLine="130" d="M1238.78,543 C1256.62,543 1274.82,543 1291.3,543 " fill="none" id="Ticket-to-Response" style="stroke:#A80036;stroke-width:1.0;"/><polygon fill="#A80036" points="1296.35,543,1287.35,539,1291.35,543,1287.35,547,1296.35,543" style="stroke:#A80036;stroke-width:1.0;"/><text fill="#000000" font-family="sans-serif" font-size="13" lengthAdjust="spacing" textLength="21" x="1257" y="536.4951">has</text><text fill="#000000" font-family="sans-serif" font-size="13" lengthAdjust="spacing" textLength="7" x="1246.3811" y="539.8979">1</text><text fill="#000000" font-family="sans-serif" font-size="13" lengthAdjust="spacing" textLength="20" x="1268.6436" y="557.4486">1..*</text><!--MD5=[3db49a3fdc0bbdf66826f988a9b2354b]
@startuml
skinparam classAttributeIconSize 0

package "Presentation" #DDDDDD {
class SearchTicketsUI<<presentation>>{

}
}


package "Application" #DDDDDD {
class SearchTicketsController<<application>>{
+create()
+getTicketHistory()
+getOnGoingTickets()
}

}


package "Domain" #DDDDDD {
class Service<<Entity>><<Root>>{
+create()
}

class Form<<Entity>><<Root>>{
+create(name, formType, attributeList)
}

class Attribute<<Entity>>{
+create(name, label, description, regex, scriptPath, dataType
}

class Catalogue<<Entity>><<Root>>{
+create()
}

class Ticket<<Entity>><<Root>>{
+create(service, urgency, limitDate,\n creationDate, lstFiles, lstResponses)
}

class TicketUrgency<<Value Object>>{
+create(ticketUrgency)
-validate(ticketUrgency)
}

class TicketLimitDate<<Value Object>>{
+create(ticketLimitDate)
-validate(ticketLimitDate)
}

class TicketCreationDate<<Value Object>>{
+create(ticketCreationDate)
-validate(ticketCreationDate)
}

class TicketFile<<Value Object>>{
+create(ticketFile)
-validate(ticketFile)
}

class TicketStatus<<Value Object>>{
+create(ticketStatus)
-validate(ticketStatus)
}

class Response<<Value Object>>{
+create(response)
-validate(response)
}
}

package Persistence #DDDDDD {
class PersistenceContext<<persistence>>{
+repositories()
}

class AppSettings<<persistence>>{
+instance()
+getRepositoryFactory()
}

package Factory #DDDDDD {
class RepositoryFactory<<persistence>>{
+create()
+servicos()
+catalogos()
+formularios()
}
}

package "Repository" #DDDDDD {

class TicketRepository<<repository>>{
+create()
+getTicketHistory(username)
+getOnGoingTickets(username)
}

interface TicketRepositoryInterface{

}

}



SearchTicketsUI ..> SearchTicketsController
SearchTicketsController ..> PersistenceContext
SearchTicketsController ..> TicketRepository

TicketRepository ..> TicketRepositoryInterface

AppSettings -> RepositoryFactory : creates
PersistenceContext -> AppSettings : implements

RepositoryFactory "1" -> "1" TicketRepository : has

TicketRepository "1" -> "*" Ticket : saves

Catalogue "1" -> "*" Service : has
Service "1" -> "*" Form : has
Form "1" -> "1..*" Attribute : has

Ticket "1" -> "1..*" Service : has
Ticket "1" -> "1..*" TicketUrgency : has
Ticket "1" -> "1..*" TicketLimitDate : has
Ticket "1" -> "1..*" TicketCreationDate : has
Ticket "1" -> "1..*" TicketFile : has
Ticket "1" -> "1..*" TicketStatus : has
Ticket "1" -> "1..*" Response : has

@enduml

PlantUML version 1.2021.5(Sun Apr 25 12:20:28 BST 2021)
(GPL source distribution)
Java Runtime: OpenJDK Runtime Environment
JVM: Dynamic Code Evolution 64-Bit Server VM
Default Encoding: Cp1252
Language: pt
Country: PT
--></g></svg>