<?xml version="1.0" encoding="UTF-8" standalone="no"?><svg xmlns="http://www.w3.org/2000/svg" xmlns:xlink="http://www.w3.org/1999/xlink" contentScriptType="application/ecmascript" contentStyleType="text/css" height="1022px" preserveAspectRatio="none" style="width:762px;height:1022px;" version="1.1" viewBox="0 0 762 1022" width="762px" zoomAndPan="magnify"><defs><filter height="300%" id="fru4eq2fxexyl" width="300%" x="-1" y="-1"><feGaussianBlur result="blurOut" stdDeviation="2.0"/><feColorMatrix in="blurOut" result="blurOut2" type="matrix" values="0 0 0 0 0 0 0 0 0 0 0 0 0 0 0 0 0 0 .4 0"/><feOffset dx="4.0" dy="4.0" in="blurOut2" result="blurOut3"/><feBlend in="SourceGraphic" in2="blurOut3" mode="normal"/></filter></defs><g><rect fill="#FFFFFF" filter="url(#fru4eq2fxexyl)" height="898.3828" style="stroke:#A80036;stroke-width:1.0;" width="10" x="119" y="99.6094"/><rect fill="#FFFFFF" filter="url(#fru4eq2fxexyl)" height="30.3516" style="stroke:#A80036;stroke-width:1.0;" width="10" x="691" y="121.9609"/><rect fill="#FFFFFF" filter="url(#fru4eq2fxexyl)" height="55.7031" style="stroke:#A80036;stroke-width:1.0;" width="10" x="691" y="182.6641"/><rect fill="#FFFFFF" filter="url(#fru4eq2fxexyl)" height="62.7031" style="stroke:#A80036;stroke-width:1.0;" width="10" x="691" y="268.7188"/><rect fill="#FFFFFF" filter="url(#fru4eq2fxexyl)" height="37.3516" style="stroke:#A80036;stroke-width:1.0;" width="10" x="691" y="361.7734"/><rect fill="#FFFFFF" filter="url(#fru4eq2fxexyl)" height="30.3516" style="stroke:#A80036;stroke-width:1.0;" width="10" x="691" y="429.4766"/><rect fill="#FFFFFF" filter="url(#fru4eq2fxexyl)" height="55.7031" style="stroke:#A80036;stroke-width:1.0;" width="10" x="691" y="490.1797"/><rect fill="#FFFFFF" filter="url(#fru4eq2fxexyl)" height="55.7031" style="stroke:#A80036;stroke-width:1.0;" width="10" x="691" y="576.2344"/><rect fill="#FFFFFF" filter="url(#fru4eq2fxexyl)" height="30.3516" style="stroke:#A80036;stroke-width:1.0;" width="10" x="691" y="662.2891"/><rect fill="#FFFFFF" filter="url(#fru4eq2fxexyl)" height="30.3516" style="stroke:#A80036;stroke-width:1.0;" width="10" x="691" y="722.9922"/><rect fill="#FFFFFF" filter="url(#fru4eq2fxexyl)" height="53.1875" style="stroke:#A80036;stroke-width:1.0;" width="10" x="691" y="783.6953"/><rect fill="#FFFFFF" filter="url(#fru4eq2fxexyl)" height="53.7031" style="stroke:#A80036;stroke-width:1.0;" width="10" x="691" y="867.2344"/><rect fill="#FFFFFF" filter="url(#fru4eq2fxexyl)" height="46.7031" style="stroke:#A80036;stroke-width:1.0;" width="10" x="691" y="951.2891"/><rect fill="#FFFFFF" filter="url(#fru4eq2fxexyl)" height="79.0547" style="stroke:#000000;stroke-width:2.0;" width="718" x="20" y="197.6641"/><rect fill="#FFFFFF" filter="url(#fru4eq2fxexyl)" height="79.0547" style="stroke:#000000;stroke-width:2.0;" width="718" x="20" y="290.7188"/><rect fill="#FFFFFF" filter="url(#fru4eq2fxexyl)" height="370.0547" style="stroke:#000000;stroke-width:2.0;" width="738" x="10" y="505.1797"/><rect fill="#FFFFFF" filter="url(#fru4eq2fxexyl)" height="200.4609" style="stroke:#000000;stroke-width:2.0;" width="718" x="20" y="591.2344"/><rect fill="#FFFFFF" height="76.5391" style="stroke:none;stroke-width:1.0;" width="738" x="10" y="798.6953"/><line style="stroke:#A80036;stroke-width:1.0;stroke-dasharray:5.0,5.0;" x1="124" x2="124" y1="89.6094" y2="1015.9922"/><line style="stroke:#A80036;stroke-width:1.0;stroke-dasharray:5.0,5.0;" x1="696" x2="696" y1="89.6094" y2="1015.9922"/><text fill="#000000" font-family="sans-serif" font-size="14" lengthAdjust="spacing" textLength="182" x="30" y="86.5332">Help Desk Services Manager</text><ellipse cx="124" cy="15" fill="#FEFECE" filter="url(#fru4eq2fxexyl)" rx="8" ry="8" style="stroke:#A80036;stroke-width:2.0;"/><path d="M124,23 L124,50 M111,31 L137,31 M124,50 L111,65 M124,50 L137,65 " fill="none" filter="url(#fru4eq2fxexyl)" style="stroke:#A80036;stroke-width:2.0;"/><rect fill="#FEFECE" filter="url(#fru4eq2fxexyl)" height="31.6094" style="stroke:#A80036;stroke-width:1.5;" width="60" x="664" y="53"/><text fill="#000000" font-family="sans-serif" font-size="14" lengthAdjust="spacing" textLength="46" x="671" y="74.5332">System</text><rect fill="#FFFFFF" filter="url(#fru4eq2fxexyl)" height="898.3828" style="stroke:#A80036;stroke-width:1.0;" width="10" x="119" y="99.6094"/><rect fill="#FFFFFF" filter="url(#fru4eq2fxexyl)" height="30.3516" style="stroke:#A80036;stroke-width:1.0;" width="10" x="691" y="121.9609"/><rect fill="#FFFFFF" filter="url(#fru4eq2fxexyl)" height="55.7031" style="stroke:#A80036;stroke-width:1.0;" width="10" x="691" y="182.6641"/><rect fill="#FFFFFF" filter="url(#fru4eq2fxexyl)" height="62.7031" style="stroke:#A80036;stroke-width:1.0;" width="10" x="691" y="268.7188"/><rect fill="#FFFFFF" filter="url(#fru4eq2fxexyl)" height="37.3516" style="stroke:#A80036;stroke-width:1.0;" width="10" x="691" y="361.7734"/><rect fill="#FFFFFF" filter="url(#fru4eq2fxexyl)" height="30.3516" style="stroke:#A80036;stroke-width:1.0;" width="10" x="691" y="429.4766"/><rect fill="#FFFFFF" filter="url(#fru4eq2fxexyl)" height="55.7031" style="stroke:#A80036;stroke-width:1.0;" width="10" x="691" y="490.1797"/><rect fill="#FFFFFF" filter="url(#fru4eq2fxexyl)" height="55.7031" style="stroke:#A80036;stroke-width:1.0;" width="10" x="691" y="576.2344"/><rect fill="#FFFFFF" filter="url(#fru4eq2fxexyl)" height="30.3516" style="stroke:#A80036;stroke-width:1.0;" width="10" x="691" y="662.2891"/><rect fill="#FFFFFF" filter="url(#fru4eq2fxexyl)" height="30.3516" style="stroke:#A80036;stroke-width:1.0;" width="10" x="691" y="722.9922"/><rect fill="#FFFFFF" filter="url(#fru4eq2fxexyl)" height="53.1875" style="stroke:#A80036;stroke-width:1.0;" width="10" x="691" y="783.6953"/><rect fill="#FFFFFF" filter="url(#fru4eq2fxexyl)" height="53.7031" style="stroke:#A80036;stroke-width:1.0;" width="10" x="691" y="867.2344"/><rect fill="#FFFFFF" filter="url(#fru4eq2fxexyl)" height="46.7031" style="stroke:#A80036;stroke-width:1.0;" width="10" x="691" y="951.2891"/><polygon fill="#A80036" points="679,117.9609,689,121.9609,679,125.9609,683,121.9609" style="stroke:#A80036;stroke-width:1.0;"/><line style="stroke:#A80036;stroke-width:1.0;" x1="129" x2="685" y1="121.9609" y2="121.9609"/><text fill="#000000" font-family="sans-serif" font-size="13" font-weight="bold" lengthAdjust="spacing" textLength="7" x="136" y="117.1045">1</text><text fill="#000000" font-family="sans-serif" font-size="13" lengthAdjust="spacing" textLength="331" x="147" y="117.1045">initiates the request to add/update tasks in a service draft</text><polygon fill="#A80036" points="140,148.3125,130,152.3125,140,156.3125,136,152.3125" style="stroke:#A80036;stroke-width:1.0;"/><line style="stroke:#A80036;stroke-width:1.0;" x1="134" x2="695" y1="152.3125" y2="152.3125"/><text fill="#000000" font-family="sans-serif" font-size="13" font-weight="bold" lengthAdjust="spacing" textLength="7" x="146" y="147.4561">2</text><text fill="#000000" font-family="sans-serif" font-size="13" lengthAdjust="spacing" textLength="279" x="157" y="147.4561">asks if the user pretends to use an existing draft</text><polygon fill="#A80036" points="679,178.6641,689,182.6641,679,186.6641,683,182.6641" style="stroke:#A80036;stroke-width:1.0;"/><line style="stroke:#A80036;stroke-width:1.0;" x1="129" x2="685" y1="182.6641" y2="182.6641"/><text fill="#000000" font-family="sans-serif" font-size="13" font-weight="bold" lengthAdjust="spacing" textLength="7" x="136" y="177.8076">3</text><text fill="#000000" font-family="sans-serif" font-size="13" lengthAdjust="spacing" textLength="53" x="147" y="177.8076">responds</text><path d="M20,197.6641 L81,197.6641 L81,205.6641 L71,215.6641 L20,215.6641 L20,197.6641 " fill="#EEEEEE" style="stroke:#000000;stroke-width:1.0;"/><rect fill="none" height="79.0547" style="stroke:#000000;stroke-width:2.0;" width="718" x="20" y="197.6641"/><text fill="#000000" font-family="sans-serif" font-size="13" font-weight="bold" lengthAdjust="spacing" textLength="16" x="35" y="212.1592">alt</text><text fill="#000000" font-family="sans-serif" font-size="11" font-weight="bold" lengthAdjust="spacing" textLength="249" x="96" y="211.083">[if the user pretends to use an existing draft]</text><polygon fill="#A80036" points="140,234.3672,130,238.3672,140,242.3672,136,238.3672" style="stroke:#A80036;stroke-width:1.0;"/><line style="stroke:#A80036;stroke-width:1.0;" x1="134" x2="695" y1="238.3672" y2="238.3672"/><text fill="#000000" font-family="sans-serif" font-size="13" font-weight="bold" lengthAdjust="spacing" textLength="7" x="146" y="233.5107">4</text><text fill="#000000" font-family="sans-serif" font-size="13" lengthAdjust="spacing" textLength="331" x="157" y="233.5107">presents the draft list and asks the user to choose a draft</text><polygon fill="#A80036" points="679,264.7188,689,268.7188,679,272.7188,683,268.7188" style="stroke:#A80036;stroke-width:1.0;"/><line style="stroke:#A80036;stroke-width:1.0;" x1="129" x2="685" y1="268.7188" y2="268.7188"/><text fill="#000000" font-family="sans-serif" font-size="13" font-weight="bold" lengthAdjust="spacing" textLength="7" x="136" y="263.8623">5</text><text fill="#000000" font-family="sans-serif" font-size="13" lengthAdjust="spacing" textLength="89" x="147" y="263.8623">chooses a draft</text><path d="M20,290.7188 L81,290.7188 L81,298.7188 L71,308.7188 L20,308.7188 L20,290.7188 " fill="#EEEEEE" style="stroke:#000000;stroke-width:1.0;"/><rect fill="none" height="79.0547" style="stroke:#000000;stroke-width:2.0;" width="718" x="20" y="290.7188"/><text fill="#000000" font-family="sans-serif" font-size="13" font-weight="bold" lengthAdjust="spacing" textLength="16" x="35" y="305.2139">alt</text><text fill="#000000" font-family="sans-serif" font-size="11" font-weight="bold" lengthAdjust="spacing" textLength="296" x="96" y="304.1377">[if the user wants to add an approval task to the draft]</text><polygon fill="#A80036" points="140,327.4219,130,331.4219,140,335.4219,136,331.4219" style="stroke:#A80036;stroke-width:1.0;"/><line style="stroke:#A80036;stroke-width:1.0;" x1="134" x2="695" y1="331.4219" y2="331.4219"/><text fill="#000000" font-family="sans-serif" font-size="13" font-weight="bold" lengthAdjust="spacing" textLength="7" x="146" y="326.5654">6</text><text fill="#000000" font-family="sans-serif" font-size="13" lengthAdjust="spacing" textLength="330" x="157" y="326.5654">requests the user to insert the approval task's description</text><polygon fill="#A80036" points="679,357.7734,689,361.7734,679,365.7734,683,361.7734" style="stroke:#A80036;stroke-width:1.0;"/><line style="stroke:#A80036;stroke-width:1.0;" x1="129" x2="685" y1="361.7734" y2="361.7734"/><text fill="#000000" font-family="sans-serif" font-size="13" font-weight="bold" lengthAdjust="spacing" textLength="7" x="136" y="356.917">7</text><text fill="#000000" font-family="sans-serif" font-size="13" lengthAdjust="spacing" textLength="166" x="147" y="356.917">inserts the task's description</text><polygon fill="#A80036" points="140,395.125,130,399.125,140,403.125,136,399.125" style="stroke:#A80036;stroke-width:1.0;"/><line style="stroke:#A80036;stroke-width:1.0;" x1="134" x2="695" y1="399.125" y2="399.125"/><text fill="#000000" font-family="sans-serif" font-size="13" font-weight="bold" lengthAdjust="spacing" textLength="7" x="146" y="394.2686">8</text><text fill="#000000" font-family="sans-serif" font-size="13" lengthAdjust="spacing" textLength="339" x="157" y="394.2686">requests the user to insert the resolution task's description</text><polygon fill="#A80036" points="679,425.4766,689,429.4766,679,433.4766,683,429.4766" style="stroke:#A80036;stroke-width:1.0;"/><line style="stroke:#A80036;stroke-width:1.0;" x1="129" x2="685" y1="429.4766" y2="429.4766"/><text fill="#000000" font-family="sans-serif" font-size="13" font-weight="bold" lengthAdjust="spacing" textLength="7" x="136" y="424.6201">9</text><text fill="#000000" font-family="sans-serif" font-size="13" lengthAdjust="spacing" textLength="294" x="147" y="424.6201">inserts the resolution task's description and priority</text><polygon fill="#A80036" points="140,455.8281,130,459.8281,140,463.8281,136,459.8281" style="stroke:#A80036;stroke-width:1.0;"/><line style="stroke:#A80036;stroke-width:1.0;" x1="134" x2="695" y1="459.8281" y2="459.8281"/><text fill="#000000" font-family="sans-serif" font-size="13" font-weight="bold" lengthAdjust="spacing" textLength="14" x="146" y="454.9717">10</text><text fill="#000000" font-family="sans-serif" font-size="13" lengthAdjust="spacing" textLength="301" x="164" y="454.9717">requests the user to insert the resolution task's type</text><polygon fill="#A80036" points="679,486.1797,689,490.1797,679,494.1797,683,490.1797" style="stroke:#A80036;stroke-width:1.0;"/><line style="stroke:#A80036;stroke-width:1.0;" x1="129" x2="685" y1="490.1797" y2="490.1797"/><text fill="#000000" font-family="sans-serif" font-size="13" font-weight="bold" lengthAdjust="spacing" textLength="14" x="136" y="485.3232">11</text><text fill="#000000" font-family="sans-serif" font-size="13" lengthAdjust="spacing" textLength="188" x="154" y="485.3232">inserts the resolution task's type</text><path d="M10,505.1797 L71,505.1797 L71,513.1797 L61,523.1797 L10,523.1797 L10,505.1797 " fill="#EEEEEE" style="stroke:#000000;stroke-width:1.0;"/><rect fill="none" height="370.0547" style="stroke:#000000;stroke-width:2.0;" width="738" x="10" y="505.1797"/><text fill="#000000" font-family="sans-serif" font-size="13" font-weight="bold" lengthAdjust="spacing" textLength="16" x="25" y="519.6748">alt</text><text fill="#000000" font-family="sans-serif" font-size="11" font-weight="bold" lengthAdjust="spacing" textLength="235" x="86" y="518.5986">[if the user pretends to add a manual task]</text><polygon fill="#A80036" points="140,541.8828,130,545.8828,140,549.8828,136,545.8828" style="stroke:#A80036;stroke-width:1.0;"/><line style="stroke:#A80036;stroke-width:1.0;" x1="134" x2="695" y1="545.8828" y2="545.8828"/><text fill="#000000" font-family="sans-serif" font-size="13" font-weight="bold" lengthAdjust="spacing" textLength="14" x="146" y="541.0264">12</text><text fill="#000000" font-family="sans-serif" font-size="13" lengthAdjust="spacing" textLength="248" x="164" y="541.0264">requests the user to insert the form's name</text><polygon fill="#A80036" points="679,572.2344,689,576.2344,679,580.2344,683,576.2344" style="stroke:#A80036;stroke-width:1.0;"/><line style="stroke:#A80036;stroke-width:1.0;" x1="129" x2="685" y1="576.2344" y2="576.2344"/><text fill="#000000" font-family="sans-serif" font-size="13" font-weight="bold" lengthAdjust="spacing" textLength="14" x="136" y="571.3779">13</text><text fill="#000000" font-family="sans-serif" font-size="13" lengthAdjust="spacing" textLength="135" x="154" y="571.3779">inserts the form's name</text><path d="M20,591.2344 L93,591.2344 L93,599.2344 L83,609.2344 L20,609.2344 L20,591.2344 " fill="#EEEEEE" style="stroke:#000000;stroke-width:1.0;"/><rect fill="none" height="200.4609" style="stroke:#000000;stroke-width:2.0;" width="718" x="20" y="591.2344"/><text fill="#000000" font-family="sans-serif" font-size="13" font-weight="bold" lengthAdjust="spacing" textLength="28" x="35" y="605.7295">loop</text><text fill="#000000" font-family="sans-serif" font-size="11" font-weight="bold" lengthAdjust="spacing" textLength="264" x="108" y="604.6533">[until the user doesn't want to add more forms]</text><polygon fill="#A80036" points="140,627.9375,130,631.9375,140,635.9375,136,631.9375" style="stroke:#A80036;stroke-width:1.0;"/><line style="stroke:#A80036;stroke-width:1.0;" x1="134" x2="695" y1="631.9375" y2="631.9375"/><text fill="#000000" font-family="sans-serif" font-size="13" font-weight="bold" lengthAdjust="spacing" textLength="14" x="146" y="627.0811">14</text><text fill="#000000" font-family="sans-serif" font-size="13" lengthAdjust="spacing" textLength="520" x="164" y="627.0811">requests the user to insert the attribute's data (name, label, description, regex, scriptPath)</text><polygon fill="#A80036" points="679,658.2891,689,662.2891,679,666.2891,683,662.2891" style="stroke:#A80036;stroke-width:1.0;"/><line style="stroke:#A80036;stroke-width:1.0;" x1="129" x2="685" y1="662.2891" y2="662.2891"/><text fill="#000000" font-family="sans-serif" font-size="13" font-weight="bold" lengthAdjust="spacing" textLength="14" x="136" y="657.4326">15</text><text fill="#000000" font-family="sans-serif" font-size="13" lengthAdjust="spacing" textLength="90" x="154" y="657.4326">inserts the data</text><polygon fill="#A80036" points="140,688.6406,130,692.6406,140,696.6406,136,692.6406" style="stroke:#A80036;stroke-width:1.0;"/><line style="stroke:#A80036;stroke-width:1.0;" x1="134" x2="695" y1="692.6406" y2="692.6406"/><text fill="#000000" font-family="sans-serif" font-size="13" font-weight="bold" lengthAdjust="spacing" textLength="14" x="146" y="687.7842">16</text><text fill="#000000" font-family="sans-serif" font-size="13" lengthAdjust="spacing" textLength="190" x="164" y="687.7842">presents the available data types</text><polygon fill="#A80036" points="679,718.9922,689,722.9922,679,726.9922,683,722.9922" style="stroke:#A80036;stroke-width:1.0;"/><line style="stroke:#A80036;stroke-width:1.0;" x1="129" x2="685" y1="722.9922" y2="722.9922"/><text fill="#000000" font-family="sans-serif" font-size="13" font-weight="bold" lengthAdjust="spacing" textLength="14" x="136" y="718.1357">17</text><text fill="#000000" font-family="sans-serif" font-size="13" lengthAdjust="spacing" textLength="129" x="154" y="718.1357">selects the data types</text><polygon fill="#A80036" points="140,749.3438,130,753.3438,140,757.3438,136,753.3438" style="stroke:#A80036;stroke-width:1.0;"/><line style="stroke:#A80036;stroke-width:1.0;" x1="134" x2="695" y1="753.3438" y2="753.3438"/><text fill="#000000" font-family="sans-serif" font-size="13" font-weight="bold" lengthAdjust="spacing" textLength="14" x="146" y="748.4873">18</text><text fill="#000000" font-family="sans-serif" font-size="13" lengthAdjust="spacing" textLength="319" x="164" y="748.4873">asks if there is more attribute to add to the current form</text><polygon fill="#A80036" points="679,779.6953,689,783.6953,679,787.6953,683,783.6953" style="stroke:#A80036;stroke-width:1.0;"/><line style="stroke:#A80036;stroke-width:1.0;" x1="129" x2="685" y1="783.6953" y2="783.6953"/><text fill="#000000" font-family="sans-serif" font-size="13" font-weight="bold" lengthAdjust="spacing" textLength="14" x="136" y="778.8389">19</text><text fill="#000000" font-family="sans-serif" font-size="13" lengthAdjust="spacing" textLength="53" x="154" y="778.8389">responds</text><line style="stroke:#000000;stroke-width:1.0;stroke-dasharray:2.0,2.0;" x1="10" x2="748" y1="799.6953" y2="799.6953"/><text fill="#000000" font-family="sans-serif" font-size="11" font-weight="bold" lengthAdjust="spacing" textLength="256" x="15" y="811.1143">[if the user pretends to add an automatic task]</text><polygon fill="#A80036" points="140,832.8828,130,836.8828,140,840.8828,136,836.8828" style="stroke:#A80036;stroke-width:1.0;"/><line style="stroke:#A80036;stroke-width:1.0;" x1="134" x2="695" y1="836.8828" y2="836.8828"/><text fill="#000000" font-family="sans-serif" font-size="13" font-weight="bold" lengthAdjust="spacing" textLength="14" x="146" y="832.0264">20</text><text fill="#000000" font-family="sans-serif" font-size="13" lengthAdjust="spacing" textLength="286" x="164" y="832.0264">requests the user to insert the task's script's path</text><polygon fill="#A80036" points="679,863.2344,689,867.2344,679,871.2344,683,867.2344" style="stroke:#A80036;stroke-width:1.0;"/><line style="stroke:#A80036;stroke-width:1.0;" x1="129" x2="685" y1="867.2344" y2="867.2344"/><text fill="#000000" font-family="sans-serif" font-size="13" font-weight="bold" lengthAdjust="spacing" textLength="14" x="136" y="862.3779">21</text><text fill="#000000" font-family="sans-serif" font-size="13" lengthAdjust="spacing" textLength="173" x="154" y="862.3779">inserts the task's script's path</text><polygon fill="#A80036" points="140,916.9375,130,920.9375,140,924.9375,136,920.9375" style="stroke:#A80036;stroke-width:1.0;"/><line style="stroke:#A80036;stroke-width:1.0;" x1="134" x2="695" y1="920.9375" y2="920.9375"/><text fill="#000000" font-family="sans-serif" font-size="13" font-weight="bold" lengthAdjust="spacing" textLength="14" x="146" y="907.9053">22</text><text fill="#000000" font-family="sans-serif" font-size="13" lengthAdjust="spacing" textLength="174" x="164" y="899.7295">validates, presents the current</text><text fill="#000000" font-family="sans-serif" font-size="13" lengthAdjust="spacing" textLength="277" x="164" y="916.0811">information in the draft and asks for confirmation</text><polygon fill="#A80036" points="679,947.2891,689,951.2891,679,955.2891,683,951.2891" style="stroke:#A80036;stroke-width:1.0;"/><line style="stroke:#A80036;stroke-width:1.0;" x1="129" x2="685" y1="951.2891" y2="951.2891"/><text fill="#000000" font-family="sans-serif" font-size="13" font-weight="bold" lengthAdjust="spacing" textLength="14" x="136" y="946.4326">23</text><text fill="#000000" font-family="sans-serif" font-size="13" lengthAdjust="spacing" textLength="49" x="154" y="946.4326">confirms</text><polygon fill="#A80036" points="135,993.9922,125,997.9922,135,1001.9922,131,997.9922" style="stroke:#A80036;stroke-width:1.0;"/><line style="stroke:#A80036;stroke-width:1.0;" x1="129" x2="695" y1="997.9922" y2="997.9922"/><text fill="#000000" font-family="sans-serif" font-size="13" font-weight="bold" lengthAdjust="spacing" textLength="14" x="141" y="984.96">24</text><text fill="#000000" font-family="sans-serif" font-size="13" lengthAdjust="spacing" textLength="208" x="159" y="976.7842">registers the draft in the persistence</text><text fill="#000000" font-family="sans-serif" font-size="13" lengthAdjust="spacing" textLength="249" x="163" y="993.1357">and informs of the success of the operation</text><!--MD5=[9c33e51631c3b2658eb2562979e202a8]
@startuml
autonumber
hide footbox

actor "Help Desk Services Manager" as HSM
participant "System" as SYST

activate HSM

HSM -> SYST : initiates the request to add/update tasks in a service draft
activate SYST

SYST -> HSM : asks if the user pretends to use an existing draft
deactivate SYST

HSM -> SYST : responds
activate SYST

alt if the user pretends to use an existing draft

SYST -> HSM : presents the draft list and asks the user to choose a draft
deactivate SYST

HSM -> SYST : chooses a draft
activate SYST
end

alt if the user wants to add an approval task to the draft
SYST -> HSM : requests the user to insert the approval task's description
deactivate SYST

HSM -> SYST : inserts the task's description
activate SYST
end

SYST -> HSM : requests the user to insert the resolution task's description
deactivate SYST

HSM -> SYST : inserts the resolution task's description and priority
activate SYST

SYST -> HSM : requests the user to insert the resolution task's type
deactivate SYST

HSM -> SYST : inserts the resolution task's type
activate SYST

alt if the user pretends to add a manual task
SYST -> HSM : requests the user to insert the form's name
deactivate SYST

HSM -> SYST : inserts the form's name
activate SYST

loop until the user doesn't want to add more forms
SYST -> HSM : requests the user to insert the attribute's data (name, label, description, regex, scriptPath)
deactivate SYST

HSM -> SYST : inserts the data
activate SYST

SYST -> HSM : presents the available data types
deactivate SYST

HSM -> SYST : selects the data types
activate SYST

SYST -> HSM : asks if there is more attribute to add to the current form
deactivate SYST

HSM -> SYST : responds
activate SYST
end

else if the user pretends to add an automatic task
SYST -> HSM : requests the user to insert the task's script's path
deactivate SYST

HSM -> SYST : inserts the task's script's path
activate SYST
end
SYST -> HSM : validates, presents the current \ninformation in the draft and asks for confirmation
deactivate SYST

HSM -> SYST : confirms
activate SYST

SYST -> HSM : registers the draft in the persistence\n and informs of the success of the operation
deactivate SYST
deactivate HSM

@enduml

PlantUML version 1.2021.5(Sun Apr 25 12:20:28 BST 2021)
(GPL source distribution)
Java Runtime: OpenJDK Runtime Environment
JVM: Dynamic Code Evolution 64-Bit Server VM
Default Encoding: Cp1252
Language: pt
Country: PT
--></g></svg>