<?xml version="1.0" encoding="UTF-8" standalone="no"?><svg xmlns="http://www.w3.org/2000/svg" xmlns:xlink="http://www.w3.org/1999/xlink" contentScriptType="application/ecmascript" contentStyleType="text/css" height="766px" preserveAspectRatio="none" style="width:2438px;height:766px;" version="1.1" viewBox="0 0 2438 766" width="2438px" zoomAndPan="magnify"><defs><filter height="300%" id="f1sq4acxb798yi" width="300%" x="-1" y="-1"><feGaussianBlur result="blurOut" stdDeviation="2.0"/><feColorMatrix in="blurOut" result="blurOut2" type="matrix" values="0 0 0 0 0 0 0 0 0 0 0 0 0 0 0 0 0 0 .4 0"/><feOffset dx="4.0" dy="4.0" in="blurOut2" result="blurOut3"/><feBlend in="SourceGraphic" in2="blurOut3" mode="normal"/></filter></defs><g><rect fill="#FFFFFF" filter="url(#f1sq4acxb798yi)" height="649.7344" style="stroke:#A80036;stroke-width:1.0;" width="10" x="67" y="99.6094"/><rect fill="#FFFFFF" filter="url(#f1sq4acxb798yi)" height="142.2734" style="stroke:#A80036;stroke-width:1.0;" width="10" x="421" y="121.9609"/><rect fill="#FFFFFF" filter="url(#f1sq4acxb798yi)" height="346.7031" style="stroke:#A80036;stroke-width:1.0;" width="10" x="421" y="294.5859"/><rect fill="#FFFFFF" filter="url(#f1sq4acxb798yi)" height="30.3516" style="stroke:#A80036;stroke-width:1.0;" width="10" x="421" y="696.9922"/><rect fill="#FFFFFF" filter="url(#f1sq4acxb798yi)" height="101.9219" style="stroke:#A80036;stroke-width:1.0;" width="10" x="582" y="162.3125"/><rect fill="#FFFFFF" filter="url(#f1sq4acxb798yi)" height="91.0547" style="stroke:#A80036;stroke-width:1.0;" width="10" x="582" y="350.2891"/><rect fill="#FFFFFF" filter="url(#f1sq4acxb798yi)" height="91.0547" style="stroke:#A80036;stroke-width:1.0;" width="10" x="582" y="487.5313"/><rect fill="#FFFFFF" filter="url(#f1sq4acxb798yi)" height="30.3516" style="stroke:#A80036;stroke-width:1.0;" width="10" x="805" y="380.6406"/><rect fill="#FFFFFF" filter="url(#f1sq4acxb798yi)" height="30.3516" style="stroke:#A80036;stroke-width:1.0;" width="10" x="805" y="517.8828"/><rect fill="#FFFFFF" filter="url(#f1sq4acxb798yi)" height="277" style="stroke:#000000;stroke-width:2.0;" width="524.5" x="351.5" y="309.5859"/><rect fill="#FFFFFF" height="137.2422" style="stroke:none;stroke-width:1.0;" width="524.5" x="351.5" y="449.3438"/><rect fill="#FFFFFF" filter="url(#f1sq4acxb798yi)" height="141.7578" style="stroke:#000000;stroke-width:2.0;" width="500.5" x="10" y="600.5859"/><rect fill="#FFFFFF" filter="url(#f1sq4acxb798yi)" height="79.0547" style="stroke:#000000;stroke-width:2.0;" width="480.5" x="20" y="656.2891"/><line style="stroke:#A80036;stroke-width:1.0;stroke-dasharray:5.0,5.0;" x1="72" x2="72" y1="89.6094" y2="759.3438"/><line style="stroke:#A80036;stroke-width:1.0;stroke-dasharray:5.0,5.0;" x1="425.5" x2="425.5" y1="89.6094" y2="759.3438"/><line style="stroke:#A80036;stroke-width:1.0;stroke-dasharray:5.0,5.0;" x1="587" x2="587" y1="172.0703" y2="759.3438"/><line style="stroke:#A80036;stroke-width:1.0;stroke-dasharray:5.0,5.0;" x1="810" x2="810" y1="89.6094" y2="759.3438"/><line style="stroke:#A80036;stroke-width:1.0;stroke-dasharray:5.0,5.0;" x1="946" x2="946" y1="89.6094" y2="759.3438"/><line style="stroke:#A80036;stroke-width:1.0;stroke-dasharray:5.0,5.0;" x1="1087" x2="1087" y1="89.6094" y2="759.3438"/><line style="stroke:#A80036;stroke-width:1.0;stroke-dasharray:5.0,5.0;" x1="1226" x2="1226" y1="89.6094" y2="759.3438"/><line style="stroke:#A80036;stroke-width:1.0;stroke-dasharray:5.0,5.0;" x1="1351" x2="1351" y1="89.6094" y2="759.3438"/><line style="stroke:#A80036;stroke-width:1.0;stroke-dasharray:5.0,5.0;" x1="1457" x2="1457" y1="89.6094" y2="759.3438"/><line style="stroke:#A80036;stroke-width:1.0;stroke-dasharray:5.0,5.0;" x1="1563" x2="1563" y1="89.6094" y2="759.3438"/><line style="stroke:#A80036;stroke-width:1.0;stroke-dasharray:5.0,5.0;" x1="1669" x2="1669" y1="89.6094" y2="759.3438"/><line style="stroke:#A80036;stroke-width:1.0;stroke-dasharray:5.0,5.0;" x1="1781" x2="1781" y1="89.6094" y2="759.3438"/><line style="stroke:#A80036;stroke-width:1.0;stroke-dasharray:5.0,5.0;" x1="1902" x2="1902" y1="89.6094" y2="759.3438"/><line style="stroke:#A80036;stroke-width:1.0;stroke-dasharray:5.0,5.0;" x1="2040" x2="2040" y1="89.6094" y2="759.3438"/><line style="stroke:#A80036;stroke-width:1.0;stroke-dasharray:5.0,5.0;" x1="2168" x2="2168" y1="89.6094" y2="759.3438"/><line style="stroke:#A80036;stroke-width:1.0;stroke-dasharray:5.0,5.0;" x1="2274" x2="2274" y1="89.6094" y2="759.3438"/><line style="stroke:#A80036;stroke-width:1.0;stroke-dasharray:5.0,5.0;" x1="2380" x2="2380" y1="89.6094" y2="759.3438"/><text fill="#000000" font-family="sans-serif" font-size="14" lengthAdjust="spacing" textLength="78" x="30" y="86.5332">Collaborator</text><ellipse cx="72" cy="15" fill="#FEFECE" filter="url(#f1sq4acxb798yi)" rx="8" ry="8" style="stroke:#A80036;stroke-width:2.0;"/><path d="M72,23 L72,50 M59,31 L85,31 M72,50 L59,65 M72,50 L85,65 " fill="none" filter="url(#f1sq4acxb798yi)" style="stroke:#A80036;stroke-width:2.0;"/><rect fill="#FEFECE" filter="url(#f1sq4acxb798yi)" height="49.2188" style="stroke:#A80036;stroke-width:1.5;" width="125" x="361.5" y="35.3906"/><text fill="#000000" font-family="sans-serif" font-size="14" lengthAdjust="spacing" textLength="111" x="368.5" y="56.9238">&lt;&lt;presentation&gt;&gt;</text><text fill="#000000" font-family="sans-serif" font-size="14" lengthAdjust="spacing" textLength="102" x="373" y="74.5332">SearchTicketsUI</text><text fill="#000000" font-family="sans-serif" font-size="14" lengthAdjust="spacing" textLength="95" x="759.5" y="68.9238">&lt;&lt;repository&gt;&gt;</text><text fill="#000000" font-family="sans-serif" font-size="14" lengthAdjust="spacing" textLength="106" x="754" y="86.5332">TicketRepository</text><path d="M792,18.3906 C792,8.3906 810,8.3906 810,8.3906 C810,8.3906 828,8.3906 828,18.3906 L828,44.3906 C828,54.3906 810,54.3906 810,54.3906 C810,54.3906 792,54.3906 792,44.3906 L792,18.3906 " fill="#FEFECE" filter="url(#f1sq4acxb798yi)" style="stroke:#000000;stroke-width:1.5;"/><path d="M792,18.3906 C792,28.3906 810,28.3906 810,28.3906 C810,28.3906 828,28.3906 828,18.3906 " fill="none" style="stroke:#000000;stroke-width:1.5;"/><rect fill="#FEFECE" filter="url(#f1sq4acxb798yi)" height="49.2188" style="stroke:#A80036;stroke-width:1.5;" width="136" x="876" y="35.3906"/><text fill="#000000" font-family="sans-serif" font-size="14" lengthAdjust="spacing" textLength="105" x="891.5" y="56.9238">&lt;&lt;persistence&gt;&gt;</text><text fill="#000000" font-family="sans-serif" font-size="14" lengthAdjust="spacing" textLength="122" x="883" y="74.5332">PersistenceContext</text><rect fill="#FEFECE" filter="url(#f1sq4acxb798yi)" height="49.2188" style="stroke:#A80036;stroke-width:1.5;" width="119" x="1026" y="35.3906"/><text fill="#000000" font-family="sans-serif" font-size="14" lengthAdjust="spacing" textLength="105" x="1033" y="56.9238">&lt;&lt;persistence&gt;&gt;</text><text fill="#000000" font-family="sans-serif" font-size="14" lengthAdjust="spacing" textLength="76" x="1047.5" y="74.5332">AppSettings</text><rect fill="#FEFECE" filter="url(#f1sq4acxb798yi)" height="49.2188" style="stroke:#A80036;stroke-width:1.5;" width="130" x="1159" y="35.3906"/><text fill="#000000" font-family="sans-serif" font-size="14" lengthAdjust="spacing" textLength="75" x="1186.5" y="56.9238">&lt;&lt;factory&gt;&gt;</text><text fill="#000000" font-family="sans-serif" font-size="14" lengthAdjust="spacing" textLength="116" x="1166" y="74.5332">RepositoryFactory</text><rect fill="#FEFECE" filter="url(#f1sq4acxb798yi)" height="49.2188" style="stroke:#A80036;stroke-width:1.5;" width="92" x="1303" y="35.3906"/><text fill="#000000" font-family="sans-serif" font-size="14" lengthAdjust="spacing" textLength="78" x="1310" y="56.9238">&lt;&lt;domain&gt;&gt;</text><text fill="#000000" font-family="sans-serif" font-size="14" lengthAdjust="spacing" textLength="38" x="1330" y="74.5332">Ticket</text><rect fill="#FEFECE" filter="url(#f1sq4acxb798yi)" height="49.2188" style="stroke:#A80036;stroke-width:1.5;" width="92" x="1409" y="35.3906"/><text fill="#000000" font-family="sans-serif" font-size="14" lengthAdjust="spacing" textLength="78" x="1416" y="56.9238">&lt;&lt;domain&gt;&gt;</text><text fill="#000000" font-family="sans-serif" font-size="14" lengthAdjust="spacing" textLength="64" x="1423" y="74.5332">Response</text><rect fill="#FEFECE" filter="url(#f1sq4acxb798yi)" height="49.2188" style="stroke:#A80036;stroke-width:1.5;" width="92" x="1515" y="35.3906"/><text fill="#000000" font-family="sans-serif" font-size="14" lengthAdjust="spacing" textLength="78" x="1522" y="56.9238">&lt;&lt;domain&gt;&gt;</text><text fill="#000000" font-family="sans-serif" font-size="14" lengthAdjust="spacing" textLength="65" x="1528.5" y="74.5332">Catalogue</text><rect fill="#FEFECE" filter="url(#f1sq4acxb798yi)" height="49.2188" style="stroke:#A80036;stroke-width:1.5;" width="92" x="1621" y="35.3906"/><text fill="#000000" font-family="sans-serif" font-size="14" lengthAdjust="spacing" textLength="78" x="1628" y="56.9238">&lt;&lt;domain&gt;&gt;</text><text fill="#000000" font-family="sans-serif" font-size="14" lengthAdjust="spacing" textLength="47" x="1643.5" y="74.5332">Service</text><rect fill="#FEFECE" filter="url(#f1sq4acxb798yi)" height="49.2188" style="stroke:#A80036;stroke-width:1.5;" width="104" x="1727" y="35.3906"/><text fill="#000000" font-family="sans-serif" font-size="14" lengthAdjust="spacing" textLength="78" x="1740" y="56.9238">&lt;&lt;domain&gt;&gt;</text><text fill="#000000" font-family="sans-serif" font-size="14" lengthAdjust="spacing" textLength="90" x="1734" y="74.5332">TicketUrgency</text><rect fill="#FEFECE" filter="url(#f1sq4acxb798yi)" height="49.2188" style="stroke:#A80036;stroke-width:1.5;" width="111" x="1845" y="35.3906"/><text fill="#000000" font-family="sans-serif" font-size="14" lengthAdjust="spacing" textLength="78" x="1861.5" y="56.9238">&lt;&lt;domain&gt;&gt;</text><text fill="#000000" font-family="sans-serif" font-size="14" lengthAdjust="spacing" textLength="97" x="1852" y="74.5332">TicketLimitDate</text><rect fill="#FEFECE" filter="url(#f1sq4acxb798yi)" height="49.2188" style="stroke:#A80036;stroke-width:1.5;" width="136" x="1970" y="35.3906"/><text fill="#000000" font-family="sans-serif" font-size="14" lengthAdjust="spacing" textLength="78" x="1999" y="56.9238">&lt;&lt;domain&gt;&gt;</text><text fill="#000000" font-family="sans-serif" font-size="14" lengthAdjust="spacing" textLength="122" x="1977" y="74.5332">TicketCreationDate</text><rect fill="#FEFECE" filter="url(#f1sq4acxb798yi)" height="49.2188" style="stroke:#A80036;stroke-width:1.5;" width="92" x="2120" y="35.3906"/><text fill="#000000" font-family="sans-serif" font-size="14" lengthAdjust="spacing" textLength="78" x="2127" y="56.9238">&lt;&lt;domain&gt;&gt;</text><text fill="#000000" font-family="sans-serif" font-size="14" lengthAdjust="spacing" textLength="61" x="2135.5" y="74.5332">TicketFile</text><rect fill="#FEFECE" filter="url(#f1sq4acxb798yi)" height="49.2188" style="stroke:#A80036;stroke-width:1.5;" width="92" x="2226" y="35.3906"/><text fill="#000000" font-family="sans-serif" font-size="14" lengthAdjust="spacing" textLength="78" x="2233" y="56.9238">&lt;&lt;domain&gt;&gt;</text><text fill="#000000" font-family="sans-serif" font-size="14" lengthAdjust="spacing" textLength="53" x="2245.5" y="74.5332">Attribute</text><rect fill="#FEFECE" filter="url(#f1sq4acxb798yi)" height="49.2188" style="stroke:#A80036;stroke-width:1.5;" width="92" x="2332" y="35.3906"/><text fill="#000000" font-family="sans-serif" font-size="14" lengthAdjust="spacing" textLength="78" x="2339" y="56.9238">&lt;&lt;domain&gt;&gt;</text><text fill="#000000" font-family="sans-serif" font-size="14" lengthAdjust="spacing" textLength="33" x="2361.5" y="74.5332">Form</text><rect fill="#FFFFFF" filter="url(#f1sq4acxb798yi)" height="649.7344" style="stroke:#A80036;stroke-width:1.0;" width="10" x="67" y="99.6094"/><rect fill="#FFFFFF" filter="url(#f1sq4acxb798yi)" height="142.2734" style="stroke:#A80036;stroke-width:1.0;" width="10" x="421" y="121.9609"/><rect fill="#FFFFFF" filter="url(#f1sq4acxb798yi)" height="346.7031" style="stroke:#A80036;stroke-width:1.0;" width="10" x="421" y="294.5859"/><rect fill="#FFFFFF" filter="url(#f1sq4acxb798yi)" height="30.3516" style="stroke:#A80036;stroke-width:1.0;" width="10" x="421" y="696.9922"/><rect fill="#FFFFFF" filter="url(#f1sq4acxb798yi)" height="101.9219" style="stroke:#A80036;stroke-width:1.0;" width="10" x="582" y="162.3125"/><rect fill="#FFFFFF" filter="url(#f1sq4acxb798yi)" height="91.0547" style="stroke:#A80036;stroke-width:1.0;" width="10" x="582" y="350.2891"/><rect fill="#FFFFFF" filter="url(#f1sq4acxb798yi)" height="91.0547" style="stroke:#A80036;stroke-width:1.0;" width="10" x="582" y="487.5313"/><rect fill="#FFFFFF" filter="url(#f1sq4acxb798yi)" height="30.3516" style="stroke:#A80036;stroke-width:1.0;" width="10" x="805" y="380.6406"/><rect fill="#FFFFFF" filter="url(#f1sq4acxb798yi)" height="30.3516" style="stroke:#A80036;stroke-width:1.0;" width="10" x="805" y="517.8828"/><polygon fill="#A80036" points="409,117.9609,419,121.9609,409,125.9609,413,121.9609" style="stroke:#A80036;stroke-width:1.0;"/><line style="stroke:#A80036;stroke-width:1.0;" x1="77" x2="415" y1="121.9609" y2="121.9609"/><text fill="#000000" font-family="sans-serif" font-size="13" font-weight="bold" lengthAdjust="spacing" textLength="7" x="84" y="117.1045">1</text><text fill="#000000" font-family="sans-serif" font-size="13" lengthAdjust="spacing" textLength="186" x="95" y="117.1045">initiates the ticket query request</text><polygon fill="#A80036" points="490,148.3125,500,152.3125,490,156.3125,494,152.3125" style="stroke:#A80036;stroke-width:1.0;"/><line style="stroke:#A80036;stroke-width:1.0;" x1="431" x2="496" y1="152.3125" y2="152.3125"/><text fill="#000000" font-family="sans-serif" font-size="13" font-weight="bold" lengthAdjust="spacing" textLength="7" x="438" y="147.4561">2</text><text fill="#000000" font-family="sans-serif" font-size="13" lengthAdjust="spacing" textLength="36" x="449" y="147.4561">create</text><rect fill="#FEFECE" filter="url(#f1sq4acxb798yi)" height="49.2188" style="stroke:#A80036;stroke-width:1.5;" width="166" x="502" y="129.9609"/><text fill="#000000" font-family="sans-serif" font-size="14" lengthAdjust="spacing" textLength="100" x="535" y="151.4941">&lt;&lt;application&gt;&gt;</text><text fill="#000000" font-family="sans-serif" font-size="14" lengthAdjust="spacing" textLength="152" x="509" y="169.1035">SearchTicketsController</text><rect fill="#FFFFFF" filter="url(#f1sq4acxb798yi)" height="42.7031" style="stroke:#000000;stroke-width:2.0;" width="172" x="499" y="194.1797"/><polygon fill="#EEEEEE" points="499,194.1797,561,194.1797,561,202.1797,551,212.1797,499,212.1797,499,194.1797" style="stroke:#000000;stroke-width:2.0;"/><text fill="#000000" font-family="sans-serif" font-size="13" font-weight="bold" lengthAdjust="spacing" textLength="17" x="512" y="209.6748">ref</text><text fill="#000000" font-family="sans-serif" font-size="13" lengthAdjust="spacing" textLength="123" x="525.5" y="229.6748">US-2-3031_SD_Repo</text><polygon fill="#A80036" points="88,260.2344,78,264.2344,88,268.2344,84,264.2344" style="stroke:#A80036;stroke-width:1.0;"/><line style="stroke:#A80036;stroke-width:1.0;" x1="82" x2="425" y1="264.2344" y2="264.2344"/><text fill="#000000" font-family="sans-serif" font-size="13" font-weight="bold" lengthAdjust="spacing" textLength="7" x="94" y="259.3779">3</text><text fill="#000000" font-family="sans-serif" font-size="13" lengthAdjust="spacing" textLength="309" x="105" y="259.3779">requests the user to choose on going or history mode</text><polygon fill="#A80036" points="409,290.5859,419,294.5859,409,298.5859,413,294.5859" style="stroke:#A80036;stroke-width:1.0;"/><line style="stroke:#A80036;stroke-width:1.0;" x1="77" x2="415" y1="294.5859" y2="294.5859"/><text fill="#000000" font-family="sans-serif" font-size="13" font-weight="bold" lengthAdjust="spacing" textLength="7" x="84" y="289.7295">4</text><text fill="#000000" font-family="sans-serif" font-size="13" lengthAdjust="spacing" textLength="107" x="95" y="289.7295">chooses the mode</text><path d="M351.5,309.5859 L412.5,309.5859 L412.5,317.5859 L402.5,327.5859 L351.5,327.5859 L351.5,309.5859 " fill="#EEEEEE" style="stroke:#000000;stroke-width:1.0;"/><rect fill="none" height="277" style="stroke:#000000;stroke-width:2.0;" width="524.5" x="351.5" y="309.5859"/><text fill="#000000" font-family="sans-serif" font-size="13" font-weight="bold" lengthAdjust="spacing" textLength="16" x="366.5" y="324.0811">alt</text><text fill="#000000" font-family="sans-serif" font-size="11" font-weight="bold" lengthAdjust="spacing" textLength="186" x="427.5" y="323.0049">[if the user selects history mode]</text><polygon fill="#A80036" points="570,346.2891,580,350.2891,570,354.2891,574,350.2891" style="stroke:#A80036;stroke-width:1.0;"/><line style="stroke:#A80036;stroke-width:1.0;" x1="431" x2="576" y1="350.2891" y2="350.2891"/><text fill="#000000" font-family="sans-serif" font-size="13" font-weight="bold" lengthAdjust="spacing" textLength="7" x="438" y="345.4326">5</text><text fill="#000000" font-family="sans-serif" font-size="13" lengthAdjust="spacing" textLength="102" x="449" y="345.4326">getTicketHistory()</text><polygon fill="#A80036" points="793,376.6406,803,380.6406,793,384.6406,797,380.6406" style="stroke:#A80036;stroke-width:1.0;"/><line style="stroke:#A80036;stroke-width:1.0;" x1="592" x2="799" y1="380.6406" y2="380.6406"/><text fill="#000000" font-family="sans-serif" font-size="13" font-weight="bold" lengthAdjust="spacing" textLength="7" x="599" y="375.7842">6</text><text fill="#000000" font-family="sans-serif" font-size="13" lengthAdjust="spacing" textLength="159" x="610" y="375.7842">getTicketHistory(username)</text><polygon fill="#A80036" points="603,406.9922,593,410.9922,603,414.9922,599,410.9922" style="stroke:#A80036;stroke-width:1.0;"/><line style="stroke:#A80036;stroke-width:1.0;stroke-dasharray:2.0,2.0;" x1="597" x2="809" y1="410.9922" y2="410.9922"/><text fill="#000000" font-family="sans-serif" font-size="13" font-weight="bold" lengthAdjust="spacing" textLength="7" x="609" y="406.1357">7</text><text fill="#000000" font-family="sans-serif" font-size="13" lengthAdjust="spacing" textLength="56" x="620" y="406.1357">lstTickets</text><polygon fill="#A80036" points="442,437.3438,432,441.3438,442,445.3438,438,441.3438" style="stroke:#A80036;stroke-width:1.0;"/><line style="stroke:#A80036;stroke-width:1.0;stroke-dasharray:2.0,2.0;" x1="436" x2="586" y1="441.3438" y2="441.3438"/><text fill="#000000" font-family="sans-serif" font-size="13" font-weight="bold" lengthAdjust="spacing" textLength="7" x="448" y="436.4873">8</text><text fill="#000000" font-family="sans-serif" font-size="13" lengthAdjust="spacing" textLength="56" x="459" y="436.4873">lstTickets</text><line style="stroke:#000000;stroke-width:1.0;stroke-dasharray:2.0,2.0;" x1="351.5" x2="876" y1="450.3438" y2="450.3438"/><text fill="#000000" font-family="sans-serif" font-size="11" font-weight="bold" lengthAdjust="spacing" textLength="195" x="356.5" y="461.7627">[if the user selects on going mode]</text><polygon fill="#A80036" points="570,483.5313,580,487.5313,570,491.5313,574,487.5313" style="stroke:#A80036;stroke-width:1.0;"/><line style="stroke:#A80036;stroke-width:1.0;" x1="431" x2="576" y1="487.5313" y2="487.5313"/><text fill="#000000" font-family="sans-serif" font-size="13" font-weight="bold" lengthAdjust="spacing" textLength="7" x="438" y="482.6748">9</text><text fill="#000000" font-family="sans-serif" font-size="13" lengthAdjust="spacing" textLength="119" x="449" y="482.6748">getOnGoingTickets()</text><polygon fill="#A80036" points="793,513.8828,803,517.8828,793,521.8828,797,517.8828" style="stroke:#A80036;stroke-width:1.0;"/><line style="stroke:#A80036;stroke-width:1.0;" x1="592" x2="799" y1="517.8828" y2="517.8828"/><text fill="#000000" font-family="sans-serif" font-size="13" font-weight="bold" lengthAdjust="spacing" textLength="14" x="599" y="513.0264">10</text><text fill="#000000" font-family="sans-serif" font-size="13" lengthAdjust="spacing" textLength="176" x="617" y="513.0264">getOnGoingTickets(username)</text><polygon fill="#A80036" points="603,544.2344,593,548.2344,603,552.2344,599,548.2344" style="stroke:#A80036;stroke-width:1.0;"/><line style="stroke:#A80036;stroke-width:1.0;stroke-dasharray:2.0,2.0;" x1="597" x2="809" y1="548.2344" y2="548.2344"/><text fill="#000000" font-family="sans-serif" font-size="13" font-weight="bold" lengthAdjust="spacing" textLength="14" x="609" y="543.3779">11</text><text fill="#000000" font-family="sans-serif" font-size="13" lengthAdjust="spacing" textLength="56" x="627" y="543.3779">lstTickets</text><polygon fill="#A80036" points="442,574.5859,432,578.5859,442,582.5859,438,578.5859" style="stroke:#A80036;stroke-width:1.0;"/><line style="stroke:#A80036;stroke-width:1.0;stroke-dasharray:2.0,2.0;" x1="436" x2="586" y1="578.5859" y2="578.5859"/><text fill="#000000" font-family="sans-serif" font-size="13" font-weight="bold" lengthAdjust="spacing" textLength="14" x="448" y="573.7295">12</text><text fill="#000000" font-family="sans-serif" font-size="13" lengthAdjust="spacing" textLength="56" x="466" y="573.7295">lstTickets</text><path d="M10,600.5859 L83,600.5859 L83,608.5859 L73,618.5859 L10,618.5859 L10,600.5859 " fill="#EEEEEE" style="stroke:#000000;stroke-width:1.0;"/><rect fill="none" height="141.7578" style="stroke:#000000;stroke-width:2.0;" width="500.5" x="10" y="600.5859"/><text fill="#000000" font-family="sans-serif" font-size="13" font-weight="bold" lengthAdjust="spacing" textLength="28" x="25" y="615.0811">loop</text><text fill="#000000" font-family="sans-serif" font-size="11" font-weight="bold" lengthAdjust="spacing" textLength="165" x="98" y="614.0049">[until the user wants to leave]</text><polygon fill="#A80036" points="88,637.2891,78,641.2891,88,645.2891,84,641.2891" style="stroke:#A80036;stroke-width:1.0;"/><line style="stroke:#A80036;stroke-width:1.0;" x1="82" x2="425" y1="641.2891" y2="641.2891"/><text fill="#000000" font-family="sans-serif" font-size="13" font-weight="bold" lengthAdjust="spacing" textLength="14" x="94" y="636.4326">13</text><text fill="#000000" font-family="sans-serif" font-size="13" lengthAdjust="spacing" textLength="181" x="112" y="636.4326">presents the tickets to the user</text><path d="M20,656.2891 L81,656.2891 L81,664.2891 L71,674.2891 L20,674.2891 L20,656.2891 " fill="#EEEEEE" style="stroke:#000000;stroke-width:1.0;"/><rect fill="none" height="79.0547" style="stroke:#000000;stroke-width:2.0;" width="480.5" x="20" y="656.2891"/><text fill="#000000" font-family="sans-serif" font-size="13" font-weight="bold" lengthAdjust="spacing" textLength="16" x="35" y="670.7842">alt</text><text fill="#000000" font-family="sans-serif" font-size="11" font-weight="bold" lengthAdjust="spacing" textLength="328" x="96" y="669.708">[if the user wants to see a detailed view of a specific ticket]</text><polygon fill="#A80036" points="409,692.9922,419,696.9922,409,700.9922,413,696.9922" style="stroke:#A80036;stroke-width:1.0;"/><line style="stroke:#A80036;stroke-width:1.0;" x1="77" x2="415" y1="696.9922" y2="696.9922"/><text fill="#000000" font-family="sans-serif" font-size="13" font-weight="bold" lengthAdjust="spacing" textLength="14" x="84" y="692.1357">14</text><text fill="#000000" font-family="sans-serif" font-size="13" lengthAdjust="spacing" textLength="107" x="102" y="692.1357">chooses the ticket</text><polygon fill="#A80036" points="88,723.3438,78,727.3438,88,731.3438,84,727.3438" style="stroke:#A80036;stroke-width:1.0;"/><line style="stroke:#A80036;stroke-width:1.0;" x1="82" x2="425" y1="727.3438" y2="727.3438"/><text fill="#000000" font-family="sans-serif" font-size="13" font-weight="bold" lengthAdjust="spacing" textLength="14" x="94" y="722.4873">15</text><text fill="#000000" font-family="sans-serif" font-size="13" lengthAdjust="spacing" textLength="266" x="112" y="722.4873">presents the detailed information of said ticket</text><!--MD5=[8d643e5045ddf450285455fce97802de]
@startuml
autonumber
hide footbox

actor "Collaborator" as COLLAB

participant "<<presentation>>\nSearchTicketsUI" as UI
participant "<<application>>\nSearchTicketsController" as CTRL
database "<<repository>>\nTicketRepository" as TR
participant "<<persistence>>\nPersistenceContext" as PC
participant "<<persistence>>\nAppSettings" as AS
participant "<<factory>>\nRepositoryFactory" as RF
participant "<<domain>>\nTicket" as T
participant "<<domain>>\nResponse" as RS
participant "<<domain>>\nCatalogue" as C
participant "<<domain>>\nService" as S
participant "<<domain>>\nTicketUrgency" as TU
participant "<<domain>>\nTicketLimitDate" as TD
participant "<<domain>>\nTicketCreationDate" as TC
participant "<<domain>>\nTicketFile" as TF
participant "<<domain>>\nAttribute" as A
participant "<<domain>>\nForm" as F

activate COLLAB

COLLAB -> UI : initiates the ticket query request
activate UI

UI -> CTRL** : create
activate CTRL

ref over CTRL
  US-2-3031_SD_Repo
end ref

UI -> COLLAB : requests the user to choose on going or history mode
deactivate UI
deactivate CTRL

COLLAB -> UI : chooses the mode
activate UI

alt if the user selects history mode
UI -> CTRL : getTicketHistory()
activate CTRL

CTRL -> TR : getTicketHistory(username)
activate TR
TR - -> CTRL : lstTickets
deactivate TR

CTRL - -> UI : lstTickets
deactivate CTRL

else if the user selects on going mode

UI -> CTRL : getOnGoingTickets()
activate CTRL

CTRL -> TR : getOnGoingTickets(username)
activate TR
TR - -> CTRL : lstTickets
deactivate TR

CTRL - -> UI : lstTickets
deactivate CTRL
end

loop until the user wants to leave

UI -> COLLAB : presents the tickets to the user
deactivate UI

alt if the user wants to see a detailed view of a specific ticket

COLLAB -> UI : chooses the ticket
activate UI



UI -> COLLAB : presents the detailed information of said ticket
deactivate UI

end

end

deactivate COLLAB

@enduml

PlantUML version 1.2021.5(Sun Apr 25 12:20:28 BST 2021)
(GPL source distribution)
Java Runtime: OpenJDK Runtime Environment
JVM: Dynamic Code Evolution 64-Bit Server VM
Default Encoding: Cp1252
Language: pt
Country: PT
--></g></svg>