<?xml version="1.0" encoding="UTF-8" standalone="no"?><svg xmlns="http://www.w3.org/2000/svg" xmlns:xlink="http://www.w3.org/1999/xlink" contentScriptType="application/ecmascript" contentStyleType="text/css" height="1103.75px" preserveAspectRatio="none" style="width:4327px;height:1103px;background:#FFFFFF;" version="1.1" viewBox="0 0 4327 1103" width="4327.5px" zoomAndPan="magnify"><defs><filter height="300%" id="fyjym7b9zqzzx" width="300%" x="-1" y="-1"><feGaussianBlur result="blurOut" stdDeviation="2.5"/><feColorMatrix in="blurOut" result="blurOut2" type="matrix" values="0 0 0 0 0 0 0 0 0 0 0 0 0 0 0 0 0 0 .4 0"/><feOffset dx="5.0" dy="5.0" in="blurOut2" result="blurOut3"/><feBlend in="SourceGraphic" in2="blurOut3" mode="normal"/></filter></defs><g><!--MD5=[8fd473fd151a2794da4f2c8684676405]
cluster Presentation--><polygon fill="#DDDDDD" filter="url(#fyjym7b9zqzzx)" points="58.75,7.5,178.75,7.5,187.5,37.0117,373.75,37.0117,373.75,167.5,58.75,167.5,58.75,7.5" style="stroke:#000000;stroke-width:1.875;"/><line style="stroke:#000000;stroke-width:1.875;" x1="58.75" x2="187.5" y1="37.0117" y2="37.0117"/><text fill="#000000" font-family="sans-serif" font-size="17.5" font-weight="bold" lengthAdjust="spacing" textLength="112.5" x="63.75" y="28.1665">Presentation</text><!--MD5=[d64883541e3d62e3241c4d12decf100d]
cluster Application--><polygon fill="#DDDDDD" filter="url(#fyjym7b9zqzzx)" points="20,208.75,125,208.75,133.75,238.2617,412.5,238.2617,412.5,455,20,455,20,208.75" style="stroke:#000000;stroke-width:1.875;"/><line style="stroke:#000000;stroke-width:1.875;" x1="20" x2="133.75" y1="238.2617" y2="238.2617"/><text fill="#000000" font-family="sans-serif" font-size="17.5" font-weight="bold" lengthAdjust="spacing" textLength="97.5" x="25" y="229.4165">Application</text><!--MD5=[121a8bf1197281ab89ed693fab589f94]
cluster Domain--><polygon fill="#DDDDDD" filter="url(#fyjym7b9zqzzx)" points="1618.75,537.5,1691.25,537.5,1700,567.0117,4306.25,567.0117,4306.25,1070,1618.75,1070,1618.75,537.5" style="stroke:#000000;stroke-width:1.875;"/><line style="stroke:#000000;stroke-width:1.875;" x1="1618.75" x2="1700" y1="567.0117" y2="567.0117"/><text fill="#000000" font-family="sans-serif" font-size="17.5" font-weight="bold" lengthAdjust="spacing" textLength="65" x="1623.75" y="558.1665">Domain</text><!--MD5=[bc6b40dadbf86ab6a0c8405a467a48af]
cluster Persistence--><polygon fill="#DDDDDD" filter="url(#fyjym7b9zqzzx)" points="108.75,517.5,221.25,517.5,230,547.0117,1588.75,547.0117,1588.75,1095,108.75,1095,108.75,517.5" style="stroke:#000000;stroke-width:1.875;"/><line style="stroke:#000000;stroke-width:1.875;" x1="108.75" x2="230" y1="547.0117" y2="547.0117"/><text fill="#000000" font-family="sans-serif" font-size="17.5" font-weight="bold" lengthAdjust="spacing" textLength="105" x="113.75" y="538.1665">Persistence</text><!--MD5=[0d5799440b3bfefd92b00abfcd2c79b9]
cluster Factory--><polygon fill="#DDDDDD" filter="url(#fyjym7b9zqzzx)" points="871.25,607.5,943.75,607.5,952.5,637.0117,1073.75,637.0117,1073.75,853.75,871.25,853.75,871.25,607.5" style="stroke:#000000;stroke-width:1.875;"/><line style="stroke:#000000;stroke-width:1.875;" x1="871.25" x2="952.5" y1="637.0117" y2="637.0117"/><text fill="#000000" font-family="sans-serif" font-size="17.5" font-weight="bold" lengthAdjust="spacing" textLength="65" x="876.25" y="628.1665">Factory</text><!--MD5=[71971f99a41bb66cf321ce46bb59f738]
cluster Repository--><polygon fill="#DDDDDD" filter="url(#fyjym7b9zqzzx)" points="1103.75,572.5,1206.25,572.5,1215,602.0117,1558.75,602.0117,1558.75,1065,1103.75,1065,1103.75,572.5" style="stroke:#000000;stroke-width:1.875;"/><line style="stroke:#000000;stroke-width:1.875;" x1="1103.75" x2="1215" y1="602.0117" y2="602.0117"/><text fill="#000000" font-family="sans-serif" font-size="17.5" font-weight="bold" lengthAdjust="spacing" textLength="95" x="1108.75" y="593.1665">Repository</text><!--MD5=[b838a554afdceeab34230a5c3a6aabf5]
class ConsultAssignedPendingTasksUI--><rect codeLine="4" fill="#FEFECE" filter="url(#fyjym7b9zqzzx)" height="70.2344" id="ConsultAssignedPendingTasksUI" style="stroke:#A80036;stroke-width:1.875;" width="273.75" x="79.375" y="77.5"/><ellipse cx="98.125" cy="102.6172" fill="#ADD1B2" rx="13.75" ry="13.75" style="stroke:#A80036;stroke-width:1.25;"/><path d="M100.625,98.2422 Q100.8789,97.6172 101.1719,97.3047 Q101.4648,96.9922 101.7969,96.9922 Q102.3828,96.9922 102.7539,97.3438 Q103.125,97.6953 103.125,98.5156 L103.125,100.4688 Q103.125,101.2891 102.7734,101.6406 Q102.4219,101.9922 101.875,101.9922 Q101.3867,101.9922 101.0742,101.7773 Q100.7617,101.5625 100.625,100.9961 Q100.5664,100.6055 100.3516,100.3906 Q99.9609,99.9805 99.2578,99.7461 Q98.5547,99.4922 97.8516,99.4922 Q96.9727,99.4922 96.2305,99.8438 Q95.5078,100.1953 94.9414,100.9766 Q94.375,101.7578 94.375,102.832 L94.375,103.9844 Q94.375,105.2734 95.4297,106.1328 Q96.4844,106.9922 98.3594,106.9922 Q99.4727,106.9922 100.2539,106.7383 Q100.7031,106.6016 101.2109,106.1523 Q101.543,105.8984 101.7188,105.8203 Q101.8945,105.7422 102.1094,105.7422 Q102.5195,105.7422 102.8125,106.0742 Q103.125,106.3867 103.125,106.8359 Q103.125,107.2656 102.6953,107.7734 Q102.0703,108.5156 101.0742,108.9258 Q99.7656,109.4922 98.1641,109.4922 Q96.2891,109.4922 94.7852,108.75 Q93.5742,108.1641 92.7148,106.8945 Q91.875,105.625 91.875,104.1211 L91.875,102.7539 Q91.875,101.1914 92.6172,99.8242 Q93.3789,98.457 94.6875,97.7344 Q96.0156,96.9922 97.5,96.9922 Q98.3984,96.9922 99.1797,97.3047 Q99.9609,97.6172 100.625,98.2422 Z " fill="#000000"/><text fill="#000000" font-family="sans-serif" font-size="15" font-style="italic" lengthAdjust="spacing" textLength="102.5" x="181.25" y="99.3213">«presentation»</text><text fill="#000000" font-family="sans-serif" font-size="15" lengthAdjust="spacing" textLength="233.75" x="115.625" y="118.1885">ConsultAssignedPendingTasksUI</text><line style="stroke:#A80036;stroke-width:1.875;" x1="80.625" x2="351.875" y1="127.7344" y2="127.7344"/><line style="stroke:#A80036;stroke-width:1.875;" x1="80.625" x2="351.875" y1="137.7344" y2="137.7344"/><!--MD5=[4c0d90daae2d1dd9a3233c16fe7a0fb2]
class ConsultAssignedPendingTasksController--><rect codeLine="10" fill="#FEFECE" filter="url(#fyjym7b9zqzzx)" height="156.709" id="ConsultAssignedPendingTasksController" style="stroke:#A80036;stroke-width:1.875;" width="352.5" x="40" y="278.75"/><ellipse cx="70.5625" cy="303.8672" fill="#ADD1B2" rx="13.75" ry="13.75" style="stroke:#A80036;stroke-width:1.25;"/><path d="M73.0625,299.4922 Q73.3164,298.8672 73.6094,298.5547 Q73.9023,298.2422 74.2344,298.2422 Q74.8203,298.2422 75.1914,298.5938 Q75.5625,298.9453 75.5625,299.7656 L75.5625,301.7188 Q75.5625,302.5391 75.2109,302.8906 Q74.8594,303.2422 74.3125,303.2422 Q73.8242,303.2422 73.5117,303.0273 Q73.1992,302.8125 73.0625,302.2461 Q73.0039,301.8555 72.7891,301.6406 Q72.3984,301.2305 71.6953,300.9961 Q70.9922,300.7422 70.2891,300.7422 Q69.4102,300.7422 68.668,301.0938 Q67.9453,301.4453 67.3789,302.2266 Q66.8125,303.0078 66.8125,304.082 L66.8125,305.2344 Q66.8125,306.5234 67.8672,307.3828 Q68.9219,308.2422 70.7969,308.2422 Q71.9102,308.2422 72.6914,307.9883 Q73.1406,307.8516 73.6484,307.4023 Q73.9805,307.1484 74.1563,307.0703 Q74.332,306.9922 74.5469,306.9922 Q74.957,306.9922 75.25,307.3242 Q75.5625,307.6367 75.5625,308.0859 Q75.5625,308.5156 75.1328,309.0234 Q74.5078,309.7656 73.5117,310.1758 Q72.2031,310.7422 70.6016,310.7422 Q68.7266,310.7422 67.2227,310 Q66.0117,309.4141 65.1523,308.1445 Q64.3125,306.875 64.3125,305.3711 L64.3125,304.0039 Q64.3125,302.4414 65.0547,301.0742 Q65.8164,299.707 67.125,298.9844 Q68.4531,298.2422 69.9375,298.2422 Q70.8359,298.2422 71.6172,298.5547 Q72.3984,298.8672 73.0625,299.4922 Z " fill="#000000"/><text fill="#000000" font-family="sans-serif" font-size="15" font-style="italic" lengthAdjust="spacing" textLength="92.5" x="187.5625" y="300.5713">«application»</text><text fill="#000000" font-family="sans-serif" font-size="15" lengthAdjust="spacing" textLength="286.25" x="90.6875" y="319.4385">ConsultAssignedPendingTasksController</text><line style="stroke:#A80036;stroke-width:1.875;" x1="41.25" x2="391.25" y1="328.9844" y2="328.9844"/><line style="stroke:#A80036;stroke-width:1.875;" x1="41.25" x2="391.25" y1="338.9844" y2="338.9844"/><text fill="#000000" font-family="sans-serif" font-size="13.75" lengthAdjust="spacing" textLength="56.25" x="47.5" y="358.2581">+create()</text><text fill="#000000" font-family="sans-serif" font-size="13.75" lengthAdjust="spacing" textLength="231.25" x="47.5" y="375.553">+getTasksOfCollaborator(collaborator)</text><text fill="#000000" font-family="sans-serif" font-size="13.75" lengthAdjust="spacing" textLength="281.25" x="47.5" y="392.8479">+getTasksOfCollaborator(collaborator, filterBy)</text><text fill="#000000" font-family="sans-serif" font-size="13.75" lengthAdjust="spacing" textLength="287.5" x="47.5" y="410.1428">+getTasksOfCollaborator(collaborator, orderBy)</text><text fill="#000000" font-family="sans-serif" font-size="13.75" lengthAdjust="spacing" textLength="337.5" x="47.5" y="427.4377">+getTasksOfCollaborator(collaborator, filterBy, orderBy)</text><!--MD5=[b34797a66dc35cbf1d65f7e3ca75530e]
class Task--><rect codeLine="22" fill="#FEFECE" filter="url(#fyjym7b9zqzzx)" height="210.166" id="Task" style="stroke:#A80036;stroke-width:1.875;" width="237.5" x="3248.75" y="650.625"/><ellipse cx="3337.1875" cy="685.1758" fill="#A9DCDF" rx="13.75" ry="13.75" style="stroke:#A80036;stroke-width:1.25;"/><path d="M3339.375,687.0508 L3335.2539,687.0508 L3334.707,688.3008 L3334.707,688.3008 L3335.293,688.3008 L3335.9375,689.082 L3335.9375,689.5508 L3335.9375,690.0195 L3335.293,690.8008 L3334.707,690.8008 L3332.3438,690.8008 L3331.582,690.8008 L3330.9375,690.0195 L3330.9375,689.5508 L3330.9375,689.082 L3331.582,688.3008 L3332.3438,688.3008 L3335.2344,680.8008 L3334.1406,680.8008 L3332.832,680.8008 L3332.1875,680.0195 L3332.1875,679.5508 L3332.1875,679.082 L3332.832,678.3008 L3334.1406,678.3008 L3338.7305,678.3008 L3342.0898,688.3008 L3342.793,688.3008 L3342.793,688.3008 L3343.4375,689.082 L3343.4375,689.5508 L3343.4375,690.0195 L3342.793,690.8008 L3342.0898,690.8008 L3339.7266,690.8008 L3339.082,690.8008 L3338.4375,690.0195 L3338.4375,689.5508 L3338.4375,689.082 L3339.082,688.3008 L3339.7266,688.3008 L3339.7266,688.3008 L3339.375,687.0508 Z M3338.6914,684.5508 L3337.1875,680.0781 L3335.8984,684.5508 L3338.6914,684.5508 Z " fill="#000000"/><text fill="#000000" font-family="sans-serif" font-size="15" font-style="italic" lengthAdjust="spacing" textLength="55" x="3360.3125" y="672.4463">«Entity»</text><text fill="#000000" font-family="sans-serif" font-size="15" font-style="italic" lengthAdjust="spacing" textLength="50" x="3362.8125" y="691.3135">«Root»</text><text fill="#000000" font-family="sans-serif" font-size="15" font-style="italic" lengthAdjust="spacing" textLength="33.75" x="3370.9375" y="710.1807">Task</text><line style="stroke:#A80036;stroke-width:1.875;" x1="3250" x2="3485" y1="719.7266" y2="719.7266"/><text fill="#000000" font-family="sans-serif" font-size="13.75" lengthAdjust="spacing" textLength="97.5" x="3256.25" y="739.0002">-taskDescription</text><text fill="#000000" font-family="sans-serif" font-size="13.75" lengthAdjust="spacing" textLength="68.75" x="3256.25" y="756.2952">-taskStatus</text><text fill="#000000" font-family="sans-serif" font-size="13.75" lengthAdjust="spacing" textLength="71.25" x="3256.25" y="773.5901">-taskPriority</text><text fill="#000000" font-family="sans-serif" font-size="13.75" lengthAdjust="spacing" textLength="67.5" x="3256.25" y="790.885">-taskResult</text><text fill="#000000" font-family="sans-serif" font-size="13.75" lengthAdjust="spacing" textLength="76.25" x="3256.25" y="808.1799">-collaborator</text><line style="stroke:#A80036;stroke-width:1.875;" x1="3250" x2="3485" y1="816.2012" y2="816.2012"/><text fill="#000000" font-family="sans-serif" font-size="13.75" lengthAdjust="spacing" textLength="222.5" x="3256.25" y="835.4749">+create(taskDescription, taskPriority)</text><text fill="#000000" font-family="sans-serif" font-size="13.75" lengthAdjust="spacing" textLength="201.25" x="3256.25" y="852.7698">+assignCollaborator(collaborator)</text><!--MD5=[743064f62b3390934ed7addf6a434293]
class ManualTask--><rect codeLine="32" fill="#FEFECE" filter="url(#fyjym7b9zqzzx)" height="122.1191" id="ManualTask" style="stroke:#A80036;stroke-width:1.875;" width="328.75" x="2556.875" y="694.375"/><ellipse cx="2674.0625" cy="719.4922" fill="#ADD1B2" rx="13.75" ry="13.75" style="stroke:#A80036;stroke-width:1.25;"/><path d="M2676.5625,715.1172 Q2676.8164,714.4922 2677.1094,714.1797 Q2677.4023,713.8672 2677.7344,713.8672 Q2678.3203,713.8672 2678.6914,714.2188 Q2679.0625,714.5703 2679.0625,715.3906 L2679.0625,717.3438 Q2679.0625,718.1641 2678.7109,718.5156 Q2678.3594,718.8672 2677.8125,718.8672 Q2677.3242,718.8672 2677.0117,718.6523 Q2676.6992,718.4375 2676.5625,717.8711 Q2676.5039,717.4805 2676.2891,717.2656 Q2675.8984,716.8555 2675.1953,716.6211 Q2674.4922,716.3672 2673.7891,716.3672 Q2672.9102,716.3672 2672.168,716.7188 Q2671.4453,717.0703 2670.8789,717.8516 Q2670.3125,718.6328 2670.3125,719.707 L2670.3125,720.8594 Q2670.3125,722.1484 2671.3672,723.0078 Q2672.4219,723.8672 2674.2969,723.8672 Q2675.4102,723.8672 2676.1914,723.6133 Q2676.6406,723.4766 2677.1484,723.0273 Q2677.4805,722.7734 2677.6563,722.6953 Q2677.832,722.6172 2678.0469,722.6172 Q2678.457,722.6172 2678.75,722.9492 Q2679.0625,723.2617 2679.0625,723.7109 Q2679.0625,724.1406 2678.6328,724.6484 Q2678.0078,725.3906 2677.0117,725.8008 Q2675.7031,726.3672 2674.1016,726.3672 Q2672.2266,726.3672 2670.7227,725.625 Q2669.5117,725.0391 2668.6523,723.7695 Q2667.8125,722.5 2667.8125,720.9961 L2667.8125,719.6289 Q2667.8125,718.0664 2668.5547,716.6992 Q2669.3164,715.332 2670.625,714.6094 Q2671.9531,713.8672 2673.4375,713.8672 Q2674.3359,713.8672 2675.1172,714.1797 Q2675.8984,714.4922 2676.5625,715.1172 Z " fill="#000000"/><text fill="#000000" font-family="sans-serif" font-size="15" font-style="italic" lengthAdjust="spacing" textLength="55" x="2714.0625" y="716.1963">«Entity»</text><text fill="#000000" font-family="sans-serif" font-size="15" lengthAdjust="spacing" textLength="83.75" x="2699.6875" y="735.0635">ManualTask</text><line style="stroke:#A80036;stroke-width:1.875;" x1="2558.125" x2="2884.375" y1="744.6094" y2="744.6094"/><text fill="#000000" font-family="sans-serif" font-size="13.75" lengthAdjust="spacing" textLength="32.5" x="2564.375" y="763.8831">-form</text><text fill="#000000" font-family="sans-serif" font-size="13.75" lengthAdjust="spacing" textLength="53.75" x="2564.375" y="781.178">-limitDate</text><line style="stroke:#A80036;stroke-width:1.875;" x1="2558.125" x2="2884.375" y1="789.1992" y2="789.1992"/><text fill="#000000" font-family="sans-serif" font-size="13.75" lengthAdjust="spacing" textLength="313.75" x="2564.375" y="808.4729">+create(taskDescription, taskPriority, limitDate, form)</text><!--MD5=[ac6bea31e13c94c7baa9ad18feb7405e]
class Ticket--><rect codeLine="38" fill="#FEFECE" filter="url(#fyjym7b9zqzzx)" height="260.4785" id="Ticket" style="stroke:#A80036;stroke-width:1.875;" width="680" x="1638.75" y="625.625"/><ellipse cx="1948.4375" cy="650.7422" fill="#ADD1B2" rx="13.75" ry="13.75" style="stroke:#A80036;stroke-width:1.25;"/><path d="M1950.9375,646.3672 Q1951.1914,645.7422 1951.4844,645.4297 Q1951.7773,645.1172 1952.1094,645.1172 Q1952.6953,645.1172 1953.0664,645.4688 Q1953.4375,645.8203 1953.4375,646.6406 L1953.4375,648.5938 Q1953.4375,649.4141 1953.0859,649.7656 Q1952.7344,650.1172 1952.1875,650.1172 Q1951.6992,650.1172 1951.3867,649.9023 Q1951.0742,649.6875 1950.9375,649.1211 Q1950.8789,648.7305 1950.6641,648.5156 Q1950.2734,648.1055 1949.5703,647.8711 Q1948.8672,647.6172 1948.1641,647.6172 Q1947.2852,647.6172 1946.543,647.9688 Q1945.8203,648.3203 1945.2539,649.1016 Q1944.6875,649.8828 1944.6875,650.957 L1944.6875,652.1094 Q1944.6875,653.3984 1945.7422,654.2578 Q1946.7969,655.1172 1948.6719,655.1172 Q1949.7852,655.1172 1950.5664,654.8633 Q1951.0156,654.7266 1951.5234,654.2773 Q1951.8555,654.0234 1952.0313,653.9453 Q1952.207,653.8672 1952.4219,653.8672 Q1952.832,653.8672 1953.125,654.1992 Q1953.4375,654.5117 1953.4375,654.9609 Q1953.4375,655.3906 1953.0078,655.8984 Q1952.3828,656.6406 1951.3867,657.0508 Q1950.0781,657.6172 1948.4766,657.6172 Q1946.6016,657.6172 1945.0977,656.875 Q1943.8867,656.2891 1943.0273,655.0195 Q1942.1875,653.75 1942.1875,652.2461 L1942.1875,650.8789 Q1942.1875,649.3164 1942.9297,647.9492 Q1943.6914,646.582 1945,645.8594 Q1946.3281,645.1172 1947.8125,645.1172 Q1948.7109,645.1172 1949.4922,645.4297 Q1950.2734,645.7422 1950.9375,646.3672 Z " fill="#000000"/><text fill="#000000" font-family="sans-serif" font-size="15" font-style="italic" lengthAdjust="spacing" textLength="55" x="1971.5625" y="647.4463">«Entity»</text><text fill="#000000" font-family="sans-serif" font-size="15" lengthAdjust="spacing" textLength="40" x="1979.0625" y="666.3135">Ticket</text><line style="stroke:#A80036;stroke-width:1.875;" x1="1640" x2="2317.5" y1="675.8594" y2="675.8594"/><text fill="#000000" font-family="sans-serif" font-size="13.75" lengthAdjust="spacing" textLength="15" x="1646.25" y="695.1331">-id</text><text fill="#000000" font-family="sans-serif" font-size="13.75" lengthAdjust="spacing" textLength="55" x="1646.25" y="712.428">-urgency</text><text fill="#000000" font-family="sans-serif" font-size="13.75" lengthAdjust="spacing" textLength="53.75" x="1646.25" y="729.7229">-limitDate</text><text fill="#000000" font-family="sans-serif" font-size="13.75" lengthAdjust="spacing" textLength="81.25" x="1646.25" y="747.0178">-creationDate</text><text fill="#000000" font-family="sans-serif" font-size="13.75" lengthAdjust="spacing" textLength="42.5" x="1646.25" y="764.3127">-status</text><text fill="#000000" font-family="sans-serif" font-size="13.75" lengthAdjust="spacing" textLength="76.25" x="1646.25" y="781.6077">-collaborator</text><text fill="#000000" font-family="sans-serif" font-size="13.75" lengthAdjust="spacing" textLength="50" x="1646.25" y="798.9026">-service</text><text fill="#000000" font-family="sans-serif" font-size="13.75" lengthAdjust="spacing" textLength="86.25" x="1646.25" y="816.1975">-fluxExecution</text><text fill="#000000" font-family="sans-serif" font-size="13.75" lengthAdjust="spacing" textLength="30" x="1646.25" y="833.4924">-files</text><text fill="#000000" font-family="sans-serif" font-size="13.75" lengthAdjust="spacing" textLength="62.5" x="1646.25" y="850.7874">-response</text><line style="stroke:#A80036;stroke-width:1.875;" x1="1640" x2="2317.5" y1="858.8086" y2="858.8086"/><text fill="#000000" font-family="sans-serif" font-size="13.75" lengthAdjust="spacing" textLength="665" x="1646.25" y="878.0823">+create(oUrgency, oLimitDate, oCreationDate, LilstResponse, oFluxExecution, lstFiles, oService, oCollaborator)</text><!--MD5=[f483d6e5de34a60207b28a5563be5e8b]
class Collaborator--><rect codeLine="52" fill="#FEFECE" filter="url(#fyjym7b9zqzzx)" height="296.6406" id="Collaborator" style="stroke:#A80036;stroke-width:1.875;" width="727.5" x="3558.75" y="607.5"/><ellipse cx="3874.6875" cy="642.0508" fill="#ADD1B2" rx="13.75" ry="13.75" style="stroke:#A80036;stroke-width:1.25;"/><path d="M3877.1875,637.6758 Q3877.4414,637.0508 3877.7344,636.7383 Q3878.0273,636.4258 3878.3594,636.4258 Q3878.9453,636.4258 3879.3164,636.7773 Q3879.6875,637.1289 3879.6875,637.9492 L3879.6875,639.9023 Q3879.6875,640.7227 3879.3359,641.0742 Q3878.9844,641.4258 3878.4375,641.4258 Q3877.9492,641.4258 3877.6367,641.2109 Q3877.3242,640.9961 3877.1875,640.4297 Q3877.1289,640.0391 3876.9141,639.8242 Q3876.5234,639.4141 3875.8203,639.1797 Q3875.1172,638.9258 3874.4141,638.9258 Q3873.5352,638.9258 3872.793,639.2773 Q3872.0703,639.6289 3871.5039,640.4102 Q3870.9375,641.1914 3870.9375,642.2656 L3870.9375,643.418 Q3870.9375,644.707 3871.9922,645.5664 Q3873.0469,646.4258 3874.9219,646.4258 Q3876.0352,646.4258 3876.8164,646.1719 Q3877.2656,646.0352 3877.7734,645.5859 Q3878.1055,645.332 3878.2813,645.2539 Q3878.457,645.1758 3878.6719,645.1758 Q3879.082,645.1758 3879.375,645.5078 Q3879.6875,645.8203 3879.6875,646.2695 Q3879.6875,646.6992 3879.2578,647.207 Q3878.6328,647.9492 3877.6367,648.3594 Q3876.3281,648.9258 3874.7266,648.9258 Q3872.8516,648.9258 3871.3477,648.1836 Q3870.1367,647.5977 3869.2773,646.3281 Q3868.4375,645.0586 3868.4375,643.5547 L3868.4375,642.1875 Q3868.4375,640.625 3869.1797,639.2578 Q3869.9414,637.8906 3871.25,637.168 Q3872.5781,636.4258 3874.0625,636.4258 Q3874.9609,636.4258 3875.7422,636.7383 Q3876.5234,637.0508 3877.1875,637.6758 Z " fill="#000000"/><text fill="#000000" font-family="sans-serif" font-size="15" font-style="italic" lengthAdjust="spacing" textLength="55" x="3915.3125" y="629.3213">«Entity»</text><text fill="#000000" font-family="sans-serif" font-size="15" font-style="italic" lengthAdjust="spacing" textLength="50" x="3917.8125" y="648.1885">«Root»</text><text fill="#000000" font-family="sans-serif" font-size="15" lengthAdjust="spacing" textLength="85" x="3900.3125" y="667.0557">Collaborator</text><line style="stroke:#A80036;stroke-width:1.875;" x1="3560" x2="4285" y1="676.6016" y2="676.6016"/><text fill="#000000" font-family="sans-serif" font-size="13.75" lengthAdjust="spacing" textLength="143.75" x="3566.25" y="695.8752">-mecanographicNumber</text><text fill="#000000" font-family="sans-serif" font-size="13.75" lengthAdjust="spacing" textLength="77.5" x="3566.25" y="713.1702">-systemUser</text><text fill="#000000" font-family="sans-serif" font-size="13.75" lengthAdjust="spacing" textLength="57.5" x="3566.25" y="730.4651">-manager</text><text fill="#000000" font-family="sans-serif" font-size="13.75" lengthAdjust="spacing" textLength="88.75" x="3566.25" y="747.76">-phoneNumber</text><text fill="#000000" font-family="sans-serif" font-size="13.75" lengthAdjust="spacing" textLength="58.75" x="3566.25" y="765.0549">-birthDate</text><text fill="#000000" font-family="sans-serif" font-size="13.75" lengthAdjust="spacing" textLength="55" x="3566.25" y="782.3499">-address</text><text fill="#000000" font-family="sans-serif" font-size="13.75" lengthAdjust="spacing" textLength="92.5" x="3566.25" y="799.6448">-completeName</text><text fill="#000000" font-family="sans-serif" font-size="13.75" lengthAdjust="spacing" textLength="70" x="3566.25" y="816.9397">-shortName</text><text fill="#000000" font-family="sans-serif" font-size="13.75" lengthAdjust="spacing" textLength="41.25" x="3566.25" y="834.2346">-teams</text><line style="stroke:#A80036;stroke-width:1.875;" x1="3560" x2="4285" y1="842.2559" y2="842.2559"/><text fill="#000000" font-family="sans-serif" font-size="13.75" lengthAdjust="spacing" textLength="712.5" x="3566.25" y="861.5295">+create(systemUser, manager, phoneNumber, birthDate, address, completeName, shortName, mecanographicNumber)</text><text fill="#000000" font-family="sans-serif" font-size="13.75" lengthAdjust="spacing" textLength="101.25" x="3566.25" y="878.8245">+addTeam(team)</text><text fill="#000000" font-family="sans-serif" font-size="13.75" lengthAdjust="spacing" textLength="123.75" x="3566.25" y="896.1194">+removeTeam(team)</text><!--MD5=[6f29f313cd4199edbf91b9ce3a4faa98]
class Form--><rect codeLine="67" fill="#FEFECE" filter="url(#fyjym7b9zqzzx)" height="158.2813" id="Form" style="stroke:#A80036;stroke-width:1.875;" width="246.25" x="2958.125" y="676.25"/><ellipse cx="3050.9375" cy="710.8008" fill="#ADD1B2" rx="13.75" ry="13.75" style="stroke:#A80036;stroke-width:1.25;"/><path d="M3053.4375,706.4258 Q3053.6914,705.8008 3053.9844,705.4883 Q3054.2773,705.1758 3054.6094,705.1758 Q3055.1953,705.1758 3055.5664,705.5273 Q3055.9375,705.8789 3055.9375,706.6992 L3055.9375,708.6523 Q3055.9375,709.4727 3055.5859,709.8242 Q3055.2344,710.1758 3054.6875,710.1758 Q3054.1992,710.1758 3053.8867,709.9609 Q3053.5742,709.7461 3053.4375,709.1797 Q3053.3789,708.7891 3053.1641,708.5742 Q3052.7734,708.1641 3052.0703,707.9297 Q3051.3672,707.6758 3050.6641,707.6758 Q3049.7852,707.6758 3049.043,708.0273 Q3048.3203,708.3789 3047.7539,709.1602 Q3047.1875,709.9414 3047.1875,711.0156 L3047.1875,712.168 Q3047.1875,713.457 3048.2422,714.3164 Q3049.2969,715.1758 3051.1719,715.1758 Q3052.2852,715.1758 3053.0664,714.9219 Q3053.5156,714.7852 3054.0234,714.3359 Q3054.3555,714.082 3054.5313,714.0039 Q3054.707,713.9258 3054.9219,713.9258 Q3055.332,713.9258 3055.625,714.2578 Q3055.9375,714.5703 3055.9375,715.0195 Q3055.9375,715.4492 3055.5078,715.957 Q3054.8828,716.6992 3053.8867,717.1094 Q3052.5781,717.6758 3050.9766,717.6758 Q3049.1016,717.6758 3047.5977,716.9336 Q3046.3867,716.3477 3045.5273,715.0781 Q3044.6875,713.8086 3044.6875,712.3047 L3044.6875,710.9375 Q3044.6875,709.375 3045.4297,708.0078 Q3046.1914,706.6406 3047.5,705.918 Q3048.8281,705.1758 3050.3125,705.1758 Q3051.2109,705.1758 3051.9922,705.4883 Q3052.7734,705.8008 3053.4375,706.4258 Z " fill="#000000"/><text fill="#000000" font-family="sans-serif" font-size="15" font-style="italic" lengthAdjust="spacing" textLength="55" x="3074.0625" y="698.0713">«Entity»</text><text fill="#000000" font-family="sans-serif" font-size="15" font-style="italic" lengthAdjust="spacing" textLength="50" x="3076.5625" y="716.9385">«Root»</text><text fill="#000000" font-family="sans-serif" font-size="15" lengthAdjust="spacing" textLength="36.25" x="3083.4375" y="735.8057">Form</text><line style="stroke:#A80036;stroke-width:1.875;" x1="2959.375" x2="3203.125" y1="745.3516" y2="745.3516"/><text fill="#000000" font-family="sans-serif" font-size="13.75" lengthAdjust="spacing" textLength="37.5" x="2965.625" y="764.6252">-name</text><text fill="#000000" font-family="sans-serif" font-size="13.75" lengthAdjust="spacing" textLength="62.5" x="2965.625" y="781.9202">-formType</text><text fill="#000000" font-family="sans-serif" font-size="13.75" lengthAdjust="spacing" textLength="75" x="2965.625" y="799.2151">-attributeList</text><line style="stroke:#A80036;stroke-width:1.875;" x1="2959.375" x2="3203.125" y1="807.2363" y2="807.2363"/><text fill="#000000" font-family="sans-serif" font-size="13.75" lengthAdjust="spacing" textLength="231.25" x="2965.625" y="826.51">+create(name, formType, attributeList)</text><!--MD5=[b6692645e012126c295712d581f46d59]
class TaskFilterFields--><rect codeLine="74" fill="#FEFECE" filter="url(#fyjym7b9zqzzx)" height="70.2344" id="TaskFilterFields" style="stroke:#A80036;stroke-width:1.875;" width="150" x="2362.5" y="720.625"/><ellipse cx="2381.25" cy="745.7422" fill="#EB937F" rx="13.75" ry="13.75" style="stroke:#A80036;stroke-width:1.25;"/><path d="M2379.375,746.9922 L2379.375,749.4922 L2384.375,749.4922 L2384.375,748.2422 L2384.375,747.6367 L2385.1563,746.9922 L2385.625,746.9922 L2386.0938,746.9922 L2386.875,747.6367 L2386.875,748.2422 L2386.875,751.9922 L2376.875,751.9922 L2376.2695,751.9922 L2375.625,751.2109 L2375.625,750.7422 L2375.625,750.2734 L2376.2695,749.4922 L2376.875,749.4922 L2376.875,749.4922 L2376.875,741.9922 L2376.875,741.9922 L2376.2695,741.9922 L2375.625,741.2109 L2375.625,740.7422 L2375.625,740.2734 L2376.2695,739.4922 L2376.875,739.4922 L2386.875,739.4922 L2386.875,743.2422 L2386.875,743.8477 L2386.0938,744.4922 L2385.625,744.4922 L2385.1563,744.4922 L2384.375,743.8477 L2384.375,743.2422 L2384.375,741.9922 L2379.375,741.9922 L2379.375,744.4922 L2380.625,744.4922 L2380.625,743.8867 L2380.625,743.8867 L2381.4063,743.2422 L2381.875,743.2422 L2382.3438,743.2422 L2383.125,743.8867 L2383.125,744.4922 L2383.125,746.9922 L2383.125,747.5977 L2382.3438,748.2422 L2382.3438,748.2422 L2381.875,748.2422 L2381.4063,748.2422 L2380.625,747.5977 L2380.625,747.5977 L2380.625,746.9922 L2379.375,746.9922 Z " fill="#000000"/><text fill="#000000" font-family="sans-serif" font-size="15" font-style="italic" lengthAdjust="spacing" textLength="57.5" x="2425" y="742.4463">«enum»</text><text fill="#000000" font-family="sans-serif" font-size="15" lengthAdjust="spacing" textLength="110" x="2398.75" y="761.3135">TaskFilterFields</text><line style="stroke:#A80036;stroke-width:1.875;" x1="2363.75" x2="2511.25" y1="770.8594" y2="770.8594"/><line style="stroke:#A80036;stroke-width:1.875;" x1="2363.75" x2="2511.25" y1="780.8594" y2="780.8594"/><!--MD5=[f3a2002687a642eaae9e81dd18c76152]
class TaskOrderFields--><rect codeLine="77" fill="#FEFECE" filter="url(#fyjym7b9zqzzx)" height="70.2344" id="TaskOrderFields" style="stroke:#A80036;stroke-width:1.875;" width="155" x="1901.25" y="980"/><ellipse cx="1920" cy="1005.1172" fill="#EB937F" rx="13.75" ry="13.75" style="stroke:#A80036;stroke-width:1.25;"/><path d="M1918.125,1006.3672 L1918.125,1008.8672 L1923.125,1008.8672 L1923.125,1007.6172 L1923.125,1007.0117 L1923.9063,1006.3672 L1924.375,1006.3672 L1924.8438,1006.3672 L1925.625,1007.0117 L1925.625,1007.6172 L1925.625,1011.3672 L1915.625,1011.3672 L1915.0195,1011.3672 L1914.375,1010.5859 L1914.375,1010.1172 L1914.375,1009.6484 L1915.0195,1008.8672 L1915.625,1008.8672 L1915.625,1008.8672 L1915.625,1001.3672 L1915.625,1001.3672 L1915.0195,1001.3672 L1914.375,1000.5859 L1914.375,1000.1172 L1914.375,999.6484 L1915.0195,998.8672 L1915.625,998.8672 L1925.625,998.8672 L1925.625,1002.6172 L1925.625,1003.2227 L1924.8438,1003.8672 L1924.375,1003.8672 L1923.9063,1003.8672 L1923.125,1003.2227 L1923.125,1002.6172 L1923.125,1001.3672 L1918.125,1001.3672 L1918.125,1003.8672 L1919.375,1003.8672 L1919.375,1003.2617 L1919.375,1003.2617 L1920.1563,1002.6172 L1920.625,1002.6172 L1921.0938,1002.6172 L1921.875,1003.2617 L1921.875,1003.8672 L1921.875,1006.3672 L1921.875,1006.9727 L1921.0938,1007.6172 L1921.0938,1007.6172 L1920.625,1007.6172 L1920.1563,1007.6172 L1919.375,1006.9727 L1919.375,1006.9727 L1919.375,1006.3672 L1918.125,1006.3672 Z " fill="#000000"/><text fill="#000000" font-family="sans-serif" font-size="15" font-style="italic" lengthAdjust="spacing" textLength="57.5" x="1966.25" y="1001.8213">«enum»</text><text fill="#000000" font-family="sans-serif" font-size="15" lengthAdjust="spacing" textLength="115" x="1937.5" y="1020.6885">TaskOrderFields</text><line style="stroke:#A80036;stroke-width:1.875;" x1="1902.5" x2="2055" y1="1030.2344" y2="1030.2344"/><line style="stroke:#A80036;stroke-width:1.875;" x1="1902.5" x2="2055" y1="1040.2344" y2="1040.2344"/><!--MD5=[e8c189551b7885b999ad7cefb30fc2a3]
class PersistenceContext--><rect codeLine="82" fill="#FEFECE" filter="url(#fyjym7b9zqzzx)" height="87.5293" id="PersistenceContext" style="stroke:#A80036;stroke-width:1.875;" width="173.75" x="129.375" y="711.875"/><ellipse cx="148.125" cy="736.9922" fill="#ADD1B2" rx="13.75" ry="13.75" style="stroke:#A80036;stroke-width:1.25;"/><path d="M150.625,732.6172 Q150.8789,731.9922 151.1719,731.6797 Q151.4648,731.3672 151.7969,731.3672 Q152.3828,731.3672 152.7539,731.7188 Q153.125,732.0703 153.125,732.8906 L153.125,734.8438 Q153.125,735.6641 152.7734,736.0156 Q152.4219,736.3672 151.875,736.3672 Q151.3867,736.3672 151.0742,736.1523 Q150.7617,735.9375 150.625,735.3711 Q150.5664,734.9805 150.3516,734.7656 Q149.9609,734.3555 149.2578,734.1211 Q148.5547,733.8672 147.8516,733.8672 Q146.9727,733.8672 146.2305,734.2188 Q145.5078,734.5703 144.9414,735.3516 Q144.375,736.1328 144.375,737.207 L144.375,738.3594 Q144.375,739.6484 145.4297,740.5078 Q146.4844,741.3672 148.3594,741.3672 Q149.4727,741.3672 150.2539,741.1133 Q150.7031,740.9766 151.2109,740.5273 Q151.543,740.2734 151.7188,740.1953 Q151.8945,740.1172 152.1094,740.1172 Q152.5195,740.1172 152.8125,740.4492 Q153.125,740.7617 153.125,741.2109 Q153.125,741.6406 152.6953,742.1484 Q152.0703,742.8906 151.0742,743.3008 Q149.7656,743.8672 148.1641,743.8672 Q146.2891,743.8672 144.7852,743.125 Q143.5742,742.5391 142.7148,741.2695 Q141.875,740 141.875,738.4961 L141.875,737.1289 Q141.875,735.5664 142.6172,734.1992 Q143.3789,732.832 144.6875,732.1094 Q146.0156,731.3672 147.5,731.3672 Q148.3984,731.3672 149.1797,731.6797 Q149.9609,731.9922 150.625,732.6172 Z " fill="#000000"/><text fill="#000000" font-family="sans-serif" font-size="15" font-style="italic" lengthAdjust="spacing" textLength="96.25" x="184.375" y="733.6963">«persistence»</text><text fill="#000000" font-family="sans-serif" font-size="15" lengthAdjust="spacing" textLength="133.75" x="165.625" y="752.5635">PersistenceContext</text><line style="stroke:#A80036;stroke-width:1.875;" x1="130.625" x2="301.875" y1="762.1094" y2="762.1094"/><line style="stroke:#A80036;stroke-width:1.875;" x1="130.625" x2="301.875" y1="772.1094" y2="772.1094"/><text fill="#000000" font-family="sans-serif" font-size="13.75" lengthAdjust="spacing" textLength="88.75" x="136.875" y="791.3831">+repositories()</text><!--MD5=[b8e4c95865208c934bfcfda4f90bf50c]
class AppSettings--><rect codeLine="86" fill="#FEFECE" filter="url(#fyjym7b9zqzzx)" height="104.8242" id="AppSettings" style="stroke:#A80036;stroke-width:1.875;" width="162.5" x="432.5" y="703.125"/><ellipse cx="465.3125" cy="728.2422" fill="#ADD1B2" rx="13.75" ry="13.75" style="stroke:#A80036;stroke-width:1.25;"/><path d="M467.8125,723.8672 Q468.0664,723.2422 468.3594,722.9297 Q468.6523,722.6172 468.9844,722.6172 Q469.5703,722.6172 469.9414,722.9688 Q470.3125,723.3203 470.3125,724.1406 L470.3125,726.0938 Q470.3125,726.9141 469.9609,727.2656 Q469.6094,727.6172 469.0625,727.6172 Q468.5742,727.6172 468.2617,727.4023 Q467.9492,727.1875 467.8125,726.6211 Q467.7539,726.2305 467.5391,726.0156 Q467.1484,725.6055 466.4453,725.3711 Q465.7422,725.1172 465.0391,725.1172 Q464.1602,725.1172 463.418,725.4688 Q462.6953,725.8203 462.1289,726.6016 Q461.5625,727.3828 461.5625,728.457 L461.5625,729.6094 Q461.5625,730.8984 462.6172,731.7578 Q463.6719,732.6172 465.5469,732.6172 Q466.6602,732.6172 467.4414,732.3633 Q467.8906,732.2266 468.3984,731.7773 Q468.7305,731.5234 468.9063,731.4453 Q469.082,731.3672 469.2969,731.3672 Q469.707,731.3672 470,731.6992 Q470.3125,732.0117 470.3125,732.4609 Q470.3125,732.8906 469.8828,733.3984 Q469.2578,734.1406 468.2617,734.5508 Q466.9531,735.1172 465.3516,735.1172 Q463.4766,735.1172 461.9727,734.375 Q460.7617,733.7891 459.9023,732.5195 Q459.0625,731.25 459.0625,729.7461 L459.0625,728.3789 Q459.0625,726.8164 459.8047,725.4492 Q460.5664,724.082 461.875,723.3594 Q463.2031,722.6172 464.6875,722.6172 Q465.5859,722.6172 466.3672,722.9297 Q467.1484,723.2422 467.8125,723.8672 Z " fill="#000000"/><text fill="#000000" font-family="sans-serif" font-size="15" font-style="italic" lengthAdjust="spacing" textLength="96.25" x="483.4375" y="724.9463">«persistence»</text><text fill="#000000" font-family="sans-serif" font-size="15" lengthAdjust="spacing" textLength="82.5" x="490.3125" y="743.8135">AppSettings</text><line style="stroke:#A80036;stroke-width:1.875;" x1="433.75" x2="593.75" y1="753.3594" y2="753.3594"/><line style="stroke:#A80036;stroke-width:1.875;" x1="433.75" x2="593.75" y1="763.3594" y2="763.3594"/><text fill="#000000" font-family="sans-serif" font-size="13.75" lengthAdjust="spacing" textLength="68.75" x="440" y="782.6331">+instance()</text><text fill="#000000" font-family="sans-serif" font-size="13.75" lengthAdjust="spacing" textLength="147.5" x="440" y="799.928">+getRepositoryFactory()</text><!--MD5=[2d00e6e09a1cfec9653155ee4d91c399]
class TaskRepository--><rect fill="#FEFECE" filter="url(#fyjym7b9zqzzx)" height="60" id="TaskRepository" style="stroke:#A80036;stroke-width:1.875;" width="147.5" x="638.75" y="725.625"/><ellipse cx="657.5" cy="745.625" fill="#ADD1B2" rx="13.75" ry="13.75" style="stroke:#A80036;stroke-width:1.25;"/><path d="M660,741.25 Q660.2539,740.625 660.5469,740.3125 Q660.8398,740 661.1719,740 Q661.7578,740 662.1289,740.3516 Q662.5,740.7031 662.5,741.5234 L662.5,743.4766 Q662.5,744.2969 662.1484,744.6484 Q661.7969,745 661.25,745 Q660.7617,745 660.4492,744.7852 Q660.1367,744.5703 660,744.0039 Q659.9414,743.6133 659.7266,743.3984 Q659.3359,742.9883 658.6328,742.7539 Q657.9297,742.5 657.2266,742.5 Q656.3477,742.5 655.6055,742.8516 Q654.8828,743.2031 654.3164,743.9844 Q653.75,744.7656 653.75,745.8398 L653.75,746.9922 Q653.75,748.2813 654.8047,749.1406 Q655.8594,750 657.7344,750 Q658.8477,750 659.6289,749.7461 Q660.0781,749.6094 660.5859,749.1602 Q660.918,748.9063 661.0938,748.8281 Q661.2695,748.75 661.4844,748.75 Q661.8945,748.75 662.1875,749.082 Q662.5,749.3945 662.5,749.8438 Q662.5,750.2734 662.0703,750.7813 Q661.4453,751.5234 660.4492,751.9336 Q659.1406,752.5 657.5391,752.5 Q655.6641,752.5 654.1602,751.7578 Q652.9492,751.1719 652.0898,749.9023 Q651.25,748.6328 651.25,747.1289 L651.25,745.7617 Q651.25,744.1992 651.9922,742.832 Q652.7539,741.4648 654.0625,740.7422 Q655.3906,740 656.875,740 Q657.7734,740 658.5547,740.3125 Q659.3359,740.625 660,741.25 Z " fill="#000000"/><text fill="#000000" font-family="sans-serif" font-size="15" lengthAdjust="spacing" textLength="107.5" x="675" y="751.7627">TaskRepository</text><line style="stroke:#A80036;stroke-width:1.875;" x1="640" x2="785" y1="765.625" y2="765.625"/><line style="stroke:#A80036;stroke-width:1.875;" x1="640" x2="785" y1="775.625" y2="775.625"/><!--MD5=[48590afff58a68e2fcba47824d6f8a11]
class RepositoryFactory--><rect codeLine="92" fill="#FEFECE" filter="url(#fyjym7b9zqzzx)" height="156.709" id="RepositoryFactory" style="stroke:#A80036;stroke-width:1.875;" width="162.5" x="891.25" y="677.5"/><ellipse cx="910" cy="702.6172" fill="#ADD1B2" rx="13.75" ry="13.75" style="stroke:#A80036;stroke-width:1.25;"/><path d="M912.5,698.2422 Q912.7539,697.6172 913.0469,697.3047 Q913.3398,696.9922 913.6719,696.9922 Q914.2578,696.9922 914.6289,697.3438 Q915,697.6953 915,698.5156 L915,700.4688 Q915,701.2891 914.6484,701.6406 Q914.2969,701.9922 913.75,701.9922 Q913.2617,701.9922 912.9492,701.7773 Q912.6367,701.5625 912.5,700.9961 Q912.4414,700.6055 912.2266,700.3906 Q911.8359,699.9805 911.1328,699.7461 Q910.4297,699.4922 909.7266,699.4922 Q908.8477,699.4922 908.1055,699.8438 Q907.3828,700.1953 906.8164,700.9766 Q906.25,701.7578 906.25,702.832 L906.25,703.9844 Q906.25,705.2734 907.3047,706.1328 Q908.3594,706.9922 910.2344,706.9922 Q911.3477,706.9922 912.1289,706.7383 Q912.5781,706.6016 913.0859,706.1523 Q913.418,705.8984 913.5938,705.8203 Q913.7695,705.7422 913.9844,705.7422 Q914.3945,705.7422 914.6875,706.0742 Q915,706.3867 915,706.8359 Q915,707.2656 914.5703,707.7734 Q913.9453,708.5156 912.9492,708.9258 Q911.6406,709.4922 910.0391,709.4922 Q908.1641,709.4922 906.6602,708.75 Q905.4492,708.1641 904.5898,706.8945 Q903.75,705.625 903.75,704.1211 L903.75,702.7539 Q903.75,701.1914 904.4922,699.8242 Q905.2539,698.457 906.5625,697.7344 Q907.8906,696.9922 909.375,696.9922 Q910.2734,696.9922 911.0547,697.3047 Q911.8359,697.6172 912.5,698.2422 Z " fill="#000000"/><text fill="#000000" font-family="sans-serif" font-size="15" font-style="italic" lengthAdjust="spacing" textLength="62.5" x="957.5" y="699.3213">«factory»</text><text fill="#000000" font-family="sans-serif" font-size="15" lengthAdjust="spacing" textLength="122.5" x="927.5" y="718.1885">RepositoryFactory</text><line style="stroke:#A80036;stroke-width:1.875;" x1="892.5" x2="1052.5" y1="727.7344" y2="727.7344"/><line style="stroke:#A80036;stroke-width:1.875;" x1="892.5" x2="1052.5" y1="737.7344" y2="737.7344"/><text fill="#000000" font-family="sans-serif" font-size="13.75" lengthAdjust="spacing" textLength="56.25" x="898.75" y="757.0081">+create()</text><text fill="#000000" font-family="sans-serif" font-size="13.75" lengthAdjust="spacing" textLength="96.25" x="898.75" y="774.303">+collaborators()</text><text fill="#000000" font-family="sans-serif" font-size="13.75" lengthAdjust="spacing" textLength="50" x="898.75" y="791.5979">+tasks()</text><text fill="#000000" font-family="sans-serif" font-size="13.75" lengthAdjust="spacing" textLength="53.75" x="898.75" y="808.8928">+teams()</text><text fill="#000000" font-family="sans-serif" font-size="13.75" lengthAdjust="spacing" textLength="52.5" x="898.75" y="826.1877">+forms()</text><!--MD5=[92a0a821d4a69608f6ec4b5426de1e8a]
class TicketRepository--><rect codeLine="102" fill="#FEFECE" filter="url(#fyjym7b9zqzzx)" height="225.8887" id="TicketRepository" style="stroke:#A80036;stroke-width:1.875;" width="415" x="1123.75" y="642.5"/><ellipse cx="1269.0625" cy="667.6172" fill="#ADD1B2" rx="13.75" ry="13.75" style="stroke:#A80036;stroke-width:1.25;"/><path d="M1271.5625,663.2422 Q1271.8164,662.6172 1272.1094,662.3047 Q1272.4023,661.9922 1272.7344,661.9922 Q1273.3203,661.9922 1273.6914,662.3438 Q1274.0625,662.6953 1274.0625,663.5156 L1274.0625,665.4688 Q1274.0625,666.2891 1273.7109,666.6406 Q1273.3594,666.9922 1272.8125,666.9922 Q1272.3242,666.9922 1272.0117,666.7773 Q1271.6992,666.5625 1271.5625,665.9961 Q1271.5039,665.6055 1271.2891,665.3906 Q1270.8984,664.9805 1270.1953,664.7461 Q1269.4922,664.4922 1268.7891,664.4922 Q1267.9102,664.4922 1267.168,664.8438 Q1266.4453,665.1953 1265.8789,665.9766 Q1265.3125,666.7578 1265.3125,667.832 L1265.3125,668.9844 Q1265.3125,670.2734 1266.3672,671.1328 Q1267.4219,671.9922 1269.2969,671.9922 Q1270.4102,671.9922 1271.1914,671.7383 Q1271.6406,671.6016 1272.1484,671.1523 Q1272.4805,670.8984 1272.6563,670.8203 Q1272.832,670.7422 1273.0469,670.7422 Q1273.457,670.7422 1273.75,671.0742 Q1274.0625,671.3867 1274.0625,671.8359 Q1274.0625,672.2656 1273.6328,672.7734 Q1273.0078,673.5156 1272.0117,673.9258 Q1270.7031,674.4922 1269.1016,674.4922 Q1267.2266,674.4922 1265.7227,673.75 Q1264.5117,673.1641 1263.6523,671.8945 Q1262.8125,670.625 1262.8125,669.1211 L1262.8125,667.7539 Q1262.8125,666.1914 1263.5547,664.8242 Q1264.3164,663.457 1265.625,662.7344 Q1266.9531,661.9922 1268.4375,661.9922 Q1269.3359,661.9922 1270.1172,662.3047 Q1270.8984,662.6172 1271.5625,663.2422 Z " fill="#000000"/><text fill="#000000" font-family="sans-serif" font-size="15" font-style="italic" lengthAdjust="spacing" textLength="85" x="1309.0625" y="664.3213">«repository»</text><text fill="#000000" font-family="sans-serif" font-size="15" lengthAdjust="spacing" textLength="113.75" x="1294.6875" y="683.1885">TicketRepository</text><line style="stroke:#A80036;stroke-width:1.875;" x1="1125" x2="1537.5" y1="692.7344" y2="692.7344"/><line style="stroke:#A80036;stroke-width:1.875;" x1="1125" x2="1537.5" y1="702.7344" y2="702.7344"/><text fill="#000000" font-family="sans-serif" font-size="13.75" lengthAdjust="spacing" textLength="56.25" x="1131.25" y="722.0081">+create()</text><text fill="#000000" font-family="sans-serif" font-size="13.75" lengthAdjust="spacing" textLength="55" x="1131.25" y="739.303">+findAll()</text><text fill="#000000" font-family="sans-serif" font-size="13.75" lengthAdjust="spacing" textLength="260" x="1131.25" y="756.5979">+getTicketHistory(final SystemUser oUser);</text><text fill="#000000" font-family="sans-serif" font-size="13.75" lengthAdjust="spacing" textLength="171.25" x="1131.25" y="773.8928">+getOnGoingTickets(oUser);</text><text fill="#000000" font-family="sans-serif" font-size="13.75" lengthAdjust="spacing" textLength="286.25" x="1131.25" y="791.1877">+getPendingManualTasksByTicket(oUsername);</text><text fill="#000000" font-family="sans-serif" font-size="13.75" lengthAdjust="spacing" textLength="400" x="1131.25" y="808.4827">+getPendingManualTasksByTicketOrdered(oUsername,orderField);</text><text fill="#000000" font-family="sans-serif" font-size="13.75" lengthAdjust="spacing" textLength="150" x="1131.25" y="825.7776">+getTicketFromFlux(afe);</text><text fill="#000000" font-family="sans-serif" font-size="13.75" lengthAdjust="spacing" textLength="177.5" x="1131.25" y="843.0725">+getTicketByTaskExec(lngId);</text><text fill="#000000" font-family="sans-serif" font-size="13.75" lengthAdjust="spacing" textLength="76.25" x="1131.25" y="860.3674">+save(Task)</text><!--MD5=[cab4563c58fd86a508f6beb0373b4d78]
class TicketRepositoryInterface--><rect codeLine="114" fill="#FEFECE" filter="url(#fyjym7b9zqzzx)" height="60" id="TicketRepositoryInterface" style="stroke:#A80036;stroke-width:1.875;" width="215" x="1223.75" y="985"/><ellipse cx="1242.5" cy="1005" fill="#B4A7E5" rx="13.75" ry="13.75" style="stroke:#A80036;stroke-width:1.25;"/><path d="M1243.75,1001.25 L1243.75,1008.75 L1246.25,1008.75 L1246.8555,1008.75 L1247.5,1009.5313 L1247.5,1010 L1247.5,1010.4688 L1246.8555,1011.25 L1246.25,1011.25 L1238.75,1011.25 L1238.1445,1011.25 L1237.5,1010.4688 L1237.5,1010 L1237.5,1009.5313 L1238.1445,1008.75 L1238.75,1008.75 L1241.25,1008.75 L1241.25,1001.25 L1238.75,1001.25 L1238.1445,1001.25 L1237.5,1000.4688 L1237.5,1000 L1237.5,999.5313 L1238.1445,998.75 L1238.75,998.75 L1246.25,998.75 L1246.8555,998.75 L1247.5,999.5313 L1247.5,1000 L1247.5,1000.4688 L1246.8555,1001.25 L1246.25,1001.25 L1243.75,1001.25 Z " fill="#000000"/><text fill="#000000" font-family="sans-serif" font-size="15" font-style="italic" lengthAdjust="spacing" textLength="175" x="1260" y="1011.1377">TicketRepositoryInterface</text><line style="stroke:#A80036;stroke-width:1.875;" x1="1225" x2="1437.5" y1="1025" y2="1025"/><line style="stroke:#A80036;stroke-width:1.875;" x1="1225" x2="1437.5" y1="1035" y2="1035"/><!--MD5=[42468204f4d2597fbf20c9587ed04068]
link ConsultAssignedPendingTasksUI to ConsultAssignedPendingTasksController--><path codeLine="120" d="M216.25,147.8875 C216.25,179.9 216.25,229.075 216.25,271.5375 " fill="none" id="ConsultAssignedPendingTasksUI-to-ConsultAssignedPendingTasksController" style="stroke:#A80036;stroke-width:1.25;stroke-dasharray:7.0,7.0;"/><polygon fill="#A80036" points="216.25,278.2875,221.25,267.0375,216.25,272.0375,211.25,267.0375,216.25,278.2875" style="stroke:#A80036;stroke-width:1.25;"/><!--MD5=[4b3b704fd3dc4ac0d765b82f010b880c]
link ConsultAssignedPendingTasksController to PersistenceContext--><path codeLine="121" d="M216.25,435.4625 C216.25,515.325 216.25,637.5125 216.25,705.1125 " fill="none" id="ConsultAssignedPendingTasksController-to-PersistenceContext" style="stroke:#A80036;stroke-width:1.25;stroke-dasharray:7.0,7.0;"/><polygon fill="#A80036" points="216.25,711.475,221.25,700.225,216.25,705.225,211.25,700.225,216.25,711.475" style="stroke:#A80036;stroke-width:1.25;"/><!--MD5=[4f6e8106ead5ec04d25ee13ebd908ed4]
link TicketRepository to TicketRepositoryInterface--><path codeLine="123" d="M1331.25,868.8 C1331.25,908.1 1331.25,949.5 1331.25,977.95 " fill="none" id="TicketRepository-to-TicketRepositoryInterface" style="stroke:#A80036;stroke-width:1.25;stroke-dasharray:7.0,7.0;"/><polygon fill="#A80036" points="1331.25,984.525,1336.25,973.275,1331.25,978.275,1326.25,973.275,1331.25,984.525" style="stroke:#A80036;stroke-width:1.25;"/><!--MD5=[6ae80cee9da4d88bb64be8d0688f8e42]
link TaskRepository to ManualTask--><path codeLine="125" d="M723.65,725.525 C744.075,675.3875 792.75,576.3375 871.25,536.25 C1035.8875,452.1625 2367.2375,458.6125 2535,536.25 C2602.375,567.425 2654.275,636.3125 2685.975,688.6375 " fill="none" id="TaskRepository-to-ManualTask" style="stroke:#A80036;stroke-width:1.25;"/><polygon fill="#A80036" points="2689.3625,694.2875,2687.8619,682.0682,2686.1469,688.9282,2679.287,687.2132,2689.3625,694.2875" style="stroke:#A80036;stroke-width:1.25;"/><text fill="#000000" font-family="sans-serif" font-size="16.25" lengthAdjust="spacing" textLength="41.25" x="786.875" y="493.1189">saves</text><text fill="#000000" font-family="sans-serif" font-size="16.25" lengthAdjust="spacing" textLength="8.75" x="716.6361" y="712.1746">1</text><text fill="#000000" font-family="sans-serif" font-size="16.25" lengthAdjust="spacing" textLength="6.25" x="2677.97" y="680.7389">*</text><!--MD5=[6ae80cee9da4d88bb64be8d0688f8e42]
link TaskRepository to ManualTask--><path codeLine="132" d="M723.65,725.525 C744.075,675.3875 792.75,576.3375 871.25,536.25 C1035.8875,452.1625 2367.2375,458.6125 2535,536.25 C2602.375,567.425 2654.275,636.3125 2685.975,688.6375 " fill="none" id="TaskRepository-to-ManualTask-1" style="stroke:#A80036;stroke-width:1.25;"/><polygon fill="#A80036" points="2689.3625,694.2875,2687.8619,682.0682,2686.1469,688.9282,2679.287,687.2132,2689.3625,694.2875" style="stroke:#A80036;stroke-width:1.25;"/><text fill="#000000" font-family="sans-serif" font-size="16.25" lengthAdjust="spacing" textLength="41.25" x="786.875" y="493.1189">saves</text><text fill="#000000" font-family="sans-serif" font-size="16.25" lengthAdjust="spacing" textLength="8.75" x="727.6283" y="712.1746">1</text><text fill="#000000" font-family="sans-serif" font-size="16.25" lengthAdjust="spacing" textLength="6.25" x="2685.138" y="680.7389">*</text><!--MD5=[d66efb439816738ddd3e9d5fff4bf3a7]
link AppSettings to RepositoryFactory--><path codeLine="127" d="M522.225,702.9 C533.775,650.4375 560.0125,572.65 617.5,536.25 C718.4125,472.35 787.5375,469 886.25,536.25 C930.425,566.35 951.975,622.8625 962.4875,670.975 " fill="none" id="AppSettings-to-RepositoryFactory" style="stroke:#A80036;stroke-width:1.25;"/><polygon fill="#A80036" points="963.8375,677.4125,966.4197,665.3753,962.5535,671.2958,956.633,667.4296,963.8375,677.4125" style="stroke:#A80036;stroke-width:1.25;"/><text fill="#000000" font-family="sans-serif" font-size="16.25" lengthAdjust="spacing" textLength="53.75" x="836.875" y="493.1189">creates</text><!--MD5=[27fe1c91fe18bafc5695938053528609]
link PersistenceContext to AppSettings--><path codeLine="128" d="M303.5,755.625 C341.9125,755.625 386.9625,755.625 425.4875,755.625 " fill="none" id="PersistenceContext-to-AppSettings" style="stroke:#A80036;stroke-width:1.25;"/><polygon fill="#A80036" points="432.1125,755.625,420.8625,750.625,425.8625,755.625,420.8625,760.625,432.1125,755.625" style="stroke:#A80036;stroke-width:1.25;"/><text fill="#000000" font-family="sans-serif" font-size="16.25" lengthAdjust="spacing" textLength="83.75" x="325.9375" y="747.4939">implements</text><!--MD5=[8982f41bad9004a09ffb6c14ad72077a]
link RepositoryFactory to TaskRepository--><path codeLine="130" d="M891.2,755.625 C859.875,755.625 824.15,755.625 792.9,755.625 " fill="none" id="RepositoryFactory-to-TaskRepository" style="stroke:#A80036;stroke-width:1.25;"/><polygon fill="#A80036" points="786.3125,755.625,797.5625,760.625,792.5625,755.625,797.5625,750.625,786.3125,755.625" style="stroke:#A80036;stroke-width:1.25;"/><text fill="#000000" font-family="sans-serif" font-size="16.25" lengthAdjust="spacing" textLength="26.25" x="825.625" y="747.4939">has</text><text fill="#000000" font-family="sans-serif" font-size="16.25" lengthAdjust="spacing" textLength="8.75" x="872.5438" y="751.3365">1</text><text fill="#000000" font-family="sans-serif" font-size="16.25" lengthAdjust="spacing" textLength="8.75" x="796.3303" y="751.2408">1</text><!--MD5=[88d27d11f2412006bad5b60b4e576218]
link ManualTask to Task--><path codeLine="134" d="M2760.3875,694.05 C2798.1125,640.9875 2860.5375,568.0625 2936.25,536.25 C3055.075,486.325 3113.1,474.525 3226.25,536.25 C3269.45,559.8125 3301.4125,602.875 3323.9125,644.65 " fill="none" id="ManualTask-to-Task" style="stroke:#A80036;stroke-width:1.25;"/><polygon fill="#A80036" points="3326.875,650.2625,3326.0174,637.9813,3323.945,644.7419,3317.1844,642.6694,3326.875,650.2625" style="stroke:#A80036;stroke-width:1.25;"/><text fill="#000000" font-family="sans-serif" font-size="16.25" lengthAdjust="spacing" textLength="57.5" x="3037.5" y="493.1189">extends</text><!--MD5=[392f7804293287fa5662caa616132930]
link Task to Collaborator--><path codeLine="136" d="M3486.5625,755.625 C3506.9375,755.625 3529.0375,755.625 3552.1,755.625 " fill="none" id="Task-to-Collaborator" style="stroke:#A80036;stroke-width:1.25;"/><polygon fill="#A80036" points="3558.625,755.625,3547.375,750.625,3552.375,755.625,3547.375,760.625,3558.625,755.625" style="stroke:#A80036;stroke-width:1.25;"/><text fill="#000000" font-family="sans-serif" font-size="16.25" lengthAdjust="spacing" textLength="26.25" x="3509.375" y="747.4939">has</text><!--MD5=[9fb0c34e6207e9ffb529ff996fe74ca6]
link ManualTask to Form--><path codeLine="138" d="M2885.975,755.625 C2907.95,755.625 2930.2375,755.625 2951.5125,755.625 " fill="none" id="ManualTask-to-Form" style="stroke:#A80036;stroke-width:1.25;"/><polygon fill="#A80036" points="2958.075,755.625,2946.825,750.625,2951.825,755.625,2946.825,760.625,2958.075,755.625" style="stroke:#A80036;stroke-width:1.25;"/><text fill="#000000" font-family="sans-serif" font-size="16.25" lengthAdjust="spacing" textLength="26.25" x="2908.75" y="747.4939">has</text><!--MD5=[2babf704b4f75cd1f2609bae2b5218f5]
link Ticket to TaskFilterFields--><!--MD5=[8c8c388404c87c263ff1214cf5dd1fc3]
link Ticket to TaskOrderFields--><!--MD5=[80488669a163d9f83c1244c802c631f2]
@startuml
skinparam classAttributeIconSize 0

package "Presentation" #DDDDDD {
    class ConsultAssignedPendingTasksUI<<presentation>>{
    }
}


package "Application" #DDDDDD {
    class ConsultAssignedPendingTasksController<<application>>{
        + create()
        + getTasksOfCollaborator(collaborator)
        + getTasksOfCollaborator(collaborator, filterBy)
        + getTasksOfCollaborator(collaborator, orderBy)
        + getTasksOfCollaborator(collaborator, filterBy, orderBy)
    }
}


package "Domain" #DDDDDD {

    abstract class Task<<Entity>><<Root>>{
        - taskDescription
        - taskStatus
        - taskPriority
        - taskResult
        - collaborator
        +create(taskDescription, taskPriority)
        +assignCollaborator(collaborator)
    }

    class ManualTask<<Entity>>{
        - form
        - limitDate
        +create(taskDescription, taskPriority, limitDate, form)
    }

    class Ticket<<Entity>>{
        - id
        - urgency
        - limitDate
        - creationDate
        - status
        - collaborator
        - service
        - fluxExecution
        - files
        - response
        +create(oUrgency, oLimitDate, oCreationDate, LilstResponse, oFluxExecution, lstFiles, oService, oCollaborator)
    }

    class Collaborator<<Entity>><<Root>>{
        - mecanographicNumber
        - systemUser
        - manager
        - phoneNumber
        - birthDate
        - address
        - completeName
        - shortName
        - teams
        + create(systemUser, manager, phoneNumber, birthDate, address, completeName, shortName, mecanographicNumber)
        + addTeam(team)
        + removeTeam(team)
    }

    class Form<<Entity>><<Root>> {
        - name
        - formType
        - attributeList
        + create(name, formType, attributeList)
    }

    enum TaskFilterFields<<enum>> {
    }

    enum TaskOrderFields<<enum>> {
    }
}

package Persistence #DDDDDD {
    class PersistenceContext<<persistence>>{
        +repositories()
    }

    class AppSettings<<persistence>>{
        +instance()
        +getRepositoryFactory()
    }

    package Factory #DDDDDD {
        class RepositoryFactory<<factory>>{
            +create()
            +collaborators()
            +tasks()
            +teams()
            +forms()
    }
}

package "Repository" #DDDDDD {
    class TicketRepository<<repository>>{
        +create()
        +findAll()
        +getTicketHistory(final SystemUser oUser);
        +getOnGoingTickets(oUser);
        +getPendingManualTasksByTicket(oUsername);
        +getPendingManualTasksByTicketOrdered(oUsername,orderField);
        +getTicketFromFlux(afe);
        +getTicketByTaskExec(lngId);
        +save(Task)
    }

    interface TicketRepositoryInterface{

    }
}


ConsultAssignedPendingTasksUI ..> ConsultAssignedPendingTasksController
ConsultAssignedPendingTasksController ..> PersistenceContext

TicketRepository ..> TicketRepositoryInterface

TaskRepository "1" -> "*" ManualTask : saves

AppSettings -> RepositoryFactory : creates
PersistenceContext -> AppSettings : implements

RepositoryFactory "1" -> "1" TaskRepository : has

TaskRepository "1" -> "*" ManualTask : saves

ManualTask -> Task : extends

Task -> Collaborator : has

ManualTask -> Form : has

@enduml

PlantUML version 1.2021.7(Sun May 23 13:40:07 BST 2021)
(GPL source distribution)
Java Runtime: OpenJDK Runtime Environment
JVM: Dynamic Code Evolution 64-Bit Server VM
Default Encoding: Cp1252
Language: pt
Country: PT
--></g></svg>