<?xml version="1.0" encoding="UTF-8" standalone="no"?><svg xmlns="http://www.w3.org/2000/svg" xmlns:xlink="http://www.w3.org/1999/xlink" contentScriptType="application/ecmascript" contentStyleType="text/css" height="850px" preserveAspectRatio="none" style="width:3500px;height:850px;" version="1.1" viewBox="0 0 3500 850" width="3500px" zoomAndPan="magnify"><defs><filter height="300%" id="f33j7n8ucj8tl" width="300%" x="-1" y="-1"><feGaussianBlur result="blurOut" stdDeviation="2.0"/><feColorMatrix in="blurOut" result="blurOut2" type="matrix" values="0 0 0 0 0 0 0 0 0 0 0 0 0 0 0 0 0 0 .4 0"/><feOffset dx="4.0" dy="4.0" in="blurOut2" result="blurOut3"/><feBlend in="SourceGraphic" in2="blurOut3" mode="normal"/></filter></defs><g><!--MD5=[8fd473fd151a2794da4f2c8684676405]
cluster Presentation--><polygon fill="#DDDDDD" filter="url(#f33j7n8ucj8tl)" points="1011,6,1107,6,1114,29.6094,1153,29.6094,1153,134,1011,134,1011,6" style="stroke:#000000;stroke-width:1.5;"/><line style="stroke:#000000;stroke-width:1.5;" x1="1011" x2="1114" y1="29.6094" y2="29.6094"/><text fill="#000000" font-family="sans-serif" font-size="14" font-weight="bold" lengthAdjust="spacing" textLength="90" x="1015" y="22.5332">Presentation</text><!--MD5=[d64883541e3d62e3241c4d12decf100d]
cluster Application--><polygon fill="#DDDDDD" filter="url(#f33j7n8ucj8tl)" points="992,167,1076,167,1083,190.6094,1172,190.6094,1172,351,992,351,992,167" style="stroke:#000000;stroke-width:1.5;"/><line style="stroke:#000000;stroke-width:1.5;" x1="992" x2="1083" y1="190.6094" y2="190.6094"/><text fill="#000000" font-family="sans-serif" font-size="14" font-weight="bold" lengthAdjust="spacing" textLength="78" x="996" y="183.5332">Application</text><!--MD5=[121a8bf1197281ab89ed693fab589f94]
cluster Domain--><polygon fill="#DDDDDD" filter="url(#f33j7n8ucj8tl)" points="1339,401,1397,401,1404,424.6094,3483,424.6094,3483,708,1339,708,1339,401" style="stroke:#000000;stroke-width:1.5;"/><line style="stroke:#000000;stroke-width:1.5;" x1="1339" x2="1404" y1="424.6094" y2="424.6094"/><text fill="#000000" font-family="sans-serif" font-size="14" font-weight="bold" lengthAdjust="spacing" textLength="52" x="1343" y="417.5332">Domain</text><!--MD5=[44cc74aea8168fb4471e814fff38ed12]
cluster Builder--><polygon fill="#DDDDDD" filter="url(#f33j7n8ucj8tl)" points="3185,445,3242,445,3249,468.6094,3459,468.6094,3459,684,3185,684,3185,445" style="stroke:#000000;stroke-width:1.5;"/><line style="stroke:#000000;stroke-width:1.5;" x1="3185" x2="3249" y1="468.6094" y2="468.6094"/><text fill="#000000" font-family="sans-serif" font-size="14" font-weight="bold" lengthAdjust="spacing" textLength="51" x="3189" y="461.5332">Builder</text><!--MD5=[bc6b40dadbf86ab6a0c8405a467a48af]
cluster Persistence--><polygon fill="#DDDDDD" filter="url(#f33j7n8ucj8tl)" points="16,428.5,106,428.5,113,452.1094,1315,452.1094,1315,843,16,843,16,428.5" style="stroke:#000000;stroke-width:1.5;"/><line style="stroke:#000000;stroke-width:1.5;" x1="16" x2="113" y1="452.1094" y2="452.1094"/><text fill="#000000" font-family="sans-serif" font-size="14" font-weight="bold" lengthAdjust="spacing" textLength="84" x="20" y="445.0332">Persistence</text><!--MD5=[0d5799440b3bfefd92b00abfcd2c79b9]
cluster Factory--><polygon fill="#DDDDDD" filter="url(#f33j7n8ucj8tl)" points="1129,472.5,1187,472.5,1194,496.1094,1291,496.1094,1291,656.5,1129,656.5,1129,472.5" style="stroke:#000000;stroke-width:1.5;"/><line style="stroke:#000000;stroke-width:1.5;" x1="1129" x2="1194" y1="496.1094" y2="496.1094"/><text fill="#000000" font-family="sans-serif" font-size="14" font-weight="bold" lengthAdjust="spacing" textLength="52" x="1133" y="489.0332">Factory</text><!--MD5=[71971f99a41bb66cf321ce46bb59f738]
cluster Repository--><polygon fill="#DDDDDD" filter="url(#f33j7n8ucj8tl)" points="421,486.5,503,486.5,510,510.1094,1105,510.1094,1105,819,421,819,421,486.5" style="stroke:#000000;stroke-width:1.5;"/><line style="stroke:#000000;stroke-width:1.5;" x1="421" x2="510" y1="510.1094" y2="510.1094"/><text fill="#000000" font-family="sans-serif" font-size="14" font-weight="bold" lengthAdjust="spacing" textLength="76" x="425" y="503.0332">Repository</text><!--MD5=[0b2443ac7bf5e4044963f4a0e48cb688]
class SaveDraftUI--><rect codeLine="4" fill="#FEFECE" filter="url(#f33j7n8ucj8tl)" height="56.1875" id="SaveDraftUI" style="stroke:#A80036;stroke-width:1.5;" width="110" x="1027" y="62"/><ellipse cx="1042" cy="82.0938" fill="#ADD1B2" rx="11" ry="11" style="stroke:#A80036;stroke-width:1.0;"/><path d="M1044,78.5938 Q1044.2031,78.0938 1044.4375,77.8438 Q1044.6719,77.5938 1044.9375,77.5938 Q1045.4063,77.5938 1045.7031,77.875 Q1046,78.1563 1046,78.8125 L1046,80.375 Q1046,81.0313 1045.7188,81.3125 Q1045.4375,81.5938 1045,81.5938 Q1044.6094,81.5938 1044.3594,81.4219 Q1044.1094,81.25 1044,80.7969 Q1043.9531,80.4844 1043.7813,80.3125 Q1043.4688,79.9844 1042.9063,79.7969 Q1042.3438,79.5938 1041.7813,79.5938 Q1041.0781,79.5938 1040.4844,79.875 Q1039.9063,80.1563 1039.4531,80.7813 Q1039,81.4063 1039,82.2656 L1039,83.1875 Q1039,84.2188 1039.8438,84.9063 Q1040.6875,85.5938 1042.1875,85.5938 Q1043.0781,85.5938 1043.7031,85.3906 Q1044.0625,85.2813 1044.4688,84.9219 Q1044.7344,84.7188 1044.875,84.6563 Q1045.0156,84.5938 1045.1875,84.5938 Q1045.5156,84.5938 1045.75,84.8594 Q1046,85.1094 1046,85.4688 Q1046,85.8125 1045.6563,86.2188 Q1045.1563,86.8125 1044.3594,87.1406 Q1043.3125,87.5938 1042.0313,87.5938 Q1040.5313,87.5938 1039.3281,87 Q1038.3594,86.5313 1037.6719,85.5156 Q1037,84.5 1037,83.2969 L1037,82.2031 Q1037,80.9531 1037.5938,79.8594 Q1038.2031,78.7656 1039.25,78.1875 Q1040.3125,77.5938 1041.5,77.5938 Q1042.2188,77.5938 1042.8438,77.8438 Q1043.4688,78.0938 1044,78.5938 Z " fill="#000000"/><text fill="#000000" font-family="sans-serif" font-size="12" font-style="italic" lengthAdjust="spacing" textLength="82" x="1054" y="79.457">«presentation»</text><text fill="#000000" font-family="sans-serif" font-size="12" lengthAdjust="spacing" textLength="65" x="1062.5" y="94.5508">SaveDraftUI</text><line style="stroke:#A80036;stroke-width:1.5;" x1="1028" x2="1136" y1="102.1875" y2="102.1875"/><line style="stroke:#A80036;stroke-width:1.5;" x1="1028" x2="1136" y1="110.1875" y2="110.1875"/><!--MD5=[fb11d1a57d51a66333c544594141571a]
class SaveDraftController--><rect codeLine="11" fill="#FEFECE" filter="url(#f33j7n8ucj8tl)" height="111.5313" id="SaveDraftController" style="stroke:#A80036;stroke-width:1.5;" width="147" x="1008.5" y="223"/><ellipse cx="1027.1" cy="243.0938" fill="#ADD1B2" rx="11" ry="11" style="stroke:#A80036;stroke-width:1.0;"/><path d="M1029.1,239.5938 Q1029.3031,239.0938 1029.5375,238.8438 Q1029.7719,238.5938 1030.0375,238.5938 Q1030.5063,238.5938 1030.8031,238.875 Q1031.1,239.1563 1031.1,239.8125 L1031.1,241.375 Q1031.1,242.0313 1030.8188,242.3125 Q1030.5375,242.5938 1030.1,242.5938 Q1029.7094,242.5938 1029.4594,242.4219 Q1029.2094,242.25 1029.1,241.7969 Q1029.0531,241.4844 1028.8813,241.3125 Q1028.5688,240.9844 1028.0063,240.7969 Q1027.4438,240.5938 1026.8813,240.5938 Q1026.1781,240.5938 1025.5844,240.875 Q1025.0063,241.1563 1024.5531,241.7813 Q1024.1,242.4063 1024.1,243.2656 L1024.1,244.1875 Q1024.1,245.2188 1024.9438,245.9063 Q1025.7875,246.5938 1027.2875,246.5938 Q1028.1781,246.5938 1028.8031,246.3906 Q1029.1625,246.2813 1029.5688,245.9219 Q1029.8344,245.7188 1029.975,245.6563 Q1030.1156,245.5938 1030.2875,245.5938 Q1030.6156,245.5938 1030.85,245.8594 Q1031.1,246.1094 1031.1,246.4688 Q1031.1,246.8125 1030.7563,247.2188 Q1030.2563,247.8125 1029.4594,248.1406 Q1028.4125,248.5938 1027.1313,248.5938 Q1025.6313,248.5938 1024.4281,248 Q1023.4594,247.5313 1022.7719,246.5156 Q1022.1,245.5 1022.1,244.2969 L1022.1,243.2031 Q1022.1,241.9531 1022.6937,240.8594 Q1023.3031,239.7656 1024.35,239.1875 Q1025.4125,238.5938 1026.6,238.5938 Q1027.3188,238.5938 1027.9438,238.8438 Q1028.5688,239.0938 1029.1,239.5938 Z " fill="#000000"/><text fill="#000000" font-family="sans-serif" font-size="12" font-style="italic" lengthAdjust="spacing" textLength="74" x="1058.4" y="240.457">«application»</text><text fill="#000000" font-family="sans-serif" font-size="12" lengthAdjust="spacing" textLength="107" x="1041.9" y="255.5508">SaveDraftController</text><line style="stroke:#A80036;stroke-width:1.5;" x1="1009.5" x2="1154.5" y1="263.1875" y2="263.1875"/><line style="stroke:#A80036;stroke-width:1.5;" x1="1009.5" x2="1154.5" y1="271.1875" y2="271.1875"/><text fill="#000000" font-family="sans-serif" font-size="11" lengthAdjust="spacing" textLength="45" x="1014.5" y="286.6064">+create()</text><text fill="#000000" font-family="sans-serif" font-size="11" lengthAdjust="spacing" textLength="59" x="1014.5" y="300.4424">+getDrafts()</text><text fill="#000000" font-family="sans-serif" font-size="11" lengthAdjust="spacing" textLength="83" x="1014.5" y="314.2783">+getCatalogues()</text><text fill="#000000" font-family="sans-serif" font-size="11" lengthAdjust="spacing" textLength="135" x="1014.5" y="328.1143">+saveService(serviceDraft)</text><!--MD5=[dbb8b4f13c7b21394f9d757e58732f45]
class Service--><rect codeLine="21" fill="#FEFECE" filter="url(#f33j7n8ucj8tl)" height="98.9531" id="Service" style="stroke:#A80036;stroke-width:1.5;" width="260" x="1530" y="535"/><ellipse cx="1635.75" cy="562.6406" fill="#ADD1B2" rx="11" ry="11" style="stroke:#A80036;stroke-width:1.0;"/><path d="M1637.75,559.1406 Q1637.9531,558.6406 1638.1875,558.3906 Q1638.4219,558.1406 1638.6875,558.1406 Q1639.1563,558.1406 1639.4531,558.4219 Q1639.75,558.7031 1639.75,559.3594 L1639.75,560.9219 Q1639.75,561.5781 1639.4688,561.8594 Q1639.1875,562.1406 1638.75,562.1406 Q1638.3594,562.1406 1638.1094,561.9688 Q1637.8594,561.7969 1637.75,561.3438 Q1637.7031,561.0313 1637.5313,560.8594 Q1637.2188,560.5313 1636.6563,560.3438 Q1636.0938,560.1406 1635.5313,560.1406 Q1634.8281,560.1406 1634.2344,560.4219 Q1633.6563,560.7031 1633.2031,561.3281 Q1632.75,561.9531 1632.75,562.8125 L1632.75,563.7344 Q1632.75,564.7656 1633.5938,565.4531 Q1634.4375,566.1406 1635.9375,566.1406 Q1636.8281,566.1406 1637.4531,565.9375 Q1637.8125,565.8281 1638.2188,565.4688 Q1638.4844,565.2656 1638.625,565.2031 Q1638.7656,565.1406 1638.9375,565.1406 Q1639.2656,565.1406 1639.5,565.4063 Q1639.75,565.6563 1639.75,566.0156 Q1639.75,566.3594 1639.4063,566.7656 Q1638.9063,567.3594 1638.1094,567.6875 Q1637.0625,568.1406 1635.7813,568.1406 Q1634.2813,568.1406 1633.0781,567.5469 Q1632.1094,567.0781 1631.4219,566.0625 Q1630.75,565.0469 1630.75,563.8438 L1630.75,562.75 Q1630.75,561.5 1631.3438,560.4063 Q1631.9531,559.3125 1633,558.7344 Q1634.0625,558.1406 1635.25,558.1406 Q1635.9688,558.1406 1636.5938,558.3906 Q1637.2188,558.6406 1637.75,559.1406 Z " fill="#000000"/><text fill="#000000" font-family="sans-serif" font-size="12" font-style="italic" lengthAdjust="spacing" textLength="44" x="1654.25" y="552.457">«Entity»</text><text fill="#000000" font-family="sans-serif" font-size="12" font-style="italic" lengthAdjust="spacing" textLength="40" x="1656.25" y="567.5508">«Root»</text><text fill="#000000" font-family="sans-serif" font-size="12" lengthAdjust="spacing" textLength="40" x="1656.25" y="582.6445">Service</text><line style="stroke:#A80036;stroke-width:1.5;" x1="1531" x2="1789" y1="590.2813" y2="590.2813"/><line style="stroke:#A80036;stroke-width:1.5;" x1="1531" x2="1789" y1="598.2813" y2="598.2813"/><text fill="#000000" font-family="sans-serif" font-size="11" lengthAdjust="spacing" textLength="245" x="1536" y="613.7002">+create(title, briefDescription, completeDescription,</text><text fill="#000000" font-family="sans-serif" font-size="11" lengthAdjust="spacing" textLength="160" x="1536" y="627.5361">feedback, keywordList, formList)</text><!--MD5=[925d5031f5a4e53e61ccd699b6d8c35b]
class ServiceDraft--><rect codeLine="25" fill="#FEFECE" filter="url(#f33j7n8ucj8tl)" height="154.2969" id="ServiceDraft" style="stroke:#A80036;stroke-width:1.5;" width="139" x="1355.5" y="507.5"/><ellipse cx="1388.95" cy="535.1406" fill="#ADD1B2" rx="11" ry="11" style="stroke:#A80036;stroke-width:1.0;"/><path d="M1390.95,531.6406 Q1391.1531,531.1406 1391.3875,530.8906 Q1391.6219,530.6406 1391.8875,530.6406 Q1392.3563,530.6406 1392.6531,530.9219 Q1392.95,531.2031 1392.95,531.8594 L1392.95,533.4219 Q1392.95,534.0781 1392.6688,534.3594 Q1392.3875,534.6406 1391.95,534.6406 Q1391.5594,534.6406 1391.3094,534.4688 Q1391.0594,534.2969 1390.95,533.8438 Q1390.9031,533.5313 1390.7313,533.3594 Q1390.4188,533.0313 1389.8563,532.8438 Q1389.2938,532.6406 1388.7313,532.6406 Q1388.0281,532.6406 1387.4344,532.9219 Q1386.8563,533.2031 1386.4031,533.8281 Q1385.95,534.4531 1385.95,535.3125 L1385.95,536.2344 Q1385.95,537.2656 1386.7938,537.9531 Q1387.6375,538.6406 1389.1375,538.6406 Q1390.0281,538.6406 1390.6531,538.4375 Q1391.0125,538.3281 1391.4188,537.9688 Q1391.6844,537.7656 1391.825,537.7031 Q1391.9656,537.6406 1392.1375,537.6406 Q1392.4656,537.6406 1392.7,537.9063 Q1392.95,538.1563 1392.95,538.5156 Q1392.95,538.8594 1392.6063,539.2656 Q1392.1063,539.8594 1391.3094,540.1875 Q1390.2625,540.6406 1388.9813,540.6406 Q1387.4813,540.6406 1386.2781,540.0469 Q1385.3094,539.5781 1384.6219,538.5625 Q1383.95,537.5469 1383.95,536.3438 L1383.95,535.25 Q1383.95,534 1384.5438,532.9063 Q1385.1531,531.8125 1386.2,531.2344 Q1387.2625,530.6406 1388.45,530.6406 Q1389.1688,530.6406 1389.7938,530.8906 Q1390.4188,531.1406 1390.95,531.6406 Z " fill="#000000"/><text fill="#000000" font-family="sans-serif" font-size="12" font-style="italic" lengthAdjust="spacing" textLength="44" x="1418.05" y="524.957">«Entity»</text><text fill="#000000" font-family="sans-serif" font-size="12" font-style="italic" lengthAdjust="spacing" textLength="40" x="1420.05" y="540.0508">«Root»</text><text fill="#000000" font-family="sans-serif" font-size="12" lengthAdjust="spacing" textLength="66" x="1407.05" y="555.1445">ServiceDraft</text><line style="stroke:#A80036;stroke-width:1.5;" x1="1356.5" x2="1493.5" y1="562.7813" y2="562.7813"/><line style="stroke:#A80036;stroke-width:1.5;" x1="1356.5" x2="1493.5" y1="570.7813" y2="570.7813"/><text fill="#000000" font-family="sans-serif" font-size="11" lengthAdjust="spacing" textLength="48" x="1361.5" y="586.2002">+getTitle()</text><text fill="#000000" font-family="sans-serif" font-size="11" lengthAdjust="spacing" textLength="106" x="1361.5" y="600.0361">+getBriefDescription()</text><text fill="#000000" font-family="sans-serif" font-size="11" lengthAdjust="spacing" textLength="127" x="1361.5" y="613.8721">+getCompleteDescription()</text><text fill="#000000" font-family="sans-serif" font-size="11" lengthAdjust="spacing" textLength="76" x="1361.5" y="627.708">+getFeedback()</text><text fill="#000000" font-family="sans-serif" font-size="11" lengthAdjust="spacing" textLength="91" x="1361.5" y="641.5439">+getKeywordList()</text><text fill="#000000" font-family="sans-serif" font-size="11" lengthAdjust="spacing" textLength="70" x="1361.5" y="655.3799">+getFormList()</text><!--MD5=[6f29f313cd4199edbf91b9ce3a4faa98]
class Form--><rect codeLine="34" fill="#FEFECE" filter="url(#f33j7n8ucj8tl)" height="71.2813" id="Form" style="stroke:#A80036;stroke-width:1.5;" width="72" x="1848" y="549"/><ellipse cx="1863" cy="576.6406" fill="#ADD1B2" rx="11" ry="11" style="stroke:#A80036;stroke-width:1.0;"/><path d="M1865,573.1406 Q1865.2031,572.6406 1865.4375,572.3906 Q1865.6719,572.1406 1865.9375,572.1406 Q1866.4063,572.1406 1866.7031,572.4219 Q1867,572.7031 1867,573.3594 L1867,574.9219 Q1867,575.5781 1866.7188,575.8594 Q1866.4375,576.1406 1866,576.1406 Q1865.6094,576.1406 1865.3594,575.9688 Q1865.1094,575.7969 1865,575.3438 Q1864.9531,575.0313 1864.7813,574.8594 Q1864.4688,574.5313 1863.9063,574.3438 Q1863.3438,574.1406 1862.7813,574.1406 Q1862.0781,574.1406 1861.4844,574.4219 Q1860.9063,574.7031 1860.4531,575.3281 Q1860,575.9531 1860,576.8125 L1860,577.7344 Q1860,578.7656 1860.8438,579.4531 Q1861.6875,580.1406 1863.1875,580.1406 Q1864.0781,580.1406 1864.7031,579.9375 Q1865.0625,579.8281 1865.4688,579.4688 Q1865.7344,579.2656 1865.875,579.2031 Q1866.0156,579.1406 1866.1875,579.1406 Q1866.5156,579.1406 1866.75,579.4063 Q1867,579.6563 1867,580.0156 Q1867,580.3594 1866.6563,580.7656 Q1866.1563,581.3594 1865.3594,581.6875 Q1864.3125,582.1406 1863.0313,582.1406 Q1861.5313,582.1406 1860.3281,581.5469 Q1859.3594,581.0781 1858.6719,580.0625 Q1858,579.0469 1858,577.8438 L1858,576.75 Q1858,575.5 1858.5938,574.4063 Q1859.2031,573.3125 1860.25,572.7344 Q1861.3125,572.1406 1862.5,572.1406 Q1863.2188,572.1406 1863.8438,572.3906 Q1864.4688,572.6406 1865,573.1406 Z " fill="#000000"/><text fill="#000000" font-family="sans-serif" font-size="12" font-style="italic" lengthAdjust="spacing" textLength="44" x="1875" y="566.457">«Entity»</text><text fill="#000000" font-family="sans-serif" font-size="12" font-style="italic" lengthAdjust="spacing" textLength="40" x="1877" y="581.5508">«Root»</text><text fill="#000000" font-family="sans-serif" font-size="12" lengthAdjust="spacing" textLength="29" x="1882.5" y="596.6445">Form</text><line style="stroke:#A80036;stroke-width:1.5;" x1="1849" x2="1919" y1="604.2813" y2="604.2813"/><line style="stroke:#A80036;stroke-width:1.5;" x1="1849" x2="1919" y1="612.2813" y2="612.2813"/><!--MD5=[a77781830b4eef1927aef37ad01ad2c2]
class Catalogue--><rect codeLine="37" fill="#FEFECE" filter="url(#f33j7n8ucj8tl)" height="71.2813" id="Catalogue" style="stroke:#A80036;stroke-width:1.5;" width="89" x="3076.5" y="549"/><ellipse cx="3091.5" cy="576.6406" fill="#ADD1B2" rx="11" ry="11" style="stroke:#A80036;stroke-width:1.0;"/><path d="M3093.5,573.1406 Q3093.7031,572.6406 3093.9375,572.3906 Q3094.1719,572.1406 3094.4375,572.1406 Q3094.9063,572.1406 3095.2031,572.4219 Q3095.5,572.7031 3095.5,573.3594 L3095.5,574.9219 Q3095.5,575.5781 3095.2188,575.8594 Q3094.9375,576.1406 3094.5,576.1406 Q3094.1094,576.1406 3093.8594,575.9688 Q3093.6094,575.7969 3093.5,575.3438 Q3093.4531,575.0313 3093.2813,574.8594 Q3092.9688,574.5313 3092.4063,574.3438 Q3091.8438,574.1406 3091.2813,574.1406 Q3090.5781,574.1406 3089.9844,574.4219 Q3089.4063,574.7031 3088.9531,575.3281 Q3088.5,575.9531 3088.5,576.8125 L3088.5,577.7344 Q3088.5,578.7656 3089.3438,579.4531 Q3090.1875,580.1406 3091.6875,580.1406 Q3092.5781,580.1406 3093.2031,579.9375 Q3093.5625,579.8281 3093.9688,579.4688 Q3094.2344,579.2656 3094.375,579.2031 Q3094.5156,579.1406 3094.6875,579.1406 Q3095.0156,579.1406 3095.25,579.4063 Q3095.5,579.6563 3095.5,580.0156 Q3095.5,580.3594 3095.1563,580.7656 Q3094.6563,581.3594 3093.8594,581.6875 Q3092.8125,582.1406 3091.5313,582.1406 Q3090.0313,582.1406 3088.8281,581.5469 Q3087.8594,581.0781 3087.1719,580.0625 Q3086.5,579.0469 3086.5,577.8438 L3086.5,576.75 Q3086.5,575.5 3087.0938,574.4063 Q3087.7031,573.3125 3088.75,572.7344 Q3089.8125,572.1406 3091,572.1406 Q3091.7188,572.1406 3092.3438,572.3906 Q3092.9688,572.6406 3093.5,573.1406 Z " fill="#000000"/><text fill="#000000" font-family="sans-serif" font-size="12" font-style="italic" lengthAdjust="spacing" textLength="44" x="3112" y="566.457">«Entity»</text><text fill="#000000" font-family="sans-serif" font-size="12" font-style="italic" lengthAdjust="spacing" textLength="40" x="3114" y="581.5508">«Root»</text><text fill="#000000" font-family="sans-serif" font-size="12" lengthAdjust="spacing" textLength="57" x="3105.5" y="596.6445">Catalogue</text><line style="stroke:#A80036;stroke-width:1.5;" x1="3077.5" x2="3164.5" y1="604.2813" y2="604.2813"/><line style="stroke:#A80036;stroke-width:1.5;" x1="3077.5" x2="3164.5" y1="612.2813" y2="612.2813"/><!--MD5=[90111e5cdc788a7ef73a3273c23dcc2b]
class Title--><rect codeLine="40" fill="#FEFECE" filter="url(#f33j7n8ucj8tl)" height="83.8594" id="Title" style="stroke:#A80036;stroke-width:1.5;" width="113" x="2928.5" y="542.5"/><ellipse cx="2943.5" cy="562.5938" fill="#ADD1B2" rx="11" ry="11" style="stroke:#A80036;stroke-width:1.0;"/><path d="M2945.5,559.0938 Q2945.7031,558.5938 2945.9375,558.3438 Q2946.1719,558.0938 2946.4375,558.0938 Q2946.9063,558.0938 2947.2031,558.375 Q2947.5,558.6563 2947.5,559.3125 L2947.5,560.875 Q2947.5,561.5313 2947.2188,561.8125 Q2946.9375,562.0938 2946.5,562.0938 Q2946.1094,562.0938 2945.8594,561.9219 Q2945.6094,561.75 2945.5,561.2969 Q2945.4531,560.9844 2945.2813,560.8125 Q2944.9688,560.4844 2944.4063,560.2969 Q2943.8438,560.0938 2943.2813,560.0938 Q2942.5781,560.0938 2941.9844,560.375 Q2941.4063,560.6563 2940.9531,561.2813 Q2940.5,561.9063 2940.5,562.7656 L2940.5,563.6875 Q2940.5,564.7188 2941.3438,565.4063 Q2942.1875,566.0938 2943.6875,566.0938 Q2944.5781,566.0938 2945.2031,565.8906 Q2945.5625,565.7813 2945.9688,565.4219 Q2946.2344,565.2188 2946.375,565.1563 Q2946.5156,565.0938 2946.6875,565.0938 Q2947.0156,565.0938 2947.25,565.3594 Q2947.5,565.6094 2947.5,565.9688 Q2947.5,566.3125 2947.1563,566.7188 Q2946.6563,567.3125 2945.8594,567.6406 Q2944.8125,568.0938 2943.5313,568.0938 Q2942.0313,568.0938 2940.8281,567.5 Q2939.8594,567.0313 2939.1719,566.0156 Q2938.5,565 2938.5,563.7969 L2938.5,562.7031 Q2938.5,561.4531 2939.0938,560.3594 Q2939.7031,559.2656 2940.75,558.6875 Q2941.8125,558.0938 2943,558.0938 Q2943.7188,558.0938 2944.3438,558.3438 Q2944.9688,558.5938 2945.5,559.0938 Z " fill="#000000"/><text fill="#000000" font-family="sans-serif" font-size="12" font-style="italic" lengthAdjust="spacing" textLength="85" x="2955.5" y="559.957">«Value Object»</text><text fill="#000000" font-family="sans-serif" font-size="12" lengthAdjust="spacing" textLength="23" x="2986.5" y="575.0508">Title</text><line style="stroke:#A80036;stroke-width:1.5;" x1="2929.5" x2="3040.5" y1="582.6875" y2="582.6875"/><line style="stroke:#A80036;stroke-width:1.5;" x1="2929.5" x2="3040.5" y1="590.6875" y2="590.6875"/><text fill="#000000" font-family="sans-serif" font-size="11" lengthAdjust="spacing" textLength="80" x="2934.5" y="606.1064">+createTitle(title)</text><text fill="#000000" font-family="sans-serif" font-size="11" lengthAdjust="spacing" textLength="65" x="2934.5" y="619.9424">-validate(title)</text><!--MD5=[16e34fb2e0281018267f0ef5d0b296ef]
class BriefDescription--><rect codeLine="45" fill="#FEFECE" filter="url(#f33j7n8ucj8tl)" height="83.8594" id="BriefDescription" style="stroke:#A80036;stroke-width:1.5;" width="210" x="2683" y="542.5"/><ellipse cx="2739.75" cy="562.5938" fill="#ADD1B2" rx="11" ry="11" style="stroke:#A80036;stroke-width:1.0;"/><path d="M2741.75,559.0938 Q2741.9531,558.5938 2742.1875,558.3438 Q2742.4219,558.0938 2742.6875,558.0938 Q2743.1563,558.0938 2743.4531,558.375 Q2743.75,558.6563 2743.75,559.3125 L2743.75,560.875 Q2743.75,561.5313 2743.4688,561.8125 Q2743.1875,562.0938 2742.75,562.0938 Q2742.3594,562.0938 2742.1094,561.9219 Q2741.8594,561.75 2741.75,561.2969 Q2741.7031,560.9844 2741.5313,560.8125 Q2741.2188,560.4844 2740.6563,560.2969 Q2740.0938,560.0938 2739.5313,560.0938 Q2738.8281,560.0938 2738.2344,560.375 Q2737.6563,560.6563 2737.2031,561.2813 Q2736.75,561.9063 2736.75,562.7656 L2736.75,563.6875 Q2736.75,564.7188 2737.5938,565.4063 Q2738.4375,566.0938 2739.9375,566.0938 Q2740.8281,566.0938 2741.4531,565.8906 Q2741.8125,565.7813 2742.2188,565.4219 Q2742.4844,565.2188 2742.625,565.1563 Q2742.7656,565.0938 2742.9375,565.0938 Q2743.2656,565.0938 2743.5,565.3594 Q2743.75,565.6094 2743.75,565.9688 Q2743.75,566.3125 2743.4063,566.7188 Q2742.9063,567.3125 2742.1094,567.6406 Q2741.0625,568.0938 2739.7813,568.0938 Q2738.2813,568.0938 2737.0781,567.5 Q2736.1094,567.0313 2735.4219,566.0156 Q2734.75,565 2734.75,563.7969 L2734.75,562.7031 Q2734.75,561.4531 2735.3438,560.3594 Q2735.9531,559.2656 2737,558.6875 Q2738.0625,558.0938 2739.25,558.0938 Q2739.9688,558.0938 2740.5938,558.3438 Q2741.2188,558.5938 2741.75,559.0938 Z " fill="#000000"/><text fill="#000000" font-family="sans-serif" font-size="12" font-style="italic" lengthAdjust="spacing" textLength="85" x="2761.75" y="559.957">«Value Object»</text><text fill="#000000" font-family="sans-serif" font-size="12" lengthAdjust="spacing" textLength="88" x="2760.25" y="575.0508">BriefDescription</text><line style="stroke:#A80036;stroke-width:1.5;" x1="2684" x2="2892" y1="582.6875" y2="582.6875"/><line style="stroke:#A80036;stroke-width:1.5;" x1="2684" x2="2892" y1="590.6875" y2="590.6875"/><text fill="#000000" font-family="sans-serif" font-size="11" lengthAdjust="spacing" textLength="198" x="2689" y="606.1064">+createBriefDescription(briefDescription)</text><text fill="#000000" font-family="sans-serif" font-size="11" lengthAdjust="spacing" textLength="125" x="2689" y="619.9424">-validate(briefDescription)</text><!--MD5=[ed144b2dd6fac69485396b0debfc58a0]
class CompleteDescription--><rect codeLine="50" fill="#FEFECE" filter="url(#f33j7n8ucj8tl)" height="83.8594" id="CompleteDescription" style="stroke:#A80036;stroke-width:1.5;" width="247" x="2400.5" y="542.5"/><ellipse cx="2461.25" cy="562.5938" fill="#ADD1B2" rx="11" ry="11" style="stroke:#A80036;stroke-width:1.0;"/><path d="M2463.25,559.0938 Q2463.4531,558.5938 2463.6875,558.3438 Q2463.9219,558.0938 2464.1875,558.0938 Q2464.6563,558.0938 2464.9531,558.375 Q2465.25,558.6563 2465.25,559.3125 L2465.25,560.875 Q2465.25,561.5313 2464.9688,561.8125 Q2464.6875,562.0938 2464.25,562.0938 Q2463.8594,562.0938 2463.6094,561.9219 Q2463.3594,561.75 2463.25,561.2969 Q2463.2031,560.9844 2463.0313,560.8125 Q2462.7188,560.4844 2462.1563,560.2969 Q2461.5938,560.0938 2461.0313,560.0938 Q2460.3281,560.0938 2459.7344,560.375 Q2459.1563,560.6563 2458.7031,561.2813 Q2458.25,561.9063 2458.25,562.7656 L2458.25,563.6875 Q2458.25,564.7188 2459.0938,565.4063 Q2459.9375,566.0938 2461.4375,566.0938 Q2462.3281,566.0938 2462.9531,565.8906 Q2463.3125,565.7813 2463.7188,565.4219 Q2463.9844,565.2188 2464.125,565.1563 Q2464.2656,565.0938 2464.4375,565.0938 Q2464.7656,565.0938 2465,565.3594 Q2465.25,565.6094 2465.25,565.9688 Q2465.25,566.3125 2464.9063,566.7188 Q2464.4063,567.3125 2463.6094,567.6406 Q2462.5625,568.0938 2461.2813,568.0938 Q2459.7813,568.0938 2458.5781,567.5 Q2457.6094,567.0313 2456.9219,566.0156 Q2456.25,565 2456.25,563.7969 L2456.25,562.7031 Q2456.25,561.4531 2456.8438,560.3594 Q2457.4531,559.2656 2458.5,558.6875 Q2459.5625,558.0938 2460.75,558.0938 Q2461.4688,558.0938 2462.0938,558.3438 Q2462.7188,558.5938 2463.25,559.0938 Z " fill="#000000"/><text fill="#000000" font-family="sans-serif" font-size="12" font-style="italic" lengthAdjust="spacing" textLength="85" x="2497.75" y="559.957">«Value Object»</text><text fill="#000000" font-family="sans-serif" font-size="12" lengthAdjust="spacing" textLength="117" x="2481.75" y="575.0508">CompleteDescription</text><line style="stroke:#A80036;stroke-width:1.5;" x1="2401.5" x2="2646.5" y1="582.6875" y2="582.6875"/><line style="stroke:#A80036;stroke-width:1.5;" x1="2401.5" x2="2646.5" y1="590.6875" y2="590.6875"/><text fill="#000000" font-family="sans-serif" font-size="11" lengthAdjust="spacing" textLength="235" x="2406.5" y="606.1064">+createDescricaoCompleta(completeDescription)</text><text fill="#000000" font-family="sans-serif" font-size="11" lengthAdjust="spacing" textLength="146" x="2406.5" y="619.9424">-validate(completeDescription)</text><!--MD5=[1ac27345a8a52a4a812e38456e107300]
class Keyword--><rect codeLine="55" fill="#FEFECE" filter="url(#f33j7n8ucj8tl)" height="83.8594" id="Keyword" style="stroke:#A80036;stroke-width:1.5;" width="145" x="2220.5" y="542.5"/><ellipse cx="2249.9" cy="562.5938" fill="#ADD1B2" rx="11" ry="11" style="stroke:#A80036;stroke-width:1.0;"/><path d="M2251.9,559.0938 Q2252.1031,558.5938 2252.3375,558.3438 Q2252.5719,558.0938 2252.8375,558.0938 Q2253.3063,558.0938 2253.6031,558.375 Q2253.9,558.6563 2253.9,559.3125 L2253.9,560.875 Q2253.9,561.5313 2253.6188,561.8125 Q2253.3375,562.0938 2252.9,562.0938 Q2252.5094,562.0938 2252.2594,561.9219 Q2252.0094,561.75 2251.9,561.2969 Q2251.8531,560.9844 2251.6813,560.8125 Q2251.3688,560.4844 2250.8063,560.2969 Q2250.2438,560.0938 2249.6813,560.0938 Q2248.9781,560.0938 2248.3844,560.375 Q2247.8063,560.6563 2247.3531,561.2813 Q2246.9,561.9063 2246.9,562.7656 L2246.9,563.6875 Q2246.9,564.7188 2247.7438,565.4063 Q2248.5875,566.0938 2250.0875,566.0938 Q2250.9781,566.0938 2251.6031,565.8906 Q2251.9625,565.7813 2252.3688,565.4219 Q2252.6344,565.2188 2252.775,565.1563 Q2252.9156,565.0938 2253.0875,565.0938 Q2253.4156,565.0938 2253.65,565.3594 Q2253.9,565.6094 2253.9,565.9688 Q2253.9,566.3125 2253.5563,566.7188 Q2253.0563,567.3125 2252.2594,567.6406 Q2251.2125,568.0938 2249.9313,568.0938 Q2248.4313,568.0938 2247.2281,567.5 Q2246.2594,567.0313 2245.5719,566.0156 Q2244.9,565 2244.9,563.7969 L2244.9,562.7031 Q2244.9,561.4531 2245.4938,560.3594 Q2246.1031,559.2656 2247.15,558.6875 Q2248.2125,558.0938 2249.4,558.0938 Q2250.1188,558.0938 2250.7438,558.3438 Q2251.3688,558.5938 2251.9,559.0938 Z " fill="#000000"/><text fill="#000000" font-family="sans-serif" font-size="12" font-style="italic" lengthAdjust="spacing" textLength="85" x="2265.1" y="559.957">«Value Object»</text><text fill="#000000" font-family="sans-serif" font-size="12" lengthAdjust="spacing" textLength="47" x="2284.1" y="575.0508">Keyword</text><line style="stroke:#A80036;stroke-width:1.5;" x1="2221.5" x2="2364.5" y1="582.6875" y2="582.6875"/><line style="stroke:#A80036;stroke-width:1.5;" x1="2221.5" x2="2364.5" y1="590.6875" y2="590.6875"/><text fill="#000000" font-family="sans-serif" font-size="11" lengthAdjust="spacing" textLength="133" x="2226.5" y="606.1064">+createKeyword(keyword)</text><text fill="#000000" font-family="sans-serif" font-size="11" lengthAdjust="spacing" textLength="92" x="2226.5" y="619.9424">-validate(keyword)</text><!--MD5=[1a502b0dbedafd291c48f46ef8646183]
class Feedback--><rect codeLine="60" fill="#FEFECE" filter="url(#f33j7n8ucj8tl)" height="83.8594" id="Feedback" style="stroke:#A80036;stroke-width:1.5;" width="149" x="2036.5" y="542.5"/><ellipse cx="2067.7" cy="562.5938" fill="#ADD1B2" rx="11" ry="11" style="stroke:#A80036;stroke-width:1.0;"/><path d="M2069.7,559.0938 Q2069.9031,558.5938 2070.1375,558.3438 Q2070.3719,558.0938 2070.6375,558.0938 Q2071.1063,558.0938 2071.4031,558.375 Q2071.7,558.6563 2071.7,559.3125 L2071.7,560.875 Q2071.7,561.5313 2071.4188,561.8125 Q2071.1375,562.0938 2070.7,562.0938 Q2070.3094,562.0938 2070.0594,561.9219 Q2069.8094,561.75 2069.7,561.2969 Q2069.6531,560.9844 2069.4813,560.8125 Q2069.1688,560.4844 2068.6063,560.2969 Q2068.0438,560.0938 2067.4813,560.0938 Q2066.7781,560.0938 2066.1844,560.375 Q2065.6063,560.6563 2065.1531,561.2813 Q2064.7,561.9063 2064.7,562.7656 L2064.7,563.6875 Q2064.7,564.7188 2065.5438,565.4063 Q2066.3875,566.0938 2067.8875,566.0938 Q2068.7781,566.0938 2069.4031,565.8906 Q2069.7625,565.7813 2070.1688,565.4219 Q2070.4344,565.2188 2070.575,565.1563 Q2070.7156,565.0938 2070.8875,565.0938 Q2071.2156,565.0938 2071.45,565.3594 Q2071.7,565.6094 2071.7,565.9688 Q2071.7,566.3125 2071.3563,566.7188 Q2070.8563,567.3125 2070.0594,567.6406 Q2069.0125,568.0938 2067.7313,568.0938 Q2066.2313,568.0938 2065.0281,567.5 Q2064.0594,567.0313 2063.3719,566.0156 Q2062.7,565 2062.7,563.7969 L2062.7,562.7031 Q2062.7,561.4531 2063.2938,560.3594 Q2063.9031,559.2656 2064.95,558.6875 Q2066.0125,558.0938 2067.2,558.0938 Q2067.9188,558.0938 2068.5438,558.3438 Q2069.1688,558.5938 2069.7,559.0938 Z " fill="#000000"/><text fill="#000000" font-family="sans-serif" font-size="12" font-style="italic" lengthAdjust="spacing" textLength="85" x="2083.3" y="559.957">«Value Object»</text><text fill="#000000" font-family="sans-serif" font-size="12" lengthAdjust="spacing" textLength="54" x="2098.8" y="575.0508">Feedback</text><line style="stroke:#A80036;stroke-width:1.5;" x1="2037.5" x2="2184.5" y1="582.6875" y2="582.6875"/><line style="stroke:#A80036;stroke-width:1.5;" x1="2037.5" x2="2184.5" y1="590.6875" y2="590.6875"/><text fill="#000000" font-family="sans-serif" font-size="11" lengthAdjust="spacing" textLength="137" x="2042.5" y="606.1064">+createFeedback(feedback)</text><text fill="#000000" font-family="sans-serif" font-size="11" lengthAdjust="spacing" textLength="94" x="2042.5" y="619.9424">-validate(feedback)</text><!--MD5=[52bbb3977dd17db2f7922dab5df8ebdb]
class ServiceBuilder--><rect codeLine="68" fill="#FEFECE" filter="url(#f33j7n8ucj8tl)" height="166.875" id="ServiceBuilder" style="stroke:#A80036;stroke-width:1.5;" width="242" x="3201" y="501"/><ellipse cx="3278.25" cy="521.0938" fill="#ADD1B2" rx="11" ry="11" style="stroke:#A80036;stroke-width:1.0;"/><path d="M3280.25,517.5938 Q3280.4531,517.0938 3280.6875,516.8438 Q3280.9219,516.5938 3281.1875,516.5938 Q3281.6563,516.5938 3281.9531,516.875 Q3282.25,517.1563 3282.25,517.8125 L3282.25,519.375 Q3282.25,520.0313 3281.9688,520.3125 Q3281.6875,520.5938 3281.25,520.5938 Q3280.8594,520.5938 3280.6094,520.4219 Q3280.3594,520.25 3280.25,519.7969 Q3280.2031,519.4844 3280.0313,519.3125 Q3279.7188,518.9844 3279.1563,518.7969 Q3278.5938,518.5938 3278.0313,518.5938 Q3277.3281,518.5938 3276.7344,518.875 Q3276.1563,519.1563 3275.7031,519.7813 Q3275.25,520.4063 3275.25,521.2656 L3275.25,522.1875 Q3275.25,523.2188 3276.0938,523.9063 Q3276.9375,524.5938 3278.4375,524.5938 Q3279.3281,524.5938 3279.9531,524.3906 Q3280.3125,524.2813 3280.7188,523.9219 Q3280.9844,523.7188 3281.125,523.6563 Q3281.2656,523.5938 3281.4375,523.5938 Q3281.7656,523.5938 3282,523.8594 Q3282.25,524.1094 3282.25,524.4688 Q3282.25,524.8125 3281.9063,525.2188 Q3281.4063,525.8125 3280.6094,526.1406 Q3279.5625,526.5938 3278.2813,526.5938 Q3276.7813,526.5938 3275.5781,526 Q3274.6094,525.5313 3273.9219,524.5156 Q3273.25,523.5 3273.25,522.2969 L3273.25,521.2031 Q3273.25,519.9531 3273.8438,518.8594 Q3274.4531,517.7656 3275.5,517.1875 Q3276.5625,516.5938 3277.75,516.5938 Q3278.4688,516.5938 3279.0938,516.8438 Q3279.7188,517.0938 3280.25,517.5938 Z " fill="#000000"/><text fill="#000000" font-family="sans-serif" font-size="12" font-style="italic" lengthAdjust="spacing" textLength="53" x="3311.75" y="518.457">«builder»</text><text fill="#000000" font-family="sans-serif" font-size="12" lengthAdjust="spacing" textLength="79" x="3298.75" y="533.5508">ServiceBuilder</text><line style="stroke:#A80036;stroke-width:1.5;" x1="3202" x2="3442" y1="541.1875" y2="541.1875"/><line style="stroke:#A80036;stroke-width:1.5;" x1="3202" x2="3442" y1="549.1875" y2="549.1875"/><text fill="#000000" font-family="sans-serif" font-size="11" lengthAdjust="spacing" textLength="45" x="3207" y="564.6064">+create()</text><text fill="#000000" font-family="sans-serif" font-size="11" lengthAdjust="spacing" textLength="70" x="3207" y="578.4424">+withTitle(title)</text><text fill="#000000" font-family="sans-serif" font-size="11" lengthAdjust="spacing" textLength="188" x="3207" y="592.2783">+withBriefDescription(briefDescription)</text><text fill="#000000" font-family="sans-serif" font-size="11" lengthAdjust="spacing" textLength="230" x="3207" y="606.1143">+withCompleteDescription(completeDescription)</text><text fill="#000000" font-family="sans-serif" font-size="11" lengthAdjust="spacing" textLength="127" x="3207" y="619.9502">+withFeedback(feedback)</text><text fill="#000000" font-family="sans-serif" font-size="11" lengthAdjust="spacing" textLength="157" x="3207" y="633.7861">+withKeywordList(keywordList)</text><text fill="#000000" font-family="sans-serif" font-size="11" lengthAdjust="spacing" textLength="115" x="3207" y="647.6221">+withFormList(formList)</text><text fill="#000000" font-family="sans-serif" font-size="11" lengthAdjust="spacing" textLength="36" x="3207" y="661.458">+build()</text><!--MD5=[e8c189551b7885b999ad7cefb30fc2a3]
class PersistenceContext--><rect codeLine="84" fill="#FEFECE" filter="url(#f33j7n8ucj8tl)" height="70.0234" id="PersistenceContext" style="stroke:#A80036;stroke-width:1.5;" width="139" x="32.5" y="549.5"/><ellipse cx="47.5" cy="569.5938" fill="#ADD1B2" rx="11" ry="11" style="stroke:#A80036;stroke-width:1.0;"/><path d="M49.5,566.0938 Q49.7031,565.5938 49.9375,565.3438 Q50.1719,565.0938 50.4375,565.0938 Q50.9063,565.0938 51.2031,565.375 Q51.5,565.6563 51.5,566.3125 L51.5,567.875 Q51.5,568.5313 51.2188,568.8125 Q50.9375,569.0938 50.5,569.0938 Q50.1094,569.0938 49.8594,568.9219 Q49.6094,568.75 49.5,568.2969 Q49.4531,567.9844 49.2813,567.8125 Q48.9688,567.4844 48.4063,567.2969 Q47.8438,567.0938 47.2813,567.0938 Q46.5781,567.0938 45.9844,567.375 Q45.4063,567.6563 44.9531,568.2813 Q44.5,568.9063 44.5,569.7656 L44.5,570.6875 Q44.5,571.7188 45.3438,572.4063 Q46.1875,573.0938 47.6875,573.0938 Q48.5781,573.0938 49.2031,572.8906 Q49.5625,572.7813 49.9688,572.4219 Q50.2344,572.2188 50.375,572.1563 Q50.5156,572.0938 50.6875,572.0938 Q51.0156,572.0938 51.25,572.3594 Q51.5,572.6094 51.5,572.9688 Q51.5,573.3125 51.1563,573.7188 Q50.6563,574.3125 49.8594,574.6406 Q48.8125,575.0938 47.5313,575.0938 Q46.0313,575.0938 44.8281,574.5 Q43.8594,574.0313 43.1719,573.0156 Q42.5,572 42.5,570.7969 L42.5,569.7031 Q42.5,568.4531 43.0938,567.3594 Q43.7031,566.2656 44.75,565.6875 Q45.8125,565.0938 47,565.0938 Q47.7188,565.0938 48.3438,565.3438 Q48.9688,565.5938 49.5,566.0938 Z " fill="#000000"/><text fill="#000000" font-family="sans-serif" font-size="12" font-style="italic" lengthAdjust="spacing" textLength="77" x="76.5" y="566.957">«persistence»</text><text fill="#000000" font-family="sans-serif" font-size="12" lengthAdjust="spacing" textLength="107" x="61.5" y="582.0508">PersistenceContext</text><line style="stroke:#A80036;stroke-width:1.5;" x1="33.5" x2="170.5" y1="589.6875" y2="589.6875"/><line style="stroke:#A80036;stroke-width:1.5;" x1="33.5" x2="170.5" y1="597.6875" y2="597.6875"/><text fill="#000000" font-family="sans-serif" font-size="11" lengthAdjust="spacing" textLength="71" x="38.5" y="613.1064">+repositories()</text><!--MD5=[b8e4c95865208c934bfcfda4f90bf50c]
class AppSettings--><rect codeLine="88" fill="#FEFECE" filter="url(#f33j7n8ucj8tl)" height="83.8594" id="AppSettings" style="stroke:#A80036;stroke-width:1.5;" width="130" x="275" y="542.5"/><ellipse cx="301.25" cy="562.5938" fill="#ADD1B2" rx="11" ry="11" style="stroke:#A80036;stroke-width:1.0;"/><path d="M303.25,559.0938 Q303.4531,558.5938 303.6875,558.3438 Q303.9219,558.0938 304.1875,558.0938 Q304.6563,558.0938 304.9531,558.375 Q305.25,558.6563 305.25,559.3125 L305.25,560.875 Q305.25,561.5313 304.9688,561.8125 Q304.6875,562.0938 304.25,562.0938 Q303.8594,562.0938 303.6094,561.9219 Q303.3594,561.75 303.25,561.2969 Q303.2031,560.9844 303.0313,560.8125 Q302.7188,560.4844 302.1563,560.2969 Q301.5938,560.0938 301.0313,560.0938 Q300.3281,560.0938 299.7344,560.375 Q299.1563,560.6563 298.7031,561.2813 Q298.25,561.9063 298.25,562.7656 L298.25,563.6875 Q298.25,564.7188 299.0938,565.4063 Q299.9375,566.0938 301.4375,566.0938 Q302.3281,566.0938 302.9531,565.8906 Q303.3125,565.7813 303.7188,565.4219 Q303.9844,565.2188 304.125,565.1563 Q304.2656,565.0938 304.4375,565.0938 Q304.7656,565.0938 305,565.3594 Q305.25,565.6094 305.25,565.9688 Q305.25,566.3125 304.9063,566.7188 Q304.4063,567.3125 303.6094,567.6406 Q302.5625,568.0938 301.2813,568.0938 Q299.7813,568.0938 298.5781,567.5 Q297.6094,567.0313 296.9219,566.0156 Q296.25,565 296.25,563.7969 L296.25,562.7031 Q296.25,561.4531 296.8438,560.3594 Q297.4531,559.2656 298.5,558.6875 Q299.5625,558.0938 300.75,558.0938 Q301.4688,558.0938 302.0938,558.3438 Q302.7188,558.5938 303.25,559.0938 Z " fill="#000000"/><text fill="#000000" font-family="sans-serif" font-size="12" font-style="italic" lengthAdjust="spacing" textLength="77" x="315.75" y="559.957">«persistence»</text><text fill="#000000" font-family="sans-serif" font-size="12" lengthAdjust="spacing" textLength="66" x="321.25" y="575.0508">AppSettings</text><line style="stroke:#A80036;stroke-width:1.5;" x1="276" x2="404" y1="582.6875" y2="582.6875"/><line style="stroke:#A80036;stroke-width:1.5;" x1="276" x2="404" y1="590.6875" y2="590.6875"/><text fill="#000000" font-family="sans-serif" font-size="11" lengthAdjust="spacing" textLength="55" x="281" y="606.1064">+instance()</text><text fill="#000000" font-family="sans-serif" font-size="11" lengthAdjust="spacing" textLength="118" x="281" y="619.9424">+getRepositoryFactory()</text><!--MD5=[48590afff58a68e2fcba47824d6f8a11]
class RepositoryFactory--><rect codeLine="94" fill="#FEFECE" filter="url(#f33j7n8ucj8tl)" height="111.5313" id="RepositoryFactory" style="stroke:#A80036;stroke-width:1.5;" width="130" x="1145" y="528.5"/><ellipse cx="1160" cy="548.5938" fill="#ADD1B2" rx="11" ry="11" style="stroke:#A80036;stroke-width:1.0;"/><path d="M1162,545.0938 Q1162.2031,544.5938 1162.4375,544.3438 Q1162.6719,544.0938 1162.9375,544.0938 Q1163.4063,544.0938 1163.7031,544.375 Q1164,544.6563 1164,545.3125 L1164,546.875 Q1164,547.5313 1163.7188,547.8125 Q1163.4375,548.0938 1163,548.0938 Q1162.6094,548.0938 1162.3594,547.9219 Q1162.1094,547.75 1162,547.2969 Q1161.9531,546.9844 1161.7813,546.8125 Q1161.4688,546.4844 1160.9063,546.2969 Q1160.3438,546.0938 1159.7813,546.0938 Q1159.0781,546.0938 1158.4844,546.375 Q1157.9063,546.6563 1157.4531,547.2813 Q1157,547.9063 1157,548.7656 L1157,549.6875 Q1157,550.7188 1157.8438,551.4063 Q1158.6875,552.0938 1160.1875,552.0938 Q1161.0781,552.0938 1161.7031,551.8906 Q1162.0625,551.7813 1162.4688,551.4219 Q1162.7344,551.2188 1162.875,551.1563 Q1163.0156,551.0938 1163.1875,551.0938 Q1163.5156,551.0938 1163.75,551.3594 Q1164,551.6094 1164,551.9688 Q1164,552.3125 1163.6563,552.7188 Q1163.1563,553.3125 1162.3594,553.6406 Q1161.3125,554.0938 1160.0313,554.0938 Q1158.5313,554.0938 1157.3281,553.5 Q1156.3594,553.0313 1155.6719,552.0156 Q1155,551 1155,549.7969 L1155,548.7031 Q1155,547.4531 1155.5938,546.3594 Q1156.2031,545.2656 1157.25,544.6875 Q1158.3125,544.0938 1159.5,544.0938 Q1160.2188,544.0938 1160.8438,544.3438 Q1161.4688,544.5938 1162,545.0938 Z " fill="#000000"/><text fill="#000000" font-family="sans-serif" font-size="12" font-style="italic" lengthAdjust="spacing" textLength="50" x="1198" y="545.957">«factory»</text><text fill="#000000" font-family="sans-serif" font-size="12" lengthAdjust="spacing" textLength="98" x="1174" y="561.0508">RepositoryFactory</text><line style="stroke:#A80036;stroke-width:1.5;" x1="1146" x2="1274" y1="568.6875" y2="568.6875"/><line style="stroke:#A80036;stroke-width:1.5;" x1="1146" x2="1274" y1="576.6875" y2="576.6875"/><text fill="#000000" font-family="sans-serif" font-size="11" lengthAdjust="spacing" textLength="45" x="1151" y="592.1064">+create()</text><text fill="#000000" font-family="sans-serif" font-size="11" lengthAdjust="spacing" textLength="56" x="1151" y="605.9424">+servicos()</text><text fill="#000000" font-family="sans-serif" font-size="11" lengthAdjust="spacing" textLength="61" x="1151" y="619.7783">+catalogos()</text><text fill="#000000" font-family="sans-serif" font-size="11" lengthAdjust="spacing" textLength="68" x="1151" y="633.6143">+formularios()</text><!--MD5=[cf62b7d23c2004c5280dc9b8e31eb1d4]
class ServiceRepository--><rect codeLine="103" fill="#FEFECE" filter="url(#f33j7n8ucj8tl)" height="83.8594" id="ServiceRepository" style="stroke:#A80036;stroke-width:1.5;" width="131" x="956.5" y="542.5"/><ellipse cx="971.5" cy="562.5938" fill="#ADD1B2" rx="11" ry="11" style="stroke:#A80036;stroke-width:1.0;"/><path d="M973.5,559.0938 Q973.7031,558.5938 973.9375,558.3438 Q974.1719,558.0938 974.4375,558.0938 Q974.9063,558.0938 975.2031,558.375 Q975.5,558.6563 975.5,559.3125 L975.5,560.875 Q975.5,561.5313 975.2188,561.8125 Q974.9375,562.0938 974.5,562.0938 Q974.1094,562.0938 973.8594,561.9219 Q973.6094,561.75 973.5,561.2969 Q973.4531,560.9844 973.2813,560.8125 Q972.9688,560.4844 972.4063,560.2969 Q971.8438,560.0938 971.2813,560.0938 Q970.5781,560.0938 969.9844,560.375 Q969.4063,560.6563 968.9531,561.2813 Q968.5,561.9063 968.5,562.7656 L968.5,563.6875 Q968.5,564.7188 969.3438,565.4063 Q970.1875,566.0938 971.6875,566.0938 Q972.5781,566.0938 973.2031,565.8906 Q973.5625,565.7813 973.9688,565.4219 Q974.2344,565.2188 974.375,565.1563 Q974.5156,565.0938 974.6875,565.0938 Q975.0156,565.0938 975.25,565.3594 Q975.5,565.6094 975.5,565.9688 Q975.5,566.3125 975.1563,566.7188 Q974.6563,567.3125 973.8594,567.6406 Q972.8125,568.0938 971.5313,568.0938 Q970.0313,568.0938 968.8281,567.5 Q967.8594,567.0313 967.1719,566.0156 Q966.5,565 966.5,563.7969 L966.5,562.7031 Q966.5,561.4531 967.0938,560.3594 Q967.7031,559.2656 968.75,558.6875 Q969.8125,558.0938 971,558.0938 Q971.7188,558.0938 972.3438,558.3438 Q972.9688,558.5938 973.5,559.0938 Z " fill="#000000"/><text fill="#000000" font-family="sans-serif" font-size="12" font-style="italic" lengthAdjust="spacing" textLength="68" x="1001" y="559.957">«repository»</text><text fill="#000000" font-family="sans-serif" font-size="12" lengthAdjust="spacing" textLength="99" x="985.5" y="575.0508">ServiceRepository</text><line style="stroke:#A80036;stroke-width:1.5;" x1="957.5" x2="1086.5" y1="582.6875" y2="582.6875"/><line style="stroke:#A80036;stroke-width:1.5;" x1="957.5" x2="1086.5" y1="590.6875" y2="590.6875"/><text fill="#000000" font-family="sans-serif" font-size="11" lengthAdjust="spacing" textLength="45" x="962.5" y="606.1064">+create()</text><text fill="#000000" font-family="sans-serif" font-size="11" lengthAdjust="spacing" textLength="74" x="962.5" y="619.9424">+save(service)</text><!--MD5=[c442d1a7174f61885988a69cb0f958b4]
class ServiceDraftRepository--><rect codeLine="108" fill="#FEFECE" filter="url(#f33j7n8ucj8tl)" height="83.8594" id="ServiceDraftRepository" style="stroke:#A80036;stroke-width:1.5;" width="157" x="580.5" y="542.5"/><ellipse cx="595.5" cy="562.5938" fill="#ADD1B2" rx="11" ry="11" style="stroke:#A80036;stroke-width:1.0;"/><path d="M597.5,559.0938 Q597.7031,558.5938 597.9375,558.3438 Q598.1719,558.0938 598.4375,558.0938 Q598.9063,558.0938 599.2031,558.375 Q599.5,558.6563 599.5,559.3125 L599.5,560.875 Q599.5,561.5313 599.2188,561.8125 Q598.9375,562.0938 598.5,562.0938 Q598.1094,562.0938 597.8594,561.9219 Q597.6094,561.75 597.5,561.2969 Q597.4531,560.9844 597.2813,560.8125 Q596.9688,560.4844 596.4063,560.2969 Q595.8438,560.0938 595.2813,560.0938 Q594.5781,560.0938 593.9844,560.375 Q593.4063,560.6563 592.9531,561.2813 Q592.5,561.9063 592.5,562.7656 L592.5,563.6875 Q592.5,564.7188 593.3438,565.4063 Q594.1875,566.0938 595.6875,566.0938 Q596.5781,566.0938 597.2031,565.8906 Q597.5625,565.7813 597.9688,565.4219 Q598.2344,565.2188 598.375,565.1563 Q598.5156,565.0938 598.6875,565.0938 Q599.0156,565.0938 599.25,565.3594 Q599.5,565.6094 599.5,565.9688 Q599.5,566.3125 599.1563,566.7188 Q598.6563,567.3125 597.8594,567.6406 Q596.8125,568.0938 595.5313,568.0938 Q594.0313,568.0938 592.8281,567.5 Q591.8594,567.0313 591.1719,566.0156 Q590.5,565 590.5,563.7969 L590.5,562.7031 Q590.5,561.4531 591.0938,560.3594 Q591.7031,559.2656 592.75,558.6875 Q593.8125,558.0938 595,558.0938 Q595.7188,558.0938 596.3438,558.3438 Q596.9688,558.5938 597.5,559.0938 Z " fill="#000000"/><text fill="#000000" font-family="sans-serif" font-size="12" font-style="italic" lengthAdjust="spacing" textLength="68" x="638" y="559.957">«repository»</text><text fill="#000000" font-family="sans-serif" font-size="12" lengthAdjust="spacing" textLength="125" x="609.5" y="575.0508">ServiceDraftRepository</text><line style="stroke:#A80036;stroke-width:1.5;" x1="581.5" x2="736.5" y1="582.6875" y2="582.6875"/><line style="stroke:#A80036;stroke-width:1.5;" x1="581.5" x2="736.5" y1="590.6875" y2="590.6875"/><text fill="#000000" font-family="sans-serif" font-size="11" lengthAdjust="spacing" textLength="45" x="586.5" y="606.1064">+create()</text><text fill="#000000" font-family="sans-serif" font-size="11" lengthAdjust="spacing" textLength="44" x="586.5" y="619.9424">+findAll()</text><!--MD5=[69bb86ab6babb49b9e011e22ae952de4]
class CatalogueRepository--><rect codeLine="113" fill="#FEFECE" filter="url(#f33j7n8ucj8tl)" height="83.8594" id="CatalogueRepository" style="stroke:#A80036;stroke-width:1.5;" width="148" x="773" y="542.5"/><ellipse cx="788" cy="562.5938" fill="#ADD1B2" rx="11" ry="11" style="stroke:#A80036;stroke-width:1.0;"/><path d="M790,559.0938 Q790.2031,558.5938 790.4375,558.3438 Q790.6719,558.0938 790.9375,558.0938 Q791.4063,558.0938 791.7031,558.375 Q792,558.6563 792,559.3125 L792,560.875 Q792,561.5313 791.7188,561.8125 Q791.4375,562.0938 791,562.0938 Q790.6094,562.0938 790.3594,561.9219 Q790.1094,561.75 790,561.2969 Q789.9531,560.9844 789.7813,560.8125 Q789.4688,560.4844 788.9063,560.2969 Q788.3438,560.0938 787.7813,560.0938 Q787.0781,560.0938 786.4844,560.375 Q785.9063,560.6563 785.4531,561.2813 Q785,561.9063 785,562.7656 L785,563.6875 Q785,564.7188 785.8438,565.4063 Q786.6875,566.0938 788.1875,566.0938 Q789.0781,566.0938 789.7031,565.8906 Q790.0625,565.7813 790.4688,565.4219 Q790.7344,565.2188 790.875,565.1563 Q791.0156,565.0938 791.1875,565.0938 Q791.5156,565.0938 791.75,565.3594 Q792,565.6094 792,565.9688 Q792,566.3125 791.6563,566.7188 Q791.1563,567.3125 790.3594,567.6406 Q789.3125,568.0938 788.0313,568.0938 Q786.5313,568.0938 785.3281,567.5 Q784.3594,567.0313 783.6719,566.0156 Q783,565 783,563.7969 L783,562.7031 Q783,561.4531 783.5938,560.3594 Q784.2031,559.2656 785.25,558.6875 Q786.3125,558.0938 787.5,558.0938 Q788.2188,558.0938 788.8438,558.3438 Q789.4688,558.5938 790,559.0938 Z " fill="#000000"/><text fill="#000000" font-family="sans-serif" font-size="12" font-style="italic" lengthAdjust="spacing" textLength="68" x="826" y="559.957">«repository»</text><text fill="#000000" font-family="sans-serif" font-size="12" lengthAdjust="spacing" textLength="116" x="802" y="575.0508">CatalogueRepository</text><line style="stroke:#A80036;stroke-width:1.5;" x1="774" x2="920" y1="582.6875" y2="582.6875"/><line style="stroke:#A80036;stroke-width:1.5;" x1="774" x2="920" y1="590.6875" y2="590.6875"/><text fill="#000000" font-family="sans-serif" font-size="11" lengthAdjust="spacing" textLength="45" x="779" y="606.1064">+create()</text><text fill="#000000" font-family="sans-serif" font-size="11" lengthAdjust="spacing" textLength="44" x="779" y="619.9424">+findAll()</text><!--MD5=[8159f625c6e50da2b70a395f95af11fd]
class ServiceRepositoryInterface--><rect codeLine="118" fill="#FEFECE" filter="url(#f33j7n8ucj8tl)" height="48" id="ServiceRepositoryInterface" style="stroke:#A80036;stroke-width:1.5;" width="180" x="909" y="755"/><ellipse cx="924" cy="771" fill="#B4A7E5" rx="11" ry="11" style="stroke:#A80036;stroke-width:1.0;"/><path d="M925,768 L925,774 L927,774 L927.4844,774 L928,774.625 L928,775 L928,775.375 L927.4844,776 L927,776 L921,776 L920.5156,776 L920,775.375 L920,775 L920,774.625 L920.5156,774 L921,774 L923,774 L923,768 L921,768 L920.5156,768 L920,767.375 L920,767 L920,766.625 L920.5156,766 L921,766 L927,766 L927.4844,766 L928,766.625 L928,767 L928,767.375 L927.4844,768 L927,768 L925,768 Z " fill="#000000"/><text fill="#000000" font-family="sans-serif" font-size="12" font-style="italic" lengthAdjust="spacing" textLength="148" x="938" y="775.9102">ServiceRepositoryInterface</text><line style="stroke:#A80036;stroke-width:1.5;" x1="910" x2="1088" y1="787" y2="787"/><line style="stroke:#A80036;stroke-width:1.5;" x1="910" x2="1088" y1="795" y2="795"/><!--MD5=[22f89721c89d5b9566a4ffee303fac63]
class ServiceDraftRepositoryInterface--><rect codeLine="122" fill="#FEFECE" filter="url(#f33j7n8ucj8tl)" height="48" id="ServiceDraftRepositoryInterface" style="stroke:#A80036;stroke-width:1.5;" width="206" x="437" y="755"/><ellipse cx="452" cy="771" fill="#B4A7E5" rx="11" ry="11" style="stroke:#A80036;stroke-width:1.0;"/><path d="M453,768 L453,774 L455,774 L455.4844,774 L456,774.625 L456,775 L456,775.375 L455.4844,776 L455,776 L449,776 L448.5156,776 L448,775.375 L448,775 L448,774.625 L448.5156,774 L449,774 L451,774 L451,768 L449,768 L448.5156,768 L448,767.375 L448,767 L448,766.625 L448.5156,766 L449,766 L455,766 L455.4844,766 L456,766.625 L456,767 L456,767.375 L455.4844,768 L455,768 L453,768 Z " fill="#000000"/><text fill="#000000" font-family="sans-serif" font-size="12" font-style="italic" lengthAdjust="spacing" textLength="174" x="466" y="775.9102">ServiceDraftRepositoryInterface</text><line style="stroke:#A80036;stroke-width:1.5;" x1="438" x2="642" y1="787" y2="787"/><line style="stroke:#A80036;stroke-width:1.5;" x1="438" x2="642" y1="795" y2="795"/><!--MD5=[77ccb0b93dfff6c7a0c6b7a44bdf9643]
class CatalogueRepositoryInterface--><rect codeLine="126" fill="#FEFECE" filter="url(#f33j7n8ucj8tl)" height="48" id="CatalogueRepositoryInterface" style="stroke:#A80036;stroke-width:1.5;" width="196" x="678" y="755"/><ellipse cx="693" cy="771" fill="#B4A7E5" rx="11" ry="11" style="stroke:#A80036;stroke-width:1.0;"/><path d="M694,768 L694,774 L696,774 L696.4844,774 L697,774.625 L697,775 L697,775.375 L696.4844,776 L696,776 L690,776 L689.5156,776 L689,775.375 L689,775 L689,774.625 L689.5156,774 L690,774 L692,774 L692,768 L690,768 L689.5156,768 L689,767.375 L689,767 L689,766.625 L689.5156,766 L690,766 L696,766 L696.4844,766 L697,766.625 L697,767 L697,767.375 L696.4844,768 L696,768 L694,768 Z " fill="#000000"/><text fill="#000000" font-family="sans-serif" font-size="12" font-style="italic" lengthAdjust="spacing" textLength="164" x="707" y="775.9102">CatalogueRepositoryInterface</text><line style="stroke:#A80036;stroke-width:1.5;" x1="679" x2="873" y1="787" y2="787"/><line style="stroke:#A80036;stroke-width:1.5;" x1="679" x2="873" y1="795" y2="795"/><!--MD5=[81dcfbd669d6e4c49dff7fbf85b96e73]
link SaveDraftUI to SaveDraftController--><path codeLine="131" d="M1082,118.19 C1082,144.15 1082,184.17 1082,217.66 " fill="none" id="SaveDraftUI-to-SaveDraftController" style="stroke:#A80036;stroke-width:1.0;stroke-dasharray:7.0,7.0;"/><polygon fill="#A80036" points="1082,222.97,1086,213.97,1082,217.97,1078,213.97,1082,222.97" style="stroke:#A80036;stroke-width:1.0;"/><!--MD5=[77f617034e93ec437d519e2a363c3e36]
link SaveDraftController to ServiceBuilder--><path codeLine="132" d="M1155.78,280.03 C1508.95,280.68 3017.03,289.54 3197,393 C3237.04,416.02 3266.56,457.66 3286.82,496.16 " fill="none" id="SaveDraftController-to-ServiceBuilder" style="stroke:#A80036;stroke-width:1.0;stroke-dasharray:7.0,7.0;"/><polygon fill="#A80036" points="3289.25,500.84,3288.6646,491.0086,3286.9513,496.3997,3281.5602,494.6864,3289.25,500.84" style="stroke:#A80036;stroke-width:1.0;"/><!--MD5=[57f337013ebf9704cfc54ea4bc16053d]
link SaveDraftController to PersistenceContext--><path codeLine="133" d="M1008.42,283.25 C831.26,292.15 386.19,321.22 258,393 C194.9,428.34 147.06,500.17 121.88,544.83 " fill="none" id="SaveDraftController-to-PersistenceContext" style="stroke:#A80036;stroke-width:1.0;stroke-dasharray:7.0,7.0;"/><polygon fill="#A80036" points="119.37,549.33,127.2604,543.4358,121.8152,544.9687,120.2823,539.5235,119.37,549.33" style="stroke:#A80036;stroke-width:1.0;"/><!--MD5=[41b7389dc9c161e00cc9719193d5127a]
link ServiceRepository to ServiceRepositoryInterface--><path codeLine="135" d="M1017.07,626.8 C1012.63,663.92 1006.24,717.44 1002.36,749.85 " fill="none" id="ServiceRepository-to-ServiceRepositoryInterface" style="stroke:#A80036;stroke-width:1.0;stroke-dasharray:7.0,7.0;"/><polygon fill="#A80036" points="1001.76,754.86,1006.8096,746.4041,1002.3591,749.896,998.8672,745.4456,1001.76,754.86" style="stroke:#A80036;stroke-width:1.0;"/><!--MD5=[013c093f641f8740a568aa5157f9e0d6]
link ServiceDraftRepository to ServiceDraftRepositoryInterface--><path codeLine="136" d="M633.47,626.8 C610.43,664.07 577.16,717.88 557.16,750.25 " fill="none" id="ServiceDraftRepository-to-ServiceDraftRepositoryInterface" style="stroke:#A80036;stroke-width:1.0;stroke-dasharray:7.0,7.0;"/><polygon fill="#A80036" points="554.3,754.86,562.4318,749.3036,556.9269,750.6056,555.6248,745.1007,554.3,754.86" style="stroke:#A80036;stroke-width:1.0;"/><!--MD5=[d4624390685b6f56f0ffc2024476f319]
link CatalogueRepository to CatalogueRepositoryInterface--><path codeLine="137" d="M831.77,626.8 C818.08,663.92 798.34,717.44 786.38,749.85 " fill="none" id="CatalogueRepository-to-CatalogueRepositoryInterface" style="stroke:#A80036;stroke-width:1.0;stroke-dasharray:7.0,7.0;"/><polygon fill="#A80036" points="784.53,754.86,791.3907,747.7939,786.2559,750.1673,783.8824,745.0325,784.53,754.86" style="stroke:#A80036;stroke-width:1.0;"/><!--MD5=[d66efb439816738ddd3e9d5fff4bf3a7]
link AppSettings to RepositoryFactory--><path codeLine="139" d="M346.53,542.43 C355.46,500.96 375.85,439.75 421,411 C485.11,370.18 1038.79,373.68 1105,411 C1147.44,434.92 1174.68,483.68 1190.75,523.43 " fill="none" id="AppSettings-to-RepositoryFactory" style="stroke:#A80036;stroke-width:1.0;"/><polygon fill="#A80036" points="1192.65,528.23,1193.0579,518.3896,1190.8103,523.5808,1185.6191,521.3332,1192.65,528.23" style="stroke:#A80036;stroke-width:1.0;"/><text fill="#000000" font-family="sans-serif" font-size="13" lengthAdjust="spacing" textLength="43" x="1057.5" y="381.4951">creates</text><!--MD5=[27fe1c91fe18bafc5695938053528609]
link PersistenceContext to AppSettings--><path codeLine="140" d="M171.8,584.5 C202.53,584.5 238.57,584.5 269.39,584.5 " fill="none" id="PersistenceContext-to-AppSettings" style="stroke:#A80036;stroke-width:1.0;"/><polygon fill="#A80036" points="274.69,584.5,265.69,580.5,269.69,584.5,265.69,588.5,274.69,584.5" style="stroke:#A80036;stroke-width:1.0;"/><text fill="#000000" font-family="sans-serif" font-size="13" lengthAdjust="spacing" textLength="67" x="189.75" y="577.9951">implements</text><!--MD5=[e2407c399f2ae11eec8128dc99dd93a4]
link RepositoryFactory to ServiceRepository--><path codeLine="142" d="M1144.92,584.5 C1128.16,584.5 1110.05,584.5 1093,584.5 " fill="none" id="RepositoryFactory-to-ServiceRepository" style="stroke:#A80036;stroke-width:1.0;"/><polygon fill="#A80036" points="1087.75,584.5,1096.75,588.5,1092.75,584.5,1096.75,580.5,1087.75,584.5" style="stroke:#A80036;stroke-width:1.0;"/><text fill="#000000" font-family="sans-serif" font-size="13" lengthAdjust="spacing" textLength="21" x="1105.75" y="577.9951">has</text><text fill="#000000" font-family="sans-serif" font-size="13" lengthAdjust="spacing" textLength="7" x="1129.9904" y="581.1175">1</text><text fill="#000000" font-family="sans-serif" font-size="13" lengthAdjust="spacing" textLength="7" x="1095.3242" y="581.147">1</text><!--MD5=[5f59416c95391d0902a6b5df5b91b5a8]
link RepositoryFactory to CatalogueRepository--><path codeLine="143" d="M1192.65,528.23 C1176.87,487.68 1149.17,435.9 1105,411 C1040.73,374.77 1002.22,372.97 939,411 C893.8,438.19 869.63,495.88 857.58,537.28 " fill="none" id="RepositoryFactory-to-CatalogueRepository" style="stroke:#A80036;stroke-width:1.0;"/><polygon fill="#A80036" points="856.17,542.25,862.4678,534.6778,857.5304,537.4386,854.7695,532.5012,856.17,542.25" style="stroke:#A80036;stroke-width:1.0;"/><text fill="#000000" font-family="sans-serif" font-size="13" lengthAdjust="spacing" textLength="21" x="1008.5" y="381.4951">has</text><text fill="#000000" font-family="sans-serif" font-size="13" lengthAdjust="spacing" textLength="7" x="1182.9786" y="517.5431">1</text><text fill="#000000" font-family="sans-serif" font-size="13" lengthAdjust="spacing" textLength="7" x="850.0737" y="531.7757">1</text><!--MD5=[c099f118843079ed39661509eb060af6]
link RepositoryFactory to ServiceDraftRepository--><path codeLine="144" d="M1192.65,528.23 C1176.87,487.68 1149.17,435.9 1105,411 C1037.44,372.92 822.9,371.76 756,411 C709.95,438.01 684.13,495.74 670.91,537.2 " fill="none" id="RepositoryFactory-to-ServiceDraftRepository" style="stroke:#A80036;stroke-width:1.0;"/><polygon fill="#A80036" points="669.36,542.17,675.875,534.7839,670.8595,537.4001,668.2432,532.3847,669.36,542.17" style="stroke:#A80036;stroke-width:1.0;"/><text fill="#000000" font-family="sans-serif" font-size="13" lengthAdjust="spacing" textLength="21" x="1117.5" y="381.4951">has</text><text fill="#000000" font-family="sans-serif" font-size="13" lengthAdjust="spacing" textLength="7" x="1190.8755" y="517.5431">1</text><text fill="#000000" font-family="sans-serif" font-size="13" lengthAdjust="spacing" textLength="7" x="663.4533" y="531.683">1</text><!--MD5=[ddea2b4faec7cb9808defc1f4512b95e]
link ServiceRepository to Service--><path codeLine="146" d="M1034.58,542.42 C1049.57,500.62 1079.09,438.86 1129,411 C1203.32,369.52 1434.72,375.34 1512,411 C1564.9,435.41 1605.88,489.07 1631.17,530.3 " fill="none" id="ServiceRepository-to-Service" style="stroke:#A80036;stroke-width:1.0;"/><polygon fill="#A80036" points="1633.87,534.76,1632.6073,524.9924,1631.2703,530.489,1625.7737,529.152,1633.87,534.76" style="stroke:#A80036;stroke-width:1.0;"/><text fill="#000000" font-family="sans-serif" font-size="13" lengthAdjust="spacing" textLength="33" x="1388.5" y="381.4951">saves</text><text fill="#000000" font-family="sans-serif" font-size="13" lengthAdjust="spacing" textLength="7" x="1029.0839" y="531.6614">1</text><text fill="#000000" font-family="sans-serif" font-size="13" lengthAdjust="spacing" textLength="5" x="1624.8439" y="524.1634">*</text><!--MD5=[a7398665fd2a89d66fc3de9c40b19ac3]
link ServiceBuilder to Service--><path codeLine="147" d="M3283.79,500.92 C3263.33,466.48 3234.51,430.2 3197,411 C3129.45,376.41 1901.01,381.7 1831,411 C1773.29,435.15 1725.18,489.32 1694.84,530.75 " fill="none" id="ServiceBuilder-to-Service" style="stroke:#A80036;stroke-width:1.0;"/><polygon fill="#A80036" points="1691.78,534.97,1700.2991,530.0279,1694.7132,530.9208,1693.8204,525.3348,1691.78,534.97" style="stroke:#A80036;stroke-width:1.0;"/><text fill="#000000" font-family="sans-serif" font-size="13" lengthAdjust="spacing" textLength="21" x="1790.5" y="381.4951">cria</text><text fill="#000000" font-family="sans-serif" font-size="13" lengthAdjust="spacing" textLength="7" x="3273.0752" y="490.28">1</text><text fill="#000000" font-family="sans-serif" font-size="13" lengthAdjust="spacing" textLength="5" x="1691.0805" y="524.0447">*</text><!--MD5=[d53e096ef2f9280c1f0af98ac059945b]
link ServiceDraftRepository to ServiceDraft--><path codeLine="148" d="M669.36,542.17 C682.07,500.49 708.08,439.11 756,411 C858.55,350.85 1184.29,358.58 1291,411 C1330.56,430.43 1361.74,467.78 1384.04,502.86 " fill="none" id="ServiceDraftRepository-to-ServiceDraft" style="stroke:#A80036;stroke-width:1.0;"/><polygon fill="#A80036" points="1386.71,507.13,1385.3084,497.3814,1384.0497,502.8964,1378.5347,501.6378,1386.71,507.13" style="stroke:#A80036;stroke-width:1.0;"/><text fill="#000000" font-family="sans-serif" font-size="13" lengthAdjust="spacing" textLength="33" x="1235.5" y="381.4951">saves</text><text fill="#000000" font-family="sans-serif" font-size="13" lengthAdjust="spacing" textLength="7" x="671.5689" y="531.683">1</text><text fill="#000000" font-family="sans-serif" font-size="13" lengthAdjust="spacing" textLength="5" x="1377.9497" y="496.7576">*</text><!--MD5=[bf1701638b109f176f85067536801975]
link CatalogueRepository to Catalogue--><path codeLine="149" d="M856.17,542.25 C867.7,500.63 891.96,439.3 939,411 C989.46,380.64 3010.86,377.08 3059,411 C3101.38,440.86 3114.95,502.45 3119.2,543.63 " fill="none" id="CatalogueRepository-to-Catalogue" style="stroke:#A80036;stroke-width:1.0;"/><polygon fill="#A80036" points="3119.7,548.79,3122.8325,539.4526,3119.228,543.8123,3114.8682,540.2078,3119.7,548.79" style="stroke:#A80036;stroke-width:1.0;"/><text fill="#000000" font-family="sans-serif" font-size="13" lengthAdjust="spacing" textLength="33" x="926.5" y="381.4951">saves</text><text fill="#000000" font-family="sans-serif" font-size="13" lengthAdjust="spacing" textLength="7" x="858.1893" y="531.7757">1</text><text fill="#000000" font-family="sans-serif" font-size="13" lengthAdjust="spacing" textLength="5" x="3113.9994" y="538.2326">*</text><!--MD5=[307a5b827bcc56f3ed1b2686d6f64efd]
link Service to Title--><path codeLine="151" d="M1691.78,534.97 C1721.89,493.07 1771.31,435.98 1831,411 C1941.7,364.68 2810.88,344.85 2911,411 C2953.14,438.84 2971.36,496.11 2979.19,537.24 " fill="none" id="Service-to-Title" style="stroke:#A80036;stroke-width:1.0;"/><polygon fill="#A80036" points="2980.1,542.17,2982.4182,532.5979,2979.2018,537.2513,2974.5483,534.035,2980.1,542.17" style="stroke:#A80036;stroke-width:1.0;"/><text fill="#000000" font-family="sans-serif" font-size="13" lengthAdjust="spacing" textLength="21" x="1902.5" y="381.4951">has</text><text fill="#000000" font-family="sans-serif" font-size="13" lengthAdjust="spacing" textLength="7" x="1696.9618" y="524.0447">1</text><text fill="#000000" font-family="sans-serif" font-size="13" lengthAdjust="spacing" textLength="7" x="2971.7613" y="531.683">1</text><!--MD5=[64ca70a6196ae3efe798d45de5ac438f]
link Service to BriefDescription--><path codeLine="152" d="M1691.78,534.97 C1721.89,493.07 1771.31,435.98 1831,411 C1916.48,375.23 2582.68,368.45 2665,411 C2716.01,437.36 2750.43,495.72 2769.6,537.47 " fill="none" id="Service-to-BriefDescription" style="stroke:#A80036;stroke-width:1.0;"/><polygon fill="#A80036" points="2771.75,542.22,2771.6672,532.3715,2769.681,537.6682,2764.3843,535.6819,2771.75,542.22" style="stroke:#A80036;stroke-width:1.0;"/><text fill="#000000" font-family="sans-serif" font-size="13" lengthAdjust="spacing" textLength="21" x="1930.5" y="381.4951">has</text><text fill="#000000" font-family="sans-serif" font-size="13" lengthAdjust="spacing" textLength="7" x="1688.9336" y="524.0447">1</text><text fill="#000000" font-family="sans-serif" font-size="13" lengthAdjust="spacing" textLength="7" x="2761.6023" y="531.741">1</text><!--MD5=[a08ec51e3e9ff54b937670f6ff8bd62c]
link Service to CompleteDescription--><path codeLine="153" d="M1691.78,534.97 C1721.89,493.07 1771.31,435.98 1831,411 C1944.16,363.65 2272.24,358.29 2383,411 C2437.78,437.07 2478.23,495.98 2501.43,537.92 " fill="none" id="Service-to-CompleteDescription" style="stroke:#A80036;stroke-width:1.0;"/><polygon fill="#A80036" points="2503.89,542.43,2503.0785,532.6146,2501.4897,538.0438,2496.0606,536.4551,2503.89,542.43" style="stroke:#A80036;stroke-width:1.0;"/><text fill="#000000" font-family="sans-serif" font-size="13" lengthAdjust="spacing" textLength="21" x="1958.5" y="381.4951">has</text><text fill="#000000" font-family="sans-serif" font-size="13" lengthAdjust="spacing" textLength="7" x="1701.3945" y="524.1833">1</text><text fill="#000000" font-family="sans-serif" font-size="13" lengthAdjust="spacing" textLength="7" x="2492.9796" y="531.673">1</text><!--MD5=[0a09fdf58fab1d6c8de880b74d0d184d]
link Service to Keyword--><path codeLine="154" d="M1691.78,534.97 C1721.89,493.07 1771.31,435.98 1831,411 C1907.26,379.09 2132.36,368.06 2203,411 C2247.86,438.27 2271.37,495.94 2282.95,537.32 " fill="none" id="Service-to-Keyword" style="stroke:#A80036;stroke-width:1.0;"/><polygon fill="#A80036" points="2284.3,542.28,2285.7959,532.5454,2282.9868,537.4555,2278.0767,534.6465,2284.3,542.28" style="stroke:#A80036;stroke-width:1.0;"/><text fill="#000000" font-family="sans-serif" font-size="13" lengthAdjust="spacing" textLength="21" x="1986.5" y="381.4951">has</text><text fill="#000000" font-family="sans-serif" font-size="13" lengthAdjust="spacing" textLength="7" x="1696.9618" y="524.0447">1</text><text fill="#000000" font-family="sans-serif" font-size="13" lengthAdjust="spacing" textLength="5" x="2277.445" y="531.4982">*</text><!--MD5=[4b39c4de4f5956f9c51a87657979474f]
link Service to Feedback--><path codeLine="155" d="M1691.78,534.97 C1721.89,493.07 1771.31,435.98 1831,411 C1874.87,392.64 1894.08,392.77 1938,411 C1999.53,436.54 2050.53,495.77 2080.85,537.91 " fill="none" id="Service-to-Feedback" style="stroke:#A80036;stroke-width:1.0;"/><polygon fill="#A80036" points="2083.9,542.19,2081.9366,532.5388,2080.9992,538.1175,2075.4206,537.1801,2083.9,542.19" style="stroke:#A80036;stroke-width:1.0;"/><text fill="#000000" font-family="sans-serif" font-size="13" lengthAdjust="spacing" textLength="21" x="2014.5" y="381.4951">has</text><text fill="#000000" font-family="sans-serif" font-size="13" lengthAdjust="spacing" textLength="7" x="1712.507" y="524.1833">1</text><text fill="#000000" font-family="sans-serif" font-size="13" lengthAdjust="spacing" textLength="22" x="2055.8278" y="531.7062">0..1</text><!--MD5=[97e168008b52a7eda5de4adba506e93f]
link Service to Form--><path codeLine="156" d="M1790.3,584.5 C1809.33,584.5 1827.63,584.5 1842.92,584.5 " fill="none" id="Service-to-Form" style="stroke:#A80036;stroke-width:1.0;"/><polygon fill="#A80036" points="1847.99,584.5,1839.0015,580.4743,1842.99,584.4857,1838.9786,588.4743,1847.99,584.5" style="stroke:#A80036;stroke-width:1.0;"/><text fill="#000000" font-family="sans-serif" font-size="13" lengthAdjust="spacing" textLength="21" x="1808.5" y="577.9951">has</text><text fill="#000000" font-family="sans-serif" font-size="13" lengthAdjust="spacing" textLength="7" x="1798.0353" y="581.5441">1</text><text fill="#000000" font-family="sans-serif" font-size="13" lengthAdjust="spacing" textLength="5" x="1835.0473" y="580.3524">*</text><!--MD5=[101442fa8ca069ed2909db1ffddcdbd9]
link Service to Catalogue--><path codeLine="157" d="M1691.78,534.97 C1721.89,493.07 1771.31,435.98 1831,411 C1893.93,384.66 3003.23,371.71 3059,411 C3101.38,440.86 3114.95,502.45 3119.2,543.63 " fill="none" id="Service-to-Catalogue" style="stroke:#A80036;stroke-width:1.0;"/><polygon fill="#A80036" points="3119.7,548.79,3122.8325,539.4526,3119.228,543.8123,3114.8682,540.2078,3119.7,548.79" style="stroke:#A80036;stroke-width:1.0;"/><text fill="#000000" font-family="sans-serif" font-size="13" lengthAdjust="spacing" textLength="77" x="1818.5" y="381.4951">is available in</text><text fill="#000000" font-family="sans-serif" font-size="13" lengthAdjust="spacing" textLength="7" x="1688.9336" y="524.0447">1</text><text fill="#000000" font-family="sans-serif" font-size="13" lengthAdjust="spacing" textLength="7" x="3120.1056" y="538.2326">1</text><!--MD5=[42c8406f32021ef3d0f9f6aa911ea9da]
@startuml
skinparam classAttributeIconSize 0

package "Presentation" #DDDDDD {
class SaveDraftUI<<presentation>>{

}
}


package "Application" #DDDDDD {
class SaveDraftController<<application>>{
+create()
+getDrafts()
+getCatalogues()
+saveService(serviceDraft)
}
}


package "Domain" #DDDDDD {
class Service<<Entity>><<Root>>{
+create(title, briefDescription, completeDescription, \nfeedback, keywordList, formList)
}

class ServiceDraft<<Entity>><<Root>>{
+getTitle()
+getBriefDescription()
+getCompleteDescription()
+getFeedback()
+getKeywordList()
+getFormList()
}

class Form<<Entity>><<Root>>{
}

class Catalogue<<Entity>><<Root>>{
}

class Title<<Value Object>>{
+createTitle(title)
-validate(title)
}

class BriefDescription<<Value Object>>{
+createBriefDescription(briefDescription)
-validate(briefDescription)
}

class CompleteDescription<<Value Object>>{
+createDescricaoCompleta(completeDescription)
-validate(completeDescription)
}

class Keyword<<Value Object>>{
+createKeyword(keyword)
-validate(keyword)
}

class Feedback<<Value Object>>{
+createFeedback(feedback)
-validate(feedback)
}



package Builder #DDDDDD {
class ServiceBuilder<<builder>>{
+create()
+withTitle(title)
+withBriefDescription(briefDescription)
+withCompleteDescription(completeDescription)
+withFeedback(feedback)
+withKeywordList(keywordList)
+withFormList(formList)
+build()
}

}

}

package Persistence #DDDDDD {
class PersistenceContext<<persistence>>{
+repositories()
}

class AppSettings<<persistence>>{
+instance()
+getRepositoryFactory()
}

package Factory #DDDDDD {
class RepositoryFactory<<factory>>{
+create()
+servicos()
+catalogos()
+formularios()
}
}

package "Repository" #DDDDDD {
class ServiceRepository<<repository>>{
+create()
+save(service)
}

class ServiceDraftRepository<<repository>>{
+create()
+findAll()
}

class CatalogueRepository<<repository>>{
+create()
+findAll()
}

interface ServiceRepositoryInterface{

}

interface ServiceDraftRepositoryInterface{

}

interface CatalogueRepositoryInterface{

}
}

SaveDraftUI ..> SaveDraftController
SaveDraftController ..> ServiceBuilder
SaveDraftController ..> PersistenceContext

ServiceRepository ..> ServiceRepositoryInterface
ServiceDraftRepository ..> ServiceDraftRepositoryInterface
CatalogueRepository ..> CatalogueRepositoryInterface

AppSettings -> RepositoryFactory : creates
PersistenceContext -> AppSettings : implements

RepositoryFactory "1" -> "1" ServiceRepository : has
RepositoryFactory "1" -> "1" CatalogueRepository : has
RepositoryFactory "1" -> "1" ServiceDraftRepository : has

ServiceRepository "1" -> "*" Service : saves
ServiceBuilder "1" -> "*" Service : cria
ServiceDraftRepository "1" -> "*" ServiceDraft : saves
CatalogueRepository "1" -> "*" Catalogue : saves

Service "1" -> "1" Title : has
Service "1" -> "1" BriefDescription : has
Service "1" -> "1" CompleteDescription : has
Service "1" -> "*" Keyword : has
Service "1" -> "0..1" Feedback : has
Service "1" -> "*" Form : has
Service "1" -> "1" Catalogue : is available in


@enduml

PlantUML version 1.2021.5(Sun Apr 25 12:20:28 BST 2021)
(GPL source distribution)
Java Runtime: OpenJDK Runtime Environment
JVM: Dynamic Code Evolution 64-Bit Server VM
Default Encoding: Cp1252
Language: pt
Country: PT
--></g></svg>