<?xml version="1.0" encoding="UTF-8" standalone="no"?><svg xmlns="http://www.w3.org/2000/svg" xmlns:xlink="http://www.w3.org/1999/xlink" contentScriptType="application/ecmascript" contentStyleType="text/css" height="1777px" preserveAspectRatio="none" style="width:3908px;height:1777px;" version="1.1" viewBox="0 0 3908 1777" width="3908px" zoomAndPan="magnify"><defs><filter height="300%" id="f1l7zg42frun2k" width="300%" x="-1" y="-1"><feGaussianBlur result="blurOut" stdDeviation="2.0"/><feColorMatrix in="blurOut" result="blurOut2" type="matrix" values="0 0 0 0 0 0 0 0 0 0 0 0 0 0 0 0 0 0 .4 0"/><feOffset dx="4.0" dy="4.0" in="blurOut2" result="blurOut3"/><feBlend in="SourceGraphic" in2="blurOut3" mode="normal"/></filter></defs><g><rect fill="#FFFFFF" filter="url(#f1l7zg42frun2k)" height="1653.1484" style="stroke:#A80036;stroke-width:1.0;" width="10" x="94" y="99.6094"/><rect fill="#FFFFFF" filter="url(#f1l7zg42frun2k)" height="263.6797" style="stroke:#A80036;stroke-width:1.0;" width="10" x="495" y="121.9609"/><rect fill="#FFFFFF" filter="url(#f1l7zg42frun2k)" height="151.7578" style="stroke:#A80036;stroke-width:1.0;" width="10" x="495" y="415.9922"/><rect fill="#FFFFFF" filter="url(#f1l7zg42frun2k)" height="46.7031" style="stroke:#A80036;stroke-width:1.0;" width="10" x="495" y="598.1016"/><rect fill="#FFFFFF" filter="url(#f1l7zg42frun2k)" height="1077.6016" style="stroke:#A80036;stroke-width:1.0;" width="10" x="495" y="675.1563"/><rect fill="#FFFFFF" filter="url(#f1l7zg42frun2k)" height="91.0547" style="stroke:#A80036;stroke-width:1.0;" width="10" x="674" y="264.2344"/><rect fill="#FFFFFF" filter="url(#f1l7zg42frun2k)" height="91.0547" style="stroke:#A80036;stroke-width:1.0;" width="10" x="674" y="446.3438"/><rect fill="#FFFFFF" filter="url(#f1l7zg42frun2k)" height="1000.5469" style="stroke:#A80036;stroke-width:1.0;" width="10" x="674" y="705.5078"/><rect fill="#FFFFFF" filter="url(#f1l7zg42frun2k)" height="30.3516" style="stroke:#A80036;stroke-width:1.0;" width="10" x="987" y="476.6953"/><rect fill="#FFFFFF" filter="url(#f1l7zg42frun2k)" height="30" style="stroke:#A80036;stroke-width:1.0;" width="10" x="1114.5" y="735.8594"/><rect fill="#FFFFFF" filter="url(#f1l7zg42frun2k)" height="30" style="stroke:#A80036;stroke-width:1.0;" width="10" x="1114.5" y="796.2109"/><rect fill="#FFFFFF" filter="url(#f1l7zg42frun2k)" height="30" style="stroke:#A80036;stroke-width:1.0;" width="10" x="1114.5" y="856.5625"/><rect fill="#FFFFFF" filter="url(#f1l7zg42frun2k)" height="30" style="stroke:#A80036;stroke-width:1.0;" width="10" x="1114.5" y="916.9141"/><rect fill="#FFFFFF" filter="url(#f1l7zg42frun2k)" height="30" style="stroke:#A80036;stroke-width:1.0;" width="10" x="1114.5" y="977.2656"/><rect fill="#FFFFFF" filter="url(#f1l7zg42frun2k)" height="30" style="stroke:#A80036;stroke-width:1.0;" width="10" x="1114.5" y="1037.6172"/><rect fill="#FFFFFF" filter="url(#f1l7zg42frun2k)" height="30" style="stroke:#A80036;stroke-width:1.0;" width="10" x="1227" y="1097.9688"/><rect fill="#FFFFFF" filter="url(#f1l7zg42frun2k)" height="30" style="stroke:#A80036;stroke-width:1.0;" width="10" x="1227" y="1158.3203"/><rect fill="#FFFFFF" filter="url(#f1l7zg42frun2k)" height="30" style="stroke:#A80036;stroke-width:1.0;" width="10" x="1227" y="1218.6719"/><rect fill="#FFFFFF" filter="url(#f1l7zg42frun2k)" height="30" style="stroke:#A80036;stroke-width:1.0;" width="10" x="1227" y="1279.0234"/><rect fill="#FFFFFF" filter="url(#f1l7zg42frun2k)" height="30" style="stroke:#A80036;stroke-width:1.0;" width="10" x="1227" y="1339.375"/><rect fill="#FFFFFF" filter="url(#f1l7zg42frun2k)" height="30" style="stroke:#A80036;stroke-width:1.0;" width="10" x="1227" y="1399.7266"/><rect fill="#FFFFFF" filter="url(#f1l7zg42frun2k)" height="30" style="stroke:#A80036;stroke-width:1.0;" width="10" x="1227" y="1460.0781"/><rect fill="#FFFFFF" filter="url(#f1l7zg42frun2k)" height="94.5703" style="stroke:#A80036;stroke-width:1.0;" width="10" x="1227" y="1520.4297"/><rect fill="#FFFFFF" filter="url(#f1l7zg42frun2k)" height="30.3516" style="stroke:#A80036;stroke-width:1.0;" width="10" x="1753.5" y="294.5859"/><rect fill="#FFFFFF" filter="url(#f1l7zg42frun2k)" height="30.3516" style="stroke:#A80036;stroke-width:1.0;" width="10" x="1753.5" y="1645.3516"/><line style="stroke:#A80036;stroke-width:1.0;stroke-dasharray:5.0,5.0;" x1="99" x2="99" y1="89.6094" y2="1770.7578"/><line style="stroke:#A80036;stroke-width:1.0;stroke-dasharray:5.0,5.0;" x1="499.5" x2="499.5" y1="89.6094" y2="1770.7578"/><line style="stroke:#A80036;stroke-width:1.0;stroke-dasharray:5.0,5.0;" x1="678.5" x2="678.5" y1="172.0703" y2="1770.7578"/><line style="stroke:#A80036;stroke-width:1.0;stroke-dasharray:5.0,5.0;" x1="836.5" x2="836.5" y1="89.6094" y2="1770.7578"/><line style="stroke:#A80036;stroke-width:1.0;stroke-dasharray:5.0,5.0;" x1="991.5" x2="991.5" y1="89.6094" y2="1770.7578"/><line style="stroke:#A80036;stroke-width:1.0;stroke-dasharray:5.0,5.0;" x1="1119.5" x2="1119.5" y1="89.6094" y2="1770.7578"/><line style="stroke:#A80036;stroke-width:1.0;stroke-dasharray:5.0,5.0;" x1="1231.5" x2="1231.5" y1="89.6094" y2="1770.7578"/><line style="stroke:#A80036;stroke-width:1.0;stroke-dasharray:5.0,5.0;" x1="1640" x2="1640" y1="1570.5391" y2="1770.7578"/><line style="stroke:#A80036;stroke-width:1.0;stroke-dasharray:5.0,5.0;" x1="1758" x2="1758" y1="89.6094" y2="1770.7578"/><line style="stroke:#A80036;stroke-width:1.0;stroke-dasharray:5.0,5.0;" x1="1899" x2="1899" y1="89.6094" y2="1770.7578"/><line style="stroke:#A80036;stroke-width:1.0;stroke-dasharray:5.0,5.0;" x1="2040" x2="2040" y1="89.6094" y2="1770.7578"/><line style="stroke:#A80036;stroke-width:1.0;stroke-dasharray:5.0,5.0;" x1="2179" x2="2179" y1="89.6094" y2="1770.7578"/><line style="stroke:#A80036;stroke-width:1.0;stroke-dasharray:5.0,5.0;" x1="2304" x2="2304" y1="89.6094" y2="1770.7578"/><line style="stroke:#A80036;stroke-width:1.0;stroke-dasharray:5.0,5.0;" x1="2421" x2="2421" y1="89.6094" y2="1770.7578"/><line style="stroke:#A80036;stroke-width:1.0;stroke-dasharray:5.0,5.0;" x1="2564" x2="2564" y1="89.6094" y2="1770.7578"/><line style="stroke:#A80036;stroke-width:1.0;stroke-dasharray:5.0,5.0;" x1="2697" x2="2697" y1="89.6094" y2="1770.7578"/><line style="stroke:#A80036;stroke-width:1.0;stroke-dasharray:5.0,5.0;" x1="2803" x2="2803" y1="89.6094" y2="1770.7578"/><line style="stroke:#A80036;stroke-width:1.0;stroke-dasharray:5.0,5.0;" x1="2909" x2="2909" y1="89.6094" y2="1770.7578"/><line style="stroke:#A80036;stroke-width:1.0;stroke-dasharray:5.0,5.0;" x1="3015" x2="3015" y1="89.6094" y2="1770.7578"/><line style="stroke:#A80036;stroke-width:1.0;stroke-dasharray:5.0,5.0;" x1="3121" x2="3121" y1="89.6094" y2="1770.7578"/><line style="stroke:#A80036;stroke-width:1.0;stroke-dasharray:5.0,5.0;" x1="3232" x2="3232" y1="89.6094" y2="1770.7578"/><line style="stroke:#A80036;stroke-width:1.0;stroke-dasharray:5.0,5.0;" x1="3349" x2="3349" y1="89.6094" y2="1770.7578"/><line style="stroke:#A80036;stroke-width:1.0;stroke-dasharray:5.0,5.0;" x1="3483" x2="3483" y1="89.6094" y2="1770.7578"/><line style="stroke:#A80036;stroke-width:1.0;stroke-dasharray:5.0,5.0;" x1="3619" x2="3619" y1="89.6094" y2="1770.7578"/><line style="stroke:#A80036;stroke-width:1.0;stroke-dasharray:5.0,5.0;" x1="3738" x2="3738" y1="89.6094" y2="1770.7578"/><line style="stroke:#A80036;stroke-width:1.0;stroke-dasharray:5.0,5.0;" x1="3850" x2="3850" y1="89.6094" y2="1770.7578"/><text fill="#000000" font-family="sans-serif" font-size="14" lengthAdjust="spacing" textLength="182" x="5" y="86.5332">Help Desk Services Manager</text><ellipse cx="99" cy="15" fill="#FEFECE" filter="url(#f1l7zg42frun2k)" rx="8" ry="8" style="stroke:#A80036;stroke-width:2.0;"/><path d="M99,23 L99,50 M86,31 L112,31 M99,50 L86,65 M99,50 L112,65 " fill="none" filter="url(#f1l7zg42frun2k)" style="stroke:#A80036;stroke-width:2.0;"/><rect fill="#FEFECE" filter="url(#f1l7zg42frun2k)" height="49.2188" style="stroke:#A80036;stroke-width:1.5;" width="125" x="435.5" y="35.3906"/><text fill="#000000" font-family="sans-serif" font-size="14" lengthAdjust="spacing" textLength="111" x="442.5" y="56.9238">&lt;&lt;presentation&gt;&gt;</text><text fill="#000000" font-family="sans-serif" font-size="14" lengthAdjust="spacing" textLength="75" x="460.5" y="74.5332">SaveDraftUI</text><text fill="#000000" font-family="sans-serif" font-size="14" lengthAdjust="spacing" textLength="95" x="786" y="68.9238">&lt;&lt;repository&gt;&gt;</text><text fill="#000000" font-family="sans-serif" font-size="14" lengthAdjust="spacing" textLength="146" x="760.5" y="86.5332">ServiceDraftRepository</text><path d="M818.5,18.3906 C818.5,8.3906 836.5,8.3906 836.5,8.3906 C836.5,8.3906 854.5,8.3906 854.5,18.3906 L854.5,44.3906 C854.5,54.3906 836.5,54.3906 836.5,54.3906 C836.5,54.3906 818.5,54.3906 818.5,44.3906 L818.5,18.3906 " fill="#FEFECE" filter="url(#f1l7zg42frun2k)" style="stroke:#000000;stroke-width:1.5;"/><path d="M818.5,18.3906 C818.5,28.3906 836.5,28.3906 836.5,28.3906 C836.5,28.3906 854.5,28.3906 854.5,18.3906 " fill="none" style="stroke:#000000;stroke-width:1.5;"/><text fill="#000000" font-family="sans-serif" font-size="14" lengthAdjust="spacing" textLength="95" x="941.5" y="68.9238">&lt;&lt;repository&gt;&gt;</text><text fill="#000000" font-family="sans-serif" font-size="14" lengthAdjust="spacing" textLength="133" x="922.5" y="86.5332">CatalogueRepository</text><path d="M974,18.3906 C974,8.3906 992,8.3906 992,8.3906 C992,8.3906 1010,8.3906 1010,18.3906 L1010,44.3906 C1010,54.3906 992,54.3906 992,54.3906 C992,54.3906 974,54.3906 974,44.3906 L974,18.3906 " fill="#FEFECE" filter="url(#f1l7zg42frun2k)" style="stroke:#000000;stroke-width:1.5;"/><path d="M974,18.3906 C974,28.3906 992,28.3906 992,28.3906 C992,28.3906 1010,28.3906 1010,18.3906 " fill="none" style="stroke:#000000;stroke-width:1.5;"/><rect fill="#FEFECE" filter="url(#f1l7zg42frun2k)" height="49.2188" style="stroke:#A80036;stroke-width:1.5;" width="92" x="1071.5" y="35.3906"/><text fill="#000000" font-family="sans-serif" font-size="14" lengthAdjust="spacing" textLength="78" x="1078.5" y="56.9238">&lt;&lt;domain&gt;&gt;</text><text fill="#000000" font-family="sans-serif" font-size="14" lengthAdjust="spacing" textLength="78" x="1078.5" y="74.5332">ServiceDraft</text><rect fill="#FEFECE" filter="url(#f1l7zg42frun2k)" height="49.2188" style="stroke:#A80036;stroke-width:1.5;" width="105" x="1177.5" y="35.3906"/><text fill="#000000" font-family="sans-serif" font-size="14" lengthAdjust="spacing" textLength="75" x="1192.5" y="56.9238">&lt;&lt;builder&gt;&gt;</text><text fill="#000000" font-family="sans-serif" font-size="14" lengthAdjust="spacing" textLength="91" x="1184.5" y="74.5332">ServiceBuilder</text><text fill="#000000" font-family="sans-serif" font-size="14" lengthAdjust="spacing" textLength="95" x="1708" y="68.9238">&lt;&lt;repository&gt;&gt;</text><text fill="#000000" font-family="sans-serif" font-size="14" lengthAdjust="spacing" textLength="115" x="1698" y="86.5332">ServiceRepository</text><path d="M1740.5,18.3906 C1740.5,8.3906 1758.5,8.3906 1758.5,8.3906 C1758.5,8.3906 1776.5,8.3906 1776.5,18.3906 L1776.5,44.3906 C1776.5,54.3906 1758.5,54.3906 1758.5,54.3906 C1758.5,54.3906 1740.5,54.3906 1740.5,44.3906 L1740.5,18.3906 " fill="#FEFECE" filter="url(#f1l7zg42frun2k)" style="stroke:#000000;stroke-width:1.5;"/><path d="M1740.5,18.3906 C1740.5,28.3906 1758.5,28.3906 1758.5,28.3906 C1758.5,28.3906 1776.5,28.3906 1776.5,18.3906 " fill="none" style="stroke:#000000;stroke-width:1.5;"/><rect fill="#FEFECE" filter="url(#f1l7zg42frun2k)" height="49.2188" style="stroke:#A80036;stroke-width:1.5;" width="136" x="1829" y="35.3906"/><text fill="#000000" font-family="sans-serif" font-size="14" lengthAdjust="spacing" textLength="105" x="1844.5" y="56.9238">&lt;&lt;persistence&gt;&gt;</text><text fill="#000000" font-family="sans-serif" font-size="14" lengthAdjust="spacing" textLength="122" x="1836" y="74.5332">PersistenceContext</text><rect fill="#FEFECE" filter="url(#f1l7zg42frun2k)" height="49.2188" style="stroke:#A80036;stroke-width:1.5;" width="119" x="1979" y="35.3906"/><text fill="#000000" font-family="sans-serif" font-size="14" lengthAdjust="spacing" textLength="105" x="1986" y="56.9238">&lt;&lt;persistence&gt;&gt;</text><text fill="#000000" font-family="sans-serif" font-size="14" lengthAdjust="spacing" textLength="76" x="2000.5" y="74.5332">AppSettings</text><rect fill="#FEFECE" filter="url(#f1l7zg42frun2k)" height="49.2188" style="stroke:#A80036;stroke-width:1.5;" width="130" x="2112" y="35.3906"/><text fill="#000000" font-family="sans-serif" font-size="14" lengthAdjust="spacing" textLength="75" x="2139.5" y="56.9238">&lt;&lt;factory&gt;&gt;</text><text fill="#000000" font-family="sans-serif" font-size="14" lengthAdjust="spacing" textLength="116" x="2119" y="74.5332">RepositoryFactory</text><rect fill="#FEFECE" filter="url(#f1l7zg42frun2k)" height="49.2188" style="stroke:#A80036;stroke-width:1.5;" width="92" x="2256" y="35.3906"/><text fill="#000000" font-family="sans-serif" font-size="14" lengthAdjust="spacing" textLength="78" x="2263" y="56.9238">&lt;&lt;domain&gt;&gt;</text><text fill="#000000" font-family="sans-serif" font-size="14" lengthAdjust="spacing" textLength="27" x="2288.5" y="74.5332">Title</text><rect fill="#FEFECE" filter="url(#f1l7zg42frun2k)" height="49.2188" style="stroke:#A80036;stroke-width:1.5;" width="114" x="2362" y="35.3906"/><text fill="#000000" font-family="sans-serif" font-size="14" lengthAdjust="spacing" textLength="78" x="2380" y="56.9238">&lt;&lt;domain&gt;&gt;</text><text fill="#000000" font-family="sans-serif" font-size="14" lengthAdjust="spacing" textLength="100" x="2369" y="74.5332">BriefDescription</text><rect fill="#FEFECE" filter="url(#f1l7zg42frun2k)" height="49.2188" style="stroke:#A80036;stroke-width:1.5;" width="145" x="2490" y="35.3906"/><text fill="#000000" font-family="sans-serif" font-size="14" lengthAdjust="spacing" textLength="78" x="2523.5" y="56.9238">&lt;&lt;domain&gt;&gt;</text><text fill="#000000" font-family="sans-serif" font-size="14" lengthAdjust="spacing" textLength="131" x="2497" y="74.5332">CompleteDescription</text><rect fill="#FEFECE" filter="url(#f1l7zg42frun2k)" height="49.2188" style="stroke:#A80036;stroke-width:1.5;" width="92" x="2649" y="35.3906"/><text fill="#000000" font-family="sans-serif" font-size="14" lengthAdjust="spacing" textLength="78" x="2656" y="56.9238">&lt;&lt;domain&gt;&gt;</text><text fill="#000000" font-family="sans-serif" font-size="14" lengthAdjust="spacing" textLength="54" x="2668" y="74.5332">Keyword</text><rect fill="#FEFECE" filter="url(#f1l7zg42frun2k)" height="49.2188" style="stroke:#A80036;stroke-width:1.5;" width="92" x="2755" y="35.3906"/><text fill="#000000" font-family="sans-serif" font-size="14" lengthAdjust="spacing" textLength="78" x="2762" y="56.9238">&lt;&lt;domain&gt;&gt;</text><text fill="#000000" font-family="sans-serif" font-size="14" lengthAdjust="spacing" textLength="63" x="2769.5" y="74.5332">Feedback</text><rect fill="#FEFECE" filter="url(#f1l7zg42frun2k)" height="49.2188" style="stroke:#A80036;stroke-width:1.5;" width="92" x="2861" y="35.3906"/><text fill="#000000" font-family="sans-serif" font-size="14" lengthAdjust="spacing" textLength="78" x="2868" y="56.9238">&lt;&lt;domain&gt;&gt;</text><text fill="#000000" font-family="sans-serif" font-size="14" lengthAdjust="spacing" textLength="65" x="2874.5" y="74.5332">Catalogue</text><rect fill="#FEFECE" filter="url(#f1l7zg42frun2k)" height="49.2188" style="stroke:#A80036;stroke-width:1.5;" width="92" x="2967" y="35.3906"/><text fill="#000000" font-family="sans-serif" font-size="14" lengthAdjust="spacing" textLength="78" x="2974" y="56.9238">&lt;&lt;domain&gt;&gt;</text><text fill="#000000" font-family="sans-serif" font-size="14" lengthAdjust="spacing" textLength="69" x="2978.5" y="74.5332">FormName</text><rect fill="#FEFECE" filter="url(#f1l7zg42frun2k)" height="49.2188" style="stroke:#A80036;stroke-width:1.5;" width="92" x="3073" y="35.3906"/><text fill="#000000" font-family="sans-serif" font-size="14" lengthAdjust="spacing" textLength="78" x="3080" y="56.9238">&lt;&lt;domain&gt;&gt;</text><text fill="#000000" font-family="sans-serif" font-size="14" lengthAdjust="spacing" textLength="65" x="3086.5" y="74.5332">FormType</text><rect fill="#FEFECE" filter="url(#f1l7zg42frun2k)" height="49.2188" style="stroke:#A80036;stroke-width:1.5;" width="103" x="3179" y="35.3906"/><text fill="#000000" font-family="sans-serif" font-size="14" lengthAdjust="spacing" textLength="78" x="3191.5" y="56.9238">&lt;&lt;domain&gt;&gt;</text><text fill="#000000" font-family="sans-serif" font-size="14" lengthAdjust="spacing" textLength="89" x="3186" y="74.5332">AttributeName</text><rect fill="#FEFECE" filter="url(#f1l7zg42frun2k)" height="49.2188" style="stroke:#A80036;stroke-width:1.5;" width="102" x="3296" y="35.3906"/><text fill="#000000" font-family="sans-serif" font-size="14" lengthAdjust="spacing" textLength="78" x="3308" y="56.9238">&lt;&lt;domain&gt;&gt;</text><text fill="#000000" font-family="sans-serif" font-size="14" lengthAdjust="spacing" textLength="88" x="3303" y="74.5332">AttributeLabel</text><rect fill="#FEFECE" filter="url(#f1l7zg42frun2k)" height="49.2188" style="stroke:#A80036;stroke-width:1.5;" width="138" x="3412" y="35.3906"/><text fill="#000000" font-family="sans-serif" font-size="14" lengthAdjust="spacing" textLength="78" x="3442" y="56.9238">&lt;&lt;domain&gt;&gt;</text><text fill="#000000" font-family="sans-serif" font-size="14" lengthAdjust="spacing" textLength="124" x="3419" y="74.5332">AttributeDescription</text><rect fill="#FEFECE" filter="url(#f1l7zg42frun2k)" height="49.2188" style="stroke:#A80036;stroke-width:1.5;" width="107" x="3564" y="35.3906"/><text fill="#000000" font-family="sans-serif" font-size="14" lengthAdjust="spacing" textLength="78" x="3578.5" y="56.9238">&lt;&lt;domain&gt;&gt;</text><text fill="#000000" font-family="sans-serif" font-size="14" lengthAdjust="spacing" textLength="93" x="3571" y="74.5332">AttributeRegex</text><rect fill="#FEFECE" filter="url(#f1l7zg42frun2k)" height="49.2188" style="stroke:#A80036;stroke-width:1.5;" width="103" x="3685" y="35.3906"/><text fill="#000000" font-family="sans-serif" font-size="14" lengthAdjust="spacing" textLength="78" x="3697.5" y="56.9238">&lt;&lt;domain&gt;&gt;</text><text fill="#000000" font-family="sans-serif" font-size="14" lengthAdjust="spacing" textLength="89" x="3692" y="74.5332">AttributeScript</text><rect fill="#FEFECE" filter="url(#f1l7zg42frun2k)" height="49.2188" style="stroke:#A80036;stroke-width:1.5;" width="92" x="3802" y="35.3906"/><text fill="#000000" font-family="sans-serif" font-size="14" lengthAdjust="spacing" textLength="78" x="3809" y="56.9238">&lt;&lt;domain&gt;&gt;</text><text fill="#000000" font-family="sans-serif" font-size="14" lengthAdjust="spacing" textLength="62" x="3817" y="74.5332">DataType</text><rect fill="#FFFFFF" filter="url(#f1l7zg42frun2k)" height="1653.1484" style="stroke:#A80036;stroke-width:1.0;" width="10" x="94" y="99.6094"/><rect fill="#FFFFFF" filter="url(#f1l7zg42frun2k)" height="263.6797" style="stroke:#A80036;stroke-width:1.0;" width="10" x="495" y="121.9609"/><rect fill="#FFFFFF" filter="url(#f1l7zg42frun2k)" height="151.7578" style="stroke:#A80036;stroke-width:1.0;" width="10" x="495" y="415.9922"/><rect fill="#FFFFFF" filter="url(#f1l7zg42frun2k)" height="46.7031" style="stroke:#A80036;stroke-width:1.0;" width="10" x="495" y="598.1016"/><rect fill="#FFFFFF" filter="url(#f1l7zg42frun2k)" height="1077.6016" style="stroke:#A80036;stroke-width:1.0;" width="10" x="495" y="675.1563"/><rect fill="#FFFFFF" filter="url(#f1l7zg42frun2k)" height="91.0547" style="stroke:#A80036;stroke-width:1.0;" width="10" x="674" y="264.2344"/><rect fill="#FFFFFF" filter="url(#f1l7zg42frun2k)" height="91.0547" style="stroke:#A80036;stroke-width:1.0;" width="10" x="674" y="446.3438"/><rect fill="#FFFFFF" filter="url(#f1l7zg42frun2k)" height="1000.5469" style="stroke:#A80036;stroke-width:1.0;" width="10" x="674" y="705.5078"/><rect fill="#FFFFFF" filter="url(#f1l7zg42frun2k)" height="30.3516" style="stroke:#A80036;stroke-width:1.0;" width="10" x="987" y="476.6953"/><rect fill="#FFFFFF" filter="url(#f1l7zg42frun2k)" height="30" style="stroke:#A80036;stroke-width:1.0;" width="10" x="1114.5" y="735.8594"/><rect fill="#FFFFFF" filter="url(#f1l7zg42frun2k)" height="30" style="stroke:#A80036;stroke-width:1.0;" width="10" x="1114.5" y="796.2109"/><rect fill="#FFFFFF" filter="url(#f1l7zg42frun2k)" height="30" style="stroke:#A80036;stroke-width:1.0;" width="10" x="1114.5" y="856.5625"/><rect fill="#FFFFFF" filter="url(#f1l7zg42frun2k)" height="30" style="stroke:#A80036;stroke-width:1.0;" width="10" x="1114.5" y="916.9141"/><rect fill="#FFFFFF" filter="url(#f1l7zg42frun2k)" height="30" style="stroke:#A80036;stroke-width:1.0;" width="10" x="1114.5" y="977.2656"/><rect fill="#FFFFFF" filter="url(#f1l7zg42frun2k)" height="30" style="stroke:#A80036;stroke-width:1.0;" width="10" x="1114.5" y="1037.6172"/><rect fill="#FFFFFF" filter="url(#f1l7zg42frun2k)" height="30" style="stroke:#A80036;stroke-width:1.0;" width="10" x="1227" y="1097.9688"/><rect fill="#FFFFFF" filter="url(#f1l7zg42frun2k)" height="30" style="stroke:#A80036;stroke-width:1.0;" width="10" x="1227" y="1158.3203"/><rect fill="#FFFFFF" filter="url(#f1l7zg42frun2k)" height="30" style="stroke:#A80036;stroke-width:1.0;" width="10" x="1227" y="1218.6719"/><rect fill="#FFFFFF" filter="url(#f1l7zg42frun2k)" height="30" style="stroke:#A80036;stroke-width:1.0;" width="10" x="1227" y="1279.0234"/><rect fill="#FFFFFF" filter="url(#f1l7zg42frun2k)" height="30" style="stroke:#A80036;stroke-width:1.0;" width="10" x="1227" y="1339.375"/><rect fill="#FFFFFF" filter="url(#f1l7zg42frun2k)" height="30" style="stroke:#A80036;stroke-width:1.0;" width="10" x="1227" y="1399.7266"/><rect fill="#FFFFFF" filter="url(#f1l7zg42frun2k)" height="30" style="stroke:#A80036;stroke-width:1.0;" width="10" x="1227" y="1460.0781"/><rect fill="#FFFFFF" filter="url(#f1l7zg42frun2k)" height="94.5703" style="stroke:#A80036;stroke-width:1.0;" width="10" x="1227" y="1520.4297"/><rect fill="#FFFFFF" filter="url(#f1l7zg42frun2k)" height="30.3516" style="stroke:#A80036;stroke-width:1.0;" width="10" x="1753.5" y="294.5859"/><rect fill="#FFFFFF" filter="url(#f1l7zg42frun2k)" height="30.3516" style="stroke:#A80036;stroke-width:1.0;" width="10" x="1753.5" y="1645.3516"/><polygon fill="#A80036" points="483,117.9609,493,121.9609,483,125.9609,487,121.9609" style="stroke:#A80036;stroke-width:1.0;"/><line style="stroke:#A80036;stroke-width:1.0;" x1="104" x2="489" y1="121.9609" y2="121.9609"/><text fill="#000000" font-family="sans-serif" font-size="13" font-weight="bold" lengthAdjust="spacing" textLength="7" x="111" y="117.1045">1</text><text fill="#000000" font-family="sans-serif" font-size="13" lengthAdjust="spacing" textLength="257" x="122" y="117.1045">initiates the request to save in a service draft</text><polygon fill="#A80036" points="595.5,148.3125,605.5,152.3125,595.5,156.3125,599.5,152.3125" style="stroke:#A80036;stroke-width:1.0;"/><line style="stroke:#A80036;stroke-width:1.0;" x1="505" x2="601.5" y1="152.3125" y2="152.3125"/><text fill="#000000" font-family="sans-serif" font-size="13" font-weight="bold" lengthAdjust="spacing" textLength="7" x="512" y="147.4561">2</text><text fill="#000000" font-family="sans-serif" font-size="13" lengthAdjust="spacing" textLength="36" x="523" y="147.4561">create</text><rect fill="#FEFECE" filter="url(#f1l7zg42frun2k)" height="49.2188" style="stroke:#A80036;stroke-width:1.5;" width="139" x="607.5" y="129.9609"/><text fill="#000000" font-family="sans-serif" font-size="14" lengthAdjust="spacing" textLength="100" x="627" y="151.4941">&lt;&lt;application&gt;&gt;</text><text fill="#000000" font-family="sans-serif" font-size="14" lengthAdjust="spacing" textLength="125" x="614.5" y="169.1035">SaveDraftController</text><rect fill="#FFFFFF" filter="url(#f1l7zg42frun2k)" height="42.7031" style="stroke:#000000;stroke-width:2.0;" width="145" x="604.5" y="194.1797"/><polygon fill="#EEEEEE" points="604.5,194.1797,666.5,194.1797,666.5,202.1797,656.5,212.1797,604.5,212.1797,604.5,194.1797" style="stroke:#000000;stroke-width:2.0;"/><text fill="#000000" font-family="sans-serif" font-size="13" font-weight="bold" lengthAdjust="spacing" textLength="17" x="617.5" y="209.6748">ref</text><text fill="#000000" font-family="sans-serif" font-size="13" lengthAdjust="spacing" textLength="123" x="617.5" y="229.6748">US-1-2002_SD_Repo</text><polygon fill="#A80036" points="662,260.2344,672,264.2344,662,268.2344,666,264.2344" style="stroke:#A80036;stroke-width:1.0;"/><line style="stroke:#A80036;stroke-width:1.0;" x1="505" x2="668" y1="264.2344" y2="264.2344"/><text fill="#000000" font-family="sans-serif" font-size="13" font-weight="bold" lengthAdjust="spacing" textLength="7" x="512" y="259.3779">3</text><text fill="#000000" font-family="sans-serif" font-size="13" lengthAdjust="spacing" textLength="60" x="523" y="259.3779">getDrafts()</text><polygon fill="#A80036" points="1741.5,290.5859,1751.5,294.5859,1741.5,298.5859,1745.5,294.5859" style="stroke:#A80036;stroke-width:1.0;"/><line style="stroke:#A80036;stroke-width:1.0;" x1="684" x2="1747.5" y1="294.5859" y2="294.5859"/><text fill="#000000" font-family="sans-serif" font-size="13" font-weight="bold" lengthAdjust="spacing" textLength="7" x="691" y="289.7295">4</text><text fill="#000000" font-family="sans-serif" font-size="13" lengthAdjust="spacing" textLength="43" x="702" y="289.7295">findAll()</text><polygon fill="#A80036" points="695,320.9375,685,324.9375,695,328.9375,691,324.9375" style="stroke:#A80036;stroke-width:1.0;"/><line style="stroke:#A80036;stroke-width:1.0;stroke-dasharray:2.0,2.0;" x1="689" x2="1757.5" y1="324.9375" y2="324.9375"/><text fill="#000000" font-family="sans-serif" font-size="13" font-weight="bold" lengthAdjust="spacing" textLength="7" x="701" y="320.0811">5</text><text fill="#000000" font-family="sans-serif" font-size="13" lengthAdjust="spacing" textLength="32" x="712" y="320.0811">drafts</text><polygon fill="#A80036" points="516,351.2891,506,355.2891,516,359.2891,512,355.2891" style="stroke:#A80036;stroke-width:1.0;"/><line style="stroke:#A80036;stroke-width:1.0;stroke-dasharray:2.0,2.0;" x1="510" x2="678" y1="355.2891" y2="355.2891"/><text fill="#000000" font-family="sans-serif" font-size="13" font-weight="bold" lengthAdjust="spacing" textLength="7" x="522" y="350.4326">6</text><text fill="#000000" font-family="sans-serif" font-size="13" lengthAdjust="spacing" textLength="32" x="533" y="350.4326">drafts</text><polygon fill="#A80036" points="115,381.6406,105,385.6406,115,389.6406,111,385.6406" style="stroke:#A80036;stroke-width:1.0;"/><line style="stroke:#A80036;stroke-width:1.0;" x1="109" x2="499" y1="385.6406" y2="385.6406"/><text fill="#000000" font-family="sans-serif" font-size="13" font-weight="bold" lengthAdjust="spacing" textLength="7" x="121" y="380.7842">7</text><text fill="#000000" font-family="sans-serif" font-size="13" lengthAdjust="spacing" textLength="331" x="132" y="380.7842">presents the draft list and asks the user to choose a draft</text><polygon fill="#A80036" points="483,411.9922,493,415.9922,483,419.9922,487,415.9922" style="stroke:#A80036;stroke-width:1.0;"/><line style="stroke:#A80036;stroke-width:1.0;" x1="104" x2="489" y1="415.9922" y2="415.9922"/><text fill="#000000" font-family="sans-serif" font-size="13" font-weight="bold" lengthAdjust="spacing" textLength="7" x="111" y="411.1357">8</text><text fill="#000000" font-family="sans-serif" font-size="13" lengthAdjust="spacing" textLength="89" x="122" y="411.1357">chooses a draft</text><polygon fill="#A80036" points="662,442.3438,672,446.3438,662,450.3438,666,446.3438" style="stroke:#A80036;stroke-width:1.0;"/><line style="stroke:#A80036;stroke-width:1.0;" x1="505" x2="668" y1="446.3438" y2="446.3438"/><text fill="#000000" font-family="sans-serif" font-size="13" font-weight="bold" lengthAdjust="spacing" textLength="7" x="512" y="441.4873">9</text><text fill="#000000" font-family="sans-serif" font-size="13" lengthAdjust="spacing" textLength="91" x="523" y="441.4873">getCatalogues()</text><polygon fill="#A80036" points="975,472.6953,985,476.6953,975,480.6953,979,476.6953" style="stroke:#A80036;stroke-width:1.0;"/><line style="stroke:#A80036;stroke-width:1.0;" x1="684" x2="981" y1="476.6953" y2="476.6953"/><text fill="#000000" font-family="sans-serif" font-size="13" font-weight="bold" lengthAdjust="spacing" textLength="14" x="691" y="471.8389">10</text><text fill="#000000" font-family="sans-serif" font-size="13" lengthAdjust="spacing" textLength="21" x="709" y="471.8389">all()</text><polygon fill="#A80036" points="695,503.0469,685,507.0469,695,511.0469,691,507.0469" style="stroke:#A80036;stroke-width:1.0;"/><line style="stroke:#A80036;stroke-width:1.0;stroke-dasharray:2.0,2.0;" x1="689" x2="991" y1="507.0469" y2="507.0469"/><text fill="#000000" font-family="sans-serif" font-size="13" font-weight="bold" lengthAdjust="spacing" textLength="14" x="701" y="502.1904">11</text><text fill="#000000" font-family="sans-serif" font-size="13" lengthAdjust="spacing" textLength="17" x="719" y="502.1904">list</text><polygon fill="#A80036" points="516,533.3984,506,537.3984,516,541.3984,512,537.3984" style="stroke:#A80036;stroke-width:1.0;"/><line style="stroke:#A80036;stroke-width:1.0;stroke-dasharray:2.0,2.0;" x1="510" x2="678" y1="537.3984" y2="537.3984"/><text fill="#000000" font-family="sans-serif" font-size="13" font-weight="bold" lengthAdjust="spacing" textLength="14" x="522" y="532.542">12</text><text fill="#000000" font-family="sans-serif" font-size="13" lengthAdjust="spacing" textLength="17" x="540" y="532.542">list</text><polygon fill="#A80036" points="115,563.75,105,567.75,115,571.75,111,567.75" style="stroke:#A80036;stroke-width:1.0;"/><line style="stroke:#A80036;stroke-width:1.0;" x1="109" x2="499" y1="567.75" y2="567.75"/><text fill="#000000" font-family="sans-serif" font-size="13" font-weight="bold" lengthAdjust="spacing" textLength="14" x="121" y="562.8936">13</text><text fill="#000000" font-family="sans-serif" font-size="13" lengthAdjust="spacing" textLength="349" x="139" y="562.8936">shows the catalogue list and request the user to choose one</text><polygon fill="#A80036" points="483,594.1016,493,598.1016,483,602.1016,487,598.1016" style="stroke:#A80036;stroke-width:1.0;"/><line style="stroke:#A80036;stroke-width:1.0;" x1="104" x2="489" y1="598.1016" y2="598.1016"/><text fill="#000000" font-family="sans-serif" font-size="13" font-weight="bold" lengthAdjust="spacing" textLength="14" x="111" y="593.2451">14</text><text fill="#000000" font-family="sans-serif" font-size="13" lengthAdjust="spacing" textLength="124" x="129" y="593.2451">selects the catalogue</text><polygon fill="#A80036" points="115,640.8047,105,644.8047,115,648.8047,111,644.8047" style="stroke:#A80036;stroke-width:1.0;"/><line style="stroke:#A80036;stroke-width:1.0;" x1="109" x2="499" y1="644.8047" y2="644.8047"/><text fill="#000000" font-family="sans-serif" font-size="13" font-weight="bold" lengthAdjust="spacing" textLength="14" x="121" y="631.7725">15</text><text fill="#000000" font-family="sans-serif" font-size="13" lengthAdjust="spacing" textLength="174" x="139" y="623.5967">validates, presents the current</text><text fill="#000000" font-family="sans-serif" font-size="13" lengthAdjust="spacing" textLength="277" x="139" y="639.9482">information in the draft and asks for confirmation</text><polygon fill="#A80036" points="483,671.1563,493,675.1563,483,679.1563,487,675.1563" style="stroke:#A80036;stroke-width:1.0;"/><line style="stroke:#A80036;stroke-width:1.0;" x1="104" x2="489" y1="675.1563" y2="675.1563"/><text fill="#000000" font-family="sans-serif" font-size="13" font-weight="bold" lengthAdjust="spacing" textLength="14" x="111" y="670.2998">16</text><text fill="#000000" font-family="sans-serif" font-size="13" lengthAdjust="spacing" textLength="49" x="129" y="670.2998">confirms</text><polygon fill="#A80036" points="662,701.5078,672,705.5078,662,709.5078,666,705.5078" style="stroke:#A80036;stroke-width:1.0;"/><line style="stroke:#A80036;stroke-width:1.0;" x1="505" x2="668" y1="705.5078" y2="705.5078"/><text fill="#000000" font-family="sans-serif" font-size="13" font-weight="bold" lengthAdjust="spacing" textLength="14" x="512" y="700.6514">17</text><text fill="#000000" font-family="sans-serif" font-size="13" lengthAdjust="spacing" textLength="132" x="530" y="700.6514">saveService(catalogue)</text><polygon fill="#A80036" points="1102.5,731.8594,1112.5,735.8594,1102.5,739.8594,1106.5,735.8594" style="stroke:#A80036;stroke-width:1.0;"/><line style="stroke:#A80036;stroke-width:1.0;" x1="684" x2="1108.5" y1="735.8594" y2="735.8594"/><text fill="#000000" font-family="sans-serif" font-size="13" font-weight="bold" lengthAdjust="spacing" textLength="14" x="691" y="731.0029">18</text><text fill="#000000" font-family="sans-serif" font-size="13" lengthAdjust="spacing" textLength="87" x="709" y="731.0029">title = getTitle()</text><polygon fill="#A80036" points="1102.5,792.2109,1112.5,796.2109,1102.5,800.2109,1106.5,796.2109" style="stroke:#A80036;stroke-width:1.0;"/><line style="stroke:#A80036;stroke-width:1.0;" x1="684" x2="1108.5" y1="796.2109" y2="796.2109"/><text fill="#000000" font-family="sans-serif" font-size="13" font-weight="bold" lengthAdjust="spacing" textLength="14" x="691" y="791.3545">19</text><text fill="#000000" font-family="sans-serif" font-size="13" lengthAdjust="spacing" textLength="222" x="709" y="791.3545">briefDescription = getBriefDescription()</text><polygon fill="#A80036" points="1102.5,852.5625,1112.5,856.5625,1102.5,860.5625,1106.5,856.5625" style="stroke:#A80036;stroke-width:1.0;"/><line style="stroke:#A80036;stroke-width:1.0;" x1="684" x2="1108.5" y1="856.5625" y2="856.5625"/><text fill="#000000" font-family="sans-serif" font-size="13" font-weight="bold" lengthAdjust="spacing" textLength="14" x="691" y="851.7061">20</text><text fill="#000000" font-family="sans-serif" font-size="13" lengthAdjust="spacing" textLength="280" x="709" y="851.7061">completeDescription = getCompleteDescription()</text><polygon fill="#A80036" points="1102.5,912.9141,1112.5,916.9141,1102.5,920.9141,1106.5,916.9141" style="stroke:#A80036;stroke-width:1.0;"/><line style="stroke:#A80036;stroke-width:1.0;" x1="684" x2="1108.5" y1="916.9141" y2="916.9141"/><text fill="#000000" font-family="sans-serif" font-size="13" font-weight="bold" lengthAdjust="spacing" textLength="14" x="691" y="912.0576">21</text><text fill="#000000" font-family="sans-serif" font-size="13" lengthAdjust="spacing" textLength="151" x="709" y="912.0576">feedback = getFeedback()</text><polygon fill="#A80036" points="1102.5,973.2656,1112.5,977.2656,1102.5,981.2656,1106.5,977.2656" style="stroke:#A80036;stroke-width:1.0;"/><line style="stroke:#A80036;stroke-width:1.0;" x1="684" x2="1108.5" y1="977.2656" y2="977.2656"/><text fill="#000000" font-family="sans-serif" font-size="13" font-weight="bold" lengthAdjust="spacing" textLength="14" x="691" y="972.4092">22</text><text fill="#000000" font-family="sans-serif" font-size="13" lengthAdjust="spacing" textLength="182" x="709" y="972.4092">keywordList = getKeywordList()</text><polygon fill="#A80036" points="1102.5,1033.6172,1112.5,1037.6172,1102.5,1041.6172,1106.5,1037.6172" style="stroke:#A80036;stroke-width:1.0;"/><line style="stroke:#A80036;stroke-width:1.0;" x1="684" x2="1108.5" y1="1037.6172" y2="1037.6172"/><text fill="#000000" font-family="sans-serif" font-size="13" font-weight="bold" lengthAdjust="spacing" textLength="14" x="691" y="1032.7607">23</text><text fill="#000000" font-family="sans-serif" font-size="13" lengthAdjust="spacing" textLength="139" x="709" y="1032.7607">formList = getFormList()</text><polygon fill="#A80036" points="1215,1093.9688,1225,1097.9688,1215,1101.9688,1219,1097.9688" style="stroke:#A80036;stroke-width:1.0;"/><line style="stroke:#A80036;stroke-width:1.0;" x1="684" x2="1221" y1="1097.9688" y2="1097.9688"/><text fill="#000000" font-family="sans-serif" font-size="13" font-weight="bold" lengthAdjust="spacing" textLength="14" x="691" y="1093.1123">24</text><text fill="#000000" font-family="sans-serif" font-size="13" lengthAdjust="spacing" textLength="76" x="709" y="1093.1123">withTitle(title)</text><polygon fill="#A80036" points="1215,1154.3203,1225,1158.3203,1215,1162.3203,1219,1158.3203" style="stroke:#A80036;stroke-width:1.0;"/><line style="stroke:#A80036;stroke-width:1.0;" x1="684" x2="1221" y1="1158.3203" y2="1158.3203"/><text fill="#000000" font-family="sans-serif" font-size="13" font-weight="bold" lengthAdjust="spacing" textLength="14" x="691" y="1153.4639">25</text><text fill="#000000" font-family="sans-serif" font-size="13" lengthAdjust="spacing" textLength="211" x="709" y="1153.4639">withBriefDescription(briefDescription)</text><polygon fill="#A80036" points="1215,1214.6719,1225,1218.6719,1215,1222.6719,1219,1218.6719" style="stroke:#A80036;stroke-width:1.0;"/><line style="stroke:#A80036;stroke-width:1.0;" x1="684" x2="1221" y1="1218.6719" y2="1218.6719"/><text fill="#000000" font-family="sans-serif" font-size="13" font-weight="bold" lengthAdjust="spacing" textLength="14" x="691" y="1213.8154">26</text><text fill="#000000" font-family="sans-serif" font-size="13" lengthAdjust="spacing" textLength="269" x="709" y="1213.8154">withCompleteDescription(completeDescription)</text><polygon fill="#A80036" points="1215,1275.0234,1225,1279.0234,1215,1283.0234,1219,1279.0234" style="stroke:#A80036;stroke-width:1.0;"/><line style="stroke:#A80036;stroke-width:1.0;" x1="684" x2="1221" y1="1279.0234" y2="1279.0234"/><text fill="#000000" font-family="sans-serif" font-size="13" font-weight="bold" lengthAdjust="spacing" textLength="14" x="691" y="1274.167">27</text><text fill="#000000" font-family="sans-serif" font-size="13" lengthAdjust="spacing" textLength="140" x="709" y="1274.167">withFeedback(feedback)</text><polygon fill="#A80036" points="1215,1335.375,1225,1339.375,1215,1343.375,1219,1339.375" style="stroke:#A80036;stroke-width:1.0;"/><line style="stroke:#A80036;stroke-width:1.0;" x1="684" x2="1221" y1="1339.375" y2="1339.375"/><text fill="#000000" font-family="sans-serif" font-size="13" font-weight="bold" lengthAdjust="spacing" textLength="14" x="691" y="1334.5186">28</text><text fill="#000000" font-family="sans-serif" font-size="13" lengthAdjust="spacing" textLength="145" x="709" y="1334.5186">withCatalogue(catalogue)</text><polygon fill="#A80036" points="1215,1395.7266,1225,1399.7266,1215,1403.7266,1219,1399.7266" style="stroke:#A80036;stroke-width:1.0;"/><line style="stroke:#A80036;stroke-width:1.0;" x1="684" x2="1221" y1="1399.7266" y2="1399.7266"/><text fill="#000000" font-family="sans-serif" font-size="13" font-weight="bold" lengthAdjust="spacing" textLength="14" x="691" y="1394.8701">29</text><text fill="#000000" font-family="sans-serif" font-size="13" lengthAdjust="spacing" textLength="171" x="709" y="1394.8701">withKeywordList(keywordList)</text><polygon fill="#A80036" points="1215,1456.0781,1225,1460.0781,1215,1464.0781,1219,1460.0781" style="stroke:#A80036;stroke-width:1.0;"/><line style="stroke:#A80036;stroke-width:1.0;" x1="684" x2="1221" y1="1460.0781" y2="1460.0781"/><text fill="#000000" font-family="sans-serif" font-size="13" font-weight="bold" lengthAdjust="spacing" textLength="14" x="691" y="1455.2217">30</text><text fill="#000000" font-family="sans-serif" font-size="13" lengthAdjust="spacing" textLength="128" x="709" y="1455.2217">withFormList(formList)</text><polygon fill="#A80036" points="1215,1516.4297,1225,1520.4297,1215,1524.4297,1219,1520.4297" style="stroke:#A80036;stroke-width:1.0;"/><line style="stroke:#A80036;stroke-width:1.0;" x1="684" x2="1221" y1="1520.4297" y2="1520.4297"/><text fill="#000000" font-family="sans-serif" font-size="13" font-weight="bold" lengthAdjust="spacing" textLength="14" x="691" y="1515.5732">31</text><text fill="#000000" font-family="sans-serif" font-size="13" lengthAdjust="spacing" textLength="35" x="709" y="1515.5732">build()</text><polygon fill="#A80036" points="1580,1563.1328,1590,1567.1328,1580,1571.1328,1584,1567.1328" style="stroke:#A80036;stroke-width:1.0;"/><line style="stroke:#A80036;stroke-width:1.0;" x1="1237" x2="1586" y1="1567.1328" y2="1567.1328"/><text fill="#000000" font-family="sans-serif" font-size="13" font-weight="bold" lengthAdjust="spacing" textLength="14" x="1244" y="1554.1006">32</text><text fill="#000000" font-family="sans-serif" font-size="13" lengthAdjust="spacing" textLength="162" x="1262" y="1545.9248">create(title, briefDescription,</text><text fill="#000000" font-family="sans-serif" font-size="13" lengthAdjust="spacing" textLength="313" x="1262" y="1562.2764">completeDescription, feedback, keywordList, formList)</text><rect fill="#FEFECE" filter="url(#f1l7zg42frun2k)" height="49.2188" style="stroke:#A80036;stroke-width:1.5;" width="92" x="1592" y="1528.4297"/><text fill="#000000" font-family="sans-serif" font-size="14" lengthAdjust="spacing" textLength="78" x="1599" y="1549.9629">&lt;&lt;domain&gt;&gt;</text><text fill="#000000" font-family="sans-serif" font-size="14" lengthAdjust="spacing" textLength="47" x="1614.5" y="1567.5723">Service</text><polygon fill="#A80036" points="695,1611,685,1615,695,1619,691,1615" style="stroke:#A80036;stroke-width:1.0;"/><line style="stroke:#A80036;stroke-width:1.0;stroke-dasharray:2.0,2.0;" x1="689" x2="1231" y1="1615" y2="1615"/><text fill="#000000" font-family="sans-serif" font-size="13" font-weight="bold" lengthAdjust="spacing" textLength="14" x="701" y="1610.1436">33</text><text fill="#000000" font-family="sans-serif" font-size="13" lengthAdjust="spacing" textLength="40" x="719" y="1610.1436">service</text><polygon fill="#A80036" points="1741.5,1641.3516,1751.5,1645.3516,1741.5,1649.3516,1745.5,1645.3516" style="stroke:#A80036;stroke-width:1.0;"/><line style="stroke:#A80036;stroke-width:1.0;" x1="684" x2="1747.5" y1="1645.3516" y2="1645.3516"/><text fill="#000000" font-family="sans-serif" font-size="13" font-weight="bold" lengthAdjust="spacing" textLength="14" x="691" y="1640.4951">34</text><text fill="#000000" font-family="sans-serif" font-size="13" lengthAdjust="spacing" textLength="74" x="709" y="1640.4951">save(service)</text><polygon fill="#A80036" points="695,1671.7031,685,1675.7031,695,1679.7031,691,1675.7031" style="stroke:#A80036;stroke-width:1.0;"/><line style="stroke:#A80036;stroke-width:1.0;stroke-dasharray:2.0,2.0;" x1="689" x2="1757.5" y1="1675.7031" y2="1675.7031"/><text fill="#000000" font-family="sans-serif" font-size="13" font-weight="bold" lengthAdjust="spacing" textLength="14" x="701" y="1670.8467">35</text><text fill="#000000" font-family="sans-serif" font-size="13" lengthAdjust="spacing" textLength="40" x="719" y="1670.8467">service</text><polygon fill="#A80036" points="516,1702.0547,506,1706.0547,516,1710.0547,512,1706.0547" style="stroke:#A80036;stroke-width:1.0;"/><line style="stroke:#A80036;stroke-width:1.0;stroke-dasharray:2.0,2.0;" x1="510" x2="678" y1="1706.0547" y2="1706.0547"/><text fill="#000000" font-family="sans-serif" font-size="13" font-weight="bold" lengthAdjust="spacing" textLength="14" x="522" y="1701.1982">36</text><text fill="#000000" font-family="sans-serif" font-size="13" lengthAdjust="spacing" textLength="40" x="540" y="1701.1982">service</text><polygon fill="#A80036" points="110,1748.7578,100,1752.7578,110,1756.7578,106,1752.7578" style="stroke:#A80036;stroke-width:1.0;"/><line style="stroke:#A80036;stroke-width:1.0;" x1="104" x2="499" y1="1752.7578" y2="1752.7578"/><text fill="#000000" font-family="sans-serif" font-size="13" font-weight="bold" lengthAdjust="spacing" textLength="14" x="116" y="1739.7256">37</text><text fill="#000000" font-family="sans-serif" font-size="13" lengthAdjust="spacing" textLength="208" x="134" y="1731.5498">registers the draft in the persistence</text><text fill="#000000" font-family="sans-serif" font-size="13" lengthAdjust="spacing" textLength="249" x="138" y="1747.9014">and informs of the success of the operation</text><!--MD5=[9a679c51a06081320478e06f18396ca7]
@startuml
autonumber
hide footbox

actor "Help Desk Services Manager" as HSM

participant "<<presentation>>\nSaveDraftUI" as UI
participant "<<application>>\nSaveDraftController" as CTRL
database "<<repository>>\nServiceDraftRepository" as SDR
database "<<repository>>\nCatalogueRepository" as CR
participant "<<domain>>\nServiceDraft" as SD
participant "<<builder>>\nServiceBuilder" as SBD
participant "<<domain>>\nService" as S
database "<<repository>>\nServiceRepository" as SR
participant "<<persistence>>\nPersistenceContext" as PC
participant "<<persistence>>\nAppSettings" as AS
participant "<<factory>>\nRepositoryFactory" as RF
participant "<<domain>>\nTitle" as T
participant "<<domain>>\nBriefDescription" as DB
participant "<<domain>>\nCompleteDescription" as DC
participant "<<domain>>\nKeyword" as KW
participant "<<domain>>\nFeedback" as FB
participant "<<domain>>\nCatalogue" as C
participant "<<domain>>\nFormName" as FM
participant "<<domain>>\nFormType" as FT
participant "<<domain>>\nAttributeName" as AN
participant "<<domain>>\nAttributeLabel" as AL
participant "<<domain>>\nAttributeDescription" as AD
participant "<<domain>>\nAttributeRegex" as AR
participant "<<domain>>\nAttributeScript" as ASC
participant "<<domain>>\nDataType" as TD

activate HSM

HSM -> UI : initiates the request to save in a service draft
activate UI

UI -> CTRL** : create

ref over CTRL
  US-1-2002_SD_Repo
end ref


UI -> CTRL : getDrafts()
activate CTRL

CTRL -> SR : findAll()
activate SR
SR - -> CTRL : drafts
deactivate SR

CTRL - -> UI : drafts
deactivate CTRL

UI -> HSM : presents the draft list and asks the user to choose a draft
deactivate UI

HSM -> UI : chooses a draft
activate UI


UI -> CTRL : getCatalogues()
activate CTRL

CTRL -> CR : all()
activate CR
CR - -> CTRL : list
deactivate CR

CTRL - -> UI : list
deactivate CTRL

UI -> HSM : shows the catalogue list and request the user to choose one
deactivate UI

HSM -> UI : selects the catalogue
activate UI

UI -> HSM : validates, presents the current \ninformation in the draft and asks for confirmation
deactivate UI

HSM -> UI : confirms
activate UI

UI -> CTRL : saveService(catalogue)
activate CTRL

CTRL -> SD : title = getTitle()
activate SD
deactivate SD

CTRL -> SD : briefDescription = getBriefDescription()
activate SD
deactivate SD

CTRL -> SD : completeDescription = getCompleteDescription()
activate SD
deactivate SD

CTRL -> SD : feedback = getFeedback()
activate SD
deactivate SD

CTRL -> SD : keywordList = getKeywordList()
activate SD
deactivate SD

CTRL -> SD : formList = getFormList()
activate SD
deactivate SD

CTRL -> SBD : withTitle(title)
activate SBD
deactivate SBD

CTRL -> SBD : withBriefDescription(briefDescription)
activate SBD
deactivate SBD

CTRL -> SBD : withCompleteDescription(completeDescription)
activate SBD
deactivate SBD

CTRL -> SBD : withFeedback(feedback)
activate SBD
deactivate SBD

CTRL -> SBD : withCatalogue(catalogue)
activate SBD
deactivate SBD

CTRL -> SBD : withKeywordList(keywordList)
activate SBD
deactivate SBD

CTRL -> SBD : withFormList(formList)
activate SBD
deactivate SBD

CTRL -> SBD : build()
activate SBD

SBD -> S** : create(title, briefDescription, \ncompleteDescription, feedback, keywordList, formList)

SBD - -> CTRL : service
deactivate SBD

CTRL -> SR : save(service)
activate SR
SR - -> CTRL : service
deactivate SR

CTRL - -> UI : service
deactivate CTRL

UI -> HSM : registers the draft in the persistence\n and informs of the success of the operation
deactivate UI
deactivate HSM

@enduml

PlantUML version 1.2021.5(Sun Apr 25 12:20:28 BST 2021)
(GPL source distribution)
Java Runtime: OpenJDK Runtime Environment
JVM: Dynamic Code Evolution 64-Bit Server VM
Default Encoding: Cp1252
Language: pt
Country: PT
--></g></svg>