<?xml version="1.0" encoding="UTF-8" standalone="no"?><svg xmlns="http://www.w3.org/2000/svg" xmlns:xlink="http://www.w3.org/1999/xlink" contentScriptType="application/ecmascript" contentStyleType="text/css" height="960px" preserveAspectRatio="none" style="width:3800px;height:960px;" version="1.1" viewBox="0 0 3800 960" width="3800px" zoomAndPan="magnify"><defs><filter height="300%" id="f1dcuhypqdqjtm" width="300%" x="-1" y="-1"><feGaussianBlur result="blurOut" stdDeviation="2.0"/><feColorMatrix in="blurOut" result="blurOut2" type="matrix" values="0 0 0 0 0 0 0 0 0 0 0 0 0 0 0 0 0 0 .4 0"/><feOffset dx="4.0" dy="4.0" in="blurOut2" result="blurOut3"/><feBlend in="SourceGraphic" in2="blurOut3" mode="normal"/></filter></defs><g><!--MD5=[8fd473fd151a2794da4f2c8684676405]
cluster Presentation--><polygon fill="#DDDDDD" filter="url(#f1dcuhypqdqjtm)" points="3027,6,3123,6,3130,29.6094,3241,29.6094,3241,134,3027,134,3027,6" style="stroke:#000000;stroke-width:1.5;"/><line style="stroke:#000000;stroke-width:1.5;" x1="3027" x2="3130" y1="29.6094" y2="29.6094"/><text fill="#000000" font-family="sans-serif" font-size="14" font-weight="bold" lengthAdjust="spacing" textLength="90" x="3031" y="22.5332">Presentation</text><!--MD5=[d64883541e3d62e3241c4d12decf100d]
cluster Application--><polygon fill="#DDDDDD" filter="url(#f1dcuhypqdqjtm)" points="2973,167,3057,167,3064,190.6094,3295,190.6094,3295,420,2973,420,2973,167" style="stroke:#000000;stroke-width:1.5;"/><line style="stroke:#000000;stroke-width:1.5;" x1="2973" x2="3064" y1="190.6094" y2="190.6094"/><text fill="#000000" font-family="sans-serif" font-size="14" font-weight="bold" lengthAdjust="spacing" textLength="78" x="2977" y="183.5332">Application</text><!--MD5=[121a8bf1197281ab89ed693fab589f94]
cluster Domain--><polygon fill="#DDDDDD" filter="url(#f1dcuhypqdqjtm)" points="895,470,953,470,960,493.6094,3783,493.6094,3783,818,895,818,895,470" style="stroke:#000000;stroke-width:1.5;"/><line style="stroke:#000000;stroke-width:1.5;" x1="895" x2="960" y1="493.6094" y2="493.6094"/><text fill="#000000" font-family="sans-serif" font-size="14" font-weight="bold" lengthAdjust="spacing" textLength="52" x="899" y="486.5332">Domain</text><!--MD5=[44cc74aea8168fb4471e814fff38ed12]
cluster Builder--><polygon fill="#DDDDDD" filter="url(#f1dcuhypqdqjtm)" points="2721,514,2778,514,2785,537.6094,3035,537.6094,3035,794,2721,794,2721,514" style="stroke:#000000;stroke-width:1.5;"/><line style="stroke:#000000;stroke-width:1.5;" x1="2721" x2="2785" y1="537.6094" y2="537.6094"/><text fill="#000000" font-family="sans-serif" font-size="14" font-weight="bold" lengthAdjust="spacing" textLength="51" x="2725" y="530.5332">Builder</text><!--MD5=[bc6b40dadbf86ab6a0c8405a467a48af]
cluster Persistence--><polygon fill="#DDDDDD" filter="url(#f1dcuhypqdqjtm)" points="16,532,106,532,113,555.6094,871,555.6094,871,953,16,953,16,532" style="stroke:#000000;stroke-width:1.5;"/><line style="stroke:#000000;stroke-width:1.5;" x1="16" x2="113" y1="555.6094" y2="555.6094"/><text fill="#000000" font-family="sans-serif" font-size="14" font-weight="bold" lengthAdjust="spacing" textLength="84" x="20" y="548.5332">Persistence</text><!--MD5=[0d5799440b3bfefd92b00abfcd2c79b9]
cluster Factory--><polygon fill="#DDDDDD" filter="url(#f1dcuhypqdqjtm)" points="685,576,743,576,750,599.6094,847,599.6094,847,732,685,732,685,576" style="stroke:#000000;stroke-width:1.5;"/><line style="stroke:#000000;stroke-width:1.5;" x1="685" x2="750" y1="599.6094" y2="599.6094"/><text fill="#000000" font-family="sans-serif" font-size="14" font-weight="bold" lengthAdjust="spacing" textLength="52" x="689" y="592.5332">Factory</text><!--MD5=[71971f99a41bb66cf321ce46bb59f738]
cluster Repository--><polygon fill="#DDDDDD" filter="url(#f1dcuhypqdqjtm)" points="421,576,503,576,510,599.6094,661,599.6094,661,929,421,929,421,576" style="stroke:#000000;stroke-width:1.5;"/><line style="stroke:#000000;stroke-width:1.5;" x1="421" x2="510" y1="599.6094" y2="599.6094"/><text fill="#000000" font-family="sans-serif" font-size="14" font-weight="bold" lengthAdjust="spacing" textLength="76" x="425" y="592.5332">Repository</text><!--MD5=[93c84338c8133da314580433f8790b00]
class CollaboratorSpecificationUI--><rect codeLine="5" fill="#FEFECE" filter="url(#f1dcuhypqdqjtm)" height="56.1875" id="CollaboratorSpecificationUI" style="stroke:#A80036;stroke-width:1.5;" width="182" x="3043" y="62"/><ellipse cx="3058" cy="82.0938" fill="#ADD1B2" rx="11" ry="11" style="stroke:#A80036;stroke-width:1.0;"/><path d="M3060,78.5938 Q3060.2031,78.0938 3060.4375,77.8438 Q3060.6719,77.5938 3060.9375,77.5938 Q3061.4063,77.5938 3061.7031,77.875 Q3062,78.1563 3062,78.8125 L3062,80.375 Q3062,81.0313 3061.7188,81.3125 Q3061.4375,81.5938 3061,81.5938 Q3060.6094,81.5938 3060.3594,81.4219 Q3060.1094,81.25 3060,80.7969 Q3059.9531,80.4844 3059.7813,80.3125 Q3059.4688,79.9844 3058.9063,79.7969 Q3058.3438,79.5938 3057.7813,79.5938 Q3057.0781,79.5938 3056.4844,79.875 Q3055.9063,80.1563 3055.4531,80.7813 Q3055,81.4063 3055,82.2656 L3055,83.1875 Q3055,84.2188 3055.8438,84.9063 Q3056.6875,85.5938 3058.1875,85.5938 Q3059.0781,85.5938 3059.7031,85.3906 Q3060.0625,85.2813 3060.4688,84.9219 Q3060.7344,84.7188 3060.875,84.6563 Q3061.0156,84.5938 3061.1875,84.5938 Q3061.5156,84.5938 3061.75,84.8594 Q3062,85.1094 3062,85.4688 Q3062,85.8125 3061.6563,86.2188 Q3061.1563,86.8125 3060.3594,87.1406 Q3059.3125,87.5938 3058.0313,87.5938 Q3056.5313,87.5938 3055.3281,87 Q3054.3594,86.5313 3053.6719,85.5156 Q3053,84.5 3053,83.2969 L3053,82.2031 Q3053,80.9531 3053.5938,79.8594 Q3054.2031,78.7656 3055.25,78.1875 Q3056.3125,77.5938 3057.5,77.5938 Q3058.2188,77.5938 3058.8438,77.8438 Q3059.4688,78.0938 3060,78.5938 Z " fill="#000000"/><text fill="#000000" font-family="sans-serif" font-size="12" font-style="italic" lengthAdjust="spacing" textLength="82" x="3106" y="79.457">«presentation»</text><text fill="#000000" font-family="sans-serif" font-size="12" lengthAdjust="spacing" textLength="150" x="3072" y="94.5508">CollaboratorSpecificationUI</text><line style="stroke:#A80036;stroke-width:1.5;" x1="3044" x2="3224" y1="102.1875" y2="102.1875"/><line style="stroke:#A80036;stroke-width:1.5;" x1="3044" x2="3224" y1="110.1875" y2="110.1875"/><!--MD5=[f1bbe1cf2453e6a45e68131c63d26ace]
class CollaboratorSpecificationController--><rect codeLine="12" fill="#FEFECE" filter="url(#f1dcuhypqdqjtm)" height="180.7109" id="CollaboratorSpecificationController" style="stroke:#A80036;stroke-width:1.5;" width="289" x="2989.5" y="223"/><ellipse cx="3033.75" cy="243.0938" fill="#ADD1B2" rx="11" ry="11" style="stroke:#A80036;stroke-width:1.0;"/><path d="M3035.75,239.5938 Q3035.9531,239.0938 3036.1875,238.8438 Q3036.4219,238.5938 3036.6875,238.5938 Q3037.1563,238.5938 3037.4531,238.875 Q3037.75,239.1563 3037.75,239.8125 L3037.75,241.375 Q3037.75,242.0313 3037.4688,242.3125 Q3037.1875,242.5938 3036.75,242.5938 Q3036.3594,242.5938 3036.1094,242.4219 Q3035.8594,242.25 3035.75,241.7969 Q3035.7031,241.4844 3035.5313,241.3125 Q3035.2188,240.9844 3034.6563,240.7969 Q3034.0938,240.5938 3033.5313,240.5938 Q3032.8281,240.5938 3032.2344,240.875 Q3031.6563,241.1563 3031.2031,241.7813 Q3030.75,242.4063 3030.75,243.2656 L3030.75,244.1875 Q3030.75,245.2188 3031.5938,245.9063 Q3032.4375,246.5938 3033.9375,246.5938 Q3034.8281,246.5938 3035.4531,246.3906 Q3035.8125,246.2813 3036.2188,245.9219 Q3036.4844,245.7188 3036.625,245.6563 Q3036.7656,245.5938 3036.9375,245.5938 Q3037.2656,245.5938 3037.5,245.8594 Q3037.75,246.1094 3037.75,246.4688 Q3037.75,246.8125 3037.4063,247.2188 Q3036.9063,247.8125 3036.1094,248.1406 Q3035.0625,248.5938 3033.7813,248.5938 Q3032.2813,248.5938 3031.0781,248 Q3030.1094,247.5313 3029.4219,246.5156 Q3028.75,245.5 3028.75,244.2969 L3028.75,243.2031 Q3028.75,241.9531 3029.3438,240.8594 Q3029.9531,239.7656 3031,239.1875 Q3032.0625,238.5938 3033.25,238.5938 Q3033.9688,238.5938 3034.5938,238.8438 Q3035.2188,239.0938 3035.75,239.5938 Z " fill="#000000"/><text fill="#000000" font-family="sans-serif" font-size="12" font-style="italic" lengthAdjust="spacing" textLength="67" x="3116.75" y="240.457">«aplication»</text><text fill="#000000" font-family="sans-serif" font-size="12" lengthAdjust="spacing" textLength="192" x="3054.25" y="255.5508">CollaboratorSpecificationController</text><line style="stroke:#A80036;stroke-width:1.5;" x1="2990.5" x2="3277.5" y1="263.1875" y2="263.1875"/><line style="stroke:#A80036;stroke-width:1.5;" x1="2990.5" x2="3277.5" y1="271.1875" y2="271.1875"/><text fill="#000000" font-family="sans-serif" font-size="11" lengthAdjust="spacing" textLength="45" x="2995.5" y="286.6064">+create()</text><text fill="#000000" font-family="sans-serif" font-size="11" lengthAdjust="spacing" textLength="274" x="2995.5" y="300.4424">+addColaborador(email, firstName, lastName, shortName,</text><text fill="#000000" font-family="sans-serif" font-size="11" lengthAdjust="spacing" textLength="196" x="2995.5" y="314.2783">completeName, mechanographicNumber,</text><text fill="#000000" font-family="sans-serif" font-size="11" lengthAdjust="spacing" textLength="166" x="2995.5" y="328.1143">address, phoneNumber, birthDate)</text><text fill="#000000" font-family="sans-serif" font-size="11" lengthAdjust="spacing" textLength="67" x="2995.5" y="341.9502">+getRoleList()</text><text fill="#000000" font-family="sans-serif" font-size="11" lengthAdjust="spacing" textLength="83" x="2995.5" y="355.7861">+addRoles(roles)</text><text fill="#000000" font-family="sans-serif" font-size="11" lengthAdjust="spacing" textLength="93" x="2995.5" y="369.6221">+getCollaborators()</text><text fill="#000000" font-family="sans-serif" font-size="11" lengthAdjust="spacing" textLength="116" x="2995.5" y="383.458">+addManager(manager)</text><text fill="#000000" font-family="sans-serif" font-size="11" lengthAdjust="spacing" textLength="96" x="2995.5" y="397.2939">+saveCollaborator()</text><!--MD5=[f483d6e5de34a60207b28a5563be5e8b]
class Collaborator--><rect codeLine="25" fill="#FEFECE" filter="url(#f1dcuhypqdqjtm)" height="83.8594" id="Collaborator" style="stroke:#A80036;stroke-width:1.5;" width="313" x="911.5" y="632"/><ellipse cx="1029.75" cy="652.0938" fill="#ADD1B2" rx="11" ry="11" style="stroke:#A80036;stroke-width:1.0;"/><path d="M1031.75,648.5938 Q1031.9531,648.0938 1032.1875,647.8438 Q1032.4219,647.5938 1032.6875,647.5938 Q1033.1563,647.5938 1033.4531,647.875 Q1033.75,648.1563 1033.75,648.8125 L1033.75,650.375 Q1033.75,651.0313 1033.4688,651.3125 Q1033.1875,651.5938 1032.75,651.5938 Q1032.3594,651.5938 1032.1094,651.4219 Q1031.8594,651.25 1031.75,650.7969 Q1031.7031,650.4844 1031.5313,650.3125 Q1031.2188,649.9844 1030.6563,649.7969 Q1030.0938,649.5938 1029.5313,649.5938 Q1028.8281,649.5938 1028.2344,649.875 Q1027.6563,650.1563 1027.2031,650.7813 Q1026.75,651.4063 1026.75,652.2656 L1026.75,653.1875 Q1026.75,654.2188 1027.5938,654.9063 Q1028.4375,655.5938 1029.9375,655.5938 Q1030.8281,655.5938 1031.4531,655.3906 Q1031.8125,655.2813 1032.2188,654.9219 Q1032.4844,654.7188 1032.625,654.6563 Q1032.7656,654.5938 1032.9375,654.5938 Q1033.2656,654.5938 1033.5,654.8594 Q1033.75,655.1094 1033.75,655.4688 Q1033.75,655.8125 1033.4063,656.2188 Q1032.9063,656.8125 1032.1094,657.1406 Q1031.0625,657.5938 1029.7813,657.5938 Q1028.2813,657.5938 1027.0781,657 Q1026.1094,656.5313 1025.4219,655.5156 Q1024.75,654.5 1024.75,653.2969 L1024.75,652.2031 Q1024.75,650.9531 1025.3438,649.8594 Q1025.9531,648.7656 1027,648.1875 Q1028.0625,647.5938 1029.25,647.5938 Q1029.9688,647.5938 1030.5938,647.8438 Q1031.2188,648.0938 1031.75,648.5938 Z " fill="#000000"/><text fill="#000000" font-family="sans-serif" font-size="12" font-style="italic" lengthAdjust="spacing" textLength="43" x="1062.75" y="649.457">«entity»</text><text fill="#000000" font-family="sans-serif" font-size="12" lengthAdjust="spacing" textLength="68" x="1050.25" y="664.5508">Collaborator</text><line style="stroke:#A80036;stroke-width:1.5;" x1="912.5" x2="1223.5" y1="672.1875" y2="672.1875"/><line style="stroke:#A80036;stroke-width:1.5;" x1="912.5" x2="1223.5" y1="680.1875" y2="680.1875"/><text fill="#000000" font-family="sans-serif" font-size="11" lengthAdjust="spacing" textLength="301" x="917.5" y="695.6064">+create(systemUser, completeName, mechanographicNumber,</text><text fill="#000000" font-family="sans-serif" font-size="11" lengthAdjust="spacing" textLength="166" x="917.5" y="709.4424">address, phoneNumber, birthDate)</text><!--MD5=[f338b7fac0450cb697edae5d9e4bb9ca]
class ShortName--><rect codeLine="29" fill="#FEFECE" filter="url(#f1dcuhypqdqjtm)" height="83.8594" id="ShortName" style="stroke:#A80036;stroke-width:1.5;" width="162" x="2135" y="632"/><ellipse cx="2173.85" cy="652.0938" fill="#ADD1B2" rx="11" ry="11" style="stroke:#A80036;stroke-width:1.0;"/><path d="M2175.85,648.5938 Q2176.0531,648.0938 2176.2875,647.8438 Q2176.5219,647.5938 2176.7875,647.5938 Q2177.2563,647.5938 2177.5531,647.875 Q2177.85,648.1563 2177.85,648.8125 L2177.85,650.375 Q2177.85,651.0313 2177.5688,651.3125 Q2177.2875,651.5938 2176.85,651.5938 Q2176.4594,651.5938 2176.2094,651.4219 Q2175.9594,651.25 2175.85,650.7969 Q2175.8031,650.4844 2175.6313,650.3125 Q2175.3188,649.9844 2174.7563,649.7969 Q2174.1938,649.5938 2173.6313,649.5938 Q2172.9281,649.5938 2172.3344,649.875 Q2171.7563,650.1563 2171.3031,650.7813 Q2170.85,651.4063 2170.85,652.2656 L2170.85,653.1875 Q2170.85,654.2188 2171.6938,654.9063 Q2172.5375,655.5938 2174.0375,655.5938 Q2174.9281,655.5938 2175.5531,655.3906 Q2175.9125,655.2813 2176.3188,654.9219 Q2176.5844,654.7188 2176.725,654.6563 Q2176.8656,654.5938 2177.0375,654.5938 Q2177.3656,654.5938 2177.6,654.8594 Q2177.85,655.1094 2177.85,655.4688 Q2177.85,655.8125 2177.5063,656.2188 Q2177.0063,656.8125 2176.2094,657.1406 Q2175.1625,657.5938 2173.8813,657.5938 Q2172.3813,657.5938 2171.1781,657 Q2170.2094,656.5313 2169.5219,655.5156 Q2168.85,654.5 2168.85,653.2969 L2168.85,652.2031 Q2168.85,650.9531 2169.4438,649.8594 Q2170.0531,648.7656 2171.1,648.1875 Q2172.1625,647.5938 2173.35,647.5938 Q2174.0688,647.5938 2174.6938,647.8438 Q2175.3188,648.0938 2175.85,648.5938 Z " fill="#000000"/><text fill="#000000" font-family="sans-serif" font-size="12" font-style="italic" lengthAdjust="spacing" textLength="81" x="2191.15" y="649.457">«value object»</text><text fill="#000000" font-family="sans-serif" font-size="12" lengthAdjust="spacing" textLength="63" x="2200.15" y="664.5508">ShortName</text><line style="stroke:#A80036;stroke-width:1.5;" x1="2136" x2="2296" y1="672.1875" y2="672.1875"/><line style="stroke:#A80036;stroke-width:1.5;" x1="2136" x2="2296" y1="680.1875" y2="680.1875"/><text fill="#000000" font-family="sans-serif" font-size="11" lengthAdjust="spacing" textLength="150" x="2141" y="695.6064">+createShortName(shortName)</text><text fill="#000000" font-family="sans-serif" font-size="11" lengthAdjust="spacing" textLength="101" x="2141" y="709.4424">-validate(shortName)</text><!--MD5=[cadca83c4c6337f88ae4425081101a2d]
class CompleteName--><rect codeLine="34" fill="#FEFECE" filter="url(#f1dcuhypqdqjtm)" height="83.8594" id="CompleteName" style="stroke:#A80036;stroke-width:1.5;" width="198" x="1902" y="632"/><ellipse cx="1952.75" cy="652.0938" fill="#ADD1B2" rx="11" ry="11" style="stroke:#A80036;stroke-width:1.0;"/><path d="M1954.75,648.5938 Q1954.9531,648.0938 1955.1875,647.8438 Q1955.4219,647.5938 1955.6875,647.5938 Q1956.1563,647.5938 1956.4531,647.875 Q1956.75,648.1563 1956.75,648.8125 L1956.75,650.375 Q1956.75,651.0313 1956.4688,651.3125 Q1956.1875,651.5938 1955.75,651.5938 Q1955.3594,651.5938 1955.1094,651.4219 Q1954.8594,651.25 1954.75,650.7969 Q1954.7031,650.4844 1954.5313,650.3125 Q1954.2188,649.9844 1953.6563,649.7969 Q1953.0938,649.5938 1952.5313,649.5938 Q1951.8281,649.5938 1951.2344,649.875 Q1950.6563,650.1563 1950.2031,650.7813 Q1949.75,651.4063 1949.75,652.2656 L1949.75,653.1875 Q1949.75,654.2188 1950.5938,654.9063 Q1951.4375,655.5938 1952.9375,655.5938 Q1953.8281,655.5938 1954.4531,655.3906 Q1954.8125,655.2813 1955.2188,654.9219 Q1955.4844,654.7188 1955.625,654.6563 Q1955.7656,654.5938 1955.9375,654.5938 Q1956.2656,654.5938 1956.5,654.8594 Q1956.75,655.1094 1956.75,655.4688 Q1956.75,655.8125 1956.4063,656.2188 Q1955.9063,656.8125 1955.1094,657.1406 Q1954.0625,657.5938 1952.7813,657.5938 Q1951.2813,657.5938 1950.0781,657 Q1949.1094,656.5313 1948.4219,655.5156 Q1947.75,654.5 1947.75,653.2969 L1947.75,652.2031 Q1947.75,650.9531 1948.3438,649.8594 Q1948.9531,648.7656 1950,648.1875 Q1951.0625,647.5938 1952.25,647.5938 Q1952.9688,647.5938 1953.5938,647.8438 Q1954.2188,648.0938 1954.75,648.5938 Z " fill="#000000"/><text fill="#000000" font-family="sans-serif" font-size="12" font-style="italic" lengthAdjust="spacing" textLength="81" x="1976.75" y="649.457">«value object»</text><text fill="#000000" font-family="sans-serif" font-size="12" lengthAdjust="spacing" textLength="88" x="1973.25" y="664.5508">CompleteName</text><line style="stroke:#A80036;stroke-width:1.5;" x1="1903" x2="2099" y1="672.1875" y2="672.1875"/><line style="stroke:#A80036;stroke-width:1.5;" x1="1903" x2="2099" y1="680.1875" y2="680.1875"/><text fill="#000000" font-family="sans-serif" font-size="11" lengthAdjust="spacing" textLength="186" x="1908" y="695.6064">+createCompleteName(completeName)</text><text fill="#000000" font-family="sans-serif" font-size="11" lengthAdjust="spacing" textLength="119" x="1908" y="709.4424">-validate(completeName)</text><!--MD5=[60b365d8f6d5c8e3e73e4be0aaaeb2da]
class NumeroMecanografico--><rect codeLine="39" fill="#FEFECE" filter="url(#f1dcuhypqdqjtm)" height="83.8594" id="NumeroMecanografico" style="stroke:#A80036;stroke-width:1.5;" width="274" x="1593" y="632"/><ellipse cx="1663.25" cy="652.0938" fill="#ADD1B2" rx="11" ry="11" style="stroke:#A80036;stroke-width:1.0;"/><path d="M1665.25,648.5938 Q1665.4531,648.0938 1665.6875,647.8438 Q1665.9219,647.5938 1666.1875,647.5938 Q1666.6563,647.5938 1666.9531,647.875 Q1667.25,648.1563 1667.25,648.8125 L1667.25,650.375 Q1667.25,651.0313 1666.9688,651.3125 Q1666.6875,651.5938 1666.25,651.5938 Q1665.8594,651.5938 1665.6094,651.4219 Q1665.3594,651.25 1665.25,650.7969 Q1665.2031,650.4844 1665.0313,650.3125 Q1664.7188,649.9844 1664.1563,649.7969 Q1663.5938,649.5938 1663.0313,649.5938 Q1662.3281,649.5938 1661.7344,649.875 Q1661.1563,650.1563 1660.7031,650.7813 Q1660.25,651.4063 1660.25,652.2656 L1660.25,653.1875 Q1660.25,654.2188 1661.0938,654.9063 Q1661.9375,655.5938 1663.4375,655.5938 Q1664.3281,655.5938 1664.9531,655.3906 Q1665.3125,655.2813 1665.7188,654.9219 Q1665.9844,654.7188 1666.125,654.6563 Q1666.2656,654.5938 1666.4375,654.5938 Q1666.7656,654.5938 1667,654.8594 Q1667.25,655.1094 1667.25,655.4688 Q1667.25,655.8125 1666.9063,656.2188 Q1666.4063,656.8125 1665.6094,657.1406 Q1664.5625,657.5938 1663.2813,657.5938 Q1661.7813,657.5938 1660.5781,657 Q1659.6094,656.5313 1658.9219,655.5156 Q1658.25,654.5 1658.25,653.2969 L1658.25,652.2031 Q1658.25,650.9531 1658.8438,649.8594 Q1659.4531,648.7656 1660.5,648.1875 Q1661.5625,647.5938 1662.75,647.5938 Q1663.4688,647.5938 1664.0938,647.8438 Q1664.7188,648.0938 1665.25,648.5938 Z " fill="#000000"/><text fill="#000000" font-family="sans-serif" font-size="12" font-style="italic" lengthAdjust="spacing" textLength="81" x="1705.75" y="649.457">«value object»</text><text fill="#000000" font-family="sans-serif" font-size="12" lengthAdjust="spacing" textLength="125" x="1683.75" y="664.5508">NumeroMecanografico</text><line style="stroke:#A80036;stroke-width:1.5;" x1="1594" x2="1866" y1="672.1875" y2="672.1875"/><line style="stroke:#A80036;stroke-width:1.5;" x1="1594" x2="1866" y1="680.1875" y2="680.1875"/><text fill="#000000" font-family="sans-serif" font-size="11" lengthAdjust="spacing" textLength="262" x="1599" y="695.6064">+createNumeroMecanografico(numeroMecanografico)</text><text fill="#000000" font-family="sans-serif" font-size="11" lengthAdjust="spacing" textLength="157" x="1599" y="709.4424">-validate(numeroMecanografico)</text><!--MD5=[0f39e4cb6f03951afbf6d14bd2505654]
class Address--><rect codeLine="44" fill="#FEFECE" filter="url(#f1dcuhypqdqjtm)" height="83.8594" id="Address" style="stroke:#A80036;stroke-width:1.5;" width="139" x="1282.5" y="632"/><ellipse cx="1311" cy="652.0938" fill="#ADD1B2" rx="11" ry="11" style="stroke:#A80036;stroke-width:1.0;"/><path d="M1313,648.5938 Q1313.2031,648.0938 1313.4375,647.8438 Q1313.6719,647.5938 1313.9375,647.5938 Q1314.4063,647.5938 1314.7031,647.875 Q1315,648.1563 1315,648.8125 L1315,650.375 Q1315,651.0313 1314.7188,651.3125 Q1314.4375,651.5938 1314,651.5938 Q1313.6094,651.5938 1313.3594,651.4219 Q1313.1094,651.25 1313,650.7969 Q1312.9531,650.4844 1312.7813,650.3125 Q1312.4688,649.9844 1311.9063,649.7969 Q1311.3438,649.5938 1310.7813,649.5938 Q1310.0781,649.5938 1309.4844,649.875 Q1308.9063,650.1563 1308.4531,650.7813 Q1308,651.4063 1308,652.2656 L1308,653.1875 Q1308,654.2188 1308.8438,654.9063 Q1309.6875,655.5938 1311.1875,655.5938 Q1312.0781,655.5938 1312.7031,655.3906 Q1313.0625,655.2813 1313.4688,654.9219 Q1313.7344,654.7188 1313.875,654.6563 Q1314.0156,654.5938 1314.1875,654.5938 Q1314.5156,654.5938 1314.75,654.8594 Q1315,655.1094 1315,655.4688 Q1315,655.8125 1314.6563,656.2188 Q1314.1563,656.8125 1313.3594,657.1406 Q1312.3125,657.5938 1311.0313,657.5938 Q1309.5313,657.5938 1308.3281,657 Q1307.3594,656.5313 1306.6719,655.5156 Q1306,654.5 1306,653.2969 L1306,652.2031 Q1306,650.9531 1306.5938,649.8594 Q1307.2031,648.7656 1308.25,648.1875 Q1309.3125,647.5938 1310.5,647.5938 Q1311.2188,647.5938 1311.8438,647.8438 Q1312.4688,648.0938 1313,648.5938 Z " fill="#000000"/><text fill="#000000" font-family="sans-serif" font-size="12" font-style="italic" lengthAdjust="spacing" textLength="81" x="1326" y="649.457">«value object»</text><text fill="#000000" font-family="sans-serif" font-size="12" lengthAdjust="spacing" textLength="46" x="1343.5" y="664.5508">Address</text><line style="stroke:#A80036;stroke-width:1.5;" x1="1283.5" x2="1420.5" y1="672.1875" y2="672.1875"/><line style="stroke:#A80036;stroke-width:1.5;" x1="1283.5" x2="1420.5" y1="680.1875" y2="680.1875"/><text fill="#000000" font-family="sans-serif" font-size="11" lengthAdjust="spacing" textLength="127" x="1288.5" y="695.6064">+createAddress(address)</text><text fill="#000000" font-family="sans-serif" font-size="11" lengthAdjust="spacing" textLength="89" x="1288.5" y="709.4424">-validate(address)</text><!--MD5=[b5e265065262f4f9caf90311e5706eef]
class PhoneNumber--><rect codeLine="49" fill="#FEFECE" filter="url(#f1dcuhypqdqjtm)" height="83.8594" id="PhoneNumber" style="stroke:#A80036;stroke-width:1.5;" width="191" x="2511.5" y="632"/><ellipse cx="2562.25" cy="652.0938" fill="#ADD1B2" rx="11" ry="11" style="stroke:#A80036;stroke-width:1.0;"/><path d="M2564.25,648.5938 Q2564.4531,648.0938 2564.6875,647.8438 Q2564.9219,647.5938 2565.1875,647.5938 Q2565.6563,647.5938 2565.9531,647.875 Q2566.25,648.1563 2566.25,648.8125 L2566.25,650.375 Q2566.25,651.0313 2565.9688,651.3125 Q2565.6875,651.5938 2565.25,651.5938 Q2564.8594,651.5938 2564.6094,651.4219 Q2564.3594,651.25 2564.25,650.7969 Q2564.2031,650.4844 2564.0313,650.3125 Q2563.7188,649.9844 2563.1563,649.7969 Q2562.5938,649.5938 2562.0313,649.5938 Q2561.3281,649.5938 2560.7344,649.875 Q2560.1563,650.1563 2559.7031,650.7813 Q2559.25,651.4063 2559.25,652.2656 L2559.25,653.1875 Q2559.25,654.2188 2560.0938,654.9063 Q2560.9375,655.5938 2562.4375,655.5938 Q2563.3281,655.5938 2563.9531,655.3906 Q2564.3125,655.2813 2564.7188,654.9219 Q2564.9844,654.7188 2565.125,654.6563 Q2565.2656,654.5938 2565.4375,654.5938 Q2565.7656,654.5938 2566,654.8594 Q2566.25,655.1094 2566.25,655.4688 Q2566.25,655.8125 2565.9063,656.2188 Q2565.4063,656.8125 2564.6094,657.1406 Q2563.5625,657.5938 2562.2813,657.5938 Q2560.7813,657.5938 2559.5781,657 Q2558.6094,656.5313 2557.9219,655.5156 Q2557.25,654.5 2557.25,653.2969 L2557.25,652.2031 Q2557.25,650.9531 2557.8438,649.8594 Q2558.4531,648.7656 2559.5,648.1875 Q2560.5625,647.5938 2561.75,647.5938 Q2562.4688,647.5938 2563.0938,647.8438 Q2563.7188,648.0938 2564.25,648.5938 Z " fill="#000000"/><text fill="#000000" font-family="sans-serif" font-size="12" font-style="italic" lengthAdjust="spacing" textLength="81" x="2582.75" y="649.457">«value object»</text><text fill="#000000" font-family="sans-serif" font-size="12" lengthAdjust="spacing" textLength="81" x="2582.75" y="664.5508">PhoneNumber</text><line style="stroke:#A80036;stroke-width:1.5;" x1="2512.5" x2="2701.5" y1="672.1875" y2="672.1875"/><line style="stroke:#A80036;stroke-width:1.5;" x1="2512.5" x2="2701.5" y1="680.1875" y2="680.1875"/><text fill="#000000" font-family="sans-serif" font-size="11" lengthAdjust="spacing" textLength="179" x="2517.5" y="695.6064">+createPhoneNumber(phoneNumber)</text><text fill="#000000" font-family="sans-serif" font-size="11" lengthAdjust="spacing" textLength="116" x="2517.5" y="709.4424">-validate(phoneNumber)</text><!--MD5=[ec957f90f125634d426aef890efece94]
class BirthDate--><rect codeLine="54" fill="#FEFECE" filter="url(#f1dcuhypqdqjtm)" height="83.8594" id="BirthDate" style="stroke:#A80036;stroke-width:1.5;" width="144" x="2332" y="632"/><ellipse cx="2362.75" cy="652.0938" fill="#ADD1B2" rx="11" ry="11" style="stroke:#A80036;stroke-width:1.0;"/><path d="M2364.75,648.5938 Q2364.9531,648.0938 2365.1875,647.8438 Q2365.4219,647.5938 2365.6875,647.5938 Q2366.1563,647.5938 2366.4531,647.875 Q2366.75,648.1563 2366.75,648.8125 L2366.75,650.375 Q2366.75,651.0313 2366.4688,651.3125 Q2366.1875,651.5938 2365.75,651.5938 Q2365.3594,651.5938 2365.1094,651.4219 Q2364.8594,651.25 2364.75,650.7969 Q2364.7031,650.4844 2364.5313,650.3125 Q2364.2188,649.9844 2363.6563,649.7969 Q2363.0938,649.5938 2362.5313,649.5938 Q2361.8281,649.5938 2361.2344,649.875 Q2360.6563,650.1563 2360.2031,650.7813 Q2359.75,651.4063 2359.75,652.2656 L2359.75,653.1875 Q2359.75,654.2188 2360.5938,654.9063 Q2361.4375,655.5938 2362.9375,655.5938 Q2363.8281,655.5938 2364.4531,655.3906 Q2364.8125,655.2813 2365.2188,654.9219 Q2365.4844,654.7188 2365.625,654.6563 Q2365.7656,654.5938 2365.9375,654.5938 Q2366.2656,654.5938 2366.5,654.8594 Q2366.75,655.1094 2366.75,655.4688 Q2366.75,655.8125 2366.4063,656.2188 Q2365.9063,656.8125 2365.1094,657.1406 Q2364.0625,657.5938 2362.7813,657.5938 Q2361.2813,657.5938 2360.0781,657 Q2359.1094,656.5313 2358.4219,655.5156 Q2357.75,654.5 2357.75,653.2969 L2357.75,652.2031 Q2357.75,650.9531 2358.3438,649.8594 Q2358.9531,648.7656 2360,648.1875 Q2361.0625,647.5938 2362.25,647.5938 Q2362.9688,647.5938 2363.5938,647.8438 Q2364.2188,648.0938 2364.75,648.5938 Z " fill="#000000"/><text fill="#000000" font-family="sans-serif" font-size="12" font-style="italic" lengthAdjust="spacing" textLength="81" x="2378.25" y="649.457">«value object»</text><text fill="#000000" font-family="sans-serif" font-size="12" lengthAdjust="spacing" textLength="51" x="2393.25" y="664.5508">BirthDate</text><line style="stroke:#A80036;stroke-width:1.5;" x1="2333" x2="2475" y1="672.1875" y2="672.1875"/><line style="stroke:#A80036;stroke-width:1.5;" x1="2333" x2="2475" y1="680.1875" y2="680.1875"/><text fill="#000000" font-family="sans-serif" font-size="11" lengthAdjust="spacing" textLength="132" x="2338" y="695.6064">+createBirthDate(birthDate)</text><text fill="#000000" font-family="sans-serif" font-size="11" lengthAdjust="spacing" textLength="92" x="2338" y="709.4424">-validate(birthDate)</text><!--MD5=[a9b02957f15c05fa9f213e9359f50233]
class BaseRoles--><rect codeLine="59" fill="#FEFECE" filter="url(#f1dcuhypqdqjtm)" height="70.0234" id="BaseRoles" style="stroke:#A80036;stroke-width:1.5;" width="101" x="1456.5" y="639"/><ellipse cx="1474.65" cy="659.0938" fill="#ADD1B2" rx="11" ry="11" style="stroke:#A80036;stroke-width:1.0;"/><path d="M1476.65,655.5938 Q1476.8531,655.0938 1477.0875,654.8438 Q1477.3219,654.5938 1477.5875,654.5938 Q1478.0563,654.5938 1478.3531,654.875 Q1478.65,655.1563 1478.65,655.8125 L1478.65,657.375 Q1478.65,658.0313 1478.3688,658.3125 Q1478.0875,658.5938 1477.65,658.5938 Q1477.2594,658.5938 1477.0094,658.4219 Q1476.7594,658.25 1476.65,657.7969 Q1476.6031,657.4844 1476.4313,657.3125 Q1476.1188,656.9844 1475.5563,656.7969 Q1474.9938,656.5938 1474.4313,656.5938 Q1473.7281,656.5938 1473.1344,656.875 Q1472.5563,657.1563 1472.1031,657.7813 Q1471.65,658.4063 1471.65,659.2656 L1471.65,660.1875 Q1471.65,661.2188 1472.4938,661.9063 Q1473.3375,662.5938 1474.8375,662.5938 Q1475.7281,662.5938 1476.3531,662.3906 Q1476.7125,662.2813 1477.1188,661.9219 Q1477.3844,661.7188 1477.525,661.6563 Q1477.6656,661.5938 1477.8375,661.5938 Q1478.1656,661.5938 1478.4,661.8594 Q1478.65,662.1094 1478.65,662.4688 Q1478.65,662.8125 1478.3063,663.2188 Q1477.8063,663.8125 1477.0094,664.1406 Q1475.9625,664.5938 1474.6813,664.5938 Q1473.1813,664.5938 1471.9781,664 Q1471.0094,663.5313 1470.3219,662.5156 Q1469.65,661.5 1469.65,660.2969 L1469.65,659.2031 Q1469.65,657.9531 1470.2438,656.8594 Q1470.8531,655.7656 1471.9,655.1875 Q1472.9625,654.5938 1474.15,654.5938 Q1474.8688,654.5938 1475.4938,654.8438 Q1476.1188,655.0938 1476.65,655.5938 Z " fill="#000000"/><text fill="#000000" font-family="sans-serif" font-size="12" font-style="italic" lengthAdjust="spacing" textLength="46" x="1497.35" y="656.457">«enum»</text><text fill="#000000" font-family="sans-serif" font-size="12" lengthAdjust="spacing" textLength="62" x="1489.35" y="671.5508">BaseRoles</text><line style="stroke:#A80036;stroke-width:1.5;" x1="1457.5" x2="1556.5" y1="679.1875" y2="679.1875"/><line style="stroke:#A80036;stroke-width:1.5;" x1="1457.5" x2="1556.5" y1="687.1875" y2="687.1875"/><text fill="#000000" font-family="sans-serif" font-size="11" lengthAdjust="spacing" textLength="89" x="1462.5" y="702.6064">+nonUserValues()</text><!--MD5=[7add3abbba9a945a681f7e44bfe039aa]
class RandomRawPassword--><rect codeLine="63" fill="#FEFECE" filter="url(#f1dcuhypqdqjtm)" height="70.0234" id="RandomRawPassword" style="stroke:#A80036;stroke-width:1.5;" width="161" x="3053.5" y="639"/><ellipse cx="3068.5" cy="659.0938" fill="#ADD1B2" rx="11" ry="11" style="stroke:#A80036;stroke-width:1.0;"/><path d="M3070.5,655.5938 Q3070.7031,655.0938 3070.9375,654.8438 Q3071.1719,654.5938 3071.4375,654.5938 Q3071.9063,654.5938 3072.2031,654.875 Q3072.5,655.1563 3072.5,655.8125 L3072.5,657.375 Q3072.5,658.0313 3072.2188,658.3125 Q3071.9375,658.5938 3071.5,658.5938 Q3071.1094,658.5938 3070.8594,658.4219 Q3070.6094,658.25 3070.5,657.7969 Q3070.4531,657.4844 3070.2813,657.3125 Q3069.9688,656.9844 3069.4063,656.7969 Q3068.8438,656.5938 3068.2813,656.5938 Q3067.5781,656.5938 3066.9844,656.875 Q3066.4063,657.1563 3065.9531,657.7813 Q3065.5,658.4063 3065.5,659.2656 L3065.5,660.1875 Q3065.5,661.2188 3066.3438,661.9063 Q3067.1875,662.5938 3068.6875,662.5938 Q3069.5781,662.5938 3070.2031,662.3906 Q3070.5625,662.2813 3070.9688,661.9219 Q3071.2344,661.7188 3071.375,661.6563 Q3071.5156,661.5938 3071.6875,661.5938 Q3072.0156,661.5938 3072.25,661.8594 Q3072.5,662.1094 3072.5,662.4688 Q3072.5,662.8125 3072.1563,663.2188 Q3071.6563,663.8125 3070.8594,664.1406 Q3069.8125,664.5938 3068.5313,664.5938 Q3067.0313,664.5938 3065.8281,664 Q3064.8594,663.5313 3064.1719,662.5156 Q3063.5,661.5 3063.5,660.2969 L3063.5,659.2031 Q3063.5,657.9531 3064.0938,656.8594 Q3064.7031,655.7656 3065.75,655.1875 Q3066.8125,654.5938 3068,654.5938 Q3068.7188,654.5938 3069.3438,654.8438 Q3069.9688,655.0938 3070.5,655.5938 Z " fill="#000000"/><text fill="#000000" font-family="sans-serif" font-size="12" font-style="italic" lengthAdjust="spacing" textLength="56" x="3119" y="656.457">«domain»</text><text fill="#000000" font-family="sans-serif" font-size="12" lengthAdjust="spacing" textLength="129" x="3082.5" y="671.5508">RandomRawPassword</text><line style="stroke:#A80036;stroke-width:1.5;" x1="3054.5" x2="3213.5" y1="679.1875" y2="679.1875"/><line style="stroke:#A80036;stroke-width:1.5;" x1="3054.5" x2="3213.5" y1="687.1875" y2="687.1875"/><text fill="#000000" font-family="sans-serif" font-size="11" lengthAdjust="spacing" textLength="51" x="3059.5" y="702.6064">+toString()</text><!--MD5=[0b1f3d1c1978f9b151365e147219e3b1]
class AuthzRegistry--><rect codeLine="67" fill="#FEFECE" filter="url(#f1dcuhypqdqjtm)" height="70.0234" id="AuthzRegistry" style="stroke:#A80036;stroke-width:1.5;" width="106" x="3250" y="639"/><ellipse cx="3265" cy="659.0938" fill="#ADD1B2" rx="11" ry="11" style="stroke:#A80036;stroke-width:1.0;"/><path d="M3267,655.5938 Q3267.2031,655.0938 3267.4375,654.8438 Q3267.6719,654.5938 3267.9375,654.5938 Q3268.4063,654.5938 3268.7031,654.875 Q3269,655.1563 3269,655.8125 L3269,657.375 Q3269,658.0313 3268.7188,658.3125 Q3268.4375,658.5938 3268,658.5938 Q3267.6094,658.5938 3267.3594,658.4219 Q3267.1094,658.25 3267,657.7969 Q3266.9531,657.4844 3266.7813,657.3125 Q3266.4688,656.9844 3265.9063,656.7969 Q3265.3438,656.5938 3264.7813,656.5938 Q3264.0781,656.5938 3263.4844,656.875 Q3262.9063,657.1563 3262.4531,657.7813 Q3262,658.4063 3262,659.2656 L3262,660.1875 Q3262,661.2188 3262.8438,661.9063 Q3263.6875,662.5938 3265.1875,662.5938 Q3266.0781,662.5938 3266.7031,662.3906 Q3267.0625,662.2813 3267.4688,661.9219 Q3267.7344,661.7188 3267.875,661.6563 Q3268.0156,661.5938 3268.1875,661.5938 Q3268.5156,661.5938 3268.75,661.8594 Q3269,662.1094 3269,662.4688 Q3269,662.8125 3268.6563,663.2188 Q3268.1563,663.8125 3267.3594,664.1406 Q3266.3125,664.5938 3265.0313,664.5938 Q3263.5313,664.5938 3262.3281,664 Q3261.3594,663.5313 3260.6719,662.5156 Q3260,661.5 3260,660.2969 L3260,659.2031 Q3260,657.9531 3260.5938,656.8594 Q3261.2031,655.7656 3262.25,655.1875 Q3263.3125,654.5938 3264.5,654.5938 Q3265.2188,654.5938 3265.8438,654.8438 Q3266.4688,655.0938 3267,655.5938 Z " fill="#000000"/><text fill="#000000" font-family="sans-serif" font-size="12" font-style="italic" lengthAdjust="spacing" textLength="56" x="3288" y="656.457">«domain»</text><text fill="#000000" font-family="sans-serif" font-size="12" lengthAdjust="spacing" textLength="74" x="3279" y="671.5508">AuthzRegistry</text><line style="stroke:#A80036;stroke-width:1.5;" x1="3251" x2="3355" y1="679.1875" y2="679.1875"/><line style="stroke:#A80036;stroke-width:1.5;" x1="3251" x2="3355" y1="687.1875" y2="687.1875"/><text fill="#000000" font-family="sans-serif" font-size="11" lengthAdjust="spacing" textLength="73" x="3256" y="702.6064">+userService()</text><!--MD5=[e4ac4745f81aec2db60ad4ddae80b659]
class UserService--><rect codeLine="71" fill="#FEFECE" filter="url(#f1dcuhypqdqjtm)" height="70.0234" id="UserService" style="stroke:#A80036;stroke-width:1.5;" width="375" x="3391.5" y="639"/><ellipse cx="3541.25" cy="659.0938" fill="#ADD1B2" rx="11" ry="11" style="stroke:#A80036;stroke-width:1.0;"/><path d="M3543.25,655.5938 Q3543.4531,655.0938 3543.6875,654.8438 Q3543.9219,654.5938 3544.1875,654.5938 Q3544.6563,654.5938 3544.9531,654.875 Q3545.25,655.1563 3545.25,655.8125 L3545.25,657.375 Q3545.25,658.0313 3544.9688,658.3125 Q3544.6875,658.5938 3544.25,658.5938 Q3543.8594,658.5938 3543.6094,658.4219 Q3543.3594,658.25 3543.25,657.7969 Q3543.2031,657.4844 3543.0313,657.3125 Q3542.7188,656.9844 3542.1563,656.7969 Q3541.5938,656.5938 3541.0313,656.5938 Q3540.3281,656.5938 3539.7344,656.875 Q3539.1563,657.1563 3538.7031,657.7813 Q3538.25,658.4063 3538.25,659.2656 L3538.25,660.1875 Q3538.25,661.2188 3539.0938,661.9063 Q3539.9375,662.5938 3541.4375,662.5938 Q3542.3281,662.5938 3542.9531,662.3906 Q3543.3125,662.2813 3543.7188,661.9219 Q3543.9844,661.7188 3544.125,661.6563 Q3544.2656,661.5938 3544.4375,661.5938 Q3544.7656,661.5938 3545,661.8594 Q3545.25,662.1094 3545.25,662.4688 Q3545.25,662.8125 3544.9063,663.2188 Q3544.4063,663.8125 3543.6094,664.1406 Q3542.5625,664.5938 3541.2813,664.5938 Q3539.7813,664.5938 3538.5781,664 Q3537.6094,663.5313 3536.9219,662.5156 Q3536.25,661.5 3536.25,660.2969 L3536.25,659.2031 Q3536.25,657.9531 3536.8438,656.8594 Q3537.4531,655.7656 3538.5,655.1875 Q3539.5625,654.5938 3540.75,654.5938 Q3541.4688,654.5938 3542.0938,654.8438 Q3542.7188,655.0938 3543.25,655.5938 Z " fill="#000000"/><text fill="#000000" font-family="sans-serif" font-size="12" font-style="italic" lengthAdjust="spacing" textLength="56" x="3567.25" y="656.457">«domain»</text><text fill="#000000" font-family="sans-serif" font-size="12" lengthAdjust="spacing" textLength="67" x="3561.75" y="671.5508">UserService</text><line style="stroke:#A80036;stroke-width:1.5;" x1="3392.5" x2="3765.5" y1="679.1875" y2="679.1875"/><line style="stroke:#A80036;stroke-width:1.5;" x1="3392.5" x2="3765.5" y1="687.1875" y2="687.1875"/><text fill="#000000" font-family="sans-serif" font-size="11" lengthAdjust="spacing" textLength="363" x="3397.5" y="702.6064">+registerNewUser(username, password, firstName, lastName, email, roles)</text><!--MD5=[164e5e9cf855eb64ce2728330d9f659f]
class CollaboratorBuilder--><rect codeLine="76" fill="#FEFECE" filter="url(#f1dcuhypqdqjtm)" height="208.3828" id="CollaboratorBuilder" style="stroke:#A80036;stroke-width:1.5;" width="281" x="2737.5" y="570"/><ellipse cx="2820.25" cy="590.0938" fill="#ADD1B2" rx="11" ry="11" style="stroke:#A80036;stroke-width:1.0;"/><path d="M2822.25,586.5938 Q2822.4531,586.0938 2822.6875,585.8438 Q2822.9219,585.5938 2823.1875,585.5938 Q2823.6563,585.5938 2823.9531,585.875 Q2824.25,586.1563 2824.25,586.8125 L2824.25,588.375 Q2824.25,589.0313 2823.9688,589.3125 Q2823.6875,589.5938 2823.25,589.5938 Q2822.8594,589.5938 2822.6094,589.4219 Q2822.3594,589.25 2822.25,588.7969 Q2822.2031,588.4844 2822.0313,588.3125 Q2821.7188,587.9844 2821.1563,587.7969 Q2820.5938,587.5938 2820.0313,587.5938 Q2819.3281,587.5938 2818.7344,587.875 Q2818.1563,588.1563 2817.7031,588.7813 Q2817.25,589.4063 2817.25,590.2656 L2817.25,591.1875 Q2817.25,592.2188 2818.0938,592.9063 Q2818.9375,593.5938 2820.4375,593.5938 Q2821.3281,593.5938 2821.9531,593.3906 Q2822.3125,593.2813 2822.7188,592.9219 Q2822.9844,592.7188 2823.125,592.6563 Q2823.2656,592.5938 2823.4375,592.5938 Q2823.7656,592.5938 2824,592.8594 Q2824.25,593.1094 2824.25,593.4688 Q2824.25,593.8125 2823.9063,594.2188 Q2823.4063,594.8125 2822.6094,595.1406 Q2821.5625,595.5938 2820.2813,595.5938 Q2818.7813,595.5938 2817.5781,595 Q2816.6094,594.5313 2815.9219,593.5156 Q2815.25,592.5 2815.25,591.2969 L2815.25,590.2031 Q2815.25,588.9531 2815.8438,587.8594 Q2816.4531,586.7656 2817.5,586.1875 Q2818.5625,585.5938 2819.75,585.5938 Q2820.4688,585.5938 2821.0938,585.8438 Q2821.7188,586.0938 2822.25,586.5938 Z " fill="#000000"/><text fill="#000000" font-family="sans-serif" font-size="12" font-style="italic" lengthAdjust="spacing" textLength="53" x="2867.75" y="587.457">«builder»</text><text fill="#000000" font-family="sans-serif" font-size="12" lengthAdjust="spacing" textLength="107" x="2840.75" y="602.5508">CollaboratorBuilder</text><line style="stroke:#A80036;stroke-width:1.5;" x1="2738.5" x2="3017.5" y1="610.1875" y2="610.1875"/><line style="stroke:#A80036;stroke-width:1.5;" x1="2738.5" x2="3017.5" y1="618.1875" y2="618.1875"/><text fill="#000000" font-family="sans-serif" font-size="11" lengthAdjust="spacing" textLength="45" x="2743.5" y="633.6064">+create()</text><text fill="#000000" font-family="sans-serif" font-size="11" lengthAdjust="spacing" textLength="210" x="2743.5" y="647.4424">+withShortName(firstName, completeName)</text><text fill="#000000" font-family="sans-serif" font-size="11" lengthAdjust="spacing" textLength="176" x="2743.5" y="661.2783">+withCompleteName(completeName)</text><text fill="#000000" font-family="sans-serif" font-size="11" lengthAdjust="spacing" textLength="269" x="2743.5" y="675.1143">+withMechanographicNumber(mechanographicNumber)</text><text fill="#000000" font-family="sans-serif" font-size="11" lengthAdjust="spacing" textLength="117" x="2743.5" y="688.9502">+withAddress(address)</text><text fill="#000000" font-family="sans-serif" font-size="11" lengthAdjust="spacing" textLength="230" x="2743.5" y="702.7861">+withPhoneNumber(phoneNumber, phoneCode)</text><text fill="#000000" font-family="sans-serif" font-size="11" lengthAdjust="spacing" textLength="122" x="2743.5" y="716.6221">+withBirthDate(birthDate)</text><text fill="#000000" font-family="sans-serif" font-size="11" lengthAdjust="spacing" textLength="77" x="2743.5" y="730.458">+withRole(Role)</text><text fill="#000000" font-family="sans-serif" font-size="11" lengthAdjust="spacing" textLength="119" x="2743.5" y="744.2939">+withManager(manager)</text><text fill="#000000" font-family="sans-serif" font-size="11" lengthAdjust="spacing" textLength="152" x="2743.5" y="758.1299">+withSystemUser(systemUser)</text><text fill="#000000" font-family="sans-serif" font-size="11" lengthAdjust="spacing" textLength="36" x="2743.5" y="771.9658">+build()</text><!--MD5=[e8c189551b7885b999ad7cefb30fc2a3]
class PersistenceContext--><rect codeLine="93" fill="#FEFECE" filter="url(#f1dcuhypqdqjtm)" height="70.0234" id="PersistenceContext" style="stroke:#A80036;stroke-width:1.5;" width="139" x="32.5" y="639"/><ellipse cx="47.5" cy="659.0938" fill="#ADD1B2" rx="11" ry="11" style="stroke:#A80036;stroke-width:1.0;"/><path d="M49.5,655.5938 Q49.7031,655.0938 49.9375,654.8438 Q50.1719,654.5938 50.4375,654.5938 Q50.9063,654.5938 51.2031,654.875 Q51.5,655.1563 51.5,655.8125 L51.5,657.375 Q51.5,658.0313 51.2188,658.3125 Q50.9375,658.5938 50.5,658.5938 Q50.1094,658.5938 49.8594,658.4219 Q49.6094,658.25 49.5,657.7969 Q49.4531,657.4844 49.2813,657.3125 Q48.9688,656.9844 48.4063,656.7969 Q47.8438,656.5938 47.2813,656.5938 Q46.5781,656.5938 45.9844,656.875 Q45.4063,657.1563 44.9531,657.7813 Q44.5,658.4063 44.5,659.2656 L44.5,660.1875 Q44.5,661.2188 45.3438,661.9063 Q46.1875,662.5938 47.6875,662.5938 Q48.5781,662.5938 49.2031,662.3906 Q49.5625,662.2813 49.9688,661.9219 Q50.2344,661.7188 50.375,661.6563 Q50.5156,661.5938 50.6875,661.5938 Q51.0156,661.5938 51.25,661.8594 Q51.5,662.1094 51.5,662.4688 Q51.5,662.8125 51.1563,663.2188 Q50.6563,663.8125 49.8594,664.1406 Q48.8125,664.5938 47.5313,664.5938 Q46.0313,664.5938 44.8281,664 Q43.8594,663.5313 43.1719,662.5156 Q42.5,661.5 42.5,660.2969 L42.5,659.2031 Q42.5,657.9531 43.0938,656.8594 Q43.7031,655.7656 44.75,655.1875 Q45.8125,654.5938 47,654.5938 Q47.7188,654.5938 48.3438,654.8438 Q48.9688,655.0938 49.5,655.5938 Z " fill="#000000"/><text fill="#000000" font-family="sans-serif" font-size="12" font-style="italic" lengthAdjust="spacing" textLength="77" x="76.5" y="656.457">«persistence»</text><text fill="#000000" font-family="sans-serif" font-size="12" lengthAdjust="spacing" textLength="107" x="61.5" y="671.5508">PersistenceContext</text><line style="stroke:#A80036;stroke-width:1.5;" x1="33.5" x2="170.5" y1="679.1875" y2="679.1875"/><line style="stroke:#A80036;stroke-width:1.5;" x1="33.5" x2="170.5" y1="687.1875" y2="687.1875"/><text fill="#000000" font-family="sans-serif" font-size="11" lengthAdjust="spacing" textLength="71" x="38.5" y="702.6064">+repositories()</text><!--MD5=[b8e4c95865208c934bfcfda4f90bf50c]
class AppSettings--><rect codeLine="97" fill="#FEFECE" filter="url(#f1dcuhypqdqjtm)" height="83.8594" id="AppSettings" style="stroke:#A80036;stroke-width:1.5;" width="130" x="275" y="632"/><ellipse cx="301.25" cy="652.0938" fill="#ADD1B2" rx="11" ry="11" style="stroke:#A80036;stroke-width:1.0;"/><path d="M303.25,648.5938 Q303.4531,648.0938 303.6875,647.8438 Q303.9219,647.5938 304.1875,647.5938 Q304.6563,647.5938 304.9531,647.875 Q305.25,648.1563 305.25,648.8125 L305.25,650.375 Q305.25,651.0313 304.9688,651.3125 Q304.6875,651.5938 304.25,651.5938 Q303.8594,651.5938 303.6094,651.4219 Q303.3594,651.25 303.25,650.7969 Q303.2031,650.4844 303.0313,650.3125 Q302.7188,649.9844 302.1563,649.7969 Q301.5938,649.5938 301.0313,649.5938 Q300.3281,649.5938 299.7344,649.875 Q299.1563,650.1563 298.7031,650.7813 Q298.25,651.4063 298.25,652.2656 L298.25,653.1875 Q298.25,654.2188 299.0938,654.9063 Q299.9375,655.5938 301.4375,655.5938 Q302.3281,655.5938 302.9531,655.3906 Q303.3125,655.2813 303.7188,654.9219 Q303.9844,654.7188 304.125,654.6563 Q304.2656,654.5938 304.4375,654.5938 Q304.7656,654.5938 305,654.8594 Q305.25,655.1094 305.25,655.4688 Q305.25,655.8125 304.9063,656.2188 Q304.4063,656.8125 303.6094,657.1406 Q302.5625,657.5938 301.2813,657.5938 Q299.7813,657.5938 298.5781,657 Q297.6094,656.5313 296.9219,655.5156 Q296.25,654.5 296.25,653.2969 L296.25,652.2031 Q296.25,650.9531 296.8438,649.8594 Q297.4531,648.7656 298.5,648.1875 Q299.5625,647.5938 300.75,647.5938 Q301.4688,647.5938 302.0938,647.8438 Q302.7188,648.0938 303.25,648.5938 Z " fill="#000000"/><text fill="#000000" font-family="sans-serif" font-size="12" font-style="italic" lengthAdjust="spacing" textLength="77" x="315.75" y="649.457">«persistence»</text><text fill="#000000" font-family="sans-serif" font-size="12" lengthAdjust="spacing" textLength="66" x="321.25" y="664.5508">AppSettings</text><line style="stroke:#A80036;stroke-width:1.5;" x1="276" x2="404" y1="672.1875" y2="672.1875"/><line style="stroke:#A80036;stroke-width:1.5;" x1="276" x2="404" y1="680.1875" y2="680.1875"/><text fill="#000000" font-family="sans-serif" font-size="11" lengthAdjust="spacing" textLength="55" x="281" y="695.6064">+instance()</text><text fill="#000000" font-family="sans-serif" font-size="11" lengthAdjust="spacing" textLength="118" x="281" y="709.4424">+getRepositoryFactory()</text><!--MD5=[48590afff58a68e2fcba47824d6f8a11]
class RepositoryFactory--><rect codeLine="103" fill="#FEFECE" filter="url(#f1dcuhypqdqjtm)" height="83.8594" id="RepositoryFactory" style="stroke:#A80036;stroke-width:1.5;" width="130" x="701" y="632"/><ellipse cx="716" cy="652.0938" fill="#ADD1B2" rx="11" ry="11" style="stroke:#A80036;stroke-width:1.0;"/><path d="M718,648.5938 Q718.2031,648.0938 718.4375,647.8438 Q718.6719,647.5938 718.9375,647.5938 Q719.4063,647.5938 719.7031,647.875 Q720,648.1563 720,648.8125 L720,650.375 Q720,651.0313 719.7188,651.3125 Q719.4375,651.5938 719,651.5938 Q718.6094,651.5938 718.3594,651.4219 Q718.1094,651.25 718,650.7969 Q717.9531,650.4844 717.7813,650.3125 Q717.4688,649.9844 716.9063,649.7969 Q716.3438,649.5938 715.7813,649.5938 Q715.0781,649.5938 714.4844,649.875 Q713.9063,650.1563 713.4531,650.7813 Q713,651.4063 713,652.2656 L713,653.1875 Q713,654.2188 713.8438,654.9063 Q714.6875,655.5938 716.1875,655.5938 Q717.0781,655.5938 717.7031,655.3906 Q718.0625,655.2813 718.4688,654.9219 Q718.7344,654.7188 718.875,654.6563 Q719.0156,654.5938 719.1875,654.5938 Q719.5156,654.5938 719.75,654.8594 Q720,655.1094 720,655.4688 Q720,655.8125 719.6563,656.2188 Q719.1563,656.8125 718.3594,657.1406 Q717.3125,657.5938 716.0313,657.5938 Q714.5313,657.5938 713.3281,657 Q712.3594,656.5313 711.6719,655.5156 Q711,654.5 711,653.2969 L711,652.2031 Q711,650.9531 711.5938,649.8594 Q712.2031,648.7656 713.25,648.1875 Q714.3125,647.5938 715.5,647.5938 Q716.2188,647.5938 716.8438,647.8438 Q717.4688,648.0938 718,648.5938 Z " fill="#000000"/><text fill="#000000" font-family="sans-serif" font-size="12" font-style="italic" lengthAdjust="spacing" textLength="50" x="754" y="649.457">«factory»</text><text fill="#000000" font-family="sans-serif" font-size="12" lengthAdjust="spacing" textLength="98" x="730" y="664.5508">RepositoryFactory</text><line style="stroke:#A80036;stroke-width:1.5;" x1="702" x2="830" y1="672.1875" y2="672.1875"/><line style="stroke:#A80036;stroke-width:1.5;" x1="702" x2="830" y1="680.1875" y2="680.1875"/><text fill="#000000" font-family="sans-serif" font-size="11" lengthAdjust="spacing" textLength="77" x="707" y="695.6064">+collaborators()</text><text fill="#000000" font-family="sans-serif" font-size="11" lengthAdjust="spacing" textLength="38" x="707" y="709.4424">+roles()</text><!--MD5=[7d8ac9ac30c94f5163e620de18c62996]
class CollaboratorRepository--><rect codeLine="110" fill="#FEFECE" filter="url(#f1dcuhypqdqjtm)" height="83.8594" id="CollaboratorRepository" style="stroke:#A80036;stroke-width:1.5;" width="159" x="484.5" y="632"/><ellipse cx="499.5" cy="652.0938" fill="#ADD1B2" rx="11" ry="11" style="stroke:#A80036;stroke-width:1.0;"/><path d="M501.5,648.5938 Q501.7031,648.0938 501.9375,647.8438 Q502.1719,647.5938 502.4375,647.5938 Q502.9063,647.5938 503.2031,647.875 Q503.5,648.1563 503.5,648.8125 L503.5,650.375 Q503.5,651.0313 503.2188,651.3125 Q502.9375,651.5938 502.5,651.5938 Q502.1094,651.5938 501.8594,651.4219 Q501.6094,651.25 501.5,650.7969 Q501.4531,650.4844 501.2813,650.3125 Q500.9688,649.9844 500.4063,649.7969 Q499.8438,649.5938 499.2813,649.5938 Q498.5781,649.5938 497.9844,649.875 Q497.4063,650.1563 496.9531,650.7813 Q496.5,651.4063 496.5,652.2656 L496.5,653.1875 Q496.5,654.2188 497.3438,654.9063 Q498.1875,655.5938 499.6875,655.5938 Q500.5781,655.5938 501.2031,655.3906 Q501.5625,655.2813 501.9688,654.9219 Q502.2344,654.7188 502.375,654.6563 Q502.5156,654.5938 502.6875,654.5938 Q503.0156,654.5938 503.25,654.8594 Q503.5,655.1094 503.5,655.4688 Q503.5,655.8125 503.1563,656.2188 Q502.6563,656.8125 501.8594,657.1406 Q500.8125,657.5938 499.5313,657.5938 Q498.0313,657.5938 496.8281,657 Q495.8594,656.5313 495.1719,655.5156 Q494.5,654.5 494.5,653.2969 L494.5,652.2031 Q494.5,650.9531 495.0938,649.8594 Q495.7031,648.7656 496.75,648.1875 Q497.8125,647.5938 499,647.5938 Q499.7188,647.5938 500.3438,647.8438 Q500.9688,648.0938 501.5,648.5938 Z " fill="#000000"/><text fill="#000000" font-family="sans-serif" font-size="12" font-style="italic" lengthAdjust="spacing" textLength="68" x="543" y="649.457">«repository»</text><text fill="#000000" font-family="sans-serif" font-size="12" lengthAdjust="spacing" textLength="127" x="513.5" y="664.5508">CollaboratorRepository</text><line style="stroke:#A80036;stroke-width:1.5;" x1="485.5" x2="642.5" y1="672.1875" y2="672.1875"/><line style="stroke:#A80036;stroke-width:1.5;" x1="485.5" x2="642.5" y1="680.1875" y2="680.1875"/><text fill="#000000" font-family="sans-serif" font-size="11" lengthAdjust="spacing" textLength="24" x="490.5" y="695.6064">+all()</text><text fill="#000000" font-family="sans-serif" font-size="11" lengthAdjust="spacing" textLength="95" x="490.5" y="709.4424">+save(collaborator)</text><!--MD5=[fb5a3980349928d6991386b21c626158]
class CollaboratorRepositoryInterface--><rect codeLine="115" fill="#FEFECE" filter="url(#f1dcuhypqdqjtm)" height="48" id="CollaboratorRepositoryInterface" style="stroke:#A80036;stroke-width:1.5;" width="208" x="437" y="865"/><ellipse cx="452" cy="881" fill="#B4A7E5" rx="11" ry="11" style="stroke:#A80036;stroke-width:1.0;"/><path d="M453,878 L453,884 L455,884 L455.4844,884 L456,884.625 L456,885 L456,885.375 L455.4844,886 L455,886 L449,886 L448.5156,886 L448,885.375 L448,885 L448,884.625 L448.5156,884 L449,884 L451,884 L451,878 L449,878 L448.5156,878 L448,877.375 L448,877 L448,876.625 L448.5156,876 L449,876 L455,876 L455.4844,876 L456,876.625 L456,877 L456,877.375 L455.4844,878 L455,878 L453,878 Z " fill="#000000"/><text fill="#000000" font-family="sans-serif" font-size="12" font-style="italic" lengthAdjust="spacing" textLength="176" x="466" y="885.9102">CollaboratorRepositoryInterface</text><line style="stroke:#A80036;stroke-width:1.5;" x1="438" x2="644" y1="897" y2="897"/><line style="stroke:#A80036;stroke-width:1.5;" x1="438" x2="644" y1="905" y2="905"/><!--MD5=[eb3433108b320f38a9b86aba7717ec12]
link CollaboratorSpecificationUI to CollaboratorSpecificationController--><path codeLine="123" d="M3134,118.16 C3134,143.04 3134,181.39 3134,217.46 " fill="none" id="CollaboratorSpecificationUI-to-CollaboratorSpecificationController" style="stroke:#A80036;stroke-width:1.0;stroke-dasharray:7.0,7.0;"/><polygon fill="#A80036" points="3134,222.77,3138,213.77,3134,217.77,3130,213.77,3134,222.77" style="stroke:#A80036;stroke-width:1.0;"/><!--MD5=[5d6bd615180f56874b8ef30ed2319198]
link CollaboratorSpecificationController to CollaboratorBuilder--><path codeLine="124" d="M2989.48,316.14 C2471.72,322.73 735.85,351.09 655,436 C649.48,441.79 649.35,448.33 655,454 C665.19,464.23 2721.25,455.23 2734,462 C2776.33,484.47 2808.59,525.56 2831.73,565.56 " fill="none" id="CollaboratorSpecificationController-to-CollaboratorBuilder" style="stroke:#A80036;stroke-width:1.0;stroke-dasharray:7.0,7.0;"/><polygon fill="#A80036" points="2834.22,569.92,2833.2208,560.122,2831.7362,565.5805,2826.2777,564.096,2834.22,569.92" style="stroke:#A80036;stroke-width:1.0;"/><!--MD5=[3ed01820e4ceee59de10e9959e59d459]
link CollaboratorSpecificationController to PersistenceContext--><path codeLine="125" d="M2989.29,320.6 C2606.19,336.95 1533.87,384.07 642,436 C471.23,445.94 408.04,379.86 258,462 C188.32,500.15 141.19,584.22 118.21,633.96 " fill="none" id="CollaboratorSpecificationController-to-PersistenceContext" style="stroke:#A80036;stroke-width:1.0;stroke-dasharray:7.0,7.0;"/><polygon fill="#A80036" points="116.07,638.66,123.4434,632.1306,118.1444,634.1106,116.1644,628.8116,116.07,638.66" style="stroke:#A80036;stroke-width:1.0;"/><!--MD5=[087ccd6aae2a45edac7d0e681d6d8716]
link CollaboratorSpecificationController to RandomRawPassword--><path codeLine="126" d="M3134,404.04 C3134,477.77 3134,578.8 3134,633.65 " fill="none" id="CollaboratorSpecificationController-to-RandomRawPassword" style="stroke:#A80036;stroke-width:1.0;stroke-dasharray:7.0,7.0;"/><polygon fill="#A80036" points="3134,638.82,3138,629.82,3134,633.82,3130,629.82,3134,638.82" style="stroke:#A80036;stroke-width:1.0;"/><!--MD5=[b900fc22ddac0a281ea59176488e21d6]
link CollaboratorSpecificationController to AuthzRegistry--><path codeLine="127" d="M3199.03,404.34 C3210.92,422.89 3222.53,442.67 3232,462 C3260.08,519.32 3281.48,590.49 3293.13,633.79 " fill="none" id="CollaboratorSpecificationController-to-AuthzRegistry" style="stroke:#A80036;stroke-width:1.0;stroke-dasharray:7.0,7.0;"/><polygon fill="#A80036" points="3294.43,638.67,3295.9527,628.9396,3293.1301,633.8419,3288.2278,631.0194,3294.43,638.67" style="stroke:#A80036;stroke-width:1.0;"/><!--MD5=[15c8ef94e227b65d81965100ec8908d5]
link CollaboratorSpecificationController to UserService--><path codeLine="128" d="M3278.5,395.26 C3310.97,415.58 3344.52,438.38 3374,462 C3441.13,515.78 3508.66,590.12 3547.01,634.69 " fill="none" id="CollaboratorSpecificationController-to-UserService" style="stroke:#A80036;stroke-width:1.0;stroke-dasharray:7.0,7.0;"/><polygon fill="#A80036" points="3550.4,638.65,3547.5799,629.2135,3547.146,634.8537,3541.5059,634.4199,3550.4,638.65" style="stroke:#A80036;stroke-width:1.0;"/><!--MD5=[d66efb439816738ddd3e9d5fff4bf3a7]
link AppSettings to RepositoryFactory--><path codeLine="130" d="M344.65,631.82 C352.14,586.54 371.49,516.72 421,484 C509.99,425.2 569.13,429.8 661,484 C712.99,514.67 741.03,581.33 754.73,626.95 " fill="none" id="AppSettings-to-RepositoryFactory" style="stroke:#A80036;stroke-width:1.0;"/><polygon fill="#A80036" points="756.17,631.85,757.4632,622.0864,754.7569,627.0539,749.7894,624.3475,756.17,631.85" style="stroke:#A80036;stroke-width:1.0;"/><text fill="#000000" font-family="sans-serif" font-size="13" lengthAdjust="spacing" textLength="43" x="657.5" y="450.4951">creates</text><!--MD5=[27fe1c91fe18bafc5695938053528609]
link PersistenceContext to AppSettings--><path codeLine="131" d="M171.8,674 C202.53,674 238.57,674 269.39,674 " fill="none" id="PersistenceContext-to-AppSettings" style="stroke:#A80036;stroke-width:1.0;"/><polygon fill="#A80036" points="274.69,674,265.69,670,269.69,674,265.69,678,274.69,674" style="stroke:#A80036;stroke-width:1.0;"/><text fill="#000000" font-family="sans-serif" font-size="13" lengthAdjust="spacing" textLength="67" x="189.75" y="667.4951">implements</text><!--MD5=[d5e2752559733233d551f65818949b4e]
link RepositoryFactory to CollaboratorRepository--><path codeLine="133" d="M700.84,674 C684.3,674 666.28,674 648.91,674 " fill="none" id="RepositoryFactory-to-CollaboratorRepository" style="stroke:#A80036;stroke-width:1.0;"/><polygon fill="#A80036" points="643.55,674,652.55,678,648.55,674,652.55,670,643.55,674" style="stroke:#A80036;stroke-width:1.0;"/><text fill="#000000" font-family="sans-serif" font-size="13" lengthAdjust="spacing" textLength="21" x="661.75" y="667.4951">has</text><text fill="#000000" font-family="sans-serif" font-size="13" lengthAdjust="spacing" textLength="7" x="685.9012" y="670.5986">1</text><text fill="#000000" font-family="sans-serif" font-size="13" lengthAdjust="spacing" textLength="7" x="651.4657" y="670.7561">1</text><!--MD5=[275670b01fcf667cdfea022428a37f7a]
link CollaboratorRepository to CollaboratorRepositoryInterface--><path codeLine="134" d="M559.57,716.07 C555.01,758.24 548.04,822.76 544.07,859.6 " fill="none" id="CollaboratorRepository-to-CollaboratorRepositoryInterface" style="stroke:#A80036;stroke-width:1.0;stroke-dasharray:7.0,7.0;"/><polygon fill="#A80036" points="543.5,864.83,548.4291,856.3033,544.0286,859.858,540.474,855.4575,543.5,864.83" style="stroke:#A80036;stroke-width:1.0;"/><!--MD5=[e3ed578b90dd6415261c95d17075385f]
link CollaboratorRepository to Collaborator--><path codeLine="136" d="M577.25,631.64 C594.11,585.85 628.09,515.23 685,484 C748.12,449.36 779.49,458.97 847,484 C924.06,512.57 992.31,581.38 1031.9,627.86 " fill="none" id="CollaboratorRepository-to-Collaborator" style="stroke:#A80036;stroke-width:1.0;"/><polygon fill="#A80036" points="1035.17,631.73,1032.4085,622.2762,1031.9396,627.9136,1026.3023,627.4448,1035.17,631.73" style="stroke:#A80036;stroke-width:1.0;"/><text fill="#000000" font-family="sans-serif" font-size="13" lengthAdjust="spacing" textLength="33" x="792.5" y="450.4951">saves</text><text fill="#000000" font-family="sans-serif" font-size="13" lengthAdjust="spacing" textLength="7" x="571.8039" y="621.1482">1</text><text fill="#000000" font-family="sans-serif" font-size="13" lengthAdjust="spacing" textLength="5" x="1024.5393" y="621.2526">*</text><!--MD5=[720a9a454e208d6aeb02f55992318bcd]
link CollaboratorBuilder to Collaborator--><path codeLine="137" d="M2824.73,569.84 C2801.75,536.1 2771.44,502.6 2734,484 C2660.91,447.69 1340.68,453.45 1265,484 C1193.57,512.83 1133.61,581.34 1099.24,627.71 " fill="none" id="CollaboratorBuilder-to-Collaborator" style="stroke:#A80036;stroke-width:1.0;"/><polygon fill="#A80036" points="1096.19,631.84,1104.7401,626.9518,1099.1487,627.8093,1098.2911,622.2179,1096.19,631.84" style="stroke:#A80036;stroke-width:1.0;"/><text fill="#000000" font-family="sans-serif" font-size="13" lengthAdjust="spacing" textLength="43" x="1226.5" y="450.4951">creates</text><text fill="#000000" font-family="sans-serif" font-size="13" lengthAdjust="spacing" textLength="7" x="2813.561" y="559.0972">1</text><text fill="#000000" font-family="sans-serif" font-size="13" lengthAdjust="spacing" textLength="5" x="1095.4449" y="621.0681">*</text><!--MD5=[d22bc09bf5195203640f66a3337dfcbe]
link Collaborator to ShortName--><path codeLine="139" d="M1096.19,631.84 C1130,585.51 1191.42,513.7 1265,484 C1352.89,448.52 2037.07,434.68 2118,484 C2168.76,514.93 2194.37,581.53 2206.42,627.06 " fill="none" id="Collaborator-to-ShortName" style="stroke:#A80036;stroke-width:1.0;"/><polygon fill="#A80036" points="2207.69,631.95,2209.3003,622.2337,2206.4337,627.1104,2201.557,624.2438,2207.69,631.95" style="stroke:#A80036;stroke-width:1.0;"/><text fill="#000000" font-family="sans-serif" font-size="13" lengthAdjust="spacing" textLength="21" x="1279.5" y="450.4951">has</text><text fill="#000000" font-family="sans-serif" font-size="13" lengthAdjust="spacing" textLength="7" x="1093.2793" y="621.0681">1</text><text fill="#000000" font-family="sans-serif" font-size="13" lengthAdjust="spacing" textLength="7" x="2198.734" y="621.1963">1</text><!--MD5=[48c622d472d667764da07d20d8b811ec]
link Collaborator to CompleteName--><path codeLine="140" d="M1096.19,631.84 C1130,585.51 1191.42,513.7 1265,484 C1392.76,432.43 1764.85,416.58 1885,484 C1938.98,514.29 1970.82,581.05 1987.1,626.79 " fill="none" id="Collaborator-to-CompleteName" style="stroke:#A80036;stroke-width:1.0;"/><polygon fill="#A80036" points="1988.81,631.7,1989.6083,621.8836,1987.1563,626.9814,1982.0585,624.5294,1988.81,631.7" style="stroke:#A80036;stroke-width:1.0;"/><text fill="#000000" font-family="sans-serif" font-size="13" lengthAdjust="spacing" textLength="21" x="1309.5" y="450.4951">has</text><text fill="#000000" font-family="sans-serif" font-size="13" lengthAdjust="spacing" textLength="7" x="1101.4387" y="621.0681">1</text><text fill="#000000" font-family="sans-serif" font-size="13" lengthAdjust="spacing" textLength="7" x="1979.3094" y="621.2178">1</text><!--MD5=[f904c2f8a465426d1ef66730e14f9f7d]
link Collaborator to NumeroMecanografico--><path codeLine="141" d="M1096.19,631.84 C1130,585.51 1191.42,513.7 1265,484 C1392.76,432.43 1450.54,424.91 1575,484 C1636.9,513.39 1682.24,580.94 1707.37,627.04 " fill="none" id="Collaborator-to-NumeroMecanografico" style="stroke:#A80036;stroke-width:1.0;"/><polygon fill="#A80036" points="1709.89,631.72,1709.1412,621.8996,1707.5178,627.3186,1702.0989,625.6952,1709.89,631.72" style="stroke:#A80036;stroke-width:1.0;"/><text fill="#000000" font-family="sans-serif" font-size="13" lengthAdjust="spacing" textLength="83" x="1338.5" y="450.4951">is identified by</text><text fill="#000000" font-family="sans-serif" font-size="13" lengthAdjust="spacing" textLength="7" x="1093.2793" y="621.0681">1</text><text fill="#000000" font-family="sans-serif" font-size="13" lengthAdjust="spacing" textLength="7" x="1699.1272" y="621.241">1</text><!--MD5=[8d9dabce818e956fab3a60d05f645865]
link Collaborator to BaseRoles--><path codeLine="142" d="M1096.19,631.84 C1130,585.51 1191.42,513.7 1265,484 C1336.71,455.05 1375.77,439.47 1439,484 C1486.99,517.8 1501.29,588.74 1505.44,633.73 " fill="none" id="Collaborator-to-BaseRoles" style="stroke:#A80036;stroke-width:1.0;"/><polygon fill="#A80036" points="1505.88,638.81,1509.0945,629.5005,1505.4518,633.8284,1501.1239,630.1856,1505.88,638.81" style="stroke:#A80036;stroke-width:1.0;"/><text fill="#000000" font-family="sans-serif" font-size="13" lengthAdjust="spacing" textLength="21" x="1428.5" y="450.4951">has</text><text fill="#000000" font-family="sans-serif" font-size="13" lengthAdjust="spacing" textLength="7" x="1106.7816" y="621.1715">1</text><text fill="#000000" font-family="sans-serif" font-size="13" lengthAdjust="spacing" textLength="7" x="1497.9993" y="628.1033">1</text><!--MD5=[ad690bf35cce9ca8717407802e52e6b0]
link Collaborator to Address--><path codeLine="143" d="M1224.54,674 C1242.83,674 1260.8,674 1277.22,674 " fill="none" id="Collaborator-to-Address" style="stroke:#A80036;stroke-width:1.0;"/><polygon fill="#A80036" points="1282.26,674,1273.26,670,1277.26,674,1273.26,678,1282.26,674" style="stroke:#A80036;stroke-width:1.0;"/><text fill="#000000" font-family="sans-serif" font-size="13" lengthAdjust="spacing" textLength="21" x="1243" y="667.4951">has</text><text fill="#000000" font-family="sans-serif" font-size="13" lengthAdjust="spacing" textLength="7" x="1232.2919" y="671.1195">1</text><text fill="#000000" font-family="sans-serif" font-size="13" lengthAdjust="spacing" textLength="7" x="1267.7071" y="670.6955">1</text><!--MD5=[3362ed3ae5a9e5cbc027fbfeff814e21]
link Collaborator to PhoneNumber--><path codeLine="144" d="M1096.19,631.84 C1130,585.51 1191.42,513.7 1265,484 C1391.63,432.89 2375.3,416.49 2494,484 C2547.43,514.39 2578.24,581.12 2593.81,626.83 " fill="none" id="Collaborator-to-PhoneNumber" style="stroke:#A80036;stroke-width:1.0;"/><polygon fill="#A80036" points="2595.45,631.74,2596.3898,621.9361,2593.8646,626.998,2588.8026,624.4728,2595.45,631.74" style="stroke:#A80036;stroke-width:1.0;"/><text fill="#000000" font-family="sans-serif" font-size="13" lengthAdjust="spacing" textLength="21" x="1663.5" y="450.4951">has</text><text fill="#000000" font-family="sans-serif" font-size="13" lengthAdjust="spacing" textLength="7" x="1101.4387" y="621.0681">1</text><text fill="#000000" font-family="sans-serif" font-size="13" lengthAdjust="spacing" textLength="7" x="2586.0514" y="621.2642">1</text><!--MD5=[dfbc31d49ce19e9e78ec22b58e38968f]
link Collaborator to BirthDate--><path codeLine="145" d="M1096.19,631.84 C1130,585.51 1191.42,513.7 1265,484 C1373.19,440.33 2216.55,421.4 2315,484 C2363.98,515.15 2386.47,581.14 2396.47,626.53 " fill="none" id="Collaborator-to-BirthDate" style="stroke:#A80036;stroke-width:1.0;"/><polygon fill="#A80036" points="2397.57,631.68,2399.6089,622.0445,2396.5292,626.7895,2391.7841,623.7098,2397.57,631.68" style="stroke:#A80036;stroke-width:1.0;"/><text fill="#000000" font-family="sans-serif" font-size="13" lengthAdjust="spacing" textLength="21" x="1897.5" y="450.4951">has</text><text fill="#000000" font-family="sans-serif" font-size="13" lengthAdjust="spacing" textLength="7" x="1118.7691" y="621.1715">1</text><text fill="#000000" font-family="sans-serif" font-size="13" lengthAdjust="spacing" textLength="7" x="2388.9874" y="621.1946">1</text><!--MD5=[9901d5734d91356a1b382f07d39854c4]
@startuml
skinparam classAttributeIconSize 0


package "Presentation" #DDDDDD {
class CollaboratorSpecificationUI <<presentation>>{

}
}


package "Application" #DDDDDD {
class CollaboratorSpecificationController <<aplication>>{
+create()
+addColaborador(email, firstName, lastName, shortName, \ncompleteName, mechanographicNumber,\naddress, phoneNumber, birthDate)
+getRoleList()
+addRoles(roles)
+getCollaborators()
+addManager(manager)
+saveCollaborator()
}
}


package "Domain" #DDDDDD {
class Collaborator <<entity>>{
+create(systemUser, completeName, mechanographicNumber,\naddress, phoneNumber, birthDate)
}

class ShortName <<value object>>{
+createShortName(shortName)
-validate(shortName)
}

class CompleteName <<value object>>{
+createCompleteName(completeName)
-validate(completeName)
}

class NumeroMecanografico <<value object>>{
+createNumeroMecanografico(numeroMecanografico)
-validate(numeroMecanografico)
}

class Address <<value object>>{
+createAddress(address)
-validate(address)
}

class PhoneNumber <<value object>>{
+createPhoneNumber(phoneNumber)
-validate(phoneNumber)
}

class BirthDate <<value object>>{
+createBirthDate(birthDate)
-validate(birthDate)
}

class BaseRoles <<enum>>{
+nonUserValues()
}

class RandomRawPassword <<domain>>{
+toString()
}

class AuthzRegistry <<domain>>{
+userService()
}

class UserService <<domain>>{
+registerNewUser(username, password, firstName, lastName, email, roles)
}

package Builder #DDDDDD {
class CollaboratorBuilder <<builder>>{
+create()
+withShortName(firstName, completeName)
+withCompleteName(completeName)
+withMechanographicNumber(mechanographicNumber)
+withAddress(address)
+withPhoneNumber(phoneNumber, phoneCode)
+withBirthDate(birthDate)
+withRole(Role)
+withManager(manager)
+withSystemUser(systemUser)
+build()
}
}
}

package Persistence #DDDDDD {
class PersistenceContext <<persistence>>{
+repositories()
}

class AppSettings <<persistence>>{
+instance()
+getRepositoryFactory()
}

package Factory #DDDDDD {
class RepositoryFactory <<factory>>{
+collaborators()
+roles()
}
}

package "Repository" #DDDDDD {
class CollaboratorRepository <<repository>>{
+all()
+save(collaborator)
}

interface CollaboratorRepositoryInterface{

}
}

}


CollaboratorSpecificationUI ..> CollaboratorSpecificationController
CollaboratorSpecificationController ..> CollaboratorBuilder
CollaboratorSpecificationController ..> PersistenceContext
CollaboratorSpecificationController ..> RandomRawPassword
CollaboratorSpecificationController ..> AuthzRegistry
CollaboratorSpecificationController ..> UserService

AppSettings -> RepositoryFactory : creates
PersistenceContext -> AppSettings : implements

RepositoryFactory "1" -> "1" CollaboratorRepository : has
CollaboratorRepository ..> CollaboratorRepositoryInterface

CollaboratorRepository "1" -> "*" Collaborator : saves
CollaboratorBuilder "1" -> "*" Collaborator : creates

Collaborator "1" -> "1" ShortName : has
Collaborator "1" -> "1" CompleteName : has
Collaborator "1" -> "1" NumeroMecanografico : is identified by
Collaborator "1" -> "1" BaseRoles : has
Collaborator "1" -> "1" Address : has
Collaborator "1" -> "1" PhoneNumber : has
Collaborator "1" -> "1" BirthDate : has

@enduml

PlantUML version 1.2021.5(Sun Apr 25 12:20:28 BST 2021)
(GPL source distribution)
Java Runtime: OpenJDK Runtime Environment
JVM: OpenJDK 64-Bit Server VM
Default Encoding: Cp1252
Language: pt
Country: PT
--></g></svg>