<?xml version="1.0" encoding="UTF-8" standalone="no"?><svg xmlns="http://www.w3.org/2000/svg" xmlns:xlink="http://www.w3.org/1999/xlink" contentScriptType="application/ecmascript" contentStyleType="text/css" height="1083.75px" preserveAspectRatio="none" style="width:3522px;height:1083px;" version="1.1" viewBox="0 0 3522 1083" width="3522.5px" zoomAndPan="magnify"><defs><filter height="300%" id="f11x7tvc2n9h2z" width="300%" x="-1" y="-1"><feGaussianBlur result="blurOut" stdDeviation="2.5"/><feColorMatrix in="blurOut" result="blurOut2" type="matrix" values="0 0 0 0 0 0 0 0 0 0 0 0 0 0 0 0 0 0 .4 0"/><feOffset dx="5.0" dy="5.0" in="blurOut2" result="blurOut3"/><feBlend in="SourceGraphic" in2="blurOut3" mode="normal"/></filter></defs><g><!--MD5=[8fd473fd151a2794da4f2c8684676405]
cluster Presentation--><polygon fill="#DDDDDD" filter="url(#f11x7tvc2n9h2z)" points="58.75,7.5,178.75,7.5,187.5,37.0117,373.75,37.0117,373.75,167.5,58.75,167.5,58.75,7.5" style="stroke:#000000;stroke-width:1.875;"/><line style="stroke:#000000;stroke-width:1.875;" x1="58.75" x2="187.5" y1="37.0117" y2="37.0117"/><text fill="#000000" font-family="sans-serif" font-size="17.5" font-weight="bold" lengthAdjust="spacing" textLength="112.5" x="63.75" y="28.1665">Presentation</text><!--MD5=[d64883541e3d62e3241c4d12decf100d]
cluster Application--><polygon fill="#DDDDDD" filter="url(#f11x7tvc2n9h2z)" points="20,208.75,125,208.75,133.75,238.2617,412.5,238.2617,412.5,455,20,455,20,208.75" style="stroke:#000000;stroke-width:1.875;"/><line style="stroke:#000000;stroke-width:1.875;" x1="20" x2="133.75" y1="238.2617" y2="238.2617"/><text fill="#000000" font-family="sans-serif" font-size="17.5" font-weight="bold" lengthAdjust="spacing" textLength="97.5" x="25" y="229.4165">Application</text><!--MD5=[121a8bf1197281ab89ed693fab589f94]
cluster Domain--><polygon fill="#DDDDDD" filter="url(#f11x7tvc2n9h2z)" points="1338.75,520,1411.25,520,1420,549.5117,3501.25,549.5117,3501.25,906.25,1338.75,906.25,1338.75,520" style="stroke:#000000;stroke-width:1.875;"/><line style="stroke:#000000;stroke-width:1.875;" x1="1338.75" x2="1420" y1="549.5117" y2="549.5117"/><text fill="#000000" font-family="sans-serif" font-size="17.5" font-weight="bold" lengthAdjust="spacing" textLength="65" x="1343.75" y="540.6665">Domain</text><!--MD5=[bc6b40dadbf86ab6a0c8405a467a48af]
cluster Persistence--><polygon fill="#DDDDDD" filter="url(#f11x7tvc2n9h2z)" points="108.75,517.5,221.25,517.5,230,547.0117,1308.75,547.0117,1308.75,1075,108.75,1075,108.75,517.5" style="stroke:#000000;stroke-width:1.875;"/><line style="stroke:#000000;stroke-width:1.875;" x1="108.75" x2="230" y1="547.0117" y2="547.0117"/><text fill="#000000" font-family="sans-serif" font-size="17.5" font-weight="bold" lengthAdjust="spacing" textLength="105" x="113.75" y="538.1665">Persistence</text><!--MD5=[0d5799440b3bfefd92b00abfcd2c79b9]
cluster Factory--><polygon fill="#DDDDDD" filter="url(#f11x7tvc2n9h2z)" points="1076.25,590,1148.75,590,1157.5,619.5117,1278.75,619.5117,1278.75,836.25,1076.25,836.25,1076.25,590" style="stroke:#000000;stroke-width:1.875;"/><line style="stroke:#000000;stroke-width:1.875;" x1="1076.25" x2="1157.5" y1="619.5117" y2="619.5117"/><text fill="#000000" font-family="sans-serif" font-size="17.5" font-weight="bold" lengthAdjust="spacing" textLength="65" x="1081.25" y="610.6665">Factory</text><!--MD5=[71971f99a41bb66cf321ce46bb59f738]
cluster Repository--><polygon fill="#DDDDDD" filter="url(#f11x7tvc2n9h2z)" points="618.75,572.5,721.25,572.5,730,602.0117,1011.25,602.0117,1011.25,1045,618.75,1045,618.75,572.5" style="stroke:#000000;stroke-width:1.875;"/><line style="stroke:#000000;stroke-width:1.875;" x1="618.75" x2="730" y1="602.0117" y2="602.0117"/><text fill="#000000" font-family="sans-serif" font-size="17.5" font-weight="bold" lengthAdjust="spacing" textLength="95" x="623.75" y="593.1665">Repository</text><!--MD5=[b838a554afdceeab34230a5c3a6aabf5]
class ConsultAssignedPendingTasksUI--><rect codeLine="4" fill="#FEFECE" filter="url(#f11x7tvc2n9h2z)" height="70.2344" id="ConsultAssignedPendingTasksUI" style="stroke:#A80036;stroke-width:1.875;" width="273.75" x="79.375" y="77.5"/><ellipse cx="98.125" cy="102.6172" fill="#ADD1B2" rx="13.75" ry="13.75" style="stroke:#A80036;stroke-width:1.25;"/><path d="M100.625,98.2422 Q100.8789,97.6172 101.1719,97.3047 Q101.4648,96.9922 101.7969,96.9922 Q102.3828,96.9922 102.7539,97.3438 Q103.125,97.6953 103.125,98.5156 L103.125,100.4688 Q103.125,101.2891 102.7734,101.6406 Q102.4219,101.9922 101.875,101.9922 Q101.3867,101.9922 101.0742,101.7773 Q100.7617,101.5625 100.625,100.9961 Q100.5664,100.6055 100.3516,100.3906 Q99.9609,99.9805 99.2578,99.7461 Q98.5547,99.4922 97.8516,99.4922 Q96.9727,99.4922 96.2305,99.8438 Q95.5078,100.1953 94.9414,100.9766 Q94.375,101.7578 94.375,102.832 L94.375,103.9844 Q94.375,105.2734 95.4297,106.1328 Q96.4844,106.9922 98.3594,106.9922 Q99.4727,106.9922 100.2539,106.7383 Q100.7031,106.6016 101.2109,106.1523 Q101.543,105.8984 101.7188,105.8203 Q101.8945,105.7422 102.1094,105.7422 Q102.5195,105.7422 102.8125,106.0742 Q103.125,106.3867 103.125,106.8359 Q103.125,107.2656 102.6953,107.7734 Q102.0703,108.5156 101.0742,108.9258 Q99.7656,109.4922 98.1641,109.4922 Q96.2891,109.4922 94.7852,108.75 Q93.5742,108.1641 92.7148,106.8945 Q91.875,105.625 91.875,104.1211 L91.875,102.7539 Q91.875,101.1914 92.6172,99.8242 Q93.3789,98.457 94.6875,97.7344 Q96.0156,96.9922 97.5,96.9922 Q98.3984,96.9922 99.1797,97.3047 Q99.9609,97.6172 100.625,98.2422 Z " fill="#000000"/><text fill="#000000" font-family="sans-serif" font-size="15" font-style="italic" lengthAdjust="spacing" textLength="102.5" x="181.25" y="99.3213">«presentation»</text><text fill="#000000" font-family="sans-serif" font-size="15" lengthAdjust="spacing" textLength="233.75" x="115.625" y="118.1885">ConsultAssignedPendingTasksUI</text><line style="stroke:#A80036;stroke-width:1.875;" x1="80.625" x2="351.875" y1="127.7344" y2="127.7344"/><line style="stroke:#A80036;stroke-width:1.875;" x1="80.625" x2="351.875" y1="137.7344" y2="137.7344"/><!--MD5=[4c0d90daae2d1dd9a3233c16fe7a0fb2]
class ConsultAssignedPendingTasksController--><rect codeLine="10" fill="#FEFECE" filter="url(#f11x7tvc2n9h2z)" height="156.709" id="ConsultAssignedPendingTasksController" style="stroke:#A80036;stroke-width:1.875;" width="352.5" x="40" y="278.75"/><ellipse cx="70.5625" cy="303.8672" fill="#ADD1B2" rx="13.75" ry="13.75" style="stroke:#A80036;stroke-width:1.25;"/><path d="M73.0625,299.4922 Q73.3164,298.8672 73.6094,298.5547 Q73.9023,298.2422 74.2344,298.2422 Q74.8203,298.2422 75.1914,298.5938 Q75.5625,298.9453 75.5625,299.7656 L75.5625,301.7188 Q75.5625,302.5391 75.2109,302.8906 Q74.8594,303.2422 74.3125,303.2422 Q73.8242,303.2422 73.5117,303.0273 Q73.1992,302.8125 73.0625,302.2461 Q73.0039,301.8555 72.7891,301.6406 Q72.3984,301.2305 71.6953,300.9961 Q70.9922,300.7422 70.2891,300.7422 Q69.4102,300.7422 68.668,301.0938 Q67.9453,301.4453 67.3789,302.2266 Q66.8125,303.0078 66.8125,304.082 L66.8125,305.2344 Q66.8125,306.5234 67.8672,307.3828 Q68.9219,308.2422 70.7969,308.2422 Q71.9102,308.2422 72.6914,307.9883 Q73.1406,307.8516 73.6484,307.4023 Q73.9805,307.1484 74.1563,307.0703 Q74.332,306.9922 74.5469,306.9922 Q74.957,306.9922 75.25,307.3242 Q75.5625,307.6367 75.5625,308.0859 Q75.5625,308.5156 75.1328,309.0234 Q74.5078,309.7656 73.5117,310.1758 Q72.2031,310.7422 70.6016,310.7422 Q68.7266,310.7422 67.2227,310 Q66.0117,309.4141 65.1523,308.1445 Q64.3125,306.875 64.3125,305.3711 L64.3125,304.0039 Q64.3125,302.4414 65.0547,301.0742 Q65.8164,299.707 67.125,298.9844 Q68.4531,298.2422 69.9375,298.2422 Q70.8359,298.2422 71.6172,298.5547 Q72.3984,298.8672 73.0625,299.4922 Z " fill="#000000"/><text fill="#000000" font-family="sans-serif" font-size="15" font-style="italic" lengthAdjust="spacing" textLength="92.5" x="187.5625" y="300.5713">«application»</text><text fill="#000000" font-family="sans-serif" font-size="15" lengthAdjust="spacing" textLength="286.25" x="90.6875" y="319.4385">ConsultAssignedPendingTasksController</text><line style="stroke:#A80036;stroke-width:1.875;" x1="41.25" x2="391.25" y1="328.9844" y2="328.9844"/><line style="stroke:#A80036;stroke-width:1.875;" x1="41.25" x2="391.25" y1="338.9844" y2="338.9844"/><text fill="#000000" font-family="sans-serif" font-size="13.75" lengthAdjust="spacing" textLength="56.25" x="47.5" y="358.2581">+create()</text><text fill="#000000" font-family="sans-serif" font-size="13.75" lengthAdjust="spacing" textLength="231.25" x="47.5" y="375.553">+getTasksOfCollaborator(collaborator)</text><text fill="#000000" font-family="sans-serif" font-size="13.75" lengthAdjust="spacing" textLength="281.25" x="47.5" y="392.8479">+getTasksOfCollaborator(collaborator, filterBy)</text><text fill="#000000" font-family="sans-serif" font-size="13.75" lengthAdjust="spacing" textLength="287.5" x="47.5" y="410.1428">+getTasksOfCollaborator(collaborator, orderBy)</text><text fill="#000000" font-family="sans-serif" font-size="13.75" lengthAdjust="spacing" textLength="337.5" x="47.5" y="427.4377">+getTasksOfCollaborator(collaborator, filterBy, orderBy)</text><!--MD5=[b34797a66dc35cbf1d65f7e3ca75530e]
class Task--><rect codeLine="22" fill="#FEFECE" filter="url(#f11x7tvc2n9h2z)" height="210.166" id="Task" style="stroke:#A80036;stroke-width:1.875;" width="237.5" x="2443.75" y="633.125"/><ellipse cx="2532.1875" cy="667.6758" fill="#A9DCDF" rx="13.75" ry="13.75" style="stroke:#A80036;stroke-width:1.25;"/><path d="M2534.375,669.5508 L2530.2539,669.5508 L2529.707,670.8008 L2529.707,670.8008 L2530.293,670.8008 L2530.9375,671.582 L2530.9375,672.0508 L2530.9375,672.5195 L2530.293,673.3008 L2529.707,673.3008 L2527.3438,673.3008 L2526.582,673.3008 L2525.9375,672.5195 L2525.9375,672.0508 L2525.9375,671.582 L2526.582,670.8008 L2527.3438,670.8008 L2530.2344,663.3008 L2529.1406,663.3008 L2527.832,663.3008 L2527.1875,662.5195 L2527.1875,662.0508 L2527.1875,661.582 L2527.832,660.8008 L2529.1406,660.8008 L2533.7305,660.8008 L2537.0898,670.8008 L2537.793,670.8008 L2537.793,670.8008 L2538.4375,671.582 L2538.4375,672.0508 L2538.4375,672.5195 L2537.793,673.3008 L2537.0898,673.3008 L2534.7266,673.3008 L2534.082,673.3008 L2533.4375,672.5195 L2533.4375,672.0508 L2533.4375,671.582 L2534.082,670.8008 L2534.7266,670.8008 L2534.7266,670.8008 L2534.375,669.5508 Z M2533.6914,667.0508 L2532.1875,662.5781 L2530.8984,667.0508 L2533.6914,667.0508 Z " fill="#000000"/><text fill="#000000" font-family="sans-serif" font-size="15" font-style="italic" lengthAdjust="spacing" textLength="55" x="2555.3125" y="654.9463">«Entity»</text><text fill="#000000" font-family="sans-serif" font-size="15" font-style="italic" lengthAdjust="spacing" textLength="50" x="2557.8125" y="673.8135">«Root»</text><text fill="#000000" font-family="sans-serif" font-size="15" font-style="italic" lengthAdjust="spacing" textLength="33.75" x="2565.9375" y="692.6807">Task</text><line style="stroke:#A80036;stroke-width:1.875;" x1="2445" x2="2680" y1="702.2266" y2="702.2266"/><text fill="#000000" font-family="sans-serif" font-size="13.75" lengthAdjust="spacing" textLength="97.5" x="2451.25" y="721.5002">-taskDescription</text><text fill="#000000" font-family="sans-serif" font-size="13.75" lengthAdjust="spacing" textLength="68.75" x="2451.25" y="738.7952">-taskStatus</text><text fill="#000000" font-family="sans-serif" font-size="13.75" lengthAdjust="spacing" textLength="71.25" x="2451.25" y="756.0901">-taskPriority</text><text fill="#000000" font-family="sans-serif" font-size="13.75" lengthAdjust="spacing" textLength="67.5" x="2451.25" y="773.385">-taskResult</text><text fill="#000000" font-family="sans-serif" font-size="13.75" lengthAdjust="spacing" textLength="76.25" x="2451.25" y="790.6799">-collaborator</text><line style="stroke:#A80036;stroke-width:1.875;" x1="2445" x2="2680" y1="798.7012" y2="798.7012"/><text fill="#000000" font-family="sans-serif" font-size="13.75" lengthAdjust="spacing" textLength="222.5" x="2451.25" y="817.9749">+create(taskDescription, taskPriority)</text><text fill="#000000" font-family="sans-serif" font-size="13.75" lengthAdjust="spacing" textLength="201.25" x="2451.25" y="835.2698">+assignCollaborator(collaborator)</text><!--MD5=[743064f62b3390934ed7addf6a434293]
class ManualTask--><rect codeLine="32" fill="#FEFECE" filter="url(#f11x7tvc2n9h2z)" height="122.1191" id="ManualTask" style="stroke:#A80036;stroke-width:1.875;" width="328.75" x="1751.875" y="676.875"/><ellipse cx="1869.0625" cy="701.9922" fill="#ADD1B2" rx="13.75" ry="13.75" style="stroke:#A80036;stroke-width:1.25;"/><path d="M1871.5625,697.6172 Q1871.8164,696.9922 1872.1094,696.6797 Q1872.4023,696.3672 1872.7344,696.3672 Q1873.3203,696.3672 1873.6914,696.7188 Q1874.0625,697.0703 1874.0625,697.8906 L1874.0625,699.8438 Q1874.0625,700.6641 1873.7109,701.0156 Q1873.3594,701.3672 1872.8125,701.3672 Q1872.3242,701.3672 1872.0117,701.1523 Q1871.6992,700.9375 1871.5625,700.3711 Q1871.5039,699.9805 1871.2891,699.7656 Q1870.8984,699.3555 1870.1953,699.1211 Q1869.4922,698.8672 1868.7891,698.8672 Q1867.9102,698.8672 1867.168,699.2188 Q1866.4453,699.5703 1865.8789,700.3516 Q1865.3125,701.1328 1865.3125,702.207 L1865.3125,703.3594 Q1865.3125,704.6484 1866.3672,705.5078 Q1867.4219,706.3672 1869.2969,706.3672 Q1870.4102,706.3672 1871.1914,706.1133 Q1871.6406,705.9766 1872.1484,705.5273 Q1872.4805,705.2734 1872.6563,705.1953 Q1872.832,705.1172 1873.0469,705.1172 Q1873.457,705.1172 1873.75,705.4492 Q1874.0625,705.7617 1874.0625,706.2109 Q1874.0625,706.6406 1873.6328,707.1484 Q1873.0078,707.8906 1872.0117,708.3008 Q1870.7031,708.8672 1869.1016,708.8672 Q1867.2266,708.8672 1865.7227,708.125 Q1864.5117,707.5391 1863.6523,706.2695 Q1862.8125,705 1862.8125,703.4961 L1862.8125,702.1289 Q1862.8125,700.5664 1863.5547,699.1992 Q1864.3164,697.832 1865.625,697.1094 Q1866.9531,696.3672 1868.4375,696.3672 Q1869.3359,696.3672 1870.1172,696.6797 Q1870.8984,696.9922 1871.5625,697.6172 Z " fill="#000000"/><text fill="#000000" font-family="sans-serif" font-size="15" font-style="italic" lengthAdjust="spacing" textLength="55" x="1909.0625" y="698.6963">«Entity»</text><text fill="#000000" font-family="sans-serif" font-size="15" lengthAdjust="spacing" textLength="83.75" x="1894.6875" y="717.5635">ManualTask</text><line style="stroke:#A80036;stroke-width:1.875;" x1="1753.125" x2="2079.375" y1="727.1094" y2="727.1094"/><text fill="#000000" font-family="sans-serif" font-size="13.75" lengthAdjust="spacing" textLength="32.5" x="1759.375" y="746.3831">-form</text><text fill="#000000" font-family="sans-serif" font-size="13.75" lengthAdjust="spacing" textLength="53.75" x="1759.375" y="763.678">-limitDate</text><line style="stroke:#A80036;stroke-width:1.875;" x1="1753.125" x2="2079.375" y1="771.6992" y2="771.6992"/><text fill="#000000" font-family="sans-serif" font-size="13.75" lengthAdjust="spacing" textLength="313.75" x="1759.375" y="790.9729">+create(taskDescription, taskPriority, limitDate, form)</text><!--MD5=[f483d6e5de34a60207b28a5563be5e8b]
class Collaborator--><rect codeLine="38" fill="#FEFECE" filter="url(#f11x7tvc2n9h2z)" height="296.6406" id="Collaborator" style="stroke:#A80036;stroke-width:1.875;" width="727.5" x="2753.75" y="590"/><ellipse cx="3069.6875" cy="624.5508" fill="#ADD1B2" rx="13.75" ry="13.75" style="stroke:#A80036;stroke-width:1.25;"/><path d="M3072.1875,620.1758 Q3072.4414,619.5508 3072.7344,619.2383 Q3073.0273,618.9258 3073.3594,618.9258 Q3073.9453,618.9258 3074.3164,619.2773 Q3074.6875,619.6289 3074.6875,620.4492 L3074.6875,622.4023 Q3074.6875,623.2227 3074.3359,623.5742 Q3073.9844,623.9258 3073.4375,623.9258 Q3072.9492,623.9258 3072.6367,623.7109 Q3072.3242,623.4961 3072.1875,622.9297 Q3072.1289,622.5391 3071.9141,622.3242 Q3071.5234,621.9141 3070.8203,621.6797 Q3070.1172,621.4258 3069.4141,621.4258 Q3068.5352,621.4258 3067.793,621.7773 Q3067.0703,622.1289 3066.5039,622.9102 Q3065.9375,623.6914 3065.9375,624.7656 L3065.9375,625.918 Q3065.9375,627.207 3066.9922,628.0664 Q3068.0469,628.9258 3069.9219,628.9258 Q3071.0352,628.9258 3071.8164,628.6719 Q3072.2656,628.5352 3072.7734,628.0859 Q3073.1055,627.832 3073.2813,627.7539 Q3073.457,627.6758 3073.6719,627.6758 Q3074.082,627.6758 3074.375,628.0078 Q3074.6875,628.3203 3074.6875,628.7695 Q3074.6875,629.1992 3074.2578,629.707 Q3073.6328,630.4492 3072.6367,630.8594 Q3071.3281,631.4258 3069.7266,631.4258 Q3067.8516,631.4258 3066.3477,630.6836 Q3065.1367,630.0977 3064.2773,628.8281 Q3063.4375,627.5586 3063.4375,626.0547 L3063.4375,624.6875 Q3063.4375,623.125 3064.1797,621.7578 Q3064.9414,620.3906 3066.25,619.668 Q3067.5781,618.9258 3069.0625,618.9258 Q3069.9609,618.9258 3070.7422,619.2383 Q3071.5234,619.5508 3072.1875,620.1758 Z " fill="#000000"/><text fill="#000000" font-family="sans-serif" font-size="15" font-style="italic" lengthAdjust="spacing" textLength="55" x="3110.3125" y="611.8213">«Entity»</text><text fill="#000000" font-family="sans-serif" font-size="15" font-style="italic" lengthAdjust="spacing" textLength="50" x="3112.8125" y="630.6885">«Root»</text><text fill="#000000" font-family="sans-serif" font-size="15" lengthAdjust="spacing" textLength="85" x="3095.3125" y="649.5557">Collaborator</text><line style="stroke:#A80036;stroke-width:1.875;" x1="2755" x2="3480" y1="659.1016" y2="659.1016"/><text fill="#000000" font-family="sans-serif" font-size="13.75" lengthAdjust="spacing" textLength="143.75" x="2761.25" y="678.3752">-mecanographicNumber</text><text fill="#000000" font-family="sans-serif" font-size="13.75" lengthAdjust="spacing" textLength="77.5" x="2761.25" y="695.6702">-systemUser</text><text fill="#000000" font-family="sans-serif" font-size="13.75" lengthAdjust="spacing" textLength="57.5" x="2761.25" y="712.9651">-manager</text><text fill="#000000" font-family="sans-serif" font-size="13.75" lengthAdjust="spacing" textLength="88.75" x="2761.25" y="730.26">-phoneNumber</text><text fill="#000000" font-family="sans-serif" font-size="13.75" lengthAdjust="spacing" textLength="58.75" x="2761.25" y="747.5549">-birthDate</text><text fill="#000000" font-family="sans-serif" font-size="13.75" lengthAdjust="spacing" textLength="55" x="2761.25" y="764.8499">-address</text><text fill="#000000" font-family="sans-serif" font-size="13.75" lengthAdjust="spacing" textLength="92.5" x="2761.25" y="782.1448">-completeName</text><text fill="#000000" font-family="sans-serif" font-size="13.75" lengthAdjust="spacing" textLength="70" x="2761.25" y="799.4397">-shortName</text><text fill="#000000" font-family="sans-serif" font-size="13.75" lengthAdjust="spacing" textLength="41.25" x="2761.25" y="816.7346">-teams</text><line style="stroke:#A80036;stroke-width:1.875;" x1="2755" x2="3480" y1="824.7559" y2="824.7559"/><text fill="#000000" font-family="sans-serif" font-size="13.75" lengthAdjust="spacing" textLength="712.5" x="2761.25" y="844.0295">+create(systemUser, manager, phoneNumber, birthDate, address, completeName, shortName, mecanographicNumber)</text><text fill="#000000" font-family="sans-serif" font-size="13.75" lengthAdjust="spacing" textLength="101.25" x="2761.25" y="861.3245">+addTeam(team)</text><text fill="#000000" font-family="sans-serif" font-size="13.75" lengthAdjust="spacing" textLength="123.75" x="2761.25" y="878.6194">+removeTeam(team)</text><!--MD5=[6f29f313cd4199edbf91b9ce3a4faa98]
class Form--><rect codeLine="53" fill="#FEFECE" filter="url(#f11x7tvc2n9h2z)" height="158.2813" id="Form" style="stroke:#A80036;stroke-width:1.875;" width="246.25" x="2153.125" y="658.75"/><ellipse cx="2245.9375" cy="693.3008" fill="#ADD1B2" rx="13.75" ry="13.75" style="stroke:#A80036;stroke-width:1.25;"/><path d="M2248.4375,688.9258 Q2248.6914,688.3008 2248.9844,687.9883 Q2249.2773,687.6758 2249.6094,687.6758 Q2250.1953,687.6758 2250.5664,688.0273 Q2250.9375,688.3789 2250.9375,689.1992 L2250.9375,691.1523 Q2250.9375,691.9727 2250.5859,692.3242 Q2250.2344,692.6758 2249.6875,692.6758 Q2249.1992,692.6758 2248.8867,692.4609 Q2248.5742,692.2461 2248.4375,691.6797 Q2248.3789,691.2891 2248.1641,691.0742 Q2247.7734,690.6641 2247.0703,690.4297 Q2246.3672,690.1758 2245.6641,690.1758 Q2244.7852,690.1758 2244.043,690.5273 Q2243.3203,690.8789 2242.7539,691.6602 Q2242.1875,692.4414 2242.1875,693.5156 L2242.1875,694.668 Q2242.1875,695.957 2243.2422,696.8164 Q2244.2969,697.6758 2246.1719,697.6758 Q2247.2852,697.6758 2248.0664,697.4219 Q2248.5156,697.2852 2249.0234,696.8359 Q2249.3555,696.582 2249.5313,696.5039 Q2249.707,696.4258 2249.9219,696.4258 Q2250.332,696.4258 2250.625,696.7578 Q2250.9375,697.0703 2250.9375,697.5195 Q2250.9375,697.9492 2250.5078,698.457 Q2249.8828,699.1992 2248.8867,699.6094 Q2247.5781,700.1758 2245.9766,700.1758 Q2244.1016,700.1758 2242.5977,699.4336 Q2241.3867,698.8477 2240.5273,697.5781 Q2239.6875,696.3086 2239.6875,694.8047 L2239.6875,693.4375 Q2239.6875,691.875 2240.4297,690.5078 Q2241.1914,689.1406 2242.5,688.418 Q2243.8281,687.6758 2245.3125,687.6758 Q2246.2109,687.6758 2246.9922,687.9883 Q2247.7734,688.3008 2248.4375,688.9258 Z " fill="#000000"/><text fill="#000000" font-family="sans-serif" font-size="15" font-style="italic" lengthAdjust="spacing" textLength="55" x="2269.0625" y="680.5713">«Entity»</text><text fill="#000000" font-family="sans-serif" font-size="15" font-style="italic" lengthAdjust="spacing" textLength="50" x="2271.5625" y="699.4385">«Root»</text><text fill="#000000" font-family="sans-serif" font-size="15" lengthAdjust="spacing" textLength="36.25" x="2278.4375" y="718.3057">Form</text><line style="stroke:#A80036;stroke-width:1.875;" x1="2154.375" x2="2398.125" y1="727.8516" y2="727.8516"/><text fill="#000000" font-family="sans-serif" font-size="13.75" lengthAdjust="spacing" textLength="37.5" x="2160.625" y="747.1252">-name</text><text fill="#000000" font-family="sans-serif" font-size="13.75" lengthAdjust="spacing" textLength="62.5" x="2160.625" y="764.4202">-formType</text><text fill="#000000" font-family="sans-serif" font-size="13.75" lengthAdjust="spacing" textLength="75" x="2160.625" y="781.7151">-attributeList</text><line style="stroke:#A80036;stroke-width:1.875;" x1="2154.375" x2="2398.125" y1="789.7363" y2="789.7363"/><text fill="#000000" font-family="sans-serif" font-size="13.75" lengthAdjust="spacing" textLength="231.25" x="2160.625" y="809.01">+create(name, formType, attributeList)</text><!--MD5=[b6692645e012126c295712d581f46d59]
class TaskFilterFields--><rect codeLine="60" fill="#FEFECE" filter="url(#f11x7tvc2n9h2z)" height="70.2344" id="TaskFilterFields" style="stroke:#A80036;stroke-width:1.875;" width="150" x="1557.5" y="703.125"/><ellipse cx="1576.25" cy="728.2422" fill="#EB937F" rx="13.75" ry="13.75" style="stroke:#A80036;stroke-width:1.25;"/><path d="M1574.375,729.4922 L1574.375,731.9922 L1579.375,731.9922 L1579.375,730.7422 L1579.375,730.1367 L1580.1563,729.4922 L1580.625,729.4922 L1581.0938,729.4922 L1581.875,730.1367 L1581.875,730.7422 L1581.875,734.4922 L1571.875,734.4922 L1571.2695,734.4922 L1570.625,733.7109 L1570.625,733.2422 L1570.625,732.7734 L1571.2695,731.9922 L1571.875,731.9922 L1571.875,731.9922 L1571.875,724.4922 L1571.875,724.4922 L1571.2695,724.4922 L1570.625,723.7109 L1570.625,723.2422 L1570.625,722.7734 L1571.2695,721.9922 L1571.875,721.9922 L1581.875,721.9922 L1581.875,725.7422 L1581.875,726.3477 L1581.0938,726.9922 L1580.625,726.9922 L1580.1563,726.9922 L1579.375,726.3477 L1579.375,725.7422 L1579.375,724.4922 L1574.375,724.4922 L1574.375,726.9922 L1575.625,726.9922 L1575.625,726.3867 L1575.625,726.3867 L1576.4063,725.7422 L1576.875,725.7422 L1577.3438,725.7422 L1578.125,726.3867 L1578.125,726.9922 L1578.125,729.4922 L1578.125,730.0977 L1577.3438,730.7422 L1577.3438,730.7422 L1576.875,730.7422 L1576.4063,730.7422 L1575.625,730.0977 L1575.625,730.0977 L1575.625,729.4922 L1574.375,729.4922 Z " fill="#000000"/><text fill="#000000" font-family="sans-serif" font-size="15" font-style="italic" lengthAdjust="spacing" textLength="57.5" x="1620" y="724.9463">«enum»</text><text fill="#000000" font-family="sans-serif" font-size="15" lengthAdjust="spacing" textLength="110" x="1593.75" y="743.8135">TaskFilterFields</text><line style="stroke:#A80036;stroke-width:1.875;" x1="1558.75" x2="1706.25" y1="753.3594" y2="753.3594"/><line style="stroke:#A80036;stroke-width:1.875;" x1="1558.75" x2="1706.25" y1="763.3594" y2="763.3594"/><!--MD5=[f3a2002687a642eaae9e81dd18c76152]
class TaskOrderFields--><rect codeLine="63" fill="#FEFECE" filter="url(#f11x7tvc2n9h2z)" height="70.2344" id="TaskOrderFields" style="stroke:#A80036;stroke-width:1.875;" width="155" x="1358.75" y="703.125"/><ellipse cx="1377.5" cy="728.2422" fill="#EB937F" rx="13.75" ry="13.75" style="stroke:#A80036;stroke-width:1.25;"/><path d="M1375.625,729.4922 L1375.625,731.9922 L1380.625,731.9922 L1380.625,730.7422 L1380.625,730.1367 L1381.4063,729.4922 L1381.875,729.4922 L1382.3438,729.4922 L1383.125,730.1367 L1383.125,730.7422 L1383.125,734.4922 L1373.125,734.4922 L1372.5195,734.4922 L1371.875,733.7109 L1371.875,733.2422 L1371.875,732.7734 L1372.5195,731.9922 L1373.125,731.9922 L1373.125,731.9922 L1373.125,724.4922 L1373.125,724.4922 L1372.5195,724.4922 L1371.875,723.7109 L1371.875,723.2422 L1371.875,722.7734 L1372.5195,721.9922 L1373.125,721.9922 L1383.125,721.9922 L1383.125,725.7422 L1383.125,726.3477 L1382.3438,726.9922 L1381.875,726.9922 L1381.4063,726.9922 L1380.625,726.3477 L1380.625,725.7422 L1380.625,724.4922 L1375.625,724.4922 L1375.625,726.9922 L1376.875,726.9922 L1376.875,726.3867 L1376.875,726.3867 L1377.6563,725.7422 L1378.125,725.7422 L1378.5938,725.7422 L1379.375,726.3867 L1379.375,726.9922 L1379.375,729.4922 L1379.375,730.0977 L1378.5938,730.7422 L1378.5938,730.7422 L1378.125,730.7422 L1377.6563,730.7422 L1376.875,730.0977 L1376.875,730.0977 L1376.875,729.4922 L1375.625,729.4922 Z " fill="#000000"/><text fill="#000000" font-family="sans-serif" font-size="15" font-style="italic" lengthAdjust="spacing" textLength="57.5" x="1423.75" y="724.9463">«enum»</text><text fill="#000000" font-family="sans-serif" font-size="15" lengthAdjust="spacing" textLength="115" x="1395" y="743.8135">TaskOrderFields</text><line style="stroke:#A80036;stroke-width:1.875;" x1="1360" x2="1512.5" y1="753.3594" y2="753.3594"/><line style="stroke:#A80036;stroke-width:1.875;" x1="1360" x2="1512.5" y1="763.3594" y2="763.3594"/><!--MD5=[e8c189551b7885b999ad7cefb30fc2a3]
class PersistenceContext--><rect codeLine="68" fill="#FEFECE" filter="url(#f11x7tvc2n9h2z)" height="87.5293" id="PersistenceContext" style="stroke:#A80036;stroke-width:1.875;" width="173.75" x="129.375" y="694.375"/><ellipse cx="148.125" cy="719.4922" fill="#ADD1B2" rx="13.75" ry="13.75" style="stroke:#A80036;stroke-width:1.25;"/><path d="M150.625,715.1172 Q150.8789,714.4922 151.1719,714.1797 Q151.4648,713.8672 151.7969,713.8672 Q152.3828,713.8672 152.7539,714.2188 Q153.125,714.5703 153.125,715.3906 L153.125,717.3438 Q153.125,718.1641 152.7734,718.5156 Q152.4219,718.8672 151.875,718.8672 Q151.3867,718.8672 151.0742,718.6523 Q150.7617,718.4375 150.625,717.8711 Q150.5664,717.4805 150.3516,717.2656 Q149.9609,716.8555 149.2578,716.6211 Q148.5547,716.3672 147.8516,716.3672 Q146.9727,716.3672 146.2305,716.7188 Q145.5078,717.0703 144.9414,717.8516 Q144.375,718.6328 144.375,719.707 L144.375,720.8594 Q144.375,722.1484 145.4297,723.0078 Q146.4844,723.8672 148.3594,723.8672 Q149.4727,723.8672 150.2539,723.6133 Q150.7031,723.4766 151.2109,723.0273 Q151.543,722.7734 151.7188,722.6953 Q151.8945,722.6172 152.1094,722.6172 Q152.5195,722.6172 152.8125,722.9492 Q153.125,723.2617 153.125,723.7109 Q153.125,724.1406 152.6953,724.6484 Q152.0703,725.3906 151.0742,725.8008 Q149.7656,726.3672 148.1641,726.3672 Q146.2891,726.3672 144.7852,725.625 Q143.5742,725.0391 142.7148,723.7695 Q141.875,722.5 141.875,720.9961 L141.875,719.6289 Q141.875,718.0664 142.6172,716.6992 Q143.3789,715.332 144.6875,714.6094 Q146.0156,713.8672 147.5,713.8672 Q148.3984,713.8672 149.1797,714.1797 Q149.9609,714.4922 150.625,715.1172 Z " fill="#000000"/><text fill="#000000" font-family="sans-serif" font-size="15" font-style="italic" lengthAdjust="spacing" textLength="96.25" x="184.375" y="716.1963">«persistence»</text><text fill="#000000" font-family="sans-serif" font-size="15" lengthAdjust="spacing" textLength="133.75" x="165.625" y="735.0635">PersistenceContext</text><line style="stroke:#A80036;stroke-width:1.875;" x1="130.625" x2="301.875" y1="744.6094" y2="744.6094"/><line style="stroke:#A80036;stroke-width:1.875;" x1="130.625" x2="301.875" y1="754.6094" y2="754.6094"/><text fill="#000000" font-family="sans-serif" font-size="13.75" lengthAdjust="spacing" textLength="88.75" x="136.875" y="773.8831">+repositories()</text><!--MD5=[b8e4c95865208c934bfcfda4f90bf50c]
class AppSettings--><rect codeLine="72" fill="#FEFECE" filter="url(#f11x7tvc2n9h2z)" height="104.8242" id="AppSettings" style="stroke:#A80036;stroke-width:1.875;" width="162.5" x="432.5" y="685.625"/><ellipse cx="465.3125" cy="710.7422" fill="#ADD1B2" rx="13.75" ry="13.75" style="stroke:#A80036;stroke-width:1.25;"/><path d="M467.8125,706.3672 Q468.0664,705.7422 468.3594,705.4297 Q468.6523,705.1172 468.9844,705.1172 Q469.5703,705.1172 469.9414,705.4688 Q470.3125,705.8203 470.3125,706.6406 L470.3125,708.5938 Q470.3125,709.4141 469.9609,709.7656 Q469.6094,710.1172 469.0625,710.1172 Q468.5742,710.1172 468.2617,709.9023 Q467.9492,709.6875 467.8125,709.1211 Q467.7539,708.7305 467.5391,708.5156 Q467.1484,708.1055 466.4453,707.8711 Q465.7422,707.6172 465.0391,707.6172 Q464.1602,707.6172 463.418,707.9688 Q462.6953,708.3203 462.1289,709.1016 Q461.5625,709.8828 461.5625,710.957 L461.5625,712.1094 Q461.5625,713.3984 462.6172,714.2578 Q463.6719,715.1172 465.5469,715.1172 Q466.6602,715.1172 467.4414,714.8633 Q467.8906,714.7266 468.3984,714.2773 Q468.7305,714.0234 468.9063,713.9453 Q469.082,713.8672 469.2969,713.8672 Q469.707,713.8672 470,714.1992 Q470.3125,714.5117 470.3125,714.9609 Q470.3125,715.3906 469.8828,715.8984 Q469.2578,716.6406 468.2617,717.0508 Q466.9531,717.6172 465.3516,717.6172 Q463.4766,717.6172 461.9727,716.875 Q460.7617,716.2891 459.9023,715.0195 Q459.0625,713.75 459.0625,712.2461 L459.0625,710.8789 Q459.0625,709.3164 459.8047,707.9492 Q460.5664,706.582 461.875,705.8594 Q463.2031,705.1172 464.6875,705.1172 Q465.5859,705.1172 466.3672,705.4297 Q467.1484,705.7422 467.8125,706.3672 Z " fill="#000000"/><text fill="#000000" font-family="sans-serif" font-size="15" font-style="italic" lengthAdjust="spacing" textLength="96.25" x="483.4375" y="707.4463">«persistence»</text><text fill="#000000" font-family="sans-serif" font-size="15" lengthAdjust="spacing" textLength="82.5" x="490.3125" y="726.3135">AppSettings</text><line style="stroke:#A80036;stroke-width:1.875;" x1="433.75" x2="593.75" y1="735.8594" y2="735.8594"/><line style="stroke:#A80036;stroke-width:1.875;" x1="433.75" x2="593.75" y1="745.8594" y2="745.8594"/><text fill="#000000" font-family="sans-serif" font-size="13.75" lengthAdjust="spacing" textLength="68.75" x="440" y="765.1331">+instance()</text><text fill="#000000" font-family="sans-serif" font-size="13.75" lengthAdjust="spacing" textLength="147.5" x="440" y="782.428">+getRepositoryFactory()</text><!--MD5=[48590afff58a68e2fcba47824d6f8a11]
class RepositoryFactory--><rect codeLine="78" fill="#FEFECE" filter="url(#f11x7tvc2n9h2z)" height="156.709" id="RepositoryFactory" style="stroke:#A80036;stroke-width:1.875;" width="162.5" x="1096.25" y="660"/><ellipse cx="1115" cy="685.1172" fill="#ADD1B2" rx="13.75" ry="13.75" style="stroke:#A80036;stroke-width:1.25;"/><path d="M1117.5,680.7422 Q1117.7539,680.1172 1118.0469,679.8047 Q1118.3398,679.4922 1118.6719,679.4922 Q1119.2578,679.4922 1119.6289,679.8438 Q1120,680.1953 1120,681.0156 L1120,682.9688 Q1120,683.7891 1119.6484,684.1406 Q1119.2969,684.4922 1118.75,684.4922 Q1118.2617,684.4922 1117.9492,684.2773 Q1117.6367,684.0625 1117.5,683.4961 Q1117.4414,683.1055 1117.2266,682.8906 Q1116.8359,682.4805 1116.1328,682.2461 Q1115.4297,681.9922 1114.7266,681.9922 Q1113.8477,681.9922 1113.1055,682.3438 Q1112.3828,682.6953 1111.8164,683.4766 Q1111.25,684.2578 1111.25,685.332 L1111.25,686.4844 Q1111.25,687.7734 1112.3047,688.6328 Q1113.3594,689.4922 1115.2344,689.4922 Q1116.3477,689.4922 1117.1289,689.2383 Q1117.5781,689.1016 1118.0859,688.6523 Q1118.418,688.3984 1118.5938,688.3203 Q1118.7695,688.2422 1118.9844,688.2422 Q1119.3945,688.2422 1119.6875,688.5742 Q1120,688.8867 1120,689.3359 Q1120,689.7656 1119.5703,690.2734 Q1118.9453,691.0156 1117.9492,691.4258 Q1116.6406,691.9922 1115.0391,691.9922 Q1113.1641,691.9922 1111.6602,691.25 Q1110.4492,690.6641 1109.5898,689.3945 Q1108.75,688.125 1108.75,686.6211 L1108.75,685.2539 Q1108.75,683.6914 1109.4922,682.3242 Q1110.2539,680.957 1111.5625,680.2344 Q1112.8906,679.4922 1114.375,679.4922 Q1115.2734,679.4922 1116.0547,679.8047 Q1116.8359,680.1172 1117.5,680.7422 Z " fill="#000000"/><text fill="#000000" font-family="sans-serif" font-size="15" font-style="italic" lengthAdjust="spacing" textLength="62.5" x="1162.5" y="681.8213">«factory»</text><text fill="#000000" font-family="sans-serif" font-size="15" lengthAdjust="spacing" textLength="122.5" x="1132.5" y="700.6885">RepositoryFactory</text><line style="stroke:#A80036;stroke-width:1.875;" x1="1097.5" x2="1257.5" y1="710.2344" y2="710.2344"/><line style="stroke:#A80036;stroke-width:1.875;" x1="1097.5" x2="1257.5" y1="720.2344" y2="720.2344"/><text fill="#000000" font-family="sans-serif" font-size="13.75" lengthAdjust="spacing" textLength="56.25" x="1103.75" y="739.5081">+create()</text><text fill="#000000" font-family="sans-serif" font-size="13.75" lengthAdjust="spacing" textLength="96.25" x="1103.75" y="756.803">+collaborators()</text><text fill="#000000" font-family="sans-serif" font-size="13.75" lengthAdjust="spacing" textLength="50" x="1103.75" y="774.0979">+tasks()</text><text fill="#000000" font-family="sans-serif" font-size="13.75" lengthAdjust="spacing" textLength="53.75" x="1103.75" y="791.3928">+teams()</text><text fill="#000000" font-family="sans-serif" font-size="13.75" lengthAdjust="spacing" textLength="52.5" x="1103.75" y="808.6877">+forms()</text><!--MD5=[2d00e6e09a1cfec9653155ee4d91c399]
class TaskRepository--><rect codeLine="88" fill="#FEFECE" filter="url(#f11x7tvc2n9h2z)" height="191.2988" id="TaskRepository" style="stroke:#A80036;stroke-width:1.875;" width="352.5" x="638.75" y="642.5"/><ellipse cx="755.9375" cy="667.6172" fill="#ADD1B2" rx="13.75" ry="13.75" style="stroke:#A80036;stroke-width:1.25;"/><path d="M758.4375,663.2422 Q758.6914,662.6172 758.9844,662.3047 Q759.2773,661.9922 759.6094,661.9922 Q760.1953,661.9922 760.5664,662.3438 Q760.9375,662.6953 760.9375,663.5156 L760.9375,665.4688 Q760.9375,666.2891 760.5859,666.6406 Q760.2344,666.9922 759.6875,666.9922 Q759.1992,666.9922 758.8867,666.7773 Q758.5742,666.5625 758.4375,665.9961 Q758.3789,665.6055 758.1641,665.3906 Q757.7734,664.9805 757.0703,664.7461 Q756.3672,664.4922 755.6641,664.4922 Q754.7852,664.4922 754.043,664.8438 Q753.3203,665.1953 752.7539,665.9766 Q752.1875,666.7578 752.1875,667.832 L752.1875,668.9844 Q752.1875,670.2734 753.2422,671.1328 Q754.2969,671.9922 756.1719,671.9922 Q757.2852,671.9922 758.0664,671.7383 Q758.5156,671.6016 759.0234,671.1523 Q759.3555,670.8984 759.5313,670.8203 Q759.707,670.7422 759.9219,670.7422 Q760.332,670.7422 760.625,671.0742 Q760.9375,671.3867 760.9375,671.8359 Q760.9375,672.2656 760.5078,672.7734 Q759.8828,673.5156 758.8867,673.9258 Q757.5781,674.4922 755.9766,674.4922 Q754.1016,674.4922 752.5977,673.75 Q751.3867,673.1641 750.5273,671.8945 Q749.6875,670.625 749.6875,669.1211 L749.6875,667.7539 Q749.6875,666.1914 750.4297,664.8242 Q751.1914,663.457 752.5,662.7344 Q753.8281,661.9922 755.3125,661.9922 Q756.2109,661.9922 756.9922,662.3047 Q757.7734,662.6172 758.4375,663.2422 Z " fill="#000000"/><text fill="#000000" font-family="sans-serif" font-size="15" font-style="italic" lengthAdjust="spacing" textLength="85" x="792.8125" y="664.3213">«repository»</text><text fill="#000000" font-family="sans-serif" font-size="15" lengthAdjust="spacing" textLength="107.5" x="781.5625" y="683.1885">TaskRepository</text><line style="stroke:#A80036;stroke-width:1.875;" x1="640" x2="990" y1="692.7344" y2="692.7344"/><line style="stroke:#A80036;stroke-width:1.875;" x1="640" x2="990" y1="702.7344" y2="702.7344"/><text fill="#000000" font-family="sans-serif" font-size="13.75" lengthAdjust="spacing" textLength="56.25" x="646.25" y="722.0081">+create()</text><text fill="#000000" font-family="sans-serif" font-size="13.75" lengthAdjust="spacing" textLength="55" x="646.25" y="739.303">+findAll()</text><text fill="#000000" font-family="sans-serif" font-size="13.75" lengthAdjust="spacing" textLength="231.25" x="646.25" y="756.5979">+getTasksOfCollaborator(collaborator)</text><text fill="#000000" font-family="sans-serif" font-size="13.75" lengthAdjust="spacing" textLength="281.25" x="646.25" y="773.8928">+getTasksOfCollaborator(collaborator, filterBy)</text><text fill="#000000" font-family="sans-serif" font-size="13.75" lengthAdjust="spacing" textLength="287.5" x="646.25" y="791.1877">+getTasksOfCollaborator(collaborator, orderBy)</text><text fill="#000000" font-family="sans-serif" font-size="13.75" lengthAdjust="spacing" textLength="337.5" x="646.25" y="808.4827">+getTasksOfCollaborator(collaborator, filterBy, orderBy)</text><text fill="#000000" font-family="sans-serif" font-size="13.75" lengthAdjust="spacing" textLength="76.25" x="646.25" y="825.7776">+save(Task)</text><!--MD5=[702d91e0c1d43f6bc0e67f9c84584b9d]
class TaskRepositoryInterface--><rect codeLine="98" fill="#FEFECE" filter="url(#f11x7tvc2n9h2z)" height="60" id="TaskRepositoryInterface" style="stroke:#A80036;stroke-width:1.875;" width="207.5" x="711.25" y="965"/><ellipse cx="730" cy="985" fill="#B4A7E5" rx="13.75" ry="13.75" style="stroke:#A80036;stroke-width:1.25;"/><path d="M731.25,981.25 L731.25,988.75 L733.75,988.75 L734.3555,988.75 L735,989.5313 L735,990 L735,990.4688 L734.3555,991.25 L733.75,991.25 L726.25,991.25 L725.6445,991.25 L725,990.4688 L725,990 L725,989.5313 L725.6445,988.75 L726.25,988.75 L728.75,988.75 L728.75,981.25 L726.25,981.25 L725.6445,981.25 L725,980.4688 L725,980 L725,979.5313 L725.6445,978.75 L726.25,978.75 L733.75,978.75 L734.3555,978.75 L735,979.5313 L735,980 L735,980.4688 L734.3555,981.25 L733.75,981.25 L731.25,981.25 Z " fill="#000000"/><text fill="#000000" font-family="sans-serif" font-size="15" font-style="italic" lengthAdjust="spacing" textLength="167.5" x="747.5" y="991.1377">TaskRepositoryInterface</text><line style="stroke:#A80036;stroke-width:1.875;" x1="712.5" x2="917.5" y1="1005" y2="1005"/><line style="stroke:#A80036;stroke-width:1.875;" x1="712.5" x2="917.5" y1="1015" y2="1015"/><!--MD5=[42468204f4d2597fbf20c9587ed04068]
link ConsultAssignedPendingTasksUI to ConsultAssignedPendingTasksController--><path codeLine="104" d="M216.25,147.8875 C216.25,179.9 216.25,229.075 216.25,271.5375 " fill="none" id="ConsultAssignedPendingTasksUI-to-ConsultAssignedPendingTasksController" style="stroke:#A80036;stroke-width:1.25;stroke-dasharray:7.0,7.0;"/><polygon fill="#A80036" points="216.25,278.2875,221.25,267.0375,216.25,272.0375,211.25,267.0375,216.25,278.2875" style="stroke:#A80036;stroke-width:1.25;"/><!--MD5=[4b3b704fd3dc4ac0d765b82f010b880c]
link ConsultAssignedPendingTasksController to PersistenceContext--><path codeLine="105" d="M216.25,435.225 C216.25,510.7125 216.25,623.45 216.25,687.5875 " fill="none" id="ConsultAssignedPendingTasksController-to-PersistenceContext" style="stroke:#A80036;stroke-width:1.25;stroke-dasharray:7.0,7.0;"/><polygon fill="#A80036" points="216.25,694.0125,221.25,682.7625,216.25,687.7625,211.25,682.7625,216.25,694.0125" style="stroke:#A80036;stroke-width:1.25;"/><!--MD5=[a0adbb4c25de6475d732008007e9b736]
link TaskRepository to TaskRepositoryInterface--><path codeLine="107" d="M815,834.1 C815,877.35 815,925.975 815,958.075 " fill="none" id="TaskRepository-to-TaskRepositoryInterface" style="stroke:#A80036;stroke-width:1.25;stroke-dasharray:7.0,7.0;"/><polygon fill="#A80036" points="815,964.6625,820,953.4125,815,958.4125,810,953.4125,815,964.6625" style="stroke:#A80036;stroke-width:1.25;"/><!--MD5=[d66efb439816738ddd3e9d5fff4bf3a7]
link AppSettings to RepositoryFactory--><path codeLine="109" d="M523.3375,685.4 C535.7125,634.4 562.7125,559.8625 618.75,525 C692.8125,478.925 932.875,486.7375 1011.25,525 C1066.3625,551.9 1108.525,606.8875 1136.6125,654.2625 " fill="none" id="AppSettings-to-RepositoryFactory" style="stroke:#A80036;stroke-width:1.25;"/><polygon fill="#A80036" points="1139.9625,660,1138.6179,647.7626,1136.8155,654.6001,1129.978,652.7977,1139.9625,660" style="stroke:#A80036;stroke-width:1.25;"/><text fill="#000000" font-family="sans-serif" font-size="16.25" lengthAdjust="spacing" textLength="53.75" x="1041.875" y="493.1189">creates</text><!--MD5=[27fe1c91fe18bafc5695938053528609]
link PersistenceContext to AppSettings--><path codeLine="110" d="M303.5,738.125 C341.9125,738.125 386.9625,738.125 425.4875,738.125 " fill="none" id="PersistenceContext-to-AppSettings" style="stroke:#A80036;stroke-width:1.25;"/><polygon fill="#A80036" points="432.1125,738.125,420.8625,733.125,425.8625,738.125,420.8625,743.125,432.1125,738.125" style="stroke:#A80036;stroke-width:1.25;"/><text fill="#000000" font-family="sans-serif" font-size="16.25" lengthAdjust="spacing" textLength="83.75" x="325.9375" y="729.9939">implements</text><!--MD5=[8982f41bad9004a09ffb6c14ad72077a]
link RepositoryFactory to TaskRepository--><path codeLine="112" d="M1095.95,738.125 C1066.6625,738.125 1032.3125,738.125 997.9,738.125 " fill="none" id="RepositoryFactory-to-TaskRepository" style="stroke:#A80036;stroke-width:1.25;"/><polygon fill="#A80036" points="991.475,738.125,1002.725,743.125,997.725,738.125,1002.725,733.125,991.475,738.125" style="stroke:#A80036;stroke-width:1.25;"/><text fill="#000000" font-family="sans-serif" font-size="16.25" lengthAdjust="spacing" textLength="26.25" x="1030.625" y="729.9939">has</text><text fill="#000000" font-family="sans-serif" font-size="16.25" lengthAdjust="spacing" textLength="8.75" x="1077.2649" y="733.8365">1</text><text fill="#000000" font-family="sans-serif" font-size="16.25" lengthAdjust="spacing" textLength="8.75" x="1001.3652" y="734.4577">1</text><!--MD5=[6ae80cee9da4d88bb64be8d0688f8e42]
link TaskRepository to ManualTask--><path codeLine="114" d="M901.25,642.1 C948.025,597.275 1009.8,548.6625 1076.25,525 C1213.1125,476.2625 1597.725,464.925 1730,525 C1795.6125,554.8 1847.175,620.4 1879.25,671 " fill="none" id="TaskRepository-to-ManualTask" style="stroke:#A80036;stroke-width:1.25;"/><polygon fill="#A80036" points="1882.675,676.475,1880.9229,664.2892,1879.3497,671.1831,1872.4558,669.6098,1882.675,676.475" style="stroke:#A80036;stroke-width:1.25;"/><text fill="#000000" font-family="sans-serif" font-size="16.25" lengthAdjust="spacing" textLength="41.25" x="991.875" y="493.1189">saves</text><text fill="#000000" font-family="sans-serif" font-size="16.25" lengthAdjust="spacing" textLength="8.75" x="900.3037" y="628.882">1</text><text fill="#000000" font-family="sans-serif" font-size="16.25" lengthAdjust="spacing" textLength="6.25" x="1871.2641" y="663.3258">*</text><!--MD5=[88d27d11f2412006bad5b60b4e576218]
link ManualTask to Task--><path codeLine="116" d="M1956.9125,676.75 C1995.025,625.3 2057.1375,555.5125 2131.25,525 C2250.4375,475.9375 2307.7,464.025 2421.25,525 C2462.625,547.2125 2493.925,587.475 2516.4125,627.0625 " fill="none" id="ManualTask-to-Task" style="stroke:#A80036;stroke-width:1.25;"/><polygon fill="#A80036" points="2519.6625,632.8875,2518.5392,620.6278,2516.6136,627.4316,2509.8098,625.506,2519.6625,632.8875" style="stroke:#A80036;stroke-width:1.25;"/><text fill="#000000" font-family="sans-serif" font-size="16.25" lengthAdjust="spacing" textLength="57.5" x="2232.5" y="493.1189">extends</text><!--MD5=[392f7804293287fa5662caa616132930]
link Task to Collaborator--><path codeLine="118" d="M2681.5625,738.125 C2701.9375,738.125 2724.0375,738.125 2747.1,738.125 " fill="none" id="Task-to-Collaborator" style="stroke:#A80036;stroke-width:1.25;"/><polygon fill="#A80036" points="2753.625,738.125,2742.375,733.125,2747.375,738.125,2742.375,743.125,2753.625,738.125" style="stroke:#A80036;stroke-width:1.25;"/><text fill="#000000" font-family="sans-serif" font-size="16.25" lengthAdjust="spacing" textLength="26.25" x="2704.375" y="729.9939">has</text><!--MD5=[9fb0c34e6207e9ffb529ff996fe74ca6]
link ManualTask to Form--><path codeLine="120" d="M2080.975,738.125 C2102.95,738.125 2125.2375,738.125 2146.5125,738.125 " fill="none" id="ManualTask-to-Form" style="stroke:#A80036;stroke-width:1.25;"/><polygon fill="#A80036" points="2153.075,738.125,2141.825,733.125,2146.825,738.125,2141.825,743.125,2153.075,738.125" style="stroke:#A80036;stroke-width:1.25;"/><text fill="#000000" font-family="sans-serif" font-size="16.25" lengthAdjust="spacing" textLength="26.25" x="2103.75" y="729.9939">has</text><!--MD5=[56cdc6692dbe5c1a3b56b60e6cc70495]
@startuml
skinparam classAttributeIconSize 0

package "Presentation" #DDDDDD {
    class ConsultAssignedPendingTasksUI<<presentation>>{
    }
}


package "Application" #DDDDDD {
    class ConsultAssignedPendingTasksController<<application>>{
        + create()
        + getTasksOfCollaborator(collaborator)
        + getTasksOfCollaborator(collaborator, filterBy)
        + getTasksOfCollaborator(collaborator, orderBy)
        + getTasksOfCollaborator(collaborator, filterBy, orderBy)
    }
}


package "Domain" #DDDDDD {

    abstract class Task<<Entity>><<Root>>{
        - taskDescription
        - taskStatus
        - taskPriority
        - taskResult
        - collaborator
        +create(taskDescription, taskPriority)
        +assignCollaborator(collaborator)
    }

    class ManualTask<<Entity>>{
        - form
        - limitDate
        +create(taskDescription, taskPriority, limitDate, form)
    }

    class Collaborator<<Entity>><<Root>>{
        - mecanographicNumber
        - systemUser
        - manager
        - phoneNumber
        - birthDate
        - address
        - completeName
        - shortName
        - teams
        + create(systemUser, manager, phoneNumber, birthDate, address, completeName, shortName, mecanographicNumber)
        + addTeam(team)
        + removeTeam(team)
    }

    class Form<<Entity>><<Root>> {
        - name
        - formType
        - attributeList
        + create(name, formType, attributeList)
    }

    enum TaskFilterFields<<enum>> {
    }

    enum TaskOrderFields<<enum>> {
    }
}

package Persistence #DDDDDD {
    class PersistenceContext<<persistence>>{
        +repositories()
    }

    class AppSettings<<persistence>>{
        +instance()
        +getRepositoryFactory()
    }

    package Factory #DDDDDD {
        class RepositoryFactory<<factory>>{
            +create()
            +collaborators()
            +tasks()
            +teams()
            +forms()
    }
}

package "Repository" #DDDDDD {
    class TaskRepository<<repository>>{
        +create()
        +findAll()
        +getTasksOfCollaborator(collaborator)
        +getTasksOfCollaborator(collaborator, filterBy)
        +getTasksOfCollaborator(collaborator, orderBy)
        +getTasksOfCollaborator(collaborator, filterBy, orderBy)
        +save(Task)
    }

    interface TaskRepositoryInterface{

    }
}


ConsultAssignedPendingTasksUI ..> ConsultAssignedPendingTasksController
ConsultAssignedPendingTasksController ..> PersistenceContext

TaskRepository ..> TaskRepositoryInterface

AppSettings -> RepositoryFactory : creates
PersistenceContext -> AppSettings : implements

RepositoryFactory "1" -> "1" TaskRepository : has

TaskRepository "1" -> "*" ManualTask : saves

ManualTask -> Task : extends

Task -> Collaborator : has

ManualTask -> Form : has

@enduml

PlantUML version 1.2021.5(Sun Apr 25 12:20:28 BST 2021)
(GPL source distribution)
Java Runtime: OpenJDK Runtime Environment
JVM: OpenJDK 64-Bit Server VM
Default Encoding: Cp1252
Language: pt
Country: PT
--></g></svg>