<?xml version="1.0" encoding="UTF-8" standalone="no"?><svg xmlns="http://www.w3.org/2000/svg" xmlns:xlink="http://www.w3.org/1999/xlink" contentScriptType="application/ecmascript" contentStyleType="text/css" height="1065px" preserveAspectRatio="none" style="width:2857px;height:1065px;" version="1.1" viewBox="0 0 2857 1065" width="2857.5px" zoomAndPan="magnify"><defs><filter height="300%" id="f1gt9slsre12aa" width="300%" x="-1" y="-1"><feGaussianBlur result="blurOut" stdDeviation="2.5"/><feColorMatrix in="blurOut" result="blurOut2" type="matrix" values="0 0 0 0 0 0 0 0 0 0 0 0 0 0 0 0 0 0 .4 0"/><feOffset dx="5.0" dy="5.0" in="blurOut2" result="blurOut3"/><feBlend in="SourceGraphic" in2="blurOut3" mode="normal"/></filter></defs><g><!--MD5=[8fd473fd151a2794da4f2c8684676405]
cluster Presentation--><polygon fill="#DDDDDD" filter="url(#f1gt9slsre12aa)" points="395,7.5,515,7.5,523.75,37.0117,710,37.0117,710,167.5,395,167.5,395,7.5" style="stroke:#000000;stroke-width:1.875;"/><line style="stroke:#000000;stroke-width:1.875;" x1="395" x2="523.75" y1="37.0117" y2="37.0117"/><text fill="#000000" font-family="sans-serif" font-size="17.5" font-weight="bold" lengthAdjust="spacing" textLength="112.5" x="400" y="28.1665">Presentation</text><!--MD5=[d64883541e3d62e3241c4d12decf100d]
cluster Application--><polygon fill="#DDDDDD" filter="url(#f1gt9slsre12aa)" points="62.5,208.75,167.5,208.75,176.25,238.2617,916.25,238.2617,916.25,438.75,62.5,438.75,62.5,208.75" style="stroke:#000000;stroke-width:1.875;"/><line style="stroke:#000000;stroke-width:1.875;" x1="62.5" x2="176.25" y1="238.2617" y2="238.2617"/><text fill="#000000" font-family="sans-serif" font-size="17.5" font-weight="bold" lengthAdjust="spacing" textLength="97.5" x="67.5" y="229.4165">Application</text><!--MD5=[121a8bf1197281ab89ed693fab589f94]
cluster Domain--><polygon fill="#DDDDDD" filter="url(#f1gt9slsre12aa)" points="1066.25,501.25,1138.75,501.25,1147.5,530.7617,2836.25,530.7617,2836.25,887.5,1066.25,887.5,1066.25,501.25" style="stroke:#000000;stroke-width:1.875;"/><line style="stroke:#000000;stroke-width:1.875;" x1="1066.25" x2="1147.5" y1="530.7617" y2="530.7617"/><text fill="#000000" font-family="sans-serif" font-size="17.5" font-weight="bold" lengthAdjust="spacing" textLength="65" x="1071.25" y="521.9165">Domain</text><!--MD5=[bc6b40dadbf86ab6a0c8405a467a48af]
cluster Persistence--><polygon fill="#DDDDDD" filter="url(#f1gt9slsre12aa)" points="20,516.25,132.5,516.25,141.25,545.7617,1036.25,545.7617,1036.25,1056.25,20,1056.25,20,516.25" style="stroke:#000000;stroke-width:1.875;"/><line style="stroke:#000000;stroke-width:1.875;" x1="20" x2="141.25" y1="545.7617" y2="545.7617"/><text fill="#000000" font-family="sans-serif" font-size="17.5" font-weight="bold" lengthAdjust="spacing" textLength="105" x="25" y="536.9165">Persistence</text><!--MD5=[0d5799440b3bfefd92b00abfcd2c79b9]
cluster Factory--><polygon fill="#DDDDDD" filter="url(#f1gt9slsre12aa)" points="803.75,571.25,876.25,571.25,885,600.7617,1006.25,600.7617,1006.25,817.5,803.75,817.5,803.75,571.25" style="stroke:#000000;stroke-width:1.875;"/><line style="stroke:#000000;stroke-width:1.875;" x1="803.75" x2="885" y1="600.7617" y2="600.7617"/><text fill="#000000" font-family="sans-serif" font-size="17.5" font-weight="bold" lengthAdjust="spacing" textLength="65" x="808.75" y="591.9165">Factory</text><!--MD5=[71971f99a41bb66cf321ce46bb59f738]
cluster Repository--><polygon fill="#DDDDDD" filter="url(#f1gt9slsre12aa)" points="526.25,588.125,628.75,588.125,637.5,617.6367,773.75,617.6367,773.75,1026.25,526.25,1026.25,526.25,588.125" style="stroke:#000000;stroke-width:1.875;"/><line style="stroke:#000000;stroke-width:1.875;" x1="526.25" x2="637.5" y1="617.6367" y2="617.6367"/><text fill="#000000" font-family="sans-serif" font-size="17.5" font-weight="bold" lengthAdjust="spacing" textLength="95" x="531.25" y="608.7915">Repository</text><!--MD5=[b838a554afdceeab34230a5c3a6aabf5]
class ConsultAssignedPendingTasksUI--><rect codeLine="4" fill="#FEFECE" filter="url(#f1gt9slsre12aa)" height="70.2344" id="ConsultAssignedPendingTasksUI" style="stroke:#A80036;stroke-width:1.875;" width="273.75" x="415.625" y="77.5"/><ellipse cx="434.375" cy="102.6172" fill="#ADD1B2" rx="13.75" ry="13.75" style="stroke:#A80036;stroke-width:1.25;"/><path d="M436.875,98.2422 Q437.1289,97.6172 437.4219,97.3047 Q437.7148,96.9922 438.0469,96.9922 Q438.6328,96.9922 439.0039,97.3438 Q439.375,97.6953 439.375,98.5156 L439.375,100.4688 Q439.375,101.2891 439.0234,101.6406 Q438.6719,101.9922 438.125,101.9922 Q437.6367,101.9922 437.3242,101.7773 Q437.0117,101.5625 436.875,100.9961 Q436.8164,100.6055 436.6016,100.3906 Q436.2109,99.9805 435.5078,99.7461 Q434.8047,99.4922 434.1016,99.4922 Q433.2227,99.4922 432.4805,99.8438 Q431.7578,100.1953 431.1914,100.9766 Q430.625,101.7578 430.625,102.832 L430.625,103.9844 Q430.625,105.2734 431.6797,106.1328 Q432.7344,106.9922 434.6094,106.9922 Q435.7227,106.9922 436.5039,106.7383 Q436.9531,106.6016 437.4609,106.1523 Q437.793,105.8984 437.9688,105.8203 Q438.1445,105.7422 438.3594,105.7422 Q438.7695,105.7422 439.0625,106.0742 Q439.375,106.3867 439.375,106.8359 Q439.375,107.2656 438.9453,107.7734 Q438.3203,108.5156 437.3242,108.9258 Q436.0156,109.4922 434.4141,109.4922 Q432.5391,109.4922 431.0352,108.75 Q429.8242,108.1641 428.9648,106.8945 Q428.125,105.625 428.125,104.1211 L428.125,102.7539 Q428.125,101.1914 428.8672,99.8242 Q429.6289,98.457 430.9375,97.7344 Q432.2656,96.9922 433.75,96.9922 Q434.6484,96.9922 435.4297,97.3047 Q436.2109,97.6172 436.875,98.2422 Z " fill="#000000"/><text fill="#000000" font-family="sans-serif" font-size="15" font-style="italic" lengthAdjust="spacing" textLength="102.5" x="517.5" y="99.3213">«presentation»</text><text fill="#000000" font-family="sans-serif" font-size="15" lengthAdjust="spacing" textLength="233.75" x="451.875" y="118.1885">ConsultAssignedPendingTasksUI</text><line style="stroke:#A80036;stroke-width:1.875;" x1="416.875" x2="688.125" y1="127.7344" y2="127.7344"/><line style="stroke:#A80036;stroke-width:1.875;" x1="416.875" x2="688.125" y1="137.7344" y2="137.7344"/><!--MD5=[4c0d90daae2d1dd9a3233c16fe7a0fb2]
class ConsultAssignedPendingTasksController--><rect codeLine="10" fill="#FEFECE" filter="url(#f1gt9slsre12aa)" height="139.4141" id="ConsultAssignedPendingTasksController" style="stroke:#A80036;stroke-width:1.875;" width="417.5" x="82.5" y="278.75"/><ellipse cx="142.8125" cy="303.8672" fill="#ADD1B2" rx="13.75" ry="13.75" style="stroke:#A80036;stroke-width:1.25;"/><path d="M145.3125,299.4922 Q145.5664,298.8672 145.8594,298.5547 Q146.1523,298.2422 146.4844,298.2422 Q147.0703,298.2422 147.4414,298.5938 Q147.8125,298.9453 147.8125,299.7656 L147.8125,301.7188 Q147.8125,302.5391 147.4609,302.8906 Q147.1094,303.2422 146.5625,303.2422 Q146.0742,303.2422 145.7617,303.0273 Q145.4492,302.8125 145.3125,302.2461 Q145.2539,301.8555 145.0391,301.6406 Q144.6484,301.2305 143.9453,300.9961 Q143.2422,300.7422 142.5391,300.7422 Q141.6602,300.7422 140.918,301.0938 Q140.1953,301.4453 139.6289,302.2266 Q139.0625,303.0078 139.0625,304.082 L139.0625,305.2344 Q139.0625,306.5234 140.1172,307.3828 Q141.1719,308.2422 143.0469,308.2422 Q144.1602,308.2422 144.9414,307.9883 Q145.3906,307.8516 145.8984,307.4023 Q146.2305,307.1484 146.4063,307.0703 Q146.582,306.9922 146.7969,306.9922 Q147.207,306.9922 147.5,307.3242 Q147.8125,307.6367 147.8125,308.0859 Q147.8125,308.5156 147.3828,309.0234 Q146.7578,309.7656 145.7617,310.1758 Q144.4531,310.7422 142.8516,310.7422 Q140.9766,310.7422 139.4727,310 Q138.2617,309.4141 137.4023,308.1445 Q136.5625,306.875 136.5625,305.3711 L136.5625,304.0039 Q136.5625,302.4414 137.3047,301.0742 Q138.0664,299.707 139.375,298.9844 Q140.7031,298.2422 142.1875,298.2422 Q143.0859,298.2422 143.8672,298.5547 Q144.6484,298.8672 145.3125,299.4922 Z " fill="#000000"/><text fill="#000000" font-family="sans-serif" font-size="15" font-style="italic" lengthAdjust="spacing" textLength="92.5" x="265.3125" y="300.5713">«application»</text><text fill="#000000" font-family="sans-serif" font-size="15" lengthAdjust="spacing" textLength="286.25" x="168.4375" y="319.4385">ConsultAssignedPendingTasksController</text><line style="stroke:#A80036;stroke-width:1.875;" x1="83.75" x2="498.75" y1="328.9844" y2="328.9844"/><line style="stroke:#A80036;stroke-width:1.875;" x1="83.75" x2="498.75" y1="338.9844" y2="338.9844"/><text fill="#000000" font-family="sans-serif" font-size="13.75" lengthAdjust="spacing" textLength="56.25" x="90" y="358.2581">+create()</text><text fill="#000000" font-family="sans-serif" font-size="13.75" lengthAdjust="spacing" textLength="231.25" x="90" y="375.553">+getTasksOfCollaborator(collaborator)</text><text fill="#000000" font-family="sans-serif" font-size="13.75" lengthAdjust="spacing" textLength="337.5" x="90" y="392.8479">+getTasksOfCollaboratorByPriority(collaborator, priority)</text><text fill="#000000" font-family="sans-serif" font-size="13.75" lengthAdjust="spacing" textLength="402.5" x="90" y="410.1428">+getTasksOfCollaboratorBeforeFinishDate(collaborator, finishDate)</text><!--MD5=[8ff8f2bceb91843dc6f0759da53c5325]
class OrderAssignedPendingTasksController--><rect codeLine="17" fill="#FEFECE" filter="url(#f1gt9slsre12aa)" height="139.4141" id="OrderAssignedPendingTasksController" style="stroke:#A80036;stroke-width:1.875;" width="351.25" x="544.375" y="278.75"/><ellipse cx="581.125" cy="303.8672" fill="#ADD1B2" rx="13.75" ry="13.75" style="stroke:#A80036;stroke-width:1.25;"/><path d="M583.625,299.4922 Q583.8789,298.8672 584.1719,298.5547 Q584.4648,298.2422 584.7969,298.2422 Q585.3828,298.2422 585.7539,298.5938 Q586.125,298.9453 586.125,299.7656 L586.125,301.7188 Q586.125,302.5391 585.7734,302.8906 Q585.4219,303.2422 584.875,303.2422 Q584.3867,303.2422 584.0742,303.0273 Q583.7617,302.8125 583.625,302.2461 Q583.5664,301.8555 583.3516,301.6406 Q582.9609,301.2305 582.2578,300.9961 Q581.5547,300.7422 580.8516,300.7422 Q579.9727,300.7422 579.2305,301.0938 Q578.5078,301.4453 577.9414,302.2266 Q577.375,303.0078 577.375,304.082 L577.375,305.2344 Q577.375,306.5234 578.4297,307.3828 Q579.4844,308.2422 581.3594,308.2422 Q582.4727,308.2422 583.2539,307.9883 Q583.7031,307.8516 584.2109,307.4023 Q584.543,307.1484 584.7188,307.0703 Q584.8945,306.9922 585.1094,306.9922 Q585.5195,306.9922 585.8125,307.3242 Q586.125,307.6367 586.125,308.0859 Q586.125,308.5156 585.6953,309.0234 Q585.0703,309.7656 584.0742,310.1758 Q582.7656,310.7422 581.1641,310.7422 Q579.2891,310.7422 577.7852,310 Q576.5742,309.4141 575.7148,308.1445 Q574.875,306.875 574.875,305.3711 L574.875,304.0039 Q574.875,302.4414 575.6172,301.0742 Q576.3789,299.707 577.6875,298.9844 Q579.0156,298.2422 580.5,298.2422 Q581.3984,298.2422 582.1797,298.5547 Q582.9609,298.8672 583.625,299.4922 Z " fill="#000000"/><text fill="#000000" font-family="sans-serif" font-size="15" font-style="italic" lengthAdjust="spacing" textLength="92.5" x="692" y="300.5713">«application»</text><text fill="#000000" font-family="sans-serif" font-size="15" lengthAdjust="spacing" textLength="271.25" x="602.625" y="319.4385">OrderAssignedPendingTasksController</text><line style="stroke:#A80036;stroke-width:1.875;" x1="545.625" x2="894.375" y1="328.9844" y2="328.9844"/><line style="stroke:#A80036;stroke-width:1.875;" x1="545.625" x2="894.375" y1="338.9844" y2="338.9844"/><text fill="#000000" font-family="sans-serif" font-size="13.75" lengthAdjust="spacing" textLength="56.25" x="551.875" y="358.2581">+create()</text><text fill="#000000" font-family="sans-serif" font-size="13.75" lengthAdjust="spacing" textLength="263.75" x="551.875" y="375.553">+orderTasksOfCollaboratorByPriority(tasks)</text><text fill="#000000" font-family="sans-serif" font-size="13.75" lengthAdjust="spacing" textLength="315" x="551.875" y="392.8479">+orderTasksOfCollaboratorByReversePriority(tasks)</text><text fill="#000000" font-family="sans-serif" font-size="13.75" lengthAdjust="spacing" textLength="336.25" x="551.875" y="410.1428">+orderTasksOfCollaboratorByReverseFinishDate(tasks)</text><!--MD5=[b34797a66dc35cbf1d65f7e3ca75530e]
class Task--><rect codeLine="28" fill="#FEFECE" filter="url(#f1gt9slsre12aa)" height="210.166" id="Task" style="stroke:#A80036;stroke-width:1.875;" width="237.5" x="1778.75" y="614.375"/><ellipse cx="1867.1875" cy="648.9258" fill="#A9DCDF" rx="13.75" ry="13.75" style="stroke:#A80036;stroke-width:1.25;"/><path d="M1869.375,650.8008 L1865.2539,650.8008 L1864.707,652.0508 L1864.707,652.0508 L1865.293,652.0508 L1865.9375,652.832 L1865.9375,653.3008 L1865.9375,653.7695 L1865.293,654.5508 L1864.707,654.5508 L1862.3438,654.5508 L1861.582,654.5508 L1860.9375,653.7695 L1860.9375,653.3008 L1860.9375,652.832 L1861.582,652.0508 L1862.3438,652.0508 L1865.2344,644.5508 L1864.1406,644.5508 L1862.832,644.5508 L1862.1875,643.7695 L1862.1875,643.3008 L1862.1875,642.832 L1862.832,642.0508 L1864.1406,642.0508 L1868.7305,642.0508 L1872.0898,652.0508 L1872.793,652.0508 L1872.793,652.0508 L1873.4375,652.832 L1873.4375,653.3008 L1873.4375,653.7695 L1872.793,654.5508 L1872.0898,654.5508 L1869.7266,654.5508 L1869.082,654.5508 L1868.4375,653.7695 L1868.4375,653.3008 L1868.4375,652.832 L1869.082,652.0508 L1869.7266,652.0508 L1869.7266,652.0508 L1869.375,650.8008 Z M1868.6914,648.3008 L1867.1875,643.8281 L1865.8984,648.3008 L1868.6914,648.3008 Z " fill="#000000"/><text fill="#000000" font-family="sans-serif" font-size="15" font-style="italic" lengthAdjust="spacing" textLength="55" x="1890.3125" y="636.1963">«Entity»</text><text fill="#000000" font-family="sans-serif" font-size="15" font-style="italic" lengthAdjust="spacing" textLength="50" x="1892.8125" y="655.0635">«Root»</text><text fill="#000000" font-family="sans-serif" font-size="15" font-style="italic" lengthAdjust="spacing" textLength="33.75" x="1900.9375" y="673.9307">Task</text><line style="stroke:#A80036;stroke-width:1.875;" x1="1780" x2="2015" y1="683.4766" y2="683.4766"/><text fill="#000000" font-family="sans-serif" font-size="13.75" lengthAdjust="spacing" textLength="97.5" x="1786.25" y="702.7502">-taskDescription</text><text fill="#000000" font-family="sans-serif" font-size="13.75" lengthAdjust="spacing" textLength="68.75" x="1786.25" y="720.0452">-taskStatus</text><text fill="#000000" font-family="sans-serif" font-size="13.75" lengthAdjust="spacing" textLength="71.25" x="1786.25" y="737.3401">-taskPriority</text><text fill="#000000" font-family="sans-serif" font-size="13.75" lengthAdjust="spacing" textLength="67.5" x="1786.25" y="754.635">-taskResult</text><text fill="#000000" font-family="sans-serif" font-size="13.75" lengthAdjust="spacing" textLength="76.25" x="1786.25" y="771.9299">-collaborator</text><line style="stroke:#A80036;stroke-width:1.875;" x1="1780" x2="2015" y1="779.9512" y2="779.9512"/><text fill="#000000" font-family="sans-serif" font-size="13.75" lengthAdjust="spacing" textLength="222.5" x="1786.25" y="799.2249">+create(taskDescription, taskPriority)</text><text fill="#000000" font-family="sans-serif" font-size="13.75" lengthAdjust="spacing" textLength="201.25" x="1786.25" y="816.5198">+assignCollaborator(collaborator)</text><!--MD5=[743064f62b3390934ed7addf6a434293]
class ManualTask--><rect codeLine="38" fill="#FEFECE" filter="url(#f1gt9slsre12aa)" height="122.1191" id="ManualTask" style="stroke:#A80036;stroke-width:1.875;" width="328.75" x="1086.875" y="658.125"/><ellipse cx="1204.0625" cy="683.2422" fill="#ADD1B2" rx="13.75" ry="13.75" style="stroke:#A80036;stroke-width:1.25;"/><path d="M1206.5625,678.8672 Q1206.8164,678.2422 1207.1094,677.9297 Q1207.4023,677.6172 1207.7344,677.6172 Q1208.3203,677.6172 1208.6914,677.9688 Q1209.0625,678.3203 1209.0625,679.1406 L1209.0625,681.0938 Q1209.0625,681.9141 1208.7109,682.2656 Q1208.3594,682.6172 1207.8125,682.6172 Q1207.3242,682.6172 1207.0117,682.4023 Q1206.6992,682.1875 1206.5625,681.6211 Q1206.5039,681.2305 1206.2891,681.0156 Q1205.8984,680.6055 1205.1953,680.3711 Q1204.4922,680.1172 1203.7891,680.1172 Q1202.9102,680.1172 1202.168,680.4688 Q1201.4453,680.8203 1200.8789,681.6016 Q1200.3125,682.3828 1200.3125,683.457 L1200.3125,684.6094 Q1200.3125,685.8984 1201.3672,686.7578 Q1202.4219,687.6172 1204.2969,687.6172 Q1205.4102,687.6172 1206.1914,687.3633 Q1206.6406,687.2266 1207.1484,686.7773 Q1207.4805,686.5234 1207.6563,686.4453 Q1207.832,686.3672 1208.0469,686.3672 Q1208.457,686.3672 1208.75,686.6992 Q1209.0625,687.0117 1209.0625,687.4609 Q1209.0625,687.8906 1208.6328,688.3984 Q1208.0078,689.1406 1207.0117,689.5508 Q1205.7031,690.1172 1204.1016,690.1172 Q1202.2266,690.1172 1200.7227,689.375 Q1199.5117,688.7891 1198.6523,687.5195 Q1197.8125,686.25 1197.8125,684.7461 L1197.8125,683.3789 Q1197.8125,681.8164 1198.5547,680.4492 Q1199.3164,679.082 1200.625,678.3594 Q1201.9531,677.6172 1203.4375,677.6172 Q1204.3359,677.6172 1205.1172,677.9297 Q1205.8984,678.2422 1206.5625,678.8672 Z " fill="#000000"/><text fill="#000000" font-family="sans-serif" font-size="15" font-style="italic" lengthAdjust="spacing" textLength="55" x="1244.0625" y="679.9463">«Entity»</text><text fill="#000000" font-family="sans-serif" font-size="15" lengthAdjust="spacing" textLength="83.75" x="1229.6875" y="698.8135">ManualTask</text><line style="stroke:#A80036;stroke-width:1.875;" x1="1088.125" x2="1414.375" y1="708.3594" y2="708.3594"/><text fill="#000000" font-family="sans-serif" font-size="13.75" lengthAdjust="spacing" textLength="32.5" x="1094.375" y="727.6331">-form</text><text fill="#000000" font-family="sans-serif" font-size="13.75" lengthAdjust="spacing" textLength="53.75" x="1094.375" y="744.928">-limitDate</text><line style="stroke:#A80036;stroke-width:1.875;" x1="1088.125" x2="1414.375" y1="752.9492" y2="752.9492"/><text fill="#000000" font-family="sans-serif" font-size="13.75" lengthAdjust="spacing" textLength="313.75" x="1094.375" y="772.2229">+create(taskDescription, taskPriority, limitDate, form)</text><!--MD5=[f483d6e5de34a60207b28a5563be5e8b]
class Collaborator--><rect codeLine="44" fill="#FEFECE" filter="url(#f1gt9slsre12aa)" height="296.6406" id="Collaborator" style="stroke:#A80036;stroke-width:1.875;" width="727.5" x="2088.75" y="571.25"/><ellipse cx="2404.6875" cy="605.8008" fill="#ADD1B2" rx="13.75" ry="13.75" style="stroke:#A80036;stroke-width:1.25;"/><path d="M2407.1875,601.4258 Q2407.4414,600.8008 2407.7344,600.4883 Q2408.0273,600.1758 2408.3594,600.1758 Q2408.9453,600.1758 2409.3164,600.5273 Q2409.6875,600.8789 2409.6875,601.6992 L2409.6875,603.6523 Q2409.6875,604.4727 2409.3359,604.8242 Q2408.9844,605.1758 2408.4375,605.1758 Q2407.9492,605.1758 2407.6367,604.9609 Q2407.3242,604.7461 2407.1875,604.1797 Q2407.1289,603.7891 2406.9141,603.5742 Q2406.5234,603.1641 2405.8203,602.9297 Q2405.1172,602.6758 2404.4141,602.6758 Q2403.5352,602.6758 2402.793,603.0273 Q2402.0703,603.3789 2401.5039,604.1602 Q2400.9375,604.9414 2400.9375,606.0156 L2400.9375,607.168 Q2400.9375,608.457 2401.9922,609.3164 Q2403.0469,610.1758 2404.9219,610.1758 Q2406.0352,610.1758 2406.8164,609.9219 Q2407.2656,609.7852 2407.7734,609.3359 Q2408.1055,609.082 2408.2813,609.0039 Q2408.457,608.9258 2408.6719,608.9258 Q2409.082,608.9258 2409.375,609.2578 Q2409.6875,609.5703 2409.6875,610.0195 Q2409.6875,610.4492 2409.2578,610.957 Q2408.6328,611.6992 2407.6367,612.1094 Q2406.3281,612.6758 2404.7266,612.6758 Q2402.8516,612.6758 2401.3477,611.9336 Q2400.1367,611.3477 2399.2773,610.0781 Q2398.4375,608.8086 2398.4375,607.3047 L2398.4375,605.9375 Q2398.4375,604.375 2399.1797,603.0078 Q2399.9414,601.6406 2401.25,600.918 Q2402.5781,600.1758 2404.0625,600.1758 Q2404.9609,600.1758 2405.7422,600.4883 Q2406.5234,600.8008 2407.1875,601.4258 Z " fill="#000000"/><text fill="#000000" font-family="sans-serif" font-size="15" font-style="italic" lengthAdjust="spacing" textLength="55" x="2445.3125" y="593.0713">«Entity»</text><text fill="#000000" font-family="sans-serif" font-size="15" font-style="italic" lengthAdjust="spacing" textLength="50" x="2447.8125" y="611.9385">«Root»</text><text fill="#000000" font-family="sans-serif" font-size="15" lengthAdjust="spacing" textLength="85" x="2430.3125" y="630.8057">Collaborator</text><line style="stroke:#A80036;stroke-width:1.875;" x1="2090" x2="2815" y1="640.3516" y2="640.3516"/><text fill="#000000" font-family="sans-serif" font-size="13.75" lengthAdjust="spacing" textLength="143.75" x="2096.25" y="659.6252">-mecanographicNumber</text><text fill="#000000" font-family="sans-serif" font-size="13.75" lengthAdjust="spacing" textLength="77.5" x="2096.25" y="676.9202">-systemUser</text><text fill="#000000" font-family="sans-serif" font-size="13.75" lengthAdjust="spacing" textLength="57.5" x="2096.25" y="694.2151">-manager</text><text fill="#000000" font-family="sans-serif" font-size="13.75" lengthAdjust="spacing" textLength="88.75" x="2096.25" y="711.51">-phoneNumber</text><text fill="#000000" font-family="sans-serif" font-size="13.75" lengthAdjust="spacing" textLength="58.75" x="2096.25" y="728.8049">-birthDate</text><text fill="#000000" font-family="sans-serif" font-size="13.75" lengthAdjust="spacing" textLength="55" x="2096.25" y="746.0999">-address</text><text fill="#000000" font-family="sans-serif" font-size="13.75" lengthAdjust="spacing" textLength="92.5" x="2096.25" y="763.3948">-completeName</text><text fill="#000000" font-family="sans-serif" font-size="13.75" lengthAdjust="spacing" textLength="70" x="2096.25" y="780.6897">-shortName</text><text fill="#000000" font-family="sans-serif" font-size="13.75" lengthAdjust="spacing" textLength="41.25" x="2096.25" y="797.9846">-teams</text><line style="stroke:#A80036;stroke-width:1.875;" x1="2090" x2="2815" y1="806.0059" y2="806.0059"/><text fill="#000000" font-family="sans-serif" font-size="13.75" lengthAdjust="spacing" textLength="712.5" x="2096.25" y="825.2795">+create(systemUser, manager, phoneNumber, birthDate, address, completeName, shortName, mecanographicNumber)</text><text fill="#000000" font-family="sans-serif" font-size="13.75" lengthAdjust="spacing" textLength="101.25" x="2096.25" y="842.5745">+addTeam(team)</text><text fill="#000000" font-family="sans-serif" font-size="13.75" lengthAdjust="spacing" textLength="123.75" x="2096.25" y="859.8694">+removeTeam(team)</text><!--MD5=[6f29f313cd4199edbf91b9ce3a4faa98]
class Form--><rect codeLine="59" fill="#FEFECE" filter="url(#f1gt9slsre12aa)" height="158.2813" id="Form" style="stroke:#A80036;stroke-width:1.875;" width="246.25" x="1488.125" y="640"/><ellipse cx="1580.9375" cy="674.5508" fill="#ADD1B2" rx="13.75" ry="13.75" style="stroke:#A80036;stroke-width:1.25;"/><path d="M1583.4375,670.1758 Q1583.6914,669.5508 1583.9844,669.2383 Q1584.2773,668.9258 1584.6094,668.9258 Q1585.1953,668.9258 1585.5664,669.2773 Q1585.9375,669.6289 1585.9375,670.4492 L1585.9375,672.4023 Q1585.9375,673.2227 1585.5859,673.5742 Q1585.2344,673.9258 1584.6875,673.9258 Q1584.1992,673.9258 1583.8867,673.7109 Q1583.5742,673.4961 1583.4375,672.9297 Q1583.3789,672.5391 1583.1641,672.3242 Q1582.7734,671.9141 1582.0703,671.6797 Q1581.3672,671.4258 1580.6641,671.4258 Q1579.7852,671.4258 1579.043,671.7773 Q1578.3203,672.1289 1577.7539,672.9102 Q1577.1875,673.6914 1577.1875,674.7656 L1577.1875,675.918 Q1577.1875,677.207 1578.2422,678.0664 Q1579.2969,678.9258 1581.1719,678.9258 Q1582.2852,678.9258 1583.0664,678.6719 Q1583.5156,678.5352 1584.0234,678.0859 Q1584.3555,677.832 1584.5313,677.7539 Q1584.707,677.6758 1584.9219,677.6758 Q1585.332,677.6758 1585.625,678.0078 Q1585.9375,678.3203 1585.9375,678.7695 Q1585.9375,679.1992 1585.5078,679.707 Q1584.8828,680.4492 1583.8867,680.8594 Q1582.5781,681.4258 1580.9766,681.4258 Q1579.1016,681.4258 1577.5977,680.6836 Q1576.3867,680.0977 1575.5273,678.8281 Q1574.6875,677.5586 1574.6875,676.0547 L1574.6875,674.6875 Q1574.6875,673.125 1575.4297,671.7578 Q1576.1914,670.3906 1577.5,669.668 Q1578.8281,668.9258 1580.3125,668.9258 Q1581.2109,668.9258 1581.9922,669.2383 Q1582.7734,669.5508 1583.4375,670.1758 Z " fill="#000000"/><text fill="#000000" font-family="sans-serif" font-size="15" font-style="italic" lengthAdjust="spacing" textLength="55" x="1604.0625" y="661.8213">«Entity»</text><text fill="#000000" font-family="sans-serif" font-size="15" font-style="italic" lengthAdjust="spacing" textLength="50" x="1606.5625" y="680.6885">«Root»</text><text fill="#000000" font-family="sans-serif" font-size="15" lengthAdjust="spacing" textLength="36.25" x="1613.4375" y="699.5557">Form</text><line style="stroke:#A80036;stroke-width:1.875;" x1="1489.375" x2="1733.125" y1="709.1016" y2="709.1016"/><text fill="#000000" font-family="sans-serif" font-size="13.75" lengthAdjust="spacing" textLength="37.5" x="1495.625" y="728.3752">-name</text><text fill="#000000" font-family="sans-serif" font-size="13.75" lengthAdjust="spacing" textLength="62.5" x="1495.625" y="745.6702">-formType</text><text fill="#000000" font-family="sans-serif" font-size="13.75" lengthAdjust="spacing" textLength="75" x="1495.625" y="762.9651">-attributeList</text><line style="stroke:#A80036;stroke-width:1.875;" x1="1489.375" x2="1733.125" y1="770.9863" y2="770.9863"/><text fill="#000000" font-family="sans-serif" font-size="13.75" lengthAdjust="spacing" textLength="231.25" x="1495.625" y="790.26">+create(name, formType, attributeList)</text><!--MD5=[e8c189551b7885b999ad7cefb30fc2a3]
class PersistenceContext--><rect codeLine="68" fill="#FEFECE" filter="url(#f1gt9slsre12aa)" height="87.5293" id="PersistenceContext" style="stroke:#A80036;stroke-width:1.875;" width="173.75" x="40.625" y="675.625"/><ellipse cx="59.375" cy="700.7422" fill="#ADD1B2" rx="13.75" ry="13.75" style="stroke:#A80036;stroke-width:1.25;"/><path d="M61.875,696.3672 Q62.1289,695.7422 62.4219,695.4297 Q62.7148,695.1172 63.0469,695.1172 Q63.6328,695.1172 64.0039,695.4688 Q64.375,695.8203 64.375,696.6406 L64.375,698.5938 Q64.375,699.4141 64.0234,699.7656 Q63.6719,700.1172 63.125,700.1172 Q62.6367,700.1172 62.3242,699.9023 Q62.0117,699.6875 61.875,699.1211 Q61.8164,698.7305 61.6016,698.5156 Q61.2109,698.1055 60.5078,697.8711 Q59.8047,697.6172 59.1016,697.6172 Q58.2227,697.6172 57.4805,697.9688 Q56.7578,698.3203 56.1914,699.1016 Q55.625,699.8828 55.625,700.957 L55.625,702.1094 Q55.625,703.3984 56.6797,704.2578 Q57.7344,705.1172 59.6094,705.1172 Q60.7227,705.1172 61.5039,704.8633 Q61.9531,704.7266 62.4609,704.2773 Q62.793,704.0234 62.9688,703.9453 Q63.1445,703.8672 63.3594,703.8672 Q63.7695,703.8672 64.0625,704.1992 Q64.375,704.5117 64.375,704.9609 Q64.375,705.3906 63.9453,705.8984 Q63.3203,706.6406 62.3242,707.0508 Q61.0156,707.6172 59.4141,707.6172 Q57.5391,707.6172 56.0352,706.875 Q54.8242,706.2891 53.9648,705.0195 Q53.125,703.75 53.125,702.2461 L53.125,700.8789 Q53.125,699.3164 53.8672,697.9492 Q54.6289,696.582 55.9375,695.8594 Q57.2656,695.1172 58.75,695.1172 Q59.6484,695.1172 60.4297,695.4297 Q61.2109,695.7422 61.875,696.3672 Z " fill="#000000"/><text fill="#000000" font-family="sans-serif" font-size="15" font-style="italic" lengthAdjust="spacing" textLength="96.25" x="95.625" y="697.4463">«persistence»</text><text fill="#000000" font-family="sans-serif" font-size="15" lengthAdjust="spacing" textLength="133.75" x="76.875" y="716.3135">PersistenceContext</text><line style="stroke:#A80036;stroke-width:1.875;" x1="41.875" x2="213.125" y1="725.8594" y2="725.8594"/><line style="stroke:#A80036;stroke-width:1.875;" x1="41.875" x2="213.125" y1="735.8594" y2="735.8594"/><text fill="#000000" font-family="sans-serif" font-size="13.75" lengthAdjust="spacing" textLength="88.75" x="48.125" y="755.1331">+repositories()</text><!--MD5=[b8e4c95865208c934bfcfda4f90bf50c]
class AppSettings--><rect codeLine="72" fill="#FEFECE" filter="url(#f1gt9slsre12aa)" height="104.8242" id="AppSettings" style="stroke:#A80036;stroke-width:1.875;" width="162.5" x="343.75" y="666.875"/><ellipse cx="376.5625" cy="691.9922" fill="#ADD1B2" rx="13.75" ry="13.75" style="stroke:#A80036;stroke-width:1.25;"/><path d="M379.0625,687.6172 Q379.3164,686.9922 379.6094,686.6797 Q379.9023,686.3672 380.2344,686.3672 Q380.8203,686.3672 381.1914,686.7188 Q381.5625,687.0703 381.5625,687.8906 L381.5625,689.8438 Q381.5625,690.6641 381.2109,691.0156 Q380.8594,691.3672 380.3125,691.3672 Q379.8242,691.3672 379.5117,691.1523 Q379.1992,690.9375 379.0625,690.3711 Q379.0039,689.9805 378.7891,689.7656 Q378.3984,689.3555 377.6953,689.1211 Q376.9922,688.8672 376.2891,688.8672 Q375.4102,688.8672 374.668,689.2188 Q373.9453,689.5703 373.3789,690.3516 Q372.8125,691.1328 372.8125,692.207 L372.8125,693.3594 Q372.8125,694.6484 373.8672,695.5078 Q374.9219,696.3672 376.7969,696.3672 Q377.9102,696.3672 378.6914,696.1133 Q379.1406,695.9766 379.6484,695.5273 Q379.9805,695.2734 380.1563,695.1953 Q380.332,695.1172 380.5469,695.1172 Q380.957,695.1172 381.25,695.4492 Q381.5625,695.7617 381.5625,696.2109 Q381.5625,696.6406 381.1328,697.1484 Q380.5078,697.8906 379.5117,698.3008 Q378.2031,698.8672 376.6016,698.8672 Q374.7266,698.8672 373.2227,698.125 Q372.0117,697.5391 371.1523,696.2695 Q370.3125,695 370.3125,693.4961 L370.3125,692.1289 Q370.3125,690.5664 371.0547,689.1992 Q371.8164,687.832 373.125,687.1094 Q374.4531,686.3672 375.9375,686.3672 Q376.8359,686.3672 377.6172,686.6797 Q378.3984,686.9922 379.0625,687.6172 Z " fill="#000000"/><text fill="#000000" font-family="sans-serif" font-size="15" font-style="italic" lengthAdjust="spacing" textLength="96.25" x="394.6875" y="688.6963">«persistence»</text><text fill="#000000" font-family="sans-serif" font-size="15" lengthAdjust="spacing" textLength="82.5" x="401.5625" y="707.5635">AppSettings</text><line style="stroke:#A80036;stroke-width:1.875;" x1="345" x2="505" y1="717.1094" y2="717.1094"/><line style="stroke:#A80036;stroke-width:1.875;" x1="345" x2="505" y1="727.1094" y2="727.1094"/><text fill="#000000" font-family="sans-serif" font-size="13.75" lengthAdjust="spacing" textLength="68.75" x="351.25" y="746.3831">+instance()</text><text fill="#000000" font-family="sans-serif" font-size="13.75" lengthAdjust="spacing" textLength="147.5" x="351.25" y="763.678">+getRepositoryFactory()</text><!--MD5=[48590afff58a68e2fcba47824d6f8a11]
class RepositoryFactory--><rect codeLine="78" fill="#FEFECE" filter="url(#f1gt9slsre12aa)" height="156.709" id="RepositoryFactory" style="stroke:#A80036;stroke-width:1.875;" width="162.5" x="823.75" y="641.25"/><ellipse cx="842.5" cy="666.3672" fill="#ADD1B2" rx="13.75" ry="13.75" style="stroke:#A80036;stroke-width:1.25;"/><path d="M845,661.9922 Q845.2539,661.3672 845.5469,661.0547 Q845.8398,660.7422 846.1719,660.7422 Q846.7578,660.7422 847.1289,661.0938 Q847.5,661.4453 847.5,662.2656 L847.5,664.2188 Q847.5,665.0391 847.1484,665.3906 Q846.7969,665.7422 846.25,665.7422 Q845.7617,665.7422 845.4492,665.5273 Q845.1367,665.3125 845,664.7461 Q844.9414,664.3555 844.7266,664.1406 Q844.3359,663.7305 843.6328,663.4961 Q842.9297,663.2422 842.2266,663.2422 Q841.3477,663.2422 840.6055,663.5938 Q839.8828,663.9453 839.3164,664.7266 Q838.75,665.5078 838.75,666.582 L838.75,667.7344 Q838.75,669.0234 839.8047,669.8828 Q840.8594,670.7422 842.7344,670.7422 Q843.8477,670.7422 844.6289,670.4883 Q845.0781,670.3516 845.5859,669.9023 Q845.918,669.6484 846.0938,669.5703 Q846.2695,669.4922 846.4844,669.4922 Q846.8945,669.4922 847.1875,669.8242 Q847.5,670.1367 847.5,670.5859 Q847.5,671.0156 847.0703,671.5234 Q846.4453,672.2656 845.4492,672.6758 Q844.1406,673.2422 842.5391,673.2422 Q840.6641,673.2422 839.1602,672.5 Q837.9492,671.9141 837.0898,670.6445 Q836.25,669.375 836.25,667.8711 L836.25,666.5039 Q836.25,664.9414 836.9922,663.5742 Q837.7539,662.207 839.0625,661.4844 Q840.3906,660.7422 841.875,660.7422 Q842.7734,660.7422 843.5547,661.0547 Q844.3359,661.3672 845,661.9922 Z " fill="#000000"/><text fill="#000000" font-family="sans-serif" font-size="15" font-style="italic" lengthAdjust="spacing" textLength="62.5" x="890" y="663.0713">«factory»</text><text fill="#000000" font-family="sans-serif" font-size="15" lengthAdjust="spacing" textLength="122.5" x="860" y="681.9385">RepositoryFactory</text><line style="stroke:#A80036;stroke-width:1.875;" x1="825" x2="985" y1="691.4844" y2="691.4844"/><line style="stroke:#A80036;stroke-width:1.875;" x1="825" x2="985" y1="701.4844" y2="701.4844"/><text fill="#000000" font-family="sans-serif" font-size="13.75" lengthAdjust="spacing" textLength="56.25" x="831.25" y="720.7581">+create()</text><text fill="#000000" font-family="sans-serif" font-size="13.75" lengthAdjust="spacing" textLength="96.25" x="831.25" y="738.053">+collaborators()</text><text fill="#000000" font-family="sans-serif" font-size="13.75" lengthAdjust="spacing" textLength="50" x="831.25" y="755.3479">+tasks()</text><text fill="#000000" font-family="sans-serif" font-size="13.75" lengthAdjust="spacing" textLength="53.75" x="831.25" y="772.6428">+teams()</text><text fill="#000000" font-family="sans-serif" font-size="13.75" lengthAdjust="spacing" textLength="52.5" x="831.25" y="789.9377">+forms()</text><!--MD5=[2d00e6e09a1cfec9653155ee4d91c399]
class TaskRepository--><rect codeLine="88" fill="#FEFECE" filter="url(#f1gt9slsre12aa)" height="122.1191" id="TaskRepository" style="stroke:#A80036;stroke-width:1.875;" width="147.5" x="603.75" y="658.125"/><ellipse cx="622.5" cy="683.2422" fill="#ADD1B2" rx="13.75" ry="13.75" style="stroke:#A80036;stroke-width:1.25;"/><path d="M625,678.8672 Q625.2539,678.2422 625.5469,677.9297 Q625.8398,677.6172 626.1719,677.6172 Q626.7578,677.6172 627.1289,677.9688 Q627.5,678.3203 627.5,679.1406 L627.5,681.0938 Q627.5,681.9141 627.1484,682.2656 Q626.7969,682.6172 626.25,682.6172 Q625.7617,682.6172 625.4492,682.4023 Q625.1367,682.1875 625,681.6211 Q624.9414,681.2305 624.7266,681.0156 Q624.3359,680.6055 623.6328,680.3711 Q622.9297,680.1172 622.2266,680.1172 Q621.3477,680.1172 620.6055,680.4688 Q619.8828,680.8203 619.3164,681.6016 Q618.75,682.3828 618.75,683.457 L618.75,684.6094 Q618.75,685.8984 619.8047,686.7578 Q620.8594,687.6172 622.7344,687.6172 Q623.8477,687.6172 624.6289,687.3633 Q625.0781,687.2266 625.5859,686.7773 Q625.918,686.5234 626.0938,686.4453 Q626.2695,686.3672 626.4844,686.3672 Q626.8945,686.3672 627.1875,686.6992 Q627.5,687.0117 627.5,687.4609 Q627.5,687.8906 627.0703,688.3984 Q626.4453,689.1406 625.4492,689.5508 Q624.1406,690.1172 622.5391,690.1172 Q620.6641,690.1172 619.1602,689.375 Q617.9492,688.7891 617.0898,687.5195 Q616.25,686.25 616.25,684.7461 L616.25,683.3789 Q616.25,681.8164 616.9922,680.4492 Q617.7539,679.082 619.0625,678.3594 Q620.3906,677.6172 621.875,677.6172 Q622.7734,677.6172 623.5547,677.9297 Q624.3359,678.2422 625,678.8672 Z " fill="#000000"/><text fill="#000000" font-family="sans-serif" font-size="15" font-style="italic" lengthAdjust="spacing" textLength="85" x="651.25" y="679.9463">«repository»</text><text fill="#000000" font-family="sans-serif" font-size="15" lengthAdjust="spacing" textLength="107.5" x="640" y="698.8135">TaskRepository</text><line style="stroke:#A80036;stroke-width:1.875;" x1="605" x2="750" y1="708.3594" y2="708.3594"/><line style="stroke:#A80036;stroke-width:1.875;" x1="605" x2="750" y1="718.3594" y2="718.3594"/><text fill="#000000" font-family="sans-serif" font-size="13.75" lengthAdjust="spacing" textLength="56.25" x="611.25" y="737.6331">+create()</text><text fill="#000000" font-family="sans-serif" font-size="13.75" lengthAdjust="spacing" textLength="55" x="611.25" y="754.928">+findAll()</text><text fill="#000000" font-family="sans-serif" font-size="13.75" lengthAdjust="spacing" textLength="76.25" x="611.25" y="772.2229">+save(Task)</text><!--MD5=[702d91e0c1d43f6bc0e67f9c84584b9d]
class TaskRepositoryInterface--><rect codeLine="94" fill="#FEFECE" filter="url(#f1gt9slsre12aa)" height="60" id="TaskRepositoryInterface" style="stroke:#A80036;stroke-width:1.875;" width="207.5" x="546.25" y="946.25"/><ellipse cx="565" cy="966.25" fill="#B4A7E5" rx="13.75" ry="13.75" style="stroke:#A80036;stroke-width:1.25;"/><path d="M566.25,962.5 L566.25,970 L568.75,970 L569.3555,970 L570,970.7813 L570,971.25 L570,971.7188 L569.3555,972.5 L568.75,972.5 L561.25,972.5 L560.6445,972.5 L560,971.7188 L560,971.25 L560,970.7813 L560.6445,970 L561.25,970 L563.75,970 L563.75,962.5 L561.25,962.5 L560.6445,962.5 L560,961.7188 L560,961.25 L560,960.7813 L560.6445,960 L561.25,960 L568.75,960 L569.3555,960 L570,960.7813 L570,961.25 L570,961.7188 L569.3555,962.5 L568.75,962.5 L566.25,962.5 Z " fill="#000000"/><text fill="#000000" font-family="sans-serif" font-size="15" font-style="italic" lengthAdjust="spacing" textLength="167.5" x="582.5" y="972.3877">TaskRepositoryInterface</text><line style="stroke:#A80036;stroke-width:1.875;" x1="547.5" x2="752.5" y1="986.25" y2="986.25"/><line style="stroke:#A80036;stroke-width:1.875;" x1="547.5" x2="752.5" y1="996.25" y2="996.25"/><!--MD5=[42468204f4d2597fbf20c9587ed04068]
link ConsultAssignedPendingTasksUI to ConsultAssignedPendingTasksController--><path codeLine="100" d="M514.5125,147.7375 C477.65,180.725 420.5,231.8625 373.25,274.1375 " fill="none" id="ConsultAssignedPendingTasksUI-to-ConsultAssignedPendingTasksController" style="stroke:#A80036;stroke-width:1.25;stroke-dasharray:7.0,7.0;"/><polygon fill="#A80036" points="368.125,278.7125,379.84,274.9281,372.7795,274.5414,373.1662,267.4809,368.125,278.7125" style="stroke:#A80036;stroke-width:1.25;"/><!--MD5=[28c538e871543db655c1a9ea7cba464c]
link ConsultAssignedPendingTasksUI to OrderAssignedPendingTasksController--><path codeLine="101" d="M576.85,147.7375 C600.4,180.5875 636.8375,231.45 667.0625,273.625 " fill="none" id="ConsultAssignedPendingTasksUI-to-OrderAssignedPendingTasksController" style="stroke:#A80036;stroke-width:1.25;stroke-dasharray:7.0,7.0;"/><polygon fill="#A80036" points="670.7125,278.7125,668.2302,266.6543,667.0747,273.6303,660.0987,272.4747,670.7125,278.7125" style="stroke:#A80036;stroke-width:1.25;"/><!--MD5=[4b3b704fd3dc4ac0d765b82f010b880c]
link ConsultAssignedPendingTasksController to PersistenceContext--><path codeLine="102" d="M260.6375,418.8125 C228.175,491.7875 177.725,605.2125 149.15,669.45 " fill="none" id="ConsultAssignedPendingTasksController-to-PersistenceContext" style="stroke:#A80036;stroke-width:1.25;stroke-dasharray:7.0,7.0;"/><polygon fill="#A80036" points="146.4625,675.5,155.6173,667.2689,149.0124,669.7938,146.4875,663.189,146.4625,675.5" style="stroke:#A80036;stroke-width:1.25;"/><!--MD5=[703255df1649417032b7e75de8330f18]
link OrderAssignedPendingTasksController to ManualTask--><path codeLine="103" d="M879.85,418.7625 C922.325,439.7125 967.2125,464.3875 1006.25,491.25 C1075.1875,538.6875 1144.275,604.75 1191.425,653.3625 " fill="none" id="OrderAssignedPendingTasksController-to-ManualTask" style="stroke:#A80036;stroke-width:1.25;stroke-dasharray:7.0,7.0;"/><polygon fill="#A80036" points="1195.925,658.0125,1191.7152,646.4436,1191.5867,653.5135,1184.5168,653.3849,1195.925,658.0125" style="stroke:#A80036;stroke-width:1.25;"/><!--MD5=[a0adbb4c25de6475d732008007e9b736]
link TaskRepository to TaskRepositoryInterface--><path codeLine="105" d="M670.9875,780.9125 C665.625,830.4125 658.2375,898.825 653.8,939.8125 " fill="none" id="TaskRepository-to-TaskRepositoryInterface" style="stroke:#A80036;stroke-width:1.25;stroke-dasharray:7.0,7.0;"/><polygon fill="#A80036" points="653.1125,946.15,659.3041,935.5092,653.7909,939.9369,649.3632,934.4237,653.1125,946.15" style="stroke:#A80036;stroke-width:1.25;"/><!--MD5=[d66efb439816738ddd3e9d5fff4bf3a7]
link AppSettings to RepositoryFactory--><path codeLine="107" d="M433.8625,666.5375 C445.475,615.8875 471.2375,542.175 526.25,507.5 C619.3,448.8375 677.65,453.9875 773.75,507.5 C822.5875,534.7 855.5625,588.4125 876.25,634.95 " fill="none" id="AppSettings-to-RepositoryFactory" style="stroke:#A80036;stroke-width:1.25;"/><polygon fill="#A80036" points="878.9625,641.1625,879.0482,628.8517,876.4639,635.4337,869.882,632.8494,878.9625,641.1625" style="stroke:#A80036;stroke-width:1.25;"/><text fill="#000000" font-family="sans-serif" font-size="16.25" lengthAdjust="spacing" textLength="53.75" x="598.125" y="476.8689">creates</text><!--MD5=[27fe1c91fe18bafc5695938053528609]
link PersistenceContext to AppSettings--><path codeLine="108" d="M214.75,719.375 C253.1625,719.375 298.2125,719.375 336.7375,719.375 " fill="none" id="PersistenceContext-to-AppSettings" style="stroke:#A80036;stroke-width:1.25;"/><polygon fill="#A80036" points="343.3625,719.375,332.1125,714.375,337.1125,719.375,332.1125,724.375,343.3625,719.375" style="stroke:#A80036;stroke-width:1.25;"/><text fill="#000000" font-family="sans-serif" font-size="16.25" lengthAdjust="spacing" textLength="83.75" x="237.1875" y="711.2439">implements</text><!--MD5=[8982f41bad9004a09ffb6c14ad72077a]
link RepositoryFactory to TaskRepository--><path codeLine="110" d="M823.6375,719.375 C802.275,719.375 779.2375,719.375 757.925,719.375 " fill="none" id="RepositoryFactory-to-TaskRepository" style="stroke:#A80036;stroke-width:1.25;"/><polygon fill="#A80036" points="751.3625,719.375,762.6125,724.375,757.6125,719.375,762.6125,714.375,751.3625,719.375" style="stroke:#A80036;stroke-width:1.25;"/><text fill="#000000" font-family="sans-serif" font-size="16.25" lengthAdjust="spacing" textLength="26.25" x="774.375" y="711.2439">has</text><text fill="#000000" font-family="sans-serif" font-size="16.25" lengthAdjust="spacing" textLength="8.75" x="804.9741" y="715.0865">1</text><text fill="#000000" font-family="sans-serif" font-size="16.25" lengthAdjust="spacing" textLength="8.75" x="761.3867" y="715.0152">1</text><!--MD5=[6ae80cee9da4d88bb64be8d0688f8e42]
link TaskRepository to ManualTask--><path codeLine="112" d="M695.425,657.8 C713.7125,607.4125 747.5375,539.4375 803.75,507.5 C882,463.0375 921.9125,476.0875 1006.25,507.5 C1083.85,536.4 1153.2375,602.15 1198.1875,652.8 " fill="none" id="TaskRepository-to-ManualTask" style="stroke:#A80036;stroke-width:1.25;"/><polygon fill="#A80036" points="1202.4625,657.65,1198.7699,645.9058,1198.328,652.963,1191.2707,652.521,1202.4625,657.65" style="stroke:#A80036;stroke-width:1.25;"/><text fill="#000000" font-family="sans-serif" font-size="16.25" lengthAdjust="spacing" textLength="41.25" x="858.125" y="476.8689">saves</text><text fill="#000000" font-family="sans-serif" font-size="16.25" lengthAdjust="spacing" textLength="8.75" x="688.5805" y="644.6613">1</text><text fill="#000000" font-family="sans-serif" font-size="16.25" lengthAdjust="spacing" textLength="6.25" x="1188.9123" y="644.4902">*</text><!--MD5=[88d27d11f2412006bad5b60b4e576218]
link ManualTask to Task--><path codeLine="114" d="M1292.375,657.8375 C1330.575,606.7375 1392.55,537.7125 1466.25,507.5 C1585.5125,458.6125 1642.6125,446.6875 1756.25,507.5 C1797.3,529.475 1828.4875,569.225 1850.9625,608.4125 " fill="none" id="ManualTask-to-Task" style="stroke:#A80036;stroke-width:1.25;"/><polygon fill="#A80036" points="1854.225,614.1875,1853.0541,601.9322,1851.1549,608.7435,1844.3437,606.8443,1854.225,614.1875" style="stroke:#A80036;stroke-width:1.25;"/><text fill="#000000" font-family="sans-serif" font-size="16.25" lengthAdjust="spacing" textLength="57.5" x="1567.5" y="476.8689">extends</text><!--MD5=[392f7804293287fa5662caa616132930]
link Task to Collaborator--><path codeLine="116" d="M2016.5625,719.375 C2036.9375,719.375 2059.0375,719.375 2082.1,719.375 " fill="none" id="Task-to-Collaborator" style="stroke:#A80036;stroke-width:1.25;"/><polygon fill="#A80036" points="2088.625,719.375,2077.375,714.375,2082.375,719.375,2077.375,724.375,2088.625,719.375" style="stroke:#A80036;stroke-width:1.25;"/><text fill="#000000" font-family="sans-serif" font-size="16.25" lengthAdjust="spacing" textLength="26.25" x="2039.375" y="711.2439">has</text><!--MD5=[9fb0c34e6207e9ffb529ff996fe74ca6]
link ManualTask to Form--><path codeLine="118" d="M1415.975,719.375 C1437.95,719.375 1460.2375,719.375 1481.5125,719.375 " fill="none" id="ManualTask-to-Form" style="stroke:#A80036;stroke-width:1.25;"/><polygon fill="#A80036" points="1488.075,719.375,1476.825,714.375,1481.825,719.375,1476.825,724.375,1488.075,719.375" style="stroke:#A80036;stroke-width:1.25;"/><text fill="#000000" font-family="sans-serif" font-size="16.25" lengthAdjust="spacing" textLength="26.25" x="1438.75" y="711.2439">has</text><!--MD5=[60fb23af5ce104a482d86ad4dd31e15d]
@startuml
skinparam classAttributeIconSize 0

package "Presentation" #DDDDDD {
    class ConsultAssignedPendingTasksUI<<presentation>>{
    }
}


package "Application" #DDDDDD {
    class ConsultAssignedPendingTasksController<<application>>{
        + create()
        + getTasksOfCollaborator(collaborator)
        + getTasksOfCollaboratorByPriority(collaborator, priority)
        + getTasksOfCollaboratorBeforeFinishDate(collaborator, finishDate)
    }

    class OrderAssignedPendingTasksController<<application>>{
        + create()
        + orderTasksOfCollaboratorByPriority(tasks)
        + orderTasksOfCollaboratorByReversePriority(tasks)
        + orderTasksOfCollaboratorByReverseFinishDate(tasks)
    }
}


package "Domain" #DDDDDD {

    abstract class Task<<Entity>><<Root>>{
        - taskDescription
        - taskStatus
        - taskPriority
        - taskResult
        - collaborator
        +create(taskDescription, taskPriority)
        +assignCollaborator(collaborator)
    }

    class ManualTask<<Entity>>{
        - form
        - limitDate
        +create(taskDescription, taskPriority, limitDate, form)
    }

    class Collaborator<<Entity>><<Root>>{
        - mecanographicNumber
        - systemUser
        - manager
        - phoneNumber
        - birthDate
        - address
        - completeName
        - shortName
        - teams
        + create(systemUser, manager, phoneNumber, birthDate, address, completeName, shortName, mecanographicNumber)
        + addTeam(team)
        + removeTeam(team)
    }

    class Form<<Entity>><<Root>> {
        - name
        - formType
        - attributeList
        + create(name, formType, attributeList)
    }
}

package Persistence #DDDDDD {
    class PersistenceContext<<persistence>>{
        +repositories()
    }

    class AppSettings<<persistence>>{
        +instance()
        +getRepositoryFactory()
    }

    package Factory #DDDDDD {
        class RepositoryFactory<<factory>>{
            +create()
            +collaborators()
            +tasks()
            +teams()
            +forms()
    }
}

package "Repository" #DDDDDD {
    class TaskRepository<<repository>>{
        +create()
        +findAll()
        +save(Task)
    }

    interface TaskRepositoryInterface{

    }
}


ConsultAssignedPendingTasksUI ..> ConsultAssignedPendingTasksController
ConsultAssignedPendingTasksUI ..> OrderAssignedPendingTasksController
ConsultAssignedPendingTasksController ..> PersistenceContext
OrderAssignedPendingTasksController ..> ManualTask

TaskRepository ..> TaskRepositoryInterface

AppSettings -> RepositoryFactory : creates
PersistenceContext -> AppSettings : implements

RepositoryFactory "1" -> "1" TaskRepository : has

TaskRepository "1" -> "*" ManualTask : saves

ManualTask -> Task : extends

Task -> Collaborator : has

ManualTask -> Form : has

@enduml

PlantUML version 1.2021.5(Sun Apr 25 12:20:28 BST 2021)
(GPL source distribution)
Java Runtime: OpenJDK Runtime Environment
JVM: OpenJDK 64-Bit Server VM
Default Encoding: Cp1252
Language: pt
Country: PT
--></g></svg>