<?xml version="1.0" encoding="UTF-8" standalone="no"?><svg xmlns="http://www.w3.org/2000/svg" xmlns:xlink="http://www.w3.org/1999/xlink" contentScriptType="application/ecmascript" contentStyleType="text/css" height="1065px" preserveAspectRatio="none" style="width:2978px;height:1065px;" version="1.1" viewBox="0 0 2978 1065" width="2978.75px" zoomAndPan="magnify"><defs><filter height="300%" id="f1q4mb69usrwaf" width="300%" x="-1" y="-1"><feGaussianBlur result="blurOut" stdDeviation="2.5"/><feColorMatrix in="blurOut" result="blurOut2" type="matrix" values="0 0 0 0 0 0 0 0 0 0 0 0 0 0 0 0 0 0 .4 0"/><feOffset dx="5.0" dy="5.0" in="blurOut2" result="blurOut3"/><feBlend in="SourceGraphic" in2="blurOut3" mode="normal"/></filter></defs><g><!--MD5=[8fd473fd151a2794da4f2c8684676405]
cluster Presentation--><polygon fill="#DDDDDD" filter="url(#f1q4mb69usrwaf)" points="352.5,7.5,472.5,7.5,481.25,37.0117,667.5,37.0117,667.5,167.5,352.5,167.5,352.5,7.5" style="stroke:#000000;stroke-width:1.875;"/><line style="stroke:#000000;stroke-width:1.875;" x1="352.5" x2="481.25" y1="37.0117" y2="37.0117"/><text fill="#000000" font-family="sans-serif" font-size="17.5" font-weight="bold" lengthAdjust="spacing" textLength="112.5" x="357.5" y="28.1665">Presentation</text><!--MD5=[d64883541e3d62e3241c4d12decf100d]
cluster Application--><polygon fill="#DDDDDD" filter="url(#f1q4mb69usrwaf)" points="20,208.75,125,208.75,133.75,238.2617,873.75,238.2617,873.75,438.75,20,438.75,20,208.75" style="stroke:#000000;stroke-width:1.875;"/><line style="stroke:#000000;stroke-width:1.875;" x1="20" x2="133.75" y1="238.2617" y2="238.2617"/><text fill="#000000" font-family="sans-serif" font-size="17.5" font-weight="bold" lengthAdjust="spacing" textLength="97.5" x="25" y="229.4165">Application</text><!--MD5=[121a8bf1197281ab89ed693fab589f94]
cluster Domain--><polygon fill="#DDDDDD" filter="url(#f1q4mb69usrwaf)" points="1187.5,501.25,1260,501.25,1268.75,530.7617,2957.5,530.7617,2957.5,887.5,1187.5,887.5,1187.5,501.25" style="stroke:#000000;stroke-width:1.875;"/><line style="stroke:#000000;stroke-width:1.875;" x1="1187.5" x2="1268.75" y1="530.7617" y2="530.7617"/><text fill="#000000" font-family="sans-serif" font-size="17.5" font-weight="bold" lengthAdjust="spacing" textLength="65" x="1192.5" y="521.9165">Domain</text><!--MD5=[bc6b40dadbf86ab6a0c8405a467a48af]
cluster Persistence--><polygon fill="#DDDDDD" filter="url(#f1q4mb69usrwaf)" points="141.25,516.25,253.75,516.25,262.5,545.7617,1157.5,545.7617,1157.5,1056.25,141.25,1056.25,141.25,516.25" style="stroke:#000000;stroke-width:1.875;"/><line style="stroke:#000000;stroke-width:1.875;" x1="141.25" x2="262.5" y1="545.7617" y2="545.7617"/><text fill="#000000" font-family="sans-serif" font-size="17.5" font-weight="bold" lengthAdjust="spacing" textLength="105" x="146.25" y="536.9165">Persistence</text><!--MD5=[0d5799440b3bfefd92b00abfcd2c79b9]
cluster Factory--><polygon fill="#DDDDDD" filter="url(#f1q4mb69usrwaf)" points="925,571.25,997.5,571.25,1006.25,600.7617,1127.5,600.7617,1127.5,817.5,925,817.5,925,571.25" style="stroke:#000000;stroke-width:1.875;"/><line style="stroke:#000000;stroke-width:1.875;" x1="925" x2="1006.25" y1="600.7617" y2="600.7617"/><text fill="#000000" font-family="sans-serif" font-size="17.5" font-weight="bold" lengthAdjust="spacing" textLength="65" x="930" y="591.9165">Factory</text><!--MD5=[71971f99a41bb66cf321ce46bb59f738]
cluster Repository--><polygon fill="#DDDDDD" filter="url(#f1q4mb69usrwaf)" points="647.5,588.125,750,588.125,758.75,617.6367,895,617.6367,895,1026.25,647.5,1026.25,647.5,588.125" style="stroke:#000000;stroke-width:1.875;"/><line style="stroke:#000000;stroke-width:1.875;" x1="647.5" x2="758.75" y1="617.6367" y2="617.6367"/><text fill="#000000" font-family="sans-serif" font-size="17.5" font-weight="bold" lengthAdjust="spacing" textLength="95" x="652.5" y="608.7915">Repository</text><!--MD5=[b838a554afdceeab34230a5c3a6aabf5]
class ConsultAssignedPendingTasksUI--><rect codeLine="4" fill="#FEFECE" filter="url(#f1q4mb69usrwaf)" height="70.2344" id="ConsultAssignedPendingTasksUI" style="stroke:#A80036;stroke-width:1.875;" width="273.75" x="373.125" y="77.5"/><ellipse cx="391.875" cy="102.6172" fill="#ADD1B2" rx="13.75" ry="13.75" style="stroke:#A80036;stroke-width:1.25;"/><path d="M394.375,98.2422 Q394.6289,97.6172 394.9219,97.3047 Q395.2148,96.9922 395.5469,96.9922 Q396.1328,96.9922 396.5039,97.3438 Q396.875,97.6953 396.875,98.5156 L396.875,100.4688 Q396.875,101.2891 396.5234,101.6406 Q396.1719,101.9922 395.625,101.9922 Q395.1367,101.9922 394.8242,101.7773 Q394.5117,101.5625 394.375,100.9961 Q394.3164,100.6055 394.1016,100.3906 Q393.7109,99.9805 393.0078,99.7461 Q392.3047,99.4922 391.6016,99.4922 Q390.7227,99.4922 389.9805,99.8438 Q389.2578,100.1953 388.6914,100.9766 Q388.125,101.7578 388.125,102.832 L388.125,103.9844 Q388.125,105.2734 389.1797,106.1328 Q390.2344,106.9922 392.1094,106.9922 Q393.2227,106.9922 394.0039,106.7383 Q394.4531,106.6016 394.9609,106.1523 Q395.293,105.8984 395.4688,105.8203 Q395.6445,105.7422 395.8594,105.7422 Q396.2695,105.7422 396.5625,106.0742 Q396.875,106.3867 396.875,106.8359 Q396.875,107.2656 396.4453,107.7734 Q395.8203,108.5156 394.8242,108.9258 Q393.5156,109.4922 391.9141,109.4922 Q390.0391,109.4922 388.5352,108.75 Q387.3242,108.1641 386.4648,106.8945 Q385.625,105.625 385.625,104.1211 L385.625,102.7539 Q385.625,101.1914 386.3672,99.8242 Q387.1289,98.457 388.4375,97.7344 Q389.7656,96.9922 391.25,96.9922 Q392.1484,96.9922 392.9297,97.3047 Q393.7109,97.6172 394.375,98.2422 Z " fill="#000000"/><text fill="#000000" font-family="sans-serif" font-size="15" font-style="italic" lengthAdjust="spacing" textLength="102.5" x="475" y="99.3213">«presentation»</text><text fill="#000000" font-family="sans-serif" font-size="15" lengthAdjust="spacing" textLength="233.75" x="409.375" y="118.1885">ConsultAssignedPendingTasksUI</text><line style="stroke:#A80036;stroke-width:1.875;" x1="374.375" x2="645.625" y1="127.7344" y2="127.7344"/><line style="stroke:#A80036;stroke-width:1.875;" x1="374.375" x2="645.625" y1="137.7344" y2="137.7344"/><!--MD5=[4c0d90daae2d1dd9a3233c16fe7a0fb2]
class ConsultAssignedPendingTasksController--><rect codeLine="10" fill="#FEFECE" filter="url(#f1q4mb69usrwaf)" height="139.4141" id="ConsultAssignedPendingTasksController" style="stroke:#A80036;stroke-width:1.875;" width="417.5" x="40" y="278.75"/><ellipse cx="100.3125" cy="303.8672" fill="#ADD1B2" rx="13.75" ry="13.75" style="stroke:#A80036;stroke-width:1.25;"/><path d="M102.8125,299.4922 Q103.0664,298.8672 103.3594,298.5547 Q103.6523,298.2422 103.9844,298.2422 Q104.5703,298.2422 104.9414,298.5938 Q105.3125,298.9453 105.3125,299.7656 L105.3125,301.7188 Q105.3125,302.5391 104.9609,302.8906 Q104.6094,303.2422 104.0625,303.2422 Q103.5742,303.2422 103.2617,303.0273 Q102.9492,302.8125 102.8125,302.2461 Q102.7539,301.8555 102.5391,301.6406 Q102.1484,301.2305 101.4453,300.9961 Q100.7422,300.7422 100.0391,300.7422 Q99.1602,300.7422 98.418,301.0938 Q97.6953,301.4453 97.1289,302.2266 Q96.5625,303.0078 96.5625,304.082 L96.5625,305.2344 Q96.5625,306.5234 97.6172,307.3828 Q98.6719,308.2422 100.5469,308.2422 Q101.6602,308.2422 102.4414,307.9883 Q102.8906,307.8516 103.3984,307.4023 Q103.7305,307.1484 103.9063,307.0703 Q104.082,306.9922 104.2969,306.9922 Q104.707,306.9922 105,307.3242 Q105.3125,307.6367 105.3125,308.0859 Q105.3125,308.5156 104.8828,309.0234 Q104.2578,309.7656 103.2617,310.1758 Q101.9531,310.7422 100.3516,310.7422 Q98.4766,310.7422 96.9727,310 Q95.7617,309.4141 94.9023,308.1445 Q94.0625,306.875 94.0625,305.3711 L94.0625,304.0039 Q94.0625,302.4414 94.8047,301.0742 Q95.5664,299.707 96.875,298.9844 Q98.2031,298.2422 99.6875,298.2422 Q100.5859,298.2422 101.3672,298.5547 Q102.1484,298.8672 102.8125,299.4922 Z " fill="#000000"/><text fill="#000000" font-family="sans-serif" font-size="15" font-style="italic" lengthAdjust="spacing" textLength="92.5" x="222.8125" y="300.5713">«application»</text><text fill="#000000" font-family="sans-serif" font-size="15" lengthAdjust="spacing" textLength="286.25" x="125.9375" y="319.4385">ConsultAssignedPendingTasksController</text><line style="stroke:#A80036;stroke-width:1.875;" x1="41.25" x2="456.25" y1="328.9844" y2="328.9844"/><line style="stroke:#A80036;stroke-width:1.875;" x1="41.25" x2="456.25" y1="338.9844" y2="338.9844"/><text fill="#000000" font-family="sans-serif" font-size="13.75" lengthAdjust="spacing" textLength="56.25" x="47.5" y="358.2581">+create()</text><text fill="#000000" font-family="sans-serif" font-size="13.75" lengthAdjust="spacing" textLength="231.25" x="47.5" y="375.553">+getTasksOfCollaborator(collaborator)</text><text fill="#000000" font-family="sans-serif" font-size="13.75" lengthAdjust="spacing" textLength="337.5" x="47.5" y="392.8479">+getTasksOfCollaboratorByPriority(collaborator, priority)</text><text fill="#000000" font-family="sans-serif" font-size="13.75" lengthAdjust="spacing" textLength="402.5" x="47.5" y="410.1428">+getTasksOfCollaboratorBeforeFinishDate(collaborator, finishDate)</text><!--MD5=[8ff8f2bceb91843dc6f0759da53c5325]
class OrderAssignedPendingTasksController--><rect codeLine="17" fill="#FEFECE" filter="url(#f1q4mb69usrwaf)" height="139.4141" id="OrderAssignedPendingTasksController" style="stroke:#A80036;stroke-width:1.875;" width="351.25" x="501.875" y="278.75"/><ellipse cx="538.625" cy="303.8672" fill="#ADD1B2" rx="13.75" ry="13.75" style="stroke:#A80036;stroke-width:1.25;"/><path d="M541.125,299.4922 Q541.3789,298.8672 541.6719,298.5547 Q541.9648,298.2422 542.2969,298.2422 Q542.8828,298.2422 543.2539,298.5938 Q543.625,298.9453 543.625,299.7656 L543.625,301.7188 Q543.625,302.5391 543.2734,302.8906 Q542.9219,303.2422 542.375,303.2422 Q541.8867,303.2422 541.5742,303.0273 Q541.2617,302.8125 541.125,302.2461 Q541.0664,301.8555 540.8516,301.6406 Q540.4609,301.2305 539.7578,300.9961 Q539.0547,300.7422 538.3516,300.7422 Q537.4727,300.7422 536.7305,301.0938 Q536.0078,301.4453 535.4414,302.2266 Q534.875,303.0078 534.875,304.082 L534.875,305.2344 Q534.875,306.5234 535.9297,307.3828 Q536.9844,308.2422 538.8594,308.2422 Q539.9727,308.2422 540.7539,307.9883 Q541.2031,307.8516 541.7109,307.4023 Q542.043,307.1484 542.2188,307.0703 Q542.3945,306.9922 542.6094,306.9922 Q543.0195,306.9922 543.3125,307.3242 Q543.625,307.6367 543.625,308.0859 Q543.625,308.5156 543.1953,309.0234 Q542.5703,309.7656 541.5742,310.1758 Q540.2656,310.7422 538.6641,310.7422 Q536.7891,310.7422 535.2852,310 Q534.0742,309.4141 533.2148,308.1445 Q532.375,306.875 532.375,305.3711 L532.375,304.0039 Q532.375,302.4414 533.1172,301.0742 Q533.8789,299.707 535.1875,298.9844 Q536.5156,298.2422 538,298.2422 Q538.8984,298.2422 539.6797,298.5547 Q540.4609,298.8672 541.125,299.4922 Z " fill="#000000"/><text fill="#000000" font-family="sans-serif" font-size="15" font-style="italic" lengthAdjust="spacing" textLength="92.5" x="649.5" y="300.5713">«application»</text><text fill="#000000" font-family="sans-serif" font-size="15" lengthAdjust="spacing" textLength="271.25" x="560.125" y="319.4385">OrderAssignedPendingTasksController</text><line style="stroke:#A80036;stroke-width:1.875;" x1="503.125" x2="851.875" y1="328.9844" y2="328.9844"/><line style="stroke:#A80036;stroke-width:1.875;" x1="503.125" x2="851.875" y1="338.9844" y2="338.9844"/><text fill="#000000" font-family="sans-serif" font-size="13.75" lengthAdjust="spacing" textLength="56.25" x="509.375" y="358.2581">+create()</text><text fill="#000000" font-family="sans-serif" font-size="13.75" lengthAdjust="spacing" textLength="263.75" x="509.375" y="375.553">+orderTasksOfCollaboratorByPriority(tasks)</text><text fill="#000000" font-family="sans-serif" font-size="13.75" lengthAdjust="spacing" textLength="315" x="509.375" y="392.8479">+orderTasksOfCollaboratorByReversePriority(tasks)</text><text fill="#000000" font-family="sans-serif" font-size="13.75" lengthAdjust="spacing" textLength="336.25" x="509.375" y="410.1428">+orderTasksOfCollaboratorByReverseFinishDate(tasks)</text><!--MD5=[b34797a66dc35cbf1d65f7e3ca75530e]
class Task--><rect codeLine="28" fill="#FEFECE" filter="url(#f1q4mb69usrwaf)" height="210.166" id="Task" style="stroke:#A80036;stroke-width:1.875;" width="237.5" x="1900" y="614.375"/><ellipse cx="1988.4375" cy="648.9258" fill="#A9DCDF" rx="13.75" ry="13.75" style="stroke:#A80036;stroke-width:1.25;"/><path d="M1990.625,650.8008 L1986.5039,650.8008 L1985.957,652.0508 L1985.957,652.0508 L1986.543,652.0508 L1987.1875,652.832 L1987.1875,653.3008 L1987.1875,653.7695 L1986.543,654.5508 L1985.957,654.5508 L1983.5938,654.5508 L1982.832,654.5508 L1982.1875,653.7695 L1982.1875,653.3008 L1982.1875,652.832 L1982.832,652.0508 L1983.5938,652.0508 L1986.4844,644.5508 L1985.3906,644.5508 L1984.082,644.5508 L1983.4375,643.7695 L1983.4375,643.3008 L1983.4375,642.832 L1984.082,642.0508 L1985.3906,642.0508 L1989.9805,642.0508 L1993.3398,652.0508 L1994.043,652.0508 L1994.043,652.0508 L1994.6875,652.832 L1994.6875,653.3008 L1994.6875,653.7695 L1994.043,654.5508 L1993.3398,654.5508 L1990.9766,654.5508 L1990.332,654.5508 L1989.6875,653.7695 L1989.6875,653.3008 L1989.6875,652.832 L1990.332,652.0508 L1990.9766,652.0508 L1990.9766,652.0508 L1990.625,650.8008 Z M1989.9414,648.3008 L1988.4375,643.8281 L1987.1484,648.3008 L1989.9414,648.3008 Z " fill="#000000"/><text fill="#000000" font-family="sans-serif" font-size="15" font-style="italic" lengthAdjust="spacing" textLength="55" x="2011.5625" y="636.1963">«Entity»</text><text fill="#000000" font-family="sans-serif" font-size="15" font-style="italic" lengthAdjust="spacing" textLength="50" x="2014.0625" y="655.0635">«Root»</text><text fill="#000000" font-family="sans-serif" font-size="15" font-style="italic" lengthAdjust="spacing" textLength="33.75" x="2022.1875" y="673.9307">Task</text><line style="stroke:#A80036;stroke-width:1.875;" x1="1901.25" x2="2136.25" y1="683.4766" y2="683.4766"/><text fill="#000000" font-family="sans-serif" font-size="13.75" lengthAdjust="spacing" textLength="97.5" x="1907.5" y="702.7502">-taskDescription</text><text fill="#000000" font-family="sans-serif" font-size="13.75" lengthAdjust="spacing" textLength="68.75" x="1907.5" y="720.0452">-taskStatus</text><text fill="#000000" font-family="sans-serif" font-size="13.75" lengthAdjust="spacing" textLength="71.25" x="1907.5" y="737.3401">-taskPriority</text><text fill="#000000" font-family="sans-serif" font-size="13.75" lengthAdjust="spacing" textLength="67.5" x="1907.5" y="754.635">-taskResult</text><text fill="#000000" font-family="sans-serif" font-size="13.75" lengthAdjust="spacing" textLength="76.25" x="1907.5" y="771.9299">-collaborator</text><line style="stroke:#A80036;stroke-width:1.875;" x1="1901.25" x2="2136.25" y1="779.9512" y2="779.9512"/><text fill="#000000" font-family="sans-serif" font-size="13.75" lengthAdjust="spacing" textLength="222.5" x="1907.5" y="799.2249">+create(taskDescription, taskPriority)</text><text fill="#000000" font-family="sans-serif" font-size="13.75" lengthAdjust="spacing" textLength="201.25" x="1907.5" y="816.5198">+assignCollaborator(collaborator)</text><!--MD5=[743064f62b3390934ed7addf6a434293]
class ManualTask--><rect codeLine="38" fill="#FEFECE" filter="url(#f1q4mb69usrwaf)" height="122.1191" id="ManualTask" style="stroke:#A80036;stroke-width:1.875;" width="328.75" x="1208.125" y="658.125"/><ellipse cx="1325.3125" cy="683.2422" fill="#ADD1B2" rx="13.75" ry="13.75" style="stroke:#A80036;stroke-width:1.25;"/><path d="M1327.8125,678.8672 Q1328.0664,678.2422 1328.3594,677.9297 Q1328.6523,677.6172 1328.9844,677.6172 Q1329.5703,677.6172 1329.9414,677.9688 Q1330.3125,678.3203 1330.3125,679.1406 L1330.3125,681.0938 Q1330.3125,681.9141 1329.9609,682.2656 Q1329.6094,682.6172 1329.0625,682.6172 Q1328.5742,682.6172 1328.2617,682.4023 Q1327.9492,682.1875 1327.8125,681.6211 Q1327.7539,681.2305 1327.5391,681.0156 Q1327.1484,680.6055 1326.4453,680.3711 Q1325.7422,680.1172 1325.0391,680.1172 Q1324.1602,680.1172 1323.418,680.4688 Q1322.6953,680.8203 1322.1289,681.6016 Q1321.5625,682.3828 1321.5625,683.457 L1321.5625,684.6094 Q1321.5625,685.8984 1322.6172,686.7578 Q1323.6719,687.6172 1325.5469,687.6172 Q1326.6602,687.6172 1327.4414,687.3633 Q1327.8906,687.2266 1328.3984,686.7773 Q1328.7305,686.5234 1328.9063,686.4453 Q1329.082,686.3672 1329.2969,686.3672 Q1329.707,686.3672 1330,686.6992 Q1330.3125,687.0117 1330.3125,687.4609 Q1330.3125,687.8906 1329.8828,688.3984 Q1329.2578,689.1406 1328.2617,689.5508 Q1326.9531,690.1172 1325.3516,690.1172 Q1323.4766,690.1172 1321.9727,689.375 Q1320.7617,688.7891 1319.9023,687.5195 Q1319.0625,686.25 1319.0625,684.7461 L1319.0625,683.3789 Q1319.0625,681.8164 1319.8047,680.4492 Q1320.5664,679.082 1321.875,678.3594 Q1323.2031,677.6172 1324.6875,677.6172 Q1325.5859,677.6172 1326.3672,677.9297 Q1327.1484,678.2422 1327.8125,678.8672 Z " fill="#000000"/><text fill="#000000" font-family="sans-serif" font-size="15" font-style="italic" lengthAdjust="spacing" textLength="55" x="1365.3125" y="679.9463">«Entity»</text><text fill="#000000" font-family="sans-serif" font-size="15" lengthAdjust="spacing" textLength="83.75" x="1350.9375" y="698.8135">ManualTask</text><line style="stroke:#A80036;stroke-width:1.875;" x1="1209.375" x2="1535.625" y1="708.3594" y2="708.3594"/><text fill="#000000" font-family="sans-serif" font-size="13.75" lengthAdjust="spacing" textLength="32.5" x="1215.625" y="727.6331">-form</text><text fill="#000000" font-family="sans-serif" font-size="13.75" lengthAdjust="spacing" textLength="53.75" x="1215.625" y="744.928">-limitDate</text><line style="stroke:#A80036;stroke-width:1.875;" x1="1209.375" x2="1535.625" y1="752.9492" y2="752.9492"/><text fill="#000000" font-family="sans-serif" font-size="13.75" lengthAdjust="spacing" textLength="313.75" x="1215.625" y="772.2229">+create(taskDescription, taskPriority, limitDate, form)</text><!--MD5=[f483d6e5de34a60207b28a5563be5e8b]
class Collaborator--><rect codeLine="44" fill="#FEFECE" filter="url(#f1q4mb69usrwaf)" height="296.6406" id="Collaborator" style="stroke:#A80036;stroke-width:1.875;" width="727.5" x="2210" y="571.25"/><ellipse cx="2525.9375" cy="605.8008" fill="#ADD1B2" rx="13.75" ry="13.75" style="stroke:#A80036;stroke-width:1.25;"/><path d="M2528.4375,601.4258 Q2528.6914,600.8008 2528.9844,600.4883 Q2529.2773,600.1758 2529.6094,600.1758 Q2530.1953,600.1758 2530.5664,600.5273 Q2530.9375,600.8789 2530.9375,601.6992 L2530.9375,603.6523 Q2530.9375,604.4727 2530.5859,604.8242 Q2530.2344,605.1758 2529.6875,605.1758 Q2529.1992,605.1758 2528.8867,604.9609 Q2528.5742,604.7461 2528.4375,604.1797 Q2528.3789,603.7891 2528.1641,603.5742 Q2527.7734,603.1641 2527.0703,602.9297 Q2526.3672,602.6758 2525.6641,602.6758 Q2524.7852,602.6758 2524.043,603.0273 Q2523.3203,603.3789 2522.7539,604.1602 Q2522.1875,604.9414 2522.1875,606.0156 L2522.1875,607.168 Q2522.1875,608.457 2523.2422,609.3164 Q2524.2969,610.1758 2526.1719,610.1758 Q2527.2852,610.1758 2528.0664,609.9219 Q2528.5156,609.7852 2529.0234,609.3359 Q2529.3555,609.082 2529.5313,609.0039 Q2529.707,608.9258 2529.9219,608.9258 Q2530.332,608.9258 2530.625,609.2578 Q2530.9375,609.5703 2530.9375,610.0195 Q2530.9375,610.4492 2530.5078,610.957 Q2529.8828,611.6992 2528.8867,612.1094 Q2527.5781,612.6758 2525.9766,612.6758 Q2524.1016,612.6758 2522.5977,611.9336 Q2521.3867,611.3477 2520.5273,610.0781 Q2519.6875,608.8086 2519.6875,607.3047 L2519.6875,605.9375 Q2519.6875,604.375 2520.4297,603.0078 Q2521.1914,601.6406 2522.5,600.918 Q2523.8281,600.1758 2525.3125,600.1758 Q2526.2109,600.1758 2526.9922,600.4883 Q2527.7734,600.8008 2528.4375,601.4258 Z " fill="#000000"/><text fill="#000000" font-family="sans-serif" font-size="15" font-style="italic" lengthAdjust="spacing" textLength="55" x="2566.5625" y="593.0713">«Entity»</text><text fill="#000000" font-family="sans-serif" font-size="15" font-style="italic" lengthAdjust="spacing" textLength="50" x="2569.0625" y="611.9385">«Root»</text><text fill="#000000" font-family="sans-serif" font-size="15" lengthAdjust="spacing" textLength="85" x="2551.5625" y="630.8057">Collaborator</text><line style="stroke:#A80036;stroke-width:1.875;" x1="2211.25" x2="2936.25" y1="640.3516" y2="640.3516"/><text fill="#000000" font-family="sans-serif" font-size="13.75" lengthAdjust="spacing" textLength="143.75" x="2217.5" y="659.6252">-mecanographicNumber</text><text fill="#000000" font-family="sans-serif" font-size="13.75" lengthAdjust="spacing" textLength="77.5" x="2217.5" y="676.9202">-systemUser</text><text fill="#000000" font-family="sans-serif" font-size="13.75" lengthAdjust="spacing" textLength="57.5" x="2217.5" y="694.2151">-manager</text><text fill="#000000" font-family="sans-serif" font-size="13.75" lengthAdjust="spacing" textLength="88.75" x="2217.5" y="711.51">-phoneNumber</text><text fill="#000000" font-family="sans-serif" font-size="13.75" lengthAdjust="spacing" textLength="58.75" x="2217.5" y="728.8049">-birthDate</text><text fill="#000000" font-family="sans-serif" font-size="13.75" lengthAdjust="spacing" textLength="55" x="2217.5" y="746.0999">-address</text><text fill="#000000" font-family="sans-serif" font-size="13.75" lengthAdjust="spacing" textLength="92.5" x="2217.5" y="763.3948">-completeName</text><text fill="#000000" font-family="sans-serif" font-size="13.75" lengthAdjust="spacing" textLength="70" x="2217.5" y="780.6897">-shortName</text><text fill="#000000" font-family="sans-serif" font-size="13.75" lengthAdjust="spacing" textLength="41.25" x="2217.5" y="797.9846">-teams</text><line style="stroke:#A80036;stroke-width:1.875;" x1="2211.25" x2="2936.25" y1="806.0059" y2="806.0059"/><text fill="#000000" font-family="sans-serif" font-size="13.75" lengthAdjust="spacing" textLength="712.5" x="2217.5" y="825.2795">+create(systemUser, manager, phoneNumber, birthDate, address, completeName, shortName, mecanographicNumber)</text><text fill="#000000" font-family="sans-serif" font-size="13.75" lengthAdjust="spacing" textLength="101.25" x="2217.5" y="842.5745">+addTeam(team)</text><text fill="#000000" font-family="sans-serif" font-size="13.75" lengthAdjust="spacing" textLength="123.75" x="2217.5" y="859.8694">+removeTeam(team)</text><!--MD5=[6f29f313cd4199edbf91b9ce3a4faa98]
class Form--><rect codeLine="59" fill="#FEFECE" filter="url(#f1q4mb69usrwaf)" height="158.2813" id="Form" style="stroke:#A80036;stroke-width:1.875;" width="246.25" x="1609.375" y="640"/><ellipse cx="1702.1875" cy="674.5508" fill="#ADD1B2" rx="13.75" ry="13.75" style="stroke:#A80036;stroke-width:1.25;"/><path d="M1704.6875,670.1758 Q1704.9414,669.5508 1705.2344,669.2383 Q1705.5273,668.9258 1705.8594,668.9258 Q1706.4453,668.9258 1706.8164,669.2773 Q1707.1875,669.6289 1707.1875,670.4492 L1707.1875,672.4023 Q1707.1875,673.2227 1706.8359,673.5742 Q1706.4844,673.9258 1705.9375,673.9258 Q1705.4492,673.9258 1705.1367,673.7109 Q1704.8242,673.4961 1704.6875,672.9297 Q1704.6289,672.5391 1704.4141,672.3242 Q1704.0234,671.9141 1703.3203,671.6797 Q1702.6172,671.4258 1701.9141,671.4258 Q1701.0352,671.4258 1700.293,671.7773 Q1699.5703,672.1289 1699.0039,672.9102 Q1698.4375,673.6914 1698.4375,674.7656 L1698.4375,675.918 Q1698.4375,677.207 1699.4922,678.0664 Q1700.5469,678.9258 1702.4219,678.9258 Q1703.5352,678.9258 1704.3164,678.6719 Q1704.7656,678.5352 1705.2734,678.0859 Q1705.6055,677.832 1705.7813,677.7539 Q1705.957,677.6758 1706.1719,677.6758 Q1706.582,677.6758 1706.875,678.0078 Q1707.1875,678.3203 1707.1875,678.7695 Q1707.1875,679.1992 1706.7578,679.707 Q1706.1328,680.4492 1705.1367,680.8594 Q1703.8281,681.4258 1702.2266,681.4258 Q1700.3516,681.4258 1698.8477,680.6836 Q1697.6367,680.0977 1696.7773,678.8281 Q1695.9375,677.5586 1695.9375,676.0547 L1695.9375,674.6875 Q1695.9375,673.125 1696.6797,671.7578 Q1697.4414,670.3906 1698.75,669.668 Q1700.0781,668.9258 1701.5625,668.9258 Q1702.4609,668.9258 1703.2422,669.2383 Q1704.0234,669.5508 1704.6875,670.1758 Z " fill="#000000"/><text fill="#000000" font-family="sans-serif" font-size="15" font-style="italic" lengthAdjust="spacing" textLength="55" x="1725.3125" y="661.8213">«Entity»</text><text fill="#000000" font-family="sans-serif" font-size="15" font-style="italic" lengthAdjust="spacing" textLength="50" x="1727.8125" y="680.6885">«Root»</text><text fill="#000000" font-family="sans-serif" font-size="15" lengthAdjust="spacing" textLength="36.25" x="1734.6875" y="699.5557">Form</text><line style="stroke:#A80036;stroke-width:1.875;" x1="1610.625" x2="1854.375" y1="709.1016" y2="709.1016"/><text fill="#000000" font-family="sans-serif" font-size="13.75" lengthAdjust="spacing" textLength="37.5" x="1616.875" y="728.3752">-name</text><text fill="#000000" font-family="sans-serif" font-size="13.75" lengthAdjust="spacing" textLength="62.5" x="1616.875" y="745.6702">-formType</text><text fill="#000000" font-family="sans-serif" font-size="13.75" lengthAdjust="spacing" textLength="75" x="1616.875" y="762.9651">-attributeList</text><line style="stroke:#A80036;stroke-width:1.875;" x1="1610.625" x2="1854.375" y1="770.9863" y2="770.9863"/><text fill="#000000" font-family="sans-serif" font-size="13.75" lengthAdjust="spacing" textLength="231.25" x="1616.875" y="790.26">+create(name, formType, attributeList)</text><!--MD5=[e8c189551b7885b999ad7cefb30fc2a3]
class PersistenceContext--><rect codeLine="68" fill="#FEFECE" filter="url(#f1q4mb69usrwaf)" height="87.5293" id="PersistenceContext" style="stroke:#A80036;stroke-width:1.875;" width="173.75" x="161.875" y="675.625"/><ellipse cx="180.625" cy="700.7422" fill="#ADD1B2" rx="13.75" ry="13.75" style="stroke:#A80036;stroke-width:1.25;"/><path d="M183.125,696.3672 Q183.3789,695.7422 183.6719,695.4297 Q183.9648,695.1172 184.2969,695.1172 Q184.8828,695.1172 185.2539,695.4688 Q185.625,695.8203 185.625,696.6406 L185.625,698.5938 Q185.625,699.4141 185.2734,699.7656 Q184.9219,700.1172 184.375,700.1172 Q183.8867,700.1172 183.5742,699.9023 Q183.2617,699.6875 183.125,699.1211 Q183.0664,698.7305 182.8516,698.5156 Q182.4609,698.1055 181.7578,697.8711 Q181.0547,697.6172 180.3516,697.6172 Q179.4727,697.6172 178.7305,697.9688 Q178.0078,698.3203 177.4414,699.1016 Q176.875,699.8828 176.875,700.957 L176.875,702.1094 Q176.875,703.3984 177.9297,704.2578 Q178.9844,705.1172 180.8594,705.1172 Q181.9727,705.1172 182.7539,704.8633 Q183.2031,704.7266 183.7109,704.2773 Q184.043,704.0234 184.2188,703.9453 Q184.3945,703.8672 184.6094,703.8672 Q185.0195,703.8672 185.3125,704.1992 Q185.625,704.5117 185.625,704.9609 Q185.625,705.3906 185.1953,705.8984 Q184.5703,706.6406 183.5742,707.0508 Q182.2656,707.6172 180.6641,707.6172 Q178.7891,707.6172 177.2852,706.875 Q176.0742,706.2891 175.2148,705.0195 Q174.375,703.75 174.375,702.2461 L174.375,700.8789 Q174.375,699.3164 175.1172,697.9492 Q175.8789,696.582 177.1875,695.8594 Q178.5156,695.1172 180,695.1172 Q180.8984,695.1172 181.6797,695.4297 Q182.4609,695.7422 183.125,696.3672 Z " fill="#000000"/><text fill="#000000" font-family="sans-serif" font-size="15" font-style="italic" lengthAdjust="spacing" textLength="96.25" x="216.875" y="697.4463">«persistence»</text><text fill="#000000" font-family="sans-serif" font-size="15" lengthAdjust="spacing" textLength="133.75" x="198.125" y="716.3135">PersistenceContext</text><line style="stroke:#A80036;stroke-width:1.875;" x1="163.125" x2="334.375" y1="725.8594" y2="725.8594"/><line style="stroke:#A80036;stroke-width:1.875;" x1="163.125" x2="334.375" y1="735.8594" y2="735.8594"/><text fill="#000000" font-family="sans-serif" font-size="13.75" lengthAdjust="spacing" textLength="88.75" x="169.375" y="755.1331">+repositories()</text><!--MD5=[b8e4c95865208c934bfcfda4f90bf50c]
class AppSettings--><rect codeLine="72" fill="#FEFECE" filter="url(#f1q4mb69usrwaf)" height="104.8242" id="AppSettings" style="stroke:#A80036;stroke-width:1.875;" width="162.5" x="465" y="666.875"/><ellipse cx="497.8125" cy="691.9922" fill="#ADD1B2" rx="13.75" ry="13.75" style="stroke:#A80036;stroke-width:1.25;"/><path d="M500.3125,687.6172 Q500.5664,686.9922 500.8594,686.6797 Q501.1523,686.3672 501.4844,686.3672 Q502.0703,686.3672 502.4414,686.7188 Q502.8125,687.0703 502.8125,687.8906 L502.8125,689.8438 Q502.8125,690.6641 502.4609,691.0156 Q502.1094,691.3672 501.5625,691.3672 Q501.0742,691.3672 500.7617,691.1523 Q500.4492,690.9375 500.3125,690.3711 Q500.2539,689.9805 500.0391,689.7656 Q499.6484,689.3555 498.9453,689.1211 Q498.2422,688.8672 497.5391,688.8672 Q496.6602,688.8672 495.918,689.2188 Q495.1953,689.5703 494.6289,690.3516 Q494.0625,691.1328 494.0625,692.207 L494.0625,693.3594 Q494.0625,694.6484 495.1172,695.5078 Q496.1719,696.3672 498.0469,696.3672 Q499.1602,696.3672 499.9414,696.1133 Q500.3906,695.9766 500.8984,695.5273 Q501.2305,695.2734 501.4063,695.1953 Q501.582,695.1172 501.7969,695.1172 Q502.207,695.1172 502.5,695.4492 Q502.8125,695.7617 502.8125,696.2109 Q502.8125,696.6406 502.3828,697.1484 Q501.7578,697.8906 500.7617,698.3008 Q499.4531,698.8672 497.8516,698.8672 Q495.9766,698.8672 494.4727,698.125 Q493.2617,697.5391 492.4023,696.2695 Q491.5625,695 491.5625,693.4961 L491.5625,692.1289 Q491.5625,690.5664 492.3047,689.1992 Q493.0664,687.832 494.375,687.1094 Q495.7031,686.3672 497.1875,686.3672 Q498.0859,686.3672 498.8672,686.6797 Q499.6484,686.9922 500.3125,687.6172 Z " fill="#000000"/><text fill="#000000" font-family="sans-serif" font-size="15" font-style="italic" lengthAdjust="spacing" textLength="96.25" x="515.9375" y="688.6963">«persistence»</text><text fill="#000000" font-family="sans-serif" font-size="15" lengthAdjust="spacing" textLength="82.5" x="522.8125" y="707.5635">AppSettings</text><line style="stroke:#A80036;stroke-width:1.875;" x1="466.25" x2="626.25" y1="717.1094" y2="717.1094"/><line style="stroke:#A80036;stroke-width:1.875;" x1="466.25" x2="626.25" y1="727.1094" y2="727.1094"/><text fill="#000000" font-family="sans-serif" font-size="13.75" lengthAdjust="spacing" textLength="68.75" x="472.5" y="746.3831">+instance()</text><text fill="#000000" font-family="sans-serif" font-size="13.75" lengthAdjust="spacing" textLength="147.5" x="472.5" y="763.678">+getRepositoryFactory()</text><!--MD5=[48590afff58a68e2fcba47824d6f8a11]
class RepositoryFactory--><rect codeLine="78" fill="#FEFECE" filter="url(#f1q4mb69usrwaf)" height="156.709" id="RepositoryFactory" style="stroke:#A80036;stroke-width:1.875;" width="162.5" x="945" y="641.25"/><ellipse cx="963.75" cy="666.3672" fill="#ADD1B2" rx="13.75" ry="13.75" style="stroke:#A80036;stroke-width:1.25;"/><path d="M966.25,661.9922 Q966.5039,661.3672 966.7969,661.0547 Q967.0898,660.7422 967.4219,660.7422 Q968.0078,660.7422 968.3789,661.0938 Q968.75,661.4453 968.75,662.2656 L968.75,664.2188 Q968.75,665.0391 968.3984,665.3906 Q968.0469,665.7422 967.5,665.7422 Q967.0117,665.7422 966.6992,665.5273 Q966.3867,665.3125 966.25,664.7461 Q966.1914,664.3555 965.9766,664.1406 Q965.5859,663.7305 964.8828,663.4961 Q964.1797,663.2422 963.4766,663.2422 Q962.5977,663.2422 961.8555,663.5938 Q961.1328,663.9453 960.5664,664.7266 Q960,665.5078 960,666.582 L960,667.7344 Q960,669.0234 961.0547,669.8828 Q962.1094,670.7422 963.9844,670.7422 Q965.0977,670.7422 965.8789,670.4883 Q966.3281,670.3516 966.8359,669.9023 Q967.168,669.6484 967.3438,669.5703 Q967.5195,669.4922 967.7344,669.4922 Q968.1445,669.4922 968.4375,669.8242 Q968.75,670.1367 968.75,670.5859 Q968.75,671.0156 968.3203,671.5234 Q967.6953,672.2656 966.6992,672.6758 Q965.3906,673.2422 963.7891,673.2422 Q961.9141,673.2422 960.4102,672.5 Q959.1992,671.9141 958.3398,670.6445 Q957.5,669.375 957.5,667.8711 L957.5,666.5039 Q957.5,664.9414 958.2422,663.5742 Q959.0039,662.207 960.3125,661.4844 Q961.6406,660.7422 963.125,660.7422 Q964.0234,660.7422 964.8047,661.0547 Q965.5859,661.3672 966.25,661.9922 Z " fill="#000000"/><text fill="#000000" font-family="sans-serif" font-size="15" font-style="italic" lengthAdjust="spacing" textLength="62.5" x="1011.25" y="663.0713">«factory»</text><text fill="#000000" font-family="sans-serif" font-size="15" lengthAdjust="spacing" textLength="122.5" x="981.25" y="681.9385">RepositoryFactory</text><line style="stroke:#A80036;stroke-width:1.875;" x1="946.25" x2="1106.25" y1="691.4844" y2="691.4844"/><line style="stroke:#A80036;stroke-width:1.875;" x1="946.25" x2="1106.25" y1="701.4844" y2="701.4844"/><text fill="#000000" font-family="sans-serif" font-size="13.75" lengthAdjust="spacing" textLength="56.25" x="952.5" y="720.7581">+create()</text><text fill="#000000" font-family="sans-serif" font-size="13.75" lengthAdjust="spacing" textLength="96.25" x="952.5" y="738.053">+collaborators()</text><text fill="#000000" font-family="sans-serif" font-size="13.75" lengthAdjust="spacing" textLength="50" x="952.5" y="755.3479">+tasks()</text><text fill="#000000" font-family="sans-serif" font-size="13.75" lengthAdjust="spacing" textLength="53.75" x="952.5" y="772.6428">+teams()</text><text fill="#000000" font-family="sans-serif" font-size="13.75" lengthAdjust="spacing" textLength="52.5" x="952.5" y="789.9377">+forms()</text><!--MD5=[2d00e6e09a1cfec9653155ee4d91c399]
class TaskRepository--><rect codeLine="88" fill="#FEFECE" filter="url(#f1q4mb69usrwaf)" height="122.1191" id="TaskRepository" style="stroke:#A80036;stroke-width:1.875;" width="147.5" x="692.5" y="658.125"/><ellipse cx="711.25" cy="683.2422" fill="#ADD1B2" rx="13.75" ry="13.75" style="stroke:#A80036;stroke-width:1.25;"/><path d="M713.75,678.8672 Q714.0039,678.2422 714.2969,677.9297 Q714.5898,677.6172 714.9219,677.6172 Q715.5078,677.6172 715.8789,677.9688 Q716.25,678.3203 716.25,679.1406 L716.25,681.0938 Q716.25,681.9141 715.8984,682.2656 Q715.5469,682.6172 715,682.6172 Q714.5117,682.6172 714.1992,682.4023 Q713.8867,682.1875 713.75,681.6211 Q713.6914,681.2305 713.4766,681.0156 Q713.0859,680.6055 712.3828,680.3711 Q711.6797,680.1172 710.9766,680.1172 Q710.0977,680.1172 709.3555,680.4688 Q708.6328,680.8203 708.0664,681.6016 Q707.5,682.3828 707.5,683.457 L707.5,684.6094 Q707.5,685.8984 708.5547,686.7578 Q709.6094,687.6172 711.4844,687.6172 Q712.5977,687.6172 713.3789,687.3633 Q713.8281,687.2266 714.3359,686.7773 Q714.668,686.5234 714.8438,686.4453 Q715.0195,686.3672 715.2344,686.3672 Q715.6445,686.3672 715.9375,686.6992 Q716.25,687.0117 716.25,687.4609 Q716.25,687.8906 715.8203,688.3984 Q715.1953,689.1406 714.1992,689.5508 Q712.8906,690.1172 711.2891,690.1172 Q709.4141,690.1172 707.9102,689.375 Q706.6992,688.7891 705.8398,687.5195 Q705,686.25 705,684.7461 L705,683.3789 Q705,681.8164 705.7422,680.4492 Q706.5039,679.082 707.8125,678.3594 Q709.1406,677.6172 710.625,677.6172 Q711.5234,677.6172 712.3047,677.9297 Q713.0859,678.2422 713.75,678.8672 Z " fill="#000000"/><text fill="#000000" font-family="sans-serif" font-size="15" font-style="italic" lengthAdjust="spacing" textLength="85" x="740" y="679.9463">«repository»</text><text fill="#000000" font-family="sans-serif" font-size="15" lengthAdjust="spacing" textLength="107.5" x="728.75" y="698.8135">TaskRepository</text><line style="stroke:#A80036;stroke-width:1.875;" x1="693.75" x2="838.75" y1="708.3594" y2="708.3594"/><line style="stroke:#A80036;stroke-width:1.875;" x1="693.75" x2="838.75" y1="718.3594" y2="718.3594"/><text fill="#000000" font-family="sans-serif" font-size="13.75" lengthAdjust="spacing" textLength="56.25" x="700" y="737.6331">+create()</text><text fill="#000000" font-family="sans-serif" font-size="13.75" lengthAdjust="spacing" textLength="55" x="700" y="754.928">+findAll()</text><text fill="#000000" font-family="sans-serif" font-size="13.75" lengthAdjust="spacing" textLength="76.25" x="700" y="772.2229">+save(Task)</text><!--MD5=[702d91e0c1d43f6bc0e67f9c84584b9d]
class TaskRepositoryInterface--><rect codeLine="94" fill="#FEFECE" filter="url(#f1q4mb69usrwaf)" height="60" id="TaskRepositoryInterface" style="stroke:#A80036;stroke-width:1.875;" width="207.5" x="667.5" y="946.25"/><ellipse cx="686.25" cy="966.25" fill="#B4A7E5" rx="13.75" ry="13.75" style="stroke:#A80036;stroke-width:1.25;"/><path d="M687.5,962.5 L687.5,970 L690,970 L690.6055,970 L691.25,970.7813 L691.25,971.25 L691.25,971.7188 L690.6055,972.5 L690,972.5 L682.5,972.5 L681.8945,972.5 L681.25,971.7188 L681.25,971.25 L681.25,970.7813 L681.8945,970 L682.5,970 L685,970 L685,962.5 L682.5,962.5 L681.8945,962.5 L681.25,961.7188 L681.25,961.25 L681.25,960.7813 L681.8945,960 L682.5,960 L690,960 L690.6055,960 L691.25,960.7813 L691.25,961.25 L691.25,961.7188 L690.6055,962.5 L690,962.5 L687.5,962.5 Z " fill="#000000"/><text fill="#000000" font-family="sans-serif" font-size="15" font-style="italic" lengthAdjust="spacing" textLength="167.5" x="703.75" y="972.3877">TaskRepositoryInterface</text><line style="stroke:#A80036;stroke-width:1.875;" x1="668.75" x2="873.75" y1="986.25" y2="986.25"/><line style="stroke:#A80036;stroke-width:1.875;" x1="668.75" x2="873.75" y1="996.25" y2="996.25"/><!--MD5=[42468204f4d2597fbf20c9587ed04068]
link ConsultAssignedPendingTasksUI to ConsultAssignedPendingTasksController--><path codeLine="100" d="M472.0125,147.7375 C435.15,180.725 378,231.8625 330.75,274.1375 " fill="none" id="ConsultAssignedPendingTasksUI-to-ConsultAssignedPendingTasksController" style="stroke:#A80036;stroke-width:1.25;stroke-dasharray:7.0,7.0;"/><polygon fill="#A80036" points="325.625,278.7125,337.34,274.9281,330.2795,274.5414,330.6662,267.4809,325.625,278.7125" style="stroke:#A80036;stroke-width:1.25;"/><!--MD5=[28c538e871543db655c1a9ea7cba464c]
link ConsultAssignedPendingTasksUI to OrderAssignedPendingTasksController--><path codeLine="101" d="M534.35,147.7375 C557.9,180.5875 594.3375,231.45 624.5625,273.625 " fill="none" id="ConsultAssignedPendingTasksUI-to-OrderAssignedPendingTasksController" style="stroke:#A80036;stroke-width:1.25;stroke-dasharray:7.0,7.0;"/><polygon fill="#A80036" points="628.2125,278.7125,625.7302,266.6543,624.5747,273.6303,617.5987,272.4747,628.2125,278.7125" style="stroke:#A80036;stroke-width:1.25;"/><!--MD5=[4b3b704fd3dc4ac0d765b82f010b880c]
link ConsultAssignedPendingTasksController to PersistenceContext--><path codeLine="102" d="M248.75,418.8125 C248.75,491.6375 248.75,604.7625 248.75,669.05 " fill="none" id="ConsultAssignedPendingTasksController-to-PersistenceContext" style="stroke:#A80036;stroke-width:1.25;stroke-dasharray:7.0,7.0;"/><polygon fill="#A80036" points="248.75,675.5,253.75,664.25,248.75,669.25,243.75,664.25,248.75,675.5" style="stroke:#A80036;stroke-width:1.25;"/><!--MD5=[a0adbb4c25de6475d732008007e9b736]
link TaskRepository to TaskRepositoryInterface--><path codeLine="104" d="M767.4375,780.9125 C768.4125,830.4125 769.75,898.825 770.5625,939.8125 " fill="none" id="TaskRepository-to-TaskRepositoryInterface" style="stroke:#A80036;stroke-width:1.25;stroke-dasharray:7.0,7.0;"/><polygon fill="#A80036" points="770.6875,946.15,775.4615,934.8023,770.5625,939.9012,765.4635,935.0022,770.6875,946.15" style="stroke:#A80036;stroke-width:1.25;"/><!--MD5=[d66efb439816738ddd3e9d5fff4bf3a7]
link AppSettings to RepositoryFactory--><path codeLine="106" d="M555.1125,666.5375 C566.725,615.8875 592.4875,542.175 647.5,507.5 C740.55,448.8375 798.9,453.9875 895,507.5 C943.8375,534.7 976.8125,588.4125 997.5,634.95 " fill="none" id="AppSettings-to-RepositoryFactory" style="stroke:#A80036;stroke-width:1.25;"/><polygon fill="#A80036" points="1000.2125,641.1625,1000.2982,628.8517,997.7139,635.4337,991.132,632.8494,1000.2125,641.1625" style="stroke:#A80036;stroke-width:1.25;"/><text fill="#000000" font-family="sans-serif" font-size="16.25" lengthAdjust="spacing" textLength="53.75" x="890.625" y="476.8689">creates</text><!--MD5=[27fe1c91fe18bafc5695938053528609]
link PersistenceContext to AppSettings--><path codeLine="107" d="M336,719.375 C374.4125,719.375 419.4625,719.375 457.9875,719.375 " fill="none" id="PersistenceContext-to-AppSettings" style="stroke:#A80036;stroke-width:1.25;"/><polygon fill="#A80036" points="464.6125,719.375,453.3625,714.375,458.3625,719.375,453.3625,724.375,464.6125,719.375" style="stroke:#A80036;stroke-width:1.25;"/><text fill="#000000" font-family="sans-serif" font-size="16.25" lengthAdjust="spacing" textLength="83.75" x="358.4375" y="711.2439">implements</text><!--MD5=[8982f41bad9004a09ffb6c14ad72077a]
link RepositoryFactory to TaskRepository--><path codeLine="109" d="M944.95,719.375 C913.625,719.375 877.9,719.375 846.65,719.375 " fill="none" id="RepositoryFactory-to-TaskRepository" style="stroke:#A80036;stroke-width:1.25;"/><polygon fill="#A80036" points="840.0625,719.375,851.3125,724.375,846.3125,719.375,851.3125,714.375,840.0625,719.375" style="stroke:#A80036;stroke-width:1.25;"/><text fill="#000000" font-family="sans-serif" font-size="16.25" lengthAdjust="spacing" textLength="26.25" x="879.375" y="711.2439">has</text><text fill="#000000" font-family="sans-serif" font-size="16.25" lengthAdjust="spacing" textLength="8.75" x="926.2938" y="715.0865">1</text><text fill="#000000" font-family="sans-serif" font-size="16.25" lengthAdjust="spacing" textLength="8.75" x="850.0803" y="715.0152">1</text><!--MD5=[6ae80cee9da4d88bb64be8d0688f8e42]
link TaskRepository to ManualTask--><path codeLine="111" d="M792.875,657.8625 C818.5625,607.1375 862.725,538.6625 925,507.5 C1005.4875,467.2375 1043.1625,476.0875 1127.5,507.5 C1205.1,536.4 1274.4875,602.15 1319.4375,652.8 " fill="none" id="TaskRepository-to-ManualTask" style="stroke:#A80036;stroke-width:1.25;"/><polygon fill="#A80036" points="1323.7125,657.65,1320.0199,645.9058,1319.578,652.963,1312.5207,652.521,1323.7125,657.65" style="stroke:#A80036;stroke-width:1.25;"/><text fill="#000000" font-family="sans-serif" font-size="16.25" lengthAdjust="spacing" textLength="41.25" x="840.625" y="476.8689">saves</text><text fill="#000000" font-family="sans-serif" font-size="16.25" lengthAdjust="spacing" textLength="8.75" x="787.2539" y="644.7326">1</text><text fill="#000000" font-family="sans-serif" font-size="16.25" lengthAdjust="spacing" textLength="6.25" x="1310.1623" y="644.4902">*</text><!--MD5=[88d27d11f2412006bad5b60b4e576218]
link ManualTask to Task--><path codeLine="113" d="M1413.625,657.8375 C1451.825,606.7375 1513.8,537.7125 1587.5,507.5 C1706.7625,458.6125 1763.8625,446.6875 1877.5,507.5 C1918.55,529.475 1949.7375,569.225 1972.2125,608.4125 " fill="none" id="ManualTask-to-Task" style="stroke:#A80036;stroke-width:1.25;"/><polygon fill="#A80036" points="1975.475,614.1875,1974.3041,601.9322,1972.4049,608.7435,1965.5937,606.8443,1975.475,614.1875" style="stroke:#A80036;stroke-width:1.25;"/><text fill="#000000" font-family="sans-serif" font-size="16.25" lengthAdjust="spacing" textLength="57.5" x="1688.75" y="476.8689">extends</text><!--MD5=[392f7804293287fa5662caa616132930]
link Task to Collaborator--><path codeLine="115" d="M2137.8125,719.375 C2158.1875,719.375 2180.2875,719.375 2203.35,719.375 " fill="none" id="Task-to-Collaborator" style="stroke:#A80036;stroke-width:1.25;"/><polygon fill="#A80036" points="2209.875,719.375,2198.625,714.375,2203.625,719.375,2198.625,724.375,2209.875,719.375" style="stroke:#A80036;stroke-width:1.25;"/><text fill="#000000" font-family="sans-serif" font-size="16.25" lengthAdjust="spacing" textLength="26.25" x="2160.625" y="711.2439">has</text><!--MD5=[9fb0c34e6207e9ffb529ff996fe74ca6]
link ManualTask to Form--><path codeLine="117" d="M1537.225,719.375 C1559.2,719.375 1581.4875,719.375 1602.7625,719.375 " fill="none" id="ManualTask-to-Form" style="stroke:#A80036;stroke-width:1.25;"/><polygon fill="#A80036" points="1609.325,719.375,1598.075,714.375,1603.075,719.375,1598.075,724.375,1609.325,719.375" style="stroke:#A80036;stroke-width:1.25;"/><text fill="#000000" font-family="sans-serif" font-size="16.25" lengthAdjust="spacing" textLength="26.25" x="1560" y="711.2439">has</text><!--MD5=[3130294204fc1117072ac2493fed51af]
@startuml
skinparam classAttributeIconSize 0

package "Presentation" #DDDDDD {
    class ConsultAssignedPendingTasksUI<<presentation>>{
    }
}


package "Application" #DDDDDD {
    class ConsultAssignedPendingTasksController<<application>>{
        + create()
        + getTasksOfCollaborator(collaborator)
        + getTasksOfCollaboratorByPriority(collaborator, priority)
        + getTasksOfCollaboratorBeforeFinishDate(collaborator, finishDate)
    }

    class OrderAssignedPendingTasksController<<application>>{
        + create()
        + orderTasksOfCollaboratorByPriority(tasks)
        + orderTasksOfCollaboratorByReversePriority(tasks)
        + orderTasksOfCollaboratorByReverseFinishDate(tasks)
    }
}


package "Domain" #DDDDDD {

    abstract class Task<<Entity>><<Root>>{
        - taskDescription
        - taskStatus
        - taskPriority
        - taskResult
        - collaborator
        +create(taskDescription, taskPriority)
        +assignCollaborator(collaborator)
    }

    class ManualTask<<Entity>>{
        - form
        - limitDate
        +create(taskDescription, taskPriority, limitDate, form)
    }

    class Collaborator<<Entity>><<Root>>{
        - mecanographicNumber
        - systemUser
        - manager
        - phoneNumber
        - birthDate
        - address
        - completeName
        - shortName
        - teams
        + create(systemUser, manager, phoneNumber, birthDate, address, completeName, shortName, mecanographicNumber)
        + addTeam(team)
        + removeTeam(team)
    }

    class Form<<Entity>><<Root>> {
        - name
        - formType
        - attributeList
        + create(name, formType, attributeList)
    }
}

package Persistence #DDDDDD {
    class PersistenceContext<<persistence>>{
        +repositories()
    }

    class AppSettings<<persistence>>{
        +instance()
        +getRepositoryFactory()
    }

    package Factory #DDDDDD {
        class RepositoryFactory<<factory>>{
            +create()
            +collaborators()
            +tasks()
            +teams()
            +forms()
    }
}

package "Repository" #DDDDDD {
    class TaskRepository<<repository>>{
        +create()
        +findAll()
        +save(Task)
    }

    interface TaskRepositoryInterface{

    }
}


ConsultAssignedPendingTasksUI ..> ConsultAssignedPendingTasksController
ConsultAssignedPendingTasksUI ..> OrderAssignedPendingTasksController
ConsultAssignedPendingTasksController ..> PersistenceContext

TaskRepository ..> TaskRepositoryInterface

AppSettings -> RepositoryFactory : creates
PersistenceContext -> AppSettings : implements

RepositoryFactory "1" -> "1" TaskRepository : has

TaskRepository "1" -> "*" ManualTask : saves

ManualTask -> Task : extends

Task -> Collaborator : has

ManualTask -> Form : has

@enduml

PlantUML version 1.2021.5(Sun Apr 25 12:20:28 BST 2021)
(GPL source distribution)
Java Runtime: OpenJDK Runtime Environment
JVM: OpenJDK 64-Bit Server VM
Default Encoding: Cp1252
Language: pt
Country: PT
--></g></svg>