<?xml version="1.0" encoding="UTF-8" standalone="no"?><svg xmlns="http://www.w3.org/2000/svg" xmlns:xlink="http://www.w3.org/1999/xlink" contentScriptType="application/ecmascript" contentStyleType="text/css" height="1081.25px" preserveAspectRatio="none" style="width:3126px;height:1081px;" version="1.1" viewBox="0 0 3126 1081" width="3126.25px" zoomAndPan="magnify"><defs><filter height="300%" id="f1if0ohapa8o6x" width="300%" x="-1" y="-1"><feGaussianBlur result="blurOut" stdDeviation="2.5"/><feColorMatrix in="blurOut" result="blurOut2" type="matrix" values="0 0 0 0 0 0 0 0 0 0 0 0 0 0 0 0 0 0 .4 0"/><feOffset dx="5.0" dy="5.0" in="blurOut2" result="blurOut3"/><feBlend in="SourceGraphic" in2="blurOut3" mode="normal"/></filter></defs><g><!--MD5=[8fd473fd151a2794da4f2c8684676405]
cluster Presentation--><polygon fill="#DDDDDD" filter="url(#f1if0ohapa8o6x)" points="58.75,7.5,178.75,7.5,187.5,37.0117,373.75,37.0117,373.75,167.5,58.75,167.5,58.75,7.5" style="stroke:#000000;stroke-width:1.875;"/><line style="stroke:#000000;stroke-width:1.875;" x1="58.75" x2="187.5" y1="37.0117" y2="37.0117"/><text fill="#000000" font-family="sans-serif" font-size="17.5" font-weight="bold" lengthAdjust="spacing" textLength="112.5" x="63.75" y="28.1665">Presentation</text><!--MD5=[d64883541e3d62e3241c4d12decf100d]
cluster Application--><polygon fill="#DDDDDD" filter="url(#f1if0ohapa8o6x)" points="20,208.75,125,208.75,133.75,238.2617,412.5,238.2617,412.5,455,20,455,20,208.75" style="stroke:#000000;stroke-width:1.875;"/><line style="stroke:#000000;stroke-width:1.875;" x1="20" x2="133.75" y1="238.2617" y2="238.2617"/><text fill="#000000" font-family="sans-serif" font-size="17.5" font-weight="bold" lengthAdjust="spacing" textLength="97.5" x="25" y="229.4165">Application</text><!--MD5=[121a8bf1197281ab89ed693fab589f94]
cluster Domain--><polygon fill="#DDDDDD" filter="url(#f1if0ohapa8o6x)" points="1155,517.5,1227.5,517.5,1236.25,547.0117,3105,547.0117,3105,903.75,1155,903.75,1155,517.5" style="stroke:#000000;stroke-width:1.875;"/><line style="stroke:#000000;stroke-width:1.875;" x1="1155" x2="1236.25" y1="547.0117" y2="547.0117"/><text fill="#000000" font-family="sans-serif" font-size="17.5" font-weight="bold" lengthAdjust="spacing" textLength="65" x="1160" y="538.1665">Domain</text><!--MD5=[bc6b40dadbf86ab6a0c8405a467a48af]
cluster Persistence--><polygon fill="#DDDDDD" filter="url(#f1if0ohapa8o6x)" points="108.75,532.5,221.25,532.5,230,562.0117,1125,562.0117,1125,1072.5,108.75,1072.5,108.75,532.5" style="stroke:#000000;stroke-width:1.875;"/><line style="stroke:#000000;stroke-width:1.875;" x1="108.75" x2="230" y1="562.0117" y2="562.0117"/><text fill="#000000" font-family="sans-serif" font-size="17.5" font-weight="bold" lengthAdjust="spacing" textLength="105" x="113.75" y="553.1665">Persistence</text><!--MD5=[0d5799440b3bfefd92b00abfcd2c79b9]
cluster Factory--><polygon fill="#DDDDDD" filter="url(#f1if0ohapa8o6x)" points="892.5,587.5,965,587.5,973.75,617.0117,1095,617.0117,1095,833.75,892.5,833.75,892.5,587.5" style="stroke:#000000;stroke-width:1.875;"/><line style="stroke:#000000;stroke-width:1.875;" x1="892.5" x2="973.75" y1="617.0117" y2="617.0117"/><text fill="#000000" font-family="sans-serif" font-size="17.5" font-weight="bold" lengthAdjust="spacing" textLength="65" x="897.5" y="608.1665">Factory</text><!--MD5=[71971f99a41bb66cf321ce46bb59f738]
cluster Repository--><polygon fill="#DDDDDD" filter="url(#f1if0ohapa8o6x)" points="615,604.375,717.5,604.375,726.25,633.8867,862.5,633.8867,862.5,1042.5,615,1042.5,615,604.375" style="stroke:#000000;stroke-width:1.875;"/><line style="stroke:#000000;stroke-width:1.875;" x1="615" x2="726.25" y1="633.8867" y2="633.8867"/><text fill="#000000" font-family="sans-serif" font-size="17.5" font-weight="bold" lengthAdjust="spacing" textLength="95" x="620" y="625.0415">Repository</text><!--MD5=[b838a554afdceeab34230a5c3a6aabf5]
class ConsultAssignedPendingTasksUI--><rect codeLine="4" fill="#FEFECE" filter="url(#f1if0ohapa8o6x)" height="70.2344" id="ConsultAssignedPendingTasksUI" style="stroke:#A80036;stroke-width:1.875;" width="273.75" x="79.375" y="77.5"/><ellipse cx="98.125" cy="102.6172" fill="#ADD1B2" rx="13.75" ry="13.75" style="stroke:#A80036;stroke-width:1.25;"/><path d="M100.625,98.2422 Q100.8789,97.6172 101.1719,97.3047 Q101.4648,96.9922 101.7969,96.9922 Q102.3828,96.9922 102.7539,97.3438 Q103.125,97.6953 103.125,98.5156 L103.125,100.4688 Q103.125,101.2891 102.7734,101.6406 Q102.4219,101.9922 101.875,101.9922 Q101.3867,101.9922 101.0742,101.7773 Q100.7617,101.5625 100.625,100.9961 Q100.5664,100.6055 100.3516,100.3906 Q99.9609,99.9805 99.2578,99.7461 Q98.5547,99.4922 97.8516,99.4922 Q96.9727,99.4922 96.2305,99.8438 Q95.5078,100.1953 94.9414,100.9766 Q94.375,101.7578 94.375,102.832 L94.375,103.9844 Q94.375,105.2734 95.4297,106.1328 Q96.4844,106.9922 98.3594,106.9922 Q99.4727,106.9922 100.2539,106.7383 Q100.7031,106.6016 101.2109,106.1523 Q101.543,105.8984 101.7188,105.8203 Q101.8945,105.7422 102.1094,105.7422 Q102.5195,105.7422 102.8125,106.0742 Q103.125,106.3867 103.125,106.8359 Q103.125,107.2656 102.6953,107.7734 Q102.0703,108.5156 101.0742,108.9258 Q99.7656,109.4922 98.1641,109.4922 Q96.2891,109.4922 94.7852,108.75 Q93.5742,108.1641 92.7148,106.8945 Q91.875,105.625 91.875,104.1211 L91.875,102.7539 Q91.875,101.1914 92.6172,99.8242 Q93.3789,98.457 94.6875,97.7344 Q96.0156,96.9922 97.5,96.9922 Q98.3984,96.9922 99.1797,97.3047 Q99.9609,97.6172 100.625,98.2422 Z " fill="#000000"/><text fill="#000000" font-family="sans-serif" font-size="15" font-style="italic" lengthAdjust="spacing" textLength="102.5" x="181.25" y="99.3213">«presentation»</text><text fill="#000000" font-family="sans-serif" font-size="15" lengthAdjust="spacing" textLength="233.75" x="115.625" y="118.1885">ConsultAssignedPendingTasksUI</text><line style="stroke:#A80036;stroke-width:1.875;" x1="80.625" x2="351.875" y1="127.7344" y2="127.7344"/><line style="stroke:#A80036;stroke-width:1.875;" x1="80.625" x2="351.875" y1="137.7344" y2="137.7344"/><!--MD5=[4c0d90daae2d1dd9a3233c16fe7a0fb2]
class ConsultAssignedPendingTasksController--><rect codeLine="10" fill="#FEFECE" filter="url(#f1if0ohapa8o6x)" height="156.709" id="ConsultAssignedPendingTasksController" style="stroke:#A80036;stroke-width:1.875;" width="352.5" x="40" y="278.75"/><ellipse cx="70.5625" cy="303.8672" fill="#ADD1B2" rx="13.75" ry="13.75" style="stroke:#A80036;stroke-width:1.25;"/><path d="M73.0625,299.4922 Q73.3164,298.8672 73.6094,298.5547 Q73.9023,298.2422 74.2344,298.2422 Q74.8203,298.2422 75.1914,298.5938 Q75.5625,298.9453 75.5625,299.7656 L75.5625,301.7188 Q75.5625,302.5391 75.2109,302.8906 Q74.8594,303.2422 74.3125,303.2422 Q73.8242,303.2422 73.5117,303.0273 Q73.1992,302.8125 73.0625,302.2461 Q73.0039,301.8555 72.7891,301.6406 Q72.3984,301.2305 71.6953,300.9961 Q70.9922,300.7422 70.2891,300.7422 Q69.4102,300.7422 68.668,301.0938 Q67.9453,301.4453 67.3789,302.2266 Q66.8125,303.0078 66.8125,304.082 L66.8125,305.2344 Q66.8125,306.5234 67.8672,307.3828 Q68.9219,308.2422 70.7969,308.2422 Q71.9102,308.2422 72.6914,307.9883 Q73.1406,307.8516 73.6484,307.4023 Q73.9805,307.1484 74.1563,307.0703 Q74.332,306.9922 74.5469,306.9922 Q74.957,306.9922 75.25,307.3242 Q75.5625,307.6367 75.5625,308.0859 Q75.5625,308.5156 75.1328,309.0234 Q74.5078,309.7656 73.5117,310.1758 Q72.2031,310.7422 70.6016,310.7422 Q68.7266,310.7422 67.2227,310 Q66.0117,309.4141 65.1523,308.1445 Q64.3125,306.875 64.3125,305.3711 L64.3125,304.0039 Q64.3125,302.4414 65.0547,301.0742 Q65.8164,299.707 67.125,298.9844 Q68.4531,298.2422 69.9375,298.2422 Q70.8359,298.2422 71.6172,298.5547 Q72.3984,298.8672 73.0625,299.4922 Z " fill="#000000"/><text fill="#000000" font-family="sans-serif" font-size="15" font-style="italic" lengthAdjust="spacing" textLength="92.5" x="187.5625" y="300.5713">«application»</text><text fill="#000000" font-family="sans-serif" font-size="15" lengthAdjust="spacing" textLength="286.25" x="90.6875" y="319.4385">ConsultAssignedPendingTasksController</text><line style="stroke:#A80036;stroke-width:1.875;" x1="41.25" x2="391.25" y1="328.9844" y2="328.9844"/><line style="stroke:#A80036;stroke-width:1.875;" x1="41.25" x2="391.25" y1="338.9844" y2="338.9844"/><text fill="#000000" font-family="sans-serif" font-size="13.75" lengthAdjust="spacing" textLength="56.25" x="47.5" y="358.2581">+create()</text><text fill="#000000" font-family="sans-serif" font-size="13.75" lengthAdjust="spacing" textLength="231.25" x="47.5" y="375.553">+getTasksOfCollaborator(collaborator)</text><text fill="#000000" font-family="sans-serif" font-size="13.75" lengthAdjust="spacing" textLength="281.25" x="47.5" y="392.8479">+getTasksOfCollaborator(collaborator, filterBy)</text><text fill="#000000" font-family="sans-serif" font-size="13.75" lengthAdjust="spacing" textLength="287.5" x="47.5" y="410.1428">+getTasksOfCollaborator(collaborator, orderBy)</text><text fill="#000000" font-family="sans-serif" font-size="13.75" lengthAdjust="spacing" textLength="337.5" x="47.5" y="427.4377">+getTasksOfCollaborator(collaborator, filterBy, orderBy)</text><!--MD5=[b34797a66dc35cbf1d65f7e3ca75530e]
class Task--><rect codeLine="22" fill="#FEFECE" filter="url(#f1if0ohapa8o6x)" height="210.166" id="Task" style="stroke:#A80036;stroke-width:1.875;" width="237.5" x="2047.5" y="630.625"/><ellipse cx="2135.9375" cy="665.1758" fill="#A9DCDF" rx="13.75" ry="13.75" style="stroke:#A80036;stroke-width:1.25;"/><path d="M2138.125,667.0508 L2134.0039,667.0508 L2133.457,668.3008 L2133.457,668.3008 L2134.043,668.3008 L2134.6875,669.082 L2134.6875,669.5508 L2134.6875,670.0195 L2134.043,670.8008 L2133.457,670.8008 L2131.0938,670.8008 L2130.332,670.8008 L2129.6875,670.0195 L2129.6875,669.5508 L2129.6875,669.082 L2130.332,668.3008 L2131.0938,668.3008 L2133.9844,660.8008 L2132.8906,660.8008 L2131.582,660.8008 L2130.9375,660.0195 L2130.9375,659.5508 L2130.9375,659.082 L2131.582,658.3008 L2132.8906,658.3008 L2137.4805,658.3008 L2140.8398,668.3008 L2141.543,668.3008 L2141.543,668.3008 L2142.1875,669.082 L2142.1875,669.5508 L2142.1875,670.0195 L2141.543,670.8008 L2140.8398,670.8008 L2138.4766,670.8008 L2137.832,670.8008 L2137.1875,670.0195 L2137.1875,669.5508 L2137.1875,669.082 L2137.832,668.3008 L2138.4766,668.3008 L2138.4766,668.3008 L2138.125,667.0508 Z M2137.4414,664.5508 L2135.9375,660.0781 L2134.6484,664.5508 L2137.4414,664.5508 Z " fill="#000000"/><text fill="#000000" font-family="sans-serif" font-size="15" font-style="italic" lengthAdjust="spacing" textLength="55" x="2159.0625" y="652.4463">«Entity»</text><text fill="#000000" font-family="sans-serif" font-size="15" font-style="italic" lengthAdjust="spacing" textLength="50" x="2161.5625" y="671.3135">«Root»</text><text fill="#000000" font-family="sans-serif" font-size="15" font-style="italic" lengthAdjust="spacing" textLength="33.75" x="2169.6875" y="690.1807">Task</text><line style="stroke:#A80036;stroke-width:1.875;" x1="2048.75" x2="2283.75" y1="699.7266" y2="699.7266"/><text fill="#000000" font-family="sans-serif" font-size="13.75" lengthAdjust="spacing" textLength="97.5" x="2055" y="719.0002">-taskDescription</text><text fill="#000000" font-family="sans-serif" font-size="13.75" lengthAdjust="spacing" textLength="68.75" x="2055" y="736.2952">-taskStatus</text><text fill="#000000" font-family="sans-serif" font-size="13.75" lengthAdjust="spacing" textLength="71.25" x="2055" y="753.5901">-taskPriority</text><text fill="#000000" font-family="sans-serif" font-size="13.75" lengthAdjust="spacing" textLength="67.5" x="2055" y="770.885">-taskResult</text><text fill="#000000" font-family="sans-serif" font-size="13.75" lengthAdjust="spacing" textLength="76.25" x="2055" y="788.1799">-collaborator</text><line style="stroke:#A80036;stroke-width:1.875;" x1="2048.75" x2="2283.75" y1="796.2012" y2="796.2012"/><text fill="#000000" font-family="sans-serif" font-size="13.75" lengthAdjust="spacing" textLength="222.5" x="2055" y="815.4749">+create(taskDescription, taskPriority)</text><text fill="#000000" font-family="sans-serif" font-size="13.75" lengthAdjust="spacing" textLength="201.25" x="2055" y="832.7698">+assignCollaborator(collaborator)</text><!--MD5=[743064f62b3390934ed7addf6a434293]
class ManualTask--><rect codeLine="32" fill="#FEFECE" filter="url(#f1if0ohapa8o6x)" height="122.1191" id="ManualTask" style="stroke:#A80036;stroke-width:1.875;" width="328.75" x="1355.625" y="674.375"/><ellipse cx="1472.8125" cy="699.4922" fill="#ADD1B2" rx="13.75" ry="13.75" style="stroke:#A80036;stroke-width:1.25;"/><path d="M1475.3125,695.1172 Q1475.5664,694.4922 1475.8594,694.1797 Q1476.1523,693.8672 1476.4844,693.8672 Q1477.0703,693.8672 1477.4414,694.2188 Q1477.8125,694.5703 1477.8125,695.3906 L1477.8125,697.3438 Q1477.8125,698.1641 1477.4609,698.5156 Q1477.1094,698.8672 1476.5625,698.8672 Q1476.0742,698.8672 1475.7617,698.6523 Q1475.4492,698.4375 1475.3125,697.8711 Q1475.2539,697.4805 1475.0391,697.2656 Q1474.6484,696.8555 1473.9453,696.6211 Q1473.2422,696.3672 1472.5391,696.3672 Q1471.6602,696.3672 1470.918,696.7188 Q1470.1953,697.0703 1469.6289,697.8516 Q1469.0625,698.6328 1469.0625,699.707 L1469.0625,700.8594 Q1469.0625,702.1484 1470.1172,703.0078 Q1471.1719,703.8672 1473.0469,703.8672 Q1474.1602,703.8672 1474.9414,703.6133 Q1475.3906,703.4766 1475.8984,703.0273 Q1476.2305,702.7734 1476.4063,702.6953 Q1476.582,702.6172 1476.7969,702.6172 Q1477.207,702.6172 1477.5,702.9492 Q1477.8125,703.2617 1477.8125,703.7109 Q1477.8125,704.1406 1477.3828,704.6484 Q1476.7578,705.3906 1475.7617,705.8008 Q1474.4531,706.3672 1472.8516,706.3672 Q1470.9766,706.3672 1469.4727,705.625 Q1468.2617,705.0391 1467.4023,703.7695 Q1466.5625,702.5 1466.5625,700.9961 L1466.5625,699.6289 Q1466.5625,698.0664 1467.3047,696.6992 Q1468.0664,695.332 1469.375,694.6094 Q1470.7031,693.8672 1472.1875,693.8672 Q1473.0859,693.8672 1473.8672,694.1797 Q1474.6484,694.4922 1475.3125,695.1172 Z " fill="#000000"/><text fill="#000000" font-family="sans-serif" font-size="15" font-style="italic" lengthAdjust="spacing" textLength="55" x="1512.8125" y="696.1963">«Entity»</text><text fill="#000000" font-family="sans-serif" font-size="15" lengthAdjust="spacing" textLength="83.75" x="1498.4375" y="715.0635">ManualTask</text><line style="stroke:#A80036;stroke-width:1.875;" x1="1356.875" x2="1683.125" y1="724.6094" y2="724.6094"/><text fill="#000000" font-family="sans-serif" font-size="13.75" lengthAdjust="spacing" textLength="32.5" x="1363.125" y="743.8831">-form</text><text fill="#000000" font-family="sans-serif" font-size="13.75" lengthAdjust="spacing" textLength="53.75" x="1363.125" y="761.178">-limitDate</text><line style="stroke:#A80036;stroke-width:1.875;" x1="1356.875" x2="1683.125" y1="769.1992" y2="769.1992"/><text fill="#000000" font-family="sans-serif" font-size="13.75" lengthAdjust="spacing" textLength="313.75" x="1363.125" y="788.4729">+create(taskDescription, taskPriority, limitDate, form)</text><!--MD5=[f483d6e5de34a60207b28a5563be5e8b]
class Collaborator--><rect codeLine="38" fill="#FEFECE" filter="url(#f1if0ohapa8o6x)" height="296.6406" id="Collaborator" style="stroke:#A80036;stroke-width:1.875;" width="727.5" x="2357.5" y="587.5"/><ellipse cx="2673.4375" cy="622.0508" fill="#ADD1B2" rx="13.75" ry="13.75" style="stroke:#A80036;stroke-width:1.25;"/><path d="M2675.9375,617.6758 Q2676.1914,617.0508 2676.4844,616.7383 Q2676.7773,616.4258 2677.1094,616.4258 Q2677.6953,616.4258 2678.0664,616.7773 Q2678.4375,617.1289 2678.4375,617.9492 L2678.4375,619.9023 Q2678.4375,620.7227 2678.0859,621.0742 Q2677.7344,621.4258 2677.1875,621.4258 Q2676.6992,621.4258 2676.3867,621.2109 Q2676.0742,620.9961 2675.9375,620.4297 Q2675.8789,620.0391 2675.6641,619.8242 Q2675.2734,619.4141 2674.5703,619.1797 Q2673.8672,618.9258 2673.1641,618.9258 Q2672.2852,618.9258 2671.543,619.2773 Q2670.8203,619.6289 2670.2539,620.4102 Q2669.6875,621.1914 2669.6875,622.2656 L2669.6875,623.418 Q2669.6875,624.707 2670.7422,625.5664 Q2671.7969,626.4258 2673.6719,626.4258 Q2674.7852,626.4258 2675.5664,626.1719 Q2676.0156,626.0352 2676.5234,625.5859 Q2676.8555,625.332 2677.0313,625.2539 Q2677.207,625.1758 2677.4219,625.1758 Q2677.832,625.1758 2678.125,625.5078 Q2678.4375,625.8203 2678.4375,626.2695 Q2678.4375,626.6992 2678.0078,627.207 Q2677.3828,627.9492 2676.3867,628.3594 Q2675.0781,628.9258 2673.4766,628.9258 Q2671.6016,628.9258 2670.0977,628.1836 Q2668.8867,627.5977 2668.0273,626.3281 Q2667.1875,625.0586 2667.1875,623.5547 L2667.1875,622.1875 Q2667.1875,620.625 2667.9297,619.2578 Q2668.6914,617.8906 2670,617.168 Q2671.3281,616.4258 2672.8125,616.4258 Q2673.7109,616.4258 2674.4922,616.7383 Q2675.2734,617.0508 2675.9375,617.6758 Z " fill="#000000"/><text fill="#000000" font-family="sans-serif" font-size="15" font-style="italic" lengthAdjust="spacing" textLength="55" x="2714.0625" y="609.3213">«Entity»</text><text fill="#000000" font-family="sans-serif" font-size="15" font-style="italic" lengthAdjust="spacing" textLength="50" x="2716.5625" y="628.1885">«Root»</text><text fill="#000000" font-family="sans-serif" font-size="15" lengthAdjust="spacing" textLength="85" x="2699.0625" y="647.0557">Collaborator</text><line style="stroke:#A80036;stroke-width:1.875;" x1="2358.75" x2="3083.75" y1="656.6016" y2="656.6016"/><text fill="#000000" font-family="sans-serif" font-size="13.75" lengthAdjust="spacing" textLength="143.75" x="2365" y="675.8752">-mecanographicNumber</text><text fill="#000000" font-family="sans-serif" font-size="13.75" lengthAdjust="spacing" textLength="77.5" x="2365" y="693.1702">-systemUser</text><text fill="#000000" font-family="sans-serif" font-size="13.75" lengthAdjust="spacing" textLength="57.5" x="2365" y="710.4651">-manager</text><text fill="#000000" font-family="sans-serif" font-size="13.75" lengthAdjust="spacing" textLength="88.75" x="2365" y="727.76">-phoneNumber</text><text fill="#000000" font-family="sans-serif" font-size="13.75" lengthAdjust="spacing" textLength="58.75" x="2365" y="745.0549">-birthDate</text><text fill="#000000" font-family="sans-serif" font-size="13.75" lengthAdjust="spacing" textLength="55" x="2365" y="762.3499">-address</text><text fill="#000000" font-family="sans-serif" font-size="13.75" lengthAdjust="spacing" textLength="92.5" x="2365" y="779.6448">-completeName</text><text fill="#000000" font-family="sans-serif" font-size="13.75" lengthAdjust="spacing" textLength="70" x="2365" y="796.9397">-shortName</text><text fill="#000000" font-family="sans-serif" font-size="13.75" lengthAdjust="spacing" textLength="41.25" x="2365" y="814.2346">-teams</text><line style="stroke:#A80036;stroke-width:1.875;" x1="2358.75" x2="3083.75" y1="822.2559" y2="822.2559"/><text fill="#000000" font-family="sans-serif" font-size="13.75" lengthAdjust="spacing" textLength="712.5" x="2365" y="841.5295">+create(systemUser, manager, phoneNumber, birthDate, address, completeName, shortName, mecanographicNumber)</text><text fill="#000000" font-family="sans-serif" font-size="13.75" lengthAdjust="spacing" textLength="101.25" x="2365" y="858.8245">+addTeam(team)</text><text fill="#000000" font-family="sans-serif" font-size="13.75" lengthAdjust="spacing" textLength="123.75" x="2365" y="876.1194">+removeTeam(team)</text><!--MD5=[6f29f313cd4199edbf91b9ce3a4faa98]
class Form--><rect codeLine="53" fill="#FEFECE" filter="url(#f1if0ohapa8o6x)" height="158.2813" id="Form" style="stroke:#A80036;stroke-width:1.875;" width="246.25" x="1756.875" y="656.25"/><ellipse cx="1849.6875" cy="690.8008" fill="#ADD1B2" rx="13.75" ry="13.75" style="stroke:#A80036;stroke-width:1.25;"/><path d="M1852.1875,686.4258 Q1852.4414,685.8008 1852.7344,685.4883 Q1853.0273,685.1758 1853.3594,685.1758 Q1853.9453,685.1758 1854.3164,685.5273 Q1854.6875,685.8789 1854.6875,686.6992 L1854.6875,688.6523 Q1854.6875,689.4727 1854.3359,689.8242 Q1853.9844,690.1758 1853.4375,690.1758 Q1852.9492,690.1758 1852.6367,689.9609 Q1852.3242,689.7461 1852.1875,689.1797 Q1852.1289,688.7891 1851.9141,688.5742 Q1851.5234,688.1641 1850.8203,687.9297 Q1850.1172,687.6758 1849.4141,687.6758 Q1848.5352,687.6758 1847.793,688.0273 Q1847.0703,688.3789 1846.5039,689.1602 Q1845.9375,689.9414 1845.9375,691.0156 L1845.9375,692.168 Q1845.9375,693.457 1846.9922,694.3164 Q1848.0469,695.1758 1849.9219,695.1758 Q1851.0352,695.1758 1851.8164,694.9219 Q1852.2656,694.7852 1852.7734,694.3359 Q1853.1055,694.082 1853.2813,694.0039 Q1853.457,693.9258 1853.6719,693.9258 Q1854.082,693.9258 1854.375,694.2578 Q1854.6875,694.5703 1854.6875,695.0195 Q1854.6875,695.4492 1854.2578,695.957 Q1853.6328,696.6992 1852.6367,697.1094 Q1851.3281,697.6758 1849.7266,697.6758 Q1847.8516,697.6758 1846.3477,696.9336 Q1845.1367,696.3477 1844.2773,695.0781 Q1843.4375,693.8086 1843.4375,692.3047 L1843.4375,690.9375 Q1843.4375,689.375 1844.1797,688.0078 Q1844.9414,686.6406 1846.25,685.918 Q1847.5781,685.1758 1849.0625,685.1758 Q1849.9609,685.1758 1850.7422,685.4883 Q1851.5234,685.8008 1852.1875,686.4258 Z " fill="#000000"/><text fill="#000000" font-family="sans-serif" font-size="15" font-style="italic" lengthAdjust="spacing" textLength="55" x="1872.8125" y="678.0713">«Entity»</text><text fill="#000000" font-family="sans-serif" font-size="15" font-style="italic" lengthAdjust="spacing" textLength="50" x="1875.3125" y="696.9385">«Root»</text><text fill="#000000" font-family="sans-serif" font-size="15" lengthAdjust="spacing" textLength="36.25" x="1882.1875" y="715.8057">Form</text><line style="stroke:#A80036;stroke-width:1.875;" x1="1758.125" x2="2001.875" y1="725.3516" y2="725.3516"/><text fill="#000000" font-family="sans-serif" font-size="13.75" lengthAdjust="spacing" textLength="37.5" x="1764.375" y="744.6252">-name</text><text fill="#000000" font-family="sans-serif" font-size="13.75" lengthAdjust="spacing" textLength="62.5" x="1764.375" y="761.9202">-formType</text><text fill="#000000" font-family="sans-serif" font-size="13.75" lengthAdjust="spacing" textLength="75" x="1764.375" y="779.2151">-attributeList</text><line style="stroke:#A80036;stroke-width:1.875;" x1="1758.125" x2="2001.875" y1="787.2363" y2="787.2363"/><text fill="#000000" font-family="sans-serif" font-size="13.75" lengthAdjust="spacing" textLength="231.25" x="1764.375" y="806.51">+create(name, formType, attributeList)</text><!--MD5=[7b09ca46ac6b3be0cc6114491501aeb7]
class TaskFOFields--><rect codeLine="60" fill="#FEFECE" filter="url(#f1if0ohapa8o6x)" height="70.2344" id="TaskFOFields" style="stroke:#A80036;stroke-width:1.875;" width="136.25" x="1175.625" y="700.625"/><ellipse cx="1194.375" cy="725.7422" fill="#EB937F" rx="13.75" ry="13.75" style="stroke:#A80036;stroke-width:1.25;"/><path d="M1192.5,726.9922 L1192.5,729.4922 L1197.5,729.4922 L1197.5,728.2422 L1197.5,727.6367 L1198.2813,726.9922 L1198.75,726.9922 L1199.2188,726.9922 L1200,727.6367 L1200,728.2422 L1200,731.9922 L1190,731.9922 L1189.3945,731.9922 L1188.75,731.2109 L1188.75,730.7422 L1188.75,730.2734 L1189.3945,729.4922 L1190,729.4922 L1190,729.4922 L1190,721.9922 L1190,721.9922 L1189.3945,721.9922 L1188.75,721.2109 L1188.75,720.7422 L1188.75,720.2734 L1189.3945,719.4922 L1190,719.4922 L1200,719.4922 L1200,723.2422 L1200,723.8477 L1199.2188,724.4922 L1198.75,724.4922 L1198.2813,724.4922 L1197.5,723.8477 L1197.5,723.2422 L1197.5,721.9922 L1192.5,721.9922 L1192.5,724.4922 L1193.75,724.4922 L1193.75,723.8867 L1193.75,723.8867 L1194.5313,723.2422 L1195,723.2422 L1195.4688,723.2422 L1196.25,723.8867 L1196.25,724.4922 L1196.25,726.9922 L1196.25,727.5977 L1195.4688,728.2422 L1195.4688,728.2422 L1195,728.2422 L1194.5313,728.2422 L1193.75,727.5977 L1193.75,727.5977 L1193.75,726.9922 L1192.5,726.9922 Z " fill="#000000"/><text fill="#000000" font-family="sans-serif" font-size="15" font-style="italic" lengthAdjust="spacing" textLength="57.5" x="1231.25" y="722.4463">«enum»</text><text fill="#000000" font-family="sans-serif" font-size="15" lengthAdjust="spacing" textLength="96.25" x="1211.875" y="741.3135">TaskFOFields</text><line style="stroke:#A80036;stroke-width:1.875;" x1="1176.875" x2="1310.625" y1="750.8594" y2="750.8594"/><line style="stroke:#A80036;stroke-width:1.875;" x1="1176.875" x2="1310.625" y1="760.8594" y2="760.8594"/><!--MD5=[e8c189551b7885b999ad7cefb30fc2a3]
class PersistenceContext--><rect codeLine="65" fill="#FEFECE" filter="url(#f1if0ohapa8o6x)" height="87.5293" id="PersistenceContext" style="stroke:#A80036;stroke-width:1.875;" width="173.75" x="129.375" y="691.875"/><ellipse cx="148.125" cy="716.9922" fill="#ADD1B2" rx="13.75" ry="13.75" style="stroke:#A80036;stroke-width:1.25;"/><path d="M150.625,712.6172 Q150.8789,711.9922 151.1719,711.6797 Q151.4648,711.3672 151.7969,711.3672 Q152.3828,711.3672 152.7539,711.7188 Q153.125,712.0703 153.125,712.8906 L153.125,714.8438 Q153.125,715.6641 152.7734,716.0156 Q152.4219,716.3672 151.875,716.3672 Q151.3867,716.3672 151.0742,716.1523 Q150.7617,715.9375 150.625,715.3711 Q150.5664,714.9805 150.3516,714.7656 Q149.9609,714.3555 149.2578,714.1211 Q148.5547,713.8672 147.8516,713.8672 Q146.9727,713.8672 146.2305,714.2188 Q145.5078,714.5703 144.9414,715.3516 Q144.375,716.1328 144.375,717.207 L144.375,718.3594 Q144.375,719.6484 145.4297,720.5078 Q146.4844,721.3672 148.3594,721.3672 Q149.4727,721.3672 150.2539,721.1133 Q150.7031,720.9766 151.2109,720.5273 Q151.543,720.2734 151.7188,720.1953 Q151.8945,720.1172 152.1094,720.1172 Q152.5195,720.1172 152.8125,720.4492 Q153.125,720.7617 153.125,721.2109 Q153.125,721.6406 152.6953,722.1484 Q152.0703,722.8906 151.0742,723.3008 Q149.7656,723.8672 148.1641,723.8672 Q146.2891,723.8672 144.7852,723.125 Q143.5742,722.5391 142.7148,721.2695 Q141.875,720 141.875,718.4961 L141.875,717.1289 Q141.875,715.5664 142.6172,714.1992 Q143.3789,712.832 144.6875,712.1094 Q146.0156,711.3672 147.5,711.3672 Q148.3984,711.3672 149.1797,711.6797 Q149.9609,711.9922 150.625,712.6172 Z " fill="#000000"/><text fill="#000000" font-family="sans-serif" font-size="15" font-style="italic" lengthAdjust="spacing" textLength="96.25" x="184.375" y="713.6963">«persistence»</text><text fill="#000000" font-family="sans-serif" font-size="15" lengthAdjust="spacing" textLength="133.75" x="165.625" y="732.5635">PersistenceContext</text><line style="stroke:#A80036;stroke-width:1.875;" x1="130.625" x2="301.875" y1="742.1094" y2="742.1094"/><line style="stroke:#A80036;stroke-width:1.875;" x1="130.625" x2="301.875" y1="752.1094" y2="752.1094"/><text fill="#000000" font-family="sans-serif" font-size="13.75" lengthAdjust="spacing" textLength="88.75" x="136.875" y="771.3831">+repositories()</text><!--MD5=[b8e4c95865208c934bfcfda4f90bf50c]
class AppSettings--><rect codeLine="69" fill="#FEFECE" filter="url(#f1if0ohapa8o6x)" height="104.8242" id="AppSettings" style="stroke:#A80036;stroke-width:1.875;" width="162.5" x="432.5" y="683.125"/><ellipse cx="465.3125" cy="708.2422" fill="#ADD1B2" rx="13.75" ry="13.75" style="stroke:#A80036;stroke-width:1.25;"/><path d="M467.8125,703.8672 Q468.0664,703.2422 468.3594,702.9297 Q468.6523,702.6172 468.9844,702.6172 Q469.5703,702.6172 469.9414,702.9688 Q470.3125,703.3203 470.3125,704.1406 L470.3125,706.0938 Q470.3125,706.9141 469.9609,707.2656 Q469.6094,707.6172 469.0625,707.6172 Q468.5742,707.6172 468.2617,707.4023 Q467.9492,707.1875 467.8125,706.6211 Q467.7539,706.2305 467.5391,706.0156 Q467.1484,705.6055 466.4453,705.3711 Q465.7422,705.1172 465.0391,705.1172 Q464.1602,705.1172 463.418,705.4688 Q462.6953,705.8203 462.1289,706.6016 Q461.5625,707.3828 461.5625,708.457 L461.5625,709.6094 Q461.5625,710.8984 462.6172,711.7578 Q463.6719,712.6172 465.5469,712.6172 Q466.6602,712.6172 467.4414,712.3633 Q467.8906,712.2266 468.3984,711.7773 Q468.7305,711.5234 468.9063,711.4453 Q469.082,711.3672 469.2969,711.3672 Q469.707,711.3672 470,711.6992 Q470.3125,712.0117 470.3125,712.4609 Q470.3125,712.8906 469.8828,713.3984 Q469.2578,714.1406 468.2617,714.5508 Q466.9531,715.1172 465.3516,715.1172 Q463.4766,715.1172 461.9727,714.375 Q460.7617,713.7891 459.9023,712.5195 Q459.0625,711.25 459.0625,709.7461 L459.0625,708.3789 Q459.0625,706.8164 459.8047,705.4492 Q460.5664,704.082 461.875,703.3594 Q463.2031,702.6172 464.6875,702.6172 Q465.5859,702.6172 466.3672,702.9297 Q467.1484,703.2422 467.8125,703.8672 Z " fill="#000000"/><text fill="#000000" font-family="sans-serif" font-size="15" font-style="italic" lengthAdjust="spacing" textLength="96.25" x="483.4375" y="704.9463">«persistence»</text><text fill="#000000" font-family="sans-serif" font-size="15" lengthAdjust="spacing" textLength="82.5" x="490.3125" y="723.8135">AppSettings</text><line style="stroke:#A80036;stroke-width:1.875;" x1="433.75" x2="593.75" y1="733.3594" y2="733.3594"/><line style="stroke:#A80036;stroke-width:1.875;" x1="433.75" x2="593.75" y1="743.3594" y2="743.3594"/><text fill="#000000" font-family="sans-serif" font-size="13.75" lengthAdjust="spacing" textLength="68.75" x="440" y="762.6331">+instance()</text><text fill="#000000" font-family="sans-serif" font-size="13.75" lengthAdjust="spacing" textLength="147.5" x="440" y="779.928">+getRepositoryFactory()</text><!--MD5=[48590afff58a68e2fcba47824d6f8a11]
class RepositoryFactory--><rect codeLine="75" fill="#FEFECE" filter="url(#f1if0ohapa8o6x)" height="156.709" id="RepositoryFactory" style="stroke:#A80036;stroke-width:1.875;" width="162.5" x="912.5" y="657.5"/><ellipse cx="931.25" cy="682.6172" fill="#ADD1B2" rx="13.75" ry="13.75" style="stroke:#A80036;stroke-width:1.25;"/><path d="M933.75,678.2422 Q934.0039,677.6172 934.2969,677.3047 Q934.5898,676.9922 934.9219,676.9922 Q935.5078,676.9922 935.8789,677.3438 Q936.25,677.6953 936.25,678.5156 L936.25,680.4688 Q936.25,681.2891 935.8984,681.6406 Q935.5469,681.9922 935,681.9922 Q934.5117,681.9922 934.1992,681.7773 Q933.8867,681.5625 933.75,680.9961 Q933.6914,680.6055 933.4766,680.3906 Q933.0859,679.9805 932.3828,679.7461 Q931.6797,679.4922 930.9766,679.4922 Q930.0977,679.4922 929.3555,679.8438 Q928.6328,680.1953 928.0664,680.9766 Q927.5,681.7578 927.5,682.832 L927.5,683.9844 Q927.5,685.2734 928.5547,686.1328 Q929.6094,686.9922 931.4844,686.9922 Q932.5977,686.9922 933.3789,686.7383 Q933.8281,686.6016 934.3359,686.1523 Q934.668,685.8984 934.8438,685.8203 Q935.0195,685.7422 935.2344,685.7422 Q935.6445,685.7422 935.9375,686.0742 Q936.25,686.3867 936.25,686.8359 Q936.25,687.2656 935.8203,687.7734 Q935.1953,688.5156 934.1992,688.9258 Q932.8906,689.4922 931.2891,689.4922 Q929.4141,689.4922 927.9102,688.75 Q926.6992,688.1641 925.8398,686.8945 Q925,685.625 925,684.1211 L925,682.7539 Q925,681.1914 925.7422,679.8242 Q926.5039,678.457 927.8125,677.7344 Q929.1406,676.9922 930.625,676.9922 Q931.5234,676.9922 932.3047,677.3047 Q933.0859,677.6172 933.75,678.2422 Z " fill="#000000"/><text fill="#000000" font-family="sans-serif" font-size="15" font-style="italic" lengthAdjust="spacing" textLength="62.5" x="978.75" y="679.3213">«factory»</text><text fill="#000000" font-family="sans-serif" font-size="15" lengthAdjust="spacing" textLength="122.5" x="948.75" y="698.1885">RepositoryFactory</text><line style="stroke:#A80036;stroke-width:1.875;" x1="913.75" x2="1073.75" y1="707.7344" y2="707.7344"/><line style="stroke:#A80036;stroke-width:1.875;" x1="913.75" x2="1073.75" y1="717.7344" y2="717.7344"/><text fill="#000000" font-family="sans-serif" font-size="13.75" lengthAdjust="spacing" textLength="56.25" x="920" y="737.0081">+create()</text><text fill="#000000" font-family="sans-serif" font-size="13.75" lengthAdjust="spacing" textLength="96.25" x="920" y="754.303">+collaborators()</text><text fill="#000000" font-family="sans-serif" font-size="13.75" lengthAdjust="spacing" textLength="50" x="920" y="771.5979">+tasks()</text><text fill="#000000" font-family="sans-serif" font-size="13.75" lengthAdjust="spacing" textLength="53.75" x="920" y="788.8928">+teams()</text><text fill="#000000" font-family="sans-serif" font-size="13.75" lengthAdjust="spacing" textLength="52.5" x="920" y="806.1877">+forms()</text><!--MD5=[2d00e6e09a1cfec9653155ee4d91c399]
class TaskRepository--><rect codeLine="85" fill="#FEFECE" filter="url(#f1if0ohapa8o6x)" height="122.1191" id="TaskRepository" style="stroke:#A80036;stroke-width:1.875;" width="147.5" x="660" y="674.375"/><ellipse cx="678.75" cy="699.4922" fill="#ADD1B2" rx="13.75" ry="13.75" style="stroke:#A80036;stroke-width:1.25;"/><path d="M681.25,695.1172 Q681.5039,694.4922 681.7969,694.1797 Q682.0898,693.8672 682.4219,693.8672 Q683.0078,693.8672 683.3789,694.2188 Q683.75,694.5703 683.75,695.3906 L683.75,697.3438 Q683.75,698.1641 683.3984,698.5156 Q683.0469,698.8672 682.5,698.8672 Q682.0117,698.8672 681.6992,698.6523 Q681.3867,698.4375 681.25,697.8711 Q681.1914,697.4805 680.9766,697.2656 Q680.5859,696.8555 679.8828,696.6211 Q679.1797,696.3672 678.4766,696.3672 Q677.5977,696.3672 676.8555,696.7188 Q676.1328,697.0703 675.5664,697.8516 Q675,698.6328 675,699.707 L675,700.8594 Q675,702.1484 676.0547,703.0078 Q677.1094,703.8672 678.9844,703.8672 Q680.0977,703.8672 680.8789,703.6133 Q681.3281,703.4766 681.8359,703.0273 Q682.168,702.7734 682.3438,702.6953 Q682.5195,702.6172 682.7344,702.6172 Q683.1445,702.6172 683.4375,702.9492 Q683.75,703.2617 683.75,703.7109 Q683.75,704.1406 683.3203,704.6484 Q682.6953,705.3906 681.6992,705.8008 Q680.3906,706.3672 678.7891,706.3672 Q676.9141,706.3672 675.4102,705.625 Q674.1992,705.0391 673.3398,703.7695 Q672.5,702.5 672.5,700.9961 L672.5,699.6289 Q672.5,698.0664 673.2422,696.6992 Q674.0039,695.332 675.3125,694.6094 Q676.6406,693.8672 678.125,693.8672 Q679.0234,693.8672 679.8047,694.1797 Q680.5859,694.4922 681.25,695.1172 Z " fill="#000000"/><text fill="#000000" font-family="sans-serif" font-size="15" font-style="italic" lengthAdjust="spacing" textLength="85" x="707.5" y="696.1963">«repository»</text><text fill="#000000" font-family="sans-serif" font-size="15" lengthAdjust="spacing" textLength="107.5" x="696.25" y="715.0635">TaskRepository</text><line style="stroke:#A80036;stroke-width:1.875;" x1="661.25" x2="806.25" y1="724.6094" y2="724.6094"/><line style="stroke:#A80036;stroke-width:1.875;" x1="661.25" x2="806.25" y1="734.6094" y2="734.6094"/><text fill="#000000" font-family="sans-serif" font-size="13.75" lengthAdjust="spacing" textLength="56.25" x="667.5" y="753.8831">+create()</text><text fill="#000000" font-family="sans-serif" font-size="13.75" lengthAdjust="spacing" textLength="55" x="667.5" y="771.178">+findAll()</text><text fill="#000000" font-family="sans-serif" font-size="13.75" lengthAdjust="spacing" textLength="76.25" x="667.5" y="788.4729">+save(Task)</text><!--MD5=[702d91e0c1d43f6bc0e67f9c84584b9d]
class TaskRepositoryInterface--><rect codeLine="91" fill="#FEFECE" filter="url(#f1if0ohapa8o6x)" height="60" id="TaskRepositoryInterface" style="stroke:#A80036;stroke-width:1.875;" width="207.5" x="635" y="962.5"/><ellipse cx="653.75" cy="982.5" fill="#B4A7E5" rx="13.75" ry="13.75" style="stroke:#A80036;stroke-width:1.25;"/><path d="M655,978.75 L655,986.25 L657.5,986.25 L658.1055,986.25 L658.75,987.0313 L658.75,987.5 L658.75,987.9688 L658.1055,988.75 L657.5,988.75 L650,988.75 L649.3945,988.75 L648.75,987.9688 L648.75,987.5 L648.75,987.0313 L649.3945,986.25 L650,986.25 L652.5,986.25 L652.5,978.75 L650,978.75 L649.3945,978.75 L648.75,977.9688 L648.75,977.5 L648.75,977.0313 L649.3945,976.25 L650,976.25 L657.5,976.25 L658.1055,976.25 L658.75,977.0313 L658.75,977.5 L658.75,977.9688 L658.1055,978.75 L657.5,978.75 L655,978.75 Z " fill="#000000"/><text fill="#000000" font-family="sans-serif" font-size="15" font-style="italic" lengthAdjust="spacing" textLength="167.5" x="671.25" y="988.6377">TaskRepositoryInterface</text><line style="stroke:#A80036;stroke-width:1.875;" x1="636.25" x2="841.25" y1="1002.5" y2="1002.5"/><line style="stroke:#A80036;stroke-width:1.875;" x1="636.25" x2="841.25" y1="1012.5" y2="1012.5"/><!--MD5=[42468204f4d2597fbf20c9587ed04068]
link ConsultAssignedPendingTasksUI to ConsultAssignedPendingTasksController--><path codeLine="97" d="M216.25,147.8875 C216.25,179.9 216.25,229.075 216.25,271.5375 " fill="none" id="ConsultAssignedPendingTasksUI-to-ConsultAssignedPendingTasksController" style="stroke:#A80036;stroke-width:1.25;stroke-dasharray:7.0,7.0;"/><polygon fill="#A80036" points="216.25,278.2875,221.25,267.0375,216.25,272.0375,211.25,267.0375,216.25,278.2875" style="stroke:#A80036;stroke-width:1.25;"/><!--MD5=[4b3b704fd3dc4ac0d765b82f010b880c]
link ConsultAssignedPendingTasksController to PersistenceContext--><path codeLine="98" d="M216.25,435.175 C216.25,510 216.25,621.3625 216.25,685 " fill="none" id="ConsultAssignedPendingTasksController-to-PersistenceContext" style="stroke:#A80036;stroke-width:1.25;stroke-dasharray:7.0,7.0;"/><polygon fill="#A80036" points="216.25,691.3875,221.25,680.1375,216.25,685.1375,211.25,680.1375,216.25,691.3875" style="stroke:#A80036;stroke-width:1.25;"/><!--MD5=[a0adbb4c25de6475d732008007e9b736]
link TaskRepository to TaskRepositoryInterface--><path codeLine="100" d="M734.9375,797.1625 C735.9125,846.6625 737.25,915.075 738.0625,956.0625 " fill="none" id="TaskRepository-to-TaskRepositoryInterface" style="stroke:#A80036;stroke-width:1.25;stroke-dasharray:7.0,7.0;"/><polygon fill="#A80036" points="738.1875,962.4,742.9615,951.0523,738.0625,956.1512,732.9635,951.2522,738.1875,962.4" style="stroke:#A80036;stroke-width:1.25;"/><!--MD5=[d66efb439816738ddd3e9d5fff4bf3a7]
link AppSettings to RepositoryFactory--><path codeLine="102" d="M522.6125,682.7875 C534.225,632.1375 559.9875,558.425 615,523.75 C708.05,465.0875 766.4,470.2375 862.5,523.75 C911.3375,550.95 944.3125,604.6625 965,651.2 " fill="none" id="AppSettings-to-RepositoryFactory" style="stroke:#A80036;stroke-width:1.25;"/><polygon fill="#A80036" points="967.7125,657.4125,967.7982,645.1017,965.2139,651.6837,958.632,649.0994,967.7125,657.4125" style="stroke:#A80036;stroke-width:1.25;"/><text fill="#000000" font-family="sans-serif" font-size="16.25" lengthAdjust="spacing" textLength="53.75" x="858.125" y="493.1189">creates</text><!--MD5=[27fe1c91fe18bafc5695938053528609]
link PersistenceContext to AppSettings--><path codeLine="103" d="M303.5,735.625 C341.9125,735.625 386.9625,735.625 425.4875,735.625 " fill="none" id="PersistenceContext-to-AppSettings" style="stroke:#A80036;stroke-width:1.25;"/><polygon fill="#A80036" points="432.1125,735.625,420.8625,730.625,425.8625,735.625,420.8625,740.625,432.1125,735.625" style="stroke:#A80036;stroke-width:1.25;"/><text fill="#000000" font-family="sans-serif" font-size="16.25" lengthAdjust="spacing" textLength="83.75" x="325.9375" y="727.4939">implements</text><!--MD5=[8982f41bad9004a09ffb6c14ad72077a]
link RepositoryFactory to TaskRepository--><path codeLine="105" d="M912.45,735.625 C881.125,735.625 845.4,735.625 814.15,735.625 " fill="none" id="RepositoryFactory-to-TaskRepository" style="stroke:#A80036;stroke-width:1.25;"/><polygon fill="#A80036" points="807.5625,735.625,818.8125,740.625,813.8125,735.625,818.8125,730.625,807.5625,735.625" style="stroke:#A80036;stroke-width:1.25;"/><text fill="#000000" font-family="sans-serif" font-size="16.25" lengthAdjust="spacing" textLength="26.25" x="846.875" y="727.4939">has</text><text fill="#000000" font-family="sans-serif" font-size="16.25" lengthAdjust="spacing" textLength="8.75" x="893.7938" y="731.3365">1</text><text fill="#000000" font-family="sans-serif" font-size="16.25" lengthAdjust="spacing" textLength="8.75" x="817.5803" y="731.2652">1</text><!--MD5=[6ae80cee9da4d88bb64be8d0688f8e42]
link TaskRepository to ManualTask--><path codeLine="107" d="M760.375,674.1125 C786.0625,623.3875 830.225,554.9125 892.5,523.75 C980.1875,479.875 1244.4125,483.3375 1333.75,523.75 C1399.1875,553.35 1450.775,618.575 1482.9125,668.8875 " fill="none" id="TaskRepository-to-ManualTask" style="stroke:#A80036;stroke-width:1.25;"/><polygon fill="#A80036" points="1486.3375,674.325,1484.556,662.1435,1482.9994,669.0411,1476.1018,667.4845,1486.3375,674.325" style="stroke:#A80036;stroke-width:1.25;"/><text fill="#000000" font-family="sans-serif" font-size="16.25" lengthAdjust="spacing" textLength="41.25" x="808.125" y="493.1189">saves</text><text fill="#000000" font-family="sans-serif" font-size="16.25" lengthAdjust="spacing" textLength="8.75" x="754.7539" y="660.9826">1</text><text fill="#000000" font-family="sans-serif" font-size="16.25" lengthAdjust="spacing" textLength="6.25" x="1474.6843" y="660.782">*</text><!--MD5=[88d27d11f2412006bad5b60b4e576218]
link ManualTask to Task--><path codeLine="109" d="M1561.125,674.0875 C1599.325,622.9875 1661.3,553.9625 1735,523.75 C1854.2625,474.8625 1911.3625,462.9375 2025,523.75 C2066.05,545.725 2097.2375,585.475 2119.7125,624.6625 " fill="none" id="ManualTask-to-Task" style="stroke:#A80036;stroke-width:1.25;"/><polygon fill="#A80036" points="2122.975,630.4375,2121.8041,618.1822,2119.9049,624.9935,2113.0937,623.0943,2122.975,630.4375" style="stroke:#A80036;stroke-width:1.25;"/><text fill="#000000" font-family="sans-serif" font-size="16.25" lengthAdjust="spacing" textLength="57.5" x="1836.25" y="493.1189">extends</text><!--MD5=[392f7804293287fa5662caa616132930]
link Task to Collaborator--><path codeLine="111" d="M2285.3125,735.625 C2305.6875,735.625 2327.7875,735.625 2350.85,735.625 " fill="none" id="Task-to-Collaborator" style="stroke:#A80036;stroke-width:1.25;"/><polygon fill="#A80036" points="2357.375,735.625,2346.125,730.625,2351.125,735.625,2346.125,740.625,2357.375,735.625" style="stroke:#A80036;stroke-width:1.25;"/><text fill="#000000" font-family="sans-serif" font-size="16.25" lengthAdjust="spacing" textLength="26.25" x="2308.125" y="727.4939">has</text><!--MD5=[9fb0c34e6207e9ffb529ff996fe74ca6]
link ManualTask to Form--><path codeLine="113" d="M1684.725,735.625 C1706.7,735.625 1728.9875,735.625 1750.2625,735.625 " fill="none" id="ManualTask-to-Form" style="stroke:#A80036;stroke-width:1.25;"/><polygon fill="#A80036" points="1756.825,735.625,1745.575,730.625,1750.575,735.625,1745.575,740.625,1756.825,735.625" style="stroke:#A80036;stroke-width:1.25;"/><text fill="#000000" font-family="sans-serif" font-size="16.25" lengthAdjust="spacing" textLength="26.25" x="1707.5" y="727.4939">has</text><!--MD5=[479e9dfa392fa30e172ef747a7ab1239]
@startuml
skinparam classAttributeIconSize 0

package "Presentation" #DDDDDD {
    class ConsultAssignedPendingTasksUI<<presentation>>{
    }
}


package "Application" #DDDDDD {
    class ConsultAssignedPendingTasksController<<application>>{
        + create()
        + getTasksOfCollaborator(collaborator)
        + getTasksOfCollaborator(collaborator, filterBy)
        + getTasksOfCollaborator(collaborator, orderBy)
        + getTasksOfCollaborator(collaborator, filterBy, orderBy)
    }
}


package "Domain" #DDDDDD {

    abstract class Task<<Entity>><<Root>>{
        - taskDescription
        - taskStatus
        - taskPriority
        - taskResult
        - collaborator
        +create(taskDescription, taskPriority)
        +assignCollaborator(collaborator)
    }

    class ManualTask<<Entity>>{
        - form
        - limitDate
        +create(taskDescription, taskPriority, limitDate, form)
    }

    class Collaborator<<Entity>><<Root>>{
        - mecanographicNumber
        - systemUser
        - manager
        - phoneNumber
        - birthDate
        - address
        - completeName
        - shortName
        - teams
        + create(systemUser, manager, phoneNumber, birthDate, address, completeName, shortName, mecanographicNumber)
        + addTeam(team)
        + removeTeam(team)
    }

    class Form<<Entity>><<Root>> {
        - name
        - formType
        - attributeList
        + create(name, formType, attributeList)
    }

    enum TaskFOFields<<enum>> {
    }
}

package Persistence #DDDDDD {
    class PersistenceContext<<persistence>>{
        +repositories()
    }

    class AppSettings<<persistence>>{
        +instance()
        +getRepositoryFactory()
    }

    package Factory #DDDDDD {
        class RepositoryFactory<<factory>>{
            +create()
            +collaborators()
            +tasks()
            +teams()
            +forms()
    }
}

package "Repository" #DDDDDD {
    class TaskRepository<<repository>>{
        +create()
        +findAll()
        +save(Task)
    }

    interface TaskRepositoryInterface{

    }
}


ConsultAssignedPendingTasksUI ..> ConsultAssignedPendingTasksController
ConsultAssignedPendingTasksController ..> PersistenceContext

TaskRepository ..> TaskRepositoryInterface

AppSettings -> RepositoryFactory : creates
PersistenceContext -> AppSettings : implements

RepositoryFactory "1" -> "1" TaskRepository : has

TaskRepository "1" -> "*" ManualTask : saves

ManualTask -> Task : extends

Task -> Collaborator : has

ManualTask -> Form : has

@enduml

PlantUML version 1.2021.5(Sun Apr 25 12:20:28 BST 2021)
(GPL source distribution)
Java Runtime: OpenJDK Runtime Environment
JVM: OpenJDK 64-Bit Server VM
Default Encoding: Cp1252
Language: pt
Country: PT
--></g></svg>