<?xml version="1.0" encoding="UTF-8" standalone="no"?><svg xmlns="http://www.w3.org/2000/svg" xmlns:xlink="http://www.w3.org/1999/xlink" contentScriptType="application/ecmascript" contentStyleType="text/css" height="853px" preserveAspectRatio="none" style="width:762px;height:853px;" version="1.1" viewBox="0 0 762 853" width="762px" zoomAndPan="magnify"><defs><filter height="300%" id="fv3etvb4ns5rr" width="300%" x="-1" y="-1"><feGaussianBlur result="blurOut" stdDeviation="2.0"/><feColorMatrix in="blurOut" result="blurOut2" type="matrix" values="0 0 0 0 0 0 0 0 0 0 0 0 0 0 0 0 0 0 .4 0"/><feOffset dx="4.0" dy="4.0" in="blurOut2" result="blurOut3"/><feBlend in="SourceGraphic" in2="blurOut3" mode="normal"/></filter></defs><g><rect fill="#FFFFFF" filter="url(#fv3etvb4ns5rr)" height="728.7891" style="stroke:#A80036;stroke-width:1.0;" width="10" x="119" y="99.6094"/><rect fill="#FFFFFF" filter="url(#fv3etvb4ns5rr)" height="30.3516" style="stroke:#A80036;stroke-width:1.0;" width="10" x="691" y="121.9609"/><rect fill="#FFFFFF" filter="url(#fv3etvb4ns5rr)" height="55.7031" style="stroke:#A80036;stroke-width:1.0;" width="10" x="691" y="182.6641"/><rect fill="#FFFFFF" filter="url(#fv3etvb4ns5rr)" height="62.7031" style="stroke:#A80036;stroke-width:1.0;" width="10" x="691" y="268.7188"/><rect fill="#FFFFFF" filter="url(#fv3etvb4ns5rr)" height="30.3516" style="stroke:#A80036;stroke-width:1.0;" width="10" x="691" y="361.7734"/><rect fill="#FFFFFF" filter="url(#fv3etvb4ns5rr)" height="55.7031" style="stroke:#A80036;stroke-width:1.0;" width="10" x="691" y="422.4766"/><rect fill="#FFFFFF" filter="url(#fv3etvb4ns5rr)" height="30.3516" style="stroke:#A80036;stroke-width:1.0;" width="10" x="691" y="508.5313"/><rect fill="#FFFFFF" filter="url(#fv3etvb4ns5rr)" height="30.3516" style="stroke:#A80036;stroke-width:1.0;" width="10" x="691" y="569.2344"/><rect fill="#FFFFFF" filter="url(#fv3etvb4ns5rr)" height="37.3516" style="stroke:#A80036;stroke-width:1.0;" width="10" x="691" y="629.9375"/><rect fill="#FFFFFF" filter="url(#fv3etvb4ns5rr)" height="53.7031" style="stroke:#A80036;stroke-width:1.0;" width="10" x="691" y="697.6406"/><rect fill="#FFFFFF" filter="url(#fv3etvb4ns5rr)" height="46.7031" style="stroke:#A80036;stroke-width:1.0;" width="10" x="691" y="781.6953"/><rect fill="#FFFFFF" filter="url(#fv3etvb4ns5rr)" height="79.0547" style="stroke:#000000;stroke-width:2.0;" width="718" x="20" y="197.6641"/><rect fill="#FFFFFF" filter="url(#fv3etvb4ns5rr)" height="414.9219" style="stroke:#000000;stroke-width:2.0;" width="738" x="10" y="290.7188"/><rect fill="#FFFFFF" filter="url(#fv3etvb4ns5rr)" height="200.4609" style="stroke:#000000;stroke-width:2.0;" width="718" x="20" y="437.4766"/><line style="stroke:#A80036;stroke-width:1.0;stroke-dasharray:5.0,5.0;" x1="124" x2="124" y1="89.6094" y2="846.3984"/><line style="stroke:#A80036;stroke-width:1.0;stroke-dasharray:5.0,5.0;" x1="696" x2="696" y1="89.6094" y2="846.3984"/><text fill="#000000" font-family="sans-serif" font-size="14" lengthAdjust="spacing" textLength="182" x="30" y="86.5332">Help Desk Services Manager</text><ellipse cx="124" cy="15" fill="#FEFECE" filter="url(#fv3etvb4ns5rr)" rx="8" ry="8" style="stroke:#A80036;stroke-width:2.0;"/><path d="M124,23 L124,50 M111,31 L137,31 M124,50 L111,65 M124,50 L137,65 " fill="none" filter="url(#fv3etvb4ns5rr)" style="stroke:#A80036;stroke-width:2.0;"/><rect fill="#FEFECE" filter="url(#fv3etvb4ns5rr)" height="31.6094" style="stroke:#A80036;stroke-width:1.5;" width="60" x="664" y="53"/><text fill="#000000" font-family="sans-serif" font-size="14" lengthAdjust="spacing" textLength="46" x="671" y="74.5332">System</text><rect fill="#FFFFFF" filter="url(#fv3etvb4ns5rr)" height="728.7891" style="stroke:#A80036;stroke-width:1.0;" width="10" x="119" y="99.6094"/><rect fill="#FFFFFF" filter="url(#fv3etvb4ns5rr)" height="30.3516" style="stroke:#A80036;stroke-width:1.0;" width="10" x="691" y="121.9609"/><rect fill="#FFFFFF" filter="url(#fv3etvb4ns5rr)" height="55.7031" style="stroke:#A80036;stroke-width:1.0;" width="10" x="691" y="182.6641"/><rect fill="#FFFFFF" filter="url(#fv3etvb4ns5rr)" height="62.7031" style="stroke:#A80036;stroke-width:1.0;" width="10" x="691" y="268.7188"/><rect fill="#FFFFFF" filter="url(#fv3etvb4ns5rr)" height="30.3516" style="stroke:#A80036;stroke-width:1.0;" width="10" x="691" y="361.7734"/><rect fill="#FFFFFF" filter="url(#fv3etvb4ns5rr)" height="55.7031" style="stroke:#A80036;stroke-width:1.0;" width="10" x="691" y="422.4766"/><rect fill="#FFFFFF" filter="url(#fv3etvb4ns5rr)" height="30.3516" style="stroke:#A80036;stroke-width:1.0;" width="10" x="691" y="508.5313"/><rect fill="#FFFFFF" filter="url(#fv3etvb4ns5rr)" height="30.3516" style="stroke:#A80036;stroke-width:1.0;" width="10" x="691" y="569.2344"/><rect fill="#FFFFFF" filter="url(#fv3etvb4ns5rr)" height="37.3516" style="stroke:#A80036;stroke-width:1.0;" width="10" x="691" y="629.9375"/><rect fill="#FFFFFF" filter="url(#fv3etvb4ns5rr)" height="53.7031" style="stroke:#A80036;stroke-width:1.0;" width="10" x="691" y="697.6406"/><rect fill="#FFFFFF" filter="url(#fv3etvb4ns5rr)" height="46.7031" style="stroke:#A80036;stroke-width:1.0;" width="10" x="691" y="781.6953"/><polygon fill="#A80036" points="679,117.9609,689,121.9609,679,125.9609,683,121.9609" style="stroke:#A80036;stroke-width:1.0;"/><line style="stroke:#A80036;stroke-width:1.0;" x1="129" x2="685" y1="121.9609" y2="121.9609"/><text fill="#000000" font-family="sans-serif" font-size="13" font-weight="bold" lengthAdjust="spacing" textLength="7" x="136" y="117.1045">1</text><text fill="#000000" font-family="sans-serif" font-size="13" lengthAdjust="spacing" textLength="333" x="147" y="117.1045">initiates the request to add/update a field in a service draft</text><polygon fill="#A80036" points="140,148.3125,130,152.3125,140,156.3125,136,152.3125" style="stroke:#A80036;stroke-width:1.0;"/><line style="stroke:#A80036;stroke-width:1.0;" x1="134" x2="695" y1="152.3125" y2="152.3125"/><text fill="#000000" font-family="sans-serif" font-size="13" font-weight="bold" lengthAdjust="spacing" textLength="7" x="146" y="147.4561">2</text><text fill="#000000" font-family="sans-serif" font-size="13" lengthAdjust="spacing" textLength="279" x="157" y="147.4561">asks if the user pretends to use an existing draft</text><polygon fill="#A80036" points="679,178.6641,689,182.6641,679,186.6641,683,182.6641" style="stroke:#A80036;stroke-width:1.0;"/><line style="stroke:#A80036;stroke-width:1.0;" x1="129" x2="685" y1="182.6641" y2="182.6641"/><text fill="#000000" font-family="sans-serif" font-size="13" font-weight="bold" lengthAdjust="spacing" textLength="7" x="136" y="177.8076">3</text><text fill="#000000" font-family="sans-serif" font-size="13" lengthAdjust="spacing" textLength="53" x="147" y="177.8076">responds</text><path d="M20,197.6641 L81,197.6641 L81,205.6641 L71,215.6641 L20,215.6641 L20,197.6641 " fill="#EEEEEE" style="stroke:#000000;stroke-width:1.0;"/><rect fill="none" height="79.0547" style="stroke:#000000;stroke-width:2.0;" width="718" x="20" y="197.6641"/><text fill="#000000" font-family="sans-serif" font-size="13" font-weight="bold" lengthAdjust="spacing" textLength="16" x="35" y="212.1592">alt</text><text fill="#000000" font-family="sans-serif" font-size="11" font-weight="bold" lengthAdjust="spacing" textLength="249" x="96" y="211.083">[if the user pretends to use an existing draft]</text><polygon fill="#A80036" points="140,234.3672,130,238.3672,140,242.3672,136,238.3672" style="stroke:#A80036;stroke-width:1.0;"/><line style="stroke:#A80036;stroke-width:1.0;" x1="134" x2="695" y1="238.3672" y2="238.3672"/><text fill="#000000" font-family="sans-serif" font-size="13" font-weight="bold" lengthAdjust="spacing" textLength="7" x="146" y="233.5107">4</text><text fill="#000000" font-family="sans-serif" font-size="13" lengthAdjust="spacing" textLength="331" x="157" y="233.5107">presents the draft list and asks the user to choose a draft</text><polygon fill="#A80036" points="679,264.7188,689,268.7188,679,272.7188,683,268.7188" style="stroke:#A80036;stroke-width:1.0;"/><line style="stroke:#A80036;stroke-width:1.0;" x1="129" x2="685" y1="268.7188" y2="268.7188"/><text fill="#000000" font-family="sans-serif" font-size="13" font-weight="bold" lengthAdjust="spacing" textLength="7" x="136" y="263.8623">5</text><text fill="#000000" font-family="sans-serif" font-size="13" lengthAdjust="spacing" textLength="89" x="147" y="263.8623">chooses a draft</text><path d="M10,290.7188 L83,290.7188 L83,298.7188 L73,308.7188 L10,308.7188 L10,290.7188 " fill="#EEEEEE" style="stroke:#000000;stroke-width:1.0;"/><rect fill="none" height="414.9219" style="stroke:#000000;stroke-width:2.0;" width="738" x="10" y="290.7188"/><text fill="#000000" font-family="sans-serif" font-size="13" font-weight="bold" lengthAdjust="spacing" textLength="28" x="25" y="305.2139">loop</text><text fill="#000000" font-family="sans-serif" font-size="11" font-weight="bold" lengthAdjust="spacing" textLength="264" x="98" y="304.1377">[until the user doesn't want to add more forms]</text><polygon fill="#A80036" points="140,327.4219,130,331.4219,140,335.4219,136,331.4219" style="stroke:#A80036;stroke-width:1.0;"/><line style="stroke:#A80036;stroke-width:1.0;" x1="134" x2="695" y1="331.4219" y2="331.4219"/><text fill="#000000" font-family="sans-serif" font-size="13" font-weight="bold" lengthAdjust="spacing" textLength="7" x="146" y="326.5654">6</text><text fill="#000000" font-family="sans-serif" font-size="13" lengthAdjust="spacing" textLength="248" x="157" y="326.5654">requests the user to insert the form's name</text><polygon fill="#A80036" points="679,357.7734,689,361.7734,679,365.7734,683,361.7734" style="stroke:#A80036;stroke-width:1.0;"/><line style="stroke:#A80036;stroke-width:1.0;" x1="129" x2="685" y1="361.7734" y2="361.7734"/><text fill="#000000" font-family="sans-serif" font-size="13" font-weight="bold" lengthAdjust="spacing" textLength="7" x="136" y="356.917">7</text><text fill="#000000" font-family="sans-serif" font-size="13" lengthAdjust="spacing" textLength="135" x="147" y="356.917">inserts the form's name</text><polygon fill="#A80036" points="140,388.125,130,392.125,140,396.125,136,392.125" style="stroke:#A80036;stroke-width:1.0;"/><line style="stroke:#A80036;stroke-width:1.0;" x1="134" x2="695" y1="392.125" y2="392.125"/><text fill="#000000" font-family="sans-serif" font-size="13" font-weight="bold" lengthAdjust="spacing" textLength="7" x="146" y="387.2686">8</text><text fill="#000000" font-family="sans-serif" font-size="13" lengthAdjust="spacing" textLength="190" x="157" y="387.2686">presents the available form types</text><polygon fill="#A80036" points="679,418.4766,689,422.4766,679,426.4766,683,422.4766" style="stroke:#A80036;stroke-width:1.0;"/><line style="stroke:#A80036;stroke-width:1.0;" x1="129" x2="685" y1="422.4766" y2="422.4766"/><text fill="#000000" font-family="sans-serif" font-size="13" font-weight="bold" lengthAdjust="spacing" textLength="7" x="136" y="417.6201">9</text><text fill="#000000" font-family="sans-serif" font-size="13" lengthAdjust="spacing" textLength="111" x="147" y="417.6201">selects a form type</text><path d="M20,437.4766 L93,437.4766 L93,445.4766 L83,455.4766 L20,455.4766 L20,437.4766 " fill="#EEEEEE" style="stroke:#000000;stroke-width:1.0;"/><rect fill="none" height="200.4609" style="stroke:#000000;stroke-width:2.0;" width="718" x="20" y="437.4766"/><text fill="#000000" font-family="sans-serif" font-size="13" font-weight="bold" lengthAdjust="spacing" textLength="28" x="35" y="451.9717">loop</text><text fill="#000000" font-family="sans-serif" font-size="11" font-weight="bold" lengthAdjust="spacing" textLength="264" x="108" y="450.8955">[until the user doesn't want to add more forms]</text><polygon fill="#A80036" points="140,474.1797,130,478.1797,140,482.1797,136,478.1797" style="stroke:#A80036;stroke-width:1.0;"/><line style="stroke:#A80036;stroke-width:1.0;" x1="134" x2="695" y1="478.1797" y2="478.1797"/><text fill="#000000" font-family="sans-serif" font-size="13" font-weight="bold" lengthAdjust="spacing" textLength="14" x="146" y="473.3232">10</text><text fill="#000000" font-family="sans-serif" font-size="13" lengthAdjust="spacing" textLength="520" x="164" y="473.3232">requests the user to insert the attribute's data (name, label, description, regex, scriptPath)</text><polygon fill="#A80036" points="679,504.5313,689,508.5313,679,512.5313,683,508.5313" style="stroke:#A80036;stroke-width:1.0;"/><line style="stroke:#A80036;stroke-width:1.0;" x1="129" x2="685" y1="508.5313" y2="508.5313"/><text fill="#000000" font-family="sans-serif" font-size="13" font-weight="bold" lengthAdjust="spacing" textLength="14" x="136" y="503.6748">11</text><text fill="#000000" font-family="sans-serif" font-size="13" lengthAdjust="spacing" textLength="90" x="154" y="503.6748">inserts the data</text><polygon fill="#A80036" points="140,534.8828,130,538.8828,140,542.8828,136,538.8828" style="stroke:#A80036;stroke-width:1.0;"/><line style="stroke:#A80036;stroke-width:1.0;" x1="134" x2="695" y1="538.8828" y2="538.8828"/><text fill="#000000" font-family="sans-serif" font-size="13" font-weight="bold" lengthAdjust="spacing" textLength="14" x="146" y="534.0264">12</text><text fill="#000000" font-family="sans-serif" font-size="13" lengthAdjust="spacing" textLength="190" x="164" y="534.0264">presents the available data types</text><polygon fill="#A80036" points="679,565.2344,689,569.2344,679,573.2344,683,569.2344" style="stroke:#A80036;stroke-width:1.0;"/><line style="stroke:#A80036;stroke-width:1.0;" x1="129" x2="685" y1="569.2344" y2="569.2344"/><text fill="#000000" font-family="sans-serif" font-size="13" font-weight="bold" lengthAdjust="spacing" textLength="14" x="136" y="564.3779">13</text><text fill="#000000" font-family="sans-serif" font-size="13" lengthAdjust="spacing" textLength="129" x="154" y="564.3779">selects the data types</text><polygon fill="#A80036" points="140,595.5859,130,599.5859,140,603.5859,136,599.5859" style="stroke:#A80036;stroke-width:1.0;"/><line style="stroke:#A80036;stroke-width:1.0;" x1="134" x2="695" y1="599.5859" y2="599.5859"/><text fill="#000000" font-family="sans-serif" font-size="13" font-weight="bold" lengthAdjust="spacing" textLength="14" x="146" y="594.7295">14</text><text fill="#000000" font-family="sans-serif" font-size="13" lengthAdjust="spacing" textLength="319" x="164" y="594.7295">asks if there is more attribute to add to the current form</text><polygon fill="#A80036" points="679,625.9375,689,629.9375,679,633.9375,683,629.9375" style="stroke:#A80036;stroke-width:1.0;"/><line style="stroke:#A80036;stroke-width:1.0;" x1="129" x2="685" y1="629.9375" y2="629.9375"/><text fill="#000000" font-family="sans-serif" font-size="13" font-weight="bold" lengthAdjust="spacing" textLength="14" x="136" y="625.0811">15</text><text fill="#000000" font-family="sans-serif" font-size="13" lengthAdjust="spacing" textLength="53" x="154" y="625.0811">responds</text><polygon fill="#A80036" points="140,663.2891,130,667.2891,140,671.2891,136,667.2891" style="stroke:#A80036;stroke-width:1.0;"/><line style="stroke:#A80036;stroke-width:1.0;" x1="134" x2="695" y1="667.2891" y2="667.2891"/><text fill="#000000" font-family="sans-serif" font-size="13" font-weight="bold" lengthAdjust="spacing" textLength="14" x="146" y="662.4326">16</text><text fill="#000000" font-family="sans-serif" font-size="13" lengthAdjust="spacing" textLength="304" x="164" y="662.4326">asks if there is more forms to add to the current draft</text><polygon fill="#A80036" points="679,693.6406,689,697.6406,679,701.6406,683,697.6406" style="stroke:#A80036;stroke-width:1.0;"/><line style="stroke:#A80036;stroke-width:1.0;" x1="129" x2="685" y1="697.6406" y2="697.6406"/><text fill="#000000" font-family="sans-serif" font-size="13" font-weight="bold" lengthAdjust="spacing" textLength="14" x="136" y="692.7842">17</text><text fill="#000000" font-family="sans-serif" font-size="13" lengthAdjust="spacing" textLength="53" x="154" y="692.7842">responds</text><polygon fill="#A80036" points="140,747.3438,130,751.3438,140,755.3438,136,751.3438" style="stroke:#A80036;stroke-width:1.0;"/><line style="stroke:#A80036;stroke-width:1.0;" x1="134" x2="695" y1="751.3438" y2="751.3438"/><text fill="#000000" font-family="sans-serif" font-size="13" font-weight="bold" lengthAdjust="spacing" textLength="14" x="146" y="738.3115">18</text><text fill="#000000" font-family="sans-serif" font-size="13" lengthAdjust="spacing" textLength="174" x="164" y="730.1357">validates, presents the current</text><text fill="#000000" font-family="sans-serif" font-size="13" lengthAdjust="spacing" textLength="277" x="164" y="746.4873">information in the draft and asks for confirmation</text><polygon fill="#A80036" points="679,777.6953,689,781.6953,679,785.6953,683,781.6953" style="stroke:#A80036;stroke-width:1.0;"/><line style="stroke:#A80036;stroke-width:1.0;" x1="129" x2="685" y1="781.6953" y2="781.6953"/><text fill="#000000" font-family="sans-serif" font-size="13" font-weight="bold" lengthAdjust="spacing" textLength="14" x="136" y="776.8389">19</text><text fill="#000000" font-family="sans-serif" font-size="13" lengthAdjust="spacing" textLength="49" x="154" y="776.8389">confirms</text><polygon fill="#A80036" points="135,824.3984,125,828.3984,135,832.3984,131,828.3984" style="stroke:#A80036;stroke-width:1.0;"/><line style="stroke:#A80036;stroke-width:1.0;" x1="129" x2="695" y1="828.3984" y2="828.3984"/><text fill="#000000" font-family="sans-serif" font-size="13" font-weight="bold" lengthAdjust="spacing" textLength="14" x="141" y="815.3662">20</text><text fill="#000000" font-family="sans-serif" font-size="13" lengthAdjust="spacing" textLength="208" x="159" y="807.1904">registers the draft in the persistence</text><text fill="#000000" font-family="sans-serif" font-size="13" lengthAdjust="spacing" textLength="249" x="163" y="823.542">and informs of the success of the operation</text><!--MD5=[bd34530171375503fc780da7462fcf33]
@startuml
autonumber
hide footbox

actor "Help Desk Services Manager" as HSM
participant "System" as SYST

activate HSM

HSM -> SYST : initiates the request to add/update a field in a service draft
activate SYST

SYST -> HSM : asks if the user pretends to use an existing draft
deactivate SYST

HSM -> SYST : responds
activate SYST

alt if the user pretends to use an existing draft

SYST -> HSM : presents the draft list and asks the user to choose a draft
deactivate SYST

HSM -> SYST : chooses a draft
activate SYST
end

loop until the user doesn't want to add more forms
SYST -> HSM : requests the user to insert the form's name
deactivate SYST

HSM -> SYST : inserts the form's name
activate SYST

SYST -> HSM : presents the available form types
deactivate SYST

HSM -> SYST : selects a form type
activate SYST

loop until the user doesn't want to add more forms
SYST -> HSM : requests the user to insert the attribute's data (name, label, description, regex, scriptPath)
deactivate SYST

HSM -> SYST : inserts the data
activate SYST

SYST -> HSM : presents the available data types
deactivate SYST

HSM -> SYST : selects the data types
activate SYST

SYST -> HSM : asks if there is more attribute to add to the current form
deactivate SYST

HSM -> SYST : responds
activate SYST
end

SYST -> HSM : asks if there is more forms to add to the current draft
deactivate SYST

HSM -> SYST : responds
activate SYST
end

SYST -> HSM : validates, presents the current \ninformation in the draft and asks for confirmation
deactivate SYST

HSM -> SYST : confirms
activate SYST

SYST -> HSM : registers the draft in the persistence\n and informs of the success of the operation
deactivate SYST
deactivate HSM

@enduml

PlantUML version 1.2021.5(Sun Apr 25 12:20:28 BST 2021)
(GPL source distribution)
Java Runtime: OpenJDK Runtime Environment
JVM: Dynamic Code Evolution 64-Bit Server VM
Default Encoding: Cp1252
Language: pt
Country: PT
--></g></svg>