<?xml version="1.0" encoding="UTF-8" standalone="no"?><svg xmlns="http://www.w3.org/2000/svg" xmlns:xlink="http://www.w3.org/1999/xlink" contentScriptType="application/ecmascript" contentStyleType="text/css" height="1072px" preserveAspectRatio="none" style="width:3562px;height:1072px;background:#FFFFFF;" version="1.1" viewBox="0 0 3562 1072" width="3562px" zoomAndPan="magnify"><defs><filter height="300%" id="fg7bi05ekmza2" width="300%" x="-1" y="-1"><feGaussianBlur result="blurOut" stdDeviation="2.0"/><feColorMatrix in="blurOut" result="blurOut2" type="matrix" values="0 0 0 0 0 0 0 0 0 0 0 0 0 0 0 0 0 0 .4 0"/><feOffset dx="4.0" dy="4.0" in="blurOut2" result="blurOut3"/><feBlend in="SourceGraphic" in2="blurOut3" mode="normal"/></filter></defs><g><rect fill="#FFFFFF" filter="url(#fg7bi05ekmza2)" height="929.125" style="stroke:#A80036;stroke-width:1.0;" width="10" x="254" y="118.5703"/><rect fill="#FFFFFF" filter="url(#fg7bi05ekmza2)" height="91.0547" style="stroke:#A80036;stroke-width:1.0;" width="10" x="402" y="148.9219"/><rect fill="#FFFFFF" filter="url(#fg7bi05ekmza2)" height="30.3516" style="stroke:#A80036;stroke-width:1.0;" width="10" x="512" y="179.2734"/><rect fill="#FFFFFF" filter="url(#fg7bi05ekmza2)" height="30.3516" style="stroke:#A80036;stroke-width:1.0;" width="10" x="618" y="295.6797"/><rect fill="#FFFFFF" filter="url(#fg7bi05ekmza2)" height="30.3516" style="stroke:#A80036;stroke-width:1.0;" width="10" x="751.5" y="356.3828"/><rect fill="#FFFFFF" filter="url(#fg7bi05ekmza2)" height="30.3516" style="stroke:#A80036;stroke-width:1.0;" width="10" x="920.5" y="633.5781"/><rect fill="#FFFFFF" filter="url(#fg7bi05ekmza2)" height="54.2188" style="stroke:#A80036;stroke-width:1.0;" width="10" x="1092" y="452.4375"/><rect fill="#FFFFFF" filter="url(#fg7bi05ekmza2)" height="54.2188" style="stroke:#A80036;stroke-width:1.0;" width="10" x="1266" y="729.6328"/><rect fill="#FFFFFF" filter="url(#fg7bi05ekmza2)" height="30.3516" style="stroke:#A80036;stroke-width:1.0;" width="10" x="1795" y="570.875"/><rect fill="#FFFFFF" filter="url(#fg7bi05ekmza2)" height="30.3516" style="stroke:#A80036;stroke-width:1.0;" width="10" x="1795" y="848.0703"/><rect fill="#FFFFFF" filter="url(#fg7bi05ekmza2)" height="30.3516" style="stroke:#A80036;stroke-width:1.0;" width="10" x="1990.5" y="986.9922"/><rect fill="#FFFFFF" filter="url(#fg7bi05ekmza2)" height="491.6875" style="stroke:#000000;stroke-width:2.0;" width="1754" x="149" y="401.7344"/><rect fill="#FFFFFF" height="284.1953" style="stroke:none;stroke-width:1.0;" width="1754" x="149" y="609.2266"/><rect fill="#FFFFFF" filter="url(#fg7bi05ekmza2)" height="207.4922" style="stroke:#000000;stroke-width:2.0;" width="1734" x="159" y="678.9297"/><line style="stroke:#A80036;stroke-width:1.0;stroke-dasharray:5.0,5.0;" x1="259" x2="259" y1="86.2188" y2="1065.6953"/><line style="stroke:#A80036;stroke-width:1.0;stroke-dasharray:5.0,5.0;" x1="407" x2="407" y1="86.2188" y2="1065.6953"/><line style="stroke:#A80036;stroke-width:1.0;stroke-dasharray:5.0,5.0;" x1="517" x2="517" y1="86.2188" y2="1065.6953"/><line style="stroke:#A80036;stroke-width:1.0;stroke-dasharray:5.0,5.0;" x1="623" x2="623" y1="86.2188" y2="1065.6953"/><line style="stroke:#A80036;stroke-width:1.0;stroke-dasharray:5.0,5.0;" x1="756" x2="756" y1="86.2188" y2="1065.6953"/><line style="stroke:#A80036;stroke-width:1.0;stroke-dasharray:5.0,5.0;" x1="925" x2="925" y1="86.2188" y2="1065.6953"/><line style="stroke:#A80036;stroke-width:1.0;stroke-dasharray:5.0,5.0;" x1="1097" x2="1097" y1="462.1953" y2="1065.6953"/><line style="stroke:#A80036;stroke-width:1.0;stroke-dasharray:5.0,5.0;" x1="1271" x2="1271" y1="739.3906" y2="1065.6953"/><line style="stroke:#A80036;stroke-width:1.0;stroke-dasharray:5.0,5.0;" x1="1493" x2="1493" y1="803.6094" y2="1065.6953"/><line style="stroke:#A80036;stroke-width:1.0;stroke-dasharray:5.0,5.0;" x1="1632" x2="1632" y1="942.5313" y2="1065.6953"/><line style="stroke:#A80036;stroke-width:1.0;stroke-dasharray:5.0,5.0;" x1="1800" x2="1800" y1="86.2188" y2="1065.6953"/><line style="stroke:#A80036;stroke-width:1.0;stroke-dasharray:5.0,5.0;" x1="1995" x2="1995" y1="86.2188" y2="1065.6953"/><line style="stroke:#A80036;stroke-width:1.0;stroke-dasharray:5.0,5.0;" x1="2171" x2="2171" y1="86.2188" y2="1065.6953"/><line style="stroke:#A80036;stroke-width:1.0;stroke-dasharray:5.0,5.0;" x1="2359" x2="2359" y1="86.2188" y2="1065.6953"/><line style="stroke:#A80036;stroke-width:1.0;stroke-dasharray:5.0,5.0;" x1="2532" x2="2532" y1="86.2188" y2="1065.6953"/><line style="stroke:#A80036;stroke-width:1.0;stroke-dasharray:5.0,5.0;" x1="2645" x2="2645" y1="86.2188" y2="1065.6953"/><line style="stroke:#A80036;stroke-width:1.0;stroke-dasharray:5.0,5.0;" x1="2759" x2="2759" y1="86.2188" y2="1065.6953"/><line style="stroke:#A80036;stroke-width:1.0;stroke-dasharray:5.0,5.0;" x1="2887" x2="2887" y1="86.2188" y2="1065.6953"/><line style="stroke:#A80036;stroke-width:1.0;stroke-dasharray:5.0,5.0;" x1="3028" x2="3028" y1="86.2188" y2="1065.6953"/><line style="stroke:#A80036;stroke-width:1.0;stroke-dasharray:5.0,5.0;" x1="3167" x2="3167" y1="86.2188" y2="1065.6953"/><line style="stroke:#A80036;stroke-width:1.0;stroke-dasharray:5.0,5.0;" x1="3292" x2="3292" y1="86.2188" y2="1065.6953"/><line style="stroke:#A80036;stroke-width:1.0;stroke-dasharray:5.0,5.0;" x1="3398" x2="3398" y1="86.2188" y2="1065.6953"/><line style="stroke:#A80036;stroke-width:1.0;stroke-dasharray:5.0,5.0;" x1="3504" x2="3504" y1="86.2188" y2="1065.6953"/><rect fill="#FEFECE" filter="url(#fg7bi05ekmza2)" height="49.2188" style="stroke:#A80036;stroke-width:1.5;" width="176" x="169" y="32"/><text fill="#000000" font-family="sans-serif" font-size="14" lengthAdjust="spacing" textLength="100" x="207" y="53.5332">&lt;&lt;application&gt;&gt;</text><text fill="#000000" font-family="sans-serif" font-size="14" lengthAdjust="spacing" textLength="162" x="176" y="71.1426">ServiceSolicitationService</text><rect fill="#FEFECE" filter="url(#fg7bi05ekmza2)" height="49.2188" style="stroke:#A80036;stroke-width:1.5;" width="92" x="359" y="32"/><text fill="#000000" font-family="sans-serif" font-size="14" lengthAdjust="spacing" textLength="78" x="366" y="53.5332">&lt;&lt;domain&gt;&gt;</text><text fill="#000000" font-family="sans-serif" font-size="14" lengthAdjust="spacing" textLength="47" x="381.5" y="71.1426">Service</text><rect fill="#FEFECE" filter="url(#fg7bi05ekmza2)" height="49.2188" style="stroke:#A80036;stroke-width:1.5;" width="92" x="469" y="32"/><text fill="#000000" font-family="sans-serif" font-size="14" lengthAdjust="spacing" textLength="78" x="476" y="53.5332">&lt;&lt;domain&gt;&gt;</text><text fill="#000000" font-family="sans-serif" font-size="14" lengthAdjust="spacing" textLength="70" x="480" y="71.1426">ActivityFlux</text><rect fill="#FEFECE" filter="url(#fg7bi05ekmza2)" height="49.2188" style="stroke:#A80036;stroke-width:1.5;" width="92" x="575" y="32"/><text fill="#000000" font-family="sans-serif" font-size="14" lengthAdjust="spacing" textLength="78" x="582" y="53.5332">&lt;&lt;domain&gt;&gt;</text><text fill="#000000" font-family="sans-serif" font-size="14" lengthAdjust="spacing" textLength="31" x="605.5" y="71.1426">Task</text><text fill="#000000" font-family="sans-serif" font-size="14" lengthAdjust="spacing" textLength="95" x="706" y="65.5332">&lt;&lt;repository&gt;&gt;</text><text fill="#000000" font-family="sans-serif" font-size="14" lengthAdjust="spacing" textLength="145" x="681" y="83.1426">ManualTaskRepository</text><path d="M738.5,15 C738.5,5 756.5,5 756.5,5 C756.5,5 774.5,5 774.5,15 L774.5,41 C774.5,51 756.5,51 756.5,51 C756.5,51 738.5,51 738.5,41 L738.5,15 " fill="#FEFECE" filter="url(#fg7bi05ekmza2)" style="stroke:#000000;stroke-width:1.5;"/><path d="M738.5,15 C738.5,25 756.5,25 756.5,25 C756.5,25 774.5,25 774.5,15 " fill="none" style="stroke:#000000;stroke-width:1.5;"/><text fill="#000000" font-family="sans-serif" font-size="14" lengthAdjust="spacing" textLength="95" x="875" y="65.5332">&lt;&lt;repository&gt;&gt;</text><text fill="#000000" font-family="sans-serif" font-size="14" lengthAdjust="spacing" textLength="161" x="842" y="83.1426">AutomaticTaskRepository</text><path d="M907.5,15 C907.5,5 925.5,5 925.5,5 C925.5,5 943.5,5 943.5,15 L943.5,41 C943.5,51 925.5,51 925.5,51 C925.5,51 907.5,51 907.5,41 L907.5,15 " fill="#FEFECE" filter="url(#fg7bi05ekmza2)" style="stroke:#000000;stroke-width:1.5;"/><path d="M907.5,15 C907.5,25 925.5,25 925.5,25 C925.5,25 943.5,25 943.5,15 " fill="none" style="stroke:#000000;stroke-width:1.5;"/><text fill="#000000" font-family="sans-serif" font-size="14" lengthAdjust="spacing" textLength="95" x="1749.5" y="65.5332">&lt;&lt;repository&gt;&gt;</text><text fill="#000000" font-family="sans-serif" font-size="14" lengthAdjust="spacing" textLength="160" x="1717" y="83.1426">TaskExecutionRepository</text><path d="M1782,15 C1782,5 1800,5 1800,5 C1800,5 1818,5 1818,15 L1818,41 C1818,51 1800,51 1800,51 C1800,51 1782,51 1782,41 L1782,15 " fill="#FEFECE" filter="url(#fg7bi05ekmza2)" style="stroke:#000000;stroke-width:1.5;"/><path d="M1782,15 C1782,25 1800,25 1800,25 C1800,25 1818,25 1818,15 " fill="none" style="stroke:#000000;stroke-width:1.5;"/><text fill="#000000" font-family="sans-serif" font-size="14" lengthAdjust="spacing" textLength="95" x="1945" y="65.5332">&lt;&lt;repository&gt;&gt;</text><text fill="#000000" font-family="sans-serif" font-size="14" lengthAdjust="spacing" textLength="199" x="1893" y="83.1426">ActivityFluxExecutionRepository</text><path d="M1977.5,15 C1977.5,5 1995.5,5 1995.5,5 C1995.5,5 2013.5,5 2013.5,15 L2013.5,41 C2013.5,51 1995.5,51 1995.5,51 C1995.5,51 1977.5,51 1977.5,41 L1977.5,15 " fill="#FEFECE" filter="url(#fg7bi05ekmza2)" style="stroke:#000000;stroke-width:1.5;"/><path d="M1977.5,15 C1977.5,25 1995.5,25 1995.5,25 C1995.5,25 2013.5,25 2013.5,15 " fill="none" style="stroke:#000000;stroke-width:1.5;"/><rect fill="#FEFECE" filter="url(#fg7bi05ekmza2)" height="49.2188" style="stroke:#A80036;stroke-width:1.5;" width="123" x="2108" y="32"/><text fill="#000000" font-family="sans-serif" font-size="14" lengthAdjust="spacing" textLength="78" x="2130.5" y="53.5332">&lt;&lt;domain&gt;&gt;</text><text fill="#000000" font-family="sans-serif" font-size="14" lengthAdjust="spacing" textLength="109" x="2115" y="71.1426">ActivityFlowClient</text><rect fill="#FEFECE" filter="url(#fg7bi05ekmza2)" height="49.2188" style="stroke:#A80036;stroke-width:1.5;" width="225" x="2245" y="32"/><text fill="#000000" font-family="sans-serif" font-size="14" lengthAdjust="spacing" textLength="78" x="2318.5" y="53.5332">&lt;&lt;domain&gt;&gt;</text><text fill="#000000" font-family="sans-serif" font-size="14" lengthAdjust="spacing" textLength="211" x="2252" y="71.1426">AutomaticTaskExecutionProgress</text><rect fill="#FEFECE" filter="url(#fg7bi05ekmza2)" height="49.2188" style="stroke:#A80036;stroke-width:1.5;" width="92" x="2484" y="32"/><text fill="#000000" font-family="sans-serif" font-size="14" lengthAdjust="spacing" textLength="78" x="2491" y="53.5332">&lt;&lt;domain&gt;&gt;</text><text fill="#000000" font-family="sans-serif" font-size="14" lengthAdjust="spacing" textLength="77" x="2491.5" y="71.1426">ManualTask</text><rect fill="#FEFECE" filter="url(#fg7bi05ekmza2)" height="49.2188" style="stroke:#A80036;stroke-width:1.5;" width="107" x="2590" y="32"/><text fill="#000000" font-family="sans-serif" font-size="14" lengthAdjust="spacing" textLength="78" x="2604.5" y="53.5332">&lt;&lt;domain&gt;&gt;</text><text fill="#000000" font-family="sans-serif" font-size="14" lengthAdjust="spacing" textLength="93" x="2597" y="71.1426">AutomaticTask</text><rect fill="#FEFECE" filter="url(#fg7bi05ekmza2)" height="49.2188" style="stroke:#A80036;stroke-width:1.5;" width="92" x="2711" y="32"/><text fill="#000000" font-family="sans-serif" font-size="14" lengthAdjust="spacing" textLength="78" x="2718" y="53.5332">&lt;&lt;domain&gt;&gt;</text><text fill="#000000" font-family="sans-serif" font-size="14" lengthAdjust="spacing" textLength="64" x="2725" y="71.1426">Response</text><rect fill="#FEFECE" filter="url(#fg7bi05ekmza2)" height="49.2188" style="stroke:#A80036;stroke-width:1.5;" width="136" x="2817" y="32"/><text fill="#000000" font-family="sans-serif" font-size="14" lengthAdjust="spacing" textLength="105" x="2832.5" y="53.5332">&lt;&lt;persistence&gt;&gt;</text><text fill="#000000" font-family="sans-serif" font-size="14" lengthAdjust="spacing" textLength="122" x="2824" y="71.1426">PersistenceContext</text><rect fill="#FEFECE" filter="url(#fg7bi05ekmza2)" height="49.2188" style="stroke:#A80036;stroke-width:1.5;" width="119" x="2967" y="32"/><text fill="#000000" font-family="sans-serif" font-size="14" lengthAdjust="spacing" textLength="105" x="2974" y="53.5332">&lt;&lt;persistence&gt;&gt;</text><text fill="#000000" font-family="sans-serif" font-size="14" lengthAdjust="spacing" textLength="76" x="2988.5" y="71.1426">AppSettings</text><rect fill="#FEFECE" filter="url(#fg7bi05ekmza2)" height="49.2188" style="stroke:#A80036;stroke-width:1.5;" width="130" x="3100" y="32"/><text fill="#000000" font-family="sans-serif" font-size="14" lengthAdjust="spacing" textLength="75" x="3127.5" y="53.5332">&lt;&lt;factory&gt;&gt;</text><text fill="#000000" font-family="sans-serif" font-size="14" lengthAdjust="spacing" textLength="116" x="3107" y="71.1426">RepositoryFactory</text><rect fill="#FEFECE" filter="url(#fg7bi05ekmza2)" height="49.2188" style="stroke:#A80036;stroke-width:1.5;" width="92" x="3244" y="32"/><text fill="#000000" font-family="sans-serif" font-size="14" lengthAdjust="spacing" textLength="78" x="3251" y="53.5332">&lt;&lt;domain&gt;&gt;</text><text fill="#000000" font-family="sans-serif" font-size="14" lengthAdjust="spacing" textLength="65" x="3257.5" y="71.1426">Catalogue</text><rect fill="#FEFECE" filter="url(#fg7bi05ekmza2)" height="49.2188" style="stroke:#A80036;stroke-width:1.5;" width="92" x="3350" y="32"/><text fill="#000000" font-family="sans-serif" font-size="14" lengthAdjust="spacing" textLength="78" x="3357" y="53.5332">&lt;&lt;domain&gt;&gt;</text><text fill="#000000" font-family="sans-serif" font-size="14" lengthAdjust="spacing" textLength="53" x="3369.5" y="71.1426">Attribute</text><rect fill="#FEFECE" filter="url(#fg7bi05ekmza2)" height="49.2188" style="stroke:#A80036;stroke-width:1.5;" width="92" x="3456" y="32"/><text fill="#000000" font-family="sans-serif" font-size="14" lengthAdjust="spacing" textLength="78" x="3463" y="53.5332">&lt;&lt;domain&gt;&gt;</text><text fill="#000000" font-family="sans-serif" font-size="14" lengthAdjust="spacing" textLength="33" x="3485.5" y="71.1426">Form</text><rect fill="#FFFFFF" filter="url(#fg7bi05ekmza2)" height="929.125" style="stroke:#A80036;stroke-width:1.0;" width="10" x="254" y="118.5703"/><rect fill="#FFFFFF" filter="url(#fg7bi05ekmza2)" height="91.0547" style="stroke:#A80036;stroke-width:1.0;" width="10" x="402" y="148.9219"/><rect fill="#FFFFFF" filter="url(#fg7bi05ekmza2)" height="30.3516" style="stroke:#A80036;stroke-width:1.0;" width="10" x="512" y="179.2734"/><rect fill="#FFFFFF" filter="url(#fg7bi05ekmza2)" height="30.3516" style="stroke:#A80036;stroke-width:1.0;" width="10" x="618" y="295.6797"/><rect fill="#FFFFFF" filter="url(#fg7bi05ekmza2)" height="30.3516" style="stroke:#A80036;stroke-width:1.0;" width="10" x="751.5" y="356.3828"/><rect fill="#FFFFFF" filter="url(#fg7bi05ekmza2)" height="30.3516" style="stroke:#A80036;stroke-width:1.0;" width="10" x="920.5" y="633.5781"/><rect fill="#FFFFFF" filter="url(#fg7bi05ekmza2)" height="54.2188" style="stroke:#A80036;stroke-width:1.0;" width="10" x="1092" y="452.4375"/><rect fill="#FFFFFF" filter="url(#fg7bi05ekmza2)" height="54.2188" style="stroke:#A80036;stroke-width:1.0;" width="10" x="1266" y="729.6328"/><rect fill="#FFFFFF" filter="url(#fg7bi05ekmza2)" height="30.3516" style="stroke:#A80036;stroke-width:1.0;" width="10" x="1795" y="570.875"/><rect fill="#FFFFFF" filter="url(#fg7bi05ekmza2)" height="30.3516" style="stroke:#A80036;stroke-width:1.0;" width="10" x="1795" y="848.0703"/><rect fill="#FFFFFF" filter="url(#fg7bi05ekmza2)" height="30.3516" style="stroke:#A80036;stroke-width:1.0;" width="10" x="1990.5" y="986.9922"/><ellipse cx="7.5" cy="117.8203" rx="4" ry="4" style="stroke:#A80036;stroke-width:1.5;fill:none;"/><polygon fill="#A80036" points="242,114.5703,252,118.5703,242,122.5703,246,118.5703" style="stroke:#A80036;stroke-width:1.0;"/><line style="stroke:#A80036;stroke-width:1.0;" x1="12" x2="248" y1="118.5703" y2="118.5703"/><text fill="#000000" font-family="sans-serif" font-size="13" font-weight="bold" lengthAdjust="spacing" textLength="7" x="15" y="113.7139">1</text><text fill="#000000" font-family="sans-serif" font-size="13" lengthAdjust="spacing" textLength="209" x="26" y="113.7139">createActivityFluxExecution(service)</text><polygon fill="#A80036" points="390,144.9219,400,148.9219,390,152.9219,394,148.9219" style="stroke:#A80036;stroke-width:1.0;"/><line style="stroke:#A80036;stroke-width:1.0;" x1="264" x2="396" y1="148.9219" y2="148.9219"/><text fill="#000000" font-family="sans-serif" font-size="13" font-weight="bold" lengthAdjust="spacing" textLength="7" x="271" y="144.0654">2</text><text fill="#000000" font-family="sans-serif" font-size="13" lengthAdjust="spacing" textLength="28" x="282" y="144.0654">flux()</text><polygon fill="#A80036" points="500,175.2734,510,179.2734,500,183.2734,504,179.2734" style="stroke:#A80036;stroke-width:1.0;"/><line style="stroke:#A80036;stroke-width:1.0;" x1="412" x2="506" y1="179.2734" y2="179.2734"/><text fill="#000000" font-family="sans-serif" font-size="13" font-weight="bold" lengthAdjust="spacing" textLength="7" x="419" y="174.417">3</text><text fill="#000000" font-family="sans-serif" font-size="13" lengthAdjust="spacing" textLength="28" x="430" y="174.417">flux()</text><polygon fill="#A80036" points="423,205.625,413,209.625,423,213.625,419,209.625" style="stroke:#A80036;stroke-width:1.0;"/><line style="stroke:#A80036;stroke-width:1.0;stroke-dasharray:2.0,2.0;" x1="417" x2="516" y1="209.625" y2="209.625"/><text fill="#000000" font-family="sans-serif" font-size="13" font-weight="bold" lengthAdjust="spacing" textLength="7" x="429" y="204.7686">4</text><text fill="#000000" font-family="sans-serif" font-size="13" lengthAdjust="spacing" textLength="65" x="440" y="204.7686">activityFlux</text><polygon fill="#A80036" points="275,235.9766,265,239.9766,275,243.9766,271,239.9766" style="stroke:#A80036;stroke-width:1.0;"/><line style="stroke:#A80036;stroke-width:1.0;stroke-dasharray:2.0,2.0;" x1="269" x2="406" y1="239.9766" y2="239.9766"/><text fill="#000000" font-family="sans-serif" font-size="13" font-weight="bold" lengthAdjust="spacing" textLength="7" x="281" y="235.1201">5</text><text fill="#000000" font-family="sans-serif" font-size="13" lengthAdjust="spacing" textLength="65" x="292" y="235.1201">activityFlux</text><polygon fill="#A80036" points="606,291.6797,616,295.6797,606,299.6797,610,295.6797" style="stroke:#A80036;stroke-width:1.0;"/><line style="stroke:#A80036;stroke-width:1.0;" x1="264" x2="612" y1="295.6797" y2="295.6797"/><text fill="#000000" font-family="sans-serif" font-size="13" font-weight="bold" lengthAdjust="spacing" textLength="7" x="271" y="290.8232">6</text><text fill="#000000" font-family="sans-serif" font-size="13" lengthAdjust="spacing" textLength="18" x="282" y="290.8232">id()</text><polygon fill="#A80036" points="275,322.0313,265,326.0313,275,330.0313,271,326.0313" style="stroke:#A80036;stroke-width:1.0;"/><line style="stroke:#A80036;stroke-width:1.0;stroke-dasharray:2.0,2.0;" x1="269" x2="622" y1="326.0313" y2="326.0313"/><text fill="#000000" font-family="sans-serif" font-size="13" font-weight="bold" lengthAdjust="spacing" textLength="7" x="281" y="321.1748">7</text><text fill="#000000" font-family="sans-serif" font-size="13" lengthAdjust="spacing" textLength="10" x="292" y="321.1748">id</text><polygon fill="#A80036" points="739.5,352.3828,749.5,356.3828,739.5,360.3828,743.5,356.3828" style="stroke:#A80036;stroke-width:1.0;"/><line style="stroke:#A80036;stroke-width:1.0;" x1="264" x2="745.5" y1="356.3828" y2="356.3828"/><text fill="#000000" font-family="sans-serif" font-size="13" font-weight="bold" lengthAdjust="spacing" textLength="7" x="271" y="351.5264">8</text><text fill="#000000" font-family="sans-serif" font-size="13" lengthAdjust="spacing" textLength="98" x="282" y="351.5264">isManualTask(id)</text><polygon fill="#A80036" points="275,382.7344,265,386.7344,275,390.7344,271,386.7344" style="stroke:#A80036;stroke-width:1.0;"/><line style="stroke:#A80036;stroke-width:1.0;stroke-dasharray:2.0,2.0;" x1="269" x2="755.5" y1="386.7344" y2="386.7344"/><text fill="#000000" font-family="sans-serif" font-size="13" font-weight="bold" lengthAdjust="spacing" textLength="7" x="281" y="381.8779">9</text><text fill="#000000" font-family="sans-serif" font-size="13" lengthAdjust="spacing" textLength="67" x="292" y="381.8779">manualFlag</text><path d="M149,401.7344 L210,401.7344 L210,409.7344 L200,419.7344 L149,419.7344 L149,401.7344 " fill="#EEEEEE" style="stroke:#000000;stroke-width:1.0;"/><rect fill="none" height="491.6875" style="stroke:#000000;stroke-width:2.0;" width="1754" x="149" y="401.7344"/><text fill="#000000" font-family="sans-serif" font-size="13" font-weight="bold" lengthAdjust="spacing" textLength="16" x="164" y="416.2295">alt</text><text fill="#000000" font-family="sans-serif" font-size="11" font-weight="bold" lengthAdjust="spacing" textLength="269" x="225" y="415.1533">[if the task is a manual task (manualFlag == true)]</text><polygon fill="#A80036" points="1007,438.4375,1017,442.4375,1007,446.4375,1011,442.4375" style="stroke:#A80036;stroke-width:1.0;"/><line style="stroke:#A80036;stroke-width:1.0;" x1="264" x2="1013" y1="442.4375" y2="442.4375"/><text fill="#000000" font-family="sans-serif" font-size="13" font-weight="bold" lengthAdjust="spacing" textLength="14" x="271" y="437.5811">10</text><text fill="#000000" font-family="sans-serif" font-size="13" lengthAdjust="spacing" textLength="132" x="289" y="437.5811">create(t, status, result)</text><rect fill="#FEFECE" filter="url(#fg7bi05ekmza2)" height="49.2188" style="stroke:#A80036;stroke-width:1.5;" width="152" x="1019" y="420.0859"/><text fill="#000000" font-family="sans-serif" font-size="14" lengthAdjust="spacing" textLength="78" x="1056" y="441.6191">&lt;&lt;domain&gt;&gt;</text><text fill="#000000" font-family="sans-serif" font-size="14" lengthAdjust="spacing" textLength="138" x="1026" y="459.2285">ManualTaskExecution</text><polygon fill="#A80036" points="1426,502.6563,1436,506.6563,1426,510.6563,1430,506.6563" style="stroke:#A80036;stroke-width:1.0;"/><line style="stroke:#A80036;stroke-width:1.0;" x1="1097" x2="1432" y1="506.6563" y2="506.6563"/><text fill="#000000" font-family="sans-serif" font-size="13" font-weight="bold" lengthAdjust="spacing" textLength="14" x="1104" y="501.7998">11</text><text fill="#000000" font-family="sans-serif" font-size="13" lengthAdjust="spacing" textLength="120" x="1122" y="501.7998">create(status, result)</text><rect fill="#FEFECE" filter="url(#fg7bi05ekmza2)" height="49.2188" style="stroke:#A80036;stroke-width:1.5;" width="106" x="1438" y="484.3047"/><text fill="#000000" font-family="sans-serif" font-size="14" lengthAdjust="spacing" textLength="78" x="1452" y="505.8379">&lt;&lt;domain&gt;&gt;</text><text fill="#000000" font-family="sans-serif" font-size="14" lengthAdjust="spacing" textLength="92" x="1445" y="523.4473">TaskExecution</text><polygon fill="#A80036" points="1783,566.875,1793,570.875,1783,574.875,1787,570.875" style="stroke:#A80036;stroke-width:1.0;"/><line style="stroke:#A80036;stroke-width:1.0;" x1="264" x2="1789" y1="570.875" y2="570.875"/><text fill="#000000" font-family="sans-serif" font-size="13" font-weight="bold" lengthAdjust="spacing" textLength="14" x="271" y="566.0186">12</text><text fill="#000000" font-family="sans-serif" font-size="13" lengthAdjust="spacing" textLength="104" x="289" y="566.0186">save(manualTask)</text><polygon fill="#A80036" points="275,597.2266,265,601.2266,275,605.2266,271,601.2266" style="stroke:#A80036;stroke-width:1.0;"/><line style="stroke:#A80036;stroke-width:1.0;stroke-dasharray:2.0,2.0;" x1="269" x2="1799" y1="601.2266" y2="601.2266"/><text fill="#000000" font-family="sans-serif" font-size="13" font-weight="bold" lengthAdjust="spacing" textLength="14" x="281" y="596.3701">13</text><text fill="#000000" font-family="sans-serif" font-size="13" lengthAdjust="spacing" textLength="70" x="299" y="596.3701">manualTask</text><line style="stroke:#000000;stroke-width:1.0;stroke-dasharray:2.0,2.0;" x1="149" x2="1903" y1="610.2266" y2="610.2266"/><polygon fill="#A80036" points="908.5,629.5781,918.5,633.5781,908.5,637.5781,912.5,633.5781" style="stroke:#A80036;stroke-width:1.0;"/><line style="stroke:#A80036;stroke-width:1.0;" x1="264" x2="914.5" y1="633.5781" y2="633.5781"/><text fill="#000000" font-family="sans-serif" font-size="13" font-weight="bold" lengthAdjust="spacing" textLength="14" x="271" y="628.7217">14</text><text fill="#000000" font-family="sans-serif" font-size="13" lengthAdjust="spacing" textLength="83" x="289" y="628.7217">isAutoTask(id)</text><polygon fill="#A80036" points="275,659.9297,265,663.9297,275,667.9297,271,663.9297" style="stroke:#A80036;stroke-width:1.0;"/><line style="stroke:#A80036;stroke-width:1.0;stroke-dasharray:2.0,2.0;" x1="269" x2="924.5" y1="663.9297" y2="663.9297"/><text fill="#000000" font-family="sans-serif" font-size="13" font-weight="bold" lengthAdjust="spacing" textLength="14" x="281" y="659.0732">15</text><text fill="#000000" font-family="sans-serif" font-size="13" lengthAdjust="spacing" textLength="50" x="299" y="659.0732">autoFlag</text><path d="M159,678.9297 L220,678.9297 L220,686.9297 L210,696.9297 L159,696.9297 L159,678.9297 " fill="#EEEEEE" style="stroke:#000000;stroke-width:1.0;"/><rect fill="none" height="207.4922" style="stroke:#000000;stroke-width:2.0;" width="1734" x="159" y="678.9297"/><text fill="#000000" font-family="sans-serif" font-size="13" font-weight="bold" lengthAdjust="spacing" textLength="16" x="174" y="693.4248">alt</text><text fill="#000000" font-family="sans-serif" font-size="11" font-weight="bold" lengthAdjust="spacing" textLength="267" x="235" y="692.3486">[if the task is a automatic task (autoFlag == true)]</text><polygon fill="#A80036" points="1173,715.6328,1183,719.6328,1173,723.6328,1177,719.6328" style="stroke:#A80036;stroke-width:1.0;"/><line style="stroke:#A80036;stroke-width:1.0;" x1="264" x2="1179" y1="719.6328" y2="719.6328"/><text fill="#000000" font-family="sans-serif" font-size="13" font-weight="bold" lengthAdjust="spacing" textLength="14" x="271" y="714.7764">16</text><text fill="#000000" font-family="sans-serif" font-size="13" lengthAdjust="spacing" textLength="181" x="289" y="714.7764">create(autoTask, status, result)</text><rect fill="#FEFECE" filter="url(#fg7bi05ekmza2)" height="49.2188" style="stroke:#A80036;stroke-width:1.5;" width="168" x="1185" y="697.2813"/><text fill="#000000" font-family="sans-serif" font-size="14" lengthAdjust="spacing" textLength="78" x="1230" y="718.8145">&lt;&lt;domain&gt;&gt;</text><text fill="#000000" font-family="sans-serif" font-size="14" lengthAdjust="spacing" textLength="154" x="1192" y="736.4238">AutomaticTaskExecution</text><polygon fill="#A80036" points="1426,779.8516,1436,783.8516,1426,787.8516,1430,783.8516" style="stroke:#A80036;stroke-width:1.0;"/><line style="stroke:#A80036;stroke-width:1.0;" x1="1271" x2="1432" y1="783.8516" y2="783.8516"/><text fill="#000000" font-family="sans-serif" font-size="13" font-weight="bold" lengthAdjust="spacing" textLength="14" x="1278" y="778.9951">17</text><text fill="#000000" font-family="sans-serif" font-size="13" lengthAdjust="spacing" textLength="120" x="1296" y="778.9951">create(status, result)</text><rect fill="#FEFECE" filter="url(#fg7bi05ekmza2)" height="49.2188" style="stroke:#A80036;stroke-width:1.5;" width="106" x="1438" y="761.5"/><text fill="#000000" font-family="sans-serif" font-size="14" lengthAdjust="spacing" textLength="78" x="1452" y="783.0332">&lt;&lt;domain&gt;&gt;</text><text fill="#000000" font-family="sans-serif" font-size="14" lengthAdjust="spacing" textLength="92" x="1445" y="800.6426">TaskExecution</text><polygon fill="#A80036" points="1783,844.0703,1793,848.0703,1783,852.0703,1787,848.0703" style="stroke:#A80036;stroke-width:1.0;"/><line style="stroke:#A80036;stroke-width:1.0;" x1="264" x2="1789" y1="848.0703" y2="848.0703"/><text fill="#000000" font-family="sans-serif" font-size="13" font-weight="bold" lengthAdjust="spacing" textLength="14" x="271" y="843.2139">18</text><text fill="#000000" font-family="sans-serif" font-size="13" lengthAdjust="spacing" textLength="38" x="289" y="843.2139">save(t)</text><polygon fill="#A80036" points="275,874.4219,265,878.4219,275,882.4219,271,878.4219" style="stroke:#A80036;stroke-width:1.0;"/><line style="stroke:#A80036;stroke-width:1.0;stroke-dasharray:2.0,2.0;" x1="269" x2="1799" y1="878.4219" y2="878.4219"/><text fill="#000000" font-family="sans-serif" font-size="13" font-weight="bold" lengthAdjust="spacing" textLength="14" x="281" y="873.5654">19</text><text fill="#000000" font-family="sans-serif" font-size="13" lengthAdjust="spacing" textLength="53" x="299" y="873.5654">autoTask</text><polygon fill="#A80036" points="1546,918.7734,1556,922.7734,1546,926.7734,1550,922.7734" style="stroke:#A80036;stroke-width:1.0;"/><line style="stroke:#A80036;stroke-width:1.0;" x1="264" x2="1552" y1="922.7734" y2="922.7734"/><text fill="#000000" font-family="sans-serif" font-size="13" font-weight="bold" lengthAdjust="spacing" textLength="14" x="271" y="917.917">20</text><text fill="#000000" font-family="sans-serif" font-size="13" lengthAdjust="spacing" textLength="141" x="289" y="917.917">create(progress, lstFlux)</text><rect fill="#FEFECE" filter="url(#fg7bi05ekmza2)" height="49.2188" style="stroke:#A80036;stroke-width:1.5;" width="145" x="1558" y="900.4219"/><text fill="#000000" font-family="sans-serif" font-size="14" lengthAdjust="spacing" textLength="78" x="1591.5" y="921.9551">&lt;&lt;domain&gt;&gt;</text><text fill="#000000" font-family="sans-serif" font-size="14" lengthAdjust="spacing" textLength="131" x="1565" y="939.5645">ActivityFluxExecution</text><polygon fill="#A80036" points="1978.5,982.9922,1988.5,986.9922,1978.5,990.9922,1982.5,986.9922" style="stroke:#A80036;stroke-width:1.0;"/><line style="stroke:#A80036;stroke-width:1.0;" x1="264" x2="1984.5" y1="986.9922" y2="986.9922"/><text fill="#000000" font-family="sans-serif" font-size="13" font-weight="bold" lengthAdjust="spacing" textLength="14" x="271" y="982.1357">21</text><text fill="#000000" font-family="sans-serif" font-size="13" lengthAdjust="spacing" textLength="129" x="289" y="982.1357">save(activityFluxExec)</text><polygon fill="#A80036" points="275,1013.3438,265,1017.3438,275,1021.3438,271,1017.3438" style="stroke:#A80036;stroke-width:1.0;"/><line style="stroke:#A80036;stroke-width:1.0;stroke-dasharray:2.0,2.0;" x1="269" x2="1994.5" y1="1017.3438" y2="1017.3438"/><text fill="#000000" font-family="sans-serif" font-size="13" font-weight="bold" lengthAdjust="spacing" textLength="14" x="281" y="1012.4873">22</text><text fill="#000000" font-family="sans-serif" font-size="13" lengthAdjust="spacing" textLength="95" x="299" y="1012.4873">activityFluxExec</text><polygon fill="#A80036" points="11,1043.6953,1,1047.6953,11,1051.6953,7,1047.6953" style="stroke:#A80036;stroke-width:1.0;"/><line style="stroke:#A80036;stroke-width:1.0;" x1="5" x2="258" y1="1047.6953" y2="1047.6953"/><text fill="#000000" font-family="sans-serif" font-size="13" font-weight="bold" lengthAdjust="spacing" textLength="14" x="17" y="1042.8389">23</text><text fill="#000000" font-family="sans-serif" font-size="13" lengthAdjust="spacing" textLength="95" x="35" y="1042.8389">activityFluxExec</text><!--MD5=[de923c99aeeaf548348db35be0f7eba3]
@startuml
autonumber
hide footbox

participant "<<application>>\nServiceSolicitationService" as SRV
participant "<<domain>>\nService" as S
participant "<<domain>>\nActivityFlux" as AF
participant "<<domain>>\nTask" as TASK
database "<<repository>>\nManualTaskRepository" as MTR
database "<<repository>>\nAutomaticTaskRepository" as ATR
participant "<<domain>>\nManualTaskExecution" as MTE
participant "<<domain>>\nAutomaticTaskExecution" as ATE
participant "<<domain>>\nTaskExecution" as TASKE
participant "<<domain>>\nActivityFluxExecution" as AFE
database "<<repository>>\nTaskExecutionRepository" as TER
database "<<repository>>\nActivityFluxExecutionRepository" as AFER
participant "<<domain>>\nActivityFlowClient" as AFC
participant "<<domain>>\nAutomaticTaskExecutionProgress" as PROG
participant "<<domain>>\nManualTask" as MT
participant "<<domain>>\nAutomaticTask" as AT
participant "<<domain>>\nResponse" as RS
participant "<<persistence>>\nPersistenceContext" as PC
participant "<<persistence>>\nAppSettings" as AS
participant "<<factory>>\nRepositoryFactory" as RF
participant "<<domain>>\nCatalogue" as C
participant "<<domain>>\nAttribute" as A
participant "<<domain>>\nForm" as F

[o-> SRV : createActivityFluxExecution(service)
activate SRV

SRV -> S : flux()
activate S

S -> AF : flux()
activate AF

AF - -> S : activityFlux
deactivate AF

S - -> SRV : activityFlux
deactivate AF
deactivate S

loop while there is tasks in the activityFlux

SRV -> TASK : id()
activate TASK

TASK - -> SRV : id
deactivate TASK

SRV -> MTR : isManualTask(id)
activate MTR

MTR - -> SRV : manualFlag
deactivate MTR

alt if the task is a manual task (manualFlag == true)

SRV -> MTE** : create(t, status, result)
activate MTE

MTE -> TASKE** : create(status, result)
deactivate MTE

SRV -> TER : save(manualTask)
activate TER

TER - -> SRV : manualTask
deactivate TER
deactivate TER

else

SRV -> ATR : isAutoTask(id)
activate ATR

ATR - -> SRV : autoFlag
deactivate ATR

alt if the task is a automatic task (autoFlag == true)

SRV -> ATE** : create(autoTask, status, result)
activate ATE

ATE -> TASKE** : create(status, result)
deactivate ATE

SRV -> TER : save(t)
activate TER

TER - -> SRV : autoTask
deactivate TER

end

end

SRV -> AFE** : create(progress, lstFlux)


SRV -> AFER : save(activityFluxExec)
activate AFER

AFER - -> SRV : activityFluxExec
deactivate AFER

<- SRV : activityFluxExec
deactivate SRV

@enduml

PlantUML version 1.2021.7(Sun May 23 13:40:07 BST 2021)
(GPL source distribution)
Java Runtime: OpenJDK Runtime Environment
JVM: Dynamic Code Evolution 64-Bit Server VM
Default Encoding: Cp1252
Language: pt
Country: PT
--></g></svg>