<?xml version="1.0" encoding="UTF-8" standalone="no"?><svg xmlns="http://www.w3.org/2000/svg" xmlns:xlink="http://www.w3.org/1999/xlink" contentScriptType="application/ecmascript" contentStyleType="text/css" height="331px" preserveAspectRatio="none" style="width:1479px;height:331px;background:#FFFFFF;" version="1.1" viewBox="0 0 1479 331" width="1479px" zoomAndPan="magnify"><defs><filter height="300%" id="fufuchfjx8nh7" width="300%" x="-1" y="-1"><feGaussianBlur result="blurOut" stdDeviation="2.0"/><feColorMatrix in="blurOut" result="blurOut2" type="matrix" values="0 0 0 0 0 0 0 0 0 0 0 0 0 0 0 0 0 0 .4 0"/><feOffset dx="4.0" dy="4.0" in="blurOut2" result="blurOut3"/><feBlend in="SourceGraphic" in2="blurOut3" mode="normal"/></filter></defs><g><rect fill="#FFFFFF" filter="url(#fufuchfjx8nh7)" height="187.625" style="stroke:#A80036;stroke-width:1.0;" width="10" x="300" y="118.5703"/><rect fill="#FFFFFF" filter="url(#fufuchfjx8nh7)" height="30.3516" style="stroke:#A80036;stroke-width:1.0;" width="10" x="756" y="238.4922"/><rect fill="#FFFFFF" filter="url(#fufuchfjx8nh7)" height="79.0547" style="stroke:#000000;stroke-width:2.0;" width="635" x="205" y="197.7891"/><line style="stroke:#A80036;stroke-width:1.0;stroke-dasharray:5.0,5.0;" x1="305" x2="305" y1="86.2188" y2="324.1953"/><line style="stroke:#A80036;stroke-width:1.0;stroke-dasharray:5.0,5.0;" x1="634" x2="634" y1="168.6797" y2="324.1953"/><line style="stroke:#A80036;stroke-width:1.0;stroke-dasharray:5.0,5.0;" x1="761" x2="761" y1="86.2188" y2="324.1953"/><line style="stroke:#A80036;stroke-width:1.0;stroke-dasharray:5.0,5.0;" x1="910" x2="910" y1="86.2188" y2="324.1953"/><line style="stroke:#A80036;stroke-width:1.0;stroke-dasharray:5.0,5.0;" x1="1051" x2="1051" y1="86.2188" y2="324.1953"/><line style="stroke:#A80036;stroke-width:1.0;stroke-dasharray:5.0,5.0;" x1="1190" x2="1190" y1="86.2188" y2="324.1953"/><line style="stroke:#A80036;stroke-width:1.0;stroke-dasharray:5.0,5.0;" x1="1315" x2="1315" y1="86.2188" y2="324.1953"/><line style="stroke:#A80036;stroke-width:1.0;stroke-dasharray:5.0,5.0;" x1="1421" x2="1421" y1="86.2188" y2="324.1953"/><rect fill="#FEFECE" filter="url(#fufuchfjx8nh7)" height="49.2188" style="stroke:#A80036;stroke-width:1.5;" width="176" x="215" y="32"/><text fill="#000000" font-family="sans-serif" font-size="14" lengthAdjust="spacing" textLength="100" x="253" y="53.5332">&lt;&lt;application&gt;&gt;</text><text fill="#000000" font-family="sans-serif" font-size="14" lengthAdjust="spacing" textLength="162" x="222" y="71.1426">ServiceSolicitationService</text><text fill="#000000" font-family="sans-serif" font-size="14" lengthAdjust="spacing" textLength="95" x="710.5" y="65.5332">&lt;&lt;repository&gt;&gt;</text><text fill="#000000" font-family="sans-serif" font-size="14" lengthAdjust="spacing" textLength="132" x="692" y="83.1426">ResponseRepository</text><path d="M743,15 C743,5 761,5 761,5 C761,5 779,5 779,15 L779,41 C779,51 761,51 761,51 C761,51 743,51 743,41 L743,15 " fill="#FEFECE" filter="url(#fufuchfjx8nh7)" style="stroke:#000000;stroke-width:1.5;"/><path d="M743,15 C743,25 761,25 761,25 C761,25 779,25 779,15 " fill="none" style="stroke:#000000;stroke-width:1.5;"/><rect fill="#FEFECE" filter="url(#fufuchfjx8nh7)" height="49.2188" style="stroke:#A80036;stroke-width:1.5;" width="136" x="840" y="32"/><text fill="#000000" font-family="sans-serif" font-size="14" lengthAdjust="spacing" textLength="105" x="855.5" y="53.5332">&lt;&lt;persistence&gt;&gt;</text><text fill="#000000" font-family="sans-serif" font-size="14" lengthAdjust="spacing" textLength="122" x="847" y="71.1426">PersistenceContext</text><rect fill="#FEFECE" filter="url(#fufuchfjx8nh7)" height="49.2188" style="stroke:#A80036;stroke-width:1.5;" width="119" x="990" y="32"/><text fill="#000000" font-family="sans-serif" font-size="14" lengthAdjust="spacing" textLength="105" x="997" y="53.5332">&lt;&lt;persistence&gt;&gt;</text><text fill="#000000" font-family="sans-serif" font-size="14" lengthAdjust="spacing" textLength="76" x="1011.5" y="71.1426">AppSettings</text><rect fill="#FEFECE" filter="url(#fufuchfjx8nh7)" height="49.2188" style="stroke:#A80036;stroke-width:1.5;" width="130" x="1123" y="32"/><text fill="#000000" font-family="sans-serif" font-size="14" lengthAdjust="spacing" textLength="75" x="1150.5" y="53.5332">&lt;&lt;factory&gt;&gt;</text><text fill="#000000" font-family="sans-serif" font-size="14" lengthAdjust="spacing" textLength="116" x="1130" y="71.1426">RepositoryFactory</text><rect fill="#FEFECE" filter="url(#fufuchfjx8nh7)" height="49.2188" style="stroke:#A80036;stroke-width:1.5;" width="92" x="1267" y="32"/><text fill="#000000" font-family="sans-serif" font-size="14" lengthAdjust="spacing" textLength="78" x="1274" y="53.5332">&lt;&lt;domain&gt;&gt;</text><text fill="#000000" font-family="sans-serif" font-size="14" lengthAdjust="spacing" textLength="53" x="1286.5" y="71.1426">Attribute</text><rect fill="#FEFECE" filter="url(#fufuchfjx8nh7)" height="49.2188" style="stroke:#A80036;stroke-width:1.5;" width="92" x="1373" y="32"/><text fill="#000000" font-family="sans-serif" font-size="14" lengthAdjust="spacing" textLength="78" x="1380" y="53.5332">&lt;&lt;domain&gt;&gt;</text><text fill="#000000" font-family="sans-serif" font-size="14" lengthAdjust="spacing" textLength="33" x="1402.5" y="71.1426">Form</text><rect fill="#FFFFFF" filter="url(#fufuchfjx8nh7)" height="187.625" style="stroke:#A80036;stroke-width:1.0;" width="10" x="300" y="118.5703"/><rect fill="#FFFFFF" filter="url(#fufuchfjx8nh7)" height="30.3516" style="stroke:#A80036;stroke-width:1.0;" width="10" x="756" y="238.4922"/><ellipse cx="7.5" cy="117.8203" rx="4" ry="4" style="stroke:#A80036;stroke-width:1.5;fill:none;"/><polygon fill="#A80036" points="288,114.5703,298,118.5703,288,122.5703,292,118.5703" style="stroke:#A80036;stroke-width:1.0;"/><line style="stroke:#A80036;stroke-width:1.0;" x1="12" x2="294" y1="118.5703" y2="118.5703"/><text fill="#000000" font-family="sans-serif" font-size="13" font-weight="bold" lengthAdjust="spacing" textLength="7" x="15" y="113.7139">1</text><text fill="#000000" font-family="sans-serif" font-size="13" lengthAdjust="spacing" textLength="262" x="26" y="113.7139">createAndValidateResponse(form, lstAnswer)</text><polygon fill="#A80036" points="574,144.9219,584,148.9219,574,152.9219,578,148.9219" style="stroke:#A80036;stroke-width:1.0;"/><line style="stroke:#A80036;stroke-width:1.0;" x1="310" x2="580" y1="148.9219" y2="148.9219"/><text fill="#000000" font-family="sans-serif" font-size="13" font-weight="bold" lengthAdjust="spacing" textLength="7" x="317" y="144.0654">2</text><text fill="#000000" font-family="sans-serif" font-size="13" lengthAdjust="spacing" textLength="241" x="328" y="144.0654">res = createResponse(form, lstReponses)</text><rect fill="#FEFECE" filter="url(#fufuchfjx8nh7)" height="49.2188" style="stroke:#A80036;stroke-width:1.5;" width="92" x="586" y="126.5703"/><text fill="#000000" font-family="sans-serif" font-size="14" lengthAdjust="spacing" textLength="78" x="593" y="148.1035">&lt;&lt;domain&gt;&gt;</text><text fill="#000000" font-family="sans-serif" font-size="14" lengthAdjust="spacing" textLength="64" x="600" y="165.7129">Response</text><path d="M205,197.7891 L266,197.7891 L266,205.7891 L256,215.7891 L205,215.7891 L205,197.7891 " fill="#EEEEEE" style="stroke:#000000;stroke-width:1.0;"/><rect fill="none" height="79.0547" style="stroke:#000000;stroke-width:2.0;" width="635" x="205" y="197.7891"/><text fill="#000000" font-family="sans-serif" font-size="13" font-weight="bold" lengthAdjust="spacing" textLength="16" x="220" y="212.2842">alt</text><text fill="#000000" font-family="sans-serif" font-size="11" font-weight="bold" lengthAdjust="spacing" textLength="346" x="281" y="211.208">[if the responses are valid after executing the validation script]</text><polygon fill="#A80036" points="744,234.4922,754,238.4922,744,242.4922,748,238.4922" style="stroke:#A80036;stroke-width:1.0;"/><line style="stroke:#A80036;stroke-width:1.0;" x1="310" x2="750" y1="238.4922" y2="238.4922"/><text fill="#000000" font-family="sans-serif" font-size="13" font-weight="bold" lengthAdjust="spacing" textLength="7" x="317" y="233.6357">3</text><text fill="#000000" font-family="sans-serif" font-size="13" lengthAdjust="spacing" textLength="52" x="328" y="233.6357">save(res)</text><polygon fill="#A80036" points="321,264.8438,311,268.8438,321,272.8438,317,268.8438" style="stroke:#A80036;stroke-width:1.0;"/><line style="stroke:#A80036;stroke-width:1.0;stroke-dasharray:2.0,2.0;" x1="315" x2="760" y1="268.8438" y2="268.8438"/><text fill="#000000" font-family="sans-serif" font-size="13" font-weight="bold" lengthAdjust="spacing" textLength="7" x="327" y="263.9873">4</text><text fill="#000000" font-family="sans-serif" font-size="13" lengthAdjust="spacing" textLength="53" x="338" y="263.9873">response</text><polygon fill="#A80036" points="11,302.1953,1,306.1953,11,310.1953,7,306.1953" style="stroke:#A80036;stroke-width:1.0;"/><line style="stroke:#A80036;stroke-width:1.0;" x1="5" x2="304" y1="306.1953" y2="306.1953"/><text fill="#000000" font-family="sans-serif" font-size="13" font-weight="bold" lengthAdjust="spacing" textLength="7" x="17" y="301.3389">5</text><text fill="#000000" font-family="sans-serif" font-size="13" lengthAdjust="spacing" textLength="53" x="28" y="301.3389">response</text><!--MD5=[5ffd803bed74456b3e847be70f900eed]
@startuml
autonumber
hide footbox

participant "<<application>>\nServiceSolicitationService" as SRV
participant "<<domain>>\nResponse" as RS
database "<<repository>>\nResponseRepository" as RR
participant "<<persistence>>\nPersistenceContext" as PC
participant "<<persistence>>\nAppSettings" as AS
participant "<<factory>>\nRepositoryFactory" as RF
participant "<<domain>>\nAttribute" as A
participant "<<domain>>\nForm" as F

[o-> SRV : createAndValidateResponse(form, lstAnswer)
activate SRV

SRV -> RS** : res = createResponse(form, lstReponses)

alt if the responses are valid after executing the validation script

SRV -> RR : save(res)
activate RR

RR - -> SRV : response
deactivate RR

end

<- SRV : response
deactivate SRV

@enduml

PlantUML version 1.2021.7(Sun May 23 13:40:07 BST 2021)
(GPL source distribution)
Java Runtime: OpenJDK Runtime Environment
JVM: Dynamic Code Evolution 64-Bit Server VM
Default Encoding: Cp1252
Language: pt
Country: PT
--></g></svg>