<?xml version="1.0" encoding="UTF-8" standalone="no"?><svg xmlns="http://www.w3.org/2000/svg" xmlns:xlink="http://www.w3.org/1999/xlink" contentScriptType="application/ecmascript" contentStyleType="text/css" height="439px" preserveAspectRatio="none" style="width:1616px;height:439px;background:#FFFFFF;" version="1.1" viewBox="0 0 1616 439" width="1616px" zoomAndPan="magnify"><defs><filter height="300%" id="ftgc87upazca5" width="300%" x="-1" y="-1"><feGaussianBlur result="blurOut" stdDeviation="2.0"/><feColorMatrix in="blurOut" result="blurOut2" type="matrix" values="0 0 0 0 0 0 0 0 0 0 0 0 0 0 0 0 0 0 .4 0"/><feOffset dx="4.0" dy="4.0" in="blurOut2" result="blurOut3"/><feBlend in="SourceGraphic" in2="blurOut3" mode="normal"/></filter></defs><g><rect fill="#FFFFFF" filter="url(#ftgc87upazca5)" height="289.0313" style="stroke:#A80036;stroke-width:1.0;" width="10" x="307" y="118.5703"/><rect fill="#FFFFFF" filter="url(#ftgc87upazca5)" height="78.0547" style="stroke:#A80036;stroke-width:1.0;" width="10" x="754" y="213.1406"/><rect fill="#FFFFFF" filter="url(#ftgc87upazca5)" height="30.3516" style="stroke:#A80036;stroke-width:1.0;" width="10" x="893" y="346.8984"/><rect fill="#FFFFFF" filter="url(#ftgc87upazca5)" height="109.4063" style="stroke:#000000;stroke-width:2.0;" width="974" x="3" y="306.1953"/><line style="stroke:#A80036;stroke-width:1.0;stroke-dasharray:5.0,5.0;" x1="312" x2="312" y1="86.2188" y2="432.6016"/><line style="stroke:#A80036;stroke-width:1.0;stroke-dasharray:5.0,5.0;" x1="641" x2="641" y1="168.6797" y2="432.6016"/><line style="stroke:#A80036;stroke-width:1.0;stroke-dasharray:5.0,5.0;" x1="759" x2="759" y1="86.2188" y2="432.6016"/><line style="stroke:#A80036;stroke-width:1.0;stroke-dasharray:5.0,5.0;" x1="898" x2="898" y1="86.2188" y2="432.6016"/><line style="stroke:#A80036;stroke-width:1.0;stroke-dasharray:5.0,5.0;" x1="1047" x2="1047" y1="86.2188" y2="432.6016"/><line style="stroke:#A80036;stroke-width:1.0;stroke-dasharray:5.0,5.0;" x1="1188" x2="1188" y1="86.2188" y2="432.6016"/><line style="stroke:#A80036;stroke-width:1.0;stroke-dasharray:5.0,5.0;" x1="1327" x2="1327" y1="86.2188" y2="432.6016"/><line style="stroke:#A80036;stroke-width:1.0;stroke-dasharray:5.0,5.0;" x1="1452" x2="1452" y1="86.2188" y2="432.6016"/><line style="stroke:#A80036;stroke-width:1.0;stroke-dasharray:5.0,5.0;" x1="1558" x2="1558" y1="86.2188" y2="432.6016"/><rect fill="#FEFECE" filter="url(#ftgc87upazca5)" height="49.2188" style="stroke:#A80036;stroke-width:1.5;" width="176" x="222" y="32"/><text fill="#000000" font-family="sans-serif" font-size="14" lengthAdjust="spacing" textLength="100" x="260" y="53.5332">&lt;&lt;application&gt;&gt;</text><text fill="#000000" font-family="sans-serif" font-size="14" lengthAdjust="spacing" textLength="162" x="229" y="71.1426">ServiceSolicitationService</text><rect fill="#FEFECE" filter="url(#ftgc87upazca5)" height="49.2188" style="stroke:#A80036;stroke-width:1.5;" width="116" x="699" y="32"/><text fill="#000000" font-family="sans-serif" font-size="14" lengthAdjust="spacing" textLength="88" x="713" y="53.5332">&lt;&lt;grammar&gt;&gt;</text><text fill="#000000" font-family="sans-serif" font-size="14" lengthAdjust="spacing" textLength="102" x="706" y="71.1426">ScriptAlgorithms</text><text fill="#000000" font-family="sans-serif" font-size="14" lengthAdjust="spacing" textLength="95" x="847.5" y="65.5332">&lt;&lt;repository&gt;&gt;</text><text fill="#000000" font-family="sans-serif" font-size="14" lengthAdjust="spacing" textLength="132" x="829" y="83.1426">ResponseRepository</text><path d="M880,15 C880,5 898,5 898,5 C898,5 916,5 916,15 L916,41 C916,51 898,51 898,51 C898,51 880,51 880,41 L880,15 " fill="#FEFECE" filter="url(#ftgc87upazca5)" style="stroke:#000000;stroke-width:1.5;"/><path d="M880,15 C880,25 898,25 898,25 C898,25 916,25 916,15 " fill="none" style="stroke:#000000;stroke-width:1.5;"/><rect fill="#FEFECE" filter="url(#ftgc87upazca5)" height="49.2188" style="stroke:#A80036;stroke-width:1.5;" width="136" x="977" y="32"/><text fill="#000000" font-family="sans-serif" font-size="14" lengthAdjust="spacing" textLength="105" x="992.5" y="53.5332">&lt;&lt;persistence&gt;&gt;</text><text fill="#000000" font-family="sans-serif" font-size="14" lengthAdjust="spacing" textLength="122" x="984" y="71.1426">PersistenceContext</text><rect fill="#FEFECE" filter="url(#ftgc87upazca5)" height="49.2188" style="stroke:#A80036;stroke-width:1.5;" width="119" x="1127" y="32"/><text fill="#000000" font-family="sans-serif" font-size="14" lengthAdjust="spacing" textLength="105" x="1134" y="53.5332">&lt;&lt;persistence&gt;&gt;</text><text fill="#000000" font-family="sans-serif" font-size="14" lengthAdjust="spacing" textLength="76" x="1148.5" y="71.1426">AppSettings</text><rect fill="#FEFECE" filter="url(#ftgc87upazca5)" height="49.2188" style="stroke:#A80036;stroke-width:1.5;" width="130" x="1260" y="32"/><text fill="#000000" font-family="sans-serif" font-size="14" lengthAdjust="spacing" textLength="75" x="1287.5" y="53.5332">&lt;&lt;factory&gt;&gt;</text><text fill="#000000" font-family="sans-serif" font-size="14" lengthAdjust="spacing" textLength="116" x="1267" y="71.1426">RepositoryFactory</text><rect fill="#FEFECE" filter="url(#ftgc87upazca5)" height="49.2188" style="stroke:#A80036;stroke-width:1.5;" width="92" x="1404" y="32"/><text fill="#000000" font-family="sans-serif" font-size="14" lengthAdjust="spacing" textLength="78" x="1411" y="53.5332">&lt;&lt;domain&gt;&gt;</text><text fill="#000000" font-family="sans-serif" font-size="14" lengthAdjust="spacing" textLength="53" x="1423.5" y="71.1426">Attribute</text><rect fill="#FEFECE" filter="url(#ftgc87upazca5)" height="49.2188" style="stroke:#A80036;stroke-width:1.5;" width="92" x="1510" y="32"/><text fill="#000000" font-family="sans-serif" font-size="14" lengthAdjust="spacing" textLength="78" x="1517" y="53.5332">&lt;&lt;domain&gt;&gt;</text><text fill="#000000" font-family="sans-serif" font-size="14" lengthAdjust="spacing" textLength="33" x="1539.5" y="71.1426">Form</text><rect fill="#FFFFFF" filter="url(#ftgc87upazca5)" height="289.0313" style="stroke:#A80036;stroke-width:1.0;" width="10" x="307" y="118.5703"/><rect fill="#FFFFFF" filter="url(#ftgc87upazca5)" height="78.0547" style="stroke:#A80036;stroke-width:1.0;" width="10" x="754" y="213.1406"/><rect fill="#FFFFFF" filter="url(#ftgc87upazca5)" height="30.3516" style="stroke:#A80036;stroke-width:1.0;" width="10" x="893" y="346.8984"/><ellipse cx="7.5" cy="117.8203" rx="4" ry="4" style="stroke:#A80036;stroke-width:1.5;fill:none;"/><polygon fill="#A80036" points="295,114.5703,305,118.5703,295,122.5703,299,118.5703" style="stroke:#A80036;stroke-width:1.0;"/><line style="stroke:#A80036;stroke-width:1.0;" x1="12" x2="301" y1="118.5703" y2="118.5703"/><text fill="#000000" font-family="sans-serif" font-size="13" font-weight="bold" lengthAdjust="spacing" textLength="7" x="15" y="113.7139">1</text><text fill="#000000" font-family="sans-serif" font-size="13" lengthAdjust="spacing" textLength="262" x="26" y="113.7139">createAndValidateResponse(form, lstAnswer)</text><polygon fill="#A80036" points="581,144.9219,591,148.9219,581,152.9219,585,148.9219" style="stroke:#A80036;stroke-width:1.0;"/><line style="stroke:#A80036;stroke-width:1.0;" x1="317" x2="587" y1="148.9219" y2="148.9219"/><text fill="#000000" font-family="sans-serif" font-size="13" font-weight="bold" lengthAdjust="spacing" textLength="7" x="324" y="144.0654">2</text><text fill="#000000" font-family="sans-serif" font-size="13" lengthAdjust="spacing" textLength="241" x="335" y="144.0654">res = createResponse(form, lstReponses)</text><rect fill="#FEFECE" filter="url(#ftgc87upazca5)" height="49.2188" style="stroke:#A80036;stroke-width:1.5;" width="92" x="593" y="126.5703"/><text fill="#000000" font-family="sans-serif" font-size="14" lengthAdjust="spacing" textLength="78" x="600" y="148.1035">&lt;&lt;domain&gt;&gt;</text><text fill="#000000" font-family="sans-serif" font-size="14" lengthAdjust="spacing" textLength="64" x="607" y="165.7129">Response</text><polygon fill="#A80036" points="742,209.1406,752,213.1406,742,217.1406,746,213.1406" style="stroke:#A80036;stroke-width:1.0;"/><line style="stroke:#A80036;stroke-width:1.0;" x1="317" x2="748" y1="213.1406" y2="213.1406"/><text fill="#000000" font-family="sans-serif" font-size="13" font-weight="bold" lengthAdjust="spacing" textLength="7" x="324" y="208.2842">3</text><text fill="#000000" font-family="sans-serif" font-size="13" lengthAdjust="spacing" textLength="224" x="335" y="208.2842">executeValidateForm(response, mode)</text><rect fill="#FFFFFF" filter="url(#ftgc87upazca5)" height="42.7031" style="stroke:#000000;stroke-width:2.0;" width="226" x="696" y="221.1406"/><polygon fill="#EEEEEE" points="696,221.1406,758,221.1406,758,229.1406,748,239.1406,696,239.1406,696,221.1406" style="stroke:#000000;stroke-width:2.0;"/><text fill="#000000" font-family="sans-serif" font-size="13" font-weight="bold" lengthAdjust="spacing" textLength="17" x="709" y="236.6357">ref</text><text fill="#000000" font-family="sans-serif" font-size="13" lengthAdjust="spacing" textLength="218" x="702" y="256.6357">US-0-1007_SD_ExecuteValidateForm</text><polygon fill="#A80036" points="328,287.1953,318,291.1953,328,295.1953,324,291.1953" style="stroke:#A80036;stroke-width:1.0;"/><line style="stroke:#A80036;stroke-width:1.0;stroke-dasharray:2.0,2.0;" x1="322" x2="758" y1="291.1953" y2="291.1953"/><text fill="#000000" font-family="sans-serif" font-size="13" font-weight="bold" lengthAdjust="spacing" textLength="7" x="334" y="286.3389">4</text><text fill="#000000" font-family="sans-serif" font-size="13" lengthAdjust="spacing" textLength="20" x="345" y="286.3389">flag</text><path d="M3,306.1953 L64,306.1953 L64,314.1953 L54,324.1953 L3,324.1953 L3,306.1953 " fill="#EEEEEE" style="stroke:#000000;stroke-width:1.0;"/><rect fill="none" height="109.4063" style="stroke:#000000;stroke-width:2.0;" width="974" x="3" y="306.1953"/><text fill="#000000" font-family="sans-serif" font-size="13" font-weight="bold" lengthAdjust="spacing" textLength="16" x="18" y="320.6904">alt</text><text fill="#000000" font-family="sans-serif" font-size="11" font-weight="bold" lengthAdjust="spacing" textLength="418" x="79" y="319.6143">[if the responses are valid after executing the validation script (flag == true)]</text><polygon fill="#A80036" points="881,342.8984,891,346.8984,881,350.8984,885,346.8984" style="stroke:#A80036;stroke-width:1.0;"/><line style="stroke:#A80036;stroke-width:1.0;" x1="317" x2="887" y1="346.8984" y2="346.8984"/><text fill="#000000" font-family="sans-serif" font-size="13" font-weight="bold" lengthAdjust="spacing" textLength="7" x="324" y="342.042">5</text><text fill="#000000" font-family="sans-serif" font-size="13" lengthAdjust="spacing" textLength="52" x="335" y="342.042">save(res)</text><polygon fill="#A80036" points="328,373.25,318,377.25,328,381.25,324,377.25" style="stroke:#A80036;stroke-width:1.0;"/><line style="stroke:#A80036;stroke-width:1.0;stroke-dasharray:2.0,2.0;" x1="322" x2="897" y1="377.25" y2="377.25"/><text fill="#000000" font-family="sans-serif" font-size="13" font-weight="bold" lengthAdjust="spacing" textLength="7" x="334" y="372.3936">6</text><text fill="#000000" font-family="sans-serif" font-size="13" lengthAdjust="spacing" textLength="53" x="345" y="372.3936">response</text><polygon fill="#A80036" points="11,403.6016,1,407.6016,11,411.6016,7,407.6016" style="stroke:#A80036;stroke-width:1.0;"/><line style="stroke:#A80036;stroke-width:1.0;" x1="5" x2="311" y1="407.6016" y2="407.6016"/><text fill="#000000" font-family="sans-serif" font-size="13" font-weight="bold" lengthAdjust="spacing" textLength="7" x="17" y="402.7451">7</text><text fill="#000000" font-family="sans-serif" font-size="13" lengthAdjust="spacing" textLength="53" x="28" y="402.7451">response</text><!--MD5=[2ae72bd04a483cfe62f326df1e81c718]
@startuml
autonumber
hide footbox

participant "<<application>>\nServiceSolicitationService" as SRV
participant "<<domain>>\nResponse" as RS
participant "<<grammar>>\nScriptAlgorithms" as SA
database "<<repository>>\nResponseRepository" as RR
participant "<<persistence>>\nPersistenceContext" as PC
participant "<<persistence>>\nAppSettings" as AS
participant "<<factory>>\nRepositoryFactory" as RF
participant "<<domain>>\nAttribute" as A
participant "<<domain>>\nForm" as F

[o-> SRV : createAndValidateResponse(form, lstAnswer)
activate SRV

SRV -> RS** : res = createResponse(form, lstReponses)

SRV -> SA : executeValidateForm(response, mode)
activate SA

ref over SA
  US-0-1007_SD_ExecuteValidateForm
end ref

SA - -> SRV : flag
deactivate SA

alt if the responses are valid after executing the validation script (flag == true)

SRV -> RR : save(res)
activate RR

RR - -> SRV : response
deactivate RR

<- SRV : response
deactivate SRV

end

@enduml

PlantUML version 1.2021.7(Sun May 23 13:40:07 BST 2021)
(GPL source distribution)
Java Runtime: OpenJDK Runtime Environment
JVM: Dynamic Code Evolution 64-Bit Server VM
Default Encoding: Cp1252
Language: pt
Country: PT
--></g></svg>