<?xml version="1.0" encoding="UTF-8" standalone="no"?><svg xmlns="http://www.w3.org/2000/svg" xmlns:xlink="http://www.w3.org/1999/xlink" contentScriptType="application/ecmascript" contentStyleType="text/css" height="1547px" preserveAspectRatio="none" style="width:3079px;height:1547px;" version="1.1" viewBox="0 0 3079 1547" width="3079px" zoomAndPan="magnify"><defs><filter height="300%" id="f5fsrjptcstxn" width="300%" x="-1" y="-1"><feGaussianBlur result="blurOut" stdDeviation="2.0"/><feColorMatrix in="blurOut" result="blurOut2" type="matrix" values="0 0 0 0 0 0 0 0 0 0 0 0 0 0 0 0 0 0 .4 0"/><feOffset dx="4.0" dy="4.0" in="blurOut2" result="blurOut3"/><feBlend in="SourceGraphic" in2="blurOut3" mode="normal"/></filter></defs><g><rect fill="#FFFFFF" filter="url(#f5fsrjptcstxn)" height="1423.3672" style="stroke:#A80036;stroke-width:1.0;" width="10" x="42.5" y="99.6094"/><rect fill="#FFFFFF" filter="url(#f5fsrjptcstxn)" height="263.6797" style="stroke:#A80036;stroke-width:1.0;" width="10" x="509.5" y="121.9609"/><rect fill="#FFFFFF" filter="url(#f5fsrjptcstxn)" height="151.7578" style="stroke:#A80036;stroke-width:1.0;" width="10" x="509.5" y="415.9922"/><rect fill="#FFFFFF" filter="url(#f5fsrjptcstxn)" height="30.3516" style="stroke:#A80036;stroke-width:1.0;" width="10" x="509.5" y="598.1016"/><rect fill="#FFFFFF" filter="url(#f5fsrjptcstxn)" height="55.7031" style="stroke:#A80036;stroke-width:1.0;" width="10" x="509.5" y="658.8047"/><rect fill="#FFFFFF" filter="url(#f5fsrjptcstxn)" height="148.4063" style="stroke:#A80036;stroke-width:1.0;" width="10" x="509.5" y="744.8594"/><rect fill="#FFFFFF" filter="url(#f5fsrjptcstxn)" height="400.8984" style="stroke:#A80036;stroke-width:1.0;" width="10" x="509.5" y="923.6172"/><rect fill="#FFFFFF" filter="url(#f5fsrjptcstxn)" height="168.1094" style="stroke:#A80036;stroke-width:1.0;" width="10" x="509.5" y="1354.8672"/><rect fill="#FFFFFF" filter="url(#f5fsrjptcstxn)" height="192.9766" style="stroke:#A80036;stroke-width:1.0;" width="10" x="854.5" y="162.3125"/><rect fill="#FFFFFF" filter="url(#f5fsrjptcstxn)" height="91.0547" style="stroke:#A80036;stroke-width:1.0;" width="10" x="854.5" y="446.3438"/><rect fill="#FFFFFF" filter="url(#f5fsrjptcstxn)" height="30" style="stroke:#A80036;stroke-width:1.0;" width="10" x="854.5" y="775.2109"/><rect fill="#FFFFFF" filter="url(#f5fsrjptcstxn)" height="30" style="stroke:#A80036;stroke-width:1.0;" width="10" x="854.5" y="953.9688"/><rect fill="#FFFFFF" filter="url(#f5fsrjptcstxn)" height="124.5703" style="stroke:#A80036;stroke-width:1.0;" width="10" x="854.5" y="1021.3203"/><rect fill="#FFFFFF" filter="url(#f5fsrjptcstxn)" height="94.5703" style="stroke:#A80036;stroke-width:1.0;" width="10" x="854.5" y="1183.2422"/><rect fill="#FFFFFF" filter="url(#f5fsrjptcstxn)" height="91.0547" style="stroke:#A80036;stroke-width:1.0;" width="10" x="854.5" y="1385.2188"/><rect fill="#FFFFFF" filter="url(#f5fsrjptcstxn)" height="30.3516" style="stroke:#A80036;stroke-width:1.0;" width="10" x="1031.5" y="294.5859"/><rect fill="#FFFFFF" filter="url(#f5fsrjptcstxn)" height="30.3516" style="stroke:#A80036;stroke-width:1.0;" width="10" x="1171.5" y="476.6953"/><rect fill="#FFFFFF" filter="url(#f5fsrjptcstxn)" height="30" style="stroke:#A80036;stroke-width:1.0;" width="10" x="1417" y="1115.8906"/><rect fill="#FFFFFF" filter="url(#f5fsrjptcstxn)" height="30.3516" style="stroke:#A80036;stroke-width:1.0;" width="10" x="1658" y="1415.5703"/><rect fill="#FFFFFF" filter="url(#f5fsrjptcstxn)" height="139.4063" style="stroke:#000000;stroke-width:2.0;" width="947" x="20" y="673.8047"/><rect fill="#FFFFFF" filter="url(#f5fsrjptcstxn)" height="326.6797" style="stroke:#000000;stroke-width:2.0;" width="1491" x="10" y="827.2109"/><rect fill="#FFFFFF" filter="url(#f5fsrjptcstxn)" height="139.4063" style="stroke:#000000;stroke-width:2.0;" width="947" x="20" y="852.5625"/><line style="stroke:#A80036;stroke-width:1.0;stroke-dasharray:5.0,5.0;" x1="47" x2="47" y1="89.6094" y2="1540.9766"/><line style="stroke:#A80036;stroke-width:1.0;stroke-dasharray:5.0,5.0;" x1="514" x2="514" y1="89.6094" y2="1540.9766"/><line style="stroke:#A80036;stroke-width:1.0;stroke-dasharray:5.0,5.0;" x1="859" x2="859" y1="172.0703" y2="1540.9766"/><line style="stroke:#A80036;stroke-width:1.0;stroke-dasharray:5.0,5.0;" x1="1036" x2="1036" y1="89.6094" y2="1540.9766"/><line style="stroke:#A80036;stroke-width:1.0;stroke-dasharray:5.0,5.0;" x1="1176" x2="1176" y1="89.6094" y2="1540.9766"/><line style="stroke:#A80036;stroke-width:1.0;stroke-dasharray:5.0,5.0;" x1="1295" x2="1295" y1="1071.4297" y2="1540.9766"/><line style="stroke:#A80036;stroke-width:1.0;stroke-dasharray:5.0,5.0;" x1="1422" x2="1422" y1="89.6094" y2="1540.9766"/><line style="stroke:#A80036;stroke-width:1.0;stroke-dasharray:5.0,5.0;" x1="1549" x2="1549" y1="1233.3516" y2="1540.9766"/><line style="stroke:#A80036;stroke-width:1.0;stroke-dasharray:5.0,5.0;" x1="1663" x2="1663" y1="89.6094" y2="1540.9766"/><line style="stroke:#A80036;stroke-width:1.0;stroke-dasharray:5.0,5.0;" x1="1799" x2="1799" y1="89.6094" y2="1540.9766"/><line style="stroke:#A80036;stroke-width:1.0;stroke-dasharray:5.0,5.0;" x1="1940" x2="1940" y1="89.6094" y2="1540.9766"/><line style="stroke:#A80036;stroke-width:1.0;stroke-dasharray:5.0,5.0;" x1="2079" x2="2079" y1="89.6094" y2="1540.9766"/><line style="stroke:#A80036;stroke-width:1.0;stroke-dasharray:5.0,5.0;" x1="2204" x2="2204" y1="89.6094" y2="1540.9766"/><line style="stroke:#A80036;stroke-width:1.0;stroke-dasharray:5.0,5.0;" x1="2310" x2="2310" y1="89.6094" y2="1540.9766"/><line style="stroke:#A80036;stroke-width:1.0;stroke-dasharray:5.0,5.0;" x1="2422" x2="2422" y1="89.6094" y2="1540.9766"/><line style="stroke:#A80036;stroke-width:1.0;stroke-dasharray:5.0,5.0;" x1="2543" x2="2543" y1="89.6094" y2="1540.9766"/><line style="stroke:#A80036;stroke-width:1.0;stroke-dasharray:5.0,5.0;" x1="2681" x2="2681" y1="89.6094" y2="1540.9766"/><line style="stroke:#A80036;stroke-width:1.0;stroke-dasharray:5.0,5.0;" x1="2809" x2="2809" y1="89.6094" y2="1540.9766"/><line style="stroke:#A80036;stroke-width:1.0;stroke-dasharray:5.0,5.0;" x1="2915" x2="2915" y1="89.6094" y2="1540.9766"/><line style="stroke:#A80036;stroke-width:1.0;stroke-dasharray:5.0,5.0;" x1="3021" x2="3021" y1="89.6094" y2="1540.9766"/><text fill="#000000" font-family="sans-serif" font-size="14" lengthAdjust="spacing" textLength="29" x="30" y="86.5332">User</text><ellipse cx="47.5" cy="15" fill="#FEFECE" filter="url(#f5fsrjptcstxn)" rx="8" ry="8" style="stroke:#A80036;stroke-width:2.0;"/><path d="M47.5,23 L47.5,50 M34.5,31 L60.5,31 M47.5,50 L34.5,65 M47.5,50 L60.5,65 " fill="none" filter="url(#f5fsrjptcstxn)" style="stroke:#A80036;stroke-width:2.0;"/><rect fill="#FEFECE" filter="url(#f5fsrjptcstxn)" height="49.2188" style="stroke:#A80036;stroke-width:1.5;" width="141" x="442" y="35.3906"/><text fill="#000000" font-family="sans-serif" font-size="14" lengthAdjust="spacing" textLength="111" x="457" y="56.9238">&lt;&lt;presentation&gt;&gt;</text><text fill="#000000" font-family="sans-serif" font-size="14" lengthAdjust="spacing" textLength="127" x="449" y="74.5332">ServiceSolicitationUI</text><text fill="#000000" font-family="sans-serif" font-size="14" lengthAdjust="spacing" textLength="95" x="986" y="68.9238">&lt;&lt;repository&gt;&gt;</text><text fill="#000000" font-family="sans-serif" font-size="14" lengthAdjust="spacing" textLength="133" x="967" y="86.5332">CatalogueRepository</text><path d="M1018.5,18.3906 C1018.5,8.3906 1036.5,8.3906 1036.5,8.3906 C1036.5,8.3906 1054.5,8.3906 1054.5,18.3906 L1054.5,44.3906 C1054.5,54.3906 1036.5,54.3906 1036.5,54.3906 C1036.5,54.3906 1018.5,54.3906 1018.5,44.3906 L1018.5,18.3906 " fill="#FEFECE" filter="url(#f5fsrjptcstxn)" style="stroke:#000000;stroke-width:1.5;"/><path d="M1018.5,18.3906 C1018.5,28.3906 1036.5,28.3906 1036.5,28.3906 C1036.5,28.3906 1054.5,28.3906 1054.5,18.3906 " fill="none" style="stroke:#000000;stroke-width:1.5;"/><text fill="#000000" font-family="sans-serif" font-size="14" lengthAdjust="spacing" textLength="95" x="1126" y="68.9238">&lt;&lt;repository&gt;&gt;</text><text fill="#000000" font-family="sans-serif" font-size="14" lengthAdjust="spacing" textLength="115" x="1116" y="86.5332">ServiceRepository</text><path d="M1158.5,18.3906 C1158.5,8.3906 1176.5,8.3906 1176.5,8.3906 C1176.5,8.3906 1194.5,8.3906 1194.5,18.3906 L1194.5,44.3906 C1194.5,54.3906 1176.5,54.3906 1176.5,54.3906 C1176.5,54.3906 1158.5,54.3906 1158.5,44.3906 L1158.5,18.3906 " fill="#FEFECE" filter="url(#f5fsrjptcstxn)" style="stroke:#000000;stroke-width:1.5;"/><path d="M1158.5,18.3906 C1158.5,28.3906 1176.5,28.3906 1176.5,28.3906 C1176.5,28.3906 1194.5,28.3906 1194.5,18.3906 " fill="none" style="stroke:#000000;stroke-width:1.5;"/><text fill="#000000" font-family="sans-serif" font-size="14" lengthAdjust="spacing" textLength="95" x="1371.5" y="68.9238">&lt;&lt;repository&gt;&gt;</text><text fill="#000000" font-family="sans-serif" font-size="14" lengthAdjust="spacing" textLength="132" x="1353" y="86.5332">ResponseRepository</text><path d="M1404,18.3906 C1404,8.3906 1422,8.3906 1422,8.3906 C1422,8.3906 1440,8.3906 1440,18.3906 L1440,44.3906 C1440,54.3906 1422,54.3906 1422,54.3906 C1422,54.3906 1404,54.3906 1404,44.3906 L1404,18.3906 " fill="#FEFECE" filter="url(#f5fsrjptcstxn)" style="stroke:#000000;stroke-width:1.5;"/><path d="M1404,18.3906 C1404,28.3906 1422,28.3906 1422,28.3906 C1422,28.3906 1440,28.3906 1440,18.3906 " fill="none" style="stroke:#000000;stroke-width:1.5;"/><text fill="#000000" font-family="sans-serif" font-size="14" lengthAdjust="spacing" textLength="95" x="1612.5" y="68.9238">&lt;&lt;repository&gt;&gt;</text><text fill="#000000" font-family="sans-serif" font-size="14" lengthAdjust="spacing" textLength="106" x="1607" y="86.5332">TicketRepository</text><path d="M1645,18.3906 C1645,8.3906 1663,8.3906 1663,8.3906 C1663,8.3906 1681,8.3906 1681,18.3906 L1681,44.3906 C1681,54.3906 1663,54.3906 1663,54.3906 C1663,54.3906 1645,54.3906 1645,44.3906 L1645,18.3906 " fill="#FEFECE" filter="url(#f5fsrjptcstxn)" style="stroke:#000000;stroke-width:1.5;"/><path d="M1645,18.3906 C1645,28.3906 1663,28.3906 1663,28.3906 C1663,28.3906 1681,28.3906 1681,18.3906 " fill="none" style="stroke:#000000;stroke-width:1.5;"/><rect fill="#FEFECE" filter="url(#f5fsrjptcstxn)" height="49.2188" style="stroke:#A80036;stroke-width:1.5;" width="136" x="1729" y="35.3906"/><text fill="#000000" font-family="sans-serif" font-size="14" lengthAdjust="spacing" textLength="105" x="1744.5" y="56.9238">&lt;&lt;persistence&gt;&gt;</text><text fill="#000000" font-family="sans-serif" font-size="14" lengthAdjust="spacing" textLength="122" x="1736" y="74.5332">PersistenceContext</text><rect fill="#FEFECE" filter="url(#f5fsrjptcstxn)" height="49.2188" style="stroke:#A80036;stroke-width:1.5;" width="119" x="1879" y="35.3906"/><text fill="#000000" font-family="sans-serif" font-size="14" lengthAdjust="spacing" textLength="105" x="1886" y="56.9238">&lt;&lt;persistence&gt;&gt;</text><text fill="#000000" font-family="sans-serif" font-size="14" lengthAdjust="spacing" textLength="76" x="1900.5" y="74.5332">AppSettings</text><rect fill="#FEFECE" filter="url(#f5fsrjptcstxn)" height="49.2188" style="stroke:#A80036;stroke-width:1.5;" width="130" x="2012" y="35.3906"/><text fill="#000000" font-family="sans-serif" font-size="14" lengthAdjust="spacing" textLength="75" x="2039.5" y="56.9238">&lt;&lt;factory&gt;&gt;</text><text fill="#000000" font-family="sans-serif" font-size="14" lengthAdjust="spacing" textLength="116" x="2019" y="74.5332">RepositoryFactory</text><rect fill="#FEFECE" filter="url(#f5fsrjptcstxn)" height="49.2188" style="stroke:#A80036;stroke-width:1.5;" width="92" x="2156" y="35.3906"/><text fill="#000000" font-family="sans-serif" font-size="14" lengthAdjust="spacing" textLength="78" x="2163" y="56.9238">&lt;&lt;domain&gt;&gt;</text><text fill="#000000" font-family="sans-serif" font-size="14" lengthAdjust="spacing" textLength="65" x="2169.5" y="74.5332">Catalogue</text><rect fill="#FEFECE" filter="url(#f5fsrjptcstxn)" height="49.2188" style="stroke:#A80036;stroke-width:1.5;" width="92" x="2262" y="35.3906"/><text fill="#000000" font-family="sans-serif" font-size="14" lengthAdjust="spacing" textLength="78" x="2269" y="56.9238">&lt;&lt;domain&gt;&gt;</text><text fill="#000000" font-family="sans-serif" font-size="14" lengthAdjust="spacing" textLength="47" x="2284.5" y="74.5332">Service</text><rect fill="#FEFECE" filter="url(#f5fsrjptcstxn)" height="49.2188" style="stroke:#A80036;stroke-width:1.5;" width="104" x="2368" y="35.3906"/><text fill="#000000" font-family="sans-serif" font-size="14" lengthAdjust="spacing" textLength="78" x="2381" y="56.9238">&lt;&lt;domain&gt;&gt;</text><text fill="#000000" font-family="sans-serif" font-size="14" lengthAdjust="spacing" textLength="90" x="2375" y="74.5332">TicketUrgency</text><rect fill="#FEFECE" filter="url(#f5fsrjptcstxn)" height="49.2188" style="stroke:#A80036;stroke-width:1.5;" width="111" x="2486" y="35.3906"/><text fill="#000000" font-family="sans-serif" font-size="14" lengthAdjust="spacing" textLength="78" x="2502.5" y="56.9238">&lt;&lt;domain&gt;&gt;</text><text fill="#000000" font-family="sans-serif" font-size="14" lengthAdjust="spacing" textLength="97" x="2493" y="74.5332">TicketLimitDate</text><rect fill="#FEFECE" filter="url(#f5fsrjptcstxn)" height="49.2188" style="stroke:#A80036;stroke-width:1.5;" width="136" x="2611" y="35.3906"/><text fill="#000000" font-family="sans-serif" font-size="14" lengthAdjust="spacing" textLength="78" x="2640" y="56.9238">&lt;&lt;domain&gt;&gt;</text><text fill="#000000" font-family="sans-serif" font-size="14" lengthAdjust="spacing" textLength="122" x="2618" y="74.5332">TicketCreationDate</text><rect fill="#FEFECE" filter="url(#f5fsrjptcstxn)" height="49.2188" style="stroke:#A80036;stroke-width:1.5;" width="92" x="2761" y="35.3906"/><text fill="#000000" font-family="sans-serif" font-size="14" lengthAdjust="spacing" textLength="78" x="2768" y="56.9238">&lt;&lt;domain&gt;&gt;</text><text fill="#000000" font-family="sans-serif" font-size="14" lengthAdjust="spacing" textLength="61" x="2776.5" y="74.5332">TicketFile</text><rect fill="#FEFECE" filter="url(#f5fsrjptcstxn)" height="49.2188" style="stroke:#A80036;stroke-width:1.5;" width="92" x="2867" y="35.3906"/><text fill="#000000" font-family="sans-serif" font-size="14" lengthAdjust="spacing" textLength="78" x="2874" y="56.9238">&lt;&lt;domain&gt;&gt;</text><text fill="#000000" font-family="sans-serif" font-size="14" lengthAdjust="spacing" textLength="53" x="2886.5" y="74.5332">Attribute</text><rect fill="#FEFECE" filter="url(#f5fsrjptcstxn)" height="49.2188" style="stroke:#A80036;stroke-width:1.5;" width="92" x="2973" y="35.3906"/><text fill="#000000" font-family="sans-serif" font-size="14" lengthAdjust="spacing" textLength="78" x="2980" y="56.9238">&lt;&lt;domain&gt;&gt;</text><text fill="#000000" font-family="sans-serif" font-size="14" lengthAdjust="spacing" textLength="33" x="3002.5" y="74.5332">Form</text><rect fill="#FFFFFF" filter="url(#f5fsrjptcstxn)" height="1423.3672" style="stroke:#A80036;stroke-width:1.0;" width="10" x="42.5" y="99.6094"/><rect fill="#FFFFFF" filter="url(#f5fsrjptcstxn)" height="263.6797" style="stroke:#A80036;stroke-width:1.0;" width="10" x="509.5" y="121.9609"/><rect fill="#FFFFFF" filter="url(#f5fsrjptcstxn)" height="151.7578" style="stroke:#A80036;stroke-width:1.0;" width="10" x="509.5" y="415.9922"/><rect fill="#FFFFFF" filter="url(#f5fsrjptcstxn)" height="30.3516" style="stroke:#A80036;stroke-width:1.0;" width="10" x="509.5" y="598.1016"/><rect fill="#FFFFFF" filter="url(#f5fsrjptcstxn)" height="55.7031" style="stroke:#A80036;stroke-width:1.0;" width="10" x="509.5" y="658.8047"/><rect fill="#FFFFFF" filter="url(#f5fsrjptcstxn)" height="148.4063" style="stroke:#A80036;stroke-width:1.0;" width="10" x="509.5" y="744.8594"/><rect fill="#FFFFFF" filter="url(#f5fsrjptcstxn)" height="400.8984" style="stroke:#A80036;stroke-width:1.0;" width="10" x="509.5" y="923.6172"/><rect fill="#FFFFFF" filter="url(#f5fsrjptcstxn)" height="168.1094" style="stroke:#A80036;stroke-width:1.0;" width="10" x="509.5" y="1354.8672"/><rect fill="#FFFFFF" filter="url(#f5fsrjptcstxn)" height="192.9766" style="stroke:#A80036;stroke-width:1.0;" width="10" x="854.5" y="162.3125"/><rect fill="#FFFFFF" filter="url(#f5fsrjptcstxn)" height="91.0547" style="stroke:#A80036;stroke-width:1.0;" width="10" x="854.5" y="446.3438"/><rect fill="#FFFFFF" filter="url(#f5fsrjptcstxn)" height="30" style="stroke:#A80036;stroke-width:1.0;" width="10" x="854.5" y="775.2109"/><rect fill="#FFFFFF" filter="url(#f5fsrjptcstxn)" height="30" style="stroke:#A80036;stroke-width:1.0;" width="10" x="854.5" y="953.9688"/><rect fill="#FFFFFF" filter="url(#f5fsrjptcstxn)" height="124.5703" style="stroke:#A80036;stroke-width:1.0;" width="10" x="854.5" y="1021.3203"/><rect fill="#FFFFFF" filter="url(#f5fsrjptcstxn)" height="94.5703" style="stroke:#A80036;stroke-width:1.0;" width="10" x="854.5" y="1183.2422"/><rect fill="#FFFFFF" filter="url(#f5fsrjptcstxn)" height="91.0547" style="stroke:#A80036;stroke-width:1.0;" width="10" x="854.5" y="1385.2188"/><rect fill="#FFFFFF" filter="url(#f5fsrjptcstxn)" height="30.3516" style="stroke:#A80036;stroke-width:1.0;" width="10" x="1031.5" y="294.5859"/><rect fill="#FFFFFF" filter="url(#f5fsrjptcstxn)" height="30.3516" style="stroke:#A80036;stroke-width:1.0;" width="10" x="1171.5" y="476.6953"/><rect fill="#FFFFFF" filter="url(#f5fsrjptcstxn)" height="30" style="stroke:#A80036;stroke-width:1.0;" width="10" x="1417" y="1115.8906"/><rect fill="#FFFFFF" filter="url(#f5fsrjptcstxn)" height="30.3516" style="stroke:#A80036;stroke-width:1.0;" width="10" x="1658" y="1415.5703"/><polygon fill="#A80036" points="497.5,117.9609,507.5,121.9609,497.5,125.9609,501.5,121.9609" style="stroke:#A80036;stroke-width:1.0;"/><line style="stroke:#A80036;stroke-width:1.0;" x1="52.5" x2="503.5" y1="121.9609" y2="121.9609"/><text fill="#000000" font-family="sans-serif" font-size="13" font-weight="bold" lengthAdjust="spacing" textLength="7" x="59.5" y="117.1045">1</text><text fill="#000000" font-family="sans-serif" font-size="13" lengthAdjust="spacing" textLength="257" x="70.5" y="117.1045">initiates a service solicitation request (ticket)</text><polygon fill="#A80036" points="750,148.3125,760,152.3125,750,156.3125,754,152.3125" style="stroke:#A80036;stroke-width:1.0;"/><line style="stroke:#A80036;stroke-width:1.0;" x1="519.5" x2="756" y1="152.3125" y2="152.3125"/><text fill="#000000" font-family="sans-serif" font-size="13" font-weight="bold" lengthAdjust="spacing" textLength="7" x="526.5" y="147.4561">2</text><text fill="#000000" font-family="sans-serif" font-size="13" lengthAdjust="spacing" textLength="36" x="537.5" y="147.4561">create</text><rect fill="#FEFECE" filter="url(#f5fsrjptcstxn)" height="49.2188" style="stroke:#A80036;stroke-width:1.5;" width="191" x="762" y="129.9609"/><text fill="#000000" font-family="sans-serif" font-size="14" lengthAdjust="spacing" textLength="100" x="807.5" y="151.4941">&lt;&lt;application&gt;&gt;</text><text fill="#000000" font-family="sans-serif" font-size="14" lengthAdjust="spacing" textLength="177" x="769" y="169.1035">ServiceSolicitationController</text><rect fill="#FFFFFF" filter="url(#f5fsrjptcstxn)" height="42.7031" style="stroke:#000000;stroke-width:2.0;" width="197" x="759" y="194.1797"/><polygon fill="#EEEEEE" points="759,194.1797,821,194.1797,821,202.1797,811,212.1797,759,212.1797,759,194.1797" style="stroke:#000000;stroke-width:2.0;"/><text fill="#000000" font-family="sans-serif" font-size="13" font-weight="bold" lengthAdjust="spacing" textLength="17" x="772" y="209.6748">ref</text><text fill="#000000" font-family="sans-serif" font-size="13" lengthAdjust="spacing" textLength="123" x="798" y="229.6748">US-1-2002_SD_Repo</text><polygon fill="#A80036" points="842.5,260.2344,852.5,264.2344,842.5,268.2344,846.5,264.2344" style="stroke:#A80036;stroke-width:1.0;"/><line style="stroke:#A80036;stroke-width:1.0;" x1="519.5" x2="848.5" y1="264.2344" y2="264.2344"/><text fill="#000000" font-family="sans-serif" font-size="13" font-weight="bold" lengthAdjust="spacing" textLength="7" x="526.5" y="259.3779">3</text><text fill="#000000" font-family="sans-serif" font-size="13" lengthAdjust="spacing" textLength="134" x="537.5" y="259.3779">getCataloguesByUser()</text><polygon fill="#A80036" points="1019.5,290.5859,1029.5,294.5859,1019.5,298.5859,1023.5,294.5859" style="stroke:#A80036;stroke-width:1.0;"/><line style="stroke:#A80036;stroke-width:1.0;" x1="864.5" x2="1025.5" y1="294.5859" y2="294.5859"/><text fill="#000000" font-family="sans-serif" font-size="13" font-weight="bold" lengthAdjust="spacing" textLength="7" x="871.5" y="289.7295">4</text><text fill="#000000" font-family="sans-serif" font-size="13" lengthAdjust="spacing" textLength="96" x="882.5" y="289.7295">findByUser(user)</text><polygon fill="#A80036" points="875.5,320.9375,865.5,324.9375,875.5,328.9375,871.5,324.9375" style="stroke:#A80036;stroke-width:1.0;"/><line style="stroke:#A80036;stroke-width:1.0;stroke-dasharray:2.0,2.0;" x1="869.5" x2="1035.5" y1="324.9375" y2="324.9375"/><text fill="#000000" font-family="sans-serif" font-size="13" font-weight="bold" lengthAdjust="spacing" textLength="7" x="881.5" y="320.0811">5</text><text fill="#000000" font-family="sans-serif" font-size="13" lengthAdjust="spacing" textLength="63" x="892.5" y="320.0811">catalogues</text><polygon fill="#A80036" points="530.5,351.2891,520.5,355.2891,530.5,359.2891,526.5,355.2891" style="stroke:#A80036;stroke-width:1.0;"/><line style="stroke:#A80036;stroke-width:1.0;stroke-dasharray:2.0,2.0;" x1="524.5" x2="858.5" y1="355.2891" y2="355.2891"/><text fill="#000000" font-family="sans-serif" font-size="13" font-weight="bold" lengthAdjust="spacing" textLength="7" x="536.5" y="350.4326">6</text><text fill="#000000" font-family="sans-serif" font-size="13" lengthAdjust="spacing" textLength="63" x="547.5" y="350.4326">catalogues</text><polygon fill="#A80036" points="63.5,381.6406,53.5,385.6406,63.5,389.6406,59.5,385.6406" style="stroke:#A80036;stroke-width:1.0;"/><line style="stroke:#A80036;stroke-width:1.0;" x1="57.5" x2="513.5" y1="385.6406" y2="385.6406"/><text fill="#000000" font-family="sans-serif" font-size="13" font-weight="bold" lengthAdjust="spacing" textLength="7" x="69.5" y="380.7842">7</text><text fill="#000000" font-family="sans-serif" font-size="13" lengthAdjust="spacing" textLength="245" x="80.5" y="380.7842">shows the catalogues available to the user</text><polygon fill="#A80036" points="497.5,411.9922,507.5,415.9922,497.5,419.9922,501.5,415.9922" style="stroke:#A80036;stroke-width:1.0;"/><line style="stroke:#A80036;stroke-width:1.0;" x1="52.5" x2="503.5" y1="415.9922" y2="415.9922"/><text fill="#000000" font-family="sans-serif" font-size="13" font-weight="bold" lengthAdjust="spacing" textLength="7" x="59.5" y="411.1357">8</text><text fill="#000000" font-family="sans-serif" font-size="13" lengthAdjust="spacing" textLength="120" x="70.5" y="411.1357">chooses a catalogue</text><polygon fill="#A80036" points="842.5,442.3438,852.5,446.3438,842.5,450.3438,846.5,446.3438" style="stroke:#A80036;stroke-width:1.0;"/><line style="stroke:#A80036;stroke-width:1.0;" x1="519.5" x2="848.5" y1="446.3438" y2="446.3438"/><text fill="#000000" font-family="sans-serif" font-size="13" font-weight="bold" lengthAdjust="spacing" textLength="7" x="526.5" y="441.4873">9</text><text fill="#000000" font-family="sans-serif" font-size="13" lengthAdjust="spacing" textLength="214" x="537.5" y="441.4873">getServicesByCatalogue(oCatalogue)</text><polygon fill="#A80036" points="1159.5,472.6953,1169.5,476.6953,1159.5,480.6953,1163.5,476.6953" style="stroke:#A80036;stroke-width:1.0;"/><line style="stroke:#A80036;stroke-width:1.0;" x1="864.5" x2="1165.5" y1="476.6953" y2="476.6953"/><text fill="#000000" font-family="sans-serif" font-size="13" font-weight="bold" lengthAdjust="spacing" textLength="14" x="871.5" y="471.8389">10</text><text fill="#000000" font-family="sans-serif" font-size="13" lengthAdjust="spacing" textLength="167" x="889.5" y="471.8389">findByCatalogue(oCatalogue)</text><polygon fill="#A80036" points="875.5,503.0469,865.5,507.0469,875.5,511.0469,871.5,507.0469" style="stroke:#A80036;stroke-width:1.0;"/><line style="stroke:#A80036;stroke-width:1.0;stroke-dasharray:2.0,2.0;" x1="869.5" x2="1175.5" y1="507.0469" y2="507.0469"/><text fill="#000000" font-family="sans-serif" font-size="13" font-weight="bold" lengthAdjust="spacing" textLength="14" x="881.5" y="502.1904">11</text><text fill="#000000" font-family="sans-serif" font-size="13" lengthAdjust="spacing" textLength="47" x="899.5" y="502.1904">services</text><polygon fill="#A80036" points="530.5,533.3984,520.5,537.3984,530.5,541.3984,526.5,537.3984" style="stroke:#A80036;stroke-width:1.0;"/><line style="stroke:#A80036;stroke-width:1.0;stroke-dasharray:2.0,2.0;" x1="524.5" x2="858.5" y1="537.3984" y2="537.3984"/><text fill="#000000" font-family="sans-serif" font-size="13" font-weight="bold" lengthAdjust="spacing" textLength="14" x="536.5" y="532.542">12</text><text fill="#000000" font-family="sans-serif" font-size="13" lengthAdjust="spacing" textLength="47" x="554.5" y="532.542">services</text><polygon fill="#A80036" points="63.5,563.75,53.5,567.75,63.5,571.75,59.5,567.75" style="stroke:#A80036;stroke-width:1.0;"/><line style="stroke:#A80036;stroke-width:1.0;" x1="57.5" x2="513.5" y1="567.75" y2="567.75"/><text fill="#000000" font-family="sans-serif" font-size="13" font-weight="bold" lengthAdjust="spacing" textLength="14" x="69.5" y="562.8936">13</text><text fill="#000000" font-family="sans-serif" font-size="13" lengthAdjust="spacing" textLength="210" x="87.5" y="562.8936">shows the services in that catalogue</text><polygon fill="#A80036" points="497.5,594.1016,507.5,598.1016,497.5,602.1016,501.5,598.1016" style="stroke:#A80036;stroke-width:1.0;"/><line style="stroke:#A80036;stroke-width:1.0;" x1="52.5" x2="503.5" y1="598.1016" y2="598.1016"/><text fill="#000000" font-family="sans-serif" font-size="13" font-weight="bold" lengthAdjust="spacing" textLength="14" x="59.5" y="593.2451">14</text><text fill="#000000" font-family="sans-serif" font-size="13" lengthAdjust="spacing" textLength="104" x="77.5" y="593.2451">chooses a service</text><polygon fill="#A80036" points="63.5,624.4531,53.5,628.4531,63.5,632.4531,59.5,628.4531" style="stroke:#A80036;stroke-width:1.0;"/><line style="stroke:#A80036;stroke-width:1.0;" x1="57.5" x2="513.5" y1="628.4531" y2="628.4531"/><text fill="#000000" font-family="sans-serif" font-size="13" font-weight="bold" lengthAdjust="spacing" textLength="14" x="69.5" y="623.5967">15</text><text fill="#000000" font-family="sans-serif" font-size="13" lengthAdjust="spacing" textLength="415" x="87.5" y="623.5967">requests the user to submit the required information (urgency, limitDate)</text><polygon fill="#A80036" points="497.5,654.8047,507.5,658.8047,497.5,662.8047,501.5,658.8047" style="stroke:#A80036;stroke-width:1.0;"/><line style="stroke:#A80036;stroke-width:1.0;" x1="52.5" x2="503.5" y1="658.8047" y2="658.8047"/><text fill="#000000" font-family="sans-serif" font-size="13" font-weight="bold" lengthAdjust="spacing" textLength="14" x="59.5" y="653.9482">16</text><text fill="#000000" font-family="sans-serif" font-size="13" lengthAdjust="spacing" textLength="128" x="77.5" y="653.9482">inserts the information</text><path d="M20,673.8047 L93,673.8047 L93,681.8047 L83,691.8047 L20,691.8047 L20,673.8047 " fill="#EEEEEE" style="stroke:#000000;stroke-width:1.0;"/><rect fill="none" height="139.4063" style="stroke:#000000;stroke-width:2.0;" width="947" x="20" y="673.8047"/><text fill="#000000" font-family="sans-serif" font-size="13" font-weight="bold" lengthAdjust="spacing" textLength="28" x="35" y="688.2998">loop</text><text fill="#000000" font-family="sans-serif" font-size="11" font-weight="bold" lengthAdjust="spacing" textLength="263" x="108" y="687.2236">[until the user doesnt have more files to attach]</text><polygon fill="#A80036" points="63.5,710.5078,53.5,714.5078,63.5,718.5078,59.5,714.5078" style="stroke:#A80036;stroke-width:1.0;"/><line style="stroke:#A80036;stroke-width:1.0;" x1="57.5" x2="513.5" y1="714.5078" y2="714.5078"/><text fill="#000000" font-family="sans-serif" font-size="13" font-weight="bold" lengthAdjust="spacing" textLength="14" x="69.5" y="709.6514">17</text><text fill="#000000" font-family="sans-serif" font-size="13" lengthAdjust="spacing" textLength="165" x="87.5" y="709.6514">asks the user to attach a file</text><polygon fill="#A80036" points="497.5,740.8594,507.5,744.8594,497.5,748.8594,501.5,744.8594" style="stroke:#A80036;stroke-width:1.0;"/><line style="stroke:#A80036;stroke-width:1.0;" x1="52.5" x2="503.5" y1="744.8594" y2="744.8594"/><text fill="#000000" font-family="sans-serif" font-size="13" font-weight="bold" lengthAdjust="spacing" textLength="14" x="59.5" y="740.0029">18</text><text fill="#000000" font-family="sans-serif" font-size="13" lengthAdjust="spacing" textLength="81" x="77.5" y="740.0029">attaches a file</text><polygon fill="#A80036" points="842.5,771.2109,852.5,775.2109,842.5,779.2109,846.5,775.2109" style="stroke:#A80036;stroke-width:1.0;"/><line style="stroke:#A80036;stroke-width:1.0;" x1="519.5" x2="848.5" y1="775.2109" y2="775.2109"/><text fill="#000000" font-family="sans-serif" font-size="13" font-weight="bold" lengthAdjust="spacing" textLength="14" x="526.5" y="770.3545">19</text><text fill="#000000" font-family="sans-serif" font-size="13" lengthAdjust="spacing" textLength="66" x="544.5" y="770.3545">addFile(file)</text><path d="M10,827.2109 L83,827.2109 L83,835.2109 L73,845.2109 L10,845.2109 L10,827.2109 " fill="#EEEEEE" style="stroke:#000000;stroke-width:1.0;"/><rect fill="none" height="326.6797" style="stroke:#000000;stroke-width:2.0;" width="1491" x="10" y="827.2109"/><text fill="#000000" font-family="sans-serif" font-size="13" font-weight="bold" lengthAdjust="spacing" textLength="28" x="25" y="841.7061">loop</text><text fill="#000000" font-family="sans-serif" font-size="11" font-weight="bold" lengthAdjust="spacing" textLength="232" x="98" y="840.6299">[until there are no more forms to answer]</text><path d="M20,852.5625 L93,852.5625 L93,860.5625 L83,870.5625 L20,870.5625 L20,852.5625 " fill="#EEEEEE" style="stroke:#000000;stroke-width:1.0;"/><rect fill="none" height="139.4063" style="stroke:#000000;stroke-width:2.0;" width="947" x="20" y="852.5625"/><text fill="#000000" font-family="sans-serif" font-size="13" font-weight="bold" lengthAdjust="spacing" textLength="28" x="35" y="867.0576">loop</text><text fill="#000000" font-family="sans-serif" font-size="11" font-weight="bold" lengthAdjust="spacing" textLength="257" x="108" y="865.9814">[until there are no more attributes in the form]</text><polygon fill="#A80036" points="63.5,889.2656,53.5,893.2656,63.5,897.2656,59.5,893.2656" style="stroke:#A80036;stroke-width:1.0;"/><line style="stroke:#A80036;stroke-width:1.0;" x1="57.5" x2="513.5" y1="893.2656" y2="893.2656"/><text fill="#000000" font-family="sans-serif" font-size="13" font-weight="bold" lengthAdjust="spacing" textLength="14" x="69.5" y="888.4092">20</text><text fill="#000000" font-family="sans-serif" font-size="13" lengthAdjust="spacing" textLength="222" x="87.5" y="888.4092">requests the input for a form's attribute</text><polygon fill="#A80036" points="497.5,919.6172,507.5,923.6172,497.5,927.6172,501.5,923.6172" style="stroke:#A80036;stroke-width:1.0;"/><line style="stroke:#A80036;stroke-width:1.0;" x1="52.5" x2="503.5" y1="923.6172" y2="923.6172"/><text fill="#000000" font-family="sans-serif" font-size="13" font-weight="bold" lengthAdjust="spacing" textLength="14" x="59.5" y="918.7607">21</text><text fill="#000000" font-family="sans-serif" font-size="13" lengthAdjust="spacing" textLength="48" x="77.5" y="918.7607">answers</text><polygon fill="#A80036" points="842.5,949.9688,852.5,953.9688,842.5,957.9688,846.5,953.9688" style="stroke:#A80036;stroke-width:1.0;"/><line style="stroke:#A80036;stroke-width:1.0;" x1="519.5" x2="848.5" y1="953.9688" y2="953.9688"/><text fill="#000000" font-family="sans-serif" font-size="13" font-weight="bold" lengthAdjust="spacing" textLength="14" x="526.5" y="949.1123">22</text><text fill="#000000" font-family="sans-serif" font-size="13" lengthAdjust="spacing" textLength="140" x="544.5" y="949.1123">addResponse(response)</text><polygon fill="#A80036" points="842.5,1017.3203,852.5,1021.3203,842.5,1025.3203,846.5,1021.3203" style="stroke:#A80036;stroke-width:1.0;"/><line style="stroke:#A80036;stroke-width:1.0;" x1="519.5" x2="848.5" y1="1021.3203" y2="1021.3203"/><text fill="#000000" font-family="sans-serif" font-size="13" font-weight="bold" lengthAdjust="spacing" textLength="14" x="526.5" y="1016.4639">23</text><text fill="#000000" font-family="sans-serif" font-size="13" lengthAdjust="spacing" textLength="127" x="544.5" y="1016.4639">createResponse(form)</text><polygon fill="#A80036" points="1235,1047.6719,1245,1051.6719,1235,1055.6719,1239,1051.6719" style="stroke:#A80036;stroke-width:1.0;"/><line style="stroke:#A80036;stroke-width:1.0;" x1="864.5" x2="1241" y1="1051.6719" y2="1051.6719"/><text fill="#000000" font-family="sans-serif" font-size="13" font-weight="bold" lengthAdjust="spacing" textLength="14" x="871.5" y="1046.8154">24</text><text fill="#000000" font-family="sans-serif" font-size="13" lengthAdjust="spacing" textLength="161" x="889.5" y="1046.8154">res = createResponse(form)</text><rect fill="#FEFECE" filter="url(#f5fsrjptcstxn)" height="49.2188" style="stroke:#A80036;stroke-width:1.5;" width="92" x="1247" y="1029.3203"/><text fill="#000000" font-family="sans-serif" font-size="14" lengthAdjust="spacing" textLength="78" x="1254" y="1050.8535">&lt;&lt;domain&gt;&gt;</text><text fill="#000000" font-family="sans-serif" font-size="14" lengthAdjust="spacing" textLength="64" x="1261" y="1068.4629">Response</text><polygon fill="#A80036" points="1405,1111.8906,1415,1115.8906,1405,1119.8906,1409,1115.8906" style="stroke:#A80036;stroke-width:1.0;"/><line style="stroke:#A80036;stroke-width:1.0;" x1="864.5" x2="1411" y1="1115.8906" y2="1115.8906"/><text fill="#000000" font-family="sans-serif" font-size="13" font-weight="bold" lengthAdjust="spacing" textLength="14" x="871.5" y="1111.0342">25</text><text fill="#000000" font-family="sans-serif" font-size="13" lengthAdjust="spacing" textLength="52" x="889.5" y="1111.0342">save(res)</text><polygon fill="#A80036" points="842.5,1179.2422,852.5,1183.2422,842.5,1187.2422,846.5,1183.2422" style="stroke:#A80036;stroke-width:1.0;"/><line style="stroke:#A80036;stroke-width:1.0;" x1="519.5" x2="848.5" y1="1183.2422" y2="1183.2422"/><text fill="#000000" font-family="sans-serif" font-size="13" font-weight="bold" lengthAdjust="spacing" textLength="14" x="526.5" y="1178.3857">26</text><text fill="#000000" font-family="sans-serif" font-size="13" lengthAdjust="spacing" textLength="298" x="544.5" y="1178.3857">addTicket(service, urgency, limitDate, creationDate)</text><polygon fill="#A80036" points="1489,1209.5938,1499,1213.5938,1489,1217.5938,1493,1213.5938" style="stroke:#A80036;stroke-width:1.0;"/><line style="stroke:#A80036;stroke-width:1.0;" x1="864.5" x2="1495" y1="1213.5938" y2="1213.5938"/><text fill="#000000" font-family="sans-serif" font-size="13" font-weight="bold" lengthAdjust="spacing" textLength="14" x="871.5" y="1208.7373">27</text><text fill="#000000" font-family="sans-serif" font-size="13" lengthAdjust="spacing" textLength="415" x="889.5" y="1208.7373">create(urgency, limitDate, creationDate, lstResponses, lstFiles, service)</text><rect fill="#FEFECE" filter="url(#f5fsrjptcstxn)" height="49.2188" style="stroke:#A80036;stroke-width:1.5;" width="92" x="1501" y="1191.2422"/><text fill="#000000" font-family="sans-serif" font-size="14" lengthAdjust="spacing" textLength="78" x="1508" y="1212.7754">&lt;&lt;domain&gt;&gt;</text><text fill="#000000" font-family="sans-serif" font-size="14" lengthAdjust="spacing" textLength="38" x="1528" y="1230.3848">Ticket</text><polygon fill="#A80036" points="530.5,1273.8125,520.5,1277.8125,530.5,1281.8125,526.5,1277.8125" style="stroke:#A80036;stroke-width:1.0;"/><line style="stroke:#A80036;stroke-width:1.0;stroke-dasharray:2.0,2.0;" x1="524.5" x2="858.5" y1="1277.8125" y2="1277.8125"/><text fill="#000000" font-family="sans-serif" font-size="13" font-weight="bold" lengthAdjust="spacing" textLength="14" x="536.5" y="1272.9561">28</text><text fill="#000000" font-family="sans-serif" font-size="13" lengthAdjust="spacing" textLength="32" x="554.5" y="1272.9561">ticket</text><polygon fill="#A80036" points="63.5,1320.5156,53.5,1324.5156,63.5,1328.5156,59.5,1324.5156" style="stroke:#A80036;stroke-width:1.0;"/><line style="stroke:#A80036;stroke-width:1.0;" x1="57.5" x2="513.5" y1="1324.5156" y2="1324.5156"/><text fill="#000000" font-family="sans-serif" font-size="13" font-weight="bold" lengthAdjust="spacing" textLength="14" x="69.5" y="1311.4834">29</text><text fill="#000000" font-family="sans-serif" font-size="13" lengthAdjust="spacing" textLength="174" x="87.5" y="1303.3076">validates, presents the current</text><text fill="#000000" font-family="sans-serif" font-size="13" lengthAdjust="spacing" textLength="284" x="87.5" y="1319.6592">information in the ticket and asks for confirmation</text><polygon fill="#A80036" points="497.5,1350.8672,507.5,1354.8672,497.5,1358.8672,501.5,1354.8672" style="stroke:#A80036;stroke-width:1.0;"/><line style="stroke:#A80036;stroke-width:1.0;" x1="52.5" x2="503.5" y1="1354.8672" y2="1354.8672"/><text fill="#000000" font-family="sans-serif" font-size="13" font-weight="bold" lengthAdjust="spacing" textLength="14" x="59.5" y="1350.0107">30</text><text fill="#000000" font-family="sans-serif" font-size="13" lengthAdjust="spacing" textLength="49" x="77.5" y="1350.0107">confirms</text><polygon fill="#A80036" points="842.5,1381.2188,852.5,1385.2188,842.5,1389.2188,846.5,1385.2188" style="stroke:#A80036;stroke-width:1.0;"/><line style="stroke:#A80036;stroke-width:1.0;" x1="519.5" x2="848.5" y1="1385.2188" y2="1385.2188"/><text fill="#000000" font-family="sans-serif" font-size="13" font-weight="bold" lengthAdjust="spacing" textLength="14" x="526.5" y="1380.3623">31</text><text fill="#000000" font-family="sans-serif" font-size="13" lengthAdjust="spacing" textLength="101" x="544.5" y="1380.3623">saveTicket(ticket)</text><polygon fill="#A80036" points="1646,1411.5703,1656,1415.5703,1646,1419.5703,1650,1415.5703" style="stroke:#A80036;stroke-width:1.0;"/><line style="stroke:#A80036;stroke-width:1.0;" x1="864.5" x2="1652" y1="1415.5703" y2="1415.5703"/><text fill="#000000" font-family="sans-serif" font-size="13" font-weight="bold" lengthAdjust="spacing" textLength="14" x="871.5" y="1410.7139">32</text><text fill="#000000" font-family="sans-serif" font-size="13" lengthAdjust="spacing" textLength="66" x="889.5" y="1410.7139">save(ticket)</text><polygon fill="#A80036" points="875.5,1441.9219,865.5,1445.9219,875.5,1449.9219,871.5,1445.9219" style="stroke:#A80036;stroke-width:1.0;"/><line style="stroke:#A80036;stroke-width:1.0;stroke-dasharray:2.0,2.0;" x1="869.5" x2="1662" y1="1445.9219" y2="1445.9219"/><text fill="#000000" font-family="sans-serif" font-size="13" font-weight="bold" lengthAdjust="spacing" textLength="14" x="881.5" y="1441.0654">33</text><text fill="#000000" font-family="sans-serif" font-size="13" lengthAdjust="spacing" textLength="32" x="899.5" y="1441.0654">ticket</text><polygon fill="#A80036" points="530.5,1472.2734,520.5,1476.2734,530.5,1480.2734,526.5,1476.2734" style="stroke:#A80036;stroke-width:1.0;"/><line style="stroke:#A80036;stroke-width:1.0;stroke-dasharray:2.0,2.0;" x1="524.5" x2="858.5" y1="1476.2734" y2="1476.2734"/><text fill="#000000" font-family="sans-serif" font-size="13" font-weight="bold" lengthAdjust="spacing" textLength="14" x="536.5" y="1471.417">34</text><text fill="#000000" font-family="sans-serif" font-size="13" lengthAdjust="spacing" textLength="32" x="554.5" y="1471.417">ticket</text><polygon fill="#A80036" points="58.5,1518.9766,48.5,1522.9766,58.5,1526.9766,54.5,1522.9766" style="stroke:#A80036;stroke-width:1.0;"/><line style="stroke:#A80036;stroke-width:1.0;" x1="52.5" x2="513.5" y1="1522.9766" y2="1522.9766"/><text fill="#000000" font-family="sans-serif" font-size="13" font-weight="bold" lengthAdjust="spacing" textLength="14" x="64.5" y="1509.9443">35</text><text fill="#000000" font-family="sans-serif" font-size="13" lengthAdjust="spacing" textLength="215" x="82.5" y="1501.7686">registers the ticket in the persistence</text><text fill="#000000" font-family="sans-serif" font-size="13" lengthAdjust="spacing" textLength="249" x="86.5" y="1518.1201">and informs of the success of the operation</text><!--MD5=[fbb5db4ae2d522b1aaf151850d9a5e24]
@startuml
autonumber
hide footbox

actor "User" as US

participant "<<presentation>>\nServiceSolicitationUI" as UI
participant "<<application>>\nServiceSolicitationController" as CTRL
database "<<repository>>\nCatalogueRepository" as CR
database "<<repository>>\nServiceRepository" as SR
participant "<<domain>>\nResponse" as RS
database "<<repository>>\nResponseRepository" as RR
participant "<<domain>>\nTicket" as T
database "<<repository>>\nTicketRepository" as TR
participant "<<persistence>>\nPersistenceContext" as PC
participant "<<persistence>>\nAppSettings" as AS
participant "<<factory>>\nRepositoryFactory" as RF
participant "<<domain>>\nCatalogue" as C
participant "<<domain>>\nService" as S
participant "<<domain>>\nTicketUrgency" as TU
participant "<<domain>>\nTicketLimitDate" as TD
participant "<<domain>>\nTicketCreationDate" as TC
participant "<<domain>>\nTicketFile" as TF
participant "<<domain>>\nAttribute" as A
participant "<<domain>>\nForm" as F

activate US

US -> UI : initiates a service solicitation request (ticket)
activate UI

UI -> CTRL** : create
activate CTRL

ref over CTRL
  US-1-2002_SD_Repo
end ref

UI -> CTRL : getCataloguesByUser()

CTRL -> CR : findByUser(user)
activate CR
CR - -> CTRL : catalogues
deactivate CR

CTRL - -> UI : catalogues
deactivate CTRL

UI -> US : shows the catalogues available to the user
deactivate UI

US -> UI : chooses a catalogue
activate UI

UI -> CTRL : getServicesByCatalogue(oCatalogue)
activate CTRL

CTRL -> SR : findByCatalogue(oCatalogue)
activate SR
SR - -> CTRL : services
deactivate SR

CTRL - -> UI : services
deactivate CTRL

UI -> US : shows the services in that catalogue
deactivate UI

US -> UI : chooses a service
activate UI

UI -> US : requests the user to submit the required information (urgency, limitDate)
deactivate UI

US -> UI : inserts the information
activate UI

loop until the user doesnt have more files to attach
UI -> US : asks the user to attach a file
deactivate UI

US -> UI : attaches a file
activate UI

UI -> CTRL : addFile(file)
activate CTRL
deactivate CTRL
end

loop until there are no more forms to answer
loop until there are no more attributes in the form
UI -> US : requests the input for a form's attribute
deactivate UI

US -> UI : answers
activate UI

UI -> CTRL : addResponse(response)
activate CTRL
deactivate CTRL
end

UI -> CTRL : createResponse(form)
activate CTRL

CTRL -> RS** : res = createResponse(form)

CTRL -> RR : save(res)
activate RR
deactivate RR
deactivate CTRL
end

UI -> CTRL : addTicket(service, urgency, limitDate, creationDate)
activate CTRL

CTRL -> T** : create(urgency, limitDate, creationDate, lstResponses, lstFiles, service)

CTRL - -> UI : ticket
deactivate CTRL

UI -> US : validates, presents the current \ninformation in the ticket and asks for confirmation
deactivate UI

US -> UI : confirms
activate UI

UI -> CTRL : saveTicket(ticket)
activate CTRL

CTRL -> TR : save(ticket)
activate TR
TR - -> CTRL : ticket
deactivate TR

CTRL - -> UI : ticket
deactivate CTRL

UI -> US : registers the ticket in the persistence\n and informs of the success of the operation
deactivate UI
deactivate US

@enduml

PlantUML version 1.2021.5(Sun Apr 25 12:20:28 BST 2021)
(GPL source distribution)
Java Runtime: OpenJDK Runtime Environment
JVM: Dynamic Code Evolution 64-Bit Server VM
Default Encoding: Cp1252
Language: pt
Country: PT
--></g></svg>