<?xml version="1.0" encoding="UTF-8" standalone="no"?><svg xmlns="http://www.w3.org/2000/svg" xmlns:xlink="http://www.w3.org/1999/xlink" contentScriptType="application/ecmascript" contentStyleType="text/css" height="746px" preserveAspectRatio="none" style="width:4022px;height:746px;" version="1.1" viewBox="0 0 4022 746" width="4022px" zoomAndPan="magnify"><defs><filter height="300%" id="f1w752cfhzzku7" width="300%" x="-1" y="-1"><feGaussianBlur result="blurOut" stdDeviation="2.0"/><feColorMatrix in="blurOut" result="blurOut2" type="matrix" values="0 0 0 0 0 0 0 0 0 0 0 0 0 0 0 0 0 0 .4 0"/><feOffset dx="4.0" dy="4.0" in="blurOut2" result="blurOut3"/><feBlend in="SourceGraphic" in2="blurOut3" mode="normal"/></filter></defs><g><!--MD5=[8fd473fd151a2794da4f2c8684676405]
cluster Presentation--><polygon fill="#DDDDDD" filter="url(#f1w752cfhzzku7)" points="3589,6,3685,6,3692,29.6094,3801,29.6094,3801,126,3589,126,3589,6" style="stroke:#000000;stroke-width:1.5;"/><line style="stroke:#000000;stroke-width:1.5;" x1="3589" x2="3692" y1="29.6094" y2="29.6094"/><text fill="#000000" font-family="sans-serif" font-size="14" font-weight="bold" lengthAdjust="spacing" textLength="90" x="3593" y="22.5332">Presentation</text><!--MD5=[d64883541e3d62e3241c4d12decf100d]
cluster Application--><polygon fill="#DDDDDD" filter="url(#f1w752cfhzzku7)" points="3510,159,3594,159,3601,182.6094,3880,182.6094,3880,390,3510,390,3510,159" style="stroke:#000000;stroke-width:1.5;"/><line style="stroke:#000000;stroke-width:1.5;" x1="3510" x2="3601" y1="182.6094" y2="182.6094"/><text fill="#000000" font-family="sans-serif" font-size="14" font-weight="bold" lengthAdjust="spacing" textLength="78" x="3514" y="175.5332">Application</text><!--MD5=[121a8bf1197281ab89ed693fab589f94]
cluster Domain--><polygon fill="#DDDDDD" filter="url(#f1w752cfhzzku7)" points="1050,440,1108,440,1115,463.6094,4005,463.6094,4005,739,1050,739,1050,440" style="stroke:#000000;stroke-width:1.5;"/><line style="stroke:#000000;stroke-width:1.5;" x1="1050" x2="1115" y1="463.6094" y2="463.6094"/><text fill="#000000" font-family="sans-serif" font-size="14" font-weight="bold" lengthAdjust="spacing" textLength="52" x="1054" y="456.5332">Domain</text><!--MD5=[44cc74aea8168fb4471e814fff38ed12]
cluster Builder--><polygon fill="#DDDDDD" filter="url(#f1w752cfhzzku7)" points="3598,484,3655,484,3662,507.6094,3981,507.6094,3981,715,3598,715,3598,484" style="stroke:#000000;stroke-width:1.5;"/><line style="stroke:#000000;stroke-width:1.5;" x1="3598" x2="3662" y1="507.6094" y2="507.6094"/><text fill="#000000" font-family="sans-serif" font-size="14" font-weight="bold" lengthAdjust="spacing" textLength="51" x="3602" y="500.5332">Builder</text><!--MD5=[bc6b40dadbf86ab6a0c8405a467a48af]
cluster Persistence--><polygon fill="#DDDDDD" filter="url(#f1w752cfhzzku7)" points="16,468,106,468,113,491.6094,1026,491.6094,1026,711,16,711,16,468" style="stroke:#000000;stroke-width:1.5;"/><line style="stroke:#000000;stroke-width:1.5;" x1="16" x2="113" y1="491.6094" y2="491.6094"/><text fill="#000000" font-family="sans-serif" font-size="14" font-weight="bold" lengthAdjust="spacing" textLength="84" x="20" y="484.5332">Persistence</text><!--MD5=[0d5799440b3bfefd92b00abfcd2c79b9]
cluster Factory--><polygon fill="#DDDDDD" filter="url(#f1w752cfhzzku7)" points="469,512,527,512,534,535.6094,631,535.6094,631,687,469,687,469,512" style="stroke:#000000;stroke-width:1.5;"/><line style="stroke:#000000;stroke-width:1.5;" x1="469" x2="534" y1="535.6094" y2="535.6094"/><text fill="#000000" font-family="sans-serif" font-size="14" font-weight="bold" lengthAdjust="spacing" textLength="52" x="473" y="528.5332">Factory</text><!--MD5=[71971f99a41bb66cf321ce46bb59f738]
cluster Repository--><polygon fill="#DDDDDD" filter="url(#f1w752cfhzzku7)" points="657,525.5,739,525.5,746,549.1094,1002,549.1094,1002,673.5,657,673.5,657,525.5" style="stroke:#000000;stroke-width:1.5;"/><line style="stroke:#000000;stroke-width:1.5;" x1="657" x2="746" y1="549.1094" y2="549.1094"/><text fill="#000000" font-family="sans-serif" font-size="14" font-weight="bold" lengthAdjust="spacing" textLength="76" x="661" y="542.0332">Repository</text><!--MD5=[f27219df0a1e616b6830236e82ba2972]
class ServiceDraftSpecificationUI--><rect codeLine="4" fill="#FEFECE" filter="url(#f1w752cfhzzku7)" height="48" id="ServiceDraftSpecificationUI" style="stroke:#A80036;stroke-width:1.5;" width="180" x="3605" y="62"/><ellipse cx="3620" cy="78" fill="#ADD1B2" rx="11" ry="11" style="stroke:#A80036;stroke-width:1.0;"/><path d="M3622,74.5 Q3622.2031,74 3622.4375,73.75 Q3622.6719,73.5 3622.9375,73.5 Q3623.4063,73.5 3623.7031,73.7813 Q3624,74.0625 3624,74.7188 L3624,76.2813 Q3624,76.9375 3623.7188,77.2188 Q3623.4375,77.5 3623,77.5 Q3622.6094,77.5 3622.3594,77.3281 Q3622.1094,77.1563 3622,76.7031 Q3621.9531,76.3906 3621.7813,76.2188 Q3621.4688,75.8906 3620.9063,75.7031 Q3620.3438,75.5 3619.7813,75.5 Q3619.0781,75.5 3618.4844,75.7813 Q3617.9063,76.0625 3617.4531,76.6875 Q3617,77.3125 3617,78.1719 L3617,79.0938 Q3617,80.125 3617.8438,80.8125 Q3618.6875,81.5 3620.1875,81.5 Q3621.0781,81.5 3621.7031,81.2969 Q3622.0625,81.1875 3622.4688,80.8281 Q3622.7344,80.625 3622.875,80.5625 Q3623.0156,80.5 3623.1875,80.5 Q3623.5156,80.5 3623.75,80.7656 Q3624,81.0156 3624,81.375 Q3624,81.7188 3623.6563,82.125 Q3623.1563,82.7188 3622.3594,83.0469 Q3621.3125,83.5 3620.0313,83.5 Q3618.5313,83.5 3617.3281,82.9063 Q3616.3594,82.4375 3615.6719,81.4219 Q3615,80.4063 3615,79.2031 L3615,78.1094 Q3615,76.8594 3615.5938,75.7656 Q3616.2031,74.6719 3617.25,74.0938 Q3618.3125,73.5 3619.5,73.5 Q3620.2188,73.5 3620.8438,73.75 Q3621.4688,74 3622,74.5 Z " fill="#000000"/><text fill="#000000" font-family="sans-serif" font-size="12" lengthAdjust="spacing" textLength="148" x="3634" y="82.9102">ServiceDraftSpecificationUI</text><line style="stroke:#A80036;stroke-width:1.5;" x1="3606" x2="3784" y1="94" y2="94"/><line style="stroke:#A80036;stroke-width:1.5;" x1="3606" x2="3784" y1="102" y2="102"/><!--MD5=[78ca3c1b028cc8a220cf10e5ffc69797]
class ServiceDraftSpecificationController--><rect codeLine="11" fill="#FEFECE" filter="url(#f1w752cfhzzku7)" height="158.6875" id="ServiceDraftSpecificationController" style="stroke:#A80036;stroke-width:1.5;" width="337" x="3526.5" y="215"/><ellipse cx="3595.75" cy="231" fill="#ADD1B2" rx="11" ry="11" style="stroke:#A80036;stroke-width:1.0;"/><path d="M3597.75,227.5 Q3597.9531,227 3598.1875,226.75 Q3598.4219,226.5 3598.6875,226.5 Q3599.1563,226.5 3599.4531,226.7813 Q3599.75,227.0625 3599.75,227.7188 L3599.75,229.2813 Q3599.75,229.9375 3599.4688,230.2188 Q3599.1875,230.5 3598.75,230.5 Q3598.3594,230.5 3598.1094,230.3281 Q3597.8594,230.1563 3597.75,229.7031 Q3597.7031,229.3906 3597.5313,229.2188 Q3597.2188,228.8906 3596.6563,228.7031 Q3596.0938,228.5 3595.5313,228.5 Q3594.8281,228.5 3594.2344,228.7813 Q3593.6563,229.0625 3593.2031,229.6875 Q3592.75,230.3125 3592.75,231.1719 L3592.75,232.0938 Q3592.75,233.125 3593.5938,233.8125 Q3594.4375,234.5 3595.9375,234.5 Q3596.8281,234.5 3597.4531,234.2969 Q3597.8125,234.1875 3598.2188,233.8281 Q3598.4844,233.625 3598.625,233.5625 Q3598.7656,233.5 3598.9375,233.5 Q3599.2656,233.5 3599.5,233.7656 Q3599.75,234.0156 3599.75,234.375 Q3599.75,234.7188 3599.4063,235.125 Q3598.9063,235.7188 3598.1094,236.0469 Q3597.0625,236.5 3595.7813,236.5 Q3594.2813,236.5 3593.0781,235.9063 Q3592.1094,235.4375 3591.4219,234.4219 Q3590.75,233.4063 3590.75,232.2031 L3590.75,231.1094 Q3590.75,229.8594 3591.3438,228.7656 Q3591.9531,227.6719 3593,227.0938 Q3594.0625,226.5 3595.25,226.5 Q3595.9688,226.5 3596.5938,226.75 Q3597.2188,227 3597.75,227.5 Z " fill="#000000"/><text fill="#000000" font-family="sans-serif" font-size="12" lengthAdjust="spacing" textLength="190" x="3616.25" y="235.9102">ServiceDraftSpecificationController</text><line style="stroke:#A80036;stroke-width:1.5;" x1="3527.5" x2="3862.5" y1="247" y2="247"/><line style="stroke:#A80036;stroke-width:1.5;" x1="3527.5" x2="3862.5" y1="255" y2="255"/><text fill="#000000" font-family="sans-serif" font-size="11" lengthAdjust="spacing" textLength="45" x="3532.5" y="270.4189">+create()</text><text fill="#000000" font-family="sans-serif" font-size="11" lengthAdjust="spacing" textLength="119" x="3532.5" y="284.2549">+getServiceDraftById(id)</text><text fill="#000000" font-family="sans-serif" font-size="11" lengthAdjust="spacing" textLength="60" x="3532.5" y="298.0908">+newDraft()</text><text fill="#000000" font-family="sans-serif" font-size="11" lengthAdjust="spacing" textLength="134" x="3532.5" y="311.9268">+addForm(name, formType)</text><text fill="#000000" font-family="sans-serif" font-size="11" lengthAdjust="spacing" textLength="325" x="3532.5" y="325.7627">+addAttribute(name, label, description, regex, scriptPath, dataType)</text><text fill="#000000" font-family="sans-serif" font-size="11" lengthAdjust="spacing" textLength="62" x="3532.5" y="339.5986">+saveForm()</text><text fill="#000000" font-family="sans-serif" font-size="11" lengthAdjust="spacing" textLength="56" x="3532.5" y="353.4346">+addForm()</text><text fill="#000000" font-family="sans-serif" font-size="11" lengthAdjust="spacing" textLength="99" x="3532.5" y="367.2705">+saveServiceDraft()</text><!--MD5=[925d5031f5a4e53e61ccd699b6d8c35b]
class ServiceDraft--><rect codeLine="25" fill="#FEFECE" filter="url(#f1w752cfhzzku7)" height="75.6719" id="ServiceDraft" style="stroke:#A80036;stroke-width:1.5;" width="121" x="1066.5" y="581.5"/><ellipse cx="1091.85" cy="597.5" fill="#ADD1B2" rx="11" ry="11" style="stroke:#A80036;stroke-width:1.0;"/><path d="M1093.85,594 Q1094.0531,593.5 1094.2875,593.25 Q1094.5219,593 1094.7875,593 Q1095.2563,593 1095.5531,593.2813 Q1095.85,593.5625 1095.85,594.2188 L1095.85,595.7813 Q1095.85,596.4375 1095.5688,596.7188 Q1095.2875,597 1094.85,597 Q1094.4594,597 1094.2094,596.8281 Q1093.9594,596.6563 1093.85,596.2031 Q1093.8031,595.8906 1093.6313,595.7188 Q1093.3188,595.3906 1092.7563,595.2031 Q1092.1938,595 1091.6313,595 Q1090.9281,595 1090.3344,595.2813 Q1089.7563,595.5625 1089.3031,596.1875 Q1088.85,596.8125 1088.85,597.6719 L1088.85,598.5938 Q1088.85,599.625 1089.6938,600.3125 Q1090.5375,601 1092.0375,601 Q1092.9281,601 1093.5531,600.7969 Q1093.9125,600.6875 1094.3188,600.3281 Q1094.5844,600.125 1094.725,600.0625 Q1094.8656,600 1095.0375,600 Q1095.3656,600 1095.6,600.2656 Q1095.85,600.5156 1095.85,600.875 Q1095.85,601.2188 1095.5063,601.625 Q1095.0063,602.2188 1094.2094,602.5469 Q1093.1625,603 1091.8813,603 Q1090.3813,603 1089.1781,602.4063 Q1088.2094,601.9375 1087.5219,600.9219 Q1086.85,599.9063 1086.85,598.7031 L1086.85,597.6094 Q1086.85,596.3594 1087.4438,595.2656 Q1088.0531,594.1719 1089.1,593.5938 Q1090.1625,593 1091.35,593 Q1092.0688,593 1092.6938,593.25 Q1093.3188,593.5 1093.85,594 Z " fill="#000000"/><text fill="#000000" font-family="sans-serif" font-size="12" lengthAdjust="spacing" textLength="66" x="1108.15" y="602.4102">ServiceDraft</text><line style="stroke:#A80036;stroke-width:1.5;" x1="1067.5" x2="1186.5" y1="613.5" y2="613.5"/><line style="stroke:#A80036;stroke-width:1.5;" x1="1067.5" x2="1186.5" y1="621.5" y2="621.5"/><text fill="#000000" font-family="sans-serif" font-size="11" lengthAdjust="spacing" textLength="45" x="1072.5" y="636.9189">+create()</text><text fill="#000000" font-family="sans-serif" font-size="11" lengthAdjust="spacing" textLength="109" x="1072.5" y="650.7549">+setFormList(formList)</text><!--MD5=[6f29f313cd4199edbf91b9ce3a4faa98]
class Form--><rect codeLine="30" fill="#FEFECE" filter="url(#f1w752cfhzzku7)" height="61.8359" id="Form" style="stroke:#A80036;stroke-width:1.5;" width="197" x="1245.5" y="588.5"/><ellipse cx="1325.25" cy="604.5" fill="#ADD1B2" rx="11" ry="11" style="stroke:#A80036;stroke-width:1.0;"/><path d="M1327.25,601 Q1327.4531,600.5 1327.6875,600.25 Q1327.9219,600 1328.1875,600 Q1328.6563,600 1328.9531,600.2813 Q1329.25,600.5625 1329.25,601.2188 L1329.25,602.7813 Q1329.25,603.4375 1328.9688,603.7188 Q1328.6875,604 1328.25,604 Q1327.8594,604 1327.6094,603.8281 Q1327.3594,603.6563 1327.25,603.2031 Q1327.2031,602.8906 1327.0313,602.7188 Q1326.7188,602.3906 1326.1563,602.2031 Q1325.5938,602 1325.0313,602 Q1324.3281,602 1323.7344,602.2813 Q1323.1563,602.5625 1322.7031,603.1875 Q1322.25,603.8125 1322.25,604.6719 L1322.25,605.5938 Q1322.25,606.625 1323.0938,607.3125 Q1323.9375,608 1325.4375,608 Q1326.3281,608 1326.9531,607.7969 Q1327.3125,607.6875 1327.7188,607.3281 Q1327.9844,607.125 1328.125,607.0625 Q1328.2656,607 1328.4375,607 Q1328.7656,607 1329,607.2656 Q1329.25,607.5156 1329.25,607.875 Q1329.25,608.2188 1328.9063,608.625 Q1328.4063,609.2188 1327.6094,609.5469 Q1326.5625,610 1325.2813,610 Q1323.7813,610 1322.5781,609.4063 Q1321.6094,608.9375 1320.9219,607.9219 Q1320.25,606.9063 1320.25,605.7031 L1320.25,604.6094 Q1320.25,603.3594 1320.8438,602.2656 Q1321.4531,601.1719 1322.5,600.5938 Q1323.5625,600 1324.75,600 Q1325.4688,600 1326.0938,600.25 Q1326.7188,600.5 1327.25,601 Z " fill="#000000"/><text fill="#000000" font-family="sans-serif" font-size="12" lengthAdjust="spacing" textLength="29" x="1345.75" y="609.4102">Form</text><line style="stroke:#A80036;stroke-width:1.5;" x1="1246.5" x2="1441.5" y1="620.5" y2="620.5"/><line style="stroke:#A80036;stroke-width:1.5;" x1="1246.5" x2="1441.5" y1="628.5" y2="628.5"/><text fill="#000000" font-family="sans-serif" font-size="11" lengthAdjust="spacing" textLength="185" x="1251.5" y="643.9189">+create(name, formType, attributeList)</text><!--MD5=[787494ff879e99315e413996e631a796]
class Attribute--><rect codeLine="34" fill="#FEFECE" filter="url(#f1w752cfhzzku7)" height="61.8359" id="Attribute" style="stroke:#A80036;stroke-width:1.5;" width="305" x="1878.5" y="588.5"/><ellipse cx="2004.75" cy="604.5" fill="#ADD1B2" rx="11" ry="11" style="stroke:#A80036;stroke-width:1.0;"/><path d="M2006.75,601 Q2006.9531,600.5 2007.1875,600.25 Q2007.4219,600 2007.6875,600 Q2008.1563,600 2008.4531,600.2813 Q2008.75,600.5625 2008.75,601.2188 L2008.75,602.7813 Q2008.75,603.4375 2008.4688,603.7188 Q2008.1875,604 2007.75,604 Q2007.3594,604 2007.1094,603.8281 Q2006.8594,603.6563 2006.75,603.2031 Q2006.7031,602.8906 2006.5313,602.7188 Q2006.2188,602.3906 2005.6563,602.2031 Q2005.0938,602 2004.5313,602 Q2003.8281,602 2003.2344,602.2813 Q2002.6563,602.5625 2002.2031,603.1875 Q2001.75,603.8125 2001.75,604.6719 L2001.75,605.5938 Q2001.75,606.625 2002.5938,607.3125 Q2003.4375,608 2004.9375,608 Q2005.8281,608 2006.4531,607.7969 Q2006.8125,607.6875 2007.2188,607.3281 Q2007.4844,607.125 2007.625,607.0625 Q2007.7656,607 2007.9375,607 Q2008.2656,607 2008.5,607.2656 Q2008.75,607.5156 2008.75,607.875 Q2008.75,608.2188 2008.4063,608.625 Q2007.9063,609.2188 2007.1094,609.5469 Q2006.0625,610 2004.7813,610 Q2003.2813,610 2002.0781,609.4063 Q2001.1094,608.9375 2000.4219,607.9219 Q1999.75,606.9063 1999.75,605.7031 L1999.75,604.6094 Q1999.75,603.3594 2000.3438,602.2656 Q2000.9531,601.1719 2002,600.5938 Q2003.0625,600 2004.25,600 Q2004.9688,600 2005.5938,600.25 Q2006.2188,600.5 2006.75,601 Z " fill="#000000"/><text fill="#000000" font-family="sans-serif" font-size="12" lengthAdjust="spacing" textLength="44" x="2025.25" y="609.4102">Attribute</text><line style="stroke:#A80036;stroke-width:1.5;" x1="1879.5" x2="2182.5" y1="620.5" y2="620.5"/><line style="stroke:#A80036;stroke-width:1.5;" x1="1879.5" x2="2182.5" y1="628.5" y2="628.5"/><text fill="#000000" font-family="sans-serif" font-size="11" lengthAdjust="spacing" textLength="293" x="1884.5" y="643.9189">+create(name, label, description, regex, scriptPath, dataType</text><!--MD5=[9555c84b6fd548991761066443e965b1]
class FormName--><rect codeLine="38" fill="#FEFECE" filter="url(#f1w752cfhzzku7)" height="75.6719" id="FormName" style="stroke:#A80036;stroke-width:1.5;" width="157" x="1686.5" y="581.5"/><ellipse cx="1729.4" cy="597.5" fill="#ADD1B2" rx="11" ry="11" style="stroke:#A80036;stroke-width:1.0;"/><path d="M1731.4,594 Q1731.6031,593.5 1731.8375,593.25 Q1732.0719,593 1732.3375,593 Q1732.8063,593 1733.1031,593.2813 Q1733.4,593.5625 1733.4,594.2188 L1733.4,595.7813 Q1733.4,596.4375 1733.1188,596.7188 Q1732.8375,597 1732.4,597 Q1732.0094,597 1731.7594,596.8281 Q1731.5094,596.6563 1731.4,596.2031 Q1731.3531,595.8906 1731.1813,595.7188 Q1730.8688,595.3906 1730.3063,595.2031 Q1729.7438,595 1729.1813,595 Q1728.4781,595 1727.8844,595.2813 Q1727.3063,595.5625 1726.8531,596.1875 Q1726.4,596.8125 1726.4,597.6719 L1726.4,598.5938 Q1726.4,599.625 1727.2438,600.3125 Q1728.0875,601 1729.5875,601 Q1730.4781,601 1731.1031,600.7969 Q1731.4625,600.6875 1731.8688,600.3281 Q1732.1344,600.125 1732.275,600.0625 Q1732.4156,600 1732.5875,600 Q1732.9156,600 1733.15,600.2656 Q1733.4,600.5156 1733.4,600.875 Q1733.4,601.2188 1733.0563,601.625 Q1732.5563,602.2188 1731.7594,602.5469 Q1730.7125,603 1729.4313,603 Q1727.9313,603 1726.7281,602.4063 Q1725.7594,601.9375 1725.0719,600.9219 Q1724.4,599.9063 1724.4,598.7031 L1724.4,597.6094 Q1724.4,596.3594 1724.9938,595.2656 Q1725.6031,594.1719 1726.65,593.5938 Q1727.7125,593 1728.9,593 Q1729.6188,593 1730.2438,593.25 Q1730.8688,593.5 1731.4,594 Z " fill="#000000"/><text fill="#000000" font-family="sans-serif" font-size="12" lengthAdjust="spacing" textLength="63" x="1749.6" y="602.4102">FormName</text><line style="stroke:#A80036;stroke-width:1.5;" x1="1687.5" x2="1842.5" y1="613.5" y2="613.5"/><line style="stroke:#A80036;stroke-width:1.5;" x1="1687.5" x2="1842.5" y1="621.5" y2="621.5"/><text fill="#000000" font-family="sans-serif" font-size="11" lengthAdjust="spacing" textLength="145" x="1692.5" y="636.9189">+createFormName(formName)</text><text fill="#000000" font-family="sans-serif" font-size="11" lengthAdjust="spacing" textLength="98" x="1692.5" y="650.7549">-validate(formName)</text><!--MD5=[f97bc38be6e42a8b0d0074a8f95022fc]
class FormType--><rect codeLine="43" fill="#FEFECE" filter="url(#f1w752cfhzzku7)" height="89.5078" id="FormType" style="stroke:#A80036;stroke-width:1.5;" width="151" x="1500.5" y="574.5"/><ellipse cx="1544.3" cy="590.5" fill="#ADD1B2" rx="11" ry="11" style="stroke:#A80036;stroke-width:1.0;"/><path d="M1546.3,587 Q1546.5031,586.5 1546.7375,586.25 Q1546.9719,586 1547.2375,586 Q1547.7063,586 1548.0031,586.2813 Q1548.3,586.5625 1548.3,587.2188 L1548.3,588.7813 Q1548.3,589.4375 1548.0188,589.7188 Q1547.7375,590 1547.3,590 Q1546.9094,590 1546.6594,589.8281 Q1546.4094,589.6563 1546.3,589.2031 Q1546.2531,588.8906 1546.0813,588.7188 Q1545.7688,588.3906 1545.2063,588.2031 Q1544.6438,588 1544.0813,588 Q1543.3781,588 1542.7844,588.2813 Q1542.2063,588.5625 1541.7531,589.1875 Q1541.3,589.8125 1541.3,590.6719 L1541.3,591.5938 Q1541.3,592.625 1542.1438,593.3125 Q1542.9875,594 1544.4875,594 Q1545.3781,594 1546.0031,593.7969 Q1546.3625,593.6875 1546.7688,593.3281 Q1547.0344,593.125 1547.175,593.0625 Q1547.3156,593 1547.4875,593 Q1547.8156,593 1548.05,593.2656 Q1548.3,593.5156 1548.3,593.875 Q1548.3,594.2188 1547.9563,594.625 Q1547.4563,595.2188 1546.6594,595.5469 Q1545.6125,596 1544.3313,596 Q1542.8313,596 1541.6281,595.4063 Q1540.6594,594.9375 1539.9719,593.9219 Q1539.3,592.9063 1539.3,591.7031 L1539.3,590.6094 Q1539.3,589.3594 1539.8938,588.2656 Q1540.5031,587.1719 1541.55,586.5938 Q1542.6125,586 1543.8,586 Q1544.5188,586 1545.1438,586.25 Q1545.7688,586.5 1546.3,587 Z " fill="#000000"/><text fill="#000000" font-family="sans-serif" font-size="12" lengthAdjust="spacing" textLength="55" x="1564.7" y="595.4102">FormType</text><line style="stroke:#A80036;stroke-width:1.5;" x1="1501.5" x2="1650.5" y1="606.5" y2="606.5"/><line style="stroke:#A80036;stroke-width:1.5;" x1="1501.5" x2="1650.5" y1="614.5" y2="614.5"/><text fill="#000000" font-family="sans-serif" font-size="11" lengthAdjust="spacing" textLength="139" x="1506.5" y="629.9189">+createFormType(formType)</text><text fill="#000000" font-family="sans-serif" font-size="11" lengthAdjust="spacing" textLength="46" x="1506.5" y="643.7549">+values()</text><text fill="#000000" font-family="sans-serif" font-size="11" lengthAdjust="spacing" textLength="95" x="1506.5" y="657.5908">-validate(formType)</text><!--MD5=[7730af8102616437f2081915ece208fe]
class AttributeName--><rect codeLine="49" fill="#FEFECE" filter="url(#f1w752cfhzzku7)" height="75.6719" id="AttributeName" style="stroke:#A80036;stroke-width:1.5;" width="191" x="3388.5" y="581.5"/><ellipse cx="3440.75" cy="597.5" fill="#ADD1B2" rx="11" ry="11" style="stroke:#A80036;stroke-width:1.0;"/><path d="M3442.75,594 Q3442.9531,593.5 3443.1875,593.25 Q3443.4219,593 3443.6875,593 Q3444.1563,593 3444.4531,593.2813 Q3444.75,593.5625 3444.75,594.2188 L3444.75,595.7813 Q3444.75,596.4375 3444.4688,596.7188 Q3444.1875,597 3443.75,597 Q3443.3594,597 3443.1094,596.8281 Q3442.8594,596.6563 3442.75,596.2031 Q3442.7031,595.8906 3442.5313,595.7188 Q3442.2188,595.3906 3441.6563,595.2031 Q3441.0938,595 3440.5313,595 Q3439.8281,595 3439.2344,595.2813 Q3438.6563,595.5625 3438.2031,596.1875 Q3437.75,596.8125 3437.75,597.6719 L3437.75,598.5938 Q3437.75,599.625 3438.5938,600.3125 Q3439.4375,601 3440.9375,601 Q3441.8281,601 3442.4531,600.7969 Q3442.8125,600.6875 3443.2188,600.3281 Q3443.4844,600.125 3443.625,600.0625 Q3443.7656,600 3443.9375,600 Q3444.2656,600 3444.5,600.2656 Q3444.75,600.5156 3444.75,600.875 Q3444.75,601.2188 3444.4063,601.625 Q3443.9063,602.2188 3443.1094,602.5469 Q3442.0625,603 3440.7813,603 Q3439.2813,603 3438.0781,602.4063 Q3437.1094,601.9375 3436.4219,600.9219 Q3435.75,599.9063 3435.75,598.7031 L3435.75,597.6094 Q3435.75,596.3594 3436.3438,595.2656 Q3436.9531,594.1719 3438,593.5938 Q3439.0625,593 3440.25,593 Q3440.9688,593 3441.5938,593.25 Q3442.2188,593.5 3442.75,594 Z " fill="#000000"/><text fill="#000000" font-family="sans-serif" font-size="12" lengthAdjust="spacing" textLength="78" x="3461.25" y="602.4102">AttributeName</text><line style="stroke:#A80036;stroke-width:1.5;" x1="3389.5" x2="3578.5" y1="613.5" y2="613.5"/><line style="stroke:#A80036;stroke-width:1.5;" x1="3389.5" x2="3578.5" y1="621.5" y2="621.5"/><text fill="#000000" font-family="sans-serif" font-size="11" lengthAdjust="spacing" textLength="179" x="3394.5" y="636.9189">+createAttributeName(attributeName)</text><text fill="#000000" font-family="sans-serif" font-size="11" lengthAdjust="spacing" textLength="115" x="3394.5" y="650.7549">-validate(attributeName)</text><!--MD5=[026f7fe645532d5909e09af22ec70fff]
class AttributeLabel--><rect codeLine="54" fill="#FEFECE" filter="url(#f1w752cfhzzku7)" height="75.6719" id="AttributeLabel" style="stroke:#A80036;stroke-width:1.5;" width="186" x="3167" y="581.5"/><ellipse cx="3218.25" cy="597.5" fill="#ADD1B2" rx="11" ry="11" style="stroke:#A80036;stroke-width:1.0;"/><path d="M3220.25,594 Q3220.4531,593.5 3220.6875,593.25 Q3220.9219,593 3221.1875,593 Q3221.6563,593 3221.9531,593.2813 Q3222.25,593.5625 3222.25,594.2188 L3222.25,595.7813 Q3222.25,596.4375 3221.9688,596.7188 Q3221.6875,597 3221.25,597 Q3220.8594,597 3220.6094,596.8281 Q3220.3594,596.6563 3220.25,596.2031 Q3220.2031,595.8906 3220.0313,595.7188 Q3219.7188,595.3906 3219.1563,595.2031 Q3218.5938,595 3218.0313,595 Q3217.3281,595 3216.7344,595.2813 Q3216.1563,595.5625 3215.7031,596.1875 Q3215.25,596.8125 3215.25,597.6719 L3215.25,598.5938 Q3215.25,599.625 3216.0938,600.3125 Q3216.9375,601 3218.4375,601 Q3219.3281,601 3219.9531,600.7969 Q3220.3125,600.6875 3220.7188,600.3281 Q3220.9844,600.125 3221.125,600.0625 Q3221.2656,600 3221.4375,600 Q3221.7656,600 3222,600.2656 Q3222.25,600.5156 3222.25,600.875 Q3222.25,601.2188 3221.9063,601.625 Q3221.4063,602.2188 3220.6094,602.5469 Q3219.5625,603 3218.2813,603 Q3216.7813,603 3215.5781,602.4063 Q3214.6094,601.9375 3213.9219,600.9219 Q3213.25,599.9063 3213.25,598.7031 L3213.25,597.6094 Q3213.25,596.3594 3213.8438,595.2656 Q3214.4531,594.1719 3215.5,593.5938 Q3216.5625,593 3217.75,593 Q3218.4688,593 3219.0938,593.25 Q3219.7188,593.5 3220.25,594 Z " fill="#000000"/><text fill="#000000" font-family="sans-serif" font-size="12" lengthAdjust="spacing" textLength="75" x="3238.75" y="602.4102">AttributeLabel</text><line style="stroke:#A80036;stroke-width:1.5;" x1="3168" x2="3352" y1="613.5" y2="613.5"/><line style="stroke:#A80036;stroke-width:1.5;" x1="3168" x2="3352" y1="621.5" y2="621.5"/><text fill="#000000" font-family="sans-serif" font-size="11" lengthAdjust="spacing" textLength="174" x="3173" y="636.9189">+createAtributoLabel(attributeLabel)</text><text fill="#000000" font-family="sans-serif" font-size="11" lengthAdjust="spacing" textLength="114" x="3173" y="650.7549">-validate(attributeLabel)</text><!--MD5=[4862e575995b54c71e16f8b6c129262c]
class AttributeDescription--><rect codeLine="59" fill="#FEFECE" filter="url(#f1w752cfhzzku7)" height="75.6719" id="AttributeDescription" style="stroke:#A80036;stroke-width:1.5;" width="245" x="2886.5" y="581.5"/><ellipse cx="2951.25" cy="597.5" fill="#ADD1B2" rx="11" ry="11" style="stroke:#A80036;stroke-width:1.0;"/><path d="M2953.25,594 Q2953.4531,593.5 2953.6875,593.25 Q2953.9219,593 2954.1875,593 Q2954.6563,593 2954.9531,593.2813 Q2955.25,593.5625 2955.25,594.2188 L2955.25,595.7813 Q2955.25,596.4375 2954.9688,596.7188 Q2954.6875,597 2954.25,597 Q2953.8594,597 2953.6094,596.8281 Q2953.3594,596.6563 2953.25,596.2031 Q2953.2031,595.8906 2953.0313,595.7188 Q2952.7188,595.3906 2952.1563,595.2031 Q2951.5938,595 2951.0313,595 Q2950.3281,595 2949.7344,595.2813 Q2949.1563,595.5625 2948.7031,596.1875 Q2948.25,596.8125 2948.25,597.6719 L2948.25,598.5938 Q2948.25,599.625 2949.0938,600.3125 Q2949.9375,601 2951.4375,601 Q2952.3281,601 2952.9531,600.7969 Q2953.3125,600.6875 2953.7188,600.3281 Q2953.9844,600.125 2954.125,600.0625 Q2954.2656,600 2954.4375,600 Q2954.7656,600 2955,600.2656 Q2955.25,600.5156 2955.25,600.875 Q2955.25,601.2188 2954.9063,601.625 Q2954.4063,602.2188 2953.6094,602.5469 Q2952.5625,603 2951.2813,603 Q2949.7813,603 2948.5781,602.4063 Q2947.6094,601.9375 2946.9219,600.9219 Q2946.25,599.9063 2946.25,598.7031 L2946.25,597.6094 Q2946.25,596.3594 2946.8438,595.2656 Q2947.4531,594.1719 2948.5,593.5938 Q2949.5625,593 2950.75,593 Q2951.4688,593 2952.0938,593.25 Q2952.7188,593.5 2953.25,594 Z " fill="#000000"/><text fill="#000000" font-family="sans-serif" font-size="12" lengthAdjust="spacing" textLength="107" x="2971.75" y="602.4102">AttributeDescription</text><line style="stroke:#A80036;stroke-width:1.5;" x1="2887.5" x2="3130.5" y1="613.5" y2="613.5"/><line style="stroke:#A80036;stroke-width:1.5;" x1="2887.5" x2="3130.5" y1="621.5" y2="621.5"/><text fill="#000000" font-family="sans-serif" font-size="11" lengthAdjust="spacing" textLength="233" x="2892.5" y="636.9189">+createAttributeDescription(attributeDescription)</text><text fill="#000000" font-family="sans-serif" font-size="11" lengthAdjust="spacing" textLength="142" x="2892.5" y="650.7549">-validate(attributeDescription)</text><!--MD5=[b364529acba39bfc522f6b29f223163f]
class AttributeRegex--><rect codeLine="64" fill="#FEFECE" filter="url(#f1w752cfhzzku7)" height="75.6719" id="AttributeRegex" style="stroke:#A80036;stroke-width:1.5;" width="199" x="2652.5" y="581.5"/><ellipse cx="2708.25" cy="597.5" fill="#ADD1B2" rx="11" ry="11" style="stroke:#A80036;stroke-width:1.0;"/><path d="M2710.25,594 Q2710.4531,593.5 2710.6875,593.25 Q2710.9219,593 2711.1875,593 Q2711.6563,593 2711.9531,593.2813 Q2712.25,593.5625 2712.25,594.2188 L2712.25,595.7813 Q2712.25,596.4375 2711.9688,596.7188 Q2711.6875,597 2711.25,597 Q2710.8594,597 2710.6094,596.8281 Q2710.3594,596.6563 2710.25,596.2031 Q2710.2031,595.8906 2710.0313,595.7188 Q2709.7188,595.3906 2709.1563,595.2031 Q2708.5938,595 2708.0313,595 Q2707.3281,595 2706.7344,595.2813 Q2706.1563,595.5625 2705.7031,596.1875 Q2705.25,596.8125 2705.25,597.6719 L2705.25,598.5938 Q2705.25,599.625 2706.0938,600.3125 Q2706.9375,601 2708.4375,601 Q2709.3281,601 2709.9531,600.7969 Q2710.3125,600.6875 2710.7188,600.3281 Q2710.9844,600.125 2711.125,600.0625 Q2711.2656,600 2711.4375,600 Q2711.7656,600 2712,600.2656 Q2712.25,600.5156 2712.25,600.875 Q2712.25,601.2188 2711.9063,601.625 Q2711.4063,602.2188 2710.6094,602.5469 Q2709.5625,603 2708.2813,603 Q2706.7813,603 2705.5781,602.4063 Q2704.6094,601.9375 2703.9219,600.9219 Q2703.25,599.9063 2703.25,598.7031 L2703.25,597.6094 Q2703.25,596.3594 2703.8438,595.2656 Q2704.4531,594.1719 2705.5,593.5938 Q2706.5625,593 2707.75,593 Q2708.4688,593 2709.0938,593.25 Q2709.7188,593.5 2710.25,594 Z " fill="#000000"/><text fill="#000000" font-family="sans-serif" font-size="12" lengthAdjust="spacing" textLength="79" x="2728.75" y="602.4102">AttributeRegex</text><line style="stroke:#A80036;stroke-width:1.5;" x1="2653.5" x2="2850.5" y1="613.5" y2="613.5"/><line style="stroke:#A80036;stroke-width:1.5;" x1="2653.5" x2="2850.5" y1="621.5" y2="621.5"/><text fill="#000000" font-family="sans-serif" font-size="11" lengthAdjust="spacing" textLength="187" x="2658.5" y="636.9189">+createAttributeRegex(attributeRegex)</text><text fill="#000000" font-family="sans-serif" font-size="11" lengthAdjust="spacing" textLength="119" x="2658.5" y="650.7549">-validate(attributeRegex)</text><!--MD5=[f7f675f870e9e40e2223e003a8668a3c]
class AttributeScript--><rect codeLine="69" fill="#FEFECE" filter="url(#f1w752cfhzzku7)" height="75.6719" id="AttributeScript" style="stroke:#A80036;stroke-width:1.5;" width="193" x="2424.5" y="581.5"/><ellipse cx="2479.25" cy="597.5" fill="#ADD1B2" rx="11" ry="11" style="stroke:#A80036;stroke-width:1.0;"/><path d="M2481.25,594 Q2481.4531,593.5 2481.6875,593.25 Q2481.9219,593 2482.1875,593 Q2482.6563,593 2482.9531,593.2813 Q2483.25,593.5625 2483.25,594.2188 L2483.25,595.7813 Q2483.25,596.4375 2482.9688,596.7188 Q2482.6875,597 2482.25,597 Q2481.8594,597 2481.6094,596.8281 Q2481.3594,596.6563 2481.25,596.2031 Q2481.2031,595.8906 2481.0313,595.7188 Q2480.7188,595.3906 2480.1563,595.2031 Q2479.5938,595 2479.0313,595 Q2478.3281,595 2477.7344,595.2813 Q2477.1563,595.5625 2476.7031,596.1875 Q2476.25,596.8125 2476.25,597.6719 L2476.25,598.5938 Q2476.25,599.625 2477.0938,600.3125 Q2477.9375,601 2479.4375,601 Q2480.3281,601 2480.9531,600.7969 Q2481.3125,600.6875 2481.7188,600.3281 Q2481.9844,600.125 2482.125,600.0625 Q2482.2656,600 2482.4375,600 Q2482.7656,600 2483,600.2656 Q2483.25,600.5156 2483.25,600.875 Q2483.25,601.2188 2482.9063,601.625 Q2482.4063,602.2188 2481.6094,602.5469 Q2480.5625,603 2479.2813,603 Q2477.7813,603 2476.5781,602.4063 Q2475.6094,601.9375 2474.9219,600.9219 Q2474.25,599.9063 2474.25,598.7031 L2474.25,597.6094 Q2474.25,596.3594 2474.8438,595.2656 Q2475.4531,594.1719 2476.5,593.5938 Q2477.5625,593 2478.75,593 Q2479.4688,593 2480.0938,593.25 Q2480.7188,593.5 2481.25,594 Z " fill="#000000"/><text fill="#000000" font-family="sans-serif" font-size="12" lengthAdjust="spacing" textLength="75" x="2499.75" y="602.4102">AttributeScript</text><line style="stroke:#A80036;stroke-width:1.5;" x1="2425.5" x2="2616.5" y1="613.5" y2="613.5"/><line style="stroke:#A80036;stroke-width:1.5;" x1="2425.5" x2="2616.5" y1="621.5" y2="621.5"/><text fill="#000000" font-family="sans-serif" font-size="11" lengthAdjust="spacing" textLength="181" x="2430.5" y="636.9189">+createAttributeScript(attributeScript)</text><text fill="#000000" font-family="sans-serif" font-size="11" lengthAdjust="spacing" textLength="116" x="2430.5" y="650.7549">-validate(attributeScript)</text><!--MD5=[3949b939274c3ebd79b8ab92605ab7ed]
class DataType--><rect codeLine="74" fill="#FEFECE" filter="url(#f1w752cfhzzku7)" height="89.5078" id="DataType" style="stroke:#A80036;stroke-width:1.5;" width="148" x="2241" y="574.5"/><ellipse cx="2284.8" cy="590.5" fill="#ADD1B2" rx="11" ry="11" style="stroke:#A80036;stroke-width:1.0;"/><path d="M2286.8,587 Q2287.0031,586.5 2287.2375,586.25 Q2287.4719,586 2287.7375,586 Q2288.2063,586 2288.5031,586.2813 Q2288.8,586.5625 2288.8,587.2188 L2288.8,588.7813 Q2288.8,589.4375 2288.5188,589.7188 Q2288.2375,590 2287.8,590 Q2287.4094,590 2287.1594,589.8281 Q2286.9094,589.6563 2286.8,589.2031 Q2286.7531,588.8906 2286.5813,588.7188 Q2286.2688,588.3906 2285.7063,588.2031 Q2285.1438,588 2284.5813,588 Q2283.8781,588 2283.2844,588.2813 Q2282.7063,588.5625 2282.2531,589.1875 Q2281.8,589.8125 2281.8,590.6719 L2281.8,591.5938 Q2281.8,592.625 2282.6438,593.3125 Q2283.4875,594 2284.9875,594 Q2285.8781,594 2286.5031,593.7969 Q2286.8625,593.6875 2287.2688,593.3281 Q2287.5344,593.125 2287.675,593.0625 Q2287.8156,593 2287.9875,593 Q2288.3156,593 2288.55,593.2656 Q2288.8,593.5156 2288.8,593.875 Q2288.8,594.2188 2288.4563,594.625 Q2287.9563,595.2188 2287.1594,595.5469 Q2286.1125,596 2284.8313,596 Q2283.3313,596 2282.1281,595.4063 Q2281.1594,594.9375 2280.4719,593.9219 Q2279.8,592.9063 2279.8,591.7031 L2279.8,590.6094 Q2279.8,589.3594 2280.3938,588.2656 Q2281.0031,587.1719 2282.05,586.5938 Q2283.1125,586 2284.3,586 Q2285.0188,586 2285.6438,586.25 Q2286.2688,586.5 2286.8,587 Z " fill="#000000"/><text fill="#000000" font-family="sans-serif" font-size="12" lengthAdjust="spacing" textLength="52" x="2305.2" y="595.4102">DataType</text><line style="stroke:#A80036;stroke-width:1.5;" x1="2242" x2="2388" y1="606.5" y2="606.5"/><line style="stroke:#A80036;stroke-width:1.5;" x1="2242" x2="2388" y1="614.5" y2="614.5"/><text fill="#000000" font-family="sans-serif" font-size="11" lengthAdjust="spacing" textLength="136" x="2247" y="629.9189">+createDataType(dataType)</text><text fill="#000000" font-family="sans-serif" font-size="11" lengthAdjust="spacing" textLength="46" x="2247" y="643.7549">+values()</text><text fill="#000000" font-family="sans-serif" font-size="11" lengthAdjust="spacing" textLength="94" x="2247" y="657.5908">-validate(dataType)</text><!--MD5=[552a4e0091f456c26441f4ab52a9c8b5]
class FormBuilder--><rect codeLine="82" fill="#FEFECE" filter="url(#f1w752cfhzzku7)" height="117.1797" id="FormBuilder" style="stroke:#A80036;stroke-width:1.5;" width="161" x="3614.5" y="561"/><ellipse cx="3656.95" cy="577" fill="#ADD1B2" rx="11" ry="11" style="stroke:#A80036;stroke-width:1.0;"/><path d="M3658.95,573.5 Q3659.1531,573 3659.3875,572.75 Q3659.6219,572.5 3659.8875,572.5 Q3660.3563,572.5 3660.6531,572.7813 Q3660.95,573.0625 3660.95,573.7188 L3660.95,575.2813 Q3660.95,575.9375 3660.6688,576.2188 Q3660.3875,576.5 3659.95,576.5 Q3659.5594,576.5 3659.3094,576.3281 Q3659.0594,576.1563 3658.95,575.7031 Q3658.9031,575.3906 3658.7313,575.2188 Q3658.4188,574.8906 3657.8563,574.7031 Q3657.2938,574.5 3656.7313,574.5 Q3656.0281,574.5 3655.4344,574.7813 Q3654.8563,575.0625 3654.4031,575.6875 Q3653.95,576.3125 3653.95,577.1719 L3653.95,578.0938 Q3653.95,579.125 3654.7938,579.8125 Q3655.6375,580.5 3657.1375,580.5 Q3658.0281,580.5 3658.6531,580.2969 Q3659.0125,580.1875 3659.4188,579.8281 Q3659.6844,579.625 3659.825,579.5625 Q3659.9656,579.5 3660.1375,579.5 Q3660.4656,579.5 3660.7,579.7656 Q3660.95,580.0156 3660.95,580.375 Q3660.95,580.7188 3660.6063,581.125 Q3660.1063,581.7188 3659.3094,582.0469 Q3658.2625,582.5 3656.9813,582.5 Q3655.4813,582.5 3654.2781,581.9063 Q3653.3094,581.4375 3652.6219,580.4219 Q3651.95,579.4063 3651.95,578.2031 L3651.95,577.1094 Q3651.95,575.8594 3652.5438,574.7656 Q3653.1531,573.6719 3654.2,573.0938 Q3655.2625,572.5 3656.45,572.5 Q3657.1688,572.5 3657.7938,572.75 Q3658.4188,573 3658.95,573.5 Z " fill="#000000"/><text fill="#000000" font-family="sans-serif" font-size="12" lengthAdjust="spacing" textLength="68" x="3677.05" y="581.9102">FormBuilder</text><line style="stroke:#A80036;stroke-width:1.5;" x1="3615.5" x2="3774.5" y1="593" y2="593"/><line style="stroke:#A80036;stroke-width:1.5;" x1="3615.5" x2="3774.5" y1="601" y2="601"/><text fill="#000000" font-family="sans-serif" font-size="11" lengthAdjust="spacing" textLength="45" x="3620.5" y="616.4189">+create()</text><text fill="#000000" font-family="sans-serif" font-size="11" lengthAdjust="spacing" textLength="88" x="3620.5" y="630.2549">+withName(name)</text><text fill="#000000" font-family="sans-serif" font-size="11" lengthAdjust="spacing" textLength="129" x="3620.5" y="644.0908">+withFormType(formType)</text><text fill="#000000" font-family="sans-serif" font-size="11" lengthAdjust="spacing" textLength="149" x="3620.5" y="657.9268">+withAttributeList(attributeList)</text><text fill="#000000" font-family="sans-serif" font-size="11" lengthAdjust="spacing" textLength="36" x="3620.5" y="671.7627">+build()</text><!--MD5=[48296f855dadaf4112ca95d4dd3a387a]
class AttributeBuilder--><rect codeLine="90" fill="#FEFECE" filter="url(#f1w752cfhzzku7)" height="158.6875" id="AttributeBuilder" style="stroke:#A80036;stroke-width:1.5;" width="154" x="3811" y="540"/><ellipse cx="3843.55" cy="556" fill="#ADD1B2" rx="11" ry="11" style="stroke:#A80036;stroke-width:1.0;"/><path d="M3845.55,552.5 Q3845.7531,552 3845.9875,551.75 Q3846.2219,551.5 3846.4875,551.5 Q3846.9563,551.5 3847.2531,551.7813 Q3847.55,552.0625 3847.55,552.7188 L3847.55,554.2813 Q3847.55,554.9375 3847.2688,555.2188 Q3846.9875,555.5 3846.55,555.5 Q3846.1594,555.5 3845.9094,555.3281 Q3845.6594,555.1563 3845.55,554.7031 Q3845.5031,554.3906 3845.3313,554.2188 Q3845.0188,553.8906 3844.4563,553.7031 Q3843.8938,553.5 3843.3313,553.5 Q3842.6281,553.5 3842.0344,553.7813 Q3841.4563,554.0625 3841.0031,554.6875 Q3840.55,555.3125 3840.55,556.1719 L3840.55,557.0938 Q3840.55,558.125 3841.3938,558.8125 Q3842.2375,559.5 3843.7375,559.5 Q3844.6281,559.5 3845.2531,559.2969 Q3845.6125,559.1875 3846.0188,558.8281 Q3846.2844,558.625 3846.425,558.5625 Q3846.5656,558.5 3846.7375,558.5 Q3847.0656,558.5 3847.3,558.7656 Q3847.55,559.0156 3847.55,559.375 Q3847.55,559.7188 3847.2063,560.125 Q3846.7063,560.7188 3845.9094,561.0469 Q3844.8625,561.5 3843.5813,561.5 Q3842.0813,561.5 3840.8781,560.9063 Q3839.9094,560.4375 3839.2219,559.4219 Q3838.55,558.4063 3838.55,557.2031 L3838.55,556.1094 Q3838.55,554.8594 3839.1438,553.7656 Q3839.7531,552.6719 3840.8,552.0938 Q3841.8625,551.5 3843.05,551.5 Q3843.7688,551.5 3844.3938,551.75 Q3845.0188,552 3845.55,552.5 Z " fill="#000000"/><text fill="#000000" font-family="sans-serif" font-size="12" lengthAdjust="spacing" textLength="83" x="3861.45" y="560.9102">AttributeBuilder</text><line style="stroke:#A80036;stroke-width:1.5;" x1="3812" x2="3964" y1="572" y2="572"/><line style="stroke:#A80036;stroke-width:1.5;" x1="3812" x2="3964" y1="580" y2="580"/><text fill="#000000" font-family="sans-serif" font-size="11" lengthAdjust="spacing" textLength="45" x="3817" y="595.4189">+create()</text><text fill="#000000" font-family="sans-serif" font-size="11" lengthAdjust="spacing" textLength="88" x="3817" y="609.2549">+withName(name)</text><text fill="#000000" font-family="sans-serif" font-size="11" lengthAdjust="spacing" textLength="83" x="3817" y="623.0908">+withLabel(label)</text><text fill="#000000" font-family="sans-serif" font-size="11" lengthAdjust="spacing" textLength="142" x="3817" y="636.9268">+withDescription(description)</text><text fill="#000000" font-family="sans-serif" font-size="11" lengthAdjust="spacing" textLength="94" x="3817" y="650.7627">+withRegex(regex)</text><text fill="#000000" font-family="sans-serif" font-size="11" lengthAdjust="spacing" textLength="107" x="3817" y="664.5986">+withScript(scriptPath</text><text fill="#000000" font-family="sans-serif" font-size="11" lengthAdjust="spacing" textLength="126" x="3817" y="678.4346">+withDataType(dataType)</text><text fill="#000000" font-family="sans-serif" font-size="11" lengthAdjust="spacing" textLength="36" x="3817" y="692.2705">+build()</text><!--MD5=[e8c189551b7885b999ad7cefb30fc2a3]
class PersistenceContext--><rect codeLine="106" fill="#FEFECE" filter="url(#f1w752cfhzzku7)" height="61.8359" id="PersistenceContext" style="stroke:#A80036;stroke-width:1.5;" width="139" x="32.5" y="588.5"/><ellipse cx="47.5" cy="604.5" fill="#ADD1B2" rx="11" ry="11" style="stroke:#A80036;stroke-width:1.0;"/><path d="M49.5,601 Q49.7031,600.5 49.9375,600.25 Q50.1719,600 50.4375,600 Q50.9063,600 51.2031,600.2813 Q51.5,600.5625 51.5,601.2188 L51.5,602.7813 Q51.5,603.4375 51.2188,603.7188 Q50.9375,604 50.5,604 Q50.1094,604 49.8594,603.8281 Q49.6094,603.6563 49.5,603.2031 Q49.4531,602.8906 49.2813,602.7188 Q48.9688,602.3906 48.4063,602.2031 Q47.8438,602 47.2813,602 Q46.5781,602 45.9844,602.2813 Q45.4063,602.5625 44.9531,603.1875 Q44.5,603.8125 44.5,604.6719 L44.5,605.5938 Q44.5,606.625 45.3438,607.3125 Q46.1875,608 47.6875,608 Q48.5781,608 49.2031,607.7969 Q49.5625,607.6875 49.9688,607.3281 Q50.2344,607.125 50.375,607.0625 Q50.5156,607 50.6875,607 Q51.0156,607 51.25,607.2656 Q51.5,607.5156 51.5,607.875 Q51.5,608.2188 51.1563,608.625 Q50.6563,609.2188 49.8594,609.5469 Q48.8125,610 47.5313,610 Q46.0313,610 44.8281,609.4063 Q43.8594,608.9375 43.1719,607.9219 Q42.5,606.9063 42.5,605.7031 L42.5,604.6094 Q42.5,603.3594 43.0938,602.2656 Q43.7031,601.1719 44.75,600.5938 Q45.8125,600 47,600 Q47.7188,600 48.3438,600.25 Q48.9688,600.5 49.5,601 Z " fill="#000000"/><text fill="#000000" font-family="sans-serif" font-size="12" lengthAdjust="spacing" textLength="107" x="61.5" y="609.4102">PersistenceContext</text><line style="stroke:#A80036;stroke-width:1.5;" x1="33.5" x2="170.5" y1="620.5" y2="620.5"/><line style="stroke:#A80036;stroke-width:1.5;" x1="33.5" x2="170.5" y1="628.5" y2="628.5"/><text fill="#000000" font-family="sans-serif" font-size="11" lengthAdjust="spacing" textLength="71" x="38.5" y="643.9189">+repositories()</text><!--MD5=[b8e4c95865208c934bfcfda4f90bf50c]
class AppSettings--><rect codeLine="110" fill="#FEFECE" filter="url(#f1w752cfhzzku7)" height="75.6719" id="AppSettings" style="stroke:#A80036;stroke-width:1.5;" width="130" x="275" y="581.5"/><ellipse cx="304.4" cy="597.5" fill="#ADD1B2" rx="11" ry="11" style="stroke:#A80036;stroke-width:1.0;"/><path d="M306.4,594 Q306.6031,593.5 306.8375,593.25 Q307.0719,593 307.3375,593 Q307.8063,593 308.1031,593.2813 Q308.4,593.5625 308.4,594.2188 L308.4,595.7813 Q308.4,596.4375 308.1188,596.7188 Q307.8375,597 307.4,597 Q307.0094,597 306.7594,596.8281 Q306.5094,596.6563 306.4,596.2031 Q306.3531,595.8906 306.1813,595.7188 Q305.8688,595.3906 305.3063,595.2031 Q304.7438,595 304.1813,595 Q303.4781,595 302.8844,595.2813 Q302.3063,595.5625 301.8531,596.1875 Q301.4,596.8125 301.4,597.6719 L301.4,598.5938 Q301.4,599.625 302.2438,600.3125 Q303.0875,601 304.5875,601 Q305.4781,601 306.1031,600.7969 Q306.4625,600.6875 306.8688,600.3281 Q307.1344,600.125 307.275,600.0625 Q307.4156,600 307.5875,600 Q307.9156,600 308.15,600.2656 Q308.4,600.5156 308.4,600.875 Q308.4,601.2188 308.0563,601.625 Q307.5563,602.2188 306.7594,602.5469 Q305.7125,603 304.4313,603 Q302.9313,603 301.7281,602.4063 Q300.7594,601.9375 300.0719,600.9219 Q299.4,599.9063 299.4,598.7031 L299.4,597.6094 Q299.4,596.3594 299.9938,595.2656 Q300.6031,594.1719 301.65,593.5938 Q302.7125,593 303.9,593 Q304.6188,593 305.2438,593.25 Q305.8688,593.5 306.4,594 Z " fill="#000000"/><text fill="#000000" font-family="sans-serif" font-size="12" lengthAdjust="spacing" textLength="66" x="321.6" y="602.4102">AppSettings</text><line style="stroke:#A80036;stroke-width:1.5;" x1="276" x2="404" y1="613.5" y2="613.5"/><line style="stroke:#A80036;stroke-width:1.5;" x1="276" x2="404" y1="621.5" y2="621.5"/><text fill="#000000" font-family="sans-serif" font-size="11" lengthAdjust="spacing" textLength="55" x="281" y="636.9189">+instance()</text><text fill="#000000" font-family="sans-serif" font-size="11" lengthAdjust="spacing" textLength="118" x="281" y="650.7549">+getRepositoryFactory()</text><!--MD5=[48590afff58a68e2fcba47824d6f8a11]
class RepositoryFactory--><rect codeLine="116" fill="#FEFECE" filter="url(#f1w752cfhzzku7)" height="103.3438" id="RepositoryFactory" style="stroke:#A80036;stroke-width:1.5;" width="130" x="485" y="568"/><ellipse cx="500" cy="584" fill="#ADD1B2" rx="11" ry="11" style="stroke:#A80036;stroke-width:1.0;"/><path d="M502,580.5 Q502.2031,580 502.4375,579.75 Q502.6719,579.5 502.9375,579.5 Q503.4063,579.5 503.7031,579.7813 Q504,580.0625 504,580.7188 L504,582.2813 Q504,582.9375 503.7188,583.2188 Q503.4375,583.5 503,583.5 Q502.6094,583.5 502.3594,583.3281 Q502.1094,583.1563 502,582.7031 Q501.9531,582.3906 501.7813,582.2188 Q501.4688,581.8906 500.9063,581.7031 Q500.3438,581.5 499.7813,581.5 Q499.0781,581.5 498.4844,581.7813 Q497.9063,582.0625 497.4531,582.6875 Q497,583.3125 497,584.1719 L497,585.0938 Q497,586.125 497.8438,586.8125 Q498.6875,587.5 500.1875,587.5 Q501.0781,587.5 501.7031,587.2969 Q502.0625,587.1875 502.4688,586.8281 Q502.7344,586.625 502.875,586.5625 Q503.0156,586.5 503.1875,586.5 Q503.5156,586.5 503.75,586.7656 Q504,587.0156 504,587.375 Q504,587.7188 503.6563,588.125 Q503.1563,588.7188 502.3594,589.0469 Q501.3125,589.5 500.0313,589.5 Q498.5313,589.5 497.3281,588.9063 Q496.3594,588.4375 495.6719,587.4219 Q495,586.4063 495,585.2031 L495,584.1094 Q495,582.8594 495.5938,581.7656 Q496.2031,580.6719 497.25,580.0938 Q498.3125,579.5 499.5,579.5 Q500.2188,579.5 500.8438,579.75 Q501.4688,580 502,580.5 Z " fill="#000000"/><text fill="#000000" font-family="sans-serif" font-size="12" lengthAdjust="spacing" textLength="98" x="514" y="588.9102">RepositoryFactory</text><line style="stroke:#A80036;stroke-width:1.5;" x1="486" x2="614" y1="600" y2="600"/><line style="stroke:#A80036;stroke-width:1.5;" x1="486" x2="614" y1="608" y2="608"/><text fill="#000000" font-family="sans-serif" font-size="11" lengthAdjust="spacing" textLength="45" x="491" y="623.4189">+create()</text><text fill="#000000" font-family="sans-serif" font-size="11" lengthAdjust="spacing" textLength="56" x="491" y="637.2549">+servicos()</text><text fill="#000000" font-family="sans-serif" font-size="11" lengthAdjust="spacing" textLength="61" x="491" y="651.0908">+catalogos()</text><text fill="#000000" font-family="sans-serif" font-size="11" lengthAdjust="spacing" textLength="68" x="491" y="664.9268">+formularios()</text><!--MD5=[c442d1a7174f61885988a69cb0f958b4]
class ServiceDraftRepository--><rect codeLine="126" fill="#FEFECE" filter="url(#f1w752cfhzzku7)" height="75.6719" id="ServiceDraftRepository" style="stroke:#A80036;stroke-width:1.5;" width="157" x="828.5" y="581.5"/><ellipse cx="843.5" cy="597.5" fill="#ADD1B2" rx="11" ry="11" style="stroke:#A80036;stroke-width:1.0;"/><path d="M845.5,594 Q845.7031,593.5 845.9375,593.25 Q846.1719,593 846.4375,593 Q846.9063,593 847.2031,593.2813 Q847.5,593.5625 847.5,594.2188 L847.5,595.7813 Q847.5,596.4375 847.2188,596.7188 Q846.9375,597 846.5,597 Q846.1094,597 845.8594,596.8281 Q845.6094,596.6563 845.5,596.2031 Q845.4531,595.8906 845.2813,595.7188 Q844.9688,595.3906 844.4063,595.2031 Q843.8438,595 843.2813,595 Q842.5781,595 841.9844,595.2813 Q841.4063,595.5625 840.9531,596.1875 Q840.5,596.8125 840.5,597.6719 L840.5,598.5938 Q840.5,599.625 841.3438,600.3125 Q842.1875,601 843.6875,601 Q844.5781,601 845.2031,600.7969 Q845.5625,600.6875 845.9688,600.3281 Q846.2344,600.125 846.375,600.0625 Q846.5156,600 846.6875,600 Q847.0156,600 847.25,600.2656 Q847.5,600.5156 847.5,600.875 Q847.5,601.2188 847.1563,601.625 Q846.6563,602.2188 845.8594,602.5469 Q844.8125,603 843.5313,603 Q842.0313,603 840.8281,602.4063 Q839.8594,601.9375 839.1719,600.9219 Q838.5,599.9063 838.5,598.7031 L838.5,597.6094 Q838.5,596.3594 839.0938,595.2656 Q839.7031,594.1719 840.75,593.5938 Q841.8125,593 843,593 Q843.7188,593 844.3438,593.25 Q844.9688,593.5 845.5,594 Z " fill="#000000"/><text fill="#000000" font-family="sans-serif" font-size="12" lengthAdjust="spacing" textLength="125" x="857.5" y="602.4102">ServiceDraftRepository</text><line style="stroke:#A80036;stroke-width:1.5;" x1="829.5" x2="984.5" y1="613.5" y2="613.5"/><line style="stroke:#A80036;stroke-width:1.5;" x1="829.5" x2="984.5" y1="621.5" y2="621.5"/><text fill="#000000" font-family="sans-serif" font-size="11" lengthAdjust="spacing" textLength="45" x="834.5" y="636.9189">+create()</text><text fill="#000000" font-family="sans-serif" font-size="11" lengthAdjust="spacing" textLength="98" x="834.5" y="650.7549">+save(serviceDraft)</text><!--MD5=[82131b75822bd28ea4d9cf09bc194e6e]
class FormRepository--><rect codeLine="131" fill="#FEFECE" filter="url(#f1w752cfhzzku7)" height="75.6719" id="FormRepository" style="stroke:#A80036;stroke-width:1.5;" width="120" x="673" y="581.5"/><ellipse cx="688" cy="597.5" fill="#ADD1B2" rx="11" ry="11" style="stroke:#A80036;stroke-width:1.0;"/><path d="M690,594 Q690.2031,593.5 690.4375,593.25 Q690.6719,593 690.9375,593 Q691.4063,593 691.7031,593.2813 Q692,593.5625 692,594.2188 L692,595.7813 Q692,596.4375 691.7188,596.7188 Q691.4375,597 691,597 Q690.6094,597 690.3594,596.8281 Q690.1094,596.6563 690,596.2031 Q689.9531,595.8906 689.7813,595.7188 Q689.4688,595.3906 688.9063,595.2031 Q688.3438,595 687.7813,595 Q687.0781,595 686.4844,595.2813 Q685.9063,595.5625 685.4531,596.1875 Q685,596.8125 685,597.6719 L685,598.5938 Q685,599.625 685.8438,600.3125 Q686.6875,601 688.1875,601 Q689.0781,601 689.7031,600.7969 Q690.0625,600.6875 690.4688,600.3281 Q690.7344,600.125 690.875,600.0625 Q691.0156,600 691.1875,600 Q691.5156,600 691.75,600.2656 Q692,600.5156 692,600.875 Q692,601.2188 691.6563,601.625 Q691.1563,602.2188 690.3594,602.5469 Q689.3125,603 688.0313,603 Q686.5313,603 685.3281,602.4063 Q684.3594,601.9375 683.6719,600.9219 Q683,599.9063 683,598.7031 L683,597.6094 Q683,596.3594 683.5938,595.2656 Q684.2031,594.1719 685.25,593.5938 Q686.3125,593 687.5,593 Q688.2188,593 688.8438,593.25 Q689.4688,593.5 690,594 Z " fill="#000000"/><text fill="#000000" font-family="sans-serif" font-size="12" lengthAdjust="spacing" textLength="88" x="702" y="602.4102">FormRepository</text><line style="stroke:#A80036;stroke-width:1.5;" x1="674" x2="792" y1="613.5" y2="613.5"/><line style="stroke:#A80036;stroke-width:1.5;" x1="674" x2="792" y1="621.5" y2="621.5"/><text fill="#000000" font-family="sans-serif" font-size="11" lengthAdjust="spacing" textLength="45" x="679" y="636.9189">+create()</text><text fill="#000000" font-family="sans-serif" font-size="11" lengthAdjust="spacing" textLength="60" x="679" y="650.7549">+save(form)</text><!--MD5=[8b0c75d8ae1a55397024b116e0d22f74]
link ServiceDraftSpecificationUI to ServiceDraftSpecificationController--><path codeLine="140" d="M3695,110.29 C3695,134.41 3695,173.55 3695,209.48 " fill="none" id="ServiceDraftSpecificationUI-to-ServiceDraftSpecificationController" style="stroke:#A80036;stroke-width:1.0;stroke-dasharray:7.0,7.0;"/><polygon fill="#A80036" points="3695,214.75,3699,205.75,3695,209.75,3691,205.75,3695,214.75" style="stroke:#A80036;stroke-width:1.0;"/><!--MD5=[ead3634b19a55fdd9013fd6361107340]
link ServiceDraftSpecificationController to FormBuilder--><path codeLine="141" d="M3695,374.1 C3695,429.89 3695,503.78 3695,555.65 " fill="none" id="ServiceDraftSpecificationController-to-FormBuilder" style="stroke:#A80036;stroke-width:1.0;stroke-dasharray:7.0,7.0;"/><polygon fill="#A80036" points="3695,560.92,3699,551.92,3695,555.92,3691,551.92,3695,560.92" style="stroke:#A80036;stroke-width:1.0;"/><!--MD5=[303828f9ab2f6cf7c45b5a8933dbb7cb]
link ServiceDraftSpecificationController to AttributeBuilder--><path codeLine="142" d="M3754.6,374.24 C3767.8,392.82 3781.32,412.81 3793,432 C3812.99,464.84 3832.69,502.38 3848.91,535.14 " fill="none" id="ServiceDraftSpecificationController-to-AttributeBuilder" style="stroke:#A80036;stroke-width:1.0;stroke-dasharray:7.0,7.0;"/><polygon fill="#A80036" points="3851.28,539.94,3850.8831,530.0991,3849.0668,535.4565,3843.7095,533.6403,3851.28,539.94" style="stroke:#A80036;stroke-width:1.0;"/><!--MD5=[c4515eb8dbaedaae32cf288fd2687d91]
link ServiceDraftSpecificationController to PersistenceContext--><path codeLine="143" d="M3526.18,300.45 C3070.46,314.11 1777.12,354.68 702,406 C504.55,415.42 434.56,343.12 258,432 C192.2,465.12 143.62,539.75 119.36,583.9 " fill="none" id="ServiceDraftSpecificationController-to-PersistenceContext" style="stroke:#A80036;stroke-width:1.0;stroke-dasharray:7.0,7.0;"/><polygon fill="#A80036" points="116.94,588.34,124.7694,582.3651,119.3403,583.9538,117.7515,578.5246,116.94,588.34" style="stroke:#A80036;stroke-width:1.0;"/><!--MD5=[d66efb439816738ddd3e9d5fff4bf3a7]
link AppSettings to RepositoryFactory--><path codeLine="145" d="M405.01,619.5 C428.74,619.5 455.67,619.5 479.83,619.5 " fill="none" id="AppSettings-to-RepositoryFactory" style="stroke:#A80036;stroke-width:1.0;"/><polygon fill="#A80036" points="484.94,619.5,475.94,615.5,479.94,619.5,475.94,623.5,484.94,619.5" style="stroke:#A80036;stroke-width:1.0;"/><text fill="#000000" font-family="sans-serif" font-size="13" lengthAdjust="spacing" textLength="43" x="423.5" y="612.9951">creates</text><!--MD5=[27fe1c91fe18bafc5695938053528609]
link PersistenceContext to AppSettings--><path codeLine="146" d="M171.8,619.5 C202.53,619.5 238.57,619.5 269.39,619.5 " fill="none" id="PersistenceContext-to-AppSettings" style="stroke:#A80036;stroke-width:1.0;"/><polygon fill="#A80036" points="274.69,619.5,265.69,615.5,269.69,619.5,265.69,623.5,274.69,619.5" style="stroke:#A80036;stroke-width:1.0;"/><text fill="#000000" font-family="sans-serif" font-size="13" lengthAdjust="spacing" textLength="67" x="189.75" y="612.9951">implements</text><!--MD5=[c099f118843079ed39661509eb060af6]
link RepositoryFactory to ServiceDraftRepository--><path codeLine="148" d="M566.98,567.73 C583.18,527.63 611.9,474.87 657,450 C716.94,416.95 751.87,415.53 811,450 C857.47,477.08 883.25,535.93 896.11,576.63 " fill="none" id="RepositoryFactory-to-ServiceDraftRepository" style="stroke:#A80036;stroke-width:1.0;"/><polygon fill="#A80036" points="897.62,581.5,898.7635,571.7177,896.1335,576.7261,891.1252,574.0961,897.62,581.5" style="stroke:#A80036;stroke-width:1.0;"/><text fill="#000000" font-family="sans-serif" font-size="13" lengthAdjust="spacing" textLength="21" x="710.5" y="420.4951">has</text><text fill="#000000" font-family="sans-serif" font-size="13" lengthAdjust="spacing" textLength="7" x="561.7914" y="557.194">1</text><text fill="#000000" font-family="sans-serif" font-size="13" lengthAdjust="spacing" textLength="7" x="888.2453" y="570.5765">1</text><!--MD5=[ba8ab1a505d555209a92eac3cb0969e8]
link RepositoryFactory to FormRepository--><path codeLine="149" d="M615.03,619.5 C632.07,619.5 650.45,619.5 667.51,619.5 " fill="none" id="RepositoryFactory-to-FormRepository" style="stroke:#A80036;stroke-width:1.0;"/><polygon fill="#A80036" points="672.76,619.5,663.76,615.5,667.76,619.5,663.76,623.5,672.76,619.5" style="stroke:#A80036;stroke-width:1.0;"/><text fill="#000000" font-family="sans-serif" font-size="13" lengthAdjust="spacing" textLength="21" x="633.5" y="612.9951">has</text><text fill="#000000" font-family="sans-serif" font-size="13" lengthAdjust="spacing" textLength="7" x="622.9538" y="616.0706">1</text><text fill="#000000" font-family="sans-serif" font-size="13" lengthAdjust="spacing" textLength="7" x="657.9917" y="616.0615">1</text><!--MD5=[d53e096ef2f9280c1f0af98ac059945b]
link ServiceDraftRepository to ServiceDraft--><path codeLine="151" d="M985.8,619.5 C1010.55,619.5 1037.6,619.5 1061.33,619.5 " fill="none" id="ServiceDraftRepository-to-ServiceDraft" style="stroke:#A80036;stroke-width:1.0;"/><polygon fill="#A80036" points="1066.35,619.5,1057.35,615.5,1061.35,619.5,1057.35,623.5,1066.35,619.5" style="stroke:#A80036;stroke-width:1.0;"/><text fill="#000000" font-family="sans-serif" font-size="13" lengthAdjust="spacing" textLength="33" x="1009.5" y="612.9951">saves</text><text fill="#000000" font-family="sans-serif" font-size="13" lengthAdjust="spacing" textLength="7" x="993.387" y="616.2889">1</text><text fill="#000000" font-family="sans-serif" font-size="13" lengthAdjust="spacing" textLength="5" x="1053.6536" y="616.0615">*</text><!--MD5=[dfd9f748dcbcf503f457b6c39d52db15]
link FormRepository to Form--><path codeLine="152" d="M738.5,581.4 C746.6,540.91 765.99,478.83 811,450 C884.72,402.77 1125.86,412.55 1205,450 C1263.01,477.45 1304.91,542.29 1326.76,583.35 " fill="none" id="FormRepository-to-Form" style="stroke:#A80036;stroke-width:1.0;"/><polygon fill="#A80036" points="1329.32,588.23,1328.6719,578.4025,1326.993,583.8045,1321.591,582.1256,1329.32,588.23" style="stroke:#A80036;stroke-width:1.0;"/><text fill="#000000" font-family="sans-serif" font-size="13" lengthAdjust="spacing" textLength="33" x="1002.5" y="420.4951">saves</text><text fill="#000000" font-family="sans-serif" font-size="13" lengthAdjust="spacing" textLength="7" x="731.8563" y="570.7441">1</text><text fill="#000000" font-family="sans-serif" font-size="13" lengthAdjust="spacing" textLength="5" x="1320.7766" y="577.6789">*</text><!--MD5=[4231b0446641a058ba7a2e1fc6613ad7]
link FormBuilder to Form--><path codeLine="153" d="M3682.71,560.73 C3671.22,521.97 3649.79,474.07 3611,450 C3510.54,387.67 1589.86,399.43 1483,450 C1424.99,477.45 1383.09,542.29 1361.24,583.35 " fill="none" id="FormBuilder-to-Form" style="stroke:#A80036;stroke-width:1.0;"/><polygon fill="#A80036" points="1358.68,588.23,1366.409,582.1256,1361.007,583.8045,1359.3281,578.4025,1358.68,588.23" style="stroke:#A80036;stroke-width:1.0;"/><text fill="#000000" font-family="sans-serif" font-size="13" lengthAdjust="spacing" textLength="34" x="1533" y="420.4951">builds</text><text fill="#000000" font-family="sans-serif" font-size="13" lengthAdjust="spacing" textLength="7" x="3673.7856" y="550.098">1</text><text fill="#000000" font-family="sans-serif" font-size="13" lengthAdjust="spacing" textLength="5" x="1356.1921" y="577.6789">*</text><!--MD5=[2e95c4a5850addea09a63512f30caafe]
link AttributeBuilder to Attribute--><path codeLine="154" d="M3863.75,539.73 C3849.04,505.81 3826.47,469.61 3793,450 C3717.79,405.94 2305.57,419.27 2224,450 C2152.85,476.81 2090.86,543.09 2057.4,584.38 " fill="none" id="AttributeBuilder-to-Attribute" style="stroke:#A80036;stroke-width:1.0;"/><polygon fill="#A80036" points="2054.25,588.29,2063.0199,583.8079,2057.3943,584.4024,2056.7998,578.7769,2054.25,588.29" style="stroke:#A80036;stroke-width:1.0;"/><text fill="#000000" font-family="sans-serif" font-size="13" lengthAdjust="spacing" textLength="34" x="3334" y="420.4951">builds</text><text fill="#000000" font-family="sans-serif" font-size="13" lengthAdjust="spacing" textLength="7" x="3854.1918" y="529.1644">1</text><text fill="#000000" font-family="sans-serif" font-size="13" lengthAdjust="spacing" textLength="5" x="2053.5297" y="577.7512">*</text><!--MD5=[8e2d2ea5c070cc3efe1d66b65b73adeb]
link ServiceDraft to Form--><path codeLine="156" d="M1187.74,619.5 C1204.12,619.5 1222.33,619.5 1240.36,619.5 " fill="none" id="ServiceDraft-to-Form" style="stroke:#A80036;stroke-width:1.0;"/><polygon fill="#A80036" points="1245.43,619.5,1236.43,615.5,1240.43,619.5,1236.43,623.5,1245.43,619.5" style="stroke:#A80036;stroke-width:1.0;"/><text fill="#000000" font-family="sans-serif" font-size="13" lengthAdjust="spacing" textLength="21" x="1206" y="612.9951">has</text><text fill="#000000" font-family="sans-serif" font-size="13" lengthAdjust="spacing" textLength="7" x="1195.5693" y="616.0615">1</text><text fill="#000000" font-family="sans-serif" font-size="13" lengthAdjust="spacing" textLength="5" x="1232.376" y="616.3782">*</text><!--MD5=[424822e8e69e4af0c08c14d28c23b6d3]
link Form to FormName--><path codeLine="158" d="M1358.68,588.23 C1379.71,547.63 1422.63,478.57 1483,450 C1557.72,414.64 1597.58,408.37 1669,450 C1715.47,477.08 1741.25,535.93 1754.11,576.63 " fill="none" id="Form-to-FormName" style="stroke:#A80036;stroke-width:1.0;"/><polygon fill="#A80036" points="1755.62,581.5,1756.7635,571.7177,1754.1335,576.7261,1749.1252,574.0961,1755.62,581.5" style="stroke:#A80036;stroke-width:1.0;"/><text fill="#000000" font-family="sans-serif" font-size="13" lengthAdjust="spacing" textLength="21" x="1619.5" y="420.4951">has</text><text fill="#000000" font-family="sans-serif" font-size="13" lengthAdjust="spacing" textLength="7" x="1362.4296" y="577.6789">1</text><text fill="#000000" font-family="sans-serif" font-size="13" lengthAdjust="spacing" textLength="7" x="1746.2453" y="570.5765">1</text><!--MD5=[7db6c6cdf2bdefdb995b5afb296c71bf]
link Form to FormType--><path codeLine="159" d="M1442.73,619.5 C1460.16,619.5 1478.13,619.5 1495.01,619.5 " fill="none" id="Form-to-FormType" style="stroke:#A80036;stroke-width:1.0;"/><polygon fill="#A80036" points="1500.21,619.5,1491.21,615.5,1495.21,619.5,1491.21,623.5,1500.21,619.5" style="stroke:#A80036;stroke-width:1.0;"/><text fill="#000000" font-family="sans-serif" font-size="13" lengthAdjust="spacing" textLength="21" x="1461" y="612.9951">has</text><text fill="#000000" font-family="sans-serif" font-size="13" lengthAdjust="spacing" textLength="7" x="1450.557" y="616.4024">1</text><text fill="#000000" font-family="sans-serif" font-size="13" lengthAdjust="spacing" textLength="7" x="1485.4049" y="616.2491">1</text><!--MD5=[971d5490c4dc9d82955338ed7a7bbf99]
link Form to Attribute--><path codeLine="160" d="M1358.68,588.23 C1379.71,547.63 1422.63,478.57 1483,450 C1558.93,414.07 1783.37,417.91 1861,450 C1926.54,477.09 1980.06,543.05 2008.58,584.24 " fill="none" id="Form-to-Attribute" style="stroke:#A80036;stroke-width:1.0;"/><polygon fill="#A80036" points="2011.43,588.4,2009.6431,578.7146,2008.604,584.2752,2003.0434,583.2362,2011.43,588.4" style="stroke:#A80036;stroke-width:1.0;"/><text fill="#000000" font-family="sans-serif" font-size="13" lengthAdjust="spacing" textLength="21" x="1751.5" y="420.4951">has</text><text fill="#000000" font-family="sans-serif" font-size="13" lengthAdjust="spacing" textLength="7" x="1353.9859" y="577.6789">1</text><text fill="#000000" font-family="sans-serif" font-size="13" lengthAdjust="spacing" textLength="20" x="1985.3312" y="577.8839">1..*</text><!--MD5=[b586ca04e226261218368980e08d6e05]
link Attribute to AttributeName--><path codeLine="162" d="M2054.25,588.29 C2086.87,547.41 2150.55,477.67 2224,450 C2343.26,405.07 3258.64,389.86 3371,450 C3420.59,476.54 3452.18,535.52 3468.99,576.39 " fill="none" id="Attribute-to-AttributeName" style="stroke:#A80036;stroke-width:1.0;"/><polygon fill="#A80036" points="3470.97,581.28,3471.3153,571.4372,3469.1008,576.6426,3463.8954,574.428,3470.97,581.28" style="stroke:#A80036;stroke-width:1.0;"/><text fill="#000000" font-family="sans-serif" font-size="13" lengthAdjust="spacing" textLength="21" x="3001.5" y="420.4951">has</text><text fill="#000000" font-family="sans-serif" font-size="13" lengthAdjust="spacing" textLength="7" x="2059.7672" y="577.7512">1</text><text fill="#000000" font-family="sans-serif" font-size="13" lengthAdjust="spacing" textLength="7" x="3461.0256" y="570.6027">1</text><!--MD5=[a59df021dadfc641ad79fe8b2949653c]
link Attribute to AttributeLabel--><path codeLine="163" d="M2054.25,588.29 C2086.87,547.41 2150.55,477.67 2224,450 C2320.18,413.76 3058.58,401.13 3149,450 C3198.21,476.6 3229.12,535.56 3245.47,576.42 " fill="none" id="Attribute-to-AttributeLabel" style="stroke:#A80036;stroke-width:1.0;"/><polygon fill="#A80036" points="3247.39,581.31,3247.824,571.4707,3245.5626,576.6559,3240.3774,574.3945,3247.39,581.31" style="stroke:#A80036;stroke-width:1.0;"/><text fill="#000000" font-family="sans-serif" font-size="13" lengthAdjust="spacing" textLength="21" x="2204.5" y="420.4951">has</text><text fill="#000000" font-family="sans-serif" font-size="13" lengthAdjust="spacing" textLength="7" x="2051.3234" y="577.7512">1</text><text fill="#000000" font-family="sans-serif" font-size="13" lengthAdjust="spacing" textLength="7" x="3237.5204" y="570.6381">1</text><!--MD5=[431604de72fb750b0652e9a7ebe12be3]
link Attribute to AttributeDescription--><path codeLine="164" d="M2054.25,588.29 C2086.87,547.41 2150.55,477.67 2224,450 C2358.13,399.46 2739.33,388.92 2869,450 C2924.3,476.05 2965.21,535.85 2988.08,576.97 " fill="none" id="Attribute-to-AttributeDescription" style="stroke:#A80036;stroke-width:1.0;"/><polygon fill="#A80036" points="2990.51,581.39,2989.685,571.5758,2988.1037,577.0071,2982.6724,575.4258,2990.51,581.39" style="stroke:#A80036;stroke-width:1.0;"/><text fill="#000000" font-family="sans-serif" font-size="13" lengthAdjust="spacing" textLength="21" x="2607.5" y="420.4951">has</text><text fill="#000000" font-family="sans-serif" font-size="13" lengthAdjust="spacing" textLength="7" x="2068.4813" y="577.1115">1</text><text fill="#000000" font-family="sans-serif" font-size="13" lengthAdjust="spacing" textLength="7" x="2979.593" y="570.7323">1</text><!--MD5=[5218e0bc46566a5d7a077248f603307a]
link Attribute to AttributeRegex--><path codeLine="165" d="M2054.25,588.29 C2086.87,547.41 2150.55,477.67 2224,450 C2309.47,417.8 2554.13,407.56 2635,450 C2685.35,476.43 2718.3,535.43 2736.03,576.34 " fill="none" id="Attribute-to-AttributeRegex" style="stroke:#A80036;stroke-width:1.0;"/><polygon fill="#A80036" points="2738.12,581.24,2738.2513,571.392,2736.1504,576.6443,2730.8981,574.5434,2738.12,581.24" style="stroke:#A80036;stroke-width:1.0;"/><text fill="#000000" font-family="sans-serif" font-size="13" lengthAdjust="spacing" textLength="21" x="2253.5" y="420.4951">has</text><text fill="#000000" font-family="sans-serif" font-size="13" lengthAdjust="spacing" textLength="7" x="2059.7672" y="577.7512">1</text><text fill="#000000" font-family="sans-serif" font-size="13" lengthAdjust="spacing" textLength="7" x="2728.0242" y="570.5556">1</text><!--MD5=[22bf452f871a2350b3b093bad15d401b]
link Attribute to AttributeScript--><path codeLine="166" d="M2054.25,588.29 C2086.87,547.41 2150.55,477.67 2224,450 C2300.11,421.32 2335.21,411.77 2407,450 C2456.78,476.51 2488.71,535.5 2505.75,576.38 " fill="none" id="Attribute-to-AttributeScript" style="stroke:#A80036;stroke-width:1.0;"/><polygon fill="#A80036" points="2507.75,581.27,2508.0327,571.4252,2505.8513,576.6445,2500.6319,574.4632,2507.75,581.27" style="stroke:#A80036;stroke-width:1.0;"/><text fill="#000000" font-family="sans-serif" font-size="13" lengthAdjust="spacing" textLength="21" x="2321.5" y="420.4951">has</text><text fill="#000000" font-family="sans-serif" font-size="13" lengthAdjust="spacing" textLength="7" x="2083.0063" y="577.1115">1</text><text fill="#000000" font-family="sans-serif" font-size="13" lengthAdjust="spacing" textLength="7" x="2497.7664" y="570.5909">1</text><!--MD5=[53b6849afd857e62c9a23fc2c159a646]
link Attribute to DataType--><path codeLine="167" d="M2183.81,619.5 C2201.77,619.5 2219.51,619.5 2235.85,619.5 " fill="none" id="Attribute-to-DataType" style="stroke:#A80036;stroke-width:1.0;"/><polygon fill="#A80036" points="2240.88,619.5,2231.88,615.5,2235.88,619.5,2231.88,623.5,2240.88,619.5" style="stroke:#A80036;stroke-width:1.0;"/><text fill="#000000" font-family="sans-serif" font-size="13" lengthAdjust="spacing" textLength="21" x="2201.75" y="612.9951">has</text><text fill="#000000" font-family="sans-serif" font-size="13" lengthAdjust="spacing" textLength="7" x="2191.3813" y="616.6201">1</text><text fill="#000000" font-family="sans-serif" font-size="13" lengthAdjust="spacing" textLength="7" x="2225.8754" y="616.2136">1</text><!--MD5=[7c5e49b818d4f39e5cff1ec2548d84c5]
@startuml
skinparam classAttributeIconSize 0

package "Presentation" #DDDDDD {
class ServiceDraftSpecificationUI{

}
}


package "Application" #DDDDDD {
class ServiceDraftSpecificationController{
+create()
+getServiceDraftById(id)
+newDraft()
+addForm(name, formType)
+addAttribute(name, label, description, regex, scriptPath, dataType)
+saveForm()
+addForm()
+saveServiceDraft()
}
}


package "Domain" #DDDDDD {
class ServiceDraft{
+create()
+setFormList(formList)
}

class Form{
+create(name, formType, attributeList)
}

class Attribute{
+create(name, label, description, regex, scriptPath, dataType
}

class FormName{
+createFormName(formName)
-validate(formName)
}

class FormType{
+createFormType(formType)
+values()
-validate(formType)
}

class AttributeName{
+createAttributeName(attributeName)
-validate(attributeName)
}

class AttributeLabel{
+createAtributoLabel(attributeLabel)
-validate(attributeLabel)
}

class AttributeDescription{
+createAttributeDescription(attributeDescription)
-validate(attributeDescription)
}

class AttributeRegex{
+createAttributeRegex(attributeRegex)
-validate(attributeRegex)
}

class AttributeScript{
+createAttributeScript(attributeScript)
-validate(attributeScript)
}

class DataType{
+createDataType(dataType)
+values()
-validate(dataType)
}

package Builder #DDDDDD {

class FormBuilder{
+create()
+withName(name)
+withFormType(formType)
+withAttributeList(attributeList)
+build()
}

class AttributeBuilder{
+create()
+withName(name)
+withLabel(label)
+withDescription(description)
+withRegex(regex)
+withScript(scriptPath
+withDataType(dataType)
+build()
}

}

}

package Persistence #DDDDDD {
class PersistenceContext{
+repositories()
}

class AppSettings{
+instance()
+getRepositoryFactory()
}

package Factory #DDDDDD {
class RepositoryFactory{
+create()
+servicos()
+catalogos()
+formularios()
}
}

package "Repository" #DDDDDD {

class ServiceDraftRepository{
+create()
+save(serviceDraft)
}

class FormRepository{
+create()
+save(form)
}

}



ServiceDraftSpecificationUI ..> ServiceDraftSpecificationController
ServiceDraftSpecificationController ..> FormBuilder
ServiceDraftSpecificationController ..> AttributeBuilder
ServiceDraftSpecificationController ..> PersistenceContext

AppSettings -> RepositoryFactory : creates
PersistenceContext -> AppSettings : implements

RepositoryFactory "1" -> "1" ServiceDraftRepository : has
RepositoryFactory "1" -> "1" FormRepository : has

ServiceDraftRepository "1" -> "*" ServiceDraft : saves
FormRepository "1" -> "*" Form : saves
FormBuilder "1" -> "*" Form : builds
AttributeBuilder "1" -> "*" Attribute : builds

ServiceDraft "1" -> "*" Form : has

Form "1" -> "1" FormName : has
Form "1" -> "1" FormType : has
Form "1" -> "1..*" Attribute : has

Attribute "1" -> "1" AttributeName : has
Attribute "1" -> "1" AttributeLabel : has
Attribute "1" -> "1" AttributeDescription : has
Attribute "1" -> "1" AttributeRegex : has
Attribute "1" -> "1" AttributeScript : has
Attribute "1" -> "1" DataType : has


@enduml

PlantUML version 1.2021.5(Sun Apr 25 12:20:28 BST 2021)
(GPL source distribution)
Java Runtime: OpenJDK Runtime Environment
JVM: Dynamic Code Evolution 64-Bit Server VM
Default Encoding: Cp1252
Language: pt
Country: PT
--></g></svg>