<?xml version="1.0" encoding="UTF-8" standalone="no"?><svg xmlns="http://www.w3.org/2000/svg" xmlns:xlink="http://www.w3.org/1999/xlink" contentScriptType="application/ecmascript" contentStyleType="text/css" height="746px" preserveAspectRatio="none" style="width:4031px;height:746px;" version="1.1" viewBox="0 0 4031 746" width="4031px" zoomAndPan="magnify"><defs><filter height="300%" id="fa0a1z0co6bkk" width="300%" x="-1" y="-1"><feGaussianBlur result="blurOut" stdDeviation="2.0"/><feColorMatrix in="blurOut" result="blurOut2" type="matrix" values="0 0 0 0 0 0 0 0 0 0 0 0 0 0 0 0 0 0 .4 0"/><feOffset dx="4.0" dy="4.0" in="blurOut2" result="blurOut3"/><feBlend in="SourceGraphic" in2="blurOut3" mode="normal"/></filter></defs><g><!--MD5=[8fd473fd151a2794da4f2c8684676405]
cluster Presentation--><polygon fill="#DDDDDD" filter="url(#fa0a1z0co6bkk)" points="3598,6,3694,6,3701,29.6094,3810,29.6094,3810,126,3598,126,3598,6" style="stroke:#000000;stroke-width:1.5;"/><line style="stroke:#000000;stroke-width:1.5;" x1="3598" x2="3701" y1="29.6094" y2="29.6094"/><text fill="#000000" font-family="sans-serif" font-size="14" font-weight="bold" lengthAdjust="spacing" textLength="90" x="3602" y="22.5332">Presentation</text><!--MD5=[d64883541e3d62e3241c4d12decf100d]
cluster Application--><polygon fill="#DDDDDD" filter="url(#fa0a1z0co6bkk)" points="3519,159,3603,159,3610,182.6094,3889,182.6094,3889,390,3519,390,3519,159" style="stroke:#000000;stroke-width:1.5;"/><line style="stroke:#000000;stroke-width:1.5;" x1="3519" x2="3610" y1="182.6094" y2="182.6094"/><text fill="#000000" font-family="sans-serif" font-size="14" font-weight="bold" lengthAdjust="spacing" textLength="78" x="3523" y="175.5332">Application</text><!--MD5=[121a8bf1197281ab89ed693fab589f94]
cluster Domain--><polygon fill="#DDDDDD" filter="url(#fa0a1z0co6bkk)" points="1059,440,1117,440,1124,463.6094,4014,463.6094,4014,739,1059,739,1059,440" style="stroke:#000000;stroke-width:1.5;"/><line style="stroke:#000000;stroke-width:1.5;" x1="1059" x2="1124" y1="463.6094" y2="463.6094"/><text fill="#000000" font-family="sans-serif" font-size="14" font-weight="bold" lengthAdjust="spacing" textLength="52" x="1063" y="456.5332">Domain</text><!--MD5=[44cc74aea8168fb4471e814fff38ed12]
cluster Builder--><polygon fill="#DDDDDD" filter="url(#fa0a1z0co6bkk)" points="3607,484,3664,484,3671,507.6094,3990,507.6094,3990,715,3607,715,3607,484" style="stroke:#000000;stroke-width:1.5;"/><line style="stroke:#000000;stroke-width:1.5;" x1="3607" x2="3671" y1="507.6094" y2="507.6094"/><text fill="#000000" font-family="sans-serif" font-size="14" font-weight="bold" lengthAdjust="spacing" textLength="51" x="3611" y="500.5332">Builder</text><!--MD5=[bc6b40dadbf86ab6a0c8405a467a48af]
cluster Persistence--><polygon fill="#DDDDDD" filter="url(#fa0a1z0co6bkk)" points="16,468,106,468,113,491.6094,1035,491.6094,1035,711,16,711,16,468" style="stroke:#000000;stroke-width:1.5;"/><line style="stroke:#000000;stroke-width:1.5;" x1="16" x2="113" y1="491.6094" y2="491.6094"/><text fill="#000000" font-family="sans-serif" font-size="14" font-weight="bold" lengthAdjust="spacing" textLength="84" x="20" y="484.5332">Persistence</text><!--MD5=[0d5799440b3bfefd92b00abfcd2c79b9]
cluster Factory--><polygon fill="#DDDDDD" filter="url(#fa0a1z0co6bkk)" points="849,512,907,512,914,535.6094,1011,535.6094,1011,687,849,687,849,512" style="stroke:#000000;stroke-width:1.5;"/><line style="stroke:#000000;stroke-width:1.5;" x1="849" x2="914" y1="535.6094" y2="535.6094"/><text fill="#000000" font-family="sans-serif" font-size="14" font-weight="bold" lengthAdjust="spacing" textLength="52" x="853" y="528.5332">Factory</text><!--MD5=[71971f99a41bb66cf321ce46bb59f738]
cluster Repository--><polygon fill="#DDDDDD" filter="url(#fa0a1z0co6bkk)" points="424,525.5,506,525.5,513,549.1094,769,549.1094,769,673.5,424,673.5,424,525.5" style="stroke:#000000;stroke-width:1.5;"/><line style="stroke:#000000;stroke-width:1.5;" x1="424" x2="513" y1="549.1094" y2="549.1094"/><text fill="#000000" font-family="sans-serif" font-size="14" font-weight="bold" lengthAdjust="spacing" textLength="76" x="428" y="542.0332">Repository</text><!--MD5=[f27219df0a1e616b6830236e82ba2972]
class ServiceDraftSpecificationUI--><rect codeLine="4" fill="#FEFECE" filter="url(#fa0a1z0co6bkk)" height="48" id="ServiceDraftSpecificationUI" style="stroke:#A80036;stroke-width:1.5;" width="180" x="3614" y="62"/><ellipse cx="3629" cy="78" fill="#ADD1B2" rx="11" ry="11" style="stroke:#A80036;stroke-width:1.0;"/><path d="M3631,74.5 Q3631.2031,74 3631.4375,73.75 Q3631.6719,73.5 3631.9375,73.5 Q3632.4063,73.5 3632.7031,73.7813 Q3633,74.0625 3633,74.7188 L3633,76.2813 Q3633,76.9375 3632.7188,77.2188 Q3632.4375,77.5 3632,77.5 Q3631.6094,77.5 3631.3594,77.3281 Q3631.1094,77.1563 3631,76.7031 Q3630.9531,76.3906 3630.7813,76.2188 Q3630.4688,75.8906 3629.9063,75.7031 Q3629.3438,75.5 3628.7813,75.5 Q3628.0781,75.5 3627.4844,75.7813 Q3626.9063,76.0625 3626.4531,76.6875 Q3626,77.3125 3626,78.1719 L3626,79.0938 Q3626,80.125 3626.8438,80.8125 Q3627.6875,81.5 3629.1875,81.5 Q3630.0781,81.5 3630.7031,81.2969 Q3631.0625,81.1875 3631.4688,80.8281 Q3631.7344,80.625 3631.875,80.5625 Q3632.0156,80.5 3632.1875,80.5 Q3632.5156,80.5 3632.75,80.7656 Q3633,81.0156 3633,81.375 Q3633,81.7188 3632.6563,82.125 Q3632.1563,82.7188 3631.3594,83.0469 Q3630.3125,83.5 3629.0313,83.5 Q3627.5313,83.5 3626.3281,82.9063 Q3625.3594,82.4375 3624.6719,81.4219 Q3624,80.4063 3624,79.2031 L3624,78.1094 Q3624,76.8594 3624.5938,75.7656 Q3625.2031,74.6719 3626.25,74.0938 Q3627.3125,73.5 3628.5,73.5 Q3629.2188,73.5 3629.8438,73.75 Q3630.4688,74 3631,74.5 Z " fill="#000000"/><text fill="#000000" font-family="sans-serif" font-size="12" lengthAdjust="spacing" textLength="148" x="3643" y="82.9102">ServiceDraftSpecificationUI</text><line style="stroke:#A80036;stroke-width:1.5;" x1="3615" x2="3793" y1="94" y2="94"/><line style="stroke:#A80036;stroke-width:1.5;" x1="3615" x2="3793" y1="102" y2="102"/><!--MD5=[78ca3c1b028cc8a220cf10e5ffc69797]
class ServiceDraftSpecificationController--><rect codeLine="11" fill="#FEFECE" filter="url(#fa0a1z0co6bkk)" height="158.6875" id="ServiceDraftSpecificationController" style="stroke:#A80036;stroke-width:1.5;" width="337" x="3535.5" y="215"/><ellipse cx="3604.75" cy="231" fill="#ADD1B2" rx="11" ry="11" style="stroke:#A80036;stroke-width:1.0;"/><path d="M3606.75,227.5 Q3606.9531,227 3607.1875,226.75 Q3607.4219,226.5 3607.6875,226.5 Q3608.1563,226.5 3608.4531,226.7813 Q3608.75,227.0625 3608.75,227.7188 L3608.75,229.2813 Q3608.75,229.9375 3608.4688,230.2188 Q3608.1875,230.5 3607.75,230.5 Q3607.3594,230.5 3607.1094,230.3281 Q3606.8594,230.1563 3606.75,229.7031 Q3606.7031,229.3906 3606.5313,229.2188 Q3606.2188,228.8906 3605.6563,228.7031 Q3605.0938,228.5 3604.5313,228.5 Q3603.8281,228.5 3603.2344,228.7813 Q3602.6563,229.0625 3602.2031,229.6875 Q3601.75,230.3125 3601.75,231.1719 L3601.75,232.0938 Q3601.75,233.125 3602.5938,233.8125 Q3603.4375,234.5 3604.9375,234.5 Q3605.8281,234.5 3606.4531,234.2969 Q3606.8125,234.1875 3607.2188,233.8281 Q3607.4844,233.625 3607.625,233.5625 Q3607.7656,233.5 3607.9375,233.5 Q3608.2656,233.5 3608.5,233.7656 Q3608.75,234.0156 3608.75,234.375 Q3608.75,234.7188 3608.4063,235.125 Q3607.9063,235.7188 3607.1094,236.0469 Q3606.0625,236.5 3604.7813,236.5 Q3603.2813,236.5 3602.0781,235.9063 Q3601.1094,235.4375 3600.4219,234.4219 Q3599.75,233.4063 3599.75,232.2031 L3599.75,231.1094 Q3599.75,229.8594 3600.3438,228.7656 Q3600.9531,227.6719 3602,227.0938 Q3603.0625,226.5 3604.25,226.5 Q3604.9688,226.5 3605.5938,226.75 Q3606.2188,227 3606.75,227.5 Z " fill="#000000"/><text fill="#000000" font-family="sans-serif" font-size="12" lengthAdjust="spacing" textLength="190" x="3625.25" y="235.9102">ServiceDraftSpecificationController</text><line style="stroke:#A80036;stroke-width:1.5;" x1="3536.5" x2="3871.5" y1="247" y2="247"/><line style="stroke:#A80036;stroke-width:1.5;" x1="3536.5" x2="3871.5" y1="255" y2="255"/><text fill="#000000" font-family="sans-serif" font-size="11" lengthAdjust="spacing" textLength="45" x="3541.5" y="270.4189">+create()</text><text fill="#000000" font-family="sans-serif" font-size="11" lengthAdjust="spacing" textLength="119" x="3541.5" y="284.2549">+getServiceDraftById(id)</text><text fill="#000000" font-family="sans-serif" font-size="11" lengthAdjust="spacing" textLength="60" x="3541.5" y="298.0908">+newDraft()</text><text fill="#000000" font-family="sans-serif" font-size="11" lengthAdjust="spacing" textLength="134" x="3541.5" y="311.9268">+addForm(name, formType)</text><text fill="#000000" font-family="sans-serif" font-size="11" lengthAdjust="spacing" textLength="325" x="3541.5" y="325.7627">+addAttribute(name, label, description, regex, scriptPath, dataType)</text><text fill="#000000" font-family="sans-serif" font-size="11" lengthAdjust="spacing" textLength="62" x="3541.5" y="339.5986">+saveForm()</text><text fill="#000000" font-family="sans-serif" font-size="11" lengthAdjust="spacing" textLength="56" x="3541.5" y="353.4346">+addForm()</text><text fill="#000000" font-family="sans-serif" font-size="11" lengthAdjust="spacing" textLength="99" x="3541.5" y="367.2705">+saveServiceDraft()</text><!--MD5=[925d5031f5a4e53e61ccd699b6d8c35b]
class ServiceDraft--><rect codeLine="25" fill="#FEFECE" filter="url(#fa0a1z0co6bkk)" height="75.6719" id="ServiceDraft" style="stroke:#A80036;stroke-width:1.5;" width="121" x="1075.5" y="581.5"/><ellipse cx="1100.85" cy="597.5" fill="#ADD1B2" rx="11" ry="11" style="stroke:#A80036;stroke-width:1.0;"/><path d="M1102.85,594 Q1103.0531,593.5 1103.2875,593.25 Q1103.5219,593 1103.7875,593 Q1104.2563,593 1104.5531,593.2813 Q1104.85,593.5625 1104.85,594.2188 L1104.85,595.7813 Q1104.85,596.4375 1104.5688,596.7188 Q1104.2875,597 1103.85,597 Q1103.4594,597 1103.2094,596.8281 Q1102.9594,596.6563 1102.85,596.2031 Q1102.8031,595.8906 1102.6313,595.7188 Q1102.3188,595.3906 1101.7563,595.2031 Q1101.1938,595 1100.6313,595 Q1099.9281,595 1099.3344,595.2813 Q1098.7563,595.5625 1098.3031,596.1875 Q1097.85,596.8125 1097.85,597.6719 L1097.85,598.5938 Q1097.85,599.625 1098.6938,600.3125 Q1099.5375,601 1101.0375,601 Q1101.9281,601 1102.5531,600.7969 Q1102.9125,600.6875 1103.3188,600.3281 Q1103.5844,600.125 1103.725,600.0625 Q1103.8656,600 1104.0375,600 Q1104.3656,600 1104.6,600.2656 Q1104.85,600.5156 1104.85,600.875 Q1104.85,601.2188 1104.5063,601.625 Q1104.0063,602.2188 1103.2094,602.5469 Q1102.1625,603 1100.8813,603 Q1099.3813,603 1098.1781,602.4063 Q1097.2094,601.9375 1096.5219,600.9219 Q1095.85,599.9063 1095.85,598.7031 L1095.85,597.6094 Q1095.85,596.3594 1096.4438,595.2656 Q1097.0531,594.1719 1098.1,593.5938 Q1099.1625,593 1100.35,593 Q1101.0688,593 1101.6938,593.25 Q1102.3188,593.5 1102.85,594 Z " fill="#000000"/><text fill="#000000" font-family="sans-serif" font-size="12" lengthAdjust="spacing" textLength="66" x="1117.15" y="602.4102">ServiceDraft</text><line style="stroke:#A80036;stroke-width:1.5;" x1="1076.5" x2="1195.5" y1="613.5" y2="613.5"/><line style="stroke:#A80036;stroke-width:1.5;" x1="1076.5" x2="1195.5" y1="621.5" y2="621.5"/><text fill="#000000" font-family="sans-serif" font-size="11" lengthAdjust="spacing" textLength="45" x="1081.5" y="636.9189">+create()</text><text fill="#000000" font-family="sans-serif" font-size="11" lengthAdjust="spacing" textLength="109" x="1081.5" y="650.7549">+setFormList(formList)</text><!--MD5=[6f29f313cd4199edbf91b9ce3a4faa98]
class Form--><rect codeLine="30" fill="#FEFECE" filter="url(#fa0a1z0co6bkk)" height="61.8359" id="Form" style="stroke:#A80036;stroke-width:1.5;" width="197" x="1254.5" y="588.5"/><ellipse cx="1334.25" cy="604.5" fill="#ADD1B2" rx="11" ry="11" style="stroke:#A80036;stroke-width:1.0;"/><path d="M1336.25,601 Q1336.4531,600.5 1336.6875,600.25 Q1336.9219,600 1337.1875,600 Q1337.6563,600 1337.9531,600.2813 Q1338.25,600.5625 1338.25,601.2188 L1338.25,602.7813 Q1338.25,603.4375 1337.9688,603.7188 Q1337.6875,604 1337.25,604 Q1336.8594,604 1336.6094,603.8281 Q1336.3594,603.6563 1336.25,603.2031 Q1336.2031,602.8906 1336.0313,602.7188 Q1335.7188,602.3906 1335.1563,602.2031 Q1334.5938,602 1334.0313,602 Q1333.3281,602 1332.7344,602.2813 Q1332.1563,602.5625 1331.7031,603.1875 Q1331.25,603.8125 1331.25,604.6719 L1331.25,605.5938 Q1331.25,606.625 1332.0938,607.3125 Q1332.9375,608 1334.4375,608 Q1335.3281,608 1335.9531,607.7969 Q1336.3125,607.6875 1336.7188,607.3281 Q1336.9844,607.125 1337.125,607.0625 Q1337.2656,607 1337.4375,607 Q1337.7656,607 1338,607.2656 Q1338.25,607.5156 1338.25,607.875 Q1338.25,608.2188 1337.9063,608.625 Q1337.4063,609.2188 1336.6094,609.5469 Q1335.5625,610 1334.2813,610 Q1332.7813,610 1331.5781,609.4063 Q1330.6094,608.9375 1329.9219,607.9219 Q1329.25,606.9063 1329.25,605.7031 L1329.25,604.6094 Q1329.25,603.3594 1329.8438,602.2656 Q1330.4531,601.1719 1331.5,600.5938 Q1332.5625,600 1333.75,600 Q1334.4688,600 1335.0938,600.25 Q1335.7188,600.5 1336.25,601 Z " fill="#000000"/><text fill="#000000" font-family="sans-serif" font-size="12" lengthAdjust="spacing" textLength="29" x="1354.75" y="609.4102">Form</text><line style="stroke:#A80036;stroke-width:1.5;" x1="1255.5" x2="1450.5" y1="620.5" y2="620.5"/><line style="stroke:#A80036;stroke-width:1.5;" x1="1255.5" x2="1450.5" y1="628.5" y2="628.5"/><text fill="#000000" font-family="sans-serif" font-size="11" lengthAdjust="spacing" textLength="185" x="1260.5" y="643.9189">+create(name, formType, attributeList)</text><!--MD5=[787494ff879e99315e413996e631a796]
class Attribute--><rect codeLine="34" fill="#FEFECE" filter="url(#fa0a1z0co6bkk)" height="61.8359" id="Attribute" style="stroke:#A80036;stroke-width:1.5;" width="305" x="1887.5" y="588.5"/><ellipse cx="2013.75" cy="604.5" fill="#ADD1B2" rx="11" ry="11" style="stroke:#A80036;stroke-width:1.0;"/><path d="M2015.75,601 Q2015.9531,600.5 2016.1875,600.25 Q2016.4219,600 2016.6875,600 Q2017.1563,600 2017.4531,600.2813 Q2017.75,600.5625 2017.75,601.2188 L2017.75,602.7813 Q2017.75,603.4375 2017.4688,603.7188 Q2017.1875,604 2016.75,604 Q2016.3594,604 2016.1094,603.8281 Q2015.8594,603.6563 2015.75,603.2031 Q2015.7031,602.8906 2015.5313,602.7188 Q2015.2188,602.3906 2014.6563,602.2031 Q2014.0938,602 2013.5313,602 Q2012.8281,602 2012.2344,602.2813 Q2011.6563,602.5625 2011.2031,603.1875 Q2010.75,603.8125 2010.75,604.6719 L2010.75,605.5938 Q2010.75,606.625 2011.5938,607.3125 Q2012.4375,608 2013.9375,608 Q2014.8281,608 2015.4531,607.7969 Q2015.8125,607.6875 2016.2188,607.3281 Q2016.4844,607.125 2016.625,607.0625 Q2016.7656,607 2016.9375,607 Q2017.2656,607 2017.5,607.2656 Q2017.75,607.5156 2017.75,607.875 Q2017.75,608.2188 2017.4063,608.625 Q2016.9063,609.2188 2016.1094,609.5469 Q2015.0625,610 2013.7813,610 Q2012.2813,610 2011.0781,609.4063 Q2010.1094,608.9375 2009.4219,607.9219 Q2008.75,606.9063 2008.75,605.7031 L2008.75,604.6094 Q2008.75,603.3594 2009.3438,602.2656 Q2009.9531,601.1719 2011,600.5938 Q2012.0625,600 2013.25,600 Q2013.9688,600 2014.5938,600.25 Q2015.2188,600.5 2015.75,601 Z " fill="#000000"/><text fill="#000000" font-family="sans-serif" font-size="12" lengthAdjust="spacing" textLength="44" x="2034.25" y="609.4102">Attribute</text><line style="stroke:#A80036;stroke-width:1.5;" x1="1888.5" x2="2191.5" y1="620.5" y2="620.5"/><line style="stroke:#A80036;stroke-width:1.5;" x1="1888.5" x2="2191.5" y1="628.5" y2="628.5"/><text fill="#000000" font-family="sans-serif" font-size="11" lengthAdjust="spacing" textLength="293" x="1893.5" y="643.9189">+create(name, label, description, regex, scriptPath, dataType</text><!--MD5=[9555c84b6fd548991761066443e965b1]
class FormName--><rect codeLine="38" fill="#FEFECE" filter="url(#fa0a1z0co6bkk)" height="75.6719" id="FormName" style="stroke:#A80036;stroke-width:1.5;" width="157" x="1695.5" y="581.5"/><ellipse cx="1738.4" cy="597.5" fill="#ADD1B2" rx="11" ry="11" style="stroke:#A80036;stroke-width:1.0;"/><path d="M1740.4,594 Q1740.6031,593.5 1740.8375,593.25 Q1741.0719,593 1741.3375,593 Q1741.8063,593 1742.1031,593.2813 Q1742.4,593.5625 1742.4,594.2188 L1742.4,595.7813 Q1742.4,596.4375 1742.1188,596.7188 Q1741.8375,597 1741.4,597 Q1741.0094,597 1740.7594,596.8281 Q1740.5094,596.6563 1740.4,596.2031 Q1740.3531,595.8906 1740.1813,595.7188 Q1739.8688,595.3906 1739.3063,595.2031 Q1738.7438,595 1738.1813,595 Q1737.4781,595 1736.8844,595.2813 Q1736.3063,595.5625 1735.8531,596.1875 Q1735.4,596.8125 1735.4,597.6719 L1735.4,598.5938 Q1735.4,599.625 1736.2438,600.3125 Q1737.0875,601 1738.5875,601 Q1739.4781,601 1740.1031,600.7969 Q1740.4625,600.6875 1740.8688,600.3281 Q1741.1344,600.125 1741.275,600.0625 Q1741.4156,600 1741.5875,600 Q1741.9156,600 1742.15,600.2656 Q1742.4,600.5156 1742.4,600.875 Q1742.4,601.2188 1742.0563,601.625 Q1741.5563,602.2188 1740.7594,602.5469 Q1739.7125,603 1738.4313,603 Q1736.9313,603 1735.7281,602.4063 Q1734.7594,601.9375 1734.0719,600.9219 Q1733.4,599.9063 1733.4,598.7031 L1733.4,597.6094 Q1733.4,596.3594 1733.9938,595.2656 Q1734.6031,594.1719 1735.65,593.5938 Q1736.7125,593 1737.9,593 Q1738.6188,593 1739.2438,593.25 Q1739.8688,593.5 1740.4,594 Z " fill="#000000"/><text fill="#000000" font-family="sans-serif" font-size="12" lengthAdjust="spacing" textLength="63" x="1758.6" y="602.4102">FormName</text><line style="stroke:#A80036;stroke-width:1.5;" x1="1696.5" x2="1851.5" y1="613.5" y2="613.5"/><line style="stroke:#A80036;stroke-width:1.5;" x1="1696.5" x2="1851.5" y1="621.5" y2="621.5"/><text fill="#000000" font-family="sans-serif" font-size="11" lengthAdjust="spacing" textLength="145" x="1701.5" y="636.9189">+createFormName(formName)</text><text fill="#000000" font-family="sans-serif" font-size="11" lengthAdjust="spacing" textLength="98" x="1701.5" y="650.7549">-validate(formName)</text><!--MD5=[f97bc38be6e42a8b0d0074a8f95022fc]
class FormType--><rect codeLine="43" fill="#FEFECE" filter="url(#fa0a1z0co6bkk)" height="89.5078" id="FormType" style="stroke:#A80036;stroke-width:1.5;" width="151" x="1509.5" y="574.5"/><ellipse cx="1553.3" cy="590.5" fill="#ADD1B2" rx="11" ry="11" style="stroke:#A80036;stroke-width:1.0;"/><path d="M1555.3,587 Q1555.5031,586.5 1555.7375,586.25 Q1555.9719,586 1556.2375,586 Q1556.7063,586 1557.0031,586.2813 Q1557.3,586.5625 1557.3,587.2188 L1557.3,588.7813 Q1557.3,589.4375 1557.0188,589.7188 Q1556.7375,590 1556.3,590 Q1555.9094,590 1555.6594,589.8281 Q1555.4094,589.6563 1555.3,589.2031 Q1555.2531,588.8906 1555.0813,588.7188 Q1554.7688,588.3906 1554.2063,588.2031 Q1553.6438,588 1553.0813,588 Q1552.3781,588 1551.7844,588.2813 Q1551.2063,588.5625 1550.7531,589.1875 Q1550.3,589.8125 1550.3,590.6719 L1550.3,591.5938 Q1550.3,592.625 1551.1438,593.3125 Q1551.9875,594 1553.4875,594 Q1554.3781,594 1555.0031,593.7969 Q1555.3625,593.6875 1555.7688,593.3281 Q1556.0344,593.125 1556.175,593.0625 Q1556.3156,593 1556.4875,593 Q1556.8156,593 1557.05,593.2656 Q1557.3,593.5156 1557.3,593.875 Q1557.3,594.2188 1556.9563,594.625 Q1556.4563,595.2188 1555.6594,595.5469 Q1554.6125,596 1553.3313,596 Q1551.8313,596 1550.6281,595.4063 Q1549.6594,594.9375 1548.9719,593.9219 Q1548.3,592.9063 1548.3,591.7031 L1548.3,590.6094 Q1548.3,589.3594 1548.8938,588.2656 Q1549.5031,587.1719 1550.55,586.5938 Q1551.6125,586 1552.8,586 Q1553.5188,586 1554.1438,586.25 Q1554.7688,586.5 1555.3,587 Z " fill="#000000"/><text fill="#000000" font-family="sans-serif" font-size="12" lengthAdjust="spacing" textLength="55" x="1573.7" y="595.4102">FormType</text><line style="stroke:#A80036;stroke-width:1.5;" x1="1510.5" x2="1659.5" y1="606.5" y2="606.5"/><line style="stroke:#A80036;stroke-width:1.5;" x1="1510.5" x2="1659.5" y1="614.5" y2="614.5"/><text fill="#000000" font-family="sans-serif" font-size="11" lengthAdjust="spacing" textLength="139" x="1515.5" y="629.9189">+createFormType(formType)</text><text fill="#000000" font-family="sans-serif" font-size="11" lengthAdjust="spacing" textLength="46" x="1515.5" y="643.7549">+values()</text><text fill="#000000" font-family="sans-serif" font-size="11" lengthAdjust="spacing" textLength="95" x="1515.5" y="657.5908">-validate(formType)</text><!--MD5=[7730af8102616437f2081915ece208fe]
class AttributeName--><rect codeLine="49" fill="#FEFECE" filter="url(#fa0a1z0co6bkk)" height="75.6719" id="AttributeName" style="stroke:#A80036;stroke-width:1.5;" width="191" x="3397.5" y="581.5"/><ellipse cx="3449.75" cy="597.5" fill="#ADD1B2" rx="11" ry="11" style="stroke:#A80036;stroke-width:1.0;"/><path d="M3451.75,594 Q3451.9531,593.5 3452.1875,593.25 Q3452.4219,593 3452.6875,593 Q3453.1563,593 3453.4531,593.2813 Q3453.75,593.5625 3453.75,594.2188 L3453.75,595.7813 Q3453.75,596.4375 3453.4688,596.7188 Q3453.1875,597 3452.75,597 Q3452.3594,597 3452.1094,596.8281 Q3451.8594,596.6563 3451.75,596.2031 Q3451.7031,595.8906 3451.5313,595.7188 Q3451.2188,595.3906 3450.6563,595.2031 Q3450.0938,595 3449.5313,595 Q3448.8281,595 3448.2344,595.2813 Q3447.6563,595.5625 3447.2031,596.1875 Q3446.75,596.8125 3446.75,597.6719 L3446.75,598.5938 Q3446.75,599.625 3447.5938,600.3125 Q3448.4375,601 3449.9375,601 Q3450.8281,601 3451.4531,600.7969 Q3451.8125,600.6875 3452.2188,600.3281 Q3452.4844,600.125 3452.625,600.0625 Q3452.7656,600 3452.9375,600 Q3453.2656,600 3453.5,600.2656 Q3453.75,600.5156 3453.75,600.875 Q3453.75,601.2188 3453.4063,601.625 Q3452.9063,602.2188 3452.1094,602.5469 Q3451.0625,603 3449.7813,603 Q3448.2813,603 3447.0781,602.4063 Q3446.1094,601.9375 3445.4219,600.9219 Q3444.75,599.9063 3444.75,598.7031 L3444.75,597.6094 Q3444.75,596.3594 3445.3438,595.2656 Q3445.9531,594.1719 3447,593.5938 Q3448.0625,593 3449.25,593 Q3449.9688,593 3450.5938,593.25 Q3451.2188,593.5 3451.75,594 Z " fill="#000000"/><text fill="#000000" font-family="sans-serif" font-size="12" lengthAdjust="spacing" textLength="78" x="3470.25" y="602.4102">AttributeName</text><line style="stroke:#A80036;stroke-width:1.5;" x1="3398.5" x2="3587.5" y1="613.5" y2="613.5"/><line style="stroke:#A80036;stroke-width:1.5;" x1="3398.5" x2="3587.5" y1="621.5" y2="621.5"/><text fill="#000000" font-family="sans-serif" font-size="11" lengthAdjust="spacing" textLength="179" x="3403.5" y="636.9189">+createAttributeName(attributeName)</text><text fill="#000000" font-family="sans-serif" font-size="11" lengthAdjust="spacing" textLength="115" x="3403.5" y="650.7549">-validate(attributeName)</text><!--MD5=[026f7fe645532d5909e09af22ec70fff]
class AttributeLabel--><rect codeLine="54" fill="#FEFECE" filter="url(#fa0a1z0co6bkk)" height="75.6719" id="AttributeLabel" style="stroke:#A80036;stroke-width:1.5;" width="186" x="3176" y="581.5"/><ellipse cx="3227.25" cy="597.5" fill="#ADD1B2" rx="11" ry="11" style="stroke:#A80036;stroke-width:1.0;"/><path d="M3229.25,594 Q3229.4531,593.5 3229.6875,593.25 Q3229.9219,593 3230.1875,593 Q3230.6563,593 3230.9531,593.2813 Q3231.25,593.5625 3231.25,594.2188 L3231.25,595.7813 Q3231.25,596.4375 3230.9688,596.7188 Q3230.6875,597 3230.25,597 Q3229.8594,597 3229.6094,596.8281 Q3229.3594,596.6563 3229.25,596.2031 Q3229.2031,595.8906 3229.0313,595.7188 Q3228.7188,595.3906 3228.1563,595.2031 Q3227.5938,595 3227.0313,595 Q3226.3281,595 3225.7344,595.2813 Q3225.1563,595.5625 3224.7031,596.1875 Q3224.25,596.8125 3224.25,597.6719 L3224.25,598.5938 Q3224.25,599.625 3225.0938,600.3125 Q3225.9375,601 3227.4375,601 Q3228.3281,601 3228.9531,600.7969 Q3229.3125,600.6875 3229.7188,600.3281 Q3229.9844,600.125 3230.125,600.0625 Q3230.2656,600 3230.4375,600 Q3230.7656,600 3231,600.2656 Q3231.25,600.5156 3231.25,600.875 Q3231.25,601.2188 3230.9063,601.625 Q3230.4063,602.2188 3229.6094,602.5469 Q3228.5625,603 3227.2813,603 Q3225.7813,603 3224.5781,602.4063 Q3223.6094,601.9375 3222.9219,600.9219 Q3222.25,599.9063 3222.25,598.7031 L3222.25,597.6094 Q3222.25,596.3594 3222.8438,595.2656 Q3223.4531,594.1719 3224.5,593.5938 Q3225.5625,593 3226.75,593 Q3227.4688,593 3228.0938,593.25 Q3228.7188,593.5 3229.25,594 Z " fill="#000000"/><text fill="#000000" font-family="sans-serif" font-size="12" lengthAdjust="spacing" textLength="75" x="3247.75" y="602.4102">AttributeLabel</text><line style="stroke:#A80036;stroke-width:1.5;" x1="3177" x2="3361" y1="613.5" y2="613.5"/><line style="stroke:#A80036;stroke-width:1.5;" x1="3177" x2="3361" y1="621.5" y2="621.5"/><text fill="#000000" font-family="sans-serif" font-size="11" lengthAdjust="spacing" textLength="174" x="3182" y="636.9189">+createAtributoLabel(attributeLabel)</text><text fill="#000000" font-family="sans-serif" font-size="11" lengthAdjust="spacing" textLength="114" x="3182" y="650.7549">-validate(attributeLabel)</text><!--MD5=[4862e575995b54c71e16f8b6c129262c]
class AttributeDescription--><rect codeLine="59" fill="#FEFECE" filter="url(#fa0a1z0co6bkk)" height="75.6719" id="AttributeDescription" style="stroke:#A80036;stroke-width:1.5;" width="245" x="2895.5" y="581.5"/><ellipse cx="2960.25" cy="597.5" fill="#ADD1B2" rx="11" ry="11" style="stroke:#A80036;stroke-width:1.0;"/><path d="M2962.25,594 Q2962.4531,593.5 2962.6875,593.25 Q2962.9219,593 2963.1875,593 Q2963.6563,593 2963.9531,593.2813 Q2964.25,593.5625 2964.25,594.2188 L2964.25,595.7813 Q2964.25,596.4375 2963.9688,596.7188 Q2963.6875,597 2963.25,597 Q2962.8594,597 2962.6094,596.8281 Q2962.3594,596.6563 2962.25,596.2031 Q2962.2031,595.8906 2962.0313,595.7188 Q2961.7188,595.3906 2961.1563,595.2031 Q2960.5938,595 2960.0313,595 Q2959.3281,595 2958.7344,595.2813 Q2958.1563,595.5625 2957.7031,596.1875 Q2957.25,596.8125 2957.25,597.6719 L2957.25,598.5938 Q2957.25,599.625 2958.0938,600.3125 Q2958.9375,601 2960.4375,601 Q2961.3281,601 2961.9531,600.7969 Q2962.3125,600.6875 2962.7188,600.3281 Q2962.9844,600.125 2963.125,600.0625 Q2963.2656,600 2963.4375,600 Q2963.7656,600 2964,600.2656 Q2964.25,600.5156 2964.25,600.875 Q2964.25,601.2188 2963.9063,601.625 Q2963.4063,602.2188 2962.6094,602.5469 Q2961.5625,603 2960.2813,603 Q2958.7813,603 2957.5781,602.4063 Q2956.6094,601.9375 2955.9219,600.9219 Q2955.25,599.9063 2955.25,598.7031 L2955.25,597.6094 Q2955.25,596.3594 2955.8438,595.2656 Q2956.4531,594.1719 2957.5,593.5938 Q2958.5625,593 2959.75,593 Q2960.4688,593 2961.0938,593.25 Q2961.7188,593.5 2962.25,594 Z " fill="#000000"/><text fill="#000000" font-family="sans-serif" font-size="12" lengthAdjust="spacing" textLength="107" x="2980.75" y="602.4102">AttributeDescription</text><line style="stroke:#A80036;stroke-width:1.5;" x1="2896.5" x2="3139.5" y1="613.5" y2="613.5"/><line style="stroke:#A80036;stroke-width:1.5;" x1="2896.5" x2="3139.5" y1="621.5" y2="621.5"/><text fill="#000000" font-family="sans-serif" font-size="11" lengthAdjust="spacing" textLength="233" x="2901.5" y="636.9189">+createAttributeDescription(attributeDescription)</text><text fill="#000000" font-family="sans-serif" font-size="11" lengthAdjust="spacing" textLength="142" x="2901.5" y="650.7549">-validate(attributeDescription)</text><!--MD5=[b364529acba39bfc522f6b29f223163f]
class AttributeRegex--><rect codeLine="64" fill="#FEFECE" filter="url(#fa0a1z0co6bkk)" height="75.6719" id="AttributeRegex" style="stroke:#A80036;stroke-width:1.5;" width="199" x="2661.5" y="581.5"/><ellipse cx="2717.25" cy="597.5" fill="#ADD1B2" rx="11" ry="11" style="stroke:#A80036;stroke-width:1.0;"/><path d="M2719.25,594 Q2719.4531,593.5 2719.6875,593.25 Q2719.9219,593 2720.1875,593 Q2720.6563,593 2720.9531,593.2813 Q2721.25,593.5625 2721.25,594.2188 L2721.25,595.7813 Q2721.25,596.4375 2720.9688,596.7188 Q2720.6875,597 2720.25,597 Q2719.8594,597 2719.6094,596.8281 Q2719.3594,596.6563 2719.25,596.2031 Q2719.2031,595.8906 2719.0313,595.7188 Q2718.7188,595.3906 2718.1563,595.2031 Q2717.5938,595 2717.0313,595 Q2716.3281,595 2715.7344,595.2813 Q2715.1563,595.5625 2714.7031,596.1875 Q2714.25,596.8125 2714.25,597.6719 L2714.25,598.5938 Q2714.25,599.625 2715.0938,600.3125 Q2715.9375,601 2717.4375,601 Q2718.3281,601 2718.9531,600.7969 Q2719.3125,600.6875 2719.7188,600.3281 Q2719.9844,600.125 2720.125,600.0625 Q2720.2656,600 2720.4375,600 Q2720.7656,600 2721,600.2656 Q2721.25,600.5156 2721.25,600.875 Q2721.25,601.2188 2720.9063,601.625 Q2720.4063,602.2188 2719.6094,602.5469 Q2718.5625,603 2717.2813,603 Q2715.7813,603 2714.5781,602.4063 Q2713.6094,601.9375 2712.9219,600.9219 Q2712.25,599.9063 2712.25,598.7031 L2712.25,597.6094 Q2712.25,596.3594 2712.8438,595.2656 Q2713.4531,594.1719 2714.5,593.5938 Q2715.5625,593 2716.75,593 Q2717.4688,593 2718.0938,593.25 Q2718.7188,593.5 2719.25,594 Z " fill="#000000"/><text fill="#000000" font-family="sans-serif" font-size="12" lengthAdjust="spacing" textLength="79" x="2737.75" y="602.4102">AttributeRegex</text><line style="stroke:#A80036;stroke-width:1.5;" x1="2662.5" x2="2859.5" y1="613.5" y2="613.5"/><line style="stroke:#A80036;stroke-width:1.5;" x1="2662.5" x2="2859.5" y1="621.5" y2="621.5"/><text fill="#000000" font-family="sans-serif" font-size="11" lengthAdjust="spacing" textLength="187" x="2667.5" y="636.9189">+createAttributeRegex(attributeRegex)</text><text fill="#000000" font-family="sans-serif" font-size="11" lengthAdjust="spacing" textLength="119" x="2667.5" y="650.7549">-validate(attributeRegex)</text><!--MD5=[f7f675f870e9e40e2223e003a8668a3c]
class AttributeScript--><rect codeLine="69" fill="#FEFECE" filter="url(#fa0a1z0co6bkk)" height="75.6719" id="AttributeScript" style="stroke:#A80036;stroke-width:1.5;" width="193" x="2433.5" y="581.5"/><ellipse cx="2488.25" cy="597.5" fill="#ADD1B2" rx="11" ry="11" style="stroke:#A80036;stroke-width:1.0;"/><path d="M2490.25,594 Q2490.4531,593.5 2490.6875,593.25 Q2490.9219,593 2491.1875,593 Q2491.6563,593 2491.9531,593.2813 Q2492.25,593.5625 2492.25,594.2188 L2492.25,595.7813 Q2492.25,596.4375 2491.9688,596.7188 Q2491.6875,597 2491.25,597 Q2490.8594,597 2490.6094,596.8281 Q2490.3594,596.6563 2490.25,596.2031 Q2490.2031,595.8906 2490.0313,595.7188 Q2489.7188,595.3906 2489.1563,595.2031 Q2488.5938,595 2488.0313,595 Q2487.3281,595 2486.7344,595.2813 Q2486.1563,595.5625 2485.7031,596.1875 Q2485.25,596.8125 2485.25,597.6719 L2485.25,598.5938 Q2485.25,599.625 2486.0938,600.3125 Q2486.9375,601 2488.4375,601 Q2489.3281,601 2489.9531,600.7969 Q2490.3125,600.6875 2490.7188,600.3281 Q2490.9844,600.125 2491.125,600.0625 Q2491.2656,600 2491.4375,600 Q2491.7656,600 2492,600.2656 Q2492.25,600.5156 2492.25,600.875 Q2492.25,601.2188 2491.9063,601.625 Q2491.4063,602.2188 2490.6094,602.5469 Q2489.5625,603 2488.2813,603 Q2486.7813,603 2485.5781,602.4063 Q2484.6094,601.9375 2483.9219,600.9219 Q2483.25,599.9063 2483.25,598.7031 L2483.25,597.6094 Q2483.25,596.3594 2483.8438,595.2656 Q2484.4531,594.1719 2485.5,593.5938 Q2486.5625,593 2487.75,593 Q2488.4688,593 2489.0938,593.25 Q2489.7188,593.5 2490.25,594 Z " fill="#000000"/><text fill="#000000" font-family="sans-serif" font-size="12" lengthAdjust="spacing" textLength="75" x="2508.75" y="602.4102">AttributeScript</text><line style="stroke:#A80036;stroke-width:1.5;" x1="2434.5" x2="2625.5" y1="613.5" y2="613.5"/><line style="stroke:#A80036;stroke-width:1.5;" x1="2434.5" x2="2625.5" y1="621.5" y2="621.5"/><text fill="#000000" font-family="sans-serif" font-size="11" lengthAdjust="spacing" textLength="181" x="2439.5" y="636.9189">+createAttributeScript(attributeScript)</text><text fill="#000000" font-family="sans-serif" font-size="11" lengthAdjust="spacing" textLength="116" x="2439.5" y="650.7549">-validate(attributeScript)</text><!--MD5=[3949b939274c3ebd79b8ab92605ab7ed]
class DataType--><rect codeLine="74" fill="#FEFECE" filter="url(#fa0a1z0co6bkk)" height="75.6719" id="DataType" style="stroke:#A80036;stroke-width:1.5;" width="148" x="2250" y="581.5"/><ellipse cx="2293.8" cy="597.5" fill="#ADD1B2" rx="11" ry="11" style="stroke:#A80036;stroke-width:1.0;"/><path d="M2295.8,594 Q2296.0031,593.5 2296.2375,593.25 Q2296.4719,593 2296.7375,593 Q2297.2063,593 2297.5031,593.2813 Q2297.8,593.5625 2297.8,594.2188 L2297.8,595.7813 Q2297.8,596.4375 2297.5188,596.7188 Q2297.2375,597 2296.8,597 Q2296.4094,597 2296.1594,596.8281 Q2295.9094,596.6563 2295.8,596.2031 Q2295.7531,595.8906 2295.5813,595.7188 Q2295.2688,595.3906 2294.7063,595.2031 Q2294.1438,595 2293.5813,595 Q2292.8781,595 2292.2844,595.2813 Q2291.7063,595.5625 2291.2531,596.1875 Q2290.8,596.8125 2290.8,597.6719 L2290.8,598.5938 Q2290.8,599.625 2291.6438,600.3125 Q2292.4875,601 2293.9875,601 Q2294.8781,601 2295.5031,600.7969 Q2295.8625,600.6875 2296.2688,600.3281 Q2296.5344,600.125 2296.675,600.0625 Q2296.8156,600 2296.9875,600 Q2297.3156,600 2297.55,600.2656 Q2297.8,600.5156 2297.8,600.875 Q2297.8,601.2188 2297.4563,601.625 Q2296.9563,602.2188 2296.1594,602.5469 Q2295.1125,603 2293.8313,603 Q2292.3313,603 2291.1281,602.4063 Q2290.1594,601.9375 2289.4719,600.9219 Q2288.8,599.9063 2288.8,598.7031 L2288.8,597.6094 Q2288.8,596.3594 2289.3938,595.2656 Q2290.0031,594.1719 2291.05,593.5938 Q2292.1125,593 2293.3,593 Q2294.0188,593 2294.6438,593.25 Q2295.2688,593.5 2295.8,594 Z " fill="#000000"/><text fill="#000000" font-family="sans-serif" font-size="12" lengthAdjust="spacing" textLength="52" x="2314.2" y="602.4102">DataType</text><line style="stroke:#A80036;stroke-width:1.5;" x1="2251" x2="2397" y1="613.5" y2="613.5"/><line style="stroke:#A80036;stroke-width:1.5;" x1="2251" x2="2397" y1="621.5" y2="621.5"/><text fill="#000000" font-family="sans-serif" font-size="11" lengthAdjust="spacing" textLength="136" x="2256" y="636.9189">+createDataType(dataType)</text><text fill="#000000" font-family="sans-serif" font-size="11" lengthAdjust="spacing" textLength="94" x="2256" y="650.7549">-validate(dataType)</text><!--MD5=[552a4e0091f456c26441f4ab52a9c8b5]
class FormBuilder--><rect codeLine="81" fill="#FEFECE" filter="url(#fa0a1z0co6bkk)" height="117.1797" id="FormBuilder" style="stroke:#A80036;stroke-width:1.5;" width="161" x="3623.5" y="561"/><ellipse cx="3665.95" cy="577" fill="#ADD1B2" rx="11" ry="11" style="stroke:#A80036;stroke-width:1.0;"/><path d="M3667.95,573.5 Q3668.1531,573 3668.3875,572.75 Q3668.6219,572.5 3668.8875,572.5 Q3669.3563,572.5 3669.6531,572.7813 Q3669.95,573.0625 3669.95,573.7188 L3669.95,575.2813 Q3669.95,575.9375 3669.6688,576.2188 Q3669.3875,576.5 3668.95,576.5 Q3668.5594,576.5 3668.3094,576.3281 Q3668.0594,576.1563 3667.95,575.7031 Q3667.9031,575.3906 3667.7313,575.2188 Q3667.4188,574.8906 3666.8563,574.7031 Q3666.2938,574.5 3665.7313,574.5 Q3665.0281,574.5 3664.4344,574.7813 Q3663.8563,575.0625 3663.4031,575.6875 Q3662.95,576.3125 3662.95,577.1719 L3662.95,578.0938 Q3662.95,579.125 3663.7938,579.8125 Q3664.6375,580.5 3666.1375,580.5 Q3667.0281,580.5 3667.6531,580.2969 Q3668.0125,580.1875 3668.4188,579.8281 Q3668.6844,579.625 3668.825,579.5625 Q3668.9656,579.5 3669.1375,579.5 Q3669.4656,579.5 3669.7,579.7656 Q3669.95,580.0156 3669.95,580.375 Q3669.95,580.7188 3669.6063,581.125 Q3669.1063,581.7188 3668.3094,582.0469 Q3667.2625,582.5 3665.9813,582.5 Q3664.4813,582.5 3663.2781,581.9063 Q3662.3094,581.4375 3661.6219,580.4219 Q3660.95,579.4063 3660.95,578.2031 L3660.95,577.1094 Q3660.95,575.8594 3661.5438,574.7656 Q3662.1531,573.6719 3663.2,573.0938 Q3664.2625,572.5 3665.45,572.5 Q3666.1688,572.5 3666.7938,572.75 Q3667.4188,573 3667.95,573.5 Z " fill="#000000"/><text fill="#000000" font-family="sans-serif" font-size="12" lengthAdjust="spacing" textLength="68" x="3686.05" y="581.9102">FormBuilder</text><line style="stroke:#A80036;stroke-width:1.5;" x1="3624.5" x2="3783.5" y1="593" y2="593"/><line style="stroke:#A80036;stroke-width:1.5;" x1="3624.5" x2="3783.5" y1="601" y2="601"/><text fill="#000000" font-family="sans-serif" font-size="11" lengthAdjust="spacing" textLength="45" x="3629.5" y="616.4189">+create()</text><text fill="#000000" font-family="sans-serif" font-size="11" lengthAdjust="spacing" textLength="88" x="3629.5" y="630.2549">+withName(name)</text><text fill="#000000" font-family="sans-serif" font-size="11" lengthAdjust="spacing" textLength="129" x="3629.5" y="644.0908">+withFormType(formType)</text><text fill="#000000" font-family="sans-serif" font-size="11" lengthAdjust="spacing" textLength="149" x="3629.5" y="657.9268">+withAttributeList(attributeList)</text><text fill="#000000" font-family="sans-serif" font-size="11" lengthAdjust="spacing" textLength="36" x="3629.5" y="671.7627">+build()</text><!--MD5=[48296f855dadaf4112ca95d4dd3a387a]
class AttributeBuilder--><rect codeLine="89" fill="#FEFECE" filter="url(#fa0a1z0co6bkk)" height="158.6875" id="AttributeBuilder" style="stroke:#A80036;stroke-width:1.5;" width="154" x="3820" y="540"/><ellipse cx="3852.55" cy="556" fill="#ADD1B2" rx="11" ry="11" style="stroke:#A80036;stroke-width:1.0;"/><path d="M3854.55,552.5 Q3854.7531,552 3854.9875,551.75 Q3855.2219,551.5 3855.4875,551.5 Q3855.9563,551.5 3856.2531,551.7813 Q3856.55,552.0625 3856.55,552.7188 L3856.55,554.2813 Q3856.55,554.9375 3856.2688,555.2188 Q3855.9875,555.5 3855.55,555.5 Q3855.1594,555.5 3854.9094,555.3281 Q3854.6594,555.1563 3854.55,554.7031 Q3854.5031,554.3906 3854.3313,554.2188 Q3854.0188,553.8906 3853.4563,553.7031 Q3852.8938,553.5 3852.3313,553.5 Q3851.6281,553.5 3851.0344,553.7813 Q3850.4563,554.0625 3850.0031,554.6875 Q3849.55,555.3125 3849.55,556.1719 L3849.55,557.0938 Q3849.55,558.125 3850.3938,558.8125 Q3851.2375,559.5 3852.7375,559.5 Q3853.6281,559.5 3854.2531,559.2969 Q3854.6125,559.1875 3855.0188,558.8281 Q3855.2844,558.625 3855.425,558.5625 Q3855.5656,558.5 3855.7375,558.5 Q3856.0656,558.5 3856.3,558.7656 Q3856.55,559.0156 3856.55,559.375 Q3856.55,559.7188 3856.2063,560.125 Q3855.7063,560.7188 3854.9094,561.0469 Q3853.8625,561.5 3852.5813,561.5 Q3851.0813,561.5 3849.8781,560.9063 Q3848.9094,560.4375 3848.2219,559.4219 Q3847.55,558.4063 3847.55,557.2031 L3847.55,556.1094 Q3847.55,554.8594 3848.1438,553.7656 Q3848.7531,552.6719 3849.8,552.0938 Q3850.8625,551.5 3852.05,551.5 Q3852.7688,551.5 3853.3938,551.75 Q3854.0188,552 3854.55,552.5 Z " fill="#000000"/><text fill="#000000" font-family="sans-serif" font-size="12" lengthAdjust="spacing" textLength="83" x="3870.45" y="560.9102">AttributeBuilder</text><line style="stroke:#A80036;stroke-width:1.5;" x1="3821" x2="3973" y1="572" y2="572"/><line style="stroke:#A80036;stroke-width:1.5;" x1="3821" x2="3973" y1="580" y2="580"/><text fill="#000000" font-family="sans-serif" font-size="11" lengthAdjust="spacing" textLength="45" x="3826" y="595.4189">+create()</text><text fill="#000000" font-family="sans-serif" font-size="11" lengthAdjust="spacing" textLength="88" x="3826" y="609.2549">+withName(name)</text><text fill="#000000" font-family="sans-serif" font-size="11" lengthAdjust="spacing" textLength="83" x="3826" y="623.0908">+withLabel(label)</text><text fill="#000000" font-family="sans-serif" font-size="11" lengthAdjust="spacing" textLength="142" x="3826" y="636.9268">+withDescription(description)</text><text fill="#000000" font-family="sans-serif" font-size="11" lengthAdjust="spacing" textLength="94" x="3826" y="650.7627">+withRegex(regex)</text><text fill="#000000" font-family="sans-serif" font-size="11" lengthAdjust="spacing" textLength="107" x="3826" y="664.5986">+withScript(scriptPath</text><text fill="#000000" font-family="sans-serif" font-size="11" lengthAdjust="spacing" textLength="126" x="3826" y="678.4346">+withDataType(dataType)</text><text fill="#000000" font-family="sans-serif" font-size="11" lengthAdjust="spacing" textLength="36" x="3826" y="692.2705">+build()</text><!--MD5=[e8c189551b7885b999ad7cefb30fc2a3]
class PersistenceContext--><rect codeLine="105" fill="#FEFECE" filter="url(#fa0a1z0co6bkk)" height="61.8359" id="PersistenceContext" style="stroke:#A80036;stroke-width:1.5;" width="139" x="32.5" y="588.5"/><ellipse cx="47.5" cy="604.5" fill="#ADD1B2" rx="11" ry="11" style="stroke:#A80036;stroke-width:1.0;"/><path d="M49.5,601 Q49.7031,600.5 49.9375,600.25 Q50.1719,600 50.4375,600 Q50.9063,600 51.2031,600.2813 Q51.5,600.5625 51.5,601.2188 L51.5,602.7813 Q51.5,603.4375 51.2188,603.7188 Q50.9375,604 50.5,604 Q50.1094,604 49.8594,603.8281 Q49.6094,603.6563 49.5,603.2031 Q49.4531,602.8906 49.2813,602.7188 Q48.9688,602.3906 48.4063,602.2031 Q47.8438,602 47.2813,602 Q46.5781,602 45.9844,602.2813 Q45.4063,602.5625 44.9531,603.1875 Q44.5,603.8125 44.5,604.6719 L44.5,605.5938 Q44.5,606.625 45.3438,607.3125 Q46.1875,608 47.6875,608 Q48.5781,608 49.2031,607.7969 Q49.5625,607.6875 49.9688,607.3281 Q50.2344,607.125 50.375,607.0625 Q50.5156,607 50.6875,607 Q51.0156,607 51.25,607.2656 Q51.5,607.5156 51.5,607.875 Q51.5,608.2188 51.1563,608.625 Q50.6563,609.2188 49.8594,609.5469 Q48.8125,610 47.5313,610 Q46.0313,610 44.8281,609.4063 Q43.8594,608.9375 43.1719,607.9219 Q42.5,606.9063 42.5,605.7031 L42.5,604.6094 Q42.5,603.3594 43.0938,602.2656 Q43.7031,601.1719 44.75,600.5938 Q45.8125,600 47,600 Q47.7188,600 48.3438,600.25 Q48.9688,600.5 49.5,601 Z " fill="#000000"/><text fill="#000000" font-family="sans-serif" font-size="12" lengthAdjust="spacing" textLength="107" x="61.5" y="609.4102">PersistenceContext</text><line style="stroke:#A80036;stroke-width:1.5;" x1="33.5" x2="170.5" y1="620.5" y2="620.5"/><line style="stroke:#A80036;stroke-width:1.5;" x1="33.5" x2="170.5" y1="628.5" y2="628.5"/><text fill="#000000" font-family="sans-serif" font-size="11" lengthAdjust="spacing" textLength="71" x="38.5" y="643.9189">+repositories()</text><!--MD5=[b8e4c95865208c934bfcfda4f90bf50c]
class AppSettings--><rect codeLine="109" fill="#FEFECE" filter="url(#fa0a1z0co6bkk)" height="75.6719" id="AppSettings" style="stroke:#A80036;stroke-width:1.5;" width="130" x="275" y="581.5"/><ellipse cx="304.4" cy="597.5" fill="#ADD1B2" rx="11" ry="11" style="stroke:#A80036;stroke-width:1.0;"/><path d="M306.4,594 Q306.6031,593.5 306.8375,593.25 Q307.0719,593 307.3375,593 Q307.8063,593 308.1031,593.2813 Q308.4,593.5625 308.4,594.2188 L308.4,595.7813 Q308.4,596.4375 308.1188,596.7188 Q307.8375,597 307.4,597 Q307.0094,597 306.7594,596.8281 Q306.5094,596.6563 306.4,596.2031 Q306.3531,595.8906 306.1813,595.7188 Q305.8688,595.3906 305.3063,595.2031 Q304.7438,595 304.1813,595 Q303.4781,595 302.8844,595.2813 Q302.3063,595.5625 301.8531,596.1875 Q301.4,596.8125 301.4,597.6719 L301.4,598.5938 Q301.4,599.625 302.2438,600.3125 Q303.0875,601 304.5875,601 Q305.4781,601 306.1031,600.7969 Q306.4625,600.6875 306.8688,600.3281 Q307.1344,600.125 307.275,600.0625 Q307.4156,600 307.5875,600 Q307.9156,600 308.15,600.2656 Q308.4,600.5156 308.4,600.875 Q308.4,601.2188 308.0563,601.625 Q307.5563,602.2188 306.7594,602.5469 Q305.7125,603 304.4313,603 Q302.9313,603 301.7281,602.4063 Q300.7594,601.9375 300.0719,600.9219 Q299.4,599.9063 299.4,598.7031 L299.4,597.6094 Q299.4,596.3594 299.9938,595.2656 Q300.6031,594.1719 301.65,593.5938 Q302.7125,593 303.9,593 Q304.6188,593 305.2438,593.25 Q305.8688,593.5 306.4,594 Z " fill="#000000"/><text fill="#000000" font-family="sans-serif" font-size="12" lengthAdjust="spacing" textLength="66" x="321.6" y="602.4102">AppSettings</text><line style="stroke:#A80036;stroke-width:1.5;" x1="276" x2="404" y1="613.5" y2="613.5"/><line style="stroke:#A80036;stroke-width:1.5;" x1="276" x2="404" y1="621.5" y2="621.5"/><text fill="#000000" font-family="sans-serif" font-size="11" lengthAdjust="spacing" textLength="55" x="281" y="636.9189">+instance()</text><text fill="#000000" font-family="sans-serif" font-size="11" lengthAdjust="spacing" textLength="118" x="281" y="650.7549">+getRepositoryFactory()</text><!--MD5=[48590afff58a68e2fcba47824d6f8a11]
class RepositoryFactory--><rect codeLine="115" fill="#FEFECE" filter="url(#fa0a1z0co6bkk)" height="103.3438" id="RepositoryFactory" style="stroke:#A80036;stroke-width:1.5;" width="130" x="865" y="568"/><ellipse cx="880" cy="584" fill="#ADD1B2" rx="11" ry="11" style="stroke:#A80036;stroke-width:1.0;"/><path d="M882,580.5 Q882.2031,580 882.4375,579.75 Q882.6719,579.5 882.9375,579.5 Q883.4063,579.5 883.7031,579.7813 Q884,580.0625 884,580.7188 L884,582.2813 Q884,582.9375 883.7188,583.2188 Q883.4375,583.5 883,583.5 Q882.6094,583.5 882.3594,583.3281 Q882.1094,583.1563 882,582.7031 Q881.9531,582.3906 881.7813,582.2188 Q881.4688,581.8906 880.9063,581.7031 Q880.3438,581.5 879.7813,581.5 Q879.0781,581.5 878.4844,581.7813 Q877.9063,582.0625 877.4531,582.6875 Q877,583.3125 877,584.1719 L877,585.0938 Q877,586.125 877.8438,586.8125 Q878.6875,587.5 880.1875,587.5 Q881.0781,587.5 881.7031,587.2969 Q882.0625,587.1875 882.4688,586.8281 Q882.7344,586.625 882.875,586.5625 Q883.0156,586.5 883.1875,586.5 Q883.5156,586.5 883.75,586.7656 Q884,587.0156 884,587.375 Q884,587.7188 883.6563,588.125 Q883.1563,588.7188 882.3594,589.0469 Q881.3125,589.5 880.0313,589.5 Q878.5313,589.5 877.3281,588.9063 Q876.3594,588.4375 875.6719,587.4219 Q875,586.4063 875,585.2031 L875,584.1094 Q875,582.8594 875.5938,581.7656 Q876.2031,580.6719 877.25,580.0938 Q878.3125,579.5 879.5,579.5 Q880.2188,579.5 880.8438,579.75 Q881.4688,580 882,580.5 Z " fill="#000000"/><text fill="#000000" font-family="sans-serif" font-size="12" lengthAdjust="spacing" textLength="98" x="894" y="588.9102">RepositoryFactory</text><line style="stroke:#A80036;stroke-width:1.5;" x1="866" x2="994" y1="600" y2="600"/><line style="stroke:#A80036;stroke-width:1.5;" x1="866" x2="994" y1="608" y2="608"/><text fill="#000000" font-family="sans-serif" font-size="11" lengthAdjust="spacing" textLength="45" x="871" y="623.4189">+create()</text><text fill="#000000" font-family="sans-serif" font-size="11" lengthAdjust="spacing" textLength="56" x="871" y="637.2549">+servicos()</text><text fill="#000000" font-family="sans-serif" font-size="11" lengthAdjust="spacing" textLength="61" x="871" y="651.0908">+catalogos()</text><text fill="#000000" font-family="sans-serif" font-size="11" lengthAdjust="spacing" textLength="68" x="871" y="664.9268">+formularios()</text><!--MD5=[c442d1a7174f61885988a69cb0f958b4]
class ServiceDraftRepository--><rect codeLine="125" fill="#FEFECE" filter="url(#fa0a1z0co6bkk)" height="75.6719" id="ServiceDraftRepository" style="stroke:#A80036;stroke-width:1.5;" width="157" x="595.5" y="581.5"/><ellipse cx="610.5" cy="597.5" fill="#ADD1B2" rx="11" ry="11" style="stroke:#A80036;stroke-width:1.0;"/><path d="M612.5,594 Q612.7031,593.5 612.9375,593.25 Q613.1719,593 613.4375,593 Q613.9063,593 614.2031,593.2813 Q614.5,593.5625 614.5,594.2188 L614.5,595.7813 Q614.5,596.4375 614.2188,596.7188 Q613.9375,597 613.5,597 Q613.1094,597 612.8594,596.8281 Q612.6094,596.6563 612.5,596.2031 Q612.4531,595.8906 612.2813,595.7188 Q611.9688,595.3906 611.4063,595.2031 Q610.8438,595 610.2813,595 Q609.5781,595 608.9844,595.2813 Q608.4063,595.5625 607.9531,596.1875 Q607.5,596.8125 607.5,597.6719 L607.5,598.5938 Q607.5,599.625 608.3438,600.3125 Q609.1875,601 610.6875,601 Q611.5781,601 612.2031,600.7969 Q612.5625,600.6875 612.9688,600.3281 Q613.2344,600.125 613.375,600.0625 Q613.5156,600 613.6875,600 Q614.0156,600 614.25,600.2656 Q614.5,600.5156 614.5,600.875 Q614.5,601.2188 614.1563,601.625 Q613.6563,602.2188 612.8594,602.5469 Q611.8125,603 610.5313,603 Q609.0313,603 607.8281,602.4063 Q606.8594,601.9375 606.1719,600.9219 Q605.5,599.9063 605.5,598.7031 L605.5,597.6094 Q605.5,596.3594 606.0938,595.2656 Q606.7031,594.1719 607.75,593.5938 Q608.8125,593 610,593 Q610.7188,593 611.3438,593.25 Q611.9688,593.5 612.5,594 Z " fill="#000000"/><text fill="#000000" font-family="sans-serif" font-size="12" lengthAdjust="spacing" textLength="125" x="624.5" y="602.4102">ServiceDraftRepository</text><line style="stroke:#A80036;stroke-width:1.5;" x1="596.5" x2="751.5" y1="613.5" y2="613.5"/><line style="stroke:#A80036;stroke-width:1.5;" x1="596.5" x2="751.5" y1="621.5" y2="621.5"/><text fill="#000000" font-family="sans-serif" font-size="11" lengthAdjust="spacing" textLength="45" x="601.5" y="636.9189">+create()</text><text fill="#000000" font-family="sans-serif" font-size="11" lengthAdjust="spacing" textLength="98" x="601.5" y="650.7549">+save(serviceDraft)</text><!--MD5=[82131b75822bd28ea4d9cf09bc194e6e]
class FormRepository--><rect codeLine="130" fill="#FEFECE" filter="url(#fa0a1z0co6bkk)" height="75.6719" id="FormRepository" style="stroke:#A80036;stroke-width:1.5;" width="120" x="440" y="581.5"/><ellipse cx="455" cy="597.5" fill="#ADD1B2" rx="11" ry="11" style="stroke:#A80036;stroke-width:1.0;"/><path d="M457,594 Q457.2031,593.5 457.4375,593.25 Q457.6719,593 457.9375,593 Q458.4063,593 458.7031,593.2813 Q459,593.5625 459,594.2188 L459,595.7813 Q459,596.4375 458.7188,596.7188 Q458.4375,597 458,597 Q457.6094,597 457.3594,596.8281 Q457.1094,596.6563 457,596.2031 Q456.9531,595.8906 456.7813,595.7188 Q456.4688,595.3906 455.9063,595.2031 Q455.3438,595 454.7813,595 Q454.0781,595 453.4844,595.2813 Q452.9063,595.5625 452.4531,596.1875 Q452,596.8125 452,597.6719 L452,598.5938 Q452,599.625 452.8438,600.3125 Q453.6875,601 455.1875,601 Q456.0781,601 456.7031,600.7969 Q457.0625,600.6875 457.4688,600.3281 Q457.7344,600.125 457.875,600.0625 Q458.0156,600 458.1875,600 Q458.5156,600 458.75,600.2656 Q459,600.5156 459,600.875 Q459,601.2188 458.6563,601.625 Q458.1563,602.2188 457.3594,602.5469 Q456.3125,603 455.0313,603 Q453.5313,603 452.3281,602.4063 Q451.3594,601.9375 450.6719,600.9219 Q450,599.9063 450,598.7031 L450,597.6094 Q450,596.3594 450.5938,595.2656 Q451.2031,594.1719 452.25,593.5938 Q453.3125,593 454.5,593 Q455.2188,593 455.8438,593.25 Q456.4688,593.5 457,594 Z " fill="#000000"/><text fill="#000000" font-family="sans-serif" font-size="12" lengthAdjust="spacing" textLength="88" x="469" y="602.4102">FormRepository</text><line style="stroke:#A80036;stroke-width:1.5;" x1="441" x2="559" y1="613.5" y2="613.5"/><line style="stroke:#A80036;stroke-width:1.5;" x1="441" x2="559" y1="621.5" y2="621.5"/><text fill="#000000" font-family="sans-serif" font-size="11" lengthAdjust="spacing" textLength="45" x="446" y="636.9189">+create()</text><text fill="#000000" font-family="sans-serif" font-size="11" lengthAdjust="spacing" textLength="60" x="446" y="650.7549">+save(form)</text><!--MD5=[8b0c75d8ae1a55397024b116e0d22f74]
link ServiceDraftSpecificationUI to ServiceDraftSpecificationController--><path codeLine="139" d="M3704,110.29 C3704,134.41 3704,173.55 3704,209.48 " fill="none" id="ServiceDraftSpecificationUI-to-ServiceDraftSpecificationController" style="stroke:#A80036;stroke-width:1.0;stroke-dasharray:7.0,7.0;"/><polygon fill="#A80036" points="3704,214.75,3708,205.75,3704,209.75,3700,205.75,3704,214.75" style="stroke:#A80036;stroke-width:1.0;"/><!--MD5=[ead3634b19a55fdd9013fd6361107340]
link ServiceDraftSpecificationController to FormBuilder--><path codeLine="140" d="M3704,374.1 C3704,429.89 3704,503.78 3704,555.65 " fill="none" id="ServiceDraftSpecificationController-to-FormBuilder" style="stroke:#A80036;stroke-width:1.0;stroke-dasharray:7.0,7.0;"/><polygon fill="#A80036" points="3704,560.92,3708,551.92,3704,555.92,3700,551.92,3704,560.92" style="stroke:#A80036;stroke-width:1.0;"/><!--MD5=[303828f9ab2f6cf7c45b5a8933dbb7cb]
link ServiceDraftSpecificationController to AttributeBuilder--><path codeLine="141" d="M3763.6,374.24 C3776.8,392.82 3790.32,412.81 3802,432 C3821.99,464.84 3841.69,502.38 3857.91,535.14 " fill="none" id="ServiceDraftSpecificationController-to-AttributeBuilder" style="stroke:#A80036;stroke-width:1.0;stroke-dasharray:7.0,7.0;"/><polygon fill="#A80036" points="3860.28,539.94,3859.8831,530.0991,3858.0668,535.4565,3852.7095,533.6403,3860.28,539.94" style="stroke:#A80036;stroke-width:1.0;"/><!--MD5=[c4515eb8dbaedaae32cf288fd2687d91]
link ServiceDraftSpecificationController to PersistenceContext--><path codeLine="142" d="M3535.48,300.85 C3083.52,315.39 1806.75,357.84 745,406 C528.47,415.82 451.86,335.04 258,432 C192.12,464.95 143.57,539.64 119.33,583.85 " fill="none" id="ServiceDraftSpecificationController-to-PersistenceContext" style="stroke:#A80036;stroke-width:1.0;stroke-dasharray:7.0,7.0;"/><polygon fill="#A80036" points="116.92,588.3,124.7344,582.3054,119.3092,583.9078,117.7069,578.4826,116.92,588.3" style="stroke:#A80036;stroke-width:1.0;"/><!--MD5=[d66efb439816738ddd3e9d5fff4bf3a7]
link AppSettings to RepositoryFactory--><path codeLine="144" d="M346.84,581.3 C356.37,540.73 377.95,478.57 424,450 C489.14,409.58 698.55,419.75 769,450 C822.61,473.02 866.79,523.64 895.21,563.6 " fill="none" id="AppSettings-to-RepositoryFactory" style="stroke:#A80036;stroke-width:1.0;"/><polygon fill="#A80036" points="898.26,567.92,896.3576,558.2566,895.385,563.8292,889.8124,562.8566,898.26,567.92" style="stroke:#A80036;stroke-width:1.0;"/><text fill="#000000" font-family="sans-serif" font-size="13" lengthAdjust="spacing" textLength="43" x="793.5" y="420.4951">creates</text><!--MD5=[27fe1c91fe18bafc5695938053528609]
link PersistenceContext to AppSettings--><path codeLine="145" d="M171.8,619.5 C202.53,619.5 238.57,619.5 269.39,619.5 " fill="none" id="PersistenceContext-to-AppSettings" style="stroke:#A80036;stroke-width:1.0;"/><polygon fill="#A80036" points="274.69,619.5,265.69,615.5,269.69,619.5,265.69,623.5,274.69,619.5" style="stroke:#A80036;stroke-width:1.0;"/><text fill="#000000" font-family="sans-serif" font-size="13" lengthAdjust="spacing" textLength="67" x="189.75" y="612.9951">implements</text><!--MD5=[c099f118843079ed39661509eb060af6]
link RepositoryFactory to ServiceDraftRepository--><path codeLine="147" d="M864.94,619.5 C832.34,619.5 792.49,619.5 757.65,619.5 " fill="none" id="RepositoryFactory-to-ServiceDraftRepository" style="stroke:#A80036;stroke-width:1.0;"/><polygon fill="#A80036" points="752.55,619.5,761.55,623.5,757.55,619.5,761.55,615.5,752.55,619.5" style="stroke:#A80036;stroke-width:1.0;"/><text fill="#000000" font-family="sans-serif" font-size="13" lengthAdjust="spacing" textLength="21" x="798.25" y="612.9951">has</text><text fill="#000000" font-family="sans-serif" font-size="13" lengthAdjust="spacing" textLength="7" x="850.0128" y="616.0706">1</text><text fill="#000000" font-family="sans-serif" font-size="13" lengthAdjust="spacing" textLength="7" x="760.6268" y="616.2411">1</text><!--MD5=[ba8ab1a505d555209a92eac3cb0969e8]
link RepositoryFactory to FormRepository--><path codeLine="148" d="M898.26,567.92 C869.99,527.36 824.57,473.86 769,450 C691,416.51 649.48,404.21 578,450 C534.93,477.59 515.31,535.64 506.61,576.07 " fill="none" id="RepositoryFactory-to-FormRepository" style="stroke:#A80036;stroke-width:1.0;"/><polygon fill="#A80036" points="505.5,581.4,511.2413,573.3976,506.5135,576.5038,503.4073,571.776,505.5,581.4" style="stroke:#A80036;stroke-width:1.0;"/><text fill="#000000" font-family="sans-serif" font-size="13" lengthAdjust="spacing" textLength="21" x="843.5" y="420.4951">has</text><text fill="#000000" font-family="sans-serif" font-size="13" lengthAdjust="spacing" textLength="7" x="886.3044" y="557.0372">1</text><text fill="#000000" font-family="sans-serif" font-size="13" lengthAdjust="spacing" textLength="7" x="498.8563" y="570.7441">1</text><!--MD5=[d53e096ef2f9280c1f0af98ac059945b]
link ServiceDraftRepository to ServiceDraft--><path codeLine="150" d="M699.55,581.15 C729.66,539.8 783.92,476.35 849,450 C915.74,422.98 946.73,417.54 1011,450 C1062.9,476.21 1098.56,535.27 1118.13,576.25 " fill="none" id="ServiceDraftRepository-to-ServiceDraft" style="stroke:#A80036;stroke-width:1.0;"/><polygon fill="#A80036" points="1120.43,581.16,1120.2216,571.3133,1118.3031,576.6349,1112.9815,574.7164,1120.43,581.16" style="stroke:#A80036;stroke-width:1.0;"/><text fill="#000000" font-family="sans-serif" font-size="13" lengthAdjust="spacing" textLength="33" x="753.5" y="420.4951">saves</text><text fill="#000000" font-family="sans-serif" font-size="13" lengthAdjust="spacing" textLength="7" x="696.3398" y="570.7371">1</text><text fill="#000000" font-family="sans-serif" font-size="13" lengthAdjust="spacing" textLength="5" x="1112.3242" y="570.7488">*</text><!--MD5=[dfd9f748dcbcf503f457b6c39d52db15]
link FormRepository to Form--><path codeLine="151" d="M505.5,581.4 C513.6,540.91 532.99,478.83 578,450 C637.5,411.88 1150.12,419.77 1214,450 C1272.01,477.45 1313.91,542.29 1335.76,583.35 " fill="none" id="FormRepository-to-Form" style="stroke:#A80036;stroke-width:1.0;"/><polygon fill="#A80036" points="1338.32,588.23,1337.6719,578.4025,1335.993,583.8045,1330.591,582.1256,1338.32,588.23" style="stroke:#A80036;stroke-width:1.0;"/><text fill="#000000" font-family="sans-serif" font-size="13" lengthAdjust="spacing" textLength="33" x="1045.5" y="420.4951">saves</text><text fill="#000000" font-family="sans-serif" font-size="13" lengthAdjust="spacing" textLength="7" x="507.1031" y="570.7441">1</text><text fill="#000000" font-family="sans-serif" font-size="13" lengthAdjust="spacing" textLength="5" x="1329.7766" y="577.6789">*</text><!--MD5=[4231b0446641a058ba7a2e1fc6613ad7]
link FormBuilder to Form--><path codeLine="152" d="M3691.71,560.73 C3680.22,521.97 3658.79,474.07 3620,450 C3519.54,387.67 1598.86,399.43 1492,450 C1433.99,477.45 1392.09,542.29 1370.24,583.35 " fill="none" id="FormBuilder-to-Form" style="stroke:#A80036;stroke-width:1.0;"/><polygon fill="#A80036" points="1367.68,588.23,1375.409,582.1256,1370.007,583.8045,1368.3281,578.4025,1367.68,588.23" style="stroke:#A80036;stroke-width:1.0;"/><text fill="#000000" font-family="sans-serif" font-size="13" lengthAdjust="spacing" textLength="34" x="1542" y="420.4951">builds</text><text fill="#000000" font-family="sans-serif" font-size="13" lengthAdjust="spacing" textLength="7" x="3682.7856" y="550.098">1</text><text fill="#000000" font-family="sans-serif" font-size="13" lengthAdjust="spacing" textLength="5" x="1365.1921" y="577.6789">*</text><!--MD5=[2e95c4a5850addea09a63512f30caafe]
link AttributeBuilder to Attribute--><path codeLine="153" d="M3872.75,539.73 C3858.04,505.81 3835.47,469.61 3802,450 C3726.79,405.94 2314.57,419.27 2233,450 C2161.85,476.81 2099.86,543.09 2066.4,584.38 " fill="none" id="AttributeBuilder-to-Attribute" style="stroke:#A80036;stroke-width:1.0;"/><polygon fill="#A80036" points="2063.25,588.29,2072.0199,583.8079,2066.3943,584.4024,2065.7998,578.7769,2063.25,588.29" style="stroke:#A80036;stroke-width:1.0;"/><text fill="#000000" font-family="sans-serif" font-size="13" lengthAdjust="spacing" textLength="34" x="3378" y="420.4951">builds</text><text fill="#000000" font-family="sans-serif" font-size="13" lengthAdjust="spacing" textLength="7" x="3863.1918" y="529.1644">1</text><text fill="#000000" font-family="sans-serif" font-size="13" lengthAdjust="spacing" textLength="5" x="2062.5297" y="577.7512">*</text><!--MD5=[8e2d2ea5c070cc3efe1d66b65b73adeb]
link ServiceDraft to Form--><path codeLine="155" d="M1196.74,619.5 C1213.12,619.5 1231.33,619.5 1249.36,619.5 " fill="none" id="ServiceDraft-to-Form" style="stroke:#A80036;stroke-width:1.0;"/><polygon fill="#A80036" points="1254.43,619.5,1245.43,615.5,1249.43,619.5,1245.43,623.5,1254.43,619.5" style="stroke:#A80036;stroke-width:1.0;"/><text fill="#000000" font-family="sans-serif" font-size="13" lengthAdjust="spacing" textLength="21" x="1215" y="612.9951">has</text><text fill="#000000" font-family="sans-serif" font-size="13" lengthAdjust="spacing" textLength="7" x="1204.5693" y="616.0615">1</text><text fill="#000000" font-family="sans-serif" font-size="13" lengthAdjust="spacing" textLength="5" x="1241.376" y="616.3782">*</text><!--MD5=[424822e8e69e4af0c08c14d28c23b6d3]
link Form to FormName--><path codeLine="157" d="M1367.68,588.23 C1388.71,547.63 1431.63,478.57 1492,450 C1566.72,414.64 1606.58,408.37 1678,450 C1724.47,477.08 1750.25,535.93 1763.11,576.63 " fill="none" id="Form-to-FormName" style="stroke:#A80036;stroke-width:1.0;"/><polygon fill="#A80036" points="1764.62,581.5,1765.7635,571.7177,1763.1335,576.7261,1758.1252,574.0961,1764.62,581.5" style="stroke:#A80036;stroke-width:1.0;"/><text fill="#000000" font-family="sans-serif" font-size="13" lengthAdjust="spacing" textLength="21" x="1628.5" y="420.4951">has</text><text fill="#000000" font-family="sans-serif" font-size="13" lengthAdjust="spacing" textLength="7" x="1371.4296" y="577.6789">1</text><text fill="#000000" font-family="sans-serif" font-size="13" lengthAdjust="spacing" textLength="7" x="1755.2453" y="570.5765">1</text><!--MD5=[7db6c6cdf2bdefdb995b5afb296c71bf]
link Form to FormType--><path codeLine="158" d="M1451.73,619.5 C1469.16,619.5 1487.13,619.5 1504.01,619.5 " fill="none" id="Form-to-FormType" style="stroke:#A80036;stroke-width:1.0;"/><polygon fill="#A80036" points="1509.21,619.5,1500.21,615.5,1504.21,619.5,1500.21,623.5,1509.21,619.5" style="stroke:#A80036;stroke-width:1.0;"/><text fill="#000000" font-family="sans-serif" font-size="13" lengthAdjust="spacing" textLength="21" x="1470" y="612.9951">has</text><text fill="#000000" font-family="sans-serif" font-size="13" lengthAdjust="spacing" textLength="7" x="1459.557" y="616.4024">1</text><text fill="#000000" font-family="sans-serif" font-size="13" lengthAdjust="spacing" textLength="7" x="1494.4049" y="616.2491">1</text><!--MD5=[971d5490c4dc9d82955338ed7a7bbf99]
link Form to Attribute--><path codeLine="159" d="M1367.68,588.23 C1388.71,547.63 1431.63,478.57 1492,450 C1567.93,414.07 1792.37,417.91 1870,450 C1935.54,477.09 1989.06,543.05 2017.58,584.24 " fill="none" id="Form-to-Attribute" style="stroke:#A80036;stroke-width:1.0;"/><polygon fill="#A80036" points="2020.43,588.4,2018.6431,578.7146,2017.604,584.2752,2012.0434,583.2362,2020.43,588.4" style="stroke:#A80036;stroke-width:1.0;"/><text fill="#000000" font-family="sans-serif" font-size="13" lengthAdjust="spacing" textLength="21" x="1760.5" y="420.4951">has</text><text fill="#000000" font-family="sans-serif" font-size="13" lengthAdjust="spacing" textLength="7" x="1362.9859" y="577.6789">1</text><text fill="#000000" font-family="sans-serif" font-size="13" lengthAdjust="spacing" textLength="20" x="1994.3312" y="577.8839">1..*</text><!--MD5=[b586ca04e226261218368980e08d6e05]
link Attribute to AttributeName--><path codeLine="161" d="M2063.25,588.29 C2095.87,547.41 2159.55,477.67 2233,450 C2352.26,405.07 3267.64,389.86 3380,450 C3429.59,476.54 3461.18,535.52 3477.99,576.39 " fill="none" id="Attribute-to-AttributeName" style="stroke:#A80036;stroke-width:1.0;"/><polygon fill="#A80036" points="3479.97,581.28,3480.3153,571.4372,3478.1008,576.6426,3472.8954,574.428,3479.97,581.28" style="stroke:#A80036;stroke-width:1.0;"/><text fill="#000000" font-family="sans-serif" font-size="13" lengthAdjust="spacing" textLength="21" x="3080.5" y="420.4951">has</text><text fill="#000000" font-family="sans-serif" font-size="13" lengthAdjust="spacing" textLength="7" x="2068.7672" y="577.7512">1</text><text fill="#000000" font-family="sans-serif" font-size="13" lengthAdjust="spacing" textLength="7" x="3470.0256" y="570.6027">1</text><!--MD5=[a59df021dadfc641ad79fe8b2949653c]
link Attribute to AttributeLabel--><path codeLine="162" d="M2063.25,588.29 C2095.87,547.41 2159.55,477.67 2233,450 C2329.18,413.76 3067.58,401.13 3158,450 C3207.21,476.6 3238.12,535.56 3254.47,576.42 " fill="none" id="Attribute-to-AttributeLabel" style="stroke:#A80036;stroke-width:1.0;"/><polygon fill="#A80036" points="3256.39,581.31,3256.824,571.4707,3254.5626,576.6559,3249.3774,574.3945,3256.39,581.31" style="stroke:#A80036;stroke-width:1.0;"/><text fill="#000000" font-family="sans-serif" font-size="13" lengthAdjust="spacing" textLength="21" x="2756.5" y="420.4951">has</text><text fill="#000000" font-family="sans-serif" font-size="13" lengthAdjust="spacing" textLength="7" x="2060.3234" y="577.7512">1</text><text fill="#000000" font-family="sans-serif" font-size="13" lengthAdjust="spacing" textLength="7" x="3246.5204" y="570.6381">1</text><!--MD5=[431604de72fb750b0652e9a7ebe12be3]
link Attribute to AttributeDescription--><path codeLine="163" d="M2063.25,588.29 C2095.87,547.41 2159.55,477.67 2233,450 C2367.13,399.46 2748.33,388.92 2878,450 C2933.3,476.05 2974.21,535.85 2997.08,576.97 " fill="none" id="Attribute-to-AttributeDescription" style="stroke:#A80036;stroke-width:1.0;"/><polygon fill="#A80036" points="2999.51,581.39,2998.685,571.5758,2997.1037,577.0071,2991.6724,575.4258,2999.51,581.39" style="stroke:#A80036;stroke-width:1.0;"/><text fill="#000000" font-family="sans-serif" font-size="13" lengthAdjust="spacing" textLength="21" x="2213.5" y="420.4951">has</text><text fill="#000000" font-family="sans-serif" font-size="13" lengthAdjust="spacing" textLength="7" x="2077.4813" y="577.1115">1</text><text fill="#000000" font-family="sans-serif" font-size="13" lengthAdjust="spacing" textLength="7" x="2988.593" y="570.7323">1</text><!--MD5=[5218e0bc46566a5d7a077248f603307a]
link Attribute to AttributeRegex--><path codeLine="164" d="M2063.25,588.29 C2095.87,547.41 2159.55,477.67 2233,450 C2318.47,417.8 2563.13,407.56 2644,450 C2694.35,476.43 2727.3,535.43 2745.03,576.34 " fill="none" id="Attribute-to-AttributeRegex" style="stroke:#A80036;stroke-width:1.0;"/><polygon fill="#A80036" points="2747.12,581.24,2747.2513,571.392,2745.1504,576.6443,2739.8981,574.5434,2747.12,581.24" style="stroke:#A80036;stroke-width:1.0;"/><text fill="#000000" font-family="sans-serif" font-size="13" lengthAdjust="spacing" textLength="21" x="2262.5" y="420.4951">has</text><text fill="#000000" font-family="sans-serif" font-size="13" lengthAdjust="spacing" textLength="7" x="2068.7672" y="577.7512">1</text><text fill="#000000" font-family="sans-serif" font-size="13" lengthAdjust="spacing" textLength="7" x="2737.0242" y="570.5556">1</text><!--MD5=[22bf452f871a2350b3b093bad15d401b]
link Attribute to AttributeScript--><path codeLine="165" d="M2063.25,588.29 C2095.87,547.41 2159.55,477.67 2233,450 C2309.11,421.32 2344.21,411.77 2416,450 C2465.78,476.51 2497.71,535.5 2514.75,576.38 " fill="none" id="Attribute-to-AttributeScript" style="stroke:#A80036;stroke-width:1.0;"/><polygon fill="#A80036" points="2516.75,581.27,2517.0327,571.4252,2514.8513,576.6445,2509.6319,574.4632,2516.75,581.27" style="stroke:#A80036;stroke-width:1.0;"/><text fill="#000000" font-family="sans-serif" font-size="13" lengthAdjust="spacing" textLength="21" x="2330.5" y="420.4951">has</text><text fill="#000000" font-family="sans-serif" font-size="13" lengthAdjust="spacing" textLength="7" x="2092.0063" y="577.1115">1</text><text fill="#000000" font-family="sans-serif" font-size="13" lengthAdjust="spacing" textLength="7" x="2506.7664" y="570.5909">1</text><!--MD5=[53b6849afd857e62c9a23fc2c159a646]
link Attribute to DataType--><path codeLine="166" d="M2192.81,619.5 C2210.77,619.5 2228.51,619.5 2244.85,619.5 " fill="none" id="Attribute-to-DataType" style="stroke:#A80036;stroke-width:1.0;"/><polygon fill="#A80036" points="2249.88,619.5,2240.88,615.5,2244.88,619.5,2240.88,623.5,2249.88,619.5" style="stroke:#A80036;stroke-width:1.0;"/><text fill="#000000" font-family="sans-serif" font-size="13" lengthAdjust="spacing" textLength="21" x="2210.75" y="612.9951">has</text><text fill="#000000" font-family="sans-serif" font-size="13" lengthAdjust="spacing" textLength="7" x="2200.3813" y="616.6201">1</text><text fill="#000000" font-family="sans-serif" font-size="13" lengthAdjust="spacing" textLength="7" x="2234.8754" y="616.2052">1</text><!--MD5=[5532243fcc2d46acb994d0ef297b0deb]
@startuml
skinparam classAttributeIconSize 0

package "Presentation" #DDDDDD {
class ServiceDraftSpecificationUI{

}
}


package "Application" #DDDDDD {
class ServiceDraftSpecificationController{
+create()
+getServiceDraftById(id)
+newDraft()
+addForm(name, formType)
+addAttribute(name, label, description, regex, scriptPath, dataType)
+saveForm()
+addForm()
+saveServiceDraft()
}
}


package "Domain" #DDDDDD {
class ServiceDraft{
+create()
+setFormList(formList)
}

class Form{
+create(name, formType, attributeList)
}

class Attribute{
+create(name, label, description, regex, scriptPath, dataType
}

class FormName{
+createFormName(formName)
-validate(formName)
}

class FormType{
+createFormType(formType)
+values()
-validate(formType)
}

class AttributeName{
+createAttributeName(attributeName)
-validate(attributeName)
}

class AttributeLabel{
+createAtributoLabel(attributeLabel)
-validate(attributeLabel)
}

class AttributeDescription{
+createAttributeDescription(attributeDescription)
-validate(attributeDescription)
}

class AttributeRegex{
+createAttributeRegex(attributeRegex)
-validate(attributeRegex)
}

class AttributeScript{
+createAttributeScript(attributeScript)
-validate(attributeScript)
}

class DataType{
+createDataType(dataType)
-validate(dataType)
}

package Builder #DDDDDD {

class FormBuilder{
+create()
+withName(name)
+withFormType(formType)
+withAttributeList(attributeList)
+build()
}

class AttributeBuilder{
+create()
+withName(name)
+withLabel(label)
+withDescription(description)
+withRegex(regex)
+withScript(scriptPath
+withDataType(dataType)
+build()
}

}

}

package Persistence #DDDDDD {
class PersistenceContext{
+repositories()
}

class AppSettings{
+instance()
+getRepositoryFactory()
}

package Factory #DDDDDD {
class RepositoryFactory{
+create()
+servicos()
+catalogos()
+formularios()
}
}

package "Repository" #DDDDDD {

class ServiceDraftRepository{
+create()
+save(serviceDraft)
}

class FormRepository{
+create()
+save(form)
}

}



ServiceDraftSpecificationUI ..> ServiceDraftSpecificationController
ServiceDraftSpecificationController ..> FormBuilder
ServiceDraftSpecificationController ..> AttributeBuilder
ServiceDraftSpecificationController ..> PersistenceContext

AppSettings -> RepositoryFactory : creates
PersistenceContext -> AppSettings : implements

RepositoryFactory "1" -> "1" ServiceDraftRepository : has
RepositoryFactory "1" -> "1" FormRepository : has

ServiceDraftRepository "1" -> "*" ServiceDraft : saves
FormRepository "1" -> "*" Form : saves
FormBuilder "1" -> "*" Form : builds
AttributeBuilder "1" -> "*" Attribute : builds

ServiceDraft "1" -> "*" Form : has

Form "1" -> "1" FormName : has
Form "1" -> "1" FormType : has
Form "1" -> "1..*" Attribute : has

Attribute "1" -> "1" AttributeName : has
Attribute "1" -> "1" AttributeLabel : has
Attribute "1" -> "1" AttributeDescription : has
Attribute "1" -> "1" AttributeRegex : has
Attribute "1" -> "1" AttributeScript : has
Attribute "1" -> "1" DataType : has


@enduml

PlantUML version 1.2021.5(Sun Apr 25 12:20:28 BST 2021)
(GPL source distribution)
Java Runtime: OpenJDK Runtime Environment
JVM: Dynamic Code Evolution 64-Bit Server VM
Default Encoding: Cp1252
Language: pt
Country: PT
--></g></svg>