<?xml version="1.0" encoding="UTF-8" standalone="no"?><svg xmlns="http://www.w3.org/2000/svg" xmlns:xlink="http://www.w3.org/1999/xlink" contentScriptType="application/ecmascript" contentStyleType="text/css" height="881px" preserveAspectRatio="none" style="width:4116px;height:881px;" version="1.1" viewBox="0 0 4116 881" width="4116px" zoomAndPan="magnify"><defs><filter height="300%" id="f1im2wuhd23jjp" width="300%" x="-1" y="-1"><feGaussianBlur result="blurOut" stdDeviation="2.0"/><feColorMatrix in="blurOut" result="blurOut2" type="matrix" values="0 0 0 0 0 0 0 0 0 0 0 0 0 0 0 0 0 0 .4 0"/><feOffset dx="4.0" dy="4.0" in="blurOut2" result="blurOut3"/><feBlend in="SourceGraphic" in2="blurOut3" mode="normal"/></filter></defs><g><!--MD5=[8fd473fd151a2794da4f2c8684676405]
cluster Presentation--><polygon fill="#DDDDDD" filter="url(#f1im2wuhd23jjp)" points="3668,6,3764,6,3771,29.6094,3910,29.6094,3910,126,3668,126,3668,6" style="stroke:#000000;stroke-width:1.5;"/><line style="stroke:#000000;stroke-width:1.5;" x1="3668" x2="3771" y1="29.6094" y2="29.6094"/><text fill="#000000" font-family="sans-serif" font-size="14" font-weight="bold" lengthAdjust="spacing" textLength="90" x="3672" y="22.5332">Presentation</text><!--MD5=[d64883541e3d62e3241c4d12decf100d]
cluster Application--><polygon fill="#DDDDDD" filter="url(#f1im2wuhd23jjp)" points="3604,159,3688,159,3695,182.6094,3974,182.6094,3974,390,3604,390,3604,159" style="stroke:#000000;stroke-width:1.5;"/><line style="stroke:#000000;stroke-width:1.5;" x1="3604" x2="3695" y1="182.6094" y2="182.6094"/><text fill="#000000" font-family="sans-serif" font-size="14" font-weight="bold" lengthAdjust="spacing" textLength="78" x="3608" y="175.5332">Application</text><!--MD5=[121a8bf1197281ab89ed693fab589f94]
cluster Domain--><polygon fill="#DDDDDD" filter="url(#f1im2wuhd23jjp)" points="1144,440,1202,440,1209,463.6094,4099,463.6094,4099,739,1144,739,1144,440" style="stroke:#000000;stroke-width:1.5;"/><line style="stroke:#000000;stroke-width:1.5;" x1="1144" x2="1209" y1="463.6094" y2="463.6094"/><text fill="#000000" font-family="sans-serif" font-size="14" font-weight="bold" lengthAdjust="spacing" textLength="52" x="1148" y="456.5332">Domain</text><!--MD5=[44cc74aea8168fb4471e814fff38ed12]
cluster Builder--><polygon fill="#DDDDDD" filter="url(#f1im2wuhd23jjp)" points="3692,484,3749,484,3756,507.6094,4075,507.6094,4075,715,3692,715,3692,484" style="stroke:#000000;stroke-width:1.5;"/><line style="stroke:#000000;stroke-width:1.5;" x1="3692" x2="3756" y1="507.6094" y2="507.6094"/><text fill="#000000" font-family="sans-serif" font-size="14" font-weight="bold" lengthAdjust="spacing" textLength="51" x="3696" y="500.5332">Builder</text><!--MD5=[bc6b40dadbf86ab6a0c8405a467a48af]
cluster Persistence--><polygon fill="#DDDDDD" filter="url(#f1im2wuhd23jjp)" points="16,468,106,468,113,491.6094,1120,491.6094,1120,874,16,874,16,468" style="stroke:#000000;stroke-width:1.5;"/><line style="stroke:#000000;stroke-width:1.5;" x1="16" x2="113" y1="491.6094" y2="491.6094"/><text fill="#000000" font-family="sans-serif" font-size="14" font-weight="bold" lengthAdjust="spacing" textLength="84" x="20" y="484.5332">Persistence</text><!--MD5=[0d5799440b3bfefd92b00abfcd2c79b9]
cluster Factory--><polygon fill="#DDDDDD" filter="url(#f1im2wuhd23jjp)" points="469,512,527,512,534,535.6094,631,535.6094,631,687,469,687,469,512" style="stroke:#000000;stroke-width:1.5;"/><line style="stroke:#000000;stroke-width:1.5;" x1="469" x2="534" y1="535.6094" y2="535.6094"/><text fill="#000000" font-family="sans-serif" font-size="14" font-weight="bold" lengthAdjust="spacing" textLength="52" x="473" y="528.5332">Factory</text><!--MD5=[71971f99a41bb66cf321ce46bb59f738]
cluster Repository--><polygon fill="#DDDDDD" filter="url(#f1im2wuhd23jjp)" points="655,525.5,737,525.5,744,549.1094,1096,549.1094,1096,850,655,850,655,525.5" style="stroke:#000000;stroke-width:1.5;"/><line style="stroke:#000000;stroke-width:1.5;" x1="655" x2="744" y1="549.1094" y2="549.1094"/><text fill="#000000" font-family="sans-serif" font-size="14" font-weight="bold" lengthAdjust="spacing" textLength="76" x="659" y="542.0332">Repository</text><!--MD5=[19c944231b726ee0e8a2cdaf2522df3d]
class ServiceDraftFormSpecificationUI--><rect codeLine="4" fill="#FEFECE" filter="url(#f1im2wuhd23jjp)" height="48" id="ServiceDraftFormSpecificationUI" style="stroke:#A80036;stroke-width:1.5;" width="209" x="3684.5" y="62"/><ellipse cx="3699.5" cy="78" fill="#ADD1B2" rx="11" ry="11" style="stroke:#A80036;stroke-width:1.0;"/><path d="M3701.5,74.5 Q3701.7031,74 3701.9375,73.75 Q3702.1719,73.5 3702.4375,73.5 Q3702.9063,73.5 3703.2031,73.7813 Q3703.5,74.0625 3703.5,74.7188 L3703.5,76.2813 Q3703.5,76.9375 3703.2188,77.2188 Q3702.9375,77.5 3702.5,77.5 Q3702.1094,77.5 3701.8594,77.3281 Q3701.6094,77.1563 3701.5,76.7031 Q3701.4531,76.3906 3701.2813,76.2188 Q3700.9688,75.8906 3700.4063,75.7031 Q3699.8438,75.5 3699.2813,75.5 Q3698.5781,75.5 3697.9844,75.7813 Q3697.4063,76.0625 3696.9531,76.6875 Q3696.5,77.3125 3696.5,78.1719 L3696.5,79.0938 Q3696.5,80.125 3697.3438,80.8125 Q3698.1875,81.5 3699.6875,81.5 Q3700.5781,81.5 3701.2031,81.2969 Q3701.5625,81.1875 3701.9688,80.8281 Q3702.2344,80.625 3702.375,80.5625 Q3702.5156,80.5 3702.6875,80.5 Q3703.0156,80.5 3703.25,80.7656 Q3703.5,81.0156 3703.5,81.375 Q3703.5,81.7188 3703.1563,82.125 Q3702.6563,82.7188 3701.8594,83.0469 Q3700.8125,83.5 3699.5313,83.5 Q3698.0313,83.5 3696.8281,82.9063 Q3695.8594,82.4375 3695.1719,81.4219 Q3694.5,80.4063 3694.5,79.2031 L3694.5,78.1094 Q3694.5,76.8594 3695.0938,75.7656 Q3695.7031,74.6719 3696.75,74.0938 Q3697.8125,73.5 3699,73.5 Q3699.7188,73.5 3700.3438,73.75 Q3700.9688,74 3701.5,74.5 Z " fill="#000000"/><text fill="#000000" font-family="sans-serif" font-size="12" lengthAdjust="spacing" textLength="177" x="3713.5" y="82.9102">ServiceDraftFormSpecificationUI</text><line style="stroke:#A80036;stroke-width:1.5;" x1="3685.5" x2="3892.5" y1="94" y2="94"/><line style="stroke:#A80036;stroke-width:1.5;" x1="3685.5" x2="3892.5" y1="102" y2="102"/><!--MD5=[78ca3c1b028cc8a220cf10e5ffc69797]
class ServiceDraftSpecificationController--><rect codeLine="11" fill="#FEFECE" filter="url(#f1im2wuhd23jjp)" height="158.6875" id="ServiceDraftSpecificationController" style="stroke:#A80036;stroke-width:1.5;" width="337" x="3620.5" y="215"/><ellipse cx="3689.75" cy="231" fill="#ADD1B2" rx="11" ry="11" style="stroke:#A80036;stroke-width:1.0;"/><path d="M3691.75,227.5 Q3691.9531,227 3692.1875,226.75 Q3692.4219,226.5 3692.6875,226.5 Q3693.1563,226.5 3693.4531,226.7813 Q3693.75,227.0625 3693.75,227.7188 L3693.75,229.2813 Q3693.75,229.9375 3693.4688,230.2188 Q3693.1875,230.5 3692.75,230.5 Q3692.3594,230.5 3692.1094,230.3281 Q3691.8594,230.1563 3691.75,229.7031 Q3691.7031,229.3906 3691.5313,229.2188 Q3691.2188,228.8906 3690.6563,228.7031 Q3690.0938,228.5 3689.5313,228.5 Q3688.8281,228.5 3688.2344,228.7813 Q3687.6563,229.0625 3687.2031,229.6875 Q3686.75,230.3125 3686.75,231.1719 L3686.75,232.0938 Q3686.75,233.125 3687.5938,233.8125 Q3688.4375,234.5 3689.9375,234.5 Q3690.8281,234.5 3691.4531,234.2969 Q3691.8125,234.1875 3692.2188,233.8281 Q3692.4844,233.625 3692.625,233.5625 Q3692.7656,233.5 3692.9375,233.5 Q3693.2656,233.5 3693.5,233.7656 Q3693.75,234.0156 3693.75,234.375 Q3693.75,234.7188 3693.4063,235.125 Q3692.9063,235.7188 3692.1094,236.0469 Q3691.0625,236.5 3689.7813,236.5 Q3688.2813,236.5 3687.0781,235.9063 Q3686.1094,235.4375 3685.4219,234.4219 Q3684.75,233.4063 3684.75,232.2031 L3684.75,231.1094 Q3684.75,229.8594 3685.3438,228.7656 Q3685.9531,227.6719 3687,227.0938 Q3688.0625,226.5 3689.25,226.5 Q3689.9688,226.5 3690.5938,226.75 Q3691.2188,227 3691.75,227.5 Z " fill="#000000"/><text fill="#000000" font-family="sans-serif" font-size="12" lengthAdjust="spacing" textLength="190" x="3710.25" y="235.9102">ServiceDraftSpecificationController</text><line style="stroke:#A80036;stroke-width:1.5;" x1="3621.5" x2="3956.5" y1="247" y2="247"/><line style="stroke:#A80036;stroke-width:1.5;" x1="3621.5" x2="3956.5" y1="255" y2="255"/><text fill="#000000" font-family="sans-serif" font-size="11" lengthAdjust="spacing" textLength="45" x="3626.5" y="270.4189">+create()</text><text fill="#000000" font-family="sans-serif" font-size="11" lengthAdjust="spacing" textLength="119" x="3626.5" y="284.2549">+getServiceDraftById(id)</text><text fill="#000000" font-family="sans-serif" font-size="11" lengthAdjust="spacing" textLength="60" x="3626.5" y="298.0908">+newDraft()</text><text fill="#000000" font-family="sans-serif" font-size="11" lengthAdjust="spacing" textLength="134" x="3626.5" y="311.9268">+addForm(name, formType)</text><text fill="#000000" font-family="sans-serif" font-size="11" lengthAdjust="spacing" textLength="325" x="3626.5" y="325.7627">+addAttribute(name, label, description, regex, scriptPath, dataType)</text><text fill="#000000" font-family="sans-serif" font-size="11" lengthAdjust="spacing" textLength="62" x="3626.5" y="339.5986">+saveForm()</text><text fill="#000000" font-family="sans-serif" font-size="11" lengthAdjust="spacing" textLength="92" x="3626.5" y="353.4346">+addFormToDraft()</text><text fill="#000000" font-family="sans-serif" font-size="11" lengthAdjust="spacing" textLength="99" x="3626.5" y="367.2705">+saveServiceDraft()</text><!--MD5=[925d5031f5a4e53e61ccd699b6d8c35b]
class ServiceDraft--><rect codeLine="26" fill="#FEFECE" filter="url(#f1im2wuhd23jjp)" height="75.6719" id="ServiceDraft" style="stroke:#A80036;stroke-width:1.5;" width="121" x="1160.5" y="581.5"/><ellipse cx="1185.85" cy="597.5" fill="#ADD1B2" rx="11" ry="11" style="stroke:#A80036;stroke-width:1.0;"/><path d="M1187.85,594 Q1188.0531,593.5 1188.2875,593.25 Q1188.5219,593 1188.7875,593 Q1189.2563,593 1189.5531,593.2813 Q1189.85,593.5625 1189.85,594.2188 L1189.85,595.7813 Q1189.85,596.4375 1189.5688,596.7188 Q1189.2875,597 1188.85,597 Q1188.4594,597 1188.2094,596.8281 Q1187.9594,596.6563 1187.85,596.2031 Q1187.8031,595.8906 1187.6313,595.7188 Q1187.3188,595.3906 1186.7563,595.2031 Q1186.1938,595 1185.6313,595 Q1184.9281,595 1184.3344,595.2813 Q1183.7563,595.5625 1183.3031,596.1875 Q1182.85,596.8125 1182.85,597.6719 L1182.85,598.5938 Q1182.85,599.625 1183.6938,600.3125 Q1184.5375,601 1186.0375,601 Q1186.9281,601 1187.5531,600.7969 Q1187.9125,600.6875 1188.3188,600.3281 Q1188.5844,600.125 1188.725,600.0625 Q1188.8656,600 1189.0375,600 Q1189.3656,600 1189.6,600.2656 Q1189.85,600.5156 1189.85,600.875 Q1189.85,601.2188 1189.5063,601.625 Q1189.0063,602.2188 1188.2094,602.5469 Q1187.1625,603 1185.8813,603 Q1184.3813,603 1183.1781,602.4063 Q1182.2094,601.9375 1181.5219,600.9219 Q1180.85,599.9063 1180.85,598.7031 L1180.85,597.6094 Q1180.85,596.3594 1181.4438,595.2656 Q1182.0531,594.1719 1183.1,593.5938 Q1184.1625,593 1185.35,593 Q1186.0688,593 1186.6938,593.25 Q1187.3188,593.5 1187.85,594 Z " fill="#000000"/><text fill="#000000" font-family="sans-serif" font-size="12" lengthAdjust="spacing" textLength="66" x="1202.15" y="602.4102">ServiceDraft</text><line style="stroke:#A80036;stroke-width:1.5;" x1="1161.5" x2="1280.5" y1="613.5" y2="613.5"/><line style="stroke:#A80036;stroke-width:1.5;" x1="1161.5" x2="1280.5" y1="621.5" y2="621.5"/><text fill="#000000" font-family="sans-serif" font-size="11" lengthAdjust="spacing" textLength="45" x="1166.5" y="636.9189">+create()</text><text fill="#000000" font-family="sans-serif" font-size="11" lengthAdjust="spacing" textLength="109" x="1166.5" y="650.7549">+setFormList(formList)</text><!--MD5=[6f29f313cd4199edbf91b9ce3a4faa98]
class Form--><rect codeLine="31" fill="#FEFECE" filter="url(#f1im2wuhd23jjp)" height="61.8359" id="Form" style="stroke:#A80036;stroke-width:1.5;" width="197" x="1339.5" y="588.5"/><ellipse cx="1419.25" cy="604.5" fill="#ADD1B2" rx="11" ry="11" style="stroke:#A80036;stroke-width:1.0;"/><path d="M1421.25,601 Q1421.4531,600.5 1421.6875,600.25 Q1421.9219,600 1422.1875,600 Q1422.6563,600 1422.9531,600.2813 Q1423.25,600.5625 1423.25,601.2188 L1423.25,602.7813 Q1423.25,603.4375 1422.9688,603.7188 Q1422.6875,604 1422.25,604 Q1421.8594,604 1421.6094,603.8281 Q1421.3594,603.6563 1421.25,603.2031 Q1421.2031,602.8906 1421.0313,602.7188 Q1420.7188,602.3906 1420.1563,602.2031 Q1419.5938,602 1419.0313,602 Q1418.3281,602 1417.7344,602.2813 Q1417.1563,602.5625 1416.7031,603.1875 Q1416.25,603.8125 1416.25,604.6719 L1416.25,605.5938 Q1416.25,606.625 1417.0938,607.3125 Q1417.9375,608 1419.4375,608 Q1420.3281,608 1420.9531,607.7969 Q1421.3125,607.6875 1421.7188,607.3281 Q1421.9844,607.125 1422.125,607.0625 Q1422.2656,607 1422.4375,607 Q1422.7656,607 1423,607.2656 Q1423.25,607.5156 1423.25,607.875 Q1423.25,608.2188 1422.9063,608.625 Q1422.4063,609.2188 1421.6094,609.5469 Q1420.5625,610 1419.2813,610 Q1417.7813,610 1416.5781,609.4063 Q1415.6094,608.9375 1414.9219,607.9219 Q1414.25,606.9063 1414.25,605.7031 L1414.25,604.6094 Q1414.25,603.3594 1414.8438,602.2656 Q1415.4531,601.1719 1416.5,600.5938 Q1417.5625,600 1418.75,600 Q1419.4688,600 1420.0938,600.25 Q1420.7188,600.5 1421.25,601 Z " fill="#000000"/><text fill="#000000" font-family="sans-serif" font-size="12" lengthAdjust="spacing" textLength="29" x="1439.75" y="609.4102">Form</text><line style="stroke:#A80036;stroke-width:1.5;" x1="1340.5" x2="1535.5" y1="620.5" y2="620.5"/><line style="stroke:#A80036;stroke-width:1.5;" x1="1340.5" x2="1535.5" y1="628.5" y2="628.5"/><text fill="#000000" font-family="sans-serif" font-size="11" lengthAdjust="spacing" textLength="185" x="1345.5" y="643.9189">+create(name, formType, attributeList)</text><!--MD5=[787494ff879e99315e413996e631a796]
class Attribute--><rect codeLine="35" fill="#FEFECE" filter="url(#f1im2wuhd23jjp)" height="61.8359" id="Attribute" style="stroke:#A80036;stroke-width:1.5;" width="305" x="1972.5" y="588.5"/><ellipse cx="2098.75" cy="604.5" fill="#ADD1B2" rx="11" ry="11" style="stroke:#A80036;stroke-width:1.0;"/><path d="M2100.75,601 Q2100.9531,600.5 2101.1875,600.25 Q2101.4219,600 2101.6875,600 Q2102.1563,600 2102.4531,600.2813 Q2102.75,600.5625 2102.75,601.2188 L2102.75,602.7813 Q2102.75,603.4375 2102.4688,603.7188 Q2102.1875,604 2101.75,604 Q2101.3594,604 2101.1094,603.8281 Q2100.8594,603.6563 2100.75,603.2031 Q2100.7031,602.8906 2100.5313,602.7188 Q2100.2188,602.3906 2099.6563,602.2031 Q2099.0938,602 2098.5313,602 Q2097.8281,602 2097.2344,602.2813 Q2096.6563,602.5625 2096.2031,603.1875 Q2095.75,603.8125 2095.75,604.6719 L2095.75,605.5938 Q2095.75,606.625 2096.5938,607.3125 Q2097.4375,608 2098.9375,608 Q2099.8281,608 2100.4531,607.7969 Q2100.8125,607.6875 2101.2188,607.3281 Q2101.4844,607.125 2101.625,607.0625 Q2101.7656,607 2101.9375,607 Q2102.2656,607 2102.5,607.2656 Q2102.75,607.5156 2102.75,607.875 Q2102.75,608.2188 2102.4063,608.625 Q2101.9063,609.2188 2101.1094,609.5469 Q2100.0625,610 2098.7813,610 Q2097.2813,610 2096.0781,609.4063 Q2095.1094,608.9375 2094.4219,607.9219 Q2093.75,606.9063 2093.75,605.7031 L2093.75,604.6094 Q2093.75,603.3594 2094.3438,602.2656 Q2094.9531,601.1719 2096,600.5938 Q2097.0625,600 2098.25,600 Q2098.9688,600 2099.5938,600.25 Q2100.2188,600.5 2100.75,601 Z " fill="#000000"/><text fill="#000000" font-family="sans-serif" font-size="12" lengthAdjust="spacing" textLength="44" x="2119.25" y="609.4102">Attribute</text><line style="stroke:#A80036;stroke-width:1.5;" x1="1973.5" x2="2276.5" y1="620.5" y2="620.5"/><line style="stroke:#A80036;stroke-width:1.5;" x1="1973.5" x2="2276.5" y1="628.5" y2="628.5"/><text fill="#000000" font-family="sans-serif" font-size="11" lengthAdjust="spacing" textLength="293" x="1978.5" y="643.9189">+create(name, label, description, regex, scriptPath, dataType</text><!--MD5=[9555c84b6fd548991761066443e965b1]
class FormName--><rect codeLine="39" fill="#FEFECE" filter="url(#f1im2wuhd23jjp)" height="75.6719" id="FormName" style="stroke:#A80036;stroke-width:1.5;" width="157" x="1780.5" y="581.5"/><ellipse cx="1823.4" cy="597.5" fill="#ADD1B2" rx="11" ry="11" style="stroke:#A80036;stroke-width:1.0;"/><path d="M1825.4,594 Q1825.6031,593.5 1825.8375,593.25 Q1826.0719,593 1826.3375,593 Q1826.8063,593 1827.1031,593.2813 Q1827.4,593.5625 1827.4,594.2188 L1827.4,595.7813 Q1827.4,596.4375 1827.1188,596.7188 Q1826.8375,597 1826.4,597 Q1826.0094,597 1825.7594,596.8281 Q1825.5094,596.6563 1825.4,596.2031 Q1825.3531,595.8906 1825.1813,595.7188 Q1824.8688,595.3906 1824.3063,595.2031 Q1823.7438,595 1823.1813,595 Q1822.4781,595 1821.8844,595.2813 Q1821.3063,595.5625 1820.8531,596.1875 Q1820.4,596.8125 1820.4,597.6719 L1820.4,598.5938 Q1820.4,599.625 1821.2438,600.3125 Q1822.0875,601 1823.5875,601 Q1824.4781,601 1825.1031,600.7969 Q1825.4625,600.6875 1825.8688,600.3281 Q1826.1344,600.125 1826.275,600.0625 Q1826.4156,600 1826.5875,600 Q1826.9156,600 1827.15,600.2656 Q1827.4,600.5156 1827.4,600.875 Q1827.4,601.2188 1827.0563,601.625 Q1826.5563,602.2188 1825.7594,602.5469 Q1824.7125,603 1823.4313,603 Q1821.9313,603 1820.7281,602.4063 Q1819.7594,601.9375 1819.0719,600.9219 Q1818.4,599.9063 1818.4,598.7031 L1818.4,597.6094 Q1818.4,596.3594 1818.9938,595.2656 Q1819.6031,594.1719 1820.65,593.5938 Q1821.7125,593 1822.9,593 Q1823.6188,593 1824.2438,593.25 Q1824.8688,593.5 1825.4,594 Z " fill="#000000"/><text fill="#000000" font-family="sans-serif" font-size="12" lengthAdjust="spacing" textLength="63" x="1843.6" y="602.4102">FormName</text><line style="stroke:#A80036;stroke-width:1.5;" x1="1781.5" x2="1936.5" y1="613.5" y2="613.5"/><line style="stroke:#A80036;stroke-width:1.5;" x1="1781.5" x2="1936.5" y1="621.5" y2="621.5"/><text fill="#000000" font-family="sans-serif" font-size="11" lengthAdjust="spacing" textLength="145" x="1786.5" y="636.9189">+createFormName(formName)</text><text fill="#000000" font-family="sans-serif" font-size="11" lengthAdjust="spacing" textLength="98" x="1786.5" y="650.7549">-validate(formName)</text><!--MD5=[f97bc38be6e42a8b0d0074a8f95022fc]
class FormType--><rect codeLine="44" fill="#FEFECE" filter="url(#f1im2wuhd23jjp)" height="89.5078" id="FormType" style="stroke:#A80036;stroke-width:1.5;" width="151" x="1594.5" y="574.5"/><ellipse cx="1638.3" cy="590.5" fill="#ADD1B2" rx="11" ry="11" style="stroke:#A80036;stroke-width:1.0;"/><path d="M1640.3,587 Q1640.5031,586.5 1640.7375,586.25 Q1640.9719,586 1641.2375,586 Q1641.7063,586 1642.0031,586.2813 Q1642.3,586.5625 1642.3,587.2188 L1642.3,588.7813 Q1642.3,589.4375 1642.0188,589.7188 Q1641.7375,590 1641.3,590 Q1640.9094,590 1640.6594,589.8281 Q1640.4094,589.6563 1640.3,589.2031 Q1640.2531,588.8906 1640.0813,588.7188 Q1639.7688,588.3906 1639.2063,588.2031 Q1638.6438,588 1638.0813,588 Q1637.3781,588 1636.7844,588.2813 Q1636.2063,588.5625 1635.7531,589.1875 Q1635.3,589.8125 1635.3,590.6719 L1635.3,591.5938 Q1635.3,592.625 1636.1438,593.3125 Q1636.9875,594 1638.4875,594 Q1639.3781,594 1640.0031,593.7969 Q1640.3625,593.6875 1640.7688,593.3281 Q1641.0344,593.125 1641.175,593.0625 Q1641.3156,593 1641.4875,593 Q1641.8156,593 1642.05,593.2656 Q1642.3,593.5156 1642.3,593.875 Q1642.3,594.2188 1641.9563,594.625 Q1641.4563,595.2188 1640.6594,595.5469 Q1639.6125,596 1638.3313,596 Q1636.8313,596 1635.6281,595.4063 Q1634.6594,594.9375 1633.9719,593.9219 Q1633.3,592.9063 1633.3,591.7031 L1633.3,590.6094 Q1633.3,589.3594 1633.8938,588.2656 Q1634.5031,587.1719 1635.55,586.5938 Q1636.6125,586 1637.8,586 Q1638.5188,586 1639.1438,586.25 Q1639.7688,586.5 1640.3,587 Z " fill="#000000"/><text fill="#000000" font-family="sans-serif" font-size="12" lengthAdjust="spacing" textLength="55" x="1658.7" y="595.4102">FormType</text><line style="stroke:#A80036;stroke-width:1.5;" x1="1595.5" x2="1744.5" y1="606.5" y2="606.5"/><line style="stroke:#A80036;stroke-width:1.5;" x1="1595.5" x2="1744.5" y1="614.5" y2="614.5"/><text fill="#000000" font-family="sans-serif" font-size="11" lengthAdjust="spacing" textLength="139" x="1600.5" y="629.9189">+createFormType(formType)</text><text fill="#000000" font-family="sans-serif" font-size="11" lengthAdjust="spacing" textLength="46" x="1600.5" y="643.7549">+values()</text><text fill="#000000" font-family="sans-serif" font-size="11" lengthAdjust="spacing" textLength="95" x="1600.5" y="657.5908">-validate(formType)</text><!--MD5=[7730af8102616437f2081915ece208fe]
class AttributeName--><rect codeLine="50" fill="#FEFECE" filter="url(#f1im2wuhd23jjp)" height="75.6719" id="AttributeName" style="stroke:#A80036;stroke-width:1.5;" width="191" x="3482.5" y="581.5"/><ellipse cx="3534.75" cy="597.5" fill="#ADD1B2" rx="11" ry="11" style="stroke:#A80036;stroke-width:1.0;"/><path d="M3536.75,594 Q3536.9531,593.5 3537.1875,593.25 Q3537.4219,593 3537.6875,593 Q3538.1563,593 3538.4531,593.2813 Q3538.75,593.5625 3538.75,594.2188 L3538.75,595.7813 Q3538.75,596.4375 3538.4688,596.7188 Q3538.1875,597 3537.75,597 Q3537.3594,597 3537.1094,596.8281 Q3536.8594,596.6563 3536.75,596.2031 Q3536.7031,595.8906 3536.5313,595.7188 Q3536.2188,595.3906 3535.6563,595.2031 Q3535.0938,595 3534.5313,595 Q3533.8281,595 3533.2344,595.2813 Q3532.6563,595.5625 3532.2031,596.1875 Q3531.75,596.8125 3531.75,597.6719 L3531.75,598.5938 Q3531.75,599.625 3532.5938,600.3125 Q3533.4375,601 3534.9375,601 Q3535.8281,601 3536.4531,600.7969 Q3536.8125,600.6875 3537.2188,600.3281 Q3537.4844,600.125 3537.625,600.0625 Q3537.7656,600 3537.9375,600 Q3538.2656,600 3538.5,600.2656 Q3538.75,600.5156 3538.75,600.875 Q3538.75,601.2188 3538.4063,601.625 Q3537.9063,602.2188 3537.1094,602.5469 Q3536.0625,603 3534.7813,603 Q3533.2813,603 3532.0781,602.4063 Q3531.1094,601.9375 3530.4219,600.9219 Q3529.75,599.9063 3529.75,598.7031 L3529.75,597.6094 Q3529.75,596.3594 3530.3438,595.2656 Q3530.9531,594.1719 3532,593.5938 Q3533.0625,593 3534.25,593 Q3534.9688,593 3535.5938,593.25 Q3536.2188,593.5 3536.75,594 Z " fill="#000000"/><text fill="#000000" font-family="sans-serif" font-size="12" lengthAdjust="spacing" textLength="78" x="3555.25" y="602.4102">AttributeName</text><line style="stroke:#A80036;stroke-width:1.5;" x1="3483.5" x2="3672.5" y1="613.5" y2="613.5"/><line style="stroke:#A80036;stroke-width:1.5;" x1="3483.5" x2="3672.5" y1="621.5" y2="621.5"/><text fill="#000000" font-family="sans-serif" font-size="11" lengthAdjust="spacing" textLength="179" x="3488.5" y="636.9189">+createAttributeName(attributeName)</text><text fill="#000000" font-family="sans-serif" font-size="11" lengthAdjust="spacing" textLength="115" x="3488.5" y="650.7549">-validate(attributeName)</text><!--MD5=[026f7fe645532d5909e09af22ec70fff]
class AttributeLabel--><rect codeLine="55" fill="#FEFECE" filter="url(#f1im2wuhd23jjp)" height="75.6719" id="AttributeLabel" style="stroke:#A80036;stroke-width:1.5;" width="186" x="3261" y="581.5"/><ellipse cx="3312.25" cy="597.5" fill="#ADD1B2" rx="11" ry="11" style="stroke:#A80036;stroke-width:1.0;"/><path d="M3314.25,594 Q3314.4531,593.5 3314.6875,593.25 Q3314.9219,593 3315.1875,593 Q3315.6563,593 3315.9531,593.2813 Q3316.25,593.5625 3316.25,594.2188 L3316.25,595.7813 Q3316.25,596.4375 3315.9688,596.7188 Q3315.6875,597 3315.25,597 Q3314.8594,597 3314.6094,596.8281 Q3314.3594,596.6563 3314.25,596.2031 Q3314.2031,595.8906 3314.0313,595.7188 Q3313.7188,595.3906 3313.1563,595.2031 Q3312.5938,595 3312.0313,595 Q3311.3281,595 3310.7344,595.2813 Q3310.1563,595.5625 3309.7031,596.1875 Q3309.25,596.8125 3309.25,597.6719 L3309.25,598.5938 Q3309.25,599.625 3310.0938,600.3125 Q3310.9375,601 3312.4375,601 Q3313.3281,601 3313.9531,600.7969 Q3314.3125,600.6875 3314.7188,600.3281 Q3314.9844,600.125 3315.125,600.0625 Q3315.2656,600 3315.4375,600 Q3315.7656,600 3316,600.2656 Q3316.25,600.5156 3316.25,600.875 Q3316.25,601.2188 3315.9063,601.625 Q3315.4063,602.2188 3314.6094,602.5469 Q3313.5625,603 3312.2813,603 Q3310.7813,603 3309.5781,602.4063 Q3308.6094,601.9375 3307.9219,600.9219 Q3307.25,599.9063 3307.25,598.7031 L3307.25,597.6094 Q3307.25,596.3594 3307.8438,595.2656 Q3308.4531,594.1719 3309.5,593.5938 Q3310.5625,593 3311.75,593 Q3312.4688,593 3313.0938,593.25 Q3313.7188,593.5 3314.25,594 Z " fill="#000000"/><text fill="#000000" font-family="sans-serif" font-size="12" lengthAdjust="spacing" textLength="75" x="3332.75" y="602.4102">AttributeLabel</text><line style="stroke:#A80036;stroke-width:1.5;" x1="3262" x2="3446" y1="613.5" y2="613.5"/><line style="stroke:#A80036;stroke-width:1.5;" x1="3262" x2="3446" y1="621.5" y2="621.5"/><text fill="#000000" font-family="sans-serif" font-size="11" lengthAdjust="spacing" textLength="174" x="3267" y="636.9189">+createAtributoLabel(attributeLabel)</text><text fill="#000000" font-family="sans-serif" font-size="11" lengthAdjust="spacing" textLength="114" x="3267" y="650.7549">-validate(attributeLabel)</text><!--MD5=[4862e575995b54c71e16f8b6c129262c]
class AttributeDescription--><rect codeLine="60" fill="#FEFECE" filter="url(#f1im2wuhd23jjp)" height="75.6719" id="AttributeDescription" style="stroke:#A80036;stroke-width:1.5;" width="245" x="2980.5" y="581.5"/><ellipse cx="3045.25" cy="597.5" fill="#ADD1B2" rx="11" ry="11" style="stroke:#A80036;stroke-width:1.0;"/><path d="M3047.25,594 Q3047.4531,593.5 3047.6875,593.25 Q3047.9219,593 3048.1875,593 Q3048.6563,593 3048.9531,593.2813 Q3049.25,593.5625 3049.25,594.2188 L3049.25,595.7813 Q3049.25,596.4375 3048.9688,596.7188 Q3048.6875,597 3048.25,597 Q3047.8594,597 3047.6094,596.8281 Q3047.3594,596.6563 3047.25,596.2031 Q3047.2031,595.8906 3047.0313,595.7188 Q3046.7188,595.3906 3046.1563,595.2031 Q3045.5938,595 3045.0313,595 Q3044.3281,595 3043.7344,595.2813 Q3043.1563,595.5625 3042.7031,596.1875 Q3042.25,596.8125 3042.25,597.6719 L3042.25,598.5938 Q3042.25,599.625 3043.0938,600.3125 Q3043.9375,601 3045.4375,601 Q3046.3281,601 3046.9531,600.7969 Q3047.3125,600.6875 3047.7188,600.3281 Q3047.9844,600.125 3048.125,600.0625 Q3048.2656,600 3048.4375,600 Q3048.7656,600 3049,600.2656 Q3049.25,600.5156 3049.25,600.875 Q3049.25,601.2188 3048.9063,601.625 Q3048.4063,602.2188 3047.6094,602.5469 Q3046.5625,603 3045.2813,603 Q3043.7813,603 3042.5781,602.4063 Q3041.6094,601.9375 3040.9219,600.9219 Q3040.25,599.9063 3040.25,598.7031 L3040.25,597.6094 Q3040.25,596.3594 3040.8438,595.2656 Q3041.4531,594.1719 3042.5,593.5938 Q3043.5625,593 3044.75,593 Q3045.4688,593 3046.0938,593.25 Q3046.7188,593.5 3047.25,594 Z " fill="#000000"/><text fill="#000000" font-family="sans-serif" font-size="12" lengthAdjust="spacing" textLength="107" x="3065.75" y="602.4102">AttributeDescription</text><line style="stroke:#A80036;stroke-width:1.5;" x1="2981.5" x2="3224.5" y1="613.5" y2="613.5"/><line style="stroke:#A80036;stroke-width:1.5;" x1="2981.5" x2="3224.5" y1="621.5" y2="621.5"/><text fill="#000000" font-family="sans-serif" font-size="11" lengthAdjust="spacing" textLength="233" x="2986.5" y="636.9189">+createAttributeDescription(attributeDescription)</text><text fill="#000000" font-family="sans-serif" font-size="11" lengthAdjust="spacing" textLength="142" x="2986.5" y="650.7549">-validate(attributeDescription)</text><!--MD5=[b364529acba39bfc522f6b29f223163f]
class AttributeRegex--><rect codeLine="65" fill="#FEFECE" filter="url(#f1im2wuhd23jjp)" height="75.6719" id="AttributeRegex" style="stroke:#A80036;stroke-width:1.5;" width="199" x="2746.5" y="581.5"/><ellipse cx="2802.25" cy="597.5" fill="#ADD1B2" rx="11" ry="11" style="stroke:#A80036;stroke-width:1.0;"/><path d="M2804.25,594 Q2804.4531,593.5 2804.6875,593.25 Q2804.9219,593 2805.1875,593 Q2805.6563,593 2805.9531,593.2813 Q2806.25,593.5625 2806.25,594.2188 L2806.25,595.7813 Q2806.25,596.4375 2805.9688,596.7188 Q2805.6875,597 2805.25,597 Q2804.8594,597 2804.6094,596.8281 Q2804.3594,596.6563 2804.25,596.2031 Q2804.2031,595.8906 2804.0313,595.7188 Q2803.7188,595.3906 2803.1563,595.2031 Q2802.5938,595 2802.0313,595 Q2801.3281,595 2800.7344,595.2813 Q2800.1563,595.5625 2799.7031,596.1875 Q2799.25,596.8125 2799.25,597.6719 L2799.25,598.5938 Q2799.25,599.625 2800.0938,600.3125 Q2800.9375,601 2802.4375,601 Q2803.3281,601 2803.9531,600.7969 Q2804.3125,600.6875 2804.7188,600.3281 Q2804.9844,600.125 2805.125,600.0625 Q2805.2656,600 2805.4375,600 Q2805.7656,600 2806,600.2656 Q2806.25,600.5156 2806.25,600.875 Q2806.25,601.2188 2805.9063,601.625 Q2805.4063,602.2188 2804.6094,602.5469 Q2803.5625,603 2802.2813,603 Q2800.7813,603 2799.5781,602.4063 Q2798.6094,601.9375 2797.9219,600.9219 Q2797.25,599.9063 2797.25,598.7031 L2797.25,597.6094 Q2797.25,596.3594 2797.8438,595.2656 Q2798.4531,594.1719 2799.5,593.5938 Q2800.5625,593 2801.75,593 Q2802.4688,593 2803.0938,593.25 Q2803.7188,593.5 2804.25,594 Z " fill="#000000"/><text fill="#000000" font-family="sans-serif" font-size="12" lengthAdjust="spacing" textLength="79" x="2822.75" y="602.4102">AttributeRegex</text><line style="stroke:#A80036;stroke-width:1.5;" x1="2747.5" x2="2944.5" y1="613.5" y2="613.5"/><line style="stroke:#A80036;stroke-width:1.5;" x1="2747.5" x2="2944.5" y1="621.5" y2="621.5"/><text fill="#000000" font-family="sans-serif" font-size="11" lengthAdjust="spacing" textLength="187" x="2752.5" y="636.9189">+createAttributeRegex(attributeRegex)</text><text fill="#000000" font-family="sans-serif" font-size="11" lengthAdjust="spacing" textLength="119" x="2752.5" y="650.7549">-validate(attributeRegex)</text><!--MD5=[f7f675f870e9e40e2223e003a8668a3c]
class AttributeScript--><rect codeLine="70" fill="#FEFECE" filter="url(#f1im2wuhd23jjp)" height="75.6719" id="AttributeScript" style="stroke:#A80036;stroke-width:1.5;" width="193" x="2518.5" y="581.5"/><ellipse cx="2573.25" cy="597.5" fill="#ADD1B2" rx="11" ry="11" style="stroke:#A80036;stroke-width:1.0;"/><path d="M2575.25,594 Q2575.4531,593.5 2575.6875,593.25 Q2575.9219,593 2576.1875,593 Q2576.6563,593 2576.9531,593.2813 Q2577.25,593.5625 2577.25,594.2188 L2577.25,595.7813 Q2577.25,596.4375 2576.9688,596.7188 Q2576.6875,597 2576.25,597 Q2575.8594,597 2575.6094,596.8281 Q2575.3594,596.6563 2575.25,596.2031 Q2575.2031,595.8906 2575.0313,595.7188 Q2574.7188,595.3906 2574.1563,595.2031 Q2573.5938,595 2573.0313,595 Q2572.3281,595 2571.7344,595.2813 Q2571.1563,595.5625 2570.7031,596.1875 Q2570.25,596.8125 2570.25,597.6719 L2570.25,598.5938 Q2570.25,599.625 2571.0938,600.3125 Q2571.9375,601 2573.4375,601 Q2574.3281,601 2574.9531,600.7969 Q2575.3125,600.6875 2575.7188,600.3281 Q2575.9844,600.125 2576.125,600.0625 Q2576.2656,600 2576.4375,600 Q2576.7656,600 2577,600.2656 Q2577.25,600.5156 2577.25,600.875 Q2577.25,601.2188 2576.9063,601.625 Q2576.4063,602.2188 2575.6094,602.5469 Q2574.5625,603 2573.2813,603 Q2571.7813,603 2570.5781,602.4063 Q2569.6094,601.9375 2568.9219,600.9219 Q2568.25,599.9063 2568.25,598.7031 L2568.25,597.6094 Q2568.25,596.3594 2568.8438,595.2656 Q2569.4531,594.1719 2570.5,593.5938 Q2571.5625,593 2572.75,593 Q2573.4688,593 2574.0938,593.25 Q2574.7188,593.5 2575.25,594 Z " fill="#000000"/><text fill="#000000" font-family="sans-serif" font-size="12" lengthAdjust="spacing" textLength="75" x="2593.75" y="602.4102">AttributeScript</text><line style="stroke:#A80036;stroke-width:1.5;" x1="2519.5" x2="2710.5" y1="613.5" y2="613.5"/><line style="stroke:#A80036;stroke-width:1.5;" x1="2519.5" x2="2710.5" y1="621.5" y2="621.5"/><text fill="#000000" font-family="sans-serif" font-size="11" lengthAdjust="spacing" textLength="181" x="2524.5" y="636.9189">+createAttributeScript(attributeScript)</text><text fill="#000000" font-family="sans-serif" font-size="11" lengthAdjust="spacing" textLength="116" x="2524.5" y="650.7549">-validate(attributeScript)</text><!--MD5=[3949b939274c3ebd79b8ab92605ab7ed]
class DataType--><rect codeLine="75" fill="#FEFECE" filter="url(#f1im2wuhd23jjp)" height="89.5078" id="DataType" style="stroke:#A80036;stroke-width:1.5;" width="148" x="2335" y="574.5"/><ellipse cx="2378.8" cy="590.5" fill="#ADD1B2" rx="11" ry="11" style="stroke:#A80036;stroke-width:1.0;"/><path d="M2380.8,587 Q2381.0031,586.5 2381.2375,586.25 Q2381.4719,586 2381.7375,586 Q2382.2063,586 2382.5031,586.2813 Q2382.8,586.5625 2382.8,587.2188 L2382.8,588.7813 Q2382.8,589.4375 2382.5188,589.7188 Q2382.2375,590 2381.8,590 Q2381.4094,590 2381.1594,589.8281 Q2380.9094,589.6563 2380.8,589.2031 Q2380.7531,588.8906 2380.5813,588.7188 Q2380.2688,588.3906 2379.7063,588.2031 Q2379.1438,588 2378.5813,588 Q2377.8781,588 2377.2844,588.2813 Q2376.7063,588.5625 2376.2531,589.1875 Q2375.8,589.8125 2375.8,590.6719 L2375.8,591.5938 Q2375.8,592.625 2376.6438,593.3125 Q2377.4875,594 2378.9875,594 Q2379.8781,594 2380.5031,593.7969 Q2380.8625,593.6875 2381.2688,593.3281 Q2381.5344,593.125 2381.675,593.0625 Q2381.8156,593 2381.9875,593 Q2382.3156,593 2382.55,593.2656 Q2382.8,593.5156 2382.8,593.875 Q2382.8,594.2188 2382.4563,594.625 Q2381.9563,595.2188 2381.1594,595.5469 Q2380.1125,596 2378.8313,596 Q2377.3313,596 2376.1281,595.4063 Q2375.1594,594.9375 2374.4719,593.9219 Q2373.8,592.9063 2373.8,591.7031 L2373.8,590.6094 Q2373.8,589.3594 2374.3938,588.2656 Q2375.0031,587.1719 2376.05,586.5938 Q2377.1125,586 2378.3,586 Q2379.0188,586 2379.6438,586.25 Q2380.2688,586.5 2380.8,587 Z " fill="#000000"/><text fill="#000000" font-family="sans-serif" font-size="12" lengthAdjust="spacing" textLength="52" x="2399.2" y="595.4102">DataType</text><line style="stroke:#A80036;stroke-width:1.5;" x1="2336" x2="2482" y1="606.5" y2="606.5"/><line style="stroke:#A80036;stroke-width:1.5;" x1="2336" x2="2482" y1="614.5" y2="614.5"/><text fill="#000000" font-family="sans-serif" font-size="11" lengthAdjust="spacing" textLength="136" x="2341" y="629.9189">+createDataType(dataType)</text><text fill="#000000" font-family="sans-serif" font-size="11" lengthAdjust="spacing" textLength="46" x="2341" y="643.7549">+values()</text><text fill="#000000" font-family="sans-serif" font-size="11" lengthAdjust="spacing" textLength="94" x="2341" y="657.5908">-validate(dataType)</text><!--MD5=[552a4e0091f456c26441f4ab52a9c8b5]
class FormBuilder--><rect codeLine="83" fill="#FEFECE" filter="url(#f1im2wuhd23jjp)" height="117.1797" id="FormBuilder" style="stroke:#A80036;stroke-width:1.5;" width="161" x="3708.5" y="561"/><ellipse cx="3750.95" cy="577" fill="#ADD1B2" rx="11" ry="11" style="stroke:#A80036;stroke-width:1.0;"/><path d="M3752.95,573.5 Q3753.1531,573 3753.3875,572.75 Q3753.6219,572.5 3753.8875,572.5 Q3754.3563,572.5 3754.6531,572.7813 Q3754.95,573.0625 3754.95,573.7188 L3754.95,575.2813 Q3754.95,575.9375 3754.6688,576.2188 Q3754.3875,576.5 3753.95,576.5 Q3753.5594,576.5 3753.3094,576.3281 Q3753.0594,576.1563 3752.95,575.7031 Q3752.9031,575.3906 3752.7313,575.2188 Q3752.4188,574.8906 3751.8563,574.7031 Q3751.2938,574.5 3750.7313,574.5 Q3750.0281,574.5 3749.4344,574.7813 Q3748.8563,575.0625 3748.4031,575.6875 Q3747.95,576.3125 3747.95,577.1719 L3747.95,578.0938 Q3747.95,579.125 3748.7938,579.8125 Q3749.6375,580.5 3751.1375,580.5 Q3752.0281,580.5 3752.6531,580.2969 Q3753.0125,580.1875 3753.4188,579.8281 Q3753.6844,579.625 3753.825,579.5625 Q3753.9656,579.5 3754.1375,579.5 Q3754.4656,579.5 3754.7,579.7656 Q3754.95,580.0156 3754.95,580.375 Q3754.95,580.7188 3754.6063,581.125 Q3754.1063,581.7188 3753.3094,582.0469 Q3752.2625,582.5 3750.9813,582.5 Q3749.4813,582.5 3748.2781,581.9063 Q3747.3094,581.4375 3746.6219,580.4219 Q3745.95,579.4063 3745.95,578.2031 L3745.95,577.1094 Q3745.95,575.8594 3746.5438,574.7656 Q3747.1531,573.6719 3748.2,573.0938 Q3749.2625,572.5 3750.45,572.5 Q3751.1688,572.5 3751.7938,572.75 Q3752.4188,573 3752.95,573.5 Z " fill="#000000"/><text fill="#000000" font-family="sans-serif" font-size="12" lengthAdjust="spacing" textLength="68" x="3771.05" y="581.9102">FormBuilder</text><line style="stroke:#A80036;stroke-width:1.5;" x1="3709.5" x2="3868.5" y1="593" y2="593"/><line style="stroke:#A80036;stroke-width:1.5;" x1="3709.5" x2="3868.5" y1="601" y2="601"/><text fill="#000000" font-family="sans-serif" font-size="11" lengthAdjust="spacing" textLength="45" x="3714.5" y="616.4189">+create()</text><text fill="#000000" font-family="sans-serif" font-size="11" lengthAdjust="spacing" textLength="88" x="3714.5" y="630.2549">+withName(name)</text><text fill="#000000" font-family="sans-serif" font-size="11" lengthAdjust="spacing" textLength="129" x="3714.5" y="644.0908">+withFormType(formType)</text><text fill="#000000" font-family="sans-serif" font-size="11" lengthAdjust="spacing" textLength="149" x="3714.5" y="657.9268">+withAttributeList(attributeList)</text><text fill="#000000" font-family="sans-serif" font-size="11" lengthAdjust="spacing" textLength="36" x="3714.5" y="671.7627">+build()</text><!--MD5=[48296f855dadaf4112ca95d4dd3a387a]
class AttributeBuilder--><rect codeLine="91" fill="#FEFECE" filter="url(#f1im2wuhd23jjp)" height="158.6875" id="AttributeBuilder" style="stroke:#A80036;stroke-width:1.5;" width="154" x="3905" y="540"/><ellipse cx="3937.55" cy="556" fill="#ADD1B2" rx="11" ry="11" style="stroke:#A80036;stroke-width:1.0;"/><path d="M3939.55,552.5 Q3939.7531,552 3939.9875,551.75 Q3940.2219,551.5 3940.4875,551.5 Q3940.9563,551.5 3941.2531,551.7813 Q3941.55,552.0625 3941.55,552.7188 L3941.55,554.2813 Q3941.55,554.9375 3941.2688,555.2188 Q3940.9875,555.5 3940.55,555.5 Q3940.1594,555.5 3939.9094,555.3281 Q3939.6594,555.1563 3939.55,554.7031 Q3939.5031,554.3906 3939.3313,554.2188 Q3939.0188,553.8906 3938.4563,553.7031 Q3937.8938,553.5 3937.3313,553.5 Q3936.6281,553.5 3936.0344,553.7813 Q3935.4563,554.0625 3935.0031,554.6875 Q3934.55,555.3125 3934.55,556.1719 L3934.55,557.0938 Q3934.55,558.125 3935.3938,558.8125 Q3936.2375,559.5 3937.7375,559.5 Q3938.6281,559.5 3939.2531,559.2969 Q3939.6125,559.1875 3940.0188,558.8281 Q3940.2844,558.625 3940.425,558.5625 Q3940.5656,558.5 3940.7375,558.5 Q3941.0656,558.5 3941.3,558.7656 Q3941.55,559.0156 3941.55,559.375 Q3941.55,559.7188 3941.2063,560.125 Q3940.7063,560.7188 3939.9094,561.0469 Q3938.8625,561.5 3937.5813,561.5 Q3936.0813,561.5 3934.8781,560.9063 Q3933.9094,560.4375 3933.2219,559.4219 Q3932.55,558.4063 3932.55,557.2031 L3932.55,556.1094 Q3932.55,554.8594 3933.1438,553.7656 Q3933.7531,552.6719 3934.8,552.0938 Q3935.8625,551.5 3937.05,551.5 Q3937.7688,551.5 3938.3938,551.75 Q3939.0188,552 3939.55,552.5 Z " fill="#000000"/><text fill="#000000" font-family="sans-serif" font-size="12" lengthAdjust="spacing" textLength="83" x="3955.45" y="560.9102">AttributeBuilder</text><line style="stroke:#A80036;stroke-width:1.5;" x1="3906" x2="4058" y1="572" y2="572"/><line style="stroke:#A80036;stroke-width:1.5;" x1="3906" x2="4058" y1="580" y2="580"/><text fill="#000000" font-family="sans-serif" font-size="11" lengthAdjust="spacing" textLength="45" x="3911" y="595.4189">+create()</text><text fill="#000000" font-family="sans-serif" font-size="11" lengthAdjust="spacing" textLength="88" x="3911" y="609.2549">+withName(name)</text><text fill="#000000" font-family="sans-serif" font-size="11" lengthAdjust="spacing" textLength="83" x="3911" y="623.0908">+withLabel(label)</text><text fill="#000000" font-family="sans-serif" font-size="11" lengthAdjust="spacing" textLength="142" x="3911" y="636.9268">+withDescription(description)</text><text fill="#000000" font-family="sans-serif" font-size="11" lengthAdjust="spacing" textLength="94" x="3911" y="650.7627">+withRegex(regex)</text><text fill="#000000" font-family="sans-serif" font-size="11" lengthAdjust="spacing" textLength="107" x="3911" y="664.5986">+withScript(scriptPath</text><text fill="#000000" font-family="sans-serif" font-size="11" lengthAdjust="spacing" textLength="126" x="3911" y="678.4346">+withDataType(dataType)</text><text fill="#000000" font-family="sans-serif" font-size="11" lengthAdjust="spacing" textLength="36" x="3911" y="692.2705">+build()</text><!--MD5=[e8c189551b7885b999ad7cefb30fc2a3]
class PersistenceContext--><rect codeLine="107" fill="#FEFECE" filter="url(#f1im2wuhd23jjp)" height="61.8359" id="PersistenceContext" style="stroke:#A80036;stroke-width:1.5;" width="139" x="32.5" y="588.5"/><ellipse cx="47.5" cy="604.5" fill="#ADD1B2" rx="11" ry="11" style="stroke:#A80036;stroke-width:1.0;"/><path d="M49.5,601 Q49.7031,600.5 49.9375,600.25 Q50.1719,600 50.4375,600 Q50.9063,600 51.2031,600.2813 Q51.5,600.5625 51.5,601.2188 L51.5,602.7813 Q51.5,603.4375 51.2188,603.7188 Q50.9375,604 50.5,604 Q50.1094,604 49.8594,603.8281 Q49.6094,603.6563 49.5,603.2031 Q49.4531,602.8906 49.2813,602.7188 Q48.9688,602.3906 48.4063,602.2031 Q47.8438,602 47.2813,602 Q46.5781,602 45.9844,602.2813 Q45.4063,602.5625 44.9531,603.1875 Q44.5,603.8125 44.5,604.6719 L44.5,605.5938 Q44.5,606.625 45.3438,607.3125 Q46.1875,608 47.6875,608 Q48.5781,608 49.2031,607.7969 Q49.5625,607.6875 49.9688,607.3281 Q50.2344,607.125 50.375,607.0625 Q50.5156,607 50.6875,607 Q51.0156,607 51.25,607.2656 Q51.5,607.5156 51.5,607.875 Q51.5,608.2188 51.1563,608.625 Q50.6563,609.2188 49.8594,609.5469 Q48.8125,610 47.5313,610 Q46.0313,610 44.8281,609.4063 Q43.8594,608.9375 43.1719,607.9219 Q42.5,606.9063 42.5,605.7031 L42.5,604.6094 Q42.5,603.3594 43.0938,602.2656 Q43.7031,601.1719 44.75,600.5938 Q45.8125,600 47,600 Q47.7188,600 48.3438,600.25 Q48.9688,600.5 49.5,601 Z " fill="#000000"/><text fill="#000000" font-family="sans-serif" font-size="12" lengthAdjust="spacing" textLength="107" x="61.5" y="609.4102">PersistenceContext</text><line style="stroke:#A80036;stroke-width:1.5;" x1="33.5" x2="170.5" y1="620.5" y2="620.5"/><line style="stroke:#A80036;stroke-width:1.5;" x1="33.5" x2="170.5" y1="628.5" y2="628.5"/><text fill="#000000" font-family="sans-serif" font-size="11" lengthAdjust="spacing" textLength="71" x="38.5" y="643.9189">+repositories()</text><!--MD5=[b8e4c95865208c934bfcfda4f90bf50c]
class AppSettings--><rect codeLine="111" fill="#FEFECE" filter="url(#f1im2wuhd23jjp)" height="75.6719" id="AppSettings" style="stroke:#A80036;stroke-width:1.5;" width="130" x="275" y="581.5"/><ellipse cx="304.4" cy="597.5" fill="#ADD1B2" rx="11" ry="11" style="stroke:#A80036;stroke-width:1.0;"/><path d="M306.4,594 Q306.6031,593.5 306.8375,593.25 Q307.0719,593 307.3375,593 Q307.8063,593 308.1031,593.2813 Q308.4,593.5625 308.4,594.2188 L308.4,595.7813 Q308.4,596.4375 308.1188,596.7188 Q307.8375,597 307.4,597 Q307.0094,597 306.7594,596.8281 Q306.5094,596.6563 306.4,596.2031 Q306.3531,595.8906 306.1813,595.7188 Q305.8688,595.3906 305.3063,595.2031 Q304.7438,595 304.1813,595 Q303.4781,595 302.8844,595.2813 Q302.3063,595.5625 301.8531,596.1875 Q301.4,596.8125 301.4,597.6719 L301.4,598.5938 Q301.4,599.625 302.2438,600.3125 Q303.0875,601 304.5875,601 Q305.4781,601 306.1031,600.7969 Q306.4625,600.6875 306.8688,600.3281 Q307.1344,600.125 307.275,600.0625 Q307.4156,600 307.5875,600 Q307.9156,600 308.15,600.2656 Q308.4,600.5156 308.4,600.875 Q308.4,601.2188 308.0563,601.625 Q307.5563,602.2188 306.7594,602.5469 Q305.7125,603 304.4313,603 Q302.9313,603 301.7281,602.4063 Q300.7594,601.9375 300.0719,600.9219 Q299.4,599.9063 299.4,598.7031 L299.4,597.6094 Q299.4,596.3594 299.9938,595.2656 Q300.6031,594.1719 301.65,593.5938 Q302.7125,593 303.9,593 Q304.6188,593 305.2438,593.25 Q305.8688,593.5 306.4,594 Z " fill="#000000"/><text fill="#000000" font-family="sans-serif" font-size="12" lengthAdjust="spacing" textLength="66" x="321.6" y="602.4102">AppSettings</text><line style="stroke:#A80036;stroke-width:1.5;" x1="276" x2="404" y1="613.5" y2="613.5"/><line style="stroke:#A80036;stroke-width:1.5;" x1="276" x2="404" y1="621.5" y2="621.5"/><text fill="#000000" font-family="sans-serif" font-size="11" lengthAdjust="spacing" textLength="55" x="281" y="636.9189">+instance()</text><text fill="#000000" font-family="sans-serif" font-size="11" lengthAdjust="spacing" textLength="118" x="281" y="650.7549">+getRepositoryFactory()</text><!--MD5=[48590afff58a68e2fcba47824d6f8a11]
class RepositoryFactory--><rect codeLine="117" fill="#FEFECE" filter="url(#f1im2wuhd23jjp)" height="103.3438" id="RepositoryFactory" style="stroke:#A80036;stroke-width:1.5;" width="130" x="485" y="568"/><ellipse cx="500" cy="584" fill="#ADD1B2" rx="11" ry="11" style="stroke:#A80036;stroke-width:1.0;"/><path d="M502,580.5 Q502.2031,580 502.4375,579.75 Q502.6719,579.5 502.9375,579.5 Q503.4063,579.5 503.7031,579.7813 Q504,580.0625 504,580.7188 L504,582.2813 Q504,582.9375 503.7188,583.2188 Q503.4375,583.5 503,583.5 Q502.6094,583.5 502.3594,583.3281 Q502.1094,583.1563 502,582.7031 Q501.9531,582.3906 501.7813,582.2188 Q501.4688,581.8906 500.9063,581.7031 Q500.3438,581.5 499.7813,581.5 Q499.0781,581.5 498.4844,581.7813 Q497.9063,582.0625 497.4531,582.6875 Q497,583.3125 497,584.1719 L497,585.0938 Q497,586.125 497.8438,586.8125 Q498.6875,587.5 500.1875,587.5 Q501.0781,587.5 501.7031,587.2969 Q502.0625,587.1875 502.4688,586.8281 Q502.7344,586.625 502.875,586.5625 Q503.0156,586.5 503.1875,586.5 Q503.5156,586.5 503.75,586.7656 Q504,587.0156 504,587.375 Q504,587.7188 503.6563,588.125 Q503.1563,588.7188 502.3594,589.0469 Q501.3125,589.5 500.0313,589.5 Q498.5313,589.5 497.3281,588.9063 Q496.3594,588.4375 495.6719,587.4219 Q495,586.4063 495,585.2031 L495,584.1094 Q495,582.8594 495.5938,581.7656 Q496.2031,580.6719 497.25,580.0938 Q498.3125,579.5 499.5,579.5 Q500.2188,579.5 500.8438,579.75 Q501.4688,580 502,580.5 Z " fill="#000000"/><text fill="#000000" font-family="sans-serif" font-size="12" lengthAdjust="spacing" textLength="98" x="514" y="588.9102">RepositoryFactory</text><line style="stroke:#A80036;stroke-width:1.5;" x1="486" x2="614" y1="600" y2="600"/><line style="stroke:#A80036;stroke-width:1.5;" x1="486" x2="614" y1="608" y2="608"/><text fill="#000000" font-family="sans-serif" font-size="11" lengthAdjust="spacing" textLength="45" x="491" y="623.4189">+create()</text><text fill="#000000" font-family="sans-serif" font-size="11" lengthAdjust="spacing" textLength="56" x="491" y="637.2549">+servicos()</text><text fill="#000000" font-family="sans-serif" font-size="11" lengthAdjust="spacing" textLength="61" x="491" y="651.0908">+catalogos()</text><text fill="#000000" font-family="sans-serif" font-size="11" lengthAdjust="spacing" textLength="68" x="491" y="664.9268">+formularios()</text><!--MD5=[c442d1a7174f61885988a69cb0f958b4]
class ServiceDraftRepository--><rect codeLine="127" fill="#FEFECE" filter="url(#f1im2wuhd23jjp)" height="75.6719" id="ServiceDraftRepository" style="stroke:#A80036;stroke-width:1.5;" width="157" x="892.5" y="581.5"/><ellipse cx="907.5" cy="597.5" fill="#ADD1B2" rx="11" ry="11" style="stroke:#A80036;stroke-width:1.0;"/><path d="M909.5,594 Q909.7031,593.5 909.9375,593.25 Q910.1719,593 910.4375,593 Q910.9063,593 911.2031,593.2813 Q911.5,593.5625 911.5,594.2188 L911.5,595.7813 Q911.5,596.4375 911.2188,596.7188 Q910.9375,597 910.5,597 Q910.1094,597 909.8594,596.8281 Q909.6094,596.6563 909.5,596.2031 Q909.4531,595.8906 909.2813,595.7188 Q908.9688,595.3906 908.4063,595.2031 Q907.8438,595 907.2813,595 Q906.5781,595 905.9844,595.2813 Q905.4063,595.5625 904.9531,596.1875 Q904.5,596.8125 904.5,597.6719 L904.5,598.5938 Q904.5,599.625 905.3438,600.3125 Q906.1875,601 907.6875,601 Q908.5781,601 909.2031,600.7969 Q909.5625,600.6875 909.9688,600.3281 Q910.2344,600.125 910.375,600.0625 Q910.5156,600 910.6875,600 Q911.0156,600 911.25,600.2656 Q911.5,600.5156 911.5,600.875 Q911.5,601.2188 911.1563,601.625 Q910.6563,602.2188 909.8594,602.5469 Q908.8125,603 907.5313,603 Q906.0313,603 904.8281,602.4063 Q903.8594,601.9375 903.1719,600.9219 Q902.5,599.9063 902.5,598.7031 L902.5,597.6094 Q902.5,596.3594 903.0938,595.2656 Q903.7031,594.1719 904.75,593.5938 Q905.8125,593 907,593 Q907.7188,593 908.3438,593.25 Q908.9688,593.5 909.5,594 Z " fill="#000000"/><text fill="#000000" font-family="sans-serif" font-size="12" lengthAdjust="spacing" textLength="125" x="921.5" y="602.4102">ServiceDraftRepository</text><line style="stroke:#A80036;stroke-width:1.5;" x1="893.5" x2="1048.5" y1="613.5" y2="613.5"/><line style="stroke:#A80036;stroke-width:1.5;" x1="893.5" x2="1048.5" y1="621.5" y2="621.5"/><text fill="#000000" font-family="sans-serif" font-size="11" lengthAdjust="spacing" textLength="45" x="898.5" y="636.9189">+create()</text><text fill="#000000" font-family="sans-serif" font-size="11" lengthAdjust="spacing" textLength="98" x="898.5" y="650.7549">+save(serviceDraft)</text><!--MD5=[82131b75822bd28ea4d9cf09bc194e6e]
class FormRepository--><rect codeLine="132" fill="#FEFECE" filter="url(#f1im2wuhd23jjp)" height="75.6719" id="FormRepository" style="stroke:#A80036;stroke-width:1.5;" width="120" x="713" y="581.5"/><ellipse cx="728" cy="597.5" fill="#ADD1B2" rx="11" ry="11" style="stroke:#A80036;stroke-width:1.0;"/><path d="M730,594 Q730.2031,593.5 730.4375,593.25 Q730.6719,593 730.9375,593 Q731.4063,593 731.7031,593.2813 Q732,593.5625 732,594.2188 L732,595.7813 Q732,596.4375 731.7188,596.7188 Q731.4375,597 731,597 Q730.6094,597 730.3594,596.8281 Q730.1094,596.6563 730,596.2031 Q729.9531,595.8906 729.7813,595.7188 Q729.4688,595.3906 728.9063,595.2031 Q728.3438,595 727.7813,595 Q727.0781,595 726.4844,595.2813 Q725.9063,595.5625 725.4531,596.1875 Q725,596.8125 725,597.6719 L725,598.5938 Q725,599.625 725.8438,600.3125 Q726.6875,601 728.1875,601 Q729.0781,601 729.7031,600.7969 Q730.0625,600.6875 730.4688,600.3281 Q730.7344,600.125 730.875,600.0625 Q731.0156,600 731.1875,600 Q731.5156,600 731.75,600.2656 Q732,600.5156 732,600.875 Q732,601.2188 731.6563,601.625 Q731.1563,602.2188 730.3594,602.5469 Q729.3125,603 728.0313,603 Q726.5313,603 725.3281,602.4063 Q724.3594,601.9375 723.6719,600.9219 Q723,599.9063 723,598.7031 L723,597.6094 Q723,596.3594 723.5938,595.2656 Q724.2031,594.1719 725.25,593.5938 Q726.3125,593 727.5,593 Q728.2188,593 728.8438,593.25 Q729.4688,593.5 730,594 Z " fill="#000000"/><text fill="#000000" font-family="sans-serif" font-size="12" lengthAdjust="spacing" textLength="88" x="742" y="602.4102">FormRepository</text><line style="stroke:#A80036;stroke-width:1.5;" x1="714" x2="832" y1="613.5" y2="613.5"/><line style="stroke:#A80036;stroke-width:1.5;" x1="714" x2="832" y1="621.5" y2="621.5"/><text fill="#000000" font-family="sans-serif" font-size="11" lengthAdjust="spacing" textLength="45" x="719" y="636.9189">+create()</text><text fill="#000000" font-family="sans-serif" font-size="11" lengthAdjust="spacing" textLength="60" x="719" y="650.7549">+save(form)</text><!--MD5=[22f89721c89d5b9566a4ffee303fac63]
class ServiceDraftRepositoryInterface--><rect codeLine="137" fill="#FEFECE" filter="url(#f1im2wuhd23jjp)" height="48" id="ServiceDraftRepositoryInterface" style="stroke:#A80036;stroke-width:1.5;" width="206" x="874" y="786"/><ellipse cx="889" cy="802" fill="#B4A7E5" rx="11" ry="11" style="stroke:#A80036;stroke-width:1.0;"/><path d="M890,799 L890,805 L892,805 L892.4844,805 L893,805.625 L893,806 L893,806.375 L892.4844,807 L892,807 L886,807 L885.5156,807 L885,806.375 L885,806 L885,805.625 L885.5156,805 L886,805 L888,805 L888,799 L886,799 L885.5156,799 L885,798.375 L885,798 L885,797.625 L885.5156,797 L886,797 L892,797 L892.4844,797 L893,797.625 L893,798 L893,798.375 L892.4844,799 L892,799 L890,799 Z " fill="#000000"/><text fill="#000000" font-family="sans-serif" font-size="12" font-style="italic" lengthAdjust="spacing" textLength="174" x="903" y="806.9102">ServiceDraftRepositoryInterface</text><line style="stroke:#A80036;stroke-width:1.5;" x1="875" x2="1079" y1="818" y2="818"/><line style="stroke:#A80036;stroke-width:1.5;" x1="875" x2="1079" y1="826" y2="826"/><!--MD5=[ba3c83a124400fabba0dfe18de4b6f9c]
class FormRepositoryInterface--><rect codeLine="141" fill="#FEFECE" filter="url(#f1im2wuhd23jjp)" height="48" id="FormRepositoryInterface" style="stroke:#A80036;stroke-width:1.5;" width="168" x="671" y="786"/><ellipse cx="686" cy="802" fill="#B4A7E5" rx="11" ry="11" style="stroke:#A80036;stroke-width:1.0;"/><path d="M687,799 L687,805 L689,805 L689.4844,805 L690,805.625 L690,806 L690,806.375 L689.4844,807 L689,807 L683,807 L682.5156,807 L682,806.375 L682,806 L682,805.625 L682.5156,805 L683,805 L685,805 L685,799 L683,799 L682.5156,799 L682,798.375 L682,798 L682,797.625 L682.5156,797 L683,797 L689,797 L689.4844,797 L690,797.625 L690,798 L690,798.375 L689.4844,799 L689,799 L687,799 Z " fill="#000000"/><text fill="#000000" font-family="sans-serif" font-size="12" font-style="italic" lengthAdjust="spacing" textLength="136" x="700" y="806.9102">FormRepositoryInterface</text><line style="stroke:#A80036;stroke-width:1.5;" x1="672" x2="838" y1="818" y2="818"/><line style="stroke:#A80036;stroke-width:1.5;" x1="672" x2="838" y1="826" y2="826"/><!--MD5=[ec56947251e719f182fa47cf51924cbb]
link ServiceDraftFormSpecificationUI to ServiceDraftSpecificationController--><path codeLine="149" d="M3789,110.29 C3789,134.41 3789,173.55 3789,209.48 " fill="none" id="ServiceDraftFormSpecificationUI-to-ServiceDraftSpecificationController" style="stroke:#A80036;stroke-width:1.0;stroke-dasharray:7.0,7.0;"/><polygon fill="#A80036" points="3789,214.75,3793,205.75,3789,209.75,3785,205.75,3789,214.75" style="stroke:#A80036;stroke-width:1.0;"/><!--MD5=[ead3634b19a55fdd9013fd6361107340]
link ServiceDraftSpecificationController to FormBuilder--><path codeLine="150" d="M3789,374.1 C3789,429.89 3789,503.78 3789,555.65 " fill="none" id="ServiceDraftSpecificationController-to-FormBuilder" style="stroke:#A80036;stroke-width:1.0;stroke-dasharray:7.0,7.0;"/><polygon fill="#A80036" points="3789,560.92,3793,551.92,3789,555.92,3785,551.92,3789,560.92" style="stroke:#A80036;stroke-width:1.0;"/><!--MD5=[303828f9ab2f6cf7c45b5a8933dbb7cb]
link ServiceDraftSpecificationController to AttributeBuilder--><path codeLine="151" d="M3848.6,374.24 C3861.8,392.82 3875.32,412.81 3887,432 C3906.99,464.84 3926.69,502.38 3942.91,535.14 " fill="none" id="ServiceDraftSpecificationController-to-AttributeBuilder" style="stroke:#A80036;stroke-width:1.0;stroke-dasharray:7.0,7.0;"/><polygon fill="#A80036" points="3945.28,539.94,3944.8831,530.0991,3943.0668,535.4565,3937.7095,533.6403,3945.28,539.94" style="stroke:#A80036;stroke-width:1.0;"/><!--MD5=[c4515eb8dbaedaae32cf288fd2687d91]
link ServiceDraftSpecificationController to PersistenceContext--><path codeLine="152" d="M3620.3,300.48 C3158.11,314.37 1832.53,355.83 731,406 C520.68,415.58 446.23,337.67 258,432 C192.14,465 143.58,539.67 119.34,583.87 " fill="none" id="ServiceDraftSpecificationController-to-PersistenceContext" style="stroke:#A80036;stroke-width:1.0;stroke-dasharray:7.0,7.0;"/><polygon fill="#A80036" points="116.93,588.31,124.7444,582.3154,119.3192,583.9178,117.7169,578.4926,116.93,588.31" style="stroke:#A80036;stroke-width:1.0;"/><!--MD5=[013c093f641f8740a568aa5157f9e0d6]
link ServiceDraftRepository to ServiceDraftRepositoryInterface--><path codeLine="154" d="M972.19,657.74 C973.34,693.9 975.06,747.98 976.1,780.73 " fill="none" id="ServiceDraftRepository-to-ServiceDraftRepositoryInterface" style="stroke:#A80036;stroke-width:1.0;stroke-dasharray:7.0,7.0;"/><polygon fill="#A80036" points="976.26,785.8,979.9753,776.6788,976.1029,780.8025,971.9793,776.9301,976.26,785.8" style="stroke:#A80036;stroke-width:1.0;"/><!--MD5=[8662b398a7001c851f34692a3fbdfdb1]
link FormRepository to FormRepositoryInterface--><path codeLine="155" d="M769.44,657.74 C765.99,693.9 760.83,747.98 757.7,780.73 " fill="none" id="FormRepository-to-FormRepositoryInterface" style="stroke:#A80036;stroke-width:1.0;stroke-dasharray:7.0,7.0;"/><polygon fill="#A80036" points="757.22,785.8,762.0518,777.2178,757.692,780.8223,754.0875,776.4626,757.22,785.8" style="stroke:#A80036;stroke-width:1.0;"/><!--MD5=[d66efb439816738ddd3e9d5fff4bf3a7]
link AppSettings to RepositoryFactory--><path codeLine="157" d="M405.01,619.5 C428.74,619.5 455.67,619.5 479.83,619.5 " fill="none" id="AppSettings-to-RepositoryFactory" style="stroke:#A80036;stroke-width:1.0;"/><polygon fill="#A80036" points="484.94,619.5,475.94,615.5,479.94,619.5,475.94,623.5,484.94,619.5" style="stroke:#A80036;stroke-width:1.0;"/><text fill="#000000" font-family="sans-serif" font-size="13" lengthAdjust="spacing" textLength="43" x="423.5" y="612.9951">creates</text><!--MD5=[27fe1c91fe18bafc5695938053528609]
link PersistenceContext to AppSettings--><path codeLine="158" d="M171.8,619.5 C202.53,619.5 238.57,619.5 269.39,619.5 " fill="none" id="PersistenceContext-to-AppSettings" style="stroke:#A80036;stroke-width:1.0;"/><polygon fill="#A80036" points="274.69,619.5,265.69,615.5,269.69,619.5,265.69,623.5,274.69,619.5" style="stroke:#A80036;stroke-width:1.0;"/><text fill="#000000" font-family="sans-serif" font-size="13" lengthAdjust="spacing" textLength="67" x="189.75" y="612.9951">implements</text><!--MD5=[c099f118843079ed39661509eb060af6]
link RepositoryFactory to ServiceDraftRepository--><path codeLine="160" d="M566.4,567.76 C582.14,527.68 610.24,474.92 655,450 C731.11,407.62 773.63,409.98 851,450 C901.93,476.34 935.89,535.37 954.31,576.31 " fill="none" id="RepositoryFactory-to-ServiceDraftRepository" style="stroke:#A80036;stroke-width:1.0;"/><polygon fill="#A80036" points="956.48,581.21,956.5115,571.3612,954.4639,576.6345,949.1906,574.5869,956.48,581.21" style="stroke:#A80036;stroke-width:1.0;"/><text fill="#000000" font-family="sans-serif" font-size="13" lengthAdjust="spacing" textLength="21" x="739.5" y="420.4951">has</text><text fill="#000000" font-family="sans-serif" font-size="13" lengthAdjust="spacing" textLength="7" x="561.1334" y="557.2281">1</text><text fill="#000000" font-family="sans-serif" font-size="13" lengthAdjust="spacing" textLength="7" x="946.2702" y="570.5202">1</text><!--MD5=[ba8ab1a505d555209a92eac3cb0969e8]
link RepositoryFactory to FormRepository--><path codeLine="161" d="M615.1,619.5 C644.27,619.5 678.59,619.5 707.77,619.5 " fill="none" id="RepositoryFactory-to-FormRepository" style="stroke:#A80036;stroke-width:1.0;"/><polygon fill="#A80036" points="712.78,619.5,703.78,615.5,707.78,619.5,703.78,623.5,712.78,619.5" style="stroke:#A80036;stroke-width:1.0;"/><text fill="#000000" font-family="sans-serif" font-size="13" lengthAdjust="spacing" textLength="21" x="653.5" y="612.9951">has</text><text fill="#000000" font-family="sans-serif" font-size="13" lengthAdjust="spacing" textLength="7" x="623.0319" y="616.0706">1</text><text fill="#000000" font-family="sans-serif" font-size="13" lengthAdjust="spacing" textLength="7" x="698.0141" y="616.0615">1</text><!--MD5=[d53e096ef2f9280c1f0af98ac059945b]
link ServiceDraftRepository to ServiceDraft--><path codeLine="163" d="M1049.76,619.5 C1083.72,619.5 1122.99,619.5 1155.35,619.5 " fill="none" id="ServiceDraftRepository-to-ServiceDraft" style="stroke:#A80036;stroke-width:1.0;"/><polygon fill="#A80036" points="1160.48,619.5,1151.48,615.5,1155.48,619.5,1151.48,623.5,1160.48,619.5" style="stroke:#A80036;stroke-width:1.0;"/><text fill="#000000" font-family="sans-serif" font-size="13" lengthAdjust="spacing" textLength="33" x="1088.5" y="612.9951">saves</text><text fill="#000000" font-family="sans-serif" font-size="13" lengthAdjust="spacing" textLength="7" x="1057.6004" y="616.265">1</text><text fill="#000000" font-family="sans-serif" font-size="13" lengthAdjust="spacing" textLength="5" x="1147.4056" y="616.0137">*</text><!--MD5=[dfd9f748dcbcf503f457b6c39d52db15]
link FormRepository to Form--><path codeLine="164" d="M783.68,581.42 C797.39,540.62 825.52,477.97 875,450 C957.02,403.63 1213.83,409.7 1299,450 C1357.01,477.45 1398.91,542.29 1420.76,583.35 " fill="none" id="FormRepository-to-Form" style="stroke:#A80036;stroke-width:1.0;"/><polygon fill="#A80036" points="1423.32,588.23,1422.6719,578.4025,1420.993,583.8045,1415.591,582.1256,1423.32,588.23" style="stroke:#A80036;stroke-width:1.0;"/><text fill="#000000" font-family="sans-serif" font-size="13" lengthAdjust="spacing" textLength="33" x="1072.5" y="420.4951">saves</text><text fill="#000000" font-family="sans-serif" font-size="13" lengthAdjust="spacing" textLength="7" x="777.9589" y="570.7677">1</text><text fill="#000000" font-family="sans-serif" font-size="13" lengthAdjust="spacing" textLength="5" x="1414.7766" y="577.6789">*</text><!--MD5=[4231b0446641a058ba7a2e1fc6613ad7]
link FormBuilder to Form--><path codeLine="165" d="M3776.71,560.73 C3765.22,521.97 3743.79,474.07 3705,450 C3604.54,387.67 1683.86,399.43 1577,450 C1518.99,477.45 1477.09,542.29 1455.24,583.35 " fill="none" id="FormBuilder-to-Form" style="stroke:#A80036;stroke-width:1.0;"/><polygon fill="#A80036" points="1452.68,588.23,1460.409,582.1256,1455.007,583.8045,1453.3281,578.4025,1452.68,588.23" style="stroke:#A80036;stroke-width:1.0;"/><text fill="#000000" font-family="sans-serif" font-size="13" lengthAdjust="spacing" textLength="34" x="1627" y="420.4951">builds</text><text fill="#000000" font-family="sans-serif" font-size="13" lengthAdjust="spacing" textLength="7" x="3767.7856" y="550.098">1</text><text fill="#000000" font-family="sans-serif" font-size="13" lengthAdjust="spacing" textLength="5" x="1450.1921" y="577.6789">*</text><!--MD5=[2e95c4a5850addea09a63512f30caafe]
link AttributeBuilder to Attribute--><path codeLine="166" d="M3957.75,539.73 C3943.04,505.81 3920.47,469.61 3887,450 C3811.79,405.94 2399.57,419.27 2318,450 C2246.85,476.81 2184.86,543.09 2151.4,584.38 " fill="none" id="AttributeBuilder-to-Attribute" style="stroke:#A80036;stroke-width:1.0;"/><polygon fill="#A80036" points="2148.25,588.29,2157.0199,583.8079,2151.3943,584.4024,2150.7998,578.7769,2148.25,588.29" style="stroke:#A80036;stroke-width:1.0;"/><text fill="#000000" font-family="sans-serif" font-size="13" lengthAdjust="spacing" textLength="34" x="3428" y="420.4951">builds</text><text fill="#000000" font-family="sans-serif" font-size="13" lengthAdjust="spacing" textLength="7" x="3948.1918" y="529.1644">1</text><text fill="#000000" font-family="sans-serif" font-size="13" lengthAdjust="spacing" textLength="5" x="2147.5297" y="577.7512">*</text><!--MD5=[8e2d2ea5c070cc3efe1d66b65b73adeb]
link ServiceDraft to Form--><path codeLine="168" d="M1281.74,619.5 C1298.12,619.5 1316.33,619.5 1334.36,619.5 " fill="none" id="ServiceDraft-to-Form" style="stroke:#A80036;stroke-width:1.0;"/><polygon fill="#A80036" points="1339.43,619.5,1330.43,615.5,1334.43,619.5,1330.43,623.5,1339.43,619.5" style="stroke:#A80036;stroke-width:1.0;"/><text fill="#000000" font-family="sans-serif" font-size="13" lengthAdjust="spacing" textLength="21" x="1300" y="612.9951">has</text><text fill="#000000" font-family="sans-serif" font-size="13" lengthAdjust="spacing" textLength="7" x="1289.5693" y="616.0615">1</text><text fill="#000000" font-family="sans-serif" font-size="13" lengthAdjust="spacing" textLength="5" x="1326.376" y="616.3782">*</text><!--MD5=[424822e8e69e4af0c08c14d28c23b6d3]
link Form to FormName--><path codeLine="170" d="M1452.68,588.23 C1473.71,547.63 1516.63,478.57 1577,450 C1651.72,414.64 1691.58,408.37 1763,450 C1809.47,477.08 1835.25,535.93 1848.11,576.63 " fill="none" id="Form-to-FormName" style="stroke:#A80036;stroke-width:1.0;"/><polygon fill="#A80036" points="1849.62,581.5,1850.7635,571.7177,1848.1335,576.7261,1843.1252,574.0961,1849.62,581.5" style="stroke:#A80036;stroke-width:1.0;"/><text fill="#000000" font-family="sans-serif" font-size="13" lengthAdjust="spacing" textLength="21" x="1713.5" y="420.4951">has</text><text fill="#000000" font-family="sans-serif" font-size="13" lengthAdjust="spacing" textLength="7" x="1456.4296" y="577.6789">1</text><text fill="#000000" font-family="sans-serif" font-size="13" lengthAdjust="spacing" textLength="7" x="1840.2453" y="570.5765">1</text><!--MD5=[7db6c6cdf2bdefdb995b5afb296c71bf]
link Form to FormType--><path codeLine="171" d="M1536.73,619.5 C1554.16,619.5 1572.13,619.5 1589.01,619.5 " fill="none" id="Form-to-FormType" style="stroke:#A80036;stroke-width:1.0;"/><polygon fill="#A80036" points="1594.21,619.5,1585.21,615.5,1589.21,619.5,1585.21,623.5,1594.21,619.5" style="stroke:#A80036;stroke-width:1.0;"/><text fill="#000000" font-family="sans-serif" font-size="13" lengthAdjust="spacing" textLength="21" x="1555" y="612.9951">has</text><text fill="#000000" font-family="sans-serif" font-size="13" lengthAdjust="spacing" textLength="7" x="1544.557" y="616.4024">1</text><text fill="#000000" font-family="sans-serif" font-size="13" lengthAdjust="spacing" textLength="7" x="1579.4049" y="616.2491">1</text><!--MD5=[971d5490c4dc9d82955338ed7a7bbf99]
link Form to Attribute--><path codeLine="172" d="M1452.68,588.23 C1473.71,547.63 1516.63,478.57 1577,450 C1652.93,414.07 1877.37,417.91 1955,450 C2020.54,477.09 2074.06,543.05 2102.58,584.24 " fill="none" id="Form-to-Attribute" style="stroke:#A80036;stroke-width:1.0;"/><polygon fill="#A80036" points="2105.43,588.4,2103.6431,578.7146,2102.604,584.2752,2097.0434,583.2362,2105.43,588.4" style="stroke:#A80036;stroke-width:1.0;"/><text fill="#000000" font-family="sans-serif" font-size="13" lengthAdjust="spacing" textLength="21" x="1845.5" y="420.4951">has</text><text fill="#000000" font-family="sans-serif" font-size="13" lengthAdjust="spacing" textLength="7" x="1447.9859" y="577.6789">1</text><text fill="#000000" font-family="sans-serif" font-size="13" lengthAdjust="spacing" textLength="20" x="2079.3312" y="577.8839">1..*</text><!--MD5=[b586ca04e226261218368980e08d6e05]
link Attribute to AttributeName--><path codeLine="174" d="M2148.25,588.29 C2180.87,547.41 2244.55,477.67 2318,450 C2437.26,405.07 3352.64,389.86 3465,450 C3514.59,476.54 3546.18,535.52 3562.99,576.39 " fill="none" id="Attribute-to-AttributeName" style="stroke:#A80036;stroke-width:1.0;"/><polygon fill="#A80036" points="3564.97,581.28,3565.3153,571.4372,3563.1008,576.6426,3557.8954,574.428,3564.97,581.28" style="stroke:#A80036;stroke-width:1.0;"/><text fill="#000000" font-family="sans-serif" font-size="13" lengthAdjust="spacing" textLength="21" x="3095.5" y="420.4951">has</text><text fill="#000000" font-family="sans-serif" font-size="13" lengthAdjust="spacing" textLength="7" x="2153.7672" y="577.7512">1</text><text fill="#000000" font-family="sans-serif" font-size="13" lengthAdjust="spacing" textLength="7" x="3555.0256" y="570.6027">1</text><!--MD5=[a59df021dadfc641ad79fe8b2949653c]
link Attribute to AttributeLabel--><path codeLine="175" d="M2148.25,588.29 C2180.87,547.41 2244.55,477.67 2318,450 C2414.18,413.76 3152.58,401.13 3243,450 C3292.21,476.6 3323.12,535.56 3339.47,576.42 " fill="none" id="Attribute-to-AttributeLabel" style="stroke:#A80036;stroke-width:1.0;"/><polygon fill="#A80036" points="3341.39,581.31,3341.824,571.4707,3339.5626,576.6559,3334.3774,574.3945,3341.39,581.31" style="stroke:#A80036;stroke-width:1.0;"/><text fill="#000000" font-family="sans-serif" font-size="13" lengthAdjust="spacing" textLength="21" x="2298.5" y="420.4951">has</text><text fill="#000000" font-family="sans-serif" font-size="13" lengthAdjust="spacing" textLength="7" x="2145.3234" y="577.7512">1</text><text fill="#000000" font-family="sans-serif" font-size="13" lengthAdjust="spacing" textLength="7" x="3331.5204" y="570.6381">1</text><!--MD5=[431604de72fb750b0652e9a7ebe12be3]
link Attribute to AttributeDescription--><path codeLine="176" d="M2148.25,588.29 C2180.87,547.41 2244.55,477.67 2318,450 C2452.13,399.46 2833.33,388.92 2963,450 C3018.3,476.05 3059.21,535.85 3082.08,576.97 " fill="none" id="Attribute-to-AttributeDescription" style="stroke:#A80036;stroke-width:1.0;"/><polygon fill="#A80036" points="3084.51,581.39,3083.685,571.5758,3082.1037,577.0071,3076.6724,575.4258,3084.51,581.39" style="stroke:#A80036;stroke-width:1.0;"/><text fill="#000000" font-family="sans-serif" font-size="13" lengthAdjust="spacing" textLength="21" x="2701.5" y="420.4951">has</text><text fill="#000000" font-family="sans-serif" font-size="13" lengthAdjust="spacing" textLength="7" x="2162.4813" y="577.1115">1</text><text fill="#000000" font-family="sans-serif" font-size="13" lengthAdjust="spacing" textLength="7" x="3073.593" y="570.7323">1</text><!--MD5=[5218e0bc46566a5d7a077248f603307a]
link Attribute to AttributeRegex--><path codeLine="177" d="M2148.25,588.29 C2180.87,547.41 2244.55,477.67 2318,450 C2403.47,417.8 2648.13,407.56 2729,450 C2779.35,476.43 2812.3,535.43 2830.03,576.34 " fill="none" id="Attribute-to-AttributeRegex" style="stroke:#A80036;stroke-width:1.0;"/><polygon fill="#A80036" points="2832.12,581.24,2832.2513,571.392,2830.1504,576.6443,2824.8981,574.5434,2832.12,581.24" style="stroke:#A80036;stroke-width:1.0;"/><text fill="#000000" font-family="sans-serif" font-size="13" lengthAdjust="spacing" textLength="21" x="2347.5" y="420.4951">has</text><text fill="#000000" font-family="sans-serif" font-size="13" lengthAdjust="spacing" textLength="7" x="2153.7672" y="577.7512">1</text><text fill="#000000" font-family="sans-serif" font-size="13" lengthAdjust="spacing" textLength="7" x="2822.0242" y="570.5556">1</text><!--MD5=[22bf452f871a2350b3b093bad15d401b]
link Attribute to AttributeScript--><path codeLine="178" d="M2148.25,588.29 C2180.87,547.41 2244.55,477.67 2318,450 C2394.11,421.32 2429.21,411.77 2501,450 C2550.78,476.51 2582.71,535.5 2599.75,576.38 " fill="none" id="Attribute-to-AttributeScript" style="stroke:#A80036;stroke-width:1.0;"/><polygon fill="#A80036" points="2601.75,581.27,2602.0327,571.4252,2599.8513,576.6445,2594.6319,574.4632,2601.75,581.27" style="stroke:#A80036;stroke-width:1.0;"/><text fill="#000000" font-family="sans-serif" font-size="13" lengthAdjust="spacing" textLength="21" x="2415.5" y="420.4951">has</text><text fill="#000000" font-family="sans-serif" font-size="13" lengthAdjust="spacing" textLength="7" x="2177.0063" y="577.1115">1</text><text fill="#000000" font-family="sans-serif" font-size="13" lengthAdjust="spacing" textLength="7" x="2591.7664" y="570.5909">1</text><!--MD5=[53b6849afd857e62c9a23fc2c159a646]
link Attribute to DataType--><path codeLine="179" d="M2277.81,619.5 C2295.77,619.5 2313.51,619.5 2329.85,619.5 " fill="none" id="Attribute-to-DataType" style="stroke:#A80036;stroke-width:1.0;"/><polygon fill="#A80036" points="2334.88,619.5,2325.88,615.5,2329.88,619.5,2325.88,623.5,2334.88,619.5" style="stroke:#A80036;stroke-width:1.0;"/><text fill="#000000" font-family="sans-serif" font-size="13" lengthAdjust="spacing" textLength="21" x="2295.75" y="612.9951">has</text><text fill="#000000" font-family="sans-serif" font-size="13" lengthAdjust="spacing" textLength="7" x="2285.3813" y="616.6201">1</text><text fill="#000000" font-family="sans-serif" font-size="13" lengthAdjust="spacing" textLength="7" x="2319.8754" y="616.2136">1</text><!--MD5=[1611b753ce55271182d35087f1cf4a9c]
@startuml
skinparam classAttributeIconSize 0

package "Presentation" #DDDDDD {
class ServiceDraftFormSpecificationUI{

}
}


package "Application" #DDDDDD {
class ServiceDraftSpecificationController{
+create()
+getServiceDraftById(id)
+newDraft()
+addForm(name, formType)
+addAttribute(name, label, description, regex, scriptPath, dataType)
+saveForm()
+addFormToDraft()
+saveServiceDraft()
}

}


package "Domain" #DDDDDD {
class ServiceDraft{
+create()
+setFormList(formList)
}

class Form{
+create(name, formType, attributeList)
}

class Attribute{
+create(name, label, description, regex, scriptPath, dataType
}

class FormName{
+createFormName(formName)
-validate(formName)
}

class FormType{
+createFormType(formType)
+values()
-validate(formType)
}

class AttributeName{
+createAttributeName(attributeName)
-validate(attributeName)
}

class AttributeLabel{
+createAtributoLabel(attributeLabel)
-validate(attributeLabel)
}

class AttributeDescription{
+createAttributeDescription(attributeDescription)
-validate(attributeDescription)
}

class AttributeRegex{
+createAttributeRegex(attributeRegex)
-validate(attributeRegex)
}

class AttributeScript{
+createAttributeScript(attributeScript)
-validate(attributeScript)
}

class DataType{
+createDataType(dataType)
+values()
-validate(dataType)
}

package Builder #DDDDDD {

class FormBuilder{
+create()
+withName(name)
+withFormType(formType)
+withAttributeList(attributeList)
+build()
}

class AttributeBuilder{
+create()
+withName(name)
+withLabel(label)
+withDescription(description)
+withRegex(regex)
+withScript(scriptPath
+withDataType(dataType)
+build()
}

}

}

package Persistence #DDDDDD {
class PersistenceContext{
+repositories()
}

class AppSettings{
+instance()
+getRepositoryFactory()
}

package Factory #DDDDDD {
class RepositoryFactory{
+create()
+servicos()
+catalogos()
+formularios()
}
}

package "Repository" #DDDDDD {

class ServiceDraftRepository{
+create()
+save(serviceDraft)
}

class FormRepository{
+create()
+save(form)
}

interface ServiceDraftRepositoryInterface{

}

interface FormRepositoryInterface{

}

}



ServiceDraftFormSpecificationUI ..> ServiceDraftSpecificationController
ServiceDraftSpecificationController ..> FormBuilder
ServiceDraftSpecificationController ..> AttributeBuilder
ServiceDraftSpecificationController ..> PersistenceContext

ServiceDraftRepository ..> ServiceDraftRepositoryInterface
FormRepository ..> FormRepositoryInterface

AppSettings -> RepositoryFactory : creates
PersistenceContext -> AppSettings : implements

RepositoryFactory "1" -> "1" ServiceDraftRepository : has
RepositoryFactory "1" -> "1" FormRepository : has

ServiceDraftRepository "1" -> "*" ServiceDraft : saves
FormRepository "1" -> "*" Form : saves
FormBuilder "1" -> "*" Form : builds
AttributeBuilder "1" -> "*" Attribute : builds

ServiceDraft "1" -> "*" Form : has

Form "1" -> "1" FormName : has
Form "1" -> "1" FormType : has
Form "1" -> "1..*" Attribute : has

Attribute "1" -> "1" AttributeName : has
Attribute "1" -> "1" AttributeLabel : has
Attribute "1" -> "1" AttributeDescription : has
Attribute "1" -> "1" AttributeRegex : has
Attribute "1" -> "1" AttributeScript : has
Attribute "1" -> "1" DataType : has


@enduml

PlantUML version 1.2021.5(Sun Apr 25 12:20:28 BST 2021)
(GPL source distribution)
Java Runtime: OpenJDK Runtime Environment
JVM: Dynamic Code Evolution 64-Bit Server VM
Default Encoding: Cp1252
Language: pt
Country: PT
--></g></svg>