<?xml version="1.0" encoding="UTF-8" standalone="no"?><svg xmlns="http://www.w3.org/2000/svg" xmlns:xlink="http://www.w3.org/1999/xlink" contentScriptType="application/ecmascript" contentStyleType="text/css" height="1168px" preserveAspectRatio="none" style="width:2134px;height:1168px;" version="1.1" viewBox="0 0 2134 1168" width="2134px" zoomAndPan="magnify"><defs><filter height="300%" id="f9iox3r36a7ve" width="300%" x="-1" y="-1"><feGaussianBlur result="blurOut" stdDeviation="2.0"/><feColorMatrix in="blurOut" result="blurOut2" type="matrix" values="0 0 0 0 0 0 0 0 0 0 0 0 0 0 0 0 0 0 .4 0"/><feOffset dx="4.0" dy="4.0" in="blurOut2" result="blurOut3"/><feBlend in="SourceGraphic" in2="blurOut3" mode="normal"/></filter></defs><g><rect fill="#FFFFFF" filter="url(#f9iox3r36a7ve)" height="1043.5234" style="stroke:#A80036;stroke-width:1.0;" width="10" x="109" y="99.6094"/><rect fill="#FFFFFF" filter="url(#f9iox3r36a7ve)" height="142.2734" style="stroke:#A80036;stroke-width:1.0;" width="10" x="485" y="121.9609"/><rect fill="#FFFFFF" filter="url(#f9iox3r36a7ve)" height="55.7031" style="stroke:#A80036;stroke-width:1.0;" width="10" x="485" y="294.5859"/><rect fill="#FFFFFF" filter="url(#f9iox3r36a7ve)" height="294.5156" style="stroke:#A80036;stroke-width:1.0;" width="10" x="485" y="380.6406"/><rect fill="#FFFFFF" filter="url(#f9iox3r36a7ve)" height="30.3516" style="stroke:#A80036;stroke-width:1.0;" width="10" x="485" y="705.5078"/><rect fill="#FFFFFF" filter="url(#f9iox3r36a7ve)" height="94.4063" style="stroke:#A80036;stroke-width:1.0;" width="10" x="485" y="766.2109"/><rect fill="#FFFFFF" filter="url(#f9iox3r36a7ve)" height="53.7031" style="stroke:#A80036;stroke-width:1.0;" width="10" x="485" y="890.9688"/><rect fill="#FFFFFF" filter="url(#f9iox3r36a7ve)" height="168.1094" style="stroke:#A80036;stroke-width:1.0;" width="10" x="485" y="975.0234"/><rect fill="#FFFFFF" filter="url(#f9iox3r36a7ve)" height="101.9219" style="stroke:#A80036;stroke-width:1.0;" width="10" x="708" y="162.3125"/><rect fill="#FFFFFF" filter="url(#f9iox3r36a7ve)" height="91.0547" style="stroke:#A80036;stroke-width:1.0;" width="10" x="708" y="410.9922"/><rect fill="#FFFFFF" filter="url(#f9iox3r36a7ve)" height="30.3516" style="stroke:#A80036;stroke-width:1.0;" width="10" x="708" y="548.2344"/><rect fill="#FFFFFF" filter="url(#f9iox3r36a7ve)" height="91.0547" style="stroke:#A80036;stroke-width:1.0;" width="10" x="708" y="1005.375"/><rect fill="#FFFFFF" filter="url(#f9iox3r36a7ve)" height="30.3516" style="stroke:#A80036;stroke-width:1.0;" width="10" x="913" y="441.3438"/><rect fill="#FFFFFF" filter="url(#f9iox3r36a7ve)" height="30.3516" style="stroke:#A80036;stroke-width:1.0;" width="10" x="913" y="1035.7266"/><rect fill="#FFFFFF" filter="url(#f9iox3r36a7ve)" height="310.8672" style="stroke:#000000;stroke-width:2.0;" width="1100" x="10" y="309.5859"/><rect fill="#FFFFFF" height="110.4063" style="stroke:none;stroke-width:1.0;" width="1100" x="10" y="510.0469"/><rect fill="#FFFFFF" filter="url(#f9iox3r36a7ve)" height="264.5156" style="stroke:#000000;stroke-width:2.0;" width="584" x="10" y="634.4531"/><line style="stroke:#A80036;stroke-width:1.0;stroke-dasharray:5.0,5.0;" x1="114" x2="114" y1="89.6094" y2="1161.1328"/><line style="stroke:#A80036;stroke-width:1.0;stroke-dasharray:5.0,5.0;" x1="490" x2="490" y1="89.6094" y2="1161.1328"/><line style="stroke:#A80036;stroke-width:1.0;stroke-dasharray:5.0,5.0;" x1="713" x2="713" y1="172.0703" y2="1161.1328"/><line style="stroke:#A80036;stroke-width:1.0;stroke-dasharray:5.0,5.0;" x1="918" x2="918" y1="89.6094" y2="1161.1328"/><line style="stroke:#A80036;stroke-width:1.0;stroke-dasharray:5.0,5.0;" x1="1052" x2="1052" y1="598.3438" y2="1161.1328"/><line style="stroke:#A80036;stroke-width:1.0;stroke-dasharray:5.0,5.0;" x1="1180" x2="1180" y1="89.6094" y2="1161.1328"/><line style="stroke:#A80036;stroke-width:1.0;stroke-dasharray:5.0,5.0;" x1="1321" x2="1321" y1="89.6094" y2="1161.1328"/><line style="stroke:#A80036;stroke-width:1.0;stroke-dasharray:5.0,5.0;" x1="1460" x2="1460" y1="89.6094" y2="1161.1328"/><line style="stroke:#A80036;stroke-width:1.0;stroke-dasharray:5.0,5.0;" x1="1585" x2="1585" y1="89.6094" y2="1161.1328"/><line style="stroke:#A80036;stroke-width:1.0;stroke-dasharray:5.0,5.0;" x1="1702" x2="1702" y1="89.6094" y2="1161.1328"/><line style="stroke:#A80036;stroke-width:1.0;stroke-dasharray:5.0,5.0;" x1="1841" x2="1841" y1="89.6094" y2="1161.1328"/><line style="stroke:#A80036;stroke-width:1.0;stroke-dasharray:5.0,5.0;" x1="1970" x2="1970" y1="89.6094" y2="1161.1328"/><line style="stroke:#A80036;stroke-width:1.0;stroke-dasharray:5.0,5.0;" x1="2076" x2="2076" y1="89.6094" y2="1161.1328"/><text fill="#000000" font-family="sans-serif" font-size="14" lengthAdjust="spacing" textLength="182" x="20" y="86.5332">Help Desk Services Manager</text><ellipse cx="114" cy="15" fill="#FEFECE" filter="url(#f9iox3r36a7ve)" rx="8" ry="8" style="stroke:#A80036;stroke-width:2.0;"/><path d="M114,23 L114,50 M101,31 L127,31 M114,50 L101,65 M114,50 L127,65 " fill="none" filter="url(#f9iox3r36a7ve)" style="stroke:#A80036;stroke-width:2.0;"/><rect fill="#FEFECE" filter="url(#f9iox3r36a7ve)" height="49.2188" style="stroke:#A80036;stroke-width:1.5;" width="184" x="396" y="35.3906"/><text fill="#000000" font-family="sans-serif" font-size="14" lengthAdjust="spacing" textLength="111" x="432.5" y="56.9238">&lt;&lt;presentation&gt;&gt;</text><text fill="#000000" font-family="sans-serif" font-size="14" lengthAdjust="spacing" textLength="170" x="403" y="74.5332">ServiceDraftSpecificationUI</text><text fill="#000000" font-family="sans-serif" font-size="14" lengthAdjust="spacing" textLength="95" x="867.5" y="68.9238">&lt;&lt;repository&gt;&gt;</text><text fill="#000000" font-family="sans-serif" font-size="14" lengthAdjust="spacing" textLength="146" x="842" y="86.5332">ServiceDraftRepository</text><path d="M900,18.3906 C900,8.3906 918,8.3906 918,8.3906 C918,8.3906 936,8.3906 936,18.3906 L936,44.3906 C936,54.3906 918,54.3906 918,54.3906 C918,54.3906 900,54.3906 900,44.3906 L900,18.3906 " fill="#FEFECE" filter="url(#f9iox3r36a7ve)" style="stroke:#000000;stroke-width:1.5;"/><path d="M900,18.3906 C900,28.3906 918,28.3906 918,28.3906 C918,28.3906 936,28.3906 936,18.3906 " fill="none" style="stroke:#000000;stroke-width:1.5;"/><rect fill="#FEFECE" filter="url(#f9iox3r36a7ve)" height="49.2188" style="stroke:#A80036;stroke-width:1.5;" width="136" x="1110" y="35.3906"/><text fill="#000000" font-family="sans-serif" font-size="14" lengthAdjust="spacing" textLength="105" x="1125.5" y="56.9238">&lt;&lt;persistence&gt;&gt;</text><text fill="#000000" font-family="sans-serif" font-size="14" lengthAdjust="spacing" textLength="122" x="1117" y="74.5332">PersistanceContext</text><rect fill="#FEFECE" filter="url(#f9iox3r36a7ve)" height="49.2188" style="stroke:#A80036;stroke-width:1.5;" width="119" x="1260" y="35.3906"/><text fill="#000000" font-family="sans-serif" font-size="14" lengthAdjust="spacing" textLength="105" x="1267" y="56.9238">&lt;&lt;persistence&gt;&gt;</text><text fill="#000000" font-family="sans-serif" font-size="14" lengthAdjust="spacing" textLength="76" x="1281.5" y="74.5332">AppSettings</text><rect fill="#FEFECE" filter="url(#f9iox3r36a7ve)" height="49.2188" style="stroke:#A80036;stroke-width:1.5;" width="130" x="1393" y="35.3906"/><text fill="#000000" font-family="sans-serif" font-size="14" lengthAdjust="spacing" textLength="75" x="1420.5" y="56.9238">&lt;&lt;factory&gt;&gt;</text><text fill="#000000" font-family="sans-serif" font-size="14" lengthAdjust="spacing" textLength="116" x="1400" y="74.5332">RepositoryFactory</text><rect fill="#FEFECE" filter="url(#f9iox3r36a7ve)" height="49.2188" style="stroke:#A80036;stroke-width:1.5;" width="92" x="1537" y="35.3906"/><text fill="#000000" font-family="sans-serif" font-size="14" lengthAdjust="spacing" textLength="78" x="1544" y="56.9238">&lt;&lt;domain&gt;&gt;</text><text fill="#000000" font-family="sans-serif" font-size="14" lengthAdjust="spacing" textLength="35" x="1565.5" y="74.5332">Titulo</text><rect fill="#FEFECE" filter="url(#f9iox3r36a7ve)" height="49.2188" style="stroke:#A80036;stroke-width:1.5;" width="114" x="1643" y="35.3906"/><text fill="#000000" font-family="sans-serif" font-size="14" lengthAdjust="spacing" textLength="78" x="1661" y="56.9238">&lt;&lt;domain&gt;&gt;</text><text fill="#000000" font-family="sans-serif" font-size="14" lengthAdjust="spacing" textLength="100" x="1650" y="74.5332">DescricaoBreve</text><rect fill="#FEFECE" filter="url(#f9iox3r36a7ve)" height="49.2188" style="stroke:#A80036;stroke-width:1.5;" width="137" x="1771" y="35.3906"/><text fill="#000000" font-family="sans-serif" font-size="14" lengthAdjust="spacing" textLength="78" x="1800.5" y="56.9238">&lt;&lt;domain&gt;&gt;</text><text fill="#000000" font-family="sans-serif" font-size="14" lengthAdjust="spacing" textLength="123" x="1778" y="74.5332">DescricaoCompleta</text><rect fill="#FEFECE" filter="url(#f9iox3r36a7ve)" height="49.2188" style="stroke:#A80036;stroke-width:1.5;" width="92" x="1922" y="35.3906"/><text fill="#000000" font-family="sans-serif" font-size="14" lengthAdjust="spacing" textLength="78" x="1929" y="56.9238">&lt;&lt;domain&gt;&gt;</text><text fill="#000000" font-family="sans-serif" font-size="14" lengthAdjust="spacing" textLength="54" x="1941" y="74.5332">Keyword</text><rect fill="#FEFECE" filter="url(#f9iox3r36a7ve)" height="49.2188" style="stroke:#A80036;stroke-width:1.5;" width="92" x="2028" y="35.3906"/><text fill="#000000" font-family="sans-serif" font-size="14" lengthAdjust="spacing" textLength="78" x="2035" y="56.9238">&lt;&lt;domain&gt;&gt;</text><text fill="#000000" font-family="sans-serif" font-size="14" lengthAdjust="spacing" textLength="63" x="2042.5" y="74.5332">Feedback</text><rect fill="#FFFFFF" filter="url(#f9iox3r36a7ve)" height="1043.5234" style="stroke:#A80036;stroke-width:1.0;" width="10" x="109" y="99.6094"/><rect fill="#FFFFFF" filter="url(#f9iox3r36a7ve)" height="142.2734" style="stroke:#A80036;stroke-width:1.0;" width="10" x="485" y="121.9609"/><rect fill="#FFFFFF" filter="url(#f9iox3r36a7ve)" height="55.7031" style="stroke:#A80036;stroke-width:1.0;" width="10" x="485" y="294.5859"/><rect fill="#FFFFFF" filter="url(#f9iox3r36a7ve)" height="294.5156" style="stroke:#A80036;stroke-width:1.0;" width="10" x="485" y="380.6406"/><rect fill="#FFFFFF" filter="url(#f9iox3r36a7ve)" height="30.3516" style="stroke:#A80036;stroke-width:1.0;" width="10" x="485" y="705.5078"/><rect fill="#FFFFFF" filter="url(#f9iox3r36a7ve)" height="94.4063" style="stroke:#A80036;stroke-width:1.0;" width="10" x="485" y="766.2109"/><rect fill="#FFFFFF" filter="url(#f9iox3r36a7ve)" height="53.7031" style="stroke:#A80036;stroke-width:1.0;" width="10" x="485" y="890.9688"/><rect fill="#FFFFFF" filter="url(#f9iox3r36a7ve)" height="168.1094" style="stroke:#A80036;stroke-width:1.0;" width="10" x="485" y="975.0234"/><rect fill="#FFFFFF" filter="url(#f9iox3r36a7ve)" height="101.9219" style="stroke:#A80036;stroke-width:1.0;" width="10" x="708" y="162.3125"/><rect fill="#FFFFFF" filter="url(#f9iox3r36a7ve)" height="91.0547" style="stroke:#A80036;stroke-width:1.0;" width="10" x="708" y="410.9922"/><rect fill="#FFFFFF" filter="url(#f9iox3r36a7ve)" height="30.3516" style="stroke:#A80036;stroke-width:1.0;" width="10" x="708" y="548.2344"/><rect fill="#FFFFFF" filter="url(#f9iox3r36a7ve)" height="91.0547" style="stroke:#A80036;stroke-width:1.0;" width="10" x="708" y="1005.375"/><rect fill="#FFFFFF" filter="url(#f9iox3r36a7ve)" height="30.3516" style="stroke:#A80036;stroke-width:1.0;" width="10" x="913" y="441.3438"/><rect fill="#FFFFFF" filter="url(#f9iox3r36a7ve)" height="30.3516" style="stroke:#A80036;stroke-width:1.0;" width="10" x="913" y="1035.7266"/><polygon fill="#A80036" points="473,117.9609,483,121.9609,473,125.9609,477,121.9609" style="stroke:#A80036;stroke-width:1.0;"/><line style="stroke:#A80036;stroke-width:1.0;" x1="119" x2="479" y1="121.9609" y2="121.9609"/><text fill="#000000" font-family="sans-serif" font-size="13" font-weight="bold" lengthAdjust="spacing" textLength="7" x="126" y="117.1045">1</text><text fill="#000000" font-family="sans-serif" font-size="13" lengthAdjust="spacing" textLength="336" x="137" y="117.1045">iniciates the request to add/update a field in a service draft</text><polygon fill="#A80036" points="582,148.3125,592,152.3125,582,156.3125,586,152.3125" style="stroke:#A80036;stroke-width:1.0;"/><line style="stroke:#A80036;stroke-width:1.0;" x1="495" x2="588" y1="152.3125" y2="152.3125"/><text fill="#000000" font-family="sans-serif" font-size="13" font-weight="bold" lengthAdjust="spacing" textLength="7" x="502" y="147.4561">2</text><text fill="#000000" font-family="sans-serif" font-size="13" lengthAdjust="spacing" textLength="36" x="513" y="147.4561">create</text><rect fill="#FEFECE" filter="url(#f9iox3r36a7ve)" height="49.2188" style="stroke:#A80036;stroke-width:1.5;" width="234" x="594" y="129.9609"/><text fill="#000000" font-family="sans-serif" font-size="14" lengthAdjust="spacing" textLength="100" x="661" y="151.4941">&lt;&lt;application&gt;&gt;</text><text fill="#000000" font-family="sans-serif" font-size="14" lengthAdjust="spacing" textLength="220" x="601" y="169.1035">ServiceDraftSpecificationController</text><rect fill="#FFFFFF" filter="url(#f9iox3r36a7ve)" height="42.7031" style="stroke:#000000;stroke-width:2.0;" width="240" x="591" y="194.1797"/><polygon fill="#EEEEEE" points="591,194.1797,653,194.1797,653,202.1797,643,212.1797,591,212.1797,591,194.1797" style="stroke:#000000;stroke-width:2.0;"/><text fill="#000000" font-family="sans-serif" font-size="13" font-weight="bold" lengthAdjust="spacing" textLength="17" x="604" y="209.6748">ref</text><text fill="#000000" font-family="sans-serif" font-size="13" lengthAdjust="spacing" textLength="123" x="651.5" y="229.6748">US-1-2002_SD_Repo</text><polygon fill="#A80036" points="130,260.2344,120,264.2344,130,268.2344,126,264.2344" style="stroke:#A80036;stroke-width:1.0;"/><line style="stroke:#A80036;stroke-width:1.0;" x1="124" x2="489" y1="264.2344" y2="264.2344"/><text fill="#000000" font-family="sans-serif" font-size="13" font-weight="bold" lengthAdjust="spacing" textLength="7" x="136" y="259.3779">3</text><text fill="#000000" font-family="sans-serif" font-size="13" lengthAdjust="spacing" textLength="279" x="147" y="259.3779">asks if the user pretends to use an existing draft</text><polygon fill="#A80036" points="473,290.5859,483,294.5859,473,298.5859,477,294.5859" style="stroke:#A80036;stroke-width:1.0;"/><line style="stroke:#A80036;stroke-width:1.0;" x1="119" x2="479" y1="294.5859" y2="294.5859"/><text fill="#000000" font-family="sans-serif" font-size="13" font-weight="bold" lengthAdjust="spacing" textLength="7" x="126" y="289.7295">4</text><text fill="#000000" font-family="sans-serif" font-size="13" lengthAdjust="spacing" textLength="53" x="137" y="289.7295">responds</text><path d="M10,309.5859 L71,309.5859 L71,317.5859 L61,327.5859 L10,327.5859 L10,309.5859 " fill="#EEEEEE" style="stroke:#000000;stroke-width:1.0;"/><rect fill="none" height="310.8672" style="stroke:#000000;stroke-width:2.0;" width="1100" x="10" y="309.5859"/><text fill="#000000" font-family="sans-serif" font-size="13" font-weight="bold" lengthAdjust="spacing" textLength="16" x="25" y="324.0811">alt</text><text fill="#000000" font-family="sans-serif" font-size="11" font-weight="bold" lengthAdjust="spacing" textLength="249" x="86" y="323.0049">[if the user pretends to use an existing draft]</text><polygon fill="#A80036" points="130,346.2891,120,350.2891,130,354.2891,126,350.2891" style="stroke:#A80036;stroke-width:1.0;"/><line style="stroke:#A80036;stroke-width:1.0;" x1="124" x2="489" y1="350.2891" y2="350.2891"/><text fill="#000000" font-family="sans-serif" font-size="13" font-weight="bold" lengthAdjust="spacing" textLength="7" x="136" y="345.4326">5</text><text fill="#000000" font-family="sans-serif" font-size="13" lengthAdjust="spacing" textLength="124" x="147" y="345.4326">requests the draft's id</text><polygon fill="#A80036" points="473,376.6406,483,380.6406,473,384.6406,477,380.6406" style="stroke:#A80036;stroke-width:1.0;"/><line style="stroke:#A80036;stroke-width:1.0;" x1="119" x2="479" y1="380.6406" y2="380.6406"/><text fill="#000000" font-family="sans-serif" font-size="13" font-weight="bold" lengthAdjust="spacing" textLength="7" x="126" y="375.7842">6</text><text fill="#000000" font-family="sans-serif" font-size="13" lengthAdjust="spacing" textLength="81" x="137" y="375.7842">inserts said id</text><polygon fill="#A80036" points="696,406.9922,706,410.9922,696,414.9922,700,410.9922" style="stroke:#A80036;stroke-width:1.0;"/><line style="stroke:#A80036;stroke-width:1.0;" x1="495" x2="702" y1="410.9922" y2="410.9922"/><text fill="#000000" font-family="sans-serif" font-size="13" font-weight="bold" lengthAdjust="spacing" textLength="7" x="502" y="406.1357">7</text><text fill="#000000" font-family="sans-serif" font-size="13" lengthAdjust="spacing" textLength="131" x="513" y="406.1357">getServiceDraftById(id)</text><polygon fill="#A80036" points="901,437.3438,911,441.3438,901,445.3438,905,441.3438" style="stroke:#A80036;stroke-width:1.0;"/><line style="stroke:#A80036;stroke-width:1.0;" x1="718" x2="907" y1="441.3438" y2="441.3438"/><text fill="#000000" font-family="sans-serif" font-size="13" font-weight="bold" lengthAdjust="spacing" textLength="7" x="725" y="436.4873">8</text><text fill="#000000" font-family="sans-serif" font-size="13" lengthAdjust="spacing" textLength="131" x="736" y="436.4873">getServiceDraftById(id)</text><polygon fill="#A80036" points="729,467.6953,719,471.6953,729,475.6953,725,471.6953" style="stroke:#A80036;stroke-width:1.0;"/><line style="stroke:#A80036;stroke-width:1.0;stroke-dasharray:2.0,2.0;" x1="723" x2="917" y1="471.6953" y2="471.6953"/><text fill="#000000" font-family="sans-serif" font-size="13" font-weight="bold" lengthAdjust="spacing" textLength="7" x="735" y="466.8389">9</text><text fill="#000000" font-family="sans-serif" font-size="13" lengthAdjust="spacing" textLength="67" x="746" y="466.8389">serviceDraft</text><polygon fill="#A80036" points="506,498.0469,496,502.0469,506,506.0469,502,502.0469" style="stroke:#A80036;stroke-width:1.0;"/><line style="stroke:#A80036;stroke-width:1.0;stroke-dasharray:2.0,2.0;" x1="500" x2="712" y1="502.0469" y2="502.0469"/><text fill="#000000" font-family="sans-serif" font-size="13" font-weight="bold" lengthAdjust="spacing" textLength="14" x="512" y="497.1904">10</text><text fill="#000000" font-family="sans-serif" font-size="13" lengthAdjust="spacing" textLength="67" x="530" y="497.1904">serviceDraft</text><line style="stroke:#000000;stroke-width:1.0;stroke-dasharray:2.0,2.0;" x1="10" x2="1110" y1="511.0469" y2="511.0469"/><text fill="#000000" font-family="sans-serif" font-size="11" font-weight="bold" lengthAdjust="spacing" textLength="260" x="15" y="522.4658">[if the user pretends to use create a new draft]</text><polygon fill="#A80036" points="696,544.2344,706,548.2344,696,552.2344,700,548.2344" style="stroke:#A80036;stroke-width:1.0;"/><line style="stroke:#A80036;stroke-width:1.0;" x1="495" x2="702" y1="548.2344" y2="548.2344"/><text fill="#000000" font-family="sans-serif" font-size="13" font-weight="bold" lengthAdjust="spacing" textLength="14" x="502" y="543.3779">11</text><text fill="#000000" font-family="sans-serif" font-size="13" lengthAdjust="spacing" textLength="58" x="520" y="543.3779">newDraft()</text><polygon fill="#A80036" points="992,574.5859,1002,578.5859,992,582.5859,996,578.5859" style="stroke:#A80036;stroke-width:1.0;"/><line style="stroke:#A80036;stroke-width:1.0;stroke-dasharray:2.0,2.0;" x1="713" x2="998" y1="578.5859" y2="578.5859"/><text fill="#000000" font-family="sans-serif" font-size="13" font-weight="bold" lengthAdjust="spacing" textLength="14" x="720" y="573.7295">12</text><text fill="#000000" font-family="sans-serif" font-size="13" lengthAdjust="spacing" textLength="36" x="738" y="573.7295">create</text><rect fill="#FEFECE" filter="url(#f9iox3r36a7ve)" height="49.2188" style="stroke:#A80036;stroke-width:1.5;" width="92" x="1004" y="556.2344"/><text fill="#000000" font-family="sans-serif" font-size="14" lengthAdjust="spacing" textLength="78" x="1011" y="577.7676">&lt;&lt;domain&gt;&gt;</text><text fill="#000000" font-family="sans-serif" font-size="14" lengthAdjust="spacing" textLength="78" x="1011" y="595.377">ServiceDraft</text><path d="M10,634.4531 L83,634.4531 L83,642.4531 L73,652.4531 L10,652.4531 L10,634.4531 " fill="#EEEEEE" style="stroke:#000000;stroke-width:1.0;"/><rect fill="none" height="264.5156" style="stroke:#000000;stroke-width:2.0;" width="584" x="10" y="634.4531"/><text fill="#000000" font-family="sans-serif" font-size="13" font-weight="bold" lengthAdjust="spacing" textLength="28" x="25" y="648.9482">loop</text><text fill="#000000" font-family="sans-serif" font-size="11" font-weight="bold" lengthAdjust="spacing" textLength="261" x="98" y="647.8721">[until the user doesn't want to add more fields]</text><polygon fill="#A80036" points="130,671.1563,120,675.1563,130,679.1563,126,675.1563" style="stroke:#A80036;stroke-width:1.0;"/><line style="stroke:#A80036;stroke-width:1.0;" x1="124" x2="489" y1="675.1563" y2="675.1563"/><text fill="#000000" font-family="sans-serif" font-size="13" font-weight="bold" lengthAdjust="spacing" textLength="14" x="136" y="670.2998">13</text><text fill="#000000" font-family="sans-serif" font-size="13" lengthAdjust="spacing" textLength="305" x="154" y="670.2998">asks which field does the user pretend to add/update</text><polygon fill="#A80036" points="473,701.5078,483,705.5078,473,709.5078,477,705.5078" style="stroke:#A80036;stroke-width:1.0;"/><line style="stroke:#A80036;stroke-width:1.0;" x1="119" x2="479" y1="705.5078" y2="705.5078"/><text fill="#000000" font-family="sans-serif" font-size="13" font-weight="bold" lengthAdjust="spacing" textLength="14" x="126" y="700.6514">14</text><text fill="#000000" font-family="sans-serif" font-size="13" lengthAdjust="spacing" textLength="98" x="144" y="700.6514">chooses the field</text><polygon fill="#A80036" points="130,731.8594,120,735.8594,130,739.8594,126,735.8594" style="stroke:#A80036;stroke-width:1.0;"/><line style="stroke:#A80036;stroke-width:1.0;" x1="124" x2="489" y1="735.8594" y2="735.8594"/><text fill="#000000" font-family="sans-serif" font-size="13" font-weight="bold" lengthAdjust="spacing" textLength="14" x="136" y="731.0029">15</text><text fill="#000000" font-family="sans-serif" font-size="13" lengthAdjust="spacing" textLength="201" x="154" y="731.0029">requests the user to insert the field</text><polygon fill="#A80036" points="473,762.2109,483,766.2109,473,770.2109,477,766.2109" style="stroke:#A80036;stroke-width:1.0;"/><line style="stroke:#A80036;stroke-width:1.0;" x1="119" x2="479" y1="766.2109" y2="766.2109"/><text fill="#000000" font-family="sans-serif" font-size="13" font-weight="bold" lengthAdjust="spacing" textLength="14" x="126" y="761.3545">16</text><text fill="#000000" font-family="sans-serif" font-size="13" lengthAdjust="spacing" textLength="88" x="144" y="761.3545">inserts the field</text><rect fill="#FFFFFF" filter="url(#f9iox3r36a7ve)" height="42.7031" style="stroke:#000000;stroke-width:2.0;" width="190" x="393" y="774.2109"/><polygon fill="#EEEEEE" points="393,774.2109,455,774.2109,455,782.2109,445,792.2109,393,792.2109,393,774.2109" style="stroke:#000000;stroke-width:2.0;"/><text fill="#000000" font-family="sans-serif" font-size="13" font-weight="bold" lengthAdjust="spacing" textLength="17" x="406" y="789.7061">ref</text><text fill="#000000" font-family="sans-serif" font-size="13" lengthAdjust="spacing" textLength="144" x="418" y="809.7061">US-1-2002_SD_AddField</text><polygon fill="#A80036" points="130,856.6172,120,860.6172,130,864.6172,126,860.6172" style="stroke:#A80036;stroke-width:1.0;"/><line style="stroke:#A80036;stroke-width:1.0;" x1="124" x2="489" y1="860.6172" y2="860.6172"/><text fill="#000000" font-family="sans-serif" font-size="13" font-weight="bold" lengthAdjust="spacing" textLength="14" x="136" y="847.585">17</text><text fill="#000000" font-family="sans-serif" font-size="13" lengthAdjust="spacing" textLength="172" x="154" y="839.4092">saves the field in the draft and</text><text fill="#000000" font-family="sans-serif" font-size="13" lengthAdjust="spacing" textLength="192" x="158" y="855.7607">asks if there is more fields to add</text><polygon fill="#A80036" points="473,886.9688,483,890.9688,473,894.9688,477,890.9688" style="stroke:#A80036;stroke-width:1.0;"/><line style="stroke:#A80036;stroke-width:1.0;" x1="119" x2="479" y1="890.9688" y2="890.9688"/><text fill="#000000" font-family="sans-serif" font-size="13" font-weight="bold" lengthAdjust="spacing" textLength="14" x="126" y="886.1123">18</text><text fill="#000000" font-family="sans-serif" font-size="13" lengthAdjust="spacing" textLength="53" x="144" y="886.1123">responds</text><polygon fill="#A80036" points="130,940.6719,120,944.6719,130,948.6719,126,944.6719" style="stroke:#A80036;stroke-width:1.0;"/><line style="stroke:#A80036;stroke-width:1.0;" x1="124" x2="489" y1="944.6719" y2="944.6719"/><text fill="#000000" font-family="sans-serif" font-size="13" font-weight="bold" lengthAdjust="spacing" textLength="14" x="136" y="931.6396">19</text><text fill="#000000" font-family="sans-serif" font-size="13" lengthAdjust="spacing" textLength="174" x="154" y="923.4639">validates, presents the current</text><text fill="#000000" font-family="sans-serif" font-size="13" lengthAdjust="spacing" textLength="277" x="154" y="939.8154">information in the draft and asks for confirmation</text><polygon fill="#A80036" points="473,971.0234,483,975.0234,473,979.0234,477,975.0234" style="stroke:#A80036;stroke-width:1.0;"/><line style="stroke:#A80036;stroke-width:1.0;" x1="119" x2="479" y1="975.0234" y2="975.0234"/><text fill="#000000" font-family="sans-serif" font-size="13" font-weight="bold" lengthAdjust="spacing" textLength="14" x="126" y="970.167">20</text><text fill="#000000" font-family="sans-serif" font-size="13" lengthAdjust="spacing" textLength="49" x="144" y="970.167">confirms</text><polygon fill="#A80036" points="696,1001.375,706,1005.375,696,1009.375,700,1005.375" style="stroke:#A80036;stroke-width:1.0;"/><line style="stroke:#A80036;stroke-width:1.0;" x1="495" x2="702" y1="1005.375" y2="1005.375"/><text fill="#000000" font-family="sans-serif" font-size="13" font-weight="bold" lengthAdjust="spacing" textLength="14" x="502" y="1000.5186">21</text><text fill="#000000" font-family="sans-serif" font-size="13" lengthAdjust="spacing" textLength="170" x="520" y="1000.5186">saveServiceDraft(serviceDraft)</text><polygon fill="#A80036" points="901,1031.7266,911,1035.7266,901,1039.7266,905,1035.7266" style="stroke:#A80036;stroke-width:1.0;"/><line style="stroke:#A80036;stroke-width:1.0;" x1="718" x2="907" y1="1035.7266" y2="1035.7266"/><text fill="#000000" font-family="sans-serif" font-size="13" font-weight="bold" lengthAdjust="spacing" textLength="14" x="725" y="1030.8701">22</text><text fill="#000000" font-family="sans-serif" font-size="13" lengthAdjust="spacing" textLength="101" x="743" y="1030.8701">save(serviceDraft)</text><polygon fill="#A80036" points="729,1062.0781,719,1066.0781,729,1070.0781,725,1066.0781" style="stroke:#A80036;stroke-width:1.0;"/><line style="stroke:#A80036;stroke-width:1.0;stroke-dasharray:2.0,2.0;" x1="723" x2="917" y1="1066.0781" y2="1066.0781"/><text fill="#000000" font-family="sans-serif" font-size="13" font-weight="bold" lengthAdjust="spacing" textLength="14" x="735" y="1061.2217">23</text><text fill="#000000" font-family="sans-serif" font-size="13" lengthAdjust="spacing" textLength="67" x="753" y="1061.2217">serviceDraft</text><polygon fill="#A80036" points="506,1092.4297,496,1096.4297,506,1100.4297,502,1096.4297" style="stroke:#A80036;stroke-width:1.0;"/><line style="stroke:#A80036;stroke-width:1.0;stroke-dasharray:2.0,2.0;" x1="500" x2="712" y1="1096.4297" y2="1096.4297"/><text fill="#000000" font-family="sans-serif" font-size="13" font-weight="bold" lengthAdjust="spacing" textLength="14" x="512" y="1091.5732">24</text><text fill="#000000" font-family="sans-serif" font-size="13" lengthAdjust="spacing" textLength="67" x="530" y="1091.5732">serviceDraft</text><polygon fill="#A80036" points="125,1139.1328,115,1143.1328,125,1147.1328,121,1143.1328" style="stroke:#A80036;stroke-width:1.0;"/><line style="stroke:#A80036;stroke-width:1.0;" x1="119" x2="489" y1="1143.1328" y2="1143.1328"/><text fill="#000000" font-family="sans-serif" font-size="13" font-weight="bold" lengthAdjust="spacing" textLength="14" x="131" y="1130.1006">25</text><text fill="#000000" font-family="sans-serif" font-size="13" lengthAdjust="spacing" textLength="208" x="149" y="1121.9248">registers the draft in the persistence</text><text fill="#000000" font-family="sans-serif" font-size="13" lengthAdjust="spacing" textLength="249" x="153" y="1138.2764">and informs of the success of the operation</text><!--MD5=[200bd79c5c252a9cfe8a86e2bed7d181]
@startuml
autonumber
hide footbox

actor "Help Desk Services Manager" as HSM

participant "<<presentation>>\nServiceDraftSpecificationUI" as UI
participant "<<application>>\nServiceDraftSpecificationController" as CTRL
database "<<repository>>\nServiceDraftRepository" as SR
participant "<<domain>>\nServiceDraft" as S
participant "<<persistence>>\nPersistanceContext" as PC
participant "<<persistence>>\nAppSettings" as AS
participant "<<factory>>\nRepositoryFactory" as RF
participant "<<domain>>\nTitulo" as T
participant "<<domain>>\nDescricaoBreve" as DB
participant "<<domain>>\nDescricaoCompleta" as DC
participant "<<domain>>\nKeyword" as KW
participant "<<domain>>\nFeedback" as FB

activate HSM

HSM -> UI : iniciates the request to add/update a field in a service draft
activate UI

UI -> CTRL** : create
activate CTRL

ref over CTRL
  US-1-2002_SD_Repo
end ref

UI -> HSM : asks if the user pretends to use an existing draft
deactivate CTRL
deactivate UI

HSM -> UI : responds
activate UI

alt if the user pretends to use an existing draft
UI -> HSM : requests the draft's id
deactivate UI

HSM -> UI : inserts said id
activate UI

UI -> CTRL : getServiceDraftById(id)
activate CTRL

CTRL -> SR : getServiceDraftById(id)
activate SR
SR - -> CTRL : serviceDraft
deactivate SR

CTRL - -> UI : serviceDraft
deactivate CTRL

else if the user pretends to use create a new draft

UI -> CTRL : newDraft()
activate CTRL

CTRL - -> S** : create
deactivate CTRL
end

loop until the user doesn't want to add more fields
UI -> HSM : asks which field does the user pretend to add/update
deactivate UI

HSM -> UI : chooses the field
activate UI

UI -> HSM : requests the user to insert the field
deactivate UI

HSM -> UI : inserts the field
activate UI

ref over UI
    US-1-2002_SD_AddField
end ref

UI -> HSM : saves the field in the draft and\n asks if there is more fields to add
deactivate UI

HSM -> UI : responds
activate UI
end

UI -> HSM : validates, presents the current \ninformation in the draft and asks for confirmation
deactivate UI

HSM -> UI : confirms
activate UI

UI -> CTRL : saveServiceDraft(serviceDraft)
activate CTRL

CTRL -> SR : save(serviceDraft)
activate SR
SR - -> CTRL : serviceDraft
deactivate SR


CTRL - -> UI : serviceDraft
deactivate CTRL

UI -> HSM : registers the draft in the persistence\n and informs of the success of the operation
deactivate UI
deactivate HSM

@enduml

PlantUML version 1.2021.5(Sun Apr 25 12:20:28 BST 2021)
(GPL source distribution)
Java Runtime: OpenJDK Runtime Environment
JVM: Dynamic Code Evolution 64-Bit Server VM
Default Encoding: Cp1252
Language: pt
Country: PT
--></g></svg>