<?xml version="1.0" encoding="UTF-8" standalone="no"?><svg xmlns="http://www.w3.org/2000/svg" xmlns:xlink="http://www.w3.org/1999/xlink" contentScriptType="application/ecmascript" contentStyleType="text/css" height="868px" preserveAspectRatio="none" style="width:1228px;height:868px;" version="1.1" viewBox="0 0 1228 868" width="1228px" zoomAndPan="magnify"><defs><filter height="300%" id="flh62306mresj" width="300%" x="-1" y="-1"><feGaussianBlur result="blurOut" stdDeviation="2.0"/><feColorMatrix in="blurOut" result="blurOut2" type="matrix" values="0 0 0 0 0 0 0 0 0 0 0 0 0 0 0 0 0 0 .4 0"/><feOffset dx="4.0" dy="4.0" in="blurOut2" result="blurOut3"/><feBlend in="SourceGraphic" in2="blurOut3" mode="normal"/></filter></defs><g><!--MD5=[8fd473fd151a2794da4f2c8684676405]
cluster Presentation--><polygon fill="#DDDDDD" filter="url(#flh62306mresj)" points="32,6,128,6,135,29.6094,272,29.6094,272,126,32,126,32,6" style="stroke:#000000;stroke-width:1.5;"/><line style="stroke:#000000;stroke-width:1.5;" x1="32" x2="135" y1="29.6094" y2="29.6094"/><text fill="#000000" font-family="sans-serif" font-size="14" font-weight="bold" lengthAdjust="spacing" textLength="90" x="36" y="22.5332">Presentation</text><!--MD5=[d64883541e3d62e3241c4d12decf100d]
cluster Application--><polygon fill="#DDDDDD" filter="url(#flh62306mresj)" points="16,159,100,159,107,182.6094,288,182.6094,288,404,16,404,16,159" style="stroke:#000000;stroke-width:1.5;"/><line style="stroke:#000000;stroke-width:1.5;" x1="16" x2="107" y1="182.6094" y2="182.6094"/><text fill="#000000" font-family="sans-serif" font-size="14" font-weight="bold" lengthAdjust="spacing" textLength="78" x="20" y="175.5332">Application</text><!--MD5=[121a8bf1197281ab89ed693fab589f94]
cluster Domain--><polygon fill="#DDDDDD" filter="url(#flh62306mresj)" points="943,454,1001,454,1008,477.6094,1211,477.6094,1211,726,943,726,943,454" style="stroke:#000000;stroke-width:1.5;"/><line style="stroke:#000000;stroke-width:1.5;" x1="943" x2="1008" y1="477.6094" y2="477.6094"/><text fill="#000000" font-family="sans-serif" font-size="14" font-weight="bold" lengthAdjust="spacing" textLength="52" x="947" y="470.5332">Domain</text><!--MD5=[bc6b40dadbf86ab6a0c8405a467a48af]
cluster Persistence--><polygon fill="#DDDDDD" filter="url(#flh62306mresj)" points="66,458.5,156,458.5,163,482.1094,919,482.1094,919,861,66,861,66,458.5" style="stroke:#000000;stroke-width:1.5;"/><line style="stroke:#000000;stroke-width:1.5;" x1="66" x2="163" y1="482.1094" y2="482.1094"/><text fill="#000000" font-family="sans-serif" font-size="14" font-weight="bold" lengthAdjust="spacing" textLength="84" x="70" y="475.0332">Persistence</text><!--MD5=[0d5799440b3bfefd92b00abfcd2c79b9]
cluster Factory--><polygon fill="#DDDDDD" filter="url(#flh62306mresj)" points="733,502.5,791,502.5,798,526.1094,895,526.1094,895,677.5,733,677.5,733,502.5" style="stroke:#000000;stroke-width:1.5;"/><line style="stroke:#000000;stroke-width:1.5;" x1="733" x2="798" y1="526.1094" y2="526.1094"/><text fill="#000000" font-family="sans-serif" font-size="14" font-weight="bold" lengthAdjust="spacing" textLength="52" x="737" y="519.0332">Factory</text><!--MD5=[71971f99a41bb66cf321ce46bb59f738]
cluster Repository--><polygon fill="#DDDDDD" filter="url(#flh62306mresj)" points="471,516,553,516,560,539.6094,709,539.6094,709,837,471,837,471,516" style="stroke:#000000;stroke-width:1.5;"/><line style="stroke:#000000;stroke-width:1.5;" x1="471" x2="560" y1="539.6094" y2="539.6094"/><text fill="#000000" font-family="sans-serif" font-size="14" font-weight="bold" lengthAdjust="spacing" textLength="76" x="475" y="532.5332">Repository</text><!--MD5=[f2a871a6b1874b838d7f8c38e9288d2d]
class ServiceDraftFieldSpecificationUI--><rect codeLine="4" fill="#FEFECE" filter="url(#flh62306mresj)" height="48" id="ServiceDraftFieldSpecificationUI" style="stroke:#A80036;stroke-width:1.5;" width="207" x="48.5" y="62"/><ellipse cx="63.5" cy="78" fill="#ADD1B2" rx="11" ry="11" style="stroke:#A80036;stroke-width:1.0;"/><path d="M65.5,74.5 Q65.7031,74 65.9375,73.75 Q66.1719,73.5 66.4375,73.5 Q66.9063,73.5 67.2031,73.7813 Q67.5,74.0625 67.5,74.7188 L67.5,76.2813 Q67.5,76.9375 67.2188,77.2188 Q66.9375,77.5 66.5,77.5 Q66.1094,77.5 65.8594,77.3281 Q65.6094,77.1563 65.5,76.7031 Q65.4531,76.3906 65.2813,76.2188 Q64.9688,75.8906 64.4063,75.7031 Q63.8438,75.5 63.2813,75.5 Q62.5781,75.5 61.9844,75.7813 Q61.4063,76.0625 60.9531,76.6875 Q60.5,77.3125 60.5,78.1719 L60.5,79.0938 Q60.5,80.125 61.3438,80.8125 Q62.1875,81.5 63.6875,81.5 Q64.5781,81.5 65.2031,81.2969 Q65.5625,81.1875 65.9688,80.8281 Q66.2344,80.625 66.375,80.5625 Q66.5156,80.5 66.6875,80.5 Q67.0156,80.5 67.25,80.7656 Q67.5,81.0156 67.5,81.375 Q67.5,81.7188 67.1563,82.125 Q66.6563,82.7188 65.8594,83.0469 Q64.8125,83.5 63.5313,83.5 Q62.0313,83.5 60.8281,82.9063 Q59.8594,82.4375 59.1719,81.4219 Q58.5,80.4063 58.5,79.2031 L58.5,78.1094 Q58.5,76.8594 59.0938,75.7656 Q59.7031,74.6719 60.75,74.0938 Q61.8125,73.5 63,73.5 Q63.7188,73.5 64.3438,73.75 Q64.9688,74 65.5,74.5 Z " fill="#000000"/><text fill="#000000" font-family="sans-serif" font-size="12" lengthAdjust="spacing" textLength="175" x="77.5" y="82.9102">ServiceDraftFieldSpecificationUI</text><line style="stroke:#A80036;stroke-width:1.5;" x1="49.5" x2="254.5" y1="94" y2="94"/><line style="stroke:#A80036;stroke-width:1.5;" x1="49.5" x2="254.5" y1="102" y2="102"/><!--MD5=[78ca3c1b028cc8a220cf10e5ffc69797]
class ServiceDraftSpecificationController--><rect codeLine="11" fill="#FEFECE" filter="url(#flh62306mresj)" height="172.5234" id="ServiceDraftSpecificationController" style="stroke:#A80036;stroke-width:1.5;" width="239" x="32.5" y="215"/><ellipse cx="55.15" cy="231" fill="#ADD1B2" rx="11" ry="11" style="stroke:#A80036;stroke-width:1.0;"/><path d="M57.15,227.5 Q57.3531,227 57.5875,226.75 Q57.8219,226.5 58.0875,226.5 Q58.5563,226.5 58.8531,226.7813 Q59.15,227.0625 59.15,227.7188 L59.15,229.2813 Q59.15,229.9375 58.8688,230.2188 Q58.5875,230.5 58.15,230.5 Q57.7594,230.5 57.5094,230.3281 Q57.2594,230.1563 57.15,229.7031 Q57.1031,229.3906 56.9313,229.2188 Q56.6188,228.8906 56.0563,228.7031 Q55.4938,228.5 54.9313,228.5 Q54.2281,228.5 53.6344,228.7813 Q53.0563,229.0625 52.6031,229.6875 Q52.15,230.3125 52.15,231.1719 L52.15,232.0938 Q52.15,233.125 52.9938,233.8125 Q53.8375,234.5 55.3375,234.5 Q56.2281,234.5 56.8531,234.2969 Q57.2125,234.1875 57.6188,233.8281 Q57.8844,233.625 58.025,233.5625 Q58.1656,233.5 58.3375,233.5 Q58.6656,233.5 58.9,233.7656 Q59.15,234.0156 59.15,234.375 Q59.15,234.7188 58.8063,235.125 Q58.3063,235.7188 57.5094,236.0469 Q56.4625,236.5 55.1813,236.5 Q53.6813,236.5 52.4781,235.9063 Q51.5094,235.4375 50.8219,234.4219 Q50.15,233.4063 50.15,232.2031 L50.15,231.1094 Q50.15,229.8594 50.7438,228.7656 Q51.3531,227.6719 52.4,227.0938 Q53.4625,226.5 54.65,226.5 Q55.3688,226.5 55.9938,226.75 Q56.6188,227 57.15,227.5 Z " fill="#000000"/><text fill="#000000" font-family="sans-serif" font-size="12" lengthAdjust="spacing" textLength="190" x="70.85" y="235.9102">ServiceDraftSpecificationController</text><line style="stroke:#A80036;stroke-width:1.5;" x1="33.5" x2="270.5" y1="247" y2="247"/><line style="stroke:#A80036;stroke-width:1.5;" x1="33.5" x2="270.5" y1="255" y2="255"/><text fill="#000000" font-family="sans-serif" font-size="11" lengthAdjust="spacing" textLength="45" x="38.5" y="270.4189">+create()</text><text fill="#000000" font-family="sans-serif" font-size="11" lengthAdjust="spacing" textLength="119" x="38.5" y="284.2549">+getServiceDraftById(id)</text><text fill="#000000" font-family="sans-serif" font-size="11" lengthAdjust="spacing" textLength="60" x="38.5" y="298.0908">+newDraft()</text><text fill="#000000" font-family="sans-serif" font-size="11" lengthAdjust="spacing" textLength="51" x="38.5" y="311.9268">+addTitle()</text><text fill="#000000" font-family="sans-serif" font-size="11" lengthAdjust="spacing" textLength="185" x="38.5" y="325.7627">+addBriefDescription(briefDescription)</text><text fill="#000000" font-family="sans-serif" font-size="11" lengthAdjust="spacing" textLength="227" x="38.5" y="339.5986">+addCompleteDescription(completeDescription)</text><text fill="#000000" font-family="sans-serif" font-size="11" lengthAdjust="spacing" textLength="154" x="38.5" y="353.4346">+addKeywordList(keywordList)</text><text fill="#000000" font-family="sans-serif" font-size="11" lengthAdjust="spacing" textLength="124" x="38.5" y="367.2705">+addFeedback(feedback)</text><text fill="#000000" font-family="sans-serif" font-size="11" lengthAdjust="spacing" textLength="159" x="38.5" y="381.1064">+saveServiceDraft(serviceDraft)</text><!--MD5=[925d5031f5a4e53e61ccd699b6d8c35b]
class ServiceDraft--><rect codeLine="26" fill="#FEFECE" filter="url(#flh62306mresj)" height="200.1953" id="ServiceDraft" style="stroke:#A80036;stroke-width:1.5;" width="236" x="959" y="510"/><ellipse cx="1039.75" cy="526" fill="#ADD1B2" rx="11" ry="11" style="stroke:#A80036;stroke-width:1.0;"/><path d="M1041.75,522.5 Q1041.9531,522 1042.1875,521.75 Q1042.4219,521.5 1042.6875,521.5 Q1043.1563,521.5 1043.4531,521.7813 Q1043.75,522.0625 1043.75,522.7188 L1043.75,524.2813 Q1043.75,524.9375 1043.4688,525.2188 Q1043.1875,525.5 1042.75,525.5 Q1042.3594,525.5 1042.1094,525.3281 Q1041.8594,525.1563 1041.75,524.7031 Q1041.7031,524.3906 1041.5313,524.2188 Q1041.2188,523.8906 1040.6563,523.7031 Q1040.0938,523.5 1039.5313,523.5 Q1038.8281,523.5 1038.2344,523.7813 Q1037.6563,524.0625 1037.2031,524.6875 Q1036.75,525.3125 1036.75,526.1719 L1036.75,527.0938 Q1036.75,528.125 1037.5938,528.8125 Q1038.4375,529.5 1039.9375,529.5 Q1040.8281,529.5 1041.4531,529.2969 Q1041.8125,529.1875 1042.2188,528.8281 Q1042.4844,528.625 1042.625,528.5625 Q1042.7656,528.5 1042.9375,528.5 Q1043.2656,528.5 1043.5,528.7656 Q1043.75,529.0156 1043.75,529.375 Q1043.75,529.7188 1043.4063,530.125 Q1042.9063,530.7188 1042.1094,531.0469 Q1041.0625,531.5 1039.7813,531.5 Q1038.2813,531.5 1037.0781,530.9063 Q1036.1094,530.4375 1035.4219,529.4219 Q1034.75,528.4063 1034.75,527.2031 L1034.75,526.1094 Q1034.75,524.8594 1035.3438,523.7656 Q1035.9531,522.6719 1037,522.0938 Q1038.0625,521.5 1039.25,521.5 Q1039.9688,521.5 1040.5938,521.75 Q1041.2188,522 1041.75,522.5 Z " fill="#000000"/><text fill="#000000" font-family="sans-serif" font-size="12" lengthAdjust="spacing" textLength="66" x="1060.25" y="530.9102">ServiceDraft</text><line style="stroke:#A80036;stroke-width:1.5;" x1="960" x2="1194" y1="542" y2="542"/><text fill="#000000" font-family="sans-serif" font-size="11" lengthAdjust="spacing" textLength="20" x="965" y="557.4189">-title</text><text fill="#000000" font-family="sans-serif" font-size="11" lengthAdjust="spacing" textLength="80" x="965" y="571.2549">-briefDescription</text><text fill="#000000" font-family="sans-serif" font-size="11" lengthAdjust="spacing" textLength="101" x="965" y="585.0908">-completeDescription</text><text fill="#000000" font-family="sans-serif" font-size="11" lengthAdjust="spacing" textLength="47" x="965" y="598.9268">-keyword</text><text fill="#000000" font-family="sans-serif" font-size="11" lengthAdjust="spacing" textLength="49" x="965" y="612.7627">-feedback</text><line style="stroke:#A80036;stroke-width:1.5;" x1="960" x2="1194" y1="619.1797" y2="619.1797"/><text fill="#000000" font-family="sans-serif" font-size="11" lengthAdjust="spacing" textLength="45" x="965" y="634.5986">+create()</text><text fill="#000000" font-family="sans-serif" font-size="11" lengthAdjust="spacing" textLength="48" x="965" y="648.4346">+setTitle()</text><text fill="#000000" font-family="sans-serif" font-size="11" lengthAdjust="spacing" textLength="182" x="965" y="662.2705">+setBriefDescription(briefDescription)</text><text fill="#000000" font-family="sans-serif" font-size="11" lengthAdjust="spacing" textLength="224" x="965" y="676.1064">+setCompleteDescription(completeDescription)</text><text fill="#000000" font-family="sans-serif" font-size="11" lengthAdjust="spacing" textLength="151" x="965" y="689.9424">+setKeywordList(keywordList)</text><text fill="#000000" font-family="sans-serif" font-size="11" lengthAdjust="spacing" textLength="121" x="965" y="703.7783">+setFeedback(feedback)</text><!--MD5=[e8c189551b7885b999ad7cefb30fc2a3]
class PersistenceContext--><rect codeLine="43" fill="#FEFECE" filter="url(#flh62306mresj)" height="61.8359" id="PersistenceContext" style="stroke:#A80036;stroke-width:1.5;" width="139" x="82.5" y="579"/><ellipse cx="97.5" cy="595" fill="#ADD1B2" rx="11" ry="11" style="stroke:#A80036;stroke-width:1.0;"/><path d="M99.5,591.5 Q99.7031,591 99.9375,590.75 Q100.1719,590.5 100.4375,590.5 Q100.9063,590.5 101.2031,590.7813 Q101.5,591.0625 101.5,591.7188 L101.5,593.2813 Q101.5,593.9375 101.2188,594.2188 Q100.9375,594.5 100.5,594.5 Q100.1094,594.5 99.8594,594.3281 Q99.6094,594.1563 99.5,593.7031 Q99.4531,593.3906 99.2813,593.2188 Q98.9688,592.8906 98.4063,592.7031 Q97.8438,592.5 97.2813,592.5 Q96.5781,592.5 95.9844,592.7813 Q95.4063,593.0625 94.9531,593.6875 Q94.5,594.3125 94.5,595.1719 L94.5,596.0938 Q94.5,597.125 95.3438,597.8125 Q96.1875,598.5 97.6875,598.5 Q98.5781,598.5 99.2031,598.2969 Q99.5625,598.1875 99.9688,597.8281 Q100.2344,597.625 100.375,597.5625 Q100.5156,597.5 100.6875,597.5 Q101.0156,597.5 101.25,597.7656 Q101.5,598.0156 101.5,598.375 Q101.5,598.7188 101.1563,599.125 Q100.6563,599.7188 99.8594,600.0469 Q98.8125,600.5 97.5313,600.5 Q96.0313,600.5 94.8281,599.9063 Q93.8594,599.4375 93.1719,598.4219 Q92.5,597.4063 92.5,596.2031 L92.5,595.1094 Q92.5,593.8594 93.0938,592.7656 Q93.7031,591.6719 94.75,591.0938 Q95.8125,590.5 97,590.5 Q97.7188,590.5 98.3438,590.75 Q98.9688,591 99.5,591.5 Z " fill="#000000"/><text fill="#000000" font-family="sans-serif" font-size="12" lengthAdjust="spacing" textLength="107" x="111.5" y="599.9102">PersistenceContext</text><line style="stroke:#A80036;stroke-width:1.5;" x1="83.5" x2="220.5" y1="611" y2="611"/><line style="stroke:#A80036;stroke-width:1.5;" x1="83.5" x2="220.5" y1="619" y2="619"/><text fill="#000000" font-family="sans-serif" font-size="11" lengthAdjust="spacing" textLength="71" x="88.5" y="634.4189">+repositories()</text><!--MD5=[b8e4c95865208c934bfcfda4f90bf50c]
class AppSettings--><rect codeLine="47" fill="#FEFECE" filter="url(#flh62306mresj)" height="75.6719" id="AppSettings" style="stroke:#A80036;stroke-width:1.5;" width="130" x="325" y="572"/><ellipse cx="354.4" cy="588" fill="#ADD1B2" rx="11" ry="11" style="stroke:#A80036;stroke-width:1.0;"/><path d="M356.4,584.5 Q356.6031,584 356.8375,583.75 Q357.0719,583.5 357.3375,583.5 Q357.8063,583.5 358.1031,583.7813 Q358.4,584.0625 358.4,584.7188 L358.4,586.2813 Q358.4,586.9375 358.1188,587.2188 Q357.8375,587.5 357.4,587.5 Q357.0094,587.5 356.7594,587.3281 Q356.5094,587.1563 356.4,586.7031 Q356.3531,586.3906 356.1813,586.2188 Q355.8688,585.8906 355.3063,585.7031 Q354.7438,585.5 354.1813,585.5 Q353.4781,585.5 352.8844,585.7813 Q352.3063,586.0625 351.8531,586.6875 Q351.4,587.3125 351.4,588.1719 L351.4,589.0938 Q351.4,590.125 352.2438,590.8125 Q353.0875,591.5 354.5875,591.5 Q355.4781,591.5 356.1031,591.2969 Q356.4625,591.1875 356.8688,590.8281 Q357.1344,590.625 357.275,590.5625 Q357.4156,590.5 357.5875,590.5 Q357.9156,590.5 358.15,590.7656 Q358.4,591.0156 358.4,591.375 Q358.4,591.7188 358.0563,592.125 Q357.5563,592.7188 356.7594,593.0469 Q355.7125,593.5 354.4313,593.5 Q352.9313,593.5 351.7281,592.9063 Q350.7594,592.4375 350.0719,591.4219 Q349.4,590.4063 349.4,589.2031 L349.4,588.1094 Q349.4,586.8594 349.9938,585.7656 Q350.6031,584.6719 351.65,584.0938 Q352.7125,583.5 353.9,583.5 Q354.6188,583.5 355.2438,583.75 Q355.8688,584 356.4,584.5 Z " fill="#000000"/><text fill="#000000" font-family="sans-serif" font-size="12" lengthAdjust="spacing" textLength="66" x="371.6" y="592.9102">AppSettings</text><line style="stroke:#A80036;stroke-width:1.5;" x1="326" x2="454" y1="604" y2="604"/><line style="stroke:#A80036;stroke-width:1.5;" x1="326" x2="454" y1="612" y2="612"/><text fill="#000000" font-family="sans-serif" font-size="11" lengthAdjust="spacing" textLength="55" x="331" y="627.4189">+instance()</text><text fill="#000000" font-family="sans-serif" font-size="11" lengthAdjust="spacing" textLength="118" x="331" y="641.2549">+getRepositoryFactory()</text><!--MD5=[48590afff58a68e2fcba47824d6f8a11]
class RepositoryFactory--><rect codeLine="53" fill="#FEFECE" filter="url(#flh62306mresj)" height="103.3438" id="RepositoryFactory" style="stroke:#A80036;stroke-width:1.5;" width="130" x="749" y="558.5"/><ellipse cx="764" cy="574.5" fill="#ADD1B2" rx="11" ry="11" style="stroke:#A80036;stroke-width:1.0;"/><path d="M766,571 Q766.2031,570.5 766.4375,570.25 Q766.6719,570 766.9375,570 Q767.4063,570 767.7031,570.2813 Q768,570.5625 768,571.2188 L768,572.7813 Q768,573.4375 767.7188,573.7188 Q767.4375,574 767,574 Q766.6094,574 766.3594,573.8281 Q766.1094,573.6563 766,573.2031 Q765.9531,572.8906 765.7813,572.7188 Q765.4688,572.3906 764.9063,572.2031 Q764.3438,572 763.7813,572 Q763.0781,572 762.4844,572.2813 Q761.9063,572.5625 761.4531,573.1875 Q761,573.8125 761,574.6719 L761,575.5938 Q761,576.625 761.8438,577.3125 Q762.6875,578 764.1875,578 Q765.0781,578 765.7031,577.7969 Q766.0625,577.6875 766.4688,577.3281 Q766.7344,577.125 766.875,577.0625 Q767.0156,577 767.1875,577 Q767.5156,577 767.75,577.2656 Q768,577.5156 768,577.875 Q768,578.2188 767.6563,578.625 Q767.1563,579.2188 766.3594,579.5469 Q765.3125,580 764.0313,580 Q762.5313,580 761.3281,579.4063 Q760.3594,578.9375 759.6719,577.9219 Q759,576.9063 759,575.7031 L759,574.6094 Q759,573.3594 759.5938,572.2656 Q760.2031,571.1719 761.25,570.5938 Q762.3125,570 763.5,570 Q764.2188,570 764.8438,570.25 Q765.4688,570.5 766,571 Z " fill="#000000"/><text fill="#000000" font-family="sans-serif" font-size="12" lengthAdjust="spacing" textLength="98" x="778" y="579.4102">RepositoryFactory</text><line style="stroke:#A80036;stroke-width:1.5;" x1="750" x2="878" y1="590.5" y2="590.5"/><line style="stroke:#A80036;stroke-width:1.5;" x1="750" x2="878" y1="598.5" y2="598.5"/><text fill="#000000" font-family="sans-serif" font-size="11" lengthAdjust="spacing" textLength="45" x="755" y="613.9189">+create()</text><text fill="#000000" font-family="sans-serif" font-size="11" lengthAdjust="spacing" textLength="56" x="755" y="627.7549">+servicos()</text><text fill="#000000" font-family="sans-serif" font-size="11" lengthAdjust="spacing" textLength="61" x="755" y="641.5908">+catalogos()</text><text fill="#000000" font-family="sans-serif" font-size="11" lengthAdjust="spacing" textLength="68" x="755" y="655.4268">+formularios()</text><!--MD5=[c442d1a7174f61885988a69cb0f958b4]
class ServiceDraftRepository--><rect codeLine="62" fill="#FEFECE" filter="url(#flh62306mresj)" height="75.6719" id="ServiceDraftRepository" style="stroke:#A80036;stroke-width:1.5;" width="157" x="507.5" y="572"/><ellipse cx="522.5" cy="588" fill="#ADD1B2" rx="11" ry="11" style="stroke:#A80036;stroke-width:1.0;"/><path d="M524.5,584.5 Q524.7031,584 524.9375,583.75 Q525.1719,583.5 525.4375,583.5 Q525.9063,583.5 526.2031,583.7813 Q526.5,584.0625 526.5,584.7188 L526.5,586.2813 Q526.5,586.9375 526.2188,587.2188 Q525.9375,587.5 525.5,587.5 Q525.1094,587.5 524.8594,587.3281 Q524.6094,587.1563 524.5,586.7031 Q524.4531,586.3906 524.2813,586.2188 Q523.9688,585.8906 523.4063,585.7031 Q522.8438,585.5 522.2813,585.5 Q521.5781,585.5 520.9844,585.7813 Q520.4063,586.0625 519.9531,586.6875 Q519.5,587.3125 519.5,588.1719 L519.5,589.0938 Q519.5,590.125 520.3438,590.8125 Q521.1875,591.5 522.6875,591.5 Q523.5781,591.5 524.2031,591.2969 Q524.5625,591.1875 524.9688,590.8281 Q525.2344,590.625 525.375,590.5625 Q525.5156,590.5 525.6875,590.5 Q526.0156,590.5 526.25,590.7656 Q526.5,591.0156 526.5,591.375 Q526.5,591.7188 526.1563,592.125 Q525.6563,592.7188 524.8594,593.0469 Q523.8125,593.5 522.5313,593.5 Q521.0313,593.5 519.8281,592.9063 Q518.8594,592.4375 518.1719,591.4219 Q517.5,590.4063 517.5,589.2031 L517.5,588.1094 Q517.5,586.8594 518.0938,585.7656 Q518.7031,584.6719 519.75,584.0938 Q520.8125,583.5 522,583.5 Q522.7188,583.5 523.3438,583.75 Q523.9688,584 524.5,584.5 Z " fill="#000000"/><text fill="#000000" font-family="sans-serif" font-size="12" lengthAdjust="spacing" textLength="125" x="536.5" y="592.9102">ServiceDraftRepository</text><line style="stroke:#A80036;stroke-width:1.5;" x1="508.5" x2="663.5" y1="604" y2="604"/><line style="stroke:#A80036;stroke-width:1.5;" x1="508.5" x2="663.5" y1="612" y2="612"/><text fill="#000000" font-family="sans-serif" font-size="11" lengthAdjust="spacing" textLength="45" x="513.5" y="627.4189">+create()</text><text fill="#000000" font-family="sans-serif" font-size="11" lengthAdjust="spacing" textLength="98" x="513.5" y="641.2549">+save(serviceDraft)</text><!--MD5=[22f89721c89d5b9566a4ffee303fac63]
class ServiceDraftRepositoryInterface--><rect codeLine="67" fill="#FEFECE" filter="url(#flh62306mresj)" height="48" id="ServiceDraftRepositoryInterface" style="stroke:#A80036;stroke-width:1.5;" width="206" x="487" y="773"/><ellipse cx="502" cy="789" fill="#B4A7E5" rx="11" ry="11" style="stroke:#A80036;stroke-width:1.0;"/><path d="M503,786 L503,792 L505,792 L505.4844,792 L506,792.625 L506,793 L506,793.375 L505.4844,794 L505,794 L499,794 L498.5156,794 L498,793.375 L498,793 L498,792.625 L498.5156,792 L499,792 L501,792 L501,786 L499,786 L498.5156,786 L498,785.375 L498,785 L498,784.625 L498.5156,784 L499,784 L505,784 L505.4844,784 L506,784.625 L506,785 L506,785.375 L505.4844,786 L505,786 L503,786 Z " fill="#000000"/><text fill="#000000" font-family="sans-serif" font-size="12" font-style="italic" lengthAdjust="spacing" textLength="174" x="516" y="793.9102">ServiceDraftRepositoryInterface</text><line style="stroke:#A80036;stroke-width:1.5;" x1="488" x2="692" y1="805" y2="805"/><line style="stroke:#A80036;stroke-width:1.5;" x1="488" x2="692" y1="813" y2="813"/><!--MD5=[d568bf6952dfaa758c50ee009ebf67dd]
link ServiceDraftFieldSpecificationUI to ServiceDraftSpecificationController--><path codeLine="73" d="M152,110.25 C152,134.15 152,172.89 152,209.2 " fill="none" id="ServiceDraftFieldSpecificationUI-to-ServiceDraftSpecificationController" style="stroke:#A80036;stroke-width:1.0;stroke-dasharray:7.0,7.0;"/><polygon fill="#A80036" points="152,214.54,156,205.54,152,209.54,148,205.54,152,214.54" style="stroke:#A80036;stroke-width:1.0;"/><!--MD5=[c4515eb8dbaedaae32cf288fd2687d91]
link ServiceDraftSpecificationController to PersistenceContext--><path codeLine="74" d="M152,388.28 C152,449.5 152,528.67 152,573.64 " fill="none" id="ServiceDraftSpecificationController-to-PersistenceContext" style="stroke:#A80036;stroke-width:1.0;stroke-dasharray:7.0,7.0;"/><polygon fill="#A80036" points="152,578.68,156,569.68,152,573.68,148,569.68,152,578.68" style="stroke:#A80036;stroke-width:1.0;"/><!--MD5=[013c093f641f8740a568aa5157f9e0d6]
link ServiceDraftRepository to ServiceDraftRepositoryInterface--><path codeLine="76" d="M586.81,648.44 C587.57,683.67 588.7,735.66 589.39,767.59 " fill="none" id="ServiceDraftRepository-to-ServiceDraftRepositoryInterface" style="stroke:#A80036;stroke-width:1.0;stroke-dasharray:7.0,7.0;"/><polygon fill="#A80036" points="589.5,772.93,593.2933,763.8409,589.3857,767.9313,585.2954,764.0238,589.5,772.93" style="stroke:#A80036;stroke-width:1.0;"/><!--MD5=[d66efb439816738ddd3e9d5fff4bf3a7]
link AppSettings to RepositoryFactory--><path codeLine="78" d="M398.17,571.81 C408.33,534.9 429.63,480.99 471,456 C516.27,428.66 662.24,431.29 709,456 C747.88,476.55 775.07,518.68 792.03,553.69 " fill="none" id="AppSettings-to-RepositoryFactory" style="stroke:#A80036;stroke-width:1.0;"/><polygon fill="#A80036" points="794.25,558.36,794.0041,548.5142,792.1059,553.8431,786.777,551.9448,794.25,558.36" style="stroke:#A80036;stroke-width:1.0;"/><text fill="#000000" font-family="sans-serif" font-size="13" lengthAdjust="spacing" textLength="43" x="705.5" y="434.4951">creates</text><!--MD5=[27fe1c91fe18bafc5695938053528609]
link PersistenceContext to AppSettings--><path codeLine="79" d="M221.8,610 C252.53,610 288.57,610 319.39,610 " fill="none" id="PersistenceContext-to-AppSettings" style="stroke:#A80036;stroke-width:1.0;"/><polygon fill="#A80036" points="324.69,610,315.69,606,319.69,610,315.69,614,324.69,610" style="stroke:#A80036;stroke-width:1.0;"/><text fill="#000000" font-family="sans-serif" font-size="13" lengthAdjust="spacing" textLength="67" x="239.75" y="603.4951">implements</text><!--MD5=[c099f118843079ed39661509eb060af6]
link RepositoryFactory to ServiceDraftRepository--><path codeLine="81" d="M748.82,610 C724.27,610 695.99,610 669.96,610 " fill="none" id="RepositoryFactory-to-ServiceDraftRepository" style="stroke:#A80036;stroke-width:1.0;"/><polygon fill="#A80036" points="664.78,610,673.78,614,669.78,610,673.78,606,664.78,610" style="stroke:#A80036;stroke-width:1.0;"/><text fill="#000000" font-family="sans-serif" font-size="13" lengthAdjust="spacing" textLength="21" x="696.25" y="603.4951">has</text><text fill="#000000" font-family="sans-serif" font-size="13" lengthAdjust="spacing" textLength="7" x="733.8789" y="606.5706">1</text><text fill="#000000" font-family="sans-serif" font-size="13" lengthAdjust="spacing" textLength="7" x="672.6223" y="606.765">1</text><!--MD5=[d53e096ef2f9280c1f0af98ac059945b]
link ServiceDraftRepository to ServiceDraft--><path codeLine="83" d="M609.1,571.79 C634.25,534.29 678.29,479.41 733,456 C799.19,427.68 827.39,431.24 895,456 C925.44,467.15 954.28,485.89 979.66,506.53 " fill="none" id="ServiceDraftRepository-to-ServiceDraft" style="stroke:#A80036;stroke-width:1.0;"/><polygon fill="#A80036" points="983.71,509.86,979.318,501.0446,979.8549,506.676,974.2236,507.2128,983.71,509.86" style="stroke:#A80036;stroke-width:1.0;"/><text fill="#000000" font-family="sans-serif" font-size="13" lengthAdjust="spacing" textLength="33" x="665.5" y="434.4951">saves</text><text fill="#000000" font-family="sans-serif" font-size="13" lengthAdjust="spacing" textLength="7" x="605.5913" y="561.1145">1</text><text fill="#000000" font-family="sans-serif" font-size="13" lengthAdjust="spacing" textLength="5" x="971.3761" y="499.0816">*</text><!--MD5=[91a17f10ffcf50cd77cc2d7ff6aa53dd]
@startuml
skinparam classAttributeIconSize 0

package "Presentation" #DDDDDD {
class ServiceDraftFieldSpecificationUI{

}
}


package "Application" #DDDDDD {
class ServiceDraftSpecificationController{
+create()
+getServiceDraftById(id)
+newDraft()
+addTitle()
+addBriefDescription(briefDescription)
+addCompleteDescription(completeDescription)
+addKeywordList(keywordList)
+addFeedback(feedback)
+saveServiceDraft(serviceDraft)
}
}


package "Domain" #DDDDDD {
class ServiceDraft{
- title
- briefDescription
- completeDescription
- keyword
- feedback
+create()
+setTitle()
+setBriefDescription(briefDescription)
+setCompleteDescription(completeDescription)
+setKeywordList(keywordList)
+setFeedback(feedback)
}

}

package Persistence #DDDDDD {
class PersistenceContext{
+repositories()
}

class AppSettings{
+instance()
+getRepositoryFactory()
}

package Factory #DDDDDD {
class RepositoryFactory{
+create()
+servicos()
+catalogos()
+formularios()
}
}

package "Repository" #DDDDDD {
class ServiceDraftRepository{
+create()
+save(serviceDraft)
}

interface ServiceDraftRepositoryInterface{

}



ServiceDraftFieldSpecificationUI ..> ServiceDraftSpecificationController
ServiceDraftSpecificationController ..> PersistenceContext

ServiceDraftRepository ..> ServiceDraftRepositoryInterface

AppSettings -> RepositoryFactory : creates
PersistenceContext -> AppSettings : implements

RepositoryFactory "1" -> "1" ServiceDraftRepository : has

ServiceDraftRepository "1" -> "*" ServiceDraft : saves

@enduml

PlantUML version 1.2021.5(Sun Apr 25 12:20:28 BST 2021)
(GPL source distribution)
Java Runtime: OpenJDK Runtime Environment
JVM: Dynamic Code Evolution 64-Bit Server VM
Default Encoding: Cp1252
Language: pt
Country: PT
--></g></svg>