<?xml version="1.0" encoding="UTF-8" standalone="no"?><svg xmlns="http://www.w3.org/2000/svg" xmlns:xlink="http://www.w3.org/1999/xlink" contentScriptType="application/ecmascript" contentStyleType="text/css" height="655px" preserveAspectRatio="none" style="width:548px;height:655px;" version="1.1" viewBox="0 0 548 655" width="548px" zoomAndPan="magnify"><defs><filter height="300%" id="f93w9675ymyb4" width="300%" x="-1" y="-1"><feGaussianBlur result="blurOut" stdDeviation="2.0"/><feColorMatrix in="blurOut" result="blurOut2" type="matrix" values="0 0 0 0 0 0 0 0 0 0 0 0 0 0 0 0 0 0 .4 0"/><feOffset dx="4.0" dy="4.0" in="blurOut2" result="blurOut3"/><feBlend in="SourceGraphic" in2="blurOut3" mode="normal"/></filter></defs><g><rect fill="#FFFFFF" filter="url(#f93w9675ymyb4)" height="530.6797" style="stroke:#A80036;stroke-width:1.0;" width="10" x="109" y="99.6094"/><rect fill="#FFFFFF" filter="url(#f93w9675ymyb4)" height="30.3516" style="stroke:#A80036;stroke-width:1.0;" width="10" x="485" y="121.9609"/><rect fill="#FFFFFF" filter="url(#f93w9675ymyb4)" height="55.7031" style="stroke:#A80036;stroke-width:1.0;" width="10" x="485" y="182.6641"/><rect fill="#FFFFFF" filter="url(#f93w9675ymyb4)" height="62.7031" style="stroke:#A80036;stroke-width:1.0;" width="10" x="485" y="268.7188"/><rect fill="#FFFFFF" filter="url(#f93w9675ymyb4)" height="30.3516" style="stroke:#A80036;stroke-width:1.0;" width="10" x="485" y="361.7734"/><rect fill="#FFFFFF" filter="url(#f93w9675ymyb4)" height="46.7031" style="stroke:#A80036;stroke-width:1.0;" width="10" x="485" y="422.4766"/><rect fill="#FFFFFF" filter="url(#f93w9675ymyb4)" height="53.7031" style="stroke:#A80036;stroke-width:1.0;" width="10" x="485" y="499.5313"/><rect fill="#FFFFFF" filter="url(#f93w9675ymyb4)" height="46.7031" style="stroke:#A80036;stroke-width:1.0;" width="10" x="485" y="583.5859"/><rect fill="#FFFFFF" filter="url(#f93w9675ymyb4)" height="79.0547" style="stroke:#000000;stroke-width:2.0;" width="524" x="10" y="197.6641"/><rect fill="#FFFFFF" filter="url(#f93w9675ymyb4)" height="216.8125" style="stroke:#000000;stroke-width:2.0;" width="524" x="10" y="290.7188"/><line style="stroke:#A80036;stroke-width:1.0;stroke-dasharray:5.0,5.0;" x1="114" x2="114" y1="89.6094" y2="648.2891"/><line style="stroke:#A80036;stroke-width:1.0;stroke-dasharray:5.0,5.0;" x1="490" x2="490" y1="89.6094" y2="648.2891"/><text fill="#000000" font-family="sans-serif" font-size="14" lengthAdjust="spacing" textLength="182" x="20" y="86.5332">Help Desk Services Manager</text><ellipse cx="114" cy="15" fill="#FEFECE" filter="url(#f93w9675ymyb4)" rx="8" ry="8" style="stroke:#A80036;stroke-width:2.0;"/><path d="M114,23 L114,50 M101,31 L127,31 M114,50 L101,65 M114,50 L127,65 " fill="none" filter="url(#f93w9675ymyb4)" style="stroke:#A80036;stroke-width:2.0;"/><rect fill="#FEFECE" filter="url(#f93w9675ymyb4)" height="31.6094" style="stroke:#A80036;stroke-width:1.5;" width="64" x="456" y="53"/><text fill="#000000" font-family="sans-serif" font-size="14" lengthAdjust="spacing" textLength="50" x="463" y="74.5332">:System</text><rect fill="#FFFFFF" filter="url(#f93w9675ymyb4)" height="530.6797" style="stroke:#A80036;stroke-width:1.0;" width="10" x="109" y="99.6094"/><rect fill="#FFFFFF" filter="url(#f93w9675ymyb4)" height="30.3516" style="stroke:#A80036;stroke-width:1.0;" width="10" x="485" y="121.9609"/><rect fill="#FFFFFF" filter="url(#f93w9675ymyb4)" height="55.7031" style="stroke:#A80036;stroke-width:1.0;" width="10" x="485" y="182.6641"/><rect fill="#FFFFFF" filter="url(#f93w9675ymyb4)" height="62.7031" style="stroke:#A80036;stroke-width:1.0;" width="10" x="485" y="268.7188"/><rect fill="#FFFFFF" filter="url(#f93w9675ymyb4)" height="30.3516" style="stroke:#A80036;stroke-width:1.0;" width="10" x="485" y="361.7734"/><rect fill="#FFFFFF" filter="url(#f93w9675ymyb4)" height="46.7031" style="stroke:#A80036;stroke-width:1.0;" width="10" x="485" y="422.4766"/><rect fill="#FFFFFF" filter="url(#f93w9675ymyb4)" height="53.7031" style="stroke:#A80036;stroke-width:1.0;" width="10" x="485" y="499.5313"/><rect fill="#FFFFFF" filter="url(#f93w9675ymyb4)" height="46.7031" style="stroke:#A80036;stroke-width:1.0;" width="10" x="485" y="583.5859"/><polygon fill="#A80036" points="473,117.9609,483,121.9609,473,125.9609,477,121.9609" style="stroke:#A80036;stroke-width:1.0;"/><line style="stroke:#A80036;stroke-width:1.0;" x1="119" x2="479" y1="121.9609" y2="121.9609"/><text fill="#000000" font-family="sans-serif" font-size="13" font-weight="bold" lengthAdjust="spacing" textLength="7" x="126" y="117.1045">1</text><text fill="#000000" font-family="sans-serif" font-size="13" lengthAdjust="spacing" textLength="336" x="137" y="117.1045">iniciates the request to add/update a field in a service draft</text><polygon fill="#A80036" points="130,148.3125,120,152.3125,130,156.3125,126,152.3125" style="stroke:#A80036;stroke-width:1.0;"/><line style="stroke:#A80036;stroke-width:1.0;" x1="124" x2="489" y1="152.3125" y2="152.3125"/><text fill="#000000" font-family="sans-serif" font-size="13" font-weight="bold" lengthAdjust="spacing" textLength="7" x="136" y="147.4561">2</text><text fill="#000000" font-family="sans-serif" font-size="13" lengthAdjust="spacing" textLength="279" x="147" y="147.4561">asks if the user pretends to use an existing draft</text><polygon fill="#A80036" points="473,178.6641,483,182.6641,473,186.6641,477,182.6641" style="stroke:#A80036;stroke-width:1.0;"/><line style="stroke:#A80036;stroke-width:1.0;" x1="119" x2="479" y1="182.6641" y2="182.6641"/><text fill="#000000" font-family="sans-serif" font-size="13" font-weight="bold" lengthAdjust="spacing" textLength="7" x="126" y="177.8076">3</text><text fill="#000000" font-family="sans-serif" font-size="13" lengthAdjust="spacing" textLength="53" x="137" y="177.8076">responds</text><path d="M10,197.6641 L71,197.6641 L71,205.6641 L61,215.6641 L10,215.6641 L10,197.6641 " fill="#EEEEEE" style="stroke:#000000;stroke-width:1.0;"/><rect fill="none" height="79.0547" style="stroke:#000000;stroke-width:2.0;" width="524" x="10" y="197.6641"/><text fill="#000000" font-family="sans-serif" font-size="13" font-weight="bold" lengthAdjust="spacing" textLength="16" x="25" y="212.1592">alt</text><text fill="#000000" font-family="sans-serif" font-size="11" font-weight="bold" lengthAdjust="spacing" textLength="249" x="86" y="211.083">[if the user pretends to use an existing draft]</text><polygon fill="#A80036" points="130,234.3672,120,238.3672,130,242.3672,126,238.3672" style="stroke:#A80036;stroke-width:1.0;"/><line style="stroke:#A80036;stroke-width:1.0;" x1="124" x2="489" y1="238.3672" y2="238.3672"/><text fill="#000000" font-family="sans-serif" font-size="13" font-weight="bold" lengthAdjust="spacing" textLength="7" x="136" y="233.5107">4</text><text fill="#000000" font-family="sans-serif" font-size="13" lengthAdjust="spacing" textLength="124" x="147" y="233.5107">requests the draft's id</text><polygon fill="#A80036" points="473,264.7188,483,268.7188,473,272.7188,477,268.7188" style="stroke:#A80036;stroke-width:1.0;"/><line style="stroke:#A80036;stroke-width:1.0;" x1="119" x2="479" y1="268.7188" y2="268.7188"/><text fill="#000000" font-family="sans-serif" font-size="13" font-weight="bold" lengthAdjust="spacing" textLength="7" x="126" y="263.8623">5</text><text fill="#000000" font-family="sans-serif" font-size="13" lengthAdjust="spacing" textLength="81" x="137" y="263.8623">inserts said id</text><path d="M10,290.7188 L83,290.7188 L83,298.7188 L73,308.7188 L10,308.7188 L10,290.7188 " fill="#EEEEEE" style="stroke:#000000;stroke-width:1.0;"/><rect fill="none" height="216.8125" style="stroke:#000000;stroke-width:2.0;" width="524" x="10" y="290.7188"/><text fill="#000000" font-family="sans-serif" font-size="13" font-weight="bold" lengthAdjust="spacing" textLength="28" x="25" y="305.2139">loop</text><text fill="#000000" font-family="sans-serif" font-size="11" font-weight="bold" lengthAdjust="spacing" textLength="261" x="98" y="304.1377">[until the user doesn't want to add more fields]</text><polygon fill="#A80036" points="130,327.4219,120,331.4219,130,335.4219,126,331.4219" style="stroke:#A80036;stroke-width:1.0;"/><line style="stroke:#A80036;stroke-width:1.0;" x1="124" x2="489" y1="331.4219" y2="331.4219"/><text fill="#000000" font-family="sans-serif" font-size="13" font-weight="bold" lengthAdjust="spacing" textLength="7" x="136" y="326.5654">6</text><text fill="#000000" font-family="sans-serif" font-size="13" lengthAdjust="spacing" textLength="305" x="147" y="326.5654">asks which field does the user pretend to add/update</text><polygon fill="#A80036" points="473,357.7734,483,361.7734,473,365.7734,477,361.7734" style="stroke:#A80036;stroke-width:1.0;"/><line style="stroke:#A80036;stroke-width:1.0;" x1="119" x2="479" y1="361.7734" y2="361.7734"/><text fill="#000000" font-family="sans-serif" font-size="13" font-weight="bold" lengthAdjust="spacing" textLength="7" x="126" y="356.917">7</text><text fill="#000000" font-family="sans-serif" font-size="13" lengthAdjust="spacing" textLength="98" x="137" y="356.917">chooses the field</text><polygon fill="#A80036" points="130,388.125,120,392.125,130,396.125,126,392.125" style="stroke:#A80036;stroke-width:1.0;"/><line style="stroke:#A80036;stroke-width:1.0;" x1="124" x2="489" y1="392.125" y2="392.125"/><text fill="#000000" font-family="sans-serif" font-size="13" font-weight="bold" lengthAdjust="spacing" textLength="7" x="136" y="387.2686">8</text><text fill="#000000" font-family="sans-serif" font-size="13" lengthAdjust="spacing" textLength="201" x="147" y="387.2686">requests the user to insert the field</text><polygon fill="#A80036" points="473,418.4766,483,422.4766,473,426.4766,477,422.4766" style="stroke:#A80036;stroke-width:1.0;"/><line style="stroke:#A80036;stroke-width:1.0;" x1="119" x2="479" y1="422.4766" y2="422.4766"/><text fill="#000000" font-family="sans-serif" font-size="13" font-weight="bold" lengthAdjust="spacing" textLength="7" x="126" y="417.6201">9</text><text fill="#000000" font-family="sans-serif" font-size="13" lengthAdjust="spacing" textLength="88" x="137" y="417.6201">inserts the field</text><polygon fill="#A80036" points="130,465.1797,120,469.1797,130,473.1797,126,469.1797" style="stroke:#A80036;stroke-width:1.0;"/><line style="stroke:#A80036;stroke-width:1.0;" x1="124" x2="489" y1="469.1797" y2="469.1797"/><text fill="#000000" font-family="sans-serif" font-size="13" font-weight="bold" lengthAdjust="spacing" textLength="14" x="136" y="456.1475">10</text><text fill="#000000" font-family="sans-serif" font-size="13" lengthAdjust="spacing" textLength="172" x="154" y="447.9717">saves the field in the draft and</text><text fill="#000000" font-family="sans-serif" font-size="13" lengthAdjust="spacing" textLength="192" x="158" y="464.3232">asks if there is more fields to add</text><polygon fill="#A80036" points="473,495.5313,483,499.5313,473,503.5313,477,499.5313" style="stroke:#A80036;stroke-width:1.0;"/><line style="stroke:#A80036;stroke-width:1.0;" x1="119" x2="479" y1="499.5313" y2="499.5313"/><text fill="#000000" font-family="sans-serif" font-size="13" font-weight="bold" lengthAdjust="spacing" textLength="14" x="126" y="494.6748">11</text><text fill="#000000" font-family="sans-serif" font-size="13" lengthAdjust="spacing" textLength="53" x="144" y="494.6748">responds</text><polygon fill="#A80036" points="130,549.2344,120,553.2344,130,557.2344,126,553.2344" style="stroke:#A80036;stroke-width:1.0;"/><line style="stroke:#A80036;stroke-width:1.0;" x1="124" x2="489" y1="553.2344" y2="553.2344"/><text fill="#000000" font-family="sans-serif" font-size="13" font-weight="bold" lengthAdjust="spacing" textLength="14" x="136" y="540.2021">12</text><text fill="#000000" font-family="sans-serif" font-size="13" lengthAdjust="spacing" textLength="174" x="154" y="532.0264">validates, presents the current</text><text fill="#000000" font-family="sans-serif" font-size="13" lengthAdjust="spacing" textLength="277" x="154" y="548.3779">information in the draft and asks for confirmation</text><polygon fill="#A80036" points="473,579.5859,483,583.5859,473,587.5859,477,583.5859" style="stroke:#A80036;stroke-width:1.0;"/><line style="stroke:#A80036;stroke-width:1.0;" x1="119" x2="479" y1="583.5859" y2="583.5859"/><text fill="#000000" font-family="sans-serif" font-size="13" font-weight="bold" lengthAdjust="spacing" textLength="14" x="126" y="578.7295">13</text><text fill="#000000" font-family="sans-serif" font-size="13" lengthAdjust="spacing" textLength="49" x="144" y="578.7295">confirms</text><polygon fill="#A80036" points="125,626.2891,115,630.2891,125,634.2891,121,630.2891" style="stroke:#A80036;stroke-width:1.0;"/><line style="stroke:#A80036;stroke-width:1.0;" x1="119" x2="489" y1="630.2891" y2="630.2891"/><text fill="#000000" font-family="sans-serif" font-size="13" font-weight="bold" lengthAdjust="spacing" textLength="14" x="131" y="617.2568">14</text><text fill="#000000" font-family="sans-serif" font-size="13" lengthAdjust="spacing" textLength="208" x="149" y="609.0811">registers the draft in the persistence</text><text fill="#000000" font-family="sans-serif" font-size="13" lengthAdjust="spacing" textLength="249" x="153" y="625.4326">and informs of the success of the operation</text><!--MD5=[74ec121eec6b51b0ad56e7504cf5ed7f]
@startuml
autonumber
hide footbox

actor "Help Desk Services Manager" as HSM
participant ":System" as SYST

activate HSM

HSM -> SYST : iniciates the request to add/update a field in a service draft
activate SYST

SYST -> HSM : asks if the user pretends to use an existing draft
deactivate SYST

HSM -> SYST : responds
activate SYST

alt if the user pretends to use an existing draft
SYST -> HSM : requests the draft's id
deactivate SYST

HSM -> SYST : inserts said id
activate SYST
end

loop until the user doesn't want to add more fields
SYST -> HSM : asks which field does the user pretend to add/update
deactivate SYST

HSM -> SYST : chooses the field
activate SYST

SYST -> HSM : requests the user to insert the field
deactivate SYST

HSM -> SYST : inserts the field
activate SYST

SYST -> HSM : saves the field in the draft and\n asks if there is more fields to add
deactivate SYST

HSM -> SYST : responds
activate SYST
end

SYST -> HSM : validates, presents the current \ninformation in the draft and asks for confirmation
deactivate SYST

HSM -> SYST : confirms
activate SYST

SYST -> HSM : registers the draft in the persistence\n and informs of the success of the operation
deactivate SYST
deactivate HSM

@enduml

PlantUML version 1.2021.5(Sun Apr 25 12:20:28 BST 2021)
(GPL source distribution)
Java Runtime: OpenJDK Runtime Environment
JVM: Dynamic Code Evolution 64-Bit Server VM
Default Encoding: Cp1252
Language: pt
Country: PT
--></g></svg>