<?xml version="1.0" encoding="UTF-8" standalone="no"?><svg xmlns="http://www.w3.org/2000/svg" xmlns:xlink="http://www.w3.org/1999/xlink" contentScriptType="application/ecmascript" contentStyleType="text/css" height="549px" preserveAspectRatio="none" style="width:537px;height:549px;" version="1.1" viewBox="0 0 537 549" width="537px" zoomAndPan="magnify"><defs><filter height="300%" id="fih5xh9a7583x" width="300%" x="-1" y="-1"><feGaussianBlur result="blurOut" stdDeviation="2.0"/><feColorMatrix in="blurOut" result="blurOut2" type="matrix" values="0 0 0 0 0 0 0 0 0 0 0 0 0 0 0 0 0 0 .4 0"/><feOffset dx="4.0" dy="4.0" in="blurOut2" result="blurOut3"/><feBlend in="SourceGraphic" in2="blurOut3" mode="normal"/></filter></defs><g><rect fill="#FFFFFF" filter="url(#fih5xh9a7583x)" height="432.7891" style="stroke:#A80036;stroke-width:1.0;" width="10" x="84" y="91.5703"/><rect fill="#FFFFFF" filter="url(#fih5xh9a7583x)" height="78.0547" style="stroke:#A80036;stroke-width:1.0;" width="10" x="289" y="229.4922"/><rect fill="#FFFFFF" filter="url(#fih5xh9a7583x)" height="78.0547" style="stroke:#A80036;stroke-width:1.0;" width="10" x="289" y="337.8984"/><rect fill="#FFFFFF" filter="url(#fih5xh9a7583x)" height="78.0547" style="stroke:#A80036;stroke-width:1.0;" width="10" x="289" y="446.3047"/><line style="stroke:#A80036;stroke-width:1.0;stroke-dasharray:5.0,5.0;" x1="88.5" x2="88.5" y1="59.2188" y2="542.3594"/><line style="stroke:#A80036;stroke-width:1.0;stroke-dasharray:5.0,5.0;" x1="293.5" x2="293.5" y1="141.6797" y2="542.3594"/><line style="stroke:#A80036;stroke-width:1.0;stroke-dasharray:5.0,5.0;" x1="468" x2="468" y1="59.2188" y2="542.3594"/><rect fill="#FEFECE" filter="url(#fih5xh9a7583x)" height="49.2188" style="stroke:#A80036;stroke-width:1.5;" width="159" x="7.5" y="5"/><text fill="#000000" font-family="sans-serif" font-size="14" lengthAdjust="spacing" textLength="108" x="33" y="26.5332">&lt;&lt;boostrapers&gt;&gt;</text><text fill="#000000" font-family="sans-serif" font-size="14" lengthAdjust="spacing" textLength="145" x="14.5" y="44.1426">SaveDraftBootstrapper</text><rect fill="#FEFECE" filter="url(#fih5xh9a7583x)" height="49.2188" style="stroke:#A80036;stroke-width:1.5;" width="110" x="411" y="5"/><text fill="#000000" font-family="sans-serif" font-size="14" lengthAdjust="spacing" textLength="78" x="427" y="26.5332">&lt;&lt;domain&gt;&gt;</text><text fill="#000000" font-family="sans-serif" font-size="14" lengthAdjust="spacing" textLength="96" x="418" y="44.1426">service:Service</text><rect fill="#FFFFFF" filter="url(#fih5xh9a7583x)" height="432.7891" style="stroke:#A80036;stroke-width:1.0;" width="10" x="84" y="91.5703"/><rect fill="#FFFFFF" filter="url(#fih5xh9a7583x)" height="78.0547" style="stroke:#A80036;stroke-width:1.0;" width="10" x="289" y="229.4922"/><rect fill="#FFFFFF" filter="url(#fih5xh9a7583x)" height="78.0547" style="stroke:#A80036;stroke-width:1.0;" width="10" x="289" y="337.8984"/><rect fill="#FFFFFF" filter="url(#fih5xh9a7583x)" height="78.0547" style="stroke:#A80036;stroke-width:1.0;" width="10" x="289" y="446.3047"/><ellipse cx="7.5" cy="90.8203" rx="4" ry="4" style="stroke:#A80036;stroke-width:1.5;fill:none;"/><polygon fill="#A80036" points="72,87.5703,82,91.5703,72,95.5703,76,91.5703" style="stroke:#A80036;stroke-width:1.0;"/><line style="stroke:#A80036;stroke-width:1.0;" x1="12" x2="78" y1="91.5703" y2="91.5703"/><text fill="#000000" font-family="sans-serif" font-size="13" font-weight="bold" lengthAdjust="spacing" textLength="7" x="15" y="86.7139">1</text><text fill="#000000" font-family="sans-serif" font-size="13" lengthAdjust="spacing" textLength="46" x="26" y="86.7139">execute</text><polygon fill="#A80036" points="210.5,117.9219,220.5,121.9219,210.5,125.9219,214.5,121.9219" style="stroke:#A80036;stroke-width:1.0;"/><line style="stroke:#A80036;stroke-width:1.0;" x1="94" x2="216.5" y1="121.9219" y2="121.9219"/><text fill="#000000" font-family="sans-serif" font-size="13" font-weight="bold" lengthAdjust="spacing" textLength="7" x="101" y="117.0654">2</text><text fill="#000000" font-family="sans-serif" font-size="13" lengthAdjust="spacing" textLength="44" x="112" y="117.0654">create()</text><rect fill="#FEFECE" filter="url(#fih5xh9a7583x)" height="49.2188" style="stroke:#A80036;stroke-width:1.5;" width="139" x="222.5" y="99.5703"/><text fill="#000000" font-family="sans-serif" font-size="14" lengthAdjust="spacing" textLength="92" x="246" y="121.1035">&lt;&lt;aplication&gt;&gt;</text><text fill="#000000" font-family="sans-serif" font-size="14" lengthAdjust="spacing" textLength="125" x="229.5" y="138.7129">SaveDraftController</text><line style="stroke:#A80036;stroke-width:1.0;" x1="94" x2="136" y1="186.1406" y2="186.1406"/><line style="stroke:#A80036;stroke-width:1.0;" x1="136" x2="136" y1="186.1406" y2="199.1406"/><line style="stroke:#A80036;stroke-width:1.0;" x1="95" x2="136" y1="199.1406" y2="199.1406"/><polygon fill="#A80036" points="105,195.1406,95,199.1406,105,203.1406,101,199.1406" style="stroke:#A80036;stroke-width:1.0;"/><text fill="#000000" font-family="sans-serif" font-size="13" font-weight="bold" lengthAdjust="spacing" textLength="7" x="101" y="181.2842">3</text><text fill="#000000" font-family="sans-serif" font-size="13" lengthAdjust="spacing" textLength="92" x="112" y="181.2842">saveDraft(intOp)</text><polygon fill="#A80036" points="277,225.4922,287,229.4922,277,233.4922,281,229.4922" style="stroke:#A80036;stroke-width:1.0;"/><line style="stroke:#A80036;stroke-width:1.0;" x1="94" x2="283" y1="229.4922" y2="229.4922"/><text fill="#000000" font-family="sans-serif" font-size="13" font-weight="bold" lengthAdjust="spacing" textLength="7" x="101" y="224.6357">4</text><text fill="#000000" font-family="sans-serif" font-size="13" lengthAdjust="spacing" textLength="60" x="112" y="224.6357">getDrafts()</text><rect fill="#FFFFFF" filter="url(#fih5xh9a7583x)" height="42.7031" style="stroke:#000000;stroke-width:2.0;" width="309" x="219.5" y="237.4922"/><polygon fill="#EEEEEE" points="219.5,237.4922,281.5,237.4922,281.5,245.4922,271.5,255.4922,219.5,255.4922,219.5,237.4922" style="stroke:#000000;stroke-width:2.0;"/><text fill="#000000" font-family="sans-serif" font-size="13" font-weight="bold" lengthAdjust="spacing" textLength="17" x="232.5" y="252.9873">ref</text><text fill="#000000" font-family="sans-serif" font-size="13" lengthAdjust="spacing" textLength="301" x="225.5" y="272.9873">Code Sequence similar to US-1-2002_SD_SaveDraft</text><polygon fill="#A80036" points="105,303.5469,95,307.5469,105,311.5469,101,307.5469" style="stroke:#A80036;stroke-width:1.0;"/><line style="stroke:#A80036;stroke-width:1.0;stroke-dasharray:2.0,2.0;" x1="99" x2="293" y1="307.5469" y2="307.5469"/><text fill="#000000" font-family="sans-serif" font-size="13" font-weight="bold" lengthAdjust="spacing" textLength="7" x="111" y="302.6904">5</text><text fill="#000000" font-family="sans-serif" font-size="13" lengthAdjust="spacing" textLength="32" x="122" y="302.6904">drafts</text><polygon fill="#A80036" points="277,333.8984,287,337.8984,277,341.8984,281,337.8984" style="stroke:#A80036;stroke-width:1.0;"/><line style="stroke:#A80036;stroke-width:1.0;" x1="94" x2="283" y1="337.8984" y2="337.8984"/><text fill="#000000" font-family="sans-serif" font-size="13" font-weight="bold" lengthAdjust="spacing" textLength="7" x="101" y="333.042">6</text><text fill="#000000" font-family="sans-serif" font-size="13" lengthAdjust="spacing" textLength="91" x="112" y="333.042">getCatalogues()</text><rect fill="#FFFFFF" filter="url(#fih5xh9a7583x)" height="42.7031" style="stroke:#000000;stroke-width:2.0;" width="309" x="219.5" y="345.8984"/><polygon fill="#EEEEEE" points="219.5,345.8984,281.5,345.8984,281.5,353.8984,271.5,363.8984,219.5,363.8984,219.5,345.8984" style="stroke:#000000;stroke-width:2.0;"/><text fill="#000000" font-family="sans-serif" font-size="13" font-weight="bold" lengthAdjust="spacing" textLength="17" x="232.5" y="361.3936">ref</text><text fill="#000000" font-family="sans-serif" font-size="13" lengthAdjust="spacing" textLength="301" x="225.5" y="381.3936">Code Sequence similar to US-1-2002_SD_SaveDraft</text><polygon fill="#A80036" points="105,411.9531,95,415.9531,105,419.9531,101,415.9531" style="stroke:#A80036;stroke-width:1.0;"/><line style="stroke:#A80036;stroke-width:1.0;stroke-dasharray:2.0,2.0;" x1="99" x2="293" y1="415.9531" y2="415.9531"/><text fill="#000000" font-family="sans-serif" font-size="13" font-weight="bold" lengthAdjust="spacing" textLength="7" x="111" y="411.0967">7</text><text fill="#000000" font-family="sans-serif" font-size="13" lengthAdjust="spacing" textLength="67" x="122" y="411.0967">collaborator</text><polygon fill="#A80036" points="277,442.3047,287,446.3047,277,450.3047,281,446.3047" style="stroke:#A80036;stroke-width:1.0;"/><line style="stroke:#A80036;stroke-width:1.0;" x1="94" x2="283" y1="446.3047" y2="446.3047"/><text fill="#000000" font-family="sans-serif" font-size="13" font-weight="bold" lengthAdjust="spacing" textLength="7" x="101" y="441.4482">8</text><text fill="#000000" font-family="sans-serif" font-size="13" lengthAdjust="spacing" textLength="165" x="112" y="441.4482">saveService(draft, catalogue)</text><rect fill="#FFFFFF" filter="url(#fih5xh9a7583x)" height="42.7031" style="stroke:#000000;stroke-width:2.0;" width="309" x="219.5" y="454.3047"/><polygon fill="#EEEEEE" points="219.5,454.3047,281.5,454.3047,281.5,462.3047,271.5,472.3047,219.5,472.3047,219.5,454.3047" style="stroke:#000000;stroke-width:2.0;"/><text fill="#000000" font-family="sans-serif" font-size="13" font-weight="bold" lengthAdjust="spacing" textLength="17" x="232.5" y="469.7998">ref</text><text fill="#000000" font-family="sans-serif" font-size="13" lengthAdjust="spacing" textLength="301" x="225.5" y="489.7998">Code Sequence similar to US-1-2002_SD_SaveDraft</text><polygon fill="#A80036" points="100,520.3594,90,524.3594,100,528.3594,96,524.3594" style="stroke:#A80036;stroke-width:1.0;"/><line style="stroke:#A80036;stroke-width:1.0;stroke-dasharray:2.0,2.0;" x1="94" x2="293" y1="524.3594" y2="524.3594"/><text fill="#000000" font-family="sans-serif" font-size="13" font-weight="bold" lengthAdjust="spacing" textLength="7" x="106" y="519.5029">9</text><text fill="#000000" font-family="sans-serif" font-size="13" lengthAdjust="spacing" textLength="40" x="117" y="519.5029">service</text><!--MD5=[06c67bbaaf82e72c0bbf7191011b4544]
@startuml
autonumber
hide footbox

participant "<<boostrapers>>\nSaveDraftBootstrapper" as BOOT
participant "<<aplication>>\nSaveDraftController" as CTRL
participant "<<domain>>\nservice:Service" as SER

[o-> BOOT : execute

activate BOOT
BOOT -> CTRL** : create()

BOOT -> BOOT : saveDraft(intOp)

BOOT -> CTRL : getDrafts()
activate CTRL
ref over CTRL
Code Sequence similar to US-1-2002_SD_SaveDraft
end ref
CTRL - -> BOOT : drafts
deactivate CTRL

BOOT -> CTRL : getCatalogues()
activate CTRL
ref over CTRL
Code Sequence similar to US-1-2002_SD_SaveDraft
end ref
CTRL - -> BOOT : collaborator
deactivate CTRL

BOOT -> CTRL : saveService(draft, catalogue)
activate CTRL
ref over CTRL
Code Sequence similar to US-1-2002_SD_SaveDraft
end ref
CTRL - -> BOOT : service
deactivate CTRL
deactivate BOOT

@enduml

PlantUML version 1.2021.5(Sun Apr 25 12:20:28 BST 2021)
(GPL source distribution)
Java Runtime: OpenJDK Runtime Environment
JVM: Dynamic Code Evolution 64-Bit Server VM
Default Encoding: Cp1252
Language: pt
Country: PT
--></g></svg>