<?xml version="1.0" encoding="UTF-8" standalone="no"?><svg xmlns="http://www.w3.org/2000/svg" xmlns:xlink="http://www.w3.org/1999/xlink" contentScriptType="application/ecmascript" contentStyleType="text/css" height="1182px" preserveAspectRatio="none" style="width:959px;height:1182px;" version="1.1" viewBox="0 0 959 1182" width="959px" zoomAndPan="magnify"><defs><filter height="300%" id="f198yg1b69k4ra" width="300%" x="-1" y="-1"><feGaussianBlur result="blurOut" stdDeviation="2.0"/><feColorMatrix in="blurOut" result="blurOut2" type="matrix" values="0 0 0 0 0 0 0 0 0 0 0 0 0 0 0 0 0 0 .4 0"/><feOffset dx="4.0" dy="4.0" in="blurOut2" result="blurOut3"/><feBlend in="SourceGraphic" in2="blurOut3" mode="normal"/></filter></defs><g><rect fill="#FFFFFF" filter="url(#f198yg1b69k4ra)" height="1048.1484" style="stroke:#A80036;stroke-width:1.0;" width="10" x="131" y="109.1797"/><rect fill="#FFFFFF" filter="url(#f198yg1b69k4ra)" height="30" style="stroke:#A80036;stroke-width:1.0;" width="10" x="312" y="139.5313"/><rect fill="#FFFFFF" filter="url(#f198yg1b69k4ra)" height="30" style="stroke:#A80036;stroke-width:1.0;" width="10" x="312" y="199.8828"/><rect fill="#FFFFFF" filter="url(#f198yg1b69k4ra)" height="30" style="stroke:#A80036;stroke-width:1.0;" width="10" x="312" y="1127.3281"/><rect fill="#FFFFFF" filter="url(#f198yg1b69k4ra)" height="30" style="stroke:#A80036;stroke-width:1.0;" width="10" x="546.5" y="659.5156"/><rect fill="#FFFFFF" filter="url(#f198yg1b69k4ra)" height="30" style="stroke:#A80036;stroke-width:1.0;" width="10" x="546.5" y="719.8672"/><rect fill="#FFFFFF" filter="url(#f198yg1b69k4ra)" height="30" style="stroke:#A80036;stroke-width:1.0;" width="10" x="546.5" y="807.5703"/><rect fill="#FFFFFF" filter="url(#f198yg1b69k4ra)" height="30" style="stroke:#A80036;stroke-width:1.0;" width="10" x="546.5" y="867.9219"/><rect fill="#FFFFFF" filter="url(#f198yg1b69k4ra)" height="30" style="stroke:#A80036;stroke-width:1.0;" width="10" x="546.5" y="930.2734"/><rect fill="#FFFFFF" filter="url(#f198yg1b69k4ra)" height="30" style="stroke:#A80036;stroke-width:1.0;" width="10" x="546.5" y="999.625"/><rect fill="#FFFFFF" filter="url(#f198yg1b69k4ra)" height="30" style="stroke:#A80036;stroke-width:1.0;" width="10" x="546.5" y="1066.9766"/><rect fill="#FFFFFF" filter="url(#f198yg1b69k4ra)" height="30" style="stroke:#A80036;stroke-width:1.0;" width="10" x="675.5" y="538.8125"/><rect fill="#FFFFFF" filter="url(#f198yg1b69k4ra)" height="30" style="stroke:#A80036;stroke-width:1.0;" width="10" x="839.5" y="599.1641"/><rect fill="#FFFFFF" filter="url(#f198yg1b69k4ra)" height="603.7344" style="stroke:#000000;stroke-width:2.0;" width="925" x="20" y="433.8906"/><rect fill="#FFFFFF" height="217.4063" style="stroke:none;stroke-width:1.0;" width="925" x="20" y="757.8672"/><rect fill="#FFFFFF" filter="url(#f198yg1b69k4ra)" height="201.4063" style="stroke:#000000;stroke-width:2.0;" width="587" x="30" y="766.8672"/><rect fill="#FFFFFF" height="62.3516" style="stroke:none;stroke-width:1.0;" width="587" x="30" y="905.9219"/><rect fill="#FFFFFF" height="62.3516" style="stroke:none;stroke-width:1.0;" width="925" x="20" y="975.2734"/><line style="stroke:#A80036;stroke-width:1.0;stroke-dasharray:5.0,5.0;" x1="136" x2="136" y1="76.8281" y2="1175.3281"/><line style="stroke:#A80036;stroke-width:1.0;stroke-dasharray:5.0,5.0;" x1="317" x2="317" y1="76.8281" y2="1175.3281"/><line style="stroke:#A80036;stroke-width:1.0;stroke-dasharray:5.0,5.0;" x1="430" x2="430" y1="288.7969" y2="1175.3281"/><line style="stroke:#A80036;stroke-width:1.0;stroke-dasharray:5.0,5.0;" x1="551" x2="551" y1="370.625" y2="1175.3281"/><line style="stroke:#A80036;stroke-width:1.0;stroke-dasharray:5.0,5.0;" x1="680" x2="680" y1="494.3516" y2="1175.3281"/><line style="stroke:#A80036;stroke-width:1.0;stroke-dasharray:5.0,5.0;" x1="844" x2="844" y1="76.8281" y2="1175.3281"/><rect fill="#FEFECE" filter="url(#f198yg1b69k4ra)" height="49.2188" style="stroke:#A80036;stroke-width:1.5;" width="188" x="40" y="22.6094"/><text fill="#000000" font-family="sans-serif" font-size="14" lengthAdjust="spacing" textLength="72" x="98" y="44.1426">&lt;&lt;server&gt;&gt;</text><text fill="#000000" font-family="sans-serif" font-size="14" lengthAdjust="spacing" textLength="174" x="47" y="61.752">HttpAjaxDashboardRequest</text><rect fill="#FEFECE" filter="url(#f198yg1b69k4ra)" height="49.2188" style="stroke:#A80036;stroke-width:1.5;" width="92" x="269" y="22.6094"/><text fill="#000000" font-family="sans-serif" font-size="14" lengthAdjust="spacing" textLength="78" x="276" y="44.1426">&lt;&lt;domain&gt;&gt;</text><text fill="#000000" font-family="sans-serif" font-size="14" lengthAdjust="spacing" textLength="43" x="293.5" y="61.752">Socket</text><rect fill="#FEFECE" filter="url(#f198yg1b69k4ra)" height="49.2188" style="stroke:#A80036;stroke-width:1.5;" width="177" x="754" y="22.6094"/><text fill="#000000" font-family="sans-serif" font-size="14" lengthAdjust="spacing" textLength="72" x="806.5" y="44.1426">&lt;&lt;server&gt;&gt;</text><text fill="#000000" font-family="sans-serif" font-size="14" lengthAdjust="spacing" textLength="163" x="761" y="61.752">HttpServerAjaxDashboard</text><rect fill="#FFFFFF" filter="url(#f198yg1b69k4ra)" height="1048.1484" style="stroke:#A80036;stroke-width:1.0;" width="10" x="131" y="109.1797"/><rect fill="#FFFFFF" filter="url(#f198yg1b69k4ra)" height="30" style="stroke:#A80036;stroke-width:1.0;" width="10" x="312" y="139.5313"/><rect fill="#FFFFFF" filter="url(#f198yg1b69k4ra)" height="30" style="stroke:#A80036;stroke-width:1.0;" width="10" x="312" y="199.8828"/><rect fill="#FFFFFF" filter="url(#f198yg1b69k4ra)" height="30" style="stroke:#A80036;stroke-width:1.0;" width="10" x="312" y="1127.3281"/><rect fill="#FFFFFF" filter="url(#f198yg1b69k4ra)" height="30" style="stroke:#A80036;stroke-width:1.0;" width="10" x="546.5" y="659.5156"/><rect fill="#FFFFFF" filter="url(#f198yg1b69k4ra)" height="30" style="stroke:#A80036;stroke-width:1.0;" width="10" x="546.5" y="719.8672"/><rect fill="#FFFFFF" filter="url(#f198yg1b69k4ra)" height="30" style="stroke:#A80036;stroke-width:1.0;" width="10" x="546.5" y="807.5703"/><rect fill="#FFFFFF" filter="url(#f198yg1b69k4ra)" height="30" style="stroke:#A80036;stroke-width:1.0;" width="10" x="546.5" y="867.9219"/><rect fill="#FFFFFF" filter="url(#f198yg1b69k4ra)" height="30" style="stroke:#A80036;stroke-width:1.0;" width="10" x="546.5" y="930.2734"/><rect fill="#FFFFFF" filter="url(#f198yg1b69k4ra)" height="30" style="stroke:#A80036;stroke-width:1.0;" width="10" x="546.5" y="999.625"/><rect fill="#FFFFFF" filter="url(#f198yg1b69k4ra)" height="30" style="stroke:#A80036;stroke-width:1.0;" width="10" x="546.5" y="1066.9766"/><rect fill="#FFFFFF" filter="url(#f198yg1b69k4ra)" height="30" style="stroke:#A80036;stroke-width:1.0;" width="10" x="675.5" y="538.8125"/><rect fill="#FFFFFF" filter="url(#f198yg1b69k4ra)" height="30" style="stroke:#A80036;stroke-width:1.0;" width="10" x="839.5" y="599.1641"/><ellipse cx="7.5" cy="108.4297" rx="4" ry="4" style="stroke:#A80036;stroke-width:1.5;fill:none;"/><polygon fill="#A80036" points="119,105.1797,129,109.1797,119,113.1797,123,109.1797" style="stroke:#A80036;stroke-width:1.0;"/><line style="stroke:#A80036;stroke-width:1.0;" x1="12" x2="125" y1="109.1797" y2="109.1797"/><text fill="#000000" font-family="sans-serif" font-size="13" font-weight="bold" lengthAdjust="spacing" textLength="7" x="15" y="104.3232">1</text><text fill="#000000" font-family="sans-serif" font-size="13" lengthAdjust="spacing" textLength="34" x="26" y="104.3232">start()</text><polygon fill="#A80036" points="300,135.5313,310,139.5313,300,143.5313,304,139.5313" style="stroke:#A80036;stroke-width:1.0;"/><line style="stroke:#A80036;stroke-width:1.0;" x1="141" x2="306" y1="139.5313" y2="139.5313"/><text fill="#000000" font-family="sans-serif" font-size="13" font-weight="bold" lengthAdjust="spacing" textLength="7" x="148" y="134.6748">2</text><text fill="#000000" font-family="sans-serif" font-size="13" lengthAdjust="spacing" textLength="122" x="159" y="134.6748">in = getInputStream()</text><polygon fill="#A80036" points="300,195.8828,310,199.8828,300,203.8828,304,199.8828" style="stroke:#A80036;stroke-width:1.0;"/><line style="stroke:#A80036;stroke-width:1.0;" x1="141" x2="306" y1="199.8828" y2="199.8828"/><text fill="#000000" font-family="sans-serif" font-size="13" font-weight="bold" lengthAdjust="spacing" textLength="7" x="148" y="195.0264">3</text><text fill="#000000" font-family="sans-serif" font-size="13" lengthAdjust="spacing" textLength="141" x="159" y="195.0264">out = getOutputStream()</text><polygon fill="#A80036" points="363,256.2344,373,260.2344,363,264.2344,367,260.2344" style="stroke:#A80036;stroke-width:1.0;"/><line style="stroke:#A80036;stroke-width:1.0;" x1="141" x2="369" y1="260.2344" y2="260.2344"/><text fill="#000000" font-family="sans-serif" font-size="13" font-weight="bold" lengthAdjust="spacing" textLength="7" x="148" y="255.3779">4</text><text fill="#000000" font-family="sans-serif" font-size="13" lengthAdjust="spacing" textLength="54" x="159" y="255.3779">create(in)</text><rect fill="#FEFECE" filter="url(#f198yg1b69k4ra)" height="66.8281" style="stroke:#A80036;stroke-width:1.5;" width="107" x="375" y="237.8828"/><text fill="#000000" font-family="sans-serif" font-size="14" lengthAdjust="spacing" textLength="78" x="389.5" y="259.416">&lt;&lt;domain&gt;&gt;</text><text fill="#000000" font-family="sans-serif" font-size="14" lengthAdjust="spacing" textLength="52" x="402.5" y="277.0254">request:</text><text fill="#000000" font-family="sans-serif" font-size="14" lengthAdjust="spacing" textLength="93" x="382" y="294.6348">HTTPmessage</text><polygon fill="#A80036" points="484,338.0625,494,342.0625,484,346.0625,488,342.0625" style="stroke:#A80036;stroke-width:1.0;"/><line style="stroke:#A80036;stroke-width:1.0;" x1="141" x2="490" y1="342.0625" y2="342.0625"/><text fill="#000000" font-family="sans-serif" font-size="13" font-weight="bold" lengthAdjust="spacing" textLength="7" x="148" y="337.2061">5</text><text fill="#000000" font-family="sans-serif" font-size="13" lengthAdjust="spacing" textLength="44" x="159" y="337.2061">create()</text><rect fill="#FEFECE" filter="url(#f198yg1b69k4ra)" height="66.8281" style="stroke:#A80036;stroke-width:1.5;" width="107" x="496" y="319.7109"/><text fill="#000000" font-family="sans-serif" font-size="14" lengthAdjust="spacing" textLength="78" x="510.5" y="341.2441">&lt;&lt;domain&gt;&gt;</text><text fill="#000000" font-family="sans-serif" font-size="14" lengthAdjust="spacing" textLength="63" x="518" y="358.8535">response:</text><text fill="#000000" font-family="sans-serif" font-size="14" lengthAdjust="spacing" textLength="93" x="503" y="376.4629">HTTPmessage</text><path d="M20,433.8906 L81,433.8906 L81,441.8906 L71,451.8906 L20,451.8906 L20,433.8906 " fill="#EEEEEE" style="stroke:#000000;stroke-width:1.0;"/><rect fill="none" height="603.7344" style="stroke:#000000;stroke-width:2.0;" width="925" x="20" y="433.8906"/><text fill="#000000" font-family="sans-serif" font-size="13" font-weight="bold" lengthAdjust="spacing" textLength="16" x="35" y="448.3857">alt</text><text fill="#000000" font-family="sans-serif" font-size="11" font-weight="bold" lengthAdjust="spacing" textLength="218" x="96" y="447.3096">[if the request's URI is /dashboard_info]</text><polygon fill="#A80036" points="605,470.5938,615,474.5938,605,478.5938,609,474.5938" style="stroke:#A80036;stroke-width:1.0;"/><line style="stroke:#A80036;stroke-width:1.0;" x1="141" x2="611" y1="474.5938" y2="474.5938"/><text fill="#000000" font-family="sans-serif" font-size="13" font-weight="bold" lengthAdjust="spacing" textLength="7" x="148" y="469.7373">6</text><text fill="#000000" font-family="sans-serif" font-size="13" lengthAdjust="spacing" textLength="101" x="159" y="469.7373">create(username)</text><rect fill="#FEFECE" filter="url(#f198yg1b69k4ra)" height="49.2188" style="stroke:#A80036;stroke-width:1.5;" width="123" x="617" y="452.2422"/><text fill="#000000" font-family="sans-serif" font-size="14" lengthAdjust="spacing" textLength="65" x="646" y="473.7754">&lt;&lt;client&gt;&gt;</text><text fill="#000000" font-family="sans-serif" font-size="14" lengthAdjust="spacing" textLength="109" x="624" y="491.3848">ActivityFlowClient</text><polygon fill="#A80036" points="663.5,534.8125,673.5,538.8125,663.5,542.8125,667.5,538.8125" style="stroke:#A80036;stroke-width:1.0;"/><line style="stroke:#A80036;stroke-width:1.0;" x1="141" x2="669.5" y1="538.8125" y2="538.8125"/><text fill="#000000" font-family="sans-serif" font-size="13" font-weight="bold" lengthAdjust="spacing" textLength="7" x="148" y="533.9561">7</text><text fill="#000000" font-family="sans-serif" font-size="13" lengthAdjust="spacing" textLength="170" x="159" y="533.9561">strData = retrieveInformation()</text><polygon fill="#A80036" points="827.5,595.1641,837.5,599.1641,827.5,603.1641,831.5,599.1641" style="stroke:#A80036;stroke-width:1.0;"/><line style="stroke:#A80036;stroke-width:1.0;" x1="141" x2="833.5" y1="599.1641" y2="599.1641"/><text fill="#000000" font-family="sans-serif" font-size="13" font-weight="bold" lengthAdjust="spacing" textLength="7" x="148" y="594.3076">8</text><text fill="#000000" font-family="sans-serif" font-size="13" lengthAdjust="spacing" textLength="286" x="159" y="594.3076">content = getPendingTasksInHTML(strData, type)</text><polygon fill="#A80036" points="534.5,655.5156,544.5,659.5156,534.5,663.5156,538.5,659.5156" style="stroke:#A80036;stroke-width:1.0;"/><line style="stroke:#A80036;stroke-width:1.0;" x1="141" x2="540.5" y1="659.5156" y2="659.5156"/><text fill="#000000" font-family="sans-serif" font-size="13" font-weight="bold" lengthAdjust="spacing" textLength="7" x="148" y="654.6592">9</text><text fill="#000000" font-family="sans-serif" font-size="13" lengthAdjust="spacing" textLength="178" x="159" y="654.6592">setContentFromString(content)</text><polygon fill="#A80036" points="534.5,715.8672,544.5,719.8672,534.5,723.8672,538.5,719.8672" style="stroke:#A80036;stroke-width:1.0;"/><line style="stroke:#A80036;stroke-width:1.0;" x1="141" x2="540.5" y1="719.8672" y2="719.8672"/><text fill="#000000" font-family="sans-serif" font-size="13" font-weight="bold" lengthAdjust="spacing" textLength="14" x="148" y="715.0107">10</text><text fill="#000000" font-family="sans-serif" font-size="13" lengthAdjust="spacing" textLength="174" x="166" y="715.0107">setResponseStatus("200 Ok")</text><line style="stroke:#000000;stroke-width:1.0;stroke-dasharray:2.0,2.0;" x1="20" x2="945" y1="758.8672" y2="758.8672"/><path d="M30,766.8672 L91,766.8672 L91,774.8672 L81,784.8672 L30,784.8672 L30,766.8672 " fill="#EEEEEE" style="stroke:#000000;stroke-width:1.0;"/><rect fill="none" height="201.4063" style="stroke:#000000;stroke-width:2.0;" width="587" x="30" y="766.8672"/><text fill="#000000" font-family="sans-serif" font-size="13" font-weight="bold" lengthAdjust="spacing" textLength="16" x="45" y="781.3623">alt</text><text fill="#000000" font-family="sans-serif" font-size="11" font-weight="bold" lengthAdjust="spacing" textLength="135" x="106" y="780.2861">[if the request's URI is //]</text><polygon fill="#A80036" points="534.5,803.5703,544.5,807.5703,534.5,811.5703,538.5,807.5703" style="stroke:#A80036;stroke-width:1.0;"/><line style="stroke:#A80036;stroke-width:1.0;" x1="141" x2="540.5" y1="807.5703" y2="807.5703"/><text fill="#000000" font-family="sans-serif" font-size="13" font-weight="bold" lengthAdjust="spacing" textLength="14" x="148" y="802.7139">11</text><text fill="#000000" font-family="sans-serif" font-size="13" lengthAdjust="spacing" textLength="188" x="166" y="802.7139">setContentFromString(webPage)</text><polygon fill="#A80036" points="534.5,863.9219,544.5,867.9219,534.5,871.9219,538.5,867.9219" style="stroke:#A80036;stroke-width:1.0;"/><line style="stroke:#A80036;stroke-width:1.0;" x1="141" x2="540.5" y1="867.9219" y2="867.9219"/><text fill="#000000" font-family="sans-serif" font-size="13" font-weight="bold" lengthAdjust="spacing" textLength="14" x="148" y="863.0654">12</text><text fill="#000000" font-family="sans-serif" font-size="13" lengthAdjust="spacing" textLength="174" x="166" y="863.0654">setResponseStatus("200 Ok")</text><line style="stroke:#000000;stroke-width:1.0;stroke-dasharray:2.0,2.0;" x1="30" x2="617" y1="906.9219" y2="906.9219"/><polygon fill="#A80036" points="534.5,926.2734,544.5,930.2734,534.5,934.2734,538.5,930.2734" style="stroke:#A80036;stroke-width:1.0;"/><line style="stroke:#A80036;stroke-width:1.0;" x1="141" x2="540.5" y1="930.2734" y2="930.2734"/><text fill="#000000" font-family="sans-serif" font-size="13" font-weight="bold" lengthAdjust="spacing" textLength="14" x="148" y="925.417">13</text><text fill="#000000" font-family="sans-serif" font-size="13" lengthAdjust="spacing" textLength="217" x="166" y="925.417">setResponseStatus("404 Not Found")</text><line style="stroke:#000000;stroke-width:1.0;stroke-dasharray:2.0,2.0;" x1="20" x2="945" y1="976.2734" y2="976.2734"/><polygon fill="#A80036" points="534.5,995.625,544.5,999.625,534.5,1003.625,538.5,999.625" style="stroke:#A80036;stroke-width:1.0;"/><line style="stroke:#A80036;stroke-width:1.0;" x1="141" x2="540.5" y1="999.625" y2="999.625"/><text fill="#000000" font-family="sans-serif" font-size="13" font-weight="bold" lengthAdjust="spacing" textLength="14" x="148" y="994.7686">14</text><text fill="#000000" font-family="sans-serif" font-size="13" lengthAdjust="spacing" textLength="273" x="166" y="994.7686">setResponseStatus("405 Method Not Allowed")</text><polygon fill="#A80036" points="534.5,1062.9766,544.5,1066.9766,534.5,1070.9766,538.5,1066.9766" style="stroke:#A80036;stroke-width:1.0;"/><line style="stroke:#A80036;stroke-width:1.0;" x1="141" x2="540.5" y1="1066.9766" y2="1066.9766"/><text fill="#000000" font-family="sans-serif" font-size="13" font-weight="bold" lengthAdjust="spacing" textLength="14" x="148" y="1062.1201">15</text><text fill="#000000" font-family="sans-serif" font-size="13" lengthAdjust="spacing" textLength="54" x="166" y="1062.1201">send(out)</text><polygon fill="#A80036" points="300,1123.3281,310,1127.3281,300,1131.3281,304,1127.3281" style="stroke:#A80036;stroke-width:1.0;"/><line style="stroke:#A80036;stroke-width:1.0;" x1="141" x2="306" y1="1127.3281" y2="1127.3281"/><text fill="#000000" font-family="sans-serif" font-size="13" font-weight="bold" lengthAdjust="spacing" textLength="14" x="148" y="1122.4717">16</text><text fill="#000000" font-family="sans-serif" font-size="13" lengthAdjust="spacing" textLength="39" x="166" y="1122.4717">close()</text><!--MD5=[8c83d1e05b3d5ab9b620b1da18f6fb81]
@startuml
autonumber
hide footbox

participant "<<server>>\nHttpAjaxDashboardRequest" as RQ
participant "<<domain>>\nSocket" as S
participant "<<domain>>\nrequest:\nHTTPmessage" as HTTP
participant "<<domain>>\nresponse:\nHTTPmessage" as HTTP2
participant "<<client>>\nActivityFlowClient" as AF
participant "<<server>>\nHttpServerAjaxDashboard" as SRV

[o-> RQ : start()

activate RQ

RQ -> S : in = getInputStream()
activate S
deactivate S

RQ -> S : out = getOutputStream()
activate S
deactivate S

RQ -> HTTP** : create(in)
RQ -> HTTP2** : create()

alt if the request's method is GET

alt if the request's URI is /dashboard_info

RQ -> AF** : create(username)

RQ -> AF : strData = retrieveInformation()
activate AF
deactivate AF

RQ -> SRV : content = getPendingTasksInHTML(strData, type)
activate SRV
deactivate SRV

RQ -> HTTP2 : setContentFromString(content)
activate HTTP2
deactivate HTTP2

RQ -> HTTP2 : setResponseStatus("200 Ok")
activate HTTP2
deactivate HTTP2

else

alt if the request's URI is //

RQ -> HTTP2 : setContentFromString(webPage)
activate HTTP2
deactivate HTTP2

RQ -> HTTP2 : setResponseStatus("200 Ok")
activate HTTP2
deactivate HTTP2

else

RQ -> HTTP2 : setResponseStatus("404 Not Found")
activate HTTP2
deactivate HTTP2

end

else

RQ -> HTTP2 : setResponseStatus("405 Method Not Allowed")
activate HTTP2
deactivate HTTP2

end

RQ -> HTTP2 : send(out)
activate HTTP2
deactivate HTTP2

RQ -> S : close()
activate S
deactivate S

deactivate RQ

@enduml

PlantUML version 1.2021.5(Sun Apr 25 12:20:28 BST 2021)
(GPL source distribution)
Java Runtime: OpenJDK Runtime Environment
JVM: Dynamic Code Evolution 64-Bit Server VM
Default Encoding: Cp1252
Language: pt
Country: PT
--></g></svg>