<?xml version="1.0" encoding="UTF-8" standalone="no"?><svg xmlns="http://www.w3.org/2000/svg" xmlns:xlink="http://www.w3.org/1999/xlink" contentScriptType="application/ecmascript" contentStyleType="text/css" height="1077px" preserveAspectRatio="none" style="width:655px;height:1077px;" version="1.1" viewBox="0 0 655 1077" width="655px" zoomAndPan="magnify"><defs><filter height="300%" id="f1ath7yar6mg8o" width="300%" x="-1" y="-1"><feGaussianBlur result="blurOut" stdDeviation="2.0"/><feColorMatrix in="blurOut" result="blurOut2" type="matrix" values="0 0 0 0 0 0 0 0 0 0 0 0 0 0 0 0 0 0 .4 0"/><feOffset dx="4.0" dy="4.0" in="blurOut2" result="blurOut3"/><feBlend in="SourceGraphic" in2="blurOut3" mode="normal"/></filter></defs><g><rect fill="#FFFFFF" filter="url(#f1ath7yar6mg8o)" height="961.25" style="stroke:#A80036;stroke-width:1.0;" width="10" x="119.5" y="91.5703"/><rect fill="#FFFFFF" filter="url(#f1ath7yar6mg8o)" height="78.0547" style="stroke:#A80036;stroke-width:1.0;" width="10" x="382.5" y="229.4922"/><rect fill="#FFFFFF" filter="url(#f1ath7yar6mg8o)" height="30" style="stroke:#A80036;stroke-width:1.0;" width="10" x="382.5" y="363.25"/><rect fill="#FFFFFF" filter="url(#f1ath7yar6mg8o)" height="30" style="stroke:#A80036;stroke-width:1.0;" width="10" x="382.5" y="423.6016"/><rect fill="#FFFFFF" filter="url(#f1ath7yar6mg8o)" height="78.0547" style="stroke:#A80036;stroke-width:1.0;" width="10" x="382.5" y="483.9531"/><rect fill="#FFFFFF" filter="url(#f1ath7yar6mg8o)" height="78.0547" style="stroke:#A80036;stroke-width:1.0;" width="10" x="382.5" y="626.7109"/><rect fill="#FFFFFF" filter="url(#f1ath7yar6mg8o)" height="78.0547" style="stroke:#A80036;stroke-width:1.0;" width="10" x="382.5" y="750.9531"/><rect fill="#FFFFFF" filter="url(#f1ath7yar6mg8o)" height="78.0547" style="stroke:#A80036;stroke-width:1.0;" width="10" x="382.5" y="866.3594"/><rect fill="#FFFFFF" filter="url(#f1ath7yar6mg8o)" height="78.0547" style="stroke:#A80036;stroke-width:1.0;" width="10" x="382.5" y="974.7656"/><rect fill="#FFFFFF" filter="url(#f1ath7yar6mg8o)" height="249.4609" style="stroke:#000000;stroke-width:2.0;" width="506.5" x="10" y="322.5469"/><rect fill="#FFFFFF" height="2" style="stroke:none;stroke-width:1.0;" width="506.5" x="10" y="570.0078"/><rect fill="#FFFFFF" filter="url(#f1ath7yar6mg8o)" height="251" style="stroke:#000000;stroke-width:2.0;" width="506.5" x="10" y="586.0078"/><rect fill="#FFFFFF" height="124.2422" style="stroke:none;stroke-width:1.0;" width="506.5" x="10" y="712.7656"/><line style="stroke:#A80036;stroke-width:1.0;stroke-dasharray:5.0,5.0;" x1="124" x2="124" y1="59.2188" y2="1070.8203"/><line style="stroke:#A80036;stroke-width:1.0;stroke-dasharray:5.0,5.0;" x1="387.5" x2="387.5" y1="141.6797" y2="1070.8203"/><line style="stroke:#A80036;stroke-width:1.0;stroke-dasharray:5.0,5.0;" x1="580.5" x2="580.5" y1="59.2188" y2="1070.8203"/><rect fill="#FEFECE" filter="url(#f1ath7yar6mg8o)" height="49.2188" style="stroke:#A80036;stroke-width:1.5;" width="205" x="20" y="5"/><text fill="#000000" font-family="sans-serif" font-size="14" lengthAdjust="spacing" textLength="108" x="68.5" y="26.5332">&lt;&lt;boostrapers&gt;&gt;</text><text fill="#000000" font-family="sans-serif" font-size="14" lengthAdjust="spacing" textLength="191" x="27" y="44.1426">ServiceDraftTaskBootstrapper</text><rect fill="#FEFECE" filter="url(#f1ath7yar6mg8o)" height="49.2188" style="stroke:#A80036;stroke-width:1.5;" width="125" x="516.5" y="5"/><text fill="#000000" font-family="sans-serif" font-size="14" lengthAdjust="spacing" textLength="78" x="540" y="26.5332">&lt;&lt;domain&gt;&gt;</text><text fill="#000000" font-family="sans-serif" font-size="14" lengthAdjust="spacing" textLength="111" x="523.5" y="44.1426">draft:ServiceDraft</text><rect fill="#FFFFFF" filter="url(#f1ath7yar6mg8o)" height="961.25" style="stroke:#A80036;stroke-width:1.0;" width="10" x="119.5" y="91.5703"/><rect fill="#FFFFFF" filter="url(#f1ath7yar6mg8o)" height="78.0547" style="stroke:#A80036;stroke-width:1.0;" width="10" x="382.5" y="229.4922"/><rect fill="#FFFFFF" filter="url(#f1ath7yar6mg8o)" height="30" style="stroke:#A80036;stroke-width:1.0;" width="10" x="382.5" y="363.25"/><rect fill="#FFFFFF" filter="url(#f1ath7yar6mg8o)" height="30" style="stroke:#A80036;stroke-width:1.0;" width="10" x="382.5" y="423.6016"/><rect fill="#FFFFFF" filter="url(#f1ath7yar6mg8o)" height="78.0547" style="stroke:#A80036;stroke-width:1.0;" width="10" x="382.5" y="483.9531"/><rect fill="#FFFFFF" filter="url(#f1ath7yar6mg8o)" height="78.0547" style="stroke:#A80036;stroke-width:1.0;" width="10" x="382.5" y="626.7109"/><rect fill="#FFFFFF" filter="url(#f1ath7yar6mg8o)" height="78.0547" style="stroke:#A80036;stroke-width:1.0;" width="10" x="382.5" y="750.9531"/><rect fill="#FFFFFF" filter="url(#f1ath7yar6mg8o)" height="78.0547" style="stroke:#A80036;stroke-width:1.0;" width="10" x="382.5" y="866.3594"/><rect fill="#FFFFFF" filter="url(#f1ath7yar6mg8o)" height="78.0547" style="stroke:#A80036;stroke-width:1.0;" width="10" x="382.5" y="974.7656"/><ellipse cx="7.5" cy="90.8203" rx="4" ry="4" style="stroke:#A80036;stroke-width:1.5;fill:none;"/><polygon fill="#A80036" points="107.5,87.5703,117.5,91.5703,107.5,95.5703,111.5,91.5703" style="stroke:#A80036;stroke-width:1.0;"/><line style="stroke:#A80036;stroke-width:1.0;" x1="12" x2="113.5" y1="91.5703" y2="91.5703"/><text fill="#000000" font-family="sans-serif" font-size="13" font-weight="bold" lengthAdjust="spacing" textLength="7" x="15" y="86.7139">1</text><text fill="#000000" font-family="sans-serif" font-size="13" lengthAdjust="spacing" textLength="46" x="26" y="86.7139">execute</text><polygon fill="#A80036" points="256.5,117.9219,266.5,121.9219,256.5,125.9219,260.5,121.9219" style="stroke:#A80036;stroke-width:1.0;"/><line style="stroke:#A80036;stroke-width:1.0;" x1="129.5" x2="262.5" y1="121.9219" y2="121.9219"/><text fill="#000000" font-family="sans-serif" font-size="13" font-weight="bold" lengthAdjust="spacing" textLength="7" x="136.5" y="117.0654">2</text><text fill="#000000" font-family="sans-serif" font-size="13" lengthAdjust="spacing" textLength="44" x="147.5" y="117.0654">create()</text><rect fill="#FEFECE" filter="url(#f1ath7yar6mg8o)" height="49.2188" style="stroke:#A80036;stroke-width:1.5;" width="234" x="268.5" y="99.5703"/><text fill="#000000" font-family="sans-serif" font-size="14" lengthAdjust="spacing" textLength="92" x="339.5" y="121.1035">&lt;&lt;aplication&gt;&gt;</text><text fill="#000000" font-family="sans-serif" font-size="14" lengthAdjust="spacing" textLength="220" x="275.5" y="138.7129">ServiceDraftSpecificationController</text><line style="stroke:#A80036;stroke-width:1.0;" x1="129.5" x2="171.5" y1="186.1406" y2="186.1406"/><line style="stroke:#A80036;stroke-width:1.0;" x1="171.5" x2="171.5" y1="186.1406" y2="199.1406"/><line style="stroke:#A80036;stroke-width:1.0;" x1="130.5" x2="171.5" y1="199.1406" y2="199.1406"/><polygon fill="#A80036" points="140.5,195.1406,130.5,199.1406,140.5,203.1406,136.5,199.1406" style="stroke:#A80036;stroke-width:1.0;"/><text fill="#000000" font-family="sans-serif" font-size="13" font-weight="bold" lengthAdjust="spacing" textLength="7" x="136.5" y="181.2842">3</text><text fill="#000000" font-family="sans-serif" font-size="13" lengthAdjust="spacing" textLength="133" x="147.5" y="181.2842">draftTask(approvalFlag)</text><polygon fill="#A80036" points="370.5,225.4922,380.5,229.4922,370.5,233.4922,374.5,229.4922" style="stroke:#A80036;stroke-width:1.0;"/><line style="stroke:#A80036;stroke-width:1.0;" x1="129.5" x2="376.5" y1="229.4922" y2="229.4922"/><text fill="#000000" font-family="sans-serif" font-size="13" font-weight="bold" lengthAdjust="spacing" textLength="7" x="136.5" y="224.6357">4</text><text fill="#000000" font-family="sans-serif" font-size="13" lengthAdjust="spacing" textLength="58" x="147.5" y="224.6357">newDraft()</text><rect fill="#FFFFFF" filter="url(#f1ath7yar6mg8o)" height="42.7031" style="stroke:#000000;stroke-width:2.0;" width="309" x="265.5" y="237.4922"/><polygon fill="#EEEEEE" points="265.5,237.4922,327.5,237.4922,327.5,245.4922,317.5,255.4922,265.5,255.4922,265.5,237.4922" style="stroke:#000000;stroke-width:2.0;"/><text fill="#000000" font-family="sans-serif" font-size="13" font-weight="bold" lengthAdjust="spacing" textLength="17" x="278.5" y="252.9873">ref</text><text fill="#000000" font-family="sans-serif" font-size="13" lengthAdjust="spacing" textLength="301" x="271.5" y="272.9873">Code Sequence similar to US-1-2002_SD_DraftTask</text><polygon fill="#A80036" points="140.5,303.5469,130.5,307.5469,140.5,311.5469,136.5,307.5469" style="stroke:#A80036;stroke-width:1.0;"/><line style="stroke:#A80036;stroke-width:1.0;stroke-dasharray:2.0,2.0;" x1="134.5" x2="386.5" y1="307.5469" y2="307.5469"/><text fill="#000000" font-family="sans-serif" font-size="13" font-weight="bold" lengthAdjust="spacing" textLength="7" x="146.5" y="302.6904">5</text><text fill="#000000" font-family="sans-serif" font-size="13" lengthAdjust="spacing" textLength="25" x="157.5" y="302.6904">draft</text><path d="M10,322.5469 L71,322.5469 L71,330.5469 L61,340.5469 L10,340.5469 L10,322.5469 " fill="#EEEEEE" style="stroke:#000000;stroke-width:1.0;"/><rect fill="none" height="249.4609" style="stroke:#000000;stroke-width:2.0;" width="506.5" x="10" y="322.5469"/><text fill="#000000" font-family="sans-serif" font-size="13" font-weight="bold" lengthAdjust="spacing" textLength="16" x="25" y="337.042">alt</text><text fill="#000000" font-family="sans-serif" font-size="11" font-weight="bold" lengthAdjust="spacing" textLength="296" x="86" y="335.9658">[if the user wants to add an approval task to the draft]</text><polygon fill="#A80036" points="370.5,359.25,380.5,363.25,370.5,367.25,374.5,363.25" style="stroke:#A80036;stroke-width:1.0;"/><line style="stroke:#A80036;stroke-width:1.0;" x1="129.5" x2="376.5" y1="363.25" y2="363.25"/><text fill="#000000" font-family="sans-serif" font-size="13" font-weight="bold" lengthAdjust="spacing" textLength="7" x="136.5" y="358.3936">6</text><text fill="#000000" font-family="sans-serif" font-size="13" lengthAdjust="spacing" textLength="169" x="147.5" y="358.3936">addApprovalTask(description)</text><polygon fill="#A80036" points="370.5,419.6016,380.5,423.6016,370.5,427.6016,374.5,423.6016" style="stroke:#A80036;stroke-width:1.0;"/><line style="stroke:#A80036;stroke-width:1.0;" x1="129.5" x2="376.5" y1="423.6016" y2="423.6016"/><text fill="#000000" font-family="sans-serif" font-size="13" font-weight="bold" lengthAdjust="spacing" textLength="7" x="136.5" y="418.7451">7</text><text fill="#000000" font-family="sans-serif" font-size="13" lengthAdjust="spacing" textLength="147" x="147.5" y="418.7451">addApprovalTaskToDraft()</text><polygon fill="#A80036" points="370.5,479.9531,380.5,483.9531,370.5,487.9531,374.5,483.9531" style="stroke:#A80036;stroke-width:1.0;"/><line style="stroke:#A80036;stroke-width:1.0;" x1="129.5" x2="376.5" y1="483.9531" y2="483.9531"/><text fill="#000000" font-family="sans-serif" font-size="13" font-weight="bold" lengthAdjust="spacing" textLength="7" x="136.5" y="479.0967">8</text><text fill="#000000" font-family="sans-serif" font-size="13" lengthAdjust="spacing" textLength="111" x="147.5" y="479.0967">saveApprovalTask()</text><rect fill="#FFFFFF" filter="url(#f1ath7yar6mg8o)" height="42.7031" style="stroke:#000000;stroke-width:2.0;" width="309" x="265.5" y="491.9531"/><polygon fill="#EEEEEE" points="265.5,491.9531,327.5,491.9531,327.5,499.9531,317.5,509.9531,265.5,509.9531,265.5,491.9531" style="stroke:#000000;stroke-width:2.0;"/><text fill="#000000" font-family="sans-serif" font-size="13" font-weight="bold" lengthAdjust="spacing" textLength="17" x="278.5" y="507.4482">ref</text><text fill="#000000" font-family="sans-serif" font-size="13" lengthAdjust="spacing" textLength="301" x="271.5" y="527.4482">Code Sequence similar to US-1-2002_SD_DraftTask</text><polygon fill="#A80036" points="140.5,558.0078,130.5,562.0078,140.5,566.0078,136.5,562.0078" style="stroke:#A80036;stroke-width:1.0;"/><line style="stroke:#A80036;stroke-width:1.0;stroke-dasharray:2.0,2.0;" x1="134.5" x2="386.5" y1="562.0078" y2="562.0078"/><text fill="#000000" font-family="sans-serif" font-size="13" font-weight="bold" lengthAdjust="spacing" textLength="7" x="146.5" y="557.1514">9</text><text fill="#000000" font-family="sans-serif" font-size="13" lengthAdjust="spacing" textLength="25" x="157.5" y="557.1514">task</text><line style="stroke:#000000;stroke-width:1.0;stroke-dasharray:2.0,2.0;" x1="10" x2="516.5" y1="571.0078" y2="571.0078"/><path d="M10,586.0078 L71,586.0078 L71,594.0078 L61,604.0078 L10,604.0078 L10,586.0078 " fill="#EEEEEE" style="stroke:#000000;stroke-width:1.0;"/><rect fill="none" height="251" style="stroke:#000000;stroke-width:2.0;" width="506.5" x="10" y="586.0078"/><text fill="#000000" font-family="sans-serif" font-size="13" font-weight="bold" lengthAdjust="spacing" textLength="16" x="25" y="600.5029">alt</text><text fill="#000000" font-family="sans-serif" font-size="11" font-weight="bold" lengthAdjust="spacing" textLength="235" x="86" y="599.4268">[if the user pretends to add a manual task]</text><polygon fill="#A80036" points="370.5,622.7109,380.5,626.7109,370.5,630.7109,374.5,626.7109" style="stroke:#A80036;stroke-width:1.0;"/><line style="stroke:#A80036;stroke-width:1.0;" x1="129.5" x2="376.5" y1="626.7109" y2="626.7109"/><text fill="#000000" font-family="sans-serif" font-size="13" font-weight="bold" lengthAdjust="spacing" textLength="14" x="136.5" y="621.8545">10</text><text fill="#000000" font-family="sans-serif" font-size="13" lengthAdjust="spacing" textLength="197" x="154.5" y="621.8545">newManualTask(description, form)</text><rect fill="#FFFFFF" filter="url(#f1ath7yar6mg8o)" height="42.7031" style="stroke:#000000;stroke-width:2.0;" width="309" x="265.5" y="634.7109"/><polygon fill="#EEEEEE" points="265.5,634.7109,327.5,634.7109,327.5,642.7109,317.5,652.7109,265.5,652.7109,265.5,634.7109" style="stroke:#000000;stroke-width:2.0;"/><text fill="#000000" font-family="sans-serif" font-size="13" font-weight="bold" lengthAdjust="spacing" textLength="17" x="278.5" y="650.2061">ref</text><text fill="#000000" font-family="sans-serif" font-size="13" lengthAdjust="spacing" textLength="301" x="271.5" y="670.2061">Code Sequence similar to US-1-2002_SD_DraftTask</text><polygon fill="#A80036" points="140.5,700.7656,130.5,704.7656,140.5,708.7656,136.5,704.7656" style="stroke:#A80036;stroke-width:1.0;"/><line style="stroke:#A80036;stroke-width:1.0;stroke-dasharray:2.0,2.0;" x1="134.5" x2="386.5" y1="704.7656" y2="704.7656"/><text fill="#000000" font-family="sans-serif" font-size="13" font-weight="bold" lengthAdjust="spacing" textLength="14" x="146.5" y="699.9092">11</text><text fill="#000000" font-family="sans-serif" font-size="13" lengthAdjust="spacing" textLength="63" x="164.5" y="699.9092">manualTak</text><line style="stroke:#000000;stroke-width:1.0;stroke-dasharray:2.0,2.0;" x1="10" x2="516.5" y1="713.7656" y2="713.7656"/><text fill="#000000" font-family="sans-serif" font-size="11" font-weight="bold" lengthAdjust="spacing" textLength="256" x="15" y="725.1846">[if the user pretends to add an automatic task]</text><polygon fill="#A80036" points="370.5,746.9531,380.5,750.9531,370.5,754.9531,374.5,750.9531" style="stroke:#A80036;stroke-width:1.0;"/><line style="stroke:#A80036;stroke-width:1.0;" x1="129.5" x2="376.5" y1="750.9531" y2="750.9531"/><text fill="#000000" font-family="sans-serif" font-size="13" font-weight="bold" lengthAdjust="spacing" textLength="14" x="136.5" y="746.0967">12</text><text fill="#000000" font-family="sans-serif" font-size="13" lengthAdjust="spacing" textLength="216" x="154.5" y="746.0967">newAutoTask(description, scriptPath)</text><rect fill="#FFFFFF" filter="url(#f1ath7yar6mg8o)" height="42.7031" style="stroke:#000000;stroke-width:2.0;" width="309" x="265.5" y="758.9531"/><polygon fill="#EEEEEE" points="265.5,758.9531,327.5,758.9531,327.5,766.9531,317.5,776.9531,265.5,776.9531,265.5,758.9531" style="stroke:#000000;stroke-width:2.0;"/><text fill="#000000" font-family="sans-serif" font-size="13" font-weight="bold" lengthAdjust="spacing" textLength="17" x="278.5" y="774.4482">ref</text><text fill="#000000" font-family="sans-serif" font-size="13" lengthAdjust="spacing" textLength="301" x="271.5" y="794.4482">Code Sequence similar to US-1-2002_SD_DraftTask</text><polygon fill="#A80036" points="140.5,825.0078,130.5,829.0078,140.5,833.0078,136.5,829.0078" style="stroke:#A80036;stroke-width:1.0;"/><line style="stroke:#A80036;stroke-width:1.0;stroke-dasharray:2.0,2.0;" x1="134.5" x2="386.5" y1="829.0078" y2="829.0078"/><text fill="#000000" font-family="sans-serif" font-size="13" font-weight="bold" lengthAdjust="spacing" textLength="14" x="146.5" y="824.1514">13</text><text fill="#000000" font-family="sans-serif" font-size="13" lengthAdjust="spacing" textLength="53" x="164.5" y="824.1514">autoTask</text><polygon fill="#A80036" points="370.5,862.3594,380.5,866.3594,370.5,870.3594,374.5,866.3594" style="stroke:#A80036;stroke-width:1.0;"/><line style="stroke:#A80036;stroke-width:1.0;" x1="129.5" x2="376.5" y1="866.3594" y2="866.3594"/><text fill="#000000" font-family="sans-serif" font-size="13" font-weight="bold" lengthAdjust="spacing" textLength="14" x="136.5" y="861.5029">14</text><text fill="#000000" font-family="sans-serif" font-size="13" lengthAdjust="spacing" textLength="98" x="154.5" y="861.5029">addTaskToDraft()</text><rect fill="#FFFFFF" filter="url(#f1ath7yar6mg8o)" height="42.7031" style="stroke:#000000;stroke-width:2.0;" width="309" x="265.5" y="874.3594"/><polygon fill="#EEEEEE" points="265.5,874.3594,327.5,874.3594,327.5,882.3594,317.5,892.3594,265.5,892.3594,265.5,874.3594" style="stroke:#000000;stroke-width:2.0;"/><text fill="#000000" font-family="sans-serif" font-size="13" font-weight="bold" lengthAdjust="spacing" textLength="17" x="278.5" y="889.8545">ref</text><text fill="#000000" font-family="sans-serif" font-size="13" lengthAdjust="spacing" textLength="301" x="271.5" y="909.8545">Code Sequence similar to US-1-2002_SD_DraftTask</text><polygon fill="#A80036" points="140.5,940.4141,130.5,944.4141,140.5,948.4141,136.5,944.4141" style="stroke:#A80036;stroke-width:1.0;"/><line style="stroke:#A80036;stroke-width:1.0;stroke-dasharray:2.0,2.0;" x1="134.5" x2="386.5" y1="944.4141" y2="944.4141"/><text fill="#000000" font-family="sans-serif" font-size="13" font-weight="bold" lengthAdjust="spacing" textLength="14" x="146.5" y="939.5576">15</text><text fill="#000000" font-family="sans-serif" font-size="13" lengthAdjust="spacing" textLength="25" x="164.5" y="939.5576">draft</text><polygon fill="#A80036" points="370.5,970.7656,380.5,974.7656,370.5,978.7656,374.5,974.7656" style="stroke:#A80036;stroke-width:1.0;"/><line style="stroke:#A80036;stroke-width:1.0;" x1="129.5" x2="376.5" y1="974.7656" y2="974.7656"/><text fill="#000000" font-family="sans-serif" font-size="13" font-weight="bold" lengthAdjust="spacing" textLength="14" x="136.5" y="969.9092">16</text><text fill="#000000" font-family="sans-serif" font-size="13" lengthAdjust="spacing" textLength="89" x="154.5" y="969.9092">saveTaskDraft()</text><rect fill="#FFFFFF" filter="url(#f1ath7yar6mg8o)" height="42.7031" style="stroke:#000000;stroke-width:2.0;" width="309" x="265.5" y="982.7656"/><polygon fill="#EEEEEE" points="265.5,982.7656,327.5,982.7656,327.5,990.7656,317.5,1000.7656,265.5,1000.7656,265.5,982.7656" style="stroke:#000000;stroke-width:2.0;"/><text fill="#000000" font-family="sans-serif" font-size="13" font-weight="bold" lengthAdjust="spacing" textLength="17" x="278.5" y="998.2607">ref</text><text fill="#000000" font-family="sans-serif" font-size="13" lengthAdjust="spacing" textLength="301" x="271.5" y="1018.2607">Code Sequence similar to US-1-2002_SD_DraftTask</text><polygon fill="#A80036" points="135.5,1048.8203,125.5,1052.8203,135.5,1056.8203,131.5,1052.8203" style="stroke:#A80036;stroke-width:1.0;"/><line style="stroke:#A80036;stroke-width:1.0;stroke-dasharray:2.0,2.0;" x1="129.5" x2="386.5" y1="1052.8203" y2="1052.8203"/><text fill="#000000" font-family="sans-serif" font-size="13" font-weight="bold" lengthAdjust="spacing" textLength="14" x="141.5" y="1047.9639">17</text><text fill="#000000" font-family="sans-serif" font-size="13" lengthAdjust="spacing" textLength="25" x="159.5" y="1047.9639">draft</text><!--MD5=[7d7de31c287712c04bfb251cdb62b919]
@startuml
autonumber
hide footbox

participant "<<boostrapers>>\nServiceDraftTaskBootstrapper" as BOOT
participant "<<aplication>>\nServiceDraftSpecificationController" as CTRL
participant "<<domain>>\ndraft:ServiceDraft" as SER

[o-> BOOT : execute

activate BOOT
BOOT -> CTRL** : create()

BOOT -> BOOT : draftTask(approvalFlag)

BOOT -> CTRL : newDraft()
activate CTRL
ref over CTRL
Code Sequence similar to US-1-2002_SD_DraftTask
end ref
CTRL - -> BOOT : draft
deactivate CTRL

alt if the user wants to add an approval task to the draft
BOOT -> CTRL : addApprovalTask(description)
activate CTRL
deactivate CTRL

BOOT -> CTRL : addApprovalTaskToDraft()
activate CTRL
deactivate CTRL

BOOT -> CTRL : saveApprovalTask()
activate CTRL
ref over CTRL
Code Sequence similar to US-1-2002_SD_DraftTask
end ref
CTRL - -> BOOT : task
deactivate CTRL
else
deactivate CTRL
end

alt if the user pretends to add a manual task
BOOT -> CTRL : newManualTask(description, form)
activate CTRL
ref over CTRL
Code Sequence similar to US-1-2002_SD_DraftTask
end ref
CTRL - -> BOOT : manualTak
deactivate CTRL

else if the user pretends to add an automatic task
BOOT -> CTRL : newAutoTask(description, scriptPath)
activate CTRL
ref over CTRL
Code Sequence similar to US-1-2002_SD_DraftTask
end ref
CTRL - -> BOOT : autoTask
deactivate CTRL
end

BOOT -> CTRL : addTaskToDraft()
activate CTRL
ref over CTRL
Code Sequence similar to US-1-2002_SD_DraftTask
end ref
CTRL - -> BOOT : draft
deactivate CTRL

BOOT -> CTRL : saveTaskDraft()
activate CTRL
ref over CTRL
Code Sequence similar to US-1-2002_SD_DraftTask
end ref
CTRL - -> BOOT : draft
deactivate CTRL
deactivate BOOT

@enduml

PlantUML version 1.2021.5(Sun Apr 25 12:20:28 BST 2021)
(GPL source distribution)
Java Runtime: OpenJDK Runtime Environment
JVM: Dynamic Code Evolution 64-Bit Server VM
Default Encoding: Cp1252
Language: pt
Country: PT
--></g></svg>