<?xml version="1.0" encoding="UTF-8" standalone="no"?><svg xmlns="http://www.w3.org/2000/svg" xmlns:xlink="http://www.w3.org/1999/xlink" contentScriptType="application/ecmascript" contentStyleType="text/css" height="847px" preserveAspectRatio="none" style="width:704px;height:847px;" version="1.1" viewBox="0 0 704 847" width="704px" zoomAndPan="magnify"><defs><filter height="300%" id="f1n1zoik6zjn58" width="300%" x="-1" y="-1"><feGaussianBlur result="blurOut" stdDeviation="2.0"/><feColorMatrix in="blurOut" result="blurOut2" type="matrix" values="0 0 0 0 0 0 0 0 0 0 0 0 0 0 0 0 0 0 .4 0"/><feOffset dx="4.0" dy="4.0" in="blurOut2" result="blurOut3"/><feBlend in="SourceGraphic" in2="blurOut3" mode="normal"/></filter></defs><g><rect fill="#FFFFFF" filter="url(#f1n1zoik6zjn58)" height="731.0078" style="stroke:#A80036;stroke-width:1.0;" width="10" x="120.5" y="91.5703"/><rect fill="#FFFFFF" filter="url(#f1n1zoik6zjn58)" height="78.0547" style="stroke:#A80036;stroke-width:1.0;" width="10" x="431.5" y="262.1953"/><rect fill="#FFFFFF" filter="url(#f1n1zoik6zjn58)" height="78.0547" style="stroke:#A80036;stroke-width:1.0;" width="10" x="431.5" y="370.6016"/><rect fill="#FFFFFF" filter="url(#f1n1zoik6zjn58)" height="78.0547" style="stroke:#A80036;stroke-width:1.0;" width="10" x="431.5" y="520.7109"/><rect fill="#FFFFFF" filter="url(#f1n1zoik6zjn58)" height="78.0547" style="stroke:#A80036;stroke-width:1.0;" width="10" x="431.5" y="636.1172"/><rect fill="#FFFFFF" filter="url(#f1n1zoik6zjn58)" height="78.0547" style="stroke:#A80036;stroke-width:1.0;" width="10" x="431.5" y="744.5234"/><rect fill="#FFFFFF" filter="url(#f1n1zoik6zjn58)" height="143.1094" style="stroke:#000000;stroke-width:2.0;" width="555.5" x="10" y="463.6563"/><line style="stroke:#A80036;stroke-width:1.0;stroke-dasharray:5.0,5.0;" x1="125" x2="125" y1="59.2188" y2="840.5781"/><line style="stroke:#A80036;stroke-width:1.0;stroke-dasharray:5.0,5.0;" x1="436.5" x2="436.5" y1="141.6797" y2="840.5781"/><line style="stroke:#A80036;stroke-width:1.0;stroke-dasharray:5.0,5.0;" x1="629.5" x2="629.5" y1="59.2188" y2="840.5781"/><rect fill="#FEFECE" filter="url(#f1n1zoik6zjn58)" height="49.2188" style="stroke:#A80036;stroke-width:1.5;" width="207" x="20" y="5"/><text fill="#000000" font-family="sans-serif" font-size="14" lengthAdjust="spacing" textLength="108" x="69.5" y="26.5332">&lt;&lt;boostrapers&gt;&gt;</text><text fill="#000000" font-family="sans-serif" font-size="14" lengthAdjust="spacing" textLength="193" x="27" y="44.1426">ServiceDraftFormBootstrapper</text><rect fill="#FEFECE" filter="url(#f1n1zoik6zjn58)" height="49.2188" style="stroke:#A80036;stroke-width:1.5;" width="125" x="565.5" y="5"/><text fill="#000000" font-family="sans-serif" font-size="14" lengthAdjust="spacing" textLength="78" x="589" y="26.5332">&lt;&lt;domain&gt;&gt;</text><text fill="#000000" font-family="sans-serif" font-size="14" lengthAdjust="spacing" textLength="111" x="572.5" y="44.1426">draft:ServiceDraft</text><rect fill="#FFFFFF" filter="url(#f1n1zoik6zjn58)" height="731.0078" style="stroke:#A80036;stroke-width:1.0;" width="10" x="120.5" y="91.5703"/><rect fill="#FFFFFF" filter="url(#f1n1zoik6zjn58)" height="78.0547" style="stroke:#A80036;stroke-width:1.0;" width="10" x="431.5" y="262.1953"/><rect fill="#FFFFFF" filter="url(#f1n1zoik6zjn58)" height="78.0547" style="stroke:#A80036;stroke-width:1.0;" width="10" x="431.5" y="370.6016"/><rect fill="#FFFFFF" filter="url(#f1n1zoik6zjn58)" height="78.0547" style="stroke:#A80036;stroke-width:1.0;" width="10" x="431.5" y="520.7109"/><rect fill="#FFFFFF" filter="url(#f1n1zoik6zjn58)" height="78.0547" style="stroke:#A80036;stroke-width:1.0;" width="10" x="431.5" y="636.1172"/><rect fill="#FFFFFF" filter="url(#f1n1zoik6zjn58)" height="78.0547" style="stroke:#A80036;stroke-width:1.0;" width="10" x="431.5" y="744.5234"/><ellipse cx="7.5" cy="90.8203" rx="4" ry="4" style="stroke:#A80036;stroke-width:1.5;fill:none;"/><polygon fill="#A80036" points="108.5,87.5703,118.5,91.5703,108.5,95.5703,112.5,91.5703" style="stroke:#A80036;stroke-width:1.0;"/><line style="stroke:#A80036;stroke-width:1.0;" x1="12" x2="114.5" y1="91.5703" y2="91.5703"/><text fill="#000000" font-family="sans-serif" font-size="13" font-weight="bold" lengthAdjust="spacing" textLength="7" x="15" y="86.7139">1</text><text fill="#000000" font-family="sans-serif" font-size="13" lengthAdjust="spacing" textLength="46" x="26" y="86.7139">execute</text><polygon fill="#A80036" points="305.5,117.9219,315.5,121.9219,305.5,125.9219,309.5,121.9219" style="stroke:#A80036;stroke-width:1.0;"/><line style="stroke:#A80036;stroke-width:1.0;" x1="130.5" x2="311.5" y1="121.9219" y2="121.9219"/><text fill="#000000" font-family="sans-serif" font-size="13" font-weight="bold" lengthAdjust="spacing" textLength="7" x="137.5" y="117.0654">2</text><text fill="#000000" font-family="sans-serif" font-size="13" lengthAdjust="spacing" textLength="44" x="148.5" y="117.0654">create()</text><rect fill="#FEFECE" filter="url(#f1n1zoik6zjn58)" height="49.2188" style="stroke:#A80036;stroke-width:1.5;" width="234" x="317.5" y="99.5703"/><text fill="#000000" font-family="sans-serif" font-size="14" lengthAdjust="spacing" textLength="92" x="388.5" y="121.1035">&lt;&lt;aplication&gt;&gt;</text><text fill="#000000" font-family="sans-serif" font-size="14" lengthAdjust="spacing" textLength="220" x="324.5" y="138.7129">ServiceDraftSpecificationController</text><line style="stroke:#A80036;stroke-width:1.0;" x1="130.5" x2="172.5" y1="218.8438" y2="218.8438"/><line style="stroke:#A80036;stroke-width:1.0;" x1="172.5" x2="172.5" y1="218.8438" y2="231.8438"/><line style="stroke:#A80036;stroke-width:1.0;" x1="131.5" x2="172.5" y1="231.8438" y2="231.8438"/><polygon fill="#A80036" points="141.5,227.8438,131.5,231.8438,141.5,235.8438,137.5,231.8438" style="stroke:#A80036;stroke-width:1.0;"/><text fill="#000000" font-family="sans-serif" font-size="13" font-weight="bold" lengthAdjust="spacing" textLength="7" x="137.5" y="197.6357">3</text><text fill="#000000" font-family="sans-serif" font-size="13" lengthAdjust="spacing" textLength="183" x="148.5" y="181.2842">draftForm(formName, formType,</text><text fill="#000000" font-family="sans-serif" font-size="13" lengthAdjust="spacing" textLength="272" x="148.5" y="197.6357">lstNames, lstLabels, lstDescriptions, lstRegex,</text><text fill="#000000" font-family="sans-serif" font-size="13" lengthAdjust="spacing" textLength="136" x="148.5" y="213.9873">lstScripts, lstDataType)</text><polygon fill="#A80036" points="419.5,258.1953,429.5,262.1953,419.5,266.1953,423.5,262.1953" style="stroke:#A80036;stroke-width:1.0;"/><line style="stroke:#A80036;stroke-width:1.0;" x1="130.5" x2="425.5" y1="262.1953" y2="262.1953"/><text fill="#000000" font-family="sans-serif" font-size="13" font-weight="bold" lengthAdjust="spacing" textLength="7" x="137.5" y="257.3389">4</text><text fill="#000000" font-family="sans-serif" font-size="13" lengthAdjust="spacing" textLength="60" x="148.5" y="257.3389">getDrafts()</text><rect fill="#FFFFFF" filter="url(#f1n1zoik6zjn58)" height="42.7031" style="stroke:#000000;stroke-width:2.0;" width="311" x="314.5" y="270.1953"/><polygon fill="#EEEEEE" points="314.5,270.1953,376.5,270.1953,376.5,278.1953,366.5,288.1953,314.5,288.1953,314.5,270.1953" style="stroke:#000000;stroke-width:2.0;"/><text fill="#000000" font-family="sans-serif" font-size="13" font-weight="bold" lengthAdjust="spacing" textLength="17" x="327.5" y="285.6904">ref</text><text fill="#000000" font-family="sans-serif" font-size="13" lengthAdjust="spacing" textLength="303" x="320.5" y="305.6904">Code Sequence similar to US-1-2002_SD_DraftForm</text><polygon fill="#A80036" points="141.5,336.25,131.5,340.25,141.5,344.25,137.5,340.25" style="stroke:#A80036;stroke-width:1.0;"/><line style="stroke:#A80036;stroke-width:1.0;stroke-dasharray:2.0,2.0;" x1="135.5" x2="435.5" y1="340.25" y2="340.25"/><text fill="#000000" font-family="sans-serif" font-size="13" font-weight="bold" lengthAdjust="spacing" textLength="7" x="147.5" y="335.3936">5</text><text fill="#000000" font-family="sans-serif" font-size="13" lengthAdjust="spacing" textLength="32" x="158.5" y="335.3936">drafts</text><polygon fill="#A80036" points="419.5,366.6016,429.5,370.6016,419.5,374.6016,423.5,370.6016" style="stroke:#A80036;stroke-width:1.0;"/><line style="stroke:#A80036;stroke-width:1.0;" x1="130.5" x2="425.5" y1="370.6016" y2="370.6016"/><text fill="#000000" font-family="sans-serif" font-size="13" font-weight="bold" lengthAdjust="spacing" textLength="7" x="137.5" y="365.7451">6</text><text fill="#000000" font-family="sans-serif" font-size="13" lengthAdjust="spacing" textLength="212" x="148.5" y="365.7451">addForm(draft, formName, formType)</text><rect fill="#FFFFFF" filter="url(#f1n1zoik6zjn58)" height="42.7031" style="stroke:#000000;stroke-width:2.0;" width="311" x="314.5" y="378.6016"/><polygon fill="#EEEEEE" points="314.5,378.6016,376.5,378.6016,376.5,386.6016,366.5,396.6016,314.5,396.6016,314.5,378.6016" style="stroke:#000000;stroke-width:2.0;"/><text fill="#000000" font-family="sans-serif" font-size="13" font-weight="bold" lengthAdjust="spacing" textLength="17" x="327.5" y="394.0967">ref</text><text fill="#000000" font-family="sans-serif" font-size="13" lengthAdjust="spacing" textLength="303" x="320.5" y="414.0967">Code Sequence similar to US-1-2002_SD_DraftForm</text><polygon fill="#A80036" points="141.5,444.6563,131.5,448.6563,141.5,452.6563,137.5,448.6563" style="stroke:#A80036;stroke-width:1.0;"/><line style="stroke:#A80036;stroke-width:1.0;stroke-dasharray:2.0,2.0;" x1="135.5" x2="435.5" y1="448.6563" y2="448.6563"/><text fill="#000000" font-family="sans-serif" font-size="13" font-weight="bold" lengthAdjust="spacing" textLength="7" x="147.5" y="443.7998">7</text><text fill="#000000" font-family="sans-serif" font-size="13" lengthAdjust="spacing" textLength="25" x="158.5" y="443.7998">form</text><path d="M10,463.6563 L83,463.6563 L83,471.6563 L73,481.6563 L10,481.6563 L10,463.6563 " fill="#EEEEEE" style="stroke:#000000;stroke-width:1.0;"/><rect fill="none" height="143.1094" style="stroke:#000000;stroke-width:2.0;" width="555.5" x="10" y="463.6563"/><text fill="#000000" font-family="sans-serif" font-size="13" font-weight="bold" lengthAdjust="spacing" textLength="28" x="25" y="478.1514">loop</text><text fill="#000000" font-family="sans-serif" font-size="11" font-weight="bold" lengthAdjust="spacing" textLength="202" x="98" y="477.0752">[until there is no more forms to add]</text><polygon fill="#A80036" points="419.5,516.7109,429.5,520.7109,419.5,524.7109,423.5,520.7109" style="stroke:#A80036;stroke-width:1.0;"/><line style="stroke:#A80036;stroke-width:1.0;" x1="130.5" x2="425.5" y1="520.7109" y2="520.7109"/><text fill="#000000" font-family="sans-serif" font-size="13" font-weight="bold" lengthAdjust="spacing" textLength="7" x="137.5" y="507.6787">8</text><text fill="#000000" font-family="sans-serif" font-size="13" lengthAdjust="spacing" textLength="145" x="148.5" y="499.5029">addAttribute(name, label,</text><text fill="#000000" font-family="sans-serif" font-size="13" lengthAdjust="spacing" textLength="208" x="148.5" y="515.8545">description, regex, script, dataType)</text><rect fill="#FFFFFF" filter="url(#f1n1zoik6zjn58)" height="42.7031" style="stroke:#000000;stroke-width:2.0;" width="311" x="314.5" y="528.7109"/><polygon fill="#EEEEEE" points="314.5,528.7109,376.5,528.7109,376.5,536.7109,366.5,546.7109,314.5,546.7109,314.5,528.7109" style="stroke:#000000;stroke-width:2.0;"/><text fill="#000000" font-family="sans-serif" font-size="13" font-weight="bold" lengthAdjust="spacing" textLength="17" x="327.5" y="544.2061">ref</text><text fill="#000000" font-family="sans-serif" font-size="13" lengthAdjust="spacing" textLength="303" x="320.5" y="564.2061">Code Sequence similar to US-1-2002_SD_DraftForm</text><polygon fill="#A80036" points="141.5,594.7656,131.5,598.7656,141.5,602.7656,137.5,598.7656" style="stroke:#A80036;stroke-width:1.0;"/><line style="stroke:#A80036;stroke-width:1.0;stroke-dasharray:2.0,2.0;" x1="135.5" x2="435.5" y1="598.7656" y2="598.7656"/><text fill="#000000" font-family="sans-serif" font-size="13" font-weight="bold" lengthAdjust="spacing" textLength="7" x="147.5" y="593.9092">9</text><text fill="#000000" font-family="sans-serif" font-size="13" lengthAdjust="spacing" textLength="47" x="158.5" y="593.9092">attribute</text><polygon fill="#A80036" points="419.5,632.1172,429.5,636.1172,419.5,640.1172,423.5,636.1172" style="stroke:#A80036;stroke-width:1.0;"/><line style="stroke:#A80036;stroke-width:1.0;" x1="130.5" x2="425.5" y1="636.1172" y2="636.1172"/><text fill="#000000" font-family="sans-serif" font-size="13" font-weight="bold" lengthAdjust="spacing" textLength="14" x="137.5" y="631.2607">10</text><text fill="#000000" font-family="sans-serif" font-size="13" lengthAdjust="spacing" textLength="107" x="155.5" y="631.2607">addFormsToDraft()</text><rect fill="#FFFFFF" filter="url(#f1n1zoik6zjn58)" height="42.7031" style="stroke:#000000;stroke-width:2.0;" width="311" x="314.5" y="644.1172"/><polygon fill="#EEEEEE" points="314.5,644.1172,376.5,644.1172,376.5,652.1172,366.5,662.1172,314.5,662.1172,314.5,644.1172" style="stroke:#000000;stroke-width:2.0;"/><text fill="#000000" font-family="sans-serif" font-size="13" font-weight="bold" lengthAdjust="spacing" textLength="17" x="327.5" y="659.6123">ref</text><text fill="#000000" font-family="sans-serif" font-size="13" lengthAdjust="spacing" textLength="303" x="320.5" y="679.6123">Code Sequence similar to US-1-2002_SD_DraftForm</text><polygon fill="#A80036" points="141.5,710.1719,131.5,714.1719,141.5,718.1719,137.5,714.1719" style="stroke:#A80036;stroke-width:1.0;"/><line style="stroke:#A80036;stroke-width:1.0;stroke-dasharray:2.0,2.0;" x1="135.5" x2="435.5" y1="714.1719" y2="714.1719"/><text fill="#000000" font-family="sans-serif" font-size="13" font-weight="bold" lengthAdjust="spacing" textLength="14" x="147.5" y="709.3154">11</text><text fill="#000000" font-family="sans-serif" font-size="13" lengthAdjust="spacing" textLength="25" x="165.5" y="709.3154">draft</text><polygon fill="#A80036" points="419.5,740.5234,429.5,744.5234,419.5,748.5234,423.5,744.5234" style="stroke:#A80036;stroke-width:1.0;"/><line style="stroke:#A80036;stroke-width:1.0;" x1="130.5" x2="425.5" y1="744.5234" y2="744.5234"/><text fill="#000000" font-family="sans-serif" font-size="13" font-weight="bold" lengthAdjust="spacing" textLength="14" x="137.5" y="739.667">12</text><text fill="#000000" font-family="sans-serif" font-size="13" lengthAdjust="spacing" textLength="103" x="155.5" y="739.667">saveServiceDraft()</text><rect fill="#FFFFFF" filter="url(#f1n1zoik6zjn58)" height="42.7031" style="stroke:#000000;stroke-width:2.0;" width="311" x="314.5" y="752.5234"/><polygon fill="#EEEEEE" points="314.5,752.5234,376.5,752.5234,376.5,760.5234,366.5,770.5234,314.5,770.5234,314.5,752.5234" style="stroke:#000000;stroke-width:2.0;"/><text fill="#000000" font-family="sans-serif" font-size="13" font-weight="bold" lengthAdjust="spacing" textLength="17" x="327.5" y="768.0186">ref</text><text fill="#000000" font-family="sans-serif" font-size="13" lengthAdjust="spacing" textLength="303" x="320.5" y="788.0186">Code Sequence similar to US-1-2002_SD_DraftForm</text><polygon fill="#A80036" points="136.5,818.5781,126.5,822.5781,136.5,826.5781,132.5,822.5781" style="stroke:#A80036;stroke-width:1.0;"/><line style="stroke:#A80036;stroke-width:1.0;stroke-dasharray:2.0,2.0;" x1="130.5" x2="435.5" y1="822.5781" y2="822.5781"/><text fill="#000000" font-family="sans-serif" font-size="13" font-weight="bold" lengthAdjust="spacing" textLength="14" x="142.5" y="817.7217">13</text><text fill="#000000" font-family="sans-serif" font-size="13" lengthAdjust="spacing" textLength="25" x="160.5" y="817.7217">draft</text><!--MD5=[e1f14295431e1247f3fe7a4c5d4dc613]
@startuml
autonumber
hide footbox

participant "<<boostrapers>>\nServiceDraftFormBootstrapper" as BOOT
participant "<<aplication>>\nServiceDraftSpecificationController" as CTRL
participant "<<domain>>\ndraft:ServiceDraft" as SER

[o-> BOOT : execute

activate BOOT
BOOT -> CTRL** : create()

BOOT -> BOOT : draftForm(formName, formType, \nlstNames, lstLabels, lstDescriptions, lstRegex, \nlstScripts, lstDataType)

BOOT -> CTRL : getDrafts()
activate CTRL
ref over CTRL
Code Sequence similar to US-1-2002_SD_DraftForm
end ref
CTRL - -> BOOT : drafts
deactivate CTRL

BOOT -> CTRL : addForm(draft, formName, formType)
activate CTRL
ref over CTRL
Code Sequence similar to US-1-2002_SD_DraftForm
end ref
CTRL - -> BOOT : form
deactivate CTRL

loop until there is no more forms to add
BOOT -> CTRL : addAttribute(name, label, \ndescription, regex, script, dataType)
activate CTRL
ref over CTRL
Code Sequence similar to US-1-2002_SD_DraftForm
end ref
CTRL - -> BOOT : attribute
deactivate CTRL
end

BOOT -> CTRL : addFormsToDraft()
activate CTRL
ref over CTRL
Code Sequence similar to US-1-2002_SD_DraftForm
end ref
CTRL - -> BOOT : draft
deactivate CTRL

BOOT -> CTRL : saveServiceDraft()
activate CTRL
ref over CTRL
Code Sequence similar to US-1-2002_SD_DraftForm
end ref
CTRL - -> BOOT : draft
deactivate CTRL
deactivate BOOT

@enduml

PlantUML version 1.2021.5(Sun Apr 25 12:20:28 BST 2021)
(GPL source distribution)
Java Runtime: OpenJDK Runtime Environment
JVM: Dynamic Code Evolution 64-Bit Server VM
Default Encoding: Cp1252
Language: pt
Country: PT
--></g></svg>