<?xml version="1.0" encoding="UTF-8" standalone="no"?><svg xmlns="http://www.w3.org/2000/svg" xmlns:xlink="http://www.w3.org/1999/xlink" contentScriptType="application/ecmascript" contentStyleType="text/css" height="1097px" preserveAspectRatio="none" style="width:662px;height:1097px;" version="1.1" viewBox="0 0 662 1097" width="662px" zoomAndPan="magnify"><defs><filter height="300%" id="fwj76mej5x86q" width="300%" x="-1" y="-1"><feGaussianBlur result="blurOut" stdDeviation="2.0"/><feColorMatrix in="blurOut" result="blurOut2" type="matrix" values="0 0 0 0 0 0 0 0 0 0 0 0 0 0 0 0 0 0 .4 0"/><feOffset dx="4.0" dy="4.0" in="blurOut2" result="blurOut3"/><feBlend in="SourceGraphic" in2="blurOut3" mode="normal"/></filter></defs><g><rect fill="#FFFFFF" filter="url(#fwj76mej5x86q)" height="980.7109" style="stroke:#A80036;stroke-width:1.0;" width="10" x="129.5" y="91.5703"/><rect fill="#FFFFFF" filter="url(#fwj76mej5x86q)" height="78.0547" style="stroke:#A80036;stroke-width:1.0;" width="10" x="389.5" y="229.4922"/><rect fill="#FFFFFF" filter="url(#fwj76mej5x86q)" height="30" style="stroke:#A80036;stroke-width:1.0;" width="10" x="389.5" y="431.9531"/><rect fill="#FFFFFF" filter="url(#fwj76mej5x86q)" height="30" style="stroke:#A80036;stroke-width:1.0;" width="10" x="389.5" y="542.0078"/><rect fill="#FFFFFF" filter="url(#fwj76mej5x86q)" height="30" style="stroke:#A80036;stroke-width:1.0;" width="10" x="389.5" y="652.0625"/><rect fill="#FFFFFF" filter="url(#fwj76mej5x86q)" height="30" style="stroke:#A80036;stroke-width:1.0;" width="10" x="389.5" y="762.1172"/><rect fill="#FFFFFF" filter="url(#fwj76mej5x86q)" height="30" style="stroke:#A80036;stroke-width:1.0;" width="10" x="389.5" y="872.1719"/><rect fill="#FFFFFF" filter="url(#fwj76mej5x86q)" height="78.0547" style="stroke:#A80036;stroke-width:1.0;" width="10" x="389.5" y="994.2266"/><rect fill="#FFFFFF" filter="url(#fwj76mej5x86q)" height="642.3281" style="stroke:#000000;stroke-width:2.0;" width="523.5" x="10" y="322.5469"/><rect fill="#FFFFFF" filter="url(#fwj76mej5x86q)" height="566.625" style="stroke:#000000;stroke-width:2.0;" width="503.5" x="20" y="391.25"/><rect fill="#FFFFFF" height="110.0547" style="stroke:none;stroke-width:1.0;" width="503.5" x="20" y="517.6563"/><rect fill="#FFFFFF" height="110.0547" style="stroke:none;stroke-width:1.0;" width="503.5" x="20" y="627.7109"/><rect fill="#FFFFFF" height="110.0547" style="stroke:none;stroke-width:1.0;" width="503.5" x="20" y="737.7656"/><rect fill="#FFFFFF" height="110.0547" style="stroke:none;stroke-width:1.0;" width="503.5" x="20" y="847.8203"/><line style="stroke:#A80036;stroke-width:1.0;stroke-dasharray:5.0,5.0;" x1="134" x2="134" y1="59.2188" y2="1090.2813"/><line style="stroke:#A80036;stroke-width:1.0;stroke-dasharray:5.0,5.0;" x1="394.5" x2="394.5" y1="141.6797" y2="1090.2813"/><line style="stroke:#A80036;stroke-width:1.0;stroke-dasharray:5.0,5.0;" x1="587.5" x2="587.5" y1="59.2188" y2="1090.2813"/><rect fill="#FEFECE" filter="url(#fwj76mej5x86q)" height="49.2188" style="stroke:#A80036;stroke-width:1.5;" width="205" x="30" y="5"/><text fill="#000000" font-family="sans-serif" font-size="14" lengthAdjust="spacing" textLength="108" x="78.5" y="26.5332">&lt;&lt;boostrapers&gt;&gt;</text><text fill="#000000" font-family="sans-serif" font-size="14" lengthAdjust="spacing" textLength="191" x="37" y="44.1426">ServiceDraftFieldBootstrapper</text><rect fill="#FEFECE" filter="url(#fwj76mej5x86q)" height="49.2188" style="stroke:#A80036;stroke-width:1.5;" width="125" x="523.5" y="5"/><text fill="#000000" font-family="sans-serif" font-size="14" lengthAdjust="spacing" textLength="78" x="547" y="26.5332">&lt;&lt;domain&gt;&gt;</text><text fill="#000000" font-family="sans-serif" font-size="14" lengthAdjust="spacing" textLength="111" x="530.5" y="44.1426">draft:ServiceDraft</text><rect fill="#FFFFFF" filter="url(#fwj76mej5x86q)" height="980.7109" style="stroke:#A80036;stroke-width:1.0;" width="10" x="129.5" y="91.5703"/><rect fill="#FFFFFF" filter="url(#fwj76mej5x86q)" height="78.0547" style="stroke:#A80036;stroke-width:1.0;" width="10" x="389.5" y="229.4922"/><rect fill="#FFFFFF" filter="url(#fwj76mej5x86q)" height="30" style="stroke:#A80036;stroke-width:1.0;" width="10" x="389.5" y="431.9531"/><rect fill="#FFFFFF" filter="url(#fwj76mej5x86q)" height="30" style="stroke:#A80036;stroke-width:1.0;" width="10" x="389.5" y="542.0078"/><rect fill="#FFFFFF" filter="url(#fwj76mej5x86q)" height="30" style="stroke:#A80036;stroke-width:1.0;" width="10" x="389.5" y="652.0625"/><rect fill="#FFFFFF" filter="url(#fwj76mej5x86q)" height="30" style="stroke:#A80036;stroke-width:1.0;" width="10" x="389.5" y="762.1172"/><rect fill="#FFFFFF" filter="url(#fwj76mej5x86q)" height="30" style="stroke:#A80036;stroke-width:1.0;" width="10" x="389.5" y="872.1719"/><rect fill="#FFFFFF" filter="url(#fwj76mej5x86q)" height="78.0547" style="stroke:#A80036;stroke-width:1.0;" width="10" x="389.5" y="994.2266"/><ellipse cx="7.5" cy="90.8203" rx="4" ry="4" style="stroke:#A80036;stroke-width:1.5;fill:none;"/><polygon fill="#A80036" points="117.5,87.5703,127.5,91.5703,117.5,95.5703,121.5,91.5703" style="stroke:#A80036;stroke-width:1.0;"/><line style="stroke:#A80036;stroke-width:1.0;" x1="12" x2="123.5" y1="91.5703" y2="91.5703"/><text fill="#000000" font-family="sans-serif" font-size="13" font-weight="bold" lengthAdjust="spacing" textLength="7" x="15" y="86.7139">1</text><text fill="#000000" font-family="sans-serif" font-size="13" lengthAdjust="spacing" textLength="46" x="26" y="86.7139">execute</text><polygon fill="#A80036" points="263.5,117.9219,273.5,121.9219,263.5,125.9219,267.5,121.9219" style="stroke:#A80036;stroke-width:1.0;"/><line style="stroke:#A80036;stroke-width:1.0;" x1="139.5" x2="269.5" y1="121.9219" y2="121.9219"/><text fill="#000000" font-family="sans-serif" font-size="13" font-weight="bold" lengthAdjust="spacing" textLength="7" x="146.5" y="117.0654">2</text><text fill="#000000" font-family="sans-serif" font-size="13" lengthAdjust="spacing" textLength="44" x="157.5" y="117.0654">create()</text><rect fill="#FEFECE" filter="url(#fwj76mej5x86q)" height="49.2188" style="stroke:#A80036;stroke-width:1.5;" width="234" x="275.5" y="99.5703"/><text fill="#000000" font-family="sans-serif" font-size="14" lengthAdjust="spacing" textLength="92" x="346.5" y="121.1035">&lt;&lt;aplication&gt;&gt;</text><text fill="#000000" font-family="sans-serif" font-size="14" lengthAdjust="spacing" textLength="220" x="282.5" y="138.7129">ServiceDraftSpecificationController</text><line style="stroke:#A80036;stroke-width:1.0;" x1="139.5" x2="181.5" y1="186.1406" y2="186.1406"/><line style="stroke:#A80036;stroke-width:1.0;" x1="181.5" x2="181.5" y1="186.1406" y2="199.1406"/><line style="stroke:#A80036;stroke-width:1.0;" x1="140.5" x2="181.5" y1="199.1406" y2="199.1406"/><polygon fill="#A80036" points="150.5,195.1406,140.5,199.1406,150.5,203.1406,146.5,199.1406" style="stroke:#A80036;stroke-width:1.0;"/><text fill="#000000" font-family="sans-serif" font-size="13" font-weight="bold" lengthAdjust="spacing" textLength="7" x="146.5" y="181.2842">3</text><text fill="#000000" font-family="sans-serif" font-size="13" lengthAdjust="spacing" textLength="225" x="157.5" y="181.2842">draftField(lstOp, lstField,  lstKeywords)</text><polygon fill="#A80036" points="377.5,225.4922,387.5,229.4922,377.5,233.4922,381.5,229.4922" style="stroke:#A80036;stroke-width:1.0;"/><line style="stroke:#A80036;stroke-width:1.0;" x1="139.5" x2="383.5" y1="229.4922" y2="229.4922"/><text fill="#000000" font-family="sans-serif" font-size="13" font-weight="bold" lengthAdjust="spacing" textLength="7" x="146.5" y="224.6357">4</text><text fill="#000000" font-family="sans-serif" font-size="13" lengthAdjust="spacing" textLength="58" x="157.5" y="224.6357">newDraft()</text><rect fill="#FFFFFF" filter="url(#fwj76mej5x86q)" height="42.7031" style="stroke:#000000;stroke-width:2.0;" width="309" x="272.5" y="237.4922"/><polygon fill="#EEEEEE" points="272.5,237.4922,334.5,237.4922,334.5,245.4922,324.5,255.4922,272.5,255.4922,272.5,237.4922" style="stroke:#000000;stroke-width:2.0;"/><text fill="#000000" font-family="sans-serif" font-size="13" font-weight="bold" lengthAdjust="spacing" textLength="17" x="285.5" y="252.9873">ref</text><text fill="#000000" font-family="sans-serif" font-size="13" lengthAdjust="spacing" textLength="301" x="278.5" y="272.9873">Code Sequence similar to US-1-2002_SD_DraftField</text><polygon fill="#A80036" points="150.5,303.5469,140.5,307.5469,150.5,311.5469,146.5,307.5469" style="stroke:#A80036;stroke-width:1.0;"/><line style="stroke:#A80036;stroke-width:1.0;stroke-dasharray:2.0,2.0;" x1="144.5" x2="393.5" y1="307.5469" y2="307.5469"/><text fill="#000000" font-family="sans-serif" font-size="13" font-weight="bold" lengthAdjust="spacing" textLength="7" x="156.5" y="302.6904">5</text><text fill="#000000" font-family="sans-serif" font-size="13" lengthAdjust="spacing" textLength="25" x="167.5" y="302.6904">draft</text><path d="M10,322.5469 L83,322.5469 L83,330.5469 L73,340.5469 L10,340.5469 L10,322.5469 " fill="#EEEEEE" style="stroke:#000000;stroke-width:1.0;"/><rect fill="none" height="642.3281" style="stroke:#000000;stroke-width:2.0;" width="523.5" x="10" y="322.5469"/><text fill="#000000" font-family="sans-serif" font-size="13" font-weight="bold" lengthAdjust="spacing" textLength="28" x="25" y="337.042">loop</text><text fill="#000000" font-family="sans-serif" font-size="11" font-weight="bold" lengthAdjust="spacing" textLength="199" x="98" y="335.9658">[until there is no more fields to add]</text><line style="stroke:#A80036;stroke-width:1.0;" x1="139.5" x2="181.5" y1="363.25" y2="363.25"/><line style="stroke:#A80036;stroke-width:1.0;" x1="181.5" x2="181.5" y1="363.25" y2="376.25"/><line style="stroke:#A80036;stroke-width:1.0;" x1="140.5" x2="181.5" y1="376.25" y2="376.25"/><polygon fill="#A80036" points="150.5,372.25,140.5,376.25,150.5,380.25,146.5,376.25" style="stroke:#A80036;stroke-width:1.0;"/><text fill="#000000" font-family="sans-serif" font-size="13" font-weight="bold" lengthAdjust="spacing" textLength="7" x="146.5" y="358.3936">6</text><text fill="#000000" font-family="sans-serif" font-size="13" lengthAdjust="spacing" textLength="214" x="157.5" y="358.3936">addField(draft, op, field, lstKeywords)</text><path d="M20,391.25 L81,391.25 L81,399.25 L71,409.25 L20,409.25 L20,391.25 " fill="#EEEEEE" style="stroke:#000000;stroke-width:1.0;"/><rect fill="none" height="566.625" style="stroke:#000000;stroke-width:2.0;" width="503.5" x="20" y="391.25"/><text fill="#000000" font-family="sans-serif" font-size="13" font-weight="bold" lengthAdjust="spacing" textLength="16" x="35" y="405.7451">alt</text><text fill="#000000" font-family="sans-serif" font-size="11" font-weight="bold" lengthAdjust="spacing" textLength="90" x="96" y="404.6689">[if the op is title]</text><polygon fill="#A80036" points="377.5,427.9531,387.5,431.9531,377.5,435.9531,381.5,431.9531" style="stroke:#A80036;stroke-width:1.0;"/><line style="stroke:#A80036;stroke-width:1.0;" x1="139.5" x2="383.5" y1="431.9531" y2="431.9531"/><text fill="#000000" font-family="sans-serif" font-size="13" font-weight="bold" lengthAdjust="spacing" textLength="7" x="146.5" y="427.0967">7</text><text fill="#000000" font-family="sans-serif" font-size="13" lengthAdjust="spacing" textLength="109" x="157.5" y="427.0967">addTitle(draft, field)</text><rect fill="#FFFFFF" filter="url(#fwj76mej5x86q)" height="42.7031" style="stroke:#000000;stroke-width:2.0;" width="309" x="272.5" y="469.9531"/><polygon fill="#EEEEEE" points="272.5,469.9531,334.5,469.9531,334.5,477.9531,324.5,487.9531,272.5,487.9531,272.5,469.9531" style="stroke:#000000;stroke-width:2.0;"/><text fill="#000000" font-family="sans-serif" font-size="13" font-weight="bold" lengthAdjust="spacing" textLength="17" x="285.5" y="485.4482">ref</text><text fill="#000000" font-family="sans-serif" font-size="13" lengthAdjust="spacing" textLength="301" x="278.5" y="505.4482">Code Sequence similar to US-1-2002_SD_DraftField</text><line style="stroke:#000000;stroke-width:1.0;stroke-dasharray:2.0,2.0;" x1="20" x2="523.5" y1="518.6563" y2="518.6563"/><polygon fill="#A80036" points="377.5,538.0078,387.5,542.0078,377.5,546.0078,381.5,542.0078" style="stroke:#A80036;stroke-width:1.0;"/><line style="stroke:#A80036;stroke-width:1.0;" x1="139.5" x2="383.5" y1="542.0078" y2="542.0078"/><text fill="#000000" font-family="sans-serif" font-size="13" font-weight="bold" lengthAdjust="spacing" textLength="7" x="146.5" y="537.1514">8</text><text fill="#000000" font-family="sans-serif" font-size="13" lengthAdjust="spacing" textLength="176" x="157.5" y="537.1514">addBriefDescription(draft, field)</text><rect fill="#FFFFFF" filter="url(#fwj76mej5x86q)" height="42.7031" style="stroke:#000000;stroke-width:2.0;" width="309" x="272.5" y="580.0078"/><polygon fill="#EEEEEE" points="272.5,580.0078,334.5,580.0078,334.5,588.0078,324.5,598.0078,272.5,598.0078,272.5,580.0078" style="stroke:#000000;stroke-width:2.0;"/><text fill="#000000" font-family="sans-serif" font-size="13" font-weight="bold" lengthAdjust="spacing" textLength="17" x="285.5" y="595.5029">ref</text><text fill="#000000" font-family="sans-serif" font-size="13" lengthAdjust="spacing" textLength="301" x="278.5" y="615.5029">Code Sequence similar to US-1-2002_SD_DraftField</text><line style="stroke:#000000;stroke-width:1.0;stroke-dasharray:2.0,2.0;" x1="20" x2="523.5" y1="628.7109" y2="628.7109"/><polygon fill="#A80036" points="377.5,648.0625,387.5,652.0625,377.5,656.0625,381.5,652.0625" style="stroke:#A80036;stroke-width:1.0;"/><line style="stroke:#A80036;stroke-width:1.0;" x1="139.5" x2="383.5" y1="652.0625" y2="652.0625"/><text fill="#000000" font-family="sans-serif" font-size="13" font-weight="bold" lengthAdjust="spacing" textLength="7" x="146.5" y="647.2061">9</text><text fill="#000000" font-family="sans-serif" font-size="13" lengthAdjust="spacing" textLength="205" x="157.5" y="647.2061">addCompleteDescription(draft, field)</text><rect fill="#FFFFFF" filter="url(#fwj76mej5x86q)" height="42.7031" style="stroke:#000000;stroke-width:2.0;" width="309" x="272.5" y="690.0625"/><polygon fill="#EEEEEE" points="272.5,690.0625,334.5,690.0625,334.5,698.0625,324.5,708.0625,272.5,708.0625,272.5,690.0625" style="stroke:#000000;stroke-width:2.0;"/><text fill="#000000" font-family="sans-serif" font-size="13" font-weight="bold" lengthAdjust="spacing" textLength="17" x="285.5" y="705.5576">ref</text><text fill="#000000" font-family="sans-serif" font-size="13" lengthAdjust="spacing" textLength="301" x="278.5" y="725.5576">Code Sequence similar to US-1-2002_SD_DraftField</text><line style="stroke:#000000;stroke-width:1.0;stroke-dasharray:2.0,2.0;" x1="20" x2="523.5" y1="738.7656" y2="738.7656"/><polygon fill="#A80036" points="377.5,758.1172,387.5,762.1172,377.5,766.1172,381.5,762.1172" style="stroke:#A80036;stroke-width:1.0;"/><line style="stroke:#A80036;stroke-width:1.0;" x1="139.5" x2="383.5" y1="762.1172" y2="762.1172"/><text fill="#000000" font-family="sans-serif" font-size="13" font-weight="bold" lengthAdjust="spacing" textLength="14" x="146.5" y="757.2607">10</text><text fill="#000000" font-family="sans-serif" font-size="13" lengthAdjust="spacing" textLength="204" x="164.5" y="757.2607">addKeywordList(draft, lstKeywords)</text><rect fill="#FFFFFF" filter="url(#fwj76mej5x86q)" height="42.7031" style="stroke:#000000;stroke-width:2.0;" width="309" x="272.5" y="800.1172"/><polygon fill="#EEEEEE" points="272.5,800.1172,334.5,800.1172,334.5,808.1172,324.5,818.1172,272.5,818.1172,272.5,800.1172" style="stroke:#000000;stroke-width:2.0;"/><text fill="#000000" font-family="sans-serif" font-size="13" font-weight="bold" lengthAdjust="spacing" textLength="17" x="285.5" y="815.6123">ref</text><text fill="#000000" font-family="sans-serif" font-size="13" lengthAdjust="spacing" textLength="301" x="278.5" y="835.6123">Code Sequence similar to US-1-2002_SD_DraftField</text><line style="stroke:#000000;stroke-width:1.0;stroke-dasharray:2.0,2.0;" x1="20" x2="523.5" y1="848.8203" y2="848.8203"/><polygon fill="#A80036" points="377.5,868.1719,387.5,872.1719,377.5,876.1719,381.5,872.1719" style="stroke:#A80036;stroke-width:1.0;"/><line style="stroke:#A80036;stroke-width:1.0;" x1="139.5" x2="383.5" y1="872.1719" y2="872.1719"/><text fill="#000000" font-family="sans-serif" font-size="13" font-weight="bold" lengthAdjust="spacing" textLength="14" x="146.5" y="867.3154">11</text><text fill="#000000" font-family="sans-serif" font-size="13" lengthAdjust="spacing" textLength="142" x="164.5" y="867.3154">addFeedback(draft, field)</text><rect fill="#FFFFFF" filter="url(#fwj76mej5x86q)" height="42.7031" style="stroke:#000000;stroke-width:2.0;" width="309" x="272.5" y="910.1719"/><polygon fill="#EEEEEE" points="272.5,910.1719,334.5,910.1719,334.5,918.1719,324.5,928.1719,272.5,928.1719,272.5,910.1719" style="stroke:#000000;stroke-width:2.0;"/><text fill="#000000" font-family="sans-serif" font-size="13" font-weight="bold" lengthAdjust="spacing" textLength="17" x="285.5" y="925.667">ref</text><text fill="#000000" font-family="sans-serif" font-size="13" lengthAdjust="spacing" textLength="301" x="278.5" y="945.667">Code Sequence similar to US-1-2002_SD_DraftField</text><polygon fill="#A80036" points="377.5,990.2266,387.5,994.2266,377.5,998.2266,381.5,994.2266" style="stroke:#A80036;stroke-width:1.0;"/><line style="stroke:#A80036;stroke-width:1.0;" x1="139.5" x2="383.5" y1="994.2266" y2="994.2266"/><text fill="#000000" font-family="sans-serif" font-size="13" font-weight="bold" lengthAdjust="spacing" textLength="14" x="146.5" y="989.3701">12</text><text fill="#000000" font-family="sans-serif" font-size="13" lengthAdjust="spacing" textLength="103" x="164.5" y="989.3701">saveServiceDraft()</text><rect fill="#FFFFFF" filter="url(#fwj76mej5x86q)" height="42.7031" style="stroke:#000000;stroke-width:2.0;" width="309" x="272.5" y="1002.2266"/><polygon fill="#EEEEEE" points="272.5,1002.2266,334.5,1002.2266,334.5,1010.2266,324.5,1020.2266,272.5,1020.2266,272.5,1002.2266" style="stroke:#000000;stroke-width:2.0;"/><text fill="#000000" font-family="sans-serif" font-size="13" font-weight="bold" lengthAdjust="spacing" textLength="17" x="285.5" y="1017.7217">ref</text><text fill="#000000" font-family="sans-serif" font-size="13" lengthAdjust="spacing" textLength="301" x="278.5" y="1037.7217">Code Sequence similar to US-1-2002_SD_DraftField</text><polygon fill="#A80036" points="145.5,1068.2813,135.5,1072.2813,145.5,1076.2813,141.5,1072.2813" style="stroke:#A80036;stroke-width:1.0;"/><line style="stroke:#A80036;stroke-width:1.0;stroke-dasharray:2.0,2.0;" x1="139.5" x2="393.5" y1="1072.2813" y2="1072.2813"/><text fill="#000000" font-family="sans-serif" font-size="13" font-weight="bold" lengthAdjust="spacing" textLength="14" x="151.5" y="1067.4248">13</text><text fill="#000000" font-family="sans-serif" font-size="13" lengthAdjust="spacing" textLength="25" x="169.5" y="1067.4248">draft</text><!--MD5=[4ab1a200ab553865ccc6c172de29caec]
@startuml
autonumber
hide footbox

participant "<<boostrapers>>\nServiceDraftFieldBootstrapper" as BOOT
participant "<<aplication>>\nServiceDraftSpecificationController" as CTRL
participant "<<domain>>\ndraft:ServiceDraft" as SER

[o-> BOOT : execute

activate BOOT
BOOT -> CTRL** : create()

BOOT -> BOOT : draftField(lstOp, lstField,  lstKeywords)

BOOT -> CTRL : newDraft()
activate CTRL
ref over CTRL
Code Sequence similar to US-1-2002_SD_DraftField
end ref
CTRL - -> BOOT : draft
deactivate CTRL

loop until there is no more fields to add
BOOT -> BOOT : addField(draft, op, field, lstKeywords)
alt if the op is title
BOOT -> CTRL : addTitle(draft, field)
activate CTRL
ref over CTRL
Code Sequence similar to US-1-2002_SD_DraftField
end ref
deactivate CTRL
else
BOOT -> CTRL : addBriefDescription(draft, field)
activate CTRL
ref over CTRL
Code Sequence similar to US-1-2002_SD_DraftField
end ref
deactivate CTRL
else
BOOT -> CTRL : addCompleteDescription(draft, field)
activate CTRL
ref over CTRL
Code Sequence similar to US-1-2002_SD_DraftField
end ref
deactivate CTRL
else
BOOT -> CTRL : addKeywordList(draft, lstKeywords)
activate CTRL
ref over CTRL
Code Sequence similar to US-1-2002_SD_DraftField
end ref
deactivate CTRL
else
BOOT -> CTRL : addFeedback(draft, field)
activate CTRL
ref over CTRL
Code Sequence similar to US-1-2002_SD_DraftField
end ref
deactivate CTRL
end
end

BOOT -> CTRL : saveServiceDraft()
activate CTRL
ref over CTRL
Code Sequence similar to US-1-2002_SD_DraftField
end ref
CTRL - -> BOOT : draft
deactivate CTRL
deactivate BOOT

@enduml

PlantUML version 1.2021.5(Sun Apr 25 12:20:28 BST 2021)
(GPL source distribution)
Java Runtime: OpenJDK Runtime Environment
JVM: Dynamic Code Evolution 64-Bit Server VM
Default Encoding: Cp1252
Language: pt
Country: PT
--></g></svg>