<?xml version="1.0" encoding="UTF-8" standalone="no"?><svg xmlns="http://www.w3.org/2000/svg" xmlns:xlink="http://www.w3.org/1999/xlink" contentScriptType="application/ecmascript" contentStyleType="text/css" height="812px" preserveAspectRatio="none" style="width:3314px;height:812px;" version="1.1" viewBox="0 0 3314 812" width="3314px" zoomAndPan="magnify"><defs><filter height="300%" id="f350i4d8wk9uw" width="300%" x="-1" y="-1"><feGaussianBlur result="blurOut" stdDeviation="2.0"/><feColorMatrix in="blurOut" result="blurOut2" type="matrix" values="0 0 0 0 0 0 0 0 0 0 0 0 0 0 0 0 0 0 .4 0"/><feOffset dx="4.0" dy="4.0" in="blurOut2" result="blurOut3"/><feBlend in="SourceGraphic" in2="blurOut3" mode="normal"/></filter></defs><g><!--MD5=[8fd473fd151a2794da4f2c8684676405]
cluster Presentation--><polygon fill="#DDDDDD" filter="url(#f350i4d8wk9uw)" points="44,6,140,6,147,29.6094,220,29.6094,220,134,44,134,44,6" style="stroke:#000000;stroke-width:1.5;"/><line style="stroke:#000000;stroke-width:1.5;" x1="44" x2="147" y1="29.6094" y2="29.6094"/><text fill="#000000" font-family="sans-serif" font-size="14" font-weight="bold" lengthAdjust="spacing" textLength="90" x="48" y="22.5332">Presentation</text><!--MD5=[d64883541e3d62e3241c4d12decf100d]
cluster Application--><polygon fill="#DDDDDD" filter="url(#f350i4d8wk9uw)" points="16,167,100,167,107,190.6094,248,190.6094,248,392,16,392,16,167" style="stroke:#000000;stroke-width:1.5;"/><line style="stroke:#000000;stroke-width:1.5;" x1="16" x2="107" y1="190.6094" y2="190.6094"/><text fill="#000000" font-family="sans-serif" font-size="14" font-weight="bold" lengthAdjust="spacing" textLength="78" x="20" y="183.5332">Application</text><!--MD5=[121a8bf1197281ab89ed693fab589f94]
cluster Domain--><polygon fill="#DDDDDD" filter="url(#f350i4d8wk9uw)" points="1345,492.5,1403,492.5,1410,516.1094,3297,516.1094,3297,663.5,1345,663.5,1345,492.5" style="stroke:#000000;stroke-width:1.5;"/><line style="stroke:#000000;stroke-width:1.5;" x1="1345" x2="1410" y1="516.1094" y2="516.1094"/><text fill="#000000" font-family="sans-serif" font-size="14" font-weight="bold" lengthAdjust="spacing" textLength="52" x="1349" y="509.0332">Domain</text><!--MD5=[bc6b40dadbf86ab6a0c8405a467a48af]
cluster Persistence--><polygon fill="#DDDDDD" filter="url(#f350i4d8wk9uw)" points="46,442,136,442,143,465.6094,1321,465.6094,1321,805,46,805,46,442" style="stroke:#000000;stroke-width:1.5;"/><line style="stroke:#000000;stroke-width:1.5;" x1="46" x2="143" y1="465.6094" y2="465.6094"/><text fill="#000000" font-family="sans-serif" font-size="14" font-weight="bold" lengthAdjust="spacing" textLength="84" x="50" y="458.5332">Persistence</text><!--MD5=[0d5799440b3bfefd92b00abfcd2c79b9]
cluster Factory--><polygon fill="#DDDDDD" filter="url(#f350i4d8wk9uw)" points="1135,486,1193,486,1200,509.6094,1297,509.6094,1297,670,1135,670,1135,486" style="stroke:#000000;stroke-width:1.5;"/><line style="stroke:#000000;stroke-width:1.5;" x1="1135" x2="1200" y1="509.6094" y2="509.6094"/><text fill="#000000" font-family="sans-serif" font-size="14" font-weight="bold" lengthAdjust="spacing" textLength="52" x="1139" y="502.5332">Factory</text><!--MD5=[71971f99a41bb66cf321ce46bb59f738]
cluster Repository--><polygon fill="#DDDDDD" filter="url(#f350i4d8wk9uw)" points="451,500,533,500,540,523.6094,1101,523.6094,1101,781,451,781,451,500" style="stroke:#000000;stroke-width:1.5;"/><line style="stroke:#000000;stroke-width:1.5;" x1="451" x2="540" y1="523.6094" y2="523.6094"/><text fill="#000000" font-family="sans-serif" font-size="14" font-weight="bold" lengthAdjust="spacing" textLength="76" x="455" y="516.5332">Repository</text><!--MD5=[74ebf5bb8db6e21684ea7dae1cdb3160]
class ServiceSolicitationUI--><rect codeLine="4" fill="#FEFECE" filter="url(#f350i4d8wk9uw)" height="56.1875" id="ServiceSolicitationUI" style="stroke:#A80036;stroke-width:1.5;" width="144" x="60" y="62"/><ellipse cx="75" cy="82.0938" fill="#ADD1B2" rx="11" ry="11" style="stroke:#A80036;stroke-width:1.0;"/><path d="M77,78.5938 Q77.2031,78.0938 77.4375,77.8438 Q77.6719,77.5938 77.9375,77.5938 Q78.4063,77.5938 78.7031,77.875 Q79,78.1563 79,78.8125 L79,80.375 Q79,81.0313 78.7188,81.3125 Q78.4375,81.5938 78,81.5938 Q77.6094,81.5938 77.3594,81.4219 Q77.1094,81.25 77,80.7969 Q76.9531,80.4844 76.7813,80.3125 Q76.4688,79.9844 75.9063,79.7969 Q75.3438,79.5938 74.7813,79.5938 Q74.0781,79.5938 73.4844,79.875 Q72.9063,80.1563 72.4531,80.7813 Q72,81.4063 72,82.2656 L72,83.1875 Q72,84.2188 72.8438,84.9063 Q73.6875,85.5938 75.1875,85.5938 Q76.0781,85.5938 76.7031,85.3906 Q77.0625,85.2813 77.4688,84.9219 Q77.7344,84.7188 77.875,84.6563 Q78.0156,84.5938 78.1875,84.5938 Q78.5156,84.5938 78.75,84.8594 Q79,85.1094 79,85.4688 Q79,85.8125 78.6563,86.2188 Q78.1563,86.8125 77.3594,87.1406 Q76.3125,87.5938 75.0313,87.5938 Q73.5313,87.5938 72.3281,87 Q71.3594,86.5313 70.6719,85.5156 Q70,84.5 70,83.2969 L70,82.2031 Q70,80.9531 70.5938,79.8594 Q71.2031,78.7656 72.25,78.1875 Q73.3125,77.5938 74.5,77.5938 Q75.2188,77.5938 75.8438,77.8438 Q76.4688,78.0938 77,78.5938 Z " fill="#000000"/><text fill="#000000" font-family="sans-serif" font-size="12" font-style="italic" lengthAdjust="spacing" textLength="82" x="104" y="79.457">«presentation»</text><text fill="#000000" font-family="sans-serif" font-size="12" lengthAdjust="spacing" textLength="112" x="89" y="94.5508">ServiceSolicitationUI</text><line style="stroke:#A80036;stroke-width:1.5;" x1="61" x2="203" y1="102.1875" y2="102.1875"/><line style="stroke:#A80036;stroke-width:1.5;" x1="61" x2="203" y1="110.1875" y2="110.1875"/><!--MD5=[a7b119f9cf2ca8e0ba39173f5929d778]
class ServiceSolicitationController--><rect codeLine="11" fill="#FEFECE" filter="url(#f350i4d8wk9uw)" height="153.0391" id="ServiceSolicitationController" style="stroke:#A80036;stroke-width:1.5;" width="199" x="32.5" y="223"/><ellipse cx="53.35" cy="243.0938" fill="#ADD1B2" rx="11" ry="11" style="stroke:#A80036;stroke-width:1.0;"/><path d="M55.35,239.5938 Q55.5531,239.0938 55.7875,238.8438 Q56.0219,238.5938 56.2875,238.5938 Q56.7563,238.5938 57.0531,238.875 Q57.35,239.1563 57.35,239.8125 L57.35,241.375 Q57.35,242.0313 57.0688,242.3125 Q56.7875,242.5938 56.35,242.5938 Q55.9594,242.5938 55.7094,242.4219 Q55.4594,242.25 55.35,241.7969 Q55.3031,241.4844 55.1313,241.3125 Q54.8188,240.9844 54.2563,240.7969 Q53.6938,240.5938 53.1313,240.5938 Q52.4281,240.5938 51.8344,240.875 Q51.2563,241.1563 50.8031,241.7813 Q50.35,242.4063 50.35,243.2656 L50.35,244.1875 Q50.35,245.2188 51.1938,245.9063 Q52.0375,246.5938 53.5375,246.5938 Q54.4281,246.5938 55.0531,246.3906 Q55.4125,246.2813 55.8188,245.9219 Q56.0844,245.7188 56.225,245.6563 Q56.3656,245.5938 56.5375,245.5938 Q56.8656,245.5938 57.1,245.8594 Q57.35,246.1094 57.35,246.4688 Q57.35,246.8125 57.0063,247.2188 Q56.5063,247.8125 55.7094,248.1406 Q54.6625,248.5938 53.3813,248.5938 Q51.8813,248.5938 50.6781,248 Q49.7094,247.5313 49.0219,246.5156 Q48.35,245.5 48.35,244.2969 L48.35,243.2031 Q48.35,241.9531 48.9438,240.8594 Q49.5531,239.7656 50.6,239.1875 Q51.6625,238.5938 52.85,238.5938 Q53.5688,238.5938 54.1938,238.8438 Q54.8188,239.0938 55.35,239.5938 Z " fill="#000000"/><text fill="#000000" font-family="sans-serif" font-size="12" font-style="italic" lengthAdjust="spacing" textLength="74" x="108.65" y="240.457">«application»</text><text fill="#000000" font-family="sans-serif" font-size="12" lengthAdjust="spacing" textLength="154" x="68.65" y="255.5508">ServiceSolicitationController</text><line style="stroke:#A80036;stroke-width:1.5;" x1="33.5" x2="230.5" y1="263.1875" y2="263.1875"/><line style="stroke:#A80036;stroke-width:1.5;" x1="33.5" x2="230.5" y1="271.1875" y2="271.1875"/><text fill="#000000" font-family="sans-serif" font-size="11" lengthAdjust="spacing" textLength="45" x="38.5" y="286.6064">+create()</text><text fill="#000000" font-family="sans-serif" font-size="11" lengthAdjust="spacing" textLength="119" x="38.5" y="300.4424">+getCataloguesByUser()</text><text fill="#000000" font-family="sans-serif" font-size="11" lengthAdjust="spacing" textLength="187" x="38.5" y="314.2783">+getServicesByCatalogue(oCatalogue)</text><text fill="#000000" font-family="sans-serif" font-size="11" lengthAdjust="spacing" textLength="127" x="38.5" y="328.1143">+addResponse(response)</text><text fill="#000000" font-family="sans-serif" font-size="11" lengthAdjust="spacing" textLength="141" x="38.5" y="341.9502">+addTicket(service, urgency,</text><text fill="#000000" font-family="sans-serif" font-size="11" lengthAdjust="spacing" textLength="149" x="38.5" y="355.7861">limitDate, creationDate, lstFiles)</text><text fill="#000000" font-family="sans-serif" font-size="11" lengthAdjust="spacing" textLength="91" x="38.5" y="369.6221">+saveTicket(ticket)</text><!--MD5=[dbb8b4f13c7b21394f9d757e58732f45]
class Service--><rect codeLine="24" fill="#FEFECE" filter="url(#f350i4d8wk9uw)" height="85.1172" id="Service" style="stroke:#A80036;stroke-width:1.5;" width="72" x="2591" y="555.5"/><ellipse cx="2606" cy="583.1406" fill="#ADD1B2" rx="11" ry="11" style="stroke:#A80036;stroke-width:1.0;"/><path d="M2608,579.6406 Q2608.2031,579.1406 2608.4375,578.8906 Q2608.6719,578.6406 2608.9375,578.6406 Q2609.4063,578.6406 2609.7031,578.9219 Q2610,579.2031 2610,579.8594 L2610,581.4219 Q2610,582.0781 2609.7188,582.3594 Q2609.4375,582.6406 2609,582.6406 Q2608.6094,582.6406 2608.3594,582.4688 Q2608.1094,582.2969 2608,581.8438 Q2607.9531,581.5313 2607.7813,581.3594 Q2607.4688,581.0313 2606.9063,580.8438 Q2606.3438,580.6406 2605.7813,580.6406 Q2605.0781,580.6406 2604.4844,580.9219 Q2603.9063,581.2031 2603.4531,581.8281 Q2603,582.4531 2603,583.3125 L2603,584.2344 Q2603,585.2656 2603.8438,585.9531 Q2604.6875,586.6406 2606.1875,586.6406 Q2607.0781,586.6406 2607.7031,586.4375 Q2608.0625,586.3281 2608.4688,585.9688 Q2608.7344,585.7656 2608.875,585.7031 Q2609.0156,585.6406 2609.1875,585.6406 Q2609.5156,585.6406 2609.75,585.9063 Q2610,586.1563 2610,586.5156 Q2610,586.8594 2609.6563,587.2656 Q2609.1563,587.8594 2608.3594,588.1875 Q2607.3125,588.6406 2606.0313,588.6406 Q2604.5313,588.6406 2603.3281,588.0469 Q2602.3594,587.5781 2601.6719,586.5625 Q2601,585.5469 2601,584.3438 L2601,583.25 Q2601,582 2601.5938,580.9063 Q2602.2031,579.8125 2603.25,579.2344 Q2604.3125,578.6406 2605.5,578.6406 Q2606.2188,578.6406 2606.8438,578.8906 Q2607.4688,579.1406 2608,579.6406 Z " fill="#000000"/><text fill="#000000" font-family="sans-serif" font-size="12" font-style="italic" lengthAdjust="spacing" textLength="44" x="2618" y="572.957">«Entity»</text><text fill="#000000" font-family="sans-serif" font-size="12" font-style="italic" lengthAdjust="spacing" textLength="40" x="2620" y="588.0508">«Root»</text><text fill="#000000" font-family="sans-serif" font-size="12" lengthAdjust="spacing" textLength="40" x="2620" y="603.1445">Service</text><line style="stroke:#A80036;stroke-width:1.5;" x1="2592" x2="2662" y1="610.7813" y2="610.7813"/><line style="stroke:#A80036;stroke-width:1.5;" x1="2592" x2="2662" y1="618.7813" y2="618.7813"/><text fill="#000000" font-family="sans-serif" font-size="11" lengthAdjust="spacing" textLength="45" x="2597" y="634.2002">+create()</text><!--MD5=[6f29f313cd4199edbf91b9ce3a4faa98]
class Form--><rect codeLine="28" fill="#FEFECE" filter="url(#f350i4d8wk9uw)" height="85.1172" id="Form" style="stroke:#A80036;stroke-width:1.5;" width="197" x="2720.5" y="555.5"/><ellipse cx="2794.75" cy="583.1406" fill="#ADD1B2" rx="11" ry="11" style="stroke:#A80036;stroke-width:1.0;"/><path d="M2796.75,579.6406 Q2796.9531,579.1406 2797.1875,578.8906 Q2797.4219,578.6406 2797.6875,578.6406 Q2798.1563,578.6406 2798.4531,578.9219 Q2798.75,579.2031 2798.75,579.8594 L2798.75,581.4219 Q2798.75,582.0781 2798.4688,582.3594 Q2798.1875,582.6406 2797.75,582.6406 Q2797.3594,582.6406 2797.1094,582.4688 Q2796.8594,582.2969 2796.75,581.8438 Q2796.7031,581.5313 2796.5313,581.3594 Q2796.2188,581.0313 2795.6563,580.8438 Q2795.0938,580.6406 2794.5313,580.6406 Q2793.8281,580.6406 2793.2344,580.9219 Q2792.6563,581.2031 2792.2031,581.8281 Q2791.75,582.4531 2791.75,583.3125 L2791.75,584.2344 Q2791.75,585.2656 2792.5938,585.9531 Q2793.4375,586.6406 2794.9375,586.6406 Q2795.8281,586.6406 2796.4531,586.4375 Q2796.8125,586.3281 2797.2188,585.9688 Q2797.4844,585.7656 2797.625,585.7031 Q2797.7656,585.6406 2797.9375,585.6406 Q2798.2656,585.6406 2798.5,585.9063 Q2798.75,586.1563 2798.75,586.5156 Q2798.75,586.8594 2798.4063,587.2656 Q2797.9063,587.8594 2797.1094,588.1875 Q2796.0625,588.6406 2794.7813,588.6406 Q2793.2813,588.6406 2792.0781,588.0469 Q2791.1094,587.5781 2790.4219,586.5625 Q2789.75,585.5469 2789.75,584.3438 L2789.75,583.25 Q2789.75,582 2790.3438,580.9063 Q2790.9531,579.8125 2792,579.2344 Q2793.0625,578.6406 2794.25,578.6406 Q2794.9688,578.6406 2795.5938,578.8906 Q2796.2188,579.1406 2796.75,579.6406 Z " fill="#000000"/><text fill="#000000" font-family="sans-serif" font-size="12" font-style="italic" lengthAdjust="spacing" textLength="44" x="2813.25" y="572.957">«Entity»</text><text fill="#000000" font-family="sans-serif" font-size="12" font-style="italic" lengthAdjust="spacing" textLength="40" x="2815.25" y="588.0508">«Root»</text><text fill="#000000" font-family="sans-serif" font-size="12" lengthAdjust="spacing" textLength="29" x="2820.75" y="603.1445">Form</text><line style="stroke:#A80036;stroke-width:1.5;" x1="2721.5" x2="2916.5" y1="610.7813" y2="610.7813"/><line style="stroke:#A80036;stroke-width:1.5;" x1="2721.5" x2="2916.5" y1="618.7813" y2="618.7813"/><text fill="#000000" font-family="sans-serif" font-size="11" lengthAdjust="spacing" textLength="185" x="2726.5" y="634.2002">+create(name, formType, attributeList)</text><!--MD5=[787494ff879e99315e413996e631a796]
class Attribute--><rect codeLine="32" fill="#FEFECE" filter="url(#f350i4d8wk9uw)" height="70.0234" id="Attribute" style="stroke:#A80036;stroke-width:1.5;" width="305" x="2975.5" y="563"/><ellipse cx="3101.75" cy="583.0938" fill="#ADD1B2" rx="11" ry="11" style="stroke:#A80036;stroke-width:1.0;"/><path d="M3103.75,579.5938 Q3103.9531,579.0938 3104.1875,578.8438 Q3104.4219,578.5938 3104.6875,578.5938 Q3105.1563,578.5938 3105.4531,578.875 Q3105.75,579.1563 3105.75,579.8125 L3105.75,581.375 Q3105.75,582.0313 3105.4688,582.3125 Q3105.1875,582.5938 3104.75,582.5938 Q3104.3594,582.5938 3104.1094,582.4219 Q3103.8594,582.25 3103.75,581.7969 Q3103.7031,581.4844 3103.5313,581.3125 Q3103.2188,580.9844 3102.6563,580.7969 Q3102.0938,580.5938 3101.5313,580.5938 Q3100.8281,580.5938 3100.2344,580.875 Q3099.6563,581.1563 3099.2031,581.7813 Q3098.75,582.4063 3098.75,583.2656 L3098.75,584.1875 Q3098.75,585.2188 3099.5938,585.9063 Q3100.4375,586.5938 3101.9375,586.5938 Q3102.8281,586.5938 3103.4531,586.3906 Q3103.8125,586.2813 3104.2188,585.9219 Q3104.4844,585.7188 3104.625,585.6563 Q3104.7656,585.5938 3104.9375,585.5938 Q3105.2656,585.5938 3105.5,585.8594 Q3105.75,586.1094 3105.75,586.4688 Q3105.75,586.8125 3105.4063,587.2188 Q3104.9063,587.8125 3104.1094,588.1406 Q3103.0625,588.5938 3101.7813,588.5938 Q3100.2813,588.5938 3099.0781,588 Q3098.1094,587.5313 3097.4219,586.5156 Q3096.75,585.5 3096.75,584.2969 L3096.75,583.2031 Q3096.75,581.9531 3097.3438,580.8594 Q3097.9531,579.7656 3099,579.1875 Q3100.0625,578.5938 3101.25,578.5938 Q3101.9688,578.5938 3102.5938,578.8438 Q3103.2188,579.0938 3103.75,579.5938 Z " fill="#000000"/><text fill="#000000" font-family="sans-serif" font-size="12" font-style="italic" lengthAdjust="spacing" textLength="44" x="3122.25" y="580.457">«Entity»</text><text fill="#000000" font-family="sans-serif" font-size="12" lengthAdjust="spacing" textLength="44" x="3122.25" y="595.5508">Attribute</text><line style="stroke:#A80036;stroke-width:1.5;" x1="2976.5" x2="3279.5" y1="603.1875" y2="603.1875"/><line style="stroke:#A80036;stroke-width:1.5;" x1="2976.5" x2="3279.5" y1="611.1875" y2="611.1875"/><text fill="#000000" font-family="sans-serif" font-size="11" lengthAdjust="spacing" textLength="293" x="2981.5" y="626.6064">+create(name, label, description, regex, scriptPath, dataType</text><!--MD5=[a77781830b4eef1927aef37ad01ad2c2]
class Catalogue--><rect codeLine="36" fill="#FEFECE" filter="url(#f350i4d8wk9uw)" height="85.1172" id="Catalogue" style="stroke:#A80036;stroke-width:1.5;" width="89" x="1361.5" y="555.5"/><ellipse cx="1376.5" cy="583.1406" fill="#ADD1B2" rx="11" ry="11" style="stroke:#A80036;stroke-width:1.0;"/><path d="M1378.5,579.6406 Q1378.7031,579.1406 1378.9375,578.8906 Q1379.1719,578.6406 1379.4375,578.6406 Q1379.9063,578.6406 1380.2031,578.9219 Q1380.5,579.2031 1380.5,579.8594 L1380.5,581.4219 Q1380.5,582.0781 1380.2188,582.3594 Q1379.9375,582.6406 1379.5,582.6406 Q1379.1094,582.6406 1378.8594,582.4688 Q1378.6094,582.2969 1378.5,581.8438 Q1378.4531,581.5313 1378.2813,581.3594 Q1377.9688,581.0313 1377.4063,580.8438 Q1376.8438,580.6406 1376.2813,580.6406 Q1375.5781,580.6406 1374.9844,580.9219 Q1374.4063,581.2031 1373.9531,581.8281 Q1373.5,582.4531 1373.5,583.3125 L1373.5,584.2344 Q1373.5,585.2656 1374.3438,585.9531 Q1375.1875,586.6406 1376.6875,586.6406 Q1377.5781,586.6406 1378.2031,586.4375 Q1378.5625,586.3281 1378.9688,585.9688 Q1379.2344,585.7656 1379.375,585.7031 Q1379.5156,585.6406 1379.6875,585.6406 Q1380.0156,585.6406 1380.25,585.9063 Q1380.5,586.1563 1380.5,586.5156 Q1380.5,586.8594 1380.1563,587.2656 Q1379.6563,587.8594 1378.8594,588.1875 Q1377.8125,588.6406 1376.5313,588.6406 Q1375.0313,588.6406 1373.8281,588.0469 Q1372.8594,587.5781 1372.1719,586.5625 Q1371.5,585.5469 1371.5,584.3438 L1371.5,583.25 Q1371.5,582 1372.0938,580.9063 Q1372.7031,579.8125 1373.75,579.2344 Q1374.8125,578.6406 1376,578.6406 Q1376.7188,578.6406 1377.3438,578.8906 Q1377.9688,579.1406 1378.5,579.6406 Z " fill="#000000"/><text fill="#000000" font-family="sans-serif" font-size="12" font-style="italic" lengthAdjust="spacing" textLength="44" x="1397" y="572.957">«Entity»</text><text fill="#000000" font-family="sans-serif" font-size="12" font-style="italic" lengthAdjust="spacing" textLength="40" x="1399" y="588.0508">«Root»</text><text fill="#000000" font-family="sans-serif" font-size="12" lengthAdjust="spacing" textLength="57" x="1390.5" y="603.1445">Catalogue</text><line style="stroke:#A80036;stroke-width:1.5;" x1="1362.5" x2="1449.5" y1="610.7813" y2="610.7813"/><line style="stroke:#A80036;stroke-width:1.5;" x1="1362.5" x2="1449.5" y1="618.7813" y2="618.7813"/><text fill="#000000" font-family="sans-serif" font-size="11" lengthAdjust="spacing" textLength="45" x="1367.5" y="634.2002">+create()</text><!--MD5=[ac6bea31e13c94c7baa9ad18feb7405e]
class Ticket--><rect codeLine="40" fill="#FEFECE" filter="url(#f350i4d8wk9uw)" height="98.9531" id="Ticket" style="stroke:#A80036;stroke-width:1.5;" width="191" x="1513.5" y="548.5"/><ellipse cx="1584.75" cy="576.1406" fill="#ADD1B2" rx="11" ry="11" style="stroke:#A80036;stroke-width:1.0;"/><path d="M1586.75,572.6406 Q1586.9531,572.1406 1587.1875,571.8906 Q1587.4219,571.6406 1587.6875,571.6406 Q1588.1563,571.6406 1588.4531,571.9219 Q1588.75,572.2031 1588.75,572.8594 L1588.75,574.4219 Q1588.75,575.0781 1588.4688,575.3594 Q1588.1875,575.6406 1587.75,575.6406 Q1587.3594,575.6406 1587.1094,575.4688 Q1586.8594,575.2969 1586.75,574.8438 Q1586.7031,574.5313 1586.5313,574.3594 Q1586.2188,574.0313 1585.6563,573.8438 Q1585.0938,573.6406 1584.5313,573.6406 Q1583.8281,573.6406 1583.2344,573.9219 Q1582.6563,574.2031 1582.2031,574.8281 Q1581.75,575.4531 1581.75,576.3125 L1581.75,577.2344 Q1581.75,578.2656 1582.5938,578.9531 Q1583.4375,579.6406 1584.9375,579.6406 Q1585.8281,579.6406 1586.4531,579.4375 Q1586.8125,579.3281 1587.2188,578.9688 Q1587.4844,578.7656 1587.625,578.7031 Q1587.7656,578.6406 1587.9375,578.6406 Q1588.2656,578.6406 1588.5,578.9063 Q1588.75,579.1563 1588.75,579.5156 Q1588.75,579.8594 1588.4063,580.2656 Q1587.9063,580.8594 1587.1094,581.1875 Q1586.0625,581.6406 1584.7813,581.6406 Q1583.2813,581.6406 1582.0781,581.0469 Q1581.1094,580.5781 1580.4219,579.5625 Q1579.75,578.5469 1579.75,577.3438 L1579.75,576.25 Q1579.75,575 1580.3438,573.9063 Q1580.9531,572.8125 1582,572.2344 Q1583.0625,571.6406 1584.25,571.6406 Q1584.9688,571.6406 1585.5938,571.8906 Q1586.2188,572.1406 1586.75,572.6406 Z " fill="#000000"/><text fill="#000000" font-family="sans-serif" font-size="12" font-style="italic" lengthAdjust="spacing" textLength="44" x="1603.25" y="565.957">«Entity»</text><text fill="#000000" font-family="sans-serif" font-size="12" font-style="italic" lengthAdjust="spacing" textLength="40" x="1605.25" y="581.0508">«Root»</text><text fill="#000000" font-family="sans-serif" font-size="12" lengthAdjust="spacing" textLength="32" x="1609.25" y="596.1445">Ticket</text><line style="stroke:#A80036;stroke-width:1.5;" x1="1514.5" x2="1703.5" y1="603.7813" y2="603.7813"/><line style="stroke:#A80036;stroke-width:1.5;" x1="1514.5" x2="1703.5" y1="611.7813" y2="611.7813"/><text fill="#000000" font-family="sans-serif" font-size="11" lengthAdjust="spacing" textLength="171" x="1519.5" y="627.2002">+create(service, urgency, limitDate,</text><text fill="#000000" font-family="sans-serif" font-size="11" lengthAdjust="spacing" textLength="176" x="1522.5" y="641.0361">creationDate, lstFiles, lstResponses)</text><!--MD5=[a539556bf0fa8c194d1de4bbb958d218]
class TicketUrgency--><rect codeLine="44" fill="#FEFECE" filter="url(#f350i4d8wk9uw)" height="83.8594" id="TicketUrgency" style="stroke:#A80036;stroke-width:1.5;" width="127" x="2428.5" y="556"/><ellipse cx="2449.8" cy="576.0938" fill="#ADD1B2" rx="11" ry="11" style="stroke:#A80036;stroke-width:1.0;"/><path d="M2451.8,572.5938 Q2452.0031,572.0938 2452.2375,571.8438 Q2452.4719,571.5938 2452.7375,571.5938 Q2453.2063,571.5938 2453.5031,571.875 Q2453.8,572.1563 2453.8,572.8125 L2453.8,574.375 Q2453.8,575.0313 2453.5188,575.3125 Q2453.2375,575.5938 2452.8,575.5938 Q2452.4094,575.5938 2452.1594,575.4219 Q2451.9094,575.25 2451.8,574.7969 Q2451.7531,574.4844 2451.5813,574.3125 Q2451.2688,573.9844 2450.7063,573.7969 Q2450.1438,573.5938 2449.5813,573.5938 Q2448.8781,573.5938 2448.2844,573.875 Q2447.7063,574.1563 2447.2531,574.7813 Q2446.8,575.4063 2446.8,576.2656 L2446.8,577.1875 Q2446.8,578.2188 2447.6438,578.9063 Q2448.4875,579.5938 2449.9875,579.5938 Q2450.8781,579.5938 2451.5031,579.3906 Q2451.8625,579.2813 2452.2688,578.9219 Q2452.5344,578.7188 2452.675,578.6563 Q2452.8156,578.5938 2452.9875,578.5938 Q2453.3156,578.5938 2453.55,578.8594 Q2453.8,579.1094 2453.8,579.4688 Q2453.8,579.8125 2453.4563,580.2188 Q2452.9563,580.8125 2452.1594,581.1406 Q2451.1125,581.5938 2449.8313,581.5938 Q2448.3313,581.5938 2447.1281,581 Q2446.1594,580.5313 2445.4719,579.5156 Q2444.8,578.5 2444.8,577.2969 L2444.8,576.2031 Q2444.8,574.9531 2445.3938,573.8594 Q2446.0031,572.7656 2447.05,572.1875 Q2448.1125,571.5938 2449.3,571.5938 Q2450.0188,571.5938 2450.6438,571.8438 Q2451.2688,572.0938 2451.8,572.5938 Z " fill="#000000"/><text fill="#000000" font-family="sans-serif" font-size="12" font-style="italic" lengthAdjust="spacing" textLength="85" x="2463.2" y="573.457">«Value Object»</text><text fill="#000000" font-family="sans-serif" font-size="12" lengthAdjust="spacing" textLength="77" x="2467.2" y="588.5508">TicketUrgency</text><line style="stroke:#A80036;stroke-width:1.5;" x1="2429.5" x2="2554.5" y1="596.1875" y2="596.1875"/><line style="stroke:#A80036;stroke-width:1.5;" x1="2429.5" x2="2554.5" y1="604.1875" y2="604.1875"/><text fill="#000000" font-family="sans-serif" font-size="11" lengthAdjust="spacing" textLength="111" x="2434.5" y="619.6064">+create(ticketUrgency)</text><text fill="#000000" font-family="sans-serif" font-size="11" lengthAdjust="spacing" textLength="115" x="2434.5" y="633.4424">-validate(ticketUrgency)</text><!--MD5=[a3897caa7208c40f066d12f96f8814dc]
class TicketLimitDate--><rect codeLine="49" fill="#FEFECE" filter="url(#f350i4d8wk9uw)" height="83.8594" id="TicketLimitDate" style="stroke:#A80036;stroke-width:1.5;" width="129" x="2264.5" y="556"/><ellipse cx="2284.9" cy="576.0938" fill="#ADD1B2" rx="11" ry="11" style="stroke:#A80036;stroke-width:1.0;"/><path d="M2286.9,572.5938 Q2287.1031,572.0938 2287.3375,571.8438 Q2287.5719,571.5938 2287.8375,571.5938 Q2288.3063,571.5938 2288.6031,571.875 Q2288.9,572.1563 2288.9,572.8125 L2288.9,574.375 Q2288.9,575.0313 2288.6188,575.3125 Q2288.3375,575.5938 2287.9,575.5938 Q2287.5094,575.5938 2287.2594,575.4219 Q2287.0094,575.25 2286.9,574.7969 Q2286.8531,574.4844 2286.6813,574.3125 Q2286.3688,573.9844 2285.8063,573.7969 Q2285.2438,573.5938 2284.6813,573.5938 Q2283.9781,573.5938 2283.3844,573.875 Q2282.8063,574.1563 2282.3531,574.7813 Q2281.9,575.4063 2281.9,576.2656 L2281.9,577.1875 Q2281.9,578.2188 2282.7438,578.9063 Q2283.5875,579.5938 2285.0875,579.5938 Q2285.9781,579.5938 2286.6031,579.3906 Q2286.9625,579.2813 2287.3688,578.9219 Q2287.6344,578.7188 2287.775,578.6563 Q2287.9156,578.5938 2288.0875,578.5938 Q2288.4156,578.5938 2288.65,578.8594 Q2288.9,579.1094 2288.9,579.4688 Q2288.9,579.8125 2288.5563,580.2188 Q2288.0563,580.8125 2287.2594,581.1406 Q2286.2125,581.5938 2284.9313,581.5938 Q2283.4313,581.5938 2282.2281,581 Q2281.2594,580.5313 2280.5719,579.5156 Q2279.9,578.5 2279.9,577.2969 L2279.9,576.2031 Q2279.9,574.9531 2280.4938,573.8594 Q2281.1031,572.7656 2282.15,572.1875 Q2283.2125,571.5938 2284.4,571.5938 Q2285.1188,571.5938 2285.7438,571.8438 Q2286.3688,572.0938 2286.9,572.5938 Z " fill="#000000"/><text fill="#000000" font-family="sans-serif" font-size="12" font-style="italic" lengthAdjust="spacing" textLength="85" x="2300.1" y="573.457">«Value Object»</text><text fill="#000000" font-family="sans-serif" font-size="12" lengthAdjust="spacing" textLength="85" x="2300.1" y="588.5508">TicketLimitDate</text><line style="stroke:#A80036;stroke-width:1.5;" x1="2265.5" x2="2392.5" y1="596.1875" y2="596.1875"/><line style="stroke:#A80036;stroke-width:1.5;" x1="2265.5" x2="2392.5" y1="604.1875" y2="604.1875"/><text fill="#000000" font-family="sans-serif" font-size="11" lengthAdjust="spacing" textLength="113" x="2270.5" y="619.6064">+create(ticketLimitDate)</text><text fill="#000000" font-family="sans-serif" font-size="11" lengthAdjust="spacing" textLength="117" x="2270.5" y="633.4424">-validate(ticketLimitDate)</text><!--MD5=[110963dc43e3cbe9ec4779c530423b98]
class TicketCreationDate--><rect codeLine="54" fill="#FEFECE" filter="url(#f350i4d8wk9uw)" height="83.8594" id="TicketCreationDate" style="stroke:#A80036;stroke-width:1.5;" width="148" x="2081" y="556"/><ellipse cx="2100.95" cy="576.0938" fill="#ADD1B2" rx="11" ry="11" style="stroke:#A80036;stroke-width:1.0;"/><path d="M2102.95,572.5938 Q2103.1531,572.0938 2103.3875,571.8438 Q2103.6219,571.5938 2103.8875,571.5938 Q2104.3563,571.5938 2104.6531,571.875 Q2104.95,572.1563 2104.95,572.8125 L2104.95,574.375 Q2104.95,575.0313 2104.6688,575.3125 Q2104.3875,575.5938 2103.95,575.5938 Q2103.5594,575.5938 2103.3094,575.4219 Q2103.0594,575.25 2102.95,574.7969 Q2102.9031,574.4844 2102.7313,574.3125 Q2102.4188,573.9844 2101.8563,573.7969 Q2101.2938,573.5938 2100.7313,573.5938 Q2100.0281,573.5938 2099.4344,573.875 Q2098.8563,574.1563 2098.4031,574.7813 Q2097.95,575.4063 2097.95,576.2656 L2097.95,577.1875 Q2097.95,578.2188 2098.7938,578.9063 Q2099.6375,579.5938 2101.1375,579.5938 Q2102.0281,579.5938 2102.6531,579.3906 Q2103.0125,579.2813 2103.4188,578.9219 Q2103.6844,578.7188 2103.825,578.6563 Q2103.9656,578.5938 2104.1375,578.5938 Q2104.4656,578.5938 2104.7,578.8594 Q2104.95,579.1094 2104.95,579.4688 Q2104.95,579.8125 2104.6063,580.2188 Q2104.1063,580.8125 2103.3094,581.1406 Q2102.2625,581.5938 2100.9813,581.5938 Q2099.4813,581.5938 2098.2781,581 Q2097.3094,580.5313 2096.6219,579.5156 Q2095.95,578.5 2095.95,577.2969 L2095.95,576.2031 Q2095.95,574.9531 2096.5438,573.8594 Q2097.1531,572.7656 2098.2,572.1875 Q2099.2625,571.5938 2100.45,571.5938 Q2101.1688,571.5938 2101.7938,571.8438 Q2102.4188,572.0938 2102.95,572.5938 Z " fill="#000000"/><text fill="#000000" font-family="sans-serif" font-size="12" font-style="italic" lengthAdjust="spacing" textLength="85" x="2126.05" y="573.457">«Value Object»</text><text fill="#000000" font-family="sans-serif" font-size="12" lengthAdjust="spacing" textLength="105" x="2116.05" y="588.5508">TicketCreationDate</text><line style="stroke:#A80036;stroke-width:1.5;" x1="2082" x2="2228" y1="596.1875" y2="596.1875"/><line style="stroke:#A80036;stroke-width:1.5;" x1="2082" x2="2228" y1="604.1875" y2="604.1875"/><text fill="#000000" font-family="sans-serif" font-size="11" lengthAdjust="spacing" textLength="132" x="2087" y="619.6064">+create(ticketCreationDate)</text><text fill="#000000" font-family="sans-serif" font-size="11" lengthAdjust="spacing" textLength="136" x="2087" y="633.4424">-validate(ticketCreationDate)</text><!--MD5=[5474846ab8f4d3c6b1b21ba7ddf315a0]
class TicketFile--><rect codeLine="59" fill="#FEFECE" filter="url(#f350i4d8wk9uw)" height="83.8594" id="TicketFile" style="stroke:#A80036;stroke-width:1.5;" width="113" x="1932.5" y="556"/><ellipse cx="1947.5" cy="576.0938" fill="#ADD1B2" rx="11" ry="11" style="stroke:#A80036;stroke-width:1.0;"/><path d="M1949.5,572.5938 Q1949.7031,572.0938 1949.9375,571.8438 Q1950.1719,571.5938 1950.4375,571.5938 Q1950.9063,571.5938 1951.2031,571.875 Q1951.5,572.1563 1951.5,572.8125 L1951.5,574.375 Q1951.5,575.0313 1951.2188,575.3125 Q1950.9375,575.5938 1950.5,575.5938 Q1950.1094,575.5938 1949.8594,575.4219 Q1949.6094,575.25 1949.5,574.7969 Q1949.4531,574.4844 1949.2813,574.3125 Q1948.9688,573.9844 1948.4063,573.7969 Q1947.8438,573.5938 1947.2813,573.5938 Q1946.5781,573.5938 1945.9844,573.875 Q1945.4063,574.1563 1944.9531,574.7813 Q1944.5,575.4063 1944.5,576.2656 L1944.5,577.1875 Q1944.5,578.2188 1945.3438,578.9063 Q1946.1875,579.5938 1947.6875,579.5938 Q1948.5781,579.5938 1949.2031,579.3906 Q1949.5625,579.2813 1949.9688,578.9219 Q1950.2344,578.7188 1950.375,578.6563 Q1950.5156,578.5938 1950.6875,578.5938 Q1951.0156,578.5938 1951.25,578.8594 Q1951.5,579.1094 1951.5,579.4688 Q1951.5,579.8125 1951.1563,580.2188 Q1950.6563,580.8125 1949.8594,581.1406 Q1948.8125,581.5938 1947.5313,581.5938 Q1946.0313,581.5938 1944.8281,581 Q1943.8594,580.5313 1943.1719,579.5156 Q1942.5,578.5 1942.5,577.2969 L1942.5,576.2031 Q1942.5,574.9531 1943.0938,573.8594 Q1943.7031,572.7656 1944.75,572.1875 Q1945.8125,571.5938 1947,571.5938 Q1947.7188,571.5938 1948.3438,571.8438 Q1948.9688,572.0938 1949.5,572.5938 Z " fill="#000000"/><text fill="#000000" font-family="sans-serif" font-size="12" font-style="italic" lengthAdjust="spacing" textLength="85" x="1959.5" y="573.457">«Value Object»</text><text fill="#000000" font-family="sans-serif" font-size="12" lengthAdjust="spacing" textLength="52" x="1976" y="588.5508">TicketFile</text><line style="stroke:#A80036;stroke-width:1.5;" x1="1933.5" x2="2044.5" y1="596.1875" y2="596.1875"/><line style="stroke:#A80036;stroke-width:1.5;" x1="1933.5" x2="2044.5" y1="604.1875" y2="604.1875"/><text fill="#000000" font-family="sans-serif" font-size="11" lengthAdjust="spacing" textLength="86" x="1938.5" y="619.6064">+create(ticketFile)</text><text fill="#000000" font-family="sans-serif" font-size="11" lengthAdjust="spacing" textLength="90" x="1938.5" y="633.4424">-validate(ticketFile)</text><!--MD5=[d7f572af7c6896425ebb77bc1c5ce5bd]
class TicketResponse--><rect codeLine="64" fill="#FEFECE" filter="url(#f350i4d8wk9uw)" height="83.8594" id="TicketResponse" style="stroke:#A80036;stroke-width:1.5;" width="135" x="1762.5" y="556"/><ellipse cx="1783.35" cy="576.0938" fill="#ADD1B2" rx="11" ry="11" style="stroke:#A80036;stroke-width:1.0;"/><path d="M1785.35,572.5938 Q1785.5531,572.0938 1785.7875,571.8438 Q1786.0219,571.5938 1786.2875,571.5938 Q1786.7563,571.5938 1787.0531,571.875 Q1787.35,572.1563 1787.35,572.8125 L1787.35,574.375 Q1787.35,575.0313 1787.0688,575.3125 Q1786.7875,575.5938 1786.35,575.5938 Q1785.9594,575.5938 1785.7094,575.4219 Q1785.4594,575.25 1785.35,574.7969 Q1785.3031,574.4844 1785.1313,574.3125 Q1784.8188,573.9844 1784.2563,573.7969 Q1783.6938,573.5938 1783.1313,573.5938 Q1782.4281,573.5938 1781.8344,573.875 Q1781.2563,574.1563 1780.8031,574.7813 Q1780.35,575.4063 1780.35,576.2656 L1780.35,577.1875 Q1780.35,578.2188 1781.1938,578.9063 Q1782.0375,579.5938 1783.5375,579.5938 Q1784.4281,579.5938 1785.0531,579.3906 Q1785.4125,579.2813 1785.8188,578.9219 Q1786.0844,578.7188 1786.225,578.6563 Q1786.3656,578.5938 1786.5375,578.5938 Q1786.8656,578.5938 1787.1,578.8594 Q1787.35,579.1094 1787.35,579.4688 Q1787.35,579.8125 1787.0063,580.2188 Q1786.5063,580.8125 1785.7094,581.1406 Q1784.6625,581.5938 1783.3813,581.5938 Q1781.8813,581.5938 1780.6781,581 Q1779.7094,580.5313 1779.0219,579.5156 Q1778.35,578.5 1778.35,577.2969 L1778.35,576.2031 Q1778.35,574.9531 1778.9438,573.8594 Q1779.5531,572.7656 1780.6,572.1875 Q1781.6625,571.5938 1782.85,571.5938 Q1783.5688,571.5938 1784.1938,571.8438 Q1784.8188,572.0938 1785.35,572.5938 Z " fill="#000000"/><text fill="#000000" font-family="sans-serif" font-size="12" font-style="italic" lengthAdjust="spacing" textLength="85" x="1801.15" y="573.457">«Value Object»</text><text fill="#000000" font-family="sans-serif" font-size="12" lengthAdjust="spacing" textLength="90" x="1798.65" y="588.5508">TicketResponse</text><line style="stroke:#A80036;stroke-width:1.5;" x1="1763.5" x2="1896.5" y1="596.1875" y2="596.1875"/><line style="stroke:#A80036;stroke-width:1.5;" x1="1763.5" x2="1896.5" y1="604.1875" y2="604.1875"/><text fill="#000000" font-family="sans-serif" font-size="11" lengthAdjust="spacing" textLength="119" x="1768.5" y="619.6064">+create(ticketResponse)</text><text fill="#000000" font-family="sans-serif" font-size="11" lengthAdjust="spacing" textLength="123" x="1768.5" y="633.4424">-validate(ticketResponse)</text><!--MD5=[e8c189551b7885b999ad7cefb30fc2a3]
class PersistenceContext--><rect codeLine="71" fill="#FEFECE" filter="url(#f350i4d8wk9uw)" height="70.0234" id="PersistenceContext" style="stroke:#A80036;stroke-width:1.5;" width="139" x="62.5" y="563"/><ellipse cx="77.5" cy="583.0938" fill="#ADD1B2" rx="11" ry="11" style="stroke:#A80036;stroke-width:1.0;"/><path d="M79.5,579.5938 Q79.7031,579.0938 79.9375,578.8438 Q80.1719,578.5938 80.4375,578.5938 Q80.9063,578.5938 81.2031,578.875 Q81.5,579.1563 81.5,579.8125 L81.5,581.375 Q81.5,582.0313 81.2188,582.3125 Q80.9375,582.5938 80.5,582.5938 Q80.1094,582.5938 79.8594,582.4219 Q79.6094,582.25 79.5,581.7969 Q79.4531,581.4844 79.2813,581.3125 Q78.9688,580.9844 78.4063,580.7969 Q77.8438,580.5938 77.2813,580.5938 Q76.5781,580.5938 75.9844,580.875 Q75.4063,581.1563 74.9531,581.7813 Q74.5,582.4063 74.5,583.2656 L74.5,584.1875 Q74.5,585.2188 75.3438,585.9063 Q76.1875,586.5938 77.6875,586.5938 Q78.5781,586.5938 79.2031,586.3906 Q79.5625,586.2813 79.9688,585.9219 Q80.2344,585.7188 80.375,585.6563 Q80.5156,585.5938 80.6875,585.5938 Q81.0156,585.5938 81.25,585.8594 Q81.5,586.1094 81.5,586.4688 Q81.5,586.8125 81.1563,587.2188 Q80.6563,587.8125 79.8594,588.1406 Q78.8125,588.5938 77.5313,588.5938 Q76.0313,588.5938 74.8281,588 Q73.8594,587.5313 73.1719,586.5156 Q72.5,585.5 72.5,584.2969 L72.5,583.2031 Q72.5,581.9531 73.0938,580.8594 Q73.7031,579.7656 74.75,579.1875 Q75.8125,578.5938 77,578.5938 Q77.7188,578.5938 78.3438,578.8438 Q78.9688,579.0938 79.5,579.5938 Z " fill="#000000"/><text fill="#000000" font-family="sans-serif" font-size="12" font-style="italic" lengthAdjust="spacing" textLength="77" x="106.5" y="580.457">«persistence»</text><text fill="#000000" font-family="sans-serif" font-size="12" lengthAdjust="spacing" textLength="107" x="91.5" y="595.5508">PersistenceContext</text><line style="stroke:#A80036;stroke-width:1.5;" x1="63.5" x2="200.5" y1="603.1875" y2="603.1875"/><line style="stroke:#A80036;stroke-width:1.5;" x1="63.5" x2="200.5" y1="611.1875" y2="611.1875"/><text fill="#000000" font-family="sans-serif" font-size="11" lengthAdjust="spacing" textLength="71" x="68.5" y="626.6064">+repositories()</text><!--MD5=[b8e4c95865208c934bfcfda4f90bf50c]
class AppSettings--><rect codeLine="75" fill="#FEFECE" filter="url(#f350i4d8wk9uw)" height="83.8594" id="AppSettings" style="stroke:#A80036;stroke-width:1.5;" width="130" x="305" y="556"/><ellipse cx="331.25" cy="576.0938" fill="#ADD1B2" rx="11" ry="11" style="stroke:#A80036;stroke-width:1.0;"/><path d="M333.25,572.5938 Q333.4531,572.0938 333.6875,571.8438 Q333.9219,571.5938 334.1875,571.5938 Q334.6563,571.5938 334.9531,571.875 Q335.25,572.1563 335.25,572.8125 L335.25,574.375 Q335.25,575.0313 334.9688,575.3125 Q334.6875,575.5938 334.25,575.5938 Q333.8594,575.5938 333.6094,575.4219 Q333.3594,575.25 333.25,574.7969 Q333.2031,574.4844 333.0313,574.3125 Q332.7188,573.9844 332.1563,573.7969 Q331.5938,573.5938 331.0313,573.5938 Q330.3281,573.5938 329.7344,573.875 Q329.1563,574.1563 328.7031,574.7813 Q328.25,575.4063 328.25,576.2656 L328.25,577.1875 Q328.25,578.2188 329.0938,578.9063 Q329.9375,579.5938 331.4375,579.5938 Q332.3281,579.5938 332.9531,579.3906 Q333.3125,579.2813 333.7188,578.9219 Q333.9844,578.7188 334.125,578.6563 Q334.2656,578.5938 334.4375,578.5938 Q334.7656,578.5938 335,578.8594 Q335.25,579.1094 335.25,579.4688 Q335.25,579.8125 334.9063,580.2188 Q334.4063,580.8125 333.6094,581.1406 Q332.5625,581.5938 331.2813,581.5938 Q329.7813,581.5938 328.5781,581 Q327.6094,580.5313 326.9219,579.5156 Q326.25,578.5 326.25,577.2969 L326.25,576.2031 Q326.25,574.9531 326.8438,573.8594 Q327.4531,572.7656 328.5,572.1875 Q329.5625,571.5938 330.75,571.5938 Q331.4688,571.5938 332.0938,571.8438 Q332.7188,572.0938 333.25,572.5938 Z " fill="#000000"/><text fill="#000000" font-family="sans-serif" font-size="12" font-style="italic" lengthAdjust="spacing" textLength="77" x="345.75" y="573.457">«persistence»</text><text fill="#000000" font-family="sans-serif" font-size="12" lengthAdjust="spacing" textLength="66" x="351.25" y="588.5508">AppSettings</text><line style="stroke:#A80036;stroke-width:1.5;" x1="306" x2="434" y1="596.1875" y2="596.1875"/><line style="stroke:#A80036;stroke-width:1.5;" x1="306" x2="434" y1="604.1875" y2="604.1875"/><text fill="#000000" font-family="sans-serif" font-size="11" lengthAdjust="spacing" textLength="55" x="311" y="619.6064">+instance()</text><text fill="#000000" font-family="sans-serif" font-size="11" lengthAdjust="spacing" textLength="118" x="311" y="633.4424">+getRepositoryFactory()</text><!--MD5=[48590afff58a68e2fcba47824d6f8a11]
class RepositoryFactory--><rect codeLine="81" fill="#FEFECE" filter="url(#f350i4d8wk9uw)" height="111.5313" id="RepositoryFactory" style="stroke:#A80036;stroke-width:1.5;" width="130" x="1151" y="542"/><ellipse cx="1166" cy="562.0938" fill="#ADD1B2" rx="11" ry="11" style="stroke:#A80036;stroke-width:1.0;"/><path d="M1168,558.5938 Q1168.2031,558.0938 1168.4375,557.8438 Q1168.6719,557.5938 1168.9375,557.5938 Q1169.4063,557.5938 1169.7031,557.875 Q1170,558.1563 1170,558.8125 L1170,560.375 Q1170,561.0313 1169.7188,561.3125 Q1169.4375,561.5938 1169,561.5938 Q1168.6094,561.5938 1168.3594,561.4219 Q1168.1094,561.25 1168,560.7969 Q1167.9531,560.4844 1167.7813,560.3125 Q1167.4688,559.9844 1166.9063,559.7969 Q1166.3438,559.5938 1165.7813,559.5938 Q1165.0781,559.5938 1164.4844,559.875 Q1163.9063,560.1563 1163.4531,560.7813 Q1163,561.4063 1163,562.2656 L1163,563.1875 Q1163,564.2188 1163.8438,564.9063 Q1164.6875,565.5938 1166.1875,565.5938 Q1167.0781,565.5938 1167.7031,565.3906 Q1168.0625,565.2813 1168.4688,564.9219 Q1168.7344,564.7188 1168.875,564.6563 Q1169.0156,564.5938 1169.1875,564.5938 Q1169.5156,564.5938 1169.75,564.8594 Q1170,565.1094 1170,565.4688 Q1170,565.8125 1169.6563,566.2188 Q1169.1563,566.8125 1168.3594,567.1406 Q1167.3125,567.5938 1166.0313,567.5938 Q1164.5313,567.5938 1163.3281,567 Q1162.3594,566.5313 1161.6719,565.5156 Q1161,564.5 1161,563.2969 L1161,562.2031 Q1161,560.9531 1161.5938,559.8594 Q1162.2031,558.7656 1163.25,558.1875 Q1164.3125,557.5938 1165.5,557.5938 Q1166.2188,557.5938 1166.8438,557.8438 Q1167.4688,558.0938 1168,558.5938 Z " fill="#000000"/><text fill="#000000" font-family="sans-serif" font-size="12" font-style="italic" lengthAdjust="spacing" textLength="77" x="1190.5" y="559.457">«persistence»</text><text fill="#000000" font-family="sans-serif" font-size="12" lengthAdjust="spacing" textLength="98" x="1180" y="574.5508">RepositoryFactory</text><line style="stroke:#A80036;stroke-width:1.5;" x1="1152" x2="1280" y1="582.1875" y2="582.1875"/><line style="stroke:#A80036;stroke-width:1.5;" x1="1152" x2="1280" y1="590.1875" y2="590.1875"/><text fill="#000000" font-family="sans-serif" font-size="11" lengthAdjust="spacing" textLength="45" x="1157" y="605.6064">+create()</text><text fill="#000000" font-family="sans-serif" font-size="11" lengthAdjust="spacing" textLength="56" x="1157" y="619.4424">+servicos()</text><text fill="#000000" font-family="sans-serif" font-size="11" lengthAdjust="spacing" textLength="61" x="1157" y="633.2783">+catalogos()</text><text fill="#000000" font-family="sans-serif" font-size="11" lengthAdjust="spacing" textLength="68" x="1157" y="647.1143">+formularios()</text><!--MD5=[cf62b7d23c2004c5280dc9b8e31eb1d4]
class ServiceRepository--><rect codeLine="91" fill="#FEFECE" filter="url(#f350i4d8wk9uw)" height="83.8594" id="ServiceRepository" style="stroke:#A80036;stroke-width:1.5;" width="159" x="811.5" y="556"/><ellipse cx="839.1" cy="576.0938" fill="#ADD1B2" rx="11" ry="11" style="stroke:#A80036;stroke-width:1.0;"/><path d="M841.1,572.5938 Q841.3031,572.0938 841.5375,571.8438 Q841.7719,571.5938 842.0375,571.5938 Q842.5063,571.5938 842.8031,571.875 Q843.1,572.1563 843.1,572.8125 L843.1,574.375 Q843.1,575.0313 842.8188,575.3125 Q842.5375,575.5938 842.1,575.5938 Q841.7094,575.5938 841.4594,575.4219 Q841.2094,575.25 841.1,574.7969 Q841.0531,574.4844 840.8813,574.3125 Q840.5688,573.9844 840.0063,573.7969 Q839.4438,573.5938 838.8813,573.5938 Q838.1781,573.5938 837.5844,573.875 Q837.0063,574.1563 836.5531,574.7813 Q836.1,575.4063 836.1,576.2656 L836.1,577.1875 Q836.1,578.2188 836.9438,578.9063 Q837.7875,579.5938 839.2875,579.5938 Q840.1781,579.5938 840.8031,579.3906 Q841.1625,579.2813 841.5688,578.9219 Q841.8344,578.7188 841.975,578.6563 Q842.1156,578.5938 842.2875,578.5938 Q842.6156,578.5938 842.85,578.8594 Q843.1,579.1094 843.1,579.4688 Q843.1,579.8125 842.7563,580.2188 Q842.2563,580.8125 841.4594,581.1406 Q840.4125,581.5938 839.1313,581.5938 Q837.6313,581.5938 836.4281,581 Q835.4594,580.5313 834.7719,579.5156 Q834.1,578.5 834.1,577.2969 L834.1,576.2031 Q834.1,574.9531 834.6938,573.8594 Q835.3031,572.7656 836.35,572.1875 Q837.4125,571.5938 838.6,571.5938 Q839.3188,571.5938 839.9438,571.8438 Q840.5688,572.0938 841.1,572.5938 Z " fill="#000000"/><text fill="#000000" font-family="sans-serif" font-size="12" font-style="italic" lengthAdjust="spacing" textLength="68" x="871.4" y="573.457">«repository»</text><text fill="#000000" font-family="sans-serif" font-size="12" lengthAdjust="spacing" textLength="99" x="855.9" y="588.5508">ServiceRepository</text><line style="stroke:#A80036;stroke-width:1.5;" x1="812.5" x2="969.5" y1="596.1875" y2="596.1875"/><line style="stroke:#A80036;stroke-width:1.5;" x1="812.5" x2="969.5" y1="604.1875" y2="604.1875"/><text fill="#000000" font-family="sans-serif" font-size="11" lengthAdjust="spacing" textLength="45" x="817.5" y="619.6064">+create()</text><text fill="#000000" font-family="sans-serif" font-size="11" lengthAdjust="spacing" textLength="147" x="817.5" y="633.4424">+findByCatalogue(oCatalogue)</text><!--MD5=[92a0a821d4a69608f6ec4b5426de1e8a]
class TicketRepository--><rect codeLine="96" fill="#FEFECE" filter="url(#f350i4d8wk9uw)" height="83.8594" id="TicketRepository" style="stroke:#A80036;stroke-width:1.5;" width="123" x="653.5" y="556"/><ellipse cx="668.5" cy="576.0938" fill="#ADD1B2" rx="11" ry="11" style="stroke:#A80036;stroke-width:1.0;"/><path d="M670.5,572.5938 Q670.7031,572.0938 670.9375,571.8438 Q671.1719,571.5938 671.4375,571.5938 Q671.9063,571.5938 672.2031,571.875 Q672.5,572.1563 672.5,572.8125 L672.5,574.375 Q672.5,575.0313 672.2188,575.3125 Q671.9375,575.5938 671.5,575.5938 Q671.1094,575.5938 670.8594,575.4219 Q670.6094,575.25 670.5,574.7969 Q670.4531,574.4844 670.2813,574.3125 Q669.9688,573.9844 669.4063,573.7969 Q668.8438,573.5938 668.2813,573.5938 Q667.5781,573.5938 666.9844,573.875 Q666.4063,574.1563 665.9531,574.7813 Q665.5,575.4063 665.5,576.2656 L665.5,577.1875 Q665.5,578.2188 666.3438,578.9063 Q667.1875,579.5938 668.6875,579.5938 Q669.5781,579.5938 670.2031,579.3906 Q670.5625,579.2813 670.9688,578.9219 Q671.2344,578.7188 671.375,578.6563 Q671.5156,578.5938 671.6875,578.5938 Q672.0156,578.5938 672.25,578.8594 Q672.5,579.1094 672.5,579.4688 Q672.5,579.8125 672.1563,580.2188 Q671.6563,580.8125 670.8594,581.1406 Q669.8125,581.5938 668.5313,581.5938 Q667.0313,581.5938 665.8281,581 Q664.8594,580.5313 664.1719,579.5156 Q663.5,578.5 663.5,577.2969 L663.5,576.2031 Q663.5,574.9531 664.0938,573.8594 Q664.7031,572.7656 665.75,572.1875 Q666.8125,571.5938 668,571.5938 Q668.7188,571.5938 669.3438,571.8438 Q669.9688,572.0938 670.5,572.5938 Z " fill="#000000"/><text fill="#000000" font-family="sans-serif" font-size="12" font-style="italic" lengthAdjust="spacing" textLength="68" x="694" y="573.457">«repository»</text><text fill="#000000" font-family="sans-serif" font-size="12" lengthAdjust="spacing" textLength="91" x="682.5" y="588.5508">TicketRepository</text><line style="stroke:#A80036;stroke-width:1.5;" x1="654.5" x2="775.5" y1="596.1875" y2="596.1875"/><line style="stroke:#A80036;stroke-width:1.5;" x1="654.5" x2="775.5" y1="604.1875" y2="604.1875"/><text fill="#000000" font-family="sans-serif" font-size="11" lengthAdjust="spacing" textLength="45" x="659.5" y="619.6064">+create()</text><text fill="#000000" font-family="sans-serif" font-size="11" lengthAdjust="spacing" textLength="63" x="659.5" y="633.4424">+save(ticket)</text><!--MD5=[69bb86ab6babb49b9e011e22ae952de4]
class CatalogueRepository--><rect codeLine="101" fill="#FEFECE" filter="url(#f350i4d8wk9uw)" height="83.8594" id="CatalogueRepository" style="stroke:#A80036;stroke-width:1.5;" width="148" x="470" y="556"/><ellipse cx="485" cy="576.0938" fill="#ADD1B2" rx="11" ry="11" style="stroke:#A80036;stroke-width:1.0;"/><path d="M487,572.5938 Q487.2031,572.0938 487.4375,571.8438 Q487.6719,571.5938 487.9375,571.5938 Q488.4063,571.5938 488.7031,571.875 Q489,572.1563 489,572.8125 L489,574.375 Q489,575.0313 488.7188,575.3125 Q488.4375,575.5938 488,575.5938 Q487.6094,575.5938 487.3594,575.4219 Q487.1094,575.25 487,574.7969 Q486.9531,574.4844 486.7813,574.3125 Q486.4688,573.9844 485.9063,573.7969 Q485.3438,573.5938 484.7813,573.5938 Q484.0781,573.5938 483.4844,573.875 Q482.9063,574.1563 482.4531,574.7813 Q482,575.4063 482,576.2656 L482,577.1875 Q482,578.2188 482.8438,578.9063 Q483.6875,579.5938 485.1875,579.5938 Q486.0781,579.5938 486.7031,579.3906 Q487.0625,579.2813 487.4688,578.9219 Q487.7344,578.7188 487.875,578.6563 Q488.0156,578.5938 488.1875,578.5938 Q488.5156,578.5938 488.75,578.8594 Q489,579.1094 489,579.4688 Q489,579.8125 488.6563,580.2188 Q488.1563,580.8125 487.3594,581.1406 Q486.3125,581.5938 485.0313,581.5938 Q483.5313,581.5938 482.3281,581 Q481.3594,580.5313 480.6719,579.5156 Q480,578.5 480,577.2969 L480,576.2031 Q480,574.9531 480.5938,573.8594 Q481.2031,572.7656 482.25,572.1875 Q483.3125,571.5938 484.5,571.5938 Q485.2188,571.5938 485.8438,571.8438 Q486.4688,572.0938 487,572.5938 Z " fill="#000000"/><text fill="#000000" font-family="sans-serif" font-size="12" font-style="italic" lengthAdjust="spacing" textLength="68" x="523" y="573.457">«repository»</text><text fill="#000000" font-family="sans-serif" font-size="12" lengthAdjust="spacing" textLength="116" x="499" y="588.5508">CatalogueRepository</text><line style="stroke:#A80036;stroke-width:1.5;" x1="471" x2="617" y1="596.1875" y2="596.1875"/><line style="stroke:#A80036;stroke-width:1.5;" x1="471" x2="617" y1="604.1875" y2="604.1875"/><text fill="#000000" font-family="sans-serif" font-size="11" lengthAdjust="spacing" textLength="45" x="476" y="619.6064">+create()</text><text fill="#000000" font-family="sans-serif" font-size="11" lengthAdjust="spacing" textLength="90" x="476" y="633.4424">+findByUser(user)</text><!--MD5=[77ccb0b93dfff6c7a0c6b7a44bdf9643]
class CatalogueRepositoryInterface--><rect codeLine="106" fill="#FEFECE" filter="url(#f350i4d8wk9uw)" height="48" id="CatalogueRepositoryInterface" style="stroke:#A80036;stroke-width:1.5;" width="196" x="467" y="717"/><ellipse cx="482" cy="733" fill="#B4A7E5" rx="11" ry="11" style="stroke:#A80036;stroke-width:1.0;"/><path d="M483,730 L483,736 L485,736 L485.4844,736 L486,736.625 L486,737 L486,737.375 L485.4844,738 L485,738 L479,738 L478.5156,738 L478,737.375 L478,737 L478,736.625 L478.5156,736 L479,736 L481,736 L481,730 L479,730 L478.5156,730 L478,729.375 L478,729 L478,728.625 L478.5156,728 L479,728 L485,728 L485.4844,728 L486,728.625 L486,729 L486,729.375 L485.4844,730 L485,730 L483,730 Z " fill="#000000"/><text fill="#000000" font-family="sans-serif" font-size="12" font-style="italic" lengthAdjust="spacing" textLength="164" x="496" y="737.9102">CatalogueRepositoryInterface</text><line style="stroke:#A80036;stroke-width:1.5;" x1="468" x2="662" y1="749" y2="749"/><line style="stroke:#A80036;stroke-width:1.5;" x1="468" x2="662" y1="757" y2="757"/><!--MD5=[cab4563c58fd86a508f6beb0373b4d78]
class TicketRepositoryInterface--><rect codeLine="110" fill="#FEFECE" filter="url(#f350i4d8wk9uw)" height="48" id="TicketRepositoryInterface" style="stroke:#A80036;stroke-width:1.5;" width="172" x="698" y="717"/><ellipse cx="713" cy="733" fill="#B4A7E5" rx="11" ry="11" style="stroke:#A80036;stroke-width:1.0;"/><path d="M714,730 L714,736 L716,736 L716.4844,736 L717,736.625 L717,737 L717,737.375 L716.4844,738 L716,738 L710,738 L709.5156,738 L709,737.375 L709,737 L709,736.625 L709.5156,736 L710,736 L712,736 L712,730 L710,730 L709.5156,730 L709,729.375 L709,729 L709,728.625 L709.5156,728 L710,728 L716,728 L716.4844,728 L717,728.625 L717,729 L717,729.375 L716.4844,730 L716,730 L714,730 Z " fill="#000000"/><text fill="#000000" font-family="sans-serif" font-size="12" font-style="italic" lengthAdjust="spacing" textLength="140" x="727" y="737.9102">TicketRepositoryInterface</text><line style="stroke:#A80036;stroke-width:1.5;" x1="699" x2="869" y1="749" y2="749"/><line style="stroke:#A80036;stroke-width:1.5;" x1="699" x2="869" y1="757" y2="757"/><!--MD5=[8159f625c6e50da2b70a395f95af11fd]
class ServiceRepositoryInterface--><rect codeLine="114" fill="#FEFECE" filter="url(#f350i4d8wk9uw)" height="48" id="ServiceRepositoryInterface" style="stroke:#A80036;stroke-width:1.5;" width="180" x="905" y="717"/><ellipse cx="920" cy="733" fill="#B4A7E5" rx="11" ry="11" style="stroke:#A80036;stroke-width:1.0;"/><path d="M921,730 L921,736 L923,736 L923.4844,736 L924,736.625 L924,737 L924,737.375 L923.4844,738 L923,738 L917,738 L916.5156,738 L916,737.375 L916,737 L916,736.625 L916.5156,736 L917,736 L919,736 L919,730 L917,730 L916.5156,730 L916,729.375 L916,729 L916,728.625 L916.5156,728 L917,728 L923,728 L923.4844,728 L924,728.625 L924,729 L924,729.375 L923.4844,730 L923,730 L921,730 Z " fill="#000000"/><text fill="#000000" font-family="sans-serif" font-size="12" font-style="italic" lengthAdjust="spacing" textLength="148" x="934" y="737.9102">ServiceRepositoryInterface</text><line style="stroke:#A80036;stroke-width:1.5;" x1="906" x2="1084" y1="749" y2="749"/><line style="stroke:#A80036;stroke-width:1.5;" x1="906" x2="1084" y1="757" y2="757"/><!--MD5=[7e41f4ef68487ec8ef409cde09d00d43]
link ServiceSolicitationUI to ServiceSolicitationController--><path codeLine="122" d="M132,118.13 C132,143.36 132,182.26 132,217.48 " fill="none" id="ServiceSolicitationUI-to-ServiceSolicitationController" style="stroke:#A80036;stroke-width:1.0;stroke-dasharray:7.0,7.0;"/><polygon fill="#A80036" points="132,222.65,136,213.65,132,217.65,128,213.65,132,222.65" style="stroke:#A80036;stroke-width:1.0;"/><!--MD5=[8b77cc39f1190bfa80bbcf10d131c7c2]
link ServiceSolicitationController to PersistenceContext--><path codeLine="123" d="M132,376.09 C132,433.91 132,511.32 132,557.49 " fill="none" id="ServiceSolicitationController-to-PersistenceContext" style="stroke:#A80036;stroke-width:1.0;stroke-dasharray:7.0,7.0;"/><polygon fill="#A80036" points="132,562.68,136,553.68,132,557.68,128,553.68,132,562.68" style="stroke:#A80036;stroke-width:1.0;"/><!--MD5=[41b7389dc9c161e00cc9719193d5127a]
link ServiceRepository to ServiceRepositoryInterface--><path codeLine="125" d="M921.36,640.16 C938.49,663.38 959.43,691.77 974.59,712.34 " fill="none" id="ServiceRepository-to-ServiceRepositoryInterface" style="stroke:#A80036;stroke-width:1.0;stroke-dasharray:7.0,7.0;"/><polygon fill="#A80036" points="977.74,716.6,975.6389,706.9779,974.7813,712.5693,969.1899,711.7118,977.74,716.6" style="stroke:#A80036;stroke-width:1.0;"/><!--MD5=[4f6e8106ead5ec04d25ee13ebd908ed4]
link TicketRepository to TicketRepositoryInterface--><path codeLine="126" d="M735.14,640.16 C746.46,663.29 760.28,691.54 770.34,712.08 " fill="none" id="TicketRepository-to-TicketRepositoryInterface" style="stroke:#A80036;stroke-width:1.0;stroke-dasharray:7.0,7.0;"/><polygon fill="#A80036" points="772.55,716.6,772.1783,706.7582,770.3483,712.1108,764.9956,710.2809,772.55,716.6" style="stroke:#A80036;stroke-width:1.0;"/><!--MD5=[d4624390685b6f56f0ffc2024476f319]
link CatalogueRepository to CatalogueRepositoryInterface--><path codeLine="127" d="M550.13,640.16 C553.55,663.09 557.71,691.06 560.76,711.56 " fill="none" id="CatalogueRepository-to-CatalogueRepositoryInterface" style="stroke:#A80036;stroke-width:1.0;stroke-dasharray:7.0,7.0;"/><polygon fill="#A80036" points="561.51,716.6,564.1548,707.1129,560.7809,711.6534,556.2403,708.2795,561.51,716.6" style="stroke:#A80036;stroke-width:1.0;"/><!--MD5=[d66efb439816738ddd3e9d5fff4bf3a7]
link AppSettings to RepositoryFactory--><path codeLine="129" d="M380.67,555.67 C391.88,521.01 413.28,474.21 451,452 C513.24,415.36 1036.02,420.47 1101,452 C1137.66,469.79 1166.14,505.56 1185.58,537.24 " fill="none" id="AppSettings-to-RepositoryFactory" style="stroke:#A80036;stroke-width:1.0;"/><polygon fill="#A80036" points="1188.39,541.88,1187.1895,532.1046,1185.8175,537.5925,1180.3296,536.2205,1188.39,541.88" style="stroke:#A80036;stroke-width:1.0;"/><text fill="#000000" font-family="sans-serif" font-size="13" lengthAdjust="spacing" textLength="43" x="1079.5" y="422.4951">creates</text><!--MD5=[27fe1c91fe18bafc5695938053528609]
link PersistenceContext to AppSettings--><path codeLine="130" d="M201.8,598 C232.53,598 268.57,598 299.39,598 " fill="none" id="PersistenceContext-to-AppSettings" style="stroke:#A80036;stroke-width:1.0;"/><polygon fill="#A80036" points="304.69,598,295.69,594,299.69,598,295.69,602,304.69,598" style="stroke:#A80036;stroke-width:1.0;"/><text fill="#000000" font-family="sans-serif" font-size="13" lengthAdjust="spacing" textLength="67" x="219.75" y="591.4951">implements</text><!--MD5=[e2407c399f2ae11eec8128dc99dd93a4]
link RepositoryFactory to ServiceRepository--><path codeLine="132" d="M1150.96,598 C1100.62,598 1030.49,598 975.75,598 " fill="none" id="RepositoryFactory-to-ServiceRepository" style="stroke:#A80036;stroke-width:1.0;"/><polygon fill="#A80036" points="970.5,598,979.5,602,975.5,598,979.5,594,970.5,598" style="stroke:#A80036;stroke-width:1.0;"/><text fill="#000000" font-family="sans-serif" font-size="13" lengthAdjust="spacing" textLength="21" x="1050.25" y="591.4951">has</text><text fill="#000000" font-family="sans-serif" font-size="13" lengthAdjust="spacing" textLength="7" x="1136.0351" y="594.6175">1</text><text fill="#000000" font-family="sans-serif" font-size="13" lengthAdjust="spacing" textLength="7" x="978.4109" y="594.7561">1</text><!--MD5=[5bff1ba4545904566950db729078bbcb]
link RepositoryFactory to TicketRepository--><path codeLine="133" d="M1188.39,541.88 C1168.92,509.12 1139.46,470.67 1101,452 C1039.62,422.21 852.61,417.08 794,452 C758.37,473.23 737.83,516.74 726.68,550.76 " fill="none" id="RepositoryFactory-to-TicketRepository" style="stroke:#A80036;stroke-width:1.0;"/><polygon fill="#A80036" points="725.1,555.71,731.6551,548.3594,726.6254,550.9484,724.0365,545.9187,725.1,555.71" style="stroke:#A80036;stroke-width:1.0;"/><text fill="#000000" font-family="sans-serif" font-size="13" lengthAdjust="spacing" textLength="21" x="1129.5" y="422.4951">has</text><text fill="#000000" font-family="sans-serif" font-size="13" lengthAdjust="spacing" textLength="7" x="1177.404" y="531.2123">1</text><text fill="#000000" font-family="sans-serif" font-size="13" lengthAdjust="spacing" textLength="7" x="719.1519" y="545.2294">1</text><!--MD5=[5f59416c95391d0902a6b5df5b91b5a8]
link RepositoryFactory to CatalogueRepository--><path codeLine="134" d="M1188.39,541.88 C1168.92,509.12 1139.46,470.67 1101,452 C1008.04,406.89 726.47,402.07 636,452 C598.12,472.9 573.7,516.68 559.61,550.87 " fill="none" id="RepositoryFactory-to-CatalogueRepository" style="stroke:#A80036;stroke-width:1.0;"/><polygon fill="#A80036" points="557.61,555.84,564.6919,548.9956,559.4842,551.2046,557.2752,545.9968,557.61,555.84" style="stroke:#A80036;stroke-width:1.0;"/><text fill="#000000" font-family="sans-serif" font-size="13" lengthAdjust="spacing" textLength="21" x="1051.5" y="422.4951">has</text><text fill="#000000" font-family="sans-serif" font-size="13" lengthAdjust="spacing" textLength="7" x="1185.3009" y="531.2123">1</text><text fill="#000000" font-family="sans-serif" font-size="13" lengthAdjust="spacing" textLength="7" x="552.2845" y="545.0681">1</text><!--MD5=[ddea2b4faec7cb9808defc1f4512b95e]
link ServiceRepository to Service--><path codeLine="136" d="M942.36,555.88 C989.26,520.34 1062.2,472.12 1135,452 C1212,430.72 2507.44,406.35 2573,452 C2604.47,473.92 2617.65,516.4 2623.14,549.91 " fill="none" id="ServiceRepository-to-Service" style="stroke:#A80036;stroke-width:1.0;"/><polygon fill="#A80036" points="2623.95,555.21,2626.5412,545.7081,2623.1929,550.2676,2618.6334,546.9194,2623.95,555.21" style="stroke:#A80036;stroke-width:1.0;"/><text fill="#000000" font-family="sans-serif" font-size="13" lengthAdjust="spacing" textLength="33" x="971.5" y="422.4951">saves</text><text fill="#000000" font-family="sans-serif" font-size="13" lengthAdjust="spacing" textLength="7" x="943.2868" y="545.1148">1</text><text fill="#000000" font-family="sans-serif" font-size="13" lengthAdjust="spacing" textLength="5" x="2618.0655" y="544.6291">*</text><!--MD5=[8d13ccae9c336ce6f49923e618723811]
link TicketRepository to Ticket--><path codeLine="137" d="M725.1,555.71 C735.85,521.07 756.62,474.28 794,452 C858.33,413.66 1399.06,422.74 1468,452 C1512.11,470.72 1549.14,510.74 1574.16,544.16 " fill="none" id="TicketRepository-to-Ticket" style="stroke:#A80036;stroke-width:1.0;"/><polygon fill="#A80036" points="1577.16,548.2,1575.0205,538.5863,1574.1852,544.1812,1568.5904,543.346,1577.16,548.2" style="stroke:#A80036;stroke-width:1.0;"/><text fill="#000000" font-family="sans-serif" font-size="13" lengthAdjust="spacing" textLength="33" x="1479.5" y="422.4951">saves</text><text fill="#000000" font-family="sans-serif" font-size="13" lengthAdjust="spacing" textLength="7" x="727.2675" y="545.2294">1</text><text fill="#000000" font-family="sans-serif" font-size="13" lengthAdjust="spacing" textLength="5" x="1567.3309" y="537.595">*</text><!--MD5=[bf1701638b109f176f85067536801975]
link CatalogueRepository to Catalogue--><path codeLine="138" d="M557.61,555.84 C571.34,521.04 596.26,473.93 636,452 C700.3,416.51 1231.35,419.08 1297,452 C1337.86,472.49 1367.33,516.37 1385.24,550.7 " fill="none" id="CatalogueRepository-to-Catalogue" style="stroke:#A80036;stroke-width:1.0;"/><polygon fill="#A80036" points="1387.58,555.27,1387.0196,545.4371,1385.2926,550.8239,1379.9058,549.0969,1387.58,555.27" style="stroke:#A80036;stroke-width:1.0;"/><text fill="#000000" font-family="sans-serif" font-size="13" lengthAdjust="spacing" textLength="33" x="1011.5" y="422.4951">saves</text><text fill="#000000" font-family="sans-serif" font-size="13" lengthAdjust="spacing" textLength="7" x="560.4438" y="545.0681">1</text><text fill="#000000" font-family="sans-serif" font-size="13" lengthAdjust="spacing" textLength="5" x="1379.2459" y="544.6987">*</text><!--MD5=[84b7c641586de9d73bc51d19d15fe34b]
link Catalogue to Service--><path codeLine="140" d="M1419.32,555.18 C1432.64,520.46 1456.87,473.85 1496,452 C1548.24,422.83 2523.9,417.81 2573,452 C2604.47,473.92 2617.65,516.4 2623.14,549.91 " fill="none" id="Catalogue-to-Service" style="stroke:#A80036;stroke-width:1.0;"/><polygon fill="#A80036" points="2623.95,555.21,2626.5412,545.7081,2623.1929,550.2676,2618.6334,546.9194,2623.95,555.21" style="stroke:#A80036;stroke-width:1.0;"/><text fill="#000000" font-family="sans-serif" font-size="13" lengthAdjust="spacing" textLength="21" x="1451.5" y="422.4951">has</text><text fill="#000000" font-family="sans-serif" font-size="13" lengthAdjust="spacing" textLength="7" x="1413.8851" y="544.5944">1</text><text fill="#000000" font-family="sans-serif" font-size="13" lengthAdjust="spacing" textLength="5" x="2618.0655" y="544.6291">*</text><!--MD5=[97e168008b52a7eda5de4adba506e93f]
link Service to Form--><path codeLine="141" d="M2663.11,598 C2678.11,598 2696.35,598 2714.99,598 " fill="none" id="Service-to-Form" style="stroke:#A80036;stroke-width:1.0;"/><polygon fill="#A80036" points="2720.26,598,2711.26,594,2715.26,598,2711.26,602,2720.26,598" style="stroke:#A80036;stroke-width:1.0;"/><text fill="#000000" font-family="sans-serif" font-size="13" lengthAdjust="spacing" textLength="21" x="2681.25" y="591.4951">has</text><text fill="#000000" font-family="sans-serif" font-size="13" lengthAdjust="spacing" textLength="7" x="2670.9082" y="593.9432">1</text><text fill="#000000" font-family="sans-serif" font-size="13" lengthAdjust="spacing" textLength="5" x="2707.5088" y="594.8916">*</text><!--MD5=[971d5490c4dc9d82955338ed7a7bbf99]
link Form to Attribute--><path codeLine="142" d="M2917.62,598 C2934.49,598 2952.39,598 2970.34,598 " fill="none" id="Form-to-Attribute" style="stroke:#A80036;stroke-width:1.0;"/><polygon fill="#A80036" points="2975.41,598,2966.41,594,2970.41,598,2966.41,602,2975.41,598" style="stroke:#A80036;stroke-width:1.0;"/><text fill="#000000" font-family="sans-serif" font-size="13" lengthAdjust="spacing" textLength="21" x="2936" y="591.4951">has</text><text fill="#000000" font-family="sans-serif" font-size="13" lengthAdjust="spacing" textLength="7" x="2925.4386" y="594.8916">1</text><text fill="#000000" font-family="sans-serif" font-size="13" lengthAdjust="spacing" textLength="20" x="2947.5345" y="611.8906">1..*</text><!--MD5=[896a845be905199eb0b9f67eff0d40fd]
link Ticket to Service--><path codeLine="144" d="M1639.31,548.24 C1663.24,514.1 1700.05,471.56 1745,452 C1829.36,415.29 2497.5,399.43 2573,452 C2604.47,473.92 2617.65,516.4 2623.14,549.91 " fill="none" id="Ticket-to-Service" style="stroke:#A80036;stroke-width:1.0;"/><polygon fill="#A80036" points="2623.95,555.21,2626.5412,545.7081,2623.1929,550.2676,2618.6334,546.9194,2623.95,555.21" style="stroke:#A80036;stroke-width:1.0;"/><text fill="#000000" font-family="sans-serif" font-size="13" lengthAdjust="spacing" textLength="21" x="2307.5" y="422.4951">has</text><text fill="#000000" font-family="sans-serif" font-size="13" lengthAdjust="spacing" textLength="7" x="1636.0802" y="537.6406">1</text><text fill="#000000" font-family="sans-serif" font-size="13" lengthAdjust="spacing" textLength="20" x="2625.0577" y="544.6291">1..*</text><!--MD5=[a512ce3b4bc7659f5d71d37f3ce339fe]
link Ticket to TicketUrgency--><path codeLine="145" d="M1639.31,548.24 C1663.24,514.1 1700.05,471.56 1745,452 C1812.85,422.47 2347.23,414.45 2411,452 C2446.95,473.17 2468.08,516.68 2479.69,550.72 " fill="none" id="Ticket-to-TicketUrgency" style="stroke:#A80036;stroke-width:1.0;"/><polygon fill="#A80036" points="2481.33,555.67,2482.2964,545.8687,2479.7574,550.9237,2474.7024,548.3848,2481.33,555.67" style="stroke:#A80036;stroke-width:1.0;"/><text fill="#000000" font-family="sans-serif" font-size="13" lengthAdjust="spacing" textLength="21" x="1724.5" y="422.4951">has</text><text fill="#000000" font-family="sans-serif" font-size="13" lengthAdjust="spacing" textLength="7" x="1644.0645" y="537.6406">1</text><text fill="#000000" font-family="sans-serif" font-size="13" lengthAdjust="spacing" textLength="20" x="2458.0357" y="545.183">1..*</text><!--MD5=[59cb4316f109ed81e99887aa34707e55]
link Ticket to TicketLimitDate--><path codeLine="146" d="M1639.31,548.24 C1663.24,514.1 1700.05,471.56 1745,452 C1847.29,407.49 2150.72,395.65 2247,452 C2283.23,473.2 2304.68,516.94 2316.49,551.04 " fill="none" id="Ticket-to-TicketLimitDate" style="stroke:#A80036;stroke-width:1.0;"/><polygon fill="#A80036" points="2318.17,556,2319.0743,546.1927,2316.5674,551.2638,2311.4964,548.7569,2318.17,556" style="stroke:#A80036;stroke-width:1.0;"/><text fill="#000000" font-family="sans-serif" font-size="13" lengthAdjust="spacing" textLength="21" x="1826.5" y="422.4951">has</text><text fill="#000000" font-family="sans-serif" font-size="13" lengthAdjust="spacing" textLength="7" x="1636.0802" y="537.6406">1</text><text fill="#000000" font-family="sans-serif" font-size="13" lengthAdjust="spacing" textLength="20" x="2294.72" y="545.2546">1..*</text><!--MD5=[32e66de84d0a391b308a9864f42a8cc1]
link Ticket to TicketCreationDate--><path codeLine="147" d="M1639.31,548.24 C1663.24,514.1 1700.05,471.56 1745,452 C1809.8,423.8 2001.13,417.86 2063,452 C2100.88,472.9 2125.3,516.68 2139.39,550.87 " fill="none" id="Ticket-to-TicketCreationDate" style="stroke:#A80036;stroke-width:1.0;"/><polygon fill="#A80036" points="2141.39,555.84,2141.7248,545.9968,2139.5158,551.2046,2134.3081,548.9956,2141.39,555.84" style="stroke:#A80036;stroke-width:1.0;"/><text fill="#000000" font-family="sans-serif" font-size="13" lengthAdjust="spacing" textLength="21" x="1998.5" y="422.4951">has</text><text fill="#000000" font-family="sans-serif" font-size="13" lengthAdjust="spacing" textLength="7" x="1648.0609" y="537.3182">1</text><text fill="#000000" font-family="sans-serif" font-size="13" lengthAdjust="spacing" textLength="20" x="2117.4796" y="545.0681">1..*</text><!--MD5=[5fced67a21f069320c2f5830c2c62e89]
link Ticket to TicketFile--><path codeLine="148" d="M1639.31,548.24 C1663.24,514.1 1700.05,471.56 1745,452 C1814.28,421.85 1850.62,412.45 1915,452 C1949.85,473.41 1968.9,516.89 1978.91,550.86 " fill="none" id="Ticket-to-TicketFile" style="stroke:#A80036;stroke-width:1.0;"/><polygon fill="#A80036" points="1980.32,555.8,1981.7013,546.0485,1978.9502,550.9913,1974.0073,548.2402,1980.32,555.8" style="stroke:#A80036;stroke-width:1.0;"/><text fill="#000000" font-family="sans-serif" font-size="13" lengthAdjust="spacing" textLength="21" x="1891.5" y="422.4951">has</text><text fill="#000000" font-family="sans-serif" font-size="13" lengthAdjust="spacing" textLength="7" x="1644.0645" y="537.6406">1</text><text fill="#000000" font-family="sans-serif" font-size="13" lengthAdjust="spacing" textLength="20" x="1957.2261" y="545.0215">1..*</text><!--MD5=[93d8befc928050d9444087799ece196a]
link Ticket to TicketResponse--><path codeLine="149" d="M1704.65,598 C1722.3,598 1740.47,598 1757.31,598 " fill="none" id="Ticket-to-TicketResponse" style="stroke:#A80036;stroke-width:1.0;"/><polygon fill="#A80036" points="1762.49,598,1753.49,594,1757.49,598,1753.49,602,1762.49,598" style="stroke:#A80036;stroke-width:1.0;"/><text fill="#000000" font-family="sans-serif" font-size="13" lengthAdjust="spacing" textLength="21" x="1723" y="591.4951">has</text><text fill="#000000" font-family="sans-serif" font-size="13" lengthAdjust="spacing" textLength="7" x="1712.551" y="594.8735">1</text><text fill="#000000" font-family="sans-serif" font-size="13" lengthAdjust="spacing" textLength="20" x="1734.4968" y="612.3455">1..*</text><!--MD5=[9559405479f74bb06dbd1a1b33592b9d]
@startuml
skinparam classAttributeIconSize 0

package "Presentation" #DDDDDD {
class ServiceSolicitationUI<<presentation>>{

}
}


package "Application" #DDDDDD {
class ServiceSolicitationController<<application>>{
+create()
+getCataloguesByUser()
+getServicesByCatalogue(oCatalogue)
+addResponse(response)
+addTicket(service, urgency, \nlimitDate, creationDate, lstFiles)
+saveTicket(ticket)
}

}


package "Domain" #DDDDDD {
class Service<<Entity>><<Root>>{
+create()
}

class Form<<Entity>><<Root>>{
+create(name, formType, attributeList)
}

class Attribute<<Entity>>{
+create(name, label, description, regex, scriptPath, dataType
}

class Catalogue<<Entity>><<Root>>{
+create()
}

class Ticket<<Entity>><<Root>>{
+create(service, urgency, limitDate,\n creationDate, lstFiles, lstResponses)
}

class TicketUrgency<<Value Object>>{
+create(ticketUrgency)
-validate(ticketUrgency)
}

class TicketLimitDate<<Value Object>>{
+create(ticketLimitDate)
-validate(ticketLimitDate)
}

class TicketCreationDate<<Value Object>>{
+create(ticketCreationDate)
-validate(ticketCreationDate)
}

class TicketFile<<Value Object>>{
+create(ticketFile)
-validate(ticketFile)
}

class TicketResponse<<Value Object>>{
+create(ticketResponse)
-validate(ticketResponse)
}
}

package Persistence #DDDDDD {
class PersistenceContext<<persistence>>{
+repositories()
}

class AppSettings<<persistence>>{
+instance()
+getRepositoryFactory()
}

package Factory #DDDDDD {
class RepositoryFactory<<persistence>>{
+create()
+servicos()
+catalogos()
+formularios()
}
}

package "Repository" #DDDDDD {

class ServiceRepository<<repository>>{
+create()
+findByCatalogue(oCatalogue)
}

class TicketRepository<<repository>>{
+create()
+save(ticket)
}

class CatalogueRepository<<repository>>{
+create()
+findByUser(user)
}

interface CatalogueRepositoryInterface{

}

interface TicketRepositoryInterface{

}

interface ServiceRepositoryInterface{

}

}



ServiceSolicitationUI ..> ServiceSolicitationController
ServiceSolicitationController ..> PersistenceContext

ServiceRepository ..> ServiceRepositoryInterface
TicketRepository ..> TicketRepositoryInterface
CatalogueRepository ..> CatalogueRepositoryInterface

AppSettings -> RepositoryFactory : creates
PersistenceContext -> AppSettings : implements

RepositoryFactory "1" -> "1" ServiceRepository : has
RepositoryFactory "1" -> "1" TicketRepository : has
RepositoryFactory "1" -> "1" CatalogueRepository : has

ServiceRepository "1" -> "*" Service : saves
TicketRepository "1" -> "*" Ticket : saves
CatalogueRepository "1" -> "*" Catalogue : saves

Catalogue "1" -> "*" Service : has
Service "1" -> "*" Form : has
Form "1" -> "1..*" Attribute : has

Ticket "1" -> "1..*" Service : has
Ticket "1" -> "1..*" TicketUrgency : has
Ticket "1" -> "1..*" TicketLimitDate : has
Ticket "1" -> "1..*" TicketCreationDate : has
Ticket "1" -> "1..*" TicketFile : has
Ticket "1" -> "1..*" TicketResponse : has

@enduml

PlantUML version 1.2021.5(Sun Apr 25 12:20:28 BST 2021)
(GPL source distribution)
Java Runtime: OpenJDK Runtime Environment
JVM: OpenJDK 64-Bit Server VM
Default Encoding: Cp1252
Language: pt
Country: PT
--></g></svg>