<?xml version="1.0" encoding="UTF-8" standalone="no"?><svg xmlns="http://www.w3.org/2000/svg" xmlns:xlink="http://www.w3.org/1999/xlink" contentScriptType="application/ecmascript" contentStyleType="text/css" height="812px" preserveAspectRatio="none" style="width:3513px;height:812px;" version="1.1" viewBox="0 0 3513 812" width="3513px" zoomAndPan="magnify"><defs><filter height="300%" id="f1xligs3y53frf" width="300%" x="-1" y="-1"><feGaussianBlur result="blurOut" stdDeviation="2.0"/><feColorMatrix in="blurOut" result="blurOut2" type="matrix" values="0 0 0 0 0 0 0 0 0 0 0 0 0 0 0 0 0 0 .4 0"/><feOffset dx="4.0" dy="4.0" in="blurOut2" result="blurOut3"/><feBlend in="SourceGraphic" in2="blurOut3" mode="normal"/></filter></defs><g><!--MD5=[8fd473fd151a2794da4f2c8684676405]
cluster Presentation--><polygon fill="#DDDDDD" filter="url(#f1xligs3y53frf)" points="44,6,140,6,147,29.6094,220,29.6094,220,134,44,134,44,6" style="stroke:#000000;stroke-width:1.5;"/><line style="stroke:#000000;stroke-width:1.5;" x1="44" x2="147" y1="29.6094" y2="29.6094"/><text fill="#000000" font-family="sans-serif" font-size="14" font-weight="bold" lengthAdjust="spacing" textLength="90" x="48" y="22.5332">Presentation</text><!--MD5=[d64883541e3d62e3241c4d12decf100d]
cluster Application--><polygon fill="#DDDDDD" filter="url(#f1xligs3y53frf)" points="16,167,100,167,107,190.6094,248,190.6094,248,392,16,392,16,167" style="stroke:#000000;stroke-width:1.5;"/><line style="stroke:#000000;stroke-width:1.5;" x1="16" x2="107" y1="190.6094" y2="190.6094"/><text fill="#000000" font-family="sans-serif" font-size="14" font-weight="bold" lengthAdjust="spacing" textLength="78" x="20" y="183.5332">Application</text><!--MD5=[121a8bf1197281ab89ed693fab589f94]
cluster Domain--><polygon fill="#DDDDDD" filter="url(#f1xligs3y53frf)" points="1566,492.5,1624,492.5,1631,516.1094,3496,516.1094,3496,663.5,1566,663.5,1566,492.5" style="stroke:#000000;stroke-width:1.5;"/><line style="stroke:#000000;stroke-width:1.5;" x1="1566" x2="1631" y1="516.1094" y2="516.1094"/><text fill="#000000" font-family="sans-serif" font-size="14" font-weight="bold" lengthAdjust="spacing" textLength="52" x="1570" y="509.0332">Domain</text><!--MD5=[bc6b40dadbf86ab6a0c8405a467a48af]
cluster Persistence--><polygon fill="#DDDDDD" filter="url(#f1xligs3y53frf)" points="46,442,136,442,143,465.6094,1542,465.6094,1542,805,46,805,46,442" style="stroke:#000000;stroke-width:1.5;"/><line style="stroke:#000000;stroke-width:1.5;" x1="46" x2="143" y1="465.6094" y2="465.6094"/><text fill="#000000" font-family="sans-serif" font-size="14" font-weight="bold" lengthAdjust="spacing" textLength="84" x="50" y="458.5332">Persistence</text><!--MD5=[0d5799440b3bfefd92b00abfcd2c79b9]
cluster Factory--><polygon fill="#DDDDDD" filter="url(#f1xligs3y53frf)" points="1356,486,1414,486,1421,509.6094,1518,509.6094,1518,670,1356,670,1356,486" style="stroke:#000000;stroke-width:1.5;"/><line style="stroke:#000000;stroke-width:1.5;" x1="1356" x2="1421" y1="509.6094" y2="509.6094"/><text fill="#000000" font-family="sans-serif" font-size="14" font-weight="bold" lengthAdjust="spacing" textLength="52" x="1360" y="502.5332">Factory</text><!--MD5=[71971f99a41bb66cf321ce46bb59f738]
cluster Repository--><polygon fill="#DDDDDD" filter="url(#f1xligs3y53frf)" points="451,500,533,500,540,523.6094,1332,523.6094,1332,781,451,781,451,500" style="stroke:#000000;stroke-width:1.5;"/><line style="stroke:#000000;stroke-width:1.5;" x1="451" x2="540" y1="523.6094" y2="523.6094"/><text fill="#000000" font-family="sans-serif" font-size="14" font-weight="bold" lengthAdjust="spacing" textLength="76" x="455" y="516.5332">Repository</text><!--MD5=[74ebf5bb8db6e21684ea7dae1cdb3160]
class ServiceSolicitationUI--><rect codeLine="4" fill="#FEFECE" filter="url(#f1xligs3y53frf)" height="56.1875" id="ServiceSolicitationUI" style="stroke:#A80036;stroke-width:1.5;" width="144" x="60" y="62"/><ellipse cx="75" cy="82.0938" fill="#ADD1B2" rx="11" ry="11" style="stroke:#A80036;stroke-width:1.0;"/><path d="M77,78.5938 Q77.2031,78.0938 77.4375,77.8438 Q77.6719,77.5938 77.9375,77.5938 Q78.4063,77.5938 78.7031,77.875 Q79,78.1563 79,78.8125 L79,80.375 Q79,81.0313 78.7188,81.3125 Q78.4375,81.5938 78,81.5938 Q77.6094,81.5938 77.3594,81.4219 Q77.1094,81.25 77,80.7969 Q76.9531,80.4844 76.7813,80.3125 Q76.4688,79.9844 75.9063,79.7969 Q75.3438,79.5938 74.7813,79.5938 Q74.0781,79.5938 73.4844,79.875 Q72.9063,80.1563 72.4531,80.7813 Q72,81.4063 72,82.2656 L72,83.1875 Q72,84.2188 72.8438,84.9063 Q73.6875,85.5938 75.1875,85.5938 Q76.0781,85.5938 76.7031,85.3906 Q77.0625,85.2813 77.4688,84.9219 Q77.7344,84.7188 77.875,84.6563 Q78.0156,84.5938 78.1875,84.5938 Q78.5156,84.5938 78.75,84.8594 Q79,85.1094 79,85.4688 Q79,85.8125 78.6563,86.2188 Q78.1563,86.8125 77.3594,87.1406 Q76.3125,87.5938 75.0313,87.5938 Q73.5313,87.5938 72.3281,87 Q71.3594,86.5313 70.6719,85.5156 Q70,84.5 70,83.2969 L70,82.2031 Q70,80.9531 70.5938,79.8594 Q71.2031,78.7656 72.25,78.1875 Q73.3125,77.5938 74.5,77.5938 Q75.2188,77.5938 75.8438,77.8438 Q76.4688,78.0938 77,78.5938 Z " fill="#000000"/><text fill="#000000" font-family="sans-serif" font-size="12" font-style="italic" lengthAdjust="spacing" textLength="82" x="104" y="79.457">«presentation»</text><text fill="#000000" font-family="sans-serif" font-size="12" lengthAdjust="spacing" textLength="112" x="89" y="94.5508">ServiceSolicitationUI</text><line style="stroke:#A80036;stroke-width:1.5;" x1="61" x2="203" y1="102.1875" y2="102.1875"/><line style="stroke:#A80036;stroke-width:1.5;" x1="61" x2="203" y1="110.1875" y2="110.1875"/><!--MD5=[a7b119f9cf2ca8e0ba39173f5929d778]
class ServiceSolicitationController--><rect codeLine="11" fill="#FEFECE" filter="url(#f1xligs3y53frf)" height="153.0391" id="ServiceSolicitationController" style="stroke:#A80036;stroke-width:1.5;" width="199" x="32.5" y="223"/><ellipse cx="53.35" cy="243.0938" fill="#ADD1B2" rx="11" ry="11" style="stroke:#A80036;stroke-width:1.0;"/><path d="M55.35,239.5938 Q55.5531,239.0938 55.7875,238.8438 Q56.0219,238.5938 56.2875,238.5938 Q56.7563,238.5938 57.0531,238.875 Q57.35,239.1563 57.35,239.8125 L57.35,241.375 Q57.35,242.0313 57.0688,242.3125 Q56.7875,242.5938 56.35,242.5938 Q55.9594,242.5938 55.7094,242.4219 Q55.4594,242.25 55.35,241.7969 Q55.3031,241.4844 55.1313,241.3125 Q54.8188,240.9844 54.2563,240.7969 Q53.6938,240.5938 53.1313,240.5938 Q52.4281,240.5938 51.8344,240.875 Q51.2563,241.1563 50.8031,241.7813 Q50.35,242.4063 50.35,243.2656 L50.35,244.1875 Q50.35,245.2188 51.1938,245.9063 Q52.0375,246.5938 53.5375,246.5938 Q54.4281,246.5938 55.0531,246.3906 Q55.4125,246.2813 55.8188,245.9219 Q56.0844,245.7188 56.225,245.6563 Q56.3656,245.5938 56.5375,245.5938 Q56.8656,245.5938 57.1,245.8594 Q57.35,246.1094 57.35,246.4688 Q57.35,246.8125 57.0063,247.2188 Q56.5063,247.8125 55.7094,248.1406 Q54.6625,248.5938 53.3813,248.5938 Q51.8813,248.5938 50.6781,248 Q49.7094,247.5313 49.0219,246.5156 Q48.35,245.5 48.35,244.2969 L48.35,243.2031 Q48.35,241.9531 48.9438,240.8594 Q49.5531,239.7656 50.6,239.1875 Q51.6625,238.5938 52.85,238.5938 Q53.5688,238.5938 54.1938,238.8438 Q54.8188,239.0938 55.35,239.5938 Z " fill="#000000"/><text fill="#000000" font-family="sans-serif" font-size="12" font-style="italic" lengthAdjust="spacing" textLength="74" x="108.65" y="240.457">«application»</text><text fill="#000000" font-family="sans-serif" font-size="12" lengthAdjust="spacing" textLength="154" x="68.65" y="255.5508">ServiceSolicitationController</text><line style="stroke:#A80036;stroke-width:1.5;" x1="33.5" x2="230.5" y1="263.1875" y2="263.1875"/><line style="stroke:#A80036;stroke-width:1.5;" x1="33.5" x2="230.5" y1="271.1875" y2="271.1875"/><text fill="#000000" font-family="sans-serif" font-size="11" lengthAdjust="spacing" textLength="45" x="38.5" y="286.6064">+create()</text><text fill="#000000" font-family="sans-serif" font-size="11" lengthAdjust="spacing" textLength="119" x="38.5" y="300.4424">+getCataloguesByUser()</text><text fill="#000000" font-family="sans-serif" font-size="11" lengthAdjust="spacing" textLength="187" x="38.5" y="314.2783">+getServicesByCatalogue(oCatalogue)</text><text fill="#000000" font-family="sans-serif" font-size="11" lengthAdjust="spacing" textLength="127" x="38.5" y="328.1143">+addResponse(response)</text><text fill="#000000" font-family="sans-serif" font-size="11" lengthAdjust="spacing" textLength="141" x="38.5" y="341.9502">+addTicket(service, urgency,</text><text fill="#000000" font-family="sans-serif" font-size="11" lengthAdjust="spacing" textLength="149" x="38.5" y="355.7861">limitDate, creationDate, lstFiles)</text><text fill="#000000" font-family="sans-serif" font-size="11" lengthAdjust="spacing" textLength="91" x="38.5" y="369.6221">+saveTicket(ticket)</text><!--MD5=[dbb8b4f13c7b21394f9d757e58732f45]
class Service--><rect codeLine="24" fill="#FEFECE" filter="url(#f1xligs3y53frf)" height="85.1172" id="Service" style="stroke:#A80036;stroke-width:1.5;" width="72" x="2790" y="555.5"/><ellipse cx="2805" cy="583.1406" fill="#ADD1B2" rx="11" ry="11" style="stroke:#A80036;stroke-width:1.0;"/><path d="M2807,579.6406 Q2807.2031,579.1406 2807.4375,578.8906 Q2807.6719,578.6406 2807.9375,578.6406 Q2808.4063,578.6406 2808.7031,578.9219 Q2809,579.2031 2809,579.8594 L2809,581.4219 Q2809,582.0781 2808.7188,582.3594 Q2808.4375,582.6406 2808,582.6406 Q2807.6094,582.6406 2807.3594,582.4688 Q2807.1094,582.2969 2807,581.8438 Q2806.9531,581.5313 2806.7813,581.3594 Q2806.4688,581.0313 2805.9063,580.8438 Q2805.3438,580.6406 2804.7813,580.6406 Q2804.0781,580.6406 2803.4844,580.9219 Q2802.9063,581.2031 2802.4531,581.8281 Q2802,582.4531 2802,583.3125 L2802,584.2344 Q2802,585.2656 2802.8438,585.9531 Q2803.6875,586.6406 2805.1875,586.6406 Q2806.0781,586.6406 2806.7031,586.4375 Q2807.0625,586.3281 2807.4688,585.9688 Q2807.7344,585.7656 2807.875,585.7031 Q2808.0156,585.6406 2808.1875,585.6406 Q2808.5156,585.6406 2808.75,585.9063 Q2809,586.1563 2809,586.5156 Q2809,586.8594 2808.6563,587.2656 Q2808.1563,587.8594 2807.3594,588.1875 Q2806.3125,588.6406 2805.0313,588.6406 Q2803.5313,588.6406 2802.3281,588.0469 Q2801.3594,587.5781 2800.6719,586.5625 Q2800,585.5469 2800,584.3438 L2800,583.25 Q2800,582 2800.5938,580.9063 Q2801.2031,579.8125 2802.25,579.2344 Q2803.3125,578.6406 2804.5,578.6406 Q2805.2188,578.6406 2805.8438,578.8906 Q2806.4688,579.1406 2807,579.6406 Z " fill="#000000"/><text fill="#000000" font-family="sans-serif" font-size="12" font-style="italic" lengthAdjust="spacing" textLength="44" x="2817" y="572.957">«Entity»</text><text fill="#000000" font-family="sans-serif" font-size="12" font-style="italic" lengthAdjust="spacing" textLength="40" x="2819" y="588.0508">«Root»</text><text fill="#000000" font-family="sans-serif" font-size="12" lengthAdjust="spacing" textLength="40" x="2819" y="603.1445">Service</text><line style="stroke:#A80036;stroke-width:1.5;" x1="2791" x2="2861" y1="610.7813" y2="610.7813"/><line style="stroke:#A80036;stroke-width:1.5;" x1="2791" x2="2861" y1="618.7813" y2="618.7813"/><text fill="#000000" font-family="sans-serif" font-size="11" lengthAdjust="spacing" textLength="45" x="2796" y="634.2002">+create()</text><!--MD5=[6f29f313cd4199edbf91b9ce3a4faa98]
class Form--><rect codeLine="28" fill="#FEFECE" filter="url(#f1xligs3y53frf)" height="85.1172" id="Form" style="stroke:#A80036;stroke-width:1.5;" width="197" x="2919.5" y="555.5"/><ellipse cx="2993.75" cy="583.1406" fill="#ADD1B2" rx="11" ry="11" style="stroke:#A80036;stroke-width:1.0;"/><path d="M2995.75,579.6406 Q2995.9531,579.1406 2996.1875,578.8906 Q2996.4219,578.6406 2996.6875,578.6406 Q2997.1563,578.6406 2997.4531,578.9219 Q2997.75,579.2031 2997.75,579.8594 L2997.75,581.4219 Q2997.75,582.0781 2997.4688,582.3594 Q2997.1875,582.6406 2996.75,582.6406 Q2996.3594,582.6406 2996.1094,582.4688 Q2995.8594,582.2969 2995.75,581.8438 Q2995.7031,581.5313 2995.5313,581.3594 Q2995.2188,581.0313 2994.6563,580.8438 Q2994.0938,580.6406 2993.5313,580.6406 Q2992.8281,580.6406 2992.2344,580.9219 Q2991.6563,581.2031 2991.2031,581.8281 Q2990.75,582.4531 2990.75,583.3125 L2990.75,584.2344 Q2990.75,585.2656 2991.5938,585.9531 Q2992.4375,586.6406 2993.9375,586.6406 Q2994.8281,586.6406 2995.4531,586.4375 Q2995.8125,586.3281 2996.2188,585.9688 Q2996.4844,585.7656 2996.625,585.7031 Q2996.7656,585.6406 2996.9375,585.6406 Q2997.2656,585.6406 2997.5,585.9063 Q2997.75,586.1563 2997.75,586.5156 Q2997.75,586.8594 2997.4063,587.2656 Q2996.9063,587.8594 2996.1094,588.1875 Q2995.0625,588.6406 2993.7813,588.6406 Q2992.2813,588.6406 2991.0781,588.0469 Q2990.1094,587.5781 2989.4219,586.5625 Q2988.75,585.5469 2988.75,584.3438 L2988.75,583.25 Q2988.75,582 2989.3438,580.9063 Q2989.9531,579.8125 2991,579.2344 Q2992.0625,578.6406 2993.25,578.6406 Q2993.9688,578.6406 2994.5938,578.8906 Q2995.2188,579.1406 2995.75,579.6406 Z " fill="#000000"/><text fill="#000000" font-family="sans-serif" font-size="12" font-style="italic" lengthAdjust="spacing" textLength="44" x="3012.25" y="572.957">«Entity»</text><text fill="#000000" font-family="sans-serif" font-size="12" font-style="italic" lengthAdjust="spacing" textLength="40" x="3014.25" y="588.0508">«Root»</text><text fill="#000000" font-family="sans-serif" font-size="12" lengthAdjust="spacing" textLength="29" x="3019.75" y="603.1445">Form</text><line style="stroke:#A80036;stroke-width:1.5;" x1="2920.5" x2="3115.5" y1="610.7813" y2="610.7813"/><line style="stroke:#A80036;stroke-width:1.5;" x1="2920.5" x2="3115.5" y1="618.7813" y2="618.7813"/><text fill="#000000" font-family="sans-serif" font-size="11" lengthAdjust="spacing" textLength="185" x="2925.5" y="634.2002">+create(name, formType, attributeList)</text><!--MD5=[787494ff879e99315e413996e631a796]
class Attribute--><rect codeLine="32" fill="#FEFECE" filter="url(#f1xligs3y53frf)" height="70.0234" id="Attribute" style="stroke:#A80036;stroke-width:1.5;" width="305" x="3174.5" y="563"/><ellipse cx="3300.75" cy="583.0938" fill="#ADD1B2" rx="11" ry="11" style="stroke:#A80036;stroke-width:1.0;"/><path d="M3302.75,579.5938 Q3302.9531,579.0938 3303.1875,578.8438 Q3303.4219,578.5938 3303.6875,578.5938 Q3304.1563,578.5938 3304.4531,578.875 Q3304.75,579.1563 3304.75,579.8125 L3304.75,581.375 Q3304.75,582.0313 3304.4688,582.3125 Q3304.1875,582.5938 3303.75,582.5938 Q3303.3594,582.5938 3303.1094,582.4219 Q3302.8594,582.25 3302.75,581.7969 Q3302.7031,581.4844 3302.5313,581.3125 Q3302.2188,580.9844 3301.6563,580.7969 Q3301.0938,580.5938 3300.5313,580.5938 Q3299.8281,580.5938 3299.2344,580.875 Q3298.6563,581.1563 3298.2031,581.7813 Q3297.75,582.4063 3297.75,583.2656 L3297.75,584.1875 Q3297.75,585.2188 3298.5938,585.9063 Q3299.4375,586.5938 3300.9375,586.5938 Q3301.8281,586.5938 3302.4531,586.3906 Q3302.8125,586.2813 3303.2188,585.9219 Q3303.4844,585.7188 3303.625,585.6563 Q3303.7656,585.5938 3303.9375,585.5938 Q3304.2656,585.5938 3304.5,585.8594 Q3304.75,586.1094 3304.75,586.4688 Q3304.75,586.8125 3304.4063,587.2188 Q3303.9063,587.8125 3303.1094,588.1406 Q3302.0625,588.5938 3300.7813,588.5938 Q3299.2813,588.5938 3298.0781,588 Q3297.1094,587.5313 3296.4219,586.5156 Q3295.75,585.5 3295.75,584.2969 L3295.75,583.2031 Q3295.75,581.9531 3296.3438,580.8594 Q3296.9531,579.7656 3298,579.1875 Q3299.0625,578.5938 3300.25,578.5938 Q3300.9688,578.5938 3301.5938,578.8438 Q3302.2188,579.0938 3302.75,579.5938 Z " fill="#000000"/><text fill="#000000" font-family="sans-serif" font-size="12" font-style="italic" lengthAdjust="spacing" textLength="44" x="3321.25" y="580.457">«Entity»</text><text fill="#000000" font-family="sans-serif" font-size="12" lengthAdjust="spacing" textLength="44" x="3321.25" y="595.5508">Attribute</text><line style="stroke:#A80036;stroke-width:1.5;" x1="3175.5" x2="3478.5" y1="603.1875" y2="603.1875"/><line style="stroke:#A80036;stroke-width:1.5;" x1="3175.5" x2="3478.5" y1="611.1875" y2="611.1875"/><text fill="#000000" font-family="sans-serif" font-size="11" lengthAdjust="spacing" textLength="293" x="3180.5" y="626.6064">+create(name, label, description, regex, scriptPath, dataType</text><!--MD5=[a77781830b4eef1927aef37ad01ad2c2]
class Catalogue--><rect codeLine="36" fill="#FEFECE" filter="url(#f1xligs3y53frf)" height="85.1172" id="Catalogue" style="stroke:#A80036;stroke-width:1.5;" width="89" x="1582.5" y="555.5"/><ellipse cx="1597.5" cy="583.1406" fill="#ADD1B2" rx="11" ry="11" style="stroke:#A80036;stroke-width:1.0;"/><path d="M1599.5,579.6406 Q1599.7031,579.1406 1599.9375,578.8906 Q1600.1719,578.6406 1600.4375,578.6406 Q1600.9063,578.6406 1601.2031,578.9219 Q1601.5,579.2031 1601.5,579.8594 L1601.5,581.4219 Q1601.5,582.0781 1601.2188,582.3594 Q1600.9375,582.6406 1600.5,582.6406 Q1600.1094,582.6406 1599.8594,582.4688 Q1599.6094,582.2969 1599.5,581.8438 Q1599.4531,581.5313 1599.2813,581.3594 Q1598.9688,581.0313 1598.4063,580.8438 Q1597.8438,580.6406 1597.2813,580.6406 Q1596.5781,580.6406 1595.9844,580.9219 Q1595.4063,581.2031 1594.9531,581.8281 Q1594.5,582.4531 1594.5,583.3125 L1594.5,584.2344 Q1594.5,585.2656 1595.3438,585.9531 Q1596.1875,586.6406 1597.6875,586.6406 Q1598.5781,586.6406 1599.2031,586.4375 Q1599.5625,586.3281 1599.9688,585.9688 Q1600.2344,585.7656 1600.375,585.7031 Q1600.5156,585.6406 1600.6875,585.6406 Q1601.0156,585.6406 1601.25,585.9063 Q1601.5,586.1563 1601.5,586.5156 Q1601.5,586.8594 1601.1563,587.2656 Q1600.6563,587.8594 1599.8594,588.1875 Q1598.8125,588.6406 1597.5313,588.6406 Q1596.0313,588.6406 1594.8281,588.0469 Q1593.8594,587.5781 1593.1719,586.5625 Q1592.5,585.5469 1592.5,584.3438 L1592.5,583.25 Q1592.5,582 1593.0938,580.9063 Q1593.7031,579.8125 1594.75,579.2344 Q1595.8125,578.6406 1597,578.6406 Q1597.7188,578.6406 1598.3438,578.8906 Q1598.9688,579.1406 1599.5,579.6406 Z " fill="#000000"/><text fill="#000000" font-family="sans-serif" font-size="12" font-style="italic" lengthAdjust="spacing" textLength="44" x="1618" y="572.957">«Entity»</text><text fill="#000000" font-family="sans-serif" font-size="12" font-style="italic" lengthAdjust="spacing" textLength="40" x="1620" y="588.0508">«Root»</text><text fill="#000000" font-family="sans-serif" font-size="12" lengthAdjust="spacing" textLength="57" x="1611.5" y="603.1445">Catalogue</text><line style="stroke:#A80036;stroke-width:1.5;" x1="1583.5" x2="1670.5" y1="610.7813" y2="610.7813"/><line style="stroke:#A80036;stroke-width:1.5;" x1="1583.5" x2="1670.5" y1="618.7813" y2="618.7813"/><text fill="#000000" font-family="sans-serif" font-size="11" lengthAdjust="spacing" textLength="45" x="1588.5" y="634.2002">+create()</text><!--MD5=[ac6bea31e13c94c7baa9ad18feb7405e]
class Ticket--><rect codeLine="40" fill="#FEFECE" filter="url(#f1xligs3y53frf)" height="98.9531" id="Ticket" style="stroke:#A80036;stroke-width:1.5;" width="191" x="1734.5" y="548.5"/><ellipse cx="1805.75" cy="576.1406" fill="#ADD1B2" rx="11" ry="11" style="stroke:#A80036;stroke-width:1.0;"/><path d="M1807.75,572.6406 Q1807.9531,572.1406 1808.1875,571.8906 Q1808.4219,571.6406 1808.6875,571.6406 Q1809.1563,571.6406 1809.4531,571.9219 Q1809.75,572.2031 1809.75,572.8594 L1809.75,574.4219 Q1809.75,575.0781 1809.4688,575.3594 Q1809.1875,575.6406 1808.75,575.6406 Q1808.3594,575.6406 1808.1094,575.4688 Q1807.8594,575.2969 1807.75,574.8438 Q1807.7031,574.5313 1807.5313,574.3594 Q1807.2188,574.0313 1806.6563,573.8438 Q1806.0938,573.6406 1805.5313,573.6406 Q1804.8281,573.6406 1804.2344,573.9219 Q1803.6563,574.2031 1803.2031,574.8281 Q1802.75,575.4531 1802.75,576.3125 L1802.75,577.2344 Q1802.75,578.2656 1803.5938,578.9531 Q1804.4375,579.6406 1805.9375,579.6406 Q1806.8281,579.6406 1807.4531,579.4375 Q1807.8125,579.3281 1808.2188,578.9688 Q1808.4844,578.7656 1808.625,578.7031 Q1808.7656,578.6406 1808.9375,578.6406 Q1809.2656,578.6406 1809.5,578.9063 Q1809.75,579.1563 1809.75,579.5156 Q1809.75,579.8594 1809.4063,580.2656 Q1808.9063,580.8594 1808.1094,581.1875 Q1807.0625,581.6406 1805.7813,581.6406 Q1804.2813,581.6406 1803.0781,581.0469 Q1802.1094,580.5781 1801.4219,579.5625 Q1800.75,578.5469 1800.75,577.3438 L1800.75,576.25 Q1800.75,575 1801.3438,573.9063 Q1801.9531,572.8125 1803,572.2344 Q1804.0625,571.6406 1805.25,571.6406 Q1805.9688,571.6406 1806.5938,571.8906 Q1807.2188,572.1406 1807.75,572.6406 Z " fill="#000000"/><text fill="#000000" font-family="sans-serif" font-size="12" font-style="italic" lengthAdjust="spacing" textLength="44" x="1824.25" y="565.957">«Entity»</text><text fill="#000000" font-family="sans-serif" font-size="12" font-style="italic" lengthAdjust="spacing" textLength="40" x="1826.25" y="581.0508">«Root»</text><text fill="#000000" font-family="sans-serif" font-size="12" lengthAdjust="spacing" textLength="32" x="1830.25" y="596.1445">Ticket</text><line style="stroke:#A80036;stroke-width:1.5;" x1="1735.5" x2="1924.5" y1="603.7813" y2="603.7813"/><line style="stroke:#A80036;stroke-width:1.5;" x1="1735.5" x2="1924.5" y1="611.7813" y2="611.7813"/><text fill="#000000" font-family="sans-serif" font-size="11" lengthAdjust="spacing" textLength="171" x="1740.5" y="627.2002">+create(service, urgency, limitDate,</text><text fill="#000000" font-family="sans-serif" font-size="11" lengthAdjust="spacing" textLength="176" x="1743.5" y="641.0361">creationDate, lstFiles, lstResponses)</text><!--MD5=[a539556bf0fa8c194d1de4bbb958d218]
class TicketUrgency--><rect codeLine="44" fill="#FEFECE" filter="url(#f1xligs3y53frf)" height="83.8594" id="TicketUrgency" style="stroke:#A80036;stroke-width:1.5;" width="127" x="2479.5" y="556"/><ellipse cx="2500.8" cy="576.0938" fill="#ADD1B2" rx="11" ry="11" style="stroke:#A80036;stroke-width:1.0;"/><path d="M2502.8,572.5938 Q2503.0031,572.0938 2503.2375,571.8438 Q2503.4719,571.5938 2503.7375,571.5938 Q2504.2063,571.5938 2504.5031,571.875 Q2504.8,572.1563 2504.8,572.8125 L2504.8,574.375 Q2504.8,575.0313 2504.5188,575.3125 Q2504.2375,575.5938 2503.8,575.5938 Q2503.4094,575.5938 2503.1594,575.4219 Q2502.9094,575.25 2502.8,574.7969 Q2502.7531,574.4844 2502.5813,574.3125 Q2502.2688,573.9844 2501.7063,573.7969 Q2501.1438,573.5938 2500.5813,573.5938 Q2499.8781,573.5938 2499.2844,573.875 Q2498.7063,574.1563 2498.2531,574.7813 Q2497.8,575.4063 2497.8,576.2656 L2497.8,577.1875 Q2497.8,578.2188 2498.6438,578.9063 Q2499.4875,579.5938 2500.9875,579.5938 Q2501.8781,579.5938 2502.5031,579.3906 Q2502.8625,579.2813 2503.2688,578.9219 Q2503.5344,578.7188 2503.675,578.6563 Q2503.8156,578.5938 2503.9875,578.5938 Q2504.3156,578.5938 2504.55,578.8594 Q2504.8,579.1094 2504.8,579.4688 Q2504.8,579.8125 2504.4563,580.2188 Q2503.9563,580.8125 2503.1594,581.1406 Q2502.1125,581.5938 2500.8313,581.5938 Q2499.3313,581.5938 2498.1281,581 Q2497.1594,580.5313 2496.4719,579.5156 Q2495.8,578.5 2495.8,577.2969 L2495.8,576.2031 Q2495.8,574.9531 2496.3938,573.8594 Q2497.0031,572.7656 2498.05,572.1875 Q2499.1125,571.5938 2500.3,571.5938 Q2501.0188,571.5938 2501.6438,571.8438 Q2502.2688,572.0938 2502.8,572.5938 Z " fill="#000000"/><text fill="#000000" font-family="sans-serif" font-size="12" font-style="italic" lengthAdjust="spacing" textLength="85" x="2514.2" y="573.457">«Value Object»</text><text fill="#000000" font-family="sans-serif" font-size="12" lengthAdjust="spacing" textLength="77" x="2518.2" y="588.5508">TicketUrgency</text><line style="stroke:#A80036;stroke-width:1.5;" x1="2480.5" x2="2605.5" y1="596.1875" y2="596.1875"/><line style="stroke:#A80036;stroke-width:1.5;" x1="2480.5" x2="2605.5" y1="604.1875" y2="604.1875"/><text fill="#000000" font-family="sans-serif" font-size="11" lengthAdjust="spacing" textLength="111" x="2485.5" y="619.6064">+create(ticketUrgency)</text><text fill="#000000" font-family="sans-serif" font-size="11" lengthAdjust="spacing" textLength="115" x="2485.5" y="633.4424">-validate(ticketUrgency)</text><!--MD5=[a3897caa7208c40f066d12f96f8814dc]
class TicketLimitDate--><rect codeLine="49" fill="#FEFECE" filter="url(#f1xligs3y53frf)" height="83.8594" id="TicketLimitDate" style="stroke:#A80036;stroke-width:1.5;" width="129" x="2315.5" y="556"/><ellipse cx="2335.9" cy="576.0938" fill="#ADD1B2" rx="11" ry="11" style="stroke:#A80036;stroke-width:1.0;"/><path d="M2337.9,572.5938 Q2338.1031,572.0938 2338.3375,571.8438 Q2338.5719,571.5938 2338.8375,571.5938 Q2339.3063,571.5938 2339.6031,571.875 Q2339.9,572.1563 2339.9,572.8125 L2339.9,574.375 Q2339.9,575.0313 2339.6188,575.3125 Q2339.3375,575.5938 2338.9,575.5938 Q2338.5094,575.5938 2338.2594,575.4219 Q2338.0094,575.25 2337.9,574.7969 Q2337.8531,574.4844 2337.6813,574.3125 Q2337.3688,573.9844 2336.8063,573.7969 Q2336.2438,573.5938 2335.6813,573.5938 Q2334.9781,573.5938 2334.3844,573.875 Q2333.8063,574.1563 2333.3531,574.7813 Q2332.9,575.4063 2332.9,576.2656 L2332.9,577.1875 Q2332.9,578.2188 2333.7438,578.9063 Q2334.5875,579.5938 2336.0875,579.5938 Q2336.9781,579.5938 2337.6031,579.3906 Q2337.9625,579.2813 2338.3688,578.9219 Q2338.6344,578.7188 2338.775,578.6563 Q2338.9156,578.5938 2339.0875,578.5938 Q2339.4156,578.5938 2339.65,578.8594 Q2339.9,579.1094 2339.9,579.4688 Q2339.9,579.8125 2339.5563,580.2188 Q2339.0563,580.8125 2338.2594,581.1406 Q2337.2125,581.5938 2335.9313,581.5938 Q2334.4313,581.5938 2333.2281,581 Q2332.2594,580.5313 2331.5719,579.5156 Q2330.9,578.5 2330.9,577.2969 L2330.9,576.2031 Q2330.9,574.9531 2331.4938,573.8594 Q2332.1031,572.7656 2333.15,572.1875 Q2334.2125,571.5938 2335.4,571.5938 Q2336.1188,571.5938 2336.7438,571.8438 Q2337.3688,572.0938 2337.9,572.5938 Z " fill="#000000"/><text fill="#000000" font-family="sans-serif" font-size="12" font-style="italic" lengthAdjust="spacing" textLength="85" x="2351.1" y="573.457">«Value Object»</text><text fill="#000000" font-family="sans-serif" font-size="12" lengthAdjust="spacing" textLength="85" x="2351.1" y="588.5508">TicketLimitDate</text><line style="stroke:#A80036;stroke-width:1.5;" x1="2316.5" x2="2443.5" y1="596.1875" y2="596.1875"/><line style="stroke:#A80036;stroke-width:1.5;" x1="2316.5" x2="2443.5" y1="604.1875" y2="604.1875"/><text fill="#000000" font-family="sans-serif" font-size="11" lengthAdjust="spacing" textLength="113" x="2321.5" y="619.6064">+create(ticketLimitDate)</text><text fill="#000000" font-family="sans-serif" font-size="11" lengthAdjust="spacing" textLength="117" x="2321.5" y="633.4424">-validate(ticketLimitDate)</text><!--MD5=[110963dc43e3cbe9ec4779c530423b98]
class TicketCreationDate--><rect codeLine="54" fill="#FEFECE" filter="url(#f1xligs3y53frf)" height="83.8594" id="TicketCreationDate" style="stroke:#A80036;stroke-width:1.5;" width="148" x="2132" y="556"/><ellipse cx="2151.95" cy="576.0938" fill="#ADD1B2" rx="11" ry="11" style="stroke:#A80036;stroke-width:1.0;"/><path d="M2153.95,572.5938 Q2154.1531,572.0938 2154.3875,571.8438 Q2154.6219,571.5938 2154.8875,571.5938 Q2155.3563,571.5938 2155.6531,571.875 Q2155.95,572.1563 2155.95,572.8125 L2155.95,574.375 Q2155.95,575.0313 2155.6688,575.3125 Q2155.3875,575.5938 2154.95,575.5938 Q2154.5594,575.5938 2154.3094,575.4219 Q2154.0594,575.25 2153.95,574.7969 Q2153.9031,574.4844 2153.7313,574.3125 Q2153.4188,573.9844 2152.8563,573.7969 Q2152.2938,573.5938 2151.7313,573.5938 Q2151.0281,573.5938 2150.4344,573.875 Q2149.8563,574.1563 2149.4031,574.7813 Q2148.95,575.4063 2148.95,576.2656 L2148.95,577.1875 Q2148.95,578.2188 2149.7938,578.9063 Q2150.6375,579.5938 2152.1375,579.5938 Q2153.0281,579.5938 2153.6531,579.3906 Q2154.0125,579.2813 2154.4188,578.9219 Q2154.6844,578.7188 2154.825,578.6563 Q2154.9656,578.5938 2155.1375,578.5938 Q2155.4656,578.5938 2155.7,578.8594 Q2155.95,579.1094 2155.95,579.4688 Q2155.95,579.8125 2155.6063,580.2188 Q2155.1063,580.8125 2154.3094,581.1406 Q2153.2625,581.5938 2151.9813,581.5938 Q2150.4813,581.5938 2149.2781,581 Q2148.3094,580.5313 2147.6219,579.5156 Q2146.95,578.5 2146.95,577.2969 L2146.95,576.2031 Q2146.95,574.9531 2147.5438,573.8594 Q2148.1531,572.7656 2149.2,572.1875 Q2150.2625,571.5938 2151.45,571.5938 Q2152.1688,571.5938 2152.7938,571.8438 Q2153.4188,572.0938 2153.95,572.5938 Z " fill="#000000"/><text fill="#000000" font-family="sans-serif" font-size="12" font-style="italic" lengthAdjust="spacing" textLength="85" x="2177.05" y="573.457">«Value Object»</text><text fill="#000000" font-family="sans-serif" font-size="12" lengthAdjust="spacing" textLength="105" x="2167.05" y="588.5508">TicketCreationDate</text><line style="stroke:#A80036;stroke-width:1.5;" x1="2133" x2="2279" y1="596.1875" y2="596.1875"/><line style="stroke:#A80036;stroke-width:1.5;" x1="2133" x2="2279" y1="604.1875" y2="604.1875"/><text fill="#000000" font-family="sans-serif" font-size="11" lengthAdjust="spacing" textLength="132" x="2138" y="619.6064">+create(ticketCreationDate)</text><text fill="#000000" font-family="sans-serif" font-size="11" lengthAdjust="spacing" textLength="136" x="2138" y="633.4424">-validate(ticketCreationDate)</text><!--MD5=[5474846ab8f4d3c6b1b21ba7ddf315a0]
class TicketFile--><rect codeLine="59" fill="#FEFECE" filter="url(#f1xligs3y53frf)" height="83.8594" id="TicketFile" style="stroke:#A80036;stroke-width:1.5;" width="113" x="1983.5" y="556"/><ellipse cx="1998.5" cy="576.0938" fill="#ADD1B2" rx="11" ry="11" style="stroke:#A80036;stroke-width:1.0;"/><path d="M2000.5,572.5938 Q2000.7031,572.0938 2000.9375,571.8438 Q2001.1719,571.5938 2001.4375,571.5938 Q2001.9063,571.5938 2002.2031,571.875 Q2002.5,572.1563 2002.5,572.8125 L2002.5,574.375 Q2002.5,575.0313 2002.2188,575.3125 Q2001.9375,575.5938 2001.5,575.5938 Q2001.1094,575.5938 2000.8594,575.4219 Q2000.6094,575.25 2000.5,574.7969 Q2000.4531,574.4844 2000.2813,574.3125 Q1999.9688,573.9844 1999.4063,573.7969 Q1998.8438,573.5938 1998.2813,573.5938 Q1997.5781,573.5938 1996.9844,573.875 Q1996.4063,574.1563 1995.9531,574.7813 Q1995.5,575.4063 1995.5,576.2656 L1995.5,577.1875 Q1995.5,578.2188 1996.3438,578.9063 Q1997.1875,579.5938 1998.6875,579.5938 Q1999.5781,579.5938 2000.2031,579.3906 Q2000.5625,579.2813 2000.9688,578.9219 Q2001.2344,578.7188 2001.375,578.6563 Q2001.5156,578.5938 2001.6875,578.5938 Q2002.0156,578.5938 2002.25,578.8594 Q2002.5,579.1094 2002.5,579.4688 Q2002.5,579.8125 2002.1563,580.2188 Q2001.6563,580.8125 2000.8594,581.1406 Q1999.8125,581.5938 1998.5313,581.5938 Q1997.0313,581.5938 1995.8281,581 Q1994.8594,580.5313 1994.1719,579.5156 Q1993.5,578.5 1993.5,577.2969 L1993.5,576.2031 Q1993.5,574.9531 1994.0938,573.8594 Q1994.7031,572.7656 1995.75,572.1875 Q1996.8125,571.5938 1998,571.5938 Q1998.7188,571.5938 1999.3438,571.8438 Q1999.9688,572.0938 2000.5,572.5938 Z " fill="#000000"/><text fill="#000000" font-family="sans-serif" font-size="12" font-style="italic" lengthAdjust="spacing" textLength="85" x="2010.5" y="573.457">«Value Object»</text><text fill="#000000" font-family="sans-serif" font-size="12" lengthAdjust="spacing" textLength="52" x="2027" y="588.5508">TicketFile</text><line style="stroke:#A80036;stroke-width:1.5;" x1="1984.5" x2="2095.5" y1="596.1875" y2="596.1875"/><line style="stroke:#A80036;stroke-width:1.5;" x1="1984.5" x2="2095.5" y1="604.1875" y2="604.1875"/><text fill="#000000" font-family="sans-serif" font-size="11" lengthAdjust="spacing" textLength="86" x="1989.5" y="619.6064">+create(ticketFile)</text><text fill="#000000" font-family="sans-serif" font-size="11" lengthAdjust="spacing" textLength="90" x="1989.5" y="633.4424">-validate(ticketFile)</text><!--MD5=[62ba8ad8b61caf20139235a169a8c31d]
class Response--><rect codeLine="64" fill="#FEFECE" filter="url(#f1xligs3y53frf)" height="83.8594" id="Response" style="stroke:#A80036;stroke-width:1.5;" width="113" x="2641.5" y="556"/><ellipse cx="2656.5" cy="576.0938" fill="#ADD1B2" rx="11" ry="11" style="stroke:#A80036;stroke-width:1.0;"/><path d="M2658.5,572.5938 Q2658.7031,572.0938 2658.9375,571.8438 Q2659.1719,571.5938 2659.4375,571.5938 Q2659.9063,571.5938 2660.2031,571.875 Q2660.5,572.1563 2660.5,572.8125 L2660.5,574.375 Q2660.5,575.0313 2660.2188,575.3125 Q2659.9375,575.5938 2659.5,575.5938 Q2659.1094,575.5938 2658.8594,575.4219 Q2658.6094,575.25 2658.5,574.7969 Q2658.4531,574.4844 2658.2813,574.3125 Q2657.9688,573.9844 2657.4063,573.7969 Q2656.8438,573.5938 2656.2813,573.5938 Q2655.5781,573.5938 2654.9844,573.875 Q2654.4063,574.1563 2653.9531,574.7813 Q2653.5,575.4063 2653.5,576.2656 L2653.5,577.1875 Q2653.5,578.2188 2654.3438,578.9063 Q2655.1875,579.5938 2656.6875,579.5938 Q2657.5781,579.5938 2658.2031,579.3906 Q2658.5625,579.2813 2658.9688,578.9219 Q2659.2344,578.7188 2659.375,578.6563 Q2659.5156,578.5938 2659.6875,578.5938 Q2660.0156,578.5938 2660.25,578.8594 Q2660.5,579.1094 2660.5,579.4688 Q2660.5,579.8125 2660.1563,580.2188 Q2659.6563,580.8125 2658.8594,581.1406 Q2657.8125,581.5938 2656.5313,581.5938 Q2655.0313,581.5938 2653.8281,581 Q2652.8594,580.5313 2652.1719,579.5156 Q2651.5,578.5 2651.5,577.2969 L2651.5,576.2031 Q2651.5,574.9531 2652.0938,573.8594 Q2652.7031,572.7656 2653.75,572.1875 Q2654.8125,571.5938 2656,571.5938 Q2656.7188,571.5938 2657.3438,571.8438 Q2657.9688,572.0938 2658.5,572.5938 Z " fill="#000000"/><text fill="#000000" font-family="sans-serif" font-size="12" font-style="italic" lengthAdjust="spacing" textLength="85" x="2668.5" y="573.457">«Value Object»</text><text fill="#000000" font-family="sans-serif" font-size="12" lengthAdjust="spacing" textLength="58" x="2682" y="588.5508">Response</text><line style="stroke:#A80036;stroke-width:1.5;" x1="2642.5" x2="2753.5" y1="596.1875" y2="596.1875"/><line style="stroke:#A80036;stroke-width:1.5;" x1="2642.5" x2="2753.5" y1="604.1875" y2="604.1875"/><text fill="#000000" font-family="sans-serif" font-size="11" lengthAdjust="spacing" textLength="91" x="2647.5" y="619.6064">+create(response)</text><text fill="#000000" font-family="sans-serif" font-size="11" lengthAdjust="spacing" textLength="95" x="2647.5" y="633.4424">-validate(response)</text><!--MD5=[e8c189551b7885b999ad7cefb30fc2a3]
class PersistenceContext--><rect codeLine="71" fill="#FEFECE" filter="url(#f1xligs3y53frf)" height="70.0234" id="PersistenceContext" style="stroke:#A80036;stroke-width:1.5;" width="139" x="62.5" y="563"/><ellipse cx="77.5" cy="583.0938" fill="#ADD1B2" rx="11" ry="11" style="stroke:#A80036;stroke-width:1.0;"/><path d="M79.5,579.5938 Q79.7031,579.0938 79.9375,578.8438 Q80.1719,578.5938 80.4375,578.5938 Q80.9063,578.5938 81.2031,578.875 Q81.5,579.1563 81.5,579.8125 L81.5,581.375 Q81.5,582.0313 81.2188,582.3125 Q80.9375,582.5938 80.5,582.5938 Q80.1094,582.5938 79.8594,582.4219 Q79.6094,582.25 79.5,581.7969 Q79.4531,581.4844 79.2813,581.3125 Q78.9688,580.9844 78.4063,580.7969 Q77.8438,580.5938 77.2813,580.5938 Q76.5781,580.5938 75.9844,580.875 Q75.4063,581.1563 74.9531,581.7813 Q74.5,582.4063 74.5,583.2656 L74.5,584.1875 Q74.5,585.2188 75.3438,585.9063 Q76.1875,586.5938 77.6875,586.5938 Q78.5781,586.5938 79.2031,586.3906 Q79.5625,586.2813 79.9688,585.9219 Q80.2344,585.7188 80.375,585.6563 Q80.5156,585.5938 80.6875,585.5938 Q81.0156,585.5938 81.25,585.8594 Q81.5,586.1094 81.5,586.4688 Q81.5,586.8125 81.1563,587.2188 Q80.6563,587.8125 79.8594,588.1406 Q78.8125,588.5938 77.5313,588.5938 Q76.0313,588.5938 74.8281,588 Q73.8594,587.5313 73.1719,586.5156 Q72.5,585.5 72.5,584.2969 L72.5,583.2031 Q72.5,581.9531 73.0938,580.8594 Q73.7031,579.7656 74.75,579.1875 Q75.8125,578.5938 77,578.5938 Q77.7188,578.5938 78.3438,578.8438 Q78.9688,579.0938 79.5,579.5938 Z " fill="#000000"/><text fill="#000000" font-family="sans-serif" font-size="12" font-style="italic" lengthAdjust="spacing" textLength="77" x="106.5" y="580.457">«persistence»</text><text fill="#000000" font-family="sans-serif" font-size="12" lengthAdjust="spacing" textLength="107" x="91.5" y="595.5508">PersistenceContext</text><line style="stroke:#A80036;stroke-width:1.5;" x1="63.5" x2="200.5" y1="603.1875" y2="603.1875"/><line style="stroke:#A80036;stroke-width:1.5;" x1="63.5" x2="200.5" y1="611.1875" y2="611.1875"/><text fill="#000000" font-family="sans-serif" font-size="11" lengthAdjust="spacing" textLength="71" x="68.5" y="626.6064">+repositories()</text><!--MD5=[b8e4c95865208c934bfcfda4f90bf50c]
class AppSettings--><rect codeLine="75" fill="#FEFECE" filter="url(#f1xligs3y53frf)" height="83.8594" id="AppSettings" style="stroke:#A80036;stroke-width:1.5;" width="130" x="305" y="556"/><ellipse cx="331.25" cy="576.0938" fill="#ADD1B2" rx="11" ry="11" style="stroke:#A80036;stroke-width:1.0;"/><path d="M333.25,572.5938 Q333.4531,572.0938 333.6875,571.8438 Q333.9219,571.5938 334.1875,571.5938 Q334.6563,571.5938 334.9531,571.875 Q335.25,572.1563 335.25,572.8125 L335.25,574.375 Q335.25,575.0313 334.9688,575.3125 Q334.6875,575.5938 334.25,575.5938 Q333.8594,575.5938 333.6094,575.4219 Q333.3594,575.25 333.25,574.7969 Q333.2031,574.4844 333.0313,574.3125 Q332.7188,573.9844 332.1563,573.7969 Q331.5938,573.5938 331.0313,573.5938 Q330.3281,573.5938 329.7344,573.875 Q329.1563,574.1563 328.7031,574.7813 Q328.25,575.4063 328.25,576.2656 L328.25,577.1875 Q328.25,578.2188 329.0938,578.9063 Q329.9375,579.5938 331.4375,579.5938 Q332.3281,579.5938 332.9531,579.3906 Q333.3125,579.2813 333.7188,578.9219 Q333.9844,578.7188 334.125,578.6563 Q334.2656,578.5938 334.4375,578.5938 Q334.7656,578.5938 335,578.8594 Q335.25,579.1094 335.25,579.4688 Q335.25,579.8125 334.9063,580.2188 Q334.4063,580.8125 333.6094,581.1406 Q332.5625,581.5938 331.2813,581.5938 Q329.7813,581.5938 328.5781,581 Q327.6094,580.5313 326.9219,579.5156 Q326.25,578.5 326.25,577.2969 L326.25,576.2031 Q326.25,574.9531 326.8438,573.8594 Q327.4531,572.7656 328.5,572.1875 Q329.5625,571.5938 330.75,571.5938 Q331.4688,571.5938 332.0938,571.8438 Q332.7188,572.0938 333.25,572.5938 Z " fill="#000000"/><text fill="#000000" font-family="sans-serif" font-size="12" font-style="italic" lengthAdjust="spacing" textLength="77" x="345.75" y="573.457">«persistence»</text><text fill="#000000" font-family="sans-serif" font-size="12" lengthAdjust="spacing" textLength="66" x="351.25" y="588.5508">AppSettings</text><line style="stroke:#A80036;stroke-width:1.5;" x1="306" x2="434" y1="596.1875" y2="596.1875"/><line style="stroke:#A80036;stroke-width:1.5;" x1="306" x2="434" y1="604.1875" y2="604.1875"/><text fill="#000000" font-family="sans-serif" font-size="11" lengthAdjust="spacing" textLength="55" x="311" y="619.6064">+instance()</text><text fill="#000000" font-family="sans-serif" font-size="11" lengthAdjust="spacing" textLength="118" x="311" y="633.4424">+getRepositoryFactory()</text><!--MD5=[48590afff58a68e2fcba47824d6f8a11]
class RepositoryFactory--><rect codeLine="81" fill="#FEFECE" filter="url(#f1xligs3y53frf)" height="111.5313" id="RepositoryFactory" style="stroke:#A80036;stroke-width:1.5;" width="130" x="1372" y="542"/><ellipse cx="1387" cy="562.0938" fill="#ADD1B2" rx="11" ry="11" style="stroke:#A80036;stroke-width:1.0;"/><path d="M1389,558.5938 Q1389.2031,558.0938 1389.4375,557.8438 Q1389.6719,557.5938 1389.9375,557.5938 Q1390.4063,557.5938 1390.7031,557.875 Q1391,558.1563 1391,558.8125 L1391,560.375 Q1391,561.0313 1390.7188,561.3125 Q1390.4375,561.5938 1390,561.5938 Q1389.6094,561.5938 1389.3594,561.4219 Q1389.1094,561.25 1389,560.7969 Q1388.9531,560.4844 1388.7813,560.3125 Q1388.4688,559.9844 1387.9063,559.7969 Q1387.3438,559.5938 1386.7813,559.5938 Q1386.0781,559.5938 1385.4844,559.875 Q1384.9063,560.1563 1384.4531,560.7813 Q1384,561.4063 1384,562.2656 L1384,563.1875 Q1384,564.2188 1384.8438,564.9063 Q1385.6875,565.5938 1387.1875,565.5938 Q1388.0781,565.5938 1388.7031,565.3906 Q1389.0625,565.2813 1389.4688,564.9219 Q1389.7344,564.7188 1389.875,564.6563 Q1390.0156,564.5938 1390.1875,564.5938 Q1390.5156,564.5938 1390.75,564.8594 Q1391,565.1094 1391,565.4688 Q1391,565.8125 1390.6563,566.2188 Q1390.1563,566.8125 1389.3594,567.1406 Q1388.3125,567.5938 1387.0313,567.5938 Q1385.5313,567.5938 1384.3281,567 Q1383.3594,566.5313 1382.6719,565.5156 Q1382,564.5 1382,563.2969 L1382,562.2031 Q1382,560.9531 1382.5938,559.8594 Q1383.2031,558.7656 1384.25,558.1875 Q1385.3125,557.5938 1386.5,557.5938 Q1387.2188,557.5938 1387.8438,557.8438 Q1388.4688,558.0938 1389,558.5938 Z " fill="#000000"/><text fill="#000000" font-family="sans-serif" font-size="12" font-style="italic" lengthAdjust="spacing" textLength="77" x="1411.5" y="559.457">«persistence»</text><text fill="#000000" font-family="sans-serif" font-size="12" lengthAdjust="spacing" textLength="98" x="1401" y="574.5508">RepositoryFactory</text><line style="stroke:#A80036;stroke-width:1.5;" x1="1373" x2="1501" y1="582.1875" y2="582.1875"/><line style="stroke:#A80036;stroke-width:1.5;" x1="1373" x2="1501" y1="590.1875" y2="590.1875"/><text fill="#000000" font-family="sans-serif" font-size="11" lengthAdjust="spacing" textLength="45" x="1378" y="605.6064">+create()</text><text fill="#000000" font-family="sans-serif" font-size="11" lengthAdjust="spacing" textLength="56" x="1378" y="619.4424">+servicos()</text><text fill="#000000" font-family="sans-serif" font-size="11" lengthAdjust="spacing" textLength="61" x="1378" y="633.2783">+catalogos()</text><text fill="#000000" font-family="sans-serif" font-size="11" lengthAdjust="spacing" textLength="68" x="1378" y="647.1143">+formularios()</text><!--MD5=[cf62b7d23c2004c5280dc9b8e31eb1d4]
class ServiceRepository--><rect codeLine="91" fill="#FEFECE" filter="url(#f1xligs3y53frf)" height="83.8594" id="ServiceRepository" style="stroke:#A80036;stroke-width:1.5;" width="159" x="1004.5" y="556"/><ellipse cx="1032.1" cy="576.0938" fill="#ADD1B2" rx="11" ry="11" style="stroke:#A80036;stroke-width:1.0;"/><path d="M1034.1,572.5938 Q1034.3031,572.0938 1034.5375,571.8438 Q1034.7719,571.5938 1035.0375,571.5938 Q1035.5063,571.5938 1035.8031,571.875 Q1036.1,572.1563 1036.1,572.8125 L1036.1,574.375 Q1036.1,575.0313 1035.8188,575.3125 Q1035.5375,575.5938 1035.1,575.5938 Q1034.7094,575.5938 1034.4594,575.4219 Q1034.2094,575.25 1034.1,574.7969 Q1034.0531,574.4844 1033.8813,574.3125 Q1033.5688,573.9844 1033.0063,573.7969 Q1032.4438,573.5938 1031.8813,573.5938 Q1031.1781,573.5938 1030.5844,573.875 Q1030.0063,574.1563 1029.5531,574.7813 Q1029.1,575.4063 1029.1,576.2656 L1029.1,577.1875 Q1029.1,578.2188 1029.9438,578.9063 Q1030.7875,579.5938 1032.2875,579.5938 Q1033.1781,579.5938 1033.8031,579.3906 Q1034.1625,579.2813 1034.5688,578.9219 Q1034.8344,578.7188 1034.975,578.6563 Q1035.1156,578.5938 1035.2875,578.5938 Q1035.6156,578.5938 1035.85,578.8594 Q1036.1,579.1094 1036.1,579.4688 Q1036.1,579.8125 1035.7563,580.2188 Q1035.2563,580.8125 1034.4594,581.1406 Q1033.4125,581.5938 1032.1313,581.5938 Q1030.6313,581.5938 1029.4281,581 Q1028.4594,580.5313 1027.7719,579.5156 Q1027.1,578.5 1027.1,577.2969 L1027.1,576.2031 Q1027.1,574.9531 1027.6938,573.8594 Q1028.3031,572.7656 1029.35,572.1875 Q1030.4125,571.5938 1031.6,571.5938 Q1032.3188,571.5938 1032.9438,571.8438 Q1033.5688,572.0938 1034.1,572.5938 Z " fill="#000000"/><text fill="#000000" font-family="sans-serif" font-size="12" font-style="italic" lengthAdjust="spacing" textLength="68" x="1064.4" y="573.457">«repository»</text><text fill="#000000" font-family="sans-serif" font-size="12" lengthAdjust="spacing" textLength="99" x="1048.9" y="588.5508">ServiceRepository</text><line style="stroke:#A80036;stroke-width:1.5;" x1="1005.5" x2="1162.5" y1="596.1875" y2="596.1875"/><line style="stroke:#A80036;stroke-width:1.5;" x1="1005.5" x2="1162.5" y1="604.1875" y2="604.1875"/><text fill="#000000" font-family="sans-serif" font-size="11" lengthAdjust="spacing" textLength="45" x="1010.5" y="619.6064">+create()</text><text fill="#000000" font-family="sans-serif" font-size="11" lengthAdjust="spacing" textLength="147" x="1010.5" y="633.4424">+findByCatalogue(oCatalogue)</text><!--MD5=[92a0a821d4a69608f6ec4b5426de1e8a]
class TicketRepository--><rect codeLine="96" fill="#FEFECE" filter="url(#f1xligs3y53frf)" height="83.8594" id="TicketRepository" style="stroke:#A80036;stroke-width:1.5;" width="123" x="846.5" y="556"/><ellipse cx="861.5" cy="576.0938" fill="#ADD1B2" rx="11" ry="11" style="stroke:#A80036;stroke-width:1.0;"/><path d="M863.5,572.5938 Q863.7031,572.0938 863.9375,571.8438 Q864.1719,571.5938 864.4375,571.5938 Q864.9063,571.5938 865.2031,571.875 Q865.5,572.1563 865.5,572.8125 L865.5,574.375 Q865.5,575.0313 865.2188,575.3125 Q864.9375,575.5938 864.5,575.5938 Q864.1094,575.5938 863.8594,575.4219 Q863.6094,575.25 863.5,574.7969 Q863.4531,574.4844 863.2813,574.3125 Q862.9688,573.9844 862.4063,573.7969 Q861.8438,573.5938 861.2813,573.5938 Q860.5781,573.5938 859.9844,573.875 Q859.4063,574.1563 858.9531,574.7813 Q858.5,575.4063 858.5,576.2656 L858.5,577.1875 Q858.5,578.2188 859.3438,578.9063 Q860.1875,579.5938 861.6875,579.5938 Q862.5781,579.5938 863.2031,579.3906 Q863.5625,579.2813 863.9688,578.9219 Q864.2344,578.7188 864.375,578.6563 Q864.5156,578.5938 864.6875,578.5938 Q865.0156,578.5938 865.25,578.8594 Q865.5,579.1094 865.5,579.4688 Q865.5,579.8125 865.1563,580.2188 Q864.6563,580.8125 863.8594,581.1406 Q862.8125,581.5938 861.5313,581.5938 Q860.0313,581.5938 858.8281,581 Q857.8594,580.5313 857.1719,579.5156 Q856.5,578.5 856.5,577.2969 L856.5,576.2031 Q856.5,574.9531 857.0938,573.8594 Q857.7031,572.7656 858.75,572.1875 Q859.8125,571.5938 861,571.5938 Q861.7188,571.5938 862.3438,571.8438 Q862.9688,572.0938 863.5,572.5938 Z " fill="#000000"/><text fill="#000000" font-family="sans-serif" font-size="12" font-style="italic" lengthAdjust="spacing" textLength="68" x="887" y="573.457">«repository»</text><text fill="#000000" font-family="sans-serif" font-size="12" lengthAdjust="spacing" textLength="91" x="875.5" y="588.5508">TicketRepository</text><line style="stroke:#A80036;stroke-width:1.5;" x1="847.5" x2="968.5" y1="596.1875" y2="596.1875"/><line style="stroke:#A80036;stroke-width:1.5;" x1="847.5" x2="968.5" y1="604.1875" y2="604.1875"/><text fill="#000000" font-family="sans-serif" font-size="11" lengthAdjust="spacing" textLength="45" x="852.5" y="619.6064">+create()</text><text fill="#000000" font-family="sans-serif" font-size="11" lengthAdjust="spacing" textLength="63" x="852.5" y="633.4424">+save(ticket)</text><!--MD5=[c2d470c6f26e3b4c35f3ab062d4e7049]
class ResponseRepository--><rect codeLine="101" fill="#FEFECE" filter="url(#f1xligs3y53frf)" height="83.8594" id="ResponseRepository" style="stroke:#A80036;stroke-width:1.5;" width="149" x="478.5" y="556"/><ellipse cx="493.5" cy="576.0938" fill="#ADD1B2" rx="11" ry="11" style="stroke:#A80036;stroke-width:1.0;"/><path d="M495.5,572.5938 Q495.7031,572.0938 495.9375,571.8438 Q496.1719,571.5938 496.4375,571.5938 Q496.9063,571.5938 497.2031,571.875 Q497.5,572.1563 497.5,572.8125 L497.5,574.375 Q497.5,575.0313 497.2188,575.3125 Q496.9375,575.5938 496.5,575.5938 Q496.1094,575.5938 495.8594,575.4219 Q495.6094,575.25 495.5,574.7969 Q495.4531,574.4844 495.2813,574.3125 Q494.9688,573.9844 494.4063,573.7969 Q493.8438,573.5938 493.2813,573.5938 Q492.5781,573.5938 491.9844,573.875 Q491.4063,574.1563 490.9531,574.7813 Q490.5,575.4063 490.5,576.2656 L490.5,577.1875 Q490.5,578.2188 491.3438,578.9063 Q492.1875,579.5938 493.6875,579.5938 Q494.5781,579.5938 495.2031,579.3906 Q495.5625,579.2813 495.9688,578.9219 Q496.2344,578.7188 496.375,578.6563 Q496.5156,578.5938 496.6875,578.5938 Q497.0156,578.5938 497.25,578.8594 Q497.5,579.1094 497.5,579.4688 Q497.5,579.8125 497.1563,580.2188 Q496.6563,580.8125 495.8594,581.1406 Q494.8125,581.5938 493.5313,581.5938 Q492.0313,581.5938 490.8281,581 Q489.8594,580.5313 489.1719,579.5156 Q488.5,578.5 488.5,577.2969 L488.5,576.2031 Q488.5,574.9531 489.0938,573.8594 Q489.7031,572.7656 490.75,572.1875 Q491.8125,571.5938 493,571.5938 Q493.7188,571.5938 494.3438,571.8438 Q494.9688,572.0938 495.5,572.5938 Z " fill="#000000"/><text fill="#000000" font-family="sans-serif" font-size="12" font-style="italic" lengthAdjust="spacing" textLength="68" x="532" y="573.457">«repository»</text><text fill="#000000" font-family="sans-serif" font-size="12" lengthAdjust="spacing" textLength="117" x="507.5" y="588.5508">ResponseRepository</text><line style="stroke:#A80036;stroke-width:1.5;" x1="479.5" x2="626.5" y1="596.1875" y2="596.1875"/><line style="stroke:#A80036;stroke-width:1.5;" x1="479.5" x2="626.5" y1="604.1875" y2="604.1875"/><text fill="#000000" font-family="sans-serif" font-size="11" lengthAdjust="spacing" textLength="45" x="484.5" y="619.6064">+create()</text><text fill="#000000" font-family="sans-serif" font-size="11" lengthAdjust="spacing" textLength="84" x="484.5" y="633.4424">+save(response)</text><!--MD5=[69bb86ab6babb49b9e011e22ae952de4]
class CatalogueRepository--><rect codeLine="106" fill="#FEFECE" filter="url(#f1xligs3y53frf)" height="83.8594" id="CatalogueRepository" style="stroke:#A80036;stroke-width:1.5;" width="148" x="663" y="556"/><ellipse cx="678" cy="576.0938" fill="#ADD1B2" rx="11" ry="11" style="stroke:#A80036;stroke-width:1.0;"/><path d="M680,572.5938 Q680.2031,572.0938 680.4375,571.8438 Q680.6719,571.5938 680.9375,571.5938 Q681.4063,571.5938 681.7031,571.875 Q682,572.1563 682,572.8125 L682,574.375 Q682,575.0313 681.7188,575.3125 Q681.4375,575.5938 681,575.5938 Q680.6094,575.5938 680.3594,575.4219 Q680.1094,575.25 680,574.7969 Q679.9531,574.4844 679.7813,574.3125 Q679.4688,573.9844 678.9063,573.7969 Q678.3438,573.5938 677.7813,573.5938 Q677.0781,573.5938 676.4844,573.875 Q675.9063,574.1563 675.4531,574.7813 Q675,575.4063 675,576.2656 L675,577.1875 Q675,578.2188 675.8438,578.9063 Q676.6875,579.5938 678.1875,579.5938 Q679.0781,579.5938 679.7031,579.3906 Q680.0625,579.2813 680.4688,578.9219 Q680.7344,578.7188 680.875,578.6563 Q681.0156,578.5938 681.1875,578.5938 Q681.5156,578.5938 681.75,578.8594 Q682,579.1094 682,579.4688 Q682,579.8125 681.6563,580.2188 Q681.1563,580.8125 680.3594,581.1406 Q679.3125,581.5938 678.0313,581.5938 Q676.5313,581.5938 675.3281,581 Q674.3594,580.5313 673.6719,579.5156 Q673,578.5 673,577.2969 L673,576.2031 Q673,574.9531 673.5938,573.8594 Q674.2031,572.7656 675.25,572.1875 Q676.3125,571.5938 677.5,571.5938 Q678.2188,571.5938 678.8438,571.8438 Q679.4688,572.0938 680,572.5938 Z " fill="#000000"/><text fill="#000000" font-family="sans-serif" font-size="12" font-style="italic" lengthAdjust="spacing" textLength="68" x="716" y="573.457">«repository»</text><text fill="#000000" font-family="sans-serif" font-size="12" lengthAdjust="spacing" textLength="116" x="692" y="588.5508">CatalogueRepository</text><line style="stroke:#A80036;stroke-width:1.5;" x1="664" x2="810" y1="596.1875" y2="596.1875"/><line style="stroke:#A80036;stroke-width:1.5;" x1="664" x2="810" y1="604.1875" y2="604.1875"/><text fill="#000000" font-family="sans-serif" font-size="11" lengthAdjust="spacing" textLength="45" x="669" y="619.6064">+create()</text><text fill="#000000" font-family="sans-serif" font-size="11" lengthAdjust="spacing" textLength="90" x="669" y="633.4424">+findByUser(user)</text><!--MD5=[77ccb0b93dfff6c7a0c6b7a44bdf9643]
class CatalogueRepositoryInterface--><rect codeLine="111" fill="#FEFECE" filter="url(#f1xligs3y53frf)" height="48" id="CatalogueRepositoryInterface" style="stroke:#A80036;stroke-width:1.5;" width="196" x="698" y="717"/><ellipse cx="713" cy="733" fill="#B4A7E5" rx="11" ry="11" style="stroke:#A80036;stroke-width:1.0;"/><path d="M714,730 L714,736 L716,736 L716.4844,736 L717,736.625 L717,737 L717,737.375 L716.4844,738 L716,738 L710,738 L709.5156,738 L709,737.375 L709,737 L709,736.625 L709.5156,736 L710,736 L712,736 L712,730 L710,730 L709.5156,730 L709,729.375 L709,729 L709,728.625 L709.5156,728 L710,728 L716,728 L716.4844,728 L717,728.625 L717,729 L717,729.375 L716.4844,730 L716,730 L714,730 Z " fill="#000000"/><text fill="#000000" font-family="sans-serif" font-size="12" font-style="italic" lengthAdjust="spacing" textLength="164" x="727" y="737.9102">CatalogueRepositoryInterface</text><line style="stroke:#A80036;stroke-width:1.5;" x1="699" x2="893" y1="749" y2="749"/><line style="stroke:#A80036;stroke-width:1.5;" x1="699" x2="893" y1="757" y2="757"/><!--MD5=[cab4563c58fd86a508f6beb0373b4d78]
class TicketRepositoryInterface--><rect codeLine="115" fill="#FEFECE" filter="url(#f1xligs3y53frf)" height="48" id="TicketRepositoryInterface" style="stroke:#A80036;stroke-width:1.5;" width="172" x="929" y="717"/><ellipse cx="944" cy="733" fill="#B4A7E5" rx="11" ry="11" style="stroke:#A80036;stroke-width:1.0;"/><path d="M945,730 L945,736 L947,736 L947.4844,736 L948,736.625 L948,737 L948,737.375 L947.4844,738 L947,738 L941,738 L940.5156,738 L940,737.375 L940,737 L940,736.625 L940.5156,736 L941,736 L943,736 L943,730 L941,730 L940.5156,730 L940,729.375 L940,729 L940,728.625 L940.5156,728 L941,728 L947,728 L947.4844,728 L948,728.625 L948,729 L948,729.375 L947.4844,730 L947,730 L945,730 Z " fill="#000000"/><text fill="#000000" font-family="sans-serif" font-size="12" font-style="italic" lengthAdjust="spacing" textLength="140" x="958" y="737.9102">TicketRepositoryInterface</text><line style="stroke:#A80036;stroke-width:1.5;" x1="930" x2="1100" y1="749" y2="749"/><line style="stroke:#A80036;stroke-width:1.5;" x1="930" x2="1100" y1="757" y2="757"/><!--MD5=[8159f625c6e50da2b70a395f95af11fd]
class ServiceRepositoryInterface--><rect codeLine="119" fill="#FEFECE" filter="url(#f1xligs3y53frf)" height="48" id="ServiceRepositoryInterface" style="stroke:#A80036;stroke-width:1.5;" width="180" x="1136" y="717"/><ellipse cx="1151" cy="733" fill="#B4A7E5" rx="11" ry="11" style="stroke:#A80036;stroke-width:1.0;"/><path d="M1152,730 L1152,736 L1154,736 L1154.4844,736 L1155,736.625 L1155,737 L1155,737.375 L1154.4844,738 L1154,738 L1148,738 L1147.5156,738 L1147,737.375 L1147,737 L1147,736.625 L1147.5156,736 L1148,736 L1150,736 L1150,730 L1148,730 L1147.5156,730 L1147,729.375 L1147,729 L1147,728.625 L1147.5156,728 L1148,728 L1154,728 L1154.4844,728 L1155,728.625 L1155,729 L1155,729.375 L1154.4844,730 L1154,730 L1152,730 Z " fill="#000000"/><text fill="#000000" font-family="sans-serif" font-size="12" font-style="italic" lengthAdjust="spacing" textLength="148" x="1165" y="737.9102">ServiceRepositoryInterface</text><line style="stroke:#A80036;stroke-width:1.5;" x1="1137" x2="1315" y1="749" y2="749"/><line style="stroke:#A80036;stroke-width:1.5;" x1="1137" x2="1315" y1="757" y2="757"/><!--MD5=[fa2843bd1da0ba2fbdea6d54a4622547]
class ResponseRepositoryInterface--><rect codeLine="123" fill="#FEFECE" filter="url(#f1xligs3y53frf)" height="48" id="ResponseRepositoryInterface" style="stroke:#A80036;stroke-width:1.5;" width="195" x="467.5" y="717"/><ellipse cx="482.5" cy="733" fill="#B4A7E5" rx="11" ry="11" style="stroke:#A80036;stroke-width:1.0;"/><path d="M483.5,730 L483.5,736 L485.5,736 L485.9844,736 L486.5,736.625 L486.5,737 L486.5,737.375 L485.9844,738 L485.5,738 L479.5,738 L479.0156,738 L478.5,737.375 L478.5,737 L478.5,736.625 L479.0156,736 L479.5,736 L481.5,736 L481.5,730 L479.5,730 L479.0156,730 L478.5,729.375 L478.5,729 L478.5,728.625 L479.0156,728 L479.5,728 L485.5,728 L485.9844,728 L486.5,728.625 L486.5,729 L486.5,729.375 L485.9844,730 L485.5,730 L483.5,730 Z " fill="#000000"/><text fill="#000000" font-family="sans-serif" font-size="12" font-style="italic" lengthAdjust="spacing" textLength="163" x="496.5" y="737.9102">ResponseRepositoryInterface</text><line style="stroke:#A80036;stroke-width:1.5;" x1="468.5" x2="661.5" y1="749" y2="749"/><line style="stroke:#A80036;stroke-width:1.5;" x1="468.5" x2="661.5" y1="757" y2="757"/><!--MD5=[7e41f4ef68487ec8ef409cde09d00d43]
link ServiceSolicitationUI to ServiceSolicitationController--><path codeLine="131" d="M132,118.13 C132,143.36 132,182.26 132,217.48 " fill="none" id="ServiceSolicitationUI-to-ServiceSolicitationController" style="stroke:#A80036;stroke-width:1.0;stroke-dasharray:7.0,7.0;"/><polygon fill="#A80036" points="132,222.65,136,213.65,132,217.65,128,213.65,132,222.65" style="stroke:#A80036;stroke-width:1.0;"/><!--MD5=[8b77cc39f1190bfa80bbcf10d131c7c2]
link ServiceSolicitationController to PersistenceContext--><path codeLine="132" d="M132,376.09 C132,433.91 132,511.32 132,557.49 " fill="none" id="ServiceSolicitationController-to-PersistenceContext" style="stroke:#A80036;stroke-width:1.0;stroke-dasharray:7.0,7.0;"/><polygon fill="#A80036" points="132,562.68,136,553.68,132,557.68,128,553.68,132,562.68" style="stroke:#A80036;stroke-width:1.0;"/><!--MD5=[41b7389dc9c161e00cc9719193d5127a]
link ServiceRepository to ServiceRepositoryInterface--><path codeLine="134" d="M1125.45,640.16 C1149.04,663.58 1177.91,692.25 1198.66,712.85 " fill="none" id="ServiceRepository-to-ServiceRepositoryInterface" style="stroke:#A80036;stroke-width:1.0;stroke-dasharray:7.0,7.0;"/><polygon fill="#A80036" points="1202.43,716.6,1198.8574,707.4219,1198.8802,713.0788,1193.2234,713.1016,1202.43,716.6" style="stroke:#A80036;stroke-width:1.0;"/><!--MD5=[4f6e8106ead5ec04d25ee13ebd908ed4]
link TicketRepository to TicketRepositoryInterface--><path codeLine="135" d="M939.24,640.16 C956.93,663.48 978.58,692.01 994.2,712.59 " fill="none" id="TicketRepository-to-TicketRepositoryInterface" style="stroke:#A80036;stroke-width:1.0;stroke-dasharray:7.0,7.0;"/><polygon fill="#A80036" points="997.24,716.6,994.985,707.0128,994.2171,712.6173,988.6126,711.8494,997.24,716.6" style="stroke:#A80036;stroke-width:1.0;"/><!--MD5=[d4624390685b6f56f0ffc2024476f319]
link CatalogueRepository to CatalogueRepositoryInterface--><path codeLine="136" d="M754.22,640.16 C763.86,663.19 775.62,691.3 784.21,711.82 " fill="none" id="CatalogueRepository-to-CatalogueRepositoryInterface" style="stroke:#A80036;stroke-width:1.0;stroke-dasharray:7.0,7.0;"/><polygon fill="#A80036" points="786.21,716.6,786.43,706.7536,784.2819,711.9867,779.0487,709.8386,786.21,716.6" style="stroke:#A80036;stroke-width:1.0;"/><!--MD5=[8a3eafbfba3f0cd0ba060717e41b3463]
link ResponseRepository to ResponseRepositoryInterface--><path codeLine="137" d="M556.5,640.16 C558.45,663.09 560.84,691.06 562.58,711.56 " fill="none" id="ResponseRepository-to-ResponseRepositoryInterface" style="stroke:#A80036;stroke-width:1.0;stroke-dasharray:7.0,7.0;"/><polygon fill="#A80036" points="563.01,716.6,566.2245,707.2905,562.5818,711.6184,558.2539,707.9756,563.01,716.6" style="stroke:#A80036;stroke-width:1.0;"/><!--MD5=[d66efb439816738ddd3e9d5fff4bf3a7]
link AppSettings to RepositoryFactory--><path codeLine="139" d="M380.67,555.67 C391.88,521.01 413.28,474.21 451,452 C535.35,402.33 1244.89,407.35 1332,452 C1366.96,469.92 1392.91,505.49 1410.28,537.03 " fill="none" id="AppSettings-to-RepositoryFactory" style="stroke:#A80036;stroke-width:1.0;"/><polygon fill="#A80036" points="1412.77,541.65,1411.9965,531.8316,1410.3867,537.2545,1404.9638,535.6448,1412.77,541.65" style="stroke:#A80036;stroke-width:1.0;"/><text fill="#000000" font-family="sans-serif" font-size="13" lengthAdjust="spacing" textLength="43" x="1300.5" y="422.4951">creates</text><!--MD5=[27fe1c91fe18bafc5695938053528609]
link PersistenceContext to AppSettings--><path codeLine="140" d="M201.8,598 C232.53,598 268.57,598 299.39,598 " fill="none" id="PersistenceContext-to-AppSettings" style="stroke:#A80036;stroke-width:1.0;"/><polygon fill="#A80036" points="304.69,598,295.69,594,299.69,598,295.69,602,304.69,598" style="stroke:#A80036;stroke-width:1.0;"/><text fill="#000000" font-family="sans-serif" font-size="13" lengthAdjust="spacing" textLength="67" x="219.75" y="591.4951">implements</text><!--MD5=[e2407c399f2ae11eec8128dc99dd93a4]
link RepositoryFactory to ServiceRepository--><path codeLine="142" d="M1371.8,598 C1314.65,598 1231.21,598 1168.87,598 " fill="none" id="RepositoryFactory-to-ServiceRepository" style="stroke:#A80036;stroke-width:1.0;"/><polygon fill="#A80036" points="1163.66,598,1172.66,602,1168.66,598,1172.66,594,1163.66,598" style="stroke:#A80036;stroke-width:1.0;"/><text fill="#000000" font-family="sans-serif" font-size="13" lengthAdjust="spacing" textLength="21" x="1257.25" y="591.4951">has</text><text fill="#000000" font-family="sans-serif" font-size="13" lengthAdjust="spacing" textLength="7" x="1356.8566" y="594.6175">1</text><text fill="#000000" font-family="sans-serif" font-size="13" lengthAdjust="spacing" textLength="7" x="1171.5862" y="594.7561">1</text><!--MD5=[5bff1ba4545904566950db729078bbcb]
link RepositoryFactory to TicketRepository--><path codeLine="143" d="M1412.77,541.65 C1395.45,509.03 1368.68,470.8 1332,452 C1263.77,417.03 1052.86,412.75 987,452 C951.37,473.23 930.83,516.74 919.68,550.76 " fill="none" id="RepositoryFactory-to-TicketRepository" style="stroke:#A80036;stroke-width:1.0;"/><polygon fill="#A80036" points="918.1,555.71,924.6551,548.3594,919.6254,550.9484,917.0365,545.9187,918.1,555.71" style="stroke:#A80036;stroke-width:1.0;"/><text fill="#000000" font-family="sans-serif" font-size="13" lengthAdjust="spacing" textLength="21" x="1244.5" y="422.4951">has</text><text fill="#000000" font-family="sans-serif" font-size="13" lengthAdjust="spacing" textLength="7" x="1402.2171" y="530.9528">1</text><text fill="#000000" font-family="sans-serif" font-size="13" lengthAdjust="spacing" textLength="7" x="912.1519" y="545.2294">1</text><!--MD5=[5f59416c95391d0902a6b5df5b91b5a8]
link RepositoryFactory to CatalogueRepository--><path codeLine="144" d="M1412.77,541.65 C1395.45,509.03 1368.68,470.8 1332,452 C1232.53,401.01 926.87,397.99 829,452 C791.12,472.9 766.7,516.68 752.61,550.87 " fill="none" id="RepositoryFactory-to-CatalogueRepository" style="stroke:#A80036;stroke-width:1.0;"/><polygon fill="#A80036" points="750.61,555.84,757.6919,548.9956,752.4842,551.2046,750.2752,545.9968,750.61,555.84" style="stroke:#A80036;stroke-width:1.0;"/><text fill="#000000" font-family="sans-serif" font-size="13" lengthAdjust="spacing" textLength="21" x="1350.5" y="422.4951">has</text><text fill="#000000" font-family="sans-serif" font-size="13" lengthAdjust="spacing" textLength="7" x="1410.114" y="530.9528">1</text><text fill="#000000" font-family="sans-serif" font-size="13" lengthAdjust="spacing" textLength="7" x="745.2845" y="545.0681">1</text><!--MD5=[91505d4434de23342aa5934b3fec51a3]
link RepositoryFactory to ResponseRepository--><path codeLine="145" d="M1412.77,541.65 C1395.45,509.03 1368.68,470.8 1332,452 C1264.17,417.23 712.82,415.34 646,452 C607.95,472.87 583.24,516.65 568.92,550.85 " fill="none" id="RepositoryFactory-to-ResponseRepository" style="stroke:#A80036;stroke-width:1.0;"/><polygon fill="#A80036" points="566.88,555.83,573.98,549.0044,568.7665,551.1995,566.5713,545.986,566.88,555.83" style="stroke:#A80036;stroke-width:1.0;"/><text fill="#000000" font-family="sans-serif" font-size="13" lengthAdjust="spacing" textLength="21" x="1272.5" y="422.4951">has</text><text fill="#000000" font-family="sans-serif" font-size="13" lengthAdjust="spacing" textLength="7" x="1402.2171" y="530.9528">1</text><text fill="#000000" font-family="sans-serif" font-size="13" lengthAdjust="spacing" textLength="7" x="561.5992" y="545.0565">1</text><!--MD5=[ddea2b4faec7cb9808defc1f4512b95e]
link ServiceRepository to Service--><path codeLine="147" d="M1141.78,556 C1194.58,520.4 1276.34,472.03 1356,452 C1432.29,432.82 2707.44,407.05 2772,452 C2803.47,473.92 2816.65,516.4 2822.14,549.91 " fill="none" id="ServiceRepository-to-Service" style="stroke:#A80036;stroke-width:1.0;"/><polygon fill="#A80036" points="2822.95,555.21,2825.5412,545.7081,2822.1929,550.2676,2817.6334,546.9194,2822.95,555.21" style="stroke:#A80036;stroke-width:1.0;"/><text fill="#000000" font-family="sans-serif" font-size="13" lengthAdjust="spacing" textLength="33" x="1164.5" y="422.4951">saves</text><text fill="#000000" font-family="sans-serif" font-size="13" lengthAdjust="spacing" textLength="7" x="1143.7701" y="545.2546">1</text><text fill="#000000" font-family="sans-serif" font-size="13" lengthAdjust="spacing" textLength="5" x="2817.0655" y="544.6291">*</text><!--MD5=[8d13ccae9c336ce6f49923e618723811]
link TicketRepository to Ticket--><path codeLine="148" d="M918.1,555.71 C928.85,521.07 949.62,474.28 987,452 C1054.01,412.07 1617.2,421.52 1689,452 C1733.11,470.72 1770.14,510.74 1795.16,544.16 " fill="none" id="TicketRepository-to-Ticket" style="stroke:#A80036;stroke-width:1.0;"/><polygon fill="#A80036" points="1798.16,548.2,1796.0205,538.5863,1795.1852,544.1812,1789.5904,543.346,1798.16,548.2" style="stroke:#A80036;stroke-width:1.0;"/><text fill="#000000" font-family="sans-serif" font-size="13" lengthAdjust="spacing" textLength="33" x="1700.5" y="422.4951">saves</text><text fill="#000000" font-family="sans-serif" font-size="13" lengthAdjust="spacing" textLength="7" x="920.2675" y="545.2294">1</text><text fill="#000000" font-family="sans-serif" font-size="13" lengthAdjust="spacing" textLength="5" x="1788.3309" y="537.595">*</text><!--MD5=[bf1701638b109f176f85067536801975]
link CatalogueRepository to Catalogue--><path codeLine="149" d="M750.61,555.84 C764.34,521.04 789.26,473.93 829,452 C896.03,415.01 1449.56,417.69 1518,452 C1558.86,472.49 1588.33,516.37 1606.24,550.7 " fill="none" id="CatalogueRepository-to-Catalogue" style="stroke:#A80036;stroke-width:1.0;"/><polygon fill="#A80036" points="1608.58,555.27,1608.0196,545.4371,1606.2926,550.8239,1600.9058,549.0969,1608.58,555.27" style="stroke:#A80036;stroke-width:1.0;"/><text fill="#000000" font-family="sans-serif" font-size="13" lengthAdjust="spacing" textLength="33" x="1204.5" y="422.4951">saves</text><text fill="#000000" font-family="sans-serif" font-size="13" lengthAdjust="spacing" textLength="7" x="753.4438" y="545.0681">1</text><text fill="#000000" font-family="sans-serif" font-size="13" lengthAdjust="spacing" textLength="5" x="1600.2459" y="544.6987">*</text><!--MD5=[6daeb7762f8edc1b0921a409173fee54]
link ResponseRepository to Response--><path codeLine="150" d="M566.88,555.83 C580.84,521.01 606.08,473.9 646,452 C742.34,399.14 2530.37,394.48 2624,452 C2658.85,473.41 2677.9,516.89 2687.91,550.86 " fill="none" id="ResponseRepository-to-Response" style="stroke:#A80036;stroke-width:1.0;"/><polygon fill="#A80036" points="2689.32,555.8,2690.7013,546.0485,2687.9502,550.9913,2683.0073,548.2402,2689.32,555.8" style="stroke:#A80036;stroke-width:1.0;"/><text fill="#000000" font-family="sans-serif" font-size="13" lengthAdjust="spacing" textLength="33" x="1505.5" y="422.4951">saves</text><text fill="#000000" font-family="sans-serif" font-size="13" lengthAdjust="spacing" textLength="7" x="569.7586" y="545.0565">1</text><text fill="#000000" font-family="sans-serif" font-size="13" lengthAdjust="spacing" textLength="5" x="2682.4683" y="545.0215">*</text><!--MD5=[84b7c641586de9d73bc51d19d15fe34b]
link Catalogue to Service--><path codeLine="152" d="M1640.32,555.18 C1653.64,520.46 1677.87,473.85 1717,452 C1768.18,423.43 2723.9,418.51 2772,452 C2803.47,473.92 2816.65,516.4 2822.14,549.91 " fill="none" id="Catalogue-to-Service" style="stroke:#A80036;stroke-width:1.0;"/><polygon fill="#A80036" points="2822.95,555.21,2825.5412,545.7081,2822.1929,550.2676,2817.6334,546.9194,2822.95,555.21" style="stroke:#A80036;stroke-width:1.0;"/><text fill="#000000" font-family="sans-serif" font-size="13" lengthAdjust="spacing" textLength="21" x="1672.5" y="422.4951">has</text><text fill="#000000" font-family="sans-serif" font-size="13" lengthAdjust="spacing" textLength="7" x="1634.8851" y="544.5944">1</text><text fill="#000000" font-family="sans-serif" font-size="13" lengthAdjust="spacing" textLength="5" x="2817.0655" y="544.6291">*</text><!--MD5=[97e168008b52a7eda5de4adba506e93f]
link Service to Form--><path codeLine="153" d="M2862.11,598 C2877.11,598 2895.35,598 2913.99,598 " fill="none" id="Service-to-Form" style="stroke:#A80036;stroke-width:1.0;"/><polygon fill="#A80036" points="2919.26,598,2910.26,594,2914.26,598,2910.26,602,2919.26,598" style="stroke:#A80036;stroke-width:1.0;"/><text fill="#000000" font-family="sans-serif" font-size="13" lengthAdjust="spacing" textLength="21" x="2880.25" y="591.4951">has</text><text fill="#000000" font-family="sans-serif" font-size="13" lengthAdjust="spacing" textLength="7" x="2869.9082" y="593.9432">1</text><text fill="#000000" font-family="sans-serif" font-size="13" lengthAdjust="spacing" textLength="5" x="2906.5088" y="594.8916">*</text><!--MD5=[971d5490c4dc9d82955338ed7a7bbf99]
link Form to Attribute--><path codeLine="154" d="M3116.62,598 C3133.49,598 3151.39,598 3169.34,598 " fill="none" id="Form-to-Attribute" style="stroke:#A80036;stroke-width:1.0;"/><polygon fill="#A80036" points="3174.41,598,3165.41,594,3169.41,598,3165.41,602,3174.41,598" style="stroke:#A80036;stroke-width:1.0;"/><text fill="#000000" font-family="sans-serif" font-size="13" lengthAdjust="spacing" textLength="21" x="3135" y="591.4951">has</text><text fill="#000000" font-family="sans-serif" font-size="13" lengthAdjust="spacing" textLength="7" x="3124.4386" y="594.8916">1</text><text fill="#000000" font-family="sans-serif" font-size="13" lengthAdjust="spacing" textLength="20" x="3146.5345" y="611.8906">1..*</text><!--MD5=[896a845be905199eb0b9f67eff0d40fd]
link Ticket to Service--><path codeLine="156" d="M1860.31,548.24 C1884.24,514.1 1921.05,471.56 1966,452 C2048.12,416.27 2698.51,400.82 2772,452 C2803.47,473.92 2816.65,516.4 2822.14,549.91 " fill="none" id="Ticket-to-Service" style="stroke:#A80036;stroke-width:1.0;"/><polygon fill="#A80036" points="2822.95,555.21,2825.5412,545.7081,2822.1929,550.2676,2817.6334,546.9194,2822.95,555.21" style="stroke:#A80036;stroke-width:1.0;"/><text fill="#000000" font-family="sans-serif" font-size="13" lengthAdjust="spacing" textLength="21" x="2595.5" y="422.4951">has</text><text fill="#000000" font-family="sans-serif" font-size="13" lengthAdjust="spacing" textLength="7" x="1857.0802" y="537.6406">1</text><text fill="#000000" font-family="sans-serif" font-size="13" lengthAdjust="spacing" textLength="20" x="2824.0577" y="544.6291">1..*</text><!--MD5=[a512ce3b4bc7659f5d71d37f3ce339fe]
link Ticket to TicketUrgency--><path codeLine="157" d="M1860.31,548.24 C1884.24,514.1 1921.05,471.56 1966,452 C2067.07,408.02 2367.02,396.08 2462,452 C2497.95,473.17 2519.08,516.68 2530.69,550.72 " fill="none" id="Ticket-to-TicketUrgency" style="stroke:#A80036;stroke-width:1.0;"/><polygon fill="#A80036" points="2532.33,555.67,2533.2964,545.8687,2530.7574,550.9237,2525.7024,548.3848,2532.33,555.67" style="stroke:#A80036;stroke-width:1.0;"/><text fill="#000000" font-family="sans-serif" font-size="13" lengthAdjust="spacing" textLength="21" x="1942.5" y="422.4951">has</text><text fill="#000000" font-family="sans-serif" font-size="13" lengthAdjust="spacing" textLength="7" x="1857.0802" y="537.6406">1</text><text fill="#000000" font-family="sans-serif" font-size="13" lengthAdjust="spacing" textLength="20" x="2509.0357" y="545.183">1..*</text><!--MD5=[59cb4316f109ed81e99887aa34707e55]
link Ticket to TicketLimitDate--><path codeLine="158" d="M1860.31,548.24 C1884.24,514.1 1921.05,471.56 1966,452 C2033.65,422.56 2234.33,414.73 2298,452 C2334.23,473.2 2355.68,516.94 2367.49,551.04 " fill="none" id="Ticket-to-TicketLimitDate" style="stroke:#A80036;stroke-width:1.0;"/><polygon fill="#A80036" points="2369.17,556,2370.0743,546.1927,2367.5674,551.2638,2362.4964,548.7569,2369.17,556" style="stroke:#A80036;stroke-width:1.0;"/><text fill="#000000" font-family="sans-serif" font-size="13" lengthAdjust="spacing" textLength="21" x="2034.5" y="422.4951">has</text><text fill="#000000" font-family="sans-serif" font-size="13" lengthAdjust="spacing" textLength="7" x="1869.0609" y="537.3182">1</text><text fill="#000000" font-family="sans-serif" font-size="13" lengthAdjust="spacing" textLength="20" x="2345.72" y="545.2546">1..*</text><!--MD5=[32e66de84d0a391b308a9864f42a8cc1]
link Ticket to TicketCreationDate--><path codeLine="159" d="M1860.31,548.24 C1884.24,514.1 1921.05,471.56 1966,452 C2026.32,425.75 2056.41,420.22 2114,452 C2151.88,472.9 2176.3,516.68 2190.39,550.87 " fill="none" id="Ticket-to-TicketCreationDate" style="stroke:#A80036;stroke-width:1.0;"/><polygon fill="#A80036" points="2192.39,555.84,2192.7248,545.9968,2190.5158,551.2046,2185.3081,548.9956,2192.39,555.84" style="stroke:#A80036;stroke-width:1.0;"/><text fill="#000000" font-family="sans-serif" font-size="13" lengthAdjust="spacing" textLength="21" x="2094.5" y="422.4951">has</text><text fill="#000000" font-family="sans-serif" font-size="13" lengthAdjust="spacing" textLength="7" x="1865.0645" y="537.6406">1</text><text fill="#000000" font-family="sans-serif" font-size="13" lengthAdjust="spacing" textLength="20" x="2168.4796" y="545.0681">1..*</text><!--MD5=[5fced67a21f069320c2f5830c2c62e89]
link Ticket to TicketFile--><path codeLine="160" d="M1925.78,598 C1943.62,598 1961.82,598 1978.3,598 " fill="none" id="Ticket-to-TicketFile" style="stroke:#A80036;stroke-width:1.0;"/><polygon fill="#A80036" points="1983.35,598,1974.35,594,1978.35,598,1974.35,602,1983.35,598" style="stroke:#A80036;stroke-width:1.0;"/><text fill="#000000" font-family="sans-serif" font-size="13" lengthAdjust="spacing" textLength="21" x="1944" y="591.4951">has</text><text fill="#000000" font-family="sans-serif" font-size="13" lengthAdjust="spacing" textLength="7" x="1933.3811" y="594.8979">1</text><text fill="#000000" font-family="sans-serif" font-size="13" lengthAdjust="spacing" textLength="20" x="1955.6436" y="612.4486">1..*</text><!--MD5=[754338f72ea9698c39181035caf26fec]
link Ticket to Response--><path codeLine="161" d="M1860.31,548.24 C1884.24,514.1 1921.05,471.56 1966,452 C2033.04,422.83 2561.7,413.73 2624,452 C2658.85,473.41 2677.9,516.89 2687.91,550.86 " fill="none" id="Ticket-to-Response" style="stroke:#A80036;stroke-width:1.0;"/><polygon fill="#A80036" points="2689.32,555.8,2690.7013,546.0485,2687.9502,550.9913,2683.0073,548.2402,2689.32,555.8" style="stroke:#A80036;stroke-width:1.0;"/><text fill="#000000" font-family="sans-serif" font-size="13" lengthAdjust="spacing" textLength="21" x="2378.5" y="422.4951">has</text><text fill="#000000" font-family="sans-serif" font-size="13" lengthAdjust="spacing" textLength="7" x="1865.0645" y="537.6406">1</text><text fill="#000000" font-family="sans-serif" font-size="13" lengthAdjust="spacing" textLength="20" x="2689.5386" y="545.0215">1..*</text><!--MD5=[3e72e91cc7736234b15a3cb0c9e876fa]
@startuml
skinparam classAttributeIconSize 0

package "Presentation" #DDDDDD {
class ServiceSolicitationUI<<presentation>>{

}
}


package "Application" #DDDDDD {
class ServiceSolicitationController<<application>>{
+create()
+getCataloguesByUser()
+getServicesByCatalogue(oCatalogue)
+addResponse(response)
+addTicket(service, urgency, \nlimitDate, creationDate, lstFiles)
+saveTicket(ticket)
}

}


package "Domain" #DDDDDD {
class Service<<Entity>><<Root>>{
+create()
}

class Form<<Entity>><<Root>>{
+create(name, formType, attributeList)
}

class Attribute<<Entity>>{
+create(name, label, description, regex, scriptPath, dataType
}

class Catalogue<<Entity>><<Root>>{
+create()
}

class Ticket<<Entity>><<Root>>{
+create(service, urgency, limitDate,\n creationDate, lstFiles, lstResponses)
}

class TicketUrgency<<Value Object>>{
+create(ticketUrgency)
-validate(ticketUrgency)
}

class TicketLimitDate<<Value Object>>{
+create(ticketLimitDate)
-validate(ticketLimitDate)
}

class TicketCreationDate<<Value Object>>{
+create(ticketCreationDate)
-validate(ticketCreationDate)
}

class TicketFile<<Value Object>>{
+create(ticketFile)
-validate(ticketFile)
}

class Response<<Value Object>>{
+create(response)
-validate(response)
}
}

package Persistence #DDDDDD {
class PersistenceContext<<persistence>>{
+repositories()
}

class AppSettings<<persistence>>{
+instance()
+getRepositoryFactory()
}

package Factory #DDDDDD {
class RepositoryFactory<<persistence>>{
+create()
+servicos()
+catalogos()
+formularios()
}
}

package "Repository" #DDDDDD {

class ServiceRepository<<repository>>{
+create()
+findByCatalogue(oCatalogue)
}

class TicketRepository<<repository>>{
+create()
+save(ticket)
}

class ResponseRepository<<repository>>{
+create()
+save(response)
}

class CatalogueRepository<<repository>>{
+create()
+findByUser(user)
}

interface CatalogueRepositoryInterface{

}

interface TicketRepositoryInterface{

}

interface ServiceRepositoryInterface{

}

interface ResponseRepositoryInterface{

}

}



ServiceSolicitationUI ..> ServiceSolicitationController
ServiceSolicitationController ..> PersistenceContext

ServiceRepository ..> ServiceRepositoryInterface
TicketRepository ..> TicketRepositoryInterface
CatalogueRepository ..> CatalogueRepositoryInterface
ResponseRepository ..> ResponseRepositoryInterface

AppSettings -> RepositoryFactory : creates
PersistenceContext -> AppSettings : implements

RepositoryFactory "1" -> "1" ServiceRepository : has
RepositoryFactory "1" -> "1" TicketRepository : has
RepositoryFactory "1" -> "1" CatalogueRepository : has
RepositoryFactory "1" -> "1" ResponseRepository : has

ServiceRepository "1" -> "*" Service : saves
TicketRepository "1" -> "*" Ticket : saves
CatalogueRepository "1" -> "*" Catalogue : saves
ResponseRepository "1" -> "*" Response : saves

Catalogue "1" -> "*" Service : has
Service "1" -> "*" Form : has
Form "1" -> "1..*" Attribute : has

Ticket "1" -> "1..*" Service : has
Ticket "1" -> "1..*" TicketUrgency : has
Ticket "1" -> "1..*" TicketLimitDate : has
Ticket "1" -> "1..*" TicketCreationDate : has
Ticket "1" -> "1..*" TicketFile : has
Ticket "1" -> "1..*" Response : has

@enduml

PlantUML version 1.2021.5(Sun Apr 25 12:20:28 BST 2021)
(GPL source distribution)
Java Runtime: OpenJDK Runtime Environment
JVM: OpenJDK 64-Bit Server VM
Default Encoding: Cp1252
Language: pt
Country: PT
--></g></svg>