<?xml version="1.0" encoding="UTF-8" standalone="no"?><svg xmlns="http://www.w3.org/2000/svg" xmlns:xlink="http://www.w3.org/1999/xlink" contentScriptType="application/ecmascript" contentStyleType="text/css" height="1393px" preserveAspectRatio="none" style="width:2724px;height:1393px;" version="1.1" viewBox="0 0 2724 1393" width="2724px" zoomAndPan="magnify"><defs><filter height="300%" id="f1ap9yykib3fvs" width="300%" x="-1" y="-1"><feGaussianBlur result="blurOut" stdDeviation="2.0"/><feColorMatrix in="blurOut" result="blurOut2" type="matrix" values="0 0 0 0 0 0 0 0 0 0 0 0 0 0 0 0 0 0 .4 0"/><feOffset dx="4.0" dy="4.0" in="blurOut2" result="blurOut3"/><feBlend in="SourceGraphic" in2="blurOut3" mode="normal"/></filter></defs><g><rect fill="#FFFFFF" filter="url(#f1ap9yykib3fvs)" height="1268.4453" style="stroke:#A80036;stroke-width:1.0;" width="10" x="42.5" y="99.6094"/><rect fill="#FFFFFF" filter="url(#f1ap9yykib3fvs)" height="263.6797" style="stroke:#A80036;stroke-width:1.0;" width="10" x="509.5" y="121.9609"/><rect fill="#FFFFFF" filter="url(#f1ap9yykib3fvs)" height="151.7578" style="stroke:#A80036;stroke-width:1.0;" width="10" x="509.5" y="415.9922"/><rect fill="#FFFFFF" filter="url(#f1ap9yykib3fvs)" height="30.3516" style="stroke:#A80036;stroke-width:1.0;" width="10" x="509.5" y="598.1016"/><rect fill="#FFFFFF" filter="url(#f1ap9yykib3fvs)" height="55.7031" style="stroke:#A80036;stroke-width:1.0;" width="10" x="509.5" y="658.8047"/><rect fill="#FFFFFF" filter="url(#f1ap9yykib3fvs)" height="148.4063" style="stroke:#A80036;stroke-width:1.0;" width="10" x="509.5" y="744.8594"/><rect fill="#FFFFFF" filter="url(#f1ap9yykib3fvs)" height="245.9766" style="stroke:#A80036;stroke-width:1.0;" width="10" x="509.5" y="923.6172"/><rect fill="#FFFFFF" filter="url(#f1ap9yykib3fvs)" height="168.1094" style="stroke:#A80036;stroke-width:1.0;" width="10" x="509.5" y="1199.9453"/><rect fill="#FFFFFF" filter="url(#f1ap9yykib3fvs)" height="192.9766" style="stroke:#A80036;stroke-width:1.0;" width="10" x="773.5" y="162.3125"/><rect fill="#FFFFFF" filter="url(#f1ap9yykib3fvs)" height="91.0547" style="stroke:#A80036;stroke-width:1.0;" width="10" x="773.5" y="446.3438"/><rect fill="#FFFFFF" filter="url(#f1ap9yykib3fvs)" height="30" style="stroke:#A80036;stroke-width:1.0;" width="10" x="773.5" y="775.2109"/><rect fill="#FFFFFF" filter="url(#f1ap9yykib3fvs)" height="30" style="stroke:#A80036;stroke-width:1.0;" width="10" x="773.5" y="953.9688"/><rect fill="#FFFFFF" filter="url(#f1ap9yykib3fvs)" height="94.5703" style="stroke:#A80036;stroke-width:1.0;" width="10" x="773.5" y="1028.3203"/><rect fill="#FFFFFF" filter="url(#f1ap9yykib3fvs)" height="91.0547" style="stroke:#A80036;stroke-width:1.0;" width="10" x="773.5" y="1230.2969"/><rect fill="#FFFFFF" filter="url(#f1ap9yykib3fvs)" height="30.3516" style="stroke:#A80036;stroke-width:1.0;" width="10" x="950.5" y="294.5859"/><rect fill="#FFFFFF" filter="url(#f1ap9yykib3fvs)" height="30.3516" style="stroke:#A80036;stroke-width:1.0;" width="10" x="1090.5" y="476.6953"/><rect fill="#FFFFFF" filter="url(#f1ap9yykib3fvs)" height="30.3516" style="stroke:#A80036;stroke-width:1.0;" width="10" x="1323" y="1260.6484"/><rect fill="#FFFFFF" filter="url(#f1ap9yykib3fvs)" height="139.4063" style="stroke:#000000;stroke-width:2.0;" width="866" x="20" y="673.8047"/><rect fill="#FFFFFF" filter="url(#f1ap9yykib3fvs)" height="171.7578" style="stroke:#000000;stroke-width:2.0;" width="886" x="10" y="827.2109"/><rect fill="#FFFFFF" filter="url(#f1ap9yykib3fvs)" height="139.4063" style="stroke:#000000;stroke-width:2.0;" width="866" x="20" y="852.5625"/><line style="stroke:#A80036;stroke-width:1.0;stroke-dasharray:5.0,5.0;" x1="47" x2="47" y1="89.6094" y2="1386.0547"/><line style="stroke:#A80036;stroke-width:1.0;stroke-dasharray:5.0,5.0;" x1="514" x2="514" y1="89.6094" y2="1386.0547"/><line style="stroke:#A80036;stroke-width:1.0;stroke-dasharray:5.0,5.0;" x1="778" x2="778" y1="172.0703" y2="1386.0547"/><line style="stroke:#A80036;stroke-width:1.0;stroke-dasharray:5.0,5.0;" x1="955" x2="955" y1="89.6094" y2="1386.0547"/><line style="stroke:#A80036;stroke-width:1.0;stroke-dasharray:5.0,5.0;" x1="1095" x2="1095" y1="89.6094" y2="1386.0547"/><line style="stroke:#A80036;stroke-width:1.0;stroke-dasharray:5.0,5.0;" x1="1214" x2="1214" y1="1078.4297" y2="1386.0547"/><line style="stroke:#A80036;stroke-width:1.0;stroke-dasharray:5.0,5.0;" x1="1328" x2="1328" y1="89.6094" y2="1386.0547"/><line style="stroke:#A80036;stroke-width:1.0;stroke-dasharray:5.0,5.0;" x1="1464" x2="1464" y1="89.6094" y2="1386.0547"/><line style="stroke:#A80036;stroke-width:1.0;stroke-dasharray:5.0,5.0;" x1="1605" x2="1605" y1="89.6094" y2="1386.0547"/><line style="stroke:#A80036;stroke-width:1.0;stroke-dasharray:5.0,5.0;" x1="1744" x2="1744" y1="89.6094" y2="1386.0547"/><line style="stroke:#A80036;stroke-width:1.0;stroke-dasharray:5.0,5.0;" x1="1869" x2="1869" y1="89.6094" y2="1386.0547"/><line style="stroke:#A80036;stroke-width:1.0;stroke-dasharray:5.0,5.0;" x1="1975" x2="1975" y1="89.6094" y2="1386.0547"/><line style="stroke:#A80036;stroke-width:1.0;stroke-dasharray:5.0,5.0;" x1="2087" x2="2087" y1="89.6094" y2="1386.0547"/><line style="stroke:#A80036;stroke-width:1.0;stroke-dasharray:5.0,5.0;" x1="2208" x2="2208" y1="89.6094" y2="1386.0547"/><line style="stroke:#A80036;stroke-width:1.0;stroke-dasharray:5.0,5.0;" x1="2324" x2="2324" y1="89.6094" y2="1386.0547"/><line style="stroke:#A80036;stroke-width:1.0;stroke-dasharray:5.0,5.0;" x1="2442" x2="2442" y1="89.6094" y2="1386.0547"/><line style="stroke:#A80036;stroke-width:1.0;stroke-dasharray:5.0,5.0;" x1="2560" x2="2560" y1="89.6094" y2="1386.0547"/><line style="stroke:#A80036;stroke-width:1.0;stroke-dasharray:5.0,5.0;" x1="2666" x2="2666" y1="89.6094" y2="1386.0547"/><text fill="#000000" font-family="sans-serif" font-size="14" lengthAdjust="spacing" textLength="29" x="30" y="86.5332">User</text><ellipse cx="47.5" cy="15" fill="#FEFECE" filter="url(#f1ap9yykib3fvs)" rx="8" ry="8" style="stroke:#A80036;stroke-width:2.0;"/><path d="M47.5,23 L47.5,50 M34.5,31 L60.5,31 M47.5,50 L34.5,65 M47.5,50 L60.5,65 " fill="none" filter="url(#f1ap9yykib3fvs)" style="stroke:#A80036;stroke-width:2.0;"/><rect fill="#FEFECE" filter="url(#f1ap9yykib3fvs)" height="49.2188" style="stroke:#A80036;stroke-width:1.5;" width="141" x="442" y="35.3906"/><text fill="#000000" font-family="sans-serif" font-size="14" lengthAdjust="spacing" textLength="111" x="457" y="56.9238">&lt;&lt;presentation&gt;&gt;</text><text fill="#000000" font-family="sans-serif" font-size="14" lengthAdjust="spacing" textLength="127" x="449" y="74.5332">ServiceSolicitationUI</text><text fill="#000000" font-family="sans-serif" font-size="14" lengthAdjust="spacing" textLength="95" x="905" y="68.9238">&lt;&lt;repository&gt;&gt;</text><text fill="#000000" font-family="sans-serif" font-size="14" lengthAdjust="spacing" textLength="133" x="886" y="86.5332">CatalogueRepository</text><path d="M937.5,18.3906 C937.5,8.3906 955.5,8.3906 955.5,8.3906 C955.5,8.3906 973.5,8.3906 973.5,18.3906 L973.5,44.3906 C973.5,54.3906 955.5,54.3906 955.5,54.3906 C955.5,54.3906 937.5,54.3906 937.5,44.3906 L937.5,18.3906 " fill="#FEFECE" filter="url(#f1ap9yykib3fvs)" style="stroke:#000000;stroke-width:1.5;"/><path d="M937.5,18.3906 C937.5,28.3906 955.5,28.3906 955.5,28.3906 C955.5,28.3906 973.5,28.3906 973.5,18.3906 " fill="none" style="stroke:#000000;stroke-width:1.5;"/><text fill="#000000" font-family="sans-serif" font-size="14" lengthAdjust="spacing" textLength="95" x="1045" y="68.9238">&lt;&lt;repository&gt;&gt;</text><text fill="#000000" font-family="sans-serif" font-size="14" lengthAdjust="spacing" textLength="115" x="1035" y="86.5332">ServiceRepository</text><path d="M1077.5,18.3906 C1077.5,8.3906 1095.5,8.3906 1095.5,8.3906 C1095.5,8.3906 1113.5,8.3906 1113.5,18.3906 L1113.5,44.3906 C1113.5,54.3906 1095.5,54.3906 1095.5,54.3906 C1095.5,54.3906 1077.5,54.3906 1077.5,44.3906 L1077.5,18.3906 " fill="#FEFECE" filter="url(#f1ap9yykib3fvs)" style="stroke:#000000;stroke-width:1.5;"/><path d="M1077.5,18.3906 C1077.5,28.3906 1095.5,28.3906 1095.5,28.3906 C1095.5,28.3906 1113.5,28.3906 1113.5,18.3906 " fill="none" style="stroke:#000000;stroke-width:1.5;"/><text fill="#000000" font-family="sans-serif" font-size="14" lengthAdjust="spacing" textLength="95" x="1277.5" y="68.9238">&lt;&lt;repository&gt;&gt;</text><text fill="#000000" font-family="sans-serif" font-size="14" lengthAdjust="spacing" textLength="106" x="1272" y="86.5332">TicketRepository</text><path d="M1310,18.3906 C1310,8.3906 1328,8.3906 1328,8.3906 C1328,8.3906 1346,8.3906 1346,18.3906 L1346,44.3906 C1346,54.3906 1328,54.3906 1328,54.3906 C1328,54.3906 1310,54.3906 1310,44.3906 L1310,18.3906 " fill="#FEFECE" filter="url(#f1ap9yykib3fvs)" style="stroke:#000000;stroke-width:1.5;"/><path d="M1310,18.3906 C1310,28.3906 1328,28.3906 1328,28.3906 C1328,28.3906 1346,28.3906 1346,18.3906 " fill="none" style="stroke:#000000;stroke-width:1.5;"/><rect fill="#FEFECE" filter="url(#f1ap9yykib3fvs)" height="49.2188" style="stroke:#A80036;stroke-width:1.5;" width="136" x="1394" y="35.3906"/><text fill="#000000" font-family="sans-serif" font-size="14" lengthAdjust="spacing" textLength="105" x="1409.5" y="56.9238">&lt;&lt;persistence&gt;&gt;</text><text fill="#000000" font-family="sans-serif" font-size="14" lengthAdjust="spacing" textLength="122" x="1401" y="74.5332">PersistenceContext</text><rect fill="#FEFECE" filter="url(#f1ap9yykib3fvs)" height="49.2188" style="stroke:#A80036;stroke-width:1.5;" width="119" x="1544" y="35.3906"/><text fill="#000000" font-family="sans-serif" font-size="14" lengthAdjust="spacing" textLength="105" x="1551" y="56.9238">&lt;&lt;persistence&gt;&gt;</text><text fill="#000000" font-family="sans-serif" font-size="14" lengthAdjust="spacing" textLength="76" x="1565.5" y="74.5332">AppSettings</text><rect fill="#FEFECE" filter="url(#f1ap9yykib3fvs)" height="49.2188" style="stroke:#A80036;stroke-width:1.5;" width="130" x="1677" y="35.3906"/><text fill="#000000" font-family="sans-serif" font-size="14" lengthAdjust="spacing" textLength="75" x="1704.5" y="56.9238">&lt;&lt;factory&gt;&gt;</text><text fill="#000000" font-family="sans-serif" font-size="14" lengthAdjust="spacing" textLength="116" x="1684" y="74.5332">RepositoryFactory</text><rect fill="#FEFECE" filter="url(#f1ap9yykib3fvs)" height="49.2188" style="stroke:#A80036;stroke-width:1.5;" width="92" x="1821" y="35.3906"/><text fill="#000000" font-family="sans-serif" font-size="14" lengthAdjust="spacing" textLength="78" x="1828" y="56.9238">&lt;&lt;domain&gt;&gt;</text><text fill="#000000" font-family="sans-serif" font-size="14" lengthAdjust="spacing" textLength="65" x="1834.5" y="74.5332">Catalogue</text><rect fill="#FEFECE" filter="url(#f1ap9yykib3fvs)" height="49.2188" style="stroke:#A80036;stroke-width:1.5;" width="92" x="1927" y="35.3906"/><text fill="#000000" font-family="sans-serif" font-size="14" lengthAdjust="spacing" textLength="78" x="1934" y="56.9238">&lt;&lt;domain&gt;&gt;</text><text fill="#000000" font-family="sans-serif" font-size="14" lengthAdjust="spacing" textLength="47" x="1949.5" y="74.5332">Service</text><rect fill="#FEFECE" filter="url(#f1ap9yykib3fvs)" height="49.2188" style="stroke:#A80036;stroke-width:1.5;" width="104" x="2033" y="35.3906"/><text fill="#000000" font-family="sans-serif" font-size="14" lengthAdjust="spacing" textLength="78" x="2046" y="56.9238">&lt;&lt;domain&gt;&gt;</text><text fill="#000000" font-family="sans-serif" font-size="14" lengthAdjust="spacing" textLength="90" x="2040" y="74.5332">TicketUrgency</text><rect fill="#FEFECE" filter="url(#f1ap9yykib3fvs)" height="49.2188" style="stroke:#A80036;stroke-width:1.5;" width="111" x="2151" y="35.3906"/><text fill="#000000" font-family="sans-serif" font-size="14" lengthAdjust="spacing" textLength="78" x="2167.5" y="56.9238">&lt;&lt;domain&gt;&gt;</text><text fill="#000000" font-family="sans-serif" font-size="14" lengthAdjust="spacing" textLength="97" x="2158" y="74.5332">TicketLimitDate</text><rect fill="#FEFECE" filter="url(#f1ap9yykib3fvs)" height="49.2188" style="stroke:#A80036;stroke-width:1.5;" width="92" x="2276" y="35.3906"/><text fill="#000000" font-family="sans-serif" font-size="14" lengthAdjust="spacing" textLength="78" x="2283" y="56.9238">&lt;&lt;domain&gt;&gt;</text><text fill="#000000" font-family="sans-serif" font-size="14" lengthAdjust="spacing" textLength="61" x="2291.5" y="74.5332">TicketFile</text><rect fill="#FEFECE" filter="url(#f1ap9yykib3fvs)" height="49.2188" style="stroke:#A80036;stroke-width:1.5;" width="116" x="2382" y="35.3906"/><text fill="#000000" font-family="sans-serif" font-size="14" lengthAdjust="spacing" textLength="78" x="2401" y="56.9238">&lt;&lt;domain&gt;&gt;</text><text fill="#000000" font-family="sans-serif" font-size="14" lengthAdjust="spacing" textLength="102" x="2389" y="74.5332">TicketResponse</text><rect fill="#FEFECE" filter="url(#f1ap9yykib3fvs)" height="49.2188" style="stroke:#A80036;stroke-width:1.5;" width="92" x="2512" y="35.3906"/><text fill="#000000" font-family="sans-serif" font-size="14" lengthAdjust="spacing" textLength="78" x="2519" y="56.9238">&lt;&lt;domain&gt;&gt;</text><text fill="#000000" font-family="sans-serif" font-size="14" lengthAdjust="spacing" textLength="53" x="2531.5" y="74.5332">Attribute</text><rect fill="#FEFECE" filter="url(#f1ap9yykib3fvs)" height="49.2188" style="stroke:#A80036;stroke-width:1.5;" width="92" x="2618" y="35.3906"/><text fill="#000000" font-family="sans-serif" font-size="14" lengthAdjust="spacing" textLength="78" x="2625" y="56.9238">&lt;&lt;domain&gt;&gt;</text><text fill="#000000" font-family="sans-serif" font-size="14" lengthAdjust="spacing" textLength="33" x="2647.5" y="74.5332">Form</text><rect fill="#FFFFFF" filter="url(#f1ap9yykib3fvs)" height="1268.4453" style="stroke:#A80036;stroke-width:1.0;" width="10" x="42.5" y="99.6094"/><rect fill="#FFFFFF" filter="url(#f1ap9yykib3fvs)" height="263.6797" style="stroke:#A80036;stroke-width:1.0;" width="10" x="509.5" y="121.9609"/><rect fill="#FFFFFF" filter="url(#f1ap9yykib3fvs)" height="151.7578" style="stroke:#A80036;stroke-width:1.0;" width="10" x="509.5" y="415.9922"/><rect fill="#FFFFFF" filter="url(#f1ap9yykib3fvs)" height="30.3516" style="stroke:#A80036;stroke-width:1.0;" width="10" x="509.5" y="598.1016"/><rect fill="#FFFFFF" filter="url(#f1ap9yykib3fvs)" height="55.7031" style="stroke:#A80036;stroke-width:1.0;" width="10" x="509.5" y="658.8047"/><rect fill="#FFFFFF" filter="url(#f1ap9yykib3fvs)" height="148.4063" style="stroke:#A80036;stroke-width:1.0;" width="10" x="509.5" y="744.8594"/><rect fill="#FFFFFF" filter="url(#f1ap9yykib3fvs)" height="245.9766" style="stroke:#A80036;stroke-width:1.0;" width="10" x="509.5" y="923.6172"/><rect fill="#FFFFFF" filter="url(#f1ap9yykib3fvs)" height="168.1094" style="stroke:#A80036;stroke-width:1.0;" width="10" x="509.5" y="1199.9453"/><rect fill="#FFFFFF" filter="url(#f1ap9yykib3fvs)" height="192.9766" style="stroke:#A80036;stroke-width:1.0;" width="10" x="773.5" y="162.3125"/><rect fill="#FFFFFF" filter="url(#f1ap9yykib3fvs)" height="91.0547" style="stroke:#A80036;stroke-width:1.0;" width="10" x="773.5" y="446.3438"/><rect fill="#FFFFFF" filter="url(#f1ap9yykib3fvs)" height="30" style="stroke:#A80036;stroke-width:1.0;" width="10" x="773.5" y="775.2109"/><rect fill="#FFFFFF" filter="url(#f1ap9yykib3fvs)" height="30" style="stroke:#A80036;stroke-width:1.0;" width="10" x="773.5" y="953.9688"/><rect fill="#FFFFFF" filter="url(#f1ap9yykib3fvs)" height="94.5703" style="stroke:#A80036;stroke-width:1.0;" width="10" x="773.5" y="1028.3203"/><rect fill="#FFFFFF" filter="url(#f1ap9yykib3fvs)" height="91.0547" style="stroke:#A80036;stroke-width:1.0;" width="10" x="773.5" y="1230.2969"/><rect fill="#FFFFFF" filter="url(#f1ap9yykib3fvs)" height="30.3516" style="stroke:#A80036;stroke-width:1.0;" width="10" x="950.5" y="294.5859"/><rect fill="#FFFFFF" filter="url(#f1ap9yykib3fvs)" height="30.3516" style="stroke:#A80036;stroke-width:1.0;" width="10" x="1090.5" y="476.6953"/><rect fill="#FFFFFF" filter="url(#f1ap9yykib3fvs)" height="30.3516" style="stroke:#A80036;stroke-width:1.0;" width="10" x="1323" y="1260.6484"/><polygon fill="#A80036" points="497.5,117.9609,507.5,121.9609,497.5,125.9609,501.5,121.9609" style="stroke:#A80036;stroke-width:1.0;"/><line style="stroke:#A80036;stroke-width:1.0;" x1="52.5" x2="503.5" y1="121.9609" y2="121.9609"/><text fill="#000000" font-family="sans-serif" font-size="13" font-weight="bold" lengthAdjust="spacing" textLength="7" x="59.5" y="117.1045">1</text><text fill="#000000" font-family="sans-serif" font-size="13" lengthAdjust="spacing" textLength="257" x="70.5" y="117.1045">initiates a service solicitation request (ticket)</text><polygon fill="#A80036" points="669,148.3125,679,152.3125,669,156.3125,673,152.3125" style="stroke:#A80036;stroke-width:1.0;"/><line style="stroke:#A80036;stroke-width:1.0;" x1="519.5" x2="675" y1="152.3125" y2="152.3125"/><text fill="#000000" font-family="sans-serif" font-size="13" font-weight="bold" lengthAdjust="spacing" textLength="7" x="526.5" y="147.4561">2</text><text fill="#000000" font-family="sans-serif" font-size="13" lengthAdjust="spacing" textLength="36" x="537.5" y="147.4561">create</text><rect fill="#FEFECE" filter="url(#f1ap9yykib3fvs)" height="49.2188" style="stroke:#A80036;stroke-width:1.5;" width="191" x="681" y="129.9609"/><text fill="#000000" font-family="sans-serif" font-size="14" lengthAdjust="spacing" textLength="100" x="726.5" y="151.4941">&lt;&lt;application&gt;&gt;</text><text fill="#000000" font-family="sans-serif" font-size="14" lengthAdjust="spacing" textLength="177" x="688" y="169.1035">ServiceSolicitationController</text><rect fill="#FFFFFF" filter="url(#f1ap9yykib3fvs)" height="42.7031" style="stroke:#000000;stroke-width:2.0;" width="197" x="678" y="194.1797"/><polygon fill="#EEEEEE" points="678,194.1797,740,194.1797,740,202.1797,730,212.1797,678,212.1797,678,194.1797" style="stroke:#000000;stroke-width:2.0;"/><text fill="#000000" font-family="sans-serif" font-size="13" font-weight="bold" lengthAdjust="spacing" textLength="17" x="691" y="209.6748">ref</text><text fill="#000000" font-family="sans-serif" font-size="13" lengthAdjust="spacing" textLength="123" x="717" y="229.6748">US-1-2002_SD_Repo</text><polygon fill="#A80036" points="761.5,260.2344,771.5,264.2344,761.5,268.2344,765.5,264.2344" style="stroke:#A80036;stroke-width:1.0;"/><line style="stroke:#A80036;stroke-width:1.0;" x1="519.5" x2="767.5" y1="264.2344" y2="264.2344"/><text fill="#000000" font-family="sans-serif" font-size="13" font-weight="bold" lengthAdjust="spacing" textLength="7" x="526.5" y="259.3779">3</text><text fill="#000000" font-family="sans-serif" font-size="13" lengthAdjust="spacing" textLength="134" x="537.5" y="259.3779">getCataloguesByUser()</text><polygon fill="#A80036" points="938.5,290.5859,948.5,294.5859,938.5,298.5859,942.5,294.5859" style="stroke:#A80036;stroke-width:1.0;"/><line style="stroke:#A80036;stroke-width:1.0;" x1="783.5" x2="944.5" y1="294.5859" y2="294.5859"/><text fill="#000000" font-family="sans-serif" font-size="13" font-weight="bold" lengthAdjust="spacing" textLength="7" x="790.5" y="289.7295">4</text><text fill="#000000" font-family="sans-serif" font-size="13" lengthAdjust="spacing" textLength="96" x="801.5" y="289.7295">findByUser(user)</text><polygon fill="#A80036" points="794.5,320.9375,784.5,324.9375,794.5,328.9375,790.5,324.9375" style="stroke:#A80036;stroke-width:1.0;"/><line style="stroke:#A80036;stroke-width:1.0;stroke-dasharray:2.0,2.0;" x1="788.5" x2="954.5" y1="324.9375" y2="324.9375"/><text fill="#000000" font-family="sans-serif" font-size="13" font-weight="bold" lengthAdjust="spacing" textLength="7" x="800.5" y="320.0811">5</text><text fill="#000000" font-family="sans-serif" font-size="13" lengthAdjust="spacing" textLength="63" x="811.5" y="320.0811">catalogues</text><polygon fill="#A80036" points="530.5,351.2891,520.5,355.2891,530.5,359.2891,526.5,355.2891" style="stroke:#A80036;stroke-width:1.0;"/><line style="stroke:#A80036;stroke-width:1.0;stroke-dasharray:2.0,2.0;" x1="524.5" x2="777.5" y1="355.2891" y2="355.2891"/><text fill="#000000" font-family="sans-serif" font-size="13" font-weight="bold" lengthAdjust="spacing" textLength="7" x="536.5" y="350.4326">6</text><text fill="#000000" font-family="sans-serif" font-size="13" lengthAdjust="spacing" textLength="63" x="547.5" y="350.4326">catalogues</text><polygon fill="#A80036" points="63.5,381.6406,53.5,385.6406,63.5,389.6406,59.5,385.6406" style="stroke:#A80036;stroke-width:1.0;"/><line style="stroke:#A80036;stroke-width:1.0;" x1="57.5" x2="513.5" y1="385.6406" y2="385.6406"/><text fill="#000000" font-family="sans-serif" font-size="13" font-weight="bold" lengthAdjust="spacing" textLength="7" x="69.5" y="380.7842">7</text><text fill="#000000" font-family="sans-serif" font-size="13" lengthAdjust="spacing" textLength="245" x="80.5" y="380.7842">shows the catalogues available to the user</text><polygon fill="#A80036" points="497.5,411.9922,507.5,415.9922,497.5,419.9922,501.5,415.9922" style="stroke:#A80036;stroke-width:1.0;"/><line style="stroke:#A80036;stroke-width:1.0;" x1="52.5" x2="503.5" y1="415.9922" y2="415.9922"/><text fill="#000000" font-family="sans-serif" font-size="13" font-weight="bold" lengthAdjust="spacing" textLength="7" x="59.5" y="411.1357">8</text><text fill="#000000" font-family="sans-serif" font-size="13" lengthAdjust="spacing" textLength="120" x="70.5" y="411.1357">chooses a catalogue</text><polygon fill="#A80036" points="761.5,442.3438,771.5,446.3438,761.5,450.3438,765.5,446.3438" style="stroke:#A80036;stroke-width:1.0;"/><line style="stroke:#A80036;stroke-width:1.0;" x1="519.5" x2="767.5" y1="446.3438" y2="446.3438"/><text fill="#000000" font-family="sans-serif" font-size="13" font-weight="bold" lengthAdjust="spacing" textLength="7" x="526.5" y="441.4873">9</text><text fill="#000000" font-family="sans-serif" font-size="13" lengthAdjust="spacing" textLength="214" x="537.5" y="441.4873">getServicesByCatalogue(oCatalogue)</text><polygon fill="#A80036" points="1078.5,472.6953,1088.5,476.6953,1078.5,480.6953,1082.5,476.6953" style="stroke:#A80036;stroke-width:1.0;"/><line style="stroke:#A80036;stroke-width:1.0;" x1="783.5" x2="1084.5" y1="476.6953" y2="476.6953"/><text fill="#000000" font-family="sans-serif" font-size="13" font-weight="bold" lengthAdjust="spacing" textLength="14" x="790.5" y="471.8389">10</text><text fill="#000000" font-family="sans-serif" font-size="13" lengthAdjust="spacing" textLength="167" x="808.5" y="471.8389">findByCatalogue(oCatalogue)</text><polygon fill="#A80036" points="794.5,503.0469,784.5,507.0469,794.5,511.0469,790.5,507.0469" style="stroke:#A80036;stroke-width:1.0;"/><line style="stroke:#A80036;stroke-width:1.0;stroke-dasharray:2.0,2.0;" x1="788.5" x2="1094.5" y1="507.0469" y2="507.0469"/><text fill="#000000" font-family="sans-serif" font-size="13" font-weight="bold" lengthAdjust="spacing" textLength="14" x="800.5" y="502.1904">11</text><text fill="#000000" font-family="sans-serif" font-size="13" lengthAdjust="spacing" textLength="47" x="818.5" y="502.1904">services</text><polygon fill="#A80036" points="530.5,533.3984,520.5,537.3984,530.5,541.3984,526.5,537.3984" style="stroke:#A80036;stroke-width:1.0;"/><line style="stroke:#A80036;stroke-width:1.0;stroke-dasharray:2.0,2.0;" x1="524.5" x2="777.5" y1="537.3984" y2="537.3984"/><text fill="#000000" font-family="sans-serif" font-size="13" font-weight="bold" lengthAdjust="spacing" textLength="14" x="536.5" y="532.542">12</text><text fill="#000000" font-family="sans-serif" font-size="13" lengthAdjust="spacing" textLength="47" x="554.5" y="532.542">services</text><polygon fill="#A80036" points="63.5,563.75,53.5,567.75,63.5,571.75,59.5,567.75" style="stroke:#A80036;stroke-width:1.0;"/><line style="stroke:#A80036;stroke-width:1.0;" x1="57.5" x2="513.5" y1="567.75" y2="567.75"/><text fill="#000000" font-family="sans-serif" font-size="13" font-weight="bold" lengthAdjust="spacing" textLength="14" x="69.5" y="562.8936">13</text><text fill="#000000" font-family="sans-serif" font-size="13" lengthAdjust="spacing" textLength="210" x="87.5" y="562.8936">shows the services in that catalogue</text><polygon fill="#A80036" points="497.5,594.1016,507.5,598.1016,497.5,602.1016,501.5,598.1016" style="stroke:#A80036;stroke-width:1.0;"/><line style="stroke:#A80036;stroke-width:1.0;" x1="52.5" x2="503.5" y1="598.1016" y2="598.1016"/><text fill="#000000" font-family="sans-serif" font-size="13" font-weight="bold" lengthAdjust="spacing" textLength="14" x="59.5" y="593.2451">14</text><text fill="#000000" font-family="sans-serif" font-size="13" lengthAdjust="spacing" textLength="104" x="77.5" y="593.2451">chooses a service</text><polygon fill="#A80036" points="63.5,624.4531,53.5,628.4531,63.5,632.4531,59.5,628.4531" style="stroke:#A80036;stroke-width:1.0;"/><line style="stroke:#A80036;stroke-width:1.0;" x1="57.5" x2="513.5" y1="628.4531" y2="628.4531"/><text fill="#000000" font-family="sans-serif" font-size="13" font-weight="bold" lengthAdjust="spacing" textLength="14" x="69.5" y="623.5967">15</text><text fill="#000000" font-family="sans-serif" font-size="13" lengthAdjust="spacing" textLength="415" x="87.5" y="623.5967">requests the user to submit the required information (urgency, limitDate)</text><polygon fill="#A80036" points="497.5,654.8047,507.5,658.8047,497.5,662.8047,501.5,658.8047" style="stroke:#A80036;stroke-width:1.0;"/><line style="stroke:#A80036;stroke-width:1.0;" x1="52.5" x2="503.5" y1="658.8047" y2="658.8047"/><text fill="#000000" font-family="sans-serif" font-size="13" font-weight="bold" lengthAdjust="spacing" textLength="14" x="59.5" y="653.9482">16</text><text fill="#000000" font-family="sans-serif" font-size="13" lengthAdjust="spacing" textLength="128" x="77.5" y="653.9482">inserts the information</text><path d="M20,673.8047 L93,673.8047 L93,681.8047 L83,691.8047 L20,691.8047 L20,673.8047 " fill="#EEEEEE" style="stroke:#000000;stroke-width:1.0;"/><rect fill="none" height="139.4063" style="stroke:#000000;stroke-width:2.0;" width="866" x="20" y="673.8047"/><text fill="#000000" font-family="sans-serif" font-size="13" font-weight="bold" lengthAdjust="spacing" textLength="28" x="35" y="688.2998">loop</text><text fill="#000000" font-family="sans-serif" font-size="11" font-weight="bold" lengthAdjust="spacing" textLength="263" x="108" y="687.2236">[until the user doesnt have more files to attach]</text><polygon fill="#A80036" points="63.5,710.5078,53.5,714.5078,63.5,718.5078,59.5,714.5078" style="stroke:#A80036;stroke-width:1.0;"/><line style="stroke:#A80036;stroke-width:1.0;" x1="57.5" x2="513.5" y1="714.5078" y2="714.5078"/><text fill="#000000" font-family="sans-serif" font-size="13" font-weight="bold" lengthAdjust="spacing" textLength="14" x="69.5" y="709.6514">17</text><text fill="#000000" font-family="sans-serif" font-size="13" lengthAdjust="spacing" textLength="165" x="87.5" y="709.6514">asks the user to attach a file</text><polygon fill="#A80036" points="497.5,740.8594,507.5,744.8594,497.5,748.8594,501.5,744.8594" style="stroke:#A80036;stroke-width:1.0;"/><line style="stroke:#A80036;stroke-width:1.0;" x1="52.5" x2="503.5" y1="744.8594" y2="744.8594"/><text fill="#000000" font-family="sans-serif" font-size="13" font-weight="bold" lengthAdjust="spacing" textLength="14" x="59.5" y="740.0029">18</text><text fill="#000000" font-family="sans-serif" font-size="13" lengthAdjust="spacing" textLength="81" x="77.5" y="740.0029">attaches a file</text><polygon fill="#A80036" points="761.5,771.2109,771.5,775.2109,761.5,779.2109,765.5,775.2109" style="stroke:#A80036;stroke-width:1.0;"/><line style="stroke:#A80036;stroke-width:1.0;" x1="519.5" x2="767.5" y1="775.2109" y2="775.2109"/><text fill="#000000" font-family="sans-serif" font-size="13" font-weight="bold" lengthAdjust="spacing" textLength="14" x="526.5" y="770.3545">19</text><text fill="#000000" font-family="sans-serif" font-size="13" lengthAdjust="spacing" textLength="66" x="544.5" y="770.3545">addFile(file)</text><path d="M10,827.2109 L83,827.2109 L83,835.2109 L73,845.2109 L10,845.2109 L10,827.2109 " fill="#EEEEEE" style="stroke:#000000;stroke-width:1.0;"/><rect fill="none" height="171.7578" style="stroke:#000000;stroke-width:2.0;" width="886" x="10" y="827.2109"/><text fill="#000000" font-family="sans-serif" font-size="13" font-weight="bold" lengthAdjust="spacing" textLength="28" x="25" y="841.7061">loop</text><text fill="#000000" font-family="sans-serif" font-size="11" font-weight="bold" lengthAdjust="spacing" textLength="232" x="98" y="840.6299">[until there are no more forms to answer]</text><path d="M20,852.5625 L93,852.5625 L93,860.5625 L83,870.5625 L20,870.5625 L20,852.5625 " fill="#EEEEEE" style="stroke:#000000;stroke-width:1.0;"/><rect fill="none" height="139.4063" style="stroke:#000000;stroke-width:2.0;" width="866" x="20" y="852.5625"/><text fill="#000000" font-family="sans-serif" font-size="13" font-weight="bold" lengthAdjust="spacing" textLength="28" x="35" y="867.0576">loop</text><text fill="#000000" font-family="sans-serif" font-size="11" font-weight="bold" lengthAdjust="spacing" textLength="257" x="108" y="865.9814">[until there are no more attributes in the form]</text><polygon fill="#A80036" points="63.5,889.2656,53.5,893.2656,63.5,897.2656,59.5,893.2656" style="stroke:#A80036;stroke-width:1.0;"/><line style="stroke:#A80036;stroke-width:1.0;" x1="57.5" x2="513.5" y1="893.2656" y2="893.2656"/><text fill="#000000" font-family="sans-serif" font-size="13" font-weight="bold" lengthAdjust="spacing" textLength="14" x="69.5" y="888.4092">20</text><text fill="#000000" font-family="sans-serif" font-size="13" lengthAdjust="spacing" textLength="222" x="87.5" y="888.4092">requests the input for a form's attribute</text><polygon fill="#A80036" points="497.5,919.6172,507.5,923.6172,497.5,927.6172,501.5,923.6172" style="stroke:#A80036;stroke-width:1.0;"/><line style="stroke:#A80036;stroke-width:1.0;" x1="52.5" x2="503.5" y1="923.6172" y2="923.6172"/><text fill="#000000" font-family="sans-serif" font-size="13" font-weight="bold" lengthAdjust="spacing" textLength="14" x="59.5" y="918.7607">21</text><text fill="#000000" font-family="sans-serif" font-size="13" lengthAdjust="spacing" textLength="48" x="77.5" y="918.7607">answers</text><polygon fill="#A80036" points="761.5,949.9688,771.5,953.9688,761.5,957.9688,765.5,953.9688" style="stroke:#A80036;stroke-width:1.0;"/><line style="stroke:#A80036;stroke-width:1.0;" x1="519.5" x2="767.5" y1="953.9688" y2="953.9688"/><text fill="#000000" font-family="sans-serif" font-size="13" font-weight="bold" lengthAdjust="spacing" textLength="14" x="526.5" y="949.1123">22</text><text fill="#000000" font-family="sans-serif" font-size="13" lengthAdjust="spacing" textLength="140" x="544.5" y="949.1123">addResponse(response)</text><polygon fill="#A80036" points="761.5,1024.3203,771.5,1028.3203,761.5,1032.3203,765.5,1028.3203" style="stroke:#A80036;stroke-width:1.0;"/><line style="stroke:#A80036;stroke-width:1.0;" x1="519.5" x2="767.5" y1="1028.3203" y2="1028.3203"/><text fill="#000000" font-family="sans-serif" font-size="13" font-weight="bold" lengthAdjust="spacing" textLength="14" x="526.5" y="1023.4639">23</text><text fill="#000000" font-family="sans-serif" font-size="13" lengthAdjust="spacing" textLength="217" x="544.5" y="1023.4639">addTicket(service, urgency, limitDate)</text><polygon fill="#A80036" points="1154,1054.6719,1164,1058.6719,1154,1062.6719,1158,1058.6719" style="stroke:#A80036;stroke-width:1.0;"/><line style="stroke:#A80036;stroke-width:1.0;" x1="783.5" x2="1160" y1="1058.6719" y2="1058.6719"/><text fill="#000000" font-family="sans-serif" font-size="13" font-weight="bold" lengthAdjust="spacing" textLength="14" x="790.5" y="1053.8154">24</text><text fill="#000000" font-family="sans-serif" font-size="13" lengthAdjust="spacing" textLength="334" x="808.5" y="1053.8154">create(urgency, limitDate, lstResponses, lstFiles, service)</text><rect fill="#FEFECE" filter="url(#f1ap9yykib3fvs)" height="49.2188" style="stroke:#A80036;stroke-width:1.5;" width="92" x="1166" y="1036.3203"/><text fill="#000000" font-family="sans-serif" font-size="14" lengthAdjust="spacing" textLength="78" x="1173" y="1057.8535">&lt;&lt;domain&gt;&gt;</text><text fill="#000000" font-family="sans-serif" font-size="14" lengthAdjust="spacing" textLength="38" x="1193" y="1075.4629">Ticket</text><polygon fill="#A80036" points="530.5,1118.8906,520.5,1122.8906,530.5,1126.8906,526.5,1122.8906" style="stroke:#A80036;stroke-width:1.0;"/><line style="stroke:#A80036;stroke-width:1.0;stroke-dasharray:2.0,2.0;" x1="524.5" x2="777.5" y1="1122.8906" y2="1122.8906"/><text fill="#000000" font-family="sans-serif" font-size="13" font-weight="bold" lengthAdjust="spacing" textLength="14" x="536.5" y="1118.0342">25</text><text fill="#000000" font-family="sans-serif" font-size="13" lengthAdjust="spacing" textLength="32" x="554.5" y="1118.0342">ticket</text><polygon fill="#A80036" points="63.5,1165.5938,53.5,1169.5938,63.5,1173.5938,59.5,1169.5938" style="stroke:#A80036;stroke-width:1.0;"/><line style="stroke:#A80036;stroke-width:1.0;" x1="57.5" x2="513.5" y1="1169.5938" y2="1169.5938"/><text fill="#000000" font-family="sans-serif" font-size="13" font-weight="bold" lengthAdjust="spacing" textLength="14" x="69.5" y="1156.5615">26</text><text fill="#000000" font-family="sans-serif" font-size="13" lengthAdjust="spacing" textLength="174" x="87.5" y="1148.3857">validates, presents the current</text><text fill="#000000" font-family="sans-serif" font-size="13" lengthAdjust="spacing" textLength="284" x="87.5" y="1164.7373">information in the ticket and asks for confirmation</text><polygon fill="#A80036" points="497.5,1195.9453,507.5,1199.9453,497.5,1203.9453,501.5,1199.9453" style="stroke:#A80036;stroke-width:1.0;"/><line style="stroke:#A80036;stroke-width:1.0;" x1="52.5" x2="503.5" y1="1199.9453" y2="1199.9453"/><text fill="#000000" font-family="sans-serif" font-size="13" font-weight="bold" lengthAdjust="spacing" textLength="14" x="59.5" y="1195.0889">27</text><text fill="#000000" font-family="sans-serif" font-size="13" lengthAdjust="spacing" textLength="49" x="77.5" y="1195.0889">confirms</text><polygon fill="#A80036" points="761.5,1226.2969,771.5,1230.2969,761.5,1234.2969,765.5,1230.2969" style="stroke:#A80036;stroke-width:1.0;"/><line style="stroke:#A80036;stroke-width:1.0;" x1="519.5" x2="767.5" y1="1230.2969" y2="1230.2969"/><text fill="#000000" font-family="sans-serif" font-size="13" font-weight="bold" lengthAdjust="spacing" textLength="14" x="526.5" y="1225.4404">28</text><text fill="#000000" font-family="sans-serif" font-size="13" lengthAdjust="spacing" textLength="101" x="544.5" y="1225.4404">saveTicket(ticket)</text><polygon fill="#A80036" points="1311,1256.6484,1321,1260.6484,1311,1264.6484,1315,1260.6484" style="stroke:#A80036;stroke-width:1.0;"/><line style="stroke:#A80036;stroke-width:1.0;" x1="783.5" x2="1317" y1="1260.6484" y2="1260.6484"/><text fill="#000000" font-family="sans-serif" font-size="13" font-weight="bold" lengthAdjust="spacing" textLength="14" x="790.5" y="1255.792">29</text><text fill="#000000" font-family="sans-serif" font-size="13" lengthAdjust="spacing" textLength="66" x="808.5" y="1255.792">save(ticket)</text><polygon fill="#A80036" points="794.5,1287,784.5,1291,794.5,1295,790.5,1291" style="stroke:#A80036;stroke-width:1.0;"/><line style="stroke:#A80036;stroke-width:1.0;stroke-dasharray:2.0,2.0;" x1="788.5" x2="1327" y1="1291" y2="1291"/><text fill="#000000" font-family="sans-serif" font-size="13" font-weight="bold" lengthAdjust="spacing" textLength="14" x="800.5" y="1286.1436">30</text><text fill="#000000" font-family="sans-serif" font-size="13" lengthAdjust="spacing" textLength="32" x="818.5" y="1286.1436">ticket</text><polygon fill="#A80036" points="530.5,1317.3516,520.5,1321.3516,530.5,1325.3516,526.5,1321.3516" style="stroke:#A80036;stroke-width:1.0;"/><line style="stroke:#A80036;stroke-width:1.0;stroke-dasharray:2.0,2.0;" x1="524.5" x2="777.5" y1="1321.3516" y2="1321.3516"/><text fill="#000000" font-family="sans-serif" font-size="13" font-weight="bold" lengthAdjust="spacing" textLength="14" x="536.5" y="1316.4951">31</text><text fill="#000000" font-family="sans-serif" font-size="13" lengthAdjust="spacing" textLength="32" x="554.5" y="1316.4951">ticket</text><polygon fill="#A80036" points="58.5,1364.0547,48.5,1368.0547,58.5,1372.0547,54.5,1368.0547" style="stroke:#A80036;stroke-width:1.0;"/><line style="stroke:#A80036;stroke-width:1.0;" x1="52.5" x2="513.5" y1="1368.0547" y2="1368.0547"/><text fill="#000000" font-family="sans-serif" font-size="13" font-weight="bold" lengthAdjust="spacing" textLength="14" x="64.5" y="1355.0225">32</text><text fill="#000000" font-family="sans-serif" font-size="13" lengthAdjust="spacing" textLength="215" x="82.5" y="1346.8467">registers the ticket in the persistence</text><text fill="#000000" font-family="sans-serif" font-size="13" lengthAdjust="spacing" textLength="249" x="86.5" y="1363.1982">and informs of the success of the operation</text><!--MD5=[42ea355a856a04925508f51e011ca324]
@startuml
autonumber
hide footbox

actor "User" as US

participant "<<presentation>>\nServiceSolicitationUI" as UI
participant "<<application>>\nServiceSolicitationController" as CTRL
database "<<repository>>\nCatalogueRepository" as CR
database "<<repository>>\nServiceRepository" as SR
participant "<<domain>>\nTicket" as T
database "<<repository>>\nTicketRepository" as TR
participant "<<persistence>>\nPersistenceContext" as PC
participant "<<persistence>>\nAppSettings" as AS
participant "<<factory>>\nRepositoryFactory" as RF
participant "<<domain>>\nCatalogue" as C
participant "<<domain>>\nService" as S
participant "<<domain>>\nTicketUrgency" as TU
participant "<<domain>>\nTicketLimitDate" as TD
participant "<<domain>>\nTicketFile" as TF
participant "<<domain>>\nTicketResponse" as TRS
participant "<<domain>>\nAttribute" as A
participant "<<domain>>\nForm" as F

activate US

US -> UI : initiates a service solicitation request (ticket)
activate UI

UI -> CTRL** : create
activate CTRL

ref over CTRL
  US-1-2002_SD_Repo
end ref

UI -> CTRL : getCataloguesByUser()

CTRL -> CR : findByUser(user)
activate CR
CR - -> CTRL : catalogues
deactivate CR

CTRL - -> UI : catalogues
deactivate CTRL

UI -> US : shows the catalogues available to the user
deactivate UI

US -> UI : chooses a catalogue
activate UI

UI -> CTRL : getServicesByCatalogue(oCatalogue)
activate CTRL

CTRL -> SR : findByCatalogue(oCatalogue)
activate SR
SR - -> CTRL : services
deactivate SR

CTRL - -> UI : services
deactivate CTRL

UI -> US : shows the services in that catalogue
deactivate UI

US -> UI : chooses a service
activate UI

UI -> US : requests the user to submit the required information (urgency, limitDate)
deactivate UI

US -> UI : inserts the information
activate UI

loop until the user doesnt have more files to attach
UI -> US : asks the user to attach a file
deactivate UI

US -> UI : attaches a file
activate UI

UI -> CTRL : addFile(file)
activate CTRL
deactivate CTRL
end

loop until there are no more forms to answer
loop until there are no more attributes in the form
UI -> US : requests the input for a form's attribute
deactivate UI

US -> UI : answers
activate UI

UI -> CTRL : addResponse(response)
activate CTRL
deactivate CTRL
end
end

UI -> CTRL : addTicket(service, urgency, limitDate)
activate CTRL

CTRL -> T** : create(urgency, limitDate, lstResponses, lstFiles, service)

CTRL - -> UI : ticket
deactivate CTRL

UI -> US : validates, presents the current \ninformation in the ticket and asks for confirmation
deactivate UI

US -> UI : confirms
activate UI

UI -> CTRL : saveTicket(ticket)
activate CTRL

CTRL -> TR : save(ticket)
activate TR
TR - -> CTRL : ticket
deactivate TR

CTRL - -> UI : ticket
deactivate CTRL

UI -> US : registers the ticket in the persistence\n and informs of the success of the operation
deactivate UI
deactivate US

@enduml

PlantUML version 1.2021.5(Sun Apr 25 12:20:28 BST 2021)
(GPL source distribution)
Java Runtime: OpenJDK Runtime Environment
JVM: Dynamic Code Evolution 64-Bit Server VM
Default Encoding: Cp1252
Language: pt
Country: PT
--></g></svg>