<?xml version="1.0" encoding="UTF-8" standalone="no"?><svg xmlns="http://www.w3.org/2000/svg" xmlns:xlink="http://www.w3.org/1999/xlink" contentScriptType="application/ecmascript" contentStyleType="text/css" height="1349px" preserveAspectRatio="none" style="width:2714px;height:1349px;" version="1.1" viewBox="0 0 2714 1349" width="2714px" zoomAndPan="magnify"><defs><filter height="300%" id="fnywxqfl7l5sx" width="300%" x="-1" y="-1"><feGaussianBlur result="blurOut" stdDeviation="2.0"/><feColorMatrix in="blurOut" result="blurOut2" type="matrix" values="0 0 0 0 0 0 0 0 0 0 0 0 0 0 0 0 0 0 .4 0"/><feOffset dx="4.0" dy="4.0" in="blurOut2" result="blurOut3"/><feBlend in="SourceGraphic" in2="blurOut3" mode="normal"/></filter></defs><g><rect fill="#FFFFFF" filter="url(#fnywxqfl7l5sx)" height="1224.4453" style="stroke:#A80036;stroke-width:1.0;" width="10" x="42.5" y="99.6094"/><rect fill="#FFFFFF" filter="url(#fnywxqfl7l5sx)" height="263.6797" style="stroke:#A80036;stroke-width:1.0;" width="10" x="509.5" y="121.9609"/><rect fill="#FFFFFF" filter="url(#fnywxqfl7l5sx)" height="151.7578" style="stroke:#A80036;stroke-width:1.0;" width="10" x="509.5" y="415.9922"/><rect fill="#FFFFFF" filter="url(#fnywxqfl7l5sx)" height="30.3516" style="stroke:#A80036;stroke-width:1.0;" width="10" x="509.5" y="598.1016"/><rect fill="#FFFFFF" filter="url(#fnywxqfl7l5sx)" height="55.7031" style="stroke:#A80036;stroke-width:1.0;" width="10" x="509.5" y="658.8047"/><rect fill="#FFFFFF" filter="url(#fnywxqfl7l5sx)" height="88.0547" style="stroke:#A80036;stroke-width:1.0;" width="10" x="509.5" y="744.8594"/><rect fill="#FFFFFF" filter="url(#fnywxqfl7l5sx)" height="262.3281" style="stroke:#A80036;stroke-width:1.0;" width="10" x="509.5" y="863.2656"/><rect fill="#FFFFFF" filter="url(#fnywxqfl7l5sx)" height="168.1094" style="stroke:#A80036;stroke-width:1.0;" width="10" x="509.5" y="1155.9453"/><rect fill="#FFFFFF" filter="url(#fnywxqfl7l5sx)" height="192.9766" style="stroke:#A80036;stroke-width:1.0;" width="10" x="763.5" y="162.3125"/><rect fill="#FFFFFF" filter="url(#fnywxqfl7l5sx)" height="91.0547" style="stroke:#A80036;stroke-width:1.0;" width="10" x="763.5" y="446.3438"/><rect fill="#FFFFFF" filter="url(#fnywxqfl7l5sx)" height="30" style="stroke:#A80036;stroke-width:1.0;" width="10" x="763.5" y="893.6172"/><rect fill="#FFFFFF" filter="url(#fnywxqfl7l5sx)" height="94.5703" style="stroke:#A80036;stroke-width:1.0;" width="10" x="763.5" y="984.3203"/><rect fill="#FFFFFF" filter="url(#fnywxqfl7l5sx)" height="91.0547" style="stroke:#A80036;stroke-width:1.0;" width="10" x="763.5" y="1186.2969"/><rect fill="#FFFFFF" filter="url(#fnywxqfl7l5sx)" height="30.3516" style="stroke:#A80036;stroke-width:1.0;" width="10" x="940.5" y="294.5859"/><rect fill="#FFFFFF" filter="url(#fnywxqfl7l5sx)" height="30.3516" style="stroke:#A80036;stroke-width:1.0;" width="10" x="1080.5" y="476.6953"/><rect fill="#FFFFFF" filter="url(#fnywxqfl7l5sx)" height="30.3516" style="stroke:#A80036;stroke-width:1.0;" width="10" x="1313" y="1216.6484"/><rect fill="#FFFFFF" filter="url(#fnywxqfl7l5sx)" height="79.0547" style="stroke:#000000;stroke-width:2.0;" width="577" x="20" y="673.8047"/><rect fill="#FFFFFF" filter="url(#fnywxqfl7l5sx)" height="171.7578" style="stroke:#000000;stroke-width:2.0;" width="876" x="10" y="766.8594"/><rect fill="#FFFFFF" filter="url(#fnywxqfl7l5sx)" height="139.4063" style="stroke:#000000;stroke-width:2.0;" width="856" x="20" y="792.2109"/><line style="stroke:#A80036;stroke-width:1.0;stroke-dasharray:5.0,5.0;" x1="47" x2="47" y1="89.6094" y2="1342.0547"/><line style="stroke:#A80036;stroke-width:1.0;stroke-dasharray:5.0,5.0;" x1="514" x2="514" y1="89.6094" y2="1342.0547"/><line style="stroke:#A80036;stroke-width:1.0;stroke-dasharray:5.0,5.0;" x1="768" x2="768" y1="172.0703" y2="1342.0547"/><line style="stroke:#A80036;stroke-width:1.0;stroke-dasharray:5.0,5.0;" x1="945" x2="945" y1="89.6094" y2="1342.0547"/><line style="stroke:#A80036;stroke-width:1.0;stroke-dasharray:5.0,5.0;" x1="1085" x2="1085" y1="89.6094" y2="1342.0547"/><line style="stroke:#A80036;stroke-width:1.0;stroke-dasharray:5.0,5.0;" x1="1204" x2="1204" y1="1034.4297" y2="1342.0547"/><line style="stroke:#A80036;stroke-width:1.0;stroke-dasharray:5.0,5.0;" x1="1318" x2="1318" y1="89.6094" y2="1342.0547"/><line style="stroke:#A80036;stroke-width:1.0;stroke-dasharray:5.0,5.0;" x1="1454" x2="1454" y1="89.6094" y2="1342.0547"/><line style="stroke:#A80036;stroke-width:1.0;stroke-dasharray:5.0,5.0;" x1="1595" x2="1595" y1="89.6094" y2="1342.0547"/><line style="stroke:#A80036;stroke-width:1.0;stroke-dasharray:5.0,5.0;" x1="1734" x2="1734" y1="89.6094" y2="1342.0547"/><line style="stroke:#A80036;stroke-width:1.0;stroke-dasharray:5.0,5.0;" x1="1859" x2="1859" y1="89.6094" y2="1342.0547"/><line style="stroke:#A80036;stroke-width:1.0;stroke-dasharray:5.0,5.0;" x1="1965" x2="1965" y1="89.6094" y2="1342.0547"/><line style="stroke:#A80036;stroke-width:1.0;stroke-dasharray:5.0,5.0;" x1="2077" x2="2077" y1="89.6094" y2="1342.0547"/><line style="stroke:#A80036;stroke-width:1.0;stroke-dasharray:5.0,5.0;" x1="2198" x2="2198" y1="89.6094" y2="1342.0547"/><line style="stroke:#A80036;stroke-width:1.0;stroke-dasharray:5.0,5.0;" x1="2314" x2="2314" y1="89.6094" y2="1342.0547"/><line style="stroke:#A80036;stroke-width:1.0;stroke-dasharray:5.0,5.0;" x1="2432" x2="2432" y1="89.6094" y2="1342.0547"/><line style="stroke:#A80036;stroke-width:1.0;stroke-dasharray:5.0,5.0;" x1="2550" x2="2550" y1="89.6094" y2="1342.0547"/><line style="stroke:#A80036;stroke-width:1.0;stroke-dasharray:5.0,5.0;" x1="2656" x2="2656" y1="89.6094" y2="1342.0547"/><text fill="#000000" font-family="sans-serif" font-size="14" lengthAdjust="spacing" textLength="29" x="30" y="86.5332">User</text><ellipse cx="47.5" cy="15" fill="#FEFECE" filter="url(#fnywxqfl7l5sx)" rx="8" ry="8" style="stroke:#A80036;stroke-width:2.0;"/><path d="M47.5,23 L47.5,50 M34.5,31 L60.5,31 M47.5,50 L34.5,65 M47.5,50 L60.5,65 " fill="none" filter="url(#fnywxqfl7l5sx)" style="stroke:#A80036;stroke-width:2.0;"/><rect fill="#FEFECE" filter="url(#fnywxqfl7l5sx)" height="49.2188" style="stroke:#A80036;stroke-width:1.5;" width="141" x="442" y="35.3906"/><text fill="#000000" font-family="sans-serif" font-size="14" lengthAdjust="spacing" textLength="111" x="457" y="56.9238">&lt;&lt;presentation&gt;&gt;</text><text fill="#000000" font-family="sans-serif" font-size="14" lengthAdjust="spacing" textLength="127" x="449" y="74.5332">ServiceSolicitationUI</text><text fill="#000000" font-family="sans-serif" font-size="14" lengthAdjust="spacing" textLength="95" x="895" y="68.9238">&lt;&lt;repository&gt;&gt;</text><text fill="#000000" font-family="sans-serif" font-size="14" lengthAdjust="spacing" textLength="133" x="876" y="86.5332">CatalogueRepository</text><path d="M927.5,18.3906 C927.5,8.3906 945.5,8.3906 945.5,8.3906 C945.5,8.3906 963.5,8.3906 963.5,18.3906 L963.5,44.3906 C963.5,54.3906 945.5,54.3906 945.5,54.3906 C945.5,54.3906 927.5,54.3906 927.5,44.3906 L927.5,18.3906 " fill="#FEFECE" filter="url(#fnywxqfl7l5sx)" style="stroke:#000000;stroke-width:1.5;"/><path d="M927.5,18.3906 C927.5,28.3906 945.5,28.3906 945.5,28.3906 C945.5,28.3906 963.5,28.3906 963.5,18.3906 " fill="none" style="stroke:#000000;stroke-width:1.5;"/><text fill="#000000" font-family="sans-serif" font-size="14" lengthAdjust="spacing" textLength="95" x="1035" y="68.9238">&lt;&lt;repository&gt;&gt;</text><text fill="#000000" font-family="sans-serif" font-size="14" lengthAdjust="spacing" textLength="115" x="1025" y="86.5332">ServiceRepository</text><path d="M1067.5,18.3906 C1067.5,8.3906 1085.5,8.3906 1085.5,8.3906 C1085.5,8.3906 1103.5,8.3906 1103.5,18.3906 L1103.5,44.3906 C1103.5,54.3906 1085.5,54.3906 1085.5,54.3906 C1085.5,54.3906 1067.5,54.3906 1067.5,44.3906 L1067.5,18.3906 " fill="#FEFECE" filter="url(#fnywxqfl7l5sx)" style="stroke:#000000;stroke-width:1.5;"/><path d="M1067.5,18.3906 C1067.5,28.3906 1085.5,28.3906 1085.5,28.3906 C1085.5,28.3906 1103.5,28.3906 1103.5,18.3906 " fill="none" style="stroke:#000000;stroke-width:1.5;"/><text fill="#000000" font-family="sans-serif" font-size="14" lengthAdjust="spacing" textLength="95" x="1267.5" y="68.9238">&lt;&lt;repository&gt;&gt;</text><text fill="#000000" font-family="sans-serif" font-size="14" lengthAdjust="spacing" textLength="106" x="1262" y="86.5332">TicketRepository</text><path d="M1300,18.3906 C1300,8.3906 1318,8.3906 1318,8.3906 C1318,8.3906 1336,8.3906 1336,18.3906 L1336,44.3906 C1336,54.3906 1318,54.3906 1318,54.3906 C1318,54.3906 1300,54.3906 1300,44.3906 L1300,18.3906 " fill="#FEFECE" filter="url(#fnywxqfl7l5sx)" style="stroke:#000000;stroke-width:1.5;"/><path d="M1300,18.3906 C1300,28.3906 1318,28.3906 1318,28.3906 C1318,28.3906 1336,28.3906 1336,18.3906 " fill="none" style="stroke:#000000;stroke-width:1.5;"/><rect fill="#FEFECE" filter="url(#fnywxqfl7l5sx)" height="49.2188" style="stroke:#A80036;stroke-width:1.5;" width="136" x="1384" y="35.3906"/><text fill="#000000" font-family="sans-serif" font-size="14" lengthAdjust="spacing" textLength="105" x="1399.5" y="56.9238">&lt;&lt;persistence&gt;&gt;</text><text fill="#000000" font-family="sans-serif" font-size="14" lengthAdjust="spacing" textLength="122" x="1391" y="74.5332">PersistenceContext</text><rect fill="#FEFECE" filter="url(#fnywxqfl7l5sx)" height="49.2188" style="stroke:#A80036;stroke-width:1.5;" width="119" x="1534" y="35.3906"/><text fill="#000000" font-family="sans-serif" font-size="14" lengthAdjust="spacing" textLength="105" x="1541" y="56.9238">&lt;&lt;persistence&gt;&gt;</text><text fill="#000000" font-family="sans-serif" font-size="14" lengthAdjust="spacing" textLength="76" x="1555.5" y="74.5332">AppSettings</text><rect fill="#FEFECE" filter="url(#fnywxqfl7l5sx)" height="49.2188" style="stroke:#A80036;stroke-width:1.5;" width="130" x="1667" y="35.3906"/><text fill="#000000" font-family="sans-serif" font-size="14" lengthAdjust="spacing" textLength="75" x="1694.5" y="56.9238">&lt;&lt;factory&gt;&gt;</text><text fill="#000000" font-family="sans-serif" font-size="14" lengthAdjust="spacing" textLength="116" x="1674" y="74.5332">RepositoryFactory</text><rect fill="#FEFECE" filter="url(#fnywxqfl7l5sx)" height="49.2188" style="stroke:#A80036;stroke-width:1.5;" width="92" x="1811" y="35.3906"/><text fill="#000000" font-family="sans-serif" font-size="14" lengthAdjust="spacing" textLength="78" x="1818" y="56.9238">&lt;&lt;domain&gt;&gt;</text><text fill="#000000" font-family="sans-serif" font-size="14" lengthAdjust="spacing" textLength="65" x="1824.5" y="74.5332">Catalogue</text><rect fill="#FEFECE" filter="url(#fnywxqfl7l5sx)" height="49.2188" style="stroke:#A80036;stroke-width:1.5;" width="92" x="1917" y="35.3906"/><text fill="#000000" font-family="sans-serif" font-size="14" lengthAdjust="spacing" textLength="78" x="1924" y="56.9238">&lt;&lt;domain&gt;&gt;</text><text fill="#000000" font-family="sans-serif" font-size="14" lengthAdjust="spacing" textLength="47" x="1939.5" y="74.5332">Service</text><rect fill="#FEFECE" filter="url(#fnywxqfl7l5sx)" height="49.2188" style="stroke:#A80036;stroke-width:1.5;" width="104" x="2023" y="35.3906"/><text fill="#000000" font-family="sans-serif" font-size="14" lengthAdjust="spacing" textLength="78" x="2036" y="56.9238">&lt;&lt;domain&gt;&gt;</text><text fill="#000000" font-family="sans-serif" font-size="14" lengthAdjust="spacing" textLength="90" x="2030" y="74.5332">TicketUrgency</text><rect fill="#FEFECE" filter="url(#fnywxqfl7l5sx)" height="49.2188" style="stroke:#A80036;stroke-width:1.5;" width="111" x="2141" y="35.3906"/><text fill="#000000" font-family="sans-serif" font-size="14" lengthAdjust="spacing" textLength="78" x="2157.5" y="56.9238">&lt;&lt;domain&gt;&gt;</text><text fill="#000000" font-family="sans-serif" font-size="14" lengthAdjust="spacing" textLength="97" x="2148" y="74.5332">TicketLimitDate</text><rect fill="#FEFECE" filter="url(#fnywxqfl7l5sx)" height="49.2188" style="stroke:#A80036;stroke-width:1.5;" width="92" x="2266" y="35.3906"/><text fill="#000000" font-family="sans-serif" font-size="14" lengthAdjust="spacing" textLength="78" x="2273" y="56.9238">&lt;&lt;domain&gt;&gt;</text><text fill="#000000" font-family="sans-serif" font-size="14" lengthAdjust="spacing" textLength="61" x="2281.5" y="74.5332">TicketFile</text><rect fill="#FEFECE" filter="url(#fnywxqfl7l5sx)" height="49.2188" style="stroke:#A80036;stroke-width:1.5;" width="116" x="2372" y="35.3906"/><text fill="#000000" font-family="sans-serif" font-size="14" lengthAdjust="spacing" textLength="78" x="2391" y="56.9238">&lt;&lt;domain&gt;&gt;</text><text fill="#000000" font-family="sans-serif" font-size="14" lengthAdjust="spacing" textLength="102" x="2379" y="74.5332">TicketResponse</text><rect fill="#FEFECE" filter="url(#fnywxqfl7l5sx)" height="49.2188" style="stroke:#A80036;stroke-width:1.5;" width="92" x="2502" y="35.3906"/><text fill="#000000" font-family="sans-serif" font-size="14" lengthAdjust="spacing" textLength="78" x="2509" y="56.9238">&lt;&lt;domain&gt;&gt;</text><text fill="#000000" font-family="sans-serif" font-size="14" lengthAdjust="spacing" textLength="53" x="2521.5" y="74.5332">Attribute</text><rect fill="#FEFECE" filter="url(#fnywxqfl7l5sx)" height="49.2188" style="stroke:#A80036;stroke-width:1.5;" width="92" x="2608" y="35.3906"/><text fill="#000000" font-family="sans-serif" font-size="14" lengthAdjust="spacing" textLength="78" x="2615" y="56.9238">&lt;&lt;domain&gt;&gt;</text><text fill="#000000" font-family="sans-serif" font-size="14" lengthAdjust="spacing" textLength="33" x="2637.5" y="74.5332">Form</text><rect fill="#FFFFFF" filter="url(#fnywxqfl7l5sx)" height="1224.4453" style="stroke:#A80036;stroke-width:1.0;" width="10" x="42.5" y="99.6094"/><rect fill="#FFFFFF" filter="url(#fnywxqfl7l5sx)" height="263.6797" style="stroke:#A80036;stroke-width:1.0;" width="10" x="509.5" y="121.9609"/><rect fill="#FFFFFF" filter="url(#fnywxqfl7l5sx)" height="151.7578" style="stroke:#A80036;stroke-width:1.0;" width="10" x="509.5" y="415.9922"/><rect fill="#FFFFFF" filter="url(#fnywxqfl7l5sx)" height="30.3516" style="stroke:#A80036;stroke-width:1.0;" width="10" x="509.5" y="598.1016"/><rect fill="#FFFFFF" filter="url(#fnywxqfl7l5sx)" height="55.7031" style="stroke:#A80036;stroke-width:1.0;" width="10" x="509.5" y="658.8047"/><rect fill="#FFFFFF" filter="url(#fnywxqfl7l5sx)" height="88.0547" style="stroke:#A80036;stroke-width:1.0;" width="10" x="509.5" y="744.8594"/><rect fill="#FFFFFF" filter="url(#fnywxqfl7l5sx)" height="262.3281" style="stroke:#A80036;stroke-width:1.0;" width="10" x="509.5" y="863.2656"/><rect fill="#FFFFFF" filter="url(#fnywxqfl7l5sx)" height="168.1094" style="stroke:#A80036;stroke-width:1.0;" width="10" x="509.5" y="1155.9453"/><rect fill="#FFFFFF" filter="url(#fnywxqfl7l5sx)" height="192.9766" style="stroke:#A80036;stroke-width:1.0;" width="10" x="763.5" y="162.3125"/><rect fill="#FFFFFF" filter="url(#fnywxqfl7l5sx)" height="91.0547" style="stroke:#A80036;stroke-width:1.0;" width="10" x="763.5" y="446.3438"/><rect fill="#FFFFFF" filter="url(#fnywxqfl7l5sx)" height="30" style="stroke:#A80036;stroke-width:1.0;" width="10" x="763.5" y="893.6172"/><rect fill="#FFFFFF" filter="url(#fnywxqfl7l5sx)" height="94.5703" style="stroke:#A80036;stroke-width:1.0;" width="10" x="763.5" y="984.3203"/><rect fill="#FFFFFF" filter="url(#fnywxqfl7l5sx)" height="91.0547" style="stroke:#A80036;stroke-width:1.0;" width="10" x="763.5" y="1186.2969"/><rect fill="#FFFFFF" filter="url(#fnywxqfl7l5sx)" height="30.3516" style="stroke:#A80036;stroke-width:1.0;" width="10" x="940.5" y="294.5859"/><rect fill="#FFFFFF" filter="url(#fnywxqfl7l5sx)" height="30.3516" style="stroke:#A80036;stroke-width:1.0;" width="10" x="1080.5" y="476.6953"/><rect fill="#FFFFFF" filter="url(#fnywxqfl7l5sx)" height="30.3516" style="stroke:#A80036;stroke-width:1.0;" width="10" x="1313" y="1216.6484"/><polygon fill="#A80036" points="497.5,117.9609,507.5,121.9609,497.5,125.9609,501.5,121.9609" style="stroke:#A80036;stroke-width:1.0;"/><line style="stroke:#A80036;stroke-width:1.0;" x1="52.5" x2="503.5" y1="121.9609" y2="121.9609"/><text fill="#000000" font-family="sans-serif" font-size="13" font-weight="bold" lengthAdjust="spacing" textLength="7" x="59.5" y="117.1045">1</text><text fill="#000000" font-family="sans-serif" font-size="13" lengthAdjust="spacing" textLength="257" x="70.5" y="117.1045">initiates a service solicitation request (ticket)</text><polygon fill="#A80036" points="659,148.3125,669,152.3125,659,156.3125,663,152.3125" style="stroke:#A80036;stroke-width:1.0;"/><line style="stroke:#A80036;stroke-width:1.0;" x1="519.5" x2="665" y1="152.3125" y2="152.3125"/><text fill="#000000" font-family="sans-serif" font-size="13" font-weight="bold" lengthAdjust="spacing" textLength="7" x="526.5" y="147.4561">2</text><text fill="#000000" font-family="sans-serif" font-size="13" lengthAdjust="spacing" textLength="36" x="537.5" y="147.4561">create</text><rect fill="#FEFECE" filter="url(#fnywxqfl7l5sx)" height="49.2188" style="stroke:#A80036;stroke-width:1.5;" width="191" x="671" y="129.9609"/><text fill="#000000" font-family="sans-serif" font-size="14" lengthAdjust="spacing" textLength="100" x="716.5" y="151.4941">&lt;&lt;application&gt;&gt;</text><text fill="#000000" font-family="sans-serif" font-size="14" lengthAdjust="spacing" textLength="177" x="678" y="169.1035">ServiceSolicitationController</text><rect fill="#FFFFFF" filter="url(#fnywxqfl7l5sx)" height="42.7031" style="stroke:#000000;stroke-width:2.0;" width="197" x="668" y="194.1797"/><polygon fill="#EEEEEE" points="668,194.1797,730,194.1797,730,202.1797,720,212.1797,668,212.1797,668,194.1797" style="stroke:#000000;stroke-width:2.0;"/><text fill="#000000" font-family="sans-serif" font-size="13" font-weight="bold" lengthAdjust="spacing" textLength="17" x="681" y="209.6748">ref</text><text fill="#000000" font-family="sans-serif" font-size="13" lengthAdjust="spacing" textLength="123" x="707" y="229.6748">US-1-2002_SD_Repo</text><polygon fill="#A80036" points="751.5,260.2344,761.5,264.2344,751.5,268.2344,755.5,264.2344" style="stroke:#A80036;stroke-width:1.0;"/><line style="stroke:#A80036;stroke-width:1.0;" x1="519.5" x2="757.5" y1="264.2344" y2="264.2344"/><text fill="#000000" font-family="sans-serif" font-size="13" font-weight="bold" lengthAdjust="spacing" textLength="7" x="526.5" y="259.3779">3</text><text fill="#000000" font-family="sans-serif" font-size="13" lengthAdjust="spacing" textLength="134" x="537.5" y="259.3779">getCataloguesByUser()</text><polygon fill="#A80036" points="928.5,290.5859,938.5,294.5859,928.5,298.5859,932.5,294.5859" style="stroke:#A80036;stroke-width:1.0;"/><line style="stroke:#A80036;stroke-width:1.0;" x1="773.5" x2="934.5" y1="294.5859" y2="294.5859"/><text fill="#000000" font-family="sans-serif" font-size="13" font-weight="bold" lengthAdjust="spacing" textLength="7" x="780.5" y="289.7295">4</text><text fill="#000000" font-family="sans-serif" font-size="13" lengthAdjust="spacing" textLength="96" x="791.5" y="289.7295">findByUser(user)</text><polygon fill="#A80036" points="784.5,320.9375,774.5,324.9375,784.5,328.9375,780.5,324.9375" style="stroke:#A80036;stroke-width:1.0;"/><line style="stroke:#A80036;stroke-width:1.0;stroke-dasharray:2.0,2.0;" x1="778.5" x2="944.5" y1="324.9375" y2="324.9375"/><text fill="#000000" font-family="sans-serif" font-size="13" font-weight="bold" lengthAdjust="spacing" textLength="7" x="790.5" y="320.0811">5</text><text fill="#000000" font-family="sans-serif" font-size="13" lengthAdjust="spacing" textLength="63" x="801.5" y="320.0811">catalogues</text><polygon fill="#A80036" points="530.5,351.2891,520.5,355.2891,530.5,359.2891,526.5,355.2891" style="stroke:#A80036;stroke-width:1.0;"/><line style="stroke:#A80036;stroke-width:1.0;stroke-dasharray:2.0,2.0;" x1="524.5" x2="767.5" y1="355.2891" y2="355.2891"/><text fill="#000000" font-family="sans-serif" font-size="13" font-weight="bold" lengthAdjust="spacing" textLength="7" x="536.5" y="350.4326">6</text><text fill="#000000" font-family="sans-serif" font-size="13" lengthAdjust="spacing" textLength="63" x="547.5" y="350.4326">catalogues</text><polygon fill="#A80036" points="63.5,381.6406,53.5,385.6406,63.5,389.6406,59.5,385.6406" style="stroke:#A80036;stroke-width:1.0;"/><line style="stroke:#A80036;stroke-width:1.0;" x1="57.5" x2="513.5" y1="385.6406" y2="385.6406"/><text fill="#000000" font-family="sans-serif" font-size="13" font-weight="bold" lengthAdjust="spacing" textLength="7" x="69.5" y="380.7842">7</text><text fill="#000000" font-family="sans-serif" font-size="13" lengthAdjust="spacing" textLength="245" x="80.5" y="380.7842">shows the catalogues available to the user</text><polygon fill="#A80036" points="497.5,411.9922,507.5,415.9922,497.5,419.9922,501.5,415.9922" style="stroke:#A80036;stroke-width:1.0;"/><line style="stroke:#A80036;stroke-width:1.0;" x1="52.5" x2="503.5" y1="415.9922" y2="415.9922"/><text fill="#000000" font-family="sans-serif" font-size="13" font-weight="bold" lengthAdjust="spacing" textLength="7" x="59.5" y="411.1357">8</text><text fill="#000000" font-family="sans-serif" font-size="13" lengthAdjust="spacing" textLength="120" x="70.5" y="411.1357">chooses a catalogue</text><polygon fill="#A80036" points="751.5,442.3438,761.5,446.3438,751.5,450.3438,755.5,446.3438" style="stroke:#A80036;stroke-width:1.0;"/><line style="stroke:#A80036;stroke-width:1.0;" x1="519.5" x2="757.5" y1="446.3438" y2="446.3438"/><text fill="#000000" font-family="sans-serif" font-size="13" font-weight="bold" lengthAdjust="spacing" textLength="7" x="526.5" y="441.4873">9</text><text fill="#000000" font-family="sans-serif" font-size="13" lengthAdjust="spacing" textLength="214" x="537.5" y="441.4873">getServicesByCatalogue(oCatalogue)</text><polygon fill="#A80036" points="1068.5,472.6953,1078.5,476.6953,1068.5,480.6953,1072.5,476.6953" style="stroke:#A80036;stroke-width:1.0;"/><line style="stroke:#A80036;stroke-width:1.0;" x1="773.5" x2="1074.5" y1="476.6953" y2="476.6953"/><text fill="#000000" font-family="sans-serif" font-size="13" font-weight="bold" lengthAdjust="spacing" textLength="14" x="780.5" y="471.8389">10</text><text fill="#000000" font-family="sans-serif" font-size="13" lengthAdjust="spacing" textLength="167" x="798.5" y="471.8389">findByCatalogue(oCatalogue)</text><polygon fill="#A80036" points="784.5,503.0469,774.5,507.0469,784.5,511.0469,780.5,507.0469" style="stroke:#A80036;stroke-width:1.0;"/><line style="stroke:#A80036;stroke-width:1.0;stroke-dasharray:2.0,2.0;" x1="778.5" x2="1084.5" y1="507.0469" y2="507.0469"/><text fill="#000000" font-family="sans-serif" font-size="13" font-weight="bold" lengthAdjust="spacing" textLength="14" x="790.5" y="502.1904">11</text><text fill="#000000" font-family="sans-serif" font-size="13" lengthAdjust="spacing" textLength="47" x="808.5" y="502.1904">services</text><polygon fill="#A80036" points="530.5,533.3984,520.5,537.3984,530.5,541.3984,526.5,537.3984" style="stroke:#A80036;stroke-width:1.0;"/><line style="stroke:#A80036;stroke-width:1.0;stroke-dasharray:2.0,2.0;" x1="524.5" x2="767.5" y1="537.3984" y2="537.3984"/><text fill="#000000" font-family="sans-serif" font-size="13" font-weight="bold" lengthAdjust="spacing" textLength="14" x="536.5" y="532.542">12</text><text fill="#000000" font-family="sans-serif" font-size="13" lengthAdjust="spacing" textLength="47" x="554.5" y="532.542">services</text><polygon fill="#A80036" points="63.5,563.75,53.5,567.75,63.5,571.75,59.5,567.75" style="stroke:#A80036;stroke-width:1.0;"/><line style="stroke:#A80036;stroke-width:1.0;" x1="57.5" x2="513.5" y1="567.75" y2="567.75"/><text fill="#000000" font-family="sans-serif" font-size="13" font-weight="bold" lengthAdjust="spacing" textLength="14" x="69.5" y="562.8936">13</text><text fill="#000000" font-family="sans-serif" font-size="13" lengthAdjust="spacing" textLength="210" x="87.5" y="562.8936">shows the services in that catalogue</text><polygon fill="#A80036" points="497.5,594.1016,507.5,598.1016,497.5,602.1016,501.5,598.1016" style="stroke:#A80036;stroke-width:1.0;"/><line style="stroke:#A80036;stroke-width:1.0;" x1="52.5" x2="503.5" y1="598.1016" y2="598.1016"/><text fill="#000000" font-family="sans-serif" font-size="13" font-weight="bold" lengthAdjust="spacing" textLength="14" x="59.5" y="593.2451">14</text><text fill="#000000" font-family="sans-serif" font-size="13" lengthAdjust="spacing" textLength="104" x="77.5" y="593.2451">chooses a service</text><polygon fill="#A80036" points="63.5,624.4531,53.5,628.4531,63.5,632.4531,59.5,628.4531" style="stroke:#A80036;stroke-width:1.0;"/><line style="stroke:#A80036;stroke-width:1.0;" x1="57.5" x2="513.5" y1="628.4531" y2="628.4531"/><text fill="#000000" font-family="sans-serif" font-size="13" font-weight="bold" lengthAdjust="spacing" textLength="14" x="69.5" y="623.5967">15</text><text fill="#000000" font-family="sans-serif" font-size="13" lengthAdjust="spacing" textLength="415" x="87.5" y="623.5967">requests the user to submit the required information (urgency, limitDate)</text><polygon fill="#A80036" points="497.5,654.8047,507.5,658.8047,497.5,662.8047,501.5,658.8047" style="stroke:#A80036;stroke-width:1.0;"/><line style="stroke:#A80036;stroke-width:1.0;" x1="52.5" x2="503.5" y1="658.8047" y2="658.8047"/><text fill="#000000" font-family="sans-serif" font-size="13" font-weight="bold" lengthAdjust="spacing" textLength="14" x="59.5" y="653.9482">16</text><text fill="#000000" font-family="sans-serif" font-size="13" lengthAdjust="spacing" textLength="128" x="77.5" y="653.9482">inserts the information</text><path d="M20,673.8047 L93,673.8047 L93,681.8047 L83,691.8047 L20,691.8047 L20,673.8047 " fill="#EEEEEE" style="stroke:#000000;stroke-width:1.0;"/><rect fill="none" height="79.0547" style="stroke:#000000;stroke-width:2.0;" width="577" x="20" y="673.8047"/><text fill="#000000" font-family="sans-serif" font-size="13" font-weight="bold" lengthAdjust="spacing" textLength="28" x="35" y="688.2998">loop</text><text fill="#000000" font-family="sans-serif" font-size="11" font-weight="bold" lengthAdjust="spacing" textLength="263" x="108" y="687.2236">[until the user doesnt have more files to attach]</text><polygon fill="#A80036" points="63.5,710.5078,53.5,714.5078,63.5,718.5078,59.5,714.5078" style="stroke:#A80036;stroke-width:1.0;"/><line style="stroke:#A80036;stroke-width:1.0;" x1="57.5" x2="513.5" y1="714.5078" y2="714.5078"/><text fill="#000000" font-family="sans-serif" font-size="13" font-weight="bold" lengthAdjust="spacing" textLength="14" x="69.5" y="709.6514">17</text><text fill="#000000" font-family="sans-serif" font-size="13" lengthAdjust="spacing" textLength="165" x="87.5" y="709.6514">asks the user to attach a file</text><polygon fill="#A80036" points="497.5,740.8594,507.5,744.8594,497.5,748.8594,501.5,744.8594" style="stroke:#A80036;stroke-width:1.0;"/><line style="stroke:#A80036;stroke-width:1.0;" x1="52.5" x2="503.5" y1="744.8594" y2="744.8594"/><text fill="#000000" font-family="sans-serif" font-size="13" font-weight="bold" lengthAdjust="spacing" textLength="14" x="59.5" y="740.0029">18</text><text fill="#000000" font-family="sans-serif" font-size="13" lengthAdjust="spacing" textLength="81" x="77.5" y="740.0029">attaches a file</text><path d="M10,766.8594 L83,766.8594 L83,774.8594 L73,784.8594 L10,784.8594 L10,766.8594 " fill="#EEEEEE" style="stroke:#000000;stroke-width:1.0;"/><rect fill="none" height="171.7578" style="stroke:#000000;stroke-width:2.0;" width="876" x="10" y="766.8594"/><text fill="#000000" font-family="sans-serif" font-size="13" font-weight="bold" lengthAdjust="spacing" textLength="28" x="25" y="781.3545">loop</text><text fill="#000000" font-family="sans-serif" font-size="11" font-weight="bold" lengthAdjust="spacing" textLength="232" x="98" y="780.2783">[until there are no more forms to answer]</text><path d="M20,792.2109 L93,792.2109 L93,800.2109 L83,810.2109 L20,810.2109 L20,792.2109 " fill="#EEEEEE" style="stroke:#000000;stroke-width:1.0;"/><rect fill="none" height="139.4063" style="stroke:#000000;stroke-width:2.0;" width="856" x="20" y="792.2109"/><text fill="#000000" font-family="sans-serif" font-size="13" font-weight="bold" lengthAdjust="spacing" textLength="28" x="35" y="806.7061">loop</text><text fill="#000000" font-family="sans-serif" font-size="11" font-weight="bold" lengthAdjust="spacing" textLength="257" x="108" y="805.6299">[until there are no more attributes in the form]</text><polygon fill="#A80036" points="63.5,828.9141,53.5,832.9141,63.5,836.9141,59.5,832.9141" style="stroke:#A80036;stroke-width:1.0;"/><line style="stroke:#A80036;stroke-width:1.0;" x1="57.5" x2="513.5" y1="832.9141" y2="832.9141"/><text fill="#000000" font-family="sans-serif" font-size="13" font-weight="bold" lengthAdjust="spacing" textLength="14" x="69.5" y="828.0576">19</text><text fill="#000000" font-family="sans-serif" font-size="13" lengthAdjust="spacing" textLength="222" x="87.5" y="828.0576">requests the input for a form's attribute</text><polygon fill="#A80036" points="497.5,859.2656,507.5,863.2656,497.5,867.2656,501.5,863.2656" style="stroke:#A80036;stroke-width:1.0;"/><line style="stroke:#A80036;stroke-width:1.0;" x1="52.5" x2="503.5" y1="863.2656" y2="863.2656"/><text fill="#000000" font-family="sans-serif" font-size="13" font-weight="bold" lengthAdjust="spacing" textLength="14" x="59.5" y="858.4092">20</text><text fill="#000000" font-family="sans-serif" font-size="13" lengthAdjust="spacing" textLength="48" x="77.5" y="858.4092">answers</text><polygon fill="#A80036" points="751.5,889.6172,761.5,893.6172,751.5,897.6172,755.5,893.6172" style="stroke:#A80036;stroke-width:1.0;"/><line style="stroke:#A80036;stroke-width:1.0;" x1="519.5" x2="757.5" y1="893.6172" y2="893.6172"/><text fill="#000000" font-family="sans-serif" font-size="13" font-weight="bold" lengthAdjust="spacing" textLength="14" x="526.5" y="888.7607">21</text><text fill="#000000" font-family="sans-serif" font-size="13" lengthAdjust="spacing" textLength="140" x="544.5" y="888.7607">addResponse(response)</text><polygon fill="#A80036" points="751.5,980.3203,761.5,984.3203,751.5,988.3203,755.5,984.3203" style="stroke:#A80036;stroke-width:1.0;"/><line style="stroke:#A80036;stroke-width:1.0;" x1="519.5" x2="757.5" y1="984.3203" y2="984.3203"/><text fill="#000000" font-family="sans-serif" font-size="13" font-weight="bold" lengthAdjust="spacing" textLength="14" x="526.5" y="971.2881">22</text><text fill="#000000" font-family="sans-serif" font-size="13" lengthAdjust="spacing" textLength="158" x="544.5" y="963.1123">addTicket(service, urgency,</text><text fill="#000000" font-family="sans-serif" font-size="13" lengthAdjust="spacing" textLength="105" x="544.5" y="979.4639">limitDate, lstFiles)</text><polygon fill="#A80036" points="1144,1010.6719,1154,1014.6719,1144,1018.6719,1148,1014.6719" style="stroke:#A80036;stroke-width:1.0;"/><line style="stroke:#A80036;stroke-width:1.0;" x1="773.5" x2="1150" y1="1014.6719" y2="1014.6719"/><text fill="#000000" font-family="sans-serif" font-size="13" font-weight="bold" lengthAdjust="spacing" textLength="14" x="780.5" y="1009.8154">23</text><text fill="#000000" font-family="sans-serif" font-size="13" lengthAdjust="spacing" textLength="334" x="798.5" y="1009.8154">create(service, urgency, limitDate, lstFiles, lstResponses)</text><rect fill="#FEFECE" filter="url(#fnywxqfl7l5sx)" height="49.2188" style="stroke:#A80036;stroke-width:1.5;" width="92" x="1156" y="992.3203"/><text fill="#000000" font-family="sans-serif" font-size="14" lengthAdjust="spacing" textLength="78" x="1163" y="1013.8535">&lt;&lt;domain&gt;&gt;</text><text fill="#000000" font-family="sans-serif" font-size="14" lengthAdjust="spacing" textLength="38" x="1183" y="1031.4629">Ticket</text><polygon fill="#A80036" points="530.5,1074.8906,520.5,1078.8906,530.5,1082.8906,526.5,1078.8906" style="stroke:#A80036;stroke-width:1.0;"/><line style="stroke:#A80036;stroke-width:1.0;stroke-dasharray:2.0,2.0;" x1="524.5" x2="767.5" y1="1078.8906" y2="1078.8906"/><text fill="#000000" font-family="sans-serif" font-size="13" font-weight="bold" lengthAdjust="spacing" textLength="14" x="536.5" y="1074.0342">24</text><text fill="#000000" font-family="sans-serif" font-size="13" lengthAdjust="spacing" textLength="32" x="554.5" y="1074.0342">ticket</text><polygon fill="#A80036" points="63.5,1121.5938,53.5,1125.5938,63.5,1129.5938,59.5,1125.5938" style="stroke:#A80036;stroke-width:1.0;"/><line style="stroke:#A80036;stroke-width:1.0;" x1="57.5" x2="513.5" y1="1125.5938" y2="1125.5938"/><text fill="#000000" font-family="sans-serif" font-size="13" font-weight="bold" lengthAdjust="spacing" textLength="14" x="69.5" y="1112.5615">25</text><text fill="#000000" font-family="sans-serif" font-size="13" lengthAdjust="spacing" textLength="174" x="87.5" y="1104.3857">validates, presents the current</text><text fill="#000000" font-family="sans-serif" font-size="13" lengthAdjust="spacing" textLength="284" x="87.5" y="1120.7373">information in the ticket and asks for confirmation</text><polygon fill="#A80036" points="497.5,1151.9453,507.5,1155.9453,497.5,1159.9453,501.5,1155.9453" style="stroke:#A80036;stroke-width:1.0;"/><line style="stroke:#A80036;stroke-width:1.0;" x1="52.5" x2="503.5" y1="1155.9453" y2="1155.9453"/><text fill="#000000" font-family="sans-serif" font-size="13" font-weight="bold" lengthAdjust="spacing" textLength="14" x="59.5" y="1151.0889">26</text><text fill="#000000" font-family="sans-serif" font-size="13" lengthAdjust="spacing" textLength="49" x="77.5" y="1151.0889">confirms</text><polygon fill="#A80036" points="751.5,1182.2969,761.5,1186.2969,751.5,1190.2969,755.5,1186.2969" style="stroke:#A80036;stroke-width:1.0;"/><line style="stroke:#A80036;stroke-width:1.0;" x1="519.5" x2="757.5" y1="1186.2969" y2="1186.2969"/><text fill="#000000" font-family="sans-serif" font-size="13" font-weight="bold" lengthAdjust="spacing" textLength="14" x="526.5" y="1181.4404">27</text><text fill="#000000" font-family="sans-serif" font-size="13" lengthAdjust="spacing" textLength="101" x="544.5" y="1181.4404">saveTicket(ticket)</text><polygon fill="#A80036" points="1301,1212.6484,1311,1216.6484,1301,1220.6484,1305,1216.6484" style="stroke:#A80036;stroke-width:1.0;"/><line style="stroke:#A80036;stroke-width:1.0;" x1="773.5" x2="1307" y1="1216.6484" y2="1216.6484"/><text fill="#000000" font-family="sans-serif" font-size="13" font-weight="bold" lengthAdjust="spacing" textLength="14" x="780.5" y="1211.792">28</text><text fill="#000000" font-family="sans-serif" font-size="13" lengthAdjust="spacing" textLength="66" x="798.5" y="1211.792">save(ticket)</text><polygon fill="#A80036" points="784.5,1243,774.5,1247,784.5,1251,780.5,1247" style="stroke:#A80036;stroke-width:1.0;"/><line style="stroke:#A80036;stroke-width:1.0;stroke-dasharray:2.0,2.0;" x1="778.5" x2="1317" y1="1247" y2="1247"/><text fill="#000000" font-family="sans-serif" font-size="13" font-weight="bold" lengthAdjust="spacing" textLength="14" x="790.5" y="1242.1436">29</text><text fill="#000000" font-family="sans-serif" font-size="13" lengthAdjust="spacing" textLength="32" x="808.5" y="1242.1436">ticket</text><polygon fill="#A80036" points="530.5,1273.3516,520.5,1277.3516,530.5,1281.3516,526.5,1277.3516" style="stroke:#A80036;stroke-width:1.0;"/><line style="stroke:#A80036;stroke-width:1.0;stroke-dasharray:2.0,2.0;" x1="524.5" x2="767.5" y1="1277.3516" y2="1277.3516"/><text fill="#000000" font-family="sans-serif" font-size="13" font-weight="bold" lengthAdjust="spacing" textLength="14" x="536.5" y="1272.4951">30</text><text fill="#000000" font-family="sans-serif" font-size="13" lengthAdjust="spacing" textLength="32" x="554.5" y="1272.4951">ticket</text><polygon fill="#A80036" points="58.5,1320.0547,48.5,1324.0547,58.5,1328.0547,54.5,1324.0547" style="stroke:#A80036;stroke-width:1.0;"/><line style="stroke:#A80036;stroke-width:1.0;" x1="52.5" x2="513.5" y1="1324.0547" y2="1324.0547"/><text fill="#000000" font-family="sans-serif" font-size="13" font-weight="bold" lengthAdjust="spacing" textLength="14" x="64.5" y="1311.0225">31</text><text fill="#000000" font-family="sans-serif" font-size="13" lengthAdjust="spacing" textLength="215" x="82.5" y="1302.8467">registers the ticket in the persistence</text><text fill="#000000" font-family="sans-serif" font-size="13" lengthAdjust="spacing" textLength="249" x="86.5" y="1319.1982">and informs of the success of the operation</text><!--MD5=[de13e79ff64c6421a80c2a0c8e9b6343]
@startuml
autonumber
hide footbox

actor "User" as US

participant "<<presentation>>\nServiceSolicitationUI" as UI
participant "<<application>>\nServiceSolicitationController" as CTRL
database "<<repository>>\nCatalogueRepository" as CR
database "<<repository>>\nServiceRepository" as SR
participant "<<domain>>\nTicket" as T
database "<<repository>>\nTicketRepository" as TR
participant "<<persistence>>\nPersistenceContext" as PC
participant "<<persistence>>\nAppSettings" as AS
participant "<<factory>>\nRepositoryFactory" as RF
participant "<<domain>>\nCatalogue" as C
participant "<<domain>>\nService" as S
participant "<<domain>>\nTicketUrgency" as TU
participant "<<domain>>\nTicketLimitDate" as TD
participant "<<domain>>\nTicketFile" as TF
participant "<<domain>>\nTicketResponse" as TRS
participant "<<domain>>\nAttribute" as A
participant "<<domain>>\nForm" as F

activate US

US -> UI : initiates a service solicitation request (ticket)
activate UI

UI -> CTRL** : create
activate CTRL

ref over CTRL
  US-1-2002_SD_Repo
end ref

UI -> CTRL : getCataloguesByUser()

CTRL -> CR : findByUser(user)
activate CR
CR - -> CTRL : catalogues
deactivate CR

CTRL - -> UI : catalogues
deactivate CTRL

UI -> US : shows the catalogues available to the user
deactivate UI

US -> UI : chooses a catalogue
activate UI

UI -> CTRL : getServicesByCatalogue(oCatalogue)
activate CTRL

CTRL -> SR : findByCatalogue(oCatalogue)
activate SR
SR - -> CTRL : services
deactivate SR

CTRL - -> UI : services
deactivate CTRL

UI -> US : shows the services in that catalogue
deactivate UI

US -> UI : chooses a service
activate UI

UI -> US : requests the user to submit the required information (urgency, limitDate)
deactivate UI

US -> UI : inserts the information
activate UI

loop until the user doesnt have more files to attach
UI -> US : asks the user to attach a file
deactivate UI

US -> UI : attaches a file
activate UI
end

loop until there are no more forms to answer
loop until there are no more attributes in the form
UI -> US : requests the input for a form's attribute
deactivate UI

US -> UI : answers
activate UI

UI -> CTRL : addResponse(response)
activate CTRL
deactivate CTRL
end
end

UI -> CTRL : addTicket(service, urgency, \nlimitDate, lstFiles)
activate CTRL

CTRL -> T** : create(service, urgency, limitDate, lstFiles, lstResponses)

CTRL - -> UI : ticket
deactivate CTRL

UI -> US : validates, presents the current \ninformation in the ticket and asks for confirmation
deactivate UI

US -> UI : confirms
activate UI

UI -> CTRL : saveTicket(ticket)
activate CTRL

CTRL -> TR : save(ticket)
activate TR
TR - -> CTRL : ticket
deactivate TR

CTRL - -> UI : ticket
deactivate CTRL

UI -> US : registers the ticket in the persistence\n and informs of the success of the operation
deactivate UI
deactivate US

@enduml

PlantUML version 1.2021.5(Sun Apr 25 12:20:28 BST 2021)
(GPL source distribution)
Java Runtime: OpenJDK Runtime Environment
JVM: Dynamic Code Evolution 64-Bit Server VM
Default Encoding: Cp1252
Language: pt
Country: PT
--></g></svg>