<?xml version="1.0" encoding="UTF-8" standalone="no"?><svg xmlns="http://www.w3.org/2000/svg" xmlns:xlink="http://www.w3.org/1999/xlink" contentScriptType="application/ecmascript" contentStyleType="text/css" height="1232.5px" preserveAspectRatio="none" style="width:1887px;height:1232px;" version="1.1" viewBox="0 0 1887 1232" width="1887.5px" zoomAndPan="magnify"><defs><filter height="300%" id="f1n6aymgvzvv3j" width="300%" x="-1" y="-1"><feGaussianBlur result="blurOut" stdDeviation="2.5"/><feColorMatrix in="blurOut" result="blurOut2" type="matrix" values="0 0 0 0 0 0 0 0 0 0 0 0 0 0 0 0 0 0 .4 0"/><feOffset dx="5.0" dy="5.0" in="blurOut2" result="blurOut3"/><feBlend in="SourceGraphic" in2="blurOut3" mode="normal"/></filter></defs><g><rect fill="#FFFFFF" filter="url(#f1n6aymgvzvv3j)" height="1077.9492" style="stroke:#A80036;stroke-width:1.25;" width="12.5" x="134.375" y="124.5117"/><rect fill="#FFFFFF" filter="url(#f1n6aymgvzvv3j)" height="1050.0098" style="stroke:#A80036;stroke-width:1.25;" width="12.5" x="636.875" y="152.4512"/><rect fill="#FFFFFF" filter="url(#f1n6aymgvzvv3j)" height="164.9023" style="stroke:#A80036;stroke-width:1.25;" width="12.5" x="964.375" y="202.8906"/><rect fill="#FFFFFF" filter="url(#f1n6aymgvzvv3j)" height="151.7578" style="stroke:#A80036;stroke-width:1.25;" width="12.5" x="964.375" y="405.7324"/><rect fill="#FFFFFF" filter="url(#f1n6aymgvzvv3j)" height="151.7578" style="stroke:#A80036;stroke-width:1.25;" width="12.5" x="964.375" y="671.3086"/><rect fill="#FFFFFF" filter="url(#f1n6aymgvzvv3j)" height="151.7578" style="stroke:#A80036;stroke-width:1.25;" width="12.5" x="964.375" y="936.8848"/><rect fill="#FFFFFF" filter="url(#f1n6aymgvzvv3j)" height="37.5" style="stroke:#A80036;stroke-width:1.25;" width="12.5" x="1263.125" y="330.293"/><rect fill="#FFFFFF" filter="url(#f1n6aymgvzvv3j)" height="37.9395" style="stroke:#A80036;stroke-width:1.25;" width="12.5" x="1436.25" y="974.8242"/><rect fill="#FFFFFF" filter="url(#f1n6aymgvzvv3j)" height="37.9395" style="stroke:#A80036;stroke-width:1.25;" width="12.5" x="1635.625" y="481.6113"/><rect fill="#FFFFFF" filter="url(#f1n6aymgvzvv3j)" height="37.9395" style="stroke:#A80036;stroke-width:1.25;" width="12.5" x="1635.625" y="1012.7637"/><rect fill="#FFFFFF" filter="url(#f1n6aymgvzvv3j)" height="37.9395" style="stroke:#A80036;stroke-width:1.25;" width="12.5" x="1811.875" y="747.1875"/><line style="stroke:#A80036;stroke-width:1.25;stroke-dasharray:5.0,5.0;" x1="140" x2="140" y1="112.0117" y2="1224.9609"/><line style="stroke:#A80036;stroke-width:1.25;stroke-dasharray:5.0,5.0;" x1="643.125" x2="643.125" y1="112.0117" y2="1224.9609"/><line style="stroke:#A80036;stroke-width:1.25;stroke-dasharray:5.0,5.0;" x1="970.625" x2="970.625" y1="215.0879" y2="1224.9609"/><line style="stroke:#A80036;stroke-width:1.25;stroke-dasharray:5.0,5.0;" x1="1269.375" x2="1269.375" y1="112.0117" y2="1224.9609"/><line style="stroke:#A80036;stroke-width:1.25;stroke-dasharray:5.0,5.0;" x1="1441.875" x2="1441.875" y1="112.0117" y2="1224.9609"/><line style="stroke:#A80036;stroke-width:1.25;stroke-dasharray:5.0,5.0;" x1="1641.875" x2="1641.875" y1="112.0117" y2="1224.9609"/><line style="stroke:#A80036;stroke-width:1.25;stroke-dasharray:5.0,5.0;" x1="1818.125" x2="1818.125" y1="112.0117" y2="1224.9609"/><text fill="#000000" font-family="sans-serif" font-size="17.5" lengthAdjust="spacing" textLength="261.25" x="6.25" y="108.1665">Human Resource Representative</text><ellipse cx="140.625" cy="18.75" fill="#FEFECE" filter="url(#f1n6aymgvzvv3j)" rx="10" ry="10" style="stroke:#A80036;stroke-width:2.5;"/><path d="M140.625,28.75 L140.625,62.5 M124.375,38.75 L156.875,38.75 M140.625,62.5 L124.375,81.25 M140.625,62.5 L156.875,81.25 " fill="none" filter="url(#f1n6aymgvzvv3j)" style="stroke:#A80036;stroke-width:2.5;"/><rect fill="#FEFECE" filter="url(#f1n6aymgvzvv3j)" height="61.5234" style="stroke:#A80036;stroke-width:1.875;" width="180" x="550.625" y="44.2383"/><text fill="#000000" font-family="sans-serif" font-size="17.5" lengthAdjust="spacing" textLength="138.75" x="571.25" y="71.1548">&lt;&lt;presentation&gt;&gt;</text><text fill="#000000" font-family="sans-serif" font-size="17.5" lengthAdjust="spacing" textLength="162.5" x="559.375" y="93.1665">AddCollabToTeamUI</text><rect fill="#FEFECE" filter="url(#f1n6aymgvzvv3j)" height="61.5234" style="stroke:#A80036;stroke-width:1.875;" width="132.5" x="1200.625" y="44.2383"/><text fill="#000000" font-family="sans-serif" font-size="17.5" lengthAdjust="spacing" textLength="115" x="1209.375" y="71.1548">&lt;&lt;aplication&gt;&gt;</text><text fill="#000000" font-family="sans-serif" font-size="17.5" lengthAdjust="spacing" textLength="108.75" x="1212.5" y="93.1665">AuthzRegistry</text><rect fill="#FEFECE" filter="url(#f1n6aymgvzvv3j)" height="61.5234" style="stroke:#A80036;stroke-width:1.875;" width="178.75" x="1350.625" y="44.2383"/><text fill="#000000" font-family="sans-serif" font-size="17.5" lengthAdjust="spacing" textLength="115" x="1382.5" y="71.1548">&lt;&lt;aplication&gt;&gt;</text><text fill="#000000" font-family="sans-serif" font-size="17.5" lengthAdjust="spacing" textLength="161.25" x="1359.375" y="93.1665">AuthorizationService</text><text fill="#000000" font-family="sans-serif" font-size="17.5" lengthAdjust="spacing" textLength="118.75" x="1578.75" y="86.1548">&lt;&lt;repository&gt;&gt;</text><text fill="#000000" font-family="sans-serif" font-size="17.5" lengthAdjust="spacing" textLength="182.5" x="1546.875" y="108.1665">CollaboratorRepository</text><path d="M1619.375,22.9883 C1619.375,10.4883 1641.875,10.4883 1641.875,10.4883 C1641.875,10.4883 1664.375,10.4883 1664.375,22.9883 L1664.375,55.4883 C1664.375,67.9883 1641.875,67.9883 1641.875,67.9883 C1641.875,67.9883 1619.375,67.9883 1619.375,55.4883 L1619.375,22.9883 " fill="#FEFECE" filter="url(#f1n6aymgvzvv3j)" style="stroke:#000000;stroke-width:1.875;"/><path d="M1619.375,22.9883 C1619.375,35.4883 1641.875,35.4883 1641.875,35.4883 C1641.875,35.4883 1664.375,35.4883 1664.375,22.9883 " fill="none" style="stroke:#000000;stroke-width:1.875;"/><text fill="#000000" font-family="sans-serif" font-size="17.5" lengthAdjust="spacing" textLength="118.75" x="1755" y="86.1548">&lt;&lt;repository&gt;&gt;</text><text fill="#000000" font-family="sans-serif" font-size="17.5" lengthAdjust="spacing" textLength="130" x="1749.375" y="108.1665">TeamRepository</text><path d="M1795.625,22.9883 C1795.625,10.4883 1818.125,10.4883 1818.125,10.4883 C1818.125,10.4883 1840.625,10.4883 1840.625,22.9883 L1840.625,55.4883 C1840.625,67.9883 1818.125,67.9883 1818.125,67.9883 C1818.125,67.9883 1795.625,67.9883 1795.625,55.4883 L1795.625,22.9883 " fill="#FEFECE" filter="url(#f1n6aymgvzvv3j)" style="stroke:#000000;stroke-width:1.875;"/><path d="M1795.625,22.9883 C1795.625,35.4883 1818.125,35.4883 1818.125,35.4883 C1818.125,35.4883 1840.625,35.4883 1840.625,22.9883 " fill="none" style="stroke:#000000;stroke-width:1.875;"/><rect fill="#FFFFFF" filter="url(#f1n6aymgvzvv3j)" height="1077.9492" style="stroke:#A80036;stroke-width:1.25;" width="12.5" x="134.375" y="124.5117"/><rect fill="#FFFFFF" filter="url(#f1n6aymgvzvv3j)" height="1050.0098" style="stroke:#A80036;stroke-width:1.25;" width="12.5" x="636.875" y="152.4512"/><rect fill="#FFFFFF" filter="url(#f1n6aymgvzvv3j)" height="164.9023" style="stroke:#A80036;stroke-width:1.25;" width="12.5" x="964.375" y="202.8906"/><rect fill="#FFFFFF" filter="url(#f1n6aymgvzvv3j)" height="151.7578" style="stroke:#A80036;stroke-width:1.25;" width="12.5" x="964.375" y="405.7324"/><rect fill="#FFFFFF" filter="url(#f1n6aymgvzvv3j)" height="151.7578" style="stroke:#A80036;stroke-width:1.25;" width="12.5" x="964.375" y="671.3086"/><rect fill="#FFFFFF" filter="url(#f1n6aymgvzvv3j)" height="151.7578" style="stroke:#A80036;stroke-width:1.25;" width="12.5" x="964.375" y="936.8848"/><rect fill="#FFFFFF" filter="url(#f1n6aymgvzvv3j)" height="37.5" style="stroke:#A80036;stroke-width:1.25;" width="12.5" x="1263.125" y="330.293"/><rect fill="#FFFFFF" filter="url(#f1n6aymgvzvv3j)" height="37.9395" style="stroke:#A80036;stroke-width:1.25;" width="12.5" x="1436.25" y="974.8242"/><rect fill="#FFFFFF" filter="url(#f1n6aymgvzvv3j)" height="37.9395" style="stroke:#A80036;stroke-width:1.25;" width="12.5" x="1635.625" y="481.6113"/><rect fill="#FFFFFF" filter="url(#f1n6aymgvzvv3j)" height="37.9395" style="stroke:#A80036;stroke-width:1.25;" width="12.5" x="1635.625" y="1012.7637"/><rect fill="#FFFFFF" filter="url(#f1n6aymgvzvv3j)" height="37.9395" style="stroke:#A80036;stroke-width:1.25;" width="12.5" x="1811.875" y="747.1875"/><polygon fill="#A80036" points="621.875,147.4512,634.375,152.4512,621.875,157.4512,626.875,152.4512" style="stroke:#A80036;stroke-width:1.25;"/><line style="stroke:#A80036;stroke-width:1.25;" x1="146.875" x2="629.375" y1="152.4512" y2="152.4512"/><text fill="#000000" font-family="sans-serif" font-size="16.25" font-weight="bold" lengthAdjust="spacing" textLength="8.75" x="155.625" y="146.3806">1</text><text fill="#000000" font-family="sans-serif" font-size="16.25" lengthAdjust="spacing" textLength="415" x="169.375" y="146.3806">Iniciates the request to remove a collaborator from a team</text><polygon fill="#A80036" points="831.875,185.3906,844.375,190.3906,831.875,195.3906,836.875,190.3906" style="stroke:#A80036;stroke-width:1.25;"/><line style="stroke:#A80036;stroke-width:1.25;" x1="649.375" x2="839.375" y1="190.3906" y2="190.3906"/><text fill="#000000" font-family="sans-serif" font-size="16.25" font-weight="bold" lengthAdjust="spacing" textLength="8.75" x="658.125" y="184.3201">2</text><text fill="#000000" font-family="sans-serif" font-size="16.25" lengthAdjust="spacing" textLength="55" x="671.875" y="184.3201">create()</text><rect fill="#FEFECE" filter="url(#f1n6aymgvzvv3j)" height="61.5234" style="stroke:#A80036;stroke-width:1.875;" width="242.5" x="846.875" y="162.4512"/><text fill="#000000" font-family="sans-serif" font-size="17.5" lengthAdjust="spacing" textLength="115" x="910.625" y="189.3677">&lt;&lt;aplication&gt;&gt;</text><text fill="#000000" font-family="sans-serif" font-size="17.5" lengthAdjust="spacing" textLength="225" x="855.625" y="211.3794">AddCollabToTeamController</text><rect fill="#FFFFFF" filter="url(#f1n6aymgvzvv3j)" height="53.3789" style="stroke:#000000;stroke-width:2.5;" width="250" x="843.125" y="242.7246"/><polygon fill="#EEEEEE" points="843.125,242.7246,920.625,242.7246,920.625,252.7246,908.125,265.2246,843.125,265.2246,843.125,242.7246" style="stroke:#000000;stroke-width:2.5;"/><text fill="#000000" font-family="sans-serif" font-size="16.25" font-weight="bold" lengthAdjust="spacing" textLength="21.25" x="859.375" y="262.0935">ref</text><text fill="#000000" font-family="sans-serif" font-size="16.25" lengthAdjust="spacing" textLength="153.75" x="893.75" y="287.0935">US-1-2052_SD_Repo</text><polygon fill="#A80036" points="1248.125,325.293,1260.625,330.293,1248.125,335.293,1253.125,330.293" style="stroke:#A80036;stroke-width:1.25;"/><line style="stroke:#A80036;stroke-width:1.25;" x1="976.875" x2="1255.625" y1="330.293" y2="330.293"/><text fill="#000000" font-family="sans-serif" font-size="16.25" font-weight="bold" lengthAdjust="spacing" textLength="8.75" x="985.625" y="324.2224">3</text><text fill="#000000" font-family="sans-serif" font-size="16.25" lengthAdjust="spacing" textLength="248.75" x="999.375" y="324.2224">m_oAuthz = authorizationService()</text><polygon fill="#A80036" points="949.375,400.7324,961.875,405.7324,949.375,410.7324,954.375,405.7324" style="stroke:#A80036;stroke-width:1.25;"/><line style="stroke:#A80036;stroke-width:1.25;" x1="649.375" x2="956.875" y1="405.7324" y2="405.7324"/><text fill="#000000" font-family="sans-serif" font-size="16.25" font-weight="bold" lengthAdjust="spacing" textLength="8.75" x="658.125" y="399.6619">4</text><text fill="#000000" font-family="sans-serif" font-size="16.25" lengthAdjust="spacing" textLength="127.5" x="671.875" y="399.6619">getCollaborators()</text><polygon fill="#A80036" points="1427.5,438.6719,1440,443.6719,1427.5,448.6719,1432.5,443.6719" style="stroke:#A80036;stroke-width:1.25;"/><line style="stroke:#A80036;stroke-width:1.25;" x1="976.875" x2="1435" y1="443.6719" y2="443.6719"/><text fill="#000000" font-family="sans-serif" font-size="16.25" font-weight="bold" lengthAdjust="spacing" textLength="8.75" x="985.625" y="437.6013">5</text><text fill="#000000" font-family="sans-serif" font-size="16.25" lengthAdjust="spacing" textLength="328.75" x="999.375" y="437.6013">ensureAuthenticatedUserHasAnyOf(role, role)</text><polygon fill="#A80036" points="1620.625,476.6113,1633.125,481.6113,1620.625,486.6113,1625.625,481.6113" style="stroke:#A80036;stroke-width:1.25;"/><line style="stroke:#A80036;stroke-width:1.25;" x1="976.875" x2="1628.125" y1="481.6113" y2="481.6113"/><text fill="#000000" font-family="sans-serif" font-size="16.25" font-weight="bold" lengthAdjust="spacing" textLength="8.75" x="985.625" y="475.5408">6</text><text fill="#000000" font-family="sans-serif" font-size="16.25" lengthAdjust="spacing" textLength="26.25" x="999.375" y="475.5408">all()</text><polygon fill="#A80036" points="990.625,514.5508,978.125,519.5508,990.625,524.5508,985.625,519.5508" style="stroke:#A80036;stroke-width:1.25;"/><line style="stroke:#A80036;stroke-width:1.25;stroke-dasharray:2.0,2.0;" x1="983.125" x2="1640.625" y1="519.5508" y2="519.5508"/><text fill="#000000" font-family="sans-serif" font-size="16.25" font-weight="bold" lengthAdjust="spacing" textLength="8.75" x="998.125" y="513.4802">7</text><text fill="#000000" font-family="sans-serif" font-size="16.25" lengthAdjust="spacing" textLength="67.5" x="1011.875" y="513.4802">collabSet</text><polygon fill="#A80036" points="663.125,552.4902,650.625,557.4902,663.125,562.4902,658.125,557.4902" style="stroke:#A80036;stroke-width:1.25;"/><line style="stroke:#A80036;stroke-width:1.25;stroke-dasharray:2.0,2.0;" x1="655.625" x2="969.375" y1="557.4902" y2="557.4902"/><text fill="#000000" font-family="sans-serif" font-size="16.25" font-weight="bold" lengthAdjust="spacing" textLength="8.75" x="670.625" y="551.4197">8</text><text fill="#000000" font-family="sans-serif" font-size="16.25" lengthAdjust="spacing" textLength="67.5" x="684.375" y="551.4197">collabSet</text><polygon fill="#A80036" points="160.625,590.4297,148.125,595.4297,160.625,600.4297,155.625,595.4297" style="stroke:#A80036;stroke-width:1.25;"/><line style="stroke:#A80036;stroke-width:1.25;stroke-dasharray:2.0,2.0;" x1="153.125" x2="635.625" y1="595.4297" y2="595.4297"/><text fill="#000000" font-family="sans-serif" font-size="16.25" font-weight="bold" lengthAdjust="spacing" textLength="8.75" x="168.125" y="589.3591">9</text><text fill="#000000" font-family="sans-serif" font-size="16.25" lengthAdjust="spacing" textLength="180" x="181.875" y="589.3591">Display collaborator's list</text><polygon fill="#A80036" points="621.875,628.3691,634.375,633.3691,621.875,638.3691,626.875,633.3691" style="stroke:#A80036;stroke-width:1.25;"/><line style="stroke:#A80036;stroke-width:1.25;" x1="146.875" x2="629.375" y1="633.3691" y2="633.3691"/><text fill="#000000" font-family="sans-serif" font-size="16.25" font-weight="bold" lengthAdjust="spacing" textLength="17.5" x="155.625" y="627.2986">10</text><text fill="#000000" font-family="sans-serif" font-size="16.25" lengthAdjust="spacing" textLength="237.5" x="178.125" y="627.2986">Selects the intended collaborator</text><polygon fill="#A80036" points="949.375,666.3086,961.875,671.3086,949.375,676.3086,954.375,671.3086" style="stroke:#A80036;stroke-width:1.25;"/><line style="stroke:#A80036;stroke-width:1.25;" x1="649.375" x2="956.875" y1="671.3086" y2="671.3086"/><text fill="#000000" font-family="sans-serif" font-size="16.25" font-weight="bold" lengthAdjust="spacing" textLength="17.5" x="658.125" y="665.238">11</text><text fill="#000000" font-family="sans-serif" font-size="16.25" lengthAdjust="spacing" textLength="81.25" x="680.625" y="665.238">getTeams()</text><polygon fill="#A80036" points="1427.5,704.248,1440,709.248,1427.5,714.248,1432.5,709.248" style="stroke:#A80036;stroke-width:1.25;"/><line style="stroke:#A80036;stroke-width:1.25;" x1="976.875" x2="1435" y1="709.248" y2="709.248"/><text fill="#000000" font-family="sans-serif" font-size="16.25" font-weight="bold" lengthAdjust="spacing" textLength="17.5" x="985.625" y="703.1775">12</text><text fill="#000000" font-family="sans-serif" font-size="16.25" lengthAdjust="spacing" textLength="328.75" x="1008.125" y="703.1775">ensureAuthenticatedUserHasAnyOf(role, role)</text><polygon fill="#A80036" points="1796.875,742.1875,1809.375,747.1875,1796.875,752.1875,1801.875,747.1875" style="stroke:#A80036;stroke-width:1.25;"/><line style="stroke:#A80036;stroke-width:1.25;" x1="976.875" x2="1804.375" y1="747.1875" y2="747.1875"/><text fill="#000000" font-family="sans-serif" font-size="16.25" font-weight="bold" lengthAdjust="spacing" textLength="17.5" x="985.625" y="741.1169">13</text><text fill="#000000" font-family="sans-serif" font-size="16.25" lengthAdjust="spacing" textLength="26.25" x="1008.125" y="741.1169">all()</text><polygon fill="#A80036" points="990.625,780.127,978.125,785.127,990.625,790.127,985.625,785.127" style="stroke:#A80036;stroke-width:1.25;"/><line style="stroke:#A80036;stroke-width:1.25;stroke-dasharray:2.0,2.0;" x1="983.125" x2="1816.875" y1="785.127" y2="785.127"/><text fill="#000000" font-family="sans-serif" font-size="16.25" font-weight="bold" lengthAdjust="spacing" textLength="17.5" x="998.125" y="779.0564">14</text><text fill="#000000" font-family="sans-serif" font-size="16.25" lengthAdjust="spacing" textLength="61.25" x="1020.625" y="779.0564">teamSet</text><polygon fill="#A80036" points="663.125,818.0664,650.625,823.0664,663.125,828.0664,658.125,823.0664" style="stroke:#A80036;stroke-width:1.25;"/><line style="stroke:#A80036;stroke-width:1.25;stroke-dasharray:2.0,2.0;" x1="655.625" x2="969.375" y1="823.0664" y2="823.0664"/><text fill="#000000" font-family="sans-serif" font-size="16.25" font-weight="bold" lengthAdjust="spacing" textLength="17.5" x="670.625" y="816.9958">15</text><text fill="#000000" font-family="sans-serif" font-size="16.25" lengthAdjust="spacing" textLength="61.25" x="693.125" y="816.9958">teamSet</text><polygon fill="#A80036" points="160.625,856.0059,148.125,861.0059,160.625,866.0059,155.625,861.0059" style="stroke:#A80036;stroke-width:1.25;"/><line style="stroke:#A80036;stroke-width:1.25;stroke-dasharray:2.0,2.0;" x1="153.125" x2="635.625" y1="861.0059" y2="861.0059"/><text fill="#000000" font-family="sans-serif" font-size="16.25" font-weight="bold" lengthAdjust="spacing" textLength="17.5" x="168.125" y="854.9353">16</text><text fill="#000000" font-family="sans-serif" font-size="16.25" lengthAdjust="spacing" textLength="232.5" x="190.625" y="854.9353">Display collaborator's team's list</text><polygon fill="#A80036" points="621.875,893.9453,634.375,898.9453,621.875,903.9453,626.875,898.9453" style="stroke:#A80036;stroke-width:1.25;"/><line style="stroke:#A80036;stroke-width:1.25;" x1="146.875" x2="629.375" y1="898.9453" y2="898.9453"/><text fill="#000000" font-family="sans-serif" font-size="16.25" font-weight="bold" lengthAdjust="spacing" textLength="17.5" x="155.625" y="892.8748">17</text><text fill="#000000" font-family="sans-serif" font-size="16.25" lengthAdjust="spacing" textLength="193.75" x="178.125" y="892.8748">Selects the intended Team</text><polygon fill="#A80036" points="949.375,931.8848,961.875,936.8848,949.375,941.8848,954.375,936.8848" style="stroke:#A80036;stroke-width:1.25;"/><line style="stroke:#A80036;stroke-width:1.25;" x1="649.375" x2="956.875" y1="936.8848" y2="936.8848"/><text fill="#000000" font-family="sans-serif" font-size="16.25" font-weight="bold" lengthAdjust="spacing" textLength="17.5" x="658.125" y="930.8142">18</text><text fill="#000000" font-family="sans-serif" font-size="16.25" lengthAdjust="spacing" textLength="268.75" x="680.625" y="930.8142">addCollaboratorToTeam(collab, team)</text><polygon fill="#A80036" points="1421.25,969.8242,1433.75,974.8242,1421.25,979.8242,1426.25,974.8242" style="stroke:#A80036;stroke-width:1.25;"/><line style="stroke:#A80036;stroke-width:1.25;" x1="976.875" x2="1428.75" y1="974.8242" y2="974.8242"/><text fill="#000000" font-family="sans-serif" font-size="16.25" font-weight="bold" lengthAdjust="spacing" textLength="17.5" x="985.625" y="968.7537">19</text><text fill="#000000" font-family="sans-serif" font-size="16.25" lengthAdjust="spacing" textLength="328.75" x="1008.125" y="968.7537">ensureAuthenticatedUserHasAnyOf(role, role)</text><polygon fill="#A80036" points="1620.625,1007.7637,1633.125,1012.7637,1620.625,1017.7637,1625.625,1012.7637" style="stroke:#A80036;stroke-width:1.25;"/><line style="stroke:#A80036;stroke-width:1.25;" x1="976.875" x2="1628.125" y1="1012.7637" y2="1012.7637"/><text fill="#000000" font-family="sans-serif" font-size="16.25" font-weight="bold" lengthAdjust="spacing" textLength="17.5" x="985.625" y="1006.6931">20</text><text fill="#000000" font-family="sans-serif" font-size="16.25" lengthAdjust="spacing" textLength="85" x="1008.125" y="1006.6931">save(collab)</text><polygon fill="#A80036" points="990.625,1045.7031,978.125,1050.7031,990.625,1055.7031,985.625,1050.7031" style="stroke:#A80036;stroke-width:1.25;"/><line style="stroke:#A80036;stroke-width:1.25;stroke-dasharray:2.0,2.0;" x1="983.125" x2="1640.625" y1="1050.7031" y2="1050.7031"/><text fill="#000000" font-family="sans-serif" font-size="16.25" font-weight="bold" lengthAdjust="spacing" textLength="17.5" x="998.125" y="1044.6326">21</text><text fill="#000000" font-family="sans-serif" font-size="16.25" lengthAdjust="spacing" textLength="42.5" x="1020.625" y="1044.6326">collab</text><polygon fill="#A80036" points="663.125,1083.6426,650.625,1088.6426,663.125,1093.6426,658.125,1088.6426" style="stroke:#A80036;stroke-width:1.25;"/><line style="stroke:#A80036;stroke-width:1.25;stroke-dasharray:2.0,2.0;" x1="655.625" x2="969.375" y1="1088.6426" y2="1088.6426"/><text fill="#000000" font-family="sans-serif" font-size="16.25" font-weight="bold" lengthAdjust="spacing" textLength="17.5" x="670.625" y="1082.572">22</text><text fill="#000000" font-family="sans-serif" font-size="16.25" lengthAdjust="spacing" textLength="42.5" x="693.125" y="1082.572">collab</text><polygon fill="#A80036" points="160.625,1121.582,148.125,1126.582,160.625,1131.582,155.625,1126.582" style="stroke:#A80036;stroke-width:1.25;"/><line style="stroke:#A80036;stroke-width:1.25;stroke-dasharray:2.0,2.0;" x1="153.125" x2="635.625" y1="1126.582" y2="1126.582"/><text fill="#000000" font-family="sans-serif" font-size="16.25" font-weight="bold" lengthAdjust="spacing" textLength="17.5" x="168.125" y="1120.5115">23</text><text fill="#000000" font-family="sans-serif" font-size="16.25" lengthAdjust="spacing" textLength="437.5" x="190.625" y="1120.5115">Validates, presents the information and asks for confirmation</text><polygon fill="#A80036" points="621.875,1159.5215,634.375,1164.5215,621.875,1169.5215,626.875,1164.5215" style="stroke:#A80036;stroke-width:1.25;"/><line style="stroke:#A80036;stroke-width:1.25;" x1="146.875" x2="629.375" y1="1164.5215" y2="1164.5215"/><text fill="#000000" font-family="sans-serif" font-size="16.25" font-weight="bold" lengthAdjust="spacing" textLength="17.5" x="155.625" y="1158.4509">24</text><text fill="#000000" font-family="sans-serif" font-size="16.25" lengthAdjust="spacing" textLength="63.75" x="178.125" y="1158.4509">Confirms</text><polygon fill="#A80036" points="154.375,1197.4609,141.875,1202.4609,154.375,1207.4609,149.375,1202.4609" style="stroke:#A80036;stroke-width:1.25;"/><line style="stroke:#A80036;stroke-width:1.25;stroke-dasharray:2.0,2.0;" x1="146.875" x2="641.875" y1="1202.4609" y2="1202.4609"/><text fill="#000000" font-family="sans-serif" font-size="16.25" font-weight="bold" lengthAdjust="spacing" textLength="17.5" x="161.875" y="1196.3904">25</text><text fill="#000000" font-family="sans-serif" font-size="16.25" lengthAdjust="spacing" textLength="262.5" x="184.375" y="1196.3904">Informs the success of the operation</text><!--MD5=[b5ca23cc3f48630c72c136e16c2f0389]
@startuml
autonumber
hide footbox

actor "Human Resource Representative" as HRR

participant "<<presentation>>\nAddCollabToTeamUI" as UI
participant "<<aplication>>\nAddCollabToTeamController" as CTRL
participant "<<aplication>>\nAuthzRegistry" as AUTHR
participant "<<aplication>>\nAuthorizationService" as AUTH
database "<<repository>>\nCollaboratorRepository" as CR
database "<<repository>>\nTeamRepository" as TR

activate HRR
HRR -> UI : Iniciates the request to remove a collaborator from a team

activate UI
UI -> CTRL** : create()

activate CTRL
ref over CTRL
US-1-2052_SD_Repo
end ref

CTRL -> AUTHR : m_oAuthz = authorizationService()
activate AUTHR
deactivate CTRL
deactivate AUTHR

UI -> CTRL : getCollaborators()

activate CTRL
CTRL -> AUTH : ensureAuthenticatedUserHasAnyOf(role, role)
CTRL -> CR : all()

activate CR
CR - -> CTRL : collabSet
deactivate CR

CTRL - -> UI : collabSet
deactivate CTRL

UI - -> HRR : Display collaborator's list

HRR -> UI : Selects the intended collaborator

UI -> CTRL : getTeams()

activate CTRL
CTRL -> AUTH : ensureAuthenticatedUserHasAnyOf(role, role)
CTRL -> TR : all()

activate TR
TR - -> CTRL : teamSet
deactivate TR

CTRL - -> UI : teamSet
deactivate CTRL

UI - -> HRR : Display collaborator's team's list

HRR -> UI : Selects the intended Team

UI -> CTRL : addCollaboratorToTeam(collab, team)


activate CTRL
CTRL -> AUTH : ensureAuthenticatedUserHasAnyOf(role, role)
activate AUTH
CTRL -> CR : save(collab)
deactivate AUTH
activate CR
CR - -> CTRL : collab
deactivate CR


CTRL - -> UI : collab
deactivate CTRL



UI - -> HRR : Validates, presents the information and asks for confirmation

HRR -> UI : Confirms

UI - -> HRR : Informs the success of the operation
deactivate UI
deactivate HRR
@enduml

PlantUML version 1.2021.5(Sun Apr 25 12:20:28 BST 2021)
(GPL source distribution)
Java Runtime: OpenJDK Runtime Environment
JVM: OpenJDK 64-Bit Server VM
Default Encoding: Cp1252
Language: pt
Country: PT
--></g></svg>