<?xml version="1.0" encoding="UTF-8" standalone="no"?><svg xmlns="http://www.w3.org/2000/svg" xmlns:xlink="http://www.w3.org/1999/xlink" contentScriptType="application/ecmascript" contentStyleType="text/css" height="1195px" preserveAspectRatio="none" style="width:1891px;height:1195px;" version="1.1" viewBox="0 0 1891 1195" width="1891.25px" zoomAndPan="magnify"><defs><filter height="300%" id="fwddvfa6bfam3" width="300%" x="-1" y="-1"><feGaussianBlur result="blurOut" stdDeviation="2.5"/><feColorMatrix in="blurOut" result="blurOut2" type="matrix" values="0 0 0 0 0 0 0 0 0 0 0 0 0 0 0 0 0 0 .4 0"/><feOffset dx="5.0" dy="5.0" in="blurOut2" result="blurOut3"/><feBlend in="SourceGraphic" in2="blurOut3" mode="normal"/></filter></defs><g><rect fill="#FFFFFF" filter="url(#fwddvfa6bfam3)" height="1040.0098" style="stroke:#A80036;stroke-width:1.25;" width="12.5" x="134.375" y="124.5117"/><rect fill="#FFFFFF" filter="url(#fwddvfa6bfam3)" height="1012.0703" style="stroke:#A80036;stroke-width:1.25;" width="12.5" x="636.875" y="152.4512"/><rect fill="#FFFFFF" filter="url(#fwddvfa6bfam3)" height="164.9023" style="stroke:#A80036;stroke-width:1.25;" width="12.5" x="968.125" y="202.8906"/><rect fill="#FFFFFF" filter="url(#fwddvfa6bfam3)" height="151.7578" style="stroke:#A80036;stroke-width:1.25;" width="12.5" x="968.125" y="405.7324"/><rect fill="#FFFFFF" filter="url(#fwddvfa6bfam3)" height="151.7578" style="stroke:#A80036;stroke-width:1.25;" width="12.5" x="968.125" y="671.3086"/><rect fill="#FFFFFF" filter="url(#fwddvfa6bfam3)" height="113.8184" style="stroke:#A80036;stroke-width:1.25;" width="12.5" x="968.125" y="936.8848"/><rect fill="#FFFFFF" filter="url(#fwddvfa6bfam3)" height="37.5" style="stroke:#A80036;stroke-width:1.25;" width="12.5" x="1266.875" y="330.293"/><rect fill="#FFFFFF" filter="url(#fwddvfa6bfam3)" height="37.9395" style="stroke:#A80036;stroke-width:1.25;" width="12.5" x="1639.375" y="481.6113"/><rect fill="#FFFFFF" filter="url(#fwddvfa6bfam3)" height="37.9395" style="stroke:#A80036;stroke-width:1.25;" width="12.5" x="1639.375" y="974.8242"/><rect fill="#FFFFFF" filter="url(#fwddvfa6bfam3)" height="37.9395" style="stroke:#A80036;stroke-width:1.25;" width="12.5" x="1815.625" y="747.1875"/><line style="stroke:#A80036;stroke-width:1.25;stroke-dasharray:5.0,5.0;" x1="140" x2="140" y1="112.0117" y2="1187.0215"/><line style="stroke:#A80036;stroke-width:1.25;stroke-dasharray:5.0,5.0;" x1="642.5" x2="642.5" y1="112.0117" y2="1187.0215"/><line style="stroke:#A80036;stroke-width:1.25;stroke-dasharray:5.0,5.0;" x1="973.75" x2="973.75" y1="215.0879" y2="1187.0215"/><line style="stroke:#A80036;stroke-width:1.25;stroke-dasharray:5.0,5.0;" x1="1273.125" x2="1273.125" y1="112.0117" y2="1187.0215"/><line style="stroke:#A80036;stroke-width:1.25;stroke-dasharray:5.0,5.0;" x1="1445.625" x2="1445.625" y1="112.0117" y2="1187.0215"/><line style="stroke:#A80036;stroke-width:1.25;stroke-dasharray:5.0,5.0;" x1="1645.625" x2="1645.625" y1="112.0117" y2="1187.0215"/><line style="stroke:#A80036;stroke-width:1.25;stroke-dasharray:5.0,5.0;" x1="1821.875" x2="1821.875" y1="112.0117" y2="1187.0215"/><text fill="#000000" font-family="sans-serif" font-size="17.5" lengthAdjust="spacing" textLength="261.25" x="6.25" y="108.1665">Human Resource Representative</text><ellipse cx="140.625" cy="18.75" fill="#FEFECE" filter="url(#fwddvfa6bfam3)" rx="10" ry="10" style="stroke:#A80036;stroke-width:2.5;"/><path d="M140.625,28.75 L140.625,62.5 M124.375,38.75 L156.875,38.75 M140.625,62.5 L124.375,81.25 M140.625,62.5 L156.875,81.25 " fill="none" filter="url(#fwddvfa6bfam3)" style="stroke:#A80036;stroke-width:2.5;"/><rect fill="#FEFECE" filter="url(#fwddvfa6bfam3)" height="61.5234" style="stroke:#A80036;stroke-width:1.875;" width="233.75" x="523.75" y="44.2383"/><text fill="#000000" font-family="sans-serif" font-size="17.5" lengthAdjust="spacing" textLength="138.75" x="571.25" y="71.1548">&lt;&lt;presentation&gt;&gt;</text><text fill="#000000" font-family="sans-serif" font-size="17.5" lengthAdjust="spacing" textLength="216.25" x="532.5" y="93.1665">RemoveCollabFromTeamUI</text><rect fill="#FEFECE" filter="url(#fwddvfa6bfam3)" height="61.5234" style="stroke:#A80036;stroke-width:1.875;" width="132.5" x="1204.375" y="44.2383"/><text fill="#000000" font-family="sans-serif" font-size="17.5" lengthAdjust="spacing" textLength="115" x="1213.125" y="71.1548">&lt;&lt;aplication&gt;&gt;</text><text fill="#000000" font-family="sans-serif" font-size="17.5" lengthAdjust="spacing" textLength="108.75" x="1216.25" y="93.1665">AuthzRegistry</text><rect fill="#FEFECE" filter="url(#fwddvfa6bfam3)" height="61.5234" style="stroke:#A80036;stroke-width:1.875;" width="178.75" x="1354.375" y="44.2383"/><text fill="#000000" font-family="sans-serif" font-size="17.5" lengthAdjust="spacing" textLength="115" x="1386.25" y="71.1548">&lt;&lt;aplication&gt;&gt;</text><text fill="#000000" font-family="sans-serif" font-size="17.5" lengthAdjust="spacing" textLength="161.25" x="1363.125" y="93.1665">AuthorizationService</text><text fill="#000000" font-family="sans-serif" font-size="17.5" lengthAdjust="spacing" textLength="118.75" x="1582.5" y="86.1548">&lt;&lt;repository&gt;&gt;</text><text fill="#000000" font-family="sans-serif" font-size="17.5" lengthAdjust="spacing" textLength="182.5" x="1550.625" y="108.1665">CollaboratorRepository</text><path d="M1623.125,22.9883 C1623.125,10.4883 1645.625,10.4883 1645.625,10.4883 C1645.625,10.4883 1668.125,10.4883 1668.125,22.9883 L1668.125,55.4883 C1668.125,67.9883 1645.625,67.9883 1645.625,67.9883 C1645.625,67.9883 1623.125,67.9883 1623.125,55.4883 L1623.125,22.9883 " fill="#FEFECE" filter="url(#fwddvfa6bfam3)" style="stroke:#000000;stroke-width:1.875;"/><path d="M1623.125,22.9883 C1623.125,35.4883 1645.625,35.4883 1645.625,35.4883 C1645.625,35.4883 1668.125,35.4883 1668.125,22.9883 " fill="none" style="stroke:#000000;stroke-width:1.875;"/><text fill="#000000" font-family="sans-serif" font-size="17.5" lengthAdjust="spacing" textLength="118.75" x="1758.75" y="86.1548">&lt;&lt;repository&gt;&gt;</text><text fill="#000000" font-family="sans-serif" font-size="17.5" lengthAdjust="spacing" textLength="130" x="1753.125" y="108.1665">TeamRepository</text><path d="M1799.375,22.9883 C1799.375,10.4883 1821.875,10.4883 1821.875,10.4883 C1821.875,10.4883 1844.375,10.4883 1844.375,22.9883 L1844.375,55.4883 C1844.375,67.9883 1821.875,67.9883 1821.875,67.9883 C1821.875,67.9883 1799.375,67.9883 1799.375,55.4883 L1799.375,22.9883 " fill="#FEFECE" filter="url(#fwddvfa6bfam3)" style="stroke:#000000;stroke-width:1.875;"/><path d="M1799.375,22.9883 C1799.375,35.4883 1821.875,35.4883 1821.875,35.4883 C1821.875,35.4883 1844.375,35.4883 1844.375,22.9883 " fill="none" style="stroke:#000000;stroke-width:1.875;"/><rect fill="#FFFFFF" filter="url(#fwddvfa6bfam3)" height="1040.0098" style="stroke:#A80036;stroke-width:1.25;" width="12.5" x="134.375" y="124.5117"/><rect fill="#FFFFFF" filter="url(#fwddvfa6bfam3)" height="1012.0703" style="stroke:#A80036;stroke-width:1.25;" width="12.5" x="636.875" y="152.4512"/><rect fill="#FFFFFF" filter="url(#fwddvfa6bfam3)" height="164.9023" style="stroke:#A80036;stroke-width:1.25;" width="12.5" x="968.125" y="202.8906"/><rect fill="#FFFFFF" filter="url(#fwddvfa6bfam3)" height="151.7578" style="stroke:#A80036;stroke-width:1.25;" width="12.5" x="968.125" y="405.7324"/><rect fill="#FFFFFF" filter="url(#fwddvfa6bfam3)" height="151.7578" style="stroke:#A80036;stroke-width:1.25;" width="12.5" x="968.125" y="671.3086"/><rect fill="#FFFFFF" filter="url(#fwddvfa6bfam3)" height="113.8184" style="stroke:#A80036;stroke-width:1.25;" width="12.5" x="968.125" y="936.8848"/><rect fill="#FFFFFF" filter="url(#fwddvfa6bfam3)" height="37.5" style="stroke:#A80036;stroke-width:1.25;" width="12.5" x="1266.875" y="330.293"/><rect fill="#FFFFFF" filter="url(#fwddvfa6bfam3)" height="37.9395" style="stroke:#A80036;stroke-width:1.25;" width="12.5" x="1639.375" y="481.6113"/><rect fill="#FFFFFF" filter="url(#fwddvfa6bfam3)" height="37.9395" style="stroke:#A80036;stroke-width:1.25;" width="12.5" x="1639.375" y="974.8242"/><rect fill="#FFFFFF" filter="url(#fwddvfa6bfam3)" height="37.9395" style="stroke:#A80036;stroke-width:1.25;" width="12.5" x="1815.625" y="747.1875"/><polygon fill="#A80036" points="621.875,147.4512,634.375,152.4512,621.875,157.4512,626.875,152.4512" style="stroke:#A80036;stroke-width:1.25;"/><line style="stroke:#A80036;stroke-width:1.25;" x1="146.875" x2="629.375" y1="152.4512" y2="152.4512"/><text fill="#000000" font-family="sans-serif" font-size="16.25" font-weight="bold" lengthAdjust="spacing" textLength="8.75" x="155.625" y="146.3806">1</text><text fill="#000000" font-family="sans-serif" font-size="16.25" lengthAdjust="spacing" textLength="415" x="169.375" y="146.3806">Iniciates the request to remove a collaborator from a team</text><polygon fill="#A80036" points="808.75,185.3906,821.25,190.3906,808.75,195.3906,813.75,190.3906" style="stroke:#A80036;stroke-width:1.25;"/><line style="stroke:#A80036;stroke-width:1.25;" x1="649.375" x2="816.25" y1="190.3906" y2="190.3906"/><text fill="#000000" font-family="sans-serif" font-size="16.25" font-weight="bold" lengthAdjust="spacing" textLength="8.75" x="658.125" y="184.3201">2</text><text fill="#000000" font-family="sans-serif" font-size="16.25" lengthAdjust="spacing" textLength="55" x="671.875" y="184.3201">create()</text><rect fill="#FEFECE" filter="url(#fwddvfa6bfam3)" height="61.5234" style="stroke:#A80036;stroke-width:1.875;" width="296.25" x="823.75" y="162.4512"/><text fill="#000000" font-family="sans-serif" font-size="17.5" lengthAdjust="spacing" textLength="115" x="914.375" y="189.3677">&lt;&lt;aplication&gt;&gt;</text><text fill="#000000" font-family="sans-serif" font-size="17.5" lengthAdjust="spacing" textLength="278.75" x="832.5" y="211.3794">RemoveCollabFromTeamController</text><rect fill="#FFFFFF" filter="url(#fwddvfa6bfam3)" height="53.3789" style="stroke:#000000;stroke-width:2.5;" width="303.75" x="820" y="242.7246"/><polygon fill="#EEEEEE" points="820,242.7246,897.5,242.7246,897.5,252.7246,885,265.2246,820,265.2246,820,242.7246" style="stroke:#000000;stroke-width:2.5;"/><text fill="#000000" font-family="sans-serif" font-size="16.25" font-weight="bold" lengthAdjust="spacing" textLength="21.25" x="836.25" y="262.0935">ref</text><text fill="#000000" font-family="sans-serif" font-size="16.25" lengthAdjust="spacing" textLength="153.75" x="897.5" y="287.0935">US-1-2052_SD_Repo</text><polygon fill="#A80036" points="1251.875,325.293,1264.375,330.293,1251.875,335.293,1256.875,330.293" style="stroke:#A80036;stroke-width:1.25;"/><line style="stroke:#A80036;stroke-width:1.25;" x1="980.625" x2="1259.375" y1="330.293" y2="330.293"/><text fill="#000000" font-family="sans-serif" font-size="16.25" font-weight="bold" lengthAdjust="spacing" textLength="8.75" x="989.375" y="324.2224">3</text><text fill="#000000" font-family="sans-serif" font-size="16.25" lengthAdjust="spacing" textLength="248.75" x="1003.125" y="324.2224">m_oAuthz = authorizationService()</text><polygon fill="#A80036" points="953.125,400.7324,965.625,405.7324,953.125,410.7324,958.125,405.7324" style="stroke:#A80036;stroke-width:1.25;"/><line style="stroke:#A80036;stroke-width:1.25;" x1="649.375" x2="960.625" y1="405.7324" y2="405.7324"/><text fill="#000000" font-family="sans-serif" font-size="16.25" font-weight="bold" lengthAdjust="spacing" textLength="8.75" x="658.125" y="399.6619">4</text><text fill="#000000" font-family="sans-serif" font-size="16.25" lengthAdjust="spacing" textLength="127.5" x="671.875" y="399.6619">getCollaborators()</text><polygon fill="#A80036" points="1431.25,438.6719,1443.75,443.6719,1431.25,448.6719,1436.25,443.6719" style="stroke:#A80036;stroke-width:1.25;"/><line style="stroke:#A80036;stroke-width:1.25;" x1="980.625" x2="1438.75" y1="443.6719" y2="443.6719"/><text fill="#000000" font-family="sans-serif" font-size="16.25" font-weight="bold" lengthAdjust="spacing" textLength="8.75" x="989.375" y="437.6013">5</text><text fill="#000000" font-family="sans-serif" font-size="16.25" lengthAdjust="spacing" textLength="328.75" x="1003.125" y="437.6013">ensureAuthenticatedUserHasAnyOf(role, role)</text><polygon fill="#A80036" points="1624.375,476.6113,1636.875,481.6113,1624.375,486.6113,1629.375,481.6113" style="stroke:#A80036;stroke-width:1.25;"/><line style="stroke:#A80036;stroke-width:1.25;" x1="980.625" x2="1631.875" y1="481.6113" y2="481.6113"/><text fill="#000000" font-family="sans-serif" font-size="16.25" font-weight="bold" lengthAdjust="spacing" textLength="8.75" x="989.375" y="475.5408">6</text><text fill="#000000" font-family="sans-serif" font-size="16.25" lengthAdjust="spacing" textLength="26.25" x="1003.125" y="475.5408">all()</text><polygon fill="#A80036" points="994.375,514.5508,981.875,519.5508,994.375,524.5508,989.375,519.5508" style="stroke:#A80036;stroke-width:1.25;"/><line style="stroke:#A80036;stroke-width:1.25;stroke-dasharray:2.0,2.0;" x1="986.875" x2="1644.375" y1="519.5508" y2="519.5508"/><text fill="#000000" font-family="sans-serif" font-size="16.25" font-weight="bold" lengthAdjust="spacing" textLength="8.75" x="1001.875" y="513.4802">7</text><text fill="#000000" font-family="sans-serif" font-size="16.25" lengthAdjust="spacing" textLength="67.5" x="1015.625" y="513.4802">collabSet</text><polygon fill="#A80036" points="663.125,552.4902,650.625,557.4902,663.125,562.4902,658.125,557.4902" style="stroke:#A80036;stroke-width:1.25;"/><line style="stroke:#A80036;stroke-width:1.25;stroke-dasharray:2.0,2.0;" x1="655.625" x2="973.125" y1="557.4902" y2="557.4902"/><text fill="#000000" font-family="sans-serif" font-size="16.25" font-weight="bold" lengthAdjust="spacing" textLength="8.75" x="670.625" y="551.4197">8</text><text fill="#000000" font-family="sans-serif" font-size="16.25" lengthAdjust="spacing" textLength="67.5" x="684.375" y="551.4197">collabSet</text><polygon fill="#A80036" points="160.625,590.4297,148.125,595.4297,160.625,600.4297,155.625,595.4297" style="stroke:#A80036;stroke-width:1.25;"/><line style="stroke:#A80036;stroke-width:1.25;stroke-dasharray:2.0,2.0;" x1="153.125" x2="635.625" y1="595.4297" y2="595.4297"/><text fill="#000000" font-family="sans-serif" font-size="16.25" font-weight="bold" lengthAdjust="spacing" textLength="8.75" x="168.125" y="589.3591">9</text><text fill="#000000" font-family="sans-serif" font-size="16.25" lengthAdjust="spacing" textLength="180" x="181.875" y="589.3591">Display collaborator's list</text><polygon fill="#A80036" points="621.875,628.3691,634.375,633.3691,621.875,638.3691,626.875,633.3691" style="stroke:#A80036;stroke-width:1.25;"/><line style="stroke:#A80036;stroke-width:1.25;" x1="146.875" x2="629.375" y1="633.3691" y2="633.3691"/><text fill="#000000" font-family="sans-serif" font-size="16.25" font-weight="bold" lengthAdjust="spacing" textLength="17.5" x="155.625" y="627.2986">10</text><text fill="#000000" font-family="sans-serif" font-size="16.25" lengthAdjust="spacing" textLength="237.5" x="178.125" y="627.2986">Selects the intended collaborator</text><polygon fill="#A80036" points="953.125,666.3086,965.625,671.3086,953.125,676.3086,958.125,671.3086" style="stroke:#A80036;stroke-width:1.25;"/><line style="stroke:#A80036;stroke-width:1.25;" x1="649.375" x2="960.625" y1="671.3086" y2="671.3086"/><text fill="#000000" font-family="sans-serif" font-size="16.25" font-weight="bold" lengthAdjust="spacing" textLength="17.5" x="658.125" y="665.238">11</text><text fill="#000000" font-family="sans-serif" font-size="16.25" lengthAdjust="spacing" textLength="206.25" x="680.625" y="665.238">getTeamsFromCollab(collab)</text><polygon fill="#A80036" points="1431.25,704.248,1443.75,709.248,1431.25,714.248,1436.25,709.248" style="stroke:#A80036;stroke-width:1.25;"/><line style="stroke:#A80036;stroke-width:1.25;" x1="980.625" x2="1438.75" y1="709.248" y2="709.248"/><text fill="#000000" font-family="sans-serif" font-size="16.25" font-weight="bold" lengthAdjust="spacing" textLength="17.5" x="989.375" y="703.1775">12</text><text fill="#000000" font-family="sans-serif" font-size="16.25" lengthAdjust="spacing" textLength="328.75" x="1011.875" y="703.1775">ensureAuthenticatedUserHasAnyOf(role, role)</text><polygon fill="#A80036" points="1800.625,742.1875,1813.125,747.1875,1800.625,752.1875,1805.625,747.1875" style="stroke:#A80036;stroke-width:1.25;"/><line style="stroke:#A80036;stroke-width:1.25;" x1="980.625" x2="1808.125" y1="747.1875" y2="747.1875"/><text fill="#000000" font-family="sans-serif" font-size="16.25" font-weight="bold" lengthAdjust="spacing" textLength="17.5" x="989.375" y="741.1169">13</text><text fill="#000000" font-family="sans-serif" font-size="16.25" lengthAdjust="spacing" textLength="26.25" x="1011.875" y="741.1169">all()</text><polygon fill="#A80036" points="994.375,780.127,981.875,785.127,994.375,790.127,989.375,785.127" style="stroke:#A80036;stroke-width:1.25;"/><line style="stroke:#A80036;stroke-width:1.25;stroke-dasharray:2.0,2.0;" x1="986.875" x2="1820.625" y1="785.127" y2="785.127"/><text fill="#000000" font-family="sans-serif" font-size="16.25" font-weight="bold" lengthAdjust="spacing" textLength="17.5" x="1001.875" y="779.0564">14</text><text fill="#000000" font-family="sans-serif" font-size="16.25" lengthAdjust="spacing" textLength="61.25" x="1024.375" y="779.0564">teamSet</text><polygon fill="#A80036" points="663.125,818.0664,650.625,823.0664,663.125,828.0664,658.125,823.0664" style="stroke:#A80036;stroke-width:1.25;"/><line style="stroke:#A80036;stroke-width:1.25;stroke-dasharray:2.0,2.0;" x1="655.625" x2="973.125" y1="823.0664" y2="823.0664"/><text fill="#000000" font-family="sans-serif" font-size="16.25" font-weight="bold" lengthAdjust="spacing" textLength="17.5" x="670.625" y="816.9958">15</text><text fill="#000000" font-family="sans-serif" font-size="16.25" lengthAdjust="spacing" textLength="61.25" x="693.125" y="816.9958">teamSet</text><polygon fill="#A80036" points="160.625,856.0059,148.125,861.0059,160.625,866.0059,155.625,861.0059" style="stroke:#A80036;stroke-width:1.25;"/><line style="stroke:#A80036;stroke-width:1.25;stroke-dasharray:2.0,2.0;" x1="153.125" x2="635.625" y1="861.0059" y2="861.0059"/><text fill="#000000" font-family="sans-serif" font-size="16.25" font-weight="bold" lengthAdjust="spacing" textLength="17.5" x="168.125" y="854.9353">16</text><text fill="#000000" font-family="sans-serif" font-size="16.25" lengthAdjust="spacing" textLength="132.5" x="190.625" y="854.9353">Display team's list</text><polygon fill="#A80036" points="621.875,893.9453,634.375,898.9453,621.875,903.9453,626.875,898.9453" style="stroke:#A80036;stroke-width:1.25;"/><line style="stroke:#A80036;stroke-width:1.25;" x1="146.875" x2="629.375" y1="898.9453" y2="898.9453"/><text fill="#000000" font-family="sans-serif" font-size="16.25" font-weight="bold" lengthAdjust="spacing" textLength="17.5" x="155.625" y="892.8748">17</text><text fill="#000000" font-family="sans-serif" font-size="16.25" lengthAdjust="spacing" textLength="193.75" x="178.125" y="892.8748">Selects the intended Team</text><polygon fill="#A80036" points="953.125,931.8848,965.625,936.8848,953.125,941.8848,958.125,936.8848" style="stroke:#A80036;stroke-width:1.25;"/><line style="stroke:#A80036;stroke-width:1.25;" x1="649.375" x2="960.625" y1="936.8848" y2="936.8848"/><text fill="#000000" font-family="sans-serif" font-size="16.25" font-weight="bold" lengthAdjust="spacing" textLength="17.5" x="658.125" y="930.8142">18</text><text fill="#000000" font-family="sans-serif" font-size="16.25" lengthAdjust="spacing" textLength="272.5" x="680.625" y="930.8142">removeCollabFromTeam(collab, team)</text><polygon fill="#A80036" points="1624.375,969.8242,1636.875,974.8242,1624.375,979.8242,1629.375,974.8242" style="stroke:#A80036;stroke-width:1.25;"/><line style="stroke:#A80036;stroke-width:1.25;" x1="980.625" x2="1631.875" y1="974.8242" y2="974.8242"/><text fill="#000000" font-family="sans-serif" font-size="16.25" font-weight="bold" lengthAdjust="spacing" textLength="17.5" x="989.375" y="968.7537">19</text><text fill="#000000" font-family="sans-serif" font-size="16.25" lengthAdjust="spacing" textLength="272.5" x="1011.875" y="968.7537">removeCollabFromTeam(collab, team)</text><polygon fill="#A80036" points="994.375,1007.7637,981.875,1012.7637,994.375,1017.7637,989.375,1012.7637" style="stroke:#A80036;stroke-width:1.25;"/><line style="stroke:#A80036;stroke-width:1.25;stroke-dasharray:2.0,2.0;" x1="986.875" x2="1644.375" y1="1012.7637" y2="1012.7637"/><text fill="#000000" font-family="sans-serif" font-size="16.25" font-weight="bold" lengthAdjust="spacing" textLength="17.5" x="1001.875" y="1006.6931">20</text><text fill="#000000" font-family="sans-serif" font-size="16.25" lengthAdjust="spacing" textLength="42.5" x="1024.375" y="1006.6931">collab</text><polygon fill="#A80036" points="663.125,1045.7031,650.625,1050.7031,663.125,1055.7031,658.125,1050.7031" style="stroke:#A80036;stroke-width:1.25;"/><line style="stroke:#A80036;stroke-width:1.25;stroke-dasharray:2.0,2.0;" x1="655.625" x2="973.125" y1="1050.7031" y2="1050.7031"/><text fill="#000000" font-family="sans-serif" font-size="16.25" font-weight="bold" lengthAdjust="spacing" textLength="17.5" x="670.625" y="1044.6326">21</text><text fill="#000000" font-family="sans-serif" font-size="16.25" lengthAdjust="spacing" textLength="42.5" x="693.125" y="1044.6326">collab</text><polygon fill="#A80036" points="160.625,1083.6426,148.125,1088.6426,160.625,1093.6426,155.625,1088.6426" style="stroke:#A80036;stroke-width:1.25;"/><line style="stroke:#A80036;stroke-width:1.25;stroke-dasharray:2.0,2.0;" x1="153.125" x2="635.625" y1="1088.6426" y2="1088.6426"/><text fill="#000000" font-family="sans-serif" font-size="16.25" font-weight="bold" lengthAdjust="spacing" textLength="17.5" x="168.125" y="1082.572">22</text><text fill="#000000" font-family="sans-serif" font-size="16.25" lengthAdjust="spacing" textLength="437.5" x="190.625" y="1082.572">Validates, presents the information and asks for confirmation</text><polygon fill="#A80036" points="621.875,1121.582,634.375,1126.582,621.875,1131.582,626.875,1126.582" style="stroke:#A80036;stroke-width:1.25;"/><line style="stroke:#A80036;stroke-width:1.25;" x1="146.875" x2="629.375" y1="1126.582" y2="1126.582"/><text fill="#000000" font-family="sans-serif" font-size="16.25" font-weight="bold" lengthAdjust="spacing" textLength="17.5" x="155.625" y="1120.5115">23</text><text fill="#000000" font-family="sans-serif" font-size="16.25" lengthAdjust="spacing" textLength="63.75" x="178.125" y="1120.5115">Confirms</text><polygon fill="#A80036" points="154.375,1159.5215,141.875,1164.5215,154.375,1169.5215,149.375,1164.5215" style="stroke:#A80036;stroke-width:1.25;"/><line style="stroke:#A80036;stroke-width:1.25;stroke-dasharray:2.0,2.0;" x1="146.875" x2="641.875" y1="1164.5215" y2="1164.5215"/><text fill="#000000" font-family="sans-serif" font-size="16.25" font-weight="bold" lengthAdjust="spacing" textLength="17.5" x="161.875" y="1158.4509">24</text><text fill="#000000" font-family="sans-serif" font-size="16.25" lengthAdjust="spacing" textLength="262.5" x="184.375" y="1158.4509">Informs the success of the operation</text><!--MD5=[ed8b6386c2eaf6ba83c70334a97f68bc]
@startuml
autonumber
hide footbox

actor "Human Resource Representative" as HRR

participant "<<presentation>>\nRemoveCollabFromTeamUI" as UI
participant "<<aplication>>\nRemoveCollabFromTeamController" as CTRL
participant "<<aplication>>\nAuthzRegistry" as AUTHR
participant "<<aplication>>\nAuthorizationService" as AUTH
database "<<repository>>\nCollaboratorRepository" as CR
database "<<repository>>\nTeamRepository" as TR

activate HRR
HRR -> UI : Iniciates the request to remove a collaborator from a team

activate UI
UI -> CTRL** : create()

activate CTRL
ref over CTRL
US-1-2052_SD_Repo
end ref

CTRL -> AUTHR : m_oAuthz = authorizationService()
activate AUTHR
deactivate CTRL
deactivate AUTHR

UI -> CTRL : getCollaborators()

activate CTRL
CTRL -> AUTH : ensureAuthenticatedUserHasAnyOf(role, role)
CTRL -> CR : all()

activate CR
CR - -> CTRL : collabSet
deactivate CR

CTRL - -> UI : collabSet
deactivate CTRL

UI - -> HRR : Display collaborator's list

HRR -> UI : Selects the intended collaborator

UI -> CTRL : getTeamsFromCollab(collab)

activate CTRL
CTRL -> AUTH : ensureAuthenticatedUserHasAnyOf(role, role)
CTRL -> TR : all()

activate TR
TR - -> CTRL : teamSet
deactivate TR

CTRL - -> UI : teamSet
deactivate CTRL

UI - -> HRR : Display team's list

HRR -> UI : Selects the intended Team

UI -> CTRL : removeCollabFromTeam(collab, team)

activate CTRL
CTRL -> CR : removeCollabFromTeam(collab, team)

activate CR
CR - -> CTRL : collab
deactivate CR

CTRL - -> UI : collab
deactivate CTRL

UI - -> HRR : Validates, presents the information and asks for confirmation

HRR -> UI : Confirms

UI - -> HRR : Informs the success of the operation
deactivate UI
deactivate HRR
@enduml

PlantUML version 1.2021.5(Sun Apr 25 12:20:28 BST 2021)
(GPL source distribution)
Java Runtime: OpenJDK Runtime Environment
JVM: OpenJDK 64-Bit Server VM
Default Encoding: Cp1252
Language: pt
Country: PT
--></g></svg>