<?xml version="1.0" encoding="UTF-8" standalone="no"?><svg xmlns="http://www.w3.org/2000/svg" xmlns:xlink="http://www.w3.org/1999/xlink" contentScriptType="application/ecmascript" contentStyleType="text/css" height="863px" preserveAspectRatio="none" style="width:1913px;height:863px;" version="1.1" viewBox="0 0 1913 863" width="1913px" zoomAndPan="magnify"><defs><filter height="300%" id="fhyjrduhho3n2" width="300%" x="-1" y="-1"><feGaussianBlur result="blurOut" stdDeviation="2.0"/><feColorMatrix in="blurOut" result="blurOut2" type="matrix" values="0 0 0 0 0 0 0 0 0 0 0 0 0 0 0 0 0 0 .4 0"/><feOffset dx="4.0" dy="4.0" in="blurOut2" result="blurOut3"/><feBlend in="SourceGraphic" in2="blurOut3" mode="normal"/></filter></defs><g><!--MD5=[c625dcaacd11c740d6823293b9b8bae2]
cluster base.app.backoffice.console--><polygon fill="#AAAAAA" filter="url(#fhyjrduhho3n2)" points="152,6,359,6,366,29.6094,382,29.6094,382,202,152,202,152,6" style="stroke:#000000;stroke-width:1.5;"/><line style="stroke:#000000;stroke-width:1.5;" x1="152" x2="366" y1="29.6094" y2="29.6094"/><text fill="#000000" font-family="sans-serif" font-size="14" font-weight="bold" lengthAdjust="spacing" textLength="201" x="156" y="22.5332">base.app.backoffice.console</text><!--MD5=[3dcf69e4e87a10af00fce8354034ba4c]
cluster presentation--><polygon fill="#CCCCCC" filter="url(#fhyjrduhho3n2)" points="176,50,272,50,279,73.6094,358,73.6094,358,178,176,178,176,50" style="stroke:#000000;stroke-width:1.5;"/><line style="stroke:#000000;stroke-width:1.5;" x1="176" x2="279" y1="73.6094" y2="73.6094"/><text fill="#000000" font-family="sans-serif" font-size="14" font-weight="bold" lengthAdjust="spacing" textLength="90" x="180" y="66.5332">presentation</text><!--MD5=[3a51fe6c967fa78ceb0525f16d76f651]
cluster base.core--><polygon fill="#AAAAAA" filter="url(#fhyjrduhho3n2)" points="16,235,92,235,99,258.6094,1435,258.6094,1435,856.5,16,856.5,16,235" style="stroke:#000000;stroke-width:1.5;"/><line style="stroke:#000000;stroke-width:1.5;" x1="16" x2="99" y1="258.6094" y2="258.6094"/><text fill="#000000" font-family="sans-serif" font-size="14" font-weight="bold" lengthAdjust="spacing" textLength="70" x="20" y="251.5332">base.core</text><!--MD5=[00f1ad57bea3216b658bd99a662c2648]
cluster eapli.base--><polygon fill="#CCCCCC" filter="url(#fhyjrduhho3n2)" points="40,279,118,279,125,302.6094,1411,302.6094,1411,832.5,40,832.5,40,279" style="stroke:#000000;stroke-width:1.5;"/><line style="stroke:#000000;stroke-width:1.5;" x1="40" x2="125" y1="302.6094" y2="302.6094"/><text fill="#000000" font-family="sans-serif" font-size="14" font-weight="bold" lengthAdjust="spacing" textLength="72" x="44" y="295.5332">eapli.base</text><!--MD5=[12bde04cd15a0eb080891dc0f0ed6ca3]
cluster infrastructure.persistence--><polygon fill="#DDDDDD" filter="url(#fhyjrduhho3n2)" points="1026,601,1217,601,1224,624.6094,1387,624.6094,1387,743,1026,743,1026,601" style="stroke:#000000;stroke-width:1.5;"/><line style="stroke:#000000;stroke-width:1.5;" x1="1026" x2="1224" y1="624.6094" y2="624.6094"/><text fill="#000000" font-family="sans-serif" font-size="14" font-weight="bold" lengthAdjust="spacing" textLength="185" x="1030" y="617.5332">infrastructure.persistence</text><!--MD5=[2bc276e0b57837b8eafb2dda55c49cf4]
cluster teamtypemanagement--><polygon fill="#CCCCCC" filter="url(#fhyjrduhho3n2)" points="64,323,224,323,231,346.6094,1002,346.6094,1002,808.5,64,808.5,64,323" style="stroke:#000000;stroke-width:1.5;"/><line style="stroke:#000000;stroke-width:1.5;" x1="64" x2="231" y1="346.6094" y2="346.6094"/><text fill="#000000" font-family="sans-serif" font-size="14" font-weight="bold" lengthAdjust="spacing" textLength="154" x="68" y="339.5332">teamtypemanagement</text><!--MD5=[6102e23f5540abd51787c6ac336575df]
cluster teamtypemanagement.repositories--><polygon fill="#DDDDDD" filter="url(#fhyjrduhho3n2)" points="718,371,968,371,975,394.6094,978,394.6094,978,491,718,491,718,371" style="stroke:#000000;stroke-width:1.5;"/><line style="stroke:#000000;stroke-width:1.5;" x1="718" x2="975" y1="394.6094" y2="394.6094"/><text fill="#000000" font-family="sans-serif" font-size="14" font-weight="bold" lengthAdjust="spacing" textLength="244" x="722" y="387.5332">teamtypemanagement.repositories</text><!--MD5=[f39b4d6645f513ad1046737a3c46bb1b]
cluster teamtypemanagement.application--><polygon fill="#DDDDDD" filter="url(#fhyjrduhho3n2)" points="142,367,383,367,390,390.6094,393,390.6094,393,495,142,495,142,367" style="stroke:#000000;stroke-width:1.5;"/><line style="stroke:#000000;stroke-width:1.5;" x1="142" x2="390" y1="390.6094" y2="390.6094"/><text fill="#000000" font-family="sans-serif" font-size="14" font-weight="bold" lengthAdjust="spacing" textLength="235" x="146" y="383.5332">teamtypemanagement.application</text><!--MD5=[c060778a882353fc9e6a7f8a806eb82b]
cluster teamtypemanagement.domain--><polygon fill="#DDDDDD" filter="url(#fhyjrduhho3n2)" points="88,559.5,303,559.5,310,583.1094,978,583.1094,978,784.5,88,784.5,88,559.5" style="stroke:#000000;stroke-width:1.5;"/><line style="stroke:#000000;stroke-width:1.5;" x1="88" x2="310" y1="583.1094" y2="583.1094"/><text fill="#000000" font-family="sans-serif" font-size="14" font-weight="bold" lengthAdjust="spacing" textLength="209" x="92" y="576.0332">teamtypemanagement.domain</text><!--MD5=[b1a0a44bf588cc26194f3429983a5939]
cluster base.persistence.impl--><polygon fill="#AAAAAA" filter="url(#fhyjrduhho3n2)" points="1459,557,1620,557,1627,580.6094,1896,580.6094,1896,767,1459,767,1459,557" style="stroke:#000000;stroke-width:1.5;"/><line style="stroke:#000000;stroke-width:1.5;" x1="1459" x2="1627" y1="580.6094" y2="580.6094"/><text fill="#000000" font-family="sans-serif" font-size="14" font-weight="bold" lengthAdjust="spacing" textLength="155" x="1463" y="573.5332">base.persistence.impl</text><!--MD5=[18d9dc06195a666b97c52395d5485033]
cluster jpa--><polygon fill="#CCCCCC" filter="url(#fhyjrduhho3n2)" points="1483,601,1510,601,1517,624.6094,1872,624.6094,1872,743,1483,743,1483,601" style="stroke:#000000;stroke-width:1.5;"/><line style="stroke:#000000;stroke-width:1.5;" x1="1483" x2="1517" y1="624.6094" y2="624.6094"/><text fill="#000000" font-family="sans-serif" font-size="14" font-weight="bold" lengthAdjust="spacing" textLength="21" x="1487" y="617.5332">jpa</text><!--MD5=[4235f2254c579ec7acf4c60671882195]
class TeamTypeRegisterUI--><rect codeLine="5" fill="#FEFECE" filter="url(#fhyjrduhho3n2)" height="56.1875" id="TeamTypeRegisterUI" style="stroke:#A80036;stroke-width:1.5;" width="149" x="192.5" y="106"/><ellipse cx="207.5" cy="126.0938" fill="#ADD1B2" rx="11" ry="11" style="stroke:#A80036;stroke-width:1.0;"/><path d="M209.5,122.5938 Q209.7031,122.0938 209.9375,121.8438 Q210.1719,121.5938 210.4375,121.5938 Q210.9063,121.5938 211.2031,121.875 Q211.5,122.1563 211.5,122.8125 L211.5,124.375 Q211.5,125.0313 211.2188,125.3125 Q210.9375,125.5938 210.5,125.5938 Q210.1094,125.5938 209.8594,125.4219 Q209.6094,125.25 209.5,124.7969 Q209.4531,124.4844 209.2813,124.3125 Q208.9688,123.9844 208.4063,123.7969 Q207.8438,123.5938 207.2813,123.5938 Q206.5781,123.5938 205.9844,123.875 Q205.4063,124.1563 204.9531,124.7813 Q204.5,125.4063 204.5,126.2656 L204.5,127.1875 Q204.5,128.2188 205.3438,128.9063 Q206.1875,129.5938 207.6875,129.5938 Q208.5781,129.5938 209.2031,129.3906 Q209.5625,129.2813 209.9688,128.9219 Q210.2344,128.7188 210.375,128.6563 Q210.5156,128.5938 210.6875,128.5938 Q211.0156,128.5938 211.25,128.8594 Q211.5,129.1094 211.5,129.4688 Q211.5,129.8125 211.1563,130.2188 Q210.6563,130.8125 209.8594,131.1406 Q208.8125,131.5938 207.5313,131.5938 Q206.0313,131.5938 204.8281,131 Q203.8594,130.5313 203.1719,129.5156 Q202.5,128.5 202.5,127.2969 L202.5,126.2031 Q202.5,124.9531 203.0938,123.8594 Q203.7031,122.7656 204.75,122.1875 Q205.8125,121.5938 207,121.5938 Q207.7188,121.5938 208.3438,121.8438 Q208.9688,122.0938 209.5,122.5938 Z " fill="#000000"/><text fill="#000000" font-family="sans-serif" font-size="12" font-style="italic" lengthAdjust="spacing" textLength="82" x="239" y="123.457">«presentation»</text><text fill="#000000" font-family="sans-serif" font-size="12" lengthAdjust="spacing" textLength="117" x="221.5" y="138.5508">TeamTypeRegisterUI</text><line style="stroke:#A80036;stroke-width:1.5;" x1="193.5" x2="340.5" y1="146.1875" y2="146.1875"/><line style="stroke:#A80036;stroke-width:1.5;" x1="193.5" x2="340.5" y1="154.1875" y2="154.1875"/><!--MD5=[b8e4c95865208c934bfcfda4f90bf50c]
class AppSettings--><rect codeLine="60" fill="#FEFECE" filter="url(#fhyjrduhho3n2)" height="83.8594" id="AppSettings" style="stroke:#A80036;stroke-width:1.5;" width="130" x="1265" y="409"/><ellipse cx="1291.25" cy="429.0938" fill="#ADD1B2" rx="11" ry="11" style="stroke:#A80036;stroke-width:1.0;"/><path d="M1293.25,425.5938 Q1293.4531,425.0938 1293.6875,424.8438 Q1293.9219,424.5938 1294.1875,424.5938 Q1294.6563,424.5938 1294.9531,424.875 Q1295.25,425.1563 1295.25,425.8125 L1295.25,427.375 Q1295.25,428.0313 1294.9688,428.3125 Q1294.6875,428.5938 1294.25,428.5938 Q1293.8594,428.5938 1293.6094,428.4219 Q1293.3594,428.25 1293.25,427.7969 Q1293.2031,427.4844 1293.0313,427.3125 Q1292.7188,426.9844 1292.1563,426.7969 Q1291.5938,426.5938 1291.0313,426.5938 Q1290.3281,426.5938 1289.7344,426.875 Q1289.1563,427.1563 1288.7031,427.7813 Q1288.25,428.4063 1288.25,429.2656 L1288.25,430.1875 Q1288.25,431.2188 1289.0938,431.9063 Q1289.9375,432.5938 1291.4375,432.5938 Q1292.3281,432.5938 1292.9531,432.3906 Q1293.3125,432.2813 1293.7188,431.9219 Q1293.9844,431.7188 1294.125,431.6563 Q1294.2656,431.5938 1294.4375,431.5938 Q1294.7656,431.5938 1295,431.8594 Q1295.25,432.1094 1295.25,432.4688 Q1295.25,432.8125 1294.9063,433.2188 Q1294.4063,433.8125 1293.6094,434.1406 Q1292.5625,434.5938 1291.2813,434.5938 Q1289.7813,434.5938 1288.5781,434 Q1287.6094,433.5313 1286.9219,432.5156 Q1286.25,431.5 1286.25,430.2969 L1286.25,429.2031 Q1286.25,427.9531 1286.8438,426.8594 Q1287.4531,425.7656 1288.5,425.1875 Q1289.5625,424.5938 1290.75,424.5938 Q1291.4688,424.5938 1292.0938,424.8438 Q1292.7188,425.0938 1293.25,425.5938 Z " fill="#000000"/><text fill="#000000" font-family="sans-serif" font-size="12" font-style="italic" lengthAdjust="spacing" textLength="77" x="1305.75" y="426.457">«persistence»</text><text fill="#000000" font-family="sans-serif" font-size="12" lengthAdjust="spacing" textLength="66" x="1311.25" y="441.5508">AppSettings</text><line style="stroke:#A80036;stroke-width:1.5;" x1="1266" x2="1394" y1="449.1875" y2="449.1875"/><line style="stroke:#A80036;stroke-width:1.5;" x1="1266" x2="1394" y1="457.1875" y2="457.1875"/><text fill="#000000" font-family="sans-serif" font-size="11" lengthAdjust="spacing" textLength="55" x="1271" y="472.6064">+instance()</text><text fill="#000000" font-family="sans-serif" font-size="11" lengthAdjust="spacing" textLength="118" x="1271" y="486.4424">+getRepositoryFactory()</text><!--MD5=[e8c189551b7885b999ad7cefb30fc2a3]
class PersistenceContext--><rect codeLine="13" fill="#FEFECE" filter="url(#fhyjrduhho3n2)" height="70.0234" id="PersistenceContext" style="stroke:#A80036;stroke-width:1.5;" width="139" x="1042.5" y="657"/><ellipse cx="1057.5" cy="677.0938" fill="#ADD1B2" rx="11" ry="11" style="stroke:#A80036;stroke-width:1.0;"/><path d="M1059.5,673.5938 Q1059.7031,673.0938 1059.9375,672.8438 Q1060.1719,672.5938 1060.4375,672.5938 Q1060.9063,672.5938 1061.2031,672.875 Q1061.5,673.1563 1061.5,673.8125 L1061.5,675.375 Q1061.5,676.0313 1061.2188,676.3125 Q1060.9375,676.5938 1060.5,676.5938 Q1060.1094,676.5938 1059.8594,676.4219 Q1059.6094,676.25 1059.5,675.7969 Q1059.4531,675.4844 1059.2813,675.3125 Q1058.9688,674.9844 1058.4063,674.7969 Q1057.8438,674.5938 1057.2813,674.5938 Q1056.5781,674.5938 1055.9844,674.875 Q1055.4063,675.1563 1054.9531,675.7813 Q1054.5,676.4063 1054.5,677.2656 L1054.5,678.1875 Q1054.5,679.2188 1055.3438,679.9063 Q1056.1875,680.5938 1057.6875,680.5938 Q1058.5781,680.5938 1059.2031,680.3906 Q1059.5625,680.2813 1059.9688,679.9219 Q1060.2344,679.7188 1060.375,679.6563 Q1060.5156,679.5938 1060.6875,679.5938 Q1061.0156,679.5938 1061.25,679.8594 Q1061.5,680.1094 1061.5,680.4688 Q1061.5,680.8125 1061.1563,681.2188 Q1060.6563,681.8125 1059.8594,682.1406 Q1058.8125,682.5938 1057.5313,682.5938 Q1056.0313,682.5938 1054.8281,682 Q1053.8594,681.5313 1053.1719,680.5156 Q1052.5,679.5 1052.5,678.2969 L1052.5,677.2031 Q1052.5,675.9531 1053.0938,674.8594 Q1053.7031,673.7656 1054.75,673.1875 Q1055.8125,672.5938 1057,672.5938 Q1057.7188,672.5938 1058.3438,672.8438 Q1058.9688,673.0938 1059.5,673.5938 Z " fill="#000000"/><text fill="#000000" font-family="sans-serif" font-size="12" font-style="italic" lengthAdjust="spacing" textLength="77" x="1086.5" y="674.457">«persistence»</text><text fill="#000000" font-family="sans-serif" font-size="12" lengthAdjust="spacing" textLength="107" x="1071.5" y="689.5508">PersistenceContext</text><line style="stroke:#A80036;stroke-width:1.5;" x1="1043.5" x2="1180.5" y1="697.1875" y2="697.1875"/><line style="stroke:#A80036;stroke-width:1.5;" x1="1043.5" x2="1180.5" y1="705.1875" y2="705.1875"/><text fill="#000000" font-family="sans-serif" font-size="11" lengthAdjust="spacing" textLength="71" x="1048.5" y="720.6064">+repositories()</text><!--MD5=[48590afff58a68e2fcba47824d6f8a11]
class RepositoryFactory--><rect codeLine="17" fill="#FEFECE" filter="url(#fhyjrduhho3n2)" height="48" id="RepositoryFactory" style="stroke:#A80036;stroke-width:1.5;" width="131" x="1239.5" y="668"/><ellipse cx="1254.5" cy="684" fill="#B4A7E5" rx="11" ry="11" style="stroke:#A80036;stroke-width:1.0;"/><path d="M1255.5,681 L1255.5,687 L1257.5,687 L1257.9844,687 L1258.5,687.625 L1258.5,688 L1258.5,688.375 L1257.9844,689 L1257.5,689 L1251.5,689 L1251.0156,689 L1250.5,688.375 L1250.5,688 L1250.5,687.625 L1251.0156,687 L1251.5,687 L1253.5,687 L1253.5,681 L1251.5,681 L1251.0156,681 L1250.5,680.375 L1250.5,680 L1250.5,679.625 L1251.0156,679 L1251.5,679 L1257.5,679 L1257.9844,679 L1258.5,679.625 L1258.5,680 L1258.5,680.375 L1257.9844,681 L1257.5,681 L1255.5,681 Z " fill="#000000"/><text fill="#000000" font-family="sans-serif" font-size="12" font-style="italic" lengthAdjust="spacing" textLength="99" x="1268.5" y="688.9102">RepositoryFactory</text><line style="stroke:#A80036;stroke-width:1.5;" x1="1240.5" x2="1369.5" y1="700" y2="700"/><line style="stroke:#A80036;stroke-width:1.5;" x1="1240.5" x2="1369.5" y1="708" y2="708"/><!--MD5=[309587fb86f370fe7c4adfd03223b22b]
class TeamTypeRepositoryInterface--><rect codeLine="23" fill="#FEFECE" filter="url(#fhyjrduhho3n2)" height="48" id="TeamTypeRepositoryInterface" style="stroke:#A80036;stroke-width:1.5;" width="198" x="764" y="427"/><ellipse cx="779" cy="443" fill="#B4A7E5" rx="11" ry="11" style="stroke:#A80036;stroke-width:1.0;"/><path d="M780,440 L780,446 L782,446 L782.4844,446 L783,446.625 L783,447 L783,447.375 L782.4844,448 L782,448 L776,448 L775.5156,448 L775,447.375 L775,447 L775,446.625 L775.5156,446 L776,446 L778,446 L778,440 L776,440 L775.5156,440 L775,439.375 L775,439 L775,438.625 L775.5156,438 L776,438 L782,438 L782.4844,438 L783,438.625 L783,439 L783,439.375 L782.4844,440 L782,440 L780,440 Z " fill="#000000"/><text fill="#000000" font-family="sans-serif" font-size="12" font-style="italic" lengthAdjust="spacing" textLength="166" x="793" y="447.9102">TeamTypeRepositoryInterface</text><line style="stroke:#A80036;stroke-width:1.5;" x1="765" x2="961" y1="459" y2="459"/><line style="stroke:#A80036;stroke-width:1.5;" x1="765" x2="961" y1="467" y2="467"/><!--MD5=[79b4518221119ba2cf44b0c509be386c]
class TeamTypeRegisterController--><rect codeLine="28" fill="#FEFECE" filter="url(#fhyjrduhho3n2)" height="56.1875" id="TeamTypeRegisterController" style="stroke:#A80036;stroke-width:1.5;" width="191" x="171.5" y="423"/><ellipse cx="186.5" cy="443.0938" fill="#ADD1B2" rx="11" ry="11" style="stroke:#A80036;stroke-width:1.0;"/><path d="M188.5,439.5938 Q188.7031,439.0938 188.9375,438.8438 Q189.1719,438.5938 189.4375,438.5938 Q189.9063,438.5938 190.2031,438.875 Q190.5,439.1563 190.5,439.8125 L190.5,441.375 Q190.5,442.0313 190.2188,442.3125 Q189.9375,442.5938 189.5,442.5938 Q189.1094,442.5938 188.8594,442.4219 Q188.6094,442.25 188.5,441.7969 Q188.4531,441.4844 188.2813,441.3125 Q187.9688,440.9844 187.4063,440.7969 Q186.8438,440.5938 186.2813,440.5938 Q185.5781,440.5938 184.9844,440.875 Q184.4063,441.1563 183.9531,441.7813 Q183.5,442.4063 183.5,443.2656 L183.5,444.1875 Q183.5,445.2188 184.3438,445.9063 Q185.1875,446.5938 186.6875,446.5938 Q187.5781,446.5938 188.2031,446.3906 Q188.5625,446.2813 188.9688,445.9219 Q189.2344,445.7188 189.375,445.6563 Q189.5156,445.5938 189.6875,445.5938 Q190.0156,445.5938 190.25,445.8594 Q190.5,446.1094 190.5,446.4688 Q190.5,446.8125 190.1563,447.2188 Q189.6563,447.8125 188.8594,448.1406 Q187.8125,448.5938 186.5313,448.5938 Q185.0313,448.5938 183.8281,448 Q182.8594,447.5313 182.1719,446.5156 Q181.5,445.5 181.5,444.2969 L181.5,443.2031 Q181.5,441.9531 182.0938,440.8594 Q182.7031,439.7656 183.75,439.1875 Q184.8125,438.5938 186,438.5938 Q186.7188,438.5938 187.3438,438.8438 Q187.9688,439.0938 188.5,439.5938 Z " fill="#000000"/><text fill="#000000" font-family="sans-serif" font-size="12" font-style="italic" lengthAdjust="spacing" textLength="74" x="243" y="440.457">«application»</text><text fill="#000000" font-family="sans-serif" font-size="12" lengthAdjust="spacing" textLength="159" x="200.5" y="455.5508">TeamTypeRegisterController</text><line style="stroke:#A80036;stroke-width:1.5;" x1="172.5" x2="361.5" y1="463.1875" y2="463.1875"/><line style="stroke:#A80036;stroke-width:1.5;" x1="172.5" x2="361.5" y1="471.1875" y2="471.1875"/><!--MD5=[4613ed2da30dc149c45cd27489abac80]
class TeamType--><rect codeLine="32" fill="#FEFECE" filter="url(#fhyjrduhho3n2)" height="111.5313" id="TeamType" style="stroke:#A80036;stroke-width:1.5;" width="154" x="293" y="636"/><ellipse cx="336.8" cy="656.0938" fill="#ADD1B2" rx="11" ry="11" style="stroke:#A80036;stroke-width:1.0;"/><path d="M338.8,652.5938 Q339.0031,652.0938 339.2375,651.8438 Q339.4719,651.5938 339.7375,651.5938 Q340.2063,651.5938 340.5031,651.875 Q340.8,652.1563 340.8,652.8125 L340.8,654.375 Q340.8,655.0313 340.5188,655.3125 Q340.2375,655.5938 339.8,655.5938 Q339.4094,655.5938 339.1594,655.4219 Q338.9094,655.25 338.8,654.7969 Q338.7531,654.4844 338.5813,654.3125 Q338.2688,653.9844 337.7063,653.7969 Q337.1438,653.5938 336.5813,653.5938 Q335.8781,653.5938 335.2844,653.875 Q334.7063,654.1563 334.2531,654.7813 Q333.8,655.4063 333.8,656.2656 L333.8,657.1875 Q333.8,658.2188 334.6438,658.9063 Q335.4875,659.5938 336.9875,659.5938 Q337.8781,659.5938 338.5031,659.3906 Q338.8625,659.2813 339.2688,658.9219 Q339.5344,658.7188 339.675,658.6563 Q339.8156,658.5938 339.9875,658.5938 Q340.3156,658.5938 340.55,658.8594 Q340.8,659.1094 340.8,659.4688 Q340.8,659.8125 340.4563,660.2188 Q339.9563,660.8125 339.1594,661.1406 Q338.1125,661.5938 336.8313,661.5938 Q335.3313,661.5938 334.1281,661 Q333.1594,660.5313 332.4719,659.5156 Q331.8,658.5 331.8,657.2969 L331.8,656.2031 Q331.8,654.9531 332.3938,653.8594 Q333.0031,652.7656 334.05,652.1875 Q335.1125,651.5938 336.3,651.5938 Q337.0188,651.5938 337.6438,651.8438 Q338.2688,652.0938 338.8,652.5938 Z " fill="#000000"/><text fill="#000000" font-family="sans-serif" font-size="12" font-style="italic" lengthAdjust="spacing" textLength="43" x="364.7" y="653.457">«entity»</text><text fill="#000000" font-family="sans-serif" font-size="12" lengthAdjust="spacing" textLength="58" x="357.2" y="668.5508">TeamType</text><line style="stroke:#A80036;stroke-width:1.5;" x1="294" x2="446" y1="676.1875" y2="676.1875"/><text fill="#000000" font-family="sans-serif" font-size="11" lengthAdjust="spacing" textLength="12" x="299" y="691.6064">-id</text><text fill="#000000" font-family="sans-serif" font-size="11" lengthAdjust="spacing" textLength="57" x="299" y="705.4424">-description</text><text fill="#000000" font-family="sans-serif" font-size="11" lengthAdjust="spacing" textLength="28" x="299" y="719.2783">-color</text><line style="stroke:#A80036;stroke-width:1.5;" x1="294" x2="446" y1="725.6953" y2="725.6953"/><text fill="#000000" font-family="sans-serif" font-size="11" lengthAdjust="spacing" textLength="142" x="299" y="741.1143">+create(id, description, color)</text><!--MD5=[7f00cf974148bc51b5ea1ef383e47836]
class TeamTypeId--><rect codeLine="39" fill="#FEFECE" filter="url(#fhyjrduhho3n2)" height="56.1875" id="TeamTypeId" style="stroke:#A80036;stroke-width:1.5;" width="109" x="697.5" y="664"/><ellipse cx="712.5" cy="684.0938" fill="#ADD1B2" rx="11" ry="11" style="stroke:#A80036;stroke-width:1.0;"/><path d="M714.5,680.5938 Q714.7031,680.0938 714.9375,679.8438 Q715.1719,679.5938 715.4375,679.5938 Q715.9063,679.5938 716.2031,679.875 Q716.5,680.1563 716.5,680.8125 L716.5,682.375 Q716.5,683.0313 716.2188,683.3125 Q715.9375,683.5938 715.5,683.5938 Q715.1094,683.5938 714.8594,683.4219 Q714.6094,683.25 714.5,682.7969 Q714.4531,682.4844 714.2813,682.3125 Q713.9688,681.9844 713.4063,681.7969 Q712.8438,681.5938 712.2813,681.5938 Q711.5781,681.5938 710.9844,681.875 Q710.4063,682.1563 709.9531,682.7813 Q709.5,683.4063 709.5,684.2656 L709.5,685.1875 Q709.5,686.2188 710.3438,686.9063 Q711.1875,687.5938 712.6875,687.5938 Q713.5781,687.5938 714.2031,687.3906 Q714.5625,687.2813 714.9688,686.9219 Q715.2344,686.7188 715.375,686.6563 Q715.5156,686.5938 715.6875,686.5938 Q716.0156,686.5938 716.25,686.8594 Q716.5,687.1094 716.5,687.4688 Q716.5,687.8125 716.1563,688.2188 Q715.6563,688.8125 714.8594,689.1406 Q713.8125,689.5938 712.5313,689.5938 Q711.0313,689.5938 709.8281,689 Q708.8594,688.5313 708.1719,687.5156 Q707.5,686.5 707.5,685.2969 L707.5,684.2031 Q707.5,682.9531 708.0938,681.8594 Q708.7031,680.7656 709.75,680.1875 Q710.8125,679.5938 712,679.5938 Q712.7188,679.5938 713.3438,679.8438 Q713.9688,680.0938 714.5,680.5938 Z " fill="#000000"/><text fill="#000000" font-family="sans-serif" font-size="12" font-style="italic" lengthAdjust="spacing" textLength="81" x="724.5" y="681.457">«value object»</text><text fill="#000000" font-family="sans-serif" font-size="12" lengthAdjust="spacing" textLength="68" x="731" y="696.5508">TeamTypeId</text><line style="stroke:#A80036;stroke-width:1.5;" x1="698.5" x2="805.5" y1="704.1875" y2="704.1875"/><line style="stroke:#A80036;stroke-width:1.5;" x1="698.5" x2="805.5" y1="712.1875" y2="712.1875"/><!--MD5=[f63b0352659d01f9bb990ad870506eaa]
class TeamTypeDescription--><rect codeLine="42" fill="#FEFECE" filter="url(#fhyjrduhho3n2)" height="56.1875" id="TeamTypeDescription" style="stroke:#A80036;stroke-width:1.5;" width="153" x="509.5" y="664"/><ellipse cx="524.5" cy="684.0938" fill="#ADD1B2" rx="11" ry="11" style="stroke:#A80036;stroke-width:1.0;"/><path d="M526.5,680.5938 Q526.7031,680.0938 526.9375,679.8438 Q527.1719,679.5938 527.4375,679.5938 Q527.9063,679.5938 528.2031,679.875 Q528.5,680.1563 528.5,680.8125 L528.5,682.375 Q528.5,683.0313 528.2188,683.3125 Q527.9375,683.5938 527.5,683.5938 Q527.1094,683.5938 526.8594,683.4219 Q526.6094,683.25 526.5,682.7969 Q526.4531,682.4844 526.2813,682.3125 Q525.9688,681.9844 525.4063,681.7969 Q524.8438,681.5938 524.2813,681.5938 Q523.5781,681.5938 522.9844,681.875 Q522.4063,682.1563 521.9531,682.7813 Q521.5,683.4063 521.5,684.2656 L521.5,685.1875 Q521.5,686.2188 522.3438,686.9063 Q523.1875,687.5938 524.6875,687.5938 Q525.5781,687.5938 526.2031,687.3906 Q526.5625,687.2813 526.9688,686.9219 Q527.2344,686.7188 527.375,686.6563 Q527.5156,686.5938 527.6875,686.5938 Q528.0156,686.5938 528.25,686.8594 Q528.5,687.1094 528.5,687.4688 Q528.5,687.8125 528.1563,688.2188 Q527.6563,688.8125 526.8594,689.1406 Q525.8125,689.5938 524.5313,689.5938 Q523.0313,689.5938 521.8281,689 Q520.8594,688.5313 520.1719,687.5156 Q519.5,686.5 519.5,685.2969 L519.5,684.2031 Q519.5,682.9531 520.0938,681.8594 Q520.7031,680.7656 521.75,680.1875 Q522.8125,679.5938 524,679.5938 Q524.7188,679.5938 525.3438,679.8438 Q525.9688,680.0938 526.5,680.5938 Z " fill="#000000"/><text fill="#000000" font-family="sans-serif" font-size="12" font-style="italic" lengthAdjust="spacing" textLength="81" x="558.5" y="681.457">«value object»</text><text fill="#000000" font-family="sans-serif" font-size="12" lengthAdjust="spacing" textLength="121" x="538.5" y="696.5508">TeamTypeDescription</text><line style="stroke:#A80036;stroke-width:1.5;" x1="510.5" x2="661.5" y1="704.1875" y2="704.1875"/><line style="stroke:#A80036;stroke-width:1.5;" x1="510.5" x2="661.5" y1="712.1875" y2="712.1875"/><!--MD5=[7f32d6cd035632187deaba3478e07af2]
class TeamTypeColor--><rect codeLine="45" fill="#FEFECE" filter="url(#fhyjrduhho3n2)" height="56.1875" id="TeamTypeColor" style="stroke:#A80036;stroke-width:1.5;" width="120" x="842" y="664"/><ellipse cx="857" cy="684.0938" fill="#ADD1B2" rx="11" ry="11" style="stroke:#A80036;stroke-width:1.0;"/><path d="M859,680.5938 Q859.2031,680.0938 859.4375,679.8438 Q859.6719,679.5938 859.9375,679.5938 Q860.4063,679.5938 860.7031,679.875 Q861,680.1563 861,680.8125 L861,682.375 Q861,683.0313 860.7188,683.3125 Q860.4375,683.5938 860,683.5938 Q859.6094,683.5938 859.3594,683.4219 Q859.1094,683.25 859,682.7969 Q858.9531,682.4844 858.7813,682.3125 Q858.4688,681.9844 857.9063,681.7969 Q857.3438,681.5938 856.7813,681.5938 Q856.0781,681.5938 855.4844,681.875 Q854.9063,682.1563 854.4531,682.7813 Q854,683.4063 854,684.2656 L854,685.1875 Q854,686.2188 854.8438,686.9063 Q855.6875,687.5938 857.1875,687.5938 Q858.0781,687.5938 858.7031,687.3906 Q859.0625,687.2813 859.4688,686.9219 Q859.7344,686.7188 859.875,686.6563 Q860.0156,686.5938 860.1875,686.5938 Q860.5156,686.5938 860.75,686.8594 Q861,687.1094 861,687.4688 Q861,687.8125 860.6563,688.2188 Q860.1563,688.8125 859.3594,689.1406 Q858.3125,689.5938 857.0313,689.5938 Q855.5313,689.5938 854.3281,689 Q853.3594,688.5313 852.6719,687.5156 Q852,686.5 852,685.2969 L852,684.2031 Q852,682.9531 852.5938,681.8594 Q853.2031,680.7656 854.25,680.1875 Q855.3125,679.5938 856.5,679.5938 Q857.2188,679.5938 857.8438,679.8438 Q858.4688,680.0938 859,680.5938 Z " fill="#000000"/><text fill="#000000" font-family="sans-serif" font-size="12" font-style="italic" lengthAdjust="spacing" textLength="81" x="874.5" y="681.457">«value object»</text><text fill="#000000" font-family="sans-serif" font-size="12" lengthAdjust="spacing" textLength="88" x="871" y="696.5508">TeamTypeColor</text><line style="stroke:#A80036;stroke-width:1.5;" x1="843" x2="961" y1="704.1875" y2="704.1875"/><line style="stroke:#A80036;stroke-width:1.5;" x1="843" x2="961" y1="712.1875" y2="712.1875"/><!--MD5=[f1df75c077394155fd8be97d69c21898]
class TeamTypeBuilder--><rect codeLine="48" fill="#FEFECE" filter="url(#fhyjrduhho3n2)" height="153.0391" id="TeamTypeBuilder" style="stroke:#A80036;stroke-width:1.5;" width="154" x="104" y="615.5"/><ellipse cx="130.25" cy="635.5938" fill="#ADD1B2" rx="11" ry="11" style="stroke:#A80036;stroke-width:1.0;"/><path d="M132.25,632.0938 Q132.4531,631.5938 132.6875,631.3438 Q132.9219,631.0938 133.1875,631.0938 Q133.6563,631.0938 133.9531,631.375 Q134.25,631.6563 134.25,632.3125 L134.25,633.875 Q134.25,634.5313 133.9688,634.8125 Q133.6875,635.0938 133.25,635.0938 Q132.8594,635.0938 132.6094,634.9219 Q132.3594,634.75 132.25,634.2969 Q132.2031,633.9844 132.0313,633.8125 Q131.7188,633.4844 131.1563,633.2969 Q130.5938,633.0938 130.0313,633.0938 Q129.3281,633.0938 128.7344,633.375 Q128.1563,633.6563 127.7031,634.2813 Q127.25,634.9063 127.25,635.7656 L127.25,636.6875 Q127.25,637.7188 128.0938,638.4063 Q128.9375,639.0938 130.4375,639.0938 Q131.3281,639.0938 131.9531,638.8906 Q132.3125,638.7813 132.7188,638.4219 Q132.9844,638.2188 133.125,638.1563 Q133.2656,638.0938 133.4375,638.0938 Q133.7656,638.0938 134,638.3594 Q134.25,638.6094 134.25,638.9688 Q134.25,639.3125 133.9063,639.7188 Q133.4063,640.3125 132.6094,640.6406 Q131.5625,641.0938 130.2813,641.0938 Q128.7813,641.0938 127.5781,640.5 Q126.6094,640.0313 125.9219,639.0156 Q125.25,638 125.25,636.7969 L125.25,635.7031 Q125.25,634.4531 125.8438,633.3594 Q126.4531,632.2656 127.5,631.6875 Q128.5625,631.0938 129.75,631.0938 Q130.4688,631.0938 131.0938,631.3438 Q131.7188,631.5938 132.25,632.0938 Z " fill="#000000"/><text fill="#000000" font-family="sans-serif" font-size="12" font-style="italic" lengthAdjust="spacing" textLength="53" x="168.75" y="632.957">«builder»</text><text fill="#000000" font-family="sans-serif" font-size="12" lengthAdjust="spacing" textLength="97" x="146.75" y="648.0508">TeamTypeBuilder</text><line style="stroke:#A80036;stroke-width:1.5;" x1="105" x2="257" y1="655.6875" y2="655.6875"/><text fill="#000000" font-family="sans-serif" font-size="11" lengthAdjust="spacing" textLength="12" x="110" y="671.1064">-id</text><text fill="#000000" font-family="sans-serif" font-size="11" lengthAdjust="spacing" textLength="57" x="110" y="684.9424">-description</text><text fill="#000000" font-family="sans-serif" font-size="11" lengthAdjust="spacing" textLength="28" x="110" y="698.7783">-color</text><line style="stroke:#A80036;stroke-width:1.5;" x1="105" x2="257" y1="705.1953" y2="705.1953"/><text fill="#000000" font-family="sans-serif" font-size="11" lengthAdjust="spacing" textLength="51" x="110" y="720.6143">+withId(id)</text><text fill="#000000" font-family="sans-serif" font-size="11" lengthAdjust="spacing" textLength="142" x="110" y="734.4502">+withDescription(description)</text><text fill="#000000" font-family="sans-serif" font-size="11" lengthAdjust="spacing" textLength="84" x="110" y="748.2861">+withColor(color)</text><text fill="#000000" font-family="sans-serif" font-size="11" lengthAdjust="spacing" textLength="36" x="110" y="762.1221">+build()</text><!--MD5=[f5ccd4dd2d6d40ca4eab86f62553340c]
class TeamTypeRepository--><rect codeLine="69" fill="#FEFECE" filter="url(#fhyjrduhho3n2)" height="70.0234" id="TeamTypeRepository" style="stroke:#A80036;stroke-width:1.5;" width="149" x="1499.5" y="657"/><ellipse cx="1514.5" cy="677.0938" fill="#ADD1B2" rx="11" ry="11" style="stroke:#A80036;stroke-width:1.0;"/><path d="M1516.5,673.5938 Q1516.7031,673.0938 1516.9375,672.8438 Q1517.1719,672.5938 1517.4375,672.5938 Q1517.9063,672.5938 1518.2031,672.875 Q1518.5,673.1563 1518.5,673.8125 L1518.5,675.375 Q1518.5,676.0313 1518.2188,676.3125 Q1517.9375,676.5938 1517.5,676.5938 Q1517.1094,676.5938 1516.8594,676.4219 Q1516.6094,676.25 1516.5,675.7969 Q1516.4531,675.4844 1516.2813,675.3125 Q1515.9688,674.9844 1515.4063,674.7969 Q1514.8438,674.5938 1514.2813,674.5938 Q1513.5781,674.5938 1512.9844,674.875 Q1512.4063,675.1563 1511.9531,675.7813 Q1511.5,676.4063 1511.5,677.2656 L1511.5,678.1875 Q1511.5,679.2188 1512.3438,679.9063 Q1513.1875,680.5938 1514.6875,680.5938 Q1515.5781,680.5938 1516.2031,680.3906 Q1516.5625,680.2813 1516.9688,679.9219 Q1517.2344,679.7188 1517.375,679.6563 Q1517.5156,679.5938 1517.6875,679.5938 Q1518.0156,679.5938 1518.25,679.8594 Q1518.5,680.1094 1518.5,680.4688 Q1518.5,680.8125 1518.1563,681.2188 Q1517.6563,681.8125 1516.8594,682.1406 Q1515.8125,682.5938 1514.5313,682.5938 Q1513.0313,682.5938 1511.8281,682 Q1510.8594,681.5313 1510.1719,680.5156 Q1509.5,679.5 1509.5,678.2969 L1509.5,677.2031 Q1509.5,675.9531 1510.0938,674.8594 Q1510.7031,673.7656 1511.75,673.1875 Q1512.8125,672.5938 1514,672.5938 Q1514.7188,672.5938 1515.3438,672.8438 Q1515.9688,673.0938 1516.5,673.5938 Z " fill="#000000"/><text fill="#000000" font-family="sans-serif" font-size="12" font-style="italic" lengthAdjust="spacing" textLength="68" x="1553" y="674.457">«repository»</text><text fill="#000000" font-family="sans-serif" font-size="12" lengthAdjust="spacing" textLength="117" x="1528.5" y="689.5508">TeamTypeRepository</text><line style="stroke:#A80036;stroke-width:1.5;" x1="1500.5" x2="1647.5" y1="697.1875" y2="697.1875"/><line style="stroke:#A80036;stroke-width:1.5;" x1="1500.5" x2="1647.5" y1="705.1875" y2="705.1875"/><text fill="#000000" font-family="sans-serif" font-size="11" lengthAdjust="spacing" textLength="61" x="1505.5" y="720.6064">+save(team)</text><!--MD5=[e0087e3f3b69767d7a6ef6888f2693a1]
class JpaRepositoryFactory--><rect codeLine="73" fill="#FEFECE" filter="url(#fhyjrduhho3n2)" height="70.0234" id="JpaRepositoryFactory" style="stroke:#A80036;stroke-width:1.5;" width="150" x="1706" y="657"/><ellipse cx="1721" cy="677.0938" fill="#ADD1B2" rx="11" ry="11" style="stroke:#A80036;stroke-width:1.0;"/><path d="M1723,673.5938 Q1723.2031,673.0938 1723.4375,672.8438 Q1723.6719,672.5938 1723.9375,672.5938 Q1724.4063,672.5938 1724.7031,672.875 Q1725,673.1563 1725,673.8125 L1725,675.375 Q1725,676.0313 1724.7188,676.3125 Q1724.4375,676.5938 1724,676.5938 Q1723.6094,676.5938 1723.3594,676.4219 Q1723.1094,676.25 1723,675.7969 Q1722.9531,675.4844 1722.7813,675.3125 Q1722.4688,674.9844 1721.9063,674.7969 Q1721.3438,674.5938 1720.7813,674.5938 Q1720.0781,674.5938 1719.4844,674.875 Q1718.9063,675.1563 1718.4531,675.7813 Q1718,676.4063 1718,677.2656 L1718,678.1875 Q1718,679.2188 1718.8438,679.9063 Q1719.6875,680.5938 1721.1875,680.5938 Q1722.0781,680.5938 1722.7031,680.3906 Q1723.0625,680.2813 1723.4688,679.9219 Q1723.7344,679.7188 1723.875,679.6563 Q1724.0156,679.5938 1724.1875,679.5938 Q1724.5156,679.5938 1724.75,679.8594 Q1725,680.1094 1725,680.4688 Q1725,680.8125 1724.6563,681.2188 Q1724.1563,681.8125 1723.3594,682.1406 Q1722.3125,682.5938 1721.0313,682.5938 Q1719.5313,682.5938 1718.3281,682 Q1717.3594,681.5313 1716.6719,680.5156 Q1716,679.5 1716,678.2969 L1716,677.2031 Q1716,675.9531 1716.5938,674.8594 Q1717.2031,673.7656 1718.25,673.1875 Q1719.3125,672.5938 1720.5,672.5938 Q1721.2188,672.5938 1721.8438,672.8438 Q1722.4688,673.0938 1723,673.5938 Z " fill="#000000"/><text fill="#000000" font-family="sans-serif" font-size="12" font-style="italic" lengthAdjust="spacing" textLength="50" x="1769" y="674.457">«factory»</text><text fill="#000000" font-family="sans-serif" font-size="12" lengthAdjust="spacing" textLength="118" x="1735" y="689.5508">JpaRepositoryFactory</text><line style="stroke:#A80036;stroke-width:1.5;" x1="1707" x2="1855" y1="697.1875" y2="697.1875"/><line style="stroke:#A80036;stroke-width:1.5;" x1="1707" x2="1855" y1="705.1875" y2="705.1875"/><text fill="#000000" font-family="sans-serif" font-size="11" lengthAdjust="spacing" textLength="67" x="1712" y="720.6064">+teamTypes()</text><!--MD5=[f4808371ed58d7cf54cd1be7b3a1df47]
link TeamTypeRegisterUI to TeamTypeRegisterController--><path codeLine="80" d="M267,162.13 C267,220.05 267,355.56 267,417.76 " fill="none" id="TeamTypeRegisterUI-to-TeamTypeRegisterController" style="stroke:#A80036;stroke-width:1.0;stroke-dasharray:7.0,7.0;"/><polygon fill="#A80036" points="267,422.82,271,413.82,267,417.82,263,413.82,267,422.82" style="stroke:#A80036;stroke-width:1.0;"/><!--MD5=[d4476140670cc92e7f86cac8cfe82ad5]
link TeamTypeRegisterController to PersistenceContext--><path codeLine="81" d="M306.22,479.03 C339.78,500.46 390.25,528.75 439,541 C468.04,548.3 950.59,536.94 978,549 C1026.25,570.24 1065.33,618.07 1088.57,652.36 " fill="none" id="TeamTypeRegisterController-to-PersistenceContext" style="stroke:#A80036;stroke-width:1.0;stroke-dasharray:7.0,7.0;"/><polygon fill="#A80036" points="1091.61,656.89,1089.9228,647.1867,1088.8266,652.7363,1083.277,651.6401,1091.61,656.89" style="stroke:#A80036;stroke-width:1.0;"/><!--MD5=[570d79f8f90c83cb4b43491564bdc758]
link TeamTypeRegisterController to TeamTypeBuilder--><path codeLine="82" d="M257.13,479.42 C245.7,511.18 226.35,564.97 210.02,610.36 " fill="none" id="TeamTypeRegisterController-to-TeamTypeBuilder" style="stroke:#A80036;stroke-width:1.0;stroke-dasharray:7.0,7.0;"/><polygon fill="#A80036" points="208.24,615.29,215.0627,608.1872,209.9407,610.5881,207.5397,605.4661,208.24,615.29" style="stroke:#A80036;stroke-width:1.0;"/><!--MD5=[69855685364a91f359b538914456d5ff]
link AppSettings to JpaRepositoryFactory--><path codeLine="84" d="M1395.21,459.02 C1466.71,469.27 1582.38,493.55 1666,549 C1706.1,575.59 1739.06,620.53 1759.26,652.73 " fill="none" id="AppSettings-to-JpaRepositoryFactory" style="stroke:#A80036;stroke-width:1.0;"/><polygon fill="#A80036" points="1761.9,656.99,1760.5752,647.2307,1759.2731,652.7356,1753.7682,651.4336,1761.9,656.99" style="stroke:#A80036;stroke-width:1.0;"/><text fill="#000000" font-family="sans-serif" font-size="13" lengthAdjust="spacing" textLength="43" x="1651" y="537.4951">creates</text><!--MD5=[64c025371283769589f6ae2398a1561b]
link JpaRepositoryFactory to RepositoryFactory--><path codeLine="85" d="M1764.24,656.93 C1745.61,622.44 1711.98,571.74 1666,549 C1610.7,521.64 1418.09,533.2 1398.5,544 C1352.71,569.24 1326.24,627.39 1313.8,662.83 " fill="none" id="JpaRepositoryFactory-to-RepositoryFactory" style="stroke:#A80036;stroke-width:1.0;"/><polygon fill="#A80036" points="1312.06,667.88,1318.7532,660.655,1313.6754,663.1481,1311.1822,658.0703,1312.06,667.88" style="stroke:#A80036;stroke-width:1.0;"/><text fill="#000000" font-family="sans-serif" font-size="13" lengthAdjust="spacing" textLength="67" x="1399.5" y="537.4951">implements</text><!--MD5=[754b775031405e096442b27febffa290]
link PersistenceContext to RepositoryFactory--><path codeLine="86" d="M1181.68,692 C1198.7,692 1216.94,692 1234.03,692 " fill="none" id="PersistenceContext-to-RepositoryFactory" style="stroke:#A80036;stroke-width:1.0;"/><polygon fill="#A80036" points="1239.29,692,1230.29,688,1234.29,692,1230.29,696,1239.29,692" style="stroke:#A80036;stroke-width:1.0;"/><text fill="#000000" font-family="sans-serif" font-size="13" lengthAdjust="spacing" textLength="21" x="1200" y="685.4951">has</text><!--MD5=[def36b39d987ec0f19436b733c9e071d]
link RepositoryFactory to TeamTypeRepository--><path codeLine="87" d="M1370.8,692 C1408.02,692 1454.82,692 1494.13,692 " fill="none" id="RepositoryFactory-to-TeamTypeRepository" style="stroke:#A80036;stroke-width:1.0;"/><polygon fill="#A80036" points="1499.38,692,1490.38,688,1494.38,692,1490.38,696,1499.38,692" style="stroke:#A80036;stroke-width:1.0;"/><text fill="#000000" font-family="sans-serif" font-size="13" lengthAdjust="spacing" textLength="21" x="1424.5" y="709.4951">has</text><!--MD5=[630e478b419509c8e5de32f1d3c37c00]
link JpaRepositoryFactory to TeamTypeRepository--><path codeLine="89" d="M1705.68,692 C1688.87,692 1670.97,692 1653.98,692 " fill="none" id="JpaRepositoryFactory-to-TeamTypeRepository" style="stroke:#A80036;stroke-width:1.0;"/><polygon fill="#A80036" points="1648.73,692,1657.73,696,1653.73,692,1657.73,688,1648.73,692" style="stroke:#A80036;stroke-width:1.0;"/><text fill="#000000" font-family="sans-serif" font-size="13" lengthAdjust="spacing" textLength="21" x="1666.75" y="685.4951">has</text><text fill="#000000" font-family="sans-serif" font-size="13" lengthAdjust="spacing" textLength="7" x="1690.9212" y="688.7238">1</text><text fill="#000000" font-family="sans-serif" font-size="13" lengthAdjust="spacing" textLength="7" x="1656.4308" y="688.7238">1</text><!--MD5=[d80a855f19d5b32411b1466d36b1c195]
link TeamTypeRepository to TeamTypeRepositoryInterface--><path codeLine="90" d="M1564.91,656.87 C1552.28,616.95 1525.21,552.56 1476,523 C1427.39,493.8 1020.95,517 966,503 C944.79,497.6 922.84,487.46 904.68,477.64 " fill="none" id="TeamTypeRepository-to-TeamTypeRepositoryInterface" style="stroke:#A80036;stroke-width:1.0;stroke-dasharray:7.0,7.0;"/><polygon fill="#A80036" points="900.15,475.15,906.1053,482.9944,904.5302,477.5612,909.9633,475.9861,900.15,475.15" style="stroke:#A80036;stroke-width:1.0;"/><!--MD5=[f0141fb5607b620c622ce4a86c3a46a7]
link TeamTypeRepository to TeamType--><path codeLine="92" d="M1542.22,656.98 C1507.9,621.98 1449.65,570.4 1387,549 C1337.55,532.11 491.13,516.83 446.5,544 C415.43,562.92 396.42,598.97 385.13,630.75 " fill="none" id="TeamTypeRepository-to-TeamType" style="stroke:#A80036;stroke-width:1.0;"/><polygon fill="#A80036" points="383.38,635.82,390.0994,628.6194,385.0126,631.094,382.5379,626.0072,383.38,635.82" style="stroke:#A80036;stroke-width:1.0;"/><text fill="#000000" font-family="sans-serif" font-size="13" lengthAdjust="spacing" textLength="33" x="447.5" y="537.4951">saves</text><text fill="#000000" font-family="sans-serif" font-size="13" lengthAdjust="spacing" textLength="7" x="1528.2743" y="646.0379">1</text><text fill="#000000" font-family="sans-serif" font-size="13" lengthAdjust="spacing" textLength="5" x="379.774" y="625.1446">*</text><!--MD5=[f953ce8ce7462ea72025142944907f6f]
link TeamType to TeamTypeId--><path codeLine="94" d="M401.52,635.85 C422.63,604.18 453.58,567.38 492,549 C532.2,529.76 655.57,519.05 692.5,544 C730.33,569.57 744.12,623.6 749.13,658.82 " fill="none" id="TeamType-to-TeamTypeId" style="stroke:#A80036;stroke-width:1.0;"/><polygon fill="#A80036" points="749.81,663.87,752.5926,654.4224,749.1529,658.9134,744.662,655.4737,749.81,663.87" style="stroke:#A80036;stroke-width:1.0;"/><text fill="#000000" font-family="sans-serif" font-size="13" lengthAdjust="spacing" textLength="21" x="670.5" y="537.4951">has</text><text fill="#000000" font-family="sans-serif" font-size="13" lengthAdjust="spacing" textLength="7" x="398.1101" y="625.1784">1</text><text fill="#000000" font-family="sans-serif" font-size="13" lengthAdjust="spacing" textLength="7" x="741.4942" y="653.029">1</text><!--MD5=[c2e185d9d19204631b6a73befb534b4e]
link TeamType to TeamTypeDescription--><path codeLine="95" d="M447.07,692 C465.56,692 485.38,692 504.08,692 " fill="none" id="TeamType-to-TeamTypeDescription" style="stroke:#A80036;stroke-width:1.0;"/><polygon fill="#A80036" points="509.33,692,500.33,688,504.33,692,500.33,696,509.33,692" style="stroke:#A80036;stroke-width:1.0;"/><text fill="#000000" font-family="sans-serif" font-size="13" lengthAdjust="spacing" textLength="21" x="467.75" y="685.4951">has</text><text fill="#000000" font-family="sans-serif" font-size="13" lengthAdjust="spacing" textLength="7" x="455.0011" y="688.748">1</text><text fill="#000000" font-family="sans-serif" font-size="13" lengthAdjust="spacing" textLength="7" x="494.4383" y="688.7157">1</text><!--MD5=[f59655454420a15676ab22477a966081]
link TeamType to TeamTypeColor--><path codeLine="96" d="M401.56,635.94 C422.69,604.3 453.64,567.51 492,549 C549.88,521.08 572.25,545.11 636.5,544 C707.81,542.77 820.99,547.15 824,549 C863.39,573.2 884.28,624.8 894.23,658.94 " fill="none" id="TeamType-to-TeamTypeColor" style="stroke:#A80036;stroke-width:1.0;"/><polygon fill="#A80036" points="895.62,663.84,897.028,654.0923,894.2634,659.0276,889.3281,656.2629,895.62,663.84" style="stroke:#A80036;stroke-width:1.0;"/><text fill="#000000" font-family="sans-serif" font-size="13" lengthAdjust="spacing" textLength="21" x="637.5" y="537.4951">has</text><text fill="#000000" font-family="sans-serif" font-size="13" lengthAdjust="spacing" textLength="7" x="406.0521" y="625.28">1</text><text fill="#000000" font-family="sans-serif" font-size="13" lengthAdjust="spacing" textLength="7" x="886.3353" y="652.9921">1</text><!--MD5=[d76d9f8386ce8013bd46c02dfa1696fb]
link TeamTypeBuilder to TeamTypeId--><path codeLine="98" d="M213.59,615.21 C228.62,589.49 249.19,563.64 276,549 C339.1,514.53 527.6,544.56 599.5,544 C635.35,543.72 650.32,528.89 680,549 C717.35,574.31 736.28,625.01 745.14,658.73 " fill="none" id="TeamTypeBuilder-to-TeamTypeId" style="stroke:#A80036;stroke-width:1.0;"/><polygon fill="#A80036" points="746.47,663.99,748.1409,654.2839,745.2439,659.1427,740.3852,656.2457,746.47,663.99" style="stroke:#A80036;stroke-width:1.0;"/><text fill="#000000" font-family="sans-serif" font-size="13" lengthAdjust="spacing" textLength="21" x="600.5" y="537.4951">has</text><text fill="#000000" font-family="sans-serif" font-size="13" lengthAdjust="spacing" textLength="7" x="209.3626" y="604.6385">1</text><text fill="#000000" font-family="sans-serif" font-size="13" lengthAdjust="spacing" textLength="7" x="746.0006" y="653.1768">1</text><!--MD5=[34117771ddc7e131bc4f93f24cd2903b]
link TeamTypeBuilder to TeamTypeDescription--><path codeLine="99" d="M213.65,615.33 C228.69,589.62 249.25,563.76 276,549 C321.45,523.93 465.17,517.01 509.5,544 C550.36,568.87 570.35,623.37 579.39,658.84 " fill="none" id="TeamTypeBuilder-to-TeamTypeDescription" style="stroke:#A80036;stroke-width:1.0;"/><polygon fill="#A80036" points="580.64,663.93,582.3646,654.2333,579.4408,659.0759,574.5981,656.1521,580.64,663.93" style="stroke:#A80036;stroke-width:1.0;"/><text fill="#000000" font-family="sans-serif" font-size="13" lengthAdjust="spacing" textLength="21" x="487.5" y="537.4951">has</text><text fill="#000000" font-family="sans-serif" font-size="13" lengthAdjust="spacing" textLength="7" x="217.0955" y="604.7699">1</text><text fill="#000000" font-family="sans-serif" font-size="13" lengthAdjust="spacing" textLength="7" x="571.5911" y="653.1029">1</text><!--MD5=[bc702d776040bb756838d8e1765e79bc]
link TeamTypeBuilder to TeamTypeColor--><path codeLine="100" d="M213.61,615.25 C228.64,589.53 249.21,563.68 276,549 C334.38,517.01 508.94,543.33 575.5,544 C630.73,544.56 776.79,520.33 824,549 C863.51,573 884.37,624.65 894.28,658.86 " fill="none" id="TeamTypeBuilder-to-TeamTypeColor" style="stroke:#A80036;stroke-width:1.0;"/><polygon fill="#A80036" points="895.66,663.77,897.068,654.0223,894.3034,658.9576,889.3681,656.1929,895.66,663.77" style="stroke:#A80036;stroke-width:1.0;"/><text fill="#000000" font-family="sans-serif" font-size="13" lengthAdjust="spacing" textLength="21" x="553.5" y="537.4951">has</text><text fill="#000000" font-family="sans-serif" font-size="13" lengthAdjust="spacing" textLength="7" x="209.3845" y="604.6823">1</text><text fill="#000000" font-family="sans-serif" font-size="13" lengthAdjust="spacing" textLength="7" x="895.0387" y="653.3577">1</text><!--MD5=[b352f628c63a693ea14d014be8798015]
@startuml
skinparam classAttributeIconSize 0

package "base.app.backoffice.console" #AAAAAA {
    package "presentation" #CCCCCC {
        class TeamTypeRegisterUI <<presentation>>{
        }
    }
}

package "base.core" #AAAAAA {
    package "eapli.base" #CCCCCC {
        package infrastructure.persistence #DDDDDD {
            class PersistenceContext <<persistence>>{
                +repositories()
            }

            interface RepositoryFactory{
            }
        }

        package "teamtypemanagement" #CCCCCC{
            package "teamtypemanagement.repositories" #DDDDDD{
                interface TeamTypeRepositoryInterface {
                }
            }

            package "teamtypemanagement.application" #DDDDDD{
                class TeamTypeRegisterController <<application>> {}
            }

            package "teamtypemanagement.domain" #DDDDDD {
                class TeamType <<entity>> {
                    -id
                    -description
                    -color
                    +create(id, description, color)
                }

                class TeamTypeId <<value object>> {
                }

                class TeamTypeDescription <<value object>> {
                }

                class TeamTypeColor <<value object>> {
                }

                class TeamTypeBuilder <<builder>> {
                    -id
                    -description
                    -color
                    +withId(id)
                    +withDescription(description)
                    +withColor(color)
                    +build()
                }
            }
        }

        class AppSettings <<persistence>>{
            +instance()
            +getRepositoryFactory()
        }
    }
}

package "base.persistence.impl" #AAAAAA {
    package "jpa" #CCCCCC {
        class TeamTypeRepository <<repository>>{
            +save(team)
        }

        class JpaRepositoryFactory <<factory>>{
            +teamTypes()
        }

    }
}

TeamTypeRegisterUI ..> TeamTypeRegisterController
TeamTypeRegisterController ..> PersistenceContext
TeamTypeRegisterController ..> TeamTypeBuilder

AppSettings -> JpaRepositoryFactory : creates
JpaRepositoryFactory -> RepositoryFactory : implements
PersistenceContext -> RepositoryFactory : has
RepositoryFactory -> TeamTypeRepository : has

JpaRepositoryFactory "1" -> "1" TeamTypeRepository : has
TeamTypeRepository ..> TeamTypeRepositoryInterface

TeamTypeRepository "1" -> "*" TeamType : saves

TeamType "1" -> "1" TeamTypeId : has
TeamType "1" -> "1" TeamTypeDescription : has
TeamType "1" -> "1" TeamTypeColor : has

TeamTypeBuilder "1" -> "1" TeamTypeId : has
TeamTypeBuilder "1" -> "1" TeamTypeDescription : has
TeamTypeBuilder "1" -> "1" TeamTypeColor : has
@enduml
--></g></svg>