<?xml version="1.0" encoding="UTF-8" standalone="no"?><svg xmlns="http://www.w3.org/2000/svg" xmlns:xlink="http://www.w3.org/1999/xlink" contentScriptType="application/ecmascript" contentStyleType="text/css" height="978px" preserveAspectRatio="none" style="width:1802px;height:978px;" version="1.1" viewBox="0 0 1802 978" width="1802px" zoomAndPan="magnify"><defs><filter height="300%" id="f1867ifrgoox8t" width="300%" x="-1" y="-1"><feGaussianBlur result="blurOut" stdDeviation="2.0"/><feColorMatrix in="blurOut" result="blurOut2" type="matrix" values="0 0 0 0 0 0 0 0 0 0 0 0 0 0 0 0 0 0 .4 0"/><feOffset dx="4.0" dy="4.0" in="blurOut2" result="blurOut3"/><feBlend in="SourceGraphic" in2="blurOut3" mode="normal"/></filter></defs><g><rect fill="#FFFFFF" filter="url(#f1867ifrgoox8t)" height="863.3359" style="stroke:#A80036;stroke-width:1.0;" width="10" x="107.5" y="99.6094"/><rect fill="#FFFFFF" filter="url(#f1867ifrgoox8t)" height="831.9844" style="stroke:#A80036;stroke-width:1.0;" width="10" x="505.5" y="121.9609"/><rect fill="#FFFFFF" filter="url(#f1867ifrgoox8t)" height="131.9219" style="stroke:#A80036;stroke-width:1.0;" width="10" x="757.5" y="162.3125"/><rect fill="#FFFFFF" filter="url(#f1867ifrgoox8t)" height="276.3281" style="stroke:#A80036;stroke-width:1.0;" width="10" x="757.5" y="401.6406"/><rect fill="#FFFFFF" filter="url(#f1867ifrgoox8t)" height="120.7031" style="stroke:#A80036;stroke-width:1.0;" width="10" x="757.5" y="802.8906"/><rect fill="#FFFFFF" filter="url(#f1867ifrgoox8t)" height="30" style="stroke:#A80036;stroke-width:1.0;" width="10" x="1053.5" y="264.2344"/><rect fill="#FFFFFF" filter="url(#f1867ifrgoox8t)" height="30" style="stroke:#A80036;stroke-width:1.0;" width="10" x="1053.5" y="833.2422"/><rect fill="#FFFFFF" filter="url(#f1867ifrgoox8t)" height="30" style="stroke:#A80036;stroke-width:1.0;" width="10" x="1192" y="431.9922"/><rect fill="#FFFFFF" filter="url(#f1867ifrgoox8t)" height="175.625" style="stroke:#A80036;stroke-width:1.0;" width="10" x="1340.5" y="502.3438"/><rect fill="#FFFFFF" filter="url(#f1867ifrgoox8t)" height="30" style="stroke:#A80036;stroke-width:1.0;" width="10" x="1725.5" y="893.5938"/><line style="stroke:#A80036;stroke-width:1.0;stroke-dasharray:5.0,5.0;" x1="112" x2="112" y1="89.6094" y2="971.9453"/><line style="stroke:#A80036;stroke-width:1.0;stroke-dasharray:5.0,5.0;" x1="510" x2="510" y1="89.6094" y2="971.9453"/><line style="stroke:#A80036;stroke-width:1.0;stroke-dasharray:5.0,5.0;" x1="762.5" x2="762.5" y1="172.0703" y2="971.9453"/><line style="stroke:#A80036;stroke-width:1.0;stroke-dasharray:5.0,5.0;" x1="1058.5" x2="1058.5" y1="89.6094" y2="971.9453"/><line style="stroke:#A80036;stroke-width:1.0;stroke-dasharray:5.0,5.0;" x1="1196.5" x2="1196.5" y1="89.6094" y2="971.9453"/><line style="stroke:#A80036;stroke-width:1.0;stroke-dasharray:5.0,5.0;" x1="1345.5" x2="1345.5" y1="512.1016" y2="971.9453"/><line style="stroke:#A80036;stroke-width:1.0;stroke-dasharray:5.0,5.0;" x1="1601.5" x2="1601.5" y1="697.7266" y2="971.9453"/><line style="stroke:#A80036;stroke-width:1.0;stroke-dasharray:5.0,5.0;" x1="1730.5" x2="1730.5" y1="89.6094" y2="971.9453"/><text fill="#000000" font-family="sans-serif" font-size="14" lengthAdjust="spacing" textLength="209" x="5" y="86.5332">Human Resource Representative</text><ellipse cx="112.5" cy="15" fill="#FEFECE" filter="url(#f1867ifrgoox8t)" rx="8" ry="8" style="stroke:#A80036;stroke-width:2.0;"/><path d="M112.5,23 L112.5,50 M99.5,31 L125.5,31 M112.5,50 L99.5,65 M112.5,50 L125.5,65 " fill="none" filter="url(#f1867ifrgoox8t)" style="stroke:#A80036;stroke-width:2.0;"/><rect fill="#FEFECE" filter="url(#f1867ifrgoox8t)" height="49.2188" style="stroke:#A80036;stroke-width:1.5;" width="147" x="435" y="35.3906"/><text fill="#000000" font-family="sans-serif" font-size="14" lengthAdjust="spacing" textLength="111" x="453" y="56.9238">&lt;&lt;presentation&gt;&gt;</text><text fill="#000000" font-family="sans-serif" font-size="14" lengthAdjust="spacing" textLength="133" x="442" y="74.5332">TeamTypeRegisterUI</text><rect fill="#FEFECE" filter="url(#f1867ifrgoox8t)" height="49.2188" style="stroke:#A80036;stroke-width:1.5;" width="106" x="1003.5" y="35.3906"/><text fill="#000000" font-family="sans-serif" font-size="14" lengthAdjust="spacing" textLength="92" x="1010.5" y="56.9238">&lt;&lt;aplication&gt;&gt;</text><text fill="#000000" font-family="sans-serif" font-size="14" lengthAdjust="spacing" textLength="87" x="1013" y="74.5332">AuthzRegistry</text><rect fill="#FEFECE" filter="url(#f1867ifrgoox8t)" height="49.2188" style="stroke:#A80036;stroke-width:1.5;" width="143" x="1123.5" y="35.3906"/><text fill="#000000" font-family="sans-serif" font-size="14" lengthAdjust="spacing" textLength="92" x="1149" y="56.9238">&lt;&lt;aplication&gt;&gt;</text><text fill="#000000" font-family="sans-serif" font-size="14" lengthAdjust="spacing" textLength="129" x="1130.5" y="74.5332">AuthorizationService</text><text fill="#000000" font-family="sans-serif" font-size="14" lengthAdjust="spacing" textLength="95" x="1680" y="68.9238">&lt;&lt;repository&gt;&gt;</text><text fill="#000000" font-family="sans-serif" font-size="14" lengthAdjust="spacing" textLength="136" x="1659.5" y="86.5332">TeamTypeRepository</text><path d="M1712.5,18.3906 C1712.5,8.3906 1730.5,8.3906 1730.5,8.3906 C1730.5,8.3906 1748.5,8.3906 1748.5,18.3906 L1748.5,44.3906 C1748.5,54.3906 1730.5,54.3906 1730.5,54.3906 C1730.5,54.3906 1712.5,54.3906 1712.5,44.3906 L1712.5,18.3906 " fill="#FEFECE" filter="url(#f1867ifrgoox8t)" style="stroke:#000000;stroke-width:1.5;"/><path d="M1712.5,18.3906 C1712.5,28.3906 1730.5,28.3906 1730.5,28.3906 C1730.5,28.3906 1748.5,28.3906 1748.5,18.3906 " fill="none" style="stroke:#000000;stroke-width:1.5;"/><rect fill="#FFFFFF" filter="url(#f1867ifrgoox8t)" height="863.3359" style="stroke:#A80036;stroke-width:1.0;" width="10" x="107.5" y="99.6094"/><rect fill="#FFFFFF" filter="url(#f1867ifrgoox8t)" height="831.9844" style="stroke:#A80036;stroke-width:1.0;" width="10" x="505.5" y="121.9609"/><rect fill="#FFFFFF" filter="url(#f1867ifrgoox8t)" height="131.9219" style="stroke:#A80036;stroke-width:1.0;" width="10" x="757.5" y="162.3125"/><rect fill="#FFFFFF" filter="url(#f1867ifrgoox8t)" height="276.3281" style="stroke:#A80036;stroke-width:1.0;" width="10" x="757.5" y="401.6406"/><rect fill="#FFFFFF" filter="url(#f1867ifrgoox8t)" height="120.7031" style="stroke:#A80036;stroke-width:1.0;" width="10" x="757.5" y="802.8906"/><rect fill="#FFFFFF" filter="url(#f1867ifrgoox8t)" height="30" style="stroke:#A80036;stroke-width:1.0;" width="10" x="1053.5" y="264.2344"/><rect fill="#FFFFFF" filter="url(#f1867ifrgoox8t)" height="30" style="stroke:#A80036;stroke-width:1.0;" width="10" x="1053.5" y="833.2422"/><rect fill="#FFFFFF" filter="url(#f1867ifrgoox8t)" height="30" style="stroke:#A80036;stroke-width:1.0;" width="10" x="1192" y="431.9922"/><rect fill="#FFFFFF" filter="url(#f1867ifrgoox8t)" height="175.625" style="stroke:#A80036;stroke-width:1.0;" width="10" x="1340.5" y="502.3438"/><rect fill="#FFFFFF" filter="url(#f1867ifrgoox8t)" height="30" style="stroke:#A80036;stroke-width:1.0;" width="10" x="1725.5" y="893.5938"/><polygon fill="#A80036" points="493.5,117.9609,503.5,121.9609,493.5,125.9609,497.5,121.9609" style="stroke:#A80036;stroke-width:1.0;"/><line style="stroke:#A80036;stroke-width:1.0;" x1="117.5" x2="499.5" y1="121.9609" y2="121.9609"/><text fill="#000000" font-family="sans-serif" font-size="13" font-weight="bold" lengthAdjust="spacing" textLength="7" x="124.5" y="117.1045">1</text><text fill="#000000" font-family="sans-serif" font-size="13" lengthAdjust="spacing" textLength="242" x="135.5" y="117.1045">initiates the request to create a team type</text><polygon fill="#A80036" points="676.5,148.3125,686.5,152.3125,676.5,156.3125,680.5,152.3125" style="stroke:#A80036;stroke-width:1.0;"/><line style="stroke:#A80036;stroke-width:1.0;" x1="515.5" x2="682.5" y1="152.3125" y2="152.3125"/><text fill="#000000" font-family="sans-serif" font-size="13" font-weight="bold" lengthAdjust="spacing" textLength="7" x="522.5" y="147.4561">2</text><text fill="#000000" font-family="sans-serif" font-size="13" lengthAdjust="spacing" textLength="44" x="533.5" y="147.4561">create()</text><rect fill="#FEFECE" filter="url(#f1867ifrgoox8t)" height="49.2188" style="stroke:#A80036;stroke-width:1.5;" width="144" x="688.5" y="129.9609"/><text fill="#000000" font-family="sans-serif" font-size="14" lengthAdjust="spacing" textLength="92" x="714.5" y="151.4941">&lt;&lt;aplication&gt;&gt;</text><text fill="#000000" font-family="sans-serif" font-size="14" lengthAdjust="spacing" textLength="130" x="695.5" y="169.1035">TeamTypeController</text><rect fill="#FFFFFF" filter="url(#f1867ifrgoox8t)" height="42.7031" style="stroke:#000000;stroke-width:2.0;" width="150" x="685.5" y="194.1797"/><polygon fill="#EEEEEE" points="685.5,194.1797,747.5,194.1797,747.5,202.1797,737.5,212.1797,685.5,212.1797,685.5,194.1797" style="stroke:#000000;stroke-width:2.0;"/><text fill="#000000" font-family="sans-serif" font-size="13" font-weight="bold" lengthAdjust="spacing" textLength="17" x="698.5" y="209.6748">ref</text><text fill="#000000" font-family="sans-serif" font-size="13" lengthAdjust="spacing" textLength="123" x="701" y="229.6748">US-1-2054_SD_Repo</text><polygon fill="#A80036" points="1041.5,260.2344,1051.5,264.2344,1041.5,268.2344,1045.5,264.2344" style="stroke:#A80036;stroke-width:1.0;"/><line style="stroke:#A80036;stroke-width:1.0;" x1="767.5" x2="1047.5" y1="264.2344" y2="264.2344"/><text fill="#000000" font-family="sans-serif" font-size="13" font-weight="bold" lengthAdjust="spacing" textLength="7" x="774.5" y="259.3779">3</text><text fill="#000000" font-family="sans-serif" font-size="13" lengthAdjust="spacing" textLength="256" x="785.5" y="259.3779">authorizationService = authorizationService()</text><polygon fill="#A80036" points="128.5,336.9375,118.5,340.9375,128.5,344.9375,124.5,340.9375" style="stroke:#A80036;stroke-width:1.0;"/><line style="stroke:#A80036;stroke-width:1.0;stroke-dasharray:2.0,2.0;" x1="122.5" x2="504.5" y1="340.9375" y2="340.9375"/><text fill="#000000" font-family="sans-serif" font-size="13" font-weight="bold" lengthAdjust="spacing" textLength="7" x="134.5" y="327.9053">4</text><text fill="#000000" font-family="sans-serif" font-size="13" lengthAdjust="spacing" textLength="206" x="145.5" y="319.7295">requests all the required information</text><text fill="#000000" font-family="sans-serif" font-size="13" lengthAdjust="spacing" textLength="185" x="149.5" y="336.0811">(i.e. identifier, description, color)</text><polygon fill="#A80036" points="493.5,367.2891,503.5,371.2891,493.5,375.2891,497.5,371.2891" style="stroke:#A80036;stroke-width:1.0;"/><line style="stroke:#A80036;stroke-width:1.0;" x1="117.5" x2="499.5" y1="371.2891" y2="371.2891"/><text fill="#000000" font-family="sans-serif" font-size="13" font-weight="bold" lengthAdjust="spacing" textLength="7" x="124.5" y="366.4326">5</text><text fill="#000000" font-family="sans-serif" font-size="13" lengthAdjust="spacing" textLength="189" x="135.5" y="366.4326">inserts the requested information</text><polygon fill="#A80036" points="745.5,397.6406,755.5,401.6406,745.5,405.6406,749.5,401.6406" style="stroke:#A80036;stroke-width:1.0;"/><line style="stroke:#A80036;stroke-width:1.0;" x1="515.5" x2="751.5" y1="401.6406" y2="401.6406"/><text fill="#000000" font-family="sans-serif" font-size="13" font-weight="bold" lengthAdjust="spacing" textLength="7" x="522.5" y="396.7842">6</text><text fill="#000000" font-family="sans-serif" font-size="13" lengthAdjust="spacing" textLength="212" x="533.5" y="396.7842">buildTeamType(id, description, color)</text><polygon fill="#A80036" points="1180,427.9922,1190,431.9922,1180,435.9922,1184,431.9922" style="stroke:#A80036;stroke-width:1.0;"/><line style="stroke:#A80036;stroke-width:1.0;" x1="767.5" x2="1186" y1="431.9922" y2="431.9922"/><text fill="#000000" font-family="sans-serif" font-size="13" font-weight="bold" lengthAdjust="spacing" textLength="7" x="774.5" y="427.1357">7</text><text fill="#000000" font-family="sans-serif" font-size="13" lengthAdjust="spacing" textLength="234" x="785.5" y="427.1357">ensureAuthenticatedUserHasAnyOf(role)</text><polygon fill="#A80036" points="1268.5,488.3438,1278.5,492.3438,1268.5,496.3438,1272.5,492.3438" style="stroke:#A80036;stroke-width:1.0;"/><line style="stroke:#A80036;stroke-width:1.0;" x1="767.5" x2="1274.5" y1="492.3438" y2="492.3438"/><text fill="#000000" font-family="sans-serif" font-size="13" font-weight="bold" lengthAdjust="spacing" textLength="7" x="774.5" y="487.4873">8</text><text fill="#000000" font-family="sans-serif" font-size="13" lengthAdjust="spacing" textLength="117" x="785.5" y="487.4873">teamType = create()</text><rect fill="#FEFECE" filter="url(#f1867ifrgoox8t)" height="49.2188" style="stroke:#A80036;stroke-width:1.5;" width="126" x="1280.5" y="469.9922"/><text fill="#000000" font-family="sans-serif" font-size="14" lengthAdjust="spacing" textLength="75" x="1306" y="491.5254">&lt;&lt;builder&gt;&gt;</text><text fill="#000000" font-family="sans-serif" font-size="14" lengthAdjust="spacing" textLength="112" x="1287.5" y="509.1348">TeamTypeBuilder</text><polygon fill="#A80036" points="1328.5,552.5625,1338.5,556.5625,1328.5,560.5625,1332.5,556.5625" style="stroke:#A80036;stroke-width:1.0;"/><line style="stroke:#A80036;stroke-width:1.0;" x1="767.5" x2="1334.5" y1="556.5625" y2="556.5625"/><text fill="#000000" font-family="sans-serif" font-size="13" font-weight="bold" lengthAdjust="spacing" textLength="7" x="774.5" y="551.7061">9</text><text fill="#000000" font-family="sans-serif" font-size="13" lengthAdjust="spacing" textLength="51" x="785.5" y="551.7061">withId(id)</text><polygon fill="#A80036" points="1328.5,582.9141,1338.5,586.9141,1328.5,590.9141,1332.5,586.9141" style="stroke:#A80036;stroke-width:1.0;"/><line style="stroke:#A80036;stroke-width:1.0;" x1="767.5" x2="1334.5" y1="586.9141" y2="586.9141"/><text fill="#000000" font-family="sans-serif" font-size="13" font-weight="bold" lengthAdjust="spacing" textLength="14" x="774.5" y="582.0576">10</text><text fill="#000000" font-family="sans-serif" font-size="13" lengthAdjust="spacing" textLength="159" x="792.5" y="582.0576">withDescription(description)</text><polygon fill="#A80036" points="1328.5,613.2656,1338.5,617.2656,1328.5,621.2656,1332.5,617.2656" style="stroke:#A80036;stroke-width:1.0;"/><line style="stroke:#A80036;stroke-width:1.0;" x1="767.5" x2="1334.5" y1="617.2656" y2="617.2656"/><text fill="#000000" font-family="sans-serif" font-size="13" font-weight="bold" lengthAdjust="spacing" textLength="14" x="774.5" y="612.4092">11</text><text fill="#000000" font-family="sans-serif" font-size="13" lengthAdjust="spacing" textLength="89" x="792.5" y="612.4092">withColor(color)</text><polygon fill="#A80036" points="1328.5,643.6172,1338.5,647.6172,1328.5,651.6172,1332.5,647.6172" style="stroke:#A80036;stroke-width:1.0;"/><line style="stroke:#A80036;stroke-width:1.0;" x1="767.5" x2="1334.5" y1="647.6172" y2="647.6172"/><text fill="#000000" font-family="sans-serif" font-size="13" font-weight="bold" lengthAdjust="spacing" textLength="14" x="774.5" y="642.7607">12</text><text fill="#000000" font-family="sans-serif" font-size="13" lengthAdjust="spacing" textLength="35" x="792.5" y="642.7607">build()</text><polygon fill="#A80036" points="1541.5,673.9688,1551.5,677.9688,1541.5,681.9688,1545.5,677.9688" style="stroke:#A80036;stroke-width:1.0;"/><line style="stroke:#A80036;stroke-width:1.0;" x1="1345.5" x2="1547.5" y1="677.9688" y2="677.9688"/><text fill="#000000" font-family="sans-serif" font-size="13" font-weight="bold" lengthAdjust="spacing" textLength="14" x="1352.5" y="673.1123">13</text><text fill="#000000" font-family="sans-serif" font-size="13" lengthAdjust="spacing" textLength="161" x="1370.5" y="673.1123">create(id, description, color)</text><rect fill="#FEFECE" filter="url(#f1867ifrgoox8t)" height="49.2188" style="stroke:#A80036;stroke-width:1.5;" width="92" x="1553.5" y="655.6172"/><text fill="#000000" font-family="sans-serif" font-size="14" lengthAdjust="spacing" textLength="78" x="1560.5" y="677.1504">&lt;&lt;domain&gt;&gt;</text><text fill="#000000" font-family="sans-serif" font-size="14" lengthAdjust="spacing" textLength="68" x="1565.5" y="694.7598">TeamType</text><polygon fill="#A80036" points="128.5,738.1875,118.5,742.1875,128.5,746.1875,124.5,742.1875" style="stroke:#A80036;stroke-width:1.0;"/><line style="stroke:#A80036;stroke-width:1.0;stroke-dasharray:2.0,2.0;" x1="122.5" x2="504.5" y1="742.1875" y2="742.1875"/><text fill="#000000" font-family="sans-serif" font-size="13" font-weight="bold" lengthAdjust="spacing" textLength="14" x="134.5" y="737.3311">14</text><text fill="#000000" font-family="sans-serif" font-size="13" lengthAdjust="spacing" textLength="346" x="152.5" y="737.3311">validates, presents the information and asks for confirmation</text><polygon fill="#A80036" points="493.5,768.5391,503.5,772.5391,493.5,776.5391,497.5,772.5391" style="stroke:#A80036;stroke-width:1.0;"/><line style="stroke:#A80036;stroke-width:1.0;" x1="117.5" x2="499.5" y1="772.5391" y2="772.5391"/><text fill="#000000" font-family="sans-serif" font-size="13" font-weight="bold" lengthAdjust="spacing" textLength="14" x="124.5" y="767.6826">15</text><text fill="#000000" font-family="sans-serif" font-size="13" lengthAdjust="spacing" textLength="49" x="142.5" y="767.6826">confirms</text><polygon fill="#A80036" points="745.5,798.8906,755.5,802.8906,745.5,806.8906,749.5,802.8906" style="stroke:#A80036;stroke-width:1.0;"/><line style="stroke:#A80036;stroke-width:1.0;" x1="515.5" x2="751.5" y1="802.8906" y2="802.8906"/><text fill="#000000" font-family="sans-serif" font-size="13" font-weight="bold" lengthAdjust="spacing" textLength="14" x="522.5" y="798.0342">16</text><text fill="#000000" font-family="sans-serif" font-size="13" lengthAdjust="spacing" textLength="111" x="540.5" y="798.0342">registerTeamType()</text><polygon fill="#A80036" points="1041.5,829.2422,1051.5,833.2422,1041.5,837.2422,1045.5,833.2422" style="stroke:#A80036;stroke-width:1.0;"/><line style="stroke:#A80036;stroke-width:1.0;" x1="767.5" x2="1047.5" y1="833.2422" y2="833.2422"/><text fill="#000000" font-family="sans-serif" font-size="13" font-weight="bold" lengthAdjust="spacing" textLength="14" x="774.5" y="828.3857">17</text><text fill="#000000" font-family="sans-serif" font-size="13" lengthAdjust="spacing" textLength="234" x="792.5" y="828.3857">ensureAuthenticatedUserHasAnyOf(role)</text><polygon fill="#A80036" points="1713.5,889.5938,1723.5,893.5938,1713.5,897.5938,1717.5,893.5938" style="stroke:#A80036;stroke-width:1.0;"/><line style="stroke:#A80036;stroke-width:1.0;" x1="767.5" x2="1719.5" y1="893.5938" y2="893.5938"/><text fill="#000000" font-family="sans-serif" font-size="13" font-weight="bold" lengthAdjust="spacing" textLength="14" x="774.5" y="888.7373">18</text><text fill="#000000" font-family="sans-serif" font-size="13" lengthAdjust="spacing" textLength="91" x="792.5" y="888.7373">save(teamType)</text><polygon fill="#A80036" points="128.5,949.9453,118.5,953.9453,128.5,957.9453,124.5,953.9453" style="stroke:#A80036;stroke-width:1.0;"/><line style="stroke:#A80036;stroke-width:1.0;stroke-dasharray:2.0,2.0;" x1="122.5" x2="509.5" y1="953.9453" y2="953.9453"/><text fill="#000000" font-family="sans-serif" font-size="13" font-weight="bold" lengthAdjust="spacing" textLength="14" x="134.5" y="949.0889">19</text><text fill="#000000" font-family="sans-serif" font-size="13" lengthAdjust="spacing" textLength="224" x="152.5" y="949.0889">informs of the success of the operation</text><!--MD5=[ecc474c29a2bc38146914355c5ead178]
@startuml
autonumber
hide footbox

actor "Human Resource Representative" as HRR

participant "<<presentation>>\nTeamTypeRegisterUI" as UI
participant "<<aplication>>\nTeamTypeController" as CTRL
participant "<<aplication>>\nAuthzRegistry" as AUTHR
participant "<<aplication>>\nAuthorizationService" as AUTH
participant "<<builder>>\nTeamTypeBuilder" as TTB
participant "<<domain>>\nTeamType" as TT
database "<<repository>>\nTeamTypeRepository" as TTR

activate HRR
HRR -> UI : initiates the request to create a team type

activate UI
UI -> CTRL** : create()

activate CTRL
ref over CTRL
US-1-2054_SD_Repo
end ref

CTRL -> AUTHR : authorizationService = authorizationService()
activate AUTHR
deactivate AUTHR
deactivate CTRL

UI - -> HRR : requests all the required information \n (i.e. identifier, description, color)
HRR -> UI : inserts the requested information
UI -> CTRL : buildTeamType(id, description, color)

activate CTRL
CTRL -> AUTH : ensureAuthenticatedUserHasAnyOf(role)
activate AUTH
deactivate AUTH

CTRL -> TTB** : teamType = create()

activate TTB
CTRL -> TTB : withId(id)
CTRL -> TTB : withDescription(description)
CTRL -> TTB : withColor(color)
CTRL -> TTB : build()

TTB -> TT** : create(id, description, color)
deactivate TTB
deactivate CTRL

UI - -> HRR : validates, presents the information and asks for confirmation
HRR -> UI : confirms
UI -> CTRL : registerTeamType()

activate CTRL
CTRL -> AUTHR : ensureAuthenticatedUserHasAnyOf(role)
activate AUTHR
deactivate AUTHR

CTRL -> TTR : save(teamType)
activate TTR
deactivate TTR
deactivate CTRL

UI - -> HRR: informs of the success of the operation
deactivate UI
@enduml
--></g></svg>