<?xml version="1.0" encoding="UTF-8" standalone="no"?><svg xmlns="http://www.w3.org/2000/svg" xmlns:xlink="http://www.w3.org/1999/xlink" contentScriptType="application/ecmascript" contentStyleType="text/css" height="917px" preserveAspectRatio="none" style="width:588px;height:917px;" version="1.1" viewBox="0 0 588 917" width="588px" zoomAndPan="magnify"><defs><filter height="300%" id="f100rd8yff4asb" width="300%" x="-1" y="-1"><feGaussianBlur result="blurOut" stdDeviation="2.0"/><feColorMatrix in="blurOut" result="blurOut2" type="matrix" values="0 0 0 0 0 0 0 0 0 0 0 0 0 0 0 0 0 0 .4 0"/><feOffset dx="4.0" dy="4.0" in="blurOut2" result="blurOut3"/><feBlend in="SourceGraphic" in2="blurOut3" mode="normal"/></filter></defs><g><rect fill="#FFFFFF" filter="url(#f100rd8yff4asb)" height="793.3281" style="stroke:#A80036;stroke-width:1.0;" width="10" x="129" y="99.6094"/><rect fill="#FFFFFF" filter="url(#f100rd8yff4asb)" height="30.3516" style="stroke:#A80036;stroke-width:1.0;" width="10" x="505" y="121.9609"/><rect fill="#FFFFFF" filter="url(#f100rd8yff4asb)" height="55.7031" style="stroke:#A80036;stroke-width:1.0;" width="10" x="505" y="182.6641"/><rect fill="#FFFFFF" filter="url(#f100rd8yff4asb)" height="62.7031" style="stroke:#A80036;stroke-width:1.0;" width="10" x="505" y="268.7188"/><rect fill="#FFFFFF" filter="url(#f100rd8yff4asb)" height="30.3516" style="stroke:#A80036;stroke-width:1.0;" width="10" x="505" y="361.7734"/><rect fill="#FFFFFF" filter="url(#f100rd8yff4asb)" height="81.0547" style="stroke:#A80036;stroke-width:1.0;" width="10" x="505" y="422.4766"/><rect fill="#FFFFFF" filter="url(#f100rd8yff4asb)" height="30.3516" style="stroke:#A80036;stroke-width:1.0;" width="10" x="505" y="533.8828"/><rect fill="#FFFFFF" filter="url(#f100rd8yff4asb)" height="53.1875" style="stroke:#A80036;stroke-width:1.0;" width="10" x="505" y="594.5859"/><rect fill="#FFFFFF" filter="url(#f100rd8yff4asb)" height="53.7031" style="stroke:#A80036;stroke-width:1.0;" width="10" x="505" y="678.125"/><rect fill="#FFFFFF" filter="url(#f100rd8yff4asb)" height="53.7031" style="stroke:#A80036;stroke-width:1.0;" width="10" x="505" y="762.1797"/><rect fill="#FFFFFF" filter="url(#f100rd8yff4asb)" height="46.7031" style="stroke:#A80036;stroke-width:1.0;" width="10" x="505" y="846.2344"/><rect fill="#FFFFFF" filter="url(#f100rd8yff4asb)" height="79.0547" style="stroke:#000000;stroke-width:2.0;" width="524" x="30" y="197.6641"/><rect fill="#FFFFFF" filter="url(#f100rd8yff4asb)" height="479.4609" style="stroke:#000000;stroke-width:2.0;" width="564" x="10" y="290.7188"/><rect fill="#FFFFFF" filter="url(#f100rd8yff4asb)" height="248.6484" style="stroke:#000000;stroke-width:2.0;" width="544" x="20" y="437.4766"/><rect fill="#FFFFFF" filter="url(#f100rd8yff4asb)" height="139.7578" style="stroke:#000000;stroke-width:2.0;" width="524" x="30" y="462.8281"/><rect fill="#FFFFFF" height="76.5391" style="stroke:none;stroke-width:1.0;" width="544" x="20" y="609.5859"/><line style="stroke:#A80036;stroke-width:1.0;stroke-dasharray:5.0,5.0;" x1="134" x2="134" y1="89.6094" y2="910.9375"/><line style="stroke:#A80036;stroke-width:1.0;stroke-dasharray:5.0,5.0;" x1="510" x2="510" y1="89.6094" y2="910.9375"/><text fill="#000000" font-family="sans-serif" font-size="14" lengthAdjust="spacing" textLength="182" x="40" y="86.5332">Help Desk Services Manager</text><ellipse cx="134" cy="15" fill="#FEFECE" filter="url(#f100rd8yff4asb)" rx="8" ry="8" style="stroke:#A80036;stroke-width:2.0;"/><path d="M134,23 L134,50 M121,31 L147,31 M134,50 L121,65 M134,50 L147,65 " fill="none" filter="url(#f100rd8yff4asb)" style="stroke:#A80036;stroke-width:2.0;"/><rect fill="#FEFECE" filter="url(#f100rd8yff4asb)" height="31.6094" style="stroke:#A80036;stroke-width:1.5;" width="64" x="476" y="53"/><text fill="#000000" font-family="sans-serif" font-size="14" lengthAdjust="spacing" textLength="50" x="483" y="74.5332">:System</text><rect fill="#FFFFFF" filter="url(#f100rd8yff4asb)" height="793.3281" style="stroke:#A80036;stroke-width:1.0;" width="10" x="129" y="99.6094"/><rect fill="#FFFFFF" filter="url(#f100rd8yff4asb)" height="30.3516" style="stroke:#A80036;stroke-width:1.0;" width="10" x="505" y="121.9609"/><rect fill="#FFFFFF" filter="url(#f100rd8yff4asb)" height="55.7031" style="stroke:#A80036;stroke-width:1.0;" width="10" x="505" y="182.6641"/><rect fill="#FFFFFF" filter="url(#f100rd8yff4asb)" height="62.7031" style="stroke:#A80036;stroke-width:1.0;" width="10" x="505" y="268.7188"/><rect fill="#FFFFFF" filter="url(#f100rd8yff4asb)" height="30.3516" style="stroke:#A80036;stroke-width:1.0;" width="10" x="505" y="361.7734"/><rect fill="#FFFFFF" filter="url(#f100rd8yff4asb)" height="81.0547" style="stroke:#A80036;stroke-width:1.0;" width="10" x="505" y="422.4766"/><rect fill="#FFFFFF" filter="url(#f100rd8yff4asb)" height="30.3516" style="stroke:#A80036;stroke-width:1.0;" width="10" x="505" y="533.8828"/><rect fill="#FFFFFF" filter="url(#f100rd8yff4asb)" height="53.1875" style="stroke:#A80036;stroke-width:1.0;" width="10" x="505" y="594.5859"/><rect fill="#FFFFFF" filter="url(#f100rd8yff4asb)" height="53.7031" style="stroke:#A80036;stroke-width:1.0;" width="10" x="505" y="678.125"/><rect fill="#FFFFFF" filter="url(#f100rd8yff4asb)" height="53.7031" style="stroke:#A80036;stroke-width:1.0;" width="10" x="505" y="762.1797"/><rect fill="#FFFFFF" filter="url(#f100rd8yff4asb)" height="46.7031" style="stroke:#A80036;stroke-width:1.0;" width="10" x="505" y="846.2344"/><polygon fill="#A80036" points="493,117.9609,503,121.9609,493,125.9609,497,121.9609" style="stroke:#A80036;stroke-width:1.0;"/><line style="stroke:#A80036;stroke-width:1.0;" x1="139" x2="499" y1="121.9609" y2="121.9609"/><text fill="#000000" font-family="sans-serif" font-size="13" font-weight="bold" lengthAdjust="spacing" textLength="7" x="146" y="117.1045">1</text><text fill="#000000" font-family="sans-serif" font-size="13" lengthAdjust="spacing" textLength="333" x="157" y="117.1045">initiates the request to add/update a field in a service draft</text><polygon fill="#A80036" points="150,148.3125,140,152.3125,150,156.3125,146,152.3125" style="stroke:#A80036;stroke-width:1.0;"/><line style="stroke:#A80036;stroke-width:1.0;" x1="144" x2="509" y1="152.3125" y2="152.3125"/><text fill="#000000" font-family="sans-serif" font-size="13" font-weight="bold" lengthAdjust="spacing" textLength="7" x="156" y="147.4561">2</text><text fill="#000000" font-family="sans-serif" font-size="13" lengthAdjust="spacing" textLength="279" x="167" y="147.4561">asks if the user pretends to use an existing draft</text><polygon fill="#A80036" points="493,178.6641,503,182.6641,493,186.6641,497,182.6641" style="stroke:#A80036;stroke-width:1.0;"/><line style="stroke:#A80036;stroke-width:1.0;" x1="139" x2="499" y1="182.6641" y2="182.6641"/><text fill="#000000" font-family="sans-serif" font-size="13" font-weight="bold" lengthAdjust="spacing" textLength="7" x="146" y="177.8076">3</text><text fill="#000000" font-family="sans-serif" font-size="13" lengthAdjust="spacing" textLength="53" x="157" y="177.8076">responds</text><path d="M30,197.6641 L91,197.6641 L91,205.6641 L81,215.6641 L30,215.6641 L30,197.6641 " fill="#EEEEEE" style="stroke:#000000;stroke-width:1.0;"/><rect fill="none" height="79.0547" style="stroke:#000000;stroke-width:2.0;" width="524" x="30" y="197.6641"/><text fill="#000000" font-family="sans-serif" font-size="13" font-weight="bold" lengthAdjust="spacing" textLength="16" x="45" y="212.1592">alt</text><text fill="#000000" font-family="sans-serif" font-size="11" font-weight="bold" lengthAdjust="spacing" textLength="249" x="106" y="211.083">[if the user pretends to use an existing draft]</text><polygon fill="#A80036" points="150,234.3672,140,238.3672,150,242.3672,146,238.3672" style="stroke:#A80036;stroke-width:1.0;"/><line style="stroke:#A80036;stroke-width:1.0;" x1="144" x2="509" y1="238.3672" y2="238.3672"/><text fill="#000000" font-family="sans-serif" font-size="13" font-weight="bold" lengthAdjust="spacing" textLength="7" x="156" y="233.5107">4</text><text fill="#000000" font-family="sans-serif" font-size="13" lengthAdjust="spacing" textLength="331" x="167" y="233.5107">presents the draft list and asks the user to choose a draft</text><polygon fill="#A80036" points="493,264.7188,503,268.7188,493,272.7188,497,268.7188" style="stroke:#A80036;stroke-width:1.0;"/><line style="stroke:#A80036;stroke-width:1.0;" x1="139" x2="499" y1="268.7188" y2="268.7188"/><text fill="#000000" font-family="sans-serif" font-size="13" font-weight="bold" lengthAdjust="spacing" textLength="7" x="146" y="263.8623">5</text><text fill="#000000" font-family="sans-serif" font-size="13" lengthAdjust="spacing" textLength="89" x="157" y="263.8623">chooses a draft</text><path d="M10,290.7188 L83,290.7188 L83,298.7188 L73,308.7188 L10,308.7188 L10,290.7188 " fill="#EEEEEE" style="stroke:#000000;stroke-width:1.0;"/><rect fill="none" height="479.4609" style="stroke:#000000;stroke-width:2.0;" width="564" x="10" y="290.7188"/><text fill="#000000" font-family="sans-serif" font-size="13" font-weight="bold" lengthAdjust="spacing" textLength="28" x="25" y="305.2139">loop</text><text fill="#000000" font-family="sans-serif" font-size="11" font-weight="bold" lengthAdjust="spacing" textLength="261" x="98" y="304.1377">[until the user doesn't want to add more fields]</text><polygon fill="#A80036" points="150,327.4219,140,331.4219,150,335.4219,146,331.4219" style="stroke:#A80036;stroke-width:1.0;"/><line style="stroke:#A80036;stroke-width:1.0;" x1="144" x2="509" y1="331.4219" y2="331.4219"/><text fill="#000000" font-family="sans-serif" font-size="13" font-weight="bold" lengthAdjust="spacing" textLength="7" x="156" y="326.5654">6</text><text fill="#000000" font-family="sans-serif" font-size="13" lengthAdjust="spacing" textLength="305" x="167" y="326.5654">asks which field does the user pretend to add/update</text><polygon fill="#A80036" points="493,357.7734,503,361.7734,493,365.7734,497,361.7734" style="stroke:#A80036;stroke-width:1.0;"/><line style="stroke:#A80036;stroke-width:1.0;" x1="139" x2="499" y1="361.7734" y2="361.7734"/><text fill="#000000" font-family="sans-serif" font-size="13" font-weight="bold" lengthAdjust="spacing" textLength="7" x="146" y="356.917">7</text><text fill="#000000" font-family="sans-serif" font-size="13" lengthAdjust="spacing" textLength="98" x="157" y="356.917">chooses the field</text><polygon fill="#A80036" points="150,388.125,140,392.125,150,396.125,146,392.125" style="stroke:#A80036;stroke-width:1.0;"/><line style="stroke:#A80036;stroke-width:1.0;" x1="144" x2="509" y1="392.125" y2="392.125"/><text fill="#000000" font-family="sans-serif" font-size="13" font-weight="bold" lengthAdjust="spacing" textLength="7" x="156" y="387.2686">8</text><text fill="#000000" font-family="sans-serif" font-size="13" lengthAdjust="spacing" textLength="201" x="167" y="387.2686">requests the user to insert the field</text><polygon fill="#A80036" points="493,418.4766,503,422.4766,493,426.4766,497,422.4766" style="stroke:#A80036;stroke-width:1.0;"/><line style="stroke:#A80036;stroke-width:1.0;" x1="139" x2="499" y1="422.4766" y2="422.4766"/><text fill="#000000" font-family="sans-serif" font-size="13" font-weight="bold" lengthAdjust="spacing" textLength="7" x="146" y="417.6201">9</text><text fill="#000000" font-family="sans-serif" font-size="13" lengthAdjust="spacing" textLength="91" x="157" y="417.6201">selects the field</text><path d="M20,437.4766 L81,437.4766 L81,445.4766 L71,455.4766 L20,455.4766 L20,437.4766 " fill="#EEEEEE" style="stroke:#000000;stroke-width:1.0;"/><rect fill="none" height="248.6484" style="stroke:#000000;stroke-width:2.0;" width="544" x="20" y="437.4766"/><text fill="#000000" font-family="sans-serif" font-size="13" font-weight="bold" lengthAdjust="spacing" textLength="16" x="35" y="451.9717">alt</text><text fill="#000000" font-family="sans-serif" font-size="11" font-weight="bold" lengthAdjust="spacing" textLength="212" x="96" y="450.8955">[if the user chooses to add keywords]</text><path d="M30,462.8281 L103,462.8281 L103,470.8281 L93,480.8281 L30,480.8281 L30,462.8281 " fill="#EEEEEE" style="stroke:#000000;stroke-width:1.0;"/><rect fill="none" height="139.7578" style="stroke:#000000;stroke-width:2.0;" width="524" x="30" y="462.8281"/><text fill="#000000" font-family="sans-serif" font-size="13" font-weight="bold" lengthAdjust="spacing" textLength="28" x="45" y="477.3232">loop</text><text fill="#000000" font-family="sans-serif" font-size="11" font-weight="bold" lengthAdjust="spacing" textLength="224" x="118" y="476.2471">[until there is no more keywords to add]</text><polygon fill="#A80036" points="150,499.5313,140,503.5313,150,507.5313,146,503.5313" style="stroke:#A80036;stroke-width:1.0;"/><line style="stroke:#A80036;stroke-width:1.0;" x1="144" x2="509" y1="503.5313" y2="503.5313"/><text fill="#000000" font-family="sans-serif" font-size="13" font-weight="bold" lengthAdjust="spacing" textLength="14" x="156" y="498.6748">10</text><text fill="#000000" font-family="sans-serif" font-size="13" lengthAdjust="spacing" textLength="226" x="174" y="498.6748">requests the user to insert the keyword</text><polygon fill="#A80036" points="493,529.8828,503,533.8828,493,537.8828,497,533.8828" style="stroke:#A80036;stroke-width:1.0;"/><line style="stroke:#A80036;stroke-width:1.0;" x1="139" x2="499" y1="533.8828" y2="533.8828"/><text fill="#000000" font-family="sans-serif" font-size="13" font-weight="bold" lengthAdjust="spacing" textLength="14" x="146" y="529.0264">11</text><text fill="#000000" font-family="sans-serif" font-size="13" lengthAdjust="spacing" textLength="113" x="164" y="529.0264">inserts the keyword</text><polygon fill="#A80036" points="150,560.2344,140,564.2344,150,568.2344,146,564.2344" style="stroke:#A80036;stroke-width:1.0;"/><line style="stroke:#A80036;stroke-width:1.0;" x1="144" x2="509" y1="564.2344" y2="564.2344"/><text fill="#000000" font-family="sans-serif" font-size="13" font-weight="bold" lengthAdjust="spacing" textLength="14" x="156" y="559.3779">12</text><text fill="#000000" font-family="sans-serif" font-size="13" lengthAdjust="spacing" textLength="259" x="174" y="559.3779">asks if the user wants to add more keywords</text><polygon fill="#A80036" points="493,590.5859,503,594.5859,493,598.5859,497,594.5859" style="stroke:#A80036;stroke-width:1.0;"/><line style="stroke:#A80036;stroke-width:1.0;" x1="139" x2="499" y1="594.5859" y2="594.5859"/><text fill="#000000" font-family="sans-serif" font-size="13" font-weight="bold" lengthAdjust="spacing" textLength="14" x="146" y="589.7295">13</text><text fill="#000000" font-family="sans-serif" font-size="13" lengthAdjust="spacing" textLength="53" x="164" y="589.7295">responds</text><line style="stroke:#000000;stroke-width:1.0;stroke-dasharray:2.0,2.0;" x1="20" x2="564" y1="610.5859" y2="610.5859"/><text fill="#000000" font-family="sans-serif" font-size="11" font-weight="bold" lengthAdjust="spacing" textLength="212" x="25" y="622.0049">[if the user chooses to any other field]</text><polygon fill="#A80036" points="150,643.7734,140,647.7734,150,651.7734,146,647.7734" style="stroke:#A80036;stroke-width:1.0;"/><line style="stroke:#A80036;stroke-width:1.0;" x1="144" x2="509" y1="647.7734" y2="647.7734"/><text fill="#000000" font-family="sans-serif" font-size="13" font-weight="bold" lengthAdjust="spacing" textLength="14" x="156" y="642.917">14</text><text fill="#000000" font-family="sans-serif" font-size="13" lengthAdjust="spacing" textLength="226" x="174" y="642.917">requests the user to insert the keyword</text><polygon fill="#A80036" points="493,674.125,503,678.125,493,682.125,497,678.125" style="stroke:#A80036;stroke-width:1.0;"/><line style="stroke:#A80036;stroke-width:1.0;" x1="139" x2="499" y1="678.125" y2="678.125"/><text fill="#000000" font-family="sans-serif" font-size="13" font-weight="bold" lengthAdjust="spacing" textLength="14" x="146" y="673.2686">15</text><text fill="#000000" font-family="sans-serif" font-size="13" lengthAdjust="spacing" textLength="91" x="164" y="673.2686">selects the field</text><polygon fill="#A80036" points="150,727.8281,140,731.8281,150,735.8281,146,731.8281" style="stroke:#A80036;stroke-width:1.0;"/><line style="stroke:#A80036;stroke-width:1.0;" x1="144" x2="509" y1="731.8281" y2="731.8281"/><text fill="#000000" font-family="sans-serif" font-size="13" font-weight="bold" lengthAdjust="spacing" textLength="14" x="156" y="718.7959">16</text><text fill="#000000" font-family="sans-serif" font-size="13" lengthAdjust="spacing" textLength="172" x="174" y="710.6201">saves the field in the draft and</text><text fill="#000000" font-family="sans-serif" font-size="13" lengthAdjust="spacing" textLength="192" x="178" y="726.9717">asks if there is more fields to add</text><polygon fill="#A80036" points="493,758.1797,503,762.1797,493,766.1797,497,762.1797" style="stroke:#A80036;stroke-width:1.0;"/><line style="stroke:#A80036;stroke-width:1.0;" x1="139" x2="499" y1="762.1797" y2="762.1797"/><text fill="#000000" font-family="sans-serif" font-size="13" font-weight="bold" lengthAdjust="spacing" textLength="14" x="146" y="757.3232">17</text><text fill="#000000" font-family="sans-serif" font-size="13" lengthAdjust="spacing" textLength="53" x="164" y="757.3232">responds</text><polygon fill="#A80036" points="150,811.8828,140,815.8828,150,819.8828,146,815.8828" style="stroke:#A80036;stroke-width:1.0;"/><line style="stroke:#A80036;stroke-width:1.0;" x1="144" x2="509" y1="815.8828" y2="815.8828"/><text fill="#000000" font-family="sans-serif" font-size="13" font-weight="bold" lengthAdjust="spacing" textLength="14" x="156" y="802.8506">18</text><text fill="#000000" font-family="sans-serif" font-size="13" lengthAdjust="spacing" textLength="174" x="174" y="794.6748">validates, presents the current</text><text fill="#000000" font-family="sans-serif" font-size="13" lengthAdjust="spacing" textLength="277" x="174" y="811.0264">information in the draft and asks for confirmation</text><polygon fill="#A80036" points="493,842.2344,503,846.2344,493,850.2344,497,846.2344" style="stroke:#A80036;stroke-width:1.0;"/><line style="stroke:#A80036;stroke-width:1.0;" x1="139" x2="499" y1="846.2344" y2="846.2344"/><text fill="#000000" font-family="sans-serif" font-size="13" font-weight="bold" lengthAdjust="spacing" textLength="14" x="146" y="841.3779">19</text><text fill="#000000" font-family="sans-serif" font-size="13" lengthAdjust="spacing" textLength="49" x="164" y="841.3779">confirms</text><polygon fill="#A80036" points="145,888.9375,135,892.9375,145,896.9375,141,892.9375" style="stroke:#A80036;stroke-width:1.0;"/><line style="stroke:#A80036;stroke-width:1.0;" x1="139" x2="509" y1="892.9375" y2="892.9375"/><text fill="#000000" font-family="sans-serif" font-size="13" font-weight="bold" lengthAdjust="spacing" textLength="14" x="151" y="879.9053">20</text><text fill="#000000" font-family="sans-serif" font-size="13" lengthAdjust="spacing" textLength="208" x="169" y="871.7295">registers the draft in the persistence</text><text fill="#000000" font-family="sans-serif" font-size="13" lengthAdjust="spacing" textLength="249" x="173" y="888.0811">and informs of the success of the operation</text><!--MD5=[fdef532a3ea44625ece4f76ba7041cd2]
@startuml
autonumber
hide footbox

actor "Help Desk Services Manager" as HSM
participant ":System" as SYST

activate HSM

HSM -> SYST : initiates the request to add/update a field in a service draft
activate SYST

SYST -> HSM : asks if the user pretends to use an existing draft
deactivate SYST

HSM -> SYST : responds
activate SYST

alt if the user pretends to use an existing draft

SYST -> HSM : presents the draft list and asks the user to choose a draft
deactivate SYST

HSM -> SYST : chooses a draft
activate SYST
end

loop until the user doesn't want to add more fields
SYST -> HSM : asks which field does the user pretend to add/update
deactivate SYST

HSM -> SYST : chooses the field
activate SYST

SYST -> HSM : requests the user to insert the field
deactivate SYST

HSM -> SYST : selects the field
activate SYST

alt if the user chooses to add keywords
loop until there is no more keywords to add
SYST -> HSM : requests the user to insert the keyword
deactivate SYST

HSM -> SYST : inserts the keyword
activate SYST

SYST -> HSM : asks if the user wants to add more keywords
deactivate SYST

HSM -> SYST : responds
activate SYST
end

else if the user chooses to any other field
SYST -> HSM : requests the user to insert the keyword
deactivate SYST

HSM -> SYST : selects the field
activate SYST
end

SYST -> HSM : saves the field in the draft and\n asks if there is more fields to add
deactivate SYST

HSM -> SYST : responds
activate SYST
end

SYST -> HSM : validates, presents the current \ninformation in the draft and asks for confirmation
deactivate SYST

HSM -> SYST : confirms
activate SYST

SYST -> HSM : registers the draft in the persistence\n and informs of the success of the operation
deactivate SYST
deactivate HSM

@enduml

PlantUML version 1.2021.5(Sun Apr 25 12:20:28 BST 2021)
(GPL source distribution)
Java Runtime: OpenJDK Runtime Environment
JVM: Dynamic Code Evolution 64-Bit Server VM
Default Encoding: Cp1252
Language: pt
Country: PT
--></g></svg>