<?xml version="1.0" encoding="UTF-8" standalone="no"?><svg xmlns="http://www.w3.org/2000/svg" xmlns:xlink="http://www.w3.org/1999/xlink" contentScriptType="application/ecmascript" contentStyleType="text/css" height="1534px" preserveAspectRatio="none" style="width:1616px;height:1534px;" version="1.1" viewBox="0 0 1616 1534" width="1616px" zoomAndPan="magnify"><defs><filter height="300%" id="fl4pho3rxip1x" width="300%" x="-1" y="-1"><feGaussianBlur result="blurOut" stdDeviation="4.0"/><feColorMatrix in="blurOut" result="blurOut2" type="matrix" values="0 0 0 0 0 0 0 0 0 0 0 0 0 0 0 0 0 0 .4 0"/><feOffset dx="8.0" dy="8.0" in="blurOut2" result="blurOut3"/><feBlend in="SourceGraphic" in2="blurOut3" mode="normal"/></filter></defs><g><rect fill="#FFFFFF" filter="url(#fl4pho3rxip1x)" height="1288.2852" style="stroke:#A80036;stroke-width:2.0;" width="20" x="247" y="196.9766"/><rect fill="#FFFFFF" filter="url(#fl4pho3rxip1x)" height="58.6211" style="stroke:#A80036;stroke-width:2.0;" width="20" x="1473" y="239.5977"/><rect fill="#FFFFFF" filter="url(#fl4pho3rxip1x)" height="107.2422" style="stroke:#A80036;stroke-width:2.0;" width="20" x="1473" y="356.8398"/><rect fill="#FFFFFF" filter="url(#fl4pho3rxip1x)" height="121.2422" style="stroke:#A80036;stroke-width:2.0;" width="20" x="1473" y="522.7031"/><rect fill="#FFFFFF" filter="url(#fl4pho3rxip1x)" height="107.2422" style="stroke:#A80036;stroke-width:2.0;" width="20" x="1473" y="702.5664"/><rect fill="#FFFFFF" filter="url(#fl4pho3rxip1x)" height="58.6211" style="stroke:#A80036;stroke-width:2.0;" width="20" x="1473" y="868.4297"/><rect fill="#FFFFFF" filter="url(#fl4pho3rxip1x)" height="58.6211" style="stroke:#A80036;stroke-width:2.0;" width="20" x="1473" y="985.6719"/><rect fill="#FFFFFF" filter="url(#fl4pho3rxip1x)" height="72.6211" style="stroke:#A80036;stroke-width:2.0;" width="20" x="1473" y="1102.9141"/><rect fill="#FFFFFF" filter="url(#fl4pho3rxip1x)" height="103.2422" style="stroke:#A80036;stroke-width:2.0;" width="20" x="1473" y="1234.1563"/><rect fill="#FFFFFF" filter="url(#fl4pho3rxip1x)" height="89.2422" style="stroke:#A80036;stroke-width:2.0;" width="20" x="1473" y="1396.0195"/><rect fill="#FFFFFF" filter="url(#fl4pho3rxip1x)" height="151.8633" style="stroke:#000000;stroke-width:4.0;" width="1529" x="40" y="386.8398"/><rect fill="#FFFFFF" filter="url(#fl4pho3rxip1x)" height="683.4531" style="stroke:#000000;stroke-width:4.0;" width="1569" x="20" y="566.7031"/><rect fill="#FFFFFF" filter="url(#fl4pho3rxip1x)" height="386.3477" style="stroke:#000000;stroke-width:4.0;" width="1529" x="40" y="732.5664"/><line style="stroke:#A80036;stroke-width:2.0;stroke-dasharray:5.0,5.0;" x1="256" x2="256" y1="176.9766" y2="1521.2617"/><line style="stroke:#A80036;stroke-width:2.0;stroke-dasharray:5.0,5.0;" x1="1483" x2="1483" y1="176.9766" y2="1521.2617"/><text fill="#000000" font-family="sans-serif" font-size="28" lengthAdjust="spacing" textLength="382" x="60" y="171.0703">Help Desk Services Manager</text><ellipse cx="257" cy="30" fill="#FEFECE" filter="url(#fl4pho3rxip1x)" rx="16" ry="16" style="stroke:#A80036;stroke-width:4.0;"/><path d="M257,46 L257,100 M231,62 L283,62 M257,100 L231,130 M257,100 L283,130 " fill="none" filter="url(#fl4pho3rxip1x)" style="stroke:#A80036;stroke-width:4.0;"/><rect fill="#FEFECE" filter="url(#fl4pho3rxip1x)" height="60.9766" style="stroke:#A80036;stroke-width:3.0;" width="124" x="1417" y="106"/><text fill="#000000" font-family="sans-serif" font-size="28" lengthAdjust="spacing" textLength="96" x="1431" y="147.0703">System</text><rect fill="#FFFFFF" filter="url(#fl4pho3rxip1x)" height="1288.2852" style="stroke:#A80036;stroke-width:2.0;" width="20" x="247" y="196.9766"/><rect fill="#FFFFFF" filter="url(#fl4pho3rxip1x)" height="58.6211" style="stroke:#A80036;stroke-width:2.0;" width="20" x="1473" y="239.5977"/><rect fill="#FFFFFF" filter="url(#fl4pho3rxip1x)" height="107.2422" style="stroke:#A80036;stroke-width:2.0;" width="20" x="1473" y="356.8398"/><rect fill="#FFFFFF" filter="url(#fl4pho3rxip1x)" height="121.2422" style="stroke:#A80036;stroke-width:2.0;" width="20" x="1473" y="522.7031"/><rect fill="#FFFFFF" filter="url(#fl4pho3rxip1x)" height="107.2422" style="stroke:#A80036;stroke-width:2.0;" width="20" x="1473" y="702.5664"/><rect fill="#FFFFFF" filter="url(#fl4pho3rxip1x)" height="58.6211" style="stroke:#A80036;stroke-width:2.0;" width="20" x="1473" y="868.4297"/><rect fill="#FFFFFF" filter="url(#fl4pho3rxip1x)" height="58.6211" style="stroke:#A80036;stroke-width:2.0;" width="20" x="1473" y="985.6719"/><rect fill="#FFFFFF" filter="url(#fl4pho3rxip1x)" height="72.6211" style="stroke:#A80036;stroke-width:2.0;" width="20" x="1473" y="1102.9141"/><rect fill="#FFFFFF" filter="url(#fl4pho3rxip1x)" height="103.2422" style="stroke:#A80036;stroke-width:2.0;" width="20" x="1473" y="1234.1563"/><rect fill="#FFFFFF" filter="url(#fl4pho3rxip1x)" height="89.2422" style="stroke:#A80036;stroke-width:2.0;" width="20" x="1473" y="1396.0195"/><polygon fill="#A80036" points="1449,231.5977,1469,239.5977,1449,247.5977,1457,239.5977" style="stroke:#A80036;stroke-width:2.0;"/><line style="stroke:#A80036;stroke-width:2.0;" x1="267" x2="1461" y1="239.5977" y2="239.5977"/><text fill="#000000" font-family="sans-serif" font-size="26" font-weight="bold" lengthAdjust="spacing" textLength="18" x="281" y="230.1133">1</text><text fill="#000000" font-family="sans-serif" font-size="26" lengthAdjust="spacing" textLength="748" x="307" y="230.1133">initiates the request to add/update a form in a service draft</text><polygon fill="#A80036" points="289,290.2188,269,298.2188,289,306.2188,281,298.2188" style="stroke:#A80036;stroke-width:2.0;"/><line style="stroke:#A80036;stroke-width:2.0;" x1="277" x2="1481" y1="298.2188" y2="298.2188"/><text fill="#000000" font-family="sans-serif" font-size="26" font-weight="bold" lengthAdjust="spacing" textLength="18" x="301" y="288.7344">2</text><text fill="#000000" font-family="sans-serif" font-size="26" lengthAdjust="spacing" textLength="614" x="327" y="288.7344">asks if the user pretends to use an existing draft</text><polygon fill="#A80036" points="1449,348.8398,1469,356.8398,1449,364.8398,1457,356.8398" style="stroke:#A80036;stroke-width:2.0;"/><line style="stroke:#A80036;stroke-width:2.0;" x1="267" x2="1461" y1="356.8398" y2="356.8398"/><text fill="#000000" font-family="sans-serif" font-size="26" font-weight="bold" lengthAdjust="spacing" textLength="18" x="281" y="347.3555">3</text><text fill="#000000" font-family="sans-serif" font-size="26" lengthAdjust="spacing" textLength="116" x="307" y="347.3555">responds</text><path d="M40,386.8398 L164,386.8398 L164,400.8398 L144,420.8398 L40,420.8398 L40,386.8398 " fill="#EEEEEE" style="stroke:#000000;stroke-width:2.0;"/><rect fill="none" height="151.8633" style="stroke:#000000;stroke-width:4.0;" width="1529" x="40" y="386.8398"/><text fill="#000000" font-family="sans-serif" font-size="26" font-weight="bold" lengthAdjust="spacing" textLength="34" x="70" y="413.9766">alt</text><text fill="#000000" font-family="sans-serif" font-size="22" font-weight="bold" lengthAdjust="spacing" textLength="504" x="194" y="412.1094">[if the user pretends to use an existing draft]</text><polygon fill="#A80036" points="289,456.082,269,464.082,289,472.082,281,464.082" style="stroke:#A80036;stroke-width:2.0;"/><line style="stroke:#A80036;stroke-width:2.0;" x1="277" x2="1481" y1="464.082" y2="464.082"/><text fill="#000000" font-family="sans-serif" font-size="26" font-weight="bold" lengthAdjust="spacing" textLength="18" x="301" y="454.5977">4</text><text fill="#000000" font-family="sans-serif" font-size="26" lengthAdjust="spacing" textLength="724" x="327" y="454.5977">presents the draft list and asks the user to choose a draft</text><polygon fill="#A80036" points="1449,514.7031,1469,522.7031,1449,530.7031,1457,522.7031" style="stroke:#A80036;stroke-width:2.0;"/><line style="stroke:#A80036;stroke-width:2.0;" x1="267" x2="1461" y1="522.7031" y2="522.7031"/><text fill="#000000" font-family="sans-serif" font-size="26" font-weight="bold" lengthAdjust="spacing" textLength="18" x="281" y="513.2188">5</text><text fill="#000000" font-family="sans-serif" font-size="26" lengthAdjust="spacing" textLength="194" x="307" y="513.2188">chooses a draft</text><path d="M20,566.7031 L168,566.7031 L168,580.7031 L148,600.7031 L20,600.7031 L20,566.7031 " fill="#EEEEEE" style="stroke:#000000;stroke-width:2.0;"/><rect fill="none" height="683.4531" style="stroke:#000000;stroke-width:4.0;" width="1569" x="20" y="566.7031"/><text fill="#000000" font-family="sans-serif" font-size="26" font-weight="bold" lengthAdjust="spacing" textLength="58" x="50" y="593.8398">loop</text><text fill="#000000" font-family="sans-serif" font-size="22" font-weight="bold" lengthAdjust="spacing" textLength="534" x="198" y="591.9727">[until the user doesn't want to add more forms]</text><polygon fill="#A80036" points="289,635.9453,269,643.9453,289,651.9453,281,643.9453" style="stroke:#A80036;stroke-width:2.0;"/><line style="stroke:#A80036;stroke-width:2.0;" x1="277" x2="1481" y1="643.9453" y2="643.9453"/><text fill="#000000" font-family="sans-serif" font-size="26" font-weight="bold" lengthAdjust="spacing" textLength="18" x="301" y="634.4609">6</text><text fill="#000000" font-family="sans-serif" font-size="26" lengthAdjust="spacing" textLength="544" x="327" y="634.4609">requests the user to insert the form's name</text><polygon fill="#A80036" points="1449,694.5664,1469,702.5664,1449,710.5664,1457,702.5664" style="stroke:#A80036;stroke-width:2.0;"/><line style="stroke:#A80036;stroke-width:2.0;" x1="267" x2="1461" y1="702.5664" y2="702.5664"/><text fill="#000000" font-family="sans-serif" font-size="26" font-weight="bold" lengthAdjust="spacing" textLength="18" x="281" y="693.082">7</text><text fill="#000000" font-family="sans-serif" font-size="26" lengthAdjust="spacing" textLength="298" x="307" y="693.082">inserts the form's name</text><path d="M40,732.5664 L188,732.5664 L188,746.5664 L168,766.5664 L40,766.5664 L40,732.5664 " fill="#EEEEEE" style="stroke:#000000;stroke-width:2.0;"/><rect fill="none" height="386.3477" style="stroke:#000000;stroke-width:4.0;" width="1529" x="40" y="732.5664"/><text fill="#000000" font-family="sans-serif" font-size="26" font-weight="bold" lengthAdjust="spacing" textLength="58" x="70" y="759.7031">loop</text><text fill="#000000" font-family="sans-serif" font-size="22" font-weight="bold" lengthAdjust="spacing" textLength="534" x="218" y="757.8359">[until the user doesn't want to add more forms]</text><polygon fill="#A80036" points="289,801.8086,269,809.8086,289,817.8086,281,809.8086" style="stroke:#A80036;stroke-width:2.0;"/><line style="stroke:#A80036;stroke-width:2.0;" x1="277" x2="1481" y1="809.8086" y2="809.8086"/><text fill="#000000" font-family="sans-serif" font-size="26" font-weight="bold" lengthAdjust="spacing" textLength="18" x="301" y="800.3242">8</text><text fill="#000000" font-family="sans-serif" font-size="26" lengthAdjust="spacing" textLength="1132" x="327" y="800.3242">requests the user to insert the attribute's data (name, label, description, regex, scriptPath)</text><polygon fill="#A80036" points="1449,860.4297,1469,868.4297,1449,876.4297,1457,868.4297" style="stroke:#A80036;stroke-width:2.0;"/><line style="stroke:#A80036;stroke-width:2.0;" x1="267" x2="1461" y1="868.4297" y2="868.4297"/><text fill="#000000" font-family="sans-serif" font-size="26" font-weight="bold" lengthAdjust="spacing" textLength="18" x="281" y="858.9453">9</text><text fill="#000000" font-family="sans-serif" font-size="26" lengthAdjust="spacing" textLength="196" x="307" y="858.9453">inserts the data</text><polygon fill="#A80036" points="289,919.0508,269,927.0508,289,935.0508,281,927.0508" style="stroke:#A80036;stroke-width:2.0;"/><line style="stroke:#A80036;stroke-width:2.0;" x1="277" x2="1481" y1="927.0508" y2="927.0508"/><text fill="#000000" font-family="sans-serif" font-size="26" font-weight="bold" lengthAdjust="spacing" textLength="36" x="301" y="917.5664">10</text><text fill="#000000" font-family="sans-serif" font-size="26" lengthAdjust="spacing" textLength="412" x="345" y="917.5664">presents the available data types</text><polygon fill="#A80036" points="1449,977.6719,1469,985.6719,1449,993.6719,1457,985.6719" style="stroke:#A80036;stroke-width:2.0;"/><line style="stroke:#A80036;stroke-width:2.0;" x1="267" x2="1461" y1="985.6719" y2="985.6719"/><text fill="#000000" font-family="sans-serif" font-size="26" font-weight="bold" lengthAdjust="spacing" textLength="36" x="281" y="976.1875">11</text><text fill="#000000" font-family="sans-serif" font-size="26" lengthAdjust="spacing" textLength="274" x="325" y="976.1875">selects the data types</text><polygon fill="#A80036" points="289,1036.293,269,1044.293,289,1052.293,281,1044.293" style="stroke:#A80036;stroke-width:2.0;"/><line style="stroke:#A80036;stroke-width:2.0;" x1="277" x2="1481" y1="1044.293" y2="1044.293"/><text fill="#000000" font-family="sans-serif" font-size="26" font-weight="bold" lengthAdjust="spacing" textLength="36" x="301" y="1034.8086">12</text><text fill="#000000" font-family="sans-serif" font-size="26" lengthAdjust="spacing" textLength="710" x="345" y="1034.8086">asks if there is more attribute to add to the current form</text><polygon fill="#A80036" points="1449,1094.9141,1469,1102.9141,1449,1110.9141,1457,1102.9141" style="stroke:#A80036;stroke-width:2.0;"/><line style="stroke:#A80036;stroke-width:2.0;" x1="267" x2="1461" y1="1102.9141" y2="1102.9141"/><text fill="#000000" font-family="sans-serif" font-size="26" font-weight="bold" lengthAdjust="spacing" textLength="36" x="281" y="1093.4297">13</text><text fill="#000000" font-family="sans-serif" font-size="26" lengthAdjust="spacing" textLength="116" x="325" y="1093.4297">responds</text><polygon fill="#A80036" points="289,1167.5352,269,1175.5352,289,1183.5352,281,1175.5352" style="stroke:#A80036;stroke-width:2.0;"/><line style="stroke:#A80036;stroke-width:2.0;" x1="277" x2="1481" y1="1175.5352" y2="1175.5352"/><text fill="#000000" font-family="sans-serif" font-size="26" font-weight="bold" lengthAdjust="spacing" textLength="36" x="301" y="1166.0508">14</text><text fill="#000000" font-family="sans-serif" font-size="26" lengthAdjust="spacing" textLength="676" x="345" y="1166.0508">asks if there is more forms to add to the current draft</text><polygon fill="#A80036" points="1449,1226.1563,1469,1234.1563,1449,1242.1563,1457,1234.1563" style="stroke:#A80036;stroke-width:2.0;"/><line style="stroke:#A80036;stroke-width:2.0;" x1="267" x2="1461" y1="1234.1563" y2="1234.1563"/><text fill="#000000" font-family="sans-serif" font-size="26" font-weight="bold" lengthAdjust="spacing" textLength="36" x="281" y="1224.6719">15</text><text fill="#000000" font-family="sans-serif" font-size="26" lengthAdjust="spacing" textLength="116" x="325" y="1224.6719">responds</text><polygon fill="#A80036" points="289,1329.3984,269,1337.3984,289,1345.3984,281,1337.3984" style="stroke:#A80036;stroke-width:2.0;"/><line style="stroke:#A80036;stroke-width:2.0;" x1="277" x2="1481" y1="1337.3984" y2="1337.3984"/><text fill="#000000" font-family="sans-serif" font-size="26" font-weight="bold" lengthAdjust="spacing" textLength="36" x="301" y="1312.6035">16</text><text fill="#000000" font-family="sans-serif" font-size="26" lengthAdjust="spacing" textLength="382" x="345" y="1297.293">validates, presents the current</text><text fill="#000000" font-family="sans-serif" font-size="26" lengthAdjust="spacing" textLength="630" x="345" y="1327.9141">information in the draft and asks for confirmation</text><polygon fill="#A80036" points="1449,1388.0195,1469,1396.0195,1449,1404.0195,1457,1396.0195" style="stroke:#A80036;stroke-width:2.0;"/><line style="stroke:#A80036;stroke-width:2.0;" x1="267" x2="1461" y1="1396.0195" y2="1396.0195"/><text fill="#000000" font-family="sans-serif" font-size="26" font-weight="bold" lengthAdjust="spacing" textLength="36" x="281" y="1386.5352">17</text><text fill="#000000" font-family="sans-serif" font-size="26" lengthAdjust="spacing" textLength="112" x="325" y="1386.5352">confirms</text><polygon fill="#A80036" points="279,1477.2617,259,1485.2617,279,1493.2617,271,1485.2617" style="stroke:#A80036;stroke-width:2.0;"/><line style="stroke:#A80036;stroke-width:2.0;" x1="267" x2="1481" y1="1485.2617" y2="1485.2617"/><text fill="#000000" font-family="sans-serif" font-size="26" font-weight="bold" lengthAdjust="spacing" textLength="36" x="291" y="1460.4668">18</text><text fill="#000000" font-family="sans-serif" font-size="26" lengthAdjust="spacing" textLength="458" x="335" y="1445.1563">registers the draft in the persistence</text><text fill="#000000" font-family="sans-serif" font-size="26" lengthAdjust="spacing" textLength="552" x="343" y="1475.7773">and informs of the success of the operation</text><!--MD5=[a0b935e43bdec7c423d1a471208748c2]
@startuml
autonumber
hide footbox

actor "Help Desk Services Manager" as HSM
participant "System" as SYST

activate HSM

HSM -> SYST : initiates the request to add/update a form in a service draft
activate SYST

SYST -> HSM : asks if the user pretends to use an existing draft
deactivate SYST

HSM -> SYST : responds
activate SYST

alt if the user pretends to use an existing draft

SYST -> HSM : presents the draft list and asks the user to choose a draft
deactivate SYST

HSM -> SYST : chooses a draft
activate SYST
end

loop until the user doesn't want to add more forms
SYST -> HSM : requests the user to insert the form's name
deactivate SYST

HSM -> SYST : inserts the form's name
activate SYST

loop until the user doesn't want to add more forms
SYST -> HSM : requests the user to insert the attribute's data (name, label, description, regex, scriptPath)
deactivate SYST

HSM -> SYST : inserts the data
activate SYST

SYST -> HSM : presents the available data types
deactivate SYST

HSM -> SYST : selects the data types
activate SYST

SYST -> HSM : asks if there is more attribute to add to the current form
deactivate SYST

HSM -> SYST : responds
activate SYST
end

SYST -> HSM : asks if there is more forms to add to the current draft
deactivate SYST

HSM -> SYST : responds
activate SYST
end

SYST -> HSM : validates, presents the current \ninformation in the draft and asks for confirmation
deactivate SYST

HSM -> SYST : confirms
activate SYST

SYST -> HSM : registers the draft in the persistence\n and informs of the success of the operation
deactivate SYST
deactivate HSM

@enduml

PlantUML version 1.2021.00(Sun Jan 10 10:25:05 WET 2021)
(GPL source distribution)
Java Runtime: OpenJDK Runtime Environment
JVM: OpenJDK 64-Bit Server VM
Default Encoding: UTF-8
Language: en
Country: PT
--></g></svg>