<?xml version="1.0" encoding="UTF-8" standalone="no"?><svg xmlns="http://www.w3.org/2000/svg" xmlns:xlink="http://www.w3.org/1999/xlink" contentScriptType="application/ecmascript" contentStyleType="text/css" height="3734px" preserveAspectRatio="none" style="width:8180px;height:3734px;" version="1.1" viewBox="0 0 8180 3734" width="8180px" zoomAndPan="magnify"><defs><filter height="300%" id="fglw9hopold60" width="300%" x="-1" y="-1"><feGaussianBlur result="blurOut" stdDeviation="4.0"/><feColorMatrix in="blurOut" result="blurOut2" type="matrix" values="0 0 0 0 0 0 0 0 0 0 0 0 0 0 0 0 0 0 .4 0"/><feOffset dx="8.0" dy="8.0" in="blurOut2" result="blurOut3"/><feBlend in="SourceGraphic" in2="blurOut3" mode="normal"/></filter></defs><g><rect fill="#FFFFFF" filter="url(#fglw9hopold60)" height="3487.2773" style="stroke:#A80036;stroke-width:2.0;" width="20" x="255" y="196.9766"/><rect fill="#FFFFFF" filter="url(#fglw9hopold60)" height="42.6211" style="stroke:#A80036;stroke-width:2.0;" width="20" x="1481" y="196.9766"/><rect fill="#FFFFFF" filter="url(#fglw9hopold60)" height="527.0586" style="stroke:#A80036;stroke-width:2.0;" width="20" x="1481" y="298.2188"/><rect fill="#FFFFFF" filter="url(#fglw9hopold60)" height="293.1055" style="stroke:#A80036;stroke-width:2.0;" width="20" x="1481" y="883.8984"/><rect fill="#FFFFFF" filter="url(#fglw9hopold60)" height="1311.3594" style="stroke:#A80036;stroke-width:2.0;" width="20" x="1481" y="1235.625"/><rect fill="#FFFFFF" filter="url(#fglw9hopold60)" height="1078.6484" style="stroke:#A80036;stroke-width:2.0;" width="20" x="1481" y="2605.6055"/><rect fill="#FFFFFF" filter="url(#fglw9hopold60)" height="361.1953" style="stroke:#A80036;stroke-width:2.0;" width="20" x="2417" y="356.8398"/><rect fill="#FFFFFF" filter="url(#fglw9hopold60)" height="175.8633" style="stroke:#A80036;stroke-width:2.0;" width="20" x="2417" y="942.5195"/><rect fill="#FFFFFF" filter="url(#fglw9hopold60)" height="1194.1172" style="stroke:#A80036;stroke-width:2.0;" width="20" x="2417" y="1294.2461"/><rect fill="#FFFFFF" filter="url(#fglw9hopold60)" height="594.3008" style="stroke:#A80036;stroke-width:2.0;" width="20" x="2417" y="2678.2266"/><rect fill="#FFFFFF" filter="url(#fglw9hopold60)" height="294.4844" style="stroke:#A80036;stroke-width:2.0;" width="20" x="2417" y="3331.1484"/><rect fill="#FFFFFF" filter="url(#fglw9hopold60)" height="60" style="stroke:#A80036;stroke-width:2.0;" width="20" x="3028" y="539.4141"/><rect fill="#FFFFFF" filter="url(#fglw9hopold60)" height="60" style="stroke:#A80036;stroke-width:2.0;" width="20" x="3028" y="658.0352"/><rect fill="#FFFFFF" filter="url(#fglw9hopold60)" height="60" style="stroke:#A80036;stroke-width:2.0;" width="20" x="3028" y="2736.8477"/><rect fill="#FFFFFF" filter="url(#fglw9hopold60)" height="241.1953" style="stroke:#A80036;stroke-width:2.0;" width="20" x="3028" y="2855.4688"/><rect fill="#FFFFFF" filter="url(#fglw9hopold60)" height="58.6211" style="stroke:#A80036;stroke-width:2.0;" width="20" x="3273" y="1001.1406"/><rect fill="#FFFFFF" filter="url(#fglw9hopold60)" height="60" style="stroke:#A80036;stroke-width:2.0;" width="20" x="3534" y="1476.8203"/><rect fill="#FFFFFF" filter="url(#fglw9hopold60)" height="60" style="stroke:#A80036;stroke-width:2.0;" width="20" x="3534" y="1595.4414"/><rect fill="#FFFFFF" filter="url(#fglw9hopold60)" height="60" style="stroke:#A80036;stroke-width:2.0;" width="20" x="3534" y="1714.0625"/><rect fill="#FFFFFF" filter="url(#fglw9hopold60)" height="60" style="stroke:#A80036;stroke-width:2.0;" width="20" x="3534" y="1832.6836"/><rect fill="#FFFFFF" filter="url(#fglw9hopold60)" height="60" style="stroke:#A80036;stroke-width:2.0;" width="20" x="3534" y="1951.3047"/><rect fill="#FFFFFF" filter="url(#fglw9hopold60)" height="60" style="stroke:#A80036;stroke-width:2.0;" width="20" x="3534" y="2069.9258"/><rect fill="#FFFFFF" filter="url(#fglw9hopold60)" height="241.1953" style="stroke:#A80036;stroke-width:2.0;" width="20" x="3534" y="2188.5469"/><rect fill="#FFFFFF" filter="url(#fglw9hopold60)" height="103.9531" style="stroke:#A80036;stroke-width:2.0;" width="20" x="4502" y="2267.168"/><rect fill="#FFFFFF" filter="url(#fglw9hopold60)" height="103.9531" style="stroke:#A80036;stroke-width:2.0;" width="20" x="4750" y="2934.0898"/><rect fill="#FFFFFF" filter="url(#fglw9hopold60)" height="58.6211" style="stroke:#A80036;stroke-width:2.0;" width="20" x="5004" y="3155.2852"/><rect fill="#FFFFFF" filter="url(#fglw9hopold60)" height="60" style="stroke:#A80036;stroke-width:2.0;" width="20" x="5258" y="3389.7695"/><rect fill="#FFFFFF" filter="url(#fglw9hopold60)" height="58.6211" style="stroke:#A80036;stroke-width:2.0;" width="20" x="5258" y="3508.3906"/><rect fill="#FFFFFF" filter="url(#fglw9hopold60)" height="1873.5703" style="stroke:#000000;stroke-width:4.0;" width="4626" x="20" y="748.0352"/><line style="stroke:#A80036;stroke-width:2.0;stroke-dasharray:5.0,5.0;" x1="264" x2="264" y1="176.9766" y2="3720.2539"/><line style="stroke:#A80036;stroke-width:2.0;stroke-dasharray:5.0,5.0;" x1="1490" x2="1490" y1="176.9766" y2="3720.2539"/><line style="stroke:#A80036;stroke-width:2.0;stroke-dasharray:5.0,5.0;" x1="2427" x2="2427" y1="176.9766" y2="3720.2539"/><line style="stroke:#A80036;stroke-width:2.0;stroke-dasharray:5.0,5.0;" x1="2745" x2="2745" y1="176.9766" y2="3720.2539"/><line style="stroke:#A80036;stroke-width:2.0;stroke-dasharray:5.0,5.0;" x1="3037" x2="3037" y1="454.8164" y2="3720.2539"/><line style="stroke:#A80036;stroke-width:2.0;stroke-dasharray:5.0,5.0;" x1="3283" x2="3283" y1="176.9766" y2="3720.2539"/><line style="stroke:#A80036;stroke-width:2.0;stroke-dasharray:5.0,5.0;" x1="3543" x2="3543" y1="1392.2227" y2="3720.2539"/><line style="stroke:#A80036;stroke-width:2.0;stroke-dasharray:5.0,5.0;" x1="4512" x2="4512" y1="2286.5234" y2="3720.2539"/><line style="stroke:#A80036;stroke-width:2.0;stroke-dasharray:5.0,5.0;" x1="4760" x2="4760" y1="2953.4453" y2="3720.2539"/><line style="stroke:#A80036;stroke-width:2.0;stroke-dasharray:5.0,5.0;" x1="5014" x2="5014" y1="176.9766" y2="3720.2539"/><line style="stroke:#A80036;stroke-width:2.0;stroke-dasharray:5.0,5.0;" x1="5268" x2="5268" y1="176.9766" y2="3720.2539"/><line style="stroke:#A80036;stroke-width:2.0;stroke-dasharray:5.0,5.0;" x1="5552" x2="5552" y1="176.9766" y2="3720.2539"/><line style="stroke:#A80036;stroke-width:2.0;stroke-dasharray:5.0,5.0;" x1="5862" x2="5862" y1="176.9766" y2="3720.2539"/><line style="stroke:#A80036;stroke-width:2.0;stroke-dasharray:5.0,5.0;" x1="6162" x2="6162" y1="176.9766" y2="3720.2539"/><line style="stroke:#A80036;stroke-width:2.0;stroke-dasharray:5.0,5.0;" x1="6438" x2="6438" y1="176.9766" y2="3720.2539"/><line style="stroke:#A80036;stroke-width:2.0;stroke-dasharray:5.0,5.0;" x1="6686" x2="6686" y1="176.9766" y2="3720.2539"/><line style="stroke:#A80036;stroke-width:2.0;stroke-dasharray:5.0,5.0;" x1="6938" x2="6938" y1="176.9766" y2="3720.2539"/><line style="stroke:#A80036;stroke-width:2.0;stroke-dasharray:5.0,5.0;" x1="7190" x2="7190" y1="176.9766" y2="3720.2539"/><line style="stroke:#A80036;stroke-width:2.0;stroke-dasharray:5.0,5.0;" x1="7482" x2="7482" y1="176.9766" y2="3720.2539"/><line style="stroke:#A80036;stroke-width:2.0;stroke-dasharray:5.0,5.0;" x1="7782" x2="7782" y1="176.9766" y2="3720.2539"/><line style="stroke:#A80036;stroke-width:2.0;stroke-dasharray:5.0,5.0;" x1="8042" x2="8042" y1="176.9766" y2="3720.2539"/><text fill="#000000" font-family="sans-serif" font-size="28" lengthAdjust="spacing" textLength="438" x="40" y="171.0703">Gestor de Serviços de Help Desk</text><ellipse cx="265" cy="30" fill="#FEFECE" filter="url(#fglw9hopold60)" rx="16" ry="16" style="stroke:#A80036;stroke-width:4.0;"/><path d="M265,46 L265,100 M239,62 L291,62 M265,100 L239,130 M265,100 L291,130 " fill="none" filter="url(#fglw9hopold60)" style="stroke:#A80036;stroke-width:4.0;"/><rect fill="#FEFECE" filter="url(#fglw9hopold60)" height="93.9531" style="stroke:#A80036;stroke-width:3.0;" width="290" x="1342" y="73.0234"/><text fill="#000000" font-family="sans-serif" font-size="28" lengthAdjust="spacing" textLength="262" x="1356" y="114.0938">&lt;&lt;presentation&gt;&gt;</text><text fill="#000000" font-family="sans-serif" font-size="28" lengthAdjust="spacing" textLength="64" x="1455" y="147.0703">XXUI</text><rect fill="#FEFECE" filter="url(#fglw9hopold60)" height="93.9531" style="stroke:#A80036;stroke-width:3.0;" width="268" x="2289" y="73.0234"/><text fill="#000000" font-family="sans-serif" font-size="28" lengthAdjust="spacing" textLength="240" x="2303" y="114.0938">&lt;&lt;application&gt;&gt;</text><text fill="#000000" font-family="sans-serif" font-size="28" lengthAdjust="spacing" textLength="176" x="2335" y="147.0703">XXController</text><text fill="#000000" font-family="sans-serif" font-size="28" lengthAdjust="spacing" textLength="228" x="2626" y="138.0938">&lt;&lt;repository&gt;&gt;</text><text fill="#000000" font-family="sans-serif" font-size="28" lengthAdjust="spacing" textLength="310" x="2585" y="171.0703">ServiceDraftRepository</text><path d="M2710,39.0234 C2710,19.0234 2746,19.0234 2746,19.0234 C2746,19.0234 2782,19.0234 2782,39.0234 L2782,91.0234 C2782,111.0234 2746,111.0234 2746,111.0234 C2746,111.0234 2710,111.0234 2710,91.0234 L2710,39.0234 " fill="#FEFECE" filter="url(#fglw9hopold60)" style="stroke:#000000;stroke-width:3.0;"/><path d="M2710,39.0234 C2710,59.0234 2746,59.0234 2746,59.0234 C2746,59.0234 2782,59.0234 2782,39.0234 " fill="none" style="stroke:#000000;stroke-width:3.0;"/><rect fill="#FEFECE" filter="url(#fglw9hopold60)" height="93.9531" style="stroke:#A80036;stroke-width:3.0;" width="220" x="3169" y="73.0234"/><text fill="#000000" font-family="sans-serif" font-size="28" lengthAdjust="spacing" textLength="192" x="3183" y="114.0938">&lt;&lt;domain&gt;&gt;</text><text fill="#000000" font-family="sans-serif" font-size="28" lengthAdjust="spacing" textLength="128" x="3215" y="147.0703">DataType</text><text fill="#000000" font-family="sans-serif" font-size="28" lengthAdjust="spacing" textLength="228" x="4894" y="138.0938">&lt;&lt;repository&gt;&gt;</text><text fill="#000000" font-family="sans-serif" font-size="28" lengthAdjust="spacing" textLength="218" x="4899" y="171.0703">FormRepository</text><path d="M4978,39.0234 C4978,19.0234 5014,19.0234 5014,19.0234 C5014,19.0234 5050,19.0234 5050,39.0234 L5050,91.0234 C5050,111.0234 5014,111.0234 5014,111.0234 C5014,111.0234 4978,111.0234 4978,91.0234 L4978,39.0234 " fill="#FEFECE" filter="url(#fglw9hopold60)" style="stroke:#000000;stroke-width:3.0;"/><path d="M4978,39.0234 C4978,59.0234 5014,59.0234 5014,59.0234 C5014,59.0234 5050,59.0234 5050,39.0234 " fill="none" style="stroke:#000000;stroke-width:3.0;"/><rect fill="#FEFECE" filter="url(#fglw9hopold60)" height="93.9531" style="stroke:#A80036;stroke-width:3.0;" width="220" x="5154" y="73.0234"/><text fill="#000000" font-family="sans-serif" font-size="28" lengthAdjust="spacing" textLength="192" x="5168" y="114.0938">&lt;&lt;domain&gt;&gt;</text><text fill="#000000" font-family="sans-serif" font-size="28" lengthAdjust="spacing" textLength="164" x="5182" y="147.0703">ServiceDraft</text><rect fill="#FEFECE" filter="url(#fglw9hopold60)" height="93.9531" style="stroke:#A80036;stroke-width:3.0;" width="292" x="5402" y="73.0234"/><text fill="#000000" font-family="sans-serif" font-size="28" lengthAdjust="spacing" textLength="244" x="5426" y="114.0938">&lt;&lt;persistence&gt;&gt;</text><text fill="#000000" font-family="sans-serif" font-size="28" lengthAdjust="spacing" textLength="264" x="5416" y="147.0703">PersistenceContext</text><rect fill="#FEFECE" filter="url(#fglw9hopold60)" height="93.9531" style="stroke:#A80036;stroke-width:3.0;" width="272" x="5722" y="73.0234"/><text fill="#000000" font-family="sans-serif" font-size="28" lengthAdjust="spacing" textLength="244" x="5736" y="114.0938">&lt;&lt;persistence&gt;&gt;</text><text fill="#000000" font-family="sans-serif" font-size="28" lengthAdjust="spacing" textLength="166" x="5775" y="147.0703">AppSettings</text><rect fill="#FEFECE" filter="url(#fglw9hopold60)" height="93.9531" style="stroke:#A80036;stroke-width:3.0;" width="274" x="6022" y="73.0234"/><text fill="#000000" font-family="sans-serif" font-size="28" lengthAdjust="spacing" textLength="182" x="6068" y="114.0938">&lt;&lt;factory&gt;&gt;</text><text fill="#000000" font-family="sans-serif" font-size="28" lengthAdjust="spacing" textLength="246" x="6036" y="147.0703">RepositoryFactory</text><rect fill="#FEFECE" filter="url(#fglw9hopold60)" height="93.9531" style="stroke:#A80036;stroke-width:3.0;" width="220" x="6324" y="73.0234"/><text fill="#000000" font-family="sans-serif" font-size="28" lengthAdjust="spacing" textLength="192" x="6338" y="114.0938">&lt;&lt;domain&gt;&gt;</text><text fill="#000000" font-family="sans-serif" font-size="28" lengthAdjust="spacing" textLength="150" x="6359" y="147.0703">FormName</text><rect fill="#FEFECE" filter="url(#fglw9hopold60)" height="93.9531" style="stroke:#A80036;stroke-width:3.0;" width="220" x="6572" y="73.0234"/><text fill="#000000" font-family="sans-serif" font-size="28" lengthAdjust="spacing" textLength="192" x="6586" y="114.0938">&lt;&lt;domain&gt;&gt;</text><text fill="#000000" font-family="sans-serif" font-size="28" lengthAdjust="spacing" textLength="138" x="6613" y="147.0703">FormType</text><rect fill="#FEFECE" filter="url(#fglw9hopold60)" height="93.9531" style="stroke:#A80036;stroke-width:3.0;" width="228" x="6820" y="73.0234"/><text fill="#000000" font-family="sans-serif" font-size="28" lengthAdjust="spacing" textLength="192" x="6838" y="114.0938">&lt;&lt;domain&gt;&gt;</text><text fill="#000000" font-family="sans-serif" font-size="28" lengthAdjust="spacing" textLength="200" x="6834" y="147.0703">AttributeName</text><rect fill="#FEFECE" filter="url(#fglw9hopold60)" height="93.9531" style="stroke:#A80036;stroke-width:3.0;" width="222" x="7076" y="73.0234"/><text fill="#000000" font-family="sans-serif" font-size="28" lengthAdjust="spacing" textLength="192" x="7091" y="114.0938">&lt;&lt;domain&gt;&gt;</text><text fill="#000000" font-family="sans-serif" font-size="28" lengthAdjust="spacing" textLength="194" x="7090" y="147.0703">AttributeLabel</text><rect fill="#FEFECE" filter="url(#fglw9hopold60)" height="93.9531" style="stroke:#A80036;stroke-width:3.0;" width="306" x="7326" y="73.0234"/><text fill="#000000" font-family="sans-serif" font-size="28" lengthAdjust="spacing" textLength="192" x="7383" y="114.0938">&lt;&lt;domain&gt;&gt;</text><text fill="#000000" font-family="sans-serif" font-size="28" lengthAdjust="spacing" textLength="278" x="7340" y="147.0703">AttributeDescription</text><rect fill="#FEFECE" filter="url(#fglw9hopold60)" height="93.9531" style="stroke:#A80036;stroke-width:3.0;" width="236" x="7660" y="73.0234"/><text fill="#000000" font-family="sans-serif" font-size="28" lengthAdjust="spacing" textLength="192" x="7682" y="114.0938">&lt;&lt;domain&gt;&gt;</text><text fill="#000000" font-family="sans-serif" font-size="28" lengthAdjust="spacing" textLength="208" x="7674" y="147.0703">AttributeRegex</text><rect fill="#FEFECE" filter="url(#fglw9hopold60)" height="93.9531" style="stroke:#A80036;stroke-width:3.0;" width="228" x="7924" y="73.0234"/><text fill="#000000" font-family="sans-serif" font-size="28" lengthAdjust="spacing" textLength="192" x="7942" y="114.0938">&lt;&lt;domain&gt;&gt;</text><text fill="#000000" font-family="sans-serif" font-size="28" lengthAdjust="spacing" textLength="200" x="7938" y="147.0703">AttributeScript</text><rect fill="#FFFFFF" filter="url(#fglw9hopold60)" height="3487.2773" style="stroke:#A80036;stroke-width:2.0;" width="20" x="255" y="196.9766"/><rect fill="#FFFFFF" filter="url(#fglw9hopold60)" height="42.6211" style="stroke:#A80036;stroke-width:2.0;" width="20" x="1481" y="196.9766"/><rect fill="#FFFFFF" filter="url(#fglw9hopold60)" height="527.0586" style="stroke:#A80036;stroke-width:2.0;" width="20" x="1481" y="298.2188"/><rect fill="#FFFFFF" filter="url(#fglw9hopold60)" height="293.1055" style="stroke:#A80036;stroke-width:2.0;" width="20" x="1481" y="883.8984"/><rect fill="#FFFFFF" filter="url(#fglw9hopold60)" height="1311.3594" style="stroke:#A80036;stroke-width:2.0;" width="20" x="1481" y="1235.625"/><rect fill="#FFFFFF" filter="url(#fglw9hopold60)" height="1078.6484" style="stroke:#A80036;stroke-width:2.0;" width="20" x="1481" y="2605.6055"/><rect fill="#FFFFFF" filter="url(#fglw9hopold60)" height="361.1953" style="stroke:#A80036;stroke-width:2.0;" width="20" x="2417" y="356.8398"/><rect fill="#FFFFFF" filter="url(#fglw9hopold60)" height="175.8633" style="stroke:#A80036;stroke-width:2.0;" width="20" x="2417" y="942.5195"/><rect fill="#FFFFFF" filter="url(#fglw9hopold60)" height="1194.1172" style="stroke:#A80036;stroke-width:2.0;" width="20" x="2417" y="1294.2461"/><rect fill="#FFFFFF" filter="url(#fglw9hopold60)" height="594.3008" style="stroke:#A80036;stroke-width:2.0;" width="20" x="2417" y="2678.2266"/><rect fill="#FFFFFF" filter="url(#fglw9hopold60)" height="294.4844" style="stroke:#A80036;stroke-width:2.0;" width="20" x="2417" y="3331.1484"/><rect fill="#FFFFFF" filter="url(#fglw9hopold60)" height="60" style="stroke:#A80036;stroke-width:2.0;" width="20" x="3028" y="539.4141"/><rect fill="#FFFFFF" filter="url(#fglw9hopold60)" height="60" style="stroke:#A80036;stroke-width:2.0;" width="20" x="3028" y="658.0352"/><rect fill="#FFFFFF" filter="url(#fglw9hopold60)" height="60" style="stroke:#A80036;stroke-width:2.0;" width="20" x="3028" y="2736.8477"/><rect fill="#FFFFFF" filter="url(#fglw9hopold60)" height="241.1953" style="stroke:#A80036;stroke-width:2.0;" width="20" x="3028" y="2855.4688"/><rect fill="#FFFFFF" filter="url(#fglw9hopold60)" height="58.6211" style="stroke:#A80036;stroke-width:2.0;" width="20" x="3273" y="1001.1406"/><rect fill="#FFFFFF" filter="url(#fglw9hopold60)" height="60" style="stroke:#A80036;stroke-width:2.0;" width="20" x="3534" y="1476.8203"/><rect fill="#FFFFFF" filter="url(#fglw9hopold60)" height="60" style="stroke:#A80036;stroke-width:2.0;" width="20" x="3534" y="1595.4414"/><rect fill="#FFFFFF" filter="url(#fglw9hopold60)" height="60" style="stroke:#A80036;stroke-width:2.0;" width="20" x="3534" y="1714.0625"/><rect fill="#FFFFFF" filter="url(#fglw9hopold60)" height="60" style="stroke:#A80036;stroke-width:2.0;" width="20" x="3534" y="1832.6836"/><rect fill="#FFFFFF" filter="url(#fglw9hopold60)" height="60" style="stroke:#A80036;stroke-width:2.0;" width="20" x="3534" y="1951.3047"/><rect fill="#FFFFFF" filter="url(#fglw9hopold60)" height="60" style="stroke:#A80036;stroke-width:2.0;" width="20" x="3534" y="2069.9258"/><rect fill="#FFFFFF" filter="url(#fglw9hopold60)" height="241.1953" style="stroke:#A80036;stroke-width:2.0;" width="20" x="3534" y="2188.5469"/><rect fill="#FFFFFF" filter="url(#fglw9hopold60)" height="103.9531" style="stroke:#A80036;stroke-width:2.0;" width="20" x="4502" y="2267.168"/><rect fill="#FFFFFF" filter="url(#fglw9hopold60)" height="103.9531" style="stroke:#A80036;stroke-width:2.0;" width="20" x="4750" y="2934.0898"/><rect fill="#FFFFFF" filter="url(#fglw9hopold60)" height="58.6211" style="stroke:#A80036;stroke-width:2.0;" width="20" x="5004" y="3155.2852"/><rect fill="#FFFFFF" filter="url(#fglw9hopold60)" height="60" style="stroke:#A80036;stroke-width:2.0;" width="20" x="5258" y="3389.7695"/><rect fill="#FFFFFF" filter="url(#fglw9hopold60)" height="58.6211" style="stroke:#A80036;stroke-width:2.0;" width="20" x="5258" y="3508.3906"/><polygon fill="#A80036" points="297,231.5977,277,239.5977,297,247.5977,289,239.5977" style="stroke:#A80036;stroke-width:2.0;"/><line style="stroke:#A80036;stroke-width:2.0;" x1="285" x2="1489" y1="239.5977" y2="239.5977"/><text fill="#000000" font-family="sans-serif" font-size="26" font-weight="bold" lengthAdjust="spacing" textLength="18" x="309" y="230.1133">1</text><text fill="#000000" font-family="sans-serif" font-size="26" lengthAdjust="spacing" textLength="544" x="335" y="230.1133">requests the user to insert the form's name</text><polygon fill="#A80036" points="1457,290.2188,1477,298.2188,1457,306.2188,1465,298.2188" style="stroke:#A80036;stroke-width:2.0;"/><line style="stroke:#A80036;stroke-width:2.0;" x1="275" x2="1469" y1="298.2188" y2="298.2188"/><text fill="#000000" font-family="sans-serif" font-size="26" font-weight="bold" lengthAdjust="spacing" textLength="18" x="289" y="288.7344">2</text><text fill="#000000" font-family="sans-serif" font-size="26" lengthAdjust="spacing" textLength="298" x="315" y="288.7344">inserts the form's name</text><polygon fill="#A80036" points="2393,348.8398,2413,356.8398,2393,364.8398,2401,356.8398" style="stroke:#A80036;stroke-width:2.0;"/><line style="stroke:#A80036;stroke-width:2.0;" x1="1501" x2="2405" y1="356.8398" y2="356.8398"/><text fill="#000000" font-family="sans-serif" font-size="26" font-weight="bold" lengthAdjust="spacing" textLength="18" x="1515" y="347.3555">3</text><text fill="#000000" font-family="sans-serif" font-size="26" lengthAdjust="spacing" textLength="330" x="1541" y="347.3555">addForm(name, formType)</text><polygon fill="#A80036" points="2903,407.4609,2923,415.4609,2903,423.4609,2911,415.4609" style="stroke:#A80036;stroke-width:2.0;"/><line style="stroke:#A80036;stroke-width:2.0;" x1="2437" x2="2915" y1="415.4609" y2="415.4609"/><text fill="#000000" font-family="sans-serif" font-size="26" font-weight="bold" lengthAdjust="spacing" textLength="18" x="2451" y="405.9766">4</text><text fill="#000000" font-family="sans-serif" font-size="26" lengthAdjust="spacing" textLength="76" x="2477" y="405.9766">create</text><rect fill="#FEFECE" filter="url(#fglw9hopold60)" height="93.9531" style="stroke:#A80036;stroke-width:3.0;" width="214" x="2927" y="372.8398"/><text fill="#000000" font-family="sans-serif" font-size="28" lengthAdjust="spacing" textLength="186" x="2941" y="413.9102">&lt;&lt;builder&gt;&gt;</text><text fill="#000000" font-family="sans-serif" font-size="28" lengthAdjust="spacing" textLength="168" x="2950" y="446.8867">FormBuilder</text><polygon fill="#A80036" points="3004,531.4141,3024,539.4141,3004,547.4141,3012,539.4141" style="stroke:#A80036;stroke-width:2.0;"/><line style="stroke:#A80036;stroke-width:2.0;" x1="2437" x2="3016" y1="539.4141" y2="539.4141"/><text fill="#000000" font-family="sans-serif" font-size="26" font-weight="bold" lengthAdjust="spacing" textLength="18" x="2451" y="529.9297">5</text><text fill="#000000" font-family="sans-serif" font-size="26" lengthAdjust="spacing" textLength="210" x="2477" y="529.9297">withName(name)</text><polygon fill="#A80036" points="3004,650.0352,3024,658.0352,3004,666.0352,3012,658.0352" style="stroke:#A80036;stroke-width:2.0;"/><line style="stroke:#A80036;stroke-width:2.0;" x1="2437" x2="3016" y1="658.0352" y2="658.0352"/><text fill="#000000" font-family="sans-serif" font-size="26" font-weight="bold" lengthAdjust="spacing" textLength="18" x="2451" y="648.5508">6</text><text fill="#000000" font-family="sans-serif" font-size="26" lengthAdjust="spacing" textLength="314" x="2477" y="648.5508">withFormType(formType)</text><path d="M20,748.0352 L168,748.0352 L168,762.0352 L148,782.0352 L20,782.0352 L20,748.0352 " fill="#EEEEEE" style="stroke:#000000;stroke-width:2.0;"/><rect fill="none" height="1873.5703" style="stroke:#000000;stroke-width:4.0;" width="4626" x="20" y="748.0352"/><text fill="#000000" font-family="sans-serif" font-size="26" font-weight="bold" lengthAdjust="spacing" textLength="58" x="50" y="775.1719">loop</text><text fill="#000000" font-family="sans-serif" font-size="22" font-weight="bold" lengthAdjust="spacing" textLength="572" x="198" y="773.3047">[until the user doesn't want to add more attributes]</text><polygon fill="#A80036" points="297,817.2773,277,825.2773,297,833.2773,289,825.2773" style="stroke:#A80036;stroke-width:2.0;"/><line style="stroke:#A80036;stroke-width:2.0;" x1="285" x2="1489" y1="825.2773" y2="825.2773"/><text fill="#000000" font-family="sans-serif" font-size="26" font-weight="bold" lengthAdjust="spacing" textLength="18" x="309" y="815.793">7</text><text fill="#000000" font-family="sans-serif" font-size="26" lengthAdjust="spacing" textLength="1132" x="335" y="815.793">requests the user to insert the attribute's data (name, label, description, regex, scriptPath)</text><polygon fill="#A80036" points="1457,875.8984,1477,883.8984,1457,891.8984,1465,883.8984" style="stroke:#A80036;stroke-width:2.0;"/><line style="stroke:#A80036;stroke-width:2.0;" x1="275" x2="1469" y1="883.8984" y2="883.8984"/><text fill="#000000" font-family="sans-serif" font-size="26" font-weight="bold" lengthAdjust="spacing" textLength="18" x="289" y="874.4141">8</text><text fill="#000000" font-family="sans-serif" font-size="26" lengthAdjust="spacing" textLength="196" x="315" y="874.4141">inserts the data</text><polygon fill="#A80036" points="2393,934.5195,2413,942.5195,2393,950.5195,2401,942.5195" style="stroke:#A80036;stroke-width:2.0;"/><line style="stroke:#A80036;stroke-width:2.0;" x1="1501" x2="2405" y1="942.5195" y2="942.5195"/><text fill="#000000" font-family="sans-serif" font-size="26" font-weight="bold" lengthAdjust="spacing" textLength="18" x="1515" y="933.0352">9</text><text fill="#000000" font-family="sans-serif" font-size="26" lengthAdjust="spacing" textLength="214" x="1541" y="933.0352">showDataTypes()</text><polygon fill="#A80036" points="3249,993.1406,3269,1001.1406,3249,1009.1406,3257,1001.1406" style="stroke:#A80036;stroke-width:2.0;"/><line style="stroke:#A80036;stroke-width:2.0;" x1="2437" x2="3261" y1="1001.1406" y2="1001.1406"/><text fill="#000000" font-family="sans-serif" font-size="26" font-weight="bold" lengthAdjust="spacing" textLength="36" x="2451" y="991.6563">10</text><text fill="#000000" font-family="sans-serif" font-size="26" lengthAdjust="spacing" textLength="96" x="2495" y="991.6563">values()</text><polygon fill="#A80036" points="2459,1051.7617,2439,1059.7617,2459,1067.7617,2451,1059.7617" style="stroke:#A80036;stroke-width:2.0;"/><line style="stroke:#A80036;stroke-width:2.0;stroke-dasharray:2.0,2.0;" x1="2447" x2="3281" y1="1059.7617" y2="1059.7617"/><text fill="#000000" font-family="sans-serif" font-size="26" font-weight="bold" lengthAdjust="spacing" textLength="36" x="2471" y="1050.2773">11</text><text fill="#000000" font-family="sans-serif" font-size="26" lengthAdjust="spacing" textLength="128" x="2515" y="1050.2773">dataTypes</text><polygon fill="#A80036" points="1523,1110.3828,1503,1118.3828,1523,1126.3828,1515,1118.3828" style="stroke:#A80036;stroke-width:2.0;"/><line style="stroke:#A80036;stroke-width:2.0;stroke-dasharray:2.0,2.0;" x1="1511" x2="2425" y1="1118.3828" y2="1118.3828"/><text fill="#000000" font-family="sans-serif" font-size="26" font-weight="bold" lengthAdjust="spacing" textLength="36" x="1535" y="1108.8984">12</text><text fill="#000000" font-family="sans-serif" font-size="26" lengthAdjust="spacing" textLength="128" x="1579" y="1108.8984">dataTypes</text><polygon fill="#A80036" points="297,1169.0039,277,1177.0039,297,1185.0039,289,1177.0039" style="stroke:#A80036;stroke-width:2.0;"/><line style="stroke:#A80036;stroke-width:2.0;" x1="285" x2="1489" y1="1177.0039" y2="1177.0039"/><text fill="#000000" font-family="sans-serif" font-size="26" font-weight="bold" lengthAdjust="spacing" textLength="36" x="309" y="1167.5195">13</text><text fill="#000000" font-family="sans-serif" font-size="26" lengthAdjust="spacing" textLength="412" x="353" y="1167.5195">presents the available data types</text><polygon fill="#A80036" points="1457,1227.625,1477,1235.625,1457,1243.625,1465,1235.625" style="stroke:#A80036;stroke-width:2.0;"/><line style="stroke:#A80036;stroke-width:2.0;" x1="275" x2="1469" y1="1235.625" y2="1235.625"/><text fill="#000000" font-family="sans-serif" font-size="26" font-weight="bold" lengthAdjust="spacing" textLength="36" x="289" y="1226.1406">14</text><text fill="#000000" font-family="sans-serif" font-size="26" lengthAdjust="spacing" textLength="274" x="333" y="1226.1406">selects the data types</text><polygon fill="#A80036" points="2393,1286.2461,2413,1294.2461,2393,1302.2461,2401,1294.2461" style="stroke:#A80036;stroke-width:2.0;"/><line style="stroke:#A80036;stroke-width:2.0;" x1="1501" x2="2405" y1="1294.2461" y2="1294.2461"/><text fill="#000000" font-family="sans-serif" font-size="26" font-weight="bold" lengthAdjust="spacing" textLength="36" x="1515" y="1284.7617">15</text><text fill="#000000" font-family="sans-serif" font-size="26" lengthAdjust="spacing" textLength="834" x="1559" y="1284.7617">addAttribute(name, label, description, regex, scriptPath, dataType)</text><polygon fill="#A80036" points="3393,1344.8672,3413,1352.8672,3393,1360.8672,3401,1352.8672" style="stroke:#A80036;stroke-width:2.0;"/><line style="stroke:#A80036;stroke-width:2.0;" x1="2437" x2="3405" y1="1352.8672" y2="1352.8672"/><text fill="#000000" font-family="sans-serif" font-size="26" font-weight="bold" lengthAdjust="spacing" textLength="36" x="2451" y="1343.3828">16</text><text fill="#000000" font-family="sans-serif" font-size="26" lengthAdjust="spacing" textLength="76" x="2495" y="1343.3828">create</text><rect fill="#FEFECE" filter="url(#fglw9hopold60)" height="93.9531" style="stroke:#A80036;stroke-width:3.0;" width="246" x="3417" y="1310.2461"/><text fill="#000000" font-family="sans-serif" font-size="28" lengthAdjust="spacing" textLength="186" x="3447" y="1351.3164">&lt;&lt;builder&gt;&gt;</text><text fill="#000000" font-family="sans-serif" font-size="28" lengthAdjust="spacing" textLength="218" x="3431" y="1384.293">AttributeBuilder</text><polygon fill="#A80036" points="3510,1468.8203,3530,1476.8203,3510,1484.8203,3518,1476.8203" style="stroke:#A80036;stroke-width:2.0;"/><line style="stroke:#A80036;stroke-width:2.0;" x1="2437" x2="3522" y1="1476.8203" y2="1476.8203"/><text fill="#000000" font-family="sans-serif" font-size="26" font-weight="bold" lengthAdjust="spacing" textLength="36" x="2451" y="1467.3359">17</text><text fill="#000000" font-family="sans-serif" font-size="26" lengthAdjust="spacing" textLength="210" x="2495" y="1467.3359">withName(name)</text><polygon fill="#A80036" points="3510,1587.4414,3530,1595.4414,3510,1603.4414,3518,1595.4414" style="stroke:#A80036;stroke-width:2.0;"/><line style="stroke:#A80036;stroke-width:2.0;" x1="2437" x2="3522" y1="1595.4414" y2="1595.4414"/><text fill="#000000" font-family="sans-serif" font-size="26" font-weight="bold" lengthAdjust="spacing" textLength="36" x="2451" y="1585.957">18</text><text fill="#000000" font-family="sans-serif" font-size="26" lengthAdjust="spacing" textLength="196" x="2495" y="1585.957">withLabel(label)</text><polygon fill="#A80036" points="3510,1706.0625,3530,1714.0625,3510,1722.0625,3518,1714.0625" style="stroke:#A80036;stroke-width:2.0;"/><line style="stroke:#A80036;stroke-width:2.0;" x1="2437" x2="3522" y1="1714.0625" y2="1714.0625"/><text fill="#000000" font-family="sans-serif" font-size="26" font-weight="bold" lengthAdjust="spacing" textLength="36" x="2451" y="1704.5781">19</text><text fill="#000000" font-family="sans-serif" font-size="26" lengthAdjust="spacing" textLength="358" x="2495" y="1704.5781">withDescription(description)</text><polygon fill="#A80036" points="3510,1824.6836,3530,1832.6836,3510,1840.6836,3518,1832.6836" style="stroke:#A80036;stroke-width:2.0;"/><line style="stroke:#A80036;stroke-width:2.0;" x1="2437" x2="3522" y1="1832.6836" y2="1832.6836"/><text fill="#000000" font-family="sans-serif" font-size="26" font-weight="bold" lengthAdjust="spacing" textLength="36" x="2451" y="1823.1992">20</text><text fill="#000000" font-family="sans-serif" font-size="26" lengthAdjust="spacing" textLength="216" x="2495" y="1823.1992">withRegex(regex)</text><polygon fill="#A80036" points="3510,1943.3047,3530,1951.3047,3510,1959.3047,3518,1951.3047" style="stroke:#A80036;stroke-width:2.0;"/><line style="stroke:#A80036;stroke-width:2.0;" x1="2437" x2="3522" y1="1951.3047" y2="1951.3047"/><text fill="#000000" font-family="sans-serif" font-size="26" font-weight="bold" lengthAdjust="spacing" textLength="36" x="2451" y="1941.8203">21</text><text fill="#000000" font-family="sans-serif" font-size="26" lengthAdjust="spacing" textLength="268" x="2495" y="1941.8203">withScript(scriptPath)</text><polygon fill="#A80036" points="3510,2061.9258,3530,2069.9258,3510,2077.9258,3518,2069.9258" style="stroke:#A80036;stroke-width:2.0;"/><line style="stroke:#A80036;stroke-width:2.0;" x1="2437" x2="3522" y1="2069.9258" y2="2069.9258"/><text fill="#000000" font-family="sans-serif" font-size="26" font-weight="bold" lengthAdjust="spacing" textLength="36" x="2451" y="2060.4414">22</text><text fill="#000000" font-family="sans-serif" font-size="26" lengthAdjust="spacing" textLength="302" x="2495" y="2060.4414">withDataType(dataType)</text><polygon fill="#A80036" points="3510,2180.5469,3530,2188.5469,3510,2196.5469,3518,2188.5469" style="stroke:#A80036;stroke-width:2.0;"/><line style="stroke:#A80036;stroke-width:2.0;" x1="2437" x2="3522" y1="2188.5469" y2="2188.5469"/><text fill="#000000" font-family="sans-serif" font-size="26" font-weight="bold" lengthAdjust="spacing" textLength="36" x="2451" y="2179.0625">23</text><text fill="#000000" font-family="sans-serif" font-size="26" lengthAdjust="spacing" textLength="80" x="2495" y="2179.0625">build()</text><polygon fill="#A80036" points="4374,2239.168,4394,2247.168,4374,2255.168,4382,2247.168" style="stroke:#A80036;stroke-width:2.0;"/><line style="stroke:#A80036;stroke-width:2.0;" x1="3554" x2="4386" y1="2247.168" y2="2247.168"/><text fill="#000000" font-family="sans-serif" font-size="26" font-weight="bold" lengthAdjust="spacing" textLength="36" x="3568" y="2237.6836">24</text><text fill="#000000" font-family="sans-serif" font-size="26" lengthAdjust="spacing" textLength="752" x="3612" y="2237.6836">create(name, label, description, regex, scriptPath, dataType)</text><rect fill="#FEFECE" filter="url(#fglw9hopold60)" height="93.9531" style="stroke:#A80036;stroke-width:3.0;" width="220" x="4398" y="2204.5469"/><text fill="#000000" font-family="sans-serif" font-size="28" lengthAdjust="spacing" textLength="192" x="4412" y="2245.6172">&lt;&lt;domain&gt;&gt;</text><text fill="#000000" font-family="sans-serif" font-size="28" lengthAdjust="spacing" textLength="122" x="4447" y="2278.5938">Attribute</text><polygon fill="#A80036" points="3576,2363.1211,3556,2371.1211,3576,2379.1211,3568,2371.1211" style="stroke:#A80036;stroke-width:2.0;"/><line style="stroke:#A80036;stroke-width:2.0;stroke-dasharray:2.0,2.0;" x1="3564" x2="4510" y1="2371.1211" y2="2371.1211"/><text fill="#000000" font-family="sans-serif" font-size="26" font-weight="bold" lengthAdjust="spacing" textLength="36" x="3588" y="2361.6367">25</text><text fill="#000000" font-family="sans-serif" font-size="26" lengthAdjust="spacing" textLength="108" x="3632" y="2361.6367">attribute</text><polygon fill="#A80036" points="2459,2421.7422,2439,2429.7422,2459,2437.7422,2451,2429.7422" style="stroke:#A80036;stroke-width:2.0;"/><line style="stroke:#A80036;stroke-width:2.0;stroke-dasharray:2.0,2.0;" x1="2447" x2="3542" y1="2429.7422" y2="2429.7422"/><text fill="#000000" font-family="sans-serif" font-size="26" font-weight="bold" lengthAdjust="spacing" textLength="36" x="2471" y="2420.2578">26</text><text fill="#000000" font-family="sans-serif" font-size="26" lengthAdjust="spacing" textLength="108" x="2515" y="2420.2578">attribute</text><polygon fill="#A80036" points="1523,2480.3633,1503,2488.3633,1523,2496.3633,1515,2488.3633" style="stroke:#A80036;stroke-width:2.0;"/><line style="stroke:#A80036;stroke-width:2.0;stroke-dasharray:2.0,2.0;" x1="1511" x2="2425" y1="2488.3633" y2="2488.3633"/><text fill="#000000" font-family="sans-serif" font-size="26" font-weight="bold" lengthAdjust="spacing" textLength="36" x="1535" y="2478.8789">27</text><text fill="#000000" font-family="sans-serif" font-size="26" lengthAdjust="spacing" textLength="108" x="1579" y="2478.8789">attribute</text><polygon fill="#A80036" points="297,2538.9844,277,2546.9844,297,2554.9844,289,2546.9844" style="stroke:#A80036;stroke-width:2.0;"/><line style="stroke:#A80036;stroke-width:2.0;" x1="285" x2="1489" y1="2546.9844" y2="2546.9844"/><text fill="#000000" font-family="sans-serif" font-size="26" font-weight="bold" lengthAdjust="spacing" textLength="36" x="309" y="2537.5">28</text><text fill="#000000" font-family="sans-serif" font-size="26" lengthAdjust="spacing" textLength="710" x="353" y="2537.5">asks if there is more attribute to add to the current form</text><polygon fill="#A80036" points="1457,2597.6055,1477,2605.6055,1457,2613.6055,1465,2605.6055" style="stroke:#A80036;stroke-width:2.0;"/><line style="stroke:#A80036;stroke-width:2.0;" x1="275" x2="1469" y1="2605.6055" y2="2605.6055"/><text fill="#000000" font-family="sans-serif" font-size="26" font-weight="bold" lengthAdjust="spacing" textLength="36" x="289" y="2596.1211">29</text><text fill="#000000" font-family="sans-serif" font-size="26" lengthAdjust="spacing" textLength="116" x="333" y="2596.1211">responds</text><polygon fill="#A80036" points="2393,2670.2266,2413,2678.2266,2393,2686.2266,2401,2678.2266" style="stroke:#A80036;stroke-width:2.0;"/><line style="stroke:#A80036;stroke-width:2.0;" x1="1501" x2="2405" y1="2678.2266" y2="2678.2266"/><text fill="#000000" font-family="sans-serif" font-size="26" font-weight="bold" lengthAdjust="spacing" textLength="36" x="1515" y="2668.7422">30</text><text fill="#000000" font-family="sans-serif" font-size="26" lengthAdjust="spacing" textLength="136" x="1559" y="2668.7422">saveForm()</text><polygon fill="#A80036" points="3004,2728.8477,3024,2736.8477,3004,2744.8477,3012,2736.8477" style="stroke:#A80036;stroke-width:2.0;"/><line style="stroke:#A80036;stroke-width:2.0;" x1="2437" x2="3016" y1="2736.8477" y2="2736.8477"/><text fill="#000000" font-family="sans-serif" font-size="26" font-weight="bold" lengthAdjust="spacing" textLength="36" x="2451" y="2727.3633">31</text><text fill="#000000" font-family="sans-serif" font-size="26" lengthAdjust="spacing" textLength="382" x="2495" y="2727.3633">withAttributeList(attributeList)</text><polygon fill="#A80036" points="3004,2847.4688,3024,2855.4688,3004,2863.4688,3012,2855.4688" style="stroke:#A80036;stroke-width:2.0;"/><line style="stroke:#A80036;stroke-width:2.0;" x1="2437" x2="3016" y1="2855.4688" y2="2855.4688"/><text fill="#000000" font-family="sans-serif" font-size="26" font-weight="bold" lengthAdjust="spacing" textLength="36" x="2451" y="2845.9844">32</text><text fill="#000000" font-family="sans-serif" font-size="26" lengthAdjust="spacing" textLength="80" x="2495" y="2845.9844">build()</text><polygon fill="#A80036" points="4622,2906.0898,4642,2914.0898,4622,2922.0898,4630,2914.0898" style="stroke:#A80036;stroke-width:2.0;"/><line style="stroke:#A80036;stroke-width:2.0;" x1="3048" x2="4634" y1="2914.0898" y2="2914.0898"/><text fill="#000000" font-family="sans-serif" font-size="26" font-weight="bold" lengthAdjust="spacing" textLength="36" x="3062" y="2904.6055">33</text><text fill="#000000" font-family="sans-serif" font-size="26" lengthAdjust="spacing" textLength="466" x="3106" y="2904.6055">create(name, formType, attributeList)</text><rect fill="#FEFECE" filter="url(#fglw9hopold60)" height="93.9531" style="stroke:#A80036;stroke-width:3.0;" width="220" x="4646" y="2871.4688"/><text fill="#000000" font-family="sans-serif" font-size="28" lengthAdjust="spacing" textLength="192" x="4660" y="2912.5391">&lt;&lt;domain&gt;&gt;</text><text fill="#000000" font-family="sans-serif" font-size="28" lengthAdjust="spacing" textLength="72" x="4720" y="2945.5156">Form</text><polygon fill="#A80036" points="3070,3030.043,3050,3038.043,3070,3046.043,3062,3038.043" style="stroke:#A80036;stroke-width:2.0;"/><line style="stroke:#A80036;stroke-width:2.0;stroke-dasharray:2.0,2.0;" x1="3058" x2="4758" y1="3038.043" y2="3038.043"/><text fill="#000000" font-family="sans-serif" font-size="26" font-weight="bold" lengthAdjust="spacing" textLength="36" x="3082" y="3028.5586">34</text><text fill="#000000" font-family="sans-serif" font-size="26" lengthAdjust="spacing" textLength="60" x="3126" y="3028.5586">form</text><polygon fill="#A80036" points="2459,3088.6641,2439,3096.6641,2459,3104.6641,2451,3096.6641" style="stroke:#A80036;stroke-width:2.0;"/><line style="stroke:#A80036;stroke-width:2.0;stroke-dasharray:2.0,2.0;" x1="2447" x2="3036" y1="3096.6641" y2="3096.6641"/><text fill="#000000" font-family="sans-serif" font-size="26" font-weight="bold" lengthAdjust="spacing" textLength="36" x="2471" y="3087.1797">35</text><text fill="#000000" font-family="sans-serif" font-size="26" lengthAdjust="spacing" textLength="60" x="2515" y="3087.1797">form</text><polygon fill="#A80036" points="4980,3147.2852,5000,3155.2852,4980,3163.2852,4988,3155.2852" style="stroke:#A80036;stroke-width:2.0;"/><line style="stroke:#A80036;stroke-width:2.0;" x1="2437" x2="4992" y1="3155.2852" y2="3155.2852"/><text fill="#000000" font-family="sans-serif" font-size="26" font-weight="bold" lengthAdjust="spacing" textLength="36" x="2451" y="3145.8008">36</text><text fill="#000000" font-family="sans-serif" font-size="26" lengthAdjust="spacing" textLength="132" x="2495" y="3145.8008">save(form)</text><polygon fill="#A80036" points="2459,3205.9063,2439,3213.9063,2459,3221.9063,2451,3213.9063" style="stroke:#A80036;stroke-width:2.0;"/><line style="stroke:#A80036;stroke-width:2.0;stroke-dasharray:2.0,2.0;" x1="2447" x2="5012" y1="3213.9063" y2="3213.9063"/><text fill="#000000" font-family="sans-serif" font-size="26" font-weight="bold" lengthAdjust="spacing" textLength="36" x="2471" y="3204.4219">37</text><text fill="#000000" font-family="sans-serif" font-size="26" lengthAdjust="spacing" textLength="60" x="2515" y="3204.4219">form</text><polygon fill="#A80036" points="1523,3264.5273,1503,3272.5273,1523,3280.5273,1515,3272.5273" style="stroke:#A80036;stroke-width:2.0;"/><line style="stroke:#A80036;stroke-width:2.0;stroke-dasharray:2.0,2.0;" x1="1511" x2="2425" y1="3272.5273" y2="3272.5273"/><text fill="#000000" font-family="sans-serif" font-size="26" font-weight="bold" lengthAdjust="spacing" textLength="36" x="1535" y="3263.043">38</text><text fill="#000000" font-family="sans-serif" font-size="26" lengthAdjust="spacing" textLength="60" x="1579" y="3263.043">form</text><polygon fill="#A80036" points="2393,3323.1484,2413,3331.1484,2393,3339.1484,2401,3331.1484" style="stroke:#A80036;stroke-width:2.0;"/><line style="stroke:#A80036;stroke-width:2.0;" x1="1501" x2="2405" y1="3331.1484" y2="3331.1484"/><text fill="#000000" font-family="sans-serif" font-size="26" font-weight="bold" lengthAdjust="spacing" textLength="36" x="1515" y="3321.6641">39</text><text fill="#000000" font-family="sans-serif" font-size="26" lengthAdjust="spacing" textLength="222" x="1559" y="3321.6641">addFormToDraft()</text><polygon fill="#A80036" points="5234,3381.7695,5254,3389.7695,5234,3397.7695,5242,3389.7695" style="stroke:#A80036;stroke-width:2.0;"/><line style="stroke:#A80036;stroke-width:2.0;" x1="2437" x2="5246" y1="3389.7695" y2="3389.7695"/><text fill="#000000" font-family="sans-serif" font-size="26" font-weight="bold" lengthAdjust="spacing" textLength="36" x="2451" y="3380.2852">40</text><text fill="#000000" font-family="sans-serif" font-size="26" lengthAdjust="spacing" textLength="166" x="2495" y="3380.2852">getFormList()</text><polygon fill="#A80036" points="5234,3500.3906,5254,3508.3906,5234,3516.3906,5242,3508.3906" style="stroke:#A80036;stroke-width:2.0;"/><line style="stroke:#A80036;stroke-width:2.0;" x1="2437" x2="5246" y1="3508.3906" y2="3508.3906"/><text fill="#000000" font-family="sans-serif" font-size="26" font-weight="bold" lengthAdjust="spacing" textLength="36" x="2451" y="3498.9063">41</text><text fill="#000000" font-family="sans-serif" font-size="26" lengthAdjust="spacing" textLength="270" x="2495" y="3498.9063">setFormList(formList)</text><polygon fill="#A80036" points="2459,3559.0117,2439,3567.0117,2459,3575.0117,2451,3567.0117" style="stroke:#A80036;stroke-width:2.0;"/><line style="stroke:#A80036;stroke-width:2.0;stroke-dasharray:2.0,2.0;" x1="2447" x2="5266" y1="3567.0117" y2="3567.0117"/><text fill="#000000" font-family="sans-serif" font-size="26" font-weight="bold" lengthAdjust="spacing" textLength="36" x="2471" y="3557.5273">42</text><text fill="#000000" font-family="sans-serif" font-size="26" lengthAdjust="spacing" textLength="152" x="2515" y="3557.5273">serviceDraft</text><polygon fill="#A80036" points="1523,3617.6328,1503,3625.6328,1523,3633.6328,1515,3625.6328" style="stroke:#A80036;stroke-width:2.0;"/><line style="stroke:#A80036;stroke-width:2.0;stroke-dasharray:2.0,2.0;" x1="1511" x2="2425" y1="3625.6328" y2="3625.6328"/><text fill="#000000" font-family="sans-serif" font-size="26" font-weight="bold" lengthAdjust="spacing" textLength="36" x="1535" y="3616.1484">43</text><text fill="#000000" font-family="sans-serif" font-size="26" lengthAdjust="spacing" textLength="152" x="1579" y="3616.1484">serviceDraft</text><polygon fill="#A80036" points="287,3676.2539,267,3684.2539,287,3692.2539,279,3684.2539" style="stroke:#A80036;stroke-width:2.0;"/><line style="stroke:#A80036;stroke-width:2.0;stroke-dasharray:2.0,2.0;" x1="275" x2="1489" y1="3684.2539" y2="3684.2539"/><text fill="#000000" font-family="sans-serif" font-size="26" font-weight="bold" lengthAdjust="spacing" textLength="36" x="299" y="3674.7695">44</text><text fill="#000000" font-family="sans-serif" font-size="26" lengthAdjust="spacing" textLength="152" x="343" y="3674.7695">serviceDraft</text><!--MD5=[9424ae7e92c4b599e1f9c8dfe7b5ead2]
@startuml
autonumber
hide footbox

actor "Gestor de Serviços de Help Desk" as HSM

participant "<<presentation>>\nXXUI" as UI
participant "<<application>>\nXXController" as CTRL
database "<<repository>>\nServiceDraftRepository" as SR
participant "<<builder>>\nFormBuilder" as FBD
participant "<<domain>>\nDataType" as DT
participant "<<builder>>\nAttributeBuilder" as ABD
participant "<<domain>>\nAttribute" as A
participant "<<domain>>\nForm" as F
database "<<repository>>\nFormRepository" as FR
participant "<<domain>>\nServiceDraft" as S
participant "<<persistence>>\nPersistenceContext" as PC
participant "<<persistence>>\nAppSettings" as AS
participant "<<factory>>\nRepositoryFactory" as RF
participant "<<domain>>\nFormName" as FM
participant "<<domain>>\nFormType" as FT
participant "<<domain>>\nAttributeName" as AN
participant "<<domain>>\nAttributeLabel" as AL
participant "<<domain>>\nAttributeDescription" as AD
participant "<<domain>>\nAttributeRegex" as AR
participant "<<domain>>\nAttributeScript" as ASC

activate HSM
activate UI

UI -> HSM : requests the user to insert the form's name
deactivate UI

HSM -> UI : inserts the form's name
activate UI

UI -> CTRL : addForm(name, formType)
activate CTRL

CTRL -> FBD** : create
CTRL -> FBD : withName(name)
activate FBD
deactivate FBD

CTRL -> FBD : withFormType(formType)
activate FBD
deactivate FBD
deactivate CTRL

loop until the user doesn't want to add more attributes
UI -> HSM : requests the user to insert the attribute's data (name, label, description, regex, scriptPath)
deactivate UI

HSM -> UI : inserts the data
activate UI

UI -> CTRL : showDataTypes()
activate CTRL

CTRL -> DT : values()
activate DT

DT - -> CTRL : dataTypes
deactivate DT

CTRL - -> UI : dataTypes
deactivate CTRL

UI -> HSM : presents the available data types
deactivate UI

HSM -> UI : selects the data types
activate UI

UI -> CTRL : addAttribute(name, label, description, regex, scriptPath, dataType)
activate CTRL

CTRL -> ABD** : create
CTRL -> ABD : withName(name)
activate ABD
deactivate ABD

CTRL -> ABD : withLabel(label)
activate ABD
deactivate ABD

CTRL -> ABD : withDescription(description)
activate ABD
deactivate ABD

CTRL -> ABD : withRegex(regex)
activate ABD
deactivate ABD

CTRL -> ABD : withScript(scriptPath)
activate ABD
deactivate ABD

CTRL -> ABD : withDataType(dataType)
activate ABD
deactivate ABD

CTRL -> ABD : build()
activate ABD

ABD -> A** : create(name, label, description, regex, scriptPath, dataType)
activate A

A - -> ABD : attribute
deactivate A

ABD - -> CTRL : attribute
deactivate ABD

CTRL - -> UI : attribute
deactivate CTRL

UI -> HSM : asks if there is more attribute to add to the current form
deactivate UI

HSM -> UI : responds
activate UI
end

UI -> CTRL : saveForm()
activate CTRL

CTRL -> FBD : withAttributeList(attributeList)
activate FBD
deactivate FBD

CTRL -> FBD : build()
activate FBD

FBD -> F** : create(name, formType, attributeList)
activate F

F - -> FBD : form
deactivate F

FBD - -> CTRL : form
deactivate FBD

CTRL -> FR : save(form)
activate FR
FR - -> CTRL : form
deactivate FR

CTRL - -> UI : form
deactivate CTRL

UI -> CTRL : addFormToDraft()
activate CTRL

CTRL -> S : getFormList()
activate S
deactivate S

CTRL -> S : setFormList(formList)
activate S

S - -> CTRL : serviceDraft
deactivate S

CTRL - -> UI : serviceDraft
deactivate CTRL

UI - -> HSM : serviceDraft
deactivate UI
deactivate HSM

@enduml

PlantUML version 1.2021.00(Sun Jan 10 10:25:05 WET 2021)
(GPL source distribution)
Java Runtime: OpenJDK Runtime Environment
JVM: OpenJDK 64-Bit Server VM
Default Encoding: UTF-8
Language: en
Country: PT
--></g></svg>