<?xml version="1.0" encoding="UTF-8" standalone="no"?><svg xmlns="http://www.w3.org/2000/svg" xmlns:xlink="http://www.w3.org/1999/xlink" contentScriptType="application/ecmascript" contentStyleType="text/css" height="690px" preserveAspectRatio="none" style="width:3514px;height:690px;" version="1.1" viewBox="0 0 3514 690" width="3514px" zoomAndPan="magnify"><defs><filter height="300%" id="f4h264dslo287" width="300%" x="-1" y="-1"><feGaussianBlur result="blurOut" stdDeviation="2.0"/><feColorMatrix in="blurOut" result="blurOut2" type="matrix" values="0 0 0 0 0 0 0 0 0 0 0 0 0 0 0 0 0 0 .4 0"/><feOffset dx="4.0" dy="4.0" in="blurOut2" result="blurOut3"/><feBlend in="SourceGraphic" in2="blurOut3" mode="normal"/></filter></defs><g><!--MD5=[8fd473fd151a2794da4f2c8684676405]
cluster Presentation--><polygon fill="#DDDDDD" filter="url(#f4h264dslo287)" points="58,6,154,6,161,29.6094,188,29.6094,188,126,58,126,58,6" style="stroke:#000000;stroke-width:1.5;"/><line style="stroke:#000000;stroke-width:1.5;" x1="58" x2="161" y1="29.6094" y2="29.6094"/><text fill="#000000" font-family="sans-serif" font-size="14" font-weight="bold" lengthAdjust="spacing" textLength="90" x="62" y="22.5332">Presentation</text><!--MD5=[d64883541e3d62e3241c4d12decf100d]
cluster Application--><polygon fill="#DDDDDD" filter="url(#f4h264dslo287)" points="33,159,117,159,124,182.6094,213,182.6094,213,334,33,334,33,159" style="stroke:#000000;stroke-width:1.5;"/><line style="stroke:#000000;stroke-width:1.5;" x1="33" x2="124" y1="182.6094" y2="182.6094"/><text fill="#000000" font-family="sans-serif" font-size="14" font-weight="bold" lengthAdjust="spacing" textLength="78" x="37" y="175.5332">Application</text><!--MD5=[121a8bf1197281ab89ed693fab589f94]
cluster Domain--><polygon fill="#DDDDDD" filter="url(#f4h264dslo287)" points="1468,384,1526,384,1533,407.6094,3497,407.6094,3497,683,1468,683,1468,384" style="stroke:#000000;stroke-width:1.5;"/><line style="stroke:#000000;stroke-width:1.5;" x1="1468" x2="1533" y1="407.6094" y2="407.6094"/><text fill="#000000" font-family="sans-serif" font-size="14" font-weight="bold" lengthAdjust="spacing" textLength="52" x="1472" y="400.5332">Domain</text><!--MD5=[44cc74aea8168fb4471e814fff38ed12]
cluster Builder--><polygon fill="#DDDDDD" filter="url(#f4h264dslo287)" points="3199,428,3256,428,3263,451.6094,3473,451.6094,3473,659,3199,659,3199,428" style="stroke:#000000;stroke-width:1.5;"/><line style="stroke:#000000;stroke-width:1.5;" x1="3199" x2="3263" y1="451.6094" y2="451.6094"/><text fill="#000000" font-family="sans-serif" font-size="14" font-weight="bold" lengthAdjust="spacing" textLength="51" x="3203" y="444.5332">Builder</text><!--MD5=[bc6b40dadbf86ab6a0c8405a467a48af]
cluster Persistence--><polygon fill="#DDDDDD" filter="url(#f4h264dslo287)" points="16,412,106,412,113,435.6094,1444,435.6094,1444,655,16,655,16,412" style="stroke:#000000;stroke-width:1.5;"/><line style="stroke:#000000;stroke-width:1.5;" x1="16" x2="113" y1="435.6094" y2="435.6094"/><text fill="#000000" font-family="sans-serif" font-size="14" font-weight="bold" lengthAdjust="spacing" textLength="84" x="20" y="428.5332">Persistence</text><!--MD5=[0d5799440b3bfefd92b00abfcd2c79b9]
cluster Factory--><polygon fill="#DDDDDD" filter="url(#f4h264dslo287)" points="1258,456,1316,456,1323,479.6094,1420,479.6094,1420,631,1258,631,1258,456" style="stroke:#000000;stroke-width:1.5;"/><line style="stroke:#000000;stroke-width:1.5;" x1="1258" x2="1323" y1="479.6094" y2="479.6094"/><text fill="#000000" font-family="sans-serif" font-size="14" font-weight="bold" lengthAdjust="spacing" textLength="52" x="1262" y="472.5332">Factory</text><!--MD5=[71971f99a41bb66cf321ce46bb59f738]
cluster Repository--><polygon fill="#DDDDDD" filter="url(#f4h264dslo287)" points="570,469.5,652,469.5,659,493.1094,1110,493.1094,1110,617.5,570,617.5,570,469.5" style="stroke:#000000;stroke-width:1.5;"/><line style="stroke:#000000;stroke-width:1.5;" x1="570" x2="659" y1="493.1094" y2="493.1094"/><text fill="#000000" font-family="sans-serif" font-size="14" font-weight="bold" lengthAdjust="spacing" textLength="76" x="574" y="486.0332">Repository</text><!--MD5=[0b2443ac7bf5e4044963f4a0e48cb688]
class SaveDraftUI--><rect codeLine="4" fill="#FEFECE" filter="url(#f4h264dslo287)" height="48" id="SaveDraftUI" style="stroke:#A80036;stroke-width:1.5;" width="97" x="74.5" y="62"/><ellipse cx="89.5" cy="78" fill="#ADD1B2" rx="11" ry="11" style="stroke:#A80036;stroke-width:1.0;"/><path d="M91.5,74.5 Q91.7031,74 91.9375,73.75 Q92.1719,73.5 92.4375,73.5 Q92.9063,73.5 93.2031,73.7813 Q93.5,74.0625 93.5,74.7188 L93.5,76.2813 Q93.5,76.9375 93.2188,77.2188 Q92.9375,77.5 92.5,77.5 Q92.1094,77.5 91.8594,77.3281 Q91.6094,77.1563 91.5,76.7031 Q91.4531,76.3906 91.2813,76.2188 Q90.9688,75.8906 90.4063,75.7031 Q89.8438,75.5 89.2813,75.5 Q88.5781,75.5 87.9844,75.7813 Q87.4063,76.0625 86.9531,76.6875 Q86.5,77.3125 86.5,78.1719 L86.5,79.0938 Q86.5,80.125 87.3438,80.8125 Q88.1875,81.5 89.6875,81.5 Q90.5781,81.5 91.2031,81.2969 Q91.5625,81.1875 91.9688,80.8281 Q92.2344,80.625 92.375,80.5625 Q92.5156,80.5 92.6875,80.5 Q93.0156,80.5 93.25,80.7656 Q93.5,81.0156 93.5,81.375 Q93.5,81.7188 93.1563,82.125 Q92.6563,82.7188 91.8594,83.0469 Q90.8125,83.5 89.5313,83.5 Q88.0313,83.5 86.8281,82.9063 Q85.8594,82.4375 85.1719,81.4219 Q84.5,80.4063 84.5,79.2031 L84.5,78.1094 Q84.5,76.8594 85.0938,75.7656 Q85.7031,74.6719 86.75,74.0938 Q87.8125,73.5 89,73.5 Q89.7188,73.5 90.3438,73.75 Q90.9688,74 91.5,74.5 Z " fill="#000000"/><text fill="#000000" font-family="sans-serif" font-size="12" lengthAdjust="spacing" textLength="65" x="103.5" y="82.9102">SaveDraftUI</text><line style="stroke:#A80036;stroke-width:1.5;" x1="75.5" x2="170.5" y1="94" y2="94"/><line style="stroke:#A80036;stroke-width:1.5;" x1="75.5" x2="170.5" y1="102" y2="102"/><!--MD5=[fb11d1a57d51a66333c544594141571a]
class SaveDraftController--><rect codeLine="11" fill="#FEFECE" filter="url(#f4h264dslo287)" height="103.3438" id="SaveDraftController" style="stroke:#A80036;stroke-width:1.5;" width="147" x="49.5" y="215"/><ellipse cx="68.1" cy="231" fill="#ADD1B2" rx="11" ry="11" style="stroke:#A80036;stroke-width:1.0;"/><path d="M70.1,227.5 Q70.3031,227 70.5375,226.75 Q70.7719,226.5 71.0375,226.5 Q71.5063,226.5 71.8031,226.7813 Q72.1,227.0625 72.1,227.7188 L72.1,229.2813 Q72.1,229.9375 71.8188,230.2188 Q71.5375,230.5 71.1,230.5 Q70.7094,230.5 70.4594,230.3281 Q70.2094,230.1563 70.1,229.7031 Q70.0531,229.3906 69.8813,229.2188 Q69.5688,228.8906 69.0063,228.7031 Q68.4438,228.5 67.8813,228.5 Q67.1781,228.5 66.5844,228.7813 Q66.0063,229.0625 65.5531,229.6875 Q65.1,230.3125 65.1,231.1719 L65.1,232.0938 Q65.1,233.125 65.9438,233.8125 Q66.7875,234.5 68.2875,234.5 Q69.1781,234.5 69.8031,234.2969 Q70.1625,234.1875 70.5688,233.8281 Q70.8344,233.625 70.975,233.5625 Q71.1156,233.5 71.2875,233.5 Q71.6156,233.5 71.85,233.7656 Q72.1,234.0156 72.1,234.375 Q72.1,234.7188 71.7563,235.125 Q71.2563,235.7188 70.4594,236.0469 Q69.4125,236.5 68.1313,236.5 Q66.6313,236.5 65.4281,235.9063 Q64.4594,235.4375 63.7719,234.4219 Q63.1,233.4063 63.1,232.2031 L63.1,231.1094 Q63.1,229.8594 63.6937,228.7656 Q64.3031,227.6719 65.35,227.0938 Q66.4125,226.5 67.6,226.5 Q68.3188,226.5 68.9438,226.75 Q69.5688,227 70.1,227.5 Z " fill="#000000"/><text fill="#000000" font-family="sans-serif" font-size="12" lengthAdjust="spacing" textLength="107" x="82.9" y="235.9102">SaveDraftController</text><line style="stroke:#A80036;stroke-width:1.5;" x1="50.5" x2="195.5" y1="247" y2="247"/><line style="stroke:#A80036;stroke-width:1.5;" x1="50.5" x2="195.5" y1="255" y2="255"/><text fill="#000000" font-family="sans-serif" font-size="11" lengthAdjust="spacing" textLength="45" x="55.5" y="270.4189">+create()</text><text fill="#000000" font-family="sans-serif" font-size="11" lengthAdjust="spacing" textLength="119" x="55.5" y="284.2549">+getServiceDraftById(id)</text><text fill="#000000" font-family="sans-serif" font-size="11" lengthAdjust="spacing" textLength="83" x="55.5" y="298.0908">+getCatalogues()</text><text fill="#000000" font-family="sans-serif" font-size="11" lengthAdjust="spacing" textLength="135" x="55.5" y="311.9268">+saveService(serviceDraft)</text><!--MD5=[dbb8b4f13c7b21394f9d757e58732f45]
class Service--><rect codeLine="21" fill="#FEFECE" filter="url(#f4h264dslo287)" height="75.6719" id="Service" style="stroke:#A80036;stroke-width:1.5;" width="260" x="1783" y="525.5"/><ellipse cx="1888.75" cy="541.5" fill="#ADD1B2" rx="11" ry="11" style="stroke:#A80036;stroke-width:1.0;"/><path d="M1890.75,538 Q1890.9531,537.5 1891.1875,537.25 Q1891.4219,537 1891.6875,537 Q1892.1563,537 1892.4531,537.2813 Q1892.75,537.5625 1892.75,538.2188 L1892.75,539.7813 Q1892.75,540.4375 1892.4688,540.7188 Q1892.1875,541 1891.75,541 Q1891.3594,541 1891.1094,540.8281 Q1890.8594,540.6563 1890.75,540.2031 Q1890.7031,539.8906 1890.5313,539.7188 Q1890.2188,539.3906 1889.6563,539.2031 Q1889.0938,539 1888.5313,539 Q1887.8281,539 1887.2344,539.2813 Q1886.6563,539.5625 1886.2031,540.1875 Q1885.75,540.8125 1885.75,541.6719 L1885.75,542.5938 Q1885.75,543.625 1886.5938,544.3125 Q1887.4375,545 1888.9375,545 Q1889.8281,545 1890.4531,544.7969 Q1890.8125,544.6875 1891.2188,544.3281 Q1891.4844,544.125 1891.625,544.0625 Q1891.7656,544 1891.9375,544 Q1892.2656,544 1892.5,544.2656 Q1892.75,544.5156 1892.75,544.875 Q1892.75,545.2188 1892.4063,545.625 Q1891.9063,546.2188 1891.1094,546.5469 Q1890.0625,547 1888.7813,547 Q1887.2813,547 1886.0781,546.4063 Q1885.1094,545.9375 1884.4219,544.9219 Q1883.75,543.9063 1883.75,542.7031 L1883.75,541.6094 Q1883.75,540.3594 1884.3438,539.2656 Q1884.9531,538.1719 1886,537.5938 Q1887.0625,537 1888.25,537 Q1888.9688,537 1889.5938,537.25 Q1890.2188,537.5 1890.75,538 Z " fill="#000000"/><text fill="#000000" font-family="sans-serif" font-size="12" lengthAdjust="spacing" textLength="40" x="1909.25" y="546.4102">Service</text><line style="stroke:#A80036;stroke-width:1.5;" x1="1784" x2="2042" y1="557.5" y2="557.5"/><line style="stroke:#A80036;stroke-width:1.5;" x1="1784" x2="2042" y1="565.5" y2="565.5"/><text fill="#000000" font-family="sans-serif" font-size="11" lengthAdjust="spacing" textLength="245" x="1789" y="580.9189">+create(title, briefDescription, completeDescription,</text><text fill="#000000" font-family="sans-serif" font-size="11" lengthAdjust="spacing" textLength="160" x="1789" y="594.7549">feedback, keywordList, formList)</text><!--MD5=[925d5031f5a4e53e61ccd699b6d8c35b]
class ServiceDraft--><rect codeLine="25" fill="#FEFECE" filter="url(#f4h264dslo287)" height="131.0156" id="ServiceDraft" style="stroke:#A80036;stroke-width:1.5;" width="139" x="1608.5" y="498"/><ellipse cx="1641.95" cy="514" fill="#ADD1B2" rx="11" ry="11" style="stroke:#A80036;stroke-width:1.0;"/><path d="M1643.95,510.5 Q1644.1531,510 1644.3875,509.75 Q1644.6219,509.5 1644.8875,509.5 Q1645.3563,509.5 1645.6531,509.7813 Q1645.95,510.0625 1645.95,510.7188 L1645.95,512.2813 Q1645.95,512.9375 1645.6688,513.2188 Q1645.3875,513.5 1644.95,513.5 Q1644.5594,513.5 1644.3094,513.3281 Q1644.0594,513.1563 1643.95,512.7031 Q1643.9031,512.3906 1643.7313,512.2188 Q1643.4188,511.8906 1642.8563,511.7031 Q1642.2938,511.5 1641.7313,511.5 Q1641.0281,511.5 1640.4344,511.7813 Q1639.8563,512.0625 1639.4031,512.6875 Q1638.95,513.3125 1638.95,514.1719 L1638.95,515.0938 Q1638.95,516.125 1639.7938,516.8125 Q1640.6375,517.5 1642.1375,517.5 Q1643.0281,517.5 1643.6531,517.2969 Q1644.0125,517.1875 1644.4188,516.8281 Q1644.6844,516.625 1644.825,516.5625 Q1644.9656,516.5 1645.1375,516.5 Q1645.4656,516.5 1645.7,516.7656 Q1645.95,517.0156 1645.95,517.375 Q1645.95,517.7188 1645.6063,518.125 Q1645.1063,518.7188 1644.3094,519.0469 Q1643.2625,519.5 1641.9813,519.5 Q1640.4813,519.5 1639.2781,518.9063 Q1638.3094,518.4375 1637.6219,517.4219 Q1636.95,516.4063 1636.95,515.2031 L1636.95,514.1094 Q1636.95,512.8594 1637.5438,511.7656 Q1638.1531,510.6719 1639.2,510.0938 Q1640.2625,509.5 1641.45,509.5 Q1642.1688,509.5 1642.7938,509.75 Q1643.4188,510 1643.95,510.5 Z " fill="#000000"/><text fill="#000000" font-family="sans-serif" font-size="12" lengthAdjust="spacing" textLength="66" x="1660.05" y="518.9102">ServiceDraft</text><line style="stroke:#A80036;stroke-width:1.5;" x1="1609.5" x2="1746.5" y1="530" y2="530"/><line style="stroke:#A80036;stroke-width:1.5;" x1="1609.5" x2="1746.5" y1="538" y2="538"/><text fill="#000000" font-family="sans-serif" font-size="11" lengthAdjust="spacing" textLength="48" x="1614.5" y="553.4189">+getTitle()</text><text fill="#000000" font-family="sans-serif" font-size="11" lengthAdjust="spacing" textLength="106" x="1614.5" y="567.2549">+getBriefDescription()</text><text fill="#000000" font-family="sans-serif" font-size="11" lengthAdjust="spacing" textLength="127" x="1614.5" y="581.0908">+getCompleteDescription()</text><text fill="#000000" font-family="sans-serif" font-size="11" lengthAdjust="spacing" textLength="76" x="1614.5" y="594.9268">+getFeedback()</text><text fill="#000000" font-family="sans-serif" font-size="11" lengthAdjust="spacing" textLength="91" x="1614.5" y="608.7627">+getKeywordList()</text><text fill="#000000" font-family="sans-serif" font-size="11" lengthAdjust="spacing" textLength="70" x="1614.5" y="622.5986">+getFormList()</text><!--MD5=[6f29f313cd4199edbf91b9ce3a4faa98]
class Form--><rect codeLine="34" fill="#FEFECE" filter="url(#f4h264dslo287)" height="48" id="Form" style="stroke:#A80036;stroke-width:1.5;" width="61" x="2100.5" y="539.5"/><ellipse cx="2115.5" cy="555.5" fill="#ADD1B2" rx="11" ry="11" style="stroke:#A80036;stroke-width:1.0;"/><path d="M2117.5,552 Q2117.7031,551.5 2117.9375,551.25 Q2118.1719,551 2118.4375,551 Q2118.9063,551 2119.2031,551.2813 Q2119.5,551.5625 2119.5,552.2188 L2119.5,553.7813 Q2119.5,554.4375 2119.2188,554.7188 Q2118.9375,555 2118.5,555 Q2118.1094,555 2117.8594,554.8281 Q2117.6094,554.6563 2117.5,554.2031 Q2117.4531,553.8906 2117.2813,553.7188 Q2116.9688,553.3906 2116.4063,553.2031 Q2115.8438,553 2115.2813,553 Q2114.5781,553 2113.9844,553.2813 Q2113.4063,553.5625 2112.9531,554.1875 Q2112.5,554.8125 2112.5,555.6719 L2112.5,556.5938 Q2112.5,557.625 2113.3438,558.3125 Q2114.1875,559 2115.6875,559 Q2116.5781,559 2117.2031,558.7969 Q2117.5625,558.6875 2117.9688,558.3281 Q2118.2344,558.125 2118.375,558.0625 Q2118.5156,558 2118.6875,558 Q2119.0156,558 2119.25,558.2656 Q2119.5,558.5156 2119.5,558.875 Q2119.5,559.2188 2119.1563,559.625 Q2118.6563,560.2188 2117.8594,560.5469 Q2116.8125,561 2115.5313,561 Q2114.0313,561 2112.8281,560.4063 Q2111.8594,559.9375 2111.1719,558.9219 Q2110.5,557.9063 2110.5,556.7031 L2110.5,555.6094 Q2110.5,554.3594 2111.0938,553.2656 Q2111.7031,552.1719 2112.75,551.5938 Q2113.8125,551 2115,551 Q2115.7188,551 2116.3438,551.25 Q2116.9688,551.5 2117.5,552 Z " fill="#000000"/><text fill="#000000" font-family="sans-serif" font-size="12" lengthAdjust="spacing" textLength="29" x="2129.5" y="560.4102">Form</text><line style="stroke:#A80036;stroke-width:1.5;" x1="2101.5" x2="2160.5" y1="571.5" y2="571.5"/><line style="stroke:#A80036;stroke-width:1.5;" x1="2101.5" x2="2160.5" y1="579.5" y2="579.5"/><!--MD5=[a77781830b4eef1927aef37ad01ad2c2]
class Catalogue--><rect codeLine="37" fill="#FEFECE" filter="url(#f4h264dslo287)" height="48" id="Catalogue" style="stroke:#A80036;stroke-width:1.5;" width="89" x="1484.5" y="539.5"/><ellipse cx="1499.5" cy="555.5" fill="#ADD1B2" rx="11" ry="11" style="stroke:#A80036;stroke-width:1.0;"/><path d="M1501.5,552 Q1501.7031,551.5 1501.9375,551.25 Q1502.1719,551 1502.4375,551 Q1502.9063,551 1503.2031,551.2813 Q1503.5,551.5625 1503.5,552.2188 L1503.5,553.7813 Q1503.5,554.4375 1503.2188,554.7188 Q1502.9375,555 1502.5,555 Q1502.1094,555 1501.8594,554.8281 Q1501.6094,554.6563 1501.5,554.2031 Q1501.4531,553.8906 1501.2813,553.7188 Q1500.9688,553.3906 1500.4063,553.2031 Q1499.8438,553 1499.2813,553 Q1498.5781,553 1497.9844,553.2813 Q1497.4063,553.5625 1496.9531,554.1875 Q1496.5,554.8125 1496.5,555.6719 L1496.5,556.5938 Q1496.5,557.625 1497.3438,558.3125 Q1498.1875,559 1499.6875,559 Q1500.5781,559 1501.2031,558.7969 Q1501.5625,558.6875 1501.9688,558.3281 Q1502.2344,558.125 1502.375,558.0625 Q1502.5156,558 1502.6875,558 Q1503.0156,558 1503.25,558.2656 Q1503.5,558.5156 1503.5,558.875 Q1503.5,559.2188 1503.1563,559.625 Q1502.6563,560.2188 1501.8594,560.5469 Q1500.8125,561 1499.5313,561 Q1498.0313,561 1496.8281,560.4063 Q1495.8594,559.9375 1495.1719,558.9219 Q1494.5,557.9063 1494.5,556.7031 L1494.5,555.6094 Q1494.5,554.3594 1495.0938,553.2656 Q1495.7031,552.1719 1496.75,551.5938 Q1497.8125,551 1499,551 Q1499.7188,551 1500.3438,551.25 Q1500.9688,551.5 1501.5,552 Z " fill="#000000"/><text fill="#000000" font-family="sans-serif" font-size="12" lengthAdjust="spacing" textLength="57" x="1513.5" y="560.4102">Catalogue</text><line style="stroke:#A80036;stroke-width:1.5;" x1="1485.5" x2="1572.5" y1="571.5" y2="571.5"/><line style="stroke:#A80036;stroke-width:1.5;" x1="1485.5" x2="1572.5" y1="579.5" y2="579.5"/><!--MD5=[90111e5cdc788a7ef73a3273c23dcc2b]
class Title--><rect codeLine="40" fill="#FEFECE" filter="url(#f4h264dslo287)" height="75.6719" id="Title" style="stroke:#A80036;stroke-width:1.5;" width="92" x="3088" y="525.5"/><ellipse cx="3119.65" cy="541.5" fill="#ADD1B2" rx="11" ry="11" style="stroke:#A80036;stroke-width:1.0;"/><path d="M3121.65,538 Q3121.8531,537.5 3122.0875,537.25 Q3122.3219,537 3122.5875,537 Q3123.0563,537 3123.3531,537.2813 Q3123.65,537.5625 3123.65,538.2188 L3123.65,539.7813 Q3123.65,540.4375 3123.3688,540.7188 Q3123.0875,541 3122.65,541 Q3122.2594,541 3122.0094,540.8281 Q3121.7594,540.6563 3121.65,540.2031 Q3121.6031,539.8906 3121.4313,539.7188 Q3121.1188,539.3906 3120.5563,539.2031 Q3119.9938,539 3119.4313,539 Q3118.7281,539 3118.1344,539.2813 Q3117.5563,539.5625 3117.1031,540.1875 Q3116.65,540.8125 3116.65,541.6719 L3116.65,542.5938 Q3116.65,543.625 3117.4938,544.3125 Q3118.3375,545 3119.8375,545 Q3120.7281,545 3121.3531,544.7969 Q3121.7125,544.6875 3122.1188,544.3281 Q3122.3844,544.125 3122.525,544.0625 Q3122.6656,544 3122.8375,544 Q3123.1656,544 3123.4,544.2656 Q3123.65,544.5156 3123.65,544.875 Q3123.65,545.2188 3123.3063,545.625 Q3122.8063,546.2188 3122.0094,546.5469 Q3120.9625,547 3119.6813,547 Q3118.1813,547 3116.9781,546.4063 Q3116.0094,545.9375 3115.3219,544.9219 Q3114.65,543.9063 3114.65,542.7031 L3114.65,541.6094 Q3114.65,540.3594 3115.2438,539.2656 Q3115.8531,538.1719 3116.9,537.5938 Q3117.9625,537 3119.15,537 Q3119.8688,537 3120.4938,537.25 Q3121.1188,537.5 3121.65,538 Z " fill="#000000"/><text fill="#000000" font-family="sans-serif" font-size="12" lengthAdjust="spacing" textLength="23" x="3137.35" y="546.4102">Title</text><line style="stroke:#A80036;stroke-width:1.5;" x1="3089" x2="3179" y1="557.5" y2="557.5"/><line style="stroke:#A80036;stroke-width:1.5;" x1="3089" x2="3179" y1="565.5" y2="565.5"/><text fill="#000000" font-family="sans-serif" font-size="11" lengthAdjust="spacing" textLength="80" x="3094" y="580.9189">+createTitle(title)</text><text fill="#000000" font-family="sans-serif" font-size="11" lengthAdjust="spacing" textLength="65" x="3094" y="594.7549">-validate(title)</text><!--MD5=[16e34fb2e0281018267f0ef5d0b296ef]
class BriefDescription--><rect codeLine="45" fill="#FEFECE" filter="url(#f4h264dslo287)" height="75.6719" id="BriefDescription" style="stroke:#A80036;stroke-width:1.5;" width="210" x="2843" y="525.5"/><ellipse cx="2899.75" cy="541.5" fill="#ADD1B2" rx="11" ry="11" style="stroke:#A80036;stroke-width:1.0;"/><path d="M2901.75,538 Q2901.9531,537.5 2902.1875,537.25 Q2902.4219,537 2902.6875,537 Q2903.1563,537 2903.4531,537.2813 Q2903.75,537.5625 2903.75,538.2188 L2903.75,539.7813 Q2903.75,540.4375 2903.4688,540.7188 Q2903.1875,541 2902.75,541 Q2902.3594,541 2902.1094,540.8281 Q2901.8594,540.6563 2901.75,540.2031 Q2901.7031,539.8906 2901.5313,539.7188 Q2901.2188,539.3906 2900.6563,539.2031 Q2900.0938,539 2899.5313,539 Q2898.8281,539 2898.2344,539.2813 Q2897.6563,539.5625 2897.2031,540.1875 Q2896.75,540.8125 2896.75,541.6719 L2896.75,542.5938 Q2896.75,543.625 2897.5938,544.3125 Q2898.4375,545 2899.9375,545 Q2900.8281,545 2901.4531,544.7969 Q2901.8125,544.6875 2902.2188,544.3281 Q2902.4844,544.125 2902.625,544.0625 Q2902.7656,544 2902.9375,544 Q2903.2656,544 2903.5,544.2656 Q2903.75,544.5156 2903.75,544.875 Q2903.75,545.2188 2903.4063,545.625 Q2902.9063,546.2188 2902.1094,546.5469 Q2901.0625,547 2899.7813,547 Q2898.2813,547 2897.0781,546.4063 Q2896.1094,545.9375 2895.4219,544.9219 Q2894.75,543.9063 2894.75,542.7031 L2894.75,541.6094 Q2894.75,540.3594 2895.3438,539.2656 Q2895.9531,538.1719 2897,537.5938 Q2898.0625,537 2899.25,537 Q2899.9688,537 2900.5938,537.25 Q2901.2188,537.5 2901.75,538 Z " fill="#000000"/><text fill="#000000" font-family="sans-serif" font-size="12" lengthAdjust="spacing" textLength="88" x="2920.25" y="546.4102">BriefDescription</text><line style="stroke:#A80036;stroke-width:1.5;" x1="2844" x2="3052" y1="557.5" y2="557.5"/><line style="stroke:#A80036;stroke-width:1.5;" x1="2844" x2="3052" y1="565.5" y2="565.5"/><text fill="#000000" font-family="sans-serif" font-size="11" lengthAdjust="spacing" textLength="198" x="2849" y="580.9189">+createBriefDescription(briefDescription)</text><text fill="#000000" font-family="sans-serif" font-size="11" lengthAdjust="spacing" textLength="125" x="2849" y="594.7549">-validate(briefDescription)</text><!--MD5=[ed144b2dd6fac69485396b0debfc58a0]
class CompleteDescription--><rect codeLine="50" fill="#FEFECE" filter="url(#f4h264dslo287)" height="75.6719" id="CompleteDescription" style="stroke:#A80036;stroke-width:1.5;" width="247" x="2560.5" y="525.5"/><ellipse cx="2621.25" cy="541.5" fill="#ADD1B2" rx="11" ry="11" style="stroke:#A80036;stroke-width:1.0;"/><path d="M2623.25,538 Q2623.4531,537.5 2623.6875,537.25 Q2623.9219,537 2624.1875,537 Q2624.6563,537 2624.9531,537.2813 Q2625.25,537.5625 2625.25,538.2188 L2625.25,539.7813 Q2625.25,540.4375 2624.9688,540.7188 Q2624.6875,541 2624.25,541 Q2623.8594,541 2623.6094,540.8281 Q2623.3594,540.6563 2623.25,540.2031 Q2623.2031,539.8906 2623.0313,539.7188 Q2622.7188,539.3906 2622.1563,539.2031 Q2621.5938,539 2621.0313,539 Q2620.3281,539 2619.7344,539.2813 Q2619.1563,539.5625 2618.7031,540.1875 Q2618.25,540.8125 2618.25,541.6719 L2618.25,542.5938 Q2618.25,543.625 2619.0938,544.3125 Q2619.9375,545 2621.4375,545 Q2622.3281,545 2622.9531,544.7969 Q2623.3125,544.6875 2623.7188,544.3281 Q2623.9844,544.125 2624.125,544.0625 Q2624.2656,544 2624.4375,544 Q2624.7656,544 2625,544.2656 Q2625.25,544.5156 2625.25,544.875 Q2625.25,545.2188 2624.9063,545.625 Q2624.4063,546.2188 2623.6094,546.5469 Q2622.5625,547 2621.2813,547 Q2619.7813,547 2618.5781,546.4063 Q2617.6094,545.9375 2616.9219,544.9219 Q2616.25,543.9063 2616.25,542.7031 L2616.25,541.6094 Q2616.25,540.3594 2616.8438,539.2656 Q2617.4531,538.1719 2618.5,537.5938 Q2619.5625,537 2620.75,537 Q2621.4688,537 2622.0938,537.25 Q2622.7188,537.5 2623.25,538 Z " fill="#000000"/><text fill="#000000" font-family="sans-serif" font-size="12" lengthAdjust="spacing" textLength="117" x="2641.75" y="546.4102">CompleteDescription</text><line style="stroke:#A80036;stroke-width:1.5;" x1="2561.5" x2="2806.5" y1="557.5" y2="557.5"/><line style="stroke:#A80036;stroke-width:1.5;" x1="2561.5" x2="2806.5" y1="565.5" y2="565.5"/><text fill="#000000" font-family="sans-serif" font-size="11" lengthAdjust="spacing" textLength="235" x="2566.5" y="580.9189">+createDescricaoCompleta(completeDescription)</text><text fill="#000000" font-family="sans-serif" font-size="11" lengthAdjust="spacing" textLength="146" x="2566.5" y="594.7549">-validate(completeDescription)</text><!--MD5=[1ac27345a8a52a4a812e38456e107300]
class Keyword--><rect codeLine="55" fill="#FEFECE" filter="url(#f4h264dslo287)" height="75.6719" id="Keyword" style="stroke:#A80036;stroke-width:1.5;" width="145" x="2380.5" y="525.5"/><ellipse cx="2425.25" cy="541.5" fill="#ADD1B2" rx="11" ry="11" style="stroke:#A80036;stroke-width:1.0;"/><path d="M2427.25,538 Q2427.4531,537.5 2427.6875,537.25 Q2427.9219,537 2428.1875,537 Q2428.6563,537 2428.9531,537.2813 Q2429.25,537.5625 2429.25,538.2188 L2429.25,539.7813 Q2429.25,540.4375 2428.9688,540.7188 Q2428.6875,541 2428.25,541 Q2427.8594,541 2427.6094,540.8281 Q2427.3594,540.6563 2427.25,540.2031 Q2427.2031,539.8906 2427.0313,539.7188 Q2426.7188,539.3906 2426.1563,539.2031 Q2425.5938,539 2425.0313,539 Q2424.3281,539 2423.7344,539.2813 Q2423.1563,539.5625 2422.7031,540.1875 Q2422.25,540.8125 2422.25,541.6719 L2422.25,542.5938 Q2422.25,543.625 2423.0938,544.3125 Q2423.9375,545 2425.4375,545 Q2426.3281,545 2426.9531,544.7969 Q2427.3125,544.6875 2427.7188,544.3281 Q2427.9844,544.125 2428.125,544.0625 Q2428.2656,544 2428.4375,544 Q2428.7656,544 2429,544.2656 Q2429.25,544.5156 2429.25,544.875 Q2429.25,545.2188 2428.9063,545.625 Q2428.4063,546.2188 2427.6094,546.5469 Q2426.5625,547 2425.2813,547 Q2423.7813,547 2422.5781,546.4063 Q2421.6094,545.9375 2420.9219,544.9219 Q2420.25,543.9063 2420.25,542.7031 L2420.25,541.6094 Q2420.25,540.3594 2420.8438,539.2656 Q2421.4531,538.1719 2422.5,537.5938 Q2423.5625,537 2424.75,537 Q2425.4688,537 2426.0938,537.25 Q2426.7188,537.5 2427.25,538 Z " fill="#000000"/><text fill="#000000" font-family="sans-serif" font-size="12" lengthAdjust="spacing" textLength="47" x="2445.75" y="546.4102">Keyword</text><line style="stroke:#A80036;stroke-width:1.5;" x1="2381.5" x2="2524.5" y1="557.5" y2="557.5"/><line style="stroke:#A80036;stroke-width:1.5;" x1="2381.5" x2="2524.5" y1="565.5" y2="565.5"/><text fill="#000000" font-family="sans-serif" font-size="11" lengthAdjust="spacing" textLength="133" x="2386.5" y="580.9189">+createKeyword(keyword)</text><text fill="#000000" font-family="sans-serif" font-size="11" lengthAdjust="spacing" textLength="92" x="2386.5" y="594.7549">-validate(keyword)</text><!--MD5=[1a502b0dbedafd291c48f46ef8646183]
class Feedback--><rect codeLine="60" fill="#FEFECE" filter="url(#f4h264dslo287)" height="75.6719" id="Feedback" style="stroke:#A80036;stroke-width:1.5;" width="149" x="2196.5" y="525.5"/><ellipse cx="2239.85" cy="541.5" fill="#ADD1B2" rx="11" ry="11" style="stroke:#A80036;stroke-width:1.0;"/><path d="M2241.85,538 Q2242.0531,537.5 2242.2875,537.25 Q2242.5219,537 2242.7875,537 Q2243.2563,537 2243.5531,537.2813 Q2243.85,537.5625 2243.85,538.2188 L2243.85,539.7813 Q2243.85,540.4375 2243.5688,540.7188 Q2243.2875,541 2242.85,541 Q2242.4594,541 2242.2094,540.8281 Q2241.9594,540.6563 2241.85,540.2031 Q2241.8031,539.8906 2241.6313,539.7188 Q2241.3188,539.3906 2240.7563,539.2031 Q2240.1938,539 2239.6313,539 Q2238.9281,539 2238.3344,539.2813 Q2237.7563,539.5625 2237.3031,540.1875 Q2236.85,540.8125 2236.85,541.6719 L2236.85,542.5938 Q2236.85,543.625 2237.6938,544.3125 Q2238.5375,545 2240.0375,545 Q2240.9281,545 2241.5531,544.7969 Q2241.9125,544.6875 2242.3188,544.3281 Q2242.5844,544.125 2242.725,544.0625 Q2242.8656,544 2243.0375,544 Q2243.3656,544 2243.6,544.2656 Q2243.85,544.5156 2243.85,544.875 Q2243.85,545.2188 2243.5063,545.625 Q2243.0063,546.2188 2242.2094,546.5469 Q2241.1625,547 2239.8813,547 Q2238.3813,547 2237.1781,546.4063 Q2236.2094,545.9375 2235.5219,544.9219 Q2234.85,543.9063 2234.85,542.7031 L2234.85,541.6094 Q2234.85,540.3594 2235.4438,539.2656 Q2236.0531,538.1719 2237.1,537.5938 Q2238.1625,537 2239.35,537 Q2240.0688,537 2240.6938,537.25 Q2241.3188,537.5 2241.85,538 Z " fill="#000000"/><text fill="#000000" font-family="sans-serif" font-size="12" lengthAdjust="spacing" textLength="54" x="2260.15" y="546.4102">Feedback</text><line style="stroke:#A80036;stroke-width:1.5;" x1="2197.5" x2="2344.5" y1="557.5" y2="557.5"/><line style="stroke:#A80036;stroke-width:1.5;" x1="2197.5" x2="2344.5" y1="565.5" y2="565.5"/><text fill="#000000" font-family="sans-serif" font-size="11" lengthAdjust="spacing" textLength="137" x="2202.5" y="580.9189">+createFeedback(feedback)</text><text fill="#000000" font-family="sans-serif" font-size="11" lengthAdjust="spacing" textLength="94" x="2202.5" y="594.7549">-validate(feedback)</text><!--MD5=[52bbb3977dd17db2f7922dab5df8ebdb]
class ServiceBuilder--><rect codeLine="68" fill="#FEFECE" filter="url(#f4h264dslo287)" height="158.6875" id="ServiceBuilder" style="stroke:#A80036;stroke-width:1.5;" width="242" x="3215" y="484"/><ellipse cx="3292.25" cy="500" fill="#ADD1B2" rx="11" ry="11" style="stroke:#A80036;stroke-width:1.0;"/><path d="M3294.25,496.5 Q3294.4531,496 3294.6875,495.75 Q3294.9219,495.5 3295.1875,495.5 Q3295.6563,495.5 3295.9531,495.7813 Q3296.25,496.0625 3296.25,496.7188 L3296.25,498.2813 Q3296.25,498.9375 3295.9688,499.2188 Q3295.6875,499.5 3295.25,499.5 Q3294.8594,499.5 3294.6094,499.3281 Q3294.3594,499.1563 3294.25,498.7031 Q3294.2031,498.3906 3294.0313,498.2188 Q3293.7188,497.8906 3293.1563,497.7031 Q3292.5938,497.5 3292.0313,497.5 Q3291.3281,497.5 3290.7344,497.7813 Q3290.1563,498.0625 3289.7031,498.6875 Q3289.25,499.3125 3289.25,500.1719 L3289.25,501.0938 Q3289.25,502.125 3290.0938,502.8125 Q3290.9375,503.5 3292.4375,503.5 Q3293.3281,503.5 3293.9531,503.2969 Q3294.3125,503.1875 3294.7188,502.8281 Q3294.9844,502.625 3295.125,502.5625 Q3295.2656,502.5 3295.4375,502.5 Q3295.7656,502.5 3296,502.7656 Q3296.25,503.0156 3296.25,503.375 Q3296.25,503.7188 3295.9063,504.125 Q3295.4063,504.7188 3294.6094,505.0469 Q3293.5625,505.5 3292.2813,505.5 Q3290.7813,505.5 3289.5781,504.9063 Q3288.6094,504.4375 3287.9219,503.4219 Q3287.25,502.4063 3287.25,501.2031 L3287.25,500.1094 Q3287.25,498.8594 3287.8438,497.7656 Q3288.4531,496.6719 3289.5,496.0938 Q3290.5625,495.5 3291.75,495.5 Q3292.4688,495.5 3293.0938,495.75 Q3293.7188,496 3294.25,496.5 Z " fill="#000000"/><text fill="#000000" font-family="sans-serif" font-size="12" lengthAdjust="spacing" textLength="79" x="3312.75" y="504.9102">ServiceBuilder</text><line style="stroke:#A80036;stroke-width:1.5;" x1="3216" x2="3456" y1="516" y2="516"/><line style="stroke:#A80036;stroke-width:1.5;" x1="3216" x2="3456" y1="524" y2="524"/><text fill="#000000" font-family="sans-serif" font-size="11" lengthAdjust="spacing" textLength="45" x="3221" y="539.4189">+create()</text><text fill="#000000" font-family="sans-serif" font-size="11" lengthAdjust="spacing" textLength="70" x="3221" y="553.2549">+withTitle(title)</text><text fill="#000000" font-family="sans-serif" font-size="11" lengthAdjust="spacing" textLength="188" x="3221" y="567.0908">+withBriefDescription(briefDescription)</text><text fill="#000000" font-family="sans-serif" font-size="11" lengthAdjust="spacing" textLength="230" x="3221" y="580.9268">+withCompleteDescription(completeDescription)</text><text fill="#000000" font-family="sans-serif" font-size="11" lengthAdjust="spacing" textLength="127" x="3221" y="594.7627">+withFeedback(feedback)</text><text fill="#000000" font-family="sans-serif" font-size="11" lengthAdjust="spacing" textLength="157" x="3221" y="608.5986">+withKeywordList(keywordList)</text><text fill="#000000" font-family="sans-serif" font-size="11" lengthAdjust="spacing" textLength="115" x="3221" y="622.4346">+withFormList(formList)</text><text fill="#000000" font-family="sans-serif" font-size="11" lengthAdjust="spacing" textLength="36" x="3221" y="636.2705">+build()</text><!--MD5=[e8c189551b7885b999ad7cefb30fc2a3]
class PersistenceContext--><rect codeLine="84" fill="#FEFECE" filter="url(#f4h264dslo287)" height="61.8359" id="PersistenceContext" style="stroke:#A80036;stroke-width:1.5;" width="139" x="32.5" y="532.5"/><ellipse cx="47.5" cy="548.5" fill="#ADD1B2" rx="11" ry="11" style="stroke:#A80036;stroke-width:1.0;"/><path d="M49.5,545 Q49.7031,544.5 49.9375,544.25 Q50.1719,544 50.4375,544 Q50.9063,544 51.2031,544.2813 Q51.5,544.5625 51.5,545.2188 L51.5,546.7813 Q51.5,547.4375 51.2188,547.7188 Q50.9375,548 50.5,548 Q50.1094,548 49.8594,547.8281 Q49.6094,547.6563 49.5,547.2031 Q49.4531,546.8906 49.2813,546.7188 Q48.9688,546.3906 48.4063,546.2031 Q47.8438,546 47.2813,546 Q46.5781,546 45.9844,546.2813 Q45.4063,546.5625 44.9531,547.1875 Q44.5,547.8125 44.5,548.6719 L44.5,549.5938 Q44.5,550.625 45.3438,551.3125 Q46.1875,552 47.6875,552 Q48.5781,552 49.2031,551.7969 Q49.5625,551.6875 49.9688,551.3281 Q50.2344,551.125 50.375,551.0625 Q50.5156,551 50.6875,551 Q51.0156,551 51.25,551.2656 Q51.5,551.5156 51.5,551.875 Q51.5,552.2188 51.1563,552.625 Q50.6563,553.2188 49.8594,553.5469 Q48.8125,554 47.5313,554 Q46.0313,554 44.8281,553.4063 Q43.8594,552.9375 43.1719,551.9219 Q42.5,550.9063 42.5,549.7031 L42.5,548.6094 Q42.5,547.3594 43.0938,546.2656 Q43.7031,545.1719 44.75,544.5938 Q45.8125,544 47,544 Q47.7188,544 48.3438,544.25 Q48.9688,544.5 49.5,545 Z " fill="#000000"/><text fill="#000000" font-family="sans-serif" font-size="12" lengthAdjust="spacing" textLength="107" x="61.5" y="553.4102">PersistenceContext</text><line style="stroke:#A80036;stroke-width:1.5;" x1="33.5" x2="170.5" y1="564.5" y2="564.5"/><line style="stroke:#A80036;stroke-width:1.5;" x1="33.5" x2="170.5" y1="572.5" y2="572.5"/><text fill="#000000" font-family="sans-serif" font-size="11" lengthAdjust="spacing" textLength="71" x="38.5" y="587.9189">+repositories()</text><!--MD5=[b8e4c95865208c934bfcfda4f90bf50c]
class AppSettings--><rect codeLine="88" fill="#FEFECE" filter="url(#f4h264dslo287)" height="75.6719" id="AppSettings" style="stroke:#A80036;stroke-width:1.5;" width="130" x="275" y="525.5"/><ellipse cx="304.4" cy="541.5" fill="#ADD1B2" rx="11" ry="11" style="stroke:#A80036;stroke-width:1.0;"/><path d="M306.4,538 Q306.6031,537.5 306.8375,537.25 Q307.0719,537 307.3375,537 Q307.8063,537 308.1031,537.2813 Q308.4,537.5625 308.4,538.2188 L308.4,539.7813 Q308.4,540.4375 308.1188,540.7188 Q307.8375,541 307.4,541 Q307.0094,541 306.7594,540.8281 Q306.5094,540.6563 306.4,540.2031 Q306.3531,539.8906 306.1813,539.7188 Q305.8688,539.3906 305.3063,539.2031 Q304.7438,539 304.1813,539 Q303.4781,539 302.8844,539.2813 Q302.3063,539.5625 301.8531,540.1875 Q301.4,540.8125 301.4,541.6719 L301.4,542.5938 Q301.4,543.625 302.2438,544.3125 Q303.0875,545 304.5875,545 Q305.4781,545 306.1031,544.7969 Q306.4625,544.6875 306.8688,544.3281 Q307.1344,544.125 307.275,544.0625 Q307.4156,544 307.5875,544 Q307.9156,544 308.15,544.2656 Q308.4,544.5156 308.4,544.875 Q308.4,545.2188 308.0563,545.625 Q307.5563,546.2188 306.7594,546.5469 Q305.7125,547 304.4313,547 Q302.9313,547 301.7281,546.4063 Q300.7594,545.9375 300.0719,544.9219 Q299.4,543.9063 299.4,542.7031 L299.4,541.6094 Q299.4,540.3594 299.9938,539.2656 Q300.6031,538.1719 301.65,537.5938 Q302.7125,537 303.9,537 Q304.6188,537 305.2438,537.25 Q305.8688,537.5 306.4,538 Z " fill="#000000"/><text fill="#000000" font-family="sans-serif" font-size="12" lengthAdjust="spacing" textLength="66" x="321.6" y="546.4102">AppSettings</text><line style="stroke:#A80036;stroke-width:1.5;" x1="276" x2="404" y1="557.5" y2="557.5"/><line style="stroke:#A80036;stroke-width:1.5;" x1="276" x2="404" y1="565.5" y2="565.5"/><text fill="#000000" font-family="sans-serif" font-size="11" lengthAdjust="spacing" textLength="55" x="281" y="580.9189">+instance()</text><text fill="#000000" font-family="sans-serif" font-size="11" lengthAdjust="spacing" textLength="118" x="281" y="594.7549">+getRepositoryFactory()</text><!--MD5=[27fbecddafeed049b4f631f921ad8164]
class ServicoBuilder--><rect fill="#FEFECE" filter="url(#f4h264dslo287)" height="48" id="ServicoBuilder" style="stroke:#A80036;stroke-width:1.5;" width="111" x="440.5" y="539.5"/><ellipse cx="455.5" cy="555.5" fill="#ADD1B2" rx="11" ry="11" style="stroke:#A80036;stroke-width:1.0;"/><path d="M457.5,552 Q457.7031,551.5 457.9375,551.25 Q458.1719,551 458.4375,551 Q458.9063,551 459.2031,551.2813 Q459.5,551.5625 459.5,552.2188 L459.5,553.7813 Q459.5,554.4375 459.2188,554.7188 Q458.9375,555 458.5,555 Q458.1094,555 457.8594,554.8281 Q457.6094,554.6563 457.5,554.2031 Q457.4531,553.8906 457.2813,553.7188 Q456.9688,553.3906 456.4063,553.2031 Q455.8438,553 455.2813,553 Q454.5781,553 453.9844,553.2813 Q453.4063,553.5625 452.9531,554.1875 Q452.5,554.8125 452.5,555.6719 L452.5,556.5938 Q452.5,557.625 453.3438,558.3125 Q454.1875,559 455.6875,559 Q456.5781,559 457.2031,558.7969 Q457.5625,558.6875 457.9688,558.3281 Q458.2344,558.125 458.375,558.0625 Q458.5156,558 458.6875,558 Q459.0156,558 459.25,558.2656 Q459.5,558.5156 459.5,558.875 Q459.5,559.2188 459.1563,559.625 Q458.6563,560.2188 457.8594,560.5469 Q456.8125,561 455.5313,561 Q454.0313,561 452.8281,560.4063 Q451.8594,559.9375 451.1719,558.9219 Q450.5,557.9063 450.5,556.7031 L450.5,555.6094 Q450.5,554.3594 451.0938,553.2656 Q451.7031,552.1719 452.75,551.5938 Q453.8125,551 455,551 Q455.7188,551 456.3438,551.25 Q456.9688,551.5 457.5,552 Z " fill="#000000"/><text fill="#000000" font-family="sans-serif" font-size="12" lengthAdjust="spacing" textLength="79" x="469.5" y="560.4102">ServicoBuilder</text><line style="stroke:#A80036;stroke-width:1.5;" x1="441.5" x2="550.5" y1="571.5" y2="571.5"/><line style="stroke:#A80036;stroke-width:1.5;" x1="441.5" x2="550.5" y1="579.5" y2="579.5"/><!--MD5=[48590afff58a68e2fcba47824d6f8a11]
class RepositoryFactory--><rect codeLine="94" fill="#FEFECE" filter="url(#f4h264dslo287)" height="103.3438" id="RepositoryFactory" style="stroke:#A80036;stroke-width:1.5;" width="130" x="1274" y="512"/><ellipse cx="1289" cy="528" fill="#ADD1B2" rx="11" ry="11" style="stroke:#A80036;stroke-width:1.0;"/><path d="M1291,524.5 Q1291.2031,524 1291.4375,523.75 Q1291.6719,523.5 1291.9375,523.5 Q1292.4063,523.5 1292.7031,523.7813 Q1293,524.0625 1293,524.7188 L1293,526.2813 Q1293,526.9375 1292.7188,527.2188 Q1292.4375,527.5 1292,527.5 Q1291.6094,527.5 1291.3594,527.3281 Q1291.1094,527.1563 1291,526.7031 Q1290.9531,526.3906 1290.7813,526.2188 Q1290.4688,525.8906 1289.9063,525.7031 Q1289.3438,525.5 1288.7813,525.5 Q1288.0781,525.5 1287.4844,525.7813 Q1286.9063,526.0625 1286.4531,526.6875 Q1286,527.3125 1286,528.1719 L1286,529.0938 Q1286,530.125 1286.8438,530.8125 Q1287.6875,531.5 1289.1875,531.5 Q1290.0781,531.5 1290.7031,531.2969 Q1291.0625,531.1875 1291.4688,530.8281 Q1291.7344,530.625 1291.875,530.5625 Q1292.0156,530.5 1292.1875,530.5 Q1292.5156,530.5 1292.75,530.7656 Q1293,531.0156 1293,531.375 Q1293,531.7188 1292.6563,532.125 Q1292.1563,532.7188 1291.3594,533.0469 Q1290.3125,533.5 1289.0313,533.5 Q1287.5313,533.5 1286.3281,532.9063 Q1285.3594,532.4375 1284.6719,531.4219 Q1284,530.4063 1284,529.2031 L1284,528.1094 Q1284,526.8594 1284.5938,525.7656 Q1285.2031,524.6719 1286.25,524.0938 Q1287.3125,523.5 1288.5,523.5 Q1289.2188,523.5 1289.8438,523.75 Q1290.4688,524 1291,524.5 Z " fill="#000000"/><text fill="#000000" font-family="sans-serif" font-size="12" lengthAdjust="spacing" textLength="98" x="1303" y="532.9102">RepositoryFactory</text><line style="stroke:#A80036;stroke-width:1.5;" x1="1275" x2="1403" y1="544" y2="544"/><line style="stroke:#A80036;stroke-width:1.5;" x1="1275" x2="1403" y1="552" y2="552"/><text fill="#000000" font-family="sans-serif" font-size="11" lengthAdjust="spacing" textLength="45" x="1280" y="567.4189">+create()</text><text fill="#000000" font-family="sans-serif" font-size="11" lengthAdjust="spacing" textLength="56" x="1280" y="581.2549">+servicos()</text><text fill="#000000" font-family="sans-serif" font-size="11" lengthAdjust="spacing" textLength="61" x="1280" y="595.0908">+catalogos()</text><text fill="#000000" font-family="sans-serif" font-size="11" lengthAdjust="spacing" textLength="68" x="1280" y="608.9268">+formularios()</text><!--MD5=[cf62b7d23c2004c5280dc9b8e31eb1d4]
class ServiceRepository--><rect codeLine="103" fill="#FEFECE" filter="url(#f4h264dslo287)" height="75.6719" id="ServiceRepository" style="stroke:#A80036;stroke-width:1.5;" width="131" x="962.5" y="525.5"/><ellipse cx="977.5" cy="541.5" fill="#ADD1B2" rx="11" ry="11" style="stroke:#A80036;stroke-width:1.0;"/><path d="M979.5,538 Q979.7031,537.5 979.9375,537.25 Q980.1719,537 980.4375,537 Q980.9063,537 981.2031,537.2813 Q981.5,537.5625 981.5,538.2188 L981.5,539.7813 Q981.5,540.4375 981.2188,540.7188 Q980.9375,541 980.5,541 Q980.1094,541 979.8594,540.8281 Q979.6094,540.6563 979.5,540.2031 Q979.4531,539.8906 979.2813,539.7188 Q978.9688,539.3906 978.4063,539.2031 Q977.8438,539 977.2813,539 Q976.5781,539 975.9844,539.2813 Q975.4063,539.5625 974.9531,540.1875 Q974.5,540.8125 974.5,541.6719 L974.5,542.5938 Q974.5,543.625 975.3438,544.3125 Q976.1875,545 977.6875,545 Q978.5781,545 979.2031,544.7969 Q979.5625,544.6875 979.9688,544.3281 Q980.2344,544.125 980.375,544.0625 Q980.5156,544 980.6875,544 Q981.0156,544 981.25,544.2656 Q981.5,544.5156 981.5,544.875 Q981.5,545.2188 981.1563,545.625 Q980.6563,546.2188 979.8594,546.5469 Q978.8125,547 977.5313,547 Q976.0313,547 974.8281,546.4063 Q973.8594,545.9375 973.1719,544.9219 Q972.5,543.9063 972.5,542.7031 L972.5,541.6094 Q972.5,540.3594 973.0938,539.2656 Q973.7031,538.1719 974.75,537.5938 Q975.8125,537 977,537 Q977.7188,537 978.3438,537.25 Q978.9688,537.5 979.5,538 Z " fill="#000000"/><text fill="#000000" font-family="sans-serif" font-size="12" lengthAdjust="spacing" textLength="99" x="991.5" y="546.4102">ServiceRepository</text><line style="stroke:#A80036;stroke-width:1.5;" x1="963.5" x2="1092.5" y1="557.5" y2="557.5"/><line style="stroke:#A80036;stroke-width:1.5;" x1="963.5" x2="1092.5" y1="565.5" y2="565.5"/><text fill="#000000" font-family="sans-serif" font-size="11" lengthAdjust="spacing" textLength="45" x="968.5" y="580.9189">+create()</text><text fill="#000000" font-family="sans-serif" font-size="11" lengthAdjust="spacing" textLength="74" x="968.5" y="594.7549">+save(service)</text><!--MD5=[c442d1a7174f61885988a69cb0f958b4]
class ServiceDraftRepository--><rect codeLine="108" fill="#FEFECE" filter="url(#f4h264dslo287)" height="75.6719" id="ServiceDraftRepository" style="stroke:#A80036;stroke-width:1.5;" width="157" x="586.5" y="525.5"/><ellipse cx="601.5" cy="541.5" fill="#ADD1B2" rx="11" ry="11" style="stroke:#A80036;stroke-width:1.0;"/><path d="M603.5,538 Q603.7031,537.5 603.9375,537.25 Q604.1719,537 604.4375,537 Q604.9063,537 605.2031,537.2813 Q605.5,537.5625 605.5,538.2188 L605.5,539.7813 Q605.5,540.4375 605.2188,540.7188 Q604.9375,541 604.5,541 Q604.1094,541 603.8594,540.8281 Q603.6094,540.6563 603.5,540.2031 Q603.4531,539.8906 603.2813,539.7188 Q602.9688,539.3906 602.4063,539.2031 Q601.8438,539 601.2813,539 Q600.5781,539 599.9844,539.2813 Q599.4063,539.5625 598.9531,540.1875 Q598.5,540.8125 598.5,541.6719 L598.5,542.5938 Q598.5,543.625 599.3438,544.3125 Q600.1875,545 601.6875,545 Q602.5781,545 603.2031,544.7969 Q603.5625,544.6875 603.9688,544.3281 Q604.2344,544.125 604.375,544.0625 Q604.5156,544 604.6875,544 Q605.0156,544 605.25,544.2656 Q605.5,544.5156 605.5,544.875 Q605.5,545.2188 605.1563,545.625 Q604.6563,546.2188 603.8594,546.5469 Q602.8125,547 601.5313,547 Q600.0313,547 598.8281,546.4063 Q597.8594,545.9375 597.1719,544.9219 Q596.5,543.9063 596.5,542.7031 L596.5,541.6094 Q596.5,540.3594 597.0938,539.2656 Q597.7031,538.1719 598.75,537.5938 Q599.8125,537 601,537 Q601.7188,537 602.3438,537.25 Q602.9688,537.5 603.5,538 Z " fill="#000000"/><text fill="#000000" font-family="sans-serif" font-size="12" lengthAdjust="spacing" textLength="125" x="615.5" y="546.4102">ServiceDraftRepository</text><line style="stroke:#A80036;stroke-width:1.5;" x1="587.5" x2="742.5" y1="557.5" y2="557.5"/><line style="stroke:#A80036;stroke-width:1.5;" x1="587.5" x2="742.5" y1="565.5" y2="565.5"/><text fill="#000000" font-family="sans-serif" font-size="11" lengthAdjust="spacing" textLength="45" x="592.5" y="580.9189">+create()</text><text fill="#000000" font-family="sans-serif" font-size="11" lengthAdjust="spacing" textLength="119" x="592.5" y="594.7549">+getServiceDraftById(id)</text><!--MD5=[69bb86ab6babb49b9e011e22ae952de4]
class CatalogueRepository--><rect codeLine="113" fill="#FEFECE" filter="url(#f4h264dslo287)" height="75.6719" id="CatalogueRepository" style="stroke:#A80036;stroke-width:1.5;" width="148" x="779" y="525.5"/><ellipse cx="794" cy="541.5" fill="#ADD1B2" rx="11" ry="11" style="stroke:#A80036;stroke-width:1.0;"/><path d="M796,538 Q796.2031,537.5 796.4375,537.25 Q796.6719,537 796.9375,537 Q797.4063,537 797.7031,537.2813 Q798,537.5625 798,538.2188 L798,539.7813 Q798,540.4375 797.7188,540.7188 Q797.4375,541 797,541 Q796.6094,541 796.3594,540.8281 Q796.1094,540.6563 796,540.2031 Q795.9531,539.8906 795.7813,539.7188 Q795.4688,539.3906 794.9063,539.2031 Q794.3438,539 793.7813,539 Q793.0781,539 792.4844,539.2813 Q791.9063,539.5625 791.4531,540.1875 Q791,540.8125 791,541.6719 L791,542.5938 Q791,543.625 791.8438,544.3125 Q792.6875,545 794.1875,545 Q795.0781,545 795.7031,544.7969 Q796.0625,544.6875 796.4688,544.3281 Q796.7344,544.125 796.875,544.0625 Q797.0156,544 797.1875,544 Q797.5156,544 797.75,544.2656 Q798,544.5156 798,544.875 Q798,545.2188 797.6563,545.625 Q797.1563,546.2188 796.3594,546.5469 Q795.3125,547 794.0313,547 Q792.5313,547 791.3281,546.4063 Q790.3594,545.9375 789.6719,544.9219 Q789,543.9063 789,542.7031 L789,541.6094 Q789,540.3594 789.5938,539.2656 Q790.2031,538.1719 791.25,537.5938 Q792.3125,537 793.5,537 Q794.2188,537 794.8438,537.25 Q795.4688,537.5 796,538 Z " fill="#000000"/><text fill="#000000" font-family="sans-serif" font-size="12" lengthAdjust="spacing" textLength="116" x="808" y="546.4102">CatalogueRepository</text><line style="stroke:#A80036;stroke-width:1.5;" x1="780" x2="926" y1="557.5" y2="557.5"/><line style="stroke:#A80036;stroke-width:1.5;" x1="780" x2="926" y1="565.5" y2="565.5"/><text fill="#000000" font-family="sans-serif" font-size="11" lengthAdjust="spacing" textLength="45" x="785" y="580.9189">+create()</text><text fill="#000000" font-family="sans-serif" font-size="11" lengthAdjust="spacing" textLength="24" x="785" y="594.7549">+all()</text><!--MD5=[81dcfbd669d6e4c49dff7fbf85b96e73]
link SaveDraftUI to SaveDraftController--><path codeLine="122" d="M123,110.34 C123,135.36 123,176.01 123,209.43 " fill="none" id="SaveDraftUI-to-SaveDraftController" style="stroke:#A80036;stroke-width:1.0;stroke-dasharray:7.0,7.0;"/><polygon fill="#A80036" points="123,214.73,127,205.73,123,209.73,119,205.73,123,214.73" style="stroke:#A80036;stroke-width:1.0;"/><!--MD5=[215f50466f249dd95f14675e3b71fad3]
link SaveDraftController to ServicoBuilder--><path codeLine="123" d="M196.56,276.69 C263.56,288.69 361.21,315.8 423,376 C467.69,419.54 485.6,493.67 492.31,534.12 " fill="none" id="SaveDraftController-to-ServicoBuilder" style="stroke:#A80036;stroke-width:1.0;stroke-dasharray:7.0,7.0;"/><polygon fill="#A80036" points="493.15,539.36,495.6875,529.8436,492.3651,534.422,487.7867,531.0996,493.15,539.36" style="stroke:#A80036;stroke-width:1.0;"/><!--MD5=[57f337013ebf9704cfc54ea4bc16053d]
link SaveDraftController to PersistenceContext--><path codeLine="124" d="M119.39,318.21 C115.15,377.78 108.23,475.05 104.52,527.06 " fill="none" id="SaveDraftController-to-PersistenceContext" style="stroke:#A80036;stroke-width:1.0;stroke-dasharray:7.0,7.0;"/><polygon fill="#A80036" points="104.15,532.25,108.7828,523.5588,104.5073,527.2628,100.8033,522.9872,104.15,532.25" style="stroke:#A80036;stroke-width:1.0;"/><!--MD5=[d66efb439816738ddd3e9d5fff4bf3a7]
link AppSettings to RepositoryFactory--><path codeLine="126" d="M346.62,525.32 C355.91,484.76 377.13,422.61 423,394 C487.77,353.6 1037.51,370.09 1110,394 C1178.17,416.48 1242.64,467.94 1285.7,508.31 " fill="none" id="AppSettings-to-RepositoryFactory" style="stroke:#A80036;stroke-width:1.0;"/><polygon fill="#A80036" points="1289.54,511.93,1285.7277,502.8489,1285.899,508.5032,1280.2447,508.6745,1289.54,511.93" style="stroke:#A80036;stroke-width:1.0;"/><text fill="#000000" font-family="sans-serif" font-size="13" lengthAdjust="spacing" textLength="43" x="1174.5" y="364.4951">creates</text><!--MD5=[27fe1c91fe18bafc5695938053528609]
link PersistenceContext to AppSettings--><path codeLine="127" d="M171.8,563.5 C202.53,563.5 238.57,563.5 269.39,563.5 " fill="none" id="PersistenceContext-to-AppSettings" style="stroke:#A80036;stroke-width:1.0;"/><polygon fill="#A80036" points="274.69,563.5,265.69,559.5,269.69,563.5,265.69,567.5,274.69,563.5" style="stroke:#A80036;stroke-width:1.0;"/><text fill="#000000" font-family="sans-serif" font-size="13" lengthAdjust="spacing" textLength="67" x="189.75" y="556.9951">implements</text><!--MD5=[e2407c399f2ae11eec8128dc99dd93a4]
link RepositoryFactory to ServiceRepository--><path codeLine="129" d="M1273.78,563.5 C1222.51,563.5 1151.21,563.5 1098.61,563.5 " fill="none" id="RepositoryFactory-to-ServiceRepository" style="stroke:#A80036;stroke-width:1.0;"/><polygon fill="#A80036" points="1093.58,563.5,1102.58,567.5,1098.58,563.5,1102.58,559.5,1093.58,563.5" style="stroke:#A80036;stroke-width:1.0;"/><text fill="#000000" font-family="sans-serif" font-size="13" lengthAdjust="spacing" textLength="21" x="1173.25" y="556.9951">has</text><text fill="#000000" font-family="sans-serif" font-size="13" lengthAdjust="spacing" textLength="7" x="1258.8342" y="560.0706">1</text><text fill="#000000" font-family="sans-serif" font-size="13" lengthAdjust="spacing" textLength="7" x="1101.5674" y="560.1094">1</text><!--MD5=[5f59416c95391d0902a6b5df5b91b5a8]
link RepositoryFactory to CatalogueRepository--><path codeLine="130" d="M1289.54,511.93 C1246.53,471.08 1180.23,417.16 1110,394 C1040.36,371.03 1008.02,356.5 945,394 C899.38,421.15 874.98,479.69 863.01,520.32 " fill="none" id="RepositoryFactory-to-CatalogueRepository" style="stroke:#A80036;stroke-width:1.0;"/><polygon fill="#A80036" points="861.61,525.18,867.9434,517.6376,862.993,520.3751,860.2555,515.4247,861.61,525.18" style="stroke:#A80036;stroke-width:1.0;"/><text fill="#000000" font-family="sans-serif" font-size="13" lengthAdjust="spacing" textLength="21" x="1252.5" y="364.4951">has</text><text fill="#000000" font-family="sans-serif" font-size="13" lengthAdjust="spacing" textLength="7" x="1275.0925" y="501.0486">1</text><text fill="#000000" font-family="sans-serif" font-size="13" lengthAdjust="spacing" textLength="7" x="855.4883" y="514.7723">1</text><!--MD5=[c099f118843079ed39661509eb060af6]
link RepositoryFactory to ServiceDraftRepository--><path codeLine="131" d="M1289.54,511.93 C1246.53,471.08 1180.23,417.16 1110,394 C1036.56,369.78 828.9,355.21 762,394 C715.35,421.05 689.23,479.91 676.13,520.61 " fill="none" id="RepositoryFactory-to-ServiceDraftRepository" style="stroke:#A80036;stroke-width:1.0;"/><polygon fill="#A80036" points="674.6,525.48,681.115,518.0939,676.0995,520.7101,673.4832,515.6947,674.6,525.48" style="stroke:#A80036;stroke-width:1.0;"/><text fill="#000000" font-family="sans-serif" font-size="13" lengthAdjust="spacing" textLength="21" x="1224.5" y="364.4951">has</text><text fill="#000000" font-family="sans-serif" font-size="13" lengthAdjust="spacing" textLength="7" x="1283.0769" y="501.0486">1</text><text fill="#000000" font-family="sans-serif" font-size="13" lengthAdjust="spacing" textLength="7" x="668.7247" y="514.5528">1</text><!--MD5=[ddea2b4faec7cb9808defc1f4512b95e]
link ServiceRepository to Service--><path codeLine="133" d="M1063.91,525.29 C1105.85,483.73 1179.54,419.79 1258,394 C1365.03,358.82 1662.43,347.39 1765,394 C1821.96,419.88 1865.58,479.73 1890.26,520.9 " fill="none" id="ServiceRepository-to-Service" style="stroke:#A80036;stroke-width:1.0;"/><polygon fill="#A80036" points="1892.88,525.33,1891.7419,515.5471,1890.3349,521.0262,1884.8558,519.6193,1892.88,525.33" style="stroke:#A80036;stroke-width:1.0;"/><text fill="#000000" font-family="sans-serif" font-size="13" lengthAdjust="spacing" textLength="33" x="1094.5" y="364.4951">saves</text><text fill="#000000" font-family="sans-serif" font-size="13" lengthAdjust="spacing" textLength="7" x="1062.683" y="514.6145">1</text><text fill="#000000" font-family="sans-serif" font-size="13" lengthAdjust="spacing" textLength="5" x="1883.8508" y="514.6616">*</text><!--MD5=[a7398665fd2a89d66fc3de9c40b19ac3]
link ServiceBuilder to Service--><path codeLine="134" d="M3298.44,483.58 C3277.82,449.4 3248.7,413.04 3211,394 C3099.13,337.5 2198.83,346.12 2083,394 C2021.19,419.55 1970.06,479.68 1940.52,520.99 " fill="none" id="ServiceBuilder-to-Service" style="stroke:#A80036;stroke-width:1.0;"/><polygon fill="#A80036" points="1937.55,525.18,1946.0177,520.1503,1940.4413,521.1007,1939.4909,515.5243,1937.55,525.18" style="stroke:#A80036;stroke-width:1.0;"/><text fill="#000000" font-family="sans-serif" font-size="13" lengthAdjust="spacing" textLength="21" x="2867.5" y="364.4951">cria</text><text fill="#000000" font-family="sans-serif" font-size="13" lengthAdjust="spacing" textLength="7" x="3287.7831" y="473.2743">1</text><text fill="#000000" font-family="sans-serif" font-size="13" lengthAdjust="spacing" textLength="5" x="1959.8662" y="513.9415">*</text><!--MD5=[d53e096ef2f9280c1f0af98ac059945b]
link ServiceDraftRepository to ServiceDraft--><path codeLine="135" d="M674.6,525.48 C687.14,484.74 713.46,422.15 762,394 C841.68,347.79 1512.39,345.99 1591,394 C1626.39,415.61 1647.98,456.71 1660.8,493.02 " fill="none" id="ServiceDraftRepository-to-ServiceDraft" style="stroke:#A80036;stroke-width:1.0;"/><polygon fill="#A80036" points="1662.48,497.88,1663.3221,488.0672,1660.8474,493.154,1655.7606,490.6794,1662.48,497.88" style="stroke:#A80036;stroke-width:1.0;"/><text fill="#000000" font-family="sans-serif" font-size="13" lengthAdjust="spacing" textLength="33" x="1134.5" y="364.4951">saves</text><text fill="#000000" font-family="sans-serif" font-size="13" lengthAdjust="spacing" textLength="7" x="677.0153" y="514.5528">1</text><text fill="#000000" font-family="sans-serif" font-size="13" lengthAdjust="spacing" textLength="5" x="1655.5091" y="487.3413">*</text><!--MD5=[bf1701638b109f176f85067536801975]
link CatalogueRepository to Catalogue--><path codeLine="136" d="M861.61,525.18 C873.03,484.5 897.52,422.25 945,394 C1035.71,340.02 1327.35,343.43 1420,394 C1474.67,423.84 1506.01,494.13 1520.03,534.2 " fill="none" id="CatalogueRepository-to-Catalogue" style="stroke:#A80036;stroke-width:1.0;"/><polygon fill="#A80036" points="1521.82,539.4,1522.6978,529.5903,1520.2046,534.6681,1515.1268,532.175,1521.82,539.4" style="stroke:#A80036;stroke-width:1.0;"/><text fill="#000000" font-family="sans-serif" font-size="13" lengthAdjust="spacing" textLength="33" x="1365.5" y="364.4951">saves</text><text fill="#000000" font-family="sans-serif" font-size="13" lengthAdjust="spacing" textLength="7" x="863.6914" y="514.7723">1</text><text fill="#000000" font-family="sans-serif" font-size="13" lengthAdjust="spacing" textLength="5" x="1514.3395" y="528.7145">*</text><!--MD5=[307a5b827bcc56f3ed1b2686d6f64efd]
link Service to Title--><path codeLine="138" d="M1937.55,525.18 C1966.56,483.85 2019.06,420.43 2083,394 C2184.45,352.06 2980.86,331.34 3071,394 C3111.58,422.21 3126.08,479.83 3131.22,520.01 " fill="none" id="Service-to-Title" style="stroke:#A80036;stroke-width:1.0;"/><polygon fill="#A80036" points="3131.86,525.32,3134.7528,515.9056,3131.2609,520.356,3126.8104,516.8641,3131.86,525.32" style="stroke:#A80036;stroke-width:1.0;"/><text fill="#000000" font-family="sans-serif" font-size="13" lengthAdjust="spacing" textLength="21" x="2046.5" y="364.4951">has</text><text fill="#000000" font-family="sans-serif" font-size="13" lengthAdjust="spacing" textLength="7" x="1934.168" y="514.7723">1</text><text fill="#000000" font-family="sans-serif" font-size="13" lengthAdjust="spacing" textLength="7" x="3123.8554" y="514.6498">1</text><!--MD5=[64ca70a6196ae3efe798d45de5ac438f]
link Service to BriefDescription--><path codeLine="139" d="M1937.55,525.18 C1966.56,483.85 2019.06,420.43 2083,394 C2159.19,362.51 2751.55,356.55 2825,394 C2876.51,420.27 2911.49,479.31 2930.6,520.27 " fill="none" id="Service-to-BriefDescription" style="stroke:#A80036;stroke-width:1.0;"/><polygon fill="#A80036" points="2932.85,525.18,2932.73,515.3319,2930.7638,520.636,2925.4596,518.6698,2932.85,525.18" style="stroke:#A80036;stroke-width:1.0;"/><text fill="#000000" font-family="sans-serif" font-size="13" lengthAdjust="spacing" textLength="21" x="2511.5" y="364.4951">has</text><text fill="#000000" font-family="sans-serif" font-size="13" lengthAdjust="spacing" textLength="7" x="1942.3711" y="514.7723">1</text><text fill="#000000" font-family="sans-serif" font-size="13" lengthAdjust="spacing" textLength="7" x="2922.6445" y="514.7723">1</text><!--MD5=[a08ec51e3e9ff54b937670f6ff8bd62c]
link Service to CompleteDescription--><path codeLine="140" d="M1937.55,525.18 C1966.56,483.85 2019.06,420.43 2083,394 C2177.47,354.95 2450.45,350.6 2543,394 C2598.51,420.03 2639.75,479.83 2662.85,520.96 " fill="none" id="Service-to-CompleteDescription" style="stroke:#A80036;stroke-width:1.0;"/><polygon fill="#A80036" points="2665.3,525.38,2664.4258,515.57,2662.8718,521.0092,2657.4326,519.4552,2665.3,525.38" style="stroke:#A80036;stroke-width:1.0;"/><text fill="#000000" font-family="sans-serif" font-size="13" lengthAdjust="spacing" textLength="21" x="2097.5" y="364.4951">has</text><text fill="#000000" font-family="sans-serif" font-size="13" lengthAdjust="spacing" textLength="7" x="1934.168" y="514.7723">1</text><text fill="#000000" font-family="sans-serif" font-size="13" lengthAdjust="spacing" textLength="7" x="2654.3456" y="514.7205">1</text><!--MD5=[0a09fdf58fab1d6c8de880b74d0d184d]
link Service to Keyword--><path codeLine="141" d="M1937.55,525.18 C1966.56,483.85 2019.06,420.43 2083,394 C2198.01,346.46 2256.35,329.88 2363,394 C2408.27,421.22 2431.99,479.74 2443.49,520.35 " fill="none" id="Service-to-Keyword" style="stroke:#A80036;stroke-width:1.0;"/><polygon fill="#A80036" points="2444.83,525.21,2446.2917,515.4702,2443.4999,520.3902,2438.5799,517.5984,2444.83,525.21" style="stroke:#A80036;stroke-width:1.0;"/><text fill="#000000" font-family="sans-serif" font-size="13" lengthAdjust="spacing" textLength="21" x="2137.5" y="364.4951">has</text><text fill="#000000" font-family="sans-serif" font-size="13" lengthAdjust="spacing" textLength="7" x="1947.9163" y="513.9415">1</text><text fill="#000000" font-family="sans-serif" font-size="13" lengthAdjust="spacing" textLength="5" x="2437.9294" y="514.5202">*</text><!--MD5=[4b39c4de4f5956f9c51a87657979474f]
link Service to Feedback--><path codeLine="142" d="M1938.72,525.41 C1985.83,460.56 2089.35,340.66 2179,394 C2224.62,421.15 2249.02,479.69 2260.99,520.32 " fill="none" id="Service-to-Feedback" style="stroke:#A80036;stroke-width:1.0;"/><polygon fill="#A80036" points="2262.39,525.18,2263.7445,515.4247,2261.007,520.3751,2256.0566,517.6376,2262.39,525.18" style="stroke:#A80036;stroke-width:1.0;"/><text fill="#000000" font-family="sans-serif" font-size="13" lengthAdjust="spacing" textLength="21" x="2171.5" y="364.4951">has</text><text fill="#000000" font-family="sans-serif" font-size="13" lengthAdjust="spacing" textLength="7" x="1943.9248" y="514.7559">1</text><text fill="#000000" font-family="sans-serif" font-size="13" lengthAdjust="spacing" textLength="22" x="2237.0195" y="514.7723">0..1</text><!--MD5=[97e168008b52a7eda5de4adba506e93f]
link Service to Form--><path codeLine="143" d="M2043.27,563.5 C2062.22,563.5 2080.28,563.5 2095.03,563.5 " fill="none" id="Service-to-Form" style="stroke:#A80036;stroke-width:1.0;"/><polygon fill="#A80036" points="2100.32,563.5,2091.32,559.5,2095.32,563.5,2091.32,567.5,2100.32,563.5" style="stroke:#A80036;stroke-width:1.0;"/><text fill="#000000" font-family="sans-serif" font-size="13" lengthAdjust="spacing" textLength="21" x="2061.25" y="556.9951">has</text><text fill="#000000" font-family="sans-serif" font-size="13" lengthAdjust="spacing" textLength="7" x="2051.0036" y="560.5523">1</text><text fill="#000000" font-family="sans-serif" font-size="13" lengthAdjust="spacing" textLength="5" x="2087.6471" y="559.1858">*</text><!--MD5=[82a2f894c90d07c084c857fcd18a1971]
@startuml
skinparam classAttributeIconSize 0

package "Presentation" #DDDDDD {
class SaveDraftUI{

}
}


package "Application" #DDDDDD {
class SaveDraftController{
+create()
+getServiceDraftById(id)
+getCatalogues()
+saveService(serviceDraft)
}
}


package "Domain" #DDDDDD {
class Service{
+create(title, briefDescription, completeDescription, \nfeedback, keywordList, formList)
}

class ServiceDraft{
+getTitle()
+getBriefDescription()
+getCompleteDescription()
+getFeedback()
+getKeywordList()
+getFormList()
}

class Form{
}

class Catalogue{
}

class Title{
+createTitle(title)
-validate(title)
}

class BriefDescription{
+createBriefDescription(briefDescription)
-validate(briefDescription)
}

class CompleteDescription{
+createDescricaoCompleta(completeDescription)
-validate(completeDescription)
}

class Keyword{
+createKeyword(keyword)
-validate(keyword)
}

class Feedback{
+createFeedback(feedback)
-validate(feedback)
}



package Builder #DDDDDD {
class ServiceBuilder{
+create()
+withTitle(title)
+withBriefDescription(briefDescription)
+withCompleteDescription(completeDescription)
+withFeedback(feedback)
+withKeywordList(keywordList)
+withFormList(formList)
+build()
}

}

}

package Persistence #DDDDDD {
class PersistenceContext{
+repositories()
}

class AppSettings{
+instance()
+getRepositoryFactory()
}

package Factory #DDDDDD {
class RepositoryFactory{
+create()
+servicos()
+catalogos()
+formularios()
}
}

package "Repository" #DDDDDD {
class ServiceRepository{
+create()
+save(service)
}

class ServiceDraftRepository{
+create()
+getServiceDraftById(id)
}

class CatalogueRepository{
+create()
+all()
}

}



SaveDraftUI ..> SaveDraftController
SaveDraftController ..> ServicoBuilder
SaveDraftController ..> PersistenceContext

AppSettings -> RepositoryFactory : creates
PersistenceContext -> AppSettings : implements

RepositoryFactory "1" -> "1" ServiceRepository : has
RepositoryFactory "1" -> "1" CatalogueRepository : has
RepositoryFactory "1" -> "1" ServiceDraftRepository : has

ServiceRepository "1" -> "*" Service : saves
ServiceBuilder "1" -> "*" Service : cria
ServiceDraftRepository "1" -> "*" ServiceDraft : saves
CatalogueRepository "1" -> "*" Catalogue : saves

Service "1" -> "1" Title : has
Service "1" -> "1" BriefDescription : has
Service "1" -> "1" CompleteDescription : has
Service "1" -> "*" Keyword : has
Service "1" -> "0..1" Feedback : has
Service "1" -> "*" Form : has


@enduml

PlantUML version 1.2021.5(Sun Apr 25 12:20:28 BST 2021)
(GPL source distribution)
Java Runtime: OpenJDK Runtime Environment
JVM: Dynamic Code Evolution 64-Bit Server VM
Default Encoding: Cp1252
Language: pt
Country: PT
--></g></svg>