<?xml version="1.0" encoding="UTF-8" standalone="no"?><svg xmlns="http://www.w3.org/2000/svg" xmlns:xlink="http://www.w3.org/1999/xlink" contentScriptType="application/ecmascript" contentStyleType="text/css" height="825px" preserveAspectRatio="none" style="width:3533px;height:825px;" version="1.1" viewBox="0 0 3533 825" width="3533px" zoomAndPan="magnify"><defs><filter height="300%" id="f1xrsfx1jkanbd" width="300%" x="-1" y="-1"><feGaussianBlur result="blurOut" stdDeviation="2.0"/><feColorMatrix in="blurOut" result="blurOut2" type="matrix" values="0 0 0 0 0 0 0 0 0 0 0 0 0 0 0 0 0 0 .4 0"/><feOffset dx="4.0" dy="4.0" in="blurOut2" result="blurOut3"/><feBlend in="SourceGraphic" in2="blurOut3" mode="normal"/></filter></defs><g><!--MD5=[8fd473fd151a2794da4f2c8684676405]
cluster Presentation--><polygon fill="#DDDDDD" filter="url(#f1xrsfx1jkanbd)" points="58,6,154,6,161,29.6094,188,29.6094,188,126,58,126,58,6" style="stroke:#000000;stroke-width:1.5;"/><line style="stroke:#000000;stroke-width:1.5;" x1="58" x2="161" y1="29.6094" y2="29.6094"/><text fill="#000000" font-family="sans-serif" font-size="14" font-weight="bold" lengthAdjust="spacing" textLength="90" x="62" y="22.5332">Presentation</text><!--MD5=[d64883541e3d62e3241c4d12decf100d]
cluster Application--><polygon fill="#DDDDDD" filter="url(#f1xrsfx1jkanbd)" points="33,159,117,159,124,182.6094,213,182.6094,213,334,33,334,33,159" style="stroke:#000000;stroke-width:1.5;"/><line style="stroke:#000000;stroke-width:1.5;" x1="33" x2="124" y1="182.6094" y2="182.6094"/><text fill="#000000" font-family="sans-serif" font-size="14" font-weight="bold" lengthAdjust="spacing" textLength="78" x="37" y="175.5332">Application</text><!--MD5=[121a8bf1197281ab89ed693fab589f94]
cluster Domain--><polygon fill="#DDDDDD" filter="url(#f1xrsfx1jkanbd)" points="1486,384,1544,384,1551,407.6094,3516,407.6094,3516,683,1486,683,1486,384" style="stroke:#000000;stroke-width:1.5;"/><line style="stroke:#000000;stroke-width:1.5;" x1="1486" x2="1551" y1="407.6094" y2="407.6094"/><text fill="#000000" font-family="sans-serif" font-size="14" font-weight="bold" lengthAdjust="spacing" textLength="52" x="1490" y="400.5332">Domain</text><!--MD5=[44cc74aea8168fb4471e814fff38ed12]
cluster Builder--><polygon fill="#DDDDDD" filter="url(#f1xrsfx1jkanbd)" points="3218,428,3275,428,3282,451.6094,3492,451.6094,3492,659,3218,659,3218,428" style="stroke:#000000;stroke-width:1.5;"/><line style="stroke:#000000;stroke-width:1.5;" x1="3218" x2="3282" y1="451.6094" y2="451.6094"/><text fill="#000000" font-family="sans-serif" font-size="14" font-weight="bold" lengthAdjust="spacing" textLength="51" x="3222" y="444.5332">Builder</text><!--MD5=[bc6b40dadbf86ab6a0c8405a467a48af]
cluster Persistence--><polygon fill="#DDDDDD" filter="url(#f1xrsfx1jkanbd)" points="16,412,106,412,113,435.6094,1462,435.6094,1462,818,16,818,16,412" style="stroke:#000000;stroke-width:1.5;"/><line style="stroke:#000000;stroke-width:1.5;" x1="16" x2="113" y1="435.6094" y2="435.6094"/><text fill="#000000" font-family="sans-serif" font-size="14" font-weight="bold" lengthAdjust="spacing" textLength="84" x="20" y="428.5332">Persistence</text><!--MD5=[0d5799440b3bfefd92b00abfcd2c79b9]
cluster Factory--><polygon fill="#DDDDDD" filter="url(#f1xrsfx1jkanbd)" points="1276,456,1334,456,1341,479.6094,1438,479.6094,1438,631,1276,631,1276,456" style="stroke:#000000;stroke-width:1.5;"/><line style="stroke:#000000;stroke-width:1.5;" x1="1276" x2="1341" y1="479.6094" y2="479.6094"/><text fill="#000000" font-family="sans-serif" font-size="14" font-weight="bold" lengthAdjust="spacing" textLength="52" x="1280" y="472.5332">Factory</text><!--MD5=[71971f99a41bb66cf321ce46bb59f738]
cluster Repository--><polygon fill="#DDDDDD" filter="url(#f1xrsfx1jkanbd)" points="568,469.5,650,469.5,657,493.1094,1252,493.1094,1252,794,568,794,568,469.5" style="stroke:#000000;stroke-width:1.5;"/><line style="stroke:#000000;stroke-width:1.5;" x1="568" x2="657" y1="493.1094" y2="493.1094"/><text fill="#000000" font-family="sans-serif" font-size="14" font-weight="bold" lengthAdjust="spacing" textLength="76" x="572" y="486.0332">Repository</text><!--MD5=[0b2443ac7bf5e4044963f4a0e48cb688]
class SaveDraftUI--><rect codeLine="4" fill="#FEFECE" filter="url(#f1xrsfx1jkanbd)" height="48" id="SaveDraftUI" style="stroke:#A80036;stroke-width:1.5;" width="97" x="74.5" y="62"/><ellipse cx="89.5" cy="78" fill="#ADD1B2" rx="11" ry="11" style="stroke:#A80036;stroke-width:1.0;"/><path d="M91.5,74.5 Q91.7031,74 91.9375,73.75 Q92.1719,73.5 92.4375,73.5 Q92.9063,73.5 93.2031,73.7813 Q93.5,74.0625 93.5,74.7188 L93.5,76.2813 Q93.5,76.9375 93.2188,77.2188 Q92.9375,77.5 92.5,77.5 Q92.1094,77.5 91.8594,77.3281 Q91.6094,77.1563 91.5,76.7031 Q91.4531,76.3906 91.2813,76.2188 Q90.9688,75.8906 90.4063,75.7031 Q89.8438,75.5 89.2813,75.5 Q88.5781,75.5 87.9844,75.7813 Q87.4063,76.0625 86.9531,76.6875 Q86.5,77.3125 86.5,78.1719 L86.5,79.0938 Q86.5,80.125 87.3438,80.8125 Q88.1875,81.5 89.6875,81.5 Q90.5781,81.5 91.2031,81.2969 Q91.5625,81.1875 91.9688,80.8281 Q92.2344,80.625 92.375,80.5625 Q92.5156,80.5 92.6875,80.5 Q93.0156,80.5 93.25,80.7656 Q93.5,81.0156 93.5,81.375 Q93.5,81.7188 93.1563,82.125 Q92.6563,82.7188 91.8594,83.0469 Q90.8125,83.5 89.5313,83.5 Q88.0313,83.5 86.8281,82.9063 Q85.8594,82.4375 85.1719,81.4219 Q84.5,80.4063 84.5,79.2031 L84.5,78.1094 Q84.5,76.8594 85.0938,75.7656 Q85.7031,74.6719 86.75,74.0938 Q87.8125,73.5 89,73.5 Q89.7188,73.5 90.3438,73.75 Q90.9688,74 91.5,74.5 Z " fill="#000000"/><text fill="#000000" font-family="sans-serif" font-size="12" lengthAdjust="spacing" textLength="65" x="103.5" y="82.9102">SaveDraftUI</text><line style="stroke:#A80036;stroke-width:1.5;" x1="75.5" x2="170.5" y1="94" y2="94"/><line style="stroke:#A80036;stroke-width:1.5;" x1="75.5" x2="170.5" y1="102" y2="102"/><!--MD5=[fb11d1a57d51a66333c544594141571a]
class SaveDraftController--><rect codeLine="11" fill="#FEFECE" filter="url(#f1xrsfx1jkanbd)" height="103.3438" id="SaveDraftController" style="stroke:#A80036;stroke-width:1.5;" width="147" x="49.5" y="215"/><ellipse cx="68.1" cy="231" fill="#ADD1B2" rx="11" ry="11" style="stroke:#A80036;stroke-width:1.0;"/><path d="M70.1,227.5 Q70.3031,227 70.5375,226.75 Q70.7719,226.5 71.0375,226.5 Q71.5063,226.5 71.8031,226.7813 Q72.1,227.0625 72.1,227.7188 L72.1,229.2813 Q72.1,229.9375 71.8188,230.2188 Q71.5375,230.5 71.1,230.5 Q70.7094,230.5 70.4594,230.3281 Q70.2094,230.1563 70.1,229.7031 Q70.0531,229.3906 69.8813,229.2188 Q69.5688,228.8906 69.0063,228.7031 Q68.4438,228.5 67.8813,228.5 Q67.1781,228.5 66.5844,228.7813 Q66.0063,229.0625 65.5531,229.6875 Q65.1,230.3125 65.1,231.1719 L65.1,232.0938 Q65.1,233.125 65.9438,233.8125 Q66.7875,234.5 68.2875,234.5 Q69.1781,234.5 69.8031,234.2969 Q70.1625,234.1875 70.5688,233.8281 Q70.8344,233.625 70.975,233.5625 Q71.1156,233.5 71.2875,233.5 Q71.6156,233.5 71.85,233.7656 Q72.1,234.0156 72.1,234.375 Q72.1,234.7188 71.7563,235.125 Q71.2563,235.7188 70.4594,236.0469 Q69.4125,236.5 68.1313,236.5 Q66.6313,236.5 65.4281,235.9063 Q64.4594,235.4375 63.7719,234.4219 Q63.1,233.4063 63.1,232.2031 L63.1,231.1094 Q63.1,229.8594 63.6937,228.7656 Q64.3031,227.6719 65.35,227.0938 Q66.4125,226.5 67.6,226.5 Q68.3188,226.5 68.9438,226.75 Q69.5688,227 70.1,227.5 Z " fill="#000000"/><text fill="#000000" font-family="sans-serif" font-size="12" lengthAdjust="spacing" textLength="107" x="82.9" y="235.9102">SaveDraftController</text><line style="stroke:#A80036;stroke-width:1.5;" x1="50.5" x2="195.5" y1="247" y2="247"/><line style="stroke:#A80036;stroke-width:1.5;" x1="50.5" x2="195.5" y1="255" y2="255"/><text fill="#000000" font-family="sans-serif" font-size="11" lengthAdjust="spacing" textLength="45" x="55.5" y="270.4189">+create()</text><text fill="#000000" font-family="sans-serif" font-size="11" lengthAdjust="spacing" textLength="119" x="55.5" y="284.2549">+getServiceDraftById(id)</text><text fill="#000000" font-family="sans-serif" font-size="11" lengthAdjust="spacing" textLength="83" x="55.5" y="298.0908">+getCatalogues()</text><text fill="#000000" font-family="sans-serif" font-size="11" lengthAdjust="spacing" textLength="135" x="55.5" y="311.9268">+saveService(serviceDraft)</text><!--MD5=[dbb8b4f13c7b21394f9d757e58732f45]
class Service--><rect codeLine="21" fill="#FEFECE" filter="url(#f1xrsfx1jkanbd)" height="75.6719" id="Service" style="stroke:#A80036;stroke-width:1.5;" width="260" x="1677" y="525.5"/><ellipse cx="1782.75" cy="541.5" fill="#ADD1B2" rx="11" ry="11" style="stroke:#A80036;stroke-width:1.0;"/><path d="M1784.75,538 Q1784.9531,537.5 1785.1875,537.25 Q1785.4219,537 1785.6875,537 Q1786.1563,537 1786.4531,537.2813 Q1786.75,537.5625 1786.75,538.2188 L1786.75,539.7813 Q1786.75,540.4375 1786.4688,540.7188 Q1786.1875,541 1785.75,541 Q1785.3594,541 1785.1094,540.8281 Q1784.8594,540.6563 1784.75,540.2031 Q1784.7031,539.8906 1784.5313,539.7188 Q1784.2188,539.3906 1783.6563,539.2031 Q1783.0938,539 1782.5313,539 Q1781.8281,539 1781.2344,539.2813 Q1780.6563,539.5625 1780.2031,540.1875 Q1779.75,540.8125 1779.75,541.6719 L1779.75,542.5938 Q1779.75,543.625 1780.5938,544.3125 Q1781.4375,545 1782.9375,545 Q1783.8281,545 1784.4531,544.7969 Q1784.8125,544.6875 1785.2188,544.3281 Q1785.4844,544.125 1785.625,544.0625 Q1785.7656,544 1785.9375,544 Q1786.2656,544 1786.5,544.2656 Q1786.75,544.5156 1786.75,544.875 Q1786.75,545.2188 1786.4063,545.625 Q1785.9063,546.2188 1785.1094,546.5469 Q1784.0625,547 1782.7813,547 Q1781.2813,547 1780.0781,546.4063 Q1779.1094,545.9375 1778.4219,544.9219 Q1777.75,543.9063 1777.75,542.7031 L1777.75,541.6094 Q1777.75,540.3594 1778.3438,539.2656 Q1778.9531,538.1719 1780,537.5938 Q1781.0625,537 1782.25,537 Q1782.9688,537 1783.5938,537.25 Q1784.2188,537.5 1784.75,538 Z " fill="#000000"/><text fill="#000000" font-family="sans-serif" font-size="12" lengthAdjust="spacing" textLength="40" x="1803.25" y="546.4102">Service</text><line style="stroke:#A80036;stroke-width:1.5;" x1="1678" x2="1936" y1="557.5" y2="557.5"/><line style="stroke:#A80036;stroke-width:1.5;" x1="1678" x2="1936" y1="565.5" y2="565.5"/><text fill="#000000" font-family="sans-serif" font-size="11" lengthAdjust="spacing" textLength="245" x="1683" y="580.9189">+create(title, briefDescription, completeDescription,</text><text fill="#000000" font-family="sans-serif" font-size="11" lengthAdjust="spacing" textLength="160" x="1683" y="594.7549">feedback, keywordList, formList)</text><!--MD5=[925d5031f5a4e53e61ccd699b6d8c35b]
class ServiceDraft--><rect codeLine="25" fill="#FEFECE" filter="url(#f1xrsfx1jkanbd)" height="131.0156" id="ServiceDraft" style="stroke:#A80036;stroke-width:1.5;" width="139" x="1502.5" y="498"/><ellipse cx="1535.95" cy="514" fill="#ADD1B2" rx="11" ry="11" style="stroke:#A80036;stroke-width:1.0;"/><path d="M1537.95,510.5 Q1538.1531,510 1538.3875,509.75 Q1538.6219,509.5 1538.8875,509.5 Q1539.3563,509.5 1539.6531,509.7813 Q1539.95,510.0625 1539.95,510.7188 L1539.95,512.2813 Q1539.95,512.9375 1539.6688,513.2188 Q1539.3875,513.5 1538.95,513.5 Q1538.5594,513.5 1538.3094,513.3281 Q1538.0594,513.1563 1537.95,512.7031 Q1537.9031,512.3906 1537.7313,512.2188 Q1537.4188,511.8906 1536.8563,511.7031 Q1536.2938,511.5 1535.7313,511.5 Q1535.0281,511.5 1534.4344,511.7813 Q1533.8563,512.0625 1533.4031,512.6875 Q1532.95,513.3125 1532.95,514.1719 L1532.95,515.0938 Q1532.95,516.125 1533.7938,516.8125 Q1534.6375,517.5 1536.1375,517.5 Q1537.0281,517.5 1537.6531,517.2969 Q1538.0125,517.1875 1538.4188,516.8281 Q1538.6844,516.625 1538.825,516.5625 Q1538.9656,516.5 1539.1375,516.5 Q1539.4656,516.5 1539.7,516.7656 Q1539.95,517.0156 1539.95,517.375 Q1539.95,517.7188 1539.6063,518.125 Q1539.1063,518.7188 1538.3094,519.0469 Q1537.2625,519.5 1535.9813,519.5 Q1534.4813,519.5 1533.2781,518.9063 Q1532.3094,518.4375 1531.6219,517.4219 Q1530.95,516.4063 1530.95,515.2031 L1530.95,514.1094 Q1530.95,512.8594 1531.5438,511.7656 Q1532.1531,510.6719 1533.2,510.0938 Q1534.2625,509.5 1535.45,509.5 Q1536.1688,509.5 1536.7938,509.75 Q1537.4188,510 1537.95,510.5 Z " fill="#000000"/><text fill="#000000" font-family="sans-serif" font-size="12" lengthAdjust="spacing" textLength="66" x="1554.05" y="518.9102">ServiceDraft</text><line style="stroke:#A80036;stroke-width:1.5;" x1="1503.5" x2="1640.5" y1="530" y2="530"/><line style="stroke:#A80036;stroke-width:1.5;" x1="1503.5" x2="1640.5" y1="538" y2="538"/><text fill="#000000" font-family="sans-serif" font-size="11" lengthAdjust="spacing" textLength="48" x="1508.5" y="553.4189">+getTitle()</text><text fill="#000000" font-family="sans-serif" font-size="11" lengthAdjust="spacing" textLength="106" x="1508.5" y="567.2549">+getBriefDescription()</text><text fill="#000000" font-family="sans-serif" font-size="11" lengthAdjust="spacing" textLength="127" x="1508.5" y="581.0908">+getCompleteDescription()</text><text fill="#000000" font-family="sans-serif" font-size="11" lengthAdjust="spacing" textLength="76" x="1508.5" y="594.9268">+getFeedback()</text><text fill="#000000" font-family="sans-serif" font-size="11" lengthAdjust="spacing" textLength="91" x="1508.5" y="608.7627">+getKeywordList()</text><text fill="#000000" font-family="sans-serif" font-size="11" lengthAdjust="spacing" textLength="70" x="1508.5" y="622.5986">+getFormList()</text><!--MD5=[6f29f313cd4199edbf91b9ce3a4faa98]
class Form--><rect codeLine="34" fill="#FEFECE" filter="url(#f1xrsfx1jkanbd)" height="48" id="Form" style="stroke:#A80036;stroke-width:1.5;" width="61" x="1994.5" y="539.5"/><ellipse cx="2009.5" cy="555.5" fill="#ADD1B2" rx="11" ry="11" style="stroke:#A80036;stroke-width:1.0;"/><path d="M2011.5,552 Q2011.7031,551.5 2011.9375,551.25 Q2012.1719,551 2012.4375,551 Q2012.9063,551 2013.2031,551.2813 Q2013.5,551.5625 2013.5,552.2188 L2013.5,553.7813 Q2013.5,554.4375 2013.2188,554.7188 Q2012.9375,555 2012.5,555 Q2012.1094,555 2011.8594,554.8281 Q2011.6094,554.6563 2011.5,554.2031 Q2011.4531,553.8906 2011.2813,553.7188 Q2010.9688,553.3906 2010.4063,553.2031 Q2009.8438,553 2009.2813,553 Q2008.5781,553 2007.9844,553.2813 Q2007.4063,553.5625 2006.9531,554.1875 Q2006.5,554.8125 2006.5,555.6719 L2006.5,556.5938 Q2006.5,557.625 2007.3438,558.3125 Q2008.1875,559 2009.6875,559 Q2010.5781,559 2011.2031,558.7969 Q2011.5625,558.6875 2011.9688,558.3281 Q2012.2344,558.125 2012.375,558.0625 Q2012.5156,558 2012.6875,558 Q2013.0156,558 2013.25,558.2656 Q2013.5,558.5156 2013.5,558.875 Q2013.5,559.2188 2013.1563,559.625 Q2012.6563,560.2188 2011.8594,560.5469 Q2010.8125,561 2009.5313,561 Q2008.0313,561 2006.8281,560.4063 Q2005.8594,559.9375 2005.1719,558.9219 Q2004.5,557.9063 2004.5,556.7031 L2004.5,555.6094 Q2004.5,554.3594 2005.0938,553.2656 Q2005.7031,552.1719 2006.75,551.5938 Q2007.8125,551 2009,551 Q2009.7188,551 2010.3438,551.25 Q2010.9688,551.5 2011.5,552 Z " fill="#000000"/><text fill="#000000" font-family="sans-serif" font-size="12" lengthAdjust="spacing" textLength="29" x="2023.5" y="560.4102">Form</text><line style="stroke:#A80036;stroke-width:1.5;" x1="1995.5" x2="2054.5" y1="571.5" y2="571.5"/><line style="stroke:#A80036;stroke-width:1.5;" x1="1995.5" x2="2054.5" y1="579.5" y2="579.5"/><!--MD5=[a77781830b4eef1927aef37ad01ad2c2]
class Catalogue--><rect codeLine="37" fill="#FEFECE" filter="url(#f1xrsfx1jkanbd)" height="48" id="Catalogue" style="stroke:#A80036;stroke-width:1.5;" width="89" x="3109.5" y="539.5"/><ellipse cx="3124.5" cy="555.5" fill="#ADD1B2" rx="11" ry="11" style="stroke:#A80036;stroke-width:1.0;"/><path d="M3126.5,552 Q3126.7031,551.5 3126.9375,551.25 Q3127.1719,551 3127.4375,551 Q3127.9063,551 3128.2031,551.2813 Q3128.5,551.5625 3128.5,552.2188 L3128.5,553.7813 Q3128.5,554.4375 3128.2188,554.7188 Q3127.9375,555 3127.5,555 Q3127.1094,555 3126.8594,554.8281 Q3126.6094,554.6563 3126.5,554.2031 Q3126.4531,553.8906 3126.2813,553.7188 Q3125.9688,553.3906 3125.4063,553.2031 Q3124.8438,553 3124.2813,553 Q3123.5781,553 3122.9844,553.2813 Q3122.4063,553.5625 3121.9531,554.1875 Q3121.5,554.8125 3121.5,555.6719 L3121.5,556.5938 Q3121.5,557.625 3122.3438,558.3125 Q3123.1875,559 3124.6875,559 Q3125.5781,559 3126.2031,558.7969 Q3126.5625,558.6875 3126.9688,558.3281 Q3127.2344,558.125 3127.375,558.0625 Q3127.5156,558 3127.6875,558 Q3128.0156,558 3128.25,558.2656 Q3128.5,558.5156 3128.5,558.875 Q3128.5,559.2188 3128.1563,559.625 Q3127.6563,560.2188 3126.8594,560.5469 Q3125.8125,561 3124.5313,561 Q3123.0313,561 3121.8281,560.4063 Q3120.8594,559.9375 3120.1719,558.9219 Q3119.5,557.9063 3119.5,556.7031 L3119.5,555.6094 Q3119.5,554.3594 3120.0938,553.2656 Q3120.7031,552.1719 3121.75,551.5938 Q3122.8125,551 3124,551 Q3124.7188,551 3125.3438,551.25 Q3125.9688,551.5 3126.5,552 Z " fill="#000000"/><text fill="#000000" font-family="sans-serif" font-size="12" lengthAdjust="spacing" textLength="57" x="3138.5" y="560.4102">Catalogue</text><line style="stroke:#A80036;stroke-width:1.5;" x1="3110.5" x2="3197.5" y1="571.5" y2="571.5"/><line style="stroke:#A80036;stroke-width:1.5;" x1="3110.5" x2="3197.5" y1="579.5" y2="579.5"/><!--MD5=[90111e5cdc788a7ef73a3273c23dcc2b]
class Title--><rect codeLine="40" fill="#FEFECE" filter="url(#f1xrsfx1jkanbd)" height="75.6719" id="Title" style="stroke:#A80036;stroke-width:1.5;" width="92" x="2982" y="525.5"/><ellipse cx="3013.65" cy="541.5" fill="#ADD1B2" rx="11" ry="11" style="stroke:#A80036;stroke-width:1.0;"/><path d="M3015.65,538 Q3015.8531,537.5 3016.0875,537.25 Q3016.3219,537 3016.5875,537 Q3017.0563,537 3017.3531,537.2813 Q3017.65,537.5625 3017.65,538.2188 L3017.65,539.7813 Q3017.65,540.4375 3017.3688,540.7188 Q3017.0875,541 3016.65,541 Q3016.2594,541 3016.0094,540.8281 Q3015.7594,540.6563 3015.65,540.2031 Q3015.6031,539.8906 3015.4313,539.7188 Q3015.1188,539.3906 3014.5563,539.2031 Q3013.9938,539 3013.4313,539 Q3012.7281,539 3012.1344,539.2813 Q3011.5563,539.5625 3011.1031,540.1875 Q3010.65,540.8125 3010.65,541.6719 L3010.65,542.5938 Q3010.65,543.625 3011.4938,544.3125 Q3012.3375,545 3013.8375,545 Q3014.7281,545 3015.3531,544.7969 Q3015.7125,544.6875 3016.1188,544.3281 Q3016.3844,544.125 3016.525,544.0625 Q3016.6656,544 3016.8375,544 Q3017.1656,544 3017.4,544.2656 Q3017.65,544.5156 3017.65,544.875 Q3017.65,545.2188 3017.3063,545.625 Q3016.8063,546.2188 3016.0094,546.5469 Q3014.9625,547 3013.6813,547 Q3012.1813,547 3010.9781,546.4063 Q3010.0094,545.9375 3009.3219,544.9219 Q3008.65,543.9063 3008.65,542.7031 L3008.65,541.6094 Q3008.65,540.3594 3009.2438,539.2656 Q3009.8531,538.1719 3010.9,537.5938 Q3011.9625,537 3013.15,537 Q3013.8688,537 3014.4938,537.25 Q3015.1188,537.5 3015.65,538 Z " fill="#000000"/><text fill="#000000" font-family="sans-serif" font-size="12" lengthAdjust="spacing" textLength="23" x="3031.35" y="546.4102">Title</text><line style="stroke:#A80036;stroke-width:1.5;" x1="2983" x2="3073" y1="557.5" y2="557.5"/><line style="stroke:#A80036;stroke-width:1.5;" x1="2983" x2="3073" y1="565.5" y2="565.5"/><text fill="#000000" font-family="sans-serif" font-size="11" lengthAdjust="spacing" textLength="80" x="2988" y="580.9189">+createTitle(title)</text><text fill="#000000" font-family="sans-serif" font-size="11" lengthAdjust="spacing" textLength="65" x="2988" y="594.7549">-validate(title)</text><!--MD5=[16e34fb2e0281018267f0ef5d0b296ef]
class BriefDescription--><rect codeLine="45" fill="#FEFECE" filter="url(#f1xrsfx1jkanbd)" height="75.6719" id="BriefDescription" style="stroke:#A80036;stroke-width:1.5;" width="210" x="2737" y="525.5"/><ellipse cx="2793.75" cy="541.5" fill="#ADD1B2" rx="11" ry="11" style="stroke:#A80036;stroke-width:1.0;"/><path d="M2795.75,538 Q2795.9531,537.5 2796.1875,537.25 Q2796.4219,537 2796.6875,537 Q2797.1563,537 2797.4531,537.2813 Q2797.75,537.5625 2797.75,538.2188 L2797.75,539.7813 Q2797.75,540.4375 2797.4688,540.7188 Q2797.1875,541 2796.75,541 Q2796.3594,541 2796.1094,540.8281 Q2795.8594,540.6563 2795.75,540.2031 Q2795.7031,539.8906 2795.5313,539.7188 Q2795.2188,539.3906 2794.6563,539.2031 Q2794.0938,539 2793.5313,539 Q2792.8281,539 2792.2344,539.2813 Q2791.6563,539.5625 2791.2031,540.1875 Q2790.75,540.8125 2790.75,541.6719 L2790.75,542.5938 Q2790.75,543.625 2791.5938,544.3125 Q2792.4375,545 2793.9375,545 Q2794.8281,545 2795.4531,544.7969 Q2795.8125,544.6875 2796.2188,544.3281 Q2796.4844,544.125 2796.625,544.0625 Q2796.7656,544 2796.9375,544 Q2797.2656,544 2797.5,544.2656 Q2797.75,544.5156 2797.75,544.875 Q2797.75,545.2188 2797.4063,545.625 Q2796.9063,546.2188 2796.1094,546.5469 Q2795.0625,547 2793.7813,547 Q2792.2813,547 2791.0781,546.4063 Q2790.1094,545.9375 2789.4219,544.9219 Q2788.75,543.9063 2788.75,542.7031 L2788.75,541.6094 Q2788.75,540.3594 2789.3438,539.2656 Q2789.9531,538.1719 2791,537.5938 Q2792.0625,537 2793.25,537 Q2793.9688,537 2794.5938,537.25 Q2795.2188,537.5 2795.75,538 Z " fill="#000000"/><text fill="#000000" font-family="sans-serif" font-size="12" lengthAdjust="spacing" textLength="88" x="2814.25" y="546.4102">BriefDescription</text><line style="stroke:#A80036;stroke-width:1.5;" x1="2738" x2="2946" y1="557.5" y2="557.5"/><line style="stroke:#A80036;stroke-width:1.5;" x1="2738" x2="2946" y1="565.5" y2="565.5"/><text fill="#000000" font-family="sans-serif" font-size="11" lengthAdjust="spacing" textLength="198" x="2743" y="580.9189">+createBriefDescription(briefDescription)</text><text fill="#000000" font-family="sans-serif" font-size="11" lengthAdjust="spacing" textLength="125" x="2743" y="594.7549">-validate(briefDescription)</text><!--MD5=[ed144b2dd6fac69485396b0debfc58a0]
class CompleteDescription--><rect codeLine="50" fill="#FEFECE" filter="url(#f1xrsfx1jkanbd)" height="75.6719" id="CompleteDescription" style="stroke:#A80036;stroke-width:1.5;" width="247" x="2454.5" y="525.5"/><ellipse cx="2515.25" cy="541.5" fill="#ADD1B2" rx="11" ry="11" style="stroke:#A80036;stroke-width:1.0;"/><path d="M2517.25,538 Q2517.4531,537.5 2517.6875,537.25 Q2517.9219,537 2518.1875,537 Q2518.6563,537 2518.9531,537.2813 Q2519.25,537.5625 2519.25,538.2188 L2519.25,539.7813 Q2519.25,540.4375 2518.9688,540.7188 Q2518.6875,541 2518.25,541 Q2517.8594,541 2517.6094,540.8281 Q2517.3594,540.6563 2517.25,540.2031 Q2517.2031,539.8906 2517.0313,539.7188 Q2516.7188,539.3906 2516.1563,539.2031 Q2515.5938,539 2515.0313,539 Q2514.3281,539 2513.7344,539.2813 Q2513.1563,539.5625 2512.7031,540.1875 Q2512.25,540.8125 2512.25,541.6719 L2512.25,542.5938 Q2512.25,543.625 2513.0938,544.3125 Q2513.9375,545 2515.4375,545 Q2516.3281,545 2516.9531,544.7969 Q2517.3125,544.6875 2517.7188,544.3281 Q2517.9844,544.125 2518.125,544.0625 Q2518.2656,544 2518.4375,544 Q2518.7656,544 2519,544.2656 Q2519.25,544.5156 2519.25,544.875 Q2519.25,545.2188 2518.9063,545.625 Q2518.4063,546.2188 2517.6094,546.5469 Q2516.5625,547 2515.2813,547 Q2513.7813,547 2512.5781,546.4063 Q2511.6094,545.9375 2510.9219,544.9219 Q2510.25,543.9063 2510.25,542.7031 L2510.25,541.6094 Q2510.25,540.3594 2510.8438,539.2656 Q2511.4531,538.1719 2512.5,537.5938 Q2513.5625,537 2514.75,537 Q2515.4688,537 2516.0938,537.25 Q2516.7188,537.5 2517.25,538 Z " fill="#000000"/><text fill="#000000" font-family="sans-serif" font-size="12" lengthAdjust="spacing" textLength="117" x="2535.75" y="546.4102">CompleteDescription</text><line style="stroke:#A80036;stroke-width:1.5;" x1="2455.5" x2="2700.5" y1="557.5" y2="557.5"/><line style="stroke:#A80036;stroke-width:1.5;" x1="2455.5" x2="2700.5" y1="565.5" y2="565.5"/><text fill="#000000" font-family="sans-serif" font-size="11" lengthAdjust="spacing" textLength="235" x="2460.5" y="580.9189">+createDescricaoCompleta(completeDescription)</text><text fill="#000000" font-family="sans-serif" font-size="11" lengthAdjust="spacing" textLength="146" x="2460.5" y="594.7549">-validate(completeDescription)</text><!--MD5=[1ac27345a8a52a4a812e38456e107300]
class Keyword--><rect codeLine="55" fill="#FEFECE" filter="url(#f1xrsfx1jkanbd)" height="75.6719" id="Keyword" style="stroke:#A80036;stroke-width:1.5;" width="145" x="2274.5" y="525.5"/><ellipse cx="2319.25" cy="541.5" fill="#ADD1B2" rx="11" ry="11" style="stroke:#A80036;stroke-width:1.0;"/><path d="M2321.25,538 Q2321.4531,537.5 2321.6875,537.25 Q2321.9219,537 2322.1875,537 Q2322.6563,537 2322.9531,537.2813 Q2323.25,537.5625 2323.25,538.2188 L2323.25,539.7813 Q2323.25,540.4375 2322.9688,540.7188 Q2322.6875,541 2322.25,541 Q2321.8594,541 2321.6094,540.8281 Q2321.3594,540.6563 2321.25,540.2031 Q2321.2031,539.8906 2321.0313,539.7188 Q2320.7188,539.3906 2320.1563,539.2031 Q2319.5938,539 2319.0313,539 Q2318.3281,539 2317.7344,539.2813 Q2317.1563,539.5625 2316.7031,540.1875 Q2316.25,540.8125 2316.25,541.6719 L2316.25,542.5938 Q2316.25,543.625 2317.0938,544.3125 Q2317.9375,545 2319.4375,545 Q2320.3281,545 2320.9531,544.7969 Q2321.3125,544.6875 2321.7188,544.3281 Q2321.9844,544.125 2322.125,544.0625 Q2322.2656,544 2322.4375,544 Q2322.7656,544 2323,544.2656 Q2323.25,544.5156 2323.25,544.875 Q2323.25,545.2188 2322.9063,545.625 Q2322.4063,546.2188 2321.6094,546.5469 Q2320.5625,547 2319.2813,547 Q2317.7813,547 2316.5781,546.4063 Q2315.6094,545.9375 2314.9219,544.9219 Q2314.25,543.9063 2314.25,542.7031 L2314.25,541.6094 Q2314.25,540.3594 2314.8438,539.2656 Q2315.4531,538.1719 2316.5,537.5938 Q2317.5625,537 2318.75,537 Q2319.4688,537 2320.0938,537.25 Q2320.7188,537.5 2321.25,538 Z " fill="#000000"/><text fill="#000000" font-family="sans-serif" font-size="12" lengthAdjust="spacing" textLength="47" x="2339.75" y="546.4102">Keyword</text><line style="stroke:#A80036;stroke-width:1.5;" x1="2275.5" x2="2418.5" y1="557.5" y2="557.5"/><line style="stroke:#A80036;stroke-width:1.5;" x1="2275.5" x2="2418.5" y1="565.5" y2="565.5"/><text fill="#000000" font-family="sans-serif" font-size="11" lengthAdjust="spacing" textLength="133" x="2280.5" y="580.9189">+createKeyword(keyword)</text><text fill="#000000" font-family="sans-serif" font-size="11" lengthAdjust="spacing" textLength="92" x="2280.5" y="594.7549">-validate(keyword)</text><!--MD5=[1a502b0dbedafd291c48f46ef8646183]
class Feedback--><rect codeLine="60" fill="#FEFECE" filter="url(#f1xrsfx1jkanbd)" height="75.6719" id="Feedback" style="stroke:#A80036;stroke-width:1.5;" width="149" x="2090.5" y="525.5"/><ellipse cx="2133.85" cy="541.5" fill="#ADD1B2" rx="11" ry="11" style="stroke:#A80036;stroke-width:1.0;"/><path d="M2135.85,538 Q2136.0531,537.5 2136.2875,537.25 Q2136.5219,537 2136.7875,537 Q2137.2563,537 2137.5531,537.2813 Q2137.85,537.5625 2137.85,538.2188 L2137.85,539.7813 Q2137.85,540.4375 2137.5688,540.7188 Q2137.2875,541 2136.85,541 Q2136.4594,541 2136.2094,540.8281 Q2135.9594,540.6563 2135.85,540.2031 Q2135.8031,539.8906 2135.6313,539.7188 Q2135.3188,539.3906 2134.7563,539.2031 Q2134.1938,539 2133.6313,539 Q2132.9281,539 2132.3344,539.2813 Q2131.7563,539.5625 2131.3031,540.1875 Q2130.85,540.8125 2130.85,541.6719 L2130.85,542.5938 Q2130.85,543.625 2131.6938,544.3125 Q2132.5375,545 2134.0375,545 Q2134.9281,545 2135.5531,544.7969 Q2135.9125,544.6875 2136.3188,544.3281 Q2136.5844,544.125 2136.725,544.0625 Q2136.8656,544 2137.0375,544 Q2137.3656,544 2137.6,544.2656 Q2137.85,544.5156 2137.85,544.875 Q2137.85,545.2188 2137.5063,545.625 Q2137.0063,546.2188 2136.2094,546.5469 Q2135.1625,547 2133.8813,547 Q2132.3813,547 2131.1781,546.4063 Q2130.2094,545.9375 2129.5219,544.9219 Q2128.85,543.9063 2128.85,542.7031 L2128.85,541.6094 Q2128.85,540.3594 2129.4438,539.2656 Q2130.0531,538.1719 2131.1,537.5938 Q2132.1625,537 2133.35,537 Q2134.0688,537 2134.6938,537.25 Q2135.3188,537.5 2135.85,538 Z " fill="#000000"/><text fill="#000000" font-family="sans-serif" font-size="12" lengthAdjust="spacing" textLength="54" x="2154.15" y="546.4102">Feedback</text><line style="stroke:#A80036;stroke-width:1.5;" x1="2091.5" x2="2238.5" y1="557.5" y2="557.5"/><line style="stroke:#A80036;stroke-width:1.5;" x1="2091.5" x2="2238.5" y1="565.5" y2="565.5"/><text fill="#000000" font-family="sans-serif" font-size="11" lengthAdjust="spacing" textLength="137" x="2096.5" y="580.9189">+createFeedback(feedback)</text><text fill="#000000" font-family="sans-serif" font-size="11" lengthAdjust="spacing" textLength="94" x="2096.5" y="594.7549">-validate(feedback)</text><!--MD5=[52bbb3977dd17db2f7922dab5df8ebdb]
class ServiceBuilder--><rect codeLine="68" fill="#FEFECE" filter="url(#f1xrsfx1jkanbd)" height="158.6875" id="ServiceBuilder" style="stroke:#A80036;stroke-width:1.5;" width="242" x="3234" y="484"/><ellipse cx="3311.25" cy="500" fill="#ADD1B2" rx="11" ry="11" style="stroke:#A80036;stroke-width:1.0;"/><path d="M3313.25,496.5 Q3313.4531,496 3313.6875,495.75 Q3313.9219,495.5 3314.1875,495.5 Q3314.6563,495.5 3314.9531,495.7813 Q3315.25,496.0625 3315.25,496.7188 L3315.25,498.2813 Q3315.25,498.9375 3314.9688,499.2188 Q3314.6875,499.5 3314.25,499.5 Q3313.8594,499.5 3313.6094,499.3281 Q3313.3594,499.1563 3313.25,498.7031 Q3313.2031,498.3906 3313.0313,498.2188 Q3312.7188,497.8906 3312.1563,497.7031 Q3311.5938,497.5 3311.0313,497.5 Q3310.3281,497.5 3309.7344,497.7813 Q3309.1563,498.0625 3308.7031,498.6875 Q3308.25,499.3125 3308.25,500.1719 L3308.25,501.0938 Q3308.25,502.125 3309.0938,502.8125 Q3309.9375,503.5 3311.4375,503.5 Q3312.3281,503.5 3312.9531,503.2969 Q3313.3125,503.1875 3313.7188,502.8281 Q3313.9844,502.625 3314.125,502.5625 Q3314.2656,502.5 3314.4375,502.5 Q3314.7656,502.5 3315,502.7656 Q3315.25,503.0156 3315.25,503.375 Q3315.25,503.7188 3314.9063,504.125 Q3314.4063,504.7188 3313.6094,505.0469 Q3312.5625,505.5 3311.2813,505.5 Q3309.7813,505.5 3308.5781,504.9063 Q3307.6094,504.4375 3306.9219,503.4219 Q3306.25,502.4063 3306.25,501.2031 L3306.25,500.1094 Q3306.25,498.8594 3306.8438,497.7656 Q3307.4531,496.6719 3308.5,496.0938 Q3309.5625,495.5 3310.75,495.5 Q3311.4688,495.5 3312.0938,495.75 Q3312.7188,496 3313.25,496.5 Z " fill="#000000"/><text fill="#000000" font-family="sans-serif" font-size="12" lengthAdjust="spacing" textLength="79" x="3331.75" y="504.9102">ServiceBuilder</text><line style="stroke:#A80036;stroke-width:1.5;" x1="3235" x2="3475" y1="516" y2="516"/><line style="stroke:#A80036;stroke-width:1.5;" x1="3235" x2="3475" y1="524" y2="524"/><text fill="#000000" font-family="sans-serif" font-size="11" lengthAdjust="spacing" textLength="45" x="3240" y="539.4189">+create()</text><text fill="#000000" font-family="sans-serif" font-size="11" lengthAdjust="spacing" textLength="70" x="3240" y="553.2549">+withTitle(title)</text><text fill="#000000" font-family="sans-serif" font-size="11" lengthAdjust="spacing" textLength="188" x="3240" y="567.0908">+withBriefDescription(briefDescription)</text><text fill="#000000" font-family="sans-serif" font-size="11" lengthAdjust="spacing" textLength="230" x="3240" y="580.9268">+withCompleteDescription(completeDescription)</text><text fill="#000000" font-family="sans-serif" font-size="11" lengthAdjust="spacing" textLength="127" x="3240" y="594.7627">+withFeedback(feedback)</text><text fill="#000000" font-family="sans-serif" font-size="11" lengthAdjust="spacing" textLength="157" x="3240" y="608.5986">+withKeywordList(keywordList)</text><text fill="#000000" font-family="sans-serif" font-size="11" lengthAdjust="spacing" textLength="115" x="3240" y="622.4346">+withFormList(formList)</text><text fill="#000000" font-family="sans-serif" font-size="11" lengthAdjust="spacing" textLength="36" x="3240" y="636.2705">+build()</text><!--MD5=[e8c189551b7885b999ad7cefb30fc2a3]
class PersistenceContext--><rect codeLine="84" fill="#FEFECE" filter="url(#f1xrsfx1jkanbd)" height="61.8359" id="PersistenceContext" style="stroke:#A80036;stroke-width:1.5;" width="139" x="32.5" y="532.5"/><ellipse cx="47.5" cy="548.5" fill="#ADD1B2" rx="11" ry="11" style="stroke:#A80036;stroke-width:1.0;"/><path d="M49.5,545 Q49.7031,544.5 49.9375,544.25 Q50.1719,544 50.4375,544 Q50.9063,544 51.2031,544.2813 Q51.5,544.5625 51.5,545.2188 L51.5,546.7813 Q51.5,547.4375 51.2188,547.7188 Q50.9375,548 50.5,548 Q50.1094,548 49.8594,547.8281 Q49.6094,547.6563 49.5,547.2031 Q49.4531,546.8906 49.2813,546.7188 Q48.9688,546.3906 48.4063,546.2031 Q47.8438,546 47.2813,546 Q46.5781,546 45.9844,546.2813 Q45.4063,546.5625 44.9531,547.1875 Q44.5,547.8125 44.5,548.6719 L44.5,549.5938 Q44.5,550.625 45.3438,551.3125 Q46.1875,552 47.6875,552 Q48.5781,552 49.2031,551.7969 Q49.5625,551.6875 49.9688,551.3281 Q50.2344,551.125 50.375,551.0625 Q50.5156,551 50.6875,551 Q51.0156,551 51.25,551.2656 Q51.5,551.5156 51.5,551.875 Q51.5,552.2188 51.1563,552.625 Q50.6563,553.2188 49.8594,553.5469 Q48.8125,554 47.5313,554 Q46.0313,554 44.8281,553.4063 Q43.8594,552.9375 43.1719,551.9219 Q42.5,550.9063 42.5,549.7031 L42.5,548.6094 Q42.5,547.3594 43.0938,546.2656 Q43.7031,545.1719 44.75,544.5938 Q45.8125,544 47,544 Q47.7188,544 48.3438,544.25 Q48.9688,544.5 49.5,545 Z " fill="#000000"/><text fill="#000000" font-family="sans-serif" font-size="12" lengthAdjust="spacing" textLength="107" x="61.5" y="553.4102">PersistenceContext</text><line style="stroke:#A80036;stroke-width:1.5;" x1="33.5" x2="170.5" y1="564.5" y2="564.5"/><line style="stroke:#A80036;stroke-width:1.5;" x1="33.5" x2="170.5" y1="572.5" y2="572.5"/><text fill="#000000" font-family="sans-serif" font-size="11" lengthAdjust="spacing" textLength="71" x="38.5" y="587.9189">+repositories()</text><!--MD5=[b8e4c95865208c934bfcfda4f90bf50c]
class AppSettings--><rect codeLine="88" fill="#FEFECE" filter="url(#f1xrsfx1jkanbd)" height="75.6719" id="AppSettings" style="stroke:#A80036;stroke-width:1.5;" width="130" x="275" y="525.5"/><ellipse cx="304.4" cy="541.5" fill="#ADD1B2" rx="11" ry="11" style="stroke:#A80036;stroke-width:1.0;"/><path d="M306.4,538 Q306.6031,537.5 306.8375,537.25 Q307.0719,537 307.3375,537 Q307.8063,537 308.1031,537.2813 Q308.4,537.5625 308.4,538.2188 L308.4,539.7813 Q308.4,540.4375 308.1188,540.7188 Q307.8375,541 307.4,541 Q307.0094,541 306.7594,540.8281 Q306.5094,540.6563 306.4,540.2031 Q306.3531,539.8906 306.1813,539.7188 Q305.8688,539.3906 305.3063,539.2031 Q304.7438,539 304.1813,539 Q303.4781,539 302.8844,539.2813 Q302.3063,539.5625 301.8531,540.1875 Q301.4,540.8125 301.4,541.6719 L301.4,542.5938 Q301.4,543.625 302.2438,544.3125 Q303.0875,545 304.5875,545 Q305.4781,545 306.1031,544.7969 Q306.4625,544.6875 306.8688,544.3281 Q307.1344,544.125 307.275,544.0625 Q307.4156,544 307.5875,544 Q307.9156,544 308.15,544.2656 Q308.4,544.5156 308.4,544.875 Q308.4,545.2188 308.0563,545.625 Q307.5563,546.2188 306.7594,546.5469 Q305.7125,547 304.4313,547 Q302.9313,547 301.7281,546.4063 Q300.7594,545.9375 300.0719,544.9219 Q299.4,543.9063 299.4,542.7031 L299.4,541.6094 Q299.4,540.3594 299.9938,539.2656 Q300.6031,538.1719 301.65,537.5938 Q302.7125,537 303.9,537 Q304.6188,537 305.2438,537.25 Q305.8688,537.5 306.4,538 Z " fill="#000000"/><text fill="#000000" font-family="sans-serif" font-size="12" lengthAdjust="spacing" textLength="66" x="321.6" y="546.4102">AppSettings</text><line style="stroke:#A80036;stroke-width:1.5;" x1="276" x2="404" y1="557.5" y2="557.5"/><line style="stroke:#A80036;stroke-width:1.5;" x1="276" x2="404" y1="565.5" y2="565.5"/><text fill="#000000" font-family="sans-serif" font-size="11" lengthAdjust="spacing" textLength="55" x="281" y="580.9189">+instance()</text><text fill="#000000" font-family="sans-serif" font-size="11" lengthAdjust="spacing" textLength="118" x="281" y="594.7549">+getRepositoryFactory()</text><!--MD5=[27fbecddafeed049b4f631f921ad8164]
class ServicoBuilder--><rect fill="#FEFECE" filter="url(#f1xrsfx1jkanbd)" height="48" id="ServicoBuilder" style="stroke:#A80036;stroke-width:1.5;" width="111" x="440.5" y="539.5"/><ellipse cx="455.5" cy="555.5" fill="#ADD1B2" rx="11" ry="11" style="stroke:#A80036;stroke-width:1.0;"/><path d="M457.5,552 Q457.7031,551.5 457.9375,551.25 Q458.1719,551 458.4375,551 Q458.9063,551 459.2031,551.2813 Q459.5,551.5625 459.5,552.2188 L459.5,553.7813 Q459.5,554.4375 459.2188,554.7188 Q458.9375,555 458.5,555 Q458.1094,555 457.8594,554.8281 Q457.6094,554.6563 457.5,554.2031 Q457.4531,553.8906 457.2813,553.7188 Q456.9688,553.3906 456.4063,553.2031 Q455.8438,553 455.2813,553 Q454.5781,553 453.9844,553.2813 Q453.4063,553.5625 452.9531,554.1875 Q452.5,554.8125 452.5,555.6719 L452.5,556.5938 Q452.5,557.625 453.3438,558.3125 Q454.1875,559 455.6875,559 Q456.5781,559 457.2031,558.7969 Q457.5625,558.6875 457.9688,558.3281 Q458.2344,558.125 458.375,558.0625 Q458.5156,558 458.6875,558 Q459.0156,558 459.25,558.2656 Q459.5,558.5156 459.5,558.875 Q459.5,559.2188 459.1563,559.625 Q458.6563,560.2188 457.8594,560.5469 Q456.8125,561 455.5313,561 Q454.0313,561 452.8281,560.4063 Q451.8594,559.9375 451.1719,558.9219 Q450.5,557.9063 450.5,556.7031 L450.5,555.6094 Q450.5,554.3594 451.0938,553.2656 Q451.7031,552.1719 452.75,551.5938 Q453.8125,551 455,551 Q455.7188,551 456.3438,551.25 Q456.9688,551.5 457.5,552 Z " fill="#000000"/><text fill="#000000" font-family="sans-serif" font-size="12" lengthAdjust="spacing" textLength="79" x="469.5" y="560.4102">ServicoBuilder</text><line style="stroke:#A80036;stroke-width:1.5;" x1="441.5" x2="550.5" y1="571.5" y2="571.5"/><line style="stroke:#A80036;stroke-width:1.5;" x1="441.5" x2="550.5" y1="579.5" y2="579.5"/><!--MD5=[48590afff58a68e2fcba47824d6f8a11]
class RepositoryFactory--><rect codeLine="94" fill="#FEFECE" filter="url(#f1xrsfx1jkanbd)" height="103.3438" id="RepositoryFactory" style="stroke:#A80036;stroke-width:1.5;" width="130" x="1292" y="512"/><ellipse cx="1307" cy="528" fill="#ADD1B2" rx="11" ry="11" style="stroke:#A80036;stroke-width:1.0;"/><path d="M1309,524.5 Q1309.2031,524 1309.4375,523.75 Q1309.6719,523.5 1309.9375,523.5 Q1310.4063,523.5 1310.7031,523.7813 Q1311,524.0625 1311,524.7188 L1311,526.2813 Q1311,526.9375 1310.7188,527.2188 Q1310.4375,527.5 1310,527.5 Q1309.6094,527.5 1309.3594,527.3281 Q1309.1094,527.1563 1309,526.7031 Q1308.9531,526.3906 1308.7813,526.2188 Q1308.4688,525.8906 1307.9063,525.7031 Q1307.3438,525.5 1306.7813,525.5 Q1306.0781,525.5 1305.4844,525.7813 Q1304.9063,526.0625 1304.4531,526.6875 Q1304,527.3125 1304,528.1719 L1304,529.0938 Q1304,530.125 1304.8438,530.8125 Q1305.6875,531.5 1307.1875,531.5 Q1308.0781,531.5 1308.7031,531.2969 Q1309.0625,531.1875 1309.4688,530.8281 Q1309.7344,530.625 1309.875,530.5625 Q1310.0156,530.5 1310.1875,530.5 Q1310.5156,530.5 1310.75,530.7656 Q1311,531.0156 1311,531.375 Q1311,531.7188 1310.6563,532.125 Q1310.1563,532.7188 1309.3594,533.0469 Q1308.3125,533.5 1307.0313,533.5 Q1305.5313,533.5 1304.3281,532.9063 Q1303.3594,532.4375 1302.6719,531.4219 Q1302,530.4063 1302,529.2031 L1302,528.1094 Q1302,526.8594 1302.5938,525.7656 Q1303.2031,524.6719 1304.25,524.0938 Q1305.3125,523.5 1306.5,523.5 Q1307.2188,523.5 1307.8438,523.75 Q1308.4688,524 1309,524.5 Z " fill="#000000"/><text fill="#000000" font-family="sans-serif" font-size="12" lengthAdjust="spacing" textLength="98" x="1321" y="532.9102">RepositoryFactory</text><line style="stroke:#A80036;stroke-width:1.5;" x1="1293" x2="1421" y1="544" y2="544"/><line style="stroke:#A80036;stroke-width:1.5;" x1="1293" x2="1421" y1="552" y2="552"/><text fill="#000000" font-family="sans-serif" font-size="11" lengthAdjust="spacing" textLength="45" x="1298" y="567.4189">+create()</text><text fill="#000000" font-family="sans-serif" font-size="11" lengthAdjust="spacing" textLength="56" x="1298" y="581.2549">+servicos()</text><text fill="#000000" font-family="sans-serif" font-size="11" lengthAdjust="spacing" textLength="61" x="1298" y="595.0908">+catalogos()</text><text fill="#000000" font-family="sans-serif" font-size="11" lengthAdjust="spacing" textLength="68" x="1298" y="608.9268">+formularios()</text><!--MD5=[cf62b7d23c2004c5280dc9b8e31eb1d4]
class ServiceRepository--><rect codeLine="103" fill="#FEFECE" filter="url(#f1xrsfx1jkanbd)" height="75.6719" id="ServiceRepository" style="stroke:#A80036;stroke-width:1.5;" width="131" x="980.5" y="525.5"/><ellipse cx="995.5" cy="541.5" fill="#ADD1B2" rx="11" ry="11" style="stroke:#A80036;stroke-width:1.0;"/><path d="M997.5,538 Q997.7031,537.5 997.9375,537.25 Q998.1719,537 998.4375,537 Q998.9063,537 999.2031,537.2813 Q999.5,537.5625 999.5,538.2188 L999.5,539.7813 Q999.5,540.4375 999.2188,540.7188 Q998.9375,541 998.5,541 Q998.1094,541 997.8594,540.8281 Q997.6094,540.6563 997.5,540.2031 Q997.4531,539.8906 997.2813,539.7188 Q996.9688,539.3906 996.4063,539.2031 Q995.8438,539 995.2813,539 Q994.5781,539 993.9844,539.2813 Q993.4063,539.5625 992.9531,540.1875 Q992.5,540.8125 992.5,541.6719 L992.5,542.5938 Q992.5,543.625 993.3438,544.3125 Q994.1875,545 995.6875,545 Q996.5781,545 997.2031,544.7969 Q997.5625,544.6875 997.9688,544.3281 Q998.2344,544.125 998.375,544.0625 Q998.5156,544 998.6875,544 Q999.0156,544 999.25,544.2656 Q999.5,544.5156 999.5,544.875 Q999.5,545.2188 999.1563,545.625 Q998.6563,546.2188 997.8594,546.5469 Q996.8125,547 995.5313,547 Q994.0313,547 992.8281,546.4063 Q991.8594,545.9375 991.1719,544.9219 Q990.5,543.9063 990.5,542.7031 L990.5,541.6094 Q990.5,540.3594 991.0938,539.2656 Q991.7031,538.1719 992.75,537.5938 Q993.8125,537 995,537 Q995.7188,537 996.3438,537.25 Q996.9688,537.5 997.5,538 Z " fill="#000000"/><text fill="#000000" font-family="sans-serif" font-size="12" lengthAdjust="spacing" textLength="99" x="1009.5" y="546.4102">ServiceRepository</text><line style="stroke:#A80036;stroke-width:1.5;" x1="981.5" x2="1110.5" y1="557.5" y2="557.5"/><line style="stroke:#A80036;stroke-width:1.5;" x1="981.5" x2="1110.5" y1="565.5" y2="565.5"/><text fill="#000000" font-family="sans-serif" font-size="11" lengthAdjust="spacing" textLength="45" x="986.5" y="580.9189">+create()</text><text fill="#000000" font-family="sans-serif" font-size="11" lengthAdjust="spacing" textLength="74" x="986.5" y="594.7549">+save(service)</text><!--MD5=[c442d1a7174f61885988a69cb0f958b4]
class ServiceDraftRepository--><rect codeLine="108" fill="#FEFECE" filter="url(#f1xrsfx1jkanbd)" height="75.6719" id="ServiceDraftRepository" style="stroke:#A80036;stroke-width:1.5;" width="157" x="604.5" y="525.5"/><ellipse cx="619.5" cy="541.5" fill="#ADD1B2" rx="11" ry="11" style="stroke:#A80036;stroke-width:1.0;"/><path d="M621.5,538 Q621.7031,537.5 621.9375,537.25 Q622.1719,537 622.4375,537 Q622.9063,537 623.2031,537.2813 Q623.5,537.5625 623.5,538.2188 L623.5,539.7813 Q623.5,540.4375 623.2188,540.7188 Q622.9375,541 622.5,541 Q622.1094,541 621.8594,540.8281 Q621.6094,540.6563 621.5,540.2031 Q621.4531,539.8906 621.2813,539.7188 Q620.9688,539.3906 620.4063,539.2031 Q619.8438,539 619.2813,539 Q618.5781,539 617.9844,539.2813 Q617.4063,539.5625 616.9531,540.1875 Q616.5,540.8125 616.5,541.6719 L616.5,542.5938 Q616.5,543.625 617.3438,544.3125 Q618.1875,545 619.6875,545 Q620.5781,545 621.2031,544.7969 Q621.5625,544.6875 621.9688,544.3281 Q622.2344,544.125 622.375,544.0625 Q622.5156,544 622.6875,544 Q623.0156,544 623.25,544.2656 Q623.5,544.5156 623.5,544.875 Q623.5,545.2188 623.1563,545.625 Q622.6563,546.2188 621.8594,546.5469 Q620.8125,547 619.5313,547 Q618.0313,547 616.8281,546.4063 Q615.8594,545.9375 615.1719,544.9219 Q614.5,543.9063 614.5,542.7031 L614.5,541.6094 Q614.5,540.3594 615.0938,539.2656 Q615.7031,538.1719 616.75,537.5938 Q617.8125,537 619,537 Q619.7188,537 620.3438,537.25 Q620.9688,537.5 621.5,538 Z " fill="#000000"/><text fill="#000000" font-family="sans-serif" font-size="12" lengthAdjust="spacing" textLength="125" x="633.5" y="546.4102">ServiceDraftRepository</text><line style="stroke:#A80036;stroke-width:1.5;" x1="605.5" x2="760.5" y1="557.5" y2="557.5"/><line style="stroke:#A80036;stroke-width:1.5;" x1="605.5" x2="760.5" y1="565.5" y2="565.5"/><text fill="#000000" font-family="sans-serif" font-size="11" lengthAdjust="spacing" textLength="45" x="610.5" y="580.9189">+create()</text><text fill="#000000" font-family="sans-serif" font-size="11" lengthAdjust="spacing" textLength="119" x="610.5" y="594.7549">+getServiceDraftById(id)</text><!--MD5=[69bb86ab6babb49b9e011e22ae952de4]
class CatalogueRepository--><rect codeLine="113" fill="#FEFECE" filter="url(#f1xrsfx1jkanbd)" height="75.6719" id="CatalogueRepository" style="stroke:#A80036;stroke-width:1.5;" width="148" x="797" y="525.5"/><ellipse cx="812" cy="541.5" fill="#ADD1B2" rx="11" ry="11" style="stroke:#A80036;stroke-width:1.0;"/><path d="M814,538 Q814.2031,537.5 814.4375,537.25 Q814.6719,537 814.9375,537 Q815.4063,537 815.7031,537.2813 Q816,537.5625 816,538.2188 L816,539.7813 Q816,540.4375 815.7188,540.7188 Q815.4375,541 815,541 Q814.6094,541 814.3594,540.8281 Q814.1094,540.6563 814,540.2031 Q813.9531,539.8906 813.7813,539.7188 Q813.4688,539.3906 812.9063,539.2031 Q812.3438,539 811.7813,539 Q811.0781,539 810.4844,539.2813 Q809.9063,539.5625 809.4531,540.1875 Q809,540.8125 809,541.6719 L809,542.5938 Q809,543.625 809.8438,544.3125 Q810.6875,545 812.1875,545 Q813.0781,545 813.7031,544.7969 Q814.0625,544.6875 814.4688,544.3281 Q814.7344,544.125 814.875,544.0625 Q815.0156,544 815.1875,544 Q815.5156,544 815.75,544.2656 Q816,544.5156 816,544.875 Q816,545.2188 815.6563,545.625 Q815.1563,546.2188 814.3594,546.5469 Q813.3125,547 812.0313,547 Q810.5313,547 809.3281,546.4063 Q808.3594,545.9375 807.6719,544.9219 Q807,543.9063 807,542.7031 L807,541.6094 Q807,540.3594 807.5938,539.2656 Q808.2031,538.1719 809.25,537.5938 Q810.3125,537 811.5,537 Q812.2188,537 812.8438,537.25 Q813.4688,537.5 814,538 Z " fill="#000000"/><text fill="#000000" font-family="sans-serif" font-size="12" lengthAdjust="spacing" textLength="116" x="826" y="546.4102">CatalogueRepository</text><line style="stroke:#A80036;stroke-width:1.5;" x1="798" x2="944" y1="557.5" y2="557.5"/><line style="stroke:#A80036;stroke-width:1.5;" x1="798" x2="944" y1="565.5" y2="565.5"/><text fill="#000000" font-family="sans-serif" font-size="11" lengthAdjust="spacing" textLength="45" x="803" y="580.9189">+create()</text><text fill="#000000" font-family="sans-serif" font-size="11" lengthAdjust="spacing" textLength="24" x="803" y="594.7549">+all()</text><!--MD5=[8159f625c6e50da2b70a395f95af11fd]
class ServiceRepositoryInterface--><rect codeLine="118" fill="#FEFECE" filter="url(#f1xrsfx1jkanbd)" height="48" id="ServiceRepositoryInterface" style="stroke:#A80036;stroke-width:1.5;" width="180" x="1056" y="730"/><ellipse cx="1071" cy="746" fill="#B4A7E5" rx="11" ry="11" style="stroke:#A80036;stroke-width:1.0;"/><path d="M1072,743 L1072,749 L1074,749 L1074.4844,749 L1075,749.625 L1075,750 L1075,750.375 L1074.4844,751 L1074,751 L1068,751 L1067.5156,751 L1067,750.375 L1067,750 L1067,749.625 L1067.5156,749 L1068,749 L1070,749 L1070,743 L1068,743 L1067.5156,743 L1067,742.375 L1067,742 L1067,741.625 L1067.5156,741 L1068,741 L1074,741 L1074.4844,741 L1075,741.625 L1075,742 L1075,742.375 L1074.4844,743 L1074,743 L1072,743 Z " fill="#000000"/><text fill="#000000" font-family="sans-serif" font-size="12" font-style="italic" lengthAdjust="spacing" textLength="148" x="1085" y="750.9102">ServiceRepositoryInterface</text><line style="stroke:#A80036;stroke-width:1.5;" x1="1057" x2="1235" y1="762" y2="762"/><line style="stroke:#A80036;stroke-width:1.5;" x1="1057" x2="1235" y1="770" y2="770"/><!--MD5=[22f89721c89d5b9566a4ffee303fac63]
class ServiceDraftRepositoryInterface--><rect codeLine="122" fill="#FEFECE" filter="url(#f1xrsfx1jkanbd)" height="48" id="ServiceDraftRepositoryInterface" style="stroke:#A80036;stroke-width:1.5;" width="206" x="584" y="730"/><ellipse cx="599" cy="746" fill="#B4A7E5" rx="11" ry="11" style="stroke:#A80036;stroke-width:1.0;"/><path d="M600,743 L600,749 L602,749 L602.4844,749 L603,749.625 L603,750 L603,750.375 L602.4844,751 L602,751 L596,751 L595.5156,751 L595,750.375 L595,750 L595,749.625 L595.5156,749 L596,749 L598,749 L598,743 L596,743 L595.5156,743 L595,742.375 L595,742 L595,741.625 L595.5156,741 L596,741 L602,741 L602.4844,741 L603,741.625 L603,742 L603,742.375 L602.4844,743 L602,743 L600,743 Z " fill="#000000"/><text fill="#000000" font-family="sans-serif" font-size="12" font-style="italic" lengthAdjust="spacing" textLength="174" x="613" y="750.9102">ServiceDraftRepositoryInterface</text><line style="stroke:#A80036;stroke-width:1.5;" x1="585" x2="789" y1="762" y2="762"/><line style="stroke:#A80036;stroke-width:1.5;" x1="585" x2="789" y1="770" y2="770"/><!--MD5=[77ccb0b93dfff6c7a0c6b7a44bdf9643]
class CatalogueRepositoryInterface--><rect codeLine="126" fill="#FEFECE" filter="url(#f1xrsfx1jkanbd)" height="48" id="CatalogueRepositoryInterface" style="stroke:#A80036;stroke-width:1.5;" width="196" x="825" y="730"/><ellipse cx="840" cy="746" fill="#B4A7E5" rx="11" ry="11" style="stroke:#A80036;stroke-width:1.0;"/><path d="M841,743 L841,749 L843,749 L843.4844,749 L844,749.625 L844,750 L844,750.375 L843.4844,751 L843,751 L837,751 L836.5156,751 L836,750.375 L836,750 L836,749.625 L836.5156,749 L837,749 L839,749 L839,743 L837,743 L836.5156,743 L836,742.375 L836,742 L836,741.625 L836.5156,741 L837,741 L843,741 L843.4844,741 L844,741.625 L844,742 L844,742.375 L843.4844,743 L843,743 L841,743 Z " fill="#000000"/><text fill="#000000" font-family="sans-serif" font-size="12" font-style="italic" lengthAdjust="spacing" textLength="164" x="854" y="750.9102">CatalogueRepositoryInterface</text><line style="stroke:#A80036;stroke-width:1.5;" x1="826" x2="1020" y1="762" y2="762"/><line style="stroke:#A80036;stroke-width:1.5;" x1="826" x2="1020" y1="770" y2="770"/><!--MD5=[81dcfbd669d6e4c49dff7fbf85b96e73]
link SaveDraftUI to SaveDraftController--><path codeLine="133" d="M123,110.34 C123,135.36 123,176.01 123,209.43 " fill="none" id="SaveDraftUI-to-SaveDraftController" style="stroke:#A80036;stroke-width:1.0;stroke-dasharray:7.0,7.0;"/><polygon fill="#A80036" points="123,214.73,127,205.73,123,209.73,119,205.73,123,214.73" style="stroke:#A80036;stroke-width:1.0;"/><!--MD5=[215f50466f249dd95f14675e3b71fad3]
link SaveDraftController to ServicoBuilder--><path codeLine="134" d="M196.56,276.69 C263.56,288.69 361.21,315.8 423,376 C467.69,419.54 485.6,493.67 492.31,534.12 " fill="none" id="SaveDraftController-to-ServicoBuilder" style="stroke:#A80036;stroke-width:1.0;stroke-dasharray:7.0,7.0;"/><polygon fill="#A80036" points="493.15,539.36,495.6875,529.8436,492.3651,534.422,487.7867,531.0996,493.15,539.36" style="stroke:#A80036;stroke-width:1.0;"/><!--MD5=[57f337013ebf9704cfc54ea4bc16053d]
link SaveDraftController to PersistenceContext--><path codeLine="135" d="M119.39,318.21 C115.15,377.78 108.23,475.05 104.52,527.06 " fill="none" id="SaveDraftController-to-PersistenceContext" style="stroke:#A80036;stroke-width:1.0;stroke-dasharray:7.0,7.0;"/><polygon fill="#A80036" points="104.15,532.25,108.7828,523.5588,104.5073,527.2628,100.8033,522.9872,104.15,532.25" style="stroke:#A80036;stroke-width:1.0;"/><!--MD5=[41b7389dc9c161e00cc9719193d5127a]
link ServiceRepository to ServiceRepositoryInterface--><path codeLine="137" d="M1065.76,601.74 C1085.02,638.05 1113.87,692.43 1131.22,725.14 " fill="none" id="ServiceRepository-to-ServiceRepositoryInterface" style="stroke:#A80036;stroke-width:1.0;stroke-dasharray:7.0,7.0;"/><polygon fill="#A80036" points="1133.69,729.8,1133.0039,719.9751,1131.346,725.3835,1125.9375,723.7255,1133.69,729.8" style="stroke:#A80036;stroke-width:1.0;"/><!--MD5=[013c093f641f8740a568aa5157f9e0d6]
link ServiceDraftRepository to ServiceDraftRepositoryInterface--><path codeLine="138" d="M683.79,601.74 C684.56,637.9 685.71,691.98 686.4,724.73 " fill="none" id="ServiceDraftRepository-to-ServiceDraftRepositoryInterface" style="stroke:#A80036;stroke-width:1.0;stroke-dasharray:7.0,7.0;"/><polygon fill="#A80036" points="686.51,729.8,690.3033,720.7109,686.3957,724.8013,682.3054,720.8938,686.51,729.8" style="stroke:#A80036;stroke-width:1.0;"/><!--MD5=[d4624390685b6f56f0ffc2024476f319]
link CatalogueRepository to CatalogueRepositoryInterface--><path codeLine="139" d="M881.27,601.74 C891.25,637.9 906.17,691.98 915.2,724.73 " fill="none" id="CatalogueRepository-to-CatalogueRepositoryInterface" style="stroke:#A80036;stroke-width:1.0;stroke-dasharray:7.0,7.0;"/><polygon fill="#A80036" points="916.6,729.8,918.0691,720.0613,915.2736,724.9792,910.3557,722.1836,916.6,729.8" style="stroke:#A80036;stroke-width:1.0;"/><!--MD5=[d66efb439816738ddd3e9d5fff4bf3a7]
link AppSettings to RepositoryFactory--><path codeLine="141" d="M346.62,525.32 C355.91,484.76 377.13,422.61 423,394 C501.15,345.25 1171.52,349.19 1252,394 C1295.01,417.95 1322.64,467.6 1338.7,507.01 " fill="none" id="AppSettings-to-RepositoryFactory" style="stroke:#A80036;stroke-width:1.0;"/><polygon fill="#A80036" points="1340.6,511.76,1340.9714,501.9181,1338.743,507.1176,1333.5436,504.8893,1340.6,511.76" style="stroke:#A80036;stroke-width:1.0;"/><text fill="#000000" font-family="sans-serif" font-size="13" lengthAdjust="spacing" textLength="43" x="1192.5" y="364.4951">creates</text><!--MD5=[27fe1c91fe18bafc5695938053528609]
link PersistenceContext to AppSettings--><path codeLine="142" d="M171.8,563.5 C202.53,563.5 238.57,563.5 269.39,563.5 " fill="none" id="PersistenceContext-to-AppSettings" style="stroke:#A80036;stroke-width:1.0;"/><polygon fill="#A80036" points="274.69,563.5,265.69,559.5,269.69,563.5,265.69,567.5,274.69,563.5" style="stroke:#A80036;stroke-width:1.0;"/><text fill="#000000" font-family="sans-serif" font-size="13" lengthAdjust="spacing" textLength="67" x="189.75" y="556.9951">implements</text><!--MD5=[e2407c399f2ae11eec8128dc99dd93a4]
link RepositoryFactory to ServiceRepository--><path codeLine="144" d="M1291.78,563.5 C1240.51,563.5 1169.21,563.5 1116.61,563.5 " fill="none" id="RepositoryFactory-to-ServiceRepository" style="stroke:#A80036;stroke-width:1.0;"/><polygon fill="#A80036" points="1111.58,563.5,1120.58,567.5,1116.58,563.5,1120.58,559.5,1111.58,563.5" style="stroke:#A80036;stroke-width:1.0;"/><text fill="#000000" font-family="sans-serif" font-size="13" lengthAdjust="spacing" textLength="21" x="1191.25" y="556.9951">has</text><text fill="#000000" font-family="sans-serif" font-size="13" lengthAdjust="spacing" textLength="7" x="1276.8342" y="560.0706">1</text><text fill="#000000" font-family="sans-serif" font-size="13" lengthAdjust="spacing" textLength="7" x="1119.5674" y="560.1094">1</text><!--MD5=[5f59416c95391d0902a6b5df5b91b5a8]
link RepositoryFactory to CatalogueRepository--><path codeLine="145" d="M1340.6,511.76 C1324.86,471.68 1296.76,418.92 1252,394 C1195.89,362.76 1018.19,361.16 963,394 C917.38,421.15 892.98,479.69 881.01,520.32 " fill="none" id="RepositoryFactory-to-CatalogueRepository" style="stroke:#A80036;stroke-width:1.0;"/><polygon fill="#A80036" points="879.61,525.18,885.9434,517.6376,880.993,520.3751,878.2555,515.4247,879.61,525.18" style="stroke:#A80036;stroke-width:1.0;"/><text fill="#000000" font-family="sans-serif" font-size="13" lengthAdjust="spacing" textLength="21" x="1270.5" y="364.4951">has</text><text fill="#000000" font-family="sans-serif" font-size="13" lengthAdjust="spacing" textLength="7" x="1330.9259" y="501.2281">1</text><text fill="#000000" font-family="sans-serif" font-size="13" lengthAdjust="spacing" textLength="7" x="873.4883" y="514.7723">1</text><!--MD5=[c099f118843079ed39661509eb060af6]
link RepositoryFactory to ServiceDraftRepository--><path codeLine="146" d="M1340.6,511.76 C1324.86,471.68 1296.76,418.92 1252,394 C1160.36,342.97 870.74,341.38 780,394 C733.35,421.05 707.23,479.91 694.13,520.61 " fill="none" id="RepositoryFactory-to-ServiceDraftRepository" style="stroke:#A80036;stroke-width:1.0;"/><polygon fill="#A80036" points="692.6,525.48,699.115,518.0939,694.0995,520.7101,691.4832,515.6947,692.6,525.48" style="stroke:#A80036;stroke-width:1.0;"/><text fill="#000000" font-family="sans-serif" font-size="13" lengthAdjust="spacing" textLength="21" x="1242.5" y="364.4951">has</text><text fill="#000000" font-family="sans-serif" font-size="13" lengthAdjust="spacing" textLength="7" x="1338.8666" y="501.2281">1</text><text fill="#000000" font-family="sans-serif" font-size="13" lengthAdjust="spacing" textLength="7" x="686.7247" y="514.5528">1</text><!--MD5=[ddea2b4faec7cb9808defc1f4512b95e]
link ServiceRepository to Service--><path codeLine="148" d="M1081.91,525.29 C1123.85,483.73 1197.54,419.79 1276,394 C1356.86,367.42 1581.51,358.79 1659,394 C1715.96,419.88 1759.58,479.73 1784.26,520.9 " fill="none" id="ServiceRepository-to-Service" style="stroke:#A80036;stroke-width:1.0;"/><polygon fill="#A80036" points="1786.88,525.33,1785.7419,515.5471,1784.3349,521.0262,1778.8558,519.6193,1786.88,525.33" style="stroke:#A80036;stroke-width:1.0;"/><text fill="#000000" font-family="sans-serif" font-size="13" lengthAdjust="spacing" textLength="33" x="1112.5" y="364.4951">saves</text><text fill="#000000" font-family="sans-serif" font-size="13" lengthAdjust="spacing" textLength="7" x="1080.683" y="514.6145">1</text><text fill="#000000" font-family="sans-serif" font-size="13" lengthAdjust="spacing" textLength="5" x="1777.8508" y="514.6616">*</text><!--MD5=[a7398665fd2a89d66fc3de9c40b19ac3]
link ServiceBuilder to Service--><path codeLine="149" d="M3317.44,483.58 C3296.82,449.4 3267.7,413.04 3230,394 C3105.73,331.24 2105.66,340.82 1977,394 C1915.19,419.55 1864.06,479.68 1834.52,520.99 " fill="none" id="ServiceBuilder-to-Service" style="stroke:#A80036;stroke-width:1.0;"/><polygon fill="#A80036" points="1831.55,525.18,1840.0177,520.1503,1834.4413,521.1007,1833.4909,515.5243,1831.55,525.18" style="stroke:#A80036;stroke-width:1.0;"/><text fill="#000000" font-family="sans-serif" font-size="13" lengthAdjust="spacing" textLength="21" x="1946.5" y="364.4951">cria</text><text fill="#000000" font-family="sans-serif" font-size="13" lengthAdjust="spacing" textLength="7" x="3306.7831" y="473.2743">1</text><text fill="#000000" font-family="sans-serif" font-size="13" lengthAdjust="spacing" textLength="5" x="1853.8662" y="513.9415">*</text><!--MD5=[d53e096ef2f9280c1f0af98ac059945b]
link ServiceDraftRepository to ServiceDraft--><path codeLine="150" d="M692.6,525.48 C705.14,484.74 731.46,422.15 780,394 C843.25,357.32 1372.2,362.14 1438,394 C1480.83,414.74 1514.11,456.54 1536.79,493.44 " fill="none" id="ServiceDraftRepository-to-ServiceDraft" style="stroke:#A80036;stroke-width:1.0;"/><polygon fill="#A80036" points="1539.51,497.91,1538.2711,488.1394,1536.9207,493.6327,1531.4274,492.2822,1539.51,497.91" style="stroke:#A80036;stroke-width:1.0;"/><text fill="#000000" font-family="sans-serif" font-size="13" lengthAdjust="spacing" textLength="33" x="1152.5" y="364.4951">saves</text><text fill="#000000" font-family="sans-serif" font-size="13" lengthAdjust="spacing" textLength="7" x="695.0153" y="514.5528">1</text><text fill="#000000" font-family="sans-serif" font-size="13" lengthAdjust="spacing" textLength="5" x="1530.4643" y="486.9157">*</text><!--MD5=[bf1701638b109f176f85067536801975]
link CatalogueRepository to Catalogue--><path codeLine="151" d="M879.61,525.18 C891.03,484.5 915.52,422.25 963,394 C1013.82,363.76 3043.53,360.12 3092,394 C3137.47,425.78 3149.7,494.68 3152.92,534.15 " fill="none" id="CatalogueRepository-to-Catalogue" style="stroke:#A80036;stroke-width:1.0;"/><polygon fill="#A80036" points="3153.3,539.28,3156.6203,530.0077,3152.9285,534.2938,3148.6424,530.602,3153.3,539.28" style="stroke:#A80036;stroke-width:1.0;"/><text fill="#000000" font-family="sans-serif" font-size="13" lengthAdjust="spacing" textLength="33" x="2864.5" y="364.4951">saves</text><text fill="#000000" font-family="sans-serif" font-size="13" lengthAdjust="spacing" textLength="7" x="881.6914" y="514.7723">1</text><text fill="#000000" font-family="sans-serif" font-size="13" lengthAdjust="spacing" textLength="5" x="3147.48" y="528.5638">*</text><!--MD5=[307a5b827bcc56f3ed1b2686d6f64efd]
link Service to Title--><path codeLine="153" d="M1831.55,525.18 C1860.56,483.85 1913.06,420.43 1977,394 C2078.45,352.06 2874.86,331.34 2965,394 C3005.58,422.21 3020.08,479.83 3025.22,520.01 " fill="none" id="Service-to-Title" style="stroke:#A80036;stroke-width:1.0;"/><polygon fill="#A80036" points="3025.86,525.32,3028.7528,515.9056,3025.2609,520.356,3020.8104,516.8641,3025.86,525.32" style="stroke:#A80036;stroke-width:1.0;"/><text fill="#000000" font-family="sans-serif" font-size="13" lengthAdjust="spacing" textLength="21" x="2625.5" y="364.4951">has</text><text fill="#000000" font-family="sans-serif" font-size="13" lengthAdjust="spacing" textLength="7" x="1836.3711" y="514.7723">1</text><text fill="#000000" font-family="sans-serif" font-size="13" lengthAdjust="spacing" textLength="7" x="3017.8554" y="514.6498">1</text><!--MD5=[64ca70a6196ae3efe798d45de5ac438f]
link Service to BriefDescription--><path codeLine="154" d="M1831.55,525.18 C1860.56,483.85 1913.06,420.43 1977,394 C2053.19,362.51 2645.55,356.55 2719,394 C2770.51,420.27 2805.49,479.31 2824.6,520.27 " fill="none" id="Service-to-BriefDescription" style="stroke:#A80036;stroke-width:1.0;"/><polygon fill="#A80036" points="2826.85,525.18,2826.73,515.3319,2824.7638,520.636,2819.4596,518.6698,2826.85,525.18" style="stroke:#A80036;stroke-width:1.0;"/><text fill="#000000" font-family="sans-serif" font-size="13" lengthAdjust="spacing" textLength="21" x="2009.5" y="364.4951">has</text><text fill="#000000" font-family="sans-serif" font-size="13" lengthAdjust="spacing" textLength="7" x="1828.168" y="514.7723">1</text><text fill="#000000" font-family="sans-serif" font-size="13" lengthAdjust="spacing" textLength="7" x="2816.6445" y="514.7723">1</text><!--MD5=[a08ec51e3e9ff54b937670f6ff8bd62c]
link Service to CompleteDescription--><path codeLine="155" d="M1831.55,525.18 C1860.56,483.85 1913.06,420.43 1977,394 C2071.47,354.95 2344.45,350.6 2437,394 C2492.51,420.03 2533.75,479.83 2556.85,520.96 " fill="none" id="Service-to-CompleteDescription" style="stroke:#A80036;stroke-width:1.0;"/><polygon fill="#A80036" points="2559.3,525.38,2558.4258,515.57,2556.8718,521.0092,2551.4326,519.4552,2559.3,525.38" style="stroke:#A80036;stroke-width:1.0;"/><text fill="#000000" font-family="sans-serif" font-size="13" lengthAdjust="spacing" textLength="21" x="2263.5" y="364.4951">has</text><text fill="#000000" font-family="sans-serif" font-size="13" lengthAdjust="spacing" textLength="7" x="1841.9163" y="513.9415">1</text><text fill="#000000" font-family="sans-serif" font-size="13" lengthAdjust="spacing" textLength="7" x="2548.3456" y="514.7205">1</text><!--MD5=[0a09fdf58fab1d6c8de880b74d0d184d]
link Service to Keyword--><path codeLine="156" d="M1831.55,525.18 C1860.56,483.85 1913.06,420.43 1977,394 C2092.01,346.46 2150.35,329.88 2257,394 C2302.27,421.22 2325.99,479.74 2337.49,520.35 " fill="none" id="Service-to-Keyword" style="stroke:#A80036;stroke-width:1.0;"/><polygon fill="#A80036" points="2338.83,525.21,2340.2917,515.4702,2337.4999,520.3902,2332.5799,517.5984,2338.83,525.21" style="stroke:#A80036;stroke-width:1.0;"/><text fill="#000000" font-family="sans-serif" font-size="13" lengthAdjust="spacing" textLength="21" x="2038.5" y="364.4951">has</text><text fill="#000000" font-family="sans-serif" font-size="13" lengthAdjust="spacing" textLength="7" x="1836.3711" y="514.7723">1</text><text fill="#000000" font-family="sans-serif" font-size="13" lengthAdjust="spacing" textLength="5" x="2331.9294" y="514.5202">*</text><!--MD5=[4b39c4de4f5956f9c51a87657979474f]
link Service to Feedback--><path codeLine="157" d="M1832.72,525.41 C1879.83,460.56 1983.35,340.66 2073,394 C2118.62,421.15 2143.02,479.69 2154.99,520.32 " fill="none" id="Service-to-Feedback" style="stroke:#A80036;stroke-width:1.0;"/><polygon fill="#A80036" points="2156.39,525.18,2157.7445,515.4247,2155.007,520.3751,2150.0566,517.6376,2156.39,525.18" style="stroke:#A80036;stroke-width:1.0;"/><text fill="#000000" font-family="sans-serif" font-size="13" lengthAdjust="spacing" textLength="21" x="2067.5" y="364.4951">has</text><text fill="#000000" font-family="sans-serif" font-size="13" lengthAdjust="spacing" textLength="7" x="1856.8265" y="514.3612">1</text><text fill="#000000" font-family="sans-serif" font-size="13" lengthAdjust="spacing" textLength="22" x="2131.0195" y="514.7723">0..1</text><!--MD5=[97e168008b52a7eda5de4adba506e93f]
link Service to Form--><path codeLine="158" d="M1937.27,563.5 C1956.22,563.5 1974.28,563.5 1989.03,563.5 " fill="none" id="Service-to-Form" style="stroke:#A80036;stroke-width:1.0;"/><polygon fill="#A80036" points="1994.32,563.5,1985.32,559.5,1989.32,563.5,1985.32,567.5,1994.32,563.5" style="stroke:#A80036;stroke-width:1.0;"/><text fill="#000000" font-family="sans-serif" font-size="13" lengthAdjust="spacing" textLength="21" x="1955.25" y="556.9951">has</text><text fill="#000000" font-family="sans-serif" font-size="13" lengthAdjust="spacing" textLength="7" x="1945.0036" y="560.5523">1</text><text fill="#000000" font-family="sans-serif" font-size="13" lengthAdjust="spacing" textLength="5" x="1981.6471" y="559.1858">*</text><!--MD5=[101442fa8ca069ed2909db1ffddcdbd9]
link Service to Catalogue--><path codeLine="159" d="M1831.55,525.18 C1860.56,483.85 1913.06,420.43 1977,394 C2034.25,370.34 3041.23,358.51 3092,394 C3137.47,425.78 3149.7,494.68 3152.92,534.15 " fill="none" id="Service-to-Catalogue" style="stroke:#A80036;stroke-width:1.0;"/><polygon fill="#A80036" points="3153.3,539.28,3156.6203,530.0077,3152.9285,534.2938,3148.6424,530.602,3153.3,539.28" style="stroke:#A80036;stroke-width:1.0;"/><text fill="#000000" font-family="sans-serif" font-size="13" lengthAdjust="spacing" textLength="21" x="1979.5" y="364.4951">has</text><text fill="#000000" font-family="sans-serif" font-size="13" lengthAdjust="spacing" textLength="7" x="1828.168" y="514.7723">1</text><text fill="#000000" font-family="sans-serif" font-size="13" lengthAdjust="spacing" textLength="7" x="3154.0175" y="528.5638">1</text><!--MD5=[17716e9ab4f8ed96c971d30d71b83999]
@startuml
skinparam classAttributeIconSize 0

package "Presentation" #DDDDDD {
class SaveDraftUI{

}
}


package "Application" #DDDDDD {
class SaveDraftController{
+create()
+getServiceDraftById(id)
+getCatalogues()
+saveService(serviceDraft)
}
}


package "Domain" #DDDDDD {
class Service{
+create(title, briefDescription, completeDescription, \nfeedback, keywordList, formList)
}

class ServiceDraft{
+getTitle()
+getBriefDescription()
+getCompleteDescription()
+getFeedback()
+getKeywordList()
+getFormList()
}

class Form{
}

class Catalogue{
}

class Title{
+createTitle(title)
-validate(title)
}

class BriefDescription{
+createBriefDescription(briefDescription)
-validate(briefDescription)
}

class CompleteDescription{
+createDescricaoCompleta(completeDescription)
-validate(completeDescription)
}

class Keyword{
+createKeyword(keyword)
-validate(keyword)
}

class Feedback{
+createFeedback(feedback)
-validate(feedback)
}



package Builder #DDDDDD {
class ServiceBuilder{
+create()
+withTitle(title)
+withBriefDescription(briefDescription)
+withCompleteDescription(completeDescription)
+withFeedback(feedback)
+withKeywordList(keywordList)
+withFormList(formList)
+build()
}

}

}

package Persistence #DDDDDD {
class PersistenceContext{
+repositories()
}

class AppSettings{
+instance()
+getRepositoryFactory()
}

package Factory #DDDDDD {
class RepositoryFactory{
+create()
+servicos()
+catalogos()
+formularios()
}
}

package "Repository" #DDDDDD {
class ServiceRepository{
+create()
+save(service)
}

class ServiceDraftRepository{
+create()
+getServiceDraftById(id)
}

class CatalogueRepository{
+create()
+all()
}

interface ServiceRepositoryInterface{

}

interface ServiceDraftRepositoryInterface{

}

interface CatalogueRepositoryInterface{

}
}



SaveDraftUI ..> SaveDraftController
SaveDraftController ..> ServicoBuilder
SaveDraftController ..> PersistenceContext

ServiceRepository ..> ServiceRepositoryInterface
ServiceDraftRepository ..> ServiceDraftRepositoryInterface
CatalogueRepository ..> CatalogueRepositoryInterface

AppSettings -> RepositoryFactory : creates
PersistenceContext -> AppSettings : implements

RepositoryFactory "1" -> "1" ServiceRepository : has
RepositoryFactory "1" -> "1" CatalogueRepository : has
RepositoryFactory "1" -> "1" ServiceDraftRepository : has

ServiceRepository "1" -> "*" Service : saves
ServiceBuilder "1" -> "*" Service : cria
ServiceDraftRepository "1" -> "*" ServiceDraft : saves
CatalogueRepository "1" -> "*" Catalogue : saves

Service "1" -> "1" Title : has
Service "1" -> "1" BriefDescription : has
Service "1" -> "1" CompleteDescription : has
Service "1" -> "*" Keyword : has
Service "1" -> "0..1" Feedback : has
Service "1" -> "*" Form : has
Service "1" -> "1" Catalogue : has


@enduml

PlantUML version 1.2021.5(Sun Apr 25 12:20:28 BST 2021)
(GPL source distribution)
Java Runtime: OpenJDK Runtime Environment
JVM: Dynamic Code Evolution 64-Bit Server VM
Default Encoding: Cp1252
Language: pt
Country: PT
--></g></svg>