<?xml version="1.0" encoding="UTF-8" standalone="no"?><svg xmlns="http://www.w3.org/2000/svg" xmlns:xlink="http://www.w3.org/1999/xlink" contentScriptType="application/ecmascript" contentStyleType="text/css" height="1717px" preserveAspectRatio="none" style="width:3826px;height:1717px;" version="1.1" viewBox="0 0 3826 1717" width="3826px" zoomAndPan="magnify"><defs><filter height="300%" id="foamsy7gori38" width="300%" x="-1" y="-1"><feGaussianBlur result="blurOut" stdDeviation="2.0"/><feColorMatrix in="blurOut" result="blurOut2" type="matrix" values="0 0 0 0 0 0 0 0 0 0 0 0 0 0 0 0 0 0 .4 0"/><feOffset dx="4.0" dy="4.0" in="blurOut2" result="blurOut3"/><feBlend in="SourceGraphic" in2="blurOut3" mode="normal"/></filter></defs><g><rect fill="#FFFFFF" filter="url(#foamsy7gori38)" height="1592.7969" style="stroke:#A80036;stroke-width:1.0;" width="10" x="94" y="99.6094"/><rect fill="#FFFFFF" filter="url(#foamsy7gori38)" height="142.2734" style="stroke:#A80036;stroke-width:1.0;" width="10" x="495" y="121.9609"/><rect fill="#FFFFFF" filter="url(#foamsy7gori38)" height="273.1641" style="stroke:#A80036;stroke-width:1.0;" width="10" x="495" y="294.5859"/><rect fill="#FFFFFF" filter="url(#foamsy7gori38)" height="46.7031" style="stroke:#A80036;stroke-width:1.0;" width="10" x="495" y="598.1016"/><rect fill="#FFFFFF" filter="url(#foamsy7gori38)" height="1017.25" style="stroke:#A80036;stroke-width:1.0;" width="10" x="495" y="675.1563"/><rect fill="#FFFFFF" filter="url(#foamsy7gori38)" height="101.9219" style="stroke:#A80036;stroke-width:1.0;" width="10" x="685" y="162.3125"/><rect fill="#FFFFFF" filter="url(#foamsy7gori38)" height="91.0547" style="stroke:#A80036;stroke-width:1.0;" width="10" x="685" y="324.9375"/><rect fill="#FFFFFF" filter="url(#foamsy7gori38)" height="91.0547" style="stroke:#A80036;stroke-width:1.0;" width="10" x="685" y="446.3438"/><rect fill="#FFFFFF" filter="url(#foamsy7gori38)" height="940.1953" style="stroke:#A80036;stroke-width:1.0;" width="10" x="685" y="705.5078"/><rect fill="#FFFFFF" filter="url(#foamsy7gori38)" height="30.3516" style="stroke:#A80036;stroke-width:1.0;" width="10" x="856" y="355.2891"/><rect fill="#FFFFFF" filter="url(#foamsy7gori38)" height="30.3516" style="stroke:#A80036;stroke-width:1.0;" width="10" x="1011.5" y="476.6953"/><rect fill="#FFFFFF" filter="url(#foamsy7gori38)" height="30" style="stroke:#A80036;stroke-width:1.0;" width="10" x="1139" y="735.8594"/><rect fill="#FFFFFF" filter="url(#foamsy7gori38)" height="30" style="stroke:#A80036;stroke-width:1.0;" width="10" x="1139" y="796.2109"/><rect fill="#FFFFFF" filter="url(#foamsy7gori38)" height="30" style="stroke:#A80036;stroke-width:1.0;" width="10" x="1139" y="856.5625"/><rect fill="#FFFFFF" filter="url(#foamsy7gori38)" height="30" style="stroke:#A80036;stroke-width:1.0;" width="10" x="1139" y="916.9141"/><rect fill="#FFFFFF" filter="url(#foamsy7gori38)" height="30" style="stroke:#A80036;stroke-width:1.0;" width="10" x="1139" y="977.2656"/><rect fill="#FFFFFF" filter="url(#foamsy7gori38)" height="30" style="stroke:#A80036;stroke-width:1.0;" width="10" x="1139" y="1037.6172"/><rect fill="#FFFFFF" filter="url(#foamsy7gori38)" height="30" style="stroke:#A80036;stroke-width:1.0;" width="10" x="1251.5" y="1097.9688"/><rect fill="#FFFFFF" filter="url(#foamsy7gori38)" height="30" style="stroke:#A80036;stroke-width:1.0;" width="10" x="1251.5" y="1158.3203"/><rect fill="#FFFFFF" filter="url(#foamsy7gori38)" height="30" style="stroke:#A80036;stroke-width:1.0;" width="10" x="1251.5" y="1218.6719"/><rect fill="#FFFFFF" filter="url(#foamsy7gori38)" height="30" style="stroke:#A80036;stroke-width:1.0;" width="10" x="1251.5" y="1279.0234"/><rect fill="#FFFFFF" filter="url(#foamsy7gori38)" height="30" style="stroke:#A80036;stroke-width:1.0;" width="10" x="1251.5" y="1339.375"/><rect fill="#FFFFFF" filter="url(#foamsy7gori38)" height="30" style="stroke:#A80036;stroke-width:1.0;" width="10" x="1251.5" y="1399.7266"/><rect fill="#FFFFFF" filter="url(#foamsy7gori38)" height="94.5703" style="stroke:#A80036;stroke-width:1.0;" width="10" x="1251.5" y="1460.0781"/><rect fill="#FFFFFF" filter="url(#foamsy7gori38)" height="30.3516" style="stroke:#A80036;stroke-width:1.0;" width="10" x="1778" y="1585"/><line style="stroke:#A80036;stroke-width:1.0;stroke-dasharray:5.0,5.0;" x1="99" x2="99" y1="89.6094" y2="1710.4063"/><line style="stroke:#A80036;stroke-width:1.0;stroke-dasharray:5.0,5.0;" x1="499.5" x2="499.5" y1="89.6094" y2="1710.4063"/><line style="stroke:#A80036;stroke-width:1.0;stroke-dasharray:5.0,5.0;" x1="689.5" x2="689.5" y1="172.0703" y2="1710.4063"/><line style="stroke:#A80036;stroke-width:1.0;stroke-dasharray:5.0,5.0;" x1="861" x2="861" y1="89.6094" y2="1710.4063"/><line style="stroke:#A80036;stroke-width:1.0;stroke-dasharray:5.0,5.0;" x1="1016" x2="1016" y1="89.6094" y2="1710.4063"/><line style="stroke:#A80036;stroke-width:1.0;stroke-dasharray:5.0,5.0;" x1="1144" x2="1144" y1="89.6094" y2="1710.4063"/><line style="stroke:#A80036;stroke-width:1.0;stroke-dasharray:5.0,5.0;" x1="1256" x2="1256" y1="89.6094" y2="1710.4063"/><line style="stroke:#A80036;stroke-width:1.0;stroke-dasharray:5.0,5.0;" x1="1664.5" x2="1664.5" y1="1510.1875" y2="1710.4063"/><line style="stroke:#A80036;stroke-width:1.0;stroke-dasharray:5.0,5.0;" x1="1782.5" x2="1782.5" y1="89.6094" y2="1710.4063"/><line style="stroke:#A80036;stroke-width:1.0;stroke-dasharray:5.0,5.0;" x1="1923.5" x2="1923.5" y1="89.6094" y2="1710.4063"/><line style="stroke:#A80036;stroke-width:1.0;stroke-dasharray:5.0,5.0;" x1="2064.5" x2="2064.5" y1="89.6094" y2="1710.4063"/><line style="stroke:#A80036;stroke-width:1.0;stroke-dasharray:5.0,5.0;" x1="2203.5" x2="2203.5" y1="89.6094" y2="1710.4063"/><line style="stroke:#A80036;stroke-width:1.0;stroke-dasharray:5.0,5.0;" x1="2328.5" x2="2328.5" y1="89.6094" y2="1710.4063"/><line style="stroke:#A80036;stroke-width:1.0;stroke-dasharray:5.0,5.0;" x1="2445.5" x2="2445.5" y1="89.6094" y2="1710.4063"/><line style="stroke:#A80036;stroke-width:1.0;stroke-dasharray:5.0,5.0;" x1="2588.5" x2="2588.5" y1="89.6094" y2="1710.4063"/><line style="stroke:#A80036;stroke-width:1.0;stroke-dasharray:5.0,5.0;" x1="2721.5" x2="2721.5" y1="89.6094" y2="1710.4063"/><line style="stroke:#A80036;stroke-width:1.0;stroke-dasharray:5.0,5.0;" x1="2827.5" x2="2827.5" y1="89.6094" y2="1710.4063"/><line style="stroke:#A80036;stroke-width:1.0;stroke-dasharray:5.0,5.0;" x1="2933.5" x2="2933.5" y1="89.6094" y2="1710.4063"/><line style="stroke:#A80036;stroke-width:1.0;stroke-dasharray:5.0,5.0;" x1="3039.5" x2="3039.5" y1="89.6094" y2="1710.4063"/><line style="stroke:#A80036;stroke-width:1.0;stroke-dasharray:5.0,5.0;" x1="3150.5" x2="3150.5" y1="89.6094" y2="1710.4063"/><line style="stroke:#A80036;stroke-width:1.0;stroke-dasharray:5.0,5.0;" x1="3267.5" x2="3267.5" y1="89.6094" y2="1710.4063"/><line style="stroke:#A80036;stroke-width:1.0;stroke-dasharray:5.0,5.0;" x1="3401.5" x2="3401.5" y1="89.6094" y2="1710.4063"/><line style="stroke:#A80036;stroke-width:1.0;stroke-dasharray:5.0,5.0;" x1="3537.5" x2="3537.5" y1="89.6094" y2="1710.4063"/><line style="stroke:#A80036;stroke-width:1.0;stroke-dasharray:5.0,5.0;" x1="3656.5" x2="3656.5" y1="89.6094" y2="1710.4063"/><line style="stroke:#A80036;stroke-width:1.0;stroke-dasharray:5.0,5.0;" x1="3768.5" x2="3768.5" y1="89.6094" y2="1710.4063"/><text fill="#000000" font-family="sans-serif" font-size="14" lengthAdjust="spacing" textLength="182" x="5" y="86.5332">Help Desk Services Manager</text><ellipse cx="99" cy="15" fill="#FEFECE" filter="url(#foamsy7gori38)" rx="8" ry="8" style="stroke:#A80036;stroke-width:2.0;"/><path d="M99,23 L99,50 M86,31 L112,31 M99,50 L86,65 M99,50 L112,65 " fill="none" filter="url(#foamsy7gori38)" style="stroke:#A80036;stroke-width:2.0;"/><rect fill="#FEFECE" filter="url(#foamsy7gori38)" height="49.2188" style="stroke:#A80036;stroke-width:1.5;" width="125" x="435.5" y="35.3906"/><text fill="#000000" font-family="sans-serif" font-size="14" lengthAdjust="spacing" textLength="111" x="442.5" y="56.9238">&lt;&lt;presentation&gt;&gt;</text><text fill="#000000" font-family="sans-serif" font-size="14" lengthAdjust="spacing" textLength="75" x="460.5" y="74.5332">SaveDraftUI</text><text fill="#000000" font-family="sans-serif" font-size="14" lengthAdjust="spacing" textLength="95" x="810.5" y="68.9238">&lt;&lt;repository&gt;&gt;</text><text fill="#000000" font-family="sans-serif" font-size="14" lengthAdjust="spacing" textLength="146" x="785" y="86.5332">ServiceDraftRepository</text><path d="M843,18.3906 C843,8.3906 861,8.3906 861,8.3906 C861,8.3906 879,8.3906 879,18.3906 L879,44.3906 C879,54.3906 861,54.3906 861,54.3906 C861,54.3906 843,54.3906 843,44.3906 L843,18.3906 " fill="#FEFECE" filter="url(#foamsy7gori38)" style="stroke:#000000;stroke-width:1.5;"/><path d="M843,18.3906 C843,28.3906 861,28.3906 861,28.3906 C861,28.3906 879,28.3906 879,18.3906 " fill="none" style="stroke:#000000;stroke-width:1.5;"/><text fill="#000000" font-family="sans-serif" font-size="14" lengthAdjust="spacing" textLength="95" x="966" y="68.9238">&lt;&lt;repository&gt;&gt;</text><text fill="#000000" font-family="sans-serif" font-size="14" lengthAdjust="spacing" textLength="133" x="947" y="86.5332">CatalogueRepository</text><path d="M998.5,18.3906 C998.5,8.3906 1016.5,8.3906 1016.5,8.3906 C1016.5,8.3906 1034.5,8.3906 1034.5,18.3906 L1034.5,44.3906 C1034.5,54.3906 1016.5,54.3906 1016.5,54.3906 C1016.5,54.3906 998.5,54.3906 998.5,44.3906 L998.5,18.3906 " fill="#FEFECE" filter="url(#foamsy7gori38)" style="stroke:#000000;stroke-width:1.5;"/><path d="M998.5,18.3906 C998.5,28.3906 1016.5,28.3906 1016.5,28.3906 C1016.5,28.3906 1034.5,28.3906 1034.5,18.3906 " fill="none" style="stroke:#000000;stroke-width:1.5;"/><rect fill="#FEFECE" filter="url(#foamsy7gori38)" height="49.2188" style="stroke:#A80036;stroke-width:1.5;" width="92" x="1096" y="35.3906"/><text fill="#000000" font-family="sans-serif" font-size="14" lengthAdjust="spacing" textLength="78" x="1103" y="56.9238">&lt;&lt;domain&gt;&gt;</text><text fill="#000000" font-family="sans-serif" font-size="14" lengthAdjust="spacing" textLength="78" x="1103" y="74.5332">ServiceDraft</text><rect fill="#FEFECE" filter="url(#foamsy7gori38)" height="49.2188" style="stroke:#A80036;stroke-width:1.5;" width="105" x="1202" y="35.3906"/><text fill="#000000" font-family="sans-serif" font-size="14" lengthAdjust="spacing" textLength="75" x="1217" y="56.9238">&lt;&lt;builder&gt;&gt;</text><text fill="#000000" font-family="sans-serif" font-size="14" lengthAdjust="spacing" textLength="91" x="1209" y="74.5332">ServiceBuilder</text><text fill="#000000" font-family="sans-serif" font-size="14" lengthAdjust="spacing" textLength="95" x="1732.5" y="68.9238">&lt;&lt;repository&gt;&gt;</text><text fill="#000000" font-family="sans-serif" font-size="14" lengthAdjust="spacing" textLength="115" x="1722.5" y="86.5332">ServiceRepository</text><path d="M1765,18.3906 C1765,8.3906 1783,8.3906 1783,8.3906 C1783,8.3906 1801,8.3906 1801,18.3906 L1801,44.3906 C1801,54.3906 1783,54.3906 1783,54.3906 C1783,54.3906 1765,54.3906 1765,44.3906 L1765,18.3906 " fill="#FEFECE" filter="url(#foamsy7gori38)" style="stroke:#000000;stroke-width:1.5;"/><path d="M1765,18.3906 C1765,28.3906 1783,28.3906 1783,28.3906 C1783,28.3906 1801,28.3906 1801,18.3906 " fill="none" style="stroke:#000000;stroke-width:1.5;"/><rect fill="#FEFECE" filter="url(#foamsy7gori38)" height="49.2188" style="stroke:#A80036;stroke-width:1.5;" width="136" x="1853.5" y="35.3906"/><text fill="#000000" font-family="sans-serif" font-size="14" lengthAdjust="spacing" textLength="105" x="1869" y="56.9238">&lt;&lt;persistence&gt;&gt;</text><text fill="#000000" font-family="sans-serif" font-size="14" lengthAdjust="spacing" textLength="122" x="1860.5" y="74.5332">PersistenceContext</text><rect fill="#FEFECE" filter="url(#foamsy7gori38)" height="49.2188" style="stroke:#A80036;stroke-width:1.5;" width="119" x="2003.5" y="35.3906"/><text fill="#000000" font-family="sans-serif" font-size="14" lengthAdjust="spacing" textLength="105" x="2010.5" y="56.9238">&lt;&lt;persistence&gt;&gt;</text><text fill="#000000" font-family="sans-serif" font-size="14" lengthAdjust="spacing" textLength="76" x="2025" y="74.5332">AppSettings</text><rect fill="#FEFECE" filter="url(#foamsy7gori38)" height="49.2188" style="stroke:#A80036;stroke-width:1.5;" width="130" x="2136.5" y="35.3906"/><text fill="#000000" font-family="sans-serif" font-size="14" lengthAdjust="spacing" textLength="75" x="2164" y="56.9238">&lt;&lt;factory&gt;&gt;</text><text fill="#000000" font-family="sans-serif" font-size="14" lengthAdjust="spacing" textLength="116" x="2143.5" y="74.5332">RepositoryFactory</text><rect fill="#FEFECE" filter="url(#foamsy7gori38)" height="49.2188" style="stroke:#A80036;stroke-width:1.5;" width="92" x="2280.5" y="35.3906"/><text fill="#000000" font-family="sans-serif" font-size="14" lengthAdjust="spacing" textLength="78" x="2287.5" y="56.9238">&lt;&lt;domain&gt;&gt;</text><text fill="#000000" font-family="sans-serif" font-size="14" lengthAdjust="spacing" textLength="27" x="2313" y="74.5332">Title</text><rect fill="#FEFECE" filter="url(#foamsy7gori38)" height="49.2188" style="stroke:#A80036;stroke-width:1.5;" width="114" x="2386.5" y="35.3906"/><text fill="#000000" font-family="sans-serif" font-size="14" lengthAdjust="spacing" textLength="78" x="2404.5" y="56.9238">&lt;&lt;domain&gt;&gt;</text><text fill="#000000" font-family="sans-serif" font-size="14" lengthAdjust="spacing" textLength="100" x="2393.5" y="74.5332">BriefDescription</text><rect fill="#FEFECE" filter="url(#foamsy7gori38)" height="49.2188" style="stroke:#A80036;stroke-width:1.5;" width="145" x="2514.5" y="35.3906"/><text fill="#000000" font-family="sans-serif" font-size="14" lengthAdjust="spacing" textLength="78" x="2548" y="56.9238">&lt;&lt;domain&gt;&gt;</text><text fill="#000000" font-family="sans-serif" font-size="14" lengthAdjust="spacing" textLength="131" x="2521.5" y="74.5332">CompleteDescription</text><rect fill="#FEFECE" filter="url(#foamsy7gori38)" height="49.2188" style="stroke:#A80036;stroke-width:1.5;" width="92" x="2673.5" y="35.3906"/><text fill="#000000" font-family="sans-serif" font-size="14" lengthAdjust="spacing" textLength="78" x="2680.5" y="56.9238">&lt;&lt;domain&gt;&gt;</text><text fill="#000000" font-family="sans-serif" font-size="14" lengthAdjust="spacing" textLength="54" x="2692.5" y="74.5332">Keyword</text><rect fill="#FEFECE" filter="url(#foamsy7gori38)" height="49.2188" style="stroke:#A80036;stroke-width:1.5;" width="92" x="2779.5" y="35.3906"/><text fill="#000000" font-family="sans-serif" font-size="14" lengthAdjust="spacing" textLength="78" x="2786.5" y="56.9238">&lt;&lt;domain&gt;&gt;</text><text fill="#000000" font-family="sans-serif" font-size="14" lengthAdjust="spacing" textLength="63" x="2794" y="74.5332">Feedback</text><rect fill="#FEFECE" filter="url(#foamsy7gori38)" height="49.2188" style="stroke:#A80036;stroke-width:1.5;" width="92" x="2885.5" y="35.3906"/><text fill="#000000" font-family="sans-serif" font-size="14" lengthAdjust="spacing" textLength="78" x="2892.5" y="56.9238">&lt;&lt;domain&gt;&gt;</text><text fill="#000000" font-family="sans-serif" font-size="14" lengthAdjust="spacing" textLength="69" x="2897" y="74.5332">FormName</text><rect fill="#FEFECE" filter="url(#foamsy7gori38)" height="49.2188" style="stroke:#A80036;stroke-width:1.5;" width="92" x="2991.5" y="35.3906"/><text fill="#000000" font-family="sans-serif" font-size="14" lengthAdjust="spacing" textLength="78" x="2998.5" y="56.9238">&lt;&lt;domain&gt;&gt;</text><text fill="#000000" font-family="sans-serif" font-size="14" lengthAdjust="spacing" textLength="65" x="3005" y="74.5332">FormType</text><rect fill="#FEFECE" filter="url(#foamsy7gori38)" height="49.2188" style="stroke:#A80036;stroke-width:1.5;" width="103" x="3097.5" y="35.3906"/><text fill="#000000" font-family="sans-serif" font-size="14" lengthAdjust="spacing" textLength="78" x="3110" y="56.9238">&lt;&lt;domain&gt;&gt;</text><text fill="#000000" font-family="sans-serif" font-size="14" lengthAdjust="spacing" textLength="89" x="3104.5" y="74.5332">AttributeName</text><rect fill="#FEFECE" filter="url(#foamsy7gori38)" height="49.2188" style="stroke:#A80036;stroke-width:1.5;" width="102" x="3214.5" y="35.3906"/><text fill="#000000" font-family="sans-serif" font-size="14" lengthAdjust="spacing" textLength="78" x="3226.5" y="56.9238">&lt;&lt;domain&gt;&gt;</text><text fill="#000000" font-family="sans-serif" font-size="14" lengthAdjust="spacing" textLength="88" x="3221.5" y="74.5332">AttributeLabel</text><rect fill="#FEFECE" filter="url(#foamsy7gori38)" height="49.2188" style="stroke:#A80036;stroke-width:1.5;" width="138" x="3330.5" y="35.3906"/><text fill="#000000" font-family="sans-serif" font-size="14" lengthAdjust="spacing" textLength="78" x="3360.5" y="56.9238">&lt;&lt;domain&gt;&gt;</text><text fill="#000000" font-family="sans-serif" font-size="14" lengthAdjust="spacing" textLength="124" x="3337.5" y="74.5332">AttributeDescription</text><rect fill="#FEFECE" filter="url(#foamsy7gori38)" height="49.2188" style="stroke:#A80036;stroke-width:1.5;" width="107" x="3482.5" y="35.3906"/><text fill="#000000" font-family="sans-serif" font-size="14" lengthAdjust="spacing" textLength="78" x="3497" y="56.9238">&lt;&lt;domain&gt;&gt;</text><text fill="#000000" font-family="sans-serif" font-size="14" lengthAdjust="spacing" textLength="93" x="3489.5" y="74.5332">AttributeRegex</text><rect fill="#FEFECE" filter="url(#foamsy7gori38)" height="49.2188" style="stroke:#A80036;stroke-width:1.5;" width="103" x="3603.5" y="35.3906"/><text fill="#000000" font-family="sans-serif" font-size="14" lengthAdjust="spacing" textLength="78" x="3616" y="56.9238">&lt;&lt;domain&gt;&gt;</text><text fill="#000000" font-family="sans-serif" font-size="14" lengthAdjust="spacing" textLength="89" x="3610.5" y="74.5332">AttributeScript</text><rect fill="#FEFECE" filter="url(#foamsy7gori38)" height="49.2188" style="stroke:#A80036;stroke-width:1.5;" width="92" x="3720.5" y="35.3906"/><text fill="#000000" font-family="sans-serif" font-size="14" lengthAdjust="spacing" textLength="78" x="3727.5" y="56.9238">&lt;&lt;domain&gt;&gt;</text><text fill="#000000" font-family="sans-serif" font-size="14" lengthAdjust="spacing" textLength="62" x="3735.5" y="74.5332">DataType</text><rect fill="#FFFFFF" filter="url(#foamsy7gori38)" height="1592.7969" style="stroke:#A80036;stroke-width:1.0;" width="10" x="94" y="99.6094"/><rect fill="#FFFFFF" filter="url(#foamsy7gori38)" height="142.2734" style="stroke:#A80036;stroke-width:1.0;" width="10" x="495" y="121.9609"/><rect fill="#FFFFFF" filter="url(#foamsy7gori38)" height="273.1641" style="stroke:#A80036;stroke-width:1.0;" width="10" x="495" y="294.5859"/><rect fill="#FFFFFF" filter="url(#foamsy7gori38)" height="46.7031" style="stroke:#A80036;stroke-width:1.0;" width="10" x="495" y="598.1016"/><rect fill="#FFFFFF" filter="url(#foamsy7gori38)" height="1017.25" style="stroke:#A80036;stroke-width:1.0;" width="10" x="495" y="675.1563"/><rect fill="#FFFFFF" filter="url(#foamsy7gori38)" height="101.9219" style="stroke:#A80036;stroke-width:1.0;" width="10" x="685" y="162.3125"/><rect fill="#FFFFFF" filter="url(#foamsy7gori38)" height="91.0547" style="stroke:#A80036;stroke-width:1.0;" width="10" x="685" y="324.9375"/><rect fill="#FFFFFF" filter="url(#foamsy7gori38)" height="91.0547" style="stroke:#A80036;stroke-width:1.0;" width="10" x="685" y="446.3438"/><rect fill="#FFFFFF" filter="url(#foamsy7gori38)" height="940.1953" style="stroke:#A80036;stroke-width:1.0;" width="10" x="685" y="705.5078"/><rect fill="#FFFFFF" filter="url(#foamsy7gori38)" height="30.3516" style="stroke:#A80036;stroke-width:1.0;" width="10" x="856" y="355.2891"/><rect fill="#FFFFFF" filter="url(#foamsy7gori38)" height="30.3516" style="stroke:#A80036;stroke-width:1.0;" width="10" x="1011.5" y="476.6953"/><rect fill="#FFFFFF" filter="url(#foamsy7gori38)" height="30" style="stroke:#A80036;stroke-width:1.0;" width="10" x="1139" y="735.8594"/><rect fill="#FFFFFF" filter="url(#foamsy7gori38)" height="30" style="stroke:#A80036;stroke-width:1.0;" width="10" x="1139" y="796.2109"/><rect fill="#FFFFFF" filter="url(#foamsy7gori38)" height="30" style="stroke:#A80036;stroke-width:1.0;" width="10" x="1139" y="856.5625"/><rect fill="#FFFFFF" filter="url(#foamsy7gori38)" height="30" style="stroke:#A80036;stroke-width:1.0;" width="10" x="1139" y="916.9141"/><rect fill="#FFFFFF" filter="url(#foamsy7gori38)" height="30" style="stroke:#A80036;stroke-width:1.0;" width="10" x="1139" y="977.2656"/><rect fill="#FFFFFF" filter="url(#foamsy7gori38)" height="30" style="stroke:#A80036;stroke-width:1.0;" width="10" x="1139" y="1037.6172"/><rect fill="#FFFFFF" filter="url(#foamsy7gori38)" height="30" style="stroke:#A80036;stroke-width:1.0;" width="10" x="1251.5" y="1097.9688"/><rect fill="#FFFFFF" filter="url(#foamsy7gori38)" height="30" style="stroke:#A80036;stroke-width:1.0;" width="10" x="1251.5" y="1158.3203"/><rect fill="#FFFFFF" filter="url(#foamsy7gori38)" height="30" style="stroke:#A80036;stroke-width:1.0;" width="10" x="1251.5" y="1218.6719"/><rect fill="#FFFFFF" filter="url(#foamsy7gori38)" height="30" style="stroke:#A80036;stroke-width:1.0;" width="10" x="1251.5" y="1279.0234"/><rect fill="#FFFFFF" filter="url(#foamsy7gori38)" height="30" style="stroke:#A80036;stroke-width:1.0;" width="10" x="1251.5" y="1339.375"/><rect fill="#FFFFFF" filter="url(#foamsy7gori38)" height="30" style="stroke:#A80036;stroke-width:1.0;" width="10" x="1251.5" y="1399.7266"/><rect fill="#FFFFFF" filter="url(#foamsy7gori38)" height="94.5703" style="stroke:#A80036;stroke-width:1.0;" width="10" x="1251.5" y="1460.0781"/><rect fill="#FFFFFF" filter="url(#foamsy7gori38)" height="30.3516" style="stroke:#A80036;stroke-width:1.0;" width="10" x="1778" y="1585"/><polygon fill="#A80036" points="483,117.9609,493,121.9609,483,125.9609,487,121.9609" style="stroke:#A80036;stroke-width:1.0;"/><line style="stroke:#A80036;stroke-width:1.0;" x1="104" x2="489" y1="121.9609" y2="121.9609"/><text fill="#000000" font-family="sans-serif" font-size="13" font-weight="bold" lengthAdjust="spacing" textLength="7" x="111" y="117.1045">1</text><text fill="#000000" font-family="sans-serif" font-size="13" lengthAdjust="spacing" textLength="257" x="122" y="117.1045">initiates the request to save in a service draft</text><polygon fill="#A80036" points="606.5,148.3125,616.5,152.3125,606.5,156.3125,610.5,152.3125" style="stroke:#A80036;stroke-width:1.0;"/><line style="stroke:#A80036;stroke-width:1.0;" x1="505" x2="612.5" y1="152.3125" y2="152.3125"/><text fill="#000000" font-family="sans-serif" font-size="13" font-weight="bold" lengthAdjust="spacing" textLength="7" x="512" y="147.4561">2</text><text fill="#000000" font-family="sans-serif" font-size="13" lengthAdjust="spacing" textLength="36" x="523" y="147.4561">create</text><rect fill="#FEFECE" filter="url(#foamsy7gori38)" height="49.2188" style="stroke:#A80036;stroke-width:1.5;" width="139" x="618.5" y="129.9609"/><text fill="#000000" font-family="sans-serif" font-size="14" lengthAdjust="spacing" textLength="100" x="638" y="151.4941">&lt;&lt;application&gt;&gt;</text><text fill="#000000" font-family="sans-serif" font-size="14" lengthAdjust="spacing" textLength="125" x="625.5" y="169.1035">SaveDraftController</text><rect fill="#FFFFFF" filter="url(#foamsy7gori38)" height="42.7031" style="stroke:#000000;stroke-width:2.0;" width="145" x="615.5" y="194.1797"/><polygon fill="#EEEEEE" points="615.5,194.1797,677.5,194.1797,677.5,202.1797,667.5,212.1797,615.5,212.1797,615.5,194.1797" style="stroke:#000000;stroke-width:2.0;"/><text fill="#000000" font-family="sans-serif" font-size="13" font-weight="bold" lengthAdjust="spacing" textLength="17" x="628.5" y="209.6748">ref</text><text fill="#000000" font-family="sans-serif" font-size="13" lengthAdjust="spacing" textLength="123" x="628.5" y="229.6748">US-1-2002_SD_Repo</text><polygon fill="#A80036" points="115,260.2344,105,264.2344,115,268.2344,111,264.2344" style="stroke:#A80036;stroke-width:1.0;"/><line style="stroke:#A80036;stroke-width:1.0;" x1="109" x2="499" y1="264.2344" y2="264.2344"/><text fill="#000000" font-family="sans-serif" font-size="13" font-weight="bold" lengthAdjust="spacing" textLength="7" x="121" y="259.3779">3</text><text fill="#000000" font-family="sans-serif" font-size="13" lengthAdjust="spacing" textLength="124" x="132" y="259.3779">requests the draft's id</text><polygon fill="#A80036" points="483,290.5859,493,294.5859,483,298.5859,487,294.5859" style="stroke:#A80036;stroke-width:1.0;"/><line style="stroke:#A80036;stroke-width:1.0;" x1="104" x2="489" y1="294.5859" y2="294.5859"/><text fill="#000000" font-family="sans-serif" font-size="13" font-weight="bold" lengthAdjust="spacing" textLength="7" x="111" y="289.7295">4</text><text fill="#000000" font-family="sans-serif" font-size="13" lengthAdjust="spacing" textLength="81" x="122" y="289.7295">inserts said id</text><polygon fill="#A80036" points="673,320.9375,683,324.9375,673,328.9375,677,324.9375" style="stroke:#A80036;stroke-width:1.0;"/><line style="stroke:#A80036;stroke-width:1.0;" x1="505" x2="679" y1="324.9375" y2="324.9375"/><text fill="#000000" font-family="sans-serif" font-size="13" font-weight="bold" lengthAdjust="spacing" textLength="7" x="512" y="320.0811">5</text><text fill="#000000" font-family="sans-serif" font-size="13" lengthAdjust="spacing" textLength="131" x="523" y="320.0811">getServiceDraftById(id)</text><polygon fill="#A80036" points="844,351.2891,854,355.2891,844,359.2891,848,355.2891" style="stroke:#A80036;stroke-width:1.0;"/><line style="stroke:#A80036;stroke-width:1.0;" x1="695" x2="850" y1="355.2891" y2="355.2891"/><text fill="#000000" font-family="sans-serif" font-size="13" font-weight="bold" lengthAdjust="spacing" textLength="7" x="702" y="350.4326">6</text><text fill="#000000" font-family="sans-serif" font-size="13" lengthAdjust="spacing" textLength="131" x="713" y="350.4326">getServiceDraftById(id)</text><polygon fill="#A80036" points="706,381.6406,696,385.6406,706,389.6406,702,385.6406" style="stroke:#A80036;stroke-width:1.0;"/><line style="stroke:#A80036;stroke-width:1.0;stroke-dasharray:2.0,2.0;" x1="700" x2="860" y1="385.6406" y2="385.6406"/><text fill="#000000" font-family="sans-serif" font-size="13" font-weight="bold" lengthAdjust="spacing" textLength="7" x="712" y="380.7842">7</text><text fill="#000000" font-family="sans-serif" font-size="13" lengthAdjust="spacing" textLength="67" x="723" y="380.7842">serviceDraft</text><polygon fill="#A80036" points="516,411.9922,506,415.9922,516,419.9922,512,415.9922" style="stroke:#A80036;stroke-width:1.0;"/><line style="stroke:#A80036;stroke-width:1.0;stroke-dasharray:2.0,2.0;" x1="510" x2="689" y1="415.9922" y2="415.9922"/><text fill="#000000" font-family="sans-serif" font-size="13" font-weight="bold" lengthAdjust="spacing" textLength="7" x="522" y="411.1357">8</text><text fill="#000000" font-family="sans-serif" font-size="13" lengthAdjust="spacing" textLength="67" x="533" y="411.1357">serviceDraft</text><polygon fill="#A80036" points="673,442.3438,683,446.3438,673,450.3438,677,446.3438" style="stroke:#A80036;stroke-width:1.0;"/><line style="stroke:#A80036;stroke-width:1.0;" x1="505" x2="679" y1="446.3438" y2="446.3438"/><text fill="#000000" font-family="sans-serif" font-size="13" font-weight="bold" lengthAdjust="spacing" textLength="7" x="512" y="441.4873">9</text><text fill="#000000" font-family="sans-serif" font-size="13" lengthAdjust="spacing" textLength="91" x="523" y="441.4873">getCatalogues()</text><polygon fill="#A80036" points="999.5,472.6953,1009.5,476.6953,999.5,480.6953,1003.5,476.6953" style="stroke:#A80036;stroke-width:1.0;"/><line style="stroke:#A80036;stroke-width:1.0;" x1="695" x2="1005.5" y1="476.6953" y2="476.6953"/><text fill="#000000" font-family="sans-serif" font-size="13" font-weight="bold" lengthAdjust="spacing" textLength="14" x="702" y="471.8389">10</text><text fill="#000000" font-family="sans-serif" font-size="13" lengthAdjust="spacing" textLength="21" x="720" y="471.8389">all()</text><polygon fill="#A80036" points="706,503.0469,696,507.0469,706,511.0469,702,507.0469" style="stroke:#A80036;stroke-width:1.0;"/><line style="stroke:#A80036;stroke-width:1.0;stroke-dasharray:2.0,2.0;" x1="700" x2="1015.5" y1="507.0469" y2="507.0469"/><text fill="#000000" font-family="sans-serif" font-size="13" font-weight="bold" lengthAdjust="spacing" textLength="14" x="712" y="502.1904">11</text><text fill="#000000" font-family="sans-serif" font-size="13" lengthAdjust="spacing" textLength="17" x="730" y="502.1904">list</text><polygon fill="#A80036" points="516,533.3984,506,537.3984,516,541.3984,512,537.3984" style="stroke:#A80036;stroke-width:1.0;"/><line style="stroke:#A80036;stroke-width:1.0;stroke-dasharray:2.0,2.0;" x1="510" x2="689" y1="537.3984" y2="537.3984"/><text fill="#000000" font-family="sans-serif" font-size="13" font-weight="bold" lengthAdjust="spacing" textLength="14" x="522" y="532.542">12</text><text fill="#000000" font-family="sans-serif" font-size="13" lengthAdjust="spacing" textLength="17" x="540" y="532.542">list</text><polygon fill="#A80036" points="115,563.75,105,567.75,115,571.75,111,567.75" style="stroke:#A80036;stroke-width:1.0;"/><line style="stroke:#A80036;stroke-width:1.0;" x1="109" x2="499" y1="567.75" y2="567.75"/><text fill="#000000" font-family="sans-serif" font-size="13" font-weight="bold" lengthAdjust="spacing" textLength="14" x="121" y="562.8936">13</text><text fill="#000000" font-family="sans-serif" font-size="13" lengthAdjust="spacing" textLength="349" x="139" y="562.8936">shows the catalogue list and request the user to choose one</text><polygon fill="#A80036" points="483,594.1016,493,598.1016,483,602.1016,487,598.1016" style="stroke:#A80036;stroke-width:1.0;"/><line style="stroke:#A80036;stroke-width:1.0;" x1="104" x2="489" y1="598.1016" y2="598.1016"/><text fill="#000000" font-family="sans-serif" font-size="13" font-weight="bold" lengthAdjust="spacing" textLength="14" x="111" y="593.2451">14</text><text fill="#000000" font-family="sans-serif" font-size="13" lengthAdjust="spacing" textLength="124" x="129" y="593.2451">selects the catalogue</text><polygon fill="#A80036" points="115,640.8047,105,644.8047,115,648.8047,111,644.8047" style="stroke:#A80036;stroke-width:1.0;"/><line style="stroke:#A80036;stroke-width:1.0;" x1="109" x2="499" y1="644.8047" y2="644.8047"/><text fill="#000000" font-family="sans-serif" font-size="13" font-weight="bold" lengthAdjust="spacing" textLength="14" x="121" y="631.7725">15</text><text fill="#000000" font-family="sans-serif" font-size="13" lengthAdjust="spacing" textLength="174" x="139" y="623.5967">validates, presents the current</text><text fill="#000000" font-family="sans-serif" font-size="13" lengthAdjust="spacing" textLength="277" x="139" y="639.9482">information in the draft and asks for confirmation</text><polygon fill="#A80036" points="483,671.1563,493,675.1563,483,679.1563,487,675.1563" style="stroke:#A80036;stroke-width:1.0;"/><line style="stroke:#A80036;stroke-width:1.0;" x1="104" x2="489" y1="675.1563" y2="675.1563"/><text fill="#000000" font-family="sans-serif" font-size="13" font-weight="bold" lengthAdjust="spacing" textLength="14" x="111" y="670.2998">16</text><text fill="#000000" font-family="sans-serif" font-size="13" lengthAdjust="spacing" textLength="49" x="129" y="670.2998">confirms</text><polygon fill="#A80036" points="673,701.5078,683,705.5078,673,709.5078,677,705.5078" style="stroke:#A80036;stroke-width:1.0;"/><line style="stroke:#A80036;stroke-width:1.0;" x1="505" x2="679" y1="705.5078" y2="705.5078"/><text fill="#000000" font-family="sans-serif" font-size="13" font-weight="bold" lengthAdjust="spacing" textLength="14" x="512" y="700.6514">17</text><text fill="#000000" font-family="sans-serif" font-size="13" lengthAdjust="spacing" textLength="143" x="530" y="700.6514">saveService(serviceDraft)</text><polygon fill="#A80036" points="1127,731.8594,1137,735.8594,1127,739.8594,1131,735.8594" style="stroke:#A80036;stroke-width:1.0;"/><line style="stroke:#A80036;stroke-width:1.0;" x1="695" x2="1133" y1="735.8594" y2="735.8594"/><text fill="#000000" font-family="sans-serif" font-size="13" font-weight="bold" lengthAdjust="spacing" textLength="14" x="702" y="731.0029">18</text><text fill="#000000" font-family="sans-serif" font-size="13" lengthAdjust="spacing" textLength="87" x="720" y="731.0029">title = getTitle()</text><polygon fill="#A80036" points="1127,792.2109,1137,796.2109,1127,800.2109,1131,796.2109" style="stroke:#A80036;stroke-width:1.0;"/><line style="stroke:#A80036;stroke-width:1.0;" x1="695" x2="1133" y1="796.2109" y2="796.2109"/><text fill="#000000" font-family="sans-serif" font-size="13" font-weight="bold" lengthAdjust="spacing" textLength="14" x="702" y="791.3545">19</text><text fill="#000000" font-family="sans-serif" font-size="13" lengthAdjust="spacing" textLength="222" x="720" y="791.3545">briefDescription = getBriefDescription()</text><polygon fill="#A80036" points="1127,852.5625,1137,856.5625,1127,860.5625,1131,856.5625" style="stroke:#A80036;stroke-width:1.0;"/><line style="stroke:#A80036;stroke-width:1.0;" x1="695" x2="1133" y1="856.5625" y2="856.5625"/><text fill="#000000" font-family="sans-serif" font-size="13" font-weight="bold" lengthAdjust="spacing" textLength="14" x="702" y="851.7061">20</text><text fill="#000000" font-family="sans-serif" font-size="13" lengthAdjust="spacing" textLength="280" x="720" y="851.7061">completeDescription = getCompleteDescription()</text><polygon fill="#A80036" points="1127,912.9141,1137,916.9141,1127,920.9141,1131,916.9141" style="stroke:#A80036;stroke-width:1.0;"/><line style="stroke:#A80036;stroke-width:1.0;" x1="695" x2="1133" y1="916.9141" y2="916.9141"/><text fill="#000000" font-family="sans-serif" font-size="13" font-weight="bold" lengthAdjust="spacing" textLength="14" x="702" y="912.0576">21</text><text fill="#000000" font-family="sans-serif" font-size="13" lengthAdjust="spacing" textLength="151" x="720" y="912.0576">feedback = getFeedback()</text><polygon fill="#A80036" points="1127,973.2656,1137,977.2656,1127,981.2656,1131,977.2656" style="stroke:#A80036;stroke-width:1.0;"/><line style="stroke:#A80036;stroke-width:1.0;" x1="695" x2="1133" y1="977.2656" y2="977.2656"/><text fill="#000000" font-family="sans-serif" font-size="13" font-weight="bold" lengthAdjust="spacing" textLength="14" x="702" y="972.4092">22</text><text fill="#000000" font-family="sans-serif" font-size="13" lengthAdjust="spacing" textLength="182" x="720" y="972.4092">keywordList = getKeywordList()</text><polygon fill="#A80036" points="1127,1033.6172,1137,1037.6172,1127,1041.6172,1131,1037.6172" style="stroke:#A80036;stroke-width:1.0;"/><line style="stroke:#A80036;stroke-width:1.0;" x1="695" x2="1133" y1="1037.6172" y2="1037.6172"/><text fill="#000000" font-family="sans-serif" font-size="13" font-weight="bold" lengthAdjust="spacing" textLength="14" x="702" y="1032.7607">23</text><text fill="#000000" font-family="sans-serif" font-size="13" lengthAdjust="spacing" textLength="139" x="720" y="1032.7607">formList = getFormList()</text><polygon fill="#A80036" points="1239.5,1093.9688,1249.5,1097.9688,1239.5,1101.9688,1243.5,1097.9688" style="stroke:#A80036;stroke-width:1.0;"/><line style="stroke:#A80036;stroke-width:1.0;" x1="695" x2="1245.5" y1="1097.9688" y2="1097.9688"/><text fill="#000000" font-family="sans-serif" font-size="13" font-weight="bold" lengthAdjust="spacing" textLength="14" x="702" y="1093.1123">24</text><text fill="#000000" font-family="sans-serif" font-size="13" lengthAdjust="spacing" textLength="76" x="720" y="1093.1123">withTitle(title)</text><polygon fill="#A80036" points="1239.5,1154.3203,1249.5,1158.3203,1239.5,1162.3203,1243.5,1158.3203" style="stroke:#A80036;stroke-width:1.0;"/><line style="stroke:#A80036;stroke-width:1.0;" x1="695" x2="1245.5" y1="1158.3203" y2="1158.3203"/><text fill="#000000" font-family="sans-serif" font-size="13" font-weight="bold" lengthAdjust="spacing" textLength="14" x="702" y="1153.4639">25</text><text fill="#000000" font-family="sans-serif" font-size="13" lengthAdjust="spacing" textLength="211" x="720" y="1153.4639">withBriefDescription(briefDescription)</text><polygon fill="#A80036" points="1239.5,1214.6719,1249.5,1218.6719,1239.5,1222.6719,1243.5,1218.6719" style="stroke:#A80036;stroke-width:1.0;"/><line style="stroke:#A80036;stroke-width:1.0;" x1="695" x2="1245.5" y1="1218.6719" y2="1218.6719"/><text fill="#000000" font-family="sans-serif" font-size="13" font-weight="bold" lengthAdjust="spacing" textLength="14" x="702" y="1213.8154">26</text><text fill="#000000" font-family="sans-serif" font-size="13" lengthAdjust="spacing" textLength="269" x="720" y="1213.8154">withCompleteDescription(completeDescription)</text><polygon fill="#A80036" points="1239.5,1275.0234,1249.5,1279.0234,1239.5,1283.0234,1243.5,1279.0234" style="stroke:#A80036;stroke-width:1.0;"/><line style="stroke:#A80036;stroke-width:1.0;" x1="695" x2="1245.5" y1="1279.0234" y2="1279.0234"/><text fill="#000000" font-family="sans-serif" font-size="13" font-weight="bold" lengthAdjust="spacing" textLength="14" x="702" y="1274.167">27</text><text fill="#000000" font-family="sans-serif" font-size="13" lengthAdjust="spacing" textLength="140" x="720" y="1274.167">withFeedback(feedback)</text><polygon fill="#A80036" points="1239.5,1335.375,1249.5,1339.375,1239.5,1343.375,1243.5,1339.375" style="stroke:#A80036;stroke-width:1.0;"/><line style="stroke:#A80036;stroke-width:1.0;" x1="695" x2="1245.5" y1="1339.375" y2="1339.375"/><text fill="#000000" font-family="sans-serif" font-size="13" font-weight="bold" lengthAdjust="spacing" textLength="14" x="702" y="1334.5186">28</text><text fill="#000000" font-family="sans-serif" font-size="13" lengthAdjust="spacing" textLength="171" x="720" y="1334.5186">withKeywordList(keywordList)</text><polygon fill="#A80036" points="1239.5,1395.7266,1249.5,1399.7266,1239.5,1403.7266,1243.5,1399.7266" style="stroke:#A80036;stroke-width:1.0;"/><line style="stroke:#A80036;stroke-width:1.0;" x1="695" x2="1245.5" y1="1399.7266" y2="1399.7266"/><text fill="#000000" font-family="sans-serif" font-size="13" font-weight="bold" lengthAdjust="spacing" textLength="14" x="702" y="1394.8701">29</text><text fill="#000000" font-family="sans-serif" font-size="13" lengthAdjust="spacing" textLength="128" x="720" y="1394.8701">withFormList(formList)</text><polygon fill="#A80036" points="1239.5,1456.0781,1249.5,1460.0781,1239.5,1464.0781,1243.5,1460.0781" style="stroke:#A80036;stroke-width:1.0;"/><line style="stroke:#A80036;stroke-width:1.0;" x1="695" x2="1245.5" y1="1460.0781" y2="1460.0781"/><text fill="#000000" font-family="sans-serif" font-size="13" font-weight="bold" lengthAdjust="spacing" textLength="14" x="702" y="1455.2217">30</text><text fill="#000000" font-family="sans-serif" font-size="13" lengthAdjust="spacing" textLength="35" x="720" y="1455.2217">build()</text><polygon fill="#A80036" points="1604.5,1502.7813,1614.5,1506.7813,1604.5,1510.7813,1608.5,1506.7813" style="stroke:#A80036;stroke-width:1.0;"/><line style="stroke:#A80036;stroke-width:1.0;" x1="1261.5" x2="1610.5" y1="1506.7813" y2="1506.7813"/><text fill="#000000" font-family="sans-serif" font-size="13" font-weight="bold" lengthAdjust="spacing" textLength="14" x="1268.5" y="1493.749">31</text><text fill="#000000" font-family="sans-serif" font-size="13" lengthAdjust="spacing" textLength="162" x="1286.5" y="1485.5732">create(title, briefDescription,</text><text fill="#000000" font-family="sans-serif" font-size="13" lengthAdjust="spacing" textLength="313" x="1286.5" y="1501.9248">completeDescription, feedback, keywordList, formList)</text><rect fill="#FEFECE" filter="url(#foamsy7gori38)" height="49.2188" style="stroke:#A80036;stroke-width:1.5;" width="92" x="1616.5" y="1468.0781"/><text fill="#000000" font-family="sans-serif" font-size="14" lengthAdjust="spacing" textLength="78" x="1623.5" y="1489.6113">&lt;&lt;domain&gt;&gt;</text><text fill="#000000" font-family="sans-serif" font-size="14" lengthAdjust="spacing" textLength="47" x="1639" y="1507.2207">Service</text><polygon fill="#A80036" points="706,1550.6484,696,1554.6484,706,1558.6484,702,1554.6484" style="stroke:#A80036;stroke-width:1.0;"/><line style="stroke:#A80036;stroke-width:1.0;stroke-dasharray:2.0,2.0;" x1="700" x2="1255.5" y1="1554.6484" y2="1554.6484"/><text fill="#000000" font-family="sans-serif" font-size="13" font-weight="bold" lengthAdjust="spacing" textLength="14" x="712" y="1549.792">32</text><text fill="#000000" font-family="sans-serif" font-size="13" lengthAdjust="spacing" textLength="40" x="730" y="1549.792">service</text><polygon fill="#A80036" points="1766,1581,1776,1585,1766,1589,1770,1585" style="stroke:#A80036;stroke-width:1.0;"/><line style="stroke:#A80036;stroke-width:1.0;" x1="695" x2="1772" y1="1585" y2="1585"/><text fill="#000000" font-family="sans-serif" font-size="13" font-weight="bold" lengthAdjust="spacing" textLength="14" x="702" y="1580.1436">33</text><text fill="#000000" font-family="sans-serif" font-size="13" lengthAdjust="spacing" textLength="74" x="720" y="1580.1436">save(service)</text><polygon fill="#A80036" points="706,1611.3516,696,1615.3516,706,1619.3516,702,1615.3516" style="stroke:#A80036;stroke-width:1.0;"/><line style="stroke:#A80036;stroke-width:1.0;stroke-dasharray:2.0,2.0;" x1="700" x2="1782" y1="1615.3516" y2="1615.3516"/><text fill="#000000" font-family="sans-serif" font-size="13" font-weight="bold" lengthAdjust="spacing" textLength="14" x="712" y="1610.4951">34</text><text fill="#000000" font-family="sans-serif" font-size="13" lengthAdjust="spacing" textLength="40" x="730" y="1610.4951">service</text><polygon fill="#A80036" points="516,1641.7031,506,1645.7031,516,1649.7031,512,1645.7031" style="stroke:#A80036;stroke-width:1.0;"/><line style="stroke:#A80036;stroke-width:1.0;stroke-dasharray:2.0,2.0;" x1="510" x2="689" y1="1645.7031" y2="1645.7031"/><text fill="#000000" font-family="sans-serif" font-size="13" font-weight="bold" lengthAdjust="spacing" textLength="14" x="522" y="1640.8467">35</text><text fill="#000000" font-family="sans-serif" font-size="13" lengthAdjust="spacing" textLength="40" x="540" y="1640.8467">service</text><polygon fill="#A80036" points="110,1688.4063,100,1692.4063,110,1696.4063,106,1692.4063" style="stroke:#A80036;stroke-width:1.0;"/><line style="stroke:#A80036;stroke-width:1.0;" x1="104" x2="499" y1="1692.4063" y2="1692.4063"/><text fill="#000000" font-family="sans-serif" font-size="13" font-weight="bold" lengthAdjust="spacing" textLength="14" x="116" y="1679.374">36</text><text fill="#000000" font-family="sans-serif" font-size="13" lengthAdjust="spacing" textLength="208" x="134" y="1671.1982">registers the draft in the persistence</text><text fill="#000000" font-family="sans-serif" font-size="13" lengthAdjust="spacing" textLength="249" x="138" y="1687.5498">and informs of the success of the operation</text><!--MD5=[4e8f47a7bdd524ea79928709a317b824]
@startuml
autonumber
hide footbox

actor "Help Desk Services Manager" as HSM

participant "<<presentation>>\nSaveDraftUI" as UI
participant "<<application>>\nSaveDraftController" as CTRL
database "<<repository>>\nServiceDraftRepository" as SDR
database "<<repository>>\nCatalogueRepository" as CR
participant "<<domain>>\nServiceDraft" as SD
participant "<<builder>>\nServiceBuilder" as SBD
participant "<<domain>>\nService" as S
database "<<repository>>\nServiceRepository" as SR
participant "<<persistence>>\nPersistenceContext" as PC
participant "<<persistence>>\nAppSettings" as AS
participant "<<factory>>\nRepositoryFactory" as RF
participant "<<domain>>\nTitle" as T
participant "<<domain>>\nBriefDescription" as DB
participant "<<domain>>\nCompleteDescription" as DC
participant "<<domain>>\nKeyword" as KW
participant "<<domain>>\nFeedback" as FB
participant "<<domain>>\nFormName" as FM
participant "<<domain>>\nFormType" as FT
participant "<<domain>>\nAttributeName" as AN
participant "<<domain>>\nAttributeLabel" as AL
participant "<<domain>>\nAttributeDescription" as AD
participant "<<domain>>\nAttributeRegex" as AR
participant "<<domain>>\nAttributeScript" as ASC
participant "<<domain>>\nDataType" as TD

activate HSM

HSM -> UI : initiates the request to save in a service draft
activate UI

UI -> CTRL** : create
activate CTRL

ref over CTRL
  US-1-2002_SD_Repo
end ref

UI -> HSM : requests the draft's id
deactivate CTRL
deactivate UI

HSM -> UI : inserts said id
activate UI

UI -> CTRL : getServiceDraftById(id)
activate CTRL

CTRL -> SDR : getServiceDraftById(id)
activate SDR
SDR - -> CTRL : serviceDraft
deactivate SDR

CTRL - -> UI : serviceDraft
deactivate CTRL


UI -> CTRL : getCatalogues()
activate CTRL

CTRL -> CR : all()
activate CR
CR - -> CTRL : list
deactivate CR

CTRL - -> UI : list
deactivate CTRL

UI -> HSM : shows the catalogue list and request the user to choose one
deactivate UI

HSM -> UI : selects the catalogue
activate UI

UI -> HSM : validates, presents the current \ninformation in the draft and asks for confirmation
deactivate UI

HSM -> UI : confirms
activate UI

UI -> CTRL : saveService(serviceDraft)
activate CTRL

CTRL -> SD : title = getTitle()
activate SD
deactivate SD

CTRL -> SD : briefDescription = getBriefDescription()
activate SD
deactivate SD

CTRL -> SD : completeDescription = getCompleteDescription()
activate SD
deactivate SD

CTRL -> SD : feedback = getFeedback()
activate SD
deactivate SD

CTRL -> SD : keywordList = getKeywordList()
activate SD
deactivate SD

CTRL -> SD : formList = getFormList()
activate SD
deactivate SD

CTRL -> SBD : withTitle(title)
activate SBD
deactivate SBD

CTRL -> SBD : withBriefDescription(briefDescription)
activate SBD
deactivate SBD

CTRL -> SBD : withCompleteDescription(completeDescription)
activate SBD
deactivate SBD

CTRL -> SBD : withFeedback(feedback)
activate SBD
deactivate SBD

CTRL -> SBD : withKeywordList(keywordList)
activate SBD
deactivate SBD

CTRL -> SBD : withFormList(formList)
activate SBD
deactivate SBD

CTRL -> SBD : build()
activate SBD

SBD -> S** : create(title, briefDescription, \ncompleteDescription, feedback, keywordList, formList)

SBD - -> CTRL : service
deactivate SBD

CTRL -> SR : save(service)
activate SR
SR - -> CTRL : service
deactivate SR

CTRL - -> UI : service
deactivate CTRL

UI -> HSM : registers the draft in the persistence\n and informs of the success of the operation
deactivate UI
deactivate HSM

@enduml

PlantUML version 1.2021.5(Sun Apr 25 12:20:28 BST 2021)
(GPL source distribution)
Java Runtime: OpenJDK Runtime Environment
JVM: Dynamic Code Evolution 64-Bit Server VM
Default Encoding: Cp1252
Language: pt
Country: PT
--></g></svg>