<?xml version="1.0" encoding="UTF-8" standalone="no"?><svg xmlns="http://www.w3.org/2000/svg" xmlns:xlink="http://www.w3.org/1999/xlink" contentScriptType="application/ecmascript" contentStyleType="text/css" height="1777px" preserveAspectRatio="none" style="width:3921px;height:1777px;" version="1.1" viewBox="0 0 3921 1777" width="3921px" zoomAndPan="magnify"><defs><filter height="300%" id="flucryzk0c9i6" width="300%" x="-1" y="-1"><feGaussianBlur result="blurOut" stdDeviation="2.0"/><feColorMatrix in="blurOut" result="blurOut2" type="matrix" values="0 0 0 0 0 0 0 0 0 0 0 0 0 0 0 0 0 0 .4 0"/><feOffset dx="4.0" dy="4.0" in="blurOut2" result="blurOut3"/><feBlend in="SourceGraphic" in2="blurOut3" mode="normal"/></filter></defs><g><rect fill="#FFFFFF" filter="url(#flucryzk0c9i6)" height="1653.1484" style="stroke:#A80036;stroke-width:1.0;" width="10" x="94" y="99.6094"/><rect fill="#FFFFFF" filter="url(#flucryzk0c9i6)" height="142.2734" style="stroke:#A80036;stroke-width:1.0;" width="10" x="495" y="121.9609"/><rect fill="#FFFFFF" filter="url(#flucryzk0c9i6)" height="273.1641" style="stroke:#A80036;stroke-width:1.0;" width="10" x="495" y="294.5859"/><rect fill="#FFFFFF" filter="url(#flucryzk0c9i6)" height="46.7031" style="stroke:#A80036;stroke-width:1.0;" width="10" x="495" y="598.1016"/><rect fill="#FFFFFF" filter="url(#flucryzk0c9i6)" height="1077.6016" style="stroke:#A80036;stroke-width:1.0;" width="10" x="495" y="675.1563"/><rect fill="#FFFFFF" filter="url(#flucryzk0c9i6)" height="101.9219" style="stroke:#A80036;stroke-width:1.0;" width="10" x="674" y="162.3125"/><rect fill="#FFFFFF" filter="url(#flucryzk0c9i6)" height="91.0547" style="stroke:#A80036;stroke-width:1.0;" width="10" x="674" y="324.9375"/><rect fill="#FFFFFF" filter="url(#flucryzk0c9i6)" height="91.0547" style="stroke:#A80036;stroke-width:1.0;" width="10" x="674" y="446.3438"/><rect fill="#FFFFFF" filter="url(#flucryzk0c9i6)" height="1000.5469" style="stroke:#A80036;stroke-width:1.0;" width="10" x="674" y="705.5078"/><rect fill="#FFFFFF" filter="url(#flucryzk0c9i6)" height="30.3516" style="stroke:#A80036;stroke-width:1.0;" width="10" x="845" y="355.2891"/><rect fill="#FFFFFF" filter="url(#flucryzk0c9i6)" height="30.3516" style="stroke:#A80036;stroke-width:1.0;" width="10" x="1000.5" y="476.6953"/><rect fill="#FFFFFF" filter="url(#flucryzk0c9i6)" height="30" style="stroke:#A80036;stroke-width:1.0;" width="10" x="1128" y="735.8594"/><rect fill="#FFFFFF" filter="url(#flucryzk0c9i6)" height="30" style="stroke:#A80036;stroke-width:1.0;" width="10" x="1128" y="796.2109"/><rect fill="#FFFFFF" filter="url(#flucryzk0c9i6)" height="30" style="stroke:#A80036;stroke-width:1.0;" width="10" x="1128" y="856.5625"/><rect fill="#FFFFFF" filter="url(#flucryzk0c9i6)" height="30" style="stroke:#A80036;stroke-width:1.0;" width="10" x="1128" y="916.9141"/><rect fill="#FFFFFF" filter="url(#flucryzk0c9i6)" height="30" style="stroke:#A80036;stroke-width:1.0;" width="10" x="1128" y="977.2656"/><rect fill="#FFFFFF" filter="url(#flucryzk0c9i6)" height="30" style="stroke:#A80036;stroke-width:1.0;" width="10" x="1128" y="1037.6172"/><rect fill="#FFFFFF" filter="url(#flucryzk0c9i6)" height="30" style="stroke:#A80036;stroke-width:1.0;" width="10" x="1240.5" y="1097.9688"/><rect fill="#FFFFFF" filter="url(#flucryzk0c9i6)" height="30" style="stroke:#A80036;stroke-width:1.0;" width="10" x="1240.5" y="1158.3203"/><rect fill="#FFFFFF" filter="url(#flucryzk0c9i6)" height="30" style="stroke:#A80036;stroke-width:1.0;" width="10" x="1240.5" y="1218.6719"/><rect fill="#FFFFFF" filter="url(#flucryzk0c9i6)" height="30" style="stroke:#A80036;stroke-width:1.0;" width="10" x="1240.5" y="1279.0234"/><rect fill="#FFFFFF" filter="url(#flucryzk0c9i6)" height="30" style="stroke:#A80036;stroke-width:1.0;" width="10" x="1240.5" y="1339.375"/><rect fill="#FFFFFF" filter="url(#flucryzk0c9i6)" height="30" style="stroke:#A80036;stroke-width:1.0;" width="10" x="1240.5" y="1399.7266"/><rect fill="#FFFFFF" filter="url(#flucryzk0c9i6)" height="30" style="stroke:#A80036;stroke-width:1.0;" width="10" x="1240.5" y="1460.0781"/><rect fill="#FFFFFF" filter="url(#flucryzk0c9i6)" height="94.5703" style="stroke:#A80036;stroke-width:1.0;" width="10" x="1240.5" y="1520.4297"/><rect fill="#FFFFFF" filter="url(#flucryzk0c9i6)" height="30.3516" style="stroke:#A80036;stroke-width:1.0;" width="10" x="1767" y="1645.3516"/><line style="stroke:#A80036;stroke-width:1.0;stroke-dasharray:5.0,5.0;" x1="99" x2="99" y1="89.6094" y2="1770.7578"/><line style="stroke:#A80036;stroke-width:1.0;stroke-dasharray:5.0,5.0;" x1="499.5" x2="499.5" y1="89.6094" y2="1770.7578"/><line style="stroke:#A80036;stroke-width:1.0;stroke-dasharray:5.0,5.0;" x1="678.5" x2="678.5" y1="172.0703" y2="1770.7578"/><line style="stroke:#A80036;stroke-width:1.0;stroke-dasharray:5.0,5.0;" x1="850" x2="850" y1="89.6094" y2="1770.7578"/><line style="stroke:#A80036;stroke-width:1.0;stroke-dasharray:5.0,5.0;" x1="1005" x2="1005" y1="89.6094" y2="1770.7578"/><line style="stroke:#A80036;stroke-width:1.0;stroke-dasharray:5.0,5.0;" x1="1133" x2="1133" y1="89.6094" y2="1770.7578"/><line style="stroke:#A80036;stroke-width:1.0;stroke-dasharray:5.0,5.0;" x1="1245" x2="1245" y1="89.6094" y2="1770.7578"/><line style="stroke:#A80036;stroke-width:1.0;stroke-dasharray:5.0,5.0;" x1="1653.5" x2="1653.5" y1="1570.5391" y2="1770.7578"/><line style="stroke:#A80036;stroke-width:1.0;stroke-dasharray:5.0,5.0;" x1="1771.5" x2="1771.5" y1="89.6094" y2="1770.7578"/><line style="stroke:#A80036;stroke-width:1.0;stroke-dasharray:5.0,5.0;" x1="1912.5" x2="1912.5" y1="89.6094" y2="1770.7578"/><line style="stroke:#A80036;stroke-width:1.0;stroke-dasharray:5.0,5.0;" x1="2053.5" x2="2053.5" y1="89.6094" y2="1770.7578"/><line style="stroke:#A80036;stroke-width:1.0;stroke-dasharray:5.0,5.0;" x1="2192.5" x2="2192.5" y1="89.6094" y2="1770.7578"/><line style="stroke:#A80036;stroke-width:1.0;stroke-dasharray:5.0,5.0;" x1="2317.5" x2="2317.5" y1="89.6094" y2="1770.7578"/><line style="stroke:#A80036;stroke-width:1.0;stroke-dasharray:5.0,5.0;" x1="2434.5" x2="2434.5" y1="89.6094" y2="1770.7578"/><line style="stroke:#A80036;stroke-width:1.0;stroke-dasharray:5.0,5.0;" x1="2577.5" x2="2577.5" y1="89.6094" y2="1770.7578"/><line style="stroke:#A80036;stroke-width:1.0;stroke-dasharray:5.0,5.0;" x1="2710.5" x2="2710.5" y1="89.6094" y2="1770.7578"/><line style="stroke:#A80036;stroke-width:1.0;stroke-dasharray:5.0,5.0;" x1="2816.5" x2="2816.5" y1="89.6094" y2="1770.7578"/><line style="stroke:#A80036;stroke-width:1.0;stroke-dasharray:5.0,5.0;" x1="2922.5" x2="2922.5" y1="89.6094" y2="1770.7578"/><line style="stroke:#A80036;stroke-width:1.0;stroke-dasharray:5.0,5.0;" x1="3028.5" x2="3028.5" y1="89.6094" y2="1770.7578"/><line style="stroke:#A80036;stroke-width:1.0;stroke-dasharray:5.0,5.0;" x1="3134.5" x2="3134.5" y1="89.6094" y2="1770.7578"/><line style="stroke:#A80036;stroke-width:1.0;stroke-dasharray:5.0,5.0;" x1="3245.5" x2="3245.5" y1="89.6094" y2="1770.7578"/><line style="stroke:#A80036;stroke-width:1.0;stroke-dasharray:5.0,5.0;" x1="3362.5" x2="3362.5" y1="89.6094" y2="1770.7578"/><line style="stroke:#A80036;stroke-width:1.0;stroke-dasharray:5.0,5.0;" x1="3496.5" x2="3496.5" y1="89.6094" y2="1770.7578"/><line style="stroke:#A80036;stroke-width:1.0;stroke-dasharray:5.0,5.0;" x1="3632.5" x2="3632.5" y1="89.6094" y2="1770.7578"/><line style="stroke:#A80036;stroke-width:1.0;stroke-dasharray:5.0,5.0;" x1="3751.5" x2="3751.5" y1="89.6094" y2="1770.7578"/><line style="stroke:#A80036;stroke-width:1.0;stroke-dasharray:5.0,5.0;" x1="3863.5" x2="3863.5" y1="89.6094" y2="1770.7578"/><text fill="#000000" font-family="sans-serif" font-size="14" lengthAdjust="spacing" textLength="182" x="5" y="86.5332">Help Desk Services Manager</text><ellipse cx="99" cy="15" fill="#FEFECE" filter="url(#flucryzk0c9i6)" rx="8" ry="8" style="stroke:#A80036;stroke-width:2.0;"/><path d="M99,23 L99,50 M86,31 L112,31 M99,50 L86,65 M99,50 L112,65 " fill="none" filter="url(#flucryzk0c9i6)" style="stroke:#A80036;stroke-width:2.0;"/><rect fill="#FEFECE" filter="url(#flucryzk0c9i6)" height="49.2188" style="stroke:#A80036;stroke-width:1.5;" width="125" x="435.5" y="35.3906"/><text fill="#000000" font-family="sans-serif" font-size="14" lengthAdjust="spacing" textLength="111" x="442.5" y="56.9238">&lt;&lt;presentation&gt;&gt;</text><text fill="#000000" font-family="sans-serif" font-size="14" lengthAdjust="spacing" textLength="75" x="460.5" y="74.5332">SaveDraftUI</text><text fill="#000000" font-family="sans-serif" font-size="14" lengthAdjust="spacing" textLength="95" x="799.5" y="68.9238">&lt;&lt;repository&gt;&gt;</text><text fill="#000000" font-family="sans-serif" font-size="14" lengthAdjust="spacing" textLength="146" x="774" y="86.5332">ServiceDraftRepository</text><path d="M832,18.3906 C832,8.3906 850,8.3906 850,8.3906 C850,8.3906 868,8.3906 868,18.3906 L868,44.3906 C868,54.3906 850,54.3906 850,54.3906 C850,54.3906 832,54.3906 832,44.3906 L832,18.3906 " fill="#FEFECE" filter="url(#flucryzk0c9i6)" style="stroke:#000000;stroke-width:1.5;"/><path d="M832,18.3906 C832,28.3906 850,28.3906 850,28.3906 C850,28.3906 868,28.3906 868,18.3906 " fill="none" style="stroke:#000000;stroke-width:1.5;"/><text fill="#000000" font-family="sans-serif" font-size="14" lengthAdjust="spacing" textLength="95" x="955" y="68.9238">&lt;&lt;repository&gt;&gt;</text><text fill="#000000" font-family="sans-serif" font-size="14" lengthAdjust="spacing" textLength="133" x="936" y="86.5332">CatalogueRepository</text><path d="M987.5,18.3906 C987.5,8.3906 1005.5,8.3906 1005.5,8.3906 C1005.5,8.3906 1023.5,8.3906 1023.5,18.3906 L1023.5,44.3906 C1023.5,54.3906 1005.5,54.3906 1005.5,54.3906 C1005.5,54.3906 987.5,54.3906 987.5,44.3906 L987.5,18.3906 " fill="#FEFECE" filter="url(#flucryzk0c9i6)" style="stroke:#000000;stroke-width:1.5;"/><path d="M987.5,18.3906 C987.5,28.3906 1005.5,28.3906 1005.5,28.3906 C1005.5,28.3906 1023.5,28.3906 1023.5,18.3906 " fill="none" style="stroke:#000000;stroke-width:1.5;"/><rect fill="#FEFECE" filter="url(#flucryzk0c9i6)" height="49.2188" style="stroke:#A80036;stroke-width:1.5;" width="92" x="1085" y="35.3906"/><text fill="#000000" font-family="sans-serif" font-size="14" lengthAdjust="spacing" textLength="78" x="1092" y="56.9238">&lt;&lt;domain&gt;&gt;</text><text fill="#000000" font-family="sans-serif" font-size="14" lengthAdjust="spacing" textLength="78" x="1092" y="74.5332">ServiceDraft</text><rect fill="#FEFECE" filter="url(#flucryzk0c9i6)" height="49.2188" style="stroke:#A80036;stroke-width:1.5;" width="105" x="1191" y="35.3906"/><text fill="#000000" font-family="sans-serif" font-size="14" lengthAdjust="spacing" textLength="75" x="1206" y="56.9238">&lt;&lt;builder&gt;&gt;</text><text fill="#000000" font-family="sans-serif" font-size="14" lengthAdjust="spacing" textLength="91" x="1198" y="74.5332">ServiceBuilder</text><text fill="#000000" font-family="sans-serif" font-size="14" lengthAdjust="spacing" textLength="95" x="1721.5" y="68.9238">&lt;&lt;repository&gt;&gt;</text><text fill="#000000" font-family="sans-serif" font-size="14" lengthAdjust="spacing" textLength="115" x="1711.5" y="86.5332">ServiceRepository</text><path d="M1754,18.3906 C1754,8.3906 1772,8.3906 1772,8.3906 C1772,8.3906 1790,8.3906 1790,18.3906 L1790,44.3906 C1790,54.3906 1772,54.3906 1772,54.3906 C1772,54.3906 1754,54.3906 1754,44.3906 L1754,18.3906 " fill="#FEFECE" filter="url(#flucryzk0c9i6)" style="stroke:#000000;stroke-width:1.5;"/><path d="M1754,18.3906 C1754,28.3906 1772,28.3906 1772,28.3906 C1772,28.3906 1790,28.3906 1790,18.3906 " fill="none" style="stroke:#000000;stroke-width:1.5;"/><rect fill="#FEFECE" filter="url(#flucryzk0c9i6)" height="49.2188" style="stroke:#A80036;stroke-width:1.5;" width="136" x="1842.5" y="35.3906"/><text fill="#000000" font-family="sans-serif" font-size="14" lengthAdjust="spacing" textLength="105" x="1858" y="56.9238">&lt;&lt;persistence&gt;&gt;</text><text fill="#000000" font-family="sans-serif" font-size="14" lengthAdjust="spacing" textLength="122" x="1849.5" y="74.5332">PersistenceContext</text><rect fill="#FEFECE" filter="url(#flucryzk0c9i6)" height="49.2188" style="stroke:#A80036;stroke-width:1.5;" width="119" x="1992.5" y="35.3906"/><text fill="#000000" font-family="sans-serif" font-size="14" lengthAdjust="spacing" textLength="105" x="1999.5" y="56.9238">&lt;&lt;persistence&gt;&gt;</text><text fill="#000000" font-family="sans-serif" font-size="14" lengthAdjust="spacing" textLength="76" x="2014" y="74.5332">AppSettings</text><rect fill="#FEFECE" filter="url(#flucryzk0c9i6)" height="49.2188" style="stroke:#A80036;stroke-width:1.5;" width="130" x="2125.5" y="35.3906"/><text fill="#000000" font-family="sans-serif" font-size="14" lengthAdjust="spacing" textLength="75" x="2153" y="56.9238">&lt;&lt;factory&gt;&gt;</text><text fill="#000000" font-family="sans-serif" font-size="14" lengthAdjust="spacing" textLength="116" x="2132.5" y="74.5332">RepositoryFactory</text><rect fill="#FEFECE" filter="url(#flucryzk0c9i6)" height="49.2188" style="stroke:#A80036;stroke-width:1.5;" width="92" x="2269.5" y="35.3906"/><text fill="#000000" font-family="sans-serif" font-size="14" lengthAdjust="spacing" textLength="78" x="2276.5" y="56.9238">&lt;&lt;domain&gt;&gt;</text><text fill="#000000" font-family="sans-serif" font-size="14" lengthAdjust="spacing" textLength="27" x="2302" y="74.5332">Title</text><rect fill="#FEFECE" filter="url(#flucryzk0c9i6)" height="49.2188" style="stroke:#A80036;stroke-width:1.5;" width="114" x="2375.5" y="35.3906"/><text fill="#000000" font-family="sans-serif" font-size="14" lengthAdjust="spacing" textLength="78" x="2393.5" y="56.9238">&lt;&lt;domain&gt;&gt;</text><text fill="#000000" font-family="sans-serif" font-size="14" lengthAdjust="spacing" textLength="100" x="2382.5" y="74.5332">BriefDescription</text><rect fill="#FEFECE" filter="url(#flucryzk0c9i6)" height="49.2188" style="stroke:#A80036;stroke-width:1.5;" width="145" x="2503.5" y="35.3906"/><text fill="#000000" font-family="sans-serif" font-size="14" lengthAdjust="spacing" textLength="78" x="2537" y="56.9238">&lt;&lt;domain&gt;&gt;</text><text fill="#000000" font-family="sans-serif" font-size="14" lengthAdjust="spacing" textLength="131" x="2510.5" y="74.5332">CompleteDescription</text><rect fill="#FEFECE" filter="url(#flucryzk0c9i6)" height="49.2188" style="stroke:#A80036;stroke-width:1.5;" width="92" x="2662.5" y="35.3906"/><text fill="#000000" font-family="sans-serif" font-size="14" lengthAdjust="spacing" textLength="78" x="2669.5" y="56.9238">&lt;&lt;domain&gt;&gt;</text><text fill="#000000" font-family="sans-serif" font-size="14" lengthAdjust="spacing" textLength="54" x="2681.5" y="74.5332">Keyword</text><rect fill="#FEFECE" filter="url(#flucryzk0c9i6)" height="49.2188" style="stroke:#A80036;stroke-width:1.5;" width="92" x="2768.5" y="35.3906"/><text fill="#000000" font-family="sans-serif" font-size="14" lengthAdjust="spacing" textLength="78" x="2775.5" y="56.9238">&lt;&lt;domain&gt;&gt;</text><text fill="#000000" font-family="sans-serif" font-size="14" lengthAdjust="spacing" textLength="63" x="2783" y="74.5332">Feedback</text><rect fill="#FEFECE" filter="url(#flucryzk0c9i6)" height="49.2188" style="stroke:#A80036;stroke-width:1.5;" width="92" x="2874.5" y="35.3906"/><text fill="#000000" font-family="sans-serif" font-size="14" lengthAdjust="spacing" textLength="78" x="2881.5" y="56.9238">&lt;&lt;domain&gt;&gt;</text><text fill="#000000" font-family="sans-serif" font-size="14" lengthAdjust="spacing" textLength="65" x="2888" y="74.5332">Catalogue</text><rect fill="#FEFECE" filter="url(#flucryzk0c9i6)" height="49.2188" style="stroke:#A80036;stroke-width:1.5;" width="92" x="2980.5" y="35.3906"/><text fill="#000000" font-family="sans-serif" font-size="14" lengthAdjust="spacing" textLength="78" x="2987.5" y="56.9238">&lt;&lt;domain&gt;&gt;</text><text fill="#000000" font-family="sans-serif" font-size="14" lengthAdjust="spacing" textLength="69" x="2992" y="74.5332">FormName</text><rect fill="#FEFECE" filter="url(#flucryzk0c9i6)" height="49.2188" style="stroke:#A80036;stroke-width:1.5;" width="92" x="3086.5" y="35.3906"/><text fill="#000000" font-family="sans-serif" font-size="14" lengthAdjust="spacing" textLength="78" x="3093.5" y="56.9238">&lt;&lt;domain&gt;&gt;</text><text fill="#000000" font-family="sans-serif" font-size="14" lengthAdjust="spacing" textLength="65" x="3100" y="74.5332">FormType</text><rect fill="#FEFECE" filter="url(#flucryzk0c9i6)" height="49.2188" style="stroke:#A80036;stroke-width:1.5;" width="103" x="3192.5" y="35.3906"/><text fill="#000000" font-family="sans-serif" font-size="14" lengthAdjust="spacing" textLength="78" x="3205" y="56.9238">&lt;&lt;domain&gt;&gt;</text><text fill="#000000" font-family="sans-serif" font-size="14" lengthAdjust="spacing" textLength="89" x="3199.5" y="74.5332">AttributeName</text><rect fill="#FEFECE" filter="url(#flucryzk0c9i6)" height="49.2188" style="stroke:#A80036;stroke-width:1.5;" width="102" x="3309.5" y="35.3906"/><text fill="#000000" font-family="sans-serif" font-size="14" lengthAdjust="spacing" textLength="78" x="3321.5" y="56.9238">&lt;&lt;domain&gt;&gt;</text><text fill="#000000" font-family="sans-serif" font-size="14" lengthAdjust="spacing" textLength="88" x="3316.5" y="74.5332">AttributeLabel</text><rect fill="#FEFECE" filter="url(#flucryzk0c9i6)" height="49.2188" style="stroke:#A80036;stroke-width:1.5;" width="138" x="3425.5" y="35.3906"/><text fill="#000000" font-family="sans-serif" font-size="14" lengthAdjust="spacing" textLength="78" x="3455.5" y="56.9238">&lt;&lt;domain&gt;&gt;</text><text fill="#000000" font-family="sans-serif" font-size="14" lengthAdjust="spacing" textLength="124" x="3432.5" y="74.5332">AttributeDescription</text><rect fill="#FEFECE" filter="url(#flucryzk0c9i6)" height="49.2188" style="stroke:#A80036;stroke-width:1.5;" width="107" x="3577.5" y="35.3906"/><text fill="#000000" font-family="sans-serif" font-size="14" lengthAdjust="spacing" textLength="78" x="3592" y="56.9238">&lt;&lt;domain&gt;&gt;</text><text fill="#000000" font-family="sans-serif" font-size="14" lengthAdjust="spacing" textLength="93" x="3584.5" y="74.5332">AttributeRegex</text><rect fill="#FEFECE" filter="url(#flucryzk0c9i6)" height="49.2188" style="stroke:#A80036;stroke-width:1.5;" width="103" x="3698.5" y="35.3906"/><text fill="#000000" font-family="sans-serif" font-size="14" lengthAdjust="spacing" textLength="78" x="3711" y="56.9238">&lt;&lt;domain&gt;&gt;</text><text fill="#000000" font-family="sans-serif" font-size="14" lengthAdjust="spacing" textLength="89" x="3705.5" y="74.5332">AttributeScript</text><rect fill="#FEFECE" filter="url(#flucryzk0c9i6)" height="49.2188" style="stroke:#A80036;stroke-width:1.5;" width="92" x="3815.5" y="35.3906"/><text fill="#000000" font-family="sans-serif" font-size="14" lengthAdjust="spacing" textLength="78" x="3822.5" y="56.9238">&lt;&lt;domain&gt;&gt;</text><text fill="#000000" font-family="sans-serif" font-size="14" lengthAdjust="spacing" textLength="62" x="3830.5" y="74.5332">DataType</text><rect fill="#FFFFFF" filter="url(#flucryzk0c9i6)" height="1653.1484" style="stroke:#A80036;stroke-width:1.0;" width="10" x="94" y="99.6094"/><rect fill="#FFFFFF" filter="url(#flucryzk0c9i6)" height="142.2734" style="stroke:#A80036;stroke-width:1.0;" width="10" x="495" y="121.9609"/><rect fill="#FFFFFF" filter="url(#flucryzk0c9i6)" height="273.1641" style="stroke:#A80036;stroke-width:1.0;" width="10" x="495" y="294.5859"/><rect fill="#FFFFFF" filter="url(#flucryzk0c9i6)" height="46.7031" style="stroke:#A80036;stroke-width:1.0;" width="10" x="495" y="598.1016"/><rect fill="#FFFFFF" filter="url(#flucryzk0c9i6)" height="1077.6016" style="stroke:#A80036;stroke-width:1.0;" width="10" x="495" y="675.1563"/><rect fill="#FFFFFF" filter="url(#flucryzk0c9i6)" height="101.9219" style="stroke:#A80036;stroke-width:1.0;" width="10" x="674" y="162.3125"/><rect fill="#FFFFFF" filter="url(#flucryzk0c9i6)" height="91.0547" style="stroke:#A80036;stroke-width:1.0;" width="10" x="674" y="324.9375"/><rect fill="#FFFFFF" filter="url(#flucryzk0c9i6)" height="91.0547" style="stroke:#A80036;stroke-width:1.0;" width="10" x="674" y="446.3438"/><rect fill="#FFFFFF" filter="url(#flucryzk0c9i6)" height="1000.5469" style="stroke:#A80036;stroke-width:1.0;" width="10" x="674" y="705.5078"/><rect fill="#FFFFFF" filter="url(#flucryzk0c9i6)" height="30.3516" style="stroke:#A80036;stroke-width:1.0;" width="10" x="845" y="355.2891"/><rect fill="#FFFFFF" filter="url(#flucryzk0c9i6)" height="30.3516" style="stroke:#A80036;stroke-width:1.0;" width="10" x="1000.5" y="476.6953"/><rect fill="#FFFFFF" filter="url(#flucryzk0c9i6)" height="30" style="stroke:#A80036;stroke-width:1.0;" width="10" x="1128" y="735.8594"/><rect fill="#FFFFFF" filter="url(#flucryzk0c9i6)" height="30" style="stroke:#A80036;stroke-width:1.0;" width="10" x="1128" y="796.2109"/><rect fill="#FFFFFF" filter="url(#flucryzk0c9i6)" height="30" style="stroke:#A80036;stroke-width:1.0;" width="10" x="1128" y="856.5625"/><rect fill="#FFFFFF" filter="url(#flucryzk0c9i6)" height="30" style="stroke:#A80036;stroke-width:1.0;" width="10" x="1128" y="916.9141"/><rect fill="#FFFFFF" filter="url(#flucryzk0c9i6)" height="30" style="stroke:#A80036;stroke-width:1.0;" width="10" x="1128" y="977.2656"/><rect fill="#FFFFFF" filter="url(#flucryzk0c9i6)" height="30" style="stroke:#A80036;stroke-width:1.0;" width="10" x="1128" y="1037.6172"/><rect fill="#FFFFFF" filter="url(#flucryzk0c9i6)" height="30" style="stroke:#A80036;stroke-width:1.0;" width="10" x="1240.5" y="1097.9688"/><rect fill="#FFFFFF" filter="url(#flucryzk0c9i6)" height="30" style="stroke:#A80036;stroke-width:1.0;" width="10" x="1240.5" y="1158.3203"/><rect fill="#FFFFFF" filter="url(#flucryzk0c9i6)" height="30" style="stroke:#A80036;stroke-width:1.0;" width="10" x="1240.5" y="1218.6719"/><rect fill="#FFFFFF" filter="url(#flucryzk0c9i6)" height="30" style="stroke:#A80036;stroke-width:1.0;" width="10" x="1240.5" y="1279.0234"/><rect fill="#FFFFFF" filter="url(#flucryzk0c9i6)" height="30" style="stroke:#A80036;stroke-width:1.0;" width="10" x="1240.5" y="1339.375"/><rect fill="#FFFFFF" filter="url(#flucryzk0c9i6)" height="30" style="stroke:#A80036;stroke-width:1.0;" width="10" x="1240.5" y="1399.7266"/><rect fill="#FFFFFF" filter="url(#flucryzk0c9i6)" height="30" style="stroke:#A80036;stroke-width:1.0;" width="10" x="1240.5" y="1460.0781"/><rect fill="#FFFFFF" filter="url(#flucryzk0c9i6)" height="94.5703" style="stroke:#A80036;stroke-width:1.0;" width="10" x="1240.5" y="1520.4297"/><rect fill="#FFFFFF" filter="url(#flucryzk0c9i6)" height="30.3516" style="stroke:#A80036;stroke-width:1.0;" width="10" x="1767" y="1645.3516"/><polygon fill="#A80036" points="483,117.9609,493,121.9609,483,125.9609,487,121.9609" style="stroke:#A80036;stroke-width:1.0;"/><line style="stroke:#A80036;stroke-width:1.0;" x1="104" x2="489" y1="121.9609" y2="121.9609"/><text fill="#000000" font-family="sans-serif" font-size="13" font-weight="bold" lengthAdjust="spacing" textLength="7" x="111" y="117.1045">1</text><text fill="#000000" font-family="sans-serif" font-size="13" lengthAdjust="spacing" textLength="257" x="122" y="117.1045">initiates the request to save in a service draft</text><polygon fill="#A80036" points="595.5,148.3125,605.5,152.3125,595.5,156.3125,599.5,152.3125" style="stroke:#A80036;stroke-width:1.0;"/><line style="stroke:#A80036;stroke-width:1.0;" x1="505" x2="601.5" y1="152.3125" y2="152.3125"/><text fill="#000000" font-family="sans-serif" font-size="13" font-weight="bold" lengthAdjust="spacing" textLength="7" x="512" y="147.4561">2</text><text fill="#000000" font-family="sans-serif" font-size="13" lengthAdjust="spacing" textLength="36" x="523" y="147.4561">create</text><rect fill="#FEFECE" filter="url(#flucryzk0c9i6)" height="49.2188" style="stroke:#A80036;stroke-width:1.5;" width="139" x="607.5" y="129.9609"/><text fill="#000000" font-family="sans-serif" font-size="14" lengthAdjust="spacing" textLength="100" x="627" y="151.4941">&lt;&lt;application&gt;&gt;</text><text fill="#000000" font-family="sans-serif" font-size="14" lengthAdjust="spacing" textLength="125" x="614.5" y="169.1035">SaveDraftController</text><rect fill="#FFFFFF" filter="url(#flucryzk0c9i6)" height="42.7031" style="stroke:#000000;stroke-width:2.0;" width="145" x="604.5" y="194.1797"/><polygon fill="#EEEEEE" points="604.5,194.1797,666.5,194.1797,666.5,202.1797,656.5,212.1797,604.5,212.1797,604.5,194.1797" style="stroke:#000000;stroke-width:2.0;"/><text fill="#000000" font-family="sans-serif" font-size="13" font-weight="bold" lengthAdjust="spacing" textLength="17" x="617.5" y="209.6748">ref</text><text fill="#000000" font-family="sans-serif" font-size="13" lengthAdjust="spacing" textLength="123" x="617.5" y="229.6748">US-1-2002_SD_Repo</text><polygon fill="#A80036" points="115,260.2344,105,264.2344,115,268.2344,111,264.2344" style="stroke:#A80036;stroke-width:1.0;"/><line style="stroke:#A80036;stroke-width:1.0;" x1="109" x2="499" y1="264.2344" y2="264.2344"/><text fill="#000000" font-family="sans-serif" font-size="13" font-weight="bold" lengthAdjust="spacing" textLength="7" x="121" y="259.3779">3</text><text fill="#000000" font-family="sans-serif" font-size="13" lengthAdjust="spacing" textLength="124" x="132" y="259.3779">requests the draft's id</text><polygon fill="#A80036" points="483,290.5859,493,294.5859,483,298.5859,487,294.5859" style="stroke:#A80036;stroke-width:1.0;"/><line style="stroke:#A80036;stroke-width:1.0;" x1="104" x2="489" y1="294.5859" y2="294.5859"/><text fill="#000000" font-family="sans-serif" font-size="13" font-weight="bold" lengthAdjust="spacing" textLength="7" x="111" y="289.7295">4</text><text fill="#000000" font-family="sans-serif" font-size="13" lengthAdjust="spacing" textLength="81" x="122" y="289.7295">inserts said id</text><polygon fill="#A80036" points="662,320.9375,672,324.9375,662,328.9375,666,324.9375" style="stroke:#A80036;stroke-width:1.0;"/><line style="stroke:#A80036;stroke-width:1.0;" x1="505" x2="668" y1="324.9375" y2="324.9375"/><text fill="#000000" font-family="sans-serif" font-size="13" font-weight="bold" lengthAdjust="spacing" textLength="7" x="512" y="320.0811">5</text><text fill="#000000" font-family="sans-serif" font-size="13" lengthAdjust="spacing" textLength="131" x="523" y="320.0811">getServiceDraftById(id)</text><polygon fill="#A80036" points="833,351.2891,843,355.2891,833,359.2891,837,355.2891" style="stroke:#A80036;stroke-width:1.0;"/><line style="stroke:#A80036;stroke-width:1.0;" x1="684" x2="839" y1="355.2891" y2="355.2891"/><text fill="#000000" font-family="sans-serif" font-size="13" font-weight="bold" lengthAdjust="spacing" textLength="7" x="691" y="350.4326">6</text><text fill="#000000" font-family="sans-serif" font-size="13" lengthAdjust="spacing" textLength="131" x="702" y="350.4326">getServiceDraftById(id)</text><polygon fill="#A80036" points="695,381.6406,685,385.6406,695,389.6406,691,385.6406" style="stroke:#A80036;stroke-width:1.0;"/><line style="stroke:#A80036;stroke-width:1.0;stroke-dasharray:2.0,2.0;" x1="689" x2="849" y1="385.6406" y2="385.6406"/><text fill="#000000" font-family="sans-serif" font-size="13" font-weight="bold" lengthAdjust="spacing" textLength="7" x="701" y="380.7842">7</text><text fill="#000000" font-family="sans-serif" font-size="13" lengthAdjust="spacing" textLength="67" x="712" y="380.7842">serviceDraft</text><polygon fill="#A80036" points="516,411.9922,506,415.9922,516,419.9922,512,415.9922" style="stroke:#A80036;stroke-width:1.0;"/><line style="stroke:#A80036;stroke-width:1.0;stroke-dasharray:2.0,2.0;" x1="510" x2="678" y1="415.9922" y2="415.9922"/><text fill="#000000" font-family="sans-serif" font-size="13" font-weight="bold" lengthAdjust="spacing" textLength="7" x="522" y="411.1357">8</text><text fill="#000000" font-family="sans-serif" font-size="13" lengthAdjust="spacing" textLength="67" x="533" y="411.1357">serviceDraft</text><polygon fill="#A80036" points="662,442.3438,672,446.3438,662,450.3438,666,446.3438" style="stroke:#A80036;stroke-width:1.0;"/><line style="stroke:#A80036;stroke-width:1.0;" x1="505" x2="668" y1="446.3438" y2="446.3438"/><text fill="#000000" font-family="sans-serif" font-size="13" font-weight="bold" lengthAdjust="spacing" textLength="7" x="512" y="441.4873">9</text><text fill="#000000" font-family="sans-serif" font-size="13" lengthAdjust="spacing" textLength="91" x="523" y="441.4873">getCatalogues()</text><polygon fill="#A80036" points="988.5,472.6953,998.5,476.6953,988.5,480.6953,992.5,476.6953" style="stroke:#A80036;stroke-width:1.0;"/><line style="stroke:#A80036;stroke-width:1.0;" x1="684" x2="994.5" y1="476.6953" y2="476.6953"/><text fill="#000000" font-family="sans-serif" font-size="13" font-weight="bold" lengthAdjust="spacing" textLength="14" x="691" y="471.8389">10</text><text fill="#000000" font-family="sans-serif" font-size="13" lengthAdjust="spacing" textLength="21" x="709" y="471.8389">all()</text><polygon fill="#A80036" points="695,503.0469,685,507.0469,695,511.0469,691,507.0469" style="stroke:#A80036;stroke-width:1.0;"/><line style="stroke:#A80036;stroke-width:1.0;stroke-dasharray:2.0,2.0;" x1="689" x2="1004.5" y1="507.0469" y2="507.0469"/><text fill="#000000" font-family="sans-serif" font-size="13" font-weight="bold" lengthAdjust="spacing" textLength="14" x="701" y="502.1904">11</text><text fill="#000000" font-family="sans-serif" font-size="13" lengthAdjust="spacing" textLength="17" x="719" y="502.1904">list</text><polygon fill="#A80036" points="516,533.3984,506,537.3984,516,541.3984,512,537.3984" style="stroke:#A80036;stroke-width:1.0;"/><line style="stroke:#A80036;stroke-width:1.0;stroke-dasharray:2.0,2.0;" x1="510" x2="678" y1="537.3984" y2="537.3984"/><text fill="#000000" font-family="sans-serif" font-size="13" font-weight="bold" lengthAdjust="spacing" textLength="14" x="522" y="532.542">12</text><text fill="#000000" font-family="sans-serif" font-size="13" lengthAdjust="spacing" textLength="17" x="540" y="532.542">list</text><polygon fill="#A80036" points="115,563.75,105,567.75,115,571.75,111,567.75" style="stroke:#A80036;stroke-width:1.0;"/><line style="stroke:#A80036;stroke-width:1.0;" x1="109" x2="499" y1="567.75" y2="567.75"/><text fill="#000000" font-family="sans-serif" font-size="13" font-weight="bold" lengthAdjust="spacing" textLength="14" x="121" y="562.8936">13</text><text fill="#000000" font-family="sans-serif" font-size="13" lengthAdjust="spacing" textLength="349" x="139" y="562.8936">shows the catalogue list and request the user to choose one</text><polygon fill="#A80036" points="483,594.1016,493,598.1016,483,602.1016,487,598.1016" style="stroke:#A80036;stroke-width:1.0;"/><line style="stroke:#A80036;stroke-width:1.0;" x1="104" x2="489" y1="598.1016" y2="598.1016"/><text fill="#000000" font-family="sans-serif" font-size="13" font-weight="bold" lengthAdjust="spacing" textLength="14" x="111" y="593.2451">14</text><text fill="#000000" font-family="sans-serif" font-size="13" lengthAdjust="spacing" textLength="124" x="129" y="593.2451">selects the catalogue</text><polygon fill="#A80036" points="115,640.8047,105,644.8047,115,648.8047,111,644.8047" style="stroke:#A80036;stroke-width:1.0;"/><line style="stroke:#A80036;stroke-width:1.0;" x1="109" x2="499" y1="644.8047" y2="644.8047"/><text fill="#000000" font-family="sans-serif" font-size="13" font-weight="bold" lengthAdjust="spacing" textLength="14" x="121" y="631.7725">15</text><text fill="#000000" font-family="sans-serif" font-size="13" lengthAdjust="spacing" textLength="174" x="139" y="623.5967">validates, presents the current</text><text fill="#000000" font-family="sans-serif" font-size="13" lengthAdjust="spacing" textLength="277" x="139" y="639.9482">information in the draft and asks for confirmation</text><polygon fill="#A80036" points="483,671.1563,493,675.1563,483,679.1563,487,675.1563" style="stroke:#A80036;stroke-width:1.0;"/><line style="stroke:#A80036;stroke-width:1.0;" x1="104" x2="489" y1="675.1563" y2="675.1563"/><text fill="#000000" font-family="sans-serif" font-size="13" font-weight="bold" lengthAdjust="spacing" textLength="14" x="111" y="670.2998">16</text><text fill="#000000" font-family="sans-serif" font-size="13" lengthAdjust="spacing" textLength="49" x="129" y="670.2998">confirms</text><polygon fill="#A80036" points="662,701.5078,672,705.5078,662,709.5078,666,705.5078" style="stroke:#A80036;stroke-width:1.0;"/><line style="stroke:#A80036;stroke-width:1.0;" x1="505" x2="668" y1="705.5078" y2="705.5078"/><text fill="#000000" font-family="sans-serif" font-size="13" font-weight="bold" lengthAdjust="spacing" textLength="14" x="512" y="700.6514">17</text><text fill="#000000" font-family="sans-serif" font-size="13" lengthAdjust="spacing" textLength="132" x="530" y="700.6514">saveService(catalogue)</text><polygon fill="#A80036" points="1116,731.8594,1126,735.8594,1116,739.8594,1120,735.8594" style="stroke:#A80036;stroke-width:1.0;"/><line style="stroke:#A80036;stroke-width:1.0;" x1="684" x2="1122" y1="735.8594" y2="735.8594"/><text fill="#000000" font-family="sans-serif" font-size="13" font-weight="bold" lengthAdjust="spacing" textLength="14" x="691" y="731.0029">18</text><text fill="#000000" font-family="sans-serif" font-size="13" lengthAdjust="spacing" textLength="87" x="709" y="731.0029">title = getTitle()</text><polygon fill="#A80036" points="1116,792.2109,1126,796.2109,1116,800.2109,1120,796.2109" style="stroke:#A80036;stroke-width:1.0;"/><line style="stroke:#A80036;stroke-width:1.0;" x1="684" x2="1122" y1="796.2109" y2="796.2109"/><text fill="#000000" font-family="sans-serif" font-size="13" font-weight="bold" lengthAdjust="spacing" textLength="14" x="691" y="791.3545">19</text><text fill="#000000" font-family="sans-serif" font-size="13" lengthAdjust="spacing" textLength="222" x="709" y="791.3545">briefDescription = getBriefDescription()</text><polygon fill="#A80036" points="1116,852.5625,1126,856.5625,1116,860.5625,1120,856.5625" style="stroke:#A80036;stroke-width:1.0;"/><line style="stroke:#A80036;stroke-width:1.0;" x1="684" x2="1122" y1="856.5625" y2="856.5625"/><text fill="#000000" font-family="sans-serif" font-size="13" font-weight="bold" lengthAdjust="spacing" textLength="14" x="691" y="851.7061">20</text><text fill="#000000" font-family="sans-serif" font-size="13" lengthAdjust="spacing" textLength="280" x="709" y="851.7061">completeDescription = getCompleteDescription()</text><polygon fill="#A80036" points="1116,912.9141,1126,916.9141,1116,920.9141,1120,916.9141" style="stroke:#A80036;stroke-width:1.0;"/><line style="stroke:#A80036;stroke-width:1.0;" x1="684" x2="1122" y1="916.9141" y2="916.9141"/><text fill="#000000" font-family="sans-serif" font-size="13" font-weight="bold" lengthAdjust="spacing" textLength="14" x="691" y="912.0576">21</text><text fill="#000000" font-family="sans-serif" font-size="13" lengthAdjust="spacing" textLength="151" x="709" y="912.0576">feedback = getFeedback()</text><polygon fill="#A80036" points="1116,973.2656,1126,977.2656,1116,981.2656,1120,977.2656" style="stroke:#A80036;stroke-width:1.0;"/><line style="stroke:#A80036;stroke-width:1.0;" x1="684" x2="1122" y1="977.2656" y2="977.2656"/><text fill="#000000" font-family="sans-serif" font-size="13" font-weight="bold" lengthAdjust="spacing" textLength="14" x="691" y="972.4092">22</text><text fill="#000000" font-family="sans-serif" font-size="13" lengthAdjust="spacing" textLength="182" x="709" y="972.4092">keywordList = getKeywordList()</text><polygon fill="#A80036" points="1116,1033.6172,1126,1037.6172,1116,1041.6172,1120,1037.6172" style="stroke:#A80036;stroke-width:1.0;"/><line style="stroke:#A80036;stroke-width:1.0;" x1="684" x2="1122" y1="1037.6172" y2="1037.6172"/><text fill="#000000" font-family="sans-serif" font-size="13" font-weight="bold" lengthAdjust="spacing" textLength="14" x="691" y="1032.7607">23</text><text fill="#000000" font-family="sans-serif" font-size="13" lengthAdjust="spacing" textLength="139" x="709" y="1032.7607">formList = getFormList()</text><polygon fill="#A80036" points="1228.5,1093.9688,1238.5,1097.9688,1228.5,1101.9688,1232.5,1097.9688" style="stroke:#A80036;stroke-width:1.0;"/><line style="stroke:#A80036;stroke-width:1.0;" x1="684" x2="1234.5" y1="1097.9688" y2="1097.9688"/><text fill="#000000" font-family="sans-serif" font-size="13" font-weight="bold" lengthAdjust="spacing" textLength="14" x="691" y="1093.1123">24</text><text fill="#000000" font-family="sans-serif" font-size="13" lengthAdjust="spacing" textLength="76" x="709" y="1093.1123">withTitle(title)</text><polygon fill="#A80036" points="1228.5,1154.3203,1238.5,1158.3203,1228.5,1162.3203,1232.5,1158.3203" style="stroke:#A80036;stroke-width:1.0;"/><line style="stroke:#A80036;stroke-width:1.0;" x1="684" x2="1234.5" y1="1158.3203" y2="1158.3203"/><text fill="#000000" font-family="sans-serif" font-size="13" font-weight="bold" lengthAdjust="spacing" textLength="14" x="691" y="1153.4639">25</text><text fill="#000000" font-family="sans-serif" font-size="13" lengthAdjust="spacing" textLength="211" x="709" y="1153.4639">withBriefDescription(briefDescription)</text><polygon fill="#A80036" points="1228.5,1214.6719,1238.5,1218.6719,1228.5,1222.6719,1232.5,1218.6719" style="stroke:#A80036;stroke-width:1.0;"/><line style="stroke:#A80036;stroke-width:1.0;" x1="684" x2="1234.5" y1="1218.6719" y2="1218.6719"/><text fill="#000000" font-family="sans-serif" font-size="13" font-weight="bold" lengthAdjust="spacing" textLength="14" x="691" y="1213.8154">26</text><text fill="#000000" font-family="sans-serif" font-size="13" lengthAdjust="spacing" textLength="269" x="709" y="1213.8154">withCompleteDescription(completeDescription)</text><polygon fill="#A80036" points="1228.5,1275.0234,1238.5,1279.0234,1228.5,1283.0234,1232.5,1279.0234" style="stroke:#A80036;stroke-width:1.0;"/><line style="stroke:#A80036;stroke-width:1.0;" x1="684" x2="1234.5" y1="1279.0234" y2="1279.0234"/><text fill="#000000" font-family="sans-serif" font-size="13" font-weight="bold" lengthAdjust="spacing" textLength="14" x="691" y="1274.167">27</text><text fill="#000000" font-family="sans-serif" font-size="13" lengthAdjust="spacing" textLength="140" x="709" y="1274.167">withFeedback(feedback)</text><polygon fill="#A80036" points="1228.5,1335.375,1238.5,1339.375,1228.5,1343.375,1232.5,1339.375" style="stroke:#A80036;stroke-width:1.0;"/><line style="stroke:#A80036;stroke-width:1.0;" x1="684" x2="1234.5" y1="1339.375" y2="1339.375"/><text fill="#000000" font-family="sans-serif" font-size="13" font-weight="bold" lengthAdjust="spacing" textLength="14" x="691" y="1334.5186">28</text><text fill="#000000" font-family="sans-serif" font-size="13" lengthAdjust="spacing" textLength="145" x="709" y="1334.5186">withCatalogue(catalogue)</text><polygon fill="#A80036" points="1228.5,1395.7266,1238.5,1399.7266,1228.5,1403.7266,1232.5,1399.7266" style="stroke:#A80036;stroke-width:1.0;"/><line style="stroke:#A80036;stroke-width:1.0;" x1="684" x2="1234.5" y1="1399.7266" y2="1399.7266"/><text fill="#000000" font-family="sans-serif" font-size="13" font-weight="bold" lengthAdjust="spacing" textLength="14" x="691" y="1394.8701">29</text><text fill="#000000" font-family="sans-serif" font-size="13" lengthAdjust="spacing" textLength="171" x="709" y="1394.8701">withKeywordList(keywordList)</text><polygon fill="#A80036" points="1228.5,1456.0781,1238.5,1460.0781,1228.5,1464.0781,1232.5,1460.0781" style="stroke:#A80036;stroke-width:1.0;"/><line style="stroke:#A80036;stroke-width:1.0;" x1="684" x2="1234.5" y1="1460.0781" y2="1460.0781"/><text fill="#000000" font-family="sans-serif" font-size="13" font-weight="bold" lengthAdjust="spacing" textLength="14" x="691" y="1455.2217">30</text><text fill="#000000" font-family="sans-serif" font-size="13" lengthAdjust="spacing" textLength="128" x="709" y="1455.2217">withFormList(formList)</text><polygon fill="#A80036" points="1228.5,1516.4297,1238.5,1520.4297,1228.5,1524.4297,1232.5,1520.4297" style="stroke:#A80036;stroke-width:1.0;"/><line style="stroke:#A80036;stroke-width:1.0;" x1="684" x2="1234.5" y1="1520.4297" y2="1520.4297"/><text fill="#000000" font-family="sans-serif" font-size="13" font-weight="bold" lengthAdjust="spacing" textLength="14" x="691" y="1515.5732">31</text><text fill="#000000" font-family="sans-serif" font-size="13" lengthAdjust="spacing" textLength="35" x="709" y="1515.5732">build()</text><polygon fill="#A80036" points="1593.5,1563.1328,1603.5,1567.1328,1593.5,1571.1328,1597.5,1567.1328" style="stroke:#A80036;stroke-width:1.0;"/><line style="stroke:#A80036;stroke-width:1.0;" x1="1250.5" x2="1599.5" y1="1567.1328" y2="1567.1328"/><text fill="#000000" font-family="sans-serif" font-size="13" font-weight="bold" lengthAdjust="spacing" textLength="14" x="1257.5" y="1554.1006">32</text><text fill="#000000" font-family="sans-serif" font-size="13" lengthAdjust="spacing" textLength="162" x="1275.5" y="1545.9248">create(title, briefDescription,</text><text fill="#000000" font-family="sans-serif" font-size="13" lengthAdjust="spacing" textLength="313" x="1275.5" y="1562.2764">completeDescription, feedback, keywordList, formList)</text><rect fill="#FEFECE" filter="url(#flucryzk0c9i6)" height="49.2188" style="stroke:#A80036;stroke-width:1.5;" width="92" x="1605.5" y="1528.4297"/><text fill="#000000" font-family="sans-serif" font-size="14" lengthAdjust="spacing" textLength="78" x="1612.5" y="1549.9629">&lt;&lt;domain&gt;&gt;</text><text fill="#000000" font-family="sans-serif" font-size="14" lengthAdjust="spacing" textLength="47" x="1628" y="1567.5723">Service</text><polygon fill="#A80036" points="695,1611,685,1615,695,1619,691,1615" style="stroke:#A80036;stroke-width:1.0;"/><line style="stroke:#A80036;stroke-width:1.0;stroke-dasharray:2.0,2.0;" x1="689" x2="1244.5" y1="1615" y2="1615"/><text fill="#000000" font-family="sans-serif" font-size="13" font-weight="bold" lengthAdjust="spacing" textLength="14" x="701" y="1610.1436">33</text><text fill="#000000" font-family="sans-serif" font-size="13" lengthAdjust="spacing" textLength="40" x="719" y="1610.1436">service</text><polygon fill="#A80036" points="1755,1641.3516,1765,1645.3516,1755,1649.3516,1759,1645.3516" style="stroke:#A80036;stroke-width:1.0;"/><line style="stroke:#A80036;stroke-width:1.0;" x1="684" x2="1761" y1="1645.3516" y2="1645.3516"/><text fill="#000000" font-family="sans-serif" font-size="13" font-weight="bold" lengthAdjust="spacing" textLength="14" x="691" y="1640.4951">34</text><text fill="#000000" font-family="sans-serif" font-size="13" lengthAdjust="spacing" textLength="74" x="709" y="1640.4951">save(service)</text><polygon fill="#A80036" points="695,1671.7031,685,1675.7031,695,1679.7031,691,1675.7031" style="stroke:#A80036;stroke-width:1.0;"/><line style="stroke:#A80036;stroke-width:1.0;stroke-dasharray:2.0,2.0;" x1="689" x2="1771" y1="1675.7031" y2="1675.7031"/><text fill="#000000" font-family="sans-serif" font-size="13" font-weight="bold" lengthAdjust="spacing" textLength="14" x="701" y="1670.8467">35</text><text fill="#000000" font-family="sans-serif" font-size="13" lengthAdjust="spacing" textLength="40" x="719" y="1670.8467">service</text><polygon fill="#A80036" points="516,1702.0547,506,1706.0547,516,1710.0547,512,1706.0547" style="stroke:#A80036;stroke-width:1.0;"/><line style="stroke:#A80036;stroke-width:1.0;stroke-dasharray:2.0,2.0;" x1="510" x2="678" y1="1706.0547" y2="1706.0547"/><text fill="#000000" font-family="sans-serif" font-size="13" font-weight="bold" lengthAdjust="spacing" textLength="14" x="522" y="1701.1982">36</text><text fill="#000000" font-family="sans-serif" font-size="13" lengthAdjust="spacing" textLength="40" x="540" y="1701.1982">service</text><polygon fill="#A80036" points="110,1748.7578,100,1752.7578,110,1756.7578,106,1752.7578" style="stroke:#A80036;stroke-width:1.0;"/><line style="stroke:#A80036;stroke-width:1.0;" x1="104" x2="499" y1="1752.7578" y2="1752.7578"/><text fill="#000000" font-family="sans-serif" font-size="13" font-weight="bold" lengthAdjust="spacing" textLength="14" x="116" y="1739.7256">37</text><text fill="#000000" font-family="sans-serif" font-size="13" lengthAdjust="spacing" textLength="208" x="134" y="1731.5498">registers the draft in the persistence</text><text fill="#000000" font-family="sans-serif" font-size="13" lengthAdjust="spacing" textLength="249" x="138" y="1747.9014">and informs of the success of the operation</text><!--MD5=[609cd1e3e0634119ad938a2c85f292a5]
@startuml
autonumber
hide footbox

actor "Help Desk Services Manager" as HSM

participant "<<presentation>>\nSaveDraftUI" as UI
participant "<<application>>\nSaveDraftController" as CTRL
database "<<repository>>\nServiceDraftRepository" as SDR
database "<<repository>>\nCatalogueRepository" as CR
participant "<<domain>>\nServiceDraft" as SD
participant "<<builder>>\nServiceBuilder" as SBD
participant "<<domain>>\nService" as S
database "<<repository>>\nServiceRepository" as SR
participant "<<persistence>>\nPersistenceContext" as PC
participant "<<persistence>>\nAppSettings" as AS
participant "<<factory>>\nRepositoryFactory" as RF
participant "<<domain>>\nTitle" as T
participant "<<domain>>\nBriefDescription" as DB
participant "<<domain>>\nCompleteDescription" as DC
participant "<<domain>>\nKeyword" as KW
participant "<<domain>>\nFeedback" as FB
participant "<<domain>>\nCatalogue" as C
participant "<<domain>>\nFormName" as FM
participant "<<domain>>\nFormType" as FT
participant "<<domain>>\nAttributeName" as AN
participant "<<domain>>\nAttributeLabel" as AL
participant "<<domain>>\nAttributeDescription" as AD
participant "<<domain>>\nAttributeRegex" as AR
participant "<<domain>>\nAttributeScript" as ASC
participant "<<domain>>\nDataType" as TD

activate HSM

HSM -> UI : initiates the request to save in a service draft
activate UI

UI -> CTRL** : create
activate CTRL

ref over CTRL
  US-1-2002_SD_Repo
end ref

UI -> HSM : requests the draft's id
deactivate CTRL
deactivate UI

HSM -> UI : inserts said id
activate UI

UI -> CTRL : getServiceDraftById(id)
activate CTRL

CTRL -> SDR : getServiceDraftById(id)
activate SDR
SDR - -> CTRL : serviceDraft
deactivate SDR

CTRL - -> UI : serviceDraft
deactivate CTRL


UI -> CTRL : getCatalogues()
activate CTRL

CTRL -> CR : all()
activate CR
CR - -> CTRL : list
deactivate CR

CTRL - -> UI : list
deactivate CTRL

UI -> HSM : shows the catalogue list and request the user to choose one
deactivate UI

HSM -> UI : selects the catalogue
activate UI

UI -> HSM : validates, presents the current \ninformation in the draft and asks for confirmation
deactivate UI

HSM -> UI : confirms
activate UI

UI -> CTRL : saveService(catalogue)
activate CTRL

CTRL -> SD : title = getTitle()
activate SD
deactivate SD

CTRL -> SD : briefDescription = getBriefDescription()
activate SD
deactivate SD

CTRL -> SD : completeDescription = getCompleteDescription()
activate SD
deactivate SD

CTRL -> SD : feedback = getFeedback()
activate SD
deactivate SD

CTRL -> SD : keywordList = getKeywordList()
activate SD
deactivate SD

CTRL -> SD : formList = getFormList()
activate SD
deactivate SD

CTRL -> SBD : withTitle(title)
activate SBD
deactivate SBD

CTRL -> SBD : withBriefDescription(briefDescription)
activate SBD
deactivate SBD

CTRL -> SBD : withCompleteDescription(completeDescription)
activate SBD
deactivate SBD

CTRL -> SBD : withFeedback(feedback)
activate SBD
deactivate SBD

CTRL -> SBD : withCatalogue(catalogue)
activate SBD
deactivate SBD

CTRL -> SBD : withKeywordList(keywordList)
activate SBD
deactivate SBD

CTRL -> SBD : withFormList(formList)
activate SBD
deactivate SBD

CTRL -> SBD : build()
activate SBD

SBD -> S** : create(title, briefDescription, \ncompleteDescription, feedback, keywordList, formList)

SBD - -> CTRL : service
deactivate SBD

CTRL -> SR : save(service)
activate SR
SR - -> CTRL : service
deactivate SR

CTRL - -> UI : service
deactivate CTRL

UI -> HSM : registers the draft in the persistence\n and informs of the success of the operation
deactivate UI
deactivate HSM

@enduml

PlantUML version 1.2021.5(Sun Apr 25 12:20:28 BST 2021)
(GPL source distribution)
Java Runtime: OpenJDK Runtime Environment
JVM: Dynamic Code Evolution 64-Bit Server VM
Default Encoding: Cp1252
Language: pt
Country: PT
--></g></svg>