<?xml version="1.0" encoding="UTF-8" standalone="no"?><svg xmlns="http://www.w3.org/2000/svg" xmlns:xlink="http://www.w3.org/1999/xlink" contentScriptType="application/ecmascript" contentStyleType="text/css" height="905px" preserveAspectRatio="none" style="width:4068px;height:905px;" version="1.1" viewBox="0 0 4068 905" width="4068px" zoomAndPan="magnify"><defs><filter height="300%" id="fon3fblkrpm2r" width="300%" x="-1" y="-1"><feGaussianBlur result="blurOut" stdDeviation="2.0"/><feColorMatrix in="blurOut" result="blurOut2" type="matrix" values="0 0 0 0 0 0 0 0 0 0 0 0 0 0 0 0 0 0 .4 0"/><feOffset dx="4.0" dy="4.0" in="blurOut2" result="blurOut3"/><feBlend in="SourceGraphic" in2="blurOut3" mode="normal"/></filter></defs><g><!--MD5=[8fd473fd151a2794da4f2c8684676405]
cluster Presentation--><polygon fill="#DDDDDD" filter="url(#fon3fblkrpm2r)" points="3620,6,3716,6,3723,29.6094,3862,29.6094,3862,134,3620,134,3620,6" style="stroke:#000000;stroke-width:1.5;"/><line style="stroke:#000000;stroke-width:1.5;" x1="3620" x2="3723" y1="29.6094" y2="29.6094"/><text fill="#000000" font-family="sans-serif" font-size="14" font-weight="bold" lengthAdjust="spacing" textLength="90" x="3624" y="22.5332">Presentation</text><!--MD5=[d64883541e3d62e3241c4d12decf100d]
cluster Application--><polygon fill="#DDDDDD" filter="url(#fon3fblkrpm2r)" points="3556,167,3640,167,3647,190.6094,3926,190.6094,3926,406,3556,406,3556,167" style="stroke:#000000;stroke-width:1.5;"/><line style="stroke:#000000;stroke-width:1.5;" x1="3556" x2="3647" y1="190.6094" y2="190.6094"/><text fill="#000000" font-family="sans-serif" font-size="14" font-weight="bold" lengthAdjust="spacing" textLength="78" x="3560" y="183.5332">Application</text><!--MD5=[121a8bf1197281ab89ed693fab589f94]
cluster Domain--><polygon fill="#DDDDDD" filter="url(#fon3fblkrpm2r)" points="1096,456,1154,456,1161,479.6094,4051,479.6094,4051,763,1096,763,1096,456" style="stroke:#000000;stroke-width:1.5;"/><line style="stroke:#000000;stroke-width:1.5;" x1="1096" x2="1161" y1="479.6094" y2="479.6094"/><text fill="#000000" font-family="sans-serif" font-size="14" font-weight="bold" lengthAdjust="spacing" textLength="52" x="1100" y="472.5332">Domain</text><!--MD5=[44cc74aea8168fb4471e814fff38ed12]
cluster Builder--><polygon fill="#DDDDDD" filter="url(#fon3fblkrpm2r)" points="3644,500,3701,500,3708,523.6094,4027,523.6094,4027,739,3644,739,3644,500" style="stroke:#000000;stroke-width:1.5;"/><line style="stroke:#000000;stroke-width:1.5;" x1="3644" x2="3708" y1="523.6094" y2="523.6094"/><text fill="#000000" font-family="sans-serif" font-size="14" font-weight="bold" lengthAdjust="spacing" textLength="51" x="3648" y="516.5332">Builder</text><!--MD5=[bc6b40dadbf86ab6a0c8405a467a48af]
cluster Persistence--><polygon fill="#DDDDDD" filter="url(#fon3fblkrpm2r)" points="16,483.5,106,483.5,113,507.1094,1072,507.1094,1072,898,16,898,16,483.5" style="stroke:#000000;stroke-width:1.5;"/><line style="stroke:#000000;stroke-width:1.5;" x1="16" x2="113" y1="507.1094" y2="507.1094"/><text fill="#000000" font-family="sans-serif" font-size="14" font-weight="bold" lengthAdjust="spacing" textLength="84" x="20" y="500.0332">Persistence</text><!--MD5=[0d5799440b3bfefd92b00abfcd2c79b9]
cluster Factory--><polygon fill="#DDDDDD" filter="url(#fon3fblkrpm2r)" points="886,527.5,944,527.5,951,551.1094,1048,551.1094,1048,711.5,886,711.5,886,527.5" style="stroke:#000000;stroke-width:1.5;"/><line style="stroke:#000000;stroke-width:1.5;" x1="886" x2="951" y1="551.1094" y2="551.1094"/><text fill="#000000" font-family="sans-serif" font-size="14" font-weight="bold" lengthAdjust="spacing" textLength="52" x="890" y="544.0332">Factory</text><!--MD5=[71971f99a41bb66cf321ce46bb59f738]
cluster Repository--><polygon fill="#DDDDDD" filter="url(#fon3fblkrpm2r)" points="421,534.5,503,534.5,510,558.1094,862,558.1094,862,874,421,874,421,534.5" style="stroke:#000000;stroke-width:1.5;"/><line style="stroke:#000000;stroke-width:1.5;" x1="421" x2="510" y1="558.1094" y2="558.1094"/><text fill="#000000" font-family="sans-serif" font-size="14" font-weight="bold" lengthAdjust="spacing" textLength="76" x="425" y="551.0332">Repository</text><!--MD5=[19c944231b726ee0e8a2cdaf2522df3d]
class ServiceDraftFormSpecificationUI--><rect codeLine="4" fill="#FEFECE" filter="url(#fon3fblkrpm2r)" height="56.1875" id="ServiceDraftFormSpecificationUI" style="stroke:#A80036;stroke-width:1.5;" width="209" x="3636.5" y="62"/><ellipse cx="3651.5" cy="82.0938" fill="#ADD1B2" rx="11" ry="11" style="stroke:#A80036;stroke-width:1.0;"/><path d="M3653.5,78.5938 Q3653.7031,78.0938 3653.9375,77.8438 Q3654.1719,77.5938 3654.4375,77.5938 Q3654.9063,77.5938 3655.2031,77.875 Q3655.5,78.1563 3655.5,78.8125 L3655.5,80.375 Q3655.5,81.0313 3655.2188,81.3125 Q3654.9375,81.5938 3654.5,81.5938 Q3654.1094,81.5938 3653.8594,81.4219 Q3653.6094,81.25 3653.5,80.7969 Q3653.4531,80.4844 3653.2813,80.3125 Q3652.9688,79.9844 3652.4063,79.7969 Q3651.8438,79.5938 3651.2813,79.5938 Q3650.5781,79.5938 3649.9844,79.875 Q3649.4063,80.1563 3648.9531,80.7813 Q3648.5,81.4063 3648.5,82.2656 L3648.5,83.1875 Q3648.5,84.2188 3649.3438,84.9063 Q3650.1875,85.5938 3651.6875,85.5938 Q3652.5781,85.5938 3653.2031,85.3906 Q3653.5625,85.2813 3653.9688,84.9219 Q3654.2344,84.7188 3654.375,84.6563 Q3654.5156,84.5938 3654.6875,84.5938 Q3655.0156,84.5938 3655.25,84.8594 Q3655.5,85.1094 3655.5,85.4688 Q3655.5,85.8125 3655.1563,86.2188 Q3654.6563,86.8125 3653.8594,87.1406 Q3652.8125,87.5938 3651.5313,87.5938 Q3650.0313,87.5938 3648.8281,87 Q3647.8594,86.5313 3647.1719,85.5156 Q3646.5,84.5 3646.5,83.2969 L3646.5,82.2031 Q3646.5,80.9531 3647.0938,79.8594 Q3647.7031,78.7656 3648.75,78.1875 Q3649.8125,77.5938 3651,77.5938 Q3651.7188,77.5938 3652.3438,77.8438 Q3652.9688,78.0938 3653.5,78.5938 Z " fill="#000000"/><text fill="#000000" font-family="sans-serif" font-size="12" font-style="italic" lengthAdjust="spacing" textLength="82" x="3713" y="79.457">«presentation»</text><text fill="#000000" font-family="sans-serif" font-size="12" lengthAdjust="spacing" textLength="177" x="3665.5" y="94.5508">ServiceDraftFormSpecificationUI</text><line style="stroke:#A80036;stroke-width:1.5;" x1="3637.5" x2="3844.5" y1="102.1875" y2="102.1875"/><line style="stroke:#A80036;stroke-width:1.5;" x1="3637.5" x2="3844.5" y1="110.1875" y2="110.1875"/><!--MD5=[78ca3c1b028cc8a220cf10e5ffc69797]
class ServiceDraftSpecificationController--><rect codeLine="11" fill="#FEFECE" filter="url(#fon3fblkrpm2r)" height="166.875" id="ServiceDraftSpecificationController" style="stroke:#A80036;stroke-width:1.5;" width="337" x="3572.5" y="223"/><ellipse cx="3641.75" cy="243.0938" fill="#ADD1B2" rx="11" ry="11" style="stroke:#A80036;stroke-width:1.0;"/><path d="M3643.75,239.5938 Q3643.9531,239.0938 3644.1875,238.8438 Q3644.4219,238.5938 3644.6875,238.5938 Q3645.1563,238.5938 3645.4531,238.875 Q3645.75,239.1563 3645.75,239.8125 L3645.75,241.375 Q3645.75,242.0313 3645.4688,242.3125 Q3645.1875,242.5938 3644.75,242.5938 Q3644.3594,242.5938 3644.1094,242.4219 Q3643.8594,242.25 3643.75,241.7969 Q3643.7031,241.4844 3643.5313,241.3125 Q3643.2188,240.9844 3642.6563,240.7969 Q3642.0938,240.5938 3641.5313,240.5938 Q3640.8281,240.5938 3640.2344,240.875 Q3639.6563,241.1563 3639.2031,241.7813 Q3638.75,242.4063 3638.75,243.2656 L3638.75,244.1875 Q3638.75,245.2188 3639.5938,245.9063 Q3640.4375,246.5938 3641.9375,246.5938 Q3642.8281,246.5938 3643.4531,246.3906 Q3643.8125,246.2813 3644.2188,245.9219 Q3644.4844,245.7188 3644.625,245.6563 Q3644.7656,245.5938 3644.9375,245.5938 Q3645.2656,245.5938 3645.5,245.8594 Q3645.75,246.1094 3645.75,246.4688 Q3645.75,246.8125 3645.4063,247.2188 Q3644.9063,247.8125 3644.1094,248.1406 Q3643.0625,248.5938 3641.7813,248.5938 Q3640.2813,248.5938 3639.0781,248 Q3638.1094,247.5313 3637.4219,246.5156 Q3636.75,245.5 3636.75,244.2969 L3636.75,243.2031 Q3636.75,241.9531 3637.3438,240.8594 Q3637.9531,239.7656 3639,239.1875 Q3640.0625,238.5938 3641.25,238.5938 Q3641.9688,238.5938 3642.5938,238.8438 Q3643.2188,239.0938 3643.75,239.5938 Z " fill="#000000"/><text fill="#000000" font-family="sans-serif" font-size="12" font-style="italic" lengthAdjust="spacing" textLength="74" x="3720.25" y="240.457">«application»</text><text fill="#000000" font-family="sans-serif" font-size="12" lengthAdjust="spacing" textLength="190" x="3662.25" y="255.5508">ServiceDraftSpecificationController</text><line style="stroke:#A80036;stroke-width:1.5;" x1="3573.5" x2="3908.5" y1="263.1875" y2="263.1875"/><line style="stroke:#A80036;stroke-width:1.5;" x1="3573.5" x2="3908.5" y1="271.1875" y2="271.1875"/><text fill="#000000" font-family="sans-serif" font-size="11" lengthAdjust="spacing" textLength="45" x="3578.5" y="286.6064">+create()</text><text fill="#000000" font-family="sans-serif" font-size="11" lengthAdjust="spacing" textLength="59" x="3578.5" y="300.4424">+getDrafts()</text><text fill="#000000" font-family="sans-serif" font-size="11" lengthAdjust="spacing" textLength="60" x="3578.5" y="314.2783">+newDraft()</text><text fill="#000000" font-family="sans-serif" font-size="11" lengthAdjust="spacing" textLength="134" x="3578.5" y="328.1143">+addForm(name, formType)</text><text fill="#000000" font-family="sans-serif" font-size="11" lengthAdjust="spacing" textLength="325" x="3578.5" y="341.9502">+addAttribute(name, label, description, regex, scriptPath, dataType)</text><text fill="#000000" font-family="sans-serif" font-size="11" lengthAdjust="spacing" textLength="62" x="3578.5" y="355.7861">+saveForm()</text><text fill="#000000" font-family="sans-serif" font-size="11" lengthAdjust="spacing" textLength="92" x="3578.5" y="369.6221">+addFormToDraft()</text><text fill="#000000" font-family="sans-serif" font-size="11" lengthAdjust="spacing" textLength="99" x="3578.5" y="383.458">+saveServiceDraft()</text><!--MD5=[925d5031f5a4e53e61ccd699b6d8c35b]
class ServiceDraft--><rect codeLine="26" fill="#FEFECE" filter="url(#fon3fblkrpm2r)" height="98.9531" id="ServiceDraft" style="stroke:#A80036;stroke-width:1.5;" width="121" x="1112.5" y="590"/><ellipse cx="1137.85" cy="617.6406" fill="#ADD1B2" rx="11" ry="11" style="stroke:#A80036;stroke-width:1.0;"/><path d="M1139.85,614.1406 Q1140.0531,613.6406 1140.2875,613.3906 Q1140.5219,613.1406 1140.7875,613.1406 Q1141.2563,613.1406 1141.5531,613.4219 Q1141.85,613.7031 1141.85,614.3594 L1141.85,615.9219 Q1141.85,616.5781 1141.5688,616.8594 Q1141.2875,617.1406 1140.85,617.1406 Q1140.4594,617.1406 1140.2094,616.9688 Q1139.9594,616.7969 1139.85,616.3438 Q1139.8031,616.0313 1139.6313,615.8594 Q1139.3188,615.5313 1138.7563,615.3438 Q1138.1938,615.1406 1137.6313,615.1406 Q1136.9281,615.1406 1136.3344,615.4219 Q1135.7563,615.7031 1135.3031,616.3281 Q1134.85,616.9531 1134.85,617.8125 L1134.85,618.7344 Q1134.85,619.7656 1135.6938,620.4531 Q1136.5375,621.1406 1138.0375,621.1406 Q1138.9281,621.1406 1139.5531,620.9375 Q1139.9125,620.8281 1140.3188,620.4688 Q1140.5844,620.2656 1140.725,620.2031 Q1140.8656,620.1406 1141.0375,620.1406 Q1141.3656,620.1406 1141.6,620.4063 Q1141.85,620.6563 1141.85,621.0156 Q1141.85,621.3594 1141.5063,621.7656 Q1141.0063,622.3594 1140.2094,622.6875 Q1139.1625,623.1406 1137.8813,623.1406 Q1136.3813,623.1406 1135.1781,622.5469 Q1134.2094,622.0781 1133.5219,621.0625 Q1132.85,620.0469 1132.85,618.8438 L1132.85,617.75 Q1132.85,616.5 1133.4438,615.4063 Q1134.0531,614.3125 1135.1,613.7344 Q1136.1625,613.1406 1137.35,613.1406 Q1138.0688,613.1406 1138.6938,613.3906 Q1139.3188,613.6406 1139.85,614.1406 Z " fill="#000000"/><text fill="#000000" font-family="sans-serif" font-size="12" font-style="italic" lengthAdjust="spacing" textLength="44" x="1165.15" y="607.457">«Entity»</text><text fill="#000000" font-family="sans-serif" font-size="12" font-style="italic" lengthAdjust="spacing" textLength="40" x="1167.15" y="622.5508">«Root»</text><text fill="#000000" font-family="sans-serif" font-size="12" lengthAdjust="spacing" textLength="66" x="1154.15" y="637.6445">ServiceDraft</text><line style="stroke:#A80036;stroke-width:1.5;" x1="1113.5" x2="1232.5" y1="645.2813" y2="645.2813"/><line style="stroke:#A80036;stroke-width:1.5;" x1="1113.5" x2="1232.5" y1="653.2813" y2="653.2813"/><text fill="#000000" font-family="sans-serif" font-size="11" lengthAdjust="spacing" textLength="45" x="1118.5" y="668.7002">+create()</text><text fill="#000000" font-family="sans-serif" font-size="11" lengthAdjust="spacing" textLength="109" x="1118.5" y="682.5361">+setFormList(formList)</text><!--MD5=[6f29f313cd4199edbf91b9ce3a4faa98]
class Form--><rect codeLine="31" fill="#FEFECE" filter="url(#fon3fblkrpm2r)" height="85.1172" id="Form" style="stroke:#A80036;stroke-width:1.5;" width="197" x="1291.5" y="597"/><ellipse cx="1365.75" cy="624.6406" fill="#ADD1B2" rx="11" ry="11" style="stroke:#A80036;stroke-width:1.0;"/><path d="M1367.75,621.1406 Q1367.9531,620.6406 1368.1875,620.3906 Q1368.4219,620.1406 1368.6875,620.1406 Q1369.1563,620.1406 1369.4531,620.4219 Q1369.75,620.7031 1369.75,621.3594 L1369.75,622.9219 Q1369.75,623.5781 1369.4688,623.8594 Q1369.1875,624.1406 1368.75,624.1406 Q1368.3594,624.1406 1368.1094,623.9688 Q1367.8594,623.7969 1367.75,623.3438 Q1367.7031,623.0313 1367.5313,622.8594 Q1367.2188,622.5313 1366.6563,622.3438 Q1366.0938,622.1406 1365.5313,622.1406 Q1364.8281,622.1406 1364.2344,622.4219 Q1363.6563,622.7031 1363.2031,623.3281 Q1362.75,623.9531 1362.75,624.8125 L1362.75,625.7344 Q1362.75,626.7656 1363.5938,627.4531 Q1364.4375,628.1406 1365.9375,628.1406 Q1366.8281,628.1406 1367.4531,627.9375 Q1367.8125,627.8281 1368.2188,627.4688 Q1368.4844,627.2656 1368.625,627.2031 Q1368.7656,627.1406 1368.9375,627.1406 Q1369.2656,627.1406 1369.5,627.4063 Q1369.75,627.6563 1369.75,628.0156 Q1369.75,628.3594 1369.4063,628.7656 Q1368.9063,629.3594 1368.1094,629.6875 Q1367.0625,630.1406 1365.7813,630.1406 Q1364.2813,630.1406 1363.0781,629.5469 Q1362.1094,629.0781 1361.4219,628.0625 Q1360.75,627.0469 1360.75,625.8438 L1360.75,624.75 Q1360.75,623.5 1361.3438,622.4063 Q1361.9531,621.3125 1363,620.7344 Q1364.0625,620.1406 1365.25,620.1406 Q1365.9688,620.1406 1366.5938,620.3906 Q1367.2188,620.6406 1367.75,621.1406 Z " fill="#000000"/><text fill="#000000" font-family="sans-serif" font-size="12" font-style="italic" lengthAdjust="spacing" textLength="44" x="1384.25" y="614.457">«Entity»</text><text fill="#000000" font-family="sans-serif" font-size="12" font-style="italic" lengthAdjust="spacing" textLength="40" x="1386.25" y="629.5508">«Root»</text><text fill="#000000" font-family="sans-serif" font-size="12" lengthAdjust="spacing" textLength="29" x="1391.75" y="644.6445">Form</text><line style="stroke:#A80036;stroke-width:1.5;" x1="1292.5" x2="1487.5" y1="652.2813" y2="652.2813"/><line style="stroke:#A80036;stroke-width:1.5;" x1="1292.5" x2="1487.5" y1="660.2813" y2="660.2813"/><text fill="#000000" font-family="sans-serif" font-size="11" lengthAdjust="spacing" textLength="185" x="1297.5" y="675.7002">+create(name, formType, attributeList)</text><!--MD5=[787494ff879e99315e413996e631a796]
class Attribute--><rect codeLine="35" fill="#FEFECE" filter="url(#fon3fblkrpm2r)" height="70.0234" id="Attribute" style="stroke:#A80036;stroke-width:1.5;" width="305" x="1924.5" y="604.5"/><ellipse cx="2050.75" cy="624.5938" fill="#ADD1B2" rx="11" ry="11" style="stroke:#A80036;stroke-width:1.0;"/><path d="M2052.75,621.0938 Q2052.9531,620.5938 2053.1875,620.3438 Q2053.4219,620.0938 2053.6875,620.0938 Q2054.1563,620.0938 2054.4531,620.375 Q2054.75,620.6563 2054.75,621.3125 L2054.75,622.875 Q2054.75,623.5313 2054.4688,623.8125 Q2054.1875,624.0938 2053.75,624.0938 Q2053.3594,624.0938 2053.1094,623.9219 Q2052.8594,623.75 2052.75,623.2969 Q2052.7031,622.9844 2052.5313,622.8125 Q2052.2188,622.4844 2051.6563,622.2969 Q2051.0938,622.0938 2050.5313,622.0938 Q2049.8281,622.0938 2049.2344,622.375 Q2048.6563,622.6563 2048.2031,623.2813 Q2047.75,623.9063 2047.75,624.7656 L2047.75,625.6875 Q2047.75,626.7188 2048.5938,627.4063 Q2049.4375,628.0938 2050.9375,628.0938 Q2051.8281,628.0938 2052.4531,627.8906 Q2052.8125,627.7813 2053.2188,627.4219 Q2053.4844,627.2188 2053.625,627.1563 Q2053.7656,627.0938 2053.9375,627.0938 Q2054.2656,627.0938 2054.5,627.3594 Q2054.75,627.6094 2054.75,627.9688 Q2054.75,628.3125 2054.4063,628.7188 Q2053.9063,629.3125 2053.1094,629.6406 Q2052.0625,630.0938 2050.7813,630.0938 Q2049.2813,630.0938 2048.0781,629.5 Q2047.1094,629.0313 2046.4219,628.0156 Q2045.75,627 2045.75,625.7969 L2045.75,624.7031 Q2045.75,623.4531 2046.3438,622.3594 Q2046.9531,621.2656 2048,620.6875 Q2049.0625,620.0938 2050.25,620.0938 Q2050.9688,620.0938 2051.5938,620.3438 Q2052.2188,620.5938 2052.75,621.0938 Z " fill="#000000"/><text fill="#000000" font-family="sans-serif" font-size="12" font-style="italic" lengthAdjust="spacing" textLength="44" x="2071.25" y="621.957">«Entity»</text><text fill="#000000" font-family="sans-serif" font-size="12" lengthAdjust="spacing" textLength="44" x="2071.25" y="637.0508">Attribute</text><line style="stroke:#A80036;stroke-width:1.5;" x1="1925.5" x2="2228.5" y1="644.6875" y2="644.6875"/><line style="stroke:#A80036;stroke-width:1.5;" x1="1925.5" x2="2228.5" y1="652.6875" y2="652.6875"/><text fill="#000000" font-family="sans-serif" font-size="11" lengthAdjust="spacing" textLength="293" x="1930.5" y="668.1064">+create(name, label, description, regex, scriptPath, dataType</text><!--MD5=[9555c84b6fd548991761066443e965b1]
class FormName--><rect codeLine="39" fill="#FEFECE" filter="url(#fon3fblkrpm2r)" height="83.8594" id="FormName" style="stroke:#A80036;stroke-width:1.5;" width="157" x="1732.5" y="597.5"/><ellipse cx="1767.3" cy="617.5938" fill="#ADD1B2" rx="11" ry="11" style="stroke:#A80036;stroke-width:1.0;"/><path d="M1769.3,614.0938 Q1769.5031,613.5938 1769.7375,613.3438 Q1769.9719,613.0938 1770.2375,613.0938 Q1770.7063,613.0938 1771.0031,613.375 Q1771.3,613.6563 1771.3,614.3125 L1771.3,615.875 Q1771.3,616.5313 1771.0188,616.8125 Q1770.7375,617.0938 1770.3,617.0938 Q1769.9094,617.0938 1769.6594,616.9219 Q1769.4094,616.75 1769.3,616.2969 Q1769.2531,615.9844 1769.0813,615.8125 Q1768.7688,615.4844 1768.2063,615.2969 Q1767.6438,615.0938 1767.0813,615.0938 Q1766.3781,615.0938 1765.7844,615.375 Q1765.2063,615.6563 1764.7531,616.2813 Q1764.3,616.9063 1764.3,617.7656 L1764.3,618.6875 Q1764.3,619.7188 1765.1438,620.4063 Q1765.9875,621.0938 1767.4875,621.0938 Q1768.3781,621.0938 1769.0031,620.8906 Q1769.3625,620.7813 1769.7688,620.4219 Q1770.0344,620.2188 1770.175,620.1563 Q1770.3156,620.0938 1770.4875,620.0938 Q1770.8156,620.0938 1771.05,620.3594 Q1771.3,620.6094 1771.3,620.9688 Q1771.3,621.3125 1770.9563,621.7188 Q1770.4563,622.3125 1769.6594,622.6406 Q1768.6125,623.0938 1767.3313,623.0938 Q1765.8313,623.0938 1764.6281,622.5 Q1763.6594,622.0313 1762.9719,621.0156 Q1762.3,620 1762.3,618.7969 L1762.3,617.7031 Q1762.3,616.4531 1762.8938,615.3594 Q1763.5031,614.2656 1764.55,613.6875 Q1765.6125,613.0938 1766.8,613.0938 Q1767.5188,613.0938 1768.1438,613.3438 Q1768.7688,613.5938 1769.3,614.0938 Z " fill="#000000"/><text fill="#000000" font-family="sans-serif" font-size="12" font-style="italic" lengthAdjust="spacing" textLength="85" x="1783.7" y="614.957">«Value Object»</text><text fill="#000000" font-family="sans-serif" font-size="12" lengthAdjust="spacing" textLength="63" x="1794.7" y="630.0508">FormName</text><line style="stroke:#A80036;stroke-width:1.5;" x1="1733.5" x2="1888.5" y1="637.6875" y2="637.6875"/><line style="stroke:#A80036;stroke-width:1.5;" x1="1733.5" x2="1888.5" y1="645.6875" y2="645.6875"/><text fill="#000000" font-family="sans-serif" font-size="11" lengthAdjust="spacing" textLength="145" x="1738.5" y="661.1064">+createFormName(formName)</text><text fill="#000000" font-family="sans-serif" font-size="11" lengthAdjust="spacing" textLength="98" x="1738.5" y="674.9424">-validate(formName)</text><!--MD5=[f97bc38be6e42a8b0d0074a8f95022fc]
class FormType--><rect codeLine="44" fill="#FEFECE" filter="url(#fon3fblkrpm2r)" height="97.6953" id="FormType" style="stroke:#A80036;stroke-width:1.5;" width="151" x="1546.5" y="590.5"/><ellipse cx="1578.6" cy="610.5938" fill="#ADD1B2" rx="11" ry="11" style="stroke:#A80036;stroke-width:1.0;"/><path d="M1580.6,607.0938 Q1580.8031,606.5938 1581.0375,606.3438 Q1581.2719,606.0938 1581.5375,606.0938 Q1582.0063,606.0938 1582.3031,606.375 Q1582.6,606.6563 1582.6,607.3125 L1582.6,608.875 Q1582.6,609.5313 1582.3188,609.8125 Q1582.0375,610.0938 1581.6,610.0938 Q1581.2094,610.0938 1580.9594,609.9219 Q1580.7094,609.75 1580.6,609.2969 Q1580.5531,608.9844 1580.3813,608.8125 Q1580.0688,608.4844 1579.5063,608.2969 Q1578.9438,608.0938 1578.3813,608.0938 Q1577.6781,608.0938 1577.0844,608.375 Q1576.5063,608.6563 1576.0531,609.2813 Q1575.6,609.9063 1575.6,610.7656 L1575.6,611.6875 Q1575.6,612.7188 1576.4438,613.4063 Q1577.2875,614.0938 1578.7875,614.0938 Q1579.6781,614.0938 1580.3031,613.8906 Q1580.6625,613.7813 1581.0688,613.4219 Q1581.3344,613.2188 1581.475,613.1563 Q1581.6156,613.0938 1581.7875,613.0938 Q1582.1156,613.0938 1582.35,613.3594 Q1582.6,613.6094 1582.6,613.9688 Q1582.6,614.3125 1582.2563,614.7188 Q1581.7563,615.3125 1580.9594,615.6406 Q1579.9125,616.0938 1578.6313,616.0938 Q1577.1313,616.0938 1575.9281,615.5 Q1574.9594,615.0313 1574.2719,614.0156 Q1573.6,613 1573.6,611.7969 L1573.6,610.7031 Q1573.6,609.4531 1574.1938,608.3594 Q1574.8031,607.2656 1575.85,606.6875 Q1576.9125,606.0938 1578.1,606.0938 Q1578.8188,606.0938 1579.4438,606.3438 Q1580.0688,606.5938 1580.6,607.0938 Z " fill="#000000"/><text fill="#000000" font-family="sans-serif" font-size="12" font-style="italic" lengthAdjust="spacing" textLength="85" x="1594.4" y="607.957">«Value Object»</text><text fill="#000000" font-family="sans-serif" font-size="12" lengthAdjust="spacing" textLength="55" x="1609.4" y="623.0508">FormType</text><line style="stroke:#A80036;stroke-width:1.5;" x1="1547.5" x2="1696.5" y1="630.6875" y2="630.6875"/><line style="stroke:#A80036;stroke-width:1.5;" x1="1547.5" x2="1696.5" y1="638.6875" y2="638.6875"/><text fill="#000000" font-family="sans-serif" font-size="11" lengthAdjust="spacing" textLength="139" x="1552.5" y="654.1064">+createFormType(formType)</text><text fill="#000000" font-family="sans-serif" font-size="11" lengthAdjust="spacing" textLength="46" x="1552.5" y="667.9424">+values()</text><text fill="#000000" font-family="sans-serif" font-size="11" lengthAdjust="spacing" textLength="95" x="1552.5" y="681.7783">-validate(formType)</text><!--MD5=[7730af8102616437f2081915ece208fe]
class AttributeName--><rect codeLine="50" fill="#FEFECE" filter="url(#fon3fblkrpm2r)" height="83.8594" id="AttributeName" style="stroke:#A80036;stroke-width:1.5;" width="191" x="3434.5" y="597.5"/><ellipse cx="3485.25" cy="617.5938" fill="#ADD1B2" rx="11" ry="11" style="stroke:#A80036;stroke-width:1.0;"/><path d="M3487.25,614.0938 Q3487.4531,613.5938 3487.6875,613.3438 Q3487.9219,613.0938 3488.1875,613.0938 Q3488.6563,613.0938 3488.9531,613.375 Q3489.25,613.6563 3489.25,614.3125 L3489.25,615.875 Q3489.25,616.5313 3488.9688,616.8125 Q3488.6875,617.0938 3488.25,617.0938 Q3487.8594,617.0938 3487.6094,616.9219 Q3487.3594,616.75 3487.25,616.2969 Q3487.2031,615.9844 3487.0313,615.8125 Q3486.7188,615.4844 3486.1563,615.2969 Q3485.5938,615.0938 3485.0313,615.0938 Q3484.3281,615.0938 3483.7344,615.375 Q3483.1563,615.6563 3482.7031,616.2813 Q3482.25,616.9063 3482.25,617.7656 L3482.25,618.6875 Q3482.25,619.7188 3483.0938,620.4063 Q3483.9375,621.0938 3485.4375,621.0938 Q3486.3281,621.0938 3486.9531,620.8906 Q3487.3125,620.7813 3487.7188,620.4219 Q3487.9844,620.2188 3488.125,620.1563 Q3488.2656,620.0938 3488.4375,620.0938 Q3488.7656,620.0938 3489,620.3594 Q3489.25,620.6094 3489.25,620.9688 Q3489.25,621.3125 3488.9063,621.7188 Q3488.4063,622.3125 3487.6094,622.6406 Q3486.5625,623.0938 3485.2813,623.0938 Q3483.7813,623.0938 3482.5781,622.5 Q3481.6094,622.0313 3480.9219,621.0156 Q3480.25,620 3480.25,618.7969 L3480.25,617.7031 Q3480.25,616.4531 3480.8438,615.3594 Q3481.4531,614.2656 3482.5,613.6875 Q3483.5625,613.0938 3484.75,613.0938 Q3485.4688,613.0938 3486.0938,613.3438 Q3486.7188,613.5938 3487.25,614.0938 Z " fill="#000000"/><text fill="#000000" font-family="sans-serif" font-size="12" font-style="italic" lengthAdjust="spacing" textLength="85" x="3503.75" y="614.957">«Value Object»</text><text fill="#000000" font-family="sans-serif" font-size="12" lengthAdjust="spacing" textLength="78" x="3507.25" y="630.0508">AttributeName</text><line style="stroke:#A80036;stroke-width:1.5;" x1="3435.5" x2="3624.5" y1="637.6875" y2="637.6875"/><line style="stroke:#A80036;stroke-width:1.5;" x1="3435.5" x2="3624.5" y1="645.6875" y2="645.6875"/><text fill="#000000" font-family="sans-serif" font-size="11" lengthAdjust="spacing" textLength="179" x="3440.5" y="661.1064">+createAttributeName(attributeName)</text><text fill="#000000" font-family="sans-serif" font-size="11" lengthAdjust="spacing" textLength="115" x="3440.5" y="674.9424">-validate(attributeName)</text><!--MD5=[026f7fe645532d5909e09af22ec70fff]
class AttributeLabel--><rect codeLine="55" fill="#FEFECE" filter="url(#fon3fblkrpm2r)" height="83.8594" id="AttributeLabel" style="stroke:#A80036;stroke-width:1.5;" width="186" x="3213" y="597.5"/><ellipse cx="3261.25" cy="617.5938" fill="#ADD1B2" rx="11" ry="11" style="stroke:#A80036;stroke-width:1.0;"/><path d="M3263.25,614.0938 Q3263.4531,613.5938 3263.6875,613.3438 Q3263.9219,613.0938 3264.1875,613.0938 Q3264.6563,613.0938 3264.9531,613.375 Q3265.25,613.6563 3265.25,614.3125 L3265.25,615.875 Q3265.25,616.5313 3264.9688,616.8125 Q3264.6875,617.0938 3264.25,617.0938 Q3263.8594,617.0938 3263.6094,616.9219 Q3263.3594,616.75 3263.25,616.2969 Q3263.2031,615.9844 3263.0313,615.8125 Q3262.7188,615.4844 3262.1563,615.2969 Q3261.5938,615.0938 3261.0313,615.0938 Q3260.3281,615.0938 3259.7344,615.375 Q3259.1563,615.6563 3258.7031,616.2813 Q3258.25,616.9063 3258.25,617.7656 L3258.25,618.6875 Q3258.25,619.7188 3259.0938,620.4063 Q3259.9375,621.0938 3261.4375,621.0938 Q3262.3281,621.0938 3262.9531,620.8906 Q3263.3125,620.7813 3263.7188,620.4219 Q3263.9844,620.2188 3264.125,620.1563 Q3264.2656,620.0938 3264.4375,620.0938 Q3264.7656,620.0938 3265,620.3594 Q3265.25,620.6094 3265.25,620.9688 Q3265.25,621.3125 3264.9063,621.7188 Q3264.4063,622.3125 3263.6094,622.6406 Q3262.5625,623.0938 3261.2813,623.0938 Q3259.7813,623.0938 3258.5781,622.5 Q3257.6094,622.0313 3256.9219,621.0156 Q3256.25,620 3256.25,618.7969 L3256.25,617.7031 Q3256.25,616.4531 3256.8438,615.3594 Q3257.4531,614.2656 3258.5,613.6875 Q3259.5625,613.0938 3260.75,613.0938 Q3261.4688,613.0938 3262.0938,613.3438 Q3262.7188,613.5938 3263.25,614.0938 Z " fill="#000000"/><text fill="#000000" font-family="sans-serif" font-size="12" font-style="italic" lengthAdjust="spacing" textLength="85" x="3279.75" y="614.957">«Value Object»</text><text fill="#000000" font-family="sans-serif" font-size="12" lengthAdjust="spacing" textLength="75" x="3284.75" y="630.0508">AttributeLabel</text><line style="stroke:#A80036;stroke-width:1.5;" x1="3214" x2="3398" y1="637.6875" y2="637.6875"/><line style="stroke:#A80036;stroke-width:1.5;" x1="3214" x2="3398" y1="645.6875" y2="645.6875"/><text fill="#000000" font-family="sans-serif" font-size="11" lengthAdjust="spacing" textLength="174" x="3219" y="661.1064">+createAtributoLabel(attributeLabel)</text><text fill="#000000" font-family="sans-serif" font-size="11" lengthAdjust="spacing" textLength="114" x="3219" y="674.9424">-validate(attributeLabel)</text><!--MD5=[4862e575995b54c71e16f8b6c129262c]
class AttributeDescription--><rect codeLine="60" fill="#FEFECE" filter="url(#fon3fblkrpm2r)" height="83.8594" id="AttributeDescription" style="stroke:#A80036;stroke-width:1.5;" width="245" x="2932.5" y="597.5"/><ellipse cx="2997.25" cy="617.5938" fill="#ADD1B2" rx="11" ry="11" style="stroke:#A80036;stroke-width:1.0;"/><path d="M2999.25,614.0938 Q2999.4531,613.5938 2999.6875,613.3438 Q2999.9219,613.0938 3000.1875,613.0938 Q3000.6563,613.0938 3000.9531,613.375 Q3001.25,613.6563 3001.25,614.3125 L3001.25,615.875 Q3001.25,616.5313 3000.9688,616.8125 Q3000.6875,617.0938 3000.25,617.0938 Q2999.8594,617.0938 2999.6094,616.9219 Q2999.3594,616.75 2999.25,616.2969 Q2999.2031,615.9844 2999.0313,615.8125 Q2998.7188,615.4844 2998.1563,615.2969 Q2997.5938,615.0938 2997.0313,615.0938 Q2996.3281,615.0938 2995.7344,615.375 Q2995.1563,615.6563 2994.7031,616.2813 Q2994.25,616.9063 2994.25,617.7656 L2994.25,618.6875 Q2994.25,619.7188 2995.0938,620.4063 Q2995.9375,621.0938 2997.4375,621.0938 Q2998.3281,621.0938 2998.9531,620.8906 Q2999.3125,620.7813 2999.7188,620.4219 Q2999.9844,620.2188 3000.125,620.1563 Q3000.2656,620.0938 3000.4375,620.0938 Q3000.7656,620.0938 3001,620.3594 Q3001.25,620.6094 3001.25,620.9688 Q3001.25,621.3125 3000.9063,621.7188 Q3000.4063,622.3125 2999.6094,622.6406 Q2998.5625,623.0938 2997.2813,623.0938 Q2995.7813,623.0938 2994.5781,622.5 Q2993.6094,622.0313 2992.9219,621.0156 Q2992.25,620 2992.25,618.7969 L2992.25,617.7031 Q2992.25,616.4531 2992.8438,615.3594 Q2993.4531,614.2656 2994.5,613.6875 Q2995.5625,613.0938 2996.75,613.0938 Q2997.4688,613.0938 2998.0938,613.3438 Q2998.7188,613.5938 2999.25,614.0938 Z " fill="#000000"/><text fill="#000000" font-family="sans-serif" font-size="12" font-style="italic" lengthAdjust="spacing" textLength="85" x="3028.75" y="614.957">«Value Object»</text><text fill="#000000" font-family="sans-serif" font-size="12" lengthAdjust="spacing" textLength="107" x="3017.75" y="630.0508">AttributeDescription</text><line style="stroke:#A80036;stroke-width:1.5;" x1="2933.5" x2="3176.5" y1="637.6875" y2="637.6875"/><line style="stroke:#A80036;stroke-width:1.5;" x1="2933.5" x2="3176.5" y1="645.6875" y2="645.6875"/><text fill="#000000" font-family="sans-serif" font-size="11" lengthAdjust="spacing" textLength="233" x="2938.5" y="661.1064">+createAttributeDescription(attributeDescription)</text><text fill="#000000" font-family="sans-serif" font-size="11" lengthAdjust="spacing" textLength="142" x="2938.5" y="674.9424">-validate(attributeDescription)</text><!--MD5=[b364529acba39bfc522f6b29f223163f]
class AttributeRegex--><rect codeLine="65" fill="#FEFECE" filter="url(#fon3fblkrpm2r)" height="83.8594" id="AttributeRegex" style="stroke:#A80036;stroke-width:1.5;" width="199" x="2698.5" y="597.5"/><ellipse cx="2753.25" cy="617.5938" fill="#ADD1B2" rx="11" ry="11" style="stroke:#A80036;stroke-width:1.0;"/><path d="M2755.25,614.0938 Q2755.4531,613.5938 2755.6875,613.3438 Q2755.9219,613.0938 2756.1875,613.0938 Q2756.6563,613.0938 2756.9531,613.375 Q2757.25,613.6563 2757.25,614.3125 L2757.25,615.875 Q2757.25,616.5313 2756.9688,616.8125 Q2756.6875,617.0938 2756.25,617.0938 Q2755.8594,617.0938 2755.6094,616.9219 Q2755.3594,616.75 2755.25,616.2969 Q2755.2031,615.9844 2755.0313,615.8125 Q2754.7188,615.4844 2754.1563,615.2969 Q2753.5938,615.0938 2753.0313,615.0938 Q2752.3281,615.0938 2751.7344,615.375 Q2751.1563,615.6563 2750.7031,616.2813 Q2750.25,616.9063 2750.25,617.7656 L2750.25,618.6875 Q2750.25,619.7188 2751.0938,620.4063 Q2751.9375,621.0938 2753.4375,621.0938 Q2754.3281,621.0938 2754.9531,620.8906 Q2755.3125,620.7813 2755.7188,620.4219 Q2755.9844,620.2188 2756.125,620.1563 Q2756.2656,620.0938 2756.4375,620.0938 Q2756.7656,620.0938 2757,620.3594 Q2757.25,620.6094 2757.25,620.9688 Q2757.25,621.3125 2756.9063,621.7188 Q2756.4063,622.3125 2755.6094,622.6406 Q2754.5625,623.0938 2753.2813,623.0938 Q2751.7813,623.0938 2750.5781,622.5 Q2749.6094,622.0313 2748.9219,621.0156 Q2748.25,620 2748.25,618.7969 L2748.25,617.7031 Q2748.25,616.4531 2748.8438,615.3594 Q2749.4531,614.2656 2750.5,613.6875 Q2751.5625,613.0938 2752.75,613.0938 Q2753.4688,613.0938 2754.0938,613.3438 Q2754.7188,613.5938 2755.25,614.0938 Z " fill="#000000"/><text fill="#000000" font-family="sans-serif" font-size="12" font-style="italic" lengthAdjust="spacing" textLength="85" x="2771.75" y="614.957">«Value Object»</text><text fill="#000000" font-family="sans-serif" font-size="12" lengthAdjust="spacing" textLength="79" x="2774.75" y="630.0508">AttributeRegex</text><line style="stroke:#A80036;stroke-width:1.5;" x1="2699.5" x2="2896.5" y1="637.6875" y2="637.6875"/><line style="stroke:#A80036;stroke-width:1.5;" x1="2699.5" x2="2896.5" y1="645.6875" y2="645.6875"/><text fill="#000000" font-family="sans-serif" font-size="11" lengthAdjust="spacing" textLength="187" x="2704.5" y="661.1064">+createAttributeRegex(attributeRegex)</text><text fill="#000000" font-family="sans-serif" font-size="11" lengthAdjust="spacing" textLength="119" x="2704.5" y="674.9424">-validate(attributeRegex)</text><!--MD5=[f7f675f870e9e40e2223e003a8668a3c]
class AttributeScript--><rect codeLine="70" fill="#FEFECE" filter="url(#fon3fblkrpm2r)" height="83.8594" id="AttributeScript" style="stroke:#A80036;stroke-width:1.5;" width="193" x="2470.5" y="597.5"/><ellipse cx="2522.25" cy="617.5938" fill="#ADD1B2" rx="11" ry="11" style="stroke:#A80036;stroke-width:1.0;"/><path d="M2524.25,614.0938 Q2524.4531,613.5938 2524.6875,613.3438 Q2524.9219,613.0938 2525.1875,613.0938 Q2525.6563,613.0938 2525.9531,613.375 Q2526.25,613.6563 2526.25,614.3125 L2526.25,615.875 Q2526.25,616.5313 2525.9688,616.8125 Q2525.6875,617.0938 2525.25,617.0938 Q2524.8594,617.0938 2524.6094,616.9219 Q2524.3594,616.75 2524.25,616.2969 Q2524.2031,615.9844 2524.0313,615.8125 Q2523.7188,615.4844 2523.1563,615.2969 Q2522.5938,615.0938 2522.0313,615.0938 Q2521.3281,615.0938 2520.7344,615.375 Q2520.1563,615.6563 2519.7031,616.2813 Q2519.25,616.9063 2519.25,617.7656 L2519.25,618.6875 Q2519.25,619.7188 2520.0938,620.4063 Q2520.9375,621.0938 2522.4375,621.0938 Q2523.3281,621.0938 2523.9531,620.8906 Q2524.3125,620.7813 2524.7188,620.4219 Q2524.9844,620.2188 2525.125,620.1563 Q2525.2656,620.0938 2525.4375,620.0938 Q2525.7656,620.0938 2526,620.3594 Q2526.25,620.6094 2526.25,620.9688 Q2526.25,621.3125 2525.9063,621.7188 Q2525.4063,622.3125 2524.6094,622.6406 Q2523.5625,623.0938 2522.2813,623.0938 Q2520.7813,623.0938 2519.5781,622.5 Q2518.6094,622.0313 2517.9219,621.0156 Q2517.25,620 2517.25,618.7969 L2517.25,617.7031 Q2517.25,616.4531 2517.8438,615.3594 Q2518.4531,614.2656 2519.5,613.6875 Q2520.5625,613.0938 2521.75,613.0938 Q2522.4688,613.0938 2523.0938,613.3438 Q2523.7188,613.5938 2524.25,614.0938 Z " fill="#000000"/><text fill="#000000" font-family="sans-serif" font-size="12" font-style="italic" lengthAdjust="spacing" textLength="85" x="2540.75" y="614.957">«Value Object»</text><text fill="#000000" font-family="sans-serif" font-size="12" lengthAdjust="spacing" textLength="75" x="2545.75" y="630.0508">AttributeScript</text><line style="stroke:#A80036;stroke-width:1.5;" x1="2471.5" x2="2662.5" y1="637.6875" y2="637.6875"/><line style="stroke:#A80036;stroke-width:1.5;" x1="2471.5" x2="2662.5" y1="645.6875" y2="645.6875"/><text fill="#000000" font-family="sans-serif" font-size="11" lengthAdjust="spacing" textLength="181" x="2476.5" y="661.1064">+createAttributeScript(attributeScript)</text><text fill="#000000" font-family="sans-serif" font-size="11" lengthAdjust="spacing" textLength="116" x="2476.5" y="674.9424">-validate(attributeScript)</text><!--MD5=[3949b939274c3ebd79b8ab92605ab7ed]
class DataType--><rect codeLine="75" fill="#FEFECE" filter="url(#fon3fblkrpm2r)" height="97.6953" id="DataType" style="stroke:#A80036;stroke-width:1.5;" width="148" x="2287" y="590.5"/><ellipse cx="2317.75" cy="610.5938" fill="#ADD1B2" rx="11" ry="11" style="stroke:#A80036;stroke-width:1.0;"/><path d="M2319.75,607.0938 Q2319.9531,606.5938 2320.1875,606.3438 Q2320.4219,606.0938 2320.6875,606.0938 Q2321.1563,606.0938 2321.4531,606.375 Q2321.75,606.6563 2321.75,607.3125 L2321.75,608.875 Q2321.75,609.5313 2321.4688,609.8125 Q2321.1875,610.0938 2320.75,610.0938 Q2320.3594,610.0938 2320.1094,609.9219 Q2319.8594,609.75 2319.75,609.2969 Q2319.7031,608.9844 2319.5313,608.8125 Q2319.2188,608.4844 2318.6563,608.2969 Q2318.0938,608.0938 2317.5313,608.0938 Q2316.8281,608.0938 2316.2344,608.375 Q2315.6563,608.6563 2315.2031,609.2813 Q2314.75,609.9063 2314.75,610.7656 L2314.75,611.6875 Q2314.75,612.7188 2315.5938,613.4063 Q2316.4375,614.0938 2317.9375,614.0938 Q2318.8281,614.0938 2319.4531,613.8906 Q2319.8125,613.7813 2320.2188,613.4219 Q2320.4844,613.2188 2320.625,613.1563 Q2320.7656,613.0938 2320.9375,613.0938 Q2321.2656,613.0938 2321.5,613.3594 Q2321.75,613.6094 2321.75,613.9688 Q2321.75,614.3125 2321.4063,614.7188 Q2320.9063,615.3125 2320.1094,615.6406 Q2319.0625,616.0938 2317.7813,616.0938 Q2316.2813,616.0938 2315.0781,615.5 Q2314.1094,615.0313 2313.4219,614.0156 Q2312.75,613 2312.75,611.7969 L2312.75,610.7031 Q2312.75,609.4531 2313.3438,608.3594 Q2313.9531,607.2656 2315,606.6875 Q2316.0625,606.0938 2317.25,606.0938 Q2317.9688,606.0938 2318.5938,606.3438 Q2319.2188,606.5938 2319.75,607.0938 Z " fill="#000000"/><text fill="#000000" font-family="sans-serif" font-size="12" font-style="italic" lengthAdjust="spacing" textLength="85" x="2333.25" y="607.957">«Value Object»</text><text fill="#000000" font-family="sans-serif" font-size="12" lengthAdjust="spacing" textLength="52" x="2349.75" y="623.0508">DataType</text><line style="stroke:#A80036;stroke-width:1.5;" x1="2288" x2="2434" y1="630.6875" y2="630.6875"/><line style="stroke:#A80036;stroke-width:1.5;" x1="2288" x2="2434" y1="638.6875" y2="638.6875"/><text fill="#000000" font-family="sans-serif" font-size="11" lengthAdjust="spacing" textLength="136" x="2293" y="654.1064">+createDataType(dataType)</text><text fill="#000000" font-family="sans-serif" font-size="11" lengthAdjust="spacing" textLength="46" x="2293" y="667.9424">+values()</text><text fill="#000000" font-family="sans-serif" font-size="11" lengthAdjust="spacing" textLength="94" x="2293" y="681.7783">-validate(dataType)</text><!--MD5=[552a4e0091f456c26441f4ab52a9c8b5]
class FormBuilder--><rect codeLine="83" fill="#FEFECE" filter="url(#fon3fblkrpm2r)" height="125.3672" id="FormBuilder" style="stroke:#A80036;stroke-width:1.5;" width="161" x="3660.5" y="577"/><ellipse cx="3702.95" cy="597.0938" fill="#ADD1B2" rx="11" ry="11" style="stroke:#A80036;stroke-width:1.0;"/><path d="M3704.95,593.5938 Q3705.1531,593.0938 3705.3875,592.8438 Q3705.6219,592.5938 3705.8875,592.5938 Q3706.3563,592.5938 3706.6531,592.875 Q3706.95,593.1563 3706.95,593.8125 L3706.95,595.375 Q3706.95,596.0313 3706.6688,596.3125 Q3706.3875,596.5938 3705.95,596.5938 Q3705.5594,596.5938 3705.3094,596.4219 Q3705.0594,596.25 3704.95,595.7969 Q3704.9031,595.4844 3704.7313,595.3125 Q3704.4188,594.9844 3703.8563,594.7969 Q3703.2938,594.5938 3702.7313,594.5938 Q3702.0281,594.5938 3701.4344,594.875 Q3700.8563,595.1563 3700.4031,595.7813 Q3699.95,596.4063 3699.95,597.2656 L3699.95,598.1875 Q3699.95,599.2188 3700.7938,599.9063 Q3701.6375,600.5938 3703.1375,600.5938 Q3704.0281,600.5938 3704.6531,600.3906 Q3705.0125,600.2813 3705.4188,599.9219 Q3705.6844,599.7188 3705.825,599.6563 Q3705.9656,599.5938 3706.1375,599.5938 Q3706.4656,599.5938 3706.7,599.8594 Q3706.95,600.1094 3706.95,600.4688 Q3706.95,600.8125 3706.6063,601.2188 Q3706.1063,601.8125 3705.3094,602.1406 Q3704.2625,602.5938 3702.9813,602.5938 Q3701.4813,602.5938 3700.2781,602 Q3699.3094,601.5313 3698.6219,600.5156 Q3697.95,599.5 3697.95,598.2969 L3697.95,597.2031 Q3697.95,595.9531 3698.5438,594.8594 Q3699.1531,593.7656 3700.2,593.1875 Q3701.2625,592.5938 3702.45,592.5938 Q3703.1688,592.5938 3703.7938,592.8438 Q3704.4188,593.0938 3704.95,593.5938 Z " fill="#000000"/><text fill="#000000" font-family="sans-serif" font-size="12" font-style="italic" lengthAdjust="spacing" textLength="53" x="3730.55" y="594.457">«builder»</text><text fill="#000000" font-family="sans-serif" font-size="12" lengthAdjust="spacing" textLength="68" x="3723.05" y="609.5508">FormBuilder</text><line style="stroke:#A80036;stroke-width:1.5;" x1="3661.5" x2="3820.5" y1="617.1875" y2="617.1875"/><line style="stroke:#A80036;stroke-width:1.5;" x1="3661.5" x2="3820.5" y1="625.1875" y2="625.1875"/><text fill="#000000" font-family="sans-serif" font-size="11" lengthAdjust="spacing" textLength="45" x="3666.5" y="640.6064">+create()</text><text fill="#000000" font-family="sans-serif" font-size="11" lengthAdjust="spacing" textLength="88" x="3666.5" y="654.4424">+withName(name)</text><text fill="#000000" font-family="sans-serif" font-size="11" lengthAdjust="spacing" textLength="129" x="3666.5" y="668.2783">+withFormType(formType)</text><text fill="#000000" font-family="sans-serif" font-size="11" lengthAdjust="spacing" textLength="149" x="3666.5" y="682.1143">+withAttributeList(attributeList)</text><text fill="#000000" font-family="sans-serif" font-size="11" lengthAdjust="spacing" textLength="36" x="3666.5" y="695.9502">+build()</text><!--MD5=[48296f855dadaf4112ca95d4dd3a387a]
class AttributeBuilder--><rect codeLine="91" fill="#FEFECE" filter="url(#fon3fblkrpm2r)" height="166.875" id="AttributeBuilder" style="stroke:#A80036;stroke-width:1.5;" width="154" x="3857" y="556"/><ellipse cx="3889.55" cy="576.0938" fill="#ADD1B2" rx="11" ry="11" style="stroke:#A80036;stroke-width:1.0;"/><path d="M3891.55,572.5938 Q3891.7531,572.0938 3891.9875,571.8438 Q3892.2219,571.5938 3892.4875,571.5938 Q3892.9563,571.5938 3893.2531,571.875 Q3893.55,572.1563 3893.55,572.8125 L3893.55,574.375 Q3893.55,575.0313 3893.2688,575.3125 Q3892.9875,575.5938 3892.55,575.5938 Q3892.1594,575.5938 3891.9094,575.4219 Q3891.6594,575.25 3891.55,574.7969 Q3891.5031,574.4844 3891.3313,574.3125 Q3891.0188,573.9844 3890.4563,573.7969 Q3889.8938,573.5938 3889.3313,573.5938 Q3888.6281,573.5938 3888.0344,573.875 Q3887.4563,574.1563 3887.0031,574.7813 Q3886.55,575.4063 3886.55,576.2656 L3886.55,577.1875 Q3886.55,578.2188 3887.3938,578.9063 Q3888.2375,579.5938 3889.7375,579.5938 Q3890.6281,579.5938 3891.2531,579.3906 Q3891.6125,579.2813 3892.0188,578.9219 Q3892.2844,578.7188 3892.425,578.6563 Q3892.5656,578.5938 3892.7375,578.5938 Q3893.0656,578.5938 3893.3,578.8594 Q3893.55,579.1094 3893.55,579.4688 Q3893.55,579.8125 3893.2063,580.2188 Q3892.7063,580.8125 3891.9094,581.1406 Q3890.8625,581.5938 3889.5813,581.5938 Q3888.0813,581.5938 3886.8781,581 Q3885.9094,580.5313 3885.2219,579.5156 Q3884.55,578.5 3884.55,577.2969 L3884.55,576.2031 Q3884.55,574.9531 3885.1438,573.8594 Q3885.7531,572.7656 3886.8,572.1875 Q3887.8625,571.5938 3889.05,571.5938 Q3889.7688,571.5938 3890.3938,571.8438 Q3891.0188,572.0938 3891.55,572.5938 Z " fill="#000000"/><text fill="#000000" font-family="sans-serif" font-size="12" font-style="italic" lengthAdjust="spacing" textLength="53" x="3922.45" y="573.457">«builder»</text><text fill="#000000" font-family="sans-serif" font-size="12" lengthAdjust="spacing" textLength="83" x="3907.45" y="588.5508">AttributeBuilder</text><line style="stroke:#A80036;stroke-width:1.5;" x1="3858" x2="4010" y1="596.1875" y2="596.1875"/><line style="stroke:#A80036;stroke-width:1.5;" x1="3858" x2="4010" y1="604.1875" y2="604.1875"/><text fill="#000000" font-family="sans-serif" font-size="11" lengthAdjust="spacing" textLength="45" x="3863" y="619.6064">+create()</text><text fill="#000000" font-family="sans-serif" font-size="11" lengthAdjust="spacing" textLength="88" x="3863" y="633.4424">+withName(name)</text><text fill="#000000" font-family="sans-serif" font-size="11" lengthAdjust="spacing" textLength="83" x="3863" y="647.2783">+withLabel(label)</text><text fill="#000000" font-family="sans-serif" font-size="11" lengthAdjust="spacing" textLength="142" x="3863" y="661.1143">+withDescription(description)</text><text fill="#000000" font-family="sans-serif" font-size="11" lengthAdjust="spacing" textLength="94" x="3863" y="674.9502">+withRegex(regex)</text><text fill="#000000" font-family="sans-serif" font-size="11" lengthAdjust="spacing" textLength="107" x="3863" y="688.7861">+withScript(scriptPath</text><text fill="#000000" font-family="sans-serif" font-size="11" lengthAdjust="spacing" textLength="126" x="3863" y="702.6221">+withDataType(dataType)</text><text fill="#000000" font-family="sans-serif" font-size="11" lengthAdjust="spacing" textLength="36" x="3863" y="716.458">+build()</text><!--MD5=[e8c189551b7885b999ad7cefb30fc2a3]
class PersistenceContext--><rect codeLine="107" fill="#FEFECE" filter="url(#fon3fblkrpm2r)" height="70.0234" id="PersistenceContext" style="stroke:#A80036;stroke-width:1.5;" width="139" x="32.5" y="604.5"/><ellipse cx="47.5" cy="624.5938" fill="#ADD1B2" rx="11" ry="11" style="stroke:#A80036;stroke-width:1.0;"/><path d="M49.5,621.0938 Q49.7031,620.5938 49.9375,620.3438 Q50.1719,620.0938 50.4375,620.0938 Q50.9063,620.0938 51.2031,620.375 Q51.5,620.6563 51.5,621.3125 L51.5,622.875 Q51.5,623.5313 51.2188,623.8125 Q50.9375,624.0938 50.5,624.0938 Q50.1094,624.0938 49.8594,623.9219 Q49.6094,623.75 49.5,623.2969 Q49.4531,622.9844 49.2813,622.8125 Q48.9688,622.4844 48.4063,622.2969 Q47.8438,622.0938 47.2813,622.0938 Q46.5781,622.0938 45.9844,622.375 Q45.4063,622.6563 44.9531,623.2813 Q44.5,623.9063 44.5,624.7656 L44.5,625.6875 Q44.5,626.7188 45.3438,627.4063 Q46.1875,628.0938 47.6875,628.0938 Q48.5781,628.0938 49.2031,627.8906 Q49.5625,627.7813 49.9688,627.4219 Q50.2344,627.2188 50.375,627.1563 Q50.5156,627.0938 50.6875,627.0938 Q51.0156,627.0938 51.25,627.3594 Q51.5,627.6094 51.5,627.9688 Q51.5,628.3125 51.1563,628.7188 Q50.6563,629.3125 49.8594,629.6406 Q48.8125,630.0938 47.5313,630.0938 Q46.0313,630.0938 44.8281,629.5 Q43.8594,629.0313 43.1719,628.0156 Q42.5,627 42.5,625.7969 L42.5,624.7031 Q42.5,623.4531 43.0938,622.3594 Q43.7031,621.2656 44.75,620.6875 Q45.8125,620.0938 47,620.0938 Q47.7188,620.0938 48.3438,620.3438 Q48.9688,620.5938 49.5,621.0938 Z " fill="#000000"/><text fill="#000000" font-family="sans-serif" font-size="12" font-style="italic" lengthAdjust="spacing" textLength="77" x="76.5" y="621.957">«persistence»</text><text fill="#000000" font-family="sans-serif" font-size="12" lengthAdjust="spacing" textLength="107" x="61.5" y="637.0508">PersistenceContext</text><line style="stroke:#A80036;stroke-width:1.5;" x1="33.5" x2="170.5" y1="644.6875" y2="644.6875"/><line style="stroke:#A80036;stroke-width:1.5;" x1="33.5" x2="170.5" y1="652.6875" y2="652.6875"/><text fill="#000000" font-family="sans-serif" font-size="11" lengthAdjust="spacing" textLength="71" x="38.5" y="668.1064">+repositories()</text><!--MD5=[b8e4c95865208c934bfcfda4f90bf50c]
class AppSettings--><rect codeLine="111" fill="#FEFECE" filter="url(#fon3fblkrpm2r)" height="83.8594" id="AppSettings" style="stroke:#A80036;stroke-width:1.5;" width="130" x="275" y="597.5"/><ellipse cx="301.25" cy="617.5938" fill="#ADD1B2" rx="11" ry="11" style="stroke:#A80036;stroke-width:1.0;"/><path d="M303.25,614.0938 Q303.4531,613.5938 303.6875,613.3438 Q303.9219,613.0938 304.1875,613.0938 Q304.6563,613.0938 304.9531,613.375 Q305.25,613.6563 305.25,614.3125 L305.25,615.875 Q305.25,616.5313 304.9688,616.8125 Q304.6875,617.0938 304.25,617.0938 Q303.8594,617.0938 303.6094,616.9219 Q303.3594,616.75 303.25,616.2969 Q303.2031,615.9844 303.0313,615.8125 Q302.7188,615.4844 302.1563,615.2969 Q301.5938,615.0938 301.0313,615.0938 Q300.3281,615.0938 299.7344,615.375 Q299.1563,615.6563 298.7031,616.2813 Q298.25,616.9063 298.25,617.7656 L298.25,618.6875 Q298.25,619.7188 299.0938,620.4063 Q299.9375,621.0938 301.4375,621.0938 Q302.3281,621.0938 302.9531,620.8906 Q303.3125,620.7813 303.7188,620.4219 Q303.9844,620.2188 304.125,620.1563 Q304.2656,620.0938 304.4375,620.0938 Q304.7656,620.0938 305,620.3594 Q305.25,620.6094 305.25,620.9688 Q305.25,621.3125 304.9063,621.7188 Q304.4063,622.3125 303.6094,622.6406 Q302.5625,623.0938 301.2813,623.0938 Q299.7813,623.0938 298.5781,622.5 Q297.6094,622.0313 296.9219,621.0156 Q296.25,620 296.25,618.7969 L296.25,617.7031 Q296.25,616.4531 296.8438,615.3594 Q297.4531,614.2656 298.5,613.6875 Q299.5625,613.0938 300.75,613.0938 Q301.4688,613.0938 302.0938,613.3438 Q302.7188,613.5938 303.25,614.0938 Z " fill="#000000"/><text fill="#000000" font-family="sans-serif" font-size="12" font-style="italic" lengthAdjust="spacing" textLength="77" x="315.75" y="614.957">«persistence»</text><text fill="#000000" font-family="sans-serif" font-size="12" lengthAdjust="spacing" textLength="66" x="321.25" y="630.0508">AppSettings</text><line style="stroke:#A80036;stroke-width:1.5;" x1="276" x2="404" y1="637.6875" y2="637.6875"/><line style="stroke:#A80036;stroke-width:1.5;" x1="276" x2="404" y1="645.6875" y2="645.6875"/><text fill="#000000" font-family="sans-serif" font-size="11" lengthAdjust="spacing" textLength="55" x="281" y="661.1064">+instance()</text><text fill="#000000" font-family="sans-serif" font-size="11" lengthAdjust="spacing" textLength="118" x="281" y="674.9424">+getRepositoryFactory()</text><!--MD5=[48590afff58a68e2fcba47824d6f8a11]
class RepositoryFactory--><rect codeLine="117" fill="#FEFECE" filter="url(#fon3fblkrpm2r)" height="111.5313" id="RepositoryFactory" style="stroke:#A80036;stroke-width:1.5;" width="130" x="902" y="583.5"/><ellipse cx="917" cy="603.5938" fill="#ADD1B2" rx="11" ry="11" style="stroke:#A80036;stroke-width:1.0;"/><path d="M919,600.0938 Q919.2031,599.5938 919.4375,599.3438 Q919.6719,599.0938 919.9375,599.0938 Q920.4063,599.0938 920.7031,599.375 Q921,599.6563 921,600.3125 L921,601.875 Q921,602.5313 920.7188,602.8125 Q920.4375,603.0938 920,603.0938 Q919.6094,603.0938 919.3594,602.9219 Q919.1094,602.75 919,602.2969 Q918.9531,601.9844 918.7813,601.8125 Q918.4688,601.4844 917.9063,601.2969 Q917.3438,601.0938 916.7813,601.0938 Q916.0781,601.0938 915.4844,601.375 Q914.9063,601.6563 914.4531,602.2813 Q914,602.9063 914,603.7656 L914,604.6875 Q914,605.7188 914.8438,606.4063 Q915.6875,607.0938 917.1875,607.0938 Q918.0781,607.0938 918.7031,606.8906 Q919.0625,606.7813 919.4688,606.4219 Q919.7344,606.2188 919.875,606.1563 Q920.0156,606.0938 920.1875,606.0938 Q920.5156,606.0938 920.75,606.3594 Q921,606.6094 921,606.9688 Q921,607.3125 920.6563,607.7188 Q920.1563,608.3125 919.3594,608.6406 Q918.3125,609.0938 917.0313,609.0938 Q915.5313,609.0938 914.3281,608.5 Q913.3594,608.0313 912.6719,607.0156 Q912,606 912,604.7969 L912,603.7031 Q912,602.4531 912.5938,601.3594 Q913.2031,600.2656 914.25,599.6875 Q915.3125,599.0938 916.5,599.0938 Q917.2188,599.0938 917.8438,599.3438 Q918.4688,599.5938 919,600.0938 Z " fill="#000000"/><text fill="#000000" font-family="sans-serif" font-size="12" font-style="italic" lengthAdjust="spacing" textLength="77" x="941.5" y="600.957">«persistence»</text><text fill="#000000" font-family="sans-serif" font-size="12" lengthAdjust="spacing" textLength="98" x="931" y="616.0508">RepositoryFactory</text><line style="stroke:#A80036;stroke-width:1.5;" x1="903" x2="1031" y1="623.6875" y2="623.6875"/><line style="stroke:#A80036;stroke-width:1.5;" x1="903" x2="1031" y1="631.6875" y2="631.6875"/><text fill="#000000" font-family="sans-serif" font-size="11" lengthAdjust="spacing" textLength="45" x="908" y="647.1064">+create()</text><text fill="#000000" font-family="sans-serif" font-size="11" lengthAdjust="spacing" textLength="56" x="908" y="660.9424">+servicos()</text><text fill="#000000" font-family="sans-serif" font-size="11" lengthAdjust="spacing" textLength="61" x="908" y="674.7783">+catalogos()</text><text fill="#000000" font-family="sans-serif" font-size="11" lengthAdjust="spacing" textLength="68" x="908" y="688.6143">+formularios()</text><!--MD5=[c442d1a7174f61885988a69cb0f958b4]
class ServiceDraftRepository--><rect codeLine="127" fill="#FEFECE" filter="url(#fon3fblkrpm2r)" height="97.6953" id="ServiceDraftRepository" style="stroke:#A80036;stroke-width:1.5;" width="157" x="632.5" y="590.5"/><ellipse cx="647.5" cy="610.5938" fill="#ADD1B2" rx="11" ry="11" style="stroke:#A80036;stroke-width:1.0;"/><path d="M649.5,607.0938 Q649.7031,606.5938 649.9375,606.3438 Q650.1719,606.0938 650.4375,606.0938 Q650.9063,606.0938 651.2031,606.375 Q651.5,606.6563 651.5,607.3125 L651.5,608.875 Q651.5,609.5313 651.2188,609.8125 Q650.9375,610.0938 650.5,610.0938 Q650.1094,610.0938 649.8594,609.9219 Q649.6094,609.75 649.5,609.2969 Q649.4531,608.9844 649.2813,608.8125 Q648.9688,608.4844 648.4063,608.2969 Q647.8438,608.0938 647.2813,608.0938 Q646.5781,608.0938 645.9844,608.375 Q645.4063,608.6563 644.9531,609.2813 Q644.5,609.9063 644.5,610.7656 L644.5,611.6875 Q644.5,612.7188 645.3438,613.4063 Q646.1875,614.0938 647.6875,614.0938 Q648.5781,614.0938 649.2031,613.8906 Q649.5625,613.7813 649.9688,613.4219 Q650.2344,613.2188 650.375,613.1563 Q650.5156,613.0938 650.6875,613.0938 Q651.0156,613.0938 651.25,613.3594 Q651.5,613.6094 651.5,613.9688 Q651.5,614.3125 651.1563,614.7188 Q650.6563,615.3125 649.8594,615.6406 Q648.8125,616.0938 647.5313,616.0938 Q646.0313,616.0938 644.8281,615.5 Q643.8594,615.0313 643.1719,614.0156 Q642.5,613 642.5,611.7969 L642.5,610.7031 Q642.5,609.4531 643.0938,608.3594 Q643.7031,607.2656 644.75,606.6875 Q645.8125,606.0938 647,606.0938 Q647.7188,606.0938 648.3438,606.3438 Q648.9688,606.5938 649.5,607.0938 Z " fill="#000000"/><text fill="#000000" font-family="sans-serif" font-size="12" font-style="italic" lengthAdjust="spacing" textLength="68" x="690" y="607.957">«repository»</text><text fill="#000000" font-family="sans-serif" font-size="12" lengthAdjust="spacing" textLength="125" x="661.5" y="623.0508">ServiceDraftRepository</text><line style="stroke:#A80036;stroke-width:1.5;" x1="633.5" x2="788.5" y1="630.6875" y2="630.6875"/><line style="stroke:#A80036;stroke-width:1.5;" x1="633.5" x2="788.5" y1="638.6875" y2="638.6875"/><text fill="#000000" font-family="sans-serif" font-size="11" lengthAdjust="spacing" textLength="45" x="638.5" y="654.1064">+create()</text><text fill="#000000" font-family="sans-serif" font-size="11" lengthAdjust="spacing" textLength="44" x="638.5" y="667.9424">+findAll()</text><text fill="#000000" font-family="sans-serif" font-size="11" lengthAdjust="spacing" textLength="98" x="638.5" y="681.7783">+save(serviceDraft)</text><!--MD5=[82131b75822bd28ea4d9cf09bc194e6e]
class FormRepository--><rect codeLine="133" fill="#FEFECE" filter="url(#fon3fblkrpm2r)" height="83.8594" id="FormRepository" style="stroke:#A80036;stroke-width:1.5;" width="120" x="477" y="597.5"/><ellipse cx="492" cy="617.5938" fill="#ADD1B2" rx="11" ry="11" style="stroke:#A80036;stroke-width:1.0;"/><path d="M494,614.0938 Q494.2031,613.5938 494.4375,613.3438 Q494.6719,613.0938 494.9375,613.0938 Q495.4063,613.0938 495.7031,613.375 Q496,613.6563 496,614.3125 L496,615.875 Q496,616.5313 495.7188,616.8125 Q495.4375,617.0938 495,617.0938 Q494.6094,617.0938 494.3594,616.9219 Q494.1094,616.75 494,616.2969 Q493.9531,615.9844 493.7813,615.8125 Q493.4688,615.4844 492.9063,615.2969 Q492.3438,615.0938 491.7813,615.0938 Q491.0781,615.0938 490.4844,615.375 Q489.9063,615.6563 489.4531,616.2813 Q489,616.9063 489,617.7656 L489,618.6875 Q489,619.7188 489.8438,620.4063 Q490.6875,621.0938 492.1875,621.0938 Q493.0781,621.0938 493.7031,620.8906 Q494.0625,620.7813 494.4688,620.4219 Q494.7344,620.2188 494.875,620.1563 Q495.0156,620.0938 495.1875,620.0938 Q495.5156,620.0938 495.75,620.3594 Q496,620.6094 496,620.9688 Q496,621.3125 495.6563,621.7188 Q495.1563,622.3125 494.3594,622.6406 Q493.3125,623.0938 492.0313,623.0938 Q490.5313,623.0938 489.3281,622.5 Q488.3594,622.0313 487.6719,621.0156 Q487,620 487,618.7969 L487,617.7031 Q487,616.4531 487.5938,615.3594 Q488.2031,614.2656 489.25,613.6875 Q490.3125,613.0938 491.5,613.0938 Q492.2188,613.0938 492.8438,613.3438 Q493.4688,613.5938 494,614.0938 Z " fill="#000000"/><text fill="#000000" font-family="sans-serif" font-size="12" font-style="italic" lengthAdjust="spacing" textLength="68" x="516" y="614.957">«repository»</text><text fill="#000000" font-family="sans-serif" font-size="12" lengthAdjust="spacing" textLength="88" x="506" y="630.0508">FormRepository</text><line style="stroke:#A80036;stroke-width:1.5;" x1="478" x2="596" y1="637.6875" y2="637.6875"/><line style="stroke:#A80036;stroke-width:1.5;" x1="478" x2="596" y1="645.6875" y2="645.6875"/><text fill="#000000" font-family="sans-serif" font-size="11" lengthAdjust="spacing" textLength="45" x="483" y="661.1064">+create()</text><text fill="#000000" font-family="sans-serif" font-size="11" lengthAdjust="spacing" textLength="60" x="483" y="674.9424">+save(form)</text><!--MD5=[22f89721c89d5b9566a4ffee303fac63]
class ServiceDraftRepositoryInterface--><rect codeLine="138" fill="#FEFECE" filter="url(#fon3fblkrpm2r)" height="48" id="ServiceDraftRepositoryInterface" style="stroke:#A80036;stroke-width:1.5;" width="206" x="640" y="810"/><ellipse cx="655" cy="826" fill="#B4A7E5" rx="11" ry="11" style="stroke:#A80036;stroke-width:1.0;"/><path d="M656,823 L656,829 L658,829 L658.4844,829 L659,829.625 L659,830 L659,830.375 L658.4844,831 L658,831 L652,831 L651.5156,831 L651,830.375 L651,830 L651,829.625 L651.5156,829 L652,829 L654,829 L654,823 L652,823 L651.5156,823 L651,822.375 L651,822 L651,821.625 L651.5156,821 L652,821 L658,821 L658.4844,821 L659,821.625 L659,822 L659,822.375 L658.4844,823 L658,823 L656,823 Z " fill="#000000"/><text fill="#000000" font-family="sans-serif" font-size="12" font-style="italic" lengthAdjust="spacing" textLength="174" x="669" y="830.9102">ServiceDraftRepositoryInterface</text><line style="stroke:#A80036;stroke-width:1.5;" x1="641" x2="845" y1="842" y2="842"/><line style="stroke:#A80036;stroke-width:1.5;" x1="641" x2="845" y1="850" y2="850"/><!--MD5=[ba3c83a124400fabba0dfe18de4b6f9c]
class FormRepositoryInterface--><rect codeLine="142" fill="#FEFECE" filter="url(#fon3fblkrpm2r)" height="48" id="FormRepositoryInterface" style="stroke:#A80036;stroke-width:1.5;" width="168" x="437" y="810"/><ellipse cx="452" cy="826" fill="#B4A7E5" rx="11" ry="11" style="stroke:#A80036;stroke-width:1.0;"/><path d="M453,823 L453,829 L455,829 L455.4844,829 L456,829.625 L456,830 L456,830.375 L455.4844,831 L455,831 L449,831 L448.5156,831 L448,830.375 L448,830 L448,829.625 L448.5156,829 L449,829 L451,829 L451,823 L449,823 L448.5156,823 L448,822.375 L448,822 L448,821.625 L448.5156,821 L449,821 L455,821 L455.4844,821 L456,821.625 L456,822 L456,822.375 L455.4844,823 L455,823 L453,823 Z " fill="#000000"/><text fill="#000000" font-family="sans-serif" font-size="12" font-style="italic" lengthAdjust="spacing" textLength="136" x="466" y="830.9102">FormRepositoryInterface</text><line style="stroke:#A80036;stroke-width:1.5;" x1="438" x2="604" y1="842" y2="842"/><line style="stroke:#A80036;stroke-width:1.5;" x1="438" x2="604" y1="850" y2="850"/><!--MD5=[ec56947251e719f182fa47cf51924cbb]
link ServiceDraftFormSpecificationUI to ServiceDraftSpecificationController--><path codeLine="150" d="M3741,118.17 C3741,143.2 3741,181.76 3741,217.41 " fill="none" id="ServiceDraftFormSpecificationUI-to-ServiceDraftSpecificationController" style="stroke:#A80036;stroke-width:1.0;stroke-dasharray:7.0,7.0;"/><polygon fill="#A80036" points="3741,222.64,3745,213.64,3741,217.64,3737,213.64,3741,222.64" style="stroke:#A80036;stroke-width:1.0;"/><!--MD5=[ead3634b19a55fdd9013fd6361107340]
link ServiceDraftSpecificationController to FormBuilder--><path codeLine="151" d="M3741,390.17 C3741,446.29 3741,519.52 3741,571.89 " fill="none" id="ServiceDraftSpecificationController-to-FormBuilder" style="stroke:#A80036;stroke-width:1.0;stroke-dasharray:7.0,7.0;"/><polygon fill="#A80036" points="3741,576.89,3745,567.89,3741,571.89,3737,567.89,3741,576.89" style="stroke:#A80036;stroke-width:1.0;"/><!--MD5=[303828f9ab2f6cf7c45b5a8933dbb7cb]
link ServiceDraftSpecificationController to AttributeBuilder--><path codeLine="152" d="M3801.62,390.13 C3814.49,408.82 3827.61,428.82 3839,448 C3858.51,480.86 3877.76,518.26 3893.78,551.17 " fill="none" id="ServiceDraftSpecificationController-to-AttributeBuilder" style="stroke:#A80036;stroke-width:1.0;stroke-dasharray:7.0,7.0;"/><polygon fill="#A80036" points="3896.12,555.99,3895.7859,546.1468,3893.9355,551.4925,3888.5898,549.642,3896.12,555.99" style="stroke:#A80036;stroke-width:1.0;"/><!--MD5=[c4515eb8dbaedaae32cf288fd2687d91]
link ServiceDraftSpecificationController to PersistenceContext--><path codeLine="153" d="M3572.49,313.38 C3120.56,329.28 1843.87,375.11 782,422 C549.05,432.29 466.2,343 258,448 C193.05,480.75 145.53,554.13 120.95,599.65 " fill="none" id="ServiceDraftSpecificationController-to-PersistenceContext" style="stroke:#A80036;stroke-width:1.0;stroke-dasharray:7.0,7.0;"/><polygon fill="#A80036" points="118.5,604.24,126.2678,598.1851,120.8552,599.8294,119.2108,594.4168,118.5,604.24" style="stroke:#A80036;stroke-width:1.0;"/><!--MD5=[013c093f641f8740a568aa5157f9e0d6]
link ServiceDraftRepository to ServiceDraftRepositoryInterface--><path codeLine="155" d="M718.99,688.58 C725.08,725.21 733.26,774.39 738.32,804.87 " fill="none" id="ServiceDraftRepository-to-ServiceDraftRepositoryInterface" style="stroke:#A80036;stroke-width:1.0;stroke-dasharray:7.0,7.0;"/><polygon fill="#A80036" points="739.17,809.97,741.6494,800.4383,738.355,805.0369,733.7564,801.7424,739.17,809.97" style="stroke:#A80036;stroke-width:1.0;"/><!--MD5=[8662b398a7001c851f34692a3fbdfdb1]
link FormRepository to FormRepositoryInterface--><path codeLine="156" d="M533.57,681.8 C530.48,718.92 526.03,772.44 523.34,804.85 " fill="none" id="FormRepository-to-FormRepositoryInterface" style="stroke:#A80036;stroke-width:1.0;stroke-dasharray:7.0,7.0;"/><polygon fill="#A80036" points="522.92,809.86,527.6515,801.2221,523.334,804.8772,519.679,800.5597,522.92,809.86" style="stroke:#A80036;stroke-width:1.0;"/><!--MD5=[d66efb439816738ddd3e9d5fff4bf3a7]
link AppSettings to RepositoryFactory--><path codeLine="158" d="M346.53,597.43 C355.46,555.96 375.85,494.75 421,466 C503.66,413.36 776.63,417.88 862,466 C904.44,489.92 931.68,538.68 947.75,578.43 " fill="none" id="AppSettings-to-RepositoryFactory" style="stroke:#A80036;stroke-width:1.0;"/><polygon fill="#A80036" points="949.65,583.23,950.0579,573.3896,947.8103,578.5808,942.6191,576.3332,949.65,583.23" style="stroke:#A80036;stroke-width:1.0;"/><text fill="#000000" font-family="sans-serif" font-size="13" lengthAdjust="spacing" textLength="43" x="830.5" y="436.4951">creates</text><!--MD5=[27fe1c91fe18bafc5695938053528609]
link PersistenceContext to AppSettings--><path codeLine="159" d="M171.8,639.5 C202.53,639.5 238.57,639.5 269.39,639.5 " fill="none" id="PersistenceContext-to-AppSettings" style="stroke:#A80036;stroke-width:1.0;"/><polygon fill="#A80036" points="274.69,639.5,265.69,635.5,269.69,639.5,265.69,643.5,274.69,639.5" style="stroke:#A80036;stroke-width:1.0;"/><text fill="#000000" font-family="sans-serif" font-size="13" lengthAdjust="spacing" textLength="67" x="189.75" y="632.9951">implements</text><!--MD5=[c099f118843079ed39661509eb060af6]
link RepositoryFactory to ServiceDraftRepository--><path codeLine="161" d="M901.94,639.5 C869.34,639.5 829.49,639.5 794.65,639.5 " fill="none" id="RepositoryFactory-to-ServiceDraftRepository" style="stroke:#A80036;stroke-width:1.0;"/><polygon fill="#A80036" points="789.55,639.5,798.55,643.5,794.55,639.5,798.55,635.5,789.55,639.5" style="stroke:#A80036;stroke-width:1.0;"/><text fill="#000000" font-family="sans-serif" font-size="13" lengthAdjust="spacing" textLength="21" x="835.25" y="632.9951">has</text><text fill="#000000" font-family="sans-serif" font-size="13" lengthAdjust="spacing" textLength="7" x="887.0128" y="636.1175">1</text><text fill="#000000" font-family="sans-serif" font-size="13" lengthAdjust="spacing" textLength="7" x="797.6268" y="636.2399">1</text><!--MD5=[ba8ab1a505d555209a92eac3cb0969e8]
link RepositoryFactory to FormRepository--><path codeLine="162" d="M949.65,583.23 C933.87,542.68 906.17,490.9 862,466 C766.37,412.09 707.18,406.38 615,466 C572.1,493.75 552.56,551.33 543.82,592.54 " fill="none" id="RepositoryFactory-to-FormRepository" style="stroke:#A80036;stroke-width:1.0;"/><polygon fill="#A80036" points="542.81,597.49,548.5289,589.4716,543.8098,592.591,540.6904,587.8719,542.81,597.49" style="stroke:#A80036;stroke-width:1.0;"/><text fill="#000000" font-family="sans-serif" font-size="13" lengthAdjust="spacing" textLength="21" x="880.5" y="436.4951">has</text><text fill="#000000" font-family="sans-serif" font-size="13" lengthAdjust="spacing" textLength="7" x="939.9786" y="572.5431">1</text><text fill="#000000" font-family="sans-serif" font-size="13" lengthAdjust="spacing" textLength="7" x="536.1926" y="586.743">1</text><!--MD5=[d53e096ef2f9280c1f0af98ac059945b]
link ServiceDraftRepository to ServiceDraft--><path codeLine="164" d="M743.49,590.35 C774.45,548.4 825.27,491 886,466 C952.58,438.59 983.91,433.18 1048,466 C1096.27,490.71 1130.15,543.71 1150.35,584.66 " fill="none" id="ServiceDraftRepository-to-ServiceDraft" style="stroke:#A80036;stroke-width:1.0;"/><polygon fill="#A80036" points="1152.74,589.6,1152.4059,579.7568,1150.5555,585.1025,1145.2098,583.252,1152.74,589.6" style="stroke:#A80036;stroke-width:1.0;"/><text fill="#000000" font-family="sans-serif" font-size="13" lengthAdjust="spacing" textLength="33" x="790.5" y="436.4951">saves</text><text fill="#000000" font-family="sans-serif" font-size="13" lengthAdjust="spacing" textLength="7" x="740.7479" y="579.4994">1</text><text fill="#000000" font-family="sans-serif" font-size="13" lengthAdjust="spacing" textLength="5" x="1144.5394" y="578.9809">*</text><!--MD5=[dfd9f748dcbcf503f457b6c39d52db15]
link FormRepository to Form--><path codeLine="165" d="M542.81,597.49 C551.01,556.06 570.35,494.88 615,466 C674.34,427.62 1187.3,435.41 1251,466 C1305.05,491.95 1344.68,550.29 1367.5,592.16 " fill="none" id="FormRepository-to-Form" style="stroke:#A80036;stroke-width:1.0;"/><polygon fill="#A80036" points="1369.92,596.67,1369.1959,586.8478,1367.5589,592.2626,1362.1441,590.6256,1369.92,596.67" style="stroke:#A80036;stroke-width:1.0;"/><text fill="#000000" font-family="sans-serif" font-size="13" lengthAdjust="spacing" textLength="33" x="1082.5" y="436.4951">saves</text><text fill="#000000" font-family="sans-serif" font-size="13" lengthAdjust="spacing" textLength="7" x="544.352" y="586.743">1</text><text fill="#000000" font-family="sans-serif" font-size="13" lengthAdjust="spacing" textLength="5" x="1361.3213" y="586.0828">*</text><!--MD5=[4231b0446641a058ba7a2e1fc6613ad7]
link FormBuilder to Form--><path codeLine="166" d="M3728.35,576.81 C3716.86,537.63 3695.56,490.17 3657,466 C3556.83,403.21 1635.57,414.82 1529,466 C1474.95,491.95 1435.32,550.29 1412.5,592.16 " fill="none" id="FormBuilder-to-Form" style="stroke:#A80036;stroke-width:1.0;"/><polygon fill="#A80036" points="1410.08,596.67,1417.8559,590.6256,1412.4411,592.2626,1410.8041,586.8478,1410.08,596.67" style="stroke:#A80036;stroke-width:1.0;"/><text fill="#000000" font-family="sans-serif" font-size="13" lengthAdjust="spacing" textLength="34" x="1579" y="436.4951">builds</text><text fill="#000000" font-family="sans-serif" font-size="13" lengthAdjust="spacing" textLength="7" x="3719.4827" y="566.1307">1</text><text fill="#000000" font-family="sans-serif" font-size="13" lengthAdjust="spacing" textLength="5" x="1407.8818" y="586.0828">*</text><!--MD5=[2e95c4a5850addea09a63512f30caafe]
link AttributeBuilder to Attribute--><path codeLine="167" d="M3909.24,555.63 C3894.61,521.59 3872.24,485.69 3839,466 C3764.01,421.57 2351.39,434.79 2270,466 C2200.11,492.8 2139.64,557.89 2105.81,600.28 " fill="none" id="AttributeBuilder-to-Attribute" style="stroke:#A80036;stroke-width:1.0;"/><polygon fill="#A80036" points="2102.62,604.31,2111.3536,599.7576,2105.733,600.3973,2105.0933,594.7767,2102.62,604.31" style="stroke:#A80036;stroke-width:1.0;"/><text fill="#000000" font-family="sans-serif" font-size="13" lengthAdjust="spacing" textLength="34" x="3415" y="436.4951">builds</text><text fill="#000000" font-family="sans-serif" font-size="13" lengthAdjust="spacing" textLength="7" x="3899.8114" y="545.2505">1</text><text fill="#000000" font-family="sans-serif" font-size="13" lengthAdjust="spacing" textLength="5" x="2102.0273" y="593.6033">*</text><!--MD5=[8e2d2ea5c070cc3efe1d66b65b73adeb]
link ServiceDraft to Form--><path codeLine="169" d="M1233.74,639.5 C1250.12,639.5 1268.33,639.5 1286.36,639.5 " fill="none" id="ServiceDraft-to-Form" style="stroke:#A80036;stroke-width:1.0;"/><polygon fill="#A80036" points="1291.43,639.5,1282.43,635.5,1286.43,639.5,1282.43,643.5,1291.43,639.5" style="stroke:#A80036;stroke-width:1.0;"/><text fill="#000000" font-family="sans-serif" font-size="13" lengthAdjust="spacing" textLength="21" x="1252" y="632.9951">has</text><text fill="#000000" font-family="sans-serif" font-size="13" lengthAdjust="spacing" textLength="7" x="1241.5693" y="636.0444">1</text><text fill="#000000" font-family="sans-serif" font-size="13" lengthAdjust="spacing" textLength="5" x="1278.376" y="636.367">*</text><!--MD5=[424822e8e69e4af0c08c14d28c23b6d3]
link Form to FormName--><path codeLine="171" d="M1410.08,596.67 C1432.45,554.59 1472.98,492.9 1529,466 C1603.52,430.22 1643.79,424.02 1715,466 C1760.88,493.05 1786.37,550.77 1799.35,592.21 " fill="none" id="Form-to-FormName" style="stroke:#A80036;stroke-width:1.0;"/><polygon fill="#A80036" points="1800.88,597.18,1802.0502,587.4009,1799.4066,592.402,1794.4054,589.7584,1800.88,597.18" style="stroke:#A80036;stroke-width:1.0;"/><text fill="#000000" font-family="sans-serif" font-size="13" lengthAdjust="spacing" textLength="21" x="1665.5" y="436.4951">has</text><text fill="#000000" font-family="sans-serif" font-size="13" lengthAdjust="spacing" textLength="7" x="1413.8381" y="586.0828">1</text><text fill="#000000" font-family="sans-serif" font-size="13" lengthAdjust="spacing" textLength="7" x="1791.7093" y="586.6946">1</text><!--MD5=[7db6c6cdf2bdefdb995b5afb296c71bf]
link Form to FormType--><path codeLine="172" d="M1488.73,639.5 C1506.16,639.5 1524.13,639.5 1541.01,639.5 " fill="none" id="Form-to-FormType" style="stroke:#A80036;stroke-width:1.0;"/><polygon fill="#A80036" points="1546.21,639.5,1537.21,635.5,1541.21,639.5,1537.21,643.5,1546.21,639.5" style="stroke:#A80036;stroke-width:1.0;"/><text fill="#000000" font-family="sans-serif" font-size="13" lengthAdjust="spacing" textLength="21" x="1507" y="632.9951">has</text><text fill="#000000" font-family="sans-serif" font-size="13" lengthAdjust="spacing" textLength="7" x="1496.557" y="636.3916">1</text><text fill="#000000" font-family="sans-serif" font-size="13" lengthAdjust="spacing" textLength="7" x="1531.4049" y="636.2399">1</text><!--MD5=[971d5490c4dc9d82955338ed7a7bbf99]
link Form to Attribute--><path codeLine="173" d="M1410.08,596.67 C1432.45,554.59 1472.98,492.9 1529,466 C1604.72,429.64 1829.56,433.46 1907,466 C1971.46,493.09 2023.74,557.87 2052.57,600.15 " fill="none" id="Form-to-Attribute" style="stroke:#A80036;stroke-width:1.0;"/><polygon fill="#A80036" points="2055.46,604.43,2053.7344,594.7335,2052.6602,600.2874,2047.1063,599.2132,2055.46,604.43" style="stroke:#A80036;stroke-width:1.0;"/><text fill="#000000" font-family="sans-serif" font-size="13" lengthAdjust="spacing" textLength="21" x="1797.5" y="436.4951">has</text><text fill="#000000" font-family="sans-serif" font-size="13" lengthAdjust="spacing" textLength="7" x="1405.7224" y="586.0828">1</text><text fill="#000000" font-family="sans-serif" font-size="13" lengthAdjust="spacing" textLength="20" x="2029.4477" y="593.7462">1..*</text><!--MD5=[b586ca04e226261218368980e08d6e05]
link Attribute to AttributeName--><path codeLine="175" d="M2102.62,604.31 C2135.75,562.13 2197.85,493.66 2270,466 C2389,420.38 3304.96,405.26 3417,466 C3466.14,492.64 3497.28,550.94 3514.15,592.6 " fill="none" id="Attribute-to-AttributeName" style="stroke:#A80036;stroke-width:1.0;"/><polygon fill="#A80036" points="3516.04,597.34,3516.4375,587.4992,3514.1954,592.6927,3509.0018,590.4506,3516.04,597.34" style="stroke:#A80036;stroke-width:1.0;"/><text fill="#000000" font-family="sans-serif" font-size="13" lengthAdjust="spacing" textLength="21" x="3117.5" y="436.4951">has</text><text fill="#000000" font-family="sans-serif" font-size="13" lengthAdjust="spacing" textLength="7" x="2108.171" y="593.6033">1</text><text fill="#000000" font-family="sans-serif" font-size="13" lengthAdjust="spacing" textLength="7" x="3506.1482" y="586.5681">1</text><!--MD5=[a59df021dadfc641ad79fe8b2949653c]
link Attribute to AttributeLabel--><path codeLine="176" d="M2102.62,604.31 C2135.75,562.13 2197.85,493.66 2270,466 C2365.97,429.21 3104.84,416.65 3195,466 C3243.78,492.7 3274.25,550.98 3290.66,592.63 " fill="none" id="Attribute-to-AttributeLabel" style="stroke:#A80036;stroke-width:1.0;"/><polygon fill="#A80036" points="3292.5,597.36,3292.9965,587.5237,3290.7022,592.6944,3285.5315,590.4001,3292.5,597.36" style="stroke:#A80036;stroke-width:1.0;"/><text fill="#000000" font-family="sans-serif" font-size="13" lengthAdjust="spacing" textLength="21" x="2793.5" y="436.4951">has</text><text fill="#000000" font-family="sans-serif" font-size="13" lengthAdjust="spacing" textLength="7" x="2099.8366" y="593.6033">1</text><text fill="#000000" font-family="sans-serif" font-size="13" lengthAdjust="spacing" textLength="7" x="3282.6844" y="586.5914">1</text><!--MD5=[431604de72fb750b0652e9a7ebe12be3]
link Attribute to AttributeDescription--><path codeLine="177" d="M2102.62,604.31 C2135.75,562.13 2197.85,493.66 2270,466 C2403.83,414.69 2785.68,404.18 2915,466 C2969.58,492.09 3009.7,551 3032.67,592.93 " fill="none" id="Attribute-to-AttributeDescription" style="stroke:#A80036;stroke-width:1.0;"/><polygon fill="#A80036" points="3035.12,597.44,3034.3465,587.6216,3032.7367,593.0445,3027.3138,591.4348,3035.12,597.44" style="stroke:#A80036;stroke-width:1.0;"/><text fill="#000000" font-family="sans-serif" font-size="13" lengthAdjust="spacing" textLength="21" x="2250.5" y="436.4951">has</text><text fill="#000000" font-family="sans-serif" font-size="13" lengthAdjust="spacing" textLength="7" x="2114.975" y="594.1574">1</text><text fill="#000000" font-family="sans-serif" font-size="13" lengthAdjust="spacing" textLength="7" x="3024.2477" y="586.6847">1</text><!--MD5=[5218e0bc46566a5d7a077248f603307a]
link Attribute to AttributeRegex--><path codeLine="178" d="M2102.62,604.31 C2135.75,562.13 2197.85,493.66 2270,466 C2355.28,433.3 2600.36,423.12 2681,466 C2730.88,492.53 2763.33,550.85 2781.13,592.55 " fill="none" id="Attribute-to-AttributeRegex" style="stroke:#A80036;stroke-width:1.0;"/><polygon fill="#A80036" points="2783.12,597.29,2783.314,587.4431,2781.1797,592.6818,2775.9409,590.5475,2783.12,597.29" style="stroke:#A80036;stroke-width:1.0;"/><text fill="#000000" font-family="sans-serif" font-size="13" lengthAdjust="spacing" textLength="21" x="2299.5" y="436.4951">has</text><text fill="#000000" font-family="sans-serif" font-size="13" lengthAdjust="spacing" textLength="7" x="2108.171" y="593.6033">1</text><text fill="#000000" font-family="sans-serif" font-size="13" lengthAdjust="spacing" textLength="7" x="2773.0758" y="586.5098">1</text><!--MD5=[22bf452f871a2350b3b093bad15d401b]
link Attribute to AttributeScript--><path codeLine="179" d="M2102.62,604.31 C2135.75,562.13 2197.85,493.66 2270,466 C2345.94,436.88 2381.42,427.38 2453,466 C2502.33,492.61 2533.79,550.91 2550.89,592.59 " fill="none" id="Attribute-to-AttributeScript" style="stroke:#A80036;stroke-width:1.0;"/><polygon fill="#A80036" points="2552.81,597.33,2553.1553,587.4872,2550.9408,592.6926,2545.7354,590.478,2552.81,597.33" style="stroke:#A80036;stroke-width:1.0;"/><text fill="#000000" font-family="sans-serif" font-size="13" lengthAdjust="spacing" textLength="21" x="2367.5" y="436.4951">has</text><text fill="#000000" font-family="sans-serif" font-size="13" lengthAdjust="spacing" textLength="7" x="2128.1" y="594.1574">1</text><text fill="#000000" font-family="sans-serif" font-size="13" lengthAdjust="spacing" textLength="7" x="2542.8801" y="586.5565">1</text><!--MD5=[53b6849afd857e62c9a23fc2c159a646]
link Attribute to DataType--><path codeLine="180" d="M2229.81,639.5 C2247.77,639.5 2265.51,639.5 2281.85,639.5 " fill="none" id="Attribute-to-DataType" style="stroke:#A80036;stroke-width:1.0;"/><polygon fill="#A80036" points="2286.88,639.5,2277.88,635.5,2281.88,639.5,2277.88,643.5,2286.88,639.5" style="stroke:#A80036;stroke-width:1.0;"/><text fill="#000000" font-family="sans-serif" font-size="13" lengthAdjust="spacing" textLength="21" x="2247.75" y="632.9951">has</text><text fill="#000000" font-family="sans-serif" font-size="13" lengthAdjust="spacing" textLength="7" x="2237.3813" y="636.6156">1</text><text fill="#000000" font-family="sans-serif" font-size="13" lengthAdjust="spacing" textLength="7" x="2271.8754" y="636.204">1</text><!--MD5=[b9198384a10710acbbf7f4256edfcf17]
@startuml
skinparam classAttributeIconSize 0

package "Presentation" #DDDDDD {
class ServiceDraftFormSpecificationUI<<presentation>>{

}
}


package "Application" #DDDDDD {
class ServiceDraftSpecificationController<<application>>{
+create()
+getDrafts()
+newDraft()
+addForm(name, formType)
+addAttribute(name, label, description, regex, scriptPath, dataType)
+saveForm()
+addFormToDraft()
+saveServiceDraft()
}

}


package "Domain" #DDDDDD {
class ServiceDraft<<Entity>><<Root>>{
+create()
+setFormList(formList)
}

class Form<<Entity>><<Root>>{
+create(name, formType, attributeList)
}

class Attribute<<Entity>>{
+create(name, label, description, regex, scriptPath, dataType
}

class FormName<<Value Object>>{
+createFormName(formName)
-validate(formName)
}

class FormType<<Value Object>>{
+createFormType(formType)
+values()
-validate(formType)
}

class AttributeName<<Value Object>>{
+createAttributeName(attributeName)
-validate(attributeName)
}

class AttributeLabel<<Value Object>>{
+createAtributoLabel(attributeLabel)
-validate(attributeLabel)
}

class AttributeDescription<<Value Object>>{
+createAttributeDescription(attributeDescription)
-validate(attributeDescription)
}

class AttributeRegex<<Value Object>>{
+createAttributeRegex(attributeRegex)
-validate(attributeRegex)
}

class AttributeScript<<Value Object>>{
+createAttributeScript(attributeScript)
-validate(attributeScript)
}

class DataType<<Value Object>>{
+createDataType(dataType)
+values()
-validate(dataType)
}

package Builder #DDDDDD {

class FormBuilder<<builder>>{
+create()
+withName(name)
+withFormType(formType)
+withAttributeList(attributeList)
+build()
}

class AttributeBuilder<<builder>>{
+create()
+withName(name)
+withLabel(label)
+withDescription(description)
+withRegex(regex)
+withScript(scriptPath
+withDataType(dataType)
+build()
}

}

}

package Persistence #DDDDDD {
class PersistenceContext<<persistence>>{
+repositories()
}

class AppSettings<<persistence>>{
+instance()
+getRepositoryFactory()
}

package Factory #DDDDDD {
class RepositoryFactory<<persistence>>{
+create()
+servicos()
+catalogos()
+formularios()
}
}

package "Repository" #DDDDDD {

class ServiceDraftRepository<<repository>>{
+create()
+findAll()
+save(serviceDraft)
}

class FormRepository<<repository>>{
+create()
+save(form)
}

interface ServiceDraftRepositoryInterface{

}

interface FormRepositoryInterface{

}

}



ServiceDraftFormSpecificationUI ..> ServiceDraftSpecificationController
ServiceDraftSpecificationController ..> FormBuilder
ServiceDraftSpecificationController ..> AttributeBuilder
ServiceDraftSpecificationController ..> PersistenceContext

ServiceDraftRepository ..> ServiceDraftRepositoryInterface
FormRepository ..> FormRepositoryInterface

AppSettings -> RepositoryFactory : creates
PersistenceContext -> AppSettings : implements

RepositoryFactory "1" -> "1" ServiceDraftRepository : has
RepositoryFactory "1" -> "1" FormRepository : has

ServiceDraftRepository "1" -> "*" ServiceDraft : saves
FormRepository "1" -> "*" Form : saves
FormBuilder "1" -> "*" Form : builds
AttributeBuilder "1" -> "*" Attribute : builds

ServiceDraft "1" -> "*" Form : has

Form "1" -> "1" FormName : has
Form "1" -> "1" FormType : has
Form "1" -> "1..*" Attribute : has

Attribute "1" -> "1" AttributeName : has
Attribute "1" -> "1" AttributeLabel : has
Attribute "1" -> "1" AttributeDescription : has
Attribute "1" -> "1" AttributeRegex : has
Attribute "1" -> "1" AttributeScript : has
Attribute "1" -> "1" DataType : has


@enduml

PlantUML version 1.2021.5(Sun Apr 25 12:20:28 BST 2021)
(GPL source distribution)
Java Runtime: OpenJDK Runtime Environment
JVM: Dynamic Code Evolution 64-Bit Server VM
Default Encoding: Cp1252
Language: pt
Country: PT
--></g></svg>