<?xml version="1.0" encoding="UTF-8" standalone="no"?><svg xmlns="http://www.w3.org/2000/svg" xmlns:xlink="http://www.w3.org/1999/xlink" contentScriptType="application/ecmascript" contentStyleType="text/css" height="671px" preserveAspectRatio="none" style="width:573px;height:671px;" version="1.1" viewBox="0 0 573 671" width="573px" zoomAndPan="magnify"><defs><filter height="300%" id="fjhc55t203nor" width="300%" x="-1" y="-1"><feGaussianBlur result="blurOut" stdDeviation="2.0"/><feColorMatrix in="blurOut" result="blurOut2" type="matrix" values="0 0 0 0 0 0 0 0 0 0 0 0 0 0 0 0 0 0 .4 0"/><feOffset dx="4.0" dy="4.0" in="blurOut2" result="blurOut3"/><feBlend in="SourceGraphic" in2="blurOut3" mode="normal"/></filter></defs><g><rect fill="#FFFFFF" filter="url(#fjhc55t203nor)" height="546.6797" style="stroke:#A80036;stroke-width:1.0;" width="10" x="42.5" y="99.6094"/><rect fill="#FFFFFF" filter="url(#fjhc55t203nor)" height="30.3516" style="stroke:#A80036;stroke-width:1.0;" width="10" x="502.5" y="121.9609"/><rect fill="#FFFFFF" filter="url(#fjhc55t203nor)" height="30.3516" style="stroke:#A80036;stroke-width:1.0;" width="10" x="502.5" y="182.6641"/><rect fill="#FFFFFF" filter="url(#fjhc55t203nor)" height="30.3516" style="stroke:#A80036;stroke-width:1.0;" width="10" x="502.5" y="243.3672"/><rect fill="#FFFFFF" filter="url(#fjhc55t203nor)" height="55.7031" style="stroke:#A80036;stroke-width:1.0;" width="10" x="502.5" y="304.0703"/><rect fill="#FFFFFF" filter="url(#fjhc55t203nor)" height="88.0547" style="stroke:#A80036;stroke-width:1.0;" width="10" x="502.5" y="390.125"/><rect fill="#FFFFFF" filter="url(#fjhc55t203nor)" height="60.7031" style="stroke:#A80036;stroke-width:1.0;" width="10" x="502.5" y="508.5313"/><rect fill="#FFFFFF" filter="url(#fjhc55t203nor)" height="46.7031" style="stroke:#A80036;stroke-width:1.0;" width="10" x="502.5" y="599.5859"/><rect fill="#FFFFFF" filter="url(#fjhc55t203nor)" height="79.0547" style="stroke:#000000;stroke-width:2.0;" width="529.5" x="20" y="319.0703"/><rect fill="#FFFFFF" filter="url(#fjhc55t203nor)" height="111.4063" style="stroke:#000000;stroke-width:2.0;" width="549.5" x="10" y="412.125"/><rect fill="#FFFFFF" filter="url(#fjhc55t203nor)" height="79.0547" style="stroke:#000000;stroke-width:2.0;" width="529.5" x="20" y="437.4766"/><line style="stroke:#A80036;stroke-width:1.0;stroke-dasharray:5.0,5.0;" x1="47" x2="47" y1="89.6094" y2="664.2891"/><line style="stroke:#A80036;stroke-width:1.0;stroke-dasharray:5.0,5.0;" x1="507.5" x2="507.5" y1="89.6094" y2="664.2891"/><text fill="#000000" font-family="sans-serif" font-size="14" lengthAdjust="spacing" textLength="29" x="30" y="86.5332">User</text><ellipse cx="47.5" cy="15" fill="#FEFECE" filter="url(#fjhc55t203nor)" rx="8" ry="8" style="stroke:#A80036;stroke-width:2.0;"/><path d="M47.5,23 L47.5,50 M34.5,31 L60.5,31 M47.5,50 L34.5,65 M47.5,50 L60.5,65 " fill="none" filter="url(#fjhc55t203nor)" style="stroke:#A80036;stroke-width:2.0;"/><rect fill="#FEFECE" filter="url(#fjhc55t203nor)" height="31.6094" style="stroke:#A80036;stroke-width:1.5;" width="60" x="475.5" y="53"/><text fill="#000000" font-family="sans-serif" font-size="14" lengthAdjust="spacing" textLength="46" x="482.5" y="74.5332">System</text><rect fill="#FFFFFF" filter="url(#fjhc55t203nor)" height="546.6797" style="stroke:#A80036;stroke-width:1.0;" width="10" x="42.5" y="99.6094"/><rect fill="#FFFFFF" filter="url(#fjhc55t203nor)" height="30.3516" style="stroke:#A80036;stroke-width:1.0;" width="10" x="502.5" y="121.9609"/><rect fill="#FFFFFF" filter="url(#fjhc55t203nor)" height="30.3516" style="stroke:#A80036;stroke-width:1.0;" width="10" x="502.5" y="182.6641"/><rect fill="#FFFFFF" filter="url(#fjhc55t203nor)" height="30.3516" style="stroke:#A80036;stroke-width:1.0;" width="10" x="502.5" y="243.3672"/><rect fill="#FFFFFF" filter="url(#fjhc55t203nor)" height="55.7031" style="stroke:#A80036;stroke-width:1.0;" width="10" x="502.5" y="304.0703"/><rect fill="#FFFFFF" filter="url(#fjhc55t203nor)" height="88.0547" style="stroke:#A80036;stroke-width:1.0;" width="10" x="502.5" y="390.125"/><rect fill="#FFFFFF" filter="url(#fjhc55t203nor)" height="60.7031" style="stroke:#A80036;stroke-width:1.0;" width="10" x="502.5" y="508.5313"/><rect fill="#FFFFFF" filter="url(#fjhc55t203nor)" height="46.7031" style="stroke:#A80036;stroke-width:1.0;" width="10" x="502.5" y="599.5859"/><polygon fill="#A80036" points="490.5,117.9609,500.5,121.9609,490.5,125.9609,494.5,121.9609" style="stroke:#A80036;stroke-width:1.0;"/><line style="stroke:#A80036;stroke-width:1.0;" x1="52.5" x2="496.5" y1="121.9609" y2="121.9609"/><text fill="#000000" font-family="sans-serif" font-size="13" font-weight="bold" lengthAdjust="spacing" textLength="7" x="59.5" y="117.1045">1</text><text fill="#000000" font-family="sans-serif" font-size="13" lengthAdjust="spacing" textLength="257" x="70.5" y="117.1045">initiates a service solicitation request (ticket)</text><polygon fill="#A80036" points="63.5,148.3125,53.5,152.3125,63.5,156.3125,59.5,152.3125" style="stroke:#A80036;stroke-width:1.0;"/><line style="stroke:#A80036;stroke-width:1.0;" x1="57.5" x2="506.5" y1="152.3125" y2="152.3125"/><text fill="#000000" font-family="sans-serif" font-size="13" font-weight="bold" lengthAdjust="spacing" textLength="7" x="69.5" y="147.4561">2</text><text fill="#000000" font-family="sans-serif" font-size="13" lengthAdjust="spacing" textLength="245" x="80.5" y="147.4561">shows the catalogues available to the user</text><polygon fill="#A80036" points="490.5,178.6641,500.5,182.6641,490.5,186.6641,494.5,182.6641" style="stroke:#A80036;stroke-width:1.0;"/><line style="stroke:#A80036;stroke-width:1.0;" x1="52.5" x2="496.5" y1="182.6641" y2="182.6641"/><text fill="#000000" font-family="sans-serif" font-size="13" font-weight="bold" lengthAdjust="spacing" textLength="7" x="59.5" y="177.8076">3</text><text fill="#000000" font-family="sans-serif" font-size="13" lengthAdjust="spacing" textLength="120" x="70.5" y="177.8076">chooses a catalogue</text><polygon fill="#A80036" points="63.5,209.0156,53.5,213.0156,63.5,217.0156,59.5,213.0156" style="stroke:#A80036;stroke-width:1.0;"/><line style="stroke:#A80036;stroke-width:1.0;" x1="57.5" x2="506.5" y1="213.0156" y2="213.0156"/><text fill="#000000" font-family="sans-serif" font-size="13" font-weight="bold" lengthAdjust="spacing" textLength="7" x="69.5" y="208.1592">4</text><text fill="#000000" font-family="sans-serif" font-size="13" lengthAdjust="spacing" textLength="210" x="80.5" y="208.1592">shows the services in that catalogue</text><polygon fill="#A80036" points="490.5,239.3672,500.5,243.3672,490.5,247.3672,494.5,243.3672" style="stroke:#A80036;stroke-width:1.0;"/><line style="stroke:#A80036;stroke-width:1.0;" x1="52.5" x2="496.5" y1="243.3672" y2="243.3672"/><text fill="#000000" font-family="sans-serif" font-size="13" font-weight="bold" lengthAdjust="spacing" textLength="7" x="59.5" y="238.5107">5</text><text fill="#000000" font-family="sans-serif" font-size="13" lengthAdjust="spacing" textLength="104" x="70.5" y="238.5107">chooses a service</text><polygon fill="#A80036" points="63.5,269.7188,53.5,273.7188,63.5,277.7188,59.5,273.7188" style="stroke:#A80036;stroke-width:1.0;"/><line style="stroke:#A80036;stroke-width:1.0;" x1="57.5" x2="506.5" y1="273.7188" y2="273.7188"/><text fill="#000000" font-family="sans-serif" font-size="13" font-weight="bold" lengthAdjust="spacing" textLength="7" x="69.5" y="268.8623">6</text><text fill="#000000" font-family="sans-serif" font-size="13" lengthAdjust="spacing" textLength="415" x="80.5" y="268.8623">requests the user to submit the required information (urgency, limitDate)</text><polygon fill="#A80036" points="490.5,300.0703,500.5,304.0703,490.5,308.0703,494.5,304.0703" style="stroke:#A80036;stroke-width:1.0;"/><line style="stroke:#A80036;stroke-width:1.0;" x1="52.5" x2="496.5" y1="304.0703" y2="304.0703"/><text fill="#000000" font-family="sans-serif" font-size="13" font-weight="bold" lengthAdjust="spacing" textLength="7" x="59.5" y="299.2139">7</text><text fill="#000000" font-family="sans-serif" font-size="13" lengthAdjust="spacing" textLength="128" x="70.5" y="299.2139">inserts the information</text><path d="M20,319.0703 L93,319.0703 L93,327.0703 L83,337.0703 L20,337.0703 L20,319.0703 " fill="#EEEEEE" style="stroke:#000000;stroke-width:1.0;"/><rect fill="none" height="79.0547" style="stroke:#000000;stroke-width:2.0;" width="529.5" x="20" y="319.0703"/><text fill="#000000" font-family="sans-serif" font-size="13" font-weight="bold" lengthAdjust="spacing" textLength="28" x="35" y="333.5654">loop</text><text fill="#000000" font-family="sans-serif" font-size="11" font-weight="bold" lengthAdjust="spacing" textLength="263" x="108" y="332.4893">[until the user doesnt have more files to attach]</text><polygon fill="#A80036" points="63.5,355.7734,53.5,359.7734,63.5,363.7734,59.5,359.7734" style="stroke:#A80036;stroke-width:1.0;"/><line style="stroke:#A80036;stroke-width:1.0;" x1="57.5" x2="506.5" y1="359.7734" y2="359.7734"/><text fill="#000000" font-family="sans-serif" font-size="13" font-weight="bold" lengthAdjust="spacing" textLength="7" x="69.5" y="354.917">8</text><text fill="#000000" font-family="sans-serif" font-size="13" lengthAdjust="spacing" textLength="165" x="80.5" y="354.917">asks the user to attach a file</text><polygon fill="#A80036" points="490.5,386.125,500.5,390.125,490.5,394.125,494.5,390.125" style="stroke:#A80036;stroke-width:1.0;"/><line style="stroke:#A80036;stroke-width:1.0;" x1="52.5" x2="496.5" y1="390.125" y2="390.125"/><text fill="#000000" font-family="sans-serif" font-size="13" font-weight="bold" lengthAdjust="spacing" textLength="7" x="59.5" y="385.2686">9</text><text fill="#000000" font-family="sans-serif" font-size="13" lengthAdjust="spacing" textLength="81" x="70.5" y="385.2686">attaches a file</text><path d="M10,412.125 L83,412.125 L83,420.125 L73,430.125 L10,430.125 L10,412.125 " fill="#EEEEEE" style="stroke:#000000;stroke-width:1.0;"/><rect fill="none" height="111.4063" style="stroke:#000000;stroke-width:2.0;" width="549.5" x="10" y="412.125"/><text fill="#000000" font-family="sans-serif" font-size="13" font-weight="bold" lengthAdjust="spacing" textLength="28" x="25" y="426.6201">loop</text><text fill="#000000" font-family="sans-serif" font-size="11" font-weight="bold" lengthAdjust="spacing" textLength="232" x="98" y="425.5439">[until there are no more forms to answer]</text><path d="M20,437.4766 L93,437.4766 L93,445.4766 L83,455.4766 L20,455.4766 L20,437.4766 " fill="#EEEEEE" style="stroke:#000000;stroke-width:1.0;"/><rect fill="none" height="79.0547" style="stroke:#000000;stroke-width:2.0;" width="529.5" x="20" y="437.4766"/><text fill="#000000" font-family="sans-serif" font-size="13" font-weight="bold" lengthAdjust="spacing" textLength="28" x="35" y="451.9717">loop</text><text fill="#000000" font-family="sans-serif" font-size="11" font-weight="bold" lengthAdjust="spacing" textLength="257" x="108" y="450.8955">[until there are no more attributes in the form]</text><polygon fill="#A80036" points="63.5,474.1797,53.5,478.1797,63.5,482.1797,59.5,478.1797" style="stroke:#A80036;stroke-width:1.0;"/><line style="stroke:#A80036;stroke-width:1.0;" x1="57.5" x2="506.5" y1="478.1797" y2="478.1797"/><text fill="#000000" font-family="sans-serif" font-size="13" font-weight="bold" lengthAdjust="spacing" textLength="14" x="69.5" y="473.3232">10</text><text fill="#000000" font-family="sans-serif" font-size="13" lengthAdjust="spacing" textLength="222" x="87.5" y="473.3232">requests the input for a form's attribute</text><polygon fill="#A80036" points="490.5,504.5313,500.5,508.5313,490.5,512.5313,494.5,508.5313" style="stroke:#A80036;stroke-width:1.0;"/><line style="stroke:#A80036;stroke-width:1.0;" x1="52.5" x2="496.5" y1="508.5313" y2="508.5313"/><text fill="#000000" font-family="sans-serif" font-size="13" font-weight="bold" lengthAdjust="spacing" textLength="14" x="59.5" y="503.6748">11</text><text fill="#000000" font-family="sans-serif" font-size="13" lengthAdjust="spacing" textLength="48" x="77.5" y="503.6748">answers</text><polygon fill="#A80036" points="63.5,565.2344,53.5,569.2344,63.5,573.2344,59.5,569.2344" style="stroke:#A80036;stroke-width:1.0;"/><line style="stroke:#A80036;stroke-width:1.0;" x1="57.5" x2="506.5" y1="569.2344" y2="569.2344"/><text fill="#000000" font-family="sans-serif" font-size="13" font-weight="bold" lengthAdjust="spacing" textLength="14" x="69.5" y="556.2021">12</text><text fill="#000000" font-family="sans-serif" font-size="13" lengthAdjust="spacing" textLength="174" x="87.5" y="548.0264">validates, presents the current</text><text fill="#000000" font-family="sans-serif" font-size="13" lengthAdjust="spacing" textLength="284" x="87.5" y="564.3779">information in the ticket and asks for confirmation</text><polygon fill="#A80036" points="490.5,595.5859,500.5,599.5859,490.5,603.5859,494.5,599.5859" style="stroke:#A80036;stroke-width:1.0;"/><line style="stroke:#A80036;stroke-width:1.0;" x1="52.5" x2="496.5" y1="599.5859" y2="599.5859"/><text fill="#000000" font-family="sans-serif" font-size="13" font-weight="bold" lengthAdjust="spacing" textLength="14" x="59.5" y="594.7295">13</text><text fill="#000000" font-family="sans-serif" font-size="13" lengthAdjust="spacing" textLength="49" x="77.5" y="594.7295">confirms</text><polygon fill="#A80036" points="58.5,642.2891,48.5,646.2891,58.5,650.2891,54.5,646.2891" style="stroke:#A80036;stroke-width:1.0;"/><line style="stroke:#A80036;stroke-width:1.0;" x1="52.5" x2="506.5" y1="646.2891" y2="646.2891"/><text fill="#000000" font-family="sans-serif" font-size="13" font-weight="bold" lengthAdjust="spacing" textLength="14" x="64.5" y="633.2568">14</text><text fill="#000000" font-family="sans-serif" font-size="13" lengthAdjust="spacing" textLength="215" x="82.5" y="625.0811">registers the ticket in the persistence</text><text fill="#000000" font-family="sans-serif" font-size="13" lengthAdjust="spacing" textLength="249" x="86.5" y="641.4326">and informs of the success of the operation</text><!--MD5=[ac2d9e244760f9408d0afee083993275]
@startuml
autonumber
hide footbox

actor "User" as US
participant "System" as SYST

activate US

US -> SYST : initiates a service solicitation request (ticket)
activate SYST

SYST -> US : shows the catalogues available to the user
deactivate SYST

US -> SYST : chooses a catalogue
activate SYST

SYST -> US : shows the services in that catalogue
deactivate SYST

US -> SYST : chooses a service
activate SYST

SYST -> US : requests the user to submit the required information (urgency, limitDate)
deactivate SYST

US -> SYST : inserts the information
activate SYST

loop until the user doesnt have more files to attach
SYST -> US : asks the user to attach a file
deactivate SYST

US -> SYST : attaches a file
activate SYST
end

loop until there are no more forms to answer
loop until there are no more attributes in the form
SYST -> US : requests the input for a form's attribute
deactivate SYST

US -> SYST : answers
activate SYST
end
end

SYST -> US : validates, presents the current \ninformation in the ticket and asks for confirmation
deactivate SYST

US -> SYST : confirms
activate SYST

SYST -> US : registers the ticket in the persistence\n and informs of the success of the operation
deactivate SYST
deactivate US

@enduml

PlantUML version 1.2021.5(Sun Apr 25 12:20:28 BST 2021)
(GPL source distribution)
Java Runtime: OpenJDK Runtime Environment
JVM: Dynamic Code Evolution 64-Bit Server VM
Default Encoding: Cp1252
Language: pt
Country: PT
--></g></svg>