<?xml version="1.0" encoding="UTF-8" standalone="no"?><svg xmlns="http://www.w3.org/2000/svg" xmlns:xlink="http://www.w3.org/1999/xlink" contentScriptType="application/ecmascript" contentStyleType="text/css" height="1406.25px" preserveAspectRatio="none" style="width:5798px;height:1406px;" version="1.1" viewBox="0 0 5798 1406" width="5798.75px" zoomAndPan="magnify"><defs><filter height="300%" id="f1wvdxkdf1ubf0" width="300%" x="-1" y="-1"><feGaussianBlur result="blurOut" stdDeviation="2.5"/><feColorMatrix in="blurOut" result="blurOut2" type="matrix" values="0 0 0 0 0 0 0 0 0 0 0 0 0 0 0 0 0 0 .4 0"/><feOffset dx="5.0" dy="5.0" in="blurOut2" result="blurOut3"/><feBlend in="SourceGraphic" in2="blurOut3" mode="normal"/></filter></defs><g><!--MD5=[c625dcaacd11c740d6823293b9b8bae2]
cluster base.app.backoffice.console--><polygon fill="#AAAAAA" filter="url(#f1wvdxkdf1ubf0)" points="935,7.5,1193.75,7.5,1202.5,37.0117,1206.25,37.0117,1206.25,252.5,935,252.5,935,7.5" style="stroke:#000000;stroke-width:1.875;"/><line style="stroke:#000000;stroke-width:1.875;" x1="935" x2="1202.5" y1="37.0117" y2="37.0117"/><text fill="#000000" font-family="sans-serif" font-size="17.5" font-weight="bold" lengthAdjust="spacing" textLength="251.25" x="940" y="28.1665">base.app.backoffice.console</text><!--MD5=[3dcf69e4e87a10af00fce8354034ba4c]
cluster presentation--><polygon fill="#CCCCCC" filter="url(#f1wvdxkdf1ubf0)" points="978.75,62.5,1098.75,62.5,1107.5,92.0117,1161.25,92.0117,1161.25,222.5,978.75,222.5,978.75,62.5" style="stroke:#000000;stroke-width:1.875;"/><line style="stroke:#000000;stroke-width:1.875;" x1="978.75" x2="1107.5" y1="92.0117" y2="92.0117"/><text fill="#000000" font-family="sans-serif" font-size="17.5" font-weight="bold" lengthAdjust="spacing" textLength="112.5" x="983.75" y="83.1665">presentation</text><!--MD5=[3a51fe6c967fa78ceb0525f16d76f651]
cluster base.core--><polygon fill="#AAAAAA" filter="url(#f1wvdxkdf1ubf0)" points="20,293.75,115,293.75,123.75,323.2617,4962.5,323.2617,4962.5,1397.5,20,1397.5,20,293.75" style="stroke:#000000;stroke-width:1.875;"/><line style="stroke:#000000;stroke-width:1.875;" x1="20" x2="123.75" y1="323.2617" y2="323.2617"/><text fill="#000000" font-family="sans-serif" font-size="17.5" font-weight="bold" lengthAdjust="spacing" textLength="87.5" x="25" y="314.4165">base.core</text><!--MD5=[00f1ad57bea3216b658bd99a662c2648]
cluster eapli.base--><polygon fill="#CCCCCC" filter="url(#f1wvdxkdf1ubf0)" points="50,348.75,147.5,348.75,156.25,378.2617,4932.5,378.2617,4932.5,1367.5,50,1367.5,50,348.75" style="stroke:#000000;stroke-width:1.875;"/><line style="stroke:#000000;stroke-width:1.875;" x1="50" x2="156.25" y1="378.2617" y2="378.2617"/><text fill="#000000" font-family="sans-serif" font-size="17.5" font-weight="bold" lengthAdjust="spacing" textLength="90" x="55" y="369.4165">eapli.base</text><!--MD5=[8dd11d43b925eaaa6af5b6253ca730cb]
cluster collaboratormanagement--><polygon fill="#CCCCCC" filter="url(#f1wvdxkdf1ubf0)" points="1600,696.25,1826.25,696.25,1835,725.7617,4902.5,725.7617,4902.5,1097.5,1600,1097.5,1600,696.25" style="stroke:#000000;stroke-width:1.875;"/><line style="stroke:#000000;stroke-width:1.875;" x1="1600" x2="1835" y1="725.7617" y2="725.7617"/><text fill="#000000" font-family="sans-serif" font-size="17.5" font-weight="bold" lengthAdjust="spacing" textLength="218.75" x="1605" y="716.9165">collaboratormanagement</text><!--MD5=[90689ac0e586424b7ad3bf20bd4f296b]
cluster collaboratormanagement.application--><polygon fill="#DDDDDD" filter="url(#f1wvdxkdf1ubf0)" points="4470,751.25,4797.5,751.25,4806.25,780.7617,4872.5,780.7617,4872.5,1067.5,4470,1067.5,4470,751.25" style="stroke:#000000;stroke-width:1.875;"/><line style="stroke:#000000;stroke-width:1.875;" x1="4470" x2="4806.25" y1="780.7617" y2="780.7617"/><text fill="#000000" font-family="sans-serif" font-size="17.5" font-weight="bold" lengthAdjust="spacing" textLength="320" x="4475" y="771.9165">collaboratormanagement.application</text><!--MD5=[d54cbe2e365db20b172073b6d8843210]
cluster collaboratormanagement.domain--><polygon fill="#DDDDDD" filter="url(#f1wvdxkdf1ubf0)" points="2011.25,811.875,2306.25,811.875,2315,841.3867,4440,841.3867,4440,1006.875,2011.25,1006.875,2011.25,811.875" style="stroke:#000000;stroke-width:1.875;"/><line style="stroke:#000000;stroke-width:1.875;" x1="2011.25" x2="2315" y1="841.3867" y2="841.3867"/><text fill="#000000" font-family="sans-serif" font-size="17.5" font-weight="bold" lengthAdjust="spacing" textLength="287.5" x="2016.25" y="832.5415">collaboratormanagement.domain</text><!--MD5=[d5457b85898b2dcc0548b11d27048b91]
cluster collaboratormanagement.repositories--><polygon fill="#DDDDDD" filter="url(#f1wvdxkdf1ubf0)" points="1630,834.375,1968.75,834.375,1977.5,863.8867,1981.25,863.8867,1981.25,984.375,1630,984.375,1630,834.375" style="stroke:#000000;stroke-width:1.875;"/><line style="stroke:#000000;stroke-width:1.875;" x1="1630" x2="1977.5" y1="863.8867" y2="863.8867"/><text fill="#000000" font-family="sans-serif" font-size="17.5" font-weight="bold" lengthAdjust="spacing" textLength="331.25" x="1635" y="855.0415">collaboratormanagement.repositories</text><!--MD5=[12bde04cd15a0eb080891dc0f0ed6ca3]
cluster infrastructure.persistence--><polygon fill="#DDDDDD" filter="url(#f1wvdxkdf1ubf0)" points="4451.25,1160,4690,1160,4698.75,1189.5117,4902.5,1189.5117,4902.5,1337.5,4451.25,1337.5,4451.25,1160" style="stroke:#000000;stroke-width:1.875;"/><line style="stroke:#000000;stroke-width:1.875;" x1="4451.25" x2="4698.75" y1="1189.5117" y2="1189.5117"/><text fill="#000000" font-family="sans-serif" font-size="17.5" font-weight="bold" lengthAdjust="spacing" textLength="231.25" x="4456.25" y="1180.6665">infrastructure.persistence</text><!--MD5=[06ed05f7d9a5076d0b6e8ca6cee29dbe]
cluster teammanagement--><polygon fill="#CCCCCC" filter="url(#f1wvdxkdf1ubf0)" points="80,403.75,242.5,403.75,251.25,433.2617,1570,433.2617,1570,1097.5,80,1097.5,80,403.75" style="stroke:#000000;stroke-width:1.875;"/><line style="stroke:#000000;stroke-width:1.875;" x1="80" x2="251.25" y1="433.2617" y2="433.2617"/><text fill="#000000" font-family="sans-serif" font-size="17.5" font-weight="bold" lengthAdjust="spacing" textLength="155" x="85" y="424.4165">teammanagement</text><!--MD5=[865e2378fcb98a62e97c0f42b1776681]
cluster teammanagement.repositories--><polygon fill="#DDDDDD" filter="url(#f1wvdxkdf1ubf0)" points="1252.5,463.75,1527.5,463.75,1536.25,493.2617,1540,493.2617,1540,613.75,1252.5,613.75,1252.5,463.75" style="stroke:#000000;stroke-width:1.875;"/><line style="stroke:#000000;stroke-width:1.875;" x1="1252.5" x2="1536.25" y1="493.2617" y2="493.2617"/><text fill="#000000" font-family="sans-serif" font-size="17.5" font-weight="bold" lengthAdjust="spacing" textLength="267.5" x="1257.5" y="484.4165">teammanagement.repositories</text><!--MD5=[c01e8d7d43de5019cd383bff7c59898a]
cluster teammanagement.application--><polygon fill="#DDDDDD" filter="url(#f1wvdxkdf1ubf0)" points="932.5,458.75,1196.25,458.75,1205,488.2617,1208.75,488.2617,1208.75,618.75,932.5,618.75,932.5,458.75" style="stroke:#000000;stroke-width:1.875;"/><line style="stroke:#000000;stroke-width:1.875;" x1="932.5" x2="1205" y1="488.2617" y2="488.2617"/><text fill="#000000" font-family="sans-serif" font-size="17.5" font-weight="bold" lengthAdjust="spacing" textLength="256.25" x="937.5" y="479.4165">teammanagement.application</text><!--MD5=[ee90f89182c7ebf2711e14361f214f73]
cluster teammanagement.domain--><polygon fill="#DDDDDD" filter="url(#f1wvdxkdf1ubf0)" points="110,751.25,341.25,751.25,350,780.7617,1540,780.7617,1540,1067.5,110,1067.5,110,751.25" style="stroke:#000000;stroke-width:1.875;"/><line style="stroke:#000000;stroke-width:1.875;" x1="110" x2="350" y1="780.7617" y2="780.7617"/><text fill="#000000" font-family="sans-serif" font-size="17.5" font-weight="bold" lengthAdjust="spacing" textLength="223.75" x="115" y="771.9165">teammanagement.domain</text><!--MD5=[b1a0a44bf588cc26194f3429983a5939]
cluster base.persistence.impl--><polygon fill="#AAAAAA" filter="url(#f1wvdxkdf1ubf0)" points="4992.5,756.875,5193.75,756.875,5202.5,786.3867,5777.5,786.3867,5777.5,1036.875,4992.5,1036.875,4992.5,756.875" style="stroke:#000000;stroke-width:1.875;"/><line style="stroke:#000000;stroke-width:1.875;" x1="4992.5" x2="5202.5" y1="786.3867" y2="786.3867"/><text fill="#000000" font-family="sans-serif" font-size="17.5" font-weight="bold" lengthAdjust="spacing" textLength="193.75" x="4997.5" y="777.5415">base.persistence.impl</text><!--MD5=[18d9dc06195a666b97c52395d5485033]
cluster jpa--><polygon fill="#CCCCCC" filter="url(#f1wvdxkdf1ubf0)" points="5022.5,811.875,5056.25,811.875,5065,841.3867,5747.5,841.3867,5747.5,1006.875,5022.5,1006.875,5022.5,811.875" style="stroke:#000000;stroke-width:1.875;"/><line style="stroke:#000000;stroke-width:1.875;" x1="5022.5" x2="5065" y1="841.3867" y2="841.3867"/><text fill="#000000" font-family="sans-serif" font-size="17.5" font-weight="bold" lengthAdjust="spacing" textLength="26.25" x="5027.5" y="832.5415">jpa</text><!--MD5=[61d5df5a913a5aecef17c2111c2b1245]
class CreateTeamUI--><rect codeLine="5" fill="#FEFECE" filter="url(#f1wvdxkdf1ubf0)" height="70.2344" id="CreateTeamUI" style="stroke:#A80036;stroke-width:1.875;" width="141.25" x="999.375" y="132.5"/><ellipse cx="1018.125" cy="157.6172" fill="#ADD1B2" rx="13.75" ry="13.75" style="stroke:#A80036;stroke-width:1.25;"/><path d="M1020.625,153.2422 Q1020.8789,152.6172 1021.1719,152.3047 Q1021.4648,151.9922 1021.7969,151.9922 Q1022.3828,151.9922 1022.7539,152.3438 Q1023.125,152.6953 1023.125,153.5156 L1023.125,155.4688 Q1023.125,156.2891 1022.7734,156.6406 Q1022.4219,156.9922 1021.875,156.9922 Q1021.3867,156.9922 1021.0742,156.7773 Q1020.7617,156.5625 1020.625,155.9961 Q1020.5664,155.6055 1020.3516,155.3906 Q1019.9609,154.9805 1019.2578,154.7461 Q1018.5547,154.4922 1017.8516,154.4922 Q1016.9727,154.4922 1016.2305,154.8438 Q1015.5078,155.1953 1014.9414,155.9766 Q1014.375,156.7578 1014.375,157.832 L1014.375,158.9844 Q1014.375,160.2734 1015.4297,161.1328 Q1016.4844,161.9922 1018.3594,161.9922 Q1019.4727,161.9922 1020.2539,161.7383 Q1020.7031,161.6016 1021.2109,161.1523 Q1021.543,160.8984 1021.7188,160.8203 Q1021.8945,160.7422 1022.1094,160.7422 Q1022.5195,160.7422 1022.8125,161.0742 Q1023.125,161.3867 1023.125,161.8359 Q1023.125,162.2656 1022.6953,162.7734 Q1022.0703,163.5156 1021.0742,163.9258 Q1019.7656,164.4922 1018.1641,164.4922 Q1016.2891,164.4922 1014.7852,163.75 Q1013.5742,163.1641 1012.7148,161.8945 Q1011.875,160.625 1011.875,159.1211 L1011.875,157.7539 Q1011.875,156.1914 1012.6172,154.8242 Q1013.3789,153.457 1014.6875,152.7344 Q1016.0156,151.9922 1017.5,151.9922 Q1018.3984,151.9922 1019.1797,152.3047 Q1019.9609,152.6172 1020.625,153.2422 Z " fill="#000000"/><text fill="#000000" font-family="sans-serif" font-size="15" font-style="italic" lengthAdjust="spacing" textLength="102.5" x="1035" y="154.3213">«presentation»</text><text fill="#000000" font-family="sans-serif" font-size="15" lengthAdjust="spacing" textLength="101.25" x="1035.625" y="173.1885">CreateTeamUI</text><line style="stroke:#A80036;stroke-width:1.875;" x1="1000.625" x2="1139.375" y1="182.7344" y2="182.7344"/><line style="stroke:#A80036;stroke-width:1.875;" x1="1000.625" x2="1139.375" y1="192.7344" y2="192.7344"/><!--MD5=[b8e4c95865208c934bfcfda4f90bf50c]
class AppSettings--><rect codeLine="126" fill="#FEFECE" filter="url(#f1wvdxkdf1ubf0)" height="104.8242" id="AppSettings" style="stroke:#A80036;stroke-width:1.875;" width="162.5" x="4750" y="511.25"/><ellipse cx="4782.8125" cy="536.3672" fill="#ADD1B2" rx="13.75" ry="13.75" style="stroke:#A80036;stroke-width:1.25;"/><path d="M4785.3125,531.9922 Q4785.5664,531.3672 4785.8594,531.0547 Q4786.1523,530.7422 4786.4844,530.7422 Q4787.0703,530.7422 4787.4414,531.0938 Q4787.8125,531.4453 4787.8125,532.2656 L4787.8125,534.2188 Q4787.8125,535.0391 4787.4609,535.3906 Q4787.1094,535.7422 4786.5625,535.7422 Q4786.0742,535.7422 4785.7617,535.5273 Q4785.4492,535.3125 4785.3125,534.7461 Q4785.2539,534.3555 4785.0391,534.1406 Q4784.6484,533.7305 4783.9453,533.4961 Q4783.2422,533.2422 4782.5391,533.2422 Q4781.6602,533.2422 4780.918,533.5938 Q4780.1953,533.9453 4779.6289,534.7266 Q4779.0625,535.5078 4779.0625,536.582 L4779.0625,537.7344 Q4779.0625,539.0234 4780.1172,539.8828 Q4781.1719,540.7422 4783.0469,540.7422 Q4784.1602,540.7422 4784.9414,540.4883 Q4785.3906,540.3516 4785.8984,539.9023 Q4786.2305,539.6484 4786.4063,539.5703 Q4786.582,539.4922 4786.7969,539.4922 Q4787.207,539.4922 4787.5,539.8242 Q4787.8125,540.1367 4787.8125,540.5859 Q4787.8125,541.0156 4787.3828,541.5234 Q4786.7578,542.2656 4785.7617,542.6758 Q4784.4531,543.2422 4782.8516,543.2422 Q4780.9766,543.2422 4779.4727,542.5 Q4778.2617,541.9141 4777.4023,540.6445 Q4776.5625,539.375 4776.5625,537.8711 L4776.5625,536.5039 Q4776.5625,534.9414 4777.3047,533.5742 Q4778.0664,532.207 4779.375,531.4844 Q4780.7031,530.7422 4782.1875,530.7422 Q4783.0859,530.7422 4783.8672,531.0547 Q4784.6484,531.3672 4785.3125,531.9922 Z " fill="#000000"/><text fill="#000000" font-family="sans-serif" font-size="15" font-style="italic" lengthAdjust="spacing" textLength="96.25" x="4800.9375" y="533.0713">«persistence»</text><text fill="#000000" font-family="sans-serif" font-size="15" lengthAdjust="spacing" textLength="82.5" x="4807.8125" y="551.9385">AppSettings</text><line style="stroke:#A80036;stroke-width:1.875;" x1="4751.25" x2="4911.25" y1="561.4844" y2="561.4844"/><line style="stroke:#A80036;stroke-width:1.875;" x1="4751.25" x2="4911.25" y1="571.4844" y2="571.4844"/><text fill="#000000" font-family="sans-serif" font-size="13.75" lengthAdjust="spacing" textLength="68.75" x="4757.5" y="590.7581">+instance()</text><text fill="#000000" font-family="sans-serif" font-size="13.75" lengthAdjust="spacing" textLength="147.5" x="4757.5" y="608.053">+getRepositoryFactory()</text><!--MD5=[f1bbe1cf2453e6a45e68131c63d26ace]
class CollaboratorSpecificationController--><rect codeLine="14" fill="#FEFECE" filter="url(#f1wvdxkdf1ubf0)" height="225.8887" id="CollaboratorSpecificationController" style="stroke:#A80036;stroke-width:1.875;" width="361.25" x="4490.625" y="821.25"/><ellipse cx="4545.9375" cy="846.3672" fill="#ADD1B2" rx="13.75" ry="13.75" style="stroke:#A80036;stroke-width:1.25;"/><path d="M4548.4375,841.9922 Q4548.6914,841.3672 4548.9844,841.0547 Q4549.2773,840.7422 4549.6094,840.7422 Q4550.1953,840.7422 4550.5664,841.0938 Q4550.9375,841.4453 4550.9375,842.2656 L4550.9375,844.2188 Q4550.9375,845.0391 4550.5859,845.3906 Q4550.2344,845.7422 4549.6875,845.7422 Q4549.1992,845.7422 4548.8867,845.5273 Q4548.5742,845.3125 4548.4375,844.7461 Q4548.3789,844.3555 4548.1641,844.1406 Q4547.7734,843.7305 4547.0703,843.4961 Q4546.3672,843.2422 4545.6641,843.2422 Q4544.7852,843.2422 4544.043,843.5938 Q4543.3203,843.9453 4542.7539,844.7266 Q4542.1875,845.5078 4542.1875,846.582 L4542.1875,847.7344 Q4542.1875,849.0234 4543.2422,849.8828 Q4544.2969,850.7422 4546.1719,850.7422 Q4547.2852,850.7422 4548.0664,850.4883 Q4548.5156,850.3516 4549.0234,849.9023 Q4549.3555,849.6484 4549.5313,849.5703 Q4549.707,849.4922 4549.9219,849.4922 Q4550.332,849.4922 4550.625,849.8242 Q4550.9375,850.1367 4550.9375,850.5859 Q4550.9375,851.0156 4550.5078,851.5234 Q4549.8828,852.2656 4548.8867,852.6758 Q4547.5781,853.2422 4545.9766,853.2422 Q4544.1016,853.2422 4542.5977,852.5 Q4541.3867,851.9141 4540.5273,850.6445 Q4539.6875,849.375 4539.6875,847.8711 L4539.6875,846.5039 Q4539.6875,844.9414 4540.4297,843.5742 Q4541.1914,842.207 4542.5,841.4844 Q4543.8281,840.7422 4545.3125,840.7422 Q4546.2109,840.7422 4546.9922,841.0547 Q4547.7734,841.3672 4548.4375,841.9922 Z " fill="#000000"/><text fill="#000000" font-family="sans-serif" font-size="15" font-style="italic" lengthAdjust="spacing" textLength="92.5" x="4645.3125" y="843.0713">«application»</text><text fill="#000000" font-family="sans-serif" font-size="15" lengthAdjust="spacing" textLength="240" x="4571.5625" y="861.9385">CollaboratorSpecificationController</text><line style="stroke:#A80036;stroke-width:1.875;" x1="4491.875" x2="4850.625" y1="871.4844" y2="871.4844"/><line style="stroke:#A80036;stroke-width:1.875;" x1="4491.875" x2="4850.625" y1="881.4844" y2="881.4844"/><text fill="#000000" font-family="sans-serif" font-size="13.75" lengthAdjust="spacing" textLength="56.25" x="4498.125" y="900.7581">+create()</text><text fill="#000000" font-family="sans-serif" font-size="13.75" lengthAdjust="spacing" textLength="342.5" x="4498.125" y="918.053">+addColaborador(email, firstName, lastName, shortName,</text><text fill="#000000" font-family="sans-serif" font-size="13.75" lengthAdjust="spacing" textLength="245" x="4498.125" y="935.3479">completeName, mechanographicNumber,</text><text fill="#000000" font-family="sans-serif" font-size="13.75" lengthAdjust="spacing" textLength="207.5" x="4498.125" y="952.6428">address, phoneNumber, birthDate)</text><text fill="#000000" font-family="sans-serif" font-size="13.75" lengthAdjust="spacing" textLength="83.75" x="4498.125" y="969.9377">+getRoleList()</text><text fill="#000000" font-family="sans-serif" font-size="13.75" lengthAdjust="spacing" textLength="103.75" x="4498.125" y="987.2327">+addRoles(roles)</text><text fill="#000000" font-family="sans-serif" font-size="13.75" lengthAdjust="spacing" textLength="116.25" x="4498.125" y="1004.5276">+getCollaborators()</text><text fill="#000000" font-family="sans-serif" font-size="13.75" lengthAdjust="spacing" textLength="145" x="4498.125" y="1021.8225">+addManager(manager)</text><text fill="#000000" font-family="sans-serif" font-size="13.75" lengthAdjust="spacing" textLength="120" x="4498.125" y="1039.1174">+saveCollaborator()</text><!--MD5=[f483d6e5de34a60207b28a5563be5e8b]
class Collaborator--><rect codeLine="26" fill="#FEFECE" filter="url(#f1wvdxkdf1ubf0)" height="104.8242" id="Collaborator" style="stroke:#A80036;stroke-width:1.875;" width="463.75" x="2031.875" y="881.875"/><ellipse cx="2215.9375" cy="906.9922" fill="#ADD1B2" rx="13.75" ry="13.75" style="stroke:#A80036;stroke-width:1.25;"/><path d="M2218.4375,902.6172 Q2218.6914,901.9922 2218.9844,901.6797 Q2219.2773,901.3672 2219.6094,901.3672 Q2220.1953,901.3672 2220.5664,901.7188 Q2220.9375,902.0703 2220.9375,902.8906 L2220.9375,904.8438 Q2220.9375,905.6641 2220.5859,906.0156 Q2220.2344,906.3672 2219.6875,906.3672 Q2219.1992,906.3672 2218.8867,906.1523 Q2218.5742,905.9375 2218.4375,905.3711 Q2218.3789,904.9805 2218.1641,904.7656 Q2217.7734,904.3555 2217.0703,904.1211 Q2216.3672,903.8672 2215.6641,903.8672 Q2214.7852,903.8672 2214.043,904.2188 Q2213.3203,904.5703 2212.7539,905.3516 Q2212.1875,906.1328 2212.1875,907.207 L2212.1875,908.3594 Q2212.1875,909.6484 2213.2422,910.5078 Q2214.2969,911.3672 2216.1719,911.3672 Q2217.2852,911.3672 2218.0664,911.1133 Q2218.5156,910.9766 2219.0234,910.5273 Q2219.3555,910.2734 2219.5313,910.1953 Q2219.707,910.1172 2219.9219,910.1172 Q2220.332,910.1172 2220.625,910.4492 Q2220.9375,910.7617 2220.9375,911.2109 Q2220.9375,911.6406 2220.5078,912.1484 Q2219.8828,912.8906 2218.8867,913.3008 Q2217.5781,913.8672 2215.9766,913.8672 Q2214.1016,913.8672 2212.5977,913.125 Q2211.3867,912.5391 2210.5273,911.2695 Q2209.6875,910 2209.6875,908.4961 L2209.6875,907.1289 Q2209.6875,905.5664 2210.4297,904.1992 Q2211.1914,902.832 2212.5,902.1094 Q2213.8281,901.3672 2215.3125,901.3672 Q2216.2109,901.3672 2216.9922,901.6797 Q2217.7734,901.9922 2218.4375,902.6172 Z " fill="#000000"/><text fill="#000000" font-family="sans-serif" font-size="15" font-style="italic" lengthAdjust="spacing" textLength="53.75" x="2257.1875" y="903.6963">«entity»</text><text fill="#000000" font-family="sans-serif" font-size="15" lengthAdjust="spacing" textLength="85" x="2241.5625" y="922.5635">Collaborator</text><line style="stroke:#A80036;stroke-width:1.875;" x1="2033.125" x2="2494.375" y1="932.1094" y2="932.1094"/><line style="stroke:#A80036;stroke-width:1.875;" x1="2033.125" x2="2494.375" y1="942.1094" y2="942.1094"/><text fill="#000000" font-family="sans-serif" font-size="13.75" lengthAdjust="spacing" textLength="448.75" x="2039.375" y="961.3831">+create(systemUser, shortName, completeName, mechanographicNumber,</text><text fill="#000000" font-family="sans-serif" font-size="13.75" lengthAdjust="spacing" textLength="207.5" x="2039.375" y="978.678">address, phoneNumber, birthDate)</text><!--MD5=[f338b7fac0450cb697edae5d9e4bb9ca]
class ShortName--><rect codeLine="30" fill="#FEFECE" filter="url(#f1wvdxkdf1ubf0)" height="104.8242" id="ShortName" style="stroke:#A80036;stroke-width:1.875;" width="202.5" x="3322.5" y="881.875"/><ellipse cx="3371.0625" cy="906.9922" fill="#ADD1B2" rx="13.75" ry="13.75" style="stroke:#A80036;stroke-width:1.25;"/><path d="M3373.5625,902.6172 Q3373.8164,901.9922 3374.1094,901.6797 Q3374.4023,901.3672 3374.7344,901.3672 Q3375.3203,901.3672 3375.6914,901.7188 Q3376.0625,902.0703 3376.0625,902.8906 L3376.0625,904.8438 Q3376.0625,905.6641 3375.7109,906.0156 Q3375.3594,906.3672 3374.8125,906.3672 Q3374.3242,906.3672 3374.0117,906.1523 Q3373.6992,905.9375 3373.5625,905.3711 Q3373.5039,904.9805 3373.2891,904.7656 Q3372.8984,904.3555 3372.1953,904.1211 Q3371.4922,903.8672 3370.7891,903.8672 Q3369.9102,903.8672 3369.168,904.2188 Q3368.4453,904.5703 3367.8789,905.3516 Q3367.3125,906.1328 3367.3125,907.207 L3367.3125,908.3594 Q3367.3125,909.6484 3368.3672,910.5078 Q3369.4219,911.3672 3371.2969,911.3672 Q3372.4102,911.3672 3373.1914,911.1133 Q3373.6406,910.9766 3374.1484,910.5273 Q3374.4805,910.2734 3374.6563,910.1953 Q3374.832,910.1172 3375.0469,910.1172 Q3375.457,910.1172 3375.75,910.4492 Q3376.0625,910.7617 3376.0625,911.2109 Q3376.0625,911.6406 3375.6328,912.1484 Q3375.0078,912.8906 3374.0117,913.3008 Q3372.7031,913.8672 3371.1016,913.8672 Q3369.2266,913.8672 3367.7227,913.125 Q3366.5117,912.5391 3365.6523,911.2695 Q3364.8125,910 3364.8125,908.4961 L3364.8125,907.1289 Q3364.8125,905.5664 3365.5547,904.1992 Q3366.3164,902.832 3367.625,902.1094 Q3368.9531,901.3672 3370.4375,901.3672 Q3371.3359,901.3672 3372.1172,901.6797 Q3372.8984,901.9922 3373.5625,902.6172 Z " fill="#000000"/><text fill="#000000" font-family="sans-serif" font-size="15" font-style="italic" lengthAdjust="spacing" textLength="101.25" x="3392.6875" y="903.6963">«value object»</text><text fill="#000000" font-family="sans-serif" font-size="15" lengthAdjust="spacing" textLength="78.75" x="3403.9375" y="922.5635">ShortName</text><line style="stroke:#A80036;stroke-width:1.875;" x1="3323.75" x2="3523.75" y1="932.1094" y2="932.1094"/><line style="stroke:#A80036;stroke-width:1.875;" x1="3323.75" x2="3523.75" y1="942.1094" y2="942.1094"/><text fill="#000000" font-family="sans-serif" font-size="13.75" lengthAdjust="spacing" textLength="187.5" x="3330" y="961.3831">+createShortName(shortName)</text><text fill="#000000" font-family="sans-serif" font-size="13.75" lengthAdjust="spacing" textLength="128.75" x="3330" y="978.678">+validate(shortName)</text><!--MD5=[cadca83c4c6337f88ae4425081101a2d]
class CompleteName--><rect codeLine="35" fill="#FEFECE" filter="url(#f1wvdxkdf1ubf0)" height="104.8242" id="CompleteName" style="stroke:#A80036;stroke-width:1.875;" width="247.5" x="3031.25" y="881.875"/><ellipse cx="3094.6875" cy="906.9922" fill="#ADD1B2" rx="13.75" ry="13.75" style="stroke:#A80036;stroke-width:1.25;"/><path d="M3097.1875,902.6172 Q3097.4414,901.9922 3097.7344,901.6797 Q3098.0273,901.3672 3098.3594,901.3672 Q3098.9453,901.3672 3099.3164,901.7188 Q3099.6875,902.0703 3099.6875,902.8906 L3099.6875,904.8438 Q3099.6875,905.6641 3099.3359,906.0156 Q3098.9844,906.3672 3098.4375,906.3672 Q3097.9492,906.3672 3097.6367,906.1523 Q3097.3242,905.9375 3097.1875,905.3711 Q3097.1289,904.9805 3096.9141,904.7656 Q3096.5234,904.3555 3095.8203,904.1211 Q3095.1172,903.8672 3094.4141,903.8672 Q3093.5352,903.8672 3092.793,904.2188 Q3092.0703,904.5703 3091.5039,905.3516 Q3090.9375,906.1328 3090.9375,907.207 L3090.9375,908.3594 Q3090.9375,909.6484 3091.9922,910.5078 Q3093.0469,911.3672 3094.9219,911.3672 Q3096.0352,911.3672 3096.8164,911.1133 Q3097.2656,910.9766 3097.7734,910.5273 Q3098.1055,910.2734 3098.2813,910.1953 Q3098.457,910.1172 3098.6719,910.1172 Q3099.082,910.1172 3099.375,910.4492 Q3099.6875,910.7617 3099.6875,911.2109 Q3099.6875,911.6406 3099.2578,912.1484 Q3098.6328,912.8906 3097.6367,913.3008 Q3096.3281,913.8672 3094.7266,913.8672 Q3092.8516,913.8672 3091.3477,913.125 Q3090.1367,912.5391 3089.2773,911.2695 Q3088.4375,910 3088.4375,908.4961 L3088.4375,907.1289 Q3088.4375,905.5664 3089.1797,904.1992 Q3089.9414,902.832 3091.25,902.1094 Q3092.5781,901.3672 3094.0625,901.3672 Q3094.9609,901.3672 3095.7422,901.6797 Q3096.5234,901.9922 3097.1875,902.6172 Z " fill="#000000"/><text fill="#000000" font-family="sans-serif" font-size="15" font-style="italic" lengthAdjust="spacing" textLength="101.25" x="3124.6875" y="903.6963">«value object»</text><text fill="#000000" font-family="sans-serif" font-size="15" lengthAdjust="spacing" textLength="110" x="3120.3125" y="922.5635">CompleteName</text><line style="stroke:#A80036;stroke-width:1.875;" x1="3032.5" x2="3277.5" y1="932.1094" y2="932.1094"/><line style="stroke:#A80036;stroke-width:1.875;" x1="3032.5" x2="3277.5" y1="942.1094" y2="942.1094"/><text fill="#000000" font-family="sans-serif" font-size="13.75" lengthAdjust="spacing" textLength="232.5" x="3038.75" y="961.3831">+createCompleteName(completeName)</text><text fill="#000000" font-family="sans-serif" font-size="13.75" lengthAdjust="spacing" textLength="151.25" x="3038.75" y="978.678">+validate(completeName)</text><!--MD5=[60b365d8f6d5c8e3e73e4be0aaaeb2da]
class NumeroMecanografico--><rect codeLine="40" fill="#FEFECE" filter="url(#f1wvdxkdf1ubf0)" height="104.8242" id="NumeroMecanografico" style="stroke:#A80036;stroke-width:1.875;" width="342.5" x="2645" y="881.875"/><ellipse cx="2732.8125" cy="906.9922" fill="#ADD1B2" rx="13.75" ry="13.75" style="stroke:#A80036;stroke-width:1.25;"/><path d="M2735.3125,902.6172 Q2735.5664,901.9922 2735.8594,901.6797 Q2736.1523,901.3672 2736.4844,901.3672 Q2737.0703,901.3672 2737.4414,901.7188 Q2737.8125,902.0703 2737.8125,902.8906 L2737.8125,904.8438 Q2737.8125,905.6641 2737.4609,906.0156 Q2737.1094,906.3672 2736.5625,906.3672 Q2736.0742,906.3672 2735.7617,906.1523 Q2735.4492,905.9375 2735.3125,905.3711 Q2735.2539,904.9805 2735.0391,904.7656 Q2734.6484,904.3555 2733.9453,904.1211 Q2733.2422,903.8672 2732.5391,903.8672 Q2731.6602,903.8672 2730.918,904.2188 Q2730.1953,904.5703 2729.6289,905.3516 Q2729.0625,906.1328 2729.0625,907.207 L2729.0625,908.3594 Q2729.0625,909.6484 2730.1172,910.5078 Q2731.1719,911.3672 2733.0469,911.3672 Q2734.1602,911.3672 2734.9414,911.1133 Q2735.3906,910.9766 2735.8984,910.5273 Q2736.2305,910.2734 2736.4063,910.1953 Q2736.582,910.1172 2736.7969,910.1172 Q2737.207,910.1172 2737.5,910.4492 Q2737.8125,910.7617 2737.8125,911.2109 Q2737.8125,911.6406 2737.3828,912.1484 Q2736.7578,912.8906 2735.7617,913.3008 Q2734.4531,913.8672 2732.8516,913.8672 Q2730.9766,913.8672 2729.4727,913.125 Q2728.2617,912.5391 2727.4023,911.2695 Q2726.5625,910 2726.5625,908.4961 L2726.5625,907.1289 Q2726.5625,905.5664 2727.3047,904.1992 Q2728.0664,902.832 2729.375,902.1094 Q2730.7031,901.3672 2732.1875,901.3672 Q2733.0859,901.3672 2733.8672,901.6797 Q2734.6484,901.9922 2735.3125,902.6172 Z " fill="#000000"/><text fill="#000000" font-family="sans-serif" font-size="15" font-style="italic" lengthAdjust="spacing" textLength="101.25" x="2785.9375" y="903.6963">«value object»</text><text fill="#000000" font-family="sans-serif" font-size="15" lengthAdjust="spacing" textLength="156.25" x="2758.4375" y="922.5635">NumeroMecanografico</text><line style="stroke:#A80036;stroke-width:1.875;" x1="2646.25" x2="2986.25" y1="932.1094" y2="932.1094"/><line style="stroke:#A80036;stroke-width:1.875;" x1="2646.25" x2="2986.25" y1="942.1094" y2="942.1094"/><text fill="#000000" font-family="sans-serif" font-size="13.75" lengthAdjust="spacing" textLength="327.5" x="2652.5" y="961.3831">+createNumeroMecanografico(numeroMecanografico)</text><text fill="#000000" font-family="sans-serif" font-size="13.75" lengthAdjust="spacing" textLength="198.75" x="2652.5" y="978.678">+validate(numeroMecanografico)</text><!--MD5=[0f39e4cb6f03951afbf6d14bd2505654]
class Address--><rect codeLine="45" fill="#FEFECE" filter="url(#f1wvdxkdf1ubf0)" height="104.8242" id="Address" style="stroke:#A80036;stroke-width:1.875;" width="173.75" x="4075.625" y="881.875"/><ellipse cx="4111.25" cy="906.9922" fill="#ADD1B2" rx="13.75" ry="13.75" style="stroke:#A80036;stroke-width:1.25;"/><path d="M4113.75,902.6172 Q4114.0039,901.9922 4114.2969,901.6797 Q4114.5898,901.3672 4114.9219,901.3672 Q4115.5078,901.3672 4115.8789,901.7188 Q4116.25,902.0703 4116.25,902.8906 L4116.25,904.8438 Q4116.25,905.6641 4115.8984,906.0156 Q4115.5469,906.3672 4115,906.3672 Q4114.5117,906.3672 4114.1992,906.1523 Q4113.8867,905.9375 4113.75,905.3711 Q4113.6914,904.9805 4113.4766,904.7656 Q4113.0859,904.3555 4112.3828,904.1211 Q4111.6797,903.8672 4110.9766,903.8672 Q4110.0977,903.8672 4109.3555,904.2188 Q4108.6328,904.5703 4108.0664,905.3516 Q4107.5,906.1328 4107.5,907.207 L4107.5,908.3594 Q4107.5,909.6484 4108.5547,910.5078 Q4109.6094,911.3672 4111.4844,911.3672 Q4112.5977,911.3672 4113.3789,911.1133 Q4113.8281,910.9766 4114.3359,910.5273 Q4114.668,910.2734 4114.8438,910.1953 Q4115.0195,910.1172 4115.2344,910.1172 Q4115.6445,910.1172 4115.9375,910.4492 Q4116.25,910.7617 4116.25,911.2109 Q4116.25,911.6406 4115.8203,912.1484 Q4115.1953,912.8906 4114.1992,913.3008 Q4112.8906,913.8672 4111.2891,913.8672 Q4109.4141,913.8672 4107.9102,913.125 Q4106.6992,912.5391 4105.8398,911.2695 Q4105,910 4105,908.4961 L4105,907.1289 Q4105,905.5664 4105.7422,904.1992 Q4106.5039,902.832 4107.8125,902.1094 Q4109.1406,901.3672 4110.625,901.3672 Q4111.5234,901.3672 4112.3047,901.6797 Q4113.0859,901.9922 4113.75,902.6172 Z " fill="#000000"/><text fill="#000000" font-family="sans-serif" font-size="15" font-style="italic" lengthAdjust="spacing" textLength="101.25" x="4130" y="903.6963">«value object»</text><text fill="#000000" font-family="sans-serif" font-size="15" lengthAdjust="spacing" textLength="57.5" x="4151.875" y="922.5635">Address</text><line style="stroke:#A80036;stroke-width:1.875;" x1="4076.875" x2="4248.125" y1="932.1094" y2="932.1094"/><line style="stroke:#A80036;stroke-width:1.875;" x1="4076.875" x2="4248.125" y1="942.1094" y2="942.1094"/><text fill="#000000" font-family="sans-serif" font-size="13.75" lengthAdjust="spacing" textLength="158.75" x="4083.125" y="961.3831">+createAddress(address)</text><text fill="#000000" font-family="sans-serif" font-size="13.75" lengthAdjust="spacing" textLength="113.75" x="4083.125" y="978.678">+validate(address)</text><!--MD5=[b5e265065262f4f9caf90311e5706eef]
class PhoneNumber--><rect codeLine="50" fill="#FEFECE" filter="url(#f1wvdxkdf1ubf0)" height="104.8242" id="PhoneNumber" style="stroke:#A80036;stroke-width:1.875;" width="238.75" x="3793.125" y="881.875"/><ellipse cx="3856.5625" cy="906.9922" fill="#ADD1B2" rx="13.75" ry="13.75" style="stroke:#A80036;stroke-width:1.25;"/><path d="M3859.0625,902.6172 Q3859.3164,901.9922 3859.6094,901.6797 Q3859.9023,901.3672 3860.2344,901.3672 Q3860.8203,901.3672 3861.1914,901.7188 Q3861.5625,902.0703 3861.5625,902.8906 L3861.5625,904.8438 Q3861.5625,905.6641 3861.2109,906.0156 Q3860.8594,906.3672 3860.3125,906.3672 Q3859.8242,906.3672 3859.5117,906.1523 Q3859.1992,905.9375 3859.0625,905.3711 Q3859.0039,904.9805 3858.7891,904.7656 Q3858.3984,904.3555 3857.6953,904.1211 Q3856.9922,903.8672 3856.2891,903.8672 Q3855.4102,903.8672 3854.668,904.2188 Q3853.9453,904.5703 3853.3789,905.3516 Q3852.8125,906.1328 3852.8125,907.207 L3852.8125,908.3594 Q3852.8125,909.6484 3853.8672,910.5078 Q3854.9219,911.3672 3856.7969,911.3672 Q3857.9102,911.3672 3858.6914,911.1133 Q3859.1406,910.9766 3859.6484,910.5273 Q3859.9805,910.2734 3860.1563,910.1953 Q3860.332,910.1172 3860.5469,910.1172 Q3860.957,910.1172 3861.25,910.4492 Q3861.5625,910.7617 3861.5625,911.2109 Q3861.5625,911.6406 3861.1328,912.1484 Q3860.5078,912.8906 3859.5117,913.3008 Q3858.2031,913.8672 3856.6016,913.8672 Q3854.7266,913.8672 3853.2227,913.125 Q3852.0117,912.5391 3851.1523,911.2695 Q3850.3125,910 3850.3125,908.4961 L3850.3125,907.1289 Q3850.3125,905.5664 3851.0547,904.1992 Q3851.8164,902.832 3853.125,902.1094 Q3854.4531,901.3672 3855.9375,901.3672 Q3856.8359,901.3672 3857.6172,901.6797 Q3858.3984,901.9922 3859.0625,902.6172 Z " fill="#000000"/><text fill="#000000" font-family="sans-serif" font-size="15" font-style="italic" lengthAdjust="spacing" textLength="101.25" x="3882.1875" y="903.6963">«value object»</text><text fill="#000000" font-family="sans-serif" font-size="15" lengthAdjust="spacing" textLength="101.25" x="3882.1875" y="922.5635">PhoneNumber</text><line style="stroke:#A80036;stroke-width:1.875;" x1="3794.375" x2="4030.625" y1="932.1094" y2="932.1094"/><line style="stroke:#A80036;stroke-width:1.875;" x1="3794.375" x2="4030.625" y1="942.1094" y2="942.1094"/><text fill="#000000" font-family="sans-serif" font-size="13.75" lengthAdjust="spacing" textLength="223.75" x="3800.625" y="961.3831">+createPhoneNumber(phoneNumber)</text><text fill="#000000" font-family="sans-serif" font-size="13.75" lengthAdjust="spacing" textLength="147.5" x="3800.625" y="978.678">+validate(phoneNumber)</text><!--MD5=[ec957f90f125634d426aef890efece94]
class BirthDate--><rect codeLine="55" fill="#FEFECE" filter="url(#f1wvdxkdf1ubf0)" height="104.8242" id="BirthDate" style="stroke:#A80036;stroke-width:1.875;" width="180" x="3568.75" y="881.875"/><ellipse cx="3607.1875" cy="906.9922" fill="#ADD1B2" rx="13.75" ry="13.75" style="stroke:#A80036;stroke-width:1.25;"/><path d="M3609.6875,902.6172 Q3609.9414,901.9922 3610.2344,901.6797 Q3610.5273,901.3672 3610.8594,901.3672 Q3611.4453,901.3672 3611.8164,901.7188 Q3612.1875,902.0703 3612.1875,902.8906 L3612.1875,904.8438 Q3612.1875,905.6641 3611.8359,906.0156 Q3611.4844,906.3672 3610.9375,906.3672 Q3610.4492,906.3672 3610.1367,906.1523 Q3609.8242,905.9375 3609.6875,905.3711 Q3609.6289,904.9805 3609.4141,904.7656 Q3609.0234,904.3555 3608.3203,904.1211 Q3607.6172,903.8672 3606.9141,903.8672 Q3606.0352,903.8672 3605.293,904.2188 Q3604.5703,904.5703 3604.0039,905.3516 Q3603.4375,906.1328 3603.4375,907.207 L3603.4375,908.3594 Q3603.4375,909.6484 3604.4922,910.5078 Q3605.5469,911.3672 3607.4219,911.3672 Q3608.5352,911.3672 3609.3164,911.1133 Q3609.7656,910.9766 3610.2734,910.5273 Q3610.6055,910.2734 3610.7813,910.1953 Q3610.957,910.1172 3611.1719,910.1172 Q3611.582,910.1172 3611.875,910.4492 Q3612.1875,910.7617 3612.1875,911.2109 Q3612.1875,911.6406 3611.7578,912.1484 Q3611.1328,912.8906 3610.1367,913.3008 Q3608.8281,913.8672 3607.2266,913.8672 Q3605.3516,913.8672 3603.8477,913.125 Q3602.6367,912.5391 3601.7773,911.2695 Q3600.9375,910 3600.9375,908.4961 L3600.9375,907.1289 Q3600.9375,905.5664 3601.6797,904.1992 Q3602.4414,902.832 3603.75,902.1094 Q3605.0781,901.3672 3606.5625,901.3672 Q3607.4609,901.3672 3608.2422,901.6797 Q3609.0234,901.9922 3609.6875,902.6172 Z " fill="#000000"/><text fill="#000000" font-family="sans-serif" font-size="15" font-style="italic" lengthAdjust="spacing" textLength="101.25" x="3626.5625" y="903.6963">«value object»</text><text fill="#000000" font-family="sans-serif" font-size="15" lengthAdjust="spacing" textLength="63.75" x="3645.3125" y="922.5635">BirthDate</text><line style="stroke:#A80036;stroke-width:1.875;" x1="3570" x2="3747.5" y1="932.1094" y2="932.1094"/><line style="stroke:#A80036;stroke-width:1.875;" x1="3570" x2="3747.5" y1="942.1094" y2="942.1094"/><text fill="#000000" font-family="sans-serif" font-size="13.75" lengthAdjust="spacing" textLength="165" x="3576.25" y="961.3831">+createBirthDate(birthDate)</text><text fill="#000000" font-family="sans-serif" font-size="13.75" lengthAdjust="spacing" textLength="117.5" x="3576.25" y="978.678">+validate(birthDate)</text><!--MD5=[a9b02957f15c05fa9f213e9359f50233]
class BaseRoles--><rect codeLine="60" fill="#FEFECE" filter="url(#f1wvdxkdf1ubf0)" height="87.5293" id="BaseRoles" style="stroke:#A80036;stroke-width:1.875;" width="126.25" x="4293.125" y="890.625"/><ellipse cx="4315.8125" cy="915.7422" fill="#EB937F" rx="13.75" ry="13.75" style="stroke:#A80036;stroke-width:1.25;"/><path d="M4313.9375,916.9922 L4313.9375,919.4922 L4318.9375,919.4922 L4318.9375,918.2422 L4318.9375,917.6367 L4319.7188,916.9922 L4320.1875,916.9922 L4320.6563,916.9922 L4321.4375,917.6367 L4321.4375,918.2422 L4321.4375,921.9922 L4311.4375,921.9922 L4310.832,921.9922 L4310.1875,921.2109 L4310.1875,920.7422 L4310.1875,920.2734 L4310.832,919.4922 L4311.4375,919.4922 L4311.4375,919.4922 L4311.4375,911.9922 L4311.4375,911.9922 L4310.832,911.9922 L4310.1875,911.2109 L4310.1875,910.7422 L4310.1875,910.2734 L4310.832,909.4922 L4311.4375,909.4922 L4321.4375,909.4922 L4321.4375,913.2422 L4321.4375,913.8477 L4320.6563,914.4922 L4320.1875,914.4922 L4319.7188,914.4922 L4318.9375,913.8477 L4318.9375,913.2422 L4318.9375,911.9922 L4313.9375,911.9922 L4313.9375,914.4922 L4315.1875,914.4922 L4315.1875,913.8867 L4315.1875,913.8867 L4315.9688,913.2422 L4316.4375,913.2422 L4316.9063,913.2422 L4317.6875,913.8867 L4317.6875,914.4922 L4317.6875,916.9922 L4317.6875,917.5977 L4316.9063,918.2422 L4316.9063,918.2422 L4316.4375,918.2422 L4315.9688,918.2422 L4315.1875,917.5977 L4315.1875,917.5977 L4315.1875,916.9922 L4313.9375,916.9922 Z " fill="#000000"/><text fill="#000000" font-family="sans-serif" font-size="15" font-style="italic" lengthAdjust="spacing" textLength="57.5" x="4344.1875" y="912.4463">«enum»</text><text fill="#000000" font-family="sans-serif" font-size="15" lengthAdjust="spacing" textLength="77.5" x="4334.1875" y="931.3135">BaseRoles</text><line style="stroke:#A80036;stroke-width:1.875;" x1="4294.375" x2="4418.125" y1="940.8594" y2="940.8594"/><line style="stroke:#A80036;stroke-width:1.875;" x1="4294.375" x2="4418.125" y1="950.8594" y2="950.8594"/><text fill="#000000" font-family="sans-serif" font-size="13.75" lengthAdjust="spacing" textLength="111.25" x="4300.625" y="970.1331">+nonUserValues()</text><!--MD5=[fb5a3980349928d6991386b21c626158]
class CollaboratorRepositoryInterface--><rect codeLine="66" fill="#FEFECE" filter="url(#f1wvdxkdf1ubf0)" height="60" id="CollaboratorRepositoryInterface" style="stroke:#A80036;stroke-width:1.875;" width="260" x="1701.25" y="904.375"/><ellipse cx="1720" cy="924.375" fill="#B4A7E5" rx="13.75" ry="13.75" style="stroke:#A80036;stroke-width:1.25;"/><path d="M1721.25,920.625 L1721.25,928.125 L1723.75,928.125 L1724.3555,928.125 L1725,928.9063 L1725,929.375 L1725,929.8438 L1724.3555,930.625 L1723.75,930.625 L1716.25,930.625 L1715.6445,930.625 L1715,929.8438 L1715,929.375 L1715,928.9063 L1715.6445,928.125 L1716.25,928.125 L1718.75,928.125 L1718.75,920.625 L1716.25,920.625 L1715.6445,920.625 L1715,919.8438 L1715,919.375 L1715,918.9063 L1715.6445,918.125 L1716.25,918.125 L1723.75,918.125 L1724.3555,918.125 L1725,918.9063 L1725,919.375 L1725,919.8438 L1724.3555,920.625 L1723.75,920.625 L1721.25,920.625 Z " fill="#000000"/><text fill="#000000" font-family="sans-serif" font-size="15" font-style="italic" lengthAdjust="spacing" textLength="220" x="1737.5" y="930.5127">CollaboratorRepositoryInterface</text><line style="stroke:#A80036;stroke-width:1.875;" x1="1702.5" x2="1960" y1="944.375" y2="944.375"/><line style="stroke:#A80036;stroke-width:1.875;" x1="1702.5" x2="1960" y1="954.375" y2="954.375"/><!--MD5=[e8c189551b7885b999ad7cefb30fc2a3]
class PersistenceContext--><rect codeLine="72" fill="#FEFECE" filter="url(#f1wvdxkdf1ubf0)" height="87.5293" id="PersistenceContext" style="stroke:#A80036;stroke-width:1.875;" width="173.75" x="4471.875" y="1230"/><ellipse cx="4490.625" cy="1255.1172" fill="#ADD1B2" rx="13.75" ry="13.75" style="stroke:#A80036;stroke-width:1.25;"/><path d="M4493.125,1250.7422 Q4493.3789,1250.1172 4493.6719,1249.8047 Q4493.9648,1249.4922 4494.2969,1249.4922 Q4494.8828,1249.4922 4495.2539,1249.8438 Q4495.625,1250.1953 4495.625,1251.0156 L4495.625,1252.9688 Q4495.625,1253.7891 4495.2734,1254.1406 Q4494.9219,1254.4922 4494.375,1254.4922 Q4493.8867,1254.4922 4493.5742,1254.2773 Q4493.2617,1254.0625 4493.125,1253.4961 Q4493.0664,1253.1055 4492.8516,1252.8906 Q4492.4609,1252.4805 4491.7578,1252.2461 Q4491.0547,1251.9922 4490.3516,1251.9922 Q4489.4727,1251.9922 4488.7305,1252.3438 Q4488.0078,1252.6953 4487.4414,1253.4766 Q4486.875,1254.2578 4486.875,1255.332 L4486.875,1256.4844 Q4486.875,1257.7734 4487.9297,1258.6328 Q4488.9844,1259.4922 4490.8594,1259.4922 Q4491.9727,1259.4922 4492.7539,1259.2383 Q4493.2031,1259.1016 4493.7109,1258.6523 Q4494.043,1258.3984 4494.2188,1258.3203 Q4494.3945,1258.2422 4494.6094,1258.2422 Q4495.0195,1258.2422 4495.3125,1258.5742 Q4495.625,1258.8867 4495.625,1259.3359 Q4495.625,1259.7656 4495.1953,1260.2734 Q4494.5703,1261.0156 4493.5742,1261.4258 Q4492.2656,1261.9922 4490.6641,1261.9922 Q4488.7891,1261.9922 4487.2852,1261.25 Q4486.0742,1260.6641 4485.2148,1259.3945 Q4484.375,1258.125 4484.375,1256.6211 L4484.375,1255.2539 Q4484.375,1253.6914 4485.1172,1252.3242 Q4485.8789,1250.957 4487.1875,1250.2344 Q4488.5156,1249.4922 4490,1249.4922 Q4490.8984,1249.4922 4491.6797,1249.8047 Q4492.4609,1250.1172 4493.125,1250.7422 Z " fill="#000000"/><text fill="#000000" font-family="sans-serif" font-size="15" font-style="italic" lengthAdjust="spacing" textLength="96.25" x="4526.875" y="1251.8213">«persistence»</text><text fill="#000000" font-family="sans-serif" font-size="15" lengthAdjust="spacing" textLength="133.75" x="4508.125" y="1270.6885">PersistenceContext</text><line style="stroke:#A80036;stroke-width:1.875;" x1="4473.125" x2="4644.375" y1="1280.2344" y2="1280.2344"/><line style="stroke:#A80036;stroke-width:1.875;" x1="4473.125" x2="4644.375" y1="1290.2344" y2="1290.2344"/><text fill="#000000" font-family="sans-serif" font-size="13.75" lengthAdjust="spacing" textLength="88.75" x="4479.375" y="1309.5081">+repositories()</text><!--MD5=[48590afff58a68e2fcba47824d6f8a11]
class RepositoryFactory--><rect codeLine="76" fill="#FEFECE" filter="url(#f1wvdxkdf1ubf0)" height="60" id="RepositoryFactory" style="stroke:#A80036;stroke-width:1.875;" width="163.75" x="4718.125" y="1243.75"/><ellipse cx="4736.875" cy="1263.75" fill="#B4A7E5" rx="13.75" ry="13.75" style="stroke:#A80036;stroke-width:1.25;"/><path d="M4738.125,1260 L4738.125,1267.5 L4740.625,1267.5 L4741.2305,1267.5 L4741.875,1268.2813 L4741.875,1268.75 L4741.875,1269.2188 L4741.2305,1270 L4740.625,1270 L4733.125,1270 L4732.5195,1270 L4731.875,1269.2188 L4731.875,1268.75 L4731.875,1268.2813 L4732.5195,1267.5 L4733.125,1267.5 L4735.625,1267.5 L4735.625,1260 L4733.125,1260 L4732.5195,1260 L4731.875,1259.2188 L4731.875,1258.75 L4731.875,1258.2813 L4732.5195,1257.5 L4733.125,1257.5 L4740.625,1257.5 L4741.2305,1257.5 L4741.875,1258.2813 L4741.875,1258.75 L4741.875,1259.2188 L4741.2305,1260 L4740.625,1260 L4738.125,1260 Z " fill="#000000"/><text fill="#000000" font-family="sans-serif" font-size="15" font-style="italic" lengthAdjust="spacing" textLength="123.75" x="4754.375" y="1269.8877">RepositoryFactory</text><line style="stroke:#A80036;stroke-width:1.875;" x1="4719.375" x2="4880.625" y1="1283.75" y2="1283.75"/><line style="stroke:#A80036;stroke-width:1.875;" x1="4719.375" x2="4880.625" y1="1293.75" y2="1293.75"/><!--MD5=[2d01bac238b43755c9c31f84e54ba530]
class TeamRepositoryInterface--><rect codeLine="82" fill="#FEFECE" filter="url(#f1wvdxkdf1ubf0)" height="60" id="TeamRepositoryInterface" style="stroke:#A80036;stroke-width:1.875;" width="213.75" x="1305.625" y="533.75"/><ellipse cx="1324.375" cy="553.75" fill="#B4A7E5" rx="13.75" ry="13.75" style="stroke:#A80036;stroke-width:1.25;"/><path d="M1325.625,550 L1325.625,557.5 L1328.125,557.5 L1328.7305,557.5 L1329.375,558.2813 L1329.375,558.75 L1329.375,559.2188 L1328.7305,560 L1328.125,560 L1320.625,560 L1320.0195,560 L1319.375,559.2188 L1319.375,558.75 L1319.375,558.2813 L1320.0195,557.5 L1320.625,557.5 L1323.125,557.5 L1323.125,550 L1320.625,550 L1320.0195,550 L1319.375,549.2188 L1319.375,548.75 L1319.375,548.2813 L1320.0195,547.5 L1320.625,547.5 L1328.125,547.5 L1328.7305,547.5 L1329.375,548.2813 L1329.375,548.75 L1329.375,549.2188 L1328.7305,550 L1328.125,550 L1325.625,550 Z " fill="#000000"/><text fill="#000000" font-family="sans-serif" font-size="15" font-style="italic" lengthAdjust="spacing" textLength="173.75" x="1341.875" y="559.8877">TeamRepositoryInterface</text><line style="stroke:#A80036;stroke-width:1.875;" x1="1306.875" x2="1518.125" y1="573.75" y2="573.75"/><line style="stroke:#A80036;stroke-width:1.875;" x1="1306.875" x2="1518.125" y1="583.75" y2="583.75"/><!--MD5=[00cdd2deb0aa10b2d4bcc9ef4d203d78]
class CreateTeamController--><rect codeLine="87" fill="#FEFECE" filter="url(#f1wvdxkdf1ubf0)" height="70.2344" id="CreateTeamController" style="stroke:#A80036;stroke-width:1.875;" width="193.75" x="973.125" y="528.75"/><ellipse cx="991.875" cy="553.8672" fill="#ADD1B2" rx="13.75" ry="13.75" style="stroke:#A80036;stroke-width:1.25;"/><path d="M994.375,549.4922 Q994.6289,548.8672 994.9219,548.5547 Q995.2148,548.2422 995.5469,548.2422 Q996.1328,548.2422 996.5039,548.5938 Q996.875,548.9453 996.875,549.7656 L996.875,551.7188 Q996.875,552.5391 996.5234,552.8906 Q996.1719,553.2422 995.625,553.2422 Q995.1367,553.2422 994.8242,553.0273 Q994.5117,552.8125 994.375,552.2461 Q994.3164,551.8555 994.1016,551.6406 Q993.7109,551.2305 993.0078,550.9961 Q992.3047,550.7422 991.6016,550.7422 Q990.7227,550.7422 989.9805,551.0938 Q989.2578,551.4453 988.6914,552.2266 Q988.125,553.0078 988.125,554.082 L988.125,555.2344 Q988.125,556.5234 989.1797,557.3828 Q990.2344,558.2422 992.1094,558.2422 Q993.2227,558.2422 994.0039,557.9883 Q994.4531,557.8516 994.9609,557.4023 Q995.293,557.1484 995.4688,557.0703 Q995.6445,556.9922 995.8594,556.9922 Q996.2695,556.9922 996.5625,557.3242 Q996.875,557.6367 996.875,558.0859 Q996.875,558.5156 996.4453,559.0234 Q995.8203,559.7656 994.8242,560.1758 Q993.5156,560.7422 991.9141,560.7422 Q990.0391,560.7422 988.5352,560 Q987.3242,559.4141 986.4648,558.1445 Q985.625,556.875 985.625,555.3711 L985.625,554.0039 Q985.625,552.4414 986.3672,551.0742 Q987.1289,549.707 988.4375,548.9844 Q989.7656,548.2422 991.25,548.2422 Q992.1484,548.2422 992.9297,548.5547 Q993.7109,548.8672 994.375,549.4922 Z " fill="#000000"/><text fill="#000000" font-family="sans-serif" font-size="15" font-style="italic" lengthAdjust="spacing" textLength="92.5" x="1040" y="550.5713">«application»</text><text fill="#000000" font-family="sans-serif" font-size="15" lengthAdjust="spacing" textLength="153.75" x="1009.375" y="569.4385">CreateTeamController</text><line style="stroke:#A80036;stroke-width:1.875;" x1="974.375" x2="1165.625" y1="578.9844" y2="578.9844"/><line style="stroke:#A80036;stroke-width:1.875;" x1="974.375" x2="1165.625" y1="588.9844" y2="588.9844"/><!--MD5=[dfb0845b8492ffe07b1ce50e003034d7]
class Team--><rect codeLine="91" fill="#FEFECE" filter="url(#f1wvdxkdf1ubf0)" height="156.709" id="Team" style="stroke:#A80036;stroke-width:1.875;" width="361.25" x="130.625" y="856.25"/><ellipse cx="281.5625" cy="881.3672" fill="#ADD1B2" rx="13.75" ry="13.75" style="stroke:#A80036;stroke-width:1.25;"/><path d="M284.0625,876.9922 Q284.3164,876.3672 284.6094,876.0547 Q284.9023,875.7422 285.2344,875.7422 Q285.8203,875.7422 286.1914,876.0938 Q286.5625,876.4453 286.5625,877.2656 L286.5625,879.2188 Q286.5625,880.0391 286.2109,880.3906 Q285.8594,880.7422 285.3125,880.7422 Q284.8242,880.7422 284.5117,880.5273 Q284.1992,880.3125 284.0625,879.7461 Q284.0039,879.3555 283.7891,879.1406 Q283.3984,878.7305 282.6953,878.4961 Q281.9922,878.2422 281.2891,878.2422 Q280.4102,878.2422 279.668,878.5938 Q278.9453,878.9453 278.3789,879.7266 Q277.8125,880.5078 277.8125,881.582 L277.8125,882.7344 Q277.8125,884.0234 278.8672,884.8828 Q279.9219,885.7422 281.7969,885.7422 Q282.9102,885.7422 283.6914,885.4883 Q284.1406,885.3516 284.6484,884.9023 Q284.9805,884.6484 285.1563,884.5703 Q285.332,884.4922 285.5469,884.4922 Q285.957,884.4922 286.25,884.8242 Q286.5625,885.1367 286.5625,885.5859 Q286.5625,886.0156 286.1328,886.5234 Q285.5078,887.2656 284.5117,887.6758 Q283.2031,888.2422 281.6016,888.2422 Q279.7266,888.2422 278.2227,887.5 Q277.0117,886.9141 276.1523,885.6445 Q275.3125,884.375 275.3125,882.8711 L275.3125,881.5039 Q275.3125,879.9414 276.0547,878.5742 Q276.8164,877.207 278.125,876.4844 Q279.4531,875.7422 280.9375,875.7422 Q281.8359,875.7422 282.6172,876.0547 Q283.3984,876.3672 284.0625,876.9922 Z " fill="#000000"/><text fill="#000000" font-family="sans-serif" font-size="15" font-style="italic" lengthAdjust="spacing" textLength="53.75" x="304.6875" y="878.0713">«entity»</text><text fill="#000000" font-family="sans-serif" font-size="15" lengthAdjust="spacing" textLength="40" x="311.5625" y="896.9385">Team</text><line style="stroke:#A80036;stroke-width:1.875;" x1="131.875" x2="490.625" y1="906.4844" y2="906.4844"/><text fill="#000000" font-family="sans-serif" font-size="13.75" lengthAdjust="spacing" textLength="63.75" x="138.125" y="925.7581">-teamType</text><text fill="#000000" font-family="sans-serif" font-size="13.75" lengthAdjust="spacing" textLength="57.5" x="138.125" y="943.053">-acronym</text><text fill="#000000" font-family="sans-serif" font-size="13.75" lengthAdjust="spacing" textLength="73.75" x="138.125" y="960.3479">-designation</text><text fill="#000000" font-family="sans-serif" font-size="13.75" lengthAdjust="spacing" textLength="92.5" x="138.125" y="977.6428">-representation</text><line style="stroke:#A80036;stroke-width:1.875;" x1="131.875" x2="490.625" y1="985.6641" y2="985.6641"/><text fill="#000000" font-family="sans-serif" font-size="13.75" lengthAdjust="spacing" textLength="346.25" x="138.125" y="1004.9377">+create(teamType, acronym, designation, representation)</text><!--MD5=[739264bb8c13fd453fd6fc4eef2b32cc]
class Acronym--><rect codeLine="99" fill="#FEFECE" filter="url(#f1wvdxkdf1ubf0)" height="104.8242" id="Acronym" style="stroke:#A80036;stroke-width:1.875;" width="178.75" x="873.125" y="881.875"/><ellipse cx="911" cy="906.9922" fill="#ADD1B2" rx="13.75" ry="13.75" style="stroke:#A80036;stroke-width:1.25;"/><path d="M913.5,902.6172 Q913.7539,901.9922 914.0469,901.6797 Q914.3398,901.3672 914.6719,901.3672 Q915.2578,901.3672 915.6289,901.7188 Q916,902.0703 916,902.8906 L916,904.8438 Q916,905.6641 915.6484,906.0156 Q915.2969,906.3672 914.75,906.3672 Q914.2617,906.3672 913.9492,906.1523 Q913.6367,905.9375 913.5,905.3711 Q913.4414,904.9805 913.2266,904.7656 Q912.8359,904.3555 912.1328,904.1211 Q911.4297,903.8672 910.7266,903.8672 Q909.8477,903.8672 909.1055,904.2188 Q908.3828,904.5703 907.8164,905.3516 Q907.25,906.1328 907.25,907.207 L907.25,908.3594 Q907.25,909.6484 908.3047,910.5078 Q909.3594,911.3672 911.2344,911.3672 Q912.3477,911.3672 913.1289,911.1133 Q913.5781,910.9766 914.0859,910.5273 Q914.418,910.2734 914.5938,910.1953 Q914.7695,910.1172 914.9844,910.1172 Q915.3945,910.1172 915.6875,910.4492 Q916,910.7617 916,911.2109 Q916,911.6406 915.5703,912.1484 Q914.9453,912.8906 913.9492,913.3008 Q912.6406,913.8672 911.0391,913.8672 Q909.1641,913.8672 907.6602,913.125 Q906.4492,912.5391 905.5898,911.2695 Q904.75,910 904.75,908.4961 L904.75,907.1289 Q904.75,905.5664 905.4922,904.1992 Q906.2539,902.832 907.5625,902.1094 Q908.8906,901.3672 910.375,901.3672 Q911.2734,901.3672 912.0547,901.6797 Q912.8359,901.9922 913.5,902.6172 Z " fill="#000000"/><text fill="#000000" font-family="sans-serif" font-size="15" font-style="italic" lengthAdjust="spacing" textLength="101.25" x="930.25" y="903.6963">«value object»</text><text fill="#000000" font-family="sans-serif" font-size="15" lengthAdjust="spacing" textLength="58.75" x="951.5" y="922.5635">Acronym</text><line style="stroke:#A80036;stroke-width:1.875;" x1="874.375" x2="1050.625" y1="932.1094" y2="932.1094"/><line style="stroke:#A80036;stroke-width:1.875;" x1="874.375" x2="1050.625" y1="942.1094" y2="942.1094"/><text fill="#000000" font-family="sans-serif" font-size="13.75" lengthAdjust="spacing" textLength="163.75" x="880.625" y="961.3831">+createAcronym(acronym)</text><text fill="#000000" font-family="sans-serif" font-size="13.75" lengthAdjust="spacing" textLength="116.25" x="880.625" y="978.678">+validate(acronym)</text><!--MD5=[8cd886dce82f141b4ba68c6b064e7440]
class TeamDescription--><rect codeLine="104" fill="#FEFECE" filter="url(#f1wvdxkdf1ubf0)" height="104.8242" id="TeamDescription" style="stroke:#A80036;stroke-width:1.875;" width="267.5" x="1252.5" y="881.875"/><ellipse cx="1321.5625" cy="906.9922" fill="#ADD1B2" rx="13.75" ry="13.75" style="stroke:#A80036;stroke-width:1.25;"/><path d="M1324.0625,902.6172 Q1324.3164,901.9922 1324.6094,901.6797 Q1324.9023,901.3672 1325.2344,901.3672 Q1325.8203,901.3672 1326.1914,901.7188 Q1326.5625,902.0703 1326.5625,902.8906 L1326.5625,904.8438 Q1326.5625,905.6641 1326.2109,906.0156 Q1325.8594,906.3672 1325.3125,906.3672 Q1324.8242,906.3672 1324.5117,906.1523 Q1324.1992,905.9375 1324.0625,905.3711 Q1324.0039,904.9805 1323.7891,904.7656 Q1323.3984,904.3555 1322.6953,904.1211 Q1321.9922,903.8672 1321.2891,903.8672 Q1320.4102,903.8672 1319.668,904.2188 Q1318.9453,904.5703 1318.3789,905.3516 Q1317.8125,906.1328 1317.8125,907.207 L1317.8125,908.3594 Q1317.8125,909.6484 1318.8672,910.5078 Q1319.9219,911.3672 1321.7969,911.3672 Q1322.9102,911.3672 1323.6914,911.1133 Q1324.1406,910.9766 1324.6484,910.5273 Q1324.9805,910.2734 1325.1563,910.1953 Q1325.332,910.1172 1325.5469,910.1172 Q1325.957,910.1172 1326.25,910.4492 Q1326.5625,910.7617 1326.5625,911.2109 Q1326.5625,911.6406 1326.1328,912.1484 Q1325.5078,912.8906 1324.5117,913.3008 Q1323.2031,913.8672 1321.6016,913.8672 Q1319.7266,913.8672 1318.2227,913.125 Q1317.0117,912.5391 1316.1523,911.2695 Q1315.3125,910 1315.3125,908.4961 L1315.3125,907.1289 Q1315.3125,905.5664 1316.0547,904.1992 Q1316.8164,902.832 1318.125,902.1094 Q1319.4531,901.3672 1320.9375,901.3672 Q1321.8359,901.3672 1322.6172,901.6797 Q1323.3984,901.9922 1324.0625,902.6172 Z " fill="#000000"/><text fill="#000000" font-family="sans-serif" font-size="15" font-style="italic" lengthAdjust="spacing" textLength="101.25" x="1355.9375" y="903.6963">«value object»</text><text fill="#000000" font-family="sans-serif" font-size="15" lengthAdjust="spacing" textLength="118.75" x="1347.1875" y="922.5635">TeamDescription</text><line style="stroke:#A80036;stroke-width:1.875;" x1="1253.75" x2="1518.75" y1="932.1094" y2="932.1094"/><line style="stroke:#A80036;stroke-width:1.875;" x1="1253.75" x2="1518.75" y1="942.1094" y2="942.1094"/><text fill="#000000" font-family="sans-serif" font-size="13.75" lengthAdjust="spacing" textLength="252.5" x="1260" y="961.3831">+createTeamDescription(teamDescription)</text><text fill="#000000" font-family="sans-serif" font-size="13.75" lengthAdjust="spacing" textLength="160" x="1260" y="978.678">+validate(teamDescription)</text><!--MD5=[4613ed2da30dc149c45cd27489abac80]
class TeamType--><rect codeLine="109" fill="#FEFECE" filter="url(#f1wvdxkdf1ubf0)" height="70.2344" id="TeamType" style="stroke:#A80036;stroke-width:1.875;" width="112.5" x="1096.25" y="899.375"/><ellipse cx="1115" cy="924.4922" fill="#EB937F" rx="13.75" ry="13.75" style="stroke:#A80036;stroke-width:1.25;"/><path d="M1113.125,925.7422 L1113.125,928.2422 L1118.125,928.2422 L1118.125,926.9922 L1118.125,926.3867 L1118.9063,925.7422 L1119.375,925.7422 L1119.8438,925.7422 L1120.625,926.3867 L1120.625,926.9922 L1120.625,930.7422 L1110.625,930.7422 L1110.0195,930.7422 L1109.375,929.9609 L1109.375,929.4922 L1109.375,929.0234 L1110.0195,928.2422 L1110.625,928.2422 L1110.625,928.2422 L1110.625,920.7422 L1110.625,920.7422 L1110.0195,920.7422 L1109.375,919.9609 L1109.375,919.4922 L1109.375,919.0234 L1110.0195,918.2422 L1110.625,918.2422 L1120.625,918.2422 L1120.625,921.9922 L1120.625,922.5977 L1119.8438,923.2422 L1119.375,923.2422 L1118.9063,923.2422 L1118.125,922.5977 L1118.125,921.9922 L1118.125,920.7422 L1113.125,920.7422 L1113.125,923.2422 L1114.375,923.2422 L1114.375,922.6367 L1114.375,922.6367 L1115.1563,921.9922 L1115.625,921.9922 L1116.0938,921.9922 L1116.875,922.6367 L1116.875,923.2422 L1116.875,925.7422 L1116.875,926.3477 L1116.0938,926.9922 L1116.0938,926.9922 L1115.625,926.9922 L1115.1563,926.9922 L1114.375,926.3477 L1114.375,926.3477 L1114.375,925.7422 L1113.125,925.7422 Z " fill="#000000"/><text fill="#000000" font-family="sans-serif" font-size="15" font-style="italic" lengthAdjust="spacing" textLength="57.5" x="1140" y="921.1963">«enum»</text><text fill="#000000" font-family="sans-serif" font-size="15" lengthAdjust="spacing" textLength="72.5" x="1132.5" y="940.0635">TeamType</text><line style="stroke:#A80036;stroke-width:1.875;" x1="1097.5" x2="1207.5" y1="949.6094" y2="949.6094"/><line style="stroke:#A80036;stroke-width:1.875;" x1="1097.5" x2="1207.5" y1="959.6094" y2="959.6094"/><!--MD5=[cc2cd59ef9fcad127348dd6f4d3163e7]
class TeamBuilder--><rect codeLine="112" fill="#FEFECE" filter="url(#f1wvdxkdf1ubf0)" height="225.8887" id="TeamBuilder" style="stroke:#A80036;stroke-width:1.875;" width="237.5" x="563.75" y="821.25"/><ellipse cx="632.8125" cy="846.3672" fill="#ADD1B2" rx="13.75" ry="13.75" style="stroke:#A80036;stroke-width:1.25;"/><path d="M635.3125,841.9922 Q635.5664,841.3672 635.8594,841.0547 Q636.1523,840.7422 636.4844,840.7422 Q637.0703,840.7422 637.4414,841.0938 Q637.8125,841.4453 637.8125,842.2656 L637.8125,844.2188 Q637.8125,845.0391 637.4609,845.3906 Q637.1094,845.7422 636.5625,845.7422 Q636.0742,845.7422 635.7617,845.5273 Q635.4492,845.3125 635.3125,844.7461 Q635.2539,844.3555 635.0391,844.1406 Q634.6484,843.7305 633.9453,843.4961 Q633.2422,843.2422 632.5391,843.2422 Q631.6602,843.2422 630.918,843.5938 Q630.1953,843.9453 629.6289,844.7266 Q629.0625,845.5078 629.0625,846.582 L629.0625,847.7344 Q629.0625,849.0234 630.1172,849.8828 Q631.1719,850.7422 633.0469,850.7422 Q634.1602,850.7422 634.9414,850.4883 Q635.3906,850.3516 635.8984,849.9023 Q636.2305,849.6484 636.4063,849.5703 Q636.582,849.4922 636.7969,849.4922 Q637.207,849.4922 637.5,849.8242 Q637.8125,850.1367 637.8125,850.5859 Q637.8125,851.0156 637.3828,851.5234 Q636.7578,852.2656 635.7617,852.6758 Q634.4531,853.2422 632.8516,853.2422 Q630.9766,853.2422 629.4727,852.5 Q628.2617,851.9141 627.4023,850.6445 Q626.5625,849.375 626.5625,847.8711 L626.5625,846.5039 Q626.5625,844.9414 627.3047,843.5742 Q628.0664,842.207 629.375,841.4844 Q630.7031,840.7422 632.1875,840.7422 Q633.0859,840.7422 633.8672,841.0547 Q634.6484,841.3672 635.3125,841.9922 Z " fill="#000000"/><text fill="#000000" font-family="sans-serif" font-size="15" font-style="italic" lengthAdjust="spacing" textLength="66.25" x="669.6875" y="843.0713">«builder»</text><text fill="#000000" font-family="sans-serif" font-size="15" lengthAdjust="spacing" textLength="88.75" x="658.4375" y="861.9385">TeamBuilder</text><line style="stroke:#A80036;stroke-width:1.875;" x1="565" x2="800" y1="871.4844" y2="871.4844"/><text fill="#000000" font-family="sans-serif" font-size="13.75" lengthAdjust="spacing" textLength="63.75" x="571.25" y="890.7581">-teamType</text><text fill="#000000" font-family="sans-serif" font-size="13.75" lengthAdjust="spacing" textLength="92.5" x="571.25" y="908.053">-representation</text><text fill="#000000" font-family="sans-serif" font-size="13.75" lengthAdjust="spacing" textLength="57.5" x="571.25" y="925.3479">-acronym</text><text fill="#000000" font-family="sans-serif" font-size="13.75" lengthAdjust="spacing" textLength="101.25" x="571.25" y="942.6428">-teamDescription</text><line style="stroke:#A80036;stroke-width:1.875;" x1="565" x2="800" y1="950.6641" y2="950.6641"/><text fill="#000000" font-family="sans-serif" font-size="13.75" lengthAdjust="spacing" textLength="165" x="571.25" y="969.9377">+withTeamType(teamType)</text><text fill="#000000" font-family="sans-serif" font-size="13.75" lengthAdjust="spacing" textLength="222.5" x="571.25" y="987.2327">+withRepresentation(representation)</text><text fill="#000000" font-family="sans-serif" font-size="13.75" lengthAdjust="spacing" textLength="151.25" x="571.25" y="1004.5276">+withAcronym(acronym)</text><text fill="#000000" font-family="sans-serif" font-size="13.75" lengthAdjust="spacing" textLength="207.5" x="571.25" y="1021.8225">+withDescription(teamDescription)</text><text fill="#000000" font-family="sans-serif" font-size="13.75" lengthAdjust="spacing" textLength="45" x="571.25" y="1039.1174">+build()</text><!--MD5=[7d8ac9ac30c94f5163e620de18c62996]
class CollaboratorRepository--><rect codeLine="135" fill="#FEFECE" filter="url(#f1wvdxkdf1ubf0)" height="104.8242" id="CollaboratorRepository" style="stroke:#A80036;stroke-width:1.875;" width="198.75" x="5528.125" y="881.875"/><ellipse cx="5546.875" cy="906.9922" fill="#ADD1B2" rx="13.75" ry="13.75" style="stroke:#A80036;stroke-width:1.25;"/><path d="M5549.375,902.6172 Q5549.6289,901.9922 5549.9219,901.6797 Q5550.2148,901.3672 5550.5469,901.3672 Q5551.1328,901.3672 5551.5039,901.7188 Q5551.875,902.0703 5551.875,902.8906 L5551.875,904.8438 Q5551.875,905.6641 5551.5234,906.0156 Q5551.1719,906.3672 5550.625,906.3672 Q5550.1367,906.3672 5549.8242,906.1523 Q5549.5117,905.9375 5549.375,905.3711 Q5549.3164,904.9805 5549.1016,904.7656 Q5548.7109,904.3555 5548.0078,904.1211 Q5547.3047,903.8672 5546.6016,903.8672 Q5545.7227,903.8672 5544.9805,904.2188 Q5544.2578,904.5703 5543.6914,905.3516 Q5543.125,906.1328 5543.125,907.207 L5543.125,908.3594 Q5543.125,909.6484 5544.1797,910.5078 Q5545.2344,911.3672 5547.1094,911.3672 Q5548.2227,911.3672 5549.0039,911.1133 Q5549.4531,910.9766 5549.9609,910.5273 Q5550.293,910.2734 5550.4688,910.1953 Q5550.6445,910.1172 5550.8594,910.1172 Q5551.2695,910.1172 5551.5625,910.4492 Q5551.875,910.7617 5551.875,911.2109 Q5551.875,911.6406 5551.4453,912.1484 Q5550.8203,912.8906 5549.8242,913.3008 Q5548.5156,913.8672 5546.9141,913.8672 Q5545.0391,913.8672 5543.5352,913.125 Q5542.3242,912.5391 5541.4648,911.2695 Q5540.625,910 5540.625,908.4961 L5540.625,907.1289 Q5540.625,905.5664 5541.3672,904.1992 Q5542.1289,902.832 5543.4375,902.1094 Q5544.7656,901.3672 5546.25,901.3672 Q5547.1484,901.3672 5547.9297,901.6797 Q5548.7109,901.9922 5549.375,902.6172 Z " fill="#000000"/><text fill="#000000" font-family="sans-serif" font-size="15" font-style="italic" lengthAdjust="spacing" textLength="85" x="5601.25" y="903.6963">«repository»</text><text fill="#000000" font-family="sans-serif" font-size="15" lengthAdjust="spacing" textLength="158.75" x="5564.375" y="922.5635">CollaboratorRepository</text><line style="stroke:#A80036;stroke-width:1.875;" x1="5529.375" x2="5725.625" y1="932.1094" y2="932.1094"/><line style="stroke:#A80036;stroke-width:1.875;" x1="5529.375" x2="5725.625" y1="942.1094" y2="942.1094"/><text fill="#000000" font-family="sans-serif" font-size="13.75" lengthAdjust="spacing" textLength="30" x="5535.625" y="961.3831">+all()</text><text fill="#000000" font-family="sans-serif" font-size="13.75" lengthAdjust="spacing" textLength="118.75" x="5535.625" y="978.678">+save(collaborator)</text><!--MD5=[a1c1fa320377ef3879e648904d970d58]
class TeamRepository--><rect codeLine="140" fill="#FEFECE" filter="url(#f1wvdxkdf1ubf0)" height="104.8242" id="TeamRepository" style="stroke:#A80036;stroke-width:1.875;" width="153.75" x="5043.125" y="881.875"/><ellipse cx="5061.875" cy="906.9922" fill="#ADD1B2" rx="13.75" ry="13.75" style="stroke:#A80036;stroke-width:1.25;"/><path d="M5064.375,902.6172 Q5064.6289,901.9922 5064.9219,901.6797 Q5065.2148,901.3672 5065.5469,901.3672 Q5066.1328,901.3672 5066.5039,901.7188 Q5066.875,902.0703 5066.875,902.8906 L5066.875,904.8438 Q5066.875,905.6641 5066.5234,906.0156 Q5066.1719,906.3672 5065.625,906.3672 Q5065.1367,906.3672 5064.8242,906.1523 Q5064.5117,905.9375 5064.375,905.3711 Q5064.3164,904.9805 5064.1016,904.7656 Q5063.7109,904.3555 5063.0078,904.1211 Q5062.3047,903.8672 5061.6016,903.8672 Q5060.7227,903.8672 5059.9805,904.2188 Q5059.2578,904.5703 5058.6914,905.3516 Q5058.125,906.1328 5058.125,907.207 L5058.125,908.3594 Q5058.125,909.6484 5059.1797,910.5078 Q5060.2344,911.3672 5062.1094,911.3672 Q5063.2227,911.3672 5064.0039,911.1133 Q5064.4531,910.9766 5064.9609,910.5273 Q5065.293,910.2734 5065.4688,910.1953 Q5065.6445,910.1172 5065.8594,910.1172 Q5066.2695,910.1172 5066.5625,910.4492 Q5066.875,910.7617 5066.875,911.2109 Q5066.875,911.6406 5066.4453,912.1484 Q5065.8203,912.8906 5064.8242,913.3008 Q5063.5156,913.8672 5061.9141,913.8672 Q5060.0391,913.8672 5058.5352,913.125 Q5057.3242,912.5391 5056.4648,911.2695 Q5055.625,910 5055.625,908.4961 L5055.625,907.1289 Q5055.625,905.5664 5056.3672,904.1992 Q5057.1289,902.832 5058.4375,902.1094 Q5059.7656,901.3672 5061.25,901.3672 Q5062.1484,901.3672 5062.9297,901.6797 Q5063.7109,901.9922 5064.375,902.6172 Z " fill="#000000"/><text fill="#000000" font-family="sans-serif" font-size="15" font-style="italic" lengthAdjust="spacing" textLength="85" x="5093.75" y="903.6963">«repository»</text><text fill="#000000" font-family="sans-serif" font-size="15" lengthAdjust="spacing" textLength="113.75" x="5079.375" y="922.5635">TeamRepository</text><line style="stroke:#A80036;stroke-width:1.875;" x1="5044.375" x2="5195.625" y1="932.1094" y2="932.1094"/><line style="stroke:#A80036;stroke-width:1.875;" x1="5044.375" x2="5195.625" y1="942.1094" y2="942.1094"/><text fill="#000000" font-family="sans-serif" font-size="13.75" lengthAdjust="spacing" textLength="30" x="5050.625" y="961.3831">+all()</text><text fill="#000000" font-family="sans-serif" font-size="13.75" lengthAdjust="spacing" textLength="76.25" x="5050.625" y="978.678">+save(team)</text><!--MD5=[e0087e3f3b69767d7a6ef6888f2693a1]
class JpaRepositoryFactory--><rect codeLine="145" fill="#FEFECE" filter="url(#f1wvdxkdf1ubf0)" height="104.8242" id="JpaRepositoryFactory" style="stroke:#A80036;stroke-width:1.875;" width="187.5" x="5268.75" y="881.875"/><ellipse cx="5287.5" cy="906.9922" fill="#ADD1B2" rx="13.75" ry="13.75" style="stroke:#A80036;stroke-width:1.25;"/><path d="M5290,902.6172 Q5290.2539,901.9922 5290.5469,901.6797 Q5290.8398,901.3672 5291.1719,901.3672 Q5291.7578,901.3672 5292.1289,901.7188 Q5292.5,902.0703 5292.5,902.8906 L5292.5,904.8438 Q5292.5,905.6641 5292.1484,906.0156 Q5291.7969,906.3672 5291.25,906.3672 Q5290.7617,906.3672 5290.4492,906.1523 Q5290.1367,905.9375 5290,905.3711 Q5289.9414,904.9805 5289.7266,904.7656 Q5289.3359,904.3555 5288.6328,904.1211 Q5287.9297,903.8672 5287.2266,903.8672 Q5286.3477,903.8672 5285.6055,904.2188 Q5284.8828,904.5703 5284.3164,905.3516 Q5283.75,906.1328 5283.75,907.207 L5283.75,908.3594 Q5283.75,909.6484 5284.8047,910.5078 Q5285.8594,911.3672 5287.7344,911.3672 Q5288.8477,911.3672 5289.6289,911.1133 Q5290.0781,910.9766 5290.5859,910.5273 Q5290.918,910.2734 5291.0938,910.1953 Q5291.2695,910.1172 5291.4844,910.1172 Q5291.8945,910.1172 5292.1875,910.4492 Q5292.5,910.7617 5292.5,911.2109 Q5292.5,911.6406 5292.0703,912.1484 Q5291.4453,912.8906 5290.4492,913.3008 Q5289.1406,913.8672 5287.5391,913.8672 Q5285.6641,913.8672 5284.1602,913.125 Q5282.9492,912.5391 5282.0898,911.2695 Q5281.25,910 5281.25,908.4961 L5281.25,907.1289 Q5281.25,905.5664 5281.9922,904.1992 Q5282.7539,902.832 5284.0625,902.1094 Q5285.3906,901.3672 5286.875,901.3672 Q5287.7734,901.3672 5288.5547,901.6797 Q5289.3359,901.9922 5290,902.6172 Z " fill="#000000"/><text fill="#000000" font-family="sans-serif" font-size="15" font-style="italic" lengthAdjust="spacing" textLength="62.5" x="5347.5" y="903.6963">«factory»</text><text fill="#000000" font-family="sans-serif" font-size="15" lengthAdjust="spacing" textLength="147.5" x="5305" y="922.5635">JpaRepositoryFactory</text><line style="stroke:#A80036;stroke-width:1.875;" x1="5270" x2="5455" y1="932.1094" y2="932.1094"/><line style="stroke:#A80036;stroke-width:1.875;" x1="5270" x2="5455" y1="942.1094" y2="942.1094"/><text fill="#000000" font-family="sans-serif" font-size="13.75" lengthAdjust="spacing" textLength="96.25" x="5276.25" y="961.3831">+collaborators()</text><text fill="#000000" font-family="sans-serif" font-size="13.75" lengthAdjust="spacing" textLength="47.5" x="5276.25" y="978.678">+roles()</text><!--MD5=[0fbf2a18eb9d4f0e696c707d0a3ab8d4]
link CreateTeamUI to CreateTeamController--><path codeLine="153" d="M1070,202.6625 C1070,275.0625 1070,444.45 1070,522.2 " fill="none" id="CreateTeamUI-to-CreateTeamController" style="stroke:#A80036;stroke-width:1.25;stroke-dasharray:7.0,7.0;"/><polygon fill="#A80036" points="1070,528.525,1075,517.275,1070,522.275,1065,517.275,1070,528.525" style="stroke:#A80036;stroke-width:1.25;"/><!--MD5=[3ed01820e4ceee59de10e9959e59d459]
link CollaboratorSpecificationController to PersistenceContext--><path codeLine="154" d="M4633.7875,1047.8 C4613.85,1107.5125 4590.35,1177.8875 4575.025,1223.7625 " fill="none" id="CollaboratorSpecificationController-to-PersistenceContext" style="stroke:#A80036;stroke-width:1.25;stroke-dasharray:7.0,7.0;"/><polygon fill="#A80036" points="4573.0125,1229.7875,4581.3217,1220.7035,4574.9943,1223.86,4571.8377,1217.5326,4573.0125,1229.7875" style="stroke:#A80036;stroke-width:1.25;"/><!--MD5=[cf2fd867f1ba2f28c3938f1b1a593377]
link CreateTeamController to PersistenceContext--><path codeLine="155" d="M1163.9875,598.8875 C1201.1625,610.6875 1244.6,622.5375 1285,628.75 C1325.2625,634.95 2722.6875,624.7 2751.25,653.75 C2758.2625,660.875 2758.2875,669.15 2751.25,676.25 C2730.325,697.3625 1702.175,665.1375 1681.25,686.25 C1549.4875,819.25 1552.7125,971.375 1681.25,1107.5 C1779.075,1211.1 3981.4,1260.975 4465.3,1270.7125 " fill="none" id="CreateTeamController-to-PersistenceContext" style="stroke:#A80036;stroke-width:1.25;stroke-dasharray:7.0,7.0;"/><polygon fill="#A80036" points="4471.6,1270.8375,4460.4522,1265.6135,4465.3512,1270.7125,4460.2523,1275.6115,4471.6,1270.8375" style="stroke:#A80036;stroke-width:1.25;"/><!--MD5=[0e8e5369a7a350decdf5648040c8beb6]
link CreateTeamController to TeamBuilder--><path codeLine="156" d="M1068.8125,599.1375 C1067.0125,628 1062.525,666.225 1051.25,676.25 C1034.625,691.0375 870.6625,675.375 851.25,686.25 C800,714.9625 761.0875,766.5125 733.6125,815.125 " fill="none" id="CreateTeamController-to-TeamBuilder" style="stroke:#A80036;stroke-width:1.25;stroke-dasharray:7.0,7.0;"/><polygon fill="#A80036" points="730.325,821.025,740.1777,813.6435,733.3739,815.5691,731.4483,808.7653,730.325,821.025" style="stroke:#A80036;stroke-width:1.25;"/><!--MD5=[69855685364a91f359b538914456d5ff]
link AppSettings to JpaRepositoryFactory--><path codeLine="158" d="M4912.725,573.125 C4997.2125,585.2125 5129.2,614.8125 5218.75,686.25 C5280.6625,735.6375 5321.2625,819.4625 5343.0625,875.55 " fill="none" id="AppSettings-to-JpaRepositoryFactory" style="stroke:#A80036;stroke-width:1.25;"/><polygon fill="#A80036" points="5345.3625,881.575,5345.9832,869.2796,5343.1153,875.743,5336.6519,872.8751,5345.3625,881.575" style="stroke:#A80036;stroke-width:1.25;"/><text fill="#000000" font-family="sans-serif" font-size="16.25" lengthAdjust="spacing" textLength="53.75" x="5202.5" y="671.8689">creates</text><!--MD5=[64c025371283769589f6ae2398a1561b]
link JpaRepositoryFactory to RepositoryFactory--><path codeLine="159" d="M5329.85,987.1125 C5303.7125,1024.8 5264.025,1074.85 5218.75,1107.5 C5116.7875,1181.0375 4977.5875,1227.3125 4888.225,1251.55 " fill="none" id="JpaRepositoryFactory-to-RepositoryFactory" style="stroke:#A80036;stroke-width:1.25;"/><polygon fill="#A80036" points="4881.8875,1253.25,4894.0505,1255.1534,4887.9226,1251.6252,4891.4508,1245.4972,4881.8875,1253.25" style="stroke:#A80036;stroke-width:1.25;"/><text fill="#000000" font-family="sans-serif" font-size="16.25" lengthAdjust="spacing" textLength="83.75" x="5200" y="1135.6189">implements</text><!--MD5=[754b775031405e096442b27febffa290]
link PersistenceContext to RepositoryFactory--><path codeLine="160" d="M4645.85,1273.75 C4667.125,1273.75 4689.925,1273.75 4711.2875,1273.75 " fill="none" id="PersistenceContext-to-RepositoryFactory" style="stroke:#A80036;stroke-width:1.25;"/><polygon fill="#A80036" points="4717.8625,1273.75,4706.6125,1268.75,4711.6125,1273.75,4706.6125,1278.75,4717.8625,1273.75" style="stroke:#A80036;stroke-width:1.25;"/><text fill="#000000" font-family="sans-serif" font-size="16.25" lengthAdjust="spacing" textLength="26.25" x="4668.75" y="1265.6189">has</text><!--MD5=[d5e2752559733233d551f65818949b4e]
link RepositoryFactory to CollaboratorRepository--><path codeLine="161" d="M4882.3875,1268.5125 C5016.6,1258.675 5286.725,1224.6875 5478.75,1107.5 C5525.625,1078.8875 5565.4875,1030.6 5592.125,992.475 " fill="none" id="RepositoryFactory-to-CollaboratorRepository" style="stroke:#A80036;stroke-width:1.25;"/><polygon fill="#A80036" points="5595.95,986.925,5585.4412,993.3381,5592.3971,992.0669,5593.6683,999.0228,5595.95,986.925" style="stroke:#A80036;stroke-width:1.25;"/><text fill="#000000" font-family="sans-serif" font-size="16.25" lengthAdjust="spacing" textLength="26.25" x="5447.5" y="1135.6189">has</text><!--MD5=[307f8adc67adce0ef8f85b77a970beb6]
link RepositoryFactory to TeamRepository--><path codeLine="162" d="M4827.625,1243.425 C4880.7,1187.55 4997.775,1064.3 5066.5875,991.85 " fill="none" id="RepositoryFactory-to-TeamRepository" style="stroke:#A80036;stroke-width:1.25;"/><polygon fill="#A80036" points="5071.05,987.15,5059.6698,991.846,5066.7388,991.675,5066.9098,998.744,5071.05,987.15" style="stroke:#A80036;stroke-width:1.25;"/><text fill="#000000" font-family="sans-serif" font-size="16.25" lengthAdjust="spacing" textLength="26.25" x="4941.25" y="1135.6189">has</text><!--MD5=[5b1ec6a25723af93cef9a45efe2d4fd9]
link JpaRepositoryFactory to CollaboratorRepository--><path codeLine="164" d="M5456.3,934.375 C5477.35,934.375 5499.825,934.375 5521.3375,934.375 " fill="none" id="JpaRepositoryFactory-to-CollaboratorRepository" style="stroke:#A80036;stroke-width:1.25;"/><polygon fill="#A80036" points="5527.9875,934.375,5516.7375,929.375,5521.7375,934.375,5516.7375,939.375,5527.9875,934.375" style="stroke:#A80036;stroke-width:1.25;"/><text fill="#000000" font-family="sans-serif" font-size="16.25" lengthAdjust="spacing" textLength="26.25" x="5479.0625" y="926.2439">has</text><text fill="#000000" font-family="sans-serif" font-size="16.25" lengthAdjust="spacing" textLength="8.75" x="5466.4243" y="930.2444">1</text><text fill="#000000" font-family="sans-serif" font-size="16.25" lengthAdjust="spacing" textLength="8.75" x="5509.3357" y="930.3201">1</text><!--MD5=[426e75be4088bd2439d2bbbef4e419ba]
link JpaRepositoryFactory to TeamRepository--><path codeLine="165" d="M5268.6375,934.375 C5247.175,934.375 5224.5125,934.375 5203.525,934.375 " fill="none" id="JpaRepositoryFactory-to-TeamRepository" style="stroke:#A80036;stroke-width:1.25;"/><polygon fill="#A80036" points="5197.0625,934.375,5208.3125,939.375,5203.3125,934.375,5208.3125,929.375,5197.0625,934.375" style="stroke:#A80036;stroke-width:1.25;"/><text fill="#000000" font-family="sans-serif" font-size="16.25" lengthAdjust="spacing" textLength="26.25" x="5219.6875" y="926.2439">has</text><text fill="#000000" font-family="sans-serif" font-size="16.25" lengthAdjust="spacing" textLength="8.75" x="5249.7568" y="930.2444">1</text><text fill="#000000" font-family="sans-serif" font-size="16.25" lengthAdjust="spacing" textLength="8.75" x="5206.9877" y="930.0626">1</text><!--MD5=[275670b01fcf667cdfea022428a37f7a]
link CollaboratorRepository to CollaboratorRepositoryInterface--><path codeLine="166" d="M5613.475,881.3625 C5592.3625,814.0125 5545.15,701.2625 5456.875,657.5 C5414.275,636.3875 2075.725,636.3875 2033.125,657.5 C1932.175,707.5375 1870.1,835.075 1844.6375,898.0625 " fill="none" id="CollaboratorRepository-to-CollaboratorRepositoryInterface" style="stroke:#A80036;stroke-width:1.25;stroke-dasharray:7.0,7.0;"/><polygon fill="#A80036" points="1842.2875,903.95,1851.0852,895.3382,1844.5933,898.1409,1841.7906,891.649,1842.2875,903.95" style="stroke:#A80036;stroke-width:1.25;"/><!--MD5=[fab47ab93f61cd01932113dfc4b291a8]
link TeamRepository to TeamRepositoryInterface--><path codeLine="167" d="M5086.7625,881.3625 C5045.0125,821.5875 4967.225,726.375 4872.5,686.25 C4701.225,613.7 1704.4375,677.7125 1525,628.75 C1501.25,622.2625 1477.1875,609.6375 1457.4625,597.3125 " fill="none" id="TeamRepository-to-TeamRepositoryInterface" style="stroke:#A80036;stroke-width:1.25;stroke-dasharray:7.0,7.0;"/><polygon fill="#A80036" points="1452.0125,593.85,1458.8126,604.1126,1457.2832,597.2089,1464.1869,595.6795,1452.0125,593.85" style="stroke:#A80036;stroke-width:1.25;"/><!--MD5=[e3ed578b90dd6415261c95d17075385f]
link CollaboratorRepository to Collaborator--><path codeLine="169" d="M5609.6375,881.825 C5588.075,827.6375 5546.075,746.1375 5478.75,710 C5339,634.975 2776.2375,666.375 2623.75,710 C2510.2375,742.475 2397.7,822.275 2329.45,877.3875 " fill="none" id="CollaboratorRepository-to-Collaborator" style="stroke:#A80036;stroke-width:1.25;"/><polygon fill="#A80036" points="2324.2,881.65,2336.0784,878.415,2329.0436,877.7001,2329.7585,870.6652,2324.2,881.65" style="stroke:#A80036;stroke-width:1.25;"/><text fill="#000000" font-family="sans-serif" font-size="16.25" lengthAdjust="spacing" textLength="41.25" x="2706.875" y="671.8689">saves</text><text fill="#000000" font-family="sans-serif" font-size="16.25" lengthAdjust="spacing" textLength="8.75" x="5597.2044" y="868.385">1</text><text fill="#000000" font-family="sans-serif" font-size="16.25" lengthAdjust="spacing" textLength="6.25" x="2327.4445" y="868.181">*</text><!--MD5=[d38cb1c7f014ed2860d3009e09761479]
link TeamRepository to Team--><path codeLine="170" d="M5081.4625,881.5375 C5037.8625,826.6875 4961.2375,744.2375 4872.5,710 C4760.2875,666.7 653.9625,664.8125 542.5,710 C472.1875,738.5 411.475,799.7875 369.9125,851.1125 " fill="none" id="TeamRepository-to-Team" style="stroke:#A80036;stroke-width:1.25;"/><polygon fill="#A80036" points="365.9625,856.0375,376.9022,850.3908,369.8734,851.1623,369.1019,844.1334,365.9625,856.0375" style="stroke:#A80036;stroke-width:1.25;"/><text fill="#000000" font-family="sans-serif" font-size="16.25" lengthAdjust="spacing" textLength="41.25" x="716.875" y="671.8689">saves</text><text fill="#000000" font-family="sans-serif" font-size="16.25" lengthAdjust="spacing" textLength="8.75" x="5065.8733" y="868.4407">1</text><text fill="#000000" font-family="sans-serif" font-size="16.25" lengthAdjust="spacing" textLength="6.25" x="365.6773" y="842.6912">*</text><!--MD5=[d22bc09bf5195203640f66a3337dfcbe]
link Collaborator to ShortName--><path codeLine="172" d="M2324.2,881.65 C2391.8375,826.4625 2507.275,743.325 2623.75,710 C2768.5,668.5875 3171.775,633.175 3301.25,710 C3361.15,745.55 3393.65,821.85 3409.825,875.5625 " fill="none" id="Collaborator-to-ShortName" style="stroke:#A80036;stroke-width:1.25;"/><polygon fill="#A80036" points="3411.625,881.675,3413.275,869.475,3409.875,875.675,3403.675,872.275,3411.625,881.675" style="stroke:#A80036;stroke-width:1.25;"/><text fill="#000000" font-family="sans-serif" font-size="16.25" lengthAdjust="spacing" textLength="26.25" x="2671.875" y="671.8689">has</text><text fill="#000000" font-family="sans-serif" font-size="16.25" lengthAdjust="spacing" textLength="8.75" x="2334.9366" y="868.181">1</text><text fill="#000000" font-family="sans-serif" font-size="16.25" lengthAdjust="spacing" textLength="8.75" x="3400.1422" y="868.2102">1</text><!--MD5=[48c622d472d667764da07d20d8b811ec]
link Collaborator to CompleteName--><path codeLine="173" d="M2324.2,881.65 C2391.8375,826.4625 2507.275,743.325 2623.75,710 C2788.8,662.775 2859.225,627.925 3010,710 C3074.125,744.9125 3114.225,821.7375 3135.5875,875.725 " fill="none" id="Collaborator-to-CompleteName" style="stroke:#A80036;stroke-width:1.25;"/><polygon fill="#A80036" points="3137.975,881.8625,3138.5502,869.5649,3135.7063,876.0388,3129.2323,873.1949,3137.975,881.8625" style="stroke:#A80036;stroke-width:1.25;"/><text fill="#000000" font-family="sans-serif" font-size="16.25" lengthAdjust="spacing" textLength="26.25" x="2531.875" y="671.8689">has</text><text fill="#000000" font-family="sans-serif" font-size="16.25" lengthAdjust="spacing" textLength="8.75" x="2324.7374" y="868.181">1</text><text fill="#000000" font-family="sans-serif" font-size="16.25" lengthAdjust="spacing" textLength="8.75" x="3125.6806" y="868.4287">1</text><!--MD5=[f904c2f8a465426d1ef66730e14f9f7d]
link Collaborator to NumeroMecanografico--><path codeLine="174" d="M2495.6625,934.375 C2543.3625,934.375 2592.8875,934.375 2638.325,934.375 " fill="none" id="Collaborator-to-NumeroMecanografico" style="stroke:#A80036;stroke-width:1.25;"/><polygon fill="#A80036" points="2645,934.375,2633.75,929.375,2638.75,934.375,2633.75,939.375,2645,934.375" style="stroke:#A80036;stroke-width:1.25;"/><text fill="#000000" font-family="sans-serif" font-size="16.25" lengthAdjust="spacing" textLength="103.75" x="2518.4375" y="926.2439">is identified by</text><text fill="#000000" font-family="sans-serif" font-size="16.25" lengthAdjust="spacing" textLength="8.75" x="2505.6309" y="930.835">1</text><text fill="#000000" font-family="sans-serif" font-size="16.25" lengthAdjust="spacing" textLength="8.75" x="2626.0967" y="930.6836">1</text><!--MD5=[8d9dabce818e956fab3a60d05f645865]
link Collaborator to BaseRoles--><path codeLine="175" d="M2324.2,881.65 C2391.8375,826.4625 2507.275,743.325 2623.75,710 C2711.75,684.825 4195.9375,657.9875 4271.25,710 C4327.7375,749.0125 4346.725,830.775 4353.075,884.0875 " fill="none" id="Collaborator-to-BaseRoles" style="stroke:#A80036;stroke-width:1.25;"/><polygon fill="#A80036" points="4353.8,890.4375,4357.516,878.7006,4353.1039,884.2264,4347.5782,879.8143,4353.8,890.4375" style="stroke:#A80036;stroke-width:1.25;"/><text fill="#000000" font-family="sans-serif" font-size="16.25" lengthAdjust="spacing" textLength="26.25" x="2636.875" y="671.8689">has</text><text fill="#000000" font-family="sans-serif" font-size="16.25" lengthAdjust="spacing" textLength="8.75" x="2355.4034" y="868.2965">1</text><text fill="#000000" font-family="sans-serif" font-size="16.25" lengthAdjust="spacing" textLength="8.75" x="4343.749" y="877.0637">1</text><!--MD5=[ad690bf35cce9ca8717407802e52e6b0]
link Collaborator to Address--><path codeLine="176" d="M2324.2,881.65 C2391.8375,826.4625 2507.275,743.325 2623.75,710 C2776.5125,666.2875 3919.1125,625.6375 4053.75,710 C4111.15,745.9625 4139.0125,821.7875 4152,875.3125 " fill="none" id="Collaborator-to-Address" style="stroke:#A80036;stroke-width:1.25;"/><polygon fill="#A80036" points="4153.425,881.3875,4155.7233,869.2929,4151.9975,875.3027,4145.9876,871.5769,4153.425,881.3875" style="stroke:#A80036;stroke-width:1.25;"/><text fill="#000000" font-family="sans-serif" font-size="16.25" lengthAdjust="spacing" textLength="26.25" x="2566.875" y="671.8689">has</text><text fill="#000000" font-family="sans-serif" font-size="16.25" lengthAdjust="spacing" textLength="8.75" x="2334.9366" y="868.181">1</text><text fill="#000000" font-family="sans-serif" font-size="16.25" lengthAdjust="spacing" textLength="8.75" x="4142.5314" y="868.2668">1</text><!--MD5=[3362ed3ae5a9e5cbc027fbfeff814e21]
link Collaborator to PhoneNumber--><path codeLine="177" d="M2324.2,881.65 C2391.8375,826.4625 2507.275,743.325 2623.75,710 C2746.325,674.925 3659.6375,648.375 3771.25,710 C3834.5,744.925 3873.2875,821.3625 3893.825,875.2875 " fill="none" id="Collaborator-to-PhoneNumber" style="stroke:#A80036;stroke-width:1.25;"/><polygon fill="#A80036" points="3896.125,881.4125,3896.8565,869.1232,3893.9305,875.5604,3887.4932,872.6344,3896.125,881.4125" style="stroke:#A80036;stroke-width:1.25;"/><text fill="#000000" font-family="sans-serif" font-size="16.25" lengthAdjust="spacing" textLength="26.25" x="2601.875" y="671.8689">has</text><text fill="#000000" font-family="sans-serif" font-size="16.25" lengthAdjust="spacing" textLength="8.75" x="2370.3878" y="868.2965">1</text><text fill="#000000" font-family="sans-serif" font-size="16.25" lengthAdjust="spacing" textLength="8.75" x="3884.068" y="868.2958">1</text><!--MD5=[dfbc31d49ce19e9e78ec22b58e38968f]
link Collaborator to BirthDate--><path codeLine="178" d="M2324.2,881.65 C2391.8375,826.4625 2507.275,743.325 2623.75,710 C2722.425,681.7625 3460.275,655.8875 3547.5,710 C3605.4875,745.975 3634.1875,822.175 3647.7125,875.75 " fill="none" id="Collaborator-to-BirthDate" style="stroke:#A80036;stroke-width:1.25;"/><polygon fill="#A80036" points="3649.2125,881.85,3651.3683,869.7291,3647.7135,875.7824,3641.6602,872.1276,3649.2125,881.85" style="stroke:#A80036;stroke-width:1.25;"/><text fill="#000000" font-family="sans-serif" font-size="16.25" lengthAdjust="spacing" textLength="26.25" x="2496.875" y="671.8689">has</text><text fill="#000000" font-family="sans-serif" font-size="16.25" lengthAdjust="spacing" textLength="8.75" x="2324.7374" y="868.181">1</text><text fill="#000000" font-family="sans-serif" font-size="16.25" lengthAdjust="spacing" textLength="8.75" x="3638.1582" y="868.4141">1</text><!--MD5=[13393058b5d92e29643009556792586d]
link Collaborator to Team--><path codeLine="179" d="M2218.1,881.375 C2166.9,826.4 2078.2375,743.825 1981.25,710 C1830.3125,657.35 690.65,649.9375 542.5,710 C472.1875,738.5 411.475,799.7875 369.9125,851.1125 " fill="none" id="Collaborator-to-Team" style="stroke:#A80036;stroke-width:1.25;"/><polygon fill="#A80036" points="365.9625,856.0375,376.9022,850.3908,369.8734,851.1623,369.1019,844.1334,365.9625,856.0375" style="stroke:#A80036;stroke-width:1.25;"/><text fill="#000000" font-family="sans-serif" font-size="16.25" lengthAdjust="spacing" textLength="76.25" x="995.625" y="671.8689">represents</text><text fill="#000000" font-family="sans-serif" font-size="16.25" lengthAdjust="spacing" textLength="8.75" x="2201.3773" y="868.2523">1</text><text fill="#000000" font-family="sans-serif" font-size="16.25" lengthAdjust="spacing" textLength="6.25" x="372.65" y="842.6912">*</text><!--MD5=[8d981b3fa8578d5b724a944398c62fd9]
link Team to Collaborator--><path codeLine="185" d="M365.9625,856.0375 C407.5625,803.775 469.925,739.425 542.5,710 C690.65,649.9375 1830.3125,657.35 1981.25,710 C2075.5875,742.9 2162.0375,821.925 2213.8125,876.8 " fill="none" id="Team-to-Collaborator" style="stroke:#A80036;stroke-width:1.25;"/><polygon fill="#A80036" points="2218.1,881.375,2214.0549,869.7475,2213.826,876.8148,2206.7586,876.5859,2218.1,881.375" style="stroke:#A80036;stroke-width:1.25;"/><text fill="#000000" font-family="sans-serif" font-size="16.25" lengthAdjust="spacing" textLength="26.25" x="1020.625" y="671.8689">has</text><text fill="#000000" font-family="sans-serif" font-size="16.25" lengthAdjust="spacing" textLength="8.75" x="363.0328" y="842.6912">1</text><text fill="#000000" font-family="sans-serif" font-size="16.25" lengthAdjust="spacing" textLength="25" x="2212.8167" y="868.2523">1..*</text><!--MD5=[c1fe77b34d59d813e056549014b266d2]
link Team to Acronym--><path codeLine="181" d="M365.9625,856.0375 C407.5625,803.775 469.925,739.425 542.5,710 C658.3375,663.0375 714.5625,649.1375 823.75,710 C886.5375,745 924.4875,821.425 944.4625,875.3125 " fill="none" id="Team-to-Acronym" style="stroke:#A80036;stroke-width:1.25;"/><polygon fill="#A80036" points="946.6875,881.45,947.5299,869.1678,944.5459,875.5784,938.1353,872.5944,946.6875,881.45" style="stroke:#A80036;stroke-width:1.25;"/><text fill="#000000" font-family="sans-serif" font-size="16.25" lengthAdjust="spacing" textLength="26.25" x="493.125" y="671.8689">has</text><text fill="#000000" font-family="sans-serif" font-size="16.25" lengthAdjust="spacing" textLength="8.75" x="372.7945" y="842.6912">1</text><text fill="#000000" font-family="sans-serif" font-size="16.25" lengthAdjust="spacing" textLength="8.75" x="934.7201" y="868.3393">1</text><!--MD5=[3ee8e3357d3bfc7e9cdca86d556771e8]
link Team to TeamDescription--><path codeLine="182" d="M365.9625,856.0375 C407.5625,803.775 469.925,739.425 542.5,710 C684.3375,652.5 1095.7125,638.9 1231.25,710 C1297.3875,744.7 1340.875,821.8375 1364.5125,875.925 " fill="none" id="Team-to-TeamDescription" style="stroke:#A80036;stroke-width:1.25;"/><polygon fill="#A80036" points="1367.0125,881.75,1367.1304,869.4395,1364.529,876.0146,1357.9538,873.4132,1367.0125,881.75" style="stroke:#A80036;stroke-width:1.25;"/><text fill="#000000" font-family="sans-serif" font-size="16.25" lengthAdjust="spacing" textLength="26.25" x="793.125" y="671.8689">has</text><text fill="#000000" font-family="sans-serif" font-size="16.25" lengthAdjust="spacing" textLength="8.75" x="379.2352" y="843.0045">1</text><text fill="#000000" font-family="sans-serif" font-size="16.25" lengthAdjust="spacing" textLength="8.75" x="1354.3517" y="868.2976">1</text><!--MD5=[8fc2da02f319b08beaf66dd82df767e0]
link Team to TeamBuilder--><path codeLine="183" d="M491.975,934.375 C514.0375,934.375 536.1875,934.375 557.1875,934.375 " fill="none" id="Team-to-TeamBuilder" style="stroke:#A80036;stroke-width:1.25;"/><polygon fill="#A80036" points="563.6625,934.375,552.4125,929.375,557.4125,934.375,552.4125,939.375,563.6625,934.375" style="stroke:#A80036;stroke-width:1.25;"/><text fill="#000000" font-family="sans-serif" font-size="16.25" lengthAdjust="spacing" textLength="26.25" x="514.6875" y="926.2439">has</text><text fill="#000000" font-family="sans-serif" font-size="16.25" lengthAdjust="spacing" textLength="8.75" x="502.0977" y="930.6965">1</text><text fill="#000000" font-family="sans-serif" font-size="16.25" lengthAdjust="spacing" textLength="8.75" x="545.094" y="930.4789">1</text><!--MD5=[b0b44aae9fae1734eac0e3328dadc93a]
link Team to TeamType--><path codeLine="184" d="M365.9625,856.0375 C407.5625,803.775 469.925,739.425 542.5,710 C651.9125,665.65 977.4375,641.725 1073.75,710 C1132.2125,751.4375 1147.6,839.8375 1151.45,892.4625 " fill="none" id="Team-to-TeamType" style="stroke:#A80036;stroke-width:1.25;"/><polygon fill="#A80036" points="1151.875,899.0125,1156.0914,887.446,1151.4462,892.7772,1146.115,888.132,1151.875,899.0125" style="stroke:#A80036;stroke-width:1.25;"/><text fill="#000000" font-family="sans-serif" font-size="16.25" lengthAdjust="spacing" textLength="26.25" x="630.625" y="671.8689">has</text><text fill="#000000" font-family="sans-serif" font-size="16.25" lengthAdjust="spacing" textLength="8.75" x="391.8133" y="843.0045">1</text><text fill="#000000" font-family="sans-serif" font-size="16.25" lengthAdjust="spacing" textLength="8.75" x="1142.0313" y="885.9808">1</text><!--MD5=[e09802d78c8738eead86c02895157f12]
link TeamBuilder to Acronym--><path codeLine="187" d="M801.65,934.375 C823.2375,934.375 845.4875,934.375 866.3125,934.375 " fill="none" id="TeamBuilder-to-Acronym" style="stroke:#A80036;stroke-width:1.25;"/><polygon fill="#A80036" points="872.725,934.375,861.475,929.375,866.475,934.375,861.475,939.375,872.725,934.375" style="stroke:#A80036;stroke-width:1.25;"/><text fill="#000000" font-family="sans-serif" font-size="16.25" lengthAdjust="spacing" textLength="26.25" x="824.0625" y="926.2439">has</text><text fill="#000000" font-family="sans-serif" font-size="16.25" lengthAdjust="spacing" textLength="8.75" x="811.1074" y="930.5089">1</text><text fill="#000000" font-family="sans-serif" font-size="16.25" lengthAdjust="spacing" textLength="8.75" x="854.2658" y="930.2444">1</text><!--MD5=[7aa0c087b627f597e9ba8214d8346ebd]
link TeamBuilder to TeamDescription--><path codeLine="188" d="M738.5,820.8625 C766.0625,777.925 803.7125,733.725 851.25,710 C926.8,672.2875 1156.475,670.775 1231.25,710 C1297.3875,744.7 1340.875,821.8375 1364.5125,875.925 " fill="none" id="TeamBuilder-to-TeamDescription" style="stroke:#A80036;stroke-width:1.25;"/><polygon fill="#A80036" points="1367.0125,881.75,1367.1304,869.4395,1364.529,876.0146,1357.9538,873.4132,1367.0125,881.75" style="stroke:#A80036;stroke-width:1.25;"/><text fill="#000000" font-family="sans-serif" font-size="16.25" lengthAdjust="spacing" textLength="26.25" x="1164.375" y="671.8689">has</text><text fill="#000000" font-family="sans-serif" font-size="16.25" lengthAdjust="spacing" textLength="8.75" x="734.0252" y="807.5362">1</text><text fill="#000000" font-family="sans-serif" font-size="16.25" lengthAdjust="spacing" textLength="8.75" x="1364.5509" y="868.2976">1</text><!--MD5=[fefecd494f25f41ec454a3b5d4fb70a1]
link TeamBuilder to TeamType--><path codeLine="189" d="M738.5,820.8625 C766.0625,777.925 803.7125,733.725 851.25,710 C939.725,665.8375 993.075,652.8125 1073.75,710 C1132.2125,751.4375 1147.6,839.8375 1151.45,892.4625 " fill="none" id="TeamBuilder-to-TeamType" style="stroke:#A80036;stroke-width:1.25;"/><polygon fill="#A80036" points="1151.875,899.0125,1156.0914,887.446,1151.4462,892.7772,1146.115,888.132,1151.875,899.0125" style="stroke:#A80036;stroke-width:1.25;"/><text fill="#000000" font-family="sans-serif" font-size="16.25" lengthAdjust="spacing" textLength="26.25" x="1068.125" y="671.8689">has</text><text fill="#000000" font-family="sans-serif" font-size="16.25" lengthAdjust="spacing" textLength="8.75" x="743.4998" y="807.5362">1</text><text fill="#000000" font-family="sans-serif" font-size="16.25" lengthAdjust="spacing" textLength="8.75" x="1152.6953" y="885.9808">1</text><!--MD5=[c2cf54b11cb523a0fa83056c40249726]
@startuml
skinparam classAttributeIconSize 0

package "base.app.backoffice.console" #AAAAAA {
    package "presentation" #CCCCCC {
        class CreateTeamUI <<presentation>>{
        }
    }
}

package "base.core" #AAAAAA {
    package "eapli.base" #CCCCCC {
        package "collaboratormanagement" #CCCCCC{
            package "collaboratormanagement.application" #DDDDDD {
                class CollaboratorSpecificationController <<application>>{
                    +create()
                    +addColaborador(email, firstName, lastName, shortName, \ncompleteName, mechanographicNumber,\naddress, phoneNumber, birthDate)
                    +getRoleList()
                    +addRoles(roles)
                    +getCollaborators()
                    +addManager(manager)
                    +saveCollaborator()
                }
            }

            package "collaboratormanagement.domain" #DDDDDD {
                class Collaborator <<entity>>{
                    +create(systemUser, shortName, completeName, mechanographicNumber,\naddress, phoneNumber, birthDate)
                }

                class ShortName <<value object>>{
                    +createShortName(shortName)
                    +validate(shortName)
                }

                class CompleteName <<value object>>{
                    +createCompleteName(completeName)
                    +validate(completeName)
                }

                class NumeroMecanografico <<value object>>{
                    +createNumeroMecanografico(numeroMecanografico)
                    +validate(numeroMecanografico)
                }

                class Address <<value object>>{
                    +createAddress(address)
                    +validate(address)
                }

                class PhoneNumber <<value object>>{
                    +createPhoneNumber(phoneNumber)
                    +validate(phoneNumber)
                }

                class BirthDate <<value object>>{
                    +createBirthDate(birthDate)
                    +validate(birthDate)
                }

                enum BaseRoles <<enum>>{
                    +nonUserValues()
                }
            }

            package "collaboratormanagement.repositories" #DDDDDD {
                interface CollaboratorRepositoryInterface{
                }
            }
        }

        package infrastructure.persistence #DDDDDD {
            class PersistenceContext <<persistence>>{
                +repositories()
            }

            interface RepositoryFactory{
            }
        }

        package "teammanagement" #CCCCCC{
            package "teammanagement.repositories" #DDDDDD{
                interface TeamRepositoryInterface {
                }
            }

            package "teammanagement.application" #DDDDDD{
                class CreateTeamController <<application>> {}
            }

            package "teammanagement.domain" #DDDDDD {
                class Team <<entity>> {
                    -teamType
                    -acronym
                    -designation
                    -representation
                    +create(teamType, acronym, designation, representation)
                }

                class Acronym <<value object>> {
                    +createAcronym(acronym)
                    +validate(acronym)
                }

                class TeamDescription <<value object>> {
                    +createTeamDescription(teamDescription)
                    +validate(teamDescription)
                }

                enum TeamType <<enum>>{
                }

                class TeamBuilder <<builder>> {
                    -teamType
                    -representation
                    -acronym
                    -teamDescription
                    +withTeamType(teamType)
                    +withRepresentation(representation)
                    +withAcronym(acronym)
                    +withDescription(teamDescription)
                    +build()
                }
            }
        }

        class AppSettings <<persistence>>{
            +instance()
            +getRepositoryFactory()
        }
    }
}

package "base.persistence.impl" #AAAAAA {
    package "jpa" #CCCCCC {
        class CollaboratorRepository <<repository>>{
            +all()
            +save(collaborator)
        }

        class TeamRepository <<repository>>{
            +all()
            +save(team)
        }

        class JpaRepositoryFactory <<factory>>{
            +collaborators()
            +roles()
        }

    }
}

CreateTeamUI ..> CreateTeamController
CollaboratorSpecificationController ..> PersistenceContext
CreateTeamController ..> PersistenceContext
CreateTeamController ..> TeamBuilder

AppSettings -> JpaRepositoryFactory : creates
JpaRepositoryFactory -> RepositoryFactory : implements
PersistenceContext -> RepositoryFactory : has
RepositoryFactory -> CollaboratorRepository : has
RepositoryFactory -> TeamRepository : has

JpaRepositoryFactory "1" -> "1" CollaboratorRepository : has
JpaRepositoryFactory "1" -> "1" TeamRepository : has
CollaboratorRepository ..> CollaboratorRepositoryInterface
TeamRepository ..> TeamRepositoryInterface

CollaboratorRepository "1" -> "*" Collaborator : saves
TeamRepository "1" -> "*" Team : saves

Collaborator "1" -> "1" ShortName : has
Collaborator "1" -> "1" CompleteName : has
Collaborator "1" -> "1" NumeroMecanografico : is identified by
Collaborator "1" -> "1" BaseRoles : has
Collaborator "1" -> "1" Address : has
Collaborator "1" -> "1" PhoneNumber : has
Collaborator "1" -> "1" BirthDate : has
Collaborator "1" -> "*" Team : represents

Team "1" -> "1" Acronym : has
Team "1" -> "1" TeamDescription : has
Team "1" -> "1" TeamBuilder : has
Team "1" -> "1" TeamType : has
Team "1" -> "1..*" Collaborator : has

TeamBuilder "1" -> "1" Acronym : has
TeamBuilder "1" -> "1" TeamDescription : has
TeamBuilder "1" -> "1" TeamType : has

@enduml

PlantUML version 1.2021.5(Sun Apr 25 12:20:28 BST 2021)
(GPL source distribution)
Java Runtime: OpenJDK Runtime Environment
JVM: OpenJDK 64-Bit Server VM
Default Encoding: Cp1252
Language: pt
Country: PT
--></g></svg>