<?xml version="1.0" encoding="UTF-8" standalone="no"?><svg xmlns="http://www.w3.org/2000/svg" xmlns:xlink="http://www.w3.org/1999/xlink" contentScriptType="application/ecmascript" contentStyleType="text/css" height="1813.75px" preserveAspectRatio="none" style="width:3231px;height:1813px;" version="1.1" viewBox="0 0 3231 1813" width="3231.25px" zoomAndPan="magnify"><defs><filter height="300%" id="f1ocpijjmgdw7a" width="300%" x="-1" y="-1"><feGaussianBlur result="blurOut" stdDeviation="2.5"/><feColorMatrix in="blurOut" result="blurOut2" type="matrix" values="0 0 0 0 0 0 0 0 0 0 0 0 0 0 0 0 0 0 .4 0"/><feOffset dx="5.0" dy="5.0" in="blurOut2" result="blurOut3"/><feBlend in="SourceGraphic" in2="blurOut3" mode="normal"/></filter></defs><g><rect fill="#FFFFFF" filter="url(#f1ocpijjmgdw7a)" height="1669.5801" style="stroke:#A80036;stroke-width:1.25;" width="12.5" x="153.125" y="124.5117"/><rect fill="#FFFFFF" filter="url(#f1ocpijjmgdw7a)" height="1641.6406" style="stroke:#A80036;stroke-width:1.25;" width="12.5" x="740.625" y="152.4512"/><rect fill="#FFFFFF" filter="url(#f1ocpijjmgdw7a)" height="164.9023" style="stroke:#A80036;stroke-width:1.25;" width="12.5" x="1336.875" y="202.8906"/><rect fill="#FFFFFF" filter="url(#f1ocpijjmgdw7a)" height="151.7578" style="stroke:#A80036;stroke-width:1.25;" width="12.5" x="1336.875" y="405.7324"/><rect fill="#FFFFFF" filter="url(#f1ocpijjmgdw7a)" height="151.7578" style="stroke:#A80036;stroke-width:1.25;" width="12.5" x="1336.875" y="747.1875"/><rect fill="#FFFFFF" filter="url(#f1ocpijjmgdw7a)" height="615.8203" style="stroke:#A80036;stroke-width:1.25;" width="12.5" x="1336.875" y="1129.082"/><rect fill="#FFFFFF" filter="url(#f1ocpijjmgdw7a)" height="37.5" style="stroke:#A80036;stroke-width:1.25;" width="12.5" x="1635.625" y="330.293"/><rect fill="#FFFFFF" filter="url(#f1ocpijjmgdw7a)" height="37.9395" style="stroke:#A80036;stroke-width:1.25;" width="12.5" x="2017.5" y="481.6113"/><rect fill="#FFFFFF" filter="url(#f1ocpijjmgdw7a)" height="37.9395" style="stroke:#A80036;stroke-width:1.25;" width="12.5" x="2229.375" y="823.0664"/><rect fill="#FFFFFF" filter="url(#f1ocpijjmgdw7a)" height="345.8496" style="stroke:#A80036;stroke-width:1.25;" width="12.5" x="2398.125" y="1285.2344"/><rect fill="#FFFFFF" filter="url(#f1ocpijjmgdw7a)" height="67.7734" style="stroke:#A80036;stroke-width:1.25;" width="12.5" x="3014.375" y="1525.3711"/><rect fill="#FFFFFF" filter="url(#f1ocpijjmgdw7a)" height="37.9395" style="stroke:#A80036;stroke-width:1.25;" width="12.5" x="3155.625" y="1669.0234"/><rect fill="#FFFFFF" filter="url(#f1ocpijjmgdw7a)" height="174.6973" style="stroke:#000000;stroke-width:2.5;" width="827.5" x="12.5" y="917.6953"/><line style="stroke:#A80036;stroke-width:1.25;stroke-dasharray:5.0,5.0;" x1="158.75" x2="158.75" y1="112.0117" y2="1805.3418"/><line style="stroke:#A80036;stroke-width:1.25;stroke-dasharray:5.0,5.0;" x1="746.25" x2="746.25" y1="112.0117" y2="1805.3418"/><line style="stroke:#A80036;stroke-width:1.25;stroke-dasharray:5.0,5.0;" x1="1343.125" x2="1343.125" y1="215.0879" y2="1805.3418"/><line style="stroke:#A80036;stroke-width:1.25;stroke-dasharray:5.0,5.0;" x1="1641.875" x2="1641.875" y1="112.0117" y2="1805.3418"/><line style="stroke:#A80036;stroke-width:1.25;stroke-dasharray:5.0,5.0;" x1="1814.375" x2="1814.375" y1="112.0117" y2="1805.3418"/><line style="stroke:#A80036;stroke-width:1.25;stroke-dasharray:5.0,5.0;" x1="2023.125" x2="2023.125" y1="112.0117" y2="1805.3418"/><line style="stroke:#A80036;stroke-width:1.25;stroke-dasharray:5.0,5.0;" x1="2235.625" x2="2235.625" y1="112.0117" y2="1805.3418"/><line style="stroke:#A80036;stroke-width:1.25;stroke-dasharray:5.0,5.0;" x1="2404.375" x2="2404.375" y1="1229.6582" y2="1805.3418"/><line style="stroke:#A80036;stroke-width:1.25;stroke-dasharray:5.0,5.0;" x1="3020.625" x2="3020.625" y1="1537.5684" y2="1805.3418"/><line style="stroke:#A80036;stroke-width:1.25;stroke-dasharray:5.0,5.0;" x1="3161.875" x2="3161.875" y1="112.0117" y2="1805.3418"/><text fill="#000000" font-family="sans-serif" font-size="17.5" lengthAdjust="spacing" textLength="261.25" x="25" y="108.1665">Human Resource Representative</text><ellipse cx="159.375" cy="18.75" fill="#FEFECE" filter="url(#f1ocpijjmgdw7a)" rx="10" ry="10" style="stroke:#A80036;stroke-width:2.5;"/><path d="M159.375,28.75 L159.375,62.5 M143.125,38.75 L175.625,38.75 M159.375,62.5 L143.125,81.25 M159.375,62.5 L175.625,81.25 " fill="none" filter="url(#f1ocpijjmgdw7a)" style="stroke:#A80036;stroke-width:2.5;"/><rect fill="#FEFECE" filter="url(#f1ocpijjmgdw7a)" height="61.5234" style="stroke:#A80036;stroke-width:1.875;" width="156.25" x="666.25" y="44.2383"/><text fill="#000000" font-family="sans-serif" font-size="17.5" lengthAdjust="spacing" textLength="138.75" x="675" y="71.1548">&lt;&lt;presentation&gt;&gt;</text><text fill="#000000" font-family="sans-serif" font-size="17.5" lengthAdjust="spacing" textLength="120" x="684.375" y="93.1665">TeamCreatorUI</text><rect fill="#FEFECE" filter="url(#f1ocpijjmgdw7a)" height="61.5234" style="stroke:#A80036;stroke-width:1.875;" width="132.5" x="1573.125" y="44.2383"/><text fill="#000000" font-family="sans-serif" font-size="17.5" lengthAdjust="spacing" textLength="115" x="1581.875" y="71.1548">&lt;&lt;aplication&gt;&gt;</text><text fill="#000000" font-family="sans-serif" font-size="17.5" lengthAdjust="spacing" textLength="108.75" x="1585" y="93.1665">AuthzRegistry</text><rect fill="#FEFECE" filter="url(#f1ocpijjmgdw7a)" height="61.5234" style="stroke:#A80036;stroke-width:1.875;" width="178.75" x="1723.125" y="44.2383"/><text fill="#000000" font-family="sans-serif" font-size="17.5" lengthAdjust="spacing" textLength="115" x="1755" y="71.1548">&lt;&lt;aplication&gt;&gt;</text><text fill="#000000" font-family="sans-serif" font-size="17.5" lengthAdjust="spacing" textLength="161.25" x="1731.875" y="93.1665">AuthorizationService</text><rect fill="#FEFECE" filter="url(#f1ocpijjmgdw7a)" height="61.5234" style="stroke:#A80036;stroke-width:1.875;" width="203.75" x="1919.375" y="44.2383"/><text fill="#000000" font-family="sans-serif" font-size="17.5" lengthAdjust="spacing" textLength="97.5" x="1972.5" y="71.1548">&lt;&lt;domain&gt;&gt;</text><text fill="#000000" font-family="sans-serif" font-size="17.5" lengthAdjust="spacing" textLength="186.25" x="1928.125" y="93.1665">teamTypes:TeamTypes</text><text fill="#000000" font-family="sans-serif" font-size="17.5" lengthAdjust="spacing" textLength="118.75" x="2172.5" y="86.1548">&lt;&lt;repository&gt;&gt;</text><text fill="#000000" font-family="sans-serif" font-size="17.5" lengthAdjust="spacing" textLength="182.5" x="2140.625" y="108.1665">CollaboratorRepository</text><path d="M2213.125,22.9883 C2213.125,10.4883 2235.625,10.4883 2235.625,10.4883 C2235.625,10.4883 2258.125,10.4883 2258.125,22.9883 L2258.125,55.4883 C2258.125,67.9883 2235.625,67.9883 2235.625,67.9883 C2235.625,67.9883 2213.125,67.9883 2213.125,55.4883 L2213.125,22.9883 " fill="#FEFECE" filter="url(#f1ocpijjmgdw7a)" style="stroke:#000000;stroke-width:1.875;"/><path d="M2213.125,22.9883 C2213.125,35.4883 2235.625,35.4883 2235.625,35.4883 C2235.625,35.4883 2258.125,35.4883 2258.125,22.9883 " fill="none" style="stroke:#000000;stroke-width:1.875;"/><text fill="#000000" font-family="sans-serif" font-size="17.5" lengthAdjust="spacing" textLength="118.75" x="3098.75" y="86.1548">&lt;&lt;repository&gt;&gt;</text><text fill="#000000" font-family="sans-serif" font-size="17.5" lengthAdjust="spacing" textLength="130" x="3093.125" y="108.1665">TeamRepository</text><path d="M3139.375,22.9883 C3139.375,10.4883 3161.875,10.4883 3161.875,10.4883 C3161.875,10.4883 3184.375,10.4883 3184.375,22.9883 L3184.375,55.4883 C3184.375,67.9883 3161.875,67.9883 3161.875,67.9883 C3161.875,67.9883 3139.375,67.9883 3139.375,55.4883 L3139.375,22.9883 " fill="#FEFECE" filter="url(#f1ocpijjmgdw7a)" style="stroke:#000000;stroke-width:1.875;"/><path d="M3139.375,22.9883 C3139.375,35.4883 3161.875,35.4883 3161.875,35.4883 C3161.875,35.4883 3184.375,35.4883 3184.375,22.9883 " fill="none" style="stroke:#000000;stroke-width:1.875;"/><rect fill="#FFFFFF" filter="url(#f1ocpijjmgdw7a)" height="1669.5801" style="stroke:#A80036;stroke-width:1.25;" width="12.5" x="153.125" y="124.5117"/><rect fill="#FFFFFF" filter="url(#f1ocpijjmgdw7a)" height="1641.6406" style="stroke:#A80036;stroke-width:1.25;" width="12.5" x="740.625" y="152.4512"/><rect fill="#FFFFFF" filter="url(#f1ocpijjmgdw7a)" height="164.9023" style="stroke:#A80036;stroke-width:1.25;" width="12.5" x="1336.875" y="202.8906"/><rect fill="#FFFFFF" filter="url(#f1ocpijjmgdw7a)" height="151.7578" style="stroke:#A80036;stroke-width:1.25;" width="12.5" x="1336.875" y="405.7324"/><rect fill="#FFFFFF" filter="url(#f1ocpijjmgdw7a)" height="151.7578" style="stroke:#A80036;stroke-width:1.25;" width="12.5" x="1336.875" y="747.1875"/><rect fill="#FFFFFF" filter="url(#f1ocpijjmgdw7a)" height="615.8203" style="stroke:#A80036;stroke-width:1.25;" width="12.5" x="1336.875" y="1129.082"/><rect fill="#FFFFFF" filter="url(#f1ocpijjmgdw7a)" height="37.5" style="stroke:#A80036;stroke-width:1.25;" width="12.5" x="1635.625" y="330.293"/><rect fill="#FFFFFF" filter="url(#f1ocpijjmgdw7a)" height="37.9395" style="stroke:#A80036;stroke-width:1.25;" width="12.5" x="2017.5" y="481.6113"/><rect fill="#FFFFFF" filter="url(#f1ocpijjmgdw7a)" height="37.9395" style="stroke:#A80036;stroke-width:1.25;" width="12.5" x="2229.375" y="823.0664"/><rect fill="#FFFFFF" filter="url(#f1ocpijjmgdw7a)" height="345.8496" style="stroke:#A80036;stroke-width:1.25;" width="12.5" x="2398.125" y="1285.2344"/><rect fill="#FFFFFF" filter="url(#f1ocpijjmgdw7a)" height="67.7734" style="stroke:#A80036;stroke-width:1.25;" width="12.5" x="3014.375" y="1525.3711"/><rect fill="#FFFFFF" filter="url(#f1ocpijjmgdw7a)" height="37.9395" style="stroke:#A80036;stroke-width:1.25;" width="12.5" x="3155.625" y="1669.0234"/><polygon fill="#A80036" points="725.625,147.4512,738.125,152.4512,725.625,157.4512,730.625,152.4512" style="stroke:#A80036;stroke-width:1.25;"/><line style="stroke:#A80036;stroke-width:1.25;" x1="165.625" x2="733.125" y1="152.4512" y2="152.4512"/><text fill="#000000" font-family="sans-serif" font-size="16.25" font-weight="bold" lengthAdjust="spacing" textLength="8.75" x="174.375" y="146.3806">1</text><text fill="#000000" font-family="sans-serif" font-size="16.25" lengthAdjust="spacing" textLength="270" x="188.125" y="146.3806">Initiates the request to create a Team</text><polygon fill="#A80036" points="1225.625,185.3906,1238.125,190.3906,1225.625,195.3906,1230.625,190.3906" style="stroke:#A80036;stroke-width:1.25;"/><line style="stroke:#A80036;stroke-width:1.25;" x1="753.125" x2="1233.125" y1="190.3906" y2="190.3906"/><text fill="#000000" font-family="sans-serif" font-size="16.25" font-weight="bold" lengthAdjust="spacing" textLength="8.75" x="761.875" y="184.3201">2</text><text fill="#000000" font-family="sans-serif" font-size="16.25" lengthAdjust="spacing" textLength="55" x="775.625" y="184.3201">create()</text><rect fill="#FEFECE" filter="url(#f1ocpijjmgdw7a)" height="61.5234" style="stroke:#A80036;stroke-width:1.875;" width="200" x="1240.625" y="162.4512"/><text fill="#000000" font-family="sans-serif" font-size="17.5" lengthAdjust="spacing" textLength="115" x="1283.125" y="189.3677">&lt;&lt;aplication&gt;&gt;</text><text fill="#000000" font-family="sans-serif" font-size="17.5" lengthAdjust="spacing" textLength="182.5" x="1249.375" y="211.3794">TeamCreatorController</text><rect fill="#FFFFFF" filter="url(#f1ocpijjmgdw7a)" height="53.3789" style="stroke:#000000;stroke-width:2.5;" width="207.5" x="1236.875" y="242.7246"/><polygon fill="#EEEEEE" points="1236.875,242.7246,1314.375,242.7246,1314.375,252.7246,1301.875,265.2246,1236.875,265.2246,1236.875,242.7246" style="stroke:#000000;stroke-width:2.5;"/><text fill="#000000" font-family="sans-serif" font-size="16.25" font-weight="bold" lengthAdjust="spacing" textLength="21.25" x="1253.125" y="262.0935">ref</text><text fill="#000000" font-family="sans-serif" font-size="16.25" lengthAdjust="spacing" textLength="153.75" x="1266.25" y="287.0935">US-1-2052_SD_Repo</text><polygon fill="#A80036" points="1620.625,325.293,1633.125,330.293,1620.625,335.293,1625.625,330.293" style="stroke:#A80036;stroke-width:1.25;"/><line style="stroke:#A80036;stroke-width:1.25;" x1="1349.375" x2="1628.125" y1="330.293" y2="330.293"/><text fill="#000000" font-family="sans-serif" font-size="16.25" font-weight="bold" lengthAdjust="spacing" textLength="8.75" x="1358.125" y="324.2224">3</text><text fill="#000000" font-family="sans-serif" font-size="16.25" lengthAdjust="spacing" textLength="248.75" x="1371.875" y="324.2224">m_oAuthz = authorizationService()</text><polygon fill="#A80036" points="1321.875,400.7324,1334.375,405.7324,1321.875,410.7324,1326.875,405.7324" style="stroke:#A80036;stroke-width:1.25;"/><line style="stroke:#A80036;stroke-width:1.25;" x1="753.125" x2="1329.375" y1="405.7324" y2="405.7324"/><text fill="#000000" font-family="sans-serif" font-size="16.25" font-weight="bold" lengthAdjust="spacing" textLength="8.75" x="761.875" y="399.6619">4</text><text fill="#000000" font-family="sans-serif" font-size="16.25" lengthAdjust="spacing" textLength="116.25" x="775.625" y="399.6619">getTeamTypes()</text><polygon fill="#A80036" points="1800,438.6719,1812.5,443.6719,1800,448.6719,1805,443.6719" style="stroke:#A80036;stroke-width:1.25;"/><line style="stroke:#A80036;stroke-width:1.25;" x1="1349.375" x2="1807.5" y1="443.6719" y2="443.6719"/><text fill="#000000" font-family="sans-serif" font-size="16.25" font-weight="bold" lengthAdjust="spacing" textLength="8.75" x="1358.125" y="437.6013">5</text><text fill="#000000" font-family="sans-serif" font-size="16.25" lengthAdjust="spacing" textLength="328.75" x="1371.875" y="437.6013">ensureAuthenticatedUserHasAnyOf(role, role)</text><polygon fill="#A80036" points="2002.5,476.6113,2015,481.6113,2002.5,486.6113,2007.5,481.6113" style="stroke:#A80036;stroke-width:1.25;"/><line style="stroke:#A80036;stroke-width:1.25;" x1="1349.375" x2="2010" y1="481.6113" y2="481.6113"/><text fill="#000000" font-family="sans-serif" font-size="16.25" font-weight="bold" lengthAdjust="spacing" textLength="8.75" x="1358.125" y="475.5408">6</text><text fill="#000000" font-family="sans-serif" font-size="16.25" lengthAdjust="spacing" textLength="55" x="1371.875" y="475.5408">values()</text><polygon fill="#A80036" points="1363.125,514.5508,1350.625,519.5508,1363.125,524.5508,1358.125,519.5508" style="stroke:#A80036;stroke-width:1.25;"/><line style="stroke:#A80036;stroke-width:1.25;stroke-dasharray:2.0,2.0;" x1="1355.625" x2="2022.5" y1="519.5508" y2="519.5508"/><text fill="#000000" font-family="sans-serif" font-size="16.25" font-weight="bold" lengthAdjust="spacing" textLength="8.75" x="1370.625" y="513.4802">7</text><text fill="#000000" font-family="sans-serif" font-size="16.25" lengthAdjust="spacing" textLength="80" x="1384.375" y="513.4802">teamTypes</text><polygon fill="#A80036" points="766.875,552.4902,754.375,557.4902,766.875,562.4902,761.875,557.4902" style="stroke:#A80036;stroke-width:1.25;"/><line style="stroke:#A80036;stroke-width:1.25;stroke-dasharray:2.0,2.0;" x1="759.375" x2="1341.875" y1="557.4902" y2="557.4902"/><text fill="#000000" font-family="sans-serif" font-size="16.25" font-weight="bold" lengthAdjust="spacing" textLength="8.75" x="774.375" y="551.4197">8</text><text fill="#000000" font-family="sans-serif" font-size="16.25" lengthAdjust="spacing" textLength="80" x="788.125" y="551.4197">teamTypes</text><polygon fill="#A80036" points="179.375,590.4297,166.875,595.4297,179.375,600.4297,174.375,595.4297" style="stroke:#A80036;stroke-width:1.25;"/><line style="stroke:#A80036;stroke-width:1.25;stroke-dasharray:2.0,2.0;" x1="171.875" x2="739.375" y1="595.4297" y2="595.4297"/><text fill="#000000" font-family="sans-serif" font-size="16.25" font-weight="bold" lengthAdjust="spacing" textLength="8.75" x="186.875" y="589.3591">9</text><text fill="#000000" font-family="sans-serif" font-size="16.25" lengthAdjust="spacing" textLength="255" x="200.625" y="589.3591">Displays the existing type of teams</text><polygon fill="#A80036" points="725.625,628.3691,738.125,633.3691,725.625,638.3691,730.625,633.3691" style="stroke:#A80036;stroke-width:1.25;"/><line style="stroke:#A80036;stroke-width:1.25;" x1="165.625" x2="733.125" y1="633.3691" y2="633.3691"/><text fill="#000000" font-family="sans-serif" font-size="16.25" font-weight="bold" lengthAdjust="spacing" textLength="17.5" x="174.375" y="627.2986">10</text><text fill="#000000" font-family="sans-serif" font-size="16.25" lengthAdjust="spacing" textLength="180" x="196.875" y="627.2986">Select's the type of team</text><polygon fill="#A80036" points="179.375,666.3086,166.875,671.3086,179.375,676.3086,174.375,671.3086" style="stroke:#A80036;stroke-width:1.25;"/><line style="stroke:#A80036;stroke-width:1.25;stroke-dasharray:2.0,2.0;" x1="171.875" x2="739.375" y1="671.3086" y2="671.3086"/><text fill="#000000" font-family="sans-serif" font-size="16.25" font-weight="bold" lengthAdjust="spacing" textLength="17.5" x="186.875" y="665.238">11</text><text fill="#000000" font-family="sans-serif" font-size="16.25" lengthAdjust="spacing" textLength="522.5" x="209.375" y="665.238">Requests all information needed (i.e. teamId, acronym, teamDescription)</text><polygon fill="#A80036" points="725.625,704.248,738.125,709.248,725.625,714.248,730.625,709.248" style="stroke:#A80036;stroke-width:1.25;"/><line style="stroke:#A80036;stroke-width:1.25;" x1="165.625" x2="733.125" y1="709.248" y2="709.248"/><text fill="#000000" font-family="sans-serif" font-size="16.25" font-weight="bold" lengthAdjust="spacing" textLength="17.5" x="174.375" y="703.1775">12</text><text fill="#000000" font-family="sans-serif" font-size="16.25" lengthAdjust="spacing" textLength="236.25" x="196.875" y="703.1775">Inserts the requested information</text><polygon fill="#A80036" points="1321.875,742.1875,1334.375,747.1875,1321.875,752.1875,1326.875,747.1875" style="stroke:#A80036;stroke-width:1.25;"/><line style="stroke:#A80036;stroke-width:1.25;" x1="753.125" x2="1329.375" y1="747.1875" y2="747.1875"/><text fill="#000000" font-family="sans-serif" font-size="16.25" font-weight="bold" lengthAdjust="spacing" textLength="17.5" x="761.875" y="741.1169">13</text><text fill="#000000" font-family="sans-serif" font-size="16.25" lengthAdjust="spacing" textLength="127.5" x="784.375" y="741.1169">getCollaborators()</text><polygon fill="#A80036" points="1800,780.127,1812.5,785.127,1800,790.127,1805,785.127" style="stroke:#A80036;stroke-width:1.25;"/><line style="stroke:#A80036;stroke-width:1.25;" x1="1349.375" x2="1807.5" y1="785.127" y2="785.127"/><text fill="#000000" font-family="sans-serif" font-size="16.25" font-weight="bold" lengthAdjust="spacing" textLength="17.5" x="1358.125" y="779.0564">14</text><text fill="#000000" font-family="sans-serif" font-size="16.25" lengthAdjust="spacing" textLength="328.75" x="1380.625" y="779.0564">ensureAuthenticatedUserHasAnyOf(role, role)</text><polygon fill="#A80036" points="2214.375,818.0664,2226.875,823.0664,2214.375,828.0664,2219.375,823.0664" style="stroke:#A80036;stroke-width:1.25;"/><line style="stroke:#A80036;stroke-width:1.25;" x1="1349.375" x2="2221.875" y1="823.0664" y2="823.0664"/><text fill="#000000" font-family="sans-serif" font-size="16.25" font-weight="bold" lengthAdjust="spacing" textLength="17.5" x="1358.125" y="816.9958">15</text><text fill="#000000" font-family="sans-serif" font-size="16.25" lengthAdjust="spacing" textLength="26.25" x="1380.625" y="816.9958">all()</text><polygon fill="#A80036" points="1363.125,856.0059,1350.625,861.0059,1363.125,866.0059,1358.125,861.0059" style="stroke:#A80036;stroke-width:1.25;"/><line style="stroke:#A80036;stroke-width:1.25;stroke-dasharray:2.0,2.0;" x1="1355.625" x2="2234.375" y1="861.0059" y2="861.0059"/><text fill="#000000" font-family="sans-serif" font-size="16.25" font-weight="bold" lengthAdjust="spacing" textLength="17.5" x="1370.625" y="854.9353">16</text><text fill="#000000" font-family="sans-serif" font-size="16.25" lengthAdjust="spacing" textLength="67.5" x="1393.125" y="854.9353">collabSet</text><polygon fill="#A80036" points="766.875,893.9453,754.375,898.9453,766.875,903.9453,761.875,898.9453" style="stroke:#A80036;stroke-width:1.25;"/><line style="stroke:#A80036;stroke-width:1.25;stroke-dasharray:2.0,2.0;" x1="759.375" x2="1341.875" y1="898.9453" y2="898.9453"/><text fill="#000000" font-family="sans-serif" font-size="16.25" font-weight="bold" lengthAdjust="spacing" textLength="17.5" x="774.375" y="892.8748">17</text><text fill="#000000" font-family="sans-serif" font-size="16.25" lengthAdjust="spacing" textLength="67.5" x="796.875" y="892.8748">collabSet</text><path d="M12.5,917.6953 L103.75,917.6953 L103.75,927.6953 L91.25,940.1953 L12.5,940.1953 L12.5,917.6953 " fill="#EEEEEE" style="stroke:#000000;stroke-width:1.25;"/><rect fill="none" height="174.6973" style="stroke:#000000;stroke-width:2.5;" width="827.5" x="12.5" y="917.6953"/><text fill="#000000" font-family="sans-serif" font-size="16.25" font-weight="bold" lengthAdjust="spacing" textLength="35" x="31.25" y="935.8142">loop</text><text fill="#000000" font-family="sans-serif" font-size="13.75" font-weight="bold" lengthAdjust="spacing" textLength="148.75" x="122.5" y="934.469">[until user command]</text><polygon fill="#A80036" points="179.375,963.5742,166.875,968.5742,179.375,973.5742,174.375,968.5742" style="stroke:#A80036;stroke-width:1.25;"/><line style="stroke:#A80036;stroke-width:1.25;stroke-dasharray:2.0,2.0;" x1="171.875" x2="739.375" y1="968.5742" y2="968.5742"/><text fill="#000000" font-family="sans-serif" font-size="16.25" font-weight="bold" lengthAdjust="spacing" textLength="17.5" x="186.875" y="962.5037">18</text><text fill="#000000" font-family="sans-serif" font-size="16.25" lengthAdjust="spacing" textLength="188.75" x="209.375" y="962.5037">Displays collaborator's list</text><polygon fill="#A80036" points="725.625,1001.5137,738.125,1006.5137,725.625,1011.5137,730.625,1006.5137" style="stroke:#A80036;stroke-width:1.25;"/><line style="stroke:#A80036;stroke-width:1.25;" x1="165.625" x2="733.125" y1="1006.5137" y2="1006.5137"/><text fill="#000000" font-family="sans-serif" font-size="16.25" font-weight="bold" lengthAdjust="spacing" textLength="17.5" x="174.375" y="1000.4431">19</text><text fill="#000000" font-family="sans-serif" font-size="16.25" lengthAdjust="spacing" textLength="295" x="196.875" y="1000.4431">Selects the intended team representative</text><polygon fill="#A80036" points="179.375,1039.4531,166.875,1044.4531,179.375,1049.4531,174.375,1044.4531" style="stroke:#A80036;stroke-width:1.25;"/><line style="stroke:#A80036;stroke-width:1.25;stroke-dasharray:2.0,2.0;" x1="171.875" x2="739.375" y1="1044.4531" y2="1044.4531"/><text fill="#000000" font-family="sans-serif" font-size="16.25" font-weight="bold" lengthAdjust="spacing" textLength="17.5" x="186.875" y="1038.3826">20</text><text fill="#000000" font-family="sans-serif" font-size="16.25" lengthAdjust="spacing" textLength="373.75" x="209.375" y="1038.3826">Asks if the user wishes to add more representatives</text><polygon fill="#A80036" points="725.625,1077.3926,738.125,1082.3926,725.625,1087.3926,730.625,1082.3926" style="stroke:#A80036;stroke-width:1.25;"/><line style="stroke:#A80036;stroke-width:1.25;stroke-dasharray:2.0,2.0;" x1="165.625" x2="733.125" y1="1082.3926" y2="1082.3926"/><text fill="#000000" font-family="sans-serif" font-size="16.25" font-weight="bold" lengthAdjust="spacing" textLength="17.5" x="174.375" y="1076.322">21</text><text fill="#000000" font-family="sans-serif" font-size="16.25" lengthAdjust="spacing" textLength="72.5" x="196.875" y="1076.322">Responds</text><polygon fill="#A80036" points="1321.875,1124.082,1334.375,1129.082,1321.875,1134.082,1326.875,1129.082" style="stroke:#A80036;stroke-width:1.25;"/><line style="stroke:#A80036;stroke-width:1.25;" x1="753.125" x2="1329.375" y1="1129.082" y2="1129.082"/><text fill="#000000" font-family="sans-serif" font-size="16.25" font-weight="bold" lengthAdjust="spacing" textLength="17.5" x="761.875" y="1123.0115">22</text><text fill="#000000" font-family="sans-serif" font-size="16.25" lengthAdjust="spacing" textLength="537.5" x="784.375" y="1123.0115">createTeam(teamId, teamType, acronym, teamDescription, representation)</text><polygon fill="#A80036" points="1800,1162.0215,1812.5,1167.0215,1800,1172.0215,1805,1167.0215" style="stroke:#A80036;stroke-width:1.25;"/><line style="stroke:#A80036;stroke-width:1.25;" x1="1349.375" x2="1807.5" y1="1167.0215" y2="1167.0215"/><text fill="#000000" font-family="sans-serif" font-size="16.25" font-weight="bold" lengthAdjust="spacing" textLength="17.5" x="1358.125" y="1160.9509">23</text><text fill="#000000" font-family="sans-serif" font-size="16.25" lengthAdjust="spacing" textLength="328.75" x="1380.625" y="1160.9509">ensureAuthenticatedUserHasAnyOf(role, role)</text><polygon fill="#A80036" points="2328.125,1199.9609,2340.625,1204.9609,2328.125,1209.9609,2333.125,1204.9609" style="stroke:#A80036;stroke-width:1.25;"/><line style="stroke:#A80036;stroke-width:1.25;" x1="1349.375" x2="2335.625" y1="1204.9609" y2="1204.9609"/><text fill="#000000" font-family="sans-serif" font-size="16.25" font-weight="bold" lengthAdjust="spacing" textLength="17.5" x="1358.125" y="1198.8904">24</text><text fill="#000000" font-family="sans-serif" font-size="16.25" lengthAdjust="spacing" textLength="55" x="1380.625" y="1198.8904">create()</text><rect fill="#FEFECE" filter="url(#f1ocpijjmgdw7a)" height="61.5234" style="stroke:#A80036;stroke-width:1.875;" width="117.5" x="2343.125" y="1177.0215"/><text fill="#000000" font-family="sans-serif" font-size="17.5" lengthAdjust="spacing" textLength="93.75" x="2355" y="1203.938">&lt;&lt;builder&gt;&gt;</text><text fill="#000000" font-family="sans-serif" font-size="17.5" lengthAdjust="spacing" textLength="100" x="2351.875" y="1225.9497">TeamBuilder</text><polygon fill="#A80036" points="2383.125,1280.2344,2395.625,1285.2344,2383.125,1290.2344,2388.125,1285.2344" style="stroke:#A80036;stroke-width:1.25;"/><line style="stroke:#A80036;stroke-width:1.25;" x1="1349.375" x2="2390.625" y1="1285.2344" y2="1285.2344"/><text fill="#000000" font-family="sans-serif" font-size="16.25" font-weight="bold" lengthAdjust="spacing" textLength="17.5" x="1358.125" y="1279.1638">25</text><text fill="#000000" font-family="sans-serif" font-size="16.25" lengthAdjust="spacing" textLength="185" x="1380.625" y="1279.1638">withTeamType(teamType)</text><polygon fill="#A80036" points="2383.125,1318.1738,2395.625,1323.1738,2383.125,1328.1738,2388.125,1323.1738" style="stroke:#A80036;stroke-width:1.25;"/><line style="stroke:#A80036;stroke-width:1.25;" x1="1349.375" x2="2390.625" y1="1323.1738" y2="1323.1738"/><text fill="#000000" font-family="sans-serif" font-size="16.25" font-weight="bold" lengthAdjust="spacing" textLength="17.5" x="1358.125" y="1317.1033">26</text><text fill="#000000" font-family="sans-serif" font-size="16.25" lengthAdjust="spacing" textLength="140" x="1380.625" y="1317.1033">withTeamId(teamId)</text><polygon fill="#A80036" points="2383.125,1356.1133,2395.625,1361.1133,2383.125,1366.1133,2388.125,1361.1133" style="stroke:#A80036;stroke-width:1.25;"/><line style="stroke:#A80036;stroke-width:1.25;" x1="1349.375" x2="2390.625" y1="1361.1133" y2="1361.1133"/><text fill="#000000" font-family="sans-serif" font-size="16.25" font-weight="bold" lengthAdjust="spacing" textLength="17.5" x="1358.125" y="1355.0427">27</text><text fill="#000000" font-family="sans-serif" font-size="16.25" lengthAdjust="spacing" textLength="166.25" x="1380.625" y="1355.0427">withAcronym(acronym)</text><polygon fill="#A80036" points="2383.125,1394.0527,2395.625,1399.0527,2383.125,1404.0527,2388.125,1399.0527" style="stroke:#A80036;stroke-width:1.25;"/><line style="stroke:#A80036;stroke-width:1.25;" x1="1349.375" x2="2390.625" y1="1399.0527" y2="1399.0527"/><text fill="#000000" font-family="sans-serif" font-size="16.25" font-weight="bold" lengthAdjust="spacing" textLength="17.5" x="1358.125" y="1392.9822">28</text><text fill="#000000" font-family="sans-serif" font-size="16.25" lengthAdjust="spacing" textLength="237.5" x="1380.625" y="1392.9822">withDescription(teamDescription)</text><polygon fill="#A80036" points="2383.125,1431.9922,2395.625,1436.9922,2383.125,1441.9922,2388.125,1436.9922" style="stroke:#A80036;stroke-width:1.25;"/><line style="stroke:#A80036;stroke-width:1.25;" x1="1349.375" x2="2390.625" y1="1436.9922" y2="1436.9922"/><text fill="#000000" font-family="sans-serif" font-size="16.25" font-weight="bold" lengthAdjust="spacing" textLength="17.5" x="1358.125" y="1430.9216">29</text><text fill="#000000" font-family="sans-serif" font-size="16.25" lengthAdjust="spacing" textLength="250" x="1380.625" y="1430.9216">withRepresentation(representation)</text><polygon fill="#A80036" points="2383.125,1469.9316,2395.625,1474.9316,2383.125,1479.9316,2388.125,1474.9316" style="stroke:#A80036;stroke-width:1.25;"/><line style="stroke:#A80036;stroke-width:1.25;" x1="1349.375" x2="2390.625" y1="1474.9316" y2="1474.9316"/><text fill="#000000" font-family="sans-serif" font-size="16.25" font-weight="bold" lengthAdjust="spacing" textLength="17.5" x="1358.125" y="1468.8611">30</text><text fill="#000000" font-family="sans-serif" font-size="16.25" lengthAdjust="spacing" textLength="43.75" x="1380.625" y="1468.8611">build()</text><polygon fill="#A80036" points="2945.625,1507.8711,2958.125,1512.8711,2945.625,1517.8711,2950.625,1512.8711" style="stroke:#A80036;stroke-width:1.25;"/><line style="stroke:#A80036;stroke-width:1.25;" x1="2410.625" x2="2953.125" y1="1512.8711" y2="1512.8711"/><text fill="#000000" font-family="sans-serif" font-size="16.25" font-weight="bold" lengthAdjust="spacing" textLength="17.5" x="2419.375" y="1506.8005">31</text><text fill="#000000" font-family="sans-serif" font-size="16.25" lengthAdjust="spacing" textLength="497.5" x="2441.875" y="1506.8005">create(teamId, teamType, acronym, teamDescription, representation)</text><rect fill="#FEFECE" filter="url(#f1ocpijjmgdw7a)" height="61.5234" style="stroke:#A80036;stroke-width:1.875;" width="115" x="2960.625" y="1484.9316"/><text fill="#000000" font-family="sans-serif" font-size="17.5" lengthAdjust="spacing" textLength="97.5" x="2969.375" y="1511.8481">&lt;&lt;domain&gt;&gt;</text><text fill="#000000" font-family="sans-serif" font-size="17.5" lengthAdjust="spacing" textLength="45" x="2995.625" y="1533.8599">Team</text><polygon fill="#A80036" points="2424.375,1588.1445,2411.875,1593.1445,2424.375,1598.1445,2419.375,1593.1445" style="stroke:#A80036;stroke-width:1.25;"/><line style="stroke:#A80036;stroke-width:1.25;stroke-dasharray:2.0,2.0;" x1="2416.875" x2="3019.375" y1="1593.1445" y2="1593.1445"/><text fill="#000000" font-family="sans-serif" font-size="16.25" font-weight="bold" lengthAdjust="spacing" textLength="17.5" x="2431.875" y="1587.074">32</text><text fill="#000000" font-family="sans-serif" font-size="16.25" lengthAdjust="spacing" textLength="36.25" x="2454.375" y="1587.074">team</text><polygon fill="#A80036" points="1363.125,1626.084,1350.625,1631.084,1363.125,1636.084,1358.125,1631.084" style="stroke:#A80036;stroke-width:1.25;"/><line style="stroke:#A80036;stroke-width:1.25;stroke-dasharray:2.0,2.0;" x1="1355.625" x2="2403.125" y1="1631.084" y2="1631.084"/><text fill="#000000" font-family="sans-serif" font-size="16.25" font-weight="bold" lengthAdjust="spacing" textLength="17.5" x="1370.625" y="1625.0134">33</text><text fill="#000000" font-family="sans-serif" font-size="16.25" lengthAdjust="spacing" textLength="36.25" x="1393.125" y="1625.0134">team</text><polygon fill="#A80036" points="3140.625,1664.0234,3153.125,1669.0234,3140.625,1674.0234,3145.625,1669.0234" style="stroke:#A80036;stroke-width:1.25;"/><line style="stroke:#A80036;stroke-width:1.25;" x1="1349.375" x2="3148.125" y1="1669.0234" y2="1669.0234"/><text fill="#000000" font-family="sans-serif" font-size="16.25" font-weight="bold" lengthAdjust="spacing" textLength="17.5" x="1358.125" y="1662.9529">34</text><text fill="#000000" font-family="sans-serif" font-size="16.25" lengthAdjust="spacing" textLength="78.75" x="1380.625" y="1662.9529">save(team)</text><polygon fill="#A80036" points="1363.125,1701.9629,1350.625,1706.9629,1363.125,1711.9629,1358.125,1706.9629" style="stroke:#A80036;stroke-width:1.25;"/><line style="stroke:#A80036;stroke-width:1.25;stroke-dasharray:2.0,2.0;" x1="1355.625" x2="3160.625" y1="1706.9629" y2="1706.9629"/><text fill="#000000" font-family="sans-serif" font-size="16.25" font-weight="bold" lengthAdjust="spacing" textLength="17.5" x="1370.625" y="1700.8923">35</text><text fill="#000000" font-family="sans-serif" font-size="16.25" lengthAdjust="spacing" textLength="36.25" x="1393.125" y="1700.8923">team</text><polygon fill="#A80036" points="766.875,1739.9023,754.375,1744.9023,766.875,1749.9023,761.875,1744.9023" style="stroke:#A80036;stroke-width:1.25;"/><line style="stroke:#A80036;stroke-width:1.25;stroke-dasharray:2.0,2.0;" x1="759.375" x2="1341.875" y1="1744.9023" y2="1744.9023"/><text fill="#000000" font-family="sans-serif" font-size="16.25" font-weight="bold" lengthAdjust="spacing" textLength="17.5" x="774.375" y="1738.8318">36</text><text fill="#000000" font-family="sans-serif" font-size="16.25" lengthAdjust="spacing" textLength="36.25" x="796.875" y="1738.8318">team</text><polygon fill="#A80036" points="179.375,1777.8418,166.875,1782.8418,179.375,1787.8418,174.375,1782.8418" style="stroke:#A80036;stroke-width:1.25;"/><line style="stroke:#A80036;stroke-width:1.25;stroke-dasharray:2.0,2.0;" x1="171.875" x2="739.375" y1="1782.8418" y2="1782.8418"/><text fill="#000000" font-family="sans-serif" font-size="16.25" font-weight="bold" lengthAdjust="spacing" textLength="17.5" x="186.875" y="1776.7712">37</text><text fill="#000000" font-family="sans-serif" font-size="16.25" lengthAdjust="spacing" textLength="280" x="209.375" y="1776.7712">Informs of the success of the operation</text><!--MD5=[11ddc9c0bd4192a4b0b32ac567f34dc2]
@startuml
autonumber
hide footbox

actor "Human Resource Representative" as HRR

participant "<<presentation>>\nTeamCreatorUI" as UI
participant "<<aplication>>\nTeamCreatorController" as CTRL
participant "<<aplication>>\nAuthzRegistry" as AUTHR
participant "<<aplication>>\nAuthorizationService" as AUTH
participant "<<domain>>\nteamTypes:TeamTypes" as TT
database "<<repository>>\nCollaboratorRepository" as CR
participant "<<builder>>\nTeamBuilder" as TB
participant "<<domain>>\nTeam" as TEAM
database "<<repository>>\nTeamRepository" as TR

activate HRR
HRR -> UI : Initiates the request to create a Team

activate UI
UI -> CTRL** : create()

activate CTRL
ref over CTRL
US-1-2052_SD_Repo
end ref

CTRL -> AUTHR : m_oAuthz = authorizationService()
activate AUTHR
deactivate CTRL
deactivate AUTHR

UI -> CTRL : getTeamTypes()

activate CTRL
CTRL -> AUTH : ensureAuthenticatedUserHasAnyOf(role, role)
CTRL -> TT : values()

activate TT
TT - -> CTRL : teamTypes
deactivate TT

CTRL - -> UI : teamTypes
deactivate CTRL

UI - -> HRR : Displays the existing type of teams

HRR -> UI : Select's the type of team

UI - -> HRR : Requests all information needed (i.e. teamId, acronym, teamDescription)

HRR -> UI : Inserts the requested information

UI -> CTRL : getCollaborators()

activate CTRL
CTRL -> AUTH : ensureAuthenticatedUserHasAnyOf(role, role)
CTRL -> CR : all()

activate CR
CR - -> CTRL : collabSet

deactivate CR
CTRL - -> UI : collabSet
deactivate CTRL


loop until user command
UI - -> HRR : Displays collaborator's list

HRR -> UI : Selects the intended team representative

UI - -> HRR : Asks if the user wishes to add more representatives

HRR - -> UI : Responds
end

UI -> CTRL : createTeam(teamId, teamType, acronym, teamDescription, representation)

activate CTRL
CTRL -> AUTH : ensureAuthenticatedUserHasAnyOf(role, role)
CTRL -> TB** : create()
CTRL -> TB : withTeamType(teamType)

activate TB

CTRL -> TB : withTeamId(teamId)
CTRL -> TB : withAcronym(acronym)
CTRL -> TB : withDescription(teamDescription)
CTRL -> TB : withRepresentation(representation)
CTRL -> TB : build()

TB -> TEAM** : create(teamId, teamType, acronym, teamDescription, representation)

activate TEAM
TEAM - -> TB : team
deactivate TEAM

TB - -> CTRL : team
deactivate TB

CTRL -> TR : save(team)

activate TR
TR - -> CTRL : team
deactivate TR

CTRL - -> UI : team
deactivate CTRL

UI - -> HRR : Informs of the success of the operation







@enduml

PlantUML version 1.2021.5(Sun Apr 25 12:20:28 BST 2021)
(GPL source distribution)
Java Runtime: OpenJDK Runtime Environment
JVM: OpenJDK 64-Bit Server VM
Default Encoding: Cp1252
Language: pt
Country: PT
--></g></svg>