<?xml version="1.0" encoding="UTF-8" standalone="no"?><svg xmlns="http://www.w3.org/2000/svg" xmlns:xlink="http://www.w3.org/1999/xlink" contentScriptType="application/ecmascript" contentStyleType="text/css" height="732px" preserveAspectRatio="none" style="width:3021px;height:732px;" version="1.1" viewBox="0 0 3021 732" width="3021px" zoomAndPan="magnify"><defs><filter height="300%" id="f1xv8qhd9vcdfy" width="300%" x="-1" y="-1"><feGaussianBlur result="blurOut" stdDeviation="2.0"/><feColorMatrix in="blurOut" result="blurOut2" type="matrix" values="0 0 0 0 0 0 0 0 0 0 0 0 0 0 0 0 0 0 .4 0"/><feOffset dx="4.0" dy="4.0" in="blurOut2" result="blurOut3"/><feBlend in="SourceGraphic" in2="blurOut3" mode="normal"/></filter></defs><g><!--MD5=[8fd473fd151a2794da4f2c8684676405]
cluster Presentation--><polygon fill="#DDDDDD" filter="url(#f1xv8qhd9vcdfy)" points="707,6,803,6,810,29.6094,921,29.6094,921,126,707,126,707,6" style="stroke:#000000;stroke-width:1.5;"/><line style="stroke:#000000;stroke-width:1.5;" x1="707" x2="810" y1="29.6094" y2="29.6094"/><text fill="#000000" font-family="sans-serif" font-size="14" font-weight="bold" lengthAdjust="spacing" textLength="90" x="711" y="22.5332">Presentation</text><!--MD5=[d64883541e3d62e3241c4d12decf100d]
cluster Application--><polygon fill="#DDDDDD" filter="url(#f1xv8qhd9vcdfy)" points="622,159,706,159,713,182.6094,1006,182.6094,1006,362,622,362,622,159" style="stroke:#000000;stroke-width:1.5;"/><line style="stroke:#000000;stroke-width:1.5;" x1="622" x2="713" y1="182.6094" y2="182.6094"/><text fill="#000000" font-family="sans-serif" font-size="14" font-weight="bold" lengthAdjust="spacing" textLength="78" x="626" y="175.5332">Application</text><!--MD5=[121a8bf1197281ab89ed693fab589f94]
cluster Domain--><polygon fill="#DDDDDD" filter="url(#f1xv8qhd9vcdfy)" points="851,412,909,412,916,435.6094,3004,435.6094,3004,725,851,725,851,412" style="stroke:#000000;stroke-width:1.5;"/><line style="stroke:#000000;stroke-width:1.5;" x1="851" x2="916" y1="435.6094" y2="435.6094"/><text fill="#000000" font-family="sans-serif" font-size="14" font-weight="bold" lengthAdjust="spacing" textLength="52" x="855" y="428.5332">Domain</text><!--MD5=[44cc74aea8168fb4471e814fff38ed12]
cluster Builder--><polygon fill="#DDDDDD" filter="url(#f1xv8qhd9vcdfy)" points="2666,456,2723,456,2730,479.6094,2980,479.6094,2980,701,2666,701,2666,456" style="stroke:#000000;stroke-width:1.5;"/><line style="stroke:#000000;stroke-width:1.5;" x1="2666" x2="2730" y1="479.6094" y2="479.6094"/><text fill="#000000" font-family="sans-serif" font-size="14" font-weight="bold" lengthAdjust="spacing" textLength="51" x="2670" y="472.5332">Builder</text><!--MD5=[bc6b40dadbf86ab6a0c8405a467a48af]
cluster Persistence--><polygon fill="#DDDDDD" filter="url(#f1xv8qhd9vcdfy)" points="16,460.5,106,460.5,113,484.1094,827,484.1094,827,676.5,16,676.5,16,460.5" style="stroke:#000000;stroke-width:1.5;"/><line style="stroke:#000000;stroke-width:1.5;" x1="16" x2="113" y1="484.1094" y2="484.1094"/><text fill="#000000" font-family="sans-serif" font-size="14" font-weight="bold" lengthAdjust="spacing" textLength="84" x="20" y="477.0332">Persistence</text><!--MD5=[0d5799440b3bfefd92b00abfcd2c79b9]
cluster Factory--><polygon fill="#DDDDDD" filter="url(#f1xv8qhd9vcdfy)" points="641,504.5,699,504.5,706,528.1094,803,528.1094,803,652.5,641,652.5,641,504.5" style="stroke:#000000;stroke-width:1.5;"/><line style="stroke:#000000;stroke-width:1.5;" x1="641" x2="706" y1="528.1094" y2="528.1094"/><text fill="#000000" font-family="sans-serif" font-size="14" font-weight="bold" lengthAdjust="spacing" textLength="52" x="645" y="521.0332">Factory</text><!--MD5=[71971f99a41bb66cf321ce46bb59f738]
cluster Repository--><polygon fill="#DDDDDD" filter="url(#f1xv8qhd9vcdfy)" points="424,504.5,506,504.5,513,528.1094,616,528.1094,616,652.5,424,652.5,424,504.5" style="stroke:#000000;stroke-width:1.5;"/><line style="stroke:#000000;stroke-width:1.5;" x1="424" x2="513" y1="528.1094" y2="528.1094"/><text fill="#000000" font-family="sans-serif" font-size="14" font-weight="bold" lengthAdjust="spacing" textLength="76" x="428" y="521.0332">Repository</text><!--MD5=[93c84338c8133da314580433f8790b00]
class CollaboratorSpecificationUI--><rect codeLine="5" fill="#FEFECE" filter="url(#f1xv8qhd9vcdfy)" height="48" id="CollaboratorSpecificationUI" style="stroke:#A80036;stroke-width:1.5;" width="182" x="723" y="62"/><ellipse cx="738" cy="78" fill="#ADD1B2" rx="11" ry="11" style="stroke:#A80036;stroke-width:1.0;"/><path d="M740,74.5 Q740.2031,74 740.4375,73.75 Q740.6719,73.5 740.9375,73.5 Q741.4063,73.5 741.7031,73.7813 Q742,74.0625 742,74.7188 L742,76.2813 Q742,76.9375 741.7188,77.2188 Q741.4375,77.5 741,77.5 Q740.6094,77.5 740.3594,77.3281 Q740.1094,77.1563 740,76.7031 Q739.9531,76.3906 739.7813,76.2188 Q739.4688,75.8906 738.9063,75.7031 Q738.3438,75.5 737.7813,75.5 Q737.0781,75.5 736.4844,75.7813 Q735.9063,76.0625 735.4531,76.6875 Q735,77.3125 735,78.1719 L735,79.0938 Q735,80.125 735.8438,80.8125 Q736.6875,81.5 738.1875,81.5 Q739.0781,81.5 739.7031,81.2969 Q740.0625,81.1875 740.4688,80.8281 Q740.7344,80.625 740.875,80.5625 Q741.0156,80.5 741.1875,80.5 Q741.5156,80.5 741.75,80.7656 Q742,81.0156 742,81.375 Q742,81.7188 741.6563,82.125 Q741.1563,82.7188 740.3594,83.0469 Q739.3125,83.5 738.0313,83.5 Q736.5313,83.5 735.3281,82.9063 Q734.3594,82.4375 733.6719,81.4219 Q733,80.4063 733,79.2031 L733,78.1094 Q733,76.8594 733.5938,75.7656 Q734.2031,74.6719 735.25,74.0938 Q736.3125,73.5 737.5,73.5 Q738.2188,73.5 738.8438,73.75 Q739.4688,74 740,74.5 Z " fill="#000000"/><text fill="#000000" font-family="sans-serif" font-size="12" lengthAdjust="spacing" textLength="150" x="752" y="82.9102">CollaboratorSpecificationUI</text><line style="stroke:#A80036;stroke-width:1.5;" x1="724" x2="904" y1="94" y2="94"/><line style="stroke:#A80036;stroke-width:1.5;" x1="724" x2="904" y1="102" y2="102"/><!--MD5=[f1bbe1cf2453e6a45e68131c63d26ace]
class CollaboratorSpecificationController--><rect codeLine="12" fill="#FEFECE" filter="url(#f1xv8qhd9vcdfy)" height="131.0156" id="CollaboratorSpecificationController" style="stroke:#A80036;stroke-width:1.5;" width="352" x="638" y="215"/><ellipse cx="713.75" cy="231" fill="#ADD1B2" rx="11" ry="11" style="stroke:#A80036;stroke-width:1.0;"/><path d="M715.75,227.5 Q715.9531,227 716.1875,226.75 Q716.4219,226.5 716.6875,226.5 Q717.1563,226.5 717.4531,226.7813 Q717.75,227.0625 717.75,227.7188 L717.75,229.2813 Q717.75,229.9375 717.4688,230.2188 Q717.1875,230.5 716.75,230.5 Q716.3594,230.5 716.1094,230.3281 Q715.8594,230.1563 715.75,229.7031 Q715.7031,229.3906 715.5313,229.2188 Q715.2188,228.8906 714.6563,228.7031 Q714.0938,228.5 713.5313,228.5 Q712.8281,228.5 712.2344,228.7813 Q711.6563,229.0625 711.2031,229.6875 Q710.75,230.3125 710.75,231.1719 L710.75,232.0938 Q710.75,233.125 711.5938,233.8125 Q712.4375,234.5 713.9375,234.5 Q714.8281,234.5 715.4531,234.2969 Q715.8125,234.1875 716.2188,233.8281 Q716.4844,233.625 716.625,233.5625 Q716.7656,233.5 716.9375,233.5 Q717.2656,233.5 717.5,233.7656 Q717.75,234.0156 717.75,234.375 Q717.75,234.7188 717.4063,235.125 Q716.9063,235.7188 716.1094,236.0469 Q715.0625,236.5 713.7813,236.5 Q712.2813,236.5 711.0781,235.9063 Q710.1094,235.4375 709.4219,234.4219 Q708.75,233.4063 708.75,232.2031 L708.75,231.1094 Q708.75,229.8594 709.3438,228.7656 Q709.9531,227.6719 711,227.0938 Q712.0625,226.5 713.25,226.5 Q713.9688,226.5 714.5938,226.75 Q715.2188,227 715.75,227.5 Z " fill="#000000"/><text fill="#000000" font-family="sans-serif" font-size="12" lengthAdjust="spacing" textLength="192" x="734.25" y="235.9102">CollaboratorSpecificationController</text><line style="stroke:#A80036;stroke-width:1.5;" x1="639" x2="989" y1="247" y2="247"/><line style="stroke:#A80036;stroke-width:1.5;" x1="639" x2="989" y1="255" y2="255"/><text fill="#000000" font-family="sans-serif" font-size="11" lengthAdjust="spacing" textLength="45" x="644" y="270.4189">+create()</text><text fill="#000000" font-family="sans-serif" font-size="11" lengthAdjust="spacing" textLength="340" x="644" y="284.2549">+addCollaborator(shortName, completeName, mechanographicNumber,</text><text fill="#000000" font-family="sans-serif" font-size="11" lengthAdjust="spacing" textLength="166" x="644" y="298.0908">address, phoneNumber, birthDate)</text><text fill="#000000" font-family="sans-serif" font-size="11" lengthAdjust="spacing" textLength="67" x="644" y="311.9268">+getRoleList()</text><text fill="#000000" font-family="sans-serif" font-size="11" lengthAdjust="spacing" textLength="71" x="644" y="325.7627">+addRole(role)</text><text fill="#000000" font-family="sans-serif" font-size="11" lengthAdjust="spacing" textLength="96" x="644" y="339.5986">+saveCollaborator()</text><!--MD5=[f483d6e5de34a60207b28a5563be5e8b]
class Collaborator--><rect codeLine="23" fill="#FEFECE" filter="url(#f1xv8qhd9vcdfy)" height="75.6719" id="Collaborator" style="stroke:#A80036;stroke-width:1.5;" width="307" x="867.5" y="560.5"/><ellipse cx="982.75" cy="576.5" fill="#ADD1B2" rx="11" ry="11" style="stroke:#A80036;stroke-width:1.0;"/><path d="M984.75,573 Q984.9531,572.5 985.1875,572.25 Q985.4219,572 985.6875,572 Q986.1563,572 986.4531,572.2813 Q986.75,572.5625 986.75,573.2188 L986.75,574.7813 Q986.75,575.4375 986.4688,575.7188 Q986.1875,576 985.75,576 Q985.3594,576 985.1094,575.8281 Q984.8594,575.6563 984.75,575.2031 Q984.7031,574.8906 984.5313,574.7188 Q984.2188,574.3906 983.6563,574.2031 Q983.0938,574 982.5313,574 Q981.8281,574 981.2344,574.2813 Q980.6563,574.5625 980.2031,575.1875 Q979.75,575.8125 979.75,576.6719 L979.75,577.5938 Q979.75,578.625 980.5938,579.3125 Q981.4375,580 982.9375,580 Q983.8281,580 984.4531,579.7969 Q984.8125,579.6875 985.2188,579.3281 Q985.4844,579.125 985.625,579.0625 Q985.7656,579 985.9375,579 Q986.2656,579 986.5,579.2656 Q986.75,579.5156 986.75,579.875 Q986.75,580.2188 986.4063,580.625 Q985.9063,581.2188 985.1094,581.5469 Q984.0625,582 982.7813,582 Q981.2813,582 980.0781,581.4063 Q979.1094,580.9375 978.4219,579.9219 Q977.75,578.9063 977.75,577.7031 L977.75,576.6094 Q977.75,575.3594 978.3438,574.2656 Q978.9531,573.1719 980,572.5938 Q981.0625,572 982.25,572 Q982.9688,572 983.5938,572.25 Q984.2188,572.5 984.75,573 Z " fill="#000000"/><text fill="#000000" font-family="sans-serif" font-size="12" lengthAdjust="spacing" textLength="68" x="1003.25" y="581.4102">Collaborator</text><line style="stroke:#A80036;stroke-width:1.5;" x1="868.5" x2="1173.5" y1="592.5" y2="592.5"/><line style="stroke:#A80036;stroke-width:1.5;" x1="868.5" x2="1173.5" y1="600.5" y2="600.5"/><text fill="#000000" font-family="sans-serif" font-size="11" lengthAdjust="spacing" textLength="295" x="873.5" y="615.9189">+create(shortName, completeName, mechanographicNumber,</text><text fill="#000000" font-family="sans-serif" font-size="11" lengthAdjust="spacing" textLength="190" x="873.5" y="629.7549">address, phoneNumber, birthDate,Role)</text><!--MD5=[f338b7fac0450cb697edae5d9e4bb9ca]
class ShortName--><rect codeLine="27" fill="#FEFECE" filter="url(#f1xv8qhd9vcdfy)" height="75.6719" id="ShortName" style="stroke:#A80036;stroke-width:1.5;" width="162" x="2485" y="560.5"/><ellipse cx="2530.25" cy="576.5" fill="#ADD1B2" rx="11" ry="11" style="stroke:#A80036;stroke-width:1.0;"/><path d="M2532.25,573 Q2532.4531,572.5 2532.6875,572.25 Q2532.9219,572 2533.1875,572 Q2533.6563,572 2533.9531,572.2813 Q2534.25,572.5625 2534.25,573.2188 L2534.25,574.7813 Q2534.25,575.4375 2533.9688,575.7188 Q2533.6875,576 2533.25,576 Q2532.8594,576 2532.6094,575.8281 Q2532.3594,575.6563 2532.25,575.2031 Q2532.2031,574.8906 2532.0313,574.7188 Q2531.7188,574.3906 2531.1563,574.2031 Q2530.5938,574 2530.0313,574 Q2529.3281,574 2528.7344,574.2813 Q2528.1563,574.5625 2527.7031,575.1875 Q2527.25,575.8125 2527.25,576.6719 L2527.25,577.5938 Q2527.25,578.625 2528.0938,579.3125 Q2528.9375,580 2530.4375,580 Q2531.3281,580 2531.9531,579.7969 Q2532.3125,579.6875 2532.7188,579.3281 Q2532.9844,579.125 2533.125,579.0625 Q2533.2656,579 2533.4375,579 Q2533.7656,579 2534,579.2656 Q2534.25,579.5156 2534.25,579.875 Q2534.25,580.2188 2533.9063,580.625 Q2533.4063,581.2188 2532.6094,581.5469 Q2531.5625,582 2530.2813,582 Q2528.7813,582 2527.5781,581.4063 Q2526.6094,580.9375 2525.9219,579.9219 Q2525.25,578.9063 2525.25,577.7031 L2525.25,576.6094 Q2525.25,575.3594 2525.8438,574.2656 Q2526.4531,573.1719 2527.5,572.5938 Q2528.5625,572 2529.75,572 Q2530.4688,572 2531.0938,572.25 Q2531.7188,572.5 2532.25,573 Z " fill="#000000"/><text fill="#000000" font-family="sans-serif" font-size="12" lengthAdjust="spacing" textLength="63" x="2550.75" y="581.4102">ShortName</text><line style="stroke:#A80036;stroke-width:1.5;" x1="2486" x2="2646" y1="592.5" y2="592.5"/><line style="stroke:#A80036;stroke-width:1.5;" x1="2486" x2="2646" y1="600.5" y2="600.5"/><text fill="#000000" font-family="sans-serif" font-size="11" lengthAdjust="spacing" textLength="150" x="2491" y="615.9189">+createShortName(shortName)</text><text fill="#000000" font-family="sans-serif" font-size="11" lengthAdjust="spacing" textLength="101" x="2491" y="629.7549">-validate(shortName)</text><!--MD5=[cadca83c4c6337f88ae4425081101a2d]
class CompleteName--><rect codeLine="32" fill="#FEFECE" filter="url(#f1xv8qhd9vcdfy)" height="75.6719" id="CompleteName" style="stroke:#A80036;stroke-width:1.5;" width="198" x="2252" y="560.5"/><ellipse cx="2302.75" cy="576.5" fill="#ADD1B2" rx="11" ry="11" style="stroke:#A80036;stroke-width:1.0;"/><path d="M2304.75,573 Q2304.9531,572.5 2305.1875,572.25 Q2305.4219,572 2305.6875,572 Q2306.1563,572 2306.4531,572.2813 Q2306.75,572.5625 2306.75,573.2188 L2306.75,574.7813 Q2306.75,575.4375 2306.4688,575.7188 Q2306.1875,576 2305.75,576 Q2305.3594,576 2305.1094,575.8281 Q2304.8594,575.6563 2304.75,575.2031 Q2304.7031,574.8906 2304.5313,574.7188 Q2304.2188,574.3906 2303.6563,574.2031 Q2303.0938,574 2302.5313,574 Q2301.8281,574 2301.2344,574.2813 Q2300.6563,574.5625 2300.2031,575.1875 Q2299.75,575.8125 2299.75,576.6719 L2299.75,577.5938 Q2299.75,578.625 2300.5938,579.3125 Q2301.4375,580 2302.9375,580 Q2303.8281,580 2304.4531,579.7969 Q2304.8125,579.6875 2305.2188,579.3281 Q2305.4844,579.125 2305.625,579.0625 Q2305.7656,579 2305.9375,579 Q2306.2656,579 2306.5,579.2656 Q2306.75,579.5156 2306.75,579.875 Q2306.75,580.2188 2306.4063,580.625 Q2305.9063,581.2188 2305.1094,581.5469 Q2304.0625,582 2302.7813,582 Q2301.2813,582 2300.0781,581.4063 Q2299.1094,580.9375 2298.4219,579.9219 Q2297.75,578.9063 2297.75,577.7031 L2297.75,576.6094 Q2297.75,575.3594 2298.3438,574.2656 Q2298.9531,573.1719 2300,572.5938 Q2301.0625,572 2302.25,572 Q2302.9688,572 2303.5938,572.25 Q2304.2188,572.5 2304.75,573 Z " fill="#000000"/><text fill="#000000" font-family="sans-serif" font-size="12" lengthAdjust="spacing" textLength="88" x="2323.25" y="581.4102">CompleteName</text><line style="stroke:#A80036;stroke-width:1.5;" x1="2253" x2="2449" y1="592.5" y2="592.5"/><line style="stroke:#A80036;stroke-width:1.5;" x1="2253" x2="2449" y1="600.5" y2="600.5"/><text fill="#000000" font-family="sans-serif" font-size="11" lengthAdjust="spacing" textLength="186" x="2258" y="615.9189">+createCompleteName(completeName)</text><text fill="#000000" font-family="sans-serif" font-size="11" lengthAdjust="spacing" textLength="119" x="2258" y="629.7549">-validate(completeName)</text><!--MD5=[60b365d8f6d5c8e3e73e4be0aaaeb2da]
class NumeroMecanografico--><rect codeLine="37" fill="#FEFECE" filter="url(#f1xv8qhd9vcdfy)" height="75.6719" id="NumeroMecanografico" style="stroke:#A80036;stroke-width:1.5;" width="274" x="1943" y="560.5"/><ellipse cx="2013.25" cy="576.5" fill="#ADD1B2" rx="11" ry="11" style="stroke:#A80036;stroke-width:1.0;"/><path d="M2015.25,573 Q2015.4531,572.5 2015.6875,572.25 Q2015.9219,572 2016.1875,572 Q2016.6563,572 2016.9531,572.2813 Q2017.25,572.5625 2017.25,573.2188 L2017.25,574.7813 Q2017.25,575.4375 2016.9688,575.7188 Q2016.6875,576 2016.25,576 Q2015.8594,576 2015.6094,575.8281 Q2015.3594,575.6563 2015.25,575.2031 Q2015.2031,574.8906 2015.0313,574.7188 Q2014.7188,574.3906 2014.1563,574.2031 Q2013.5938,574 2013.0313,574 Q2012.3281,574 2011.7344,574.2813 Q2011.1563,574.5625 2010.7031,575.1875 Q2010.25,575.8125 2010.25,576.6719 L2010.25,577.5938 Q2010.25,578.625 2011.0938,579.3125 Q2011.9375,580 2013.4375,580 Q2014.3281,580 2014.9531,579.7969 Q2015.3125,579.6875 2015.7188,579.3281 Q2015.9844,579.125 2016.125,579.0625 Q2016.2656,579 2016.4375,579 Q2016.7656,579 2017,579.2656 Q2017.25,579.5156 2017.25,579.875 Q2017.25,580.2188 2016.9063,580.625 Q2016.4063,581.2188 2015.6094,581.5469 Q2014.5625,582 2013.2813,582 Q2011.7813,582 2010.5781,581.4063 Q2009.6094,580.9375 2008.9219,579.9219 Q2008.25,578.9063 2008.25,577.7031 L2008.25,576.6094 Q2008.25,575.3594 2008.8438,574.2656 Q2009.4531,573.1719 2010.5,572.5938 Q2011.5625,572 2012.75,572 Q2013.4688,572 2014.0938,572.25 Q2014.7188,572.5 2015.25,573 Z " fill="#000000"/><text fill="#000000" font-family="sans-serif" font-size="12" lengthAdjust="spacing" textLength="125" x="2033.75" y="581.4102">NumeroMecanografico</text><line style="stroke:#A80036;stroke-width:1.5;" x1="1944" x2="2216" y1="592.5" y2="592.5"/><line style="stroke:#A80036;stroke-width:1.5;" x1="1944" x2="2216" y1="600.5" y2="600.5"/><text fill="#000000" font-family="sans-serif" font-size="11" lengthAdjust="spacing" textLength="262" x="1949" y="615.9189">+createNumeroMecanografico(numeroMecanografico)</text><text fill="#000000" font-family="sans-serif" font-size="11" lengthAdjust="spacing" textLength="157" x="1949" y="629.7549">-validate(numeroMecanografico)</text><!--MD5=[0f39e4cb6f03951afbf6d14bd2505654]
class Address--><rect codeLine="42" fill="#FEFECE" filter="url(#f1xv8qhd9vcdfy)" height="75.6719" id="Address" style="stroke:#A80036;stroke-width:1.5;" width="139" x="1675.5" y="560.5"/><ellipse cx="1717.95" cy="576.5" fill="#ADD1B2" rx="11" ry="11" style="stroke:#A80036;stroke-width:1.0;"/><path d="M1719.95,573 Q1720.1531,572.5 1720.3875,572.25 Q1720.6219,572 1720.8875,572 Q1721.3563,572 1721.6531,572.2813 Q1721.95,572.5625 1721.95,573.2188 L1721.95,574.7813 Q1721.95,575.4375 1721.6688,575.7188 Q1721.3875,576 1720.95,576 Q1720.5594,576 1720.3094,575.8281 Q1720.0594,575.6563 1719.95,575.2031 Q1719.9031,574.8906 1719.7313,574.7188 Q1719.4188,574.3906 1718.8563,574.2031 Q1718.2938,574 1717.7313,574 Q1717.0281,574 1716.4344,574.2813 Q1715.8563,574.5625 1715.4031,575.1875 Q1714.95,575.8125 1714.95,576.6719 L1714.95,577.5938 Q1714.95,578.625 1715.7938,579.3125 Q1716.6375,580 1718.1375,580 Q1719.0281,580 1719.6531,579.7969 Q1720.0125,579.6875 1720.4188,579.3281 Q1720.6844,579.125 1720.825,579.0625 Q1720.9656,579 1721.1375,579 Q1721.4656,579 1721.7,579.2656 Q1721.95,579.5156 1721.95,579.875 Q1721.95,580.2188 1721.6063,580.625 Q1721.1063,581.2188 1720.3094,581.5469 Q1719.2625,582 1717.9813,582 Q1716.4813,582 1715.2781,581.4063 Q1714.3094,580.9375 1713.6219,579.9219 Q1712.95,578.9063 1712.95,577.7031 L1712.95,576.6094 Q1712.95,575.3594 1713.5438,574.2656 Q1714.1531,573.1719 1715.2,572.5938 Q1716.2625,572 1717.45,572 Q1718.1688,572 1718.7938,572.25 Q1719.4188,572.5 1719.95,573 Z " fill="#000000"/><text fill="#000000" font-family="sans-serif" font-size="12" lengthAdjust="spacing" textLength="46" x="1738.05" y="581.4102">Address</text><line style="stroke:#A80036;stroke-width:1.5;" x1="1676.5" x2="1813.5" y1="592.5" y2="592.5"/><line style="stroke:#A80036;stroke-width:1.5;" x1="1676.5" x2="1813.5" y1="600.5" y2="600.5"/><text fill="#000000" font-family="sans-serif" font-size="11" lengthAdjust="spacing" textLength="127" x="1681.5" y="615.9189">+createAddress(address)</text><text fill="#000000" font-family="sans-serif" font-size="11" lengthAdjust="spacing" textLength="89" x="1681.5" y="629.7549">-validate(address)</text><!--MD5=[b5e265065262f4f9caf90311e5706eef]
class PhoneNumber--><rect codeLine="47" fill="#FEFECE" filter="url(#f1xv8qhd9vcdfy)" height="75.6719" id="PhoneNumber" style="stroke:#A80036;stroke-width:1.5;" width="191" x="1449.5" y="560.5"/><ellipse cx="1500.25" cy="576.5" fill="#ADD1B2" rx="11" ry="11" style="stroke:#A80036;stroke-width:1.0;"/><path d="M1502.25,573 Q1502.4531,572.5 1502.6875,572.25 Q1502.9219,572 1503.1875,572 Q1503.6563,572 1503.9531,572.2813 Q1504.25,572.5625 1504.25,573.2188 L1504.25,574.7813 Q1504.25,575.4375 1503.9688,575.7188 Q1503.6875,576 1503.25,576 Q1502.8594,576 1502.6094,575.8281 Q1502.3594,575.6563 1502.25,575.2031 Q1502.2031,574.8906 1502.0313,574.7188 Q1501.7188,574.3906 1501.1563,574.2031 Q1500.5938,574 1500.0313,574 Q1499.3281,574 1498.7344,574.2813 Q1498.1563,574.5625 1497.7031,575.1875 Q1497.25,575.8125 1497.25,576.6719 L1497.25,577.5938 Q1497.25,578.625 1498.0938,579.3125 Q1498.9375,580 1500.4375,580 Q1501.3281,580 1501.9531,579.7969 Q1502.3125,579.6875 1502.7188,579.3281 Q1502.9844,579.125 1503.125,579.0625 Q1503.2656,579 1503.4375,579 Q1503.7656,579 1504,579.2656 Q1504.25,579.5156 1504.25,579.875 Q1504.25,580.2188 1503.9063,580.625 Q1503.4063,581.2188 1502.6094,581.5469 Q1501.5625,582 1500.2813,582 Q1498.7813,582 1497.5781,581.4063 Q1496.6094,580.9375 1495.9219,579.9219 Q1495.25,578.9063 1495.25,577.7031 L1495.25,576.6094 Q1495.25,575.3594 1495.8438,574.2656 Q1496.4531,573.1719 1497.5,572.5938 Q1498.5625,572 1499.75,572 Q1500.4688,572 1501.0938,572.25 Q1501.7188,572.5 1502.25,573 Z " fill="#000000"/><text fill="#000000" font-family="sans-serif" font-size="12" lengthAdjust="spacing" textLength="81" x="1520.75" y="581.4102">PhoneNumber</text><line style="stroke:#A80036;stroke-width:1.5;" x1="1450.5" x2="1639.5" y1="592.5" y2="592.5"/><line style="stroke:#A80036;stroke-width:1.5;" x1="1450.5" x2="1639.5" y1="600.5" y2="600.5"/><text fill="#000000" font-family="sans-serif" font-size="11" lengthAdjust="spacing" textLength="179" x="1455.5" y="615.9189">+createPhoneNumber(phoneNumber)</text><text fill="#000000" font-family="sans-serif" font-size="11" lengthAdjust="spacing" textLength="116" x="1455.5" y="629.7549">-validate(phoneNumber)</text><!--MD5=[ec957f90f125634d426aef890efece94]
class BirthDate--><rect codeLine="52" fill="#FEFECE" filter="url(#f1xv8qhd9vcdfy)" height="75.6719" id="BirthDate" style="stroke:#A80036;stroke-width:1.5;" width="144" x="1232" y="560.5"/><ellipse cx="1274.45" cy="576.5" fill="#ADD1B2" rx="11" ry="11" style="stroke:#A80036;stroke-width:1.0;"/><path d="M1276.45,573 Q1276.6531,572.5 1276.8875,572.25 Q1277.1219,572 1277.3875,572 Q1277.8563,572 1278.1531,572.2813 Q1278.45,572.5625 1278.45,573.2188 L1278.45,574.7813 Q1278.45,575.4375 1278.1688,575.7188 Q1277.8875,576 1277.45,576 Q1277.0594,576 1276.8094,575.8281 Q1276.5594,575.6563 1276.45,575.2031 Q1276.4031,574.8906 1276.2313,574.7188 Q1275.9188,574.3906 1275.3563,574.2031 Q1274.7938,574 1274.2313,574 Q1273.5281,574 1272.9344,574.2813 Q1272.3563,574.5625 1271.9031,575.1875 Q1271.45,575.8125 1271.45,576.6719 L1271.45,577.5938 Q1271.45,578.625 1272.2938,579.3125 Q1273.1375,580 1274.6375,580 Q1275.5281,580 1276.1531,579.7969 Q1276.5125,579.6875 1276.9188,579.3281 Q1277.1844,579.125 1277.325,579.0625 Q1277.4656,579 1277.6375,579 Q1277.9656,579 1278.2,579.2656 Q1278.45,579.5156 1278.45,579.875 Q1278.45,580.2188 1278.1063,580.625 Q1277.6063,581.2188 1276.8094,581.5469 Q1275.7625,582 1274.4813,582 Q1272.9813,582 1271.7781,581.4063 Q1270.8094,580.9375 1270.1219,579.9219 Q1269.45,578.9063 1269.45,577.7031 L1269.45,576.6094 Q1269.45,575.3594 1270.0438,574.2656 Q1270.6531,573.1719 1271.7,572.5938 Q1272.7625,572 1273.95,572 Q1274.6688,572 1275.2938,572.25 Q1275.9188,572.5 1276.45,573 Z " fill="#000000"/><text fill="#000000" font-family="sans-serif" font-size="12" lengthAdjust="spacing" textLength="51" x="1294.55" y="581.4102">BirthDate</text><line style="stroke:#A80036;stroke-width:1.5;" x1="1233" x2="1375" y1="592.5" y2="592.5"/><line style="stroke:#A80036;stroke-width:1.5;" x1="1233" x2="1375" y1="600.5" y2="600.5"/><text fill="#000000" font-family="sans-serif" font-size="11" lengthAdjust="spacing" textLength="132" x="1238" y="615.9189">+createBirthDate(birthDate)</text><text fill="#000000" font-family="sans-serif" font-size="11" lengthAdjust="spacing" textLength="92" x="1238" y="629.7549">-validate(birthDate)</text><!--MD5=[a3638c1e5b65d287ecad7f06f5c0f212]
class Role--><rect codeLine="57" fill="#FEFECE" filter="url(#f1xv8qhd9vcdfy)" height="61.8359" id="Role" style="stroke:#A80036;stroke-width:1.5;" width="58" x="1850" y="567.5"/><ellipse cx="1865" cy="583.5" fill="#ADD1B2" rx="11" ry="11" style="stroke:#A80036;stroke-width:1.0;"/><path d="M1867,580 Q1867.2031,579.5 1867.4375,579.25 Q1867.6719,579 1867.9375,579 Q1868.4063,579 1868.7031,579.2813 Q1869,579.5625 1869,580.2188 L1869,581.7813 Q1869,582.4375 1868.7188,582.7188 Q1868.4375,583 1868,583 Q1867.6094,583 1867.3594,582.8281 Q1867.1094,582.6563 1867,582.2031 Q1866.9531,581.8906 1866.7813,581.7188 Q1866.4688,581.3906 1865.9063,581.2031 Q1865.3438,581 1864.7813,581 Q1864.0781,581 1863.4844,581.2813 Q1862.9063,581.5625 1862.4531,582.1875 Q1862,582.8125 1862,583.6719 L1862,584.5938 Q1862,585.625 1862.8438,586.3125 Q1863.6875,587 1865.1875,587 Q1866.0781,587 1866.7031,586.7969 Q1867.0625,586.6875 1867.4688,586.3281 Q1867.7344,586.125 1867.875,586.0625 Q1868.0156,586 1868.1875,586 Q1868.5156,586 1868.75,586.2656 Q1869,586.5156 1869,586.875 Q1869,587.2188 1868.6563,587.625 Q1868.1563,588.2188 1867.3594,588.5469 Q1866.3125,589 1865.0313,589 Q1863.5313,589 1862.3281,588.4063 Q1861.3594,587.9375 1860.6719,586.9219 Q1860,585.9063 1860,584.7031 L1860,583.6094 Q1860,582.3594 1860.5938,581.2656 Q1861.2031,580.1719 1862.25,579.5938 Q1863.3125,579 1864.5,579 Q1865.2188,579 1865.8438,579.25 Q1866.4688,579.5 1867,580 Z " fill="#000000"/><text fill="#000000" font-family="sans-serif" font-size="12" lengthAdjust="spacing" textLength="26" x="1879" y="588.4102">Role</text><line style="stroke:#A80036;stroke-width:1.5;" x1="1851" x2="1907" y1="599.5" y2="599.5"/><line style="stroke:#A80036;stroke-width:1.5;" x1="1851" x2="1907" y1="607.5" y2="607.5"/><text fill="#000000" font-family="sans-serif" font-size="11" lengthAdjust="spacing" textLength="46" x="1856" y="622.9189">+values()</text><!--MD5=[164e5e9cf855eb64ce2728330d9f659f]
class CollaboratorBuilder--><rect codeLine="62" fill="#FEFECE" filter="url(#f1xv8qhd9vcdfy)" height="172.5234" id="CollaboratorBuilder" style="stroke:#A80036;stroke-width:1.5;" width="281" x="2682.5" y="512"/><ellipse cx="2765.25" cy="528" fill="#ADD1B2" rx="11" ry="11" style="stroke:#A80036;stroke-width:1.0;"/><path d="M2767.25,524.5 Q2767.4531,524 2767.6875,523.75 Q2767.9219,523.5 2768.1875,523.5 Q2768.6563,523.5 2768.9531,523.7813 Q2769.25,524.0625 2769.25,524.7188 L2769.25,526.2813 Q2769.25,526.9375 2768.9688,527.2188 Q2768.6875,527.5 2768.25,527.5 Q2767.8594,527.5 2767.6094,527.3281 Q2767.3594,527.1563 2767.25,526.7031 Q2767.2031,526.3906 2767.0313,526.2188 Q2766.7188,525.8906 2766.1563,525.7031 Q2765.5938,525.5 2765.0313,525.5 Q2764.3281,525.5 2763.7344,525.7813 Q2763.1563,526.0625 2762.7031,526.6875 Q2762.25,527.3125 2762.25,528.1719 L2762.25,529.0938 Q2762.25,530.125 2763.0938,530.8125 Q2763.9375,531.5 2765.4375,531.5 Q2766.3281,531.5 2766.9531,531.2969 Q2767.3125,531.1875 2767.7188,530.8281 Q2767.9844,530.625 2768.125,530.5625 Q2768.2656,530.5 2768.4375,530.5 Q2768.7656,530.5 2769,530.7656 Q2769.25,531.0156 2769.25,531.375 Q2769.25,531.7188 2768.9063,532.125 Q2768.4063,532.7188 2767.6094,533.0469 Q2766.5625,533.5 2765.2813,533.5 Q2763.7813,533.5 2762.5781,532.9063 Q2761.6094,532.4375 2760.9219,531.4219 Q2760.25,530.4063 2760.25,529.2031 L2760.25,528.1094 Q2760.25,526.8594 2760.8438,525.7656 Q2761.4531,524.6719 2762.5,524.0938 Q2763.5625,523.5 2764.75,523.5 Q2765.4688,523.5 2766.0938,523.75 Q2766.7188,524 2767.25,524.5 Z " fill="#000000"/><text fill="#000000" font-family="sans-serif" font-size="12" lengthAdjust="spacing" textLength="107" x="2785.75" y="532.9102">CollaboratorBuilder</text><line style="stroke:#A80036;stroke-width:1.5;" x1="2683.5" x2="2962.5" y1="544" y2="544"/><line style="stroke:#A80036;stroke-width:1.5;" x1="2683.5" x2="2962.5" y1="552" y2="552"/><text fill="#000000" font-family="sans-serif" font-size="11" lengthAdjust="spacing" textLength="45" x="2688.5" y="567.4189">+create()</text><text fill="#000000" font-family="sans-serif" font-size="11" lengthAdjust="spacing" textLength="140" x="2688.5" y="581.2549">+withShortName(shortName)</text><text fill="#000000" font-family="sans-serif" font-size="11" lengthAdjust="spacing" textLength="176" x="2688.5" y="595.0908">+withCompleteName(completeName)</text><text fill="#000000" font-family="sans-serif" font-size="11" lengthAdjust="spacing" textLength="269" x="2688.5" y="608.9268">+withMechanographicNumber(mechanographicNumber)</text><text fill="#000000" font-family="sans-serif" font-size="11" lengthAdjust="spacing" textLength="117" x="2688.5" y="622.7627">+withAddress(address)</text><text fill="#000000" font-family="sans-serif" font-size="11" lengthAdjust="spacing" textLength="169" x="2688.5" y="636.5986">+withPhoneNumber(phoneNumber)</text><text fill="#000000" font-family="sans-serif" font-size="11" lengthAdjust="spacing" textLength="122" x="2688.5" y="650.4346">+withBirthDate(birthDate)</text><text fill="#000000" font-family="sans-serif" font-size="11" lengthAdjust="spacing" textLength="77" x="2688.5" y="664.2705">+withRole(Role)</text><text fill="#000000" font-family="sans-serif" font-size="11" lengthAdjust="spacing" textLength="36" x="2688.5" y="678.1064">+build()</text><!--MD5=[e8c189551b7885b999ad7cefb30fc2a3]
class PersistenceContext--><rect codeLine="77" fill="#FEFECE" filter="url(#f1xv8qhd9vcdfy)" height="61.8359" id="PersistenceContext" style="stroke:#A80036;stroke-width:1.5;" width="139" x="32.5" y="567.5"/><ellipse cx="47.5" cy="583.5" fill="#ADD1B2" rx="11" ry="11" style="stroke:#A80036;stroke-width:1.0;"/><path d="M49.5,580 Q49.7031,579.5 49.9375,579.25 Q50.1719,579 50.4375,579 Q50.9063,579 51.2031,579.2813 Q51.5,579.5625 51.5,580.2188 L51.5,581.7813 Q51.5,582.4375 51.2188,582.7188 Q50.9375,583 50.5,583 Q50.1094,583 49.8594,582.8281 Q49.6094,582.6563 49.5,582.2031 Q49.4531,581.8906 49.2813,581.7188 Q48.9688,581.3906 48.4063,581.2031 Q47.8438,581 47.2813,581 Q46.5781,581 45.9844,581.2813 Q45.4063,581.5625 44.9531,582.1875 Q44.5,582.8125 44.5,583.6719 L44.5,584.5938 Q44.5,585.625 45.3438,586.3125 Q46.1875,587 47.6875,587 Q48.5781,587 49.2031,586.7969 Q49.5625,586.6875 49.9688,586.3281 Q50.2344,586.125 50.375,586.0625 Q50.5156,586 50.6875,586 Q51.0156,586 51.25,586.2656 Q51.5,586.5156 51.5,586.875 Q51.5,587.2188 51.1563,587.625 Q50.6563,588.2188 49.8594,588.5469 Q48.8125,589 47.5313,589 Q46.0313,589 44.8281,588.4063 Q43.8594,587.9375 43.1719,586.9219 Q42.5,585.9063 42.5,584.7031 L42.5,583.6094 Q42.5,582.3594 43.0938,581.2656 Q43.7031,580.1719 44.75,579.5938 Q45.8125,579 47,579 Q47.7188,579 48.3438,579.25 Q48.9688,579.5 49.5,580 Z " fill="#000000"/><text fill="#000000" font-family="sans-serif" font-size="12" lengthAdjust="spacing" textLength="107" x="61.5" y="588.4102">PersistenceContext</text><line style="stroke:#A80036;stroke-width:1.5;" x1="33.5" x2="170.5" y1="599.5" y2="599.5"/><line style="stroke:#A80036;stroke-width:1.5;" x1="33.5" x2="170.5" y1="607.5" y2="607.5"/><text fill="#000000" font-family="sans-serif" font-size="11" lengthAdjust="spacing" textLength="71" x="38.5" y="622.9189">+repositories()</text><!--MD5=[b8e4c95865208c934bfcfda4f90bf50c]
class AppSettings--><rect codeLine="81" fill="#FEFECE" filter="url(#f1xv8qhd9vcdfy)" height="75.6719" id="AppSettings" style="stroke:#A80036;stroke-width:1.5;" width="130" x="275" y="560.5"/><ellipse cx="304.4" cy="576.5" fill="#ADD1B2" rx="11" ry="11" style="stroke:#A80036;stroke-width:1.0;"/><path d="M306.4,573 Q306.6031,572.5 306.8375,572.25 Q307.0719,572 307.3375,572 Q307.8063,572 308.1031,572.2813 Q308.4,572.5625 308.4,573.2188 L308.4,574.7813 Q308.4,575.4375 308.1188,575.7188 Q307.8375,576 307.4,576 Q307.0094,576 306.7594,575.8281 Q306.5094,575.6563 306.4,575.2031 Q306.3531,574.8906 306.1813,574.7188 Q305.8688,574.3906 305.3063,574.2031 Q304.7438,574 304.1813,574 Q303.4781,574 302.8844,574.2813 Q302.3063,574.5625 301.8531,575.1875 Q301.4,575.8125 301.4,576.6719 L301.4,577.5938 Q301.4,578.625 302.2438,579.3125 Q303.0875,580 304.5875,580 Q305.4781,580 306.1031,579.7969 Q306.4625,579.6875 306.8688,579.3281 Q307.1344,579.125 307.275,579.0625 Q307.4156,579 307.5875,579 Q307.9156,579 308.15,579.2656 Q308.4,579.5156 308.4,579.875 Q308.4,580.2188 308.0563,580.625 Q307.5563,581.2188 306.7594,581.5469 Q305.7125,582 304.4313,582 Q302.9313,582 301.7281,581.4063 Q300.7594,580.9375 300.0719,579.9219 Q299.4,578.9063 299.4,577.7031 L299.4,576.6094 Q299.4,575.3594 299.9938,574.2656 Q300.6031,573.1719 301.65,572.5938 Q302.7125,572 303.9,572 Q304.6188,572 305.2438,572.25 Q305.8688,572.5 306.4,573 Z " fill="#000000"/><text fill="#000000" font-family="sans-serif" font-size="12" lengthAdjust="spacing" textLength="66" x="321.6" y="581.4102">AppSettings</text><line style="stroke:#A80036;stroke-width:1.5;" x1="276" x2="404" y1="592.5" y2="592.5"/><line style="stroke:#A80036;stroke-width:1.5;" x1="276" x2="404" y1="600.5" y2="600.5"/><text fill="#000000" font-family="sans-serif" font-size="11" lengthAdjust="spacing" textLength="55" x="281" y="615.9189">+instance()</text><text fill="#000000" font-family="sans-serif" font-size="11" lengthAdjust="spacing" textLength="118" x="281" y="629.7549">+getRepositoryFactory()</text><!--MD5=[48590afff58a68e2fcba47824d6f8a11]
class RepositoryFactory--><rect codeLine="87" fill="#FEFECE" filter="url(#f1xv8qhd9vcdfy)" height="75.6719" id="RepositoryFactory" style="stroke:#A80036;stroke-width:1.5;" width="130" x="657" y="560.5"/><ellipse cx="672" cy="576.5" fill="#ADD1B2" rx="11" ry="11" style="stroke:#A80036;stroke-width:1.0;"/><path d="M674,573 Q674.2031,572.5 674.4375,572.25 Q674.6719,572 674.9375,572 Q675.4063,572 675.7031,572.2813 Q676,572.5625 676,573.2188 L676,574.7813 Q676,575.4375 675.7188,575.7188 Q675.4375,576 675,576 Q674.6094,576 674.3594,575.8281 Q674.1094,575.6563 674,575.2031 Q673.9531,574.8906 673.7813,574.7188 Q673.4688,574.3906 672.9063,574.2031 Q672.3438,574 671.7813,574 Q671.0781,574 670.4844,574.2813 Q669.9063,574.5625 669.4531,575.1875 Q669,575.8125 669,576.6719 L669,577.5938 Q669,578.625 669.8438,579.3125 Q670.6875,580 672.1875,580 Q673.0781,580 673.7031,579.7969 Q674.0625,579.6875 674.4688,579.3281 Q674.7344,579.125 674.875,579.0625 Q675.0156,579 675.1875,579 Q675.5156,579 675.75,579.2656 Q676,579.5156 676,579.875 Q676,580.2188 675.6563,580.625 Q675.1563,581.2188 674.3594,581.5469 Q673.3125,582 672.0313,582 Q670.5313,582 669.3281,581.4063 Q668.3594,580.9375 667.6719,579.9219 Q667,578.9063 667,577.7031 L667,576.6094 Q667,575.3594 667.5938,574.2656 Q668.2031,573.1719 669.25,572.5938 Q670.3125,572 671.5,572 Q672.2188,572 672.8438,572.25 Q673.4688,572.5 674,573 Z " fill="#000000"/><text fill="#000000" font-family="sans-serif" font-size="12" lengthAdjust="spacing" textLength="98" x="686" y="581.4102">RepositoryFactory</text><line style="stroke:#A80036;stroke-width:1.5;" x1="658" x2="786" y1="592.5" y2="592.5"/><line style="stroke:#A80036;stroke-width:1.5;" x1="658" x2="786" y1="600.5" y2="600.5"/><text fill="#000000" font-family="sans-serif" font-size="11" lengthAdjust="spacing" textLength="77" x="663" y="615.9189">+collaborators()</text><text fill="#000000" font-family="sans-serif" font-size="11" lengthAdjust="spacing" textLength="38" x="663" y="629.7549">+roles()</text><!--MD5=[7d8ac9ac30c94f5163e620de18c62996]
class CollaboratorRepository--><rect codeLine="94" fill="#FEFECE" filter="url(#f1xv8qhd9vcdfy)" height="75.6719" id="CollaboratorRepository" style="stroke:#A80036;stroke-width:1.5;" width="159" x="440.5" y="560.5"/><ellipse cx="455.5" cy="576.5" fill="#ADD1B2" rx="11" ry="11" style="stroke:#A80036;stroke-width:1.0;"/><path d="M457.5,573 Q457.7031,572.5 457.9375,572.25 Q458.1719,572 458.4375,572 Q458.9063,572 459.2031,572.2813 Q459.5,572.5625 459.5,573.2188 L459.5,574.7813 Q459.5,575.4375 459.2188,575.7188 Q458.9375,576 458.5,576 Q458.1094,576 457.8594,575.8281 Q457.6094,575.6563 457.5,575.2031 Q457.4531,574.8906 457.2813,574.7188 Q456.9688,574.3906 456.4063,574.2031 Q455.8438,574 455.2813,574 Q454.5781,574 453.9844,574.2813 Q453.4063,574.5625 452.9531,575.1875 Q452.5,575.8125 452.5,576.6719 L452.5,577.5938 Q452.5,578.625 453.3438,579.3125 Q454.1875,580 455.6875,580 Q456.5781,580 457.2031,579.7969 Q457.5625,579.6875 457.9688,579.3281 Q458.2344,579.125 458.375,579.0625 Q458.5156,579 458.6875,579 Q459.0156,579 459.25,579.2656 Q459.5,579.5156 459.5,579.875 Q459.5,580.2188 459.1563,580.625 Q458.6563,581.2188 457.8594,581.5469 Q456.8125,582 455.5313,582 Q454.0313,582 452.8281,581.4063 Q451.8594,580.9375 451.1719,579.9219 Q450.5,578.9063 450.5,577.7031 L450.5,576.6094 Q450.5,575.3594 451.0938,574.2656 Q451.7031,573.1719 452.75,572.5938 Q453.8125,572 455,572 Q455.7188,572 456.3438,572.25 Q456.9688,572.5 457.5,573 Z " fill="#000000"/><text fill="#000000" font-family="sans-serif" font-size="12" lengthAdjust="spacing" textLength="127" x="469.5" y="581.4102">CollaboratorRepository</text><line style="stroke:#A80036;stroke-width:1.5;" x1="441.5" x2="598.5" y1="592.5" y2="592.5"/><line style="stroke:#A80036;stroke-width:1.5;" x1="441.5" x2="598.5" y1="600.5" y2="600.5"/><text fill="#000000" font-family="sans-serif" font-size="11" lengthAdjust="spacing" textLength="45" x="446.5" y="615.9189">+create()</text><text fill="#000000" font-family="sans-serif" font-size="11" lengthAdjust="spacing" textLength="95" x="446.5" y="629.7549">+save(collaborator)</text><!--MD5=[eb3433108b320f38a9b86aba7717ec12]
link CollaboratorSpecificationUI to CollaboratorSpecificationController--><path codeLine="103" d="M814,110.22 C814,134.81 814,174.83 814,209.78 " fill="none" id="CollaboratorSpecificationUI-to-CollaboratorSpecificationController" style="stroke:#A80036;stroke-width:1.0;stroke-dasharray:7.0,7.0;"/><polygon fill="#A80036" points="814,214.9,818,205.9,814,209.9,810,205.9,814,214.9" style="stroke:#A80036;stroke-width:1.0;"/><!--MD5=[5d6bd615180f56874b8ef30ed2319198]
link CollaboratorSpecificationController to CollaboratorBuilder--><path codeLine="104" d="M990.37,284.71 C1426.89,293.84 2533.06,324.59 2679,404 C2721.33,427.03 2754.7,468.45 2778.61,507.08 " fill="none" id="CollaboratorSpecificationController-to-CollaboratorBuilder" style="stroke:#A80036;stroke-width:1.0;stroke-dasharray:7.0,7.0;"/><polygon fill="#A80036" points="2781.48,511.78,2780.2173,502.0124,2778.8803,507.509,2773.3837,506.172,2781.48,511.78" style="stroke:#A80036;stroke-width:1.0;"/><!--MD5=[3ed01820e4ceee59de10e9959e59d459]
link CollaboratorSpecificationController to PersistenceContext--><path codeLine="105" d="M637.99,290.28 C522.61,302.95 372.49,333.08 258,404 C194.16,443.54 145.03,518.74 120.11,562.85 " fill="none" id="CollaboratorSpecificationController-to-PersistenceContext" style="stroke:#A80036;stroke-width:1.0;stroke-dasharray:7.0,7.0;"/><polygon fill="#A80036" points="117.62,567.28,125.5104,561.3858,120.0652,562.9187,118.5323,557.4735,117.62,567.28" style="stroke:#A80036;stroke-width:1.0;"/><!--MD5=[d66efb439816738ddd3e9d5fff4bf3a7]
link AppSettings to RepositoryFactory--><path codeLine="107" d="M346.17,560.14 C355.19,518.2 376.41,452.98 424,423 C496.2,377.51 541.68,381.07 616,423 C665.85,451.13 694.9,513.16 709.61,555.41 " fill="none" id="AppSettings-to-RepositoryFactory" style="stroke:#A80036;stroke-width:1.0;"/><polygon fill="#A80036" points="711.24,560.21,712.1178,550.4003,709.6246,555.4781,704.5468,552.985,711.24,560.21" style="stroke:#A80036;stroke-width:1.0;"/><text fill="#000000" font-family="sans-serif" font-size="13" lengthAdjust="spacing" textLength="43" x="477.5" y="392.4951">creates</text><!--MD5=[27fe1c91fe18bafc5695938053528609]
link PersistenceContext to AppSettings--><path codeLine="108" d="M171.8,598.5 C202.53,598.5 238.57,598.5 269.39,598.5 " fill="none" id="PersistenceContext-to-AppSettings" style="stroke:#A80036;stroke-width:1.0;"/><polygon fill="#A80036" points="274.69,598.5,265.69,594.5,269.69,598.5,265.69,602.5,274.69,598.5" style="stroke:#A80036;stroke-width:1.0;"/><text fill="#000000" font-family="sans-serif" font-size="13" lengthAdjust="spacing" textLength="67" x="189.75" y="591.9951">implements</text><!--MD5=[d5e2752559733233d551f65818949b4e]
link RepositoryFactory to CollaboratorRepository--><path codeLine="110" d="M656.84,598.5 C640.3,598.5 622.28,598.5 604.91,598.5 " fill="none" id="RepositoryFactory-to-CollaboratorRepository" style="stroke:#A80036;stroke-width:1.0;"/><polygon fill="#A80036" points="599.55,598.5,608.55,602.5,604.55,598.5,608.55,594.5,599.55,598.5" style="stroke:#A80036;stroke-width:1.0;"/><text fill="#000000" font-family="sans-serif" font-size="13" lengthAdjust="spacing" textLength="21" x="617.75" y="591.9951">has</text><text fill="#000000" font-family="sans-serif" font-size="13" lengthAdjust="spacing" textLength="7" x="641.9012" y="595.1094">1</text><text fill="#000000" font-family="sans-serif" font-size="13" lengthAdjust="spacing" textLength="7" x="607.4657" y="595.265">1</text><!--MD5=[e3ed578b90dd6415261c95d17075385f]
link CollaboratorRepository to Collaborator--><path codeLine="112" d="M533.71,560.41 C551.25,518.06 586.12,451.82 641,423 C704.74,389.52 735.1,399.06 803,423 C877.73,449.34 945.71,513.34 985.22,556.33 " fill="none" id="CollaboratorRepository-to-Collaborator" style="stroke:#A80036;stroke-width:1.0;"/><polygon fill="#A80036" points="988.72,560.16,985.5969,550.8194,985.3453,556.4707,979.694,556.219,988.72,560.16" style="stroke:#A80036;stroke-width:1.0;"/><text fill="#000000" font-family="sans-serif" font-size="13" lengthAdjust="spacing" textLength="33" x="716.5" y="392.4951">saves</text><text fill="#000000" font-family="sans-serif" font-size="13" lengthAdjust="spacing" textLength="7" x="528.5287" y="549.7559">1</text><text fill="#000000" font-family="sans-serif" font-size="13" lengthAdjust="spacing" textLength="5" x="977.7422" y="549.7488">*</text><!--MD5=[720a9a454e208d6aeb02f55992318bcd]
link CollaboratorBuilder to Collaborator--><path codeLine="113" d="M2775.13,511.84 C2751.16,477.51 2718.72,441.79 2679,423 C2605.48,388.22 1290.9,393.76 1215,423 C1146.02,449.57 1086.34,513.29 1052.01,556.18 " fill="none" id="CollaboratorBuilder-to-Collaborator" style="stroke:#A80036;stroke-width:1.0;"/><polygon fill="#A80036" points="1048.77,560.27,1057.5036,555.7176,1051.883,556.3573,1051.2433,550.7367,1048.77,560.27" style="stroke:#A80036;stroke-width:1.0;"/><text fill="#000000" font-family="sans-serif" font-size="13" lengthAdjust="spacing" textLength="43" x="1175.5" y="392.4951">creates</text><text fill="#000000" font-family="sans-serif" font-size="13" lengthAdjust="spacing" textLength="7" x="2763.7154" y="501.2359">1</text><text fill="#000000" font-family="sans-serif" font-size="13" lengthAdjust="spacing" textLength="5" x="1048.2712" y="549.5909">*</text><!--MD5=[d22bc09bf5195203640f66a3337dfcbe]
link Collaborator to ShortName--><path codeLine="115" d="M1048.77,560.27 C1082.5,517.44 1143.8,450.43 1215,423 C1279.96,397.98 2407.97,387.76 2468,423 C2516.3,451.35 2542.55,513.12 2555.42,555.27 " fill="none" id="Collaborator-to-ShortName" style="stroke:#A80036;stroke-width:1.0;"/><polygon fill="#A80036" points="2556.93,560.31,2558.1886,550.5419,2555.4998,555.5189,2550.5228,552.8302,2556.93,560.31" style="stroke:#A80036;stroke-width:1.0;"/><text fill="#000000" font-family="sans-serif" font-size="13" lengthAdjust="spacing" textLength="21" x="1225.5" y="392.4951">has</text><text fill="#000000" font-family="sans-serif" font-size="13" lengthAdjust="spacing" textLength="7" x="1046.0931" y="549.5909">1</text><text fill="#000000" font-family="sans-serif" font-size="13" lengthAdjust="spacing" textLength="7" x="2547.691" y="549.6381">1</text><!--MD5=[48c622d472d667764da07d20d8b811ec]
link Collaborator to CompleteName--><path codeLine="116" d="M1048.77,560.27 C1082.5,517.44 1143.8,450.43 1215,423 C1320.76,382.26 2135.18,369.33 2235,423 C2286.88,450.9 2319.43,513.3 2336.42,555.66 " fill="none" id="Collaborator-to-CompleteName" style="stroke:#A80036;stroke-width:1.0;"/><polygon fill="#A80036" points="2338.31,560.47,2338.7179,550.6296,2336.4703,555.8208,2331.2791,553.5732,2338.31,560.47" style="stroke:#A80036;stroke-width:1.0;"/><text fill="#000000" font-family="sans-serif" font-size="13" lengthAdjust="spacing" textLength="21" x="1253.5" y="392.4951">has</text><text fill="#000000" font-family="sans-serif" font-size="13" lengthAdjust="spacing" textLength="7" x="1054.34" y="549.5909">1</text><text fill="#000000" font-family="sans-serif" font-size="13" lengthAdjust="spacing" textLength="7" x="2328.325" y="549.541">1</text><!--MD5=[f904c2f8a465426d1ef66730e14f9f7d]
link Collaborator to NumeroMecanografico--><path codeLine="117" d="M1048.77,560.27 C1082.5,517.44 1143.8,450.43 1215,423 C1288.72,394.6 1854.04,390.41 1926,423 C1985.8,450.08 2031.56,513.13 2057.12,555.8 " fill="none" id="Collaborator-to-NumeroMecanografico" style="stroke:#A80036;stroke-width:1.0;"/><polygon fill="#A80036" points="2059.69,560.12,2058.5519,550.3371,2057.1449,555.8162,2051.6658,554.4093,2059.69,560.12" style="stroke:#A80036;stroke-width:1.0;"/><text fill="#000000" font-family="sans-serif" font-size="13" lengthAdjust="spacing" textLength="83" x="1281.5" y="392.4951">is identified by</text><text fill="#000000" font-family="sans-serif" font-size="13" lengthAdjust="spacing" textLength="7" x="1046.0931" y="549.5909">1</text><text fill="#000000" font-family="sans-serif" font-size="13" lengthAdjust="spacing" textLength="7" x="2048.5977" y="549.702">1</text><!--MD5=[88332974cd7c8ff67bc130ee7f987c8e]
link Collaborator to Role--><path codeLine="118" d="M1048.77,560.27 C1082.5,517.44 1143.8,450.43 1215,423 C1278.97,398.36 1777.61,381.26 1832,423 C1874.11,455.32 1881.17,521 1881.06,562.2 " fill="none" id="Collaborator-to-Role" style="stroke:#A80036;stroke-width:1.0;"/><polygon fill="#A80036" points="1881.01,567.35,1885.1126,558.3963,1881.0671,562.3503,1877.1131,558.3049,1881.01,567.35" style="stroke:#A80036;stroke-width:1.0;"/><text fill="#000000" font-family="sans-serif" font-size="13" lengthAdjust="spacing" textLength="21" x="1371.5" y="392.4951">has</text><text fill="#000000" font-family="sans-serif" font-size="13" lengthAdjust="spacing" textLength="7" x="1061.7928" y="549.1057">1</text><text fill="#000000" font-family="sans-serif" font-size="13" lengthAdjust="spacing" textLength="7" x="1873.7027" y="556.8236">1</text><!--MD5=[ad690bf35cce9ca8717407802e52e6b0]
link Collaborator to Address--><path codeLine="119" d="M1048.77,560.27 C1082.5,517.44 1143.8,450.43 1215,423 C1306.86,387.61 1574.35,371.1 1658,423 C1704.37,451.77 1726.79,513.43 1737.07,555.45 " fill="none" id="Collaborator-to-Address" style="stroke:#A80036;stroke-width:1.0;"/><polygon fill="#A80036" points="1738.26,560.47,1740.0654,550.788,1737.1013,555.6061,1732.2832,552.642,1738.26,560.47" style="stroke:#A80036;stroke-width:1.0;"/><text fill="#000000" font-family="sans-serif" font-size="13" lengthAdjust="spacing" textLength="21" x="1399.5" y="392.4951">has</text><text fill="#000000" font-family="sans-serif" font-size="13" lengthAdjust="spacing" textLength="7" x="1054.34" y="549.5909">1</text><text fill="#000000" font-family="sans-serif" font-size="13" lengthAdjust="spacing" textLength="7" x="1729.372" y="549.541">1</text><!--MD5=[3362ed3ae5a9e5cbc027fbfeff814e21]
link Collaborator to PhoneNumber--><path codeLine="120" d="M1048.77,560.27 C1082.5,517.44 1143.8,450.43 1215,423 C1289.24,394.4 1321.69,389.82 1394,423 C1453.04,450.09 1497.72,512.92 1522.63,555.57 " fill="none" id="Collaborator-to-PhoneNumber" style="stroke:#A80036;stroke-width:1.0;"/><polygon fill="#A80036" points="1525.28,560.15,1524.2426,550.3559,1522.7793,555.8203,1517.315,554.357,1525.28,560.15" style="stroke:#A80036;stroke-width:1.0;"/><text fill="#000000" font-family="sans-serif" font-size="13" lengthAdjust="spacing" textLength="21" x="1427.5" y="392.4951">has</text><text fill="#000000" font-family="sans-serif" font-size="13" lengthAdjust="spacing" textLength="7" x="1074.5678" y="549.1057">1</text><text fill="#000000" font-family="sans-serif" font-size="13" lengthAdjust="spacing" textLength="7" x="1514.2891" y="549.7371">1</text><!--MD5=[dfbc31d49ce19e9e78ec22b58e38968f]
link Collaborator to BirthDate--><path codeLine="121" d="M1174.51,598.5 C1192.64,598.5 1210.51,598.5 1226.91,598.5 " fill="none" id="Collaborator-to-BirthDate" style="stroke:#A80036;stroke-width:1.0;"/><polygon fill="#A80036" points="1231.96,598.5,1222.96,594.5,1226.96,598.5,1222.96,602.5,1231.96,598.5" style="stroke:#A80036;stroke-width:1.0;"/><text fill="#000000" font-family="sans-serif" font-size="13" lengthAdjust="spacing" textLength="21" x="1192.75" y="591.9951">has</text><text fill="#000000" font-family="sans-serif" font-size="13" lengthAdjust="spacing" textLength="7" x="1182.6058" y="595.6001">1</text><text fill="#000000" font-family="sans-serif" font-size="13" lengthAdjust="spacing" textLength="7" x="1217.1699" y="595.2052">1</text><!--MD5=[5ebb8d298bd65d08c933c1f9b27218cc]
@startuml
skinparam classAttributeIconSize 0


package "Presentation" #DDDDDD {
class CollaboratorSpecificationUI{

}
}


package "Application" #DDDDDD {
class CollaboratorSpecificationController{
+create()
+addCollaborator(shortName, completeName, mechanographicNumber,\naddress, phoneNumber, birthDate)
+getRoleList()
+addRole(role)
+saveCollaborator()
}
}


package "Domain" #DDDDDD {
class Collaborator{
+create(shortName, completeName, mechanographicNumber,\naddress, phoneNumber, birthDate,Role)
}

class ShortName {
+createShortName(shortName)
-validate(shortName)
}

class CompleteName {
+createCompleteName(completeName)
-validate(completeName)
}

class NumeroMecanografico {
+createNumeroMecanografico(numeroMecanografico)
-validate(numeroMecanografico)
}

class Address {
+createAddress(address)
-validate(address)
}

class PhoneNumber {
+createPhoneNumber(phoneNumber)
-validate(phoneNumber)
}

class BirthDate {
+createBirthDate(birthDate)
-validate(birthDate)
}

class Role {
+values()
}

package Builder #DDDDDD {
class CollaboratorBuilder{
+create()
+withShortName(shortName)
+withCompleteName(completeName)
+withMechanographicNumber(mechanographicNumber)
+withAddress(address)
+withPhoneNumber(phoneNumber)
+withBirthDate(birthDate)
+withRole(Role)
+build()
}
}
}

package Persistence #DDDDDD {
class PersistenceContext{
+repositories()
}

class AppSettings{
+instance()
+getRepositoryFactory()
}

package Factory #DDDDDD {
class RepositoryFactory{
+collaborators()
+roles()
}
}

package "Repository" #DDDDDD {
class CollaboratorRepository{
+create()
+save(collaborator)
}
}

}


CollaboratorSpecificationUI ..> CollaboratorSpecificationController
CollaboratorSpecificationController ..> CollaboratorBuilder
CollaboratorSpecificationController ..> PersistenceContext

AppSettings -> RepositoryFactory : creates
PersistenceContext -> AppSettings : implements

RepositoryFactory "1" -> "1" CollaboratorRepository : has

CollaboratorRepository "1" -> "*" Collaborator : saves
CollaboratorBuilder "1" -> "*" Collaborator : creates

Collaborator "1" -> "1" ShortName : has
Collaborator "1" -> "1" CompleteName : has
Collaborator "1" -> "1" NumeroMecanografico : is identified by
Collaborator "1" -> "1" Role : has
Collaborator "1" -> "1" Address : has
Collaborator "1" -> "1" PhoneNumber : has
Collaborator "1" -> "1" BirthDate : has

@enduml

PlantUML version 1.2021.5(Sun Apr 25 12:20:28 BST 2021)
(GPL source distribution)
Java Runtime: OpenJDK Runtime Environment
JVM: OpenJDK 64-Bit Server VM
Default Encoding: Cp1252
Language: pt
Country: PT
--></g></svg>