<?xml version="1.0" encoding="UTF-8" standalone="no"?><svg xmlns="http://www.w3.org/2000/svg" xmlns:xlink="http://www.w3.org/1999/xlink" contentScriptType="application/ecmascript" contentStyleType="text/css" height="1896px" preserveAspectRatio="none" style="width:3468px;height:1896px;" version="1.1" viewBox="0 0 3468 1896" width="3468px" zoomAndPan="magnify"><defs><filter height="300%" id="f18htc3mrd1bb" width="300%" x="-1" y="-1"><feGaussianBlur result="blurOut" stdDeviation="2.0"/><feColorMatrix in="blurOut" result="blurOut2" type="matrix" values="0 0 0 0 0 0 0 0 0 0 0 0 0 0 0 0 0 0 .4 0"/><feOffset dx="4.0" dy="4.0" in="blurOut2" result="blurOut3"/><feBlend in="SourceGraphic" in2="blurOut3" mode="normal"/></filter></defs><g><rect fill="#FFFFFF" filter="url(#f18htc3mrd1bb)" height="1771.9453" style="stroke:#A80036;stroke-width:1.0;" width="10" x="107.5" y="99.6094"/><rect fill="#FFFFFF" filter="url(#f18htc3mrd1bb)" height="110.9219" style="stroke:#A80036;stroke-width:1.0;" width="10" x="511.5" y="121.9609"/><rect fill="#FFFFFF" filter="url(#f18htc3mrd1bb)" height="842.6875" style="stroke:#A80036;stroke-width:1.0;" width="10" x="511.5" y="263.2344"/><rect fill="#FFFFFF" filter="url(#f18htc3mrd1bb)" height="121.0547" style="stroke:#A80036;stroke-width:1.0;" width="10" x="511.5" y="1136.2734"/><rect fill="#FFFFFF" filter="url(#f18htc3mrd1bb)" height="583.875" style="stroke:#A80036;stroke-width:1.0;" width="10" x="511.5" y="1287.6797"/><rect fill="#FFFFFF" filter="url(#f18htc3mrd1bb)" height="246.3281" style="stroke:#A80036;stroke-width:1.0;" width="10" x="955.5" y="309.9375"/><rect fill="#FFFFFF" filter="url(#f18htc3mrd1bb)" height="519.3047" style="stroke:#A80036;stroke-width:1.0;" width="10" x="955.5" y="586.6172"/><rect fill="#FFFFFF" filter="url(#f18htc3mrd1bb)" height="60.3516" style="stroke:#A80036;stroke-width:1.0;" width="10" x="955.5" y="1166.625"/><rect fill="#FFFFFF" filter="url(#f18htc3mrd1bb)" height="523.1719" style="stroke:#A80036;stroke-width:1.0;" width="10" x="955.5" y="1318.0313"/><rect fill="#FFFFFF" filter="url(#f18htc3mrd1bb)" height="151.7578" style="stroke:#A80036;stroke-width:1.0;" width="10" x="1311.5" y="404.5078"/><rect fill="#FFFFFF" filter="url(#f18htc3mrd1bb)" height="30" style="stroke:#A80036;stroke-width:1.0;" width="10" x="1311.5" y="1196.9766"/><rect fill="#FFFFFF" filter="url(#f18htc3mrd1bb)" height="124.9219" style="stroke:#A80036;stroke-width:1.0;" width="10" x="1311.5" y="1348.3828"/><rect fill="#FFFFFF" filter="url(#f18htc3mrd1bb)" height="37.8672" style="stroke:#A80036;stroke-width:1.0;" width="10" x="1775.5" y="1405.0859"/><rect fill="#FFFFFF" filter="url(#f18htc3mrd1bb)" height="215.625" style="stroke:#A80036;stroke-width:1.0;" width="10" x="1920.5" y="616.9688"/><rect fill="#FFFFFF" filter="url(#f18htc3mrd1bb)" height="94.5703" style="stroke:#A80036;stroke-width:1.0;" width="10" x="1920.5" y="1503.6563"/><rect fill="#FFFFFF" filter="url(#f18htc3mrd1bb)" height="30" style="stroke:#A80036;stroke-width:1.0;" width="10" x="2099.5" y="647.3203"/><rect fill="#FFFFFF" filter="url(#f18htc3mrd1bb)" height="124.9219" style="stroke:#A80036;stroke-width:1.0;" width="10" x="2099.5" y="707.6719"/><rect fill="#FFFFFF" filter="url(#f18htc3mrd1bb)" height="121.5703" style="stroke:#A80036;stroke-width:1.0;" width="10" x="2249.5" y="862.9453"/><rect fill="#FFFFFF" filter="url(#f18htc3mrd1bb)" height="121.5703" style="stroke:#A80036;stroke-width:1.0;" width="10" x="2249.5" y="1628.5781"/><rect fill="#FFFFFF" filter="url(#f18htc3mrd1bb)" height="30.3516" style="stroke:#A80036;stroke-width:1.0;" width="10" x="2392" y="1014.8672"/><rect fill="#FFFFFF" filter="url(#f18htc3mrd1bb)" height="30.3516" style="stroke:#A80036;stroke-width:1.0;" width="10" x="2529.5" y="1780.5"/><line style="stroke:#A80036;stroke-width:1.0;stroke-dasharray:5.0,5.0;" x1="112" x2="112" y1="89.6094" y2="1889.5547"/><line style="stroke:#A80036;stroke-width:1.0;stroke-dasharray:5.0,5.0;" x1="516.5" x2="516.5" y1="89.6094" y2="1889.5547"/><line style="stroke:#A80036;stroke-width:1.0;stroke-dasharray:5.0,5.0;" x1="960.5" x2="960.5" y1="172.0703" y2="1889.5547"/><line style="stroke:#A80036;stroke-width:1.0;stroke-dasharray:5.0,5.0;" x1="1316.5" x2="1316.5" y1="360.0469" y2="1889.5547"/><line style="stroke:#A80036;stroke-width:1.0;stroke-dasharray:5.0,5.0;" x1="1780.5" x2="1780.5" y1="1398.4922" y2="1889.5547"/><line style="stroke:#A80036;stroke-width:1.0;stroke-dasharray:5.0,5.0;" x1="1925.5" x2="1925.5" y1="89.6094" y2="1889.5547"/><line style="stroke:#A80036;stroke-width:1.0;stroke-dasharray:5.0,5.0;" x1="2104" x2="2104" y1="89.6094" y2="1889.5547"/><line style="stroke:#A80036;stroke-width:1.0;stroke-dasharray:5.0,5.0;" x1="2254.5" x2="2254.5" y1="1553.7656" y2="1889.5547"/><line style="stroke:#A80036;stroke-width:1.0;stroke-dasharray:5.0,5.0;" x1="2396.5" x2="2396.5" y1="926.5547" y2="1889.5547"/><line style="stroke:#A80036;stroke-width:1.0;stroke-dasharray:5.0,5.0;" x1="2534.5" x2="2534.5" y1="1692.1875" y2="1889.5547"/><line style="stroke:#A80036;stroke-width:1.0;stroke-dasharray:5.0,5.0;" x1="2668.5" x2="2668.5" y1="89.6094" y2="1889.5547"/><line style="stroke:#A80036;stroke-width:1.0;stroke-dasharray:5.0,5.0;" x1="2783.5" x2="2783.5" y1="89.6094" y2="1889.5547"/><line style="stroke:#A80036;stroke-width:1.0;stroke-dasharray:5.0,5.0;" x1="2936.5" x2="2936.5" y1="89.6094" y2="1889.5547"/><line style="stroke:#A80036;stroke-width:1.0;stroke-dasharray:5.0,5.0;" x1="3080.5" x2="3080.5" y1="89.6094" y2="1889.5547"/><line style="stroke:#A80036;stroke-width:1.0;stroke-dasharray:5.0,5.0;" x1="3186.5" x2="3186.5" y1="89.6094" y2="1889.5547"/><line style="stroke:#A80036;stroke-width:1.0;stroke-dasharray:5.0,5.0;" x1="3298.5" x2="3298.5" y1="89.6094" y2="1889.5547"/><line style="stroke:#A80036;stroke-width:1.0;stroke-dasharray:5.0,5.0;" x1="3410.5" x2="3410.5" y1="89.6094" y2="1889.5547"/><text fill="#000000" font-family="sans-serif" font-size="14" lengthAdjust="spacing" textLength="209" x="5" y="86.5332">Human Resource Representative</text><ellipse cx="112.5" cy="15" fill="#FEFECE" filter="url(#f18htc3mrd1bb)" rx="8" ry="8" style="stroke:#A80036;stroke-width:2.0;"/><path d="M112.5,23 L112.5,50 M99.5,31 L125.5,31 M112.5,50 L99.5,65 M112.5,50 L125.5,65 " fill="none" filter="url(#f18htc3mrd1bb)" style="stroke:#A80036;stroke-width:2.0;"/><rect fill="#FEFECE" filter="url(#f18htc3mrd1bb)" height="49.2188" style="stroke:#A80036;stroke-width:1.5;" width="184" x="422.5" y="35.3906"/><text fill="#000000" font-family="sans-serif" font-size="14" lengthAdjust="spacing" textLength="111" x="459" y="56.9238">&lt;&lt;presentation&gt;&gt;</text><text fill="#000000" font-family="sans-serif" font-size="14" lengthAdjust="spacing" textLength="170" x="429.5" y="74.5332">CollaboratorSpecificationUI</text><rect fill="#FEFECE" filter="url(#f18htc3mrd1bb)" height="49.2188" style="stroke:#A80036;stroke-width:1.5;" width="132" x="1857.5" y="35.3906"/><text fill="#000000" font-family="sans-serif" font-size="14" lengthAdjust="spacing" textLength="105" x="1871" y="56.9238">&lt;&lt;persistence&gt;&gt;</text><text fill="#000000" font-family="sans-serif" font-size="14" lengthAdjust="spacing" textLength="118" x="1864.5" y="74.5332">PersistenceContex</text><rect fill="#FEFECE" filter="url(#f18htc3mrd1bb)" height="49.2188" style="stroke:#A80036;stroke-width:1.5;" width="119" x="2043" y="35.3906"/><text fill="#000000" font-family="sans-serif" font-size="14" lengthAdjust="spacing" textLength="105" x="2050" y="56.9238">&lt;&lt;persistence&gt;&gt;</text><text fill="#000000" font-family="sans-serif" font-size="14" lengthAdjust="spacing" textLength="76" x="2064.5" y="74.5332">AppSettings</text><rect fill="#FEFECE" filter="url(#f18htc3mrd1bb)" height="49.2188" style="stroke:#A80036;stroke-width:1.5;" width="92" x="2620.5" y="35.3906"/><text fill="#000000" font-family="sans-serif" font-size="14" lengthAdjust="spacing" textLength="78" x="2627.5" y="56.9238">&lt;&lt;domain&gt;&gt;</text><text fill="#000000" font-family="sans-serif" font-size="14" lengthAdjust="spacing" textLength="70" x="2631.5" y="74.5332">ShortName</text><rect fill="#FEFECE" filter="url(#f18htc3mrd1bb)" height="49.2188" style="stroke:#A80036;stroke-width:1.5;" width="110" x="2726.5" y="35.3906"/><text fill="#000000" font-family="sans-serif" font-size="14" lengthAdjust="spacing" textLength="78" x="2742.5" y="56.9238">&lt;&lt;domain&gt;&gt;</text><text fill="#000000" font-family="sans-serif" font-size="14" lengthAdjust="spacing" textLength="96" x="2733.5" y="74.5332">CompleteName</text><rect fill="#FEFECE" filter="url(#f18htc3mrd1bb)" height="49.2188" style="stroke:#A80036;stroke-width:1.5;" width="168" x="2850.5" y="35.3906"/><text fill="#000000" font-family="sans-serif" font-size="14" lengthAdjust="spacing" textLength="78" x="2895.5" y="56.9238">&lt;&lt;domain&gt;&gt;</text><text fill="#000000" font-family="sans-serif" font-size="14" lengthAdjust="spacing" textLength="154" x="2857.5" y="74.5332">MechanographicNumber</text><rect fill="#FEFECE" filter="url(#f18htc3mrd1bb)" height="49.2188" style="stroke:#A80036;stroke-width:1.5;" width="92" x="3032.5" y="35.3906"/><text fill="#000000" font-family="sans-serif" font-size="14" lengthAdjust="spacing" textLength="78" x="3039.5" y="56.9238">&lt;&lt;domain&gt;&gt;</text><text fill="#000000" font-family="sans-serif" font-size="14" lengthAdjust="spacing" textLength="29" x="3064" y="74.5332">Role</text><rect fill="#FEFECE" filter="url(#f18htc3mrd1bb)" height="49.2188" style="stroke:#A80036;stroke-width:1.5;" width="92" x="3138.5" y="35.3906"/><text fill="#000000" font-family="sans-serif" font-size="14" lengthAdjust="spacing" textLength="78" x="3145.5" y="56.9238">&lt;&lt;domain&gt;&gt;</text><text fill="#000000" font-family="sans-serif" font-size="14" lengthAdjust="spacing" textLength="52" x="3158.5" y="74.5332">Address</text><rect fill="#FEFECE" filter="url(#f18htc3mrd1bb)" height="49.2188" style="stroke:#A80036;stroke-width:1.5;" width="104" x="3244.5" y="35.3906"/><text fill="#000000" font-family="sans-serif" font-size="14" lengthAdjust="spacing" textLength="78" x="3257.5" y="56.9238">&lt;&lt;domain&gt;&gt;</text><text fill="#000000" font-family="sans-serif" font-size="14" lengthAdjust="spacing" textLength="90" x="3251.5" y="74.5332">PhoneNumber</text><rect fill="#FEFECE" filter="url(#f18htc3mrd1bb)" height="49.2188" style="stroke:#A80036;stroke-width:1.5;" width="92" x="3362.5" y="35.3906"/><text fill="#000000" font-family="sans-serif" font-size="14" lengthAdjust="spacing" textLength="78" x="3369.5" y="56.9238">&lt;&lt;domain&gt;&gt;</text><text fill="#000000" font-family="sans-serif" font-size="14" lengthAdjust="spacing" textLength="59" x="3379" y="74.5332">BirthDate</text><rect fill="#FFFFFF" filter="url(#f18htc3mrd1bb)" height="1771.9453" style="stroke:#A80036;stroke-width:1.0;" width="10" x="107.5" y="99.6094"/><rect fill="#FFFFFF" filter="url(#f18htc3mrd1bb)" height="110.9219" style="stroke:#A80036;stroke-width:1.0;" width="10" x="511.5" y="121.9609"/><rect fill="#FFFFFF" filter="url(#f18htc3mrd1bb)" height="842.6875" style="stroke:#A80036;stroke-width:1.0;" width="10" x="511.5" y="263.2344"/><rect fill="#FFFFFF" filter="url(#f18htc3mrd1bb)" height="121.0547" style="stroke:#A80036;stroke-width:1.0;" width="10" x="511.5" y="1136.2734"/><rect fill="#FFFFFF" filter="url(#f18htc3mrd1bb)" height="583.875" style="stroke:#A80036;stroke-width:1.0;" width="10" x="511.5" y="1287.6797"/><rect fill="#FFFFFF" filter="url(#f18htc3mrd1bb)" height="246.3281" style="stroke:#A80036;stroke-width:1.0;" width="10" x="955.5" y="309.9375"/><rect fill="#FFFFFF" filter="url(#f18htc3mrd1bb)" height="519.3047" style="stroke:#A80036;stroke-width:1.0;" width="10" x="955.5" y="586.6172"/><rect fill="#FFFFFF" filter="url(#f18htc3mrd1bb)" height="60.3516" style="stroke:#A80036;stroke-width:1.0;" width="10" x="955.5" y="1166.625"/><rect fill="#FFFFFF" filter="url(#f18htc3mrd1bb)" height="523.1719" style="stroke:#A80036;stroke-width:1.0;" width="10" x="955.5" y="1318.0313"/><rect fill="#FFFFFF" filter="url(#f18htc3mrd1bb)" height="151.7578" style="stroke:#A80036;stroke-width:1.0;" width="10" x="1311.5" y="404.5078"/><rect fill="#FFFFFF" filter="url(#f18htc3mrd1bb)" height="30" style="stroke:#A80036;stroke-width:1.0;" width="10" x="1311.5" y="1196.9766"/><rect fill="#FFFFFF" filter="url(#f18htc3mrd1bb)" height="124.9219" style="stroke:#A80036;stroke-width:1.0;" width="10" x="1311.5" y="1348.3828"/><rect fill="#FFFFFF" filter="url(#f18htc3mrd1bb)" height="37.8672" style="stroke:#A80036;stroke-width:1.0;" width="10" x="1775.5" y="1405.0859"/><rect fill="#FFFFFF" filter="url(#f18htc3mrd1bb)" height="215.625" style="stroke:#A80036;stroke-width:1.0;" width="10" x="1920.5" y="616.9688"/><rect fill="#FFFFFF" filter="url(#f18htc3mrd1bb)" height="94.5703" style="stroke:#A80036;stroke-width:1.0;" width="10" x="1920.5" y="1503.6563"/><rect fill="#FFFFFF" filter="url(#f18htc3mrd1bb)" height="30" style="stroke:#A80036;stroke-width:1.0;" width="10" x="2099.5" y="647.3203"/><rect fill="#FFFFFF" filter="url(#f18htc3mrd1bb)" height="124.9219" style="stroke:#A80036;stroke-width:1.0;" width="10" x="2099.5" y="707.6719"/><rect fill="#FFFFFF" filter="url(#f18htc3mrd1bb)" height="121.5703" style="stroke:#A80036;stroke-width:1.0;" width="10" x="2249.5" y="862.9453"/><rect fill="#FFFFFF" filter="url(#f18htc3mrd1bb)" height="121.5703" style="stroke:#A80036;stroke-width:1.0;" width="10" x="2249.5" y="1628.5781"/><rect fill="#FFFFFF" filter="url(#f18htc3mrd1bb)" height="30.3516" style="stroke:#A80036;stroke-width:1.0;" width="10" x="2392" y="1014.8672"/><rect fill="#FFFFFF" filter="url(#f18htc3mrd1bb)" height="30.3516" style="stroke:#A80036;stroke-width:1.0;" width="10" x="2529.5" y="1780.5"/><polygon fill="#A80036" points="499.5,117.9609,509.5,121.9609,499.5,125.9609,503.5,121.9609" style="stroke:#A80036;stroke-width:1.0;"/><line style="stroke:#A80036;stroke-width:1.0;" x1="117.5" x2="505.5" y1="121.9609" y2="121.9609"/><text fill="#000000" font-family="sans-serif" font-size="13" font-weight="bold" lengthAdjust="spacing" textLength="7" x="124.5" y="117.1045">1</text><text fill="#000000" font-family="sans-serif" font-size="13" lengthAdjust="spacing" textLength="259" x="135.5" y="117.1045">Iniciates the request to specify a collaborator</text><polygon fill="#A80036" points="829.5,148.3125,839.5,152.3125,829.5,156.3125,833.5,152.3125" style="stroke:#A80036;stroke-width:1.0;"/><line style="stroke:#A80036;stroke-width:1.0;" x1="521.5" x2="835.5" y1="152.3125" y2="152.3125"/><text fill="#000000" font-family="sans-serif" font-size="13" font-weight="bold" lengthAdjust="spacing" textLength="7" x="528.5" y="147.4561">2</text><text fill="#000000" font-family="sans-serif" font-size="13" lengthAdjust="spacing" textLength="44" x="539.5" y="147.4561">create()</text><rect fill="#FEFECE" filter="url(#f18htc3mrd1bb)" height="49.2188" style="stroke:#A80036;stroke-width:1.5;" width="234" x="841.5" y="129.9609"/><text fill="#000000" font-family="sans-serif" font-size="14" lengthAdjust="spacing" textLength="92" x="912.5" y="151.4941">&lt;&lt;aplication&gt;&gt;</text><text fill="#000000" font-family="sans-serif" font-size="14" lengthAdjust="spacing" textLength="220" x="848.5" y="169.1035">CollaboratorSpecificationController</text><polygon fill="#A80036" points="128.5,228.8828,118.5,232.8828,128.5,236.8828,124.5,232.8828" style="stroke:#A80036;stroke-width:1.0;"/><line style="stroke:#A80036;stroke-width:1.0;stroke-dasharray:2.0,2.0;" x1="122.5" x2="515.5" y1="232.8828" y2="232.8828"/><text fill="#000000" font-family="sans-serif" font-size="13" font-weight="bold" lengthAdjust="spacing" textLength="7" x="134.5" y="219.8506">3</text><text fill="#000000" font-family="sans-serif" font-size="13" lengthAdjust="spacing" textLength="359" x="145.5" y="211.6748">Request all information needed (i.e. short and complete name,</text><text fill="#000000" font-family="sans-serif" font-size="13" lengthAdjust="spacing" textLength="352" x="145.5" y="228.0264">mechanographic number, address, phone number, birth date)</text><polygon fill="#A80036" points="499.5,259.2344,509.5,263.2344,499.5,267.2344,503.5,263.2344" style="stroke:#A80036;stroke-width:1.0;"/><line style="stroke:#A80036;stroke-width:1.0;" x1="117.5" x2="505.5" y1="263.2344" y2="263.2344"/><text fill="#000000" font-family="sans-serif" font-size="13" font-weight="bold" lengthAdjust="spacing" textLength="7" x="124.5" y="258.3779">4</text><text fill="#000000" font-family="sans-serif" font-size="13" lengthAdjust="spacing" textLength="189" x="135.5" y="258.3779">Inserts the requested information</text><polygon fill="#A80036" points="943.5,305.9375,953.5,309.9375,943.5,313.9375,947.5,309.9375" style="stroke:#A80036;stroke-width:1.0;"/><line style="stroke:#A80036;stroke-width:1.0;" x1="521.5" x2="949.5" y1="309.9375" y2="309.9375"/><text fill="#000000" font-family="sans-serif" font-size="13" font-weight="bold" lengthAdjust="spacing" textLength="7" x="528.5" y="296.9053">5</text><text fill="#000000" font-family="sans-serif" font-size="13" lengthAdjust="spacing" textLength="404" x="539.5" y="288.7295">addColaborador(shortName, completeName, mechanographicNumber,</text><text fill="#000000" font-family="sans-serif" font-size="13" lengthAdjust="spacing" textLength="198" x="539.5" y="305.0811">address, phoneNumber, birthDate)</text><polygon fill="#A80036" points="1234.5,336.2891,1244.5,340.2891,1234.5,344.2891,1238.5,340.2891" style="stroke:#A80036;stroke-width:1.0;"/><line style="stroke:#A80036;stroke-width:1.0;" x1="965.5" x2="1240.5" y1="340.2891" y2="340.2891"/><text fill="#000000" font-family="sans-serif" font-size="13" font-weight="bold" lengthAdjust="spacing" textLength="7" x="972.5" y="335.4326">6</text><text fill="#000000" font-family="sans-serif" font-size="13" lengthAdjust="spacing" textLength="44" x="983.5" y="335.4326">create()</text><rect fill="#FEFECE" filter="url(#f18htc3mrd1bb)" height="49.2188" style="stroke:#A80036;stroke-width:1.5;" width="136" x="1246.5" y="317.9375"/><text fill="#000000" font-family="sans-serif" font-size="14" lengthAdjust="spacing" textLength="75" x="1277" y="339.4707">&lt;&lt;builder&gt;&gt;</text><text fill="#000000" font-family="sans-serif" font-size="14" lengthAdjust="spacing" textLength="122" x="1253.5" y="357.0801">CollaboratorBuilder</text><polygon fill="#A80036" points="1299.5,400.5078,1309.5,404.5078,1299.5,408.5078,1303.5,404.5078" style="stroke:#A80036;stroke-width:1.0;"/><line style="stroke:#A80036;stroke-width:1.0;" x1="965.5" x2="1305.5" y1="404.5078" y2="404.5078"/><text fill="#000000" font-family="sans-serif" font-size="13" font-weight="bold" lengthAdjust="spacing" textLength="7" x="972.5" y="399.6514">7</text><text fill="#000000" font-family="sans-serif" font-size="13" lengthAdjust="spacing" textLength="159" x="983.5" y="399.6514">withShortName(shortName)</text><polygon fill="#A80036" points="1299.5,430.8594,1309.5,434.8594,1299.5,438.8594,1303.5,434.8594" style="stroke:#A80036;stroke-width:1.0;"/><line style="stroke:#A80036;stroke-width:1.0;" x1="965.5" x2="1305.5" y1="434.8594" y2="434.8594"/><text fill="#000000" font-family="sans-serif" font-size="13" font-weight="bold" lengthAdjust="spacing" textLength="7" x="972.5" y="430.0029">8</text><text fill="#000000" font-family="sans-serif" font-size="13" lengthAdjust="spacing" textLength="207" x="983.5" y="430.0029">withCompleteName(completeName)</text><polygon fill="#A80036" points="1299.5,461.2109,1309.5,465.2109,1299.5,469.2109,1303.5,465.2109" style="stroke:#A80036;stroke-width:1.0;"/><line style="stroke:#A80036;stroke-width:1.0;" x1="965.5" x2="1305.5" y1="465.2109" y2="465.2109"/><text fill="#000000" font-family="sans-serif" font-size="13" font-weight="bold" lengthAdjust="spacing" textLength="7" x="972.5" y="460.3545">9</text><text fill="#000000" font-family="sans-serif" font-size="13" lengthAdjust="spacing" textLength="311" x="983.5" y="460.3545">withMechanographicNumber(mechanographicNumber)</text><polygon fill="#A80036" points="1299.5,491.5625,1309.5,495.5625,1299.5,499.5625,1303.5,495.5625" style="stroke:#A80036;stroke-width:1.0;"/><line style="stroke:#A80036;stroke-width:1.0;" x1="965.5" x2="1305.5" y1="495.5625" y2="495.5625"/><text fill="#000000" font-family="sans-serif" font-size="13" font-weight="bold" lengthAdjust="spacing" textLength="14" x="972.5" y="490.7061">10</text><text fill="#000000" font-family="sans-serif" font-size="13" lengthAdjust="spacing" textLength="125" x="990.5" y="490.7061">withAddress(address)</text><polygon fill="#A80036" points="1299.5,521.9141,1309.5,525.9141,1299.5,529.9141,1303.5,525.9141" style="stroke:#A80036;stroke-width:1.0;"/><line style="stroke:#A80036;stroke-width:1.0;" x1="965.5" x2="1305.5" y1="525.9141" y2="525.9141"/><text fill="#000000" font-family="sans-serif" font-size="13" font-weight="bold" lengthAdjust="spacing" textLength="14" x="972.5" y="521.0576">11</text><text fill="#000000" font-family="sans-serif" font-size="13" lengthAdjust="spacing" textLength="193" x="990.5" y="521.0576">withPhoneNumber(phoneNumber)</text><polygon fill="#A80036" points="1304.5,552.2656,1314.5,556.2656,1304.5,560.2656,1308.5,556.2656" style="stroke:#A80036;stroke-width:1.0;"/><line style="stroke:#A80036;stroke-width:1.0;" x1="960.5" x2="1310.5" y1="556.2656" y2="556.2656"/><text fill="#000000" font-family="sans-serif" font-size="13" font-weight="bold" lengthAdjust="spacing" textLength="14" x="967.5" y="551.4092">12</text><text fill="#000000" font-family="sans-serif" font-size="13" lengthAdjust="spacing" textLength="137" x="985.5" y="551.4092">withBirthDate(birthDate)</text><polygon fill="#A80036" points="943.5,582.6172,953.5,586.6172,943.5,590.6172,947.5,586.6172" style="stroke:#A80036;stroke-width:1.0;"/><line style="stroke:#A80036;stroke-width:1.0;" x1="521.5" x2="949.5" y1="586.6172" y2="586.6172"/><text fill="#000000" font-family="sans-serif" font-size="13" font-weight="bold" lengthAdjust="spacing" textLength="14" x="528.5" y="581.7607">13</text><text fill="#000000" font-family="sans-serif" font-size="13" lengthAdjust="spacing" textLength="73" x="546.5" y="581.7607">getRoleList()</text><polygon fill="#A80036" points="1908.5,612.9688,1918.5,616.9688,1908.5,620.9688,1912.5,616.9688" style="stroke:#A80036;stroke-width:1.0;"/><line style="stroke:#A80036;stroke-width:1.0;" x1="965.5" x2="1914.5" y1="616.9688" y2="616.9688"/><text fill="#000000" font-family="sans-serif" font-size="13" font-weight="bold" lengthAdjust="spacing" textLength="14" x="972.5" y="612.1123">14</text><text fill="#000000" font-family="sans-serif" font-size="13" lengthAdjust="spacing" textLength="75" x="990.5" y="612.1123">repositories()</text><polygon fill="#A80036" points="2087.5,643.3203,2097.5,647.3203,2087.5,651.3203,2091.5,647.3203" style="stroke:#A80036;stroke-width:1.0;"/><line style="stroke:#A80036;stroke-width:1.0;" x1="1930.5" x2="2093.5" y1="647.3203" y2="647.3203"/><text fill="#000000" font-family="sans-serif" font-size="13" font-weight="bold" lengthAdjust="spacing" textLength="14" x="1937.5" y="642.4639">15</text><text fill="#000000" font-family="sans-serif" font-size="13" lengthAdjust="spacing" textLength="57" x="1955.5" y="642.4639">instance()</text><polygon fill="#A80036" points="2087.5,703.6719,2097.5,707.6719,2087.5,711.6719,2091.5,707.6719" style="stroke:#A80036;stroke-width:1.0;"/><line style="stroke:#A80036;stroke-width:1.0;" x1="1930.5" x2="2093.5" y1="707.6719" y2="707.6719"/><text fill="#000000" font-family="sans-serif" font-size="13" font-weight="bold" lengthAdjust="spacing" textLength="14" x="1937.5" y="702.8154">16</text><text fill="#000000" font-family="sans-serif" font-size="13" lengthAdjust="spacing" textLength="132" x="1955.5" y="702.8154">getRepositoryFactory()</text><polygon fill="#A80036" points="2175.5,734.0234,2185.5,738.0234,2175.5,742.0234,2179.5,738.0234" style="stroke:#A80036;stroke-width:1.0;"/><line style="stroke:#A80036;stroke-width:1.0;" x1="2109.5" x2="2181.5" y1="738.0234" y2="738.0234"/><text fill="#000000" font-family="sans-serif" font-size="13" font-weight="bold" lengthAdjust="spacing" textLength="14" x="2116.5" y="733.167">17</text><text fill="#000000" font-family="sans-serif" font-size="13" lengthAdjust="spacing" textLength="36" x="2134.5" y="733.167">create</text><rect fill="#FEFECE" filter="url(#f18htc3mrd1bb)" height="49.2188" style="stroke:#A80036;stroke-width:1.5;" width="130" x="2187.5" y="715.6719"/><text fill="#000000" font-family="sans-serif" font-size="14" lengthAdjust="spacing" textLength="75" x="2215" y="737.2051">&lt;&lt;factory&gt;&gt;</text><text fill="#000000" font-family="sans-serif" font-size="14" lengthAdjust="spacing" textLength="116" x="2194.5" y="754.8145">RepositoryFactory</text><polygon fill="#A80036" points="1941.5,798.2422,1931.5,802.2422,1941.5,806.2422,1937.5,802.2422" style="stroke:#A80036;stroke-width:1.0;"/><line style="stroke:#A80036;stroke-width:1.0;stroke-dasharray:2.0,2.0;" x1="1935.5" x2="2098.5" y1="802.2422" y2="802.2422"/><text fill="#000000" font-family="sans-serif" font-size="13" font-weight="bold" lengthAdjust="spacing" textLength="14" x="1947.5" y="797.3857">18</text><text fill="#000000" font-family="sans-serif" font-size="13" lengthAdjust="spacing" textLength="39" x="1965.5" y="797.3857">factory</text><polygon fill="#A80036" points="976.5,828.5938,966.5,832.5938,976.5,836.5938,972.5,832.5938" style="stroke:#A80036;stroke-width:1.0;"/><line style="stroke:#A80036;stroke-width:1.0;stroke-dasharray:2.0,2.0;" x1="970.5" x2="1924.5" y1="832.5938" y2="832.5938"/><text fill="#000000" font-family="sans-serif" font-size="13" font-weight="bold" lengthAdjust="spacing" textLength="14" x="982.5" y="827.7373">19</text><text fill="#000000" font-family="sans-serif" font-size="13" lengthAdjust="spacing" textLength="39" x="1000.5" y="827.7373">factory</text><polygon fill="#A80036" points="2237.5,858.9453,2247.5,862.9453,2237.5,866.9453,2241.5,862.9453" style="stroke:#A80036;stroke-width:1.0;"/><line style="stroke:#A80036;stroke-width:1.0;" x1="965.5" x2="2243.5" y1="862.9453" y2="862.9453"/><text fill="#000000" font-family="sans-serif" font-size="13" font-weight="bold" lengthAdjust="spacing" textLength="14" x="972.5" y="858.0889">20</text><text fill="#000000" font-family="sans-serif" font-size="13" lengthAdjust="spacing" textLength="36" x="990.5" y="858.0889">roles()</text><polygon fill="#A80036" points="2333.5,889.2969,2343.5,893.2969,2333.5,897.2969,2337.5,893.2969" style="stroke:#A80036;stroke-width:1.0;"/><line style="stroke:#A80036;stroke-width:1.0;" x1="2259.5" x2="2339.5" y1="893.2969" y2="893.2969"/><text fill="#000000" font-family="sans-serif" font-size="13" font-weight="bold" lengthAdjust="spacing" textLength="14" x="2266.5" y="888.4404">21</text><text fill="#000000" font-family="sans-serif" font-size="13" lengthAdjust="spacing" textLength="44" x="2284.5" y="888.4404">create()</text><text fill="#000000" font-family="sans-serif" font-size="14" lengthAdjust="spacing" textLength="95" x="2346.5" y="931.4785">&lt;&lt;repository&gt;&gt;</text><text fill="#000000" font-family="sans-serif" font-size="14" lengthAdjust="spacing" textLength="97" x="2345.5" y="949.0879">RoleRepository</text><path d="M2379,880.9453 C2379,870.9453 2397,870.9453 2397,870.9453 C2397,870.9453 2415,870.9453 2415,880.9453 L2415,906.9453 C2415,916.9453 2397,916.9453 2397,916.9453 C2397,916.9453 2379,916.9453 2379,906.9453 L2379,880.9453 " fill="#FEFECE" filter="url(#f18htc3mrd1bb)" style="stroke:#000000;stroke-width:1.5;"/><path d="M2379,880.9453 C2379,890.9453 2397,890.9453 2397,890.9453 C2397,890.9453 2415,890.9453 2415,880.9453 " fill="none" style="stroke:#000000;stroke-width:1.5;"/><polygon fill="#A80036" points="976.5,980.5156,966.5,984.5156,976.5,988.5156,972.5,984.5156" style="stroke:#A80036;stroke-width:1.0;"/><line style="stroke:#A80036;stroke-width:1.0;stroke-dasharray:2.0,2.0;" x1="970.5" x2="2253.5" y1="984.5156" y2="984.5156"/><text fill="#000000" font-family="sans-serif" font-size="13" font-weight="bold" lengthAdjust="spacing" textLength="14" x="982.5" y="979.6592">22</text><text fill="#000000" font-family="sans-serif" font-size="13" lengthAdjust="spacing" textLength="83" x="1000.5" y="979.6592">roleRepository</text><polygon fill="#A80036" points="2380,1010.8672,2390,1014.8672,2380,1018.8672,2384,1014.8672" style="stroke:#A80036;stroke-width:1.0;"/><line style="stroke:#A80036;stroke-width:1.0;" x1="965.5" x2="2386" y1="1014.8672" y2="1014.8672"/><text fill="#000000" font-family="sans-serif" font-size="13" font-weight="bold" lengthAdjust="spacing" textLength="14" x="972.5" y="1010.0107">23</text><text fill="#000000" font-family="sans-serif" font-size="13" lengthAdjust="spacing" textLength="55" x="990.5" y="1010.0107">save(role)</text><polygon fill="#A80036" points="976.5,1041.2188,966.5,1045.2188,976.5,1049.2188,972.5,1045.2188" style="stroke:#A80036;stroke-width:1.0;"/><line style="stroke:#A80036;stroke-width:1.0;stroke-dasharray:2.0,2.0;" x1="970.5" x2="2396" y1="1045.2188" y2="1045.2188"/><text fill="#000000" font-family="sans-serif" font-size="13" font-weight="bold" lengthAdjust="spacing" textLength="14" x="982.5" y="1040.3623">24</text><text fill="#000000" font-family="sans-serif" font-size="13" lengthAdjust="spacing" textLength="21" x="1000.5" y="1040.3623">role</text><polygon fill="#A80036" points="532.5,1071.5703,522.5,1075.5703,532.5,1079.5703,528.5,1075.5703" style="stroke:#A80036;stroke-width:1.0;"/><line style="stroke:#A80036;stroke-width:1.0;stroke-dasharray:2.0,2.0;" x1="526.5" x2="954.5" y1="1075.5703" y2="1075.5703"/><text fill="#000000" font-family="sans-serif" font-size="13" font-weight="bold" lengthAdjust="spacing" textLength="14" x="538.5" y="1070.7139">25</text><text fill="#000000" font-family="sans-serif" font-size="13" lengthAdjust="spacing" textLength="21" x="556.5" y="1070.7139">role</text><polygon fill="#A80036" points="128.5,1101.9219,118.5,1105.9219,128.5,1109.9219,124.5,1105.9219" style="stroke:#A80036;stroke-width:1.0;"/><line style="stroke:#A80036;stroke-width:1.0;stroke-dasharray:2.0,2.0;" x1="122.5" x2="515.5" y1="1105.9219" y2="1105.9219"/><text fill="#000000" font-family="sans-serif" font-size="13" font-weight="bold" lengthAdjust="spacing" textLength="14" x="134.5" y="1101.0654">26</text><text fill="#000000" font-family="sans-serif" font-size="13" lengthAdjust="spacing" textLength="94" x="152.5" y="1101.0654">Shows roles' list</text><polygon fill="#A80036" points="499.5,1132.2734,509.5,1136.2734,499.5,1140.2734,503.5,1136.2734" style="stroke:#A80036;stroke-width:1.0;"/><line style="stroke:#A80036;stroke-width:1.0;" x1="117.5" x2="505.5" y1="1136.2734" y2="1136.2734"/><text fill="#000000" font-family="sans-serif" font-size="13" font-weight="bold" lengthAdjust="spacing" textLength="14" x="124.5" y="1131.417">27</text><text fill="#000000" font-family="sans-serif" font-size="13" lengthAdjust="spacing" textLength="137" x="142.5" y="1131.417">Select the intended role</text><polygon fill="#A80036" points="943.5,1162.625,953.5,1166.625,943.5,1170.625,947.5,1166.625" style="stroke:#A80036;stroke-width:1.0;"/><line style="stroke:#A80036;stroke-width:1.0;" x1="521.5" x2="949.5" y1="1166.625" y2="1166.625"/><text fill="#000000" font-family="sans-serif" font-size="13" font-weight="bold" lengthAdjust="spacing" textLength="14" x="528.5" y="1161.7686">28</text><text fill="#000000" font-family="sans-serif" font-size="13" lengthAdjust="spacing" textLength="76" x="546.5" y="1161.7686">addRole(role)</text><polygon fill="#A80036" points="1299.5,1192.9766,1309.5,1196.9766,1299.5,1200.9766,1303.5,1196.9766" style="stroke:#A80036;stroke-width:1.0;"/><line style="stroke:#A80036;stroke-width:1.0;" x1="965.5" x2="1305.5" y1="1196.9766" y2="1196.9766"/><text fill="#000000" font-family="sans-serif" font-size="13" font-weight="bold" lengthAdjust="spacing" textLength="14" x="972.5" y="1192.1201">29</text><text fill="#000000" font-family="sans-serif" font-size="13" lengthAdjust="spacing" textLength="78" x="990.5" y="1192.1201">withRole(role)</text><polygon fill="#A80036" points="128.5,1253.3281,118.5,1257.3281,128.5,1261.3281,124.5,1257.3281" style="stroke:#A80036;stroke-width:1.0;"/><line style="stroke:#A80036;stroke-width:1.0;stroke-dasharray:2.0,2.0;" x1="122.5" x2="515.5" y1="1257.3281" y2="1257.3281"/><text fill="#000000" font-family="sans-serif" font-size="13" font-weight="bold" lengthAdjust="spacing" textLength="14" x="134.5" y="1252.4717">30</text><text fill="#000000" font-family="sans-serif" font-size="13" lengthAdjust="spacing" textLength="350" x="152.5" y="1252.4717">Validates, presents the information and asks for confirmation</text><polygon fill="#A80036" points="499.5,1283.6797,509.5,1287.6797,499.5,1291.6797,503.5,1287.6797" style="stroke:#A80036;stroke-width:1.0;"/><line style="stroke:#A80036;stroke-width:1.0;" x1="117.5" x2="505.5" y1="1287.6797" y2="1287.6797"/><text fill="#000000" font-family="sans-serif" font-size="13" font-weight="bold" lengthAdjust="spacing" textLength="14" x="124.5" y="1282.8232">31</text><text fill="#000000" font-family="sans-serif" font-size="13" lengthAdjust="spacing" textLength="51" x="142.5" y="1282.8232">Confirms</text><polygon fill="#A80036" points="943.5,1314.0313,953.5,1318.0313,943.5,1322.0313,947.5,1318.0313" style="stroke:#A80036;stroke-width:1.0;"/><line style="stroke:#A80036;stroke-width:1.0;" x1="521.5" x2="949.5" y1="1318.0313" y2="1318.0313"/><text fill="#000000" font-family="sans-serif" font-size="13" font-weight="bold" lengthAdjust="spacing" textLength="14" x="528.5" y="1313.1748">32</text><text fill="#000000" font-family="sans-serif" font-size="13" lengthAdjust="spacing" textLength="100" x="546.5" y="1313.1748">saveColaborator()</text><polygon fill="#A80036" points="1299.5,1344.3828,1309.5,1348.3828,1299.5,1352.3828,1303.5,1348.3828" style="stroke:#A80036;stroke-width:1.0;"/><line style="stroke:#A80036;stroke-width:1.0;" x1="965.5" x2="1305.5" y1="1348.3828" y2="1348.3828"/><text fill="#000000" font-family="sans-serif" font-size="13" font-weight="bold" lengthAdjust="spacing" textLength="14" x="972.5" y="1343.5264">33</text><text fill="#000000" font-family="sans-serif" font-size="13" lengthAdjust="spacing" textLength="113" x="990.5" y="1343.5264">createCollaborator()</text><polygon fill="#A80036" points="1701.5,1391.0859,1711.5,1395.0859,1701.5,1399.0859,1705.5,1395.0859" style="stroke:#A80036;stroke-width:1.0;"/><line style="stroke:#A80036;stroke-width:1.0;" x1="1321.5" x2="1707.5" y1="1395.0859" y2="1395.0859"/><text fill="#000000" font-family="sans-serif" font-size="13" font-weight="bold" lengthAdjust="spacing" textLength="14" x="1328.5" y="1382.0537">34</text><text fill="#000000" font-family="sans-serif" font-size="13" lengthAdjust="spacing" textLength="350" x="1346.5" y="1373.8779">create(shortName, completeName, mechanographicNumber,</text><text fill="#000000" font-family="sans-serif" font-size="13" lengthAdjust="spacing" textLength="223" x="1346.5" y="1390.2295">address, phoneNumber, birthDate,role)</text><rect fill="#FEFECE" filter="url(#f18htc3mrd1bb)" height="49.2188" style="stroke:#A80036;stroke-width:1.5;" width="130" x="1713.5" y="1356.3828"/><text fill="#000000" font-family="sans-serif" font-size="14" lengthAdjust="spacing" textLength="78" x="1739.5" y="1377.916">&lt;&lt;domain&gt;&gt;</text><text fill="#000000" font-family="sans-serif" font-size="14" lengthAdjust="spacing" textLength="116" x="1720.5" y="1395.5254">colab:Collaborator</text><polygon fill="#A80036" points="1332.5,1438.9531,1322.5,1442.9531,1332.5,1446.9531,1328.5,1442.9531" style="stroke:#A80036;stroke-width:1.0;"/><line style="stroke:#A80036;stroke-width:1.0;stroke-dasharray:2.0,2.0;" x1="1326.5" x2="1779.5" y1="1442.9531" y2="1442.9531"/><text fill="#000000" font-family="sans-serif" font-size="13" font-weight="bold" lengthAdjust="spacing" textLength="14" x="1338.5" y="1438.0967">35</text><text fill="#000000" font-family="sans-serif" font-size="13" lengthAdjust="spacing" textLength="67" x="1356.5" y="1438.0967">collaborator</text><polygon fill="#A80036" points="976.5,1469.3047,966.5,1473.3047,976.5,1477.3047,972.5,1473.3047" style="stroke:#A80036;stroke-width:1.0;"/><line style="stroke:#A80036;stroke-width:1.0;stroke-dasharray:2.0,2.0;" x1="970.5" x2="1315.5" y1="1473.3047" y2="1473.3047"/><text fill="#000000" font-family="sans-serif" font-size="13" font-weight="bold" lengthAdjust="spacing" textLength="14" x="982.5" y="1468.4482">36</text><text fill="#000000" font-family="sans-serif" font-size="13" lengthAdjust="spacing" textLength="67" x="1000.5" y="1468.4482">collaborator</text><polygon fill="#A80036" points="1908.5,1499.6563,1918.5,1503.6563,1908.5,1507.6563,1912.5,1503.6563" style="stroke:#A80036;stroke-width:1.0;"/><line style="stroke:#A80036;stroke-width:1.0;" x1="965.5" x2="1914.5" y1="1503.6563" y2="1503.6563"/><text fill="#000000" font-family="sans-serif" font-size="13" font-weight="bold" lengthAdjust="spacing" textLength="14" x="972.5" y="1498.7998">37</text><text fill="#000000" font-family="sans-serif" font-size="13" lengthAdjust="spacing" textLength="75" x="990.5" y="1498.7998">repositories()</text><polygon fill="#A80036" points="2175.5,1530.0078,2185.5,1534.0078,2175.5,1538.0078,2179.5,1534.0078" style="stroke:#A80036;stroke-width:1.0;"/><line style="stroke:#A80036;stroke-width:1.0;" x1="1930.5" x2="2181.5" y1="1534.0078" y2="1534.0078"/><text fill="#000000" font-family="sans-serif" font-size="13" font-weight="bold" lengthAdjust="spacing" textLength="14" x="1937.5" y="1529.1514">38</text><text fill="#000000" font-family="sans-serif" font-size="13" lengthAdjust="spacing" textLength="44" x="1955.5" y="1529.1514">create()</text><rect fill="#FEFECE" filter="url(#f18htc3mrd1bb)" height="49.2188" style="stroke:#A80036;stroke-width:1.5;" width="130" x="2187.5" y="1511.6563"/><text fill="#000000" font-family="sans-serif" font-size="14" lengthAdjust="spacing" textLength="75" x="2215" y="1533.1895">&lt;&lt;factory&gt;&gt;</text><text fill="#000000" font-family="sans-serif" font-size="14" lengthAdjust="spacing" textLength="116" x="2194.5" y="1550.7988">RepositoryFactory</text><polygon fill="#A80036" points="976.5,1594.2266,966.5,1598.2266,976.5,1602.2266,972.5,1598.2266" style="stroke:#A80036;stroke-width:1.0;"/><line style="stroke:#A80036;stroke-width:1.0;stroke-dasharray:2.0,2.0;" x1="970.5" x2="1924.5" y1="1598.2266" y2="1598.2266"/><text fill="#000000" font-family="sans-serif" font-size="13" font-weight="bold" lengthAdjust="spacing" textLength="14" x="982.5" y="1593.3701">39</text><text fill="#000000" font-family="sans-serif" font-size="13" lengthAdjust="spacing" textLength="39" x="1000.5" y="1593.3701">factory</text><polygon fill="#A80036" points="2237.5,1624.5781,2247.5,1628.5781,2237.5,1632.5781,2241.5,1628.5781" style="stroke:#A80036;stroke-width:1.0;"/><line style="stroke:#A80036;stroke-width:1.0;" x1="965.5" x2="2243.5" y1="1628.5781" y2="1628.5781"/><text fill="#000000" font-family="sans-serif" font-size="13" font-weight="bold" lengthAdjust="spacing" textLength="14" x="972.5" y="1623.7217">40</text><text fill="#000000" font-family="sans-serif" font-size="13" lengthAdjust="spacing" textLength="82" x="990.5" y="1623.7217">collaborators()</text><polygon fill="#A80036" points="2446.5,1654.9297,2456.5,1658.9297,2446.5,1662.9297,2450.5,1658.9297" style="stroke:#A80036;stroke-width:1.0;"/><line style="stroke:#A80036;stroke-width:1.0;" x1="2259.5" x2="2452.5" y1="1658.9297" y2="1658.9297"/><text fill="#000000" font-family="sans-serif" font-size="13" font-weight="bold" lengthAdjust="spacing" textLength="14" x="2266.5" y="1654.0732">41</text><text fill="#000000" font-family="sans-serif" font-size="13" lengthAdjust="spacing" textLength="44" x="2284.5" y="1654.0732">create()</text><text fill="#000000" font-family="sans-serif" font-size="14" lengthAdjust="spacing" textLength="95" x="2484" y="1697.1113">&lt;&lt;repository&gt;&gt;</text><text fill="#000000" font-family="sans-serif" font-size="14" lengthAdjust="spacing" textLength="146" x="2458.5" y="1714.7207">CollaboratorRepository</text><path d="M2516.5,1646.5781 C2516.5,1636.5781 2534.5,1636.5781 2534.5,1636.5781 C2534.5,1636.5781 2552.5,1636.5781 2552.5,1646.5781 L2552.5,1672.5781 C2552.5,1682.5781 2534.5,1682.5781 2534.5,1682.5781 C2534.5,1682.5781 2516.5,1682.5781 2516.5,1672.5781 L2516.5,1646.5781 " fill="#FEFECE" filter="url(#f18htc3mrd1bb)" style="stroke:#000000;stroke-width:1.5;"/><path d="M2516.5,1646.5781 C2516.5,1656.5781 2534.5,1656.5781 2534.5,1656.5781 C2534.5,1656.5781 2552.5,1656.5781 2552.5,1646.5781 " fill="none" style="stroke:#000000;stroke-width:1.5;"/><polygon fill="#A80036" points="976.5,1746.1484,966.5,1750.1484,976.5,1754.1484,972.5,1750.1484" style="stroke:#A80036;stroke-width:1.0;"/><line style="stroke:#A80036;stroke-width:1.0;stroke-dasharray:2.0,2.0;" x1="970.5" x2="2253.5" y1="1750.1484" y2="1750.1484"/><text fill="#000000" font-family="sans-serif" font-size="13" font-weight="bold" lengthAdjust="spacing" textLength="14" x="982.5" y="1745.292">42</text><text fill="#000000" font-family="sans-serif" font-size="13" lengthAdjust="spacing" textLength="129" x="1000.5" y="1745.292">collaboratorRepository</text><polygon fill="#A80036" points="2517.5,1776.5,2527.5,1780.5,2517.5,1784.5,2521.5,1780.5" style="stroke:#A80036;stroke-width:1.0;"/><line style="stroke:#A80036;stroke-width:1.0;" x1="965.5" x2="2523.5" y1="1780.5" y2="1780.5"/><text fill="#000000" font-family="sans-serif" font-size="13" font-weight="bold" lengthAdjust="spacing" textLength="14" x="972.5" y="1775.6436">43</text><text fill="#000000" font-family="sans-serif" font-size="13" lengthAdjust="spacing" textLength="101" x="990.5" y="1775.6436">save(collaborator)</text><polygon fill="#A80036" points="976.5,1806.8516,966.5,1810.8516,976.5,1814.8516,972.5,1810.8516" style="stroke:#A80036;stroke-width:1.0;"/><line style="stroke:#A80036;stroke-width:1.0;stroke-dasharray:2.0,2.0;" x1="970.5" x2="2533.5" y1="1810.8516" y2="1810.8516"/><text fill="#000000" font-family="sans-serif" font-size="13" font-weight="bold" lengthAdjust="spacing" textLength="14" x="982.5" y="1805.9951">44</text><text fill="#000000" font-family="sans-serif" font-size="13" lengthAdjust="spacing" textLength="67" x="1000.5" y="1805.9951">collaborator</text><polygon fill="#A80036" points="532.5,1837.2031,522.5,1841.2031,532.5,1845.2031,528.5,1841.2031" style="stroke:#A80036;stroke-width:1.0;"/><line style="stroke:#A80036;stroke-width:1.0;stroke-dasharray:2.0,2.0;" x1="526.5" x2="959.5" y1="1841.2031" y2="1841.2031"/><text fill="#000000" font-family="sans-serif" font-size="13" font-weight="bold" lengthAdjust="spacing" textLength="14" x="538.5" y="1836.3467">45</text><text fill="#000000" font-family="sans-serif" font-size="13" lengthAdjust="spacing" textLength="67" x="556.5" y="1836.3467">collaborator</text><polygon fill="#A80036" points="123.5,1867.5547,113.5,1871.5547,123.5,1875.5547,119.5,1871.5547" style="stroke:#A80036;stroke-width:1.0;"/><line style="stroke:#A80036;stroke-width:1.0;stroke-dasharray:2.0,2.0;" x1="117.5" x2="515.5" y1="1871.5547" y2="1871.5547"/><text fill="#000000" font-family="sans-serif" font-size="13" font-weight="bold" lengthAdjust="spacing" textLength="14" x="129.5" y="1866.6982">46</text><text fill="#000000" font-family="sans-serif" font-size="13" lengthAdjust="spacing" textLength="224" x="147.5" y="1866.6982">Informs of the success of the operation</text><!--MD5=[05ce145f202d669562fb8c84e3895abf]
@startuml
autonumber
hide footbox

actor "Human Resource Representative" as HRR

participant "<<presentation>>\nCollaboratorSpecificationUI" as UI
participant "<<aplication>>\nCollaboratorSpecificationController" as CTRL
participant "<<builder>>\nCollaboratorBuilder" as CB
participant "<<domain>>\ncolab:Collaborator" as COLAB
participant "<<persistence>>\nPersistenceContex" as PC
participant "<<persistence>>\nAppSettings" as AS
participant "<<factory>>\nRepositoryFactory" as RF
database "<<repository>>\nRoleRepository" as RR
database "<<repository>>\nCollaboratorRepository" as CR

participant "<<domain>>\nShortName" as SN
participant "<<domain>>\nCompleteName" as CN
participant "<<domain>>\nMechanographicNumber" as MN
participant "<<domain>>\nRole" as R
participant "<<domain>>\nAddress" as A
participant "<<domain>>\nPhoneNumber" as PN
participant "<<domain>>\nBirthDate" as BD

activate HRR

HRR-> UI : Iniciates the request to specify a collaborator
activate UI

UI-> CTRL** : create()

UI - -> HRR: Request all information needed (i.e. short and complete name,\nmechanographic number, address, phone number, birth date)

deactivate UI
HRR-> UI : Inserts the requested information
activate UI
UI-> CTRL : addColaborador(shortName, completeName, mechanographicNumber,\naddress, phoneNumber, birthDate)
activate CTRL

CTRL-> CB** : create()
CTRL-> CB : withShortName(shortName)
activate CB
CTRL-> CB : withCompleteName(completeName)
CTRL-> CB : withMechanographicNumber(mechanographicNumber)
CTRL-> CB : withAddress(address)
CTRL-> CB : withPhoneNumber(phoneNumber)
CTRL-> CB : withBirthDate(birthDate)
deactivate CB
deactivate CTRL

UI-> CTRL : getRoleList()
activate CTRL
CTRL-> PC: repositories()
activate PC
PC-> AS : instance()
activate AS
deactivate AS
PC -> AS : getRepositoryFactory()
activate AS

AS -> RF** : create
AS - -> PC : factory
PC - -> CTRL : factory
deactivate AS
deactivate PC

CTRL-> RF : roles()
activate RF
RF-> RR** : create()
RF- -> CTRL : roleRepository
deactivate RF

CTRL -> RR : save(role)
activate RR
RR - -> CTRL : role
deactivate RR
CTRL - -> UI : role


UI - -> HRR: Shows roles' list
deactivate UI
deactivate CTRL


HRR-> UI : Select the intended role
activate UI

UI-> CTRL : addRole(role)
activate CTRL
CTRL-> CB : withRole(role)
activate CB
deactivate CB
deactivate CTRL

UI - -> HRR: Validates, presents the information and asks for confirmation
deactivate UI

deactivate UI
HRR-> UI : Confirms
activate UI

UI-> CTRL : saveColaborator()
activate CTRL

CTRL-> CB : createCollaborator()
activate CB
CB-> COLAB** : create(shortName, completeName, mechanographicNumber,\naddress, phoneNumber, birthDate,role)

activate COLAB
COLAB - -> CB : collaborator
deactivate COLAB
CB - -> CTRL : collaborator
deactivate CB

CTRL-> PC: repositories()
activate PC
PC-> RF** : create()
PC- -> CTRL : factory
deactivate PC

CTRL-> RF : collaborators()
activate RF
RF-> CR** : create()
RF- -> CTRL : collaboratorRepository
deactivate RF

CTRL-> CR : save(collaborator)
activate CR
CR - -> CTRL : collaborator
deactivate CR
CTRL - -> UI : collaborator
deactivate CTRL

UI - -> HRR: Informs of the success of the operation
deactivate UI
deactivate HRR

@enduml

PlantUML version 1.2021.5(Sun Apr 25 12:20:28 BST 2021)
(GPL source distribution)
Java Runtime: OpenJDK Runtime Environment
JVM: OpenJDK 64-Bit Server VM
Default Encoding: Cp1252
Language: pt
Country: PT
--></g></svg>