<?xml version="1.0" encoding="UTF-8" standalone="no"?><svg xmlns="http://www.w3.org/2000/svg" xmlns:xlink="http://www.w3.org/1999/xlink" contentScriptType="application/ecmascript" contentStyleType="text/css" height="718px" preserveAspectRatio="none" style="width:3102px;height:718px;" version="1.1" viewBox="0 0 3102 718" width="3102px" zoomAndPan="magnify"><defs><filter height="300%" id="f1r28agloo9cu6" width="300%" x="-1" y="-1"><feGaussianBlur result="blurOut" stdDeviation="2.0"/><feColorMatrix in="blurOut" result="blurOut2" type="matrix" values="0 0 0 0 0 0 0 0 0 0 0 0 0 0 0 0 0 0 .4 0"/><feOffset dx="4.0" dy="4.0" in="blurOut2" result="blurOut3"/><feBlend in="SourceGraphic" in2="blurOut3" mode="normal"/></filter></defs><g><!--MD5=[9681dc6e01e10c6b4fe06895ae94f592]
cluster UI--><polygon fill="#DDDDDD" filter="url(#f1r28agloo9cu6)" points="769,6,789,6,796,29.6094,975,29.6094,975,126,769,126,769,6" style="stroke:#000000;stroke-width:1.5;"/><line style="stroke:#000000;stroke-width:1.5;" x1="769" x2="796" y1="29.6094" y2="29.6094"/><text fill="#000000" font-family="sans-serif" font-size="14" font-weight="bold" lengthAdjust="spacing" textLength="14" x="773" y="22.5332">UI</text><!--MD5=[d64883541e3d62e3241c4d12decf100d]
cluster Application--><polygon fill="#DDDDDD" filter="url(#f1r28agloo9cu6)" points="712,159,796,159,803,182.6094,1032,182.6094,1032,362,712,362,712,159" style="stroke:#000000;stroke-width:1.5;"/><line style="stroke:#000000;stroke-width:1.5;" x1="712" x2="803" y1="182.6094" y2="182.6094"/><text fill="#000000" font-family="sans-serif" font-size="14" font-weight="bold" lengthAdjust="spacing" textLength="78" x="716" y="175.5332">Application</text><!--MD5=[121a8bf1197281ab89ed693fab589f94]
cluster Domain--><polygon fill="#DDDDDD" filter="url(#f1r28agloo9cu6)" points="1036,412,1094,412,1101,435.6094,3085,435.6094,3085,711,1036,711,1036,412" style="stroke:#000000;stroke-width:1.5;"/><line style="stroke:#000000;stroke-width:1.5;" x1="1036" x2="1101" y1="435.6094" y2="435.6094"/><text fill="#000000" font-family="sans-serif" font-size="14" font-weight="bold" lengthAdjust="spacing" textLength="52" x="1040" y="428.5332">Domain</text><!--MD5=[44cc74aea8168fb4471e814fff38ed12]
cluster Builder--><polygon fill="#DDDDDD" filter="url(#f1r28agloo9cu6)" points="2827,456,2884,456,2891,479.6094,3061,479.6094,3061,687,2827,687,2827,456" style="stroke:#000000;stroke-width:1.5;"/><line style="stroke:#000000;stroke-width:1.5;" x1="2827" x2="2891" y1="479.6094" y2="479.6094"/><text fill="#000000" font-family="sans-serif" font-size="14" font-weight="bold" lengthAdjust="spacing" textLength="51" x="2831" y="472.5332">Builder</text><!--MD5=[bc6b40dadbf86ab6a0c8405a467a48af]
cluster Persistence--><polygon fill="#DDDDDD" filter="url(#f1r28agloo9cu6)" points="16,453.5,106,453.5,113,477.1094,1012,477.1094,1012,669.5,16,669.5,16,453.5" style="stroke:#000000;stroke-width:1.5;"/><line style="stroke:#000000;stroke-width:1.5;" x1="16" x2="113" y1="477.1094" y2="477.1094"/><text fill="#000000" font-family="sans-serif" font-size="14" font-weight="bold" lengthAdjust="spacing" textLength="84" x="20" y="470.0332">Persistence</text><!--MD5=[0d5799440b3bfefd92b00abfcd2c79b9]
cluster Factory--><polygon fill="#DDDDDD" filter="url(#f1r28agloo9cu6)" points="826,497.5,884,497.5,891,521.1094,988,521.1094,988,645.5,826,645.5,826,497.5" style="stroke:#000000;stroke-width:1.5;"/><line style="stroke:#000000;stroke-width:1.5;" x1="826" x2="891" y1="521.1094" y2="521.1094"/><text fill="#000000" font-family="sans-serif" font-size="14" font-weight="bold" lengthAdjust="spacing" textLength="52" x="830" y="514.0332">Factory</text><!--MD5=[71971f99a41bb66cf321ce46bb59f738]
cluster Repository--><polygon fill="#DDDDDD" filter="url(#f1r28agloo9cu6)" points="424,497.5,506,497.5,513,521.1094,783,521.1094,783,645.5,424,645.5,424,497.5" style="stroke:#000000;stroke-width:1.5;"/><line style="stroke:#000000;stroke-width:1.5;" x1="424" x2="513" y1="521.1094" y2="521.1094"/><text fill="#000000" font-family="sans-serif" font-size="14" font-weight="bold" lengthAdjust="spacing" textLength="76" x="428" y="514.0332">Repository</text><!--MD5=[fdd143688dd4c22e6f2ee475119423ce]
class EspecificarColaboradorUI--><rect codeLine="5" fill="#FEFECE" filter="url(#f1r28agloo9cu6)" height="48" id="EspecificarColaboradorUI" style="stroke:#A80036;stroke-width:1.5;" width="174" x="785" y="62"/><ellipse cx="800" cy="78" fill="#ADD1B2" rx="11" ry="11" style="stroke:#A80036;stroke-width:1.0;"/><path d="M802,74.5 Q802.2031,74 802.4375,73.75 Q802.6719,73.5 802.9375,73.5 Q803.4063,73.5 803.7031,73.7813 Q804,74.0625 804,74.7188 L804,76.2813 Q804,76.9375 803.7188,77.2188 Q803.4375,77.5 803,77.5 Q802.6094,77.5 802.3594,77.3281 Q802.1094,77.1563 802,76.7031 Q801.9531,76.3906 801.7813,76.2188 Q801.4688,75.8906 800.9063,75.7031 Q800.3438,75.5 799.7813,75.5 Q799.0781,75.5 798.4844,75.7813 Q797.9063,76.0625 797.4531,76.6875 Q797,77.3125 797,78.1719 L797,79.0938 Q797,80.125 797.8438,80.8125 Q798.6875,81.5 800.1875,81.5 Q801.0781,81.5 801.7031,81.2969 Q802.0625,81.1875 802.4688,80.8281 Q802.7344,80.625 802.875,80.5625 Q803.0156,80.5 803.1875,80.5 Q803.5156,80.5 803.75,80.7656 Q804,81.0156 804,81.375 Q804,81.7188 803.6563,82.125 Q803.1563,82.7188 802.3594,83.0469 Q801.3125,83.5 800.0313,83.5 Q798.5313,83.5 797.3281,82.9063 Q796.3594,82.4375 795.6719,81.4219 Q795,80.4063 795,79.2031 L795,78.1094 Q795,76.8594 795.5938,75.7656 Q796.2031,74.6719 797.25,74.0938 Q798.3125,73.5 799.5,73.5 Q800.2188,73.5 800.8438,73.75 Q801.4688,74 802,74.5 Z " fill="#000000"/><text fill="#000000" font-family="sans-serif" font-size="12" lengthAdjust="spacing" textLength="142" x="814" y="82.9102">EspecificarColaboradorUI</text><line style="stroke:#A80036;stroke-width:1.5;" x1="786" x2="958" y1="94" y2="94"/><line style="stroke:#A80036;stroke-width:1.5;" x1="786" x2="958" y1="102" y2="102"/><!--MD5=[ad1e0dfb7967d80be5dad4c9388df9ec]
class EspecificarColaboradorController--><rect codeLine="12" fill="#FEFECE" filter="url(#f1r28agloo9cu6)" height="131.0156" id="EspecificarColaboradorController" style="stroke:#A80036;stroke-width:1.5;" width="288" x="728" y="215"/><ellipse cx="775.75" cy="231" fill="#ADD1B2" rx="11" ry="11" style="stroke:#A80036;stroke-width:1.0;"/><path d="M777.75,227.5 Q777.9531,227 778.1875,226.75 Q778.4219,226.5 778.6875,226.5 Q779.1563,226.5 779.4531,226.7813 Q779.75,227.0625 779.75,227.7188 L779.75,229.2813 Q779.75,229.9375 779.4688,230.2188 Q779.1875,230.5 778.75,230.5 Q778.3594,230.5 778.1094,230.3281 Q777.8594,230.1563 777.75,229.7031 Q777.7031,229.3906 777.5313,229.2188 Q777.2188,228.8906 776.6563,228.7031 Q776.0938,228.5 775.5313,228.5 Q774.8281,228.5 774.2344,228.7813 Q773.6563,229.0625 773.2031,229.6875 Q772.75,230.3125 772.75,231.1719 L772.75,232.0938 Q772.75,233.125 773.5938,233.8125 Q774.4375,234.5 775.9375,234.5 Q776.8281,234.5 777.4531,234.2969 Q777.8125,234.1875 778.2188,233.8281 Q778.4844,233.625 778.625,233.5625 Q778.7656,233.5 778.9375,233.5 Q779.2656,233.5 779.5,233.7656 Q779.75,234.0156 779.75,234.375 Q779.75,234.7188 779.4063,235.125 Q778.9063,235.7188 778.1094,236.0469 Q777.0625,236.5 775.7813,236.5 Q774.2813,236.5 773.0781,235.9063 Q772.1094,235.4375 771.4219,234.4219 Q770.75,233.4063 770.75,232.2031 L770.75,231.1094 Q770.75,229.8594 771.3438,228.7656 Q771.9531,227.6719 773,227.0938 Q774.0625,226.5 775.25,226.5 Q775.9688,226.5 776.5938,226.75 Q777.2188,227 777.75,227.5 Z " fill="#000000"/><text fill="#000000" font-family="sans-serif" font-size="12" lengthAdjust="spacing" textLength="184" x="796.25" y="235.9102">EspecificarColaboradorController</text><line style="stroke:#A80036;stroke-width:1.5;" x1="729" x2="1015" y1="247" y2="247"/><line style="stroke:#A80036;stroke-width:1.5;" x1="729" x2="1015" y1="255" y2="255"/><text fill="#000000" font-family="sans-serif" font-size="11" lengthAdjust="spacing" textLength="45" x="734" y="270.4189">+create()</text><text fill="#000000" font-family="sans-serif" font-size="11" lengthAdjust="spacing" textLength="276" x="734" y="284.2549">+addColaborador(nomeCurto, nomeCompleto, numMecan,</text><text fill="#000000" font-family="sans-serif" font-size="11" lengthAdjust="spacing" textLength="171" x="734" y="298.0908">morada, contacto, dataNascimento)</text><text fill="#000000" font-family="sans-serif" font-size="11" lengthAdjust="spacing" textLength="82" x="734" y="311.9268">+getFuncaoList()</text><text fill="#000000" font-family="sans-serif" font-size="11" lengthAdjust="spacing" textLength="102" x="734" y="325.7627">+addFuncao(funcao)</text><text fill="#000000" font-family="sans-serif" font-size="11" lengthAdjust="spacing" textLength="97" x="734" y="339.5986">+saveColaborador()</text><!--MD5=[ac8682ea5466d223e49472789fb200d2]
class Colaborador--><rect codeLine="23" fill="#FEFECE" filter="url(#f1r28agloo9cu6)" height="75.6719" id="Colaborador" style="stroke:#A80036;stroke-width:1.5;" width="242" x="1052" y="553.5"/><ellipse cx="1134.25" cy="569.5" fill="#ADD1B2" rx="11" ry="11" style="stroke:#A80036;stroke-width:1.0;"/><path d="M1136.25,566 Q1136.4531,565.5 1136.6875,565.25 Q1136.9219,565 1137.1875,565 Q1137.6563,565 1137.9531,565.2813 Q1138.25,565.5625 1138.25,566.2188 L1138.25,567.7813 Q1138.25,568.4375 1137.9688,568.7188 Q1137.6875,569 1137.25,569 Q1136.8594,569 1136.6094,568.8281 Q1136.3594,568.6563 1136.25,568.2031 Q1136.2031,567.8906 1136.0313,567.7188 Q1135.7188,567.3906 1135.1563,567.2031 Q1134.5938,567 1134.0313,567 Q1133.3281,567 1132.7344,567.2813 Q1132.1563,567.5625 1131.7031,568.1875 Q1131.25,568.8125 1131.25,569.6719 L1131.25,570.5938 Q1131.25,571.625 1132.0938,572.3125 Q1132.9375,573 1134.4375,573 Q1135.3281,573 1135.9531,572.7969 Q1136.3125,572.6875 1136.7188,572.3281 Q1136.9844,572.125 1137.125,572.0625 Q1137.2656,572 1137.4375,572 Q1137.7656,572 1138,572.2656 Q1138.25,572.5156 1138.25,572.875 Q1138.25,573.2188 1137.9063,573.625 Q1137.4063,574.2188 1136.6094,574.5469 Q1135.5625,575 1134.2813,575 Q1132.7813,575 1131.5781,574.4063 Q1130.6094,573.9375 1129.9219,572.9219 Q1129.25,571.9063 1129.25,570.7031 L1129.25,569.6094 Q1129.25,568.3594 1129.8438,567.2656 Q1130.4531,566.1719 1131.5,565.5938 Q1132.5625,565 1133.75,565 Q1134.4688,565 1135.0938,565.25 Q1135.7188,565.5 1136.25,566 Z " fill="#000000"/><text fill="#000000" font-family="sans-serif" font-size="12" lengthAdjust="spacing" textLength="69" x="1154.75" y="574.4102">Colaborador</text><line style="stroke:#A80036;stroke-width:1.5;" x1="1053" x2="1293" y1="585.5" y2="585.5"/><line style="stroke:#A80036;stroke-width:1.5;" x1="1053" x2="1293" y1="593.5" y2="593.5"/><text fill="#000000" font-family="sans-serif" font-size="11" lengthAdjust="spacing" textLength="230" x="1058" y="608.9189">+create(nomeCurto, nomeCompleto, numMecan,</text><text fill="#000000" font-family="sans-serif" font-size="11" lengthAdjust="spacing" textLength="208" x="1058" y="622.7549">morada, contacto, dataNascimento,funcao)</text><!--MD5=[ed1987162fdde4261121b80f12a2fc37]
class NomeCurto--><rect codeLine="27" fill="#FEFECE" filter="url(#f1r28agloo9cu6)" height="75.6719" id="NomeCurto" style="stroke:#A80036;stroke-width:1.5;" width="162" x="2646" y="553.5"/><ellipse cx="2690.75" cy="569.5" fill="#ADD1B2" rx="11" ry="11" style="stroke:#A80036;stroke-width:1.0;"/><path d="M2692.75,566 Q2692.9531,565.5 2693.1875,565.25 Q2693.4219,565 2693.6875,565 Q2694.1563,565 2694.4531,565.2813 Q2694.75,565.5625 2694.75,566.2188 L2694.75,567.7813 Q2694.75,568.4375 2694.4688,568.7188 Q2694.1875,569 2693.75,569 Q2693.3594,569 2693.1094,568.8281 Q2692.8594,568.6563 2692.75,568.2031 Q2692.7031,567.8906 2692.5313,567.7188 Q2692.2188,567.3906 2691.6563,567.2031 Q2691.0938,567 2690.5313,567 Q2689.8281,567 2689.2344,567.2813 Q2688.6563,567.5625 2688.2031,568.1875 Q2687.75,568.8125 2687.75,569.6719 L2687.75,570.5938 Q2687.75,571.625 2688.5938,572.3125 Q2689.4375,573 2690.9375,573 Q2691.8281,573 2692.4531,572.7969 Q2692.8125,572.6875 2693.2188,572.3281 Q2693.4844,572.125 2693.625,572.0625 Q2693.7656,572 2693.9375,572 Q2694.2656,572 2694.5,572.2656 Q2694.75,572.5156 2694.75,572.875 Q2694.75,573.2188 2694.4063,573.625 Q2693.9063,574.2188 2693.1094,574.5469 Q2692.0625,575 2690.7813,575 Q2689.2813,575 2688.0781,574.4063 Q2687.1094,573.9375 2686.4219,572.9219 Q2685.75,571.9063 2685.75,570.7031 L2685.75,569.6094 Q2685.75,568.3594 2686.3438,567.2656 Q2686.9531,566.1719 2688,565.5938 Q2689.0625,565 2690.25,565 Q2690.9688,565 2691.5938,565.25 Q2692.2188,565.5 2692.75,566 Z " fill="#000000"/><text fill="#000000" font-family="sans-serif" font-size="12" lengthAdjust="spacing" textLength="64" x="2711.25" y="574.4102">NomeCurto</text><line style="stroke:#A80036;stroke-width:1.5;" x1="2647" x2="2807" y1="585.5" y2="585.5"/><line style="stroke:#A80036;stroke-width:1.5;" x1="2647" x2="2807" y1="593.5" y2="593.5"/><text fill="#000000" font-family="sans-serif" font-size="11" lengthAdjust="spacing" textLength="150" x="2652" y="608.9189">+createNomeCurto(nomeCurto)</text><text fill="#000000" font-family="sans-serif" font-size="11" lengthAdjust="spacing" textLength="101" x="2652" y="622.7549">-validate(nomeCurto)</text><!--MD5=[9b1b797ca6cfef31fef2358768b032f5]
class NomeCompleto--><rect codeLine="32" fill="#FEFECE" filter="url(#f1r28agloo9cu6)" height="75.6719" id="NomeCompleto" style="stroke:#A80036;stroke-width:1.5;" width="198" x="2413" y="553.5"/><ellipse cx="2463.75" cy="569.5" fill="#ADD1B2" rx="11" ry="11" style="stroke:#A80036;stroke-width:1.0;"/><path d="M2465.75,566 Q2465.9531,565.5 2466.1875,565.25 Q2466.4219,565 2466.6875,565 Q2467.1563,565 2467.4531,565.2813 Q2467.75,565.5625 2467.75,566.2188 L2467.75,567.7813 Q2467.75,568.4375 2467.4688,568.7188 Q2467.1875,569 2466.75,569 Q2466.3594,569 2466.1094,568.8281 Q2465.8594,568.6563 2465.75,568.2031 Q2465.7031,567.8906 2465.5313,567.7188 Q2465.2188,567.3906 2464.6563,567.2031 Q2464.0938,567 2463.5313,567 Q2462.8281,567 2462.2344,567.2813 Q2461.6563,567.5625 2461.2031,568.1875 Q2460.75,568.8125 2460.75,569.6719 L2460.75,570.5938 Q2460.75,571.625 2461.5938,572.3125 Q2462.4375,573 2463.9375,573 Q2464.8281,573 2465.4531,572.7969 Q2465.8125,572.6875 2466.2188,572.3281 Q2466.4844,572.125 2466.625,572.0625 Q2466.7656,572 2466.9375,572 Q2467.2656,572 2467.5,572.2656 Q2467.75,572.5156 2467.75,572.875 Q2467.75,573.2188 2467.4063,573.625 Q2466.9063,574.2188 2466.1094,574.5469 Q2465.0625,575 2463.7813,575 Q2462.2813,575 2461.0781,574.4063 Q2460.1094,573.9375 2459.4219,572.9219 Q2458.75,571.9063 2458.75,570.7031 L2458.75,569.6094 Q2458.75,568.3594 2459.3438,567.2656 Q2459.9531,566.1719 2461,565.5938 Q2462.0625,565 2463.25,565 Q2463.9688,565 2464.5938,565.25 Q2465.2188,565.5 2465.75,566 Z " fill="#000000"/><text fill="#000000" font-family="sans-serif" font-size="12" lengthAdjust="spacing" textLength="88" x="2484.25" y="574.4102">NomeCompleto</text><line style="stroke:#A80036;stroke-width:1.5;" x1="2414" x2="2610" y1="585.5" y2="585.5"/><line style="stroke:#A80036;stroke-width:1.5;" x1="2414" x2="2610" y1="593.5" y2="593.5"/><text fill="#000000" font-family="sans-serif" font-size="11" lengthAdjust="spacing" textLength="186" x="2419" y="608.9189">+createNomeCompleto(nomeCompleto)</text><text fill="#000000" font-family="sans-serif" font-size="11" lengthAdjust="spacing" textLength="119" x="2419" y="622.7549">-validate(nomeCompleto)</text><!--MD5=[60b365d8f6d5c8e3e73e4be0aaaeb2da]
class NumeroMecanografico--><rect codeLine="37" fill="#FEFECE" filter="url(#f1r28agloo9cu6)" height="75.6719" id="NumeroMecanografico" style="stroke:#A80036;stroke-width:1.5;" width="274" x="2104" y="553.5"/><ellipse cx="2174.25" cy="569.5" fill="#ADD1B2" rx="11" ry="11" style="stroke:#A80036;stroke-width:1.0;"/><path d="M2176.25,566 Q2176.4531,565.5 2176.6875,565.25 Q2176.9219,565 2177.1875,565 Q2177.6563,565 2177.9531,565.2813 Q2178.25,565.5625 2178.25,566.2188 L2178.25,567.7813 Q2178.25,568.4375 2177.9688,568.7188 Q2177.6875,569 2177.25,569 Q2176.8594,569 2176.6094,568.8281 Q2176.3594,568.6563 2176.25,568.2031 Q2176.2031,567.8906 2176.0313,567.7188 Q2175.7188,567.3906 2175.1563,567.2031 Q2174.5938,567 2174.0313,567 Q2173.3281,567 2172.7344,567.2813 Q2172.1563,567.5625 2171.7031,568.1875 Q2171.25,568.8125 2171.25,569.6719 L2171.25,570.5938 Q2171.25,571.625 2172.0938,572.3125 Q2172.9375,573 2174.4375,573 Q2175.3281,573 2175.9531,572.7969 Q2176.3125,572.6875 2176.7188,572.3281 Q2176.9844,572.125 2177.125,572.0625 Q2177.2656,572 2177.4375,572 Q2177.7656,572 2178,572.2656 Q2178.25,572.5156 2178.25,572.875 Q2178.25,573.2188 2177.9063,573.625 Q2177.4063,574.2188 2176.6094,574.5469 Q2175.5625,575 2174.2813,575 Q2172.7813,575 2171.5781,574.4063 Q2170.6094,573.9375 2169.9219,572.9219 Q2169.25,571.9063 2169.25,570.7031 L2169.25,569.6094 Q2169.25,568.3594 2169.8438,567.2656 Q2170.4531,566.1719 2171.5,565.5938 Q2172.5625,565 2173.75,565 Q2174.4688,565 2175.0938,565.25 Q2175.7188,565.5 2176.25,566 Z " fill="#000000"/><text fill="#000000" font-family="sans-serif" font-size="12" lengthAdjust="spacing" textLength="125" x="2194.75" y="574.4102">NumeroMecanografico</text><line style="stroke:#A80036;stroke-width:1.5;" x1="2105" x2="2377" y1="585.5" y2="585.5"/><line style="stroke:#A80036;stroke-width:1.5;" x1="2105" x2="2377" y1="593.5" y2="593.5"/><text fill="#000000" font-family="sans-serif" font-size="11" lengthAdjust="spacing" textLength="262" x="2110" y="608.9189">+createNumeroMecanografico(numeroMecanografico)</text><text fill="#000000" font-family="sans-serif" font-size="11" lengthAdjust="spacing" textLength="157" x="2110" y="622.7549">-validate(numeroMecanografico)</text><!--MD5=[77c6229b59f71ada4b7bed0495e5baba]
class Morada--><rect codeLine="42" fill="#FEFECE" filter="url(#f1r28agloo9cu6)" height="75.6719" id="Morada" style="stroke:#A80036;stroke-width:1.5;" width="129" x="1777.5" y="553.5"/><ellipse cx="1817.7" cy="569.5" fill="#ADD1B2" rx="11" ry="11" style="stroke:#A80036;stroke-width:1.0;"/><path d="M1819.7,566 Q1819.9031,565.5 1820.1375,565.25 Q1820.3719,565 1820.6375,565 Q1821.1063,565 1821.4031,565.2813 Q1821.7,565.5625 1821.7,566.2188 L1821.7,567.7813 Q1821.7,568.4375 1821.4188,568.7188 Q1821.1375,569 1820.7,569 Q1820.3094,569 1820.0594,568.8281 Q1819.8094,568.6563 1819.7,568.2031 Q1819.6531,567.8906 1819.4813,567.7188 Q1819.1688,567.3906 1818.6063,567.2031 Q1818.0438,567 1817.4813,567 Q1816.7781,567 1816.1844,567.2813 Q1815.6063,567.5625 1815.1531,568.1875 Q1814.7,568.8125 1814.7,569.6719 L1814.7,570.5938 Q1814.7,571.625 1815.5438,572.3125 Q1816.3875,573 1817.8875,573 Q1818.7781,573 1819.4031,572.7969 Q1819.7625,572.6875 1820.1688,572.3281 Q1820.4344,572.125 1820.575,572.0625 Q1820.7156,572 1820.8875,572 Q1821.2156,572 1821.45,572.2656 Q1821.7,572.5156 1821.7,572.875 Q1821.7,573.2188 1821.3563,573.625 Q1820.8563,574.2188 1820.0594,574.5469 Q1819.0125,575 1817.7313,575 Q1816.2313,575 1815.0281,574.4063 Q1814.0594,573.9375 1813.3719,572.9219 Q1812.7,571.9063 1812.7,570.7031 L1812.7,569.6094 Q1812.7,568.3594 1813.2938,567.2656 Q1813.9031,566.1719 1814.95,565.5938 Q1816.0125,565 1817.2,565 Q1817.9188,565 1818.5438,565.25 Q1819.1688,565.5 1819.7,566 Z " fill="#000000"/><text fill="#000000" font-family="sans-serif" font-size="12" lengthAdjust="spacing" textLength="41" x="1837.3" y="574.4102">Morada</text><line style="stroke:#A80036;stroke-width:1.5;" x1="1778.5" x2="1905.5" y1="585.5" y2="585.5"/><line style="stroke:#A80036;stroke-width:1.5;" x1="1778.5" x2="1905.5" y1="593.5" y2="593.5"/><text fill="#000000" font-family="sans-serif" font-size="11" lengthAdjust="spacing" textLength="117" x="1783.5" y="608.9189">+createMorada(morada)</text><text fill="#000000" font-family="sans-serif" font-size="11" lengthAdjust="spacing" textLength="85" x="1783.5" y="622.7549">-validate(morada)</text><!--MD5=[01da5049b90ccc3cbf20aa1a959f5ad7]
class Contacto--><rect codeLine="47" fill="#FEFECE" filter="url(#f1r28agloo9cu6)" height="75.6719" id="Contacto" style="stroke:#A80036;stroke-width:1.5;" width="142" x="1600" y="553.5"/><ellipse cx="1642.45" cy="569.5" fill="#ADD1B2" rx="11" ry="11" style="stroke:#A80036;stroke-width:1.0;"/><path d="M1644.45,566 Q1644.6531,565.5 1644.8875,565.25 Q1645.1219,565 1645.3875,565 Q1645.8563,565 1646.1531,565.2813 Q1646.45,565.5625 1646.45,566.2188 L1646.45,567.7813 Q1646.45,568.4375 1646.1688,568.7188 Q1645.8875,569 1645.45,569 Q1645.0594,569 1644.8094,568.8281 Q1644.5594,568.6563 1644.45,568.2031 Q1644.4031,567.8906 1644.2313,567.7188 Q1643.9188,567.3906 1643.3563,567.2031 Q1642.7938,567 1642.2313,567 Q1641.5281,567 1640.9344,567.2813 Q1640.3563,567.5625 1639.9031,568.1875 Q1639.45,568.8125 1639.45,569.6719 L1639.45,570.5938 Q1639.45,571.625 1640.2938,572.3125 Q1641.1375,573 1642.6375,573 Q1643.5281,573 1644.1531,572.7969 Q1644.5125,572.6875 1644.9188,572.3281 Q1645.1844,572.125 1645.325,572.0625 Q1645.4656,572 1645.6375,572 Q1645.9656,572 1646.2,572.2656 Q1646.45,572.5156 1646.45,572.875 Q1646.45,573.2188 1646.1063,573.625 Q1645.6063,574.2188 1644.8094,574.5469 Q1643.7625,575 1642.4813,575 Q1640.9813,575 1639.7781,574.4063 Q1638.8094,573.9375 1638.1219,572.9219 Q1637.45,571.9063 1637.45,570.7031 L1637.45,569.6094 Q1637.45,568.3594 1638.0438,567.2656 Q1638.6531,566.1719 1639.7,565.5938 Q1640.7625,565 1641.95,565 Q1642.6688,565 1643.2938,565.25 Q1643.9188,565.5 1644.45,566 Z " fill="#000000"/><text fill="#000000" font-family="sans-serif" font-size="12" lengthAdjust="spacing" textLength="49" x="1662.55" y="574.4102">Contacto</text><line style="stroke:#A80036;stroke-width:1.5;" x1="1601" x2="1741" y1="585.5" y2="585.5"/><line style="stroke:#A80036;stroke-width:1.5;" x1="1601" x2="1741" y1="593.5" y2="593.5"/><text fill="#000000" font-family="sans-serif" font-size="11" lengthAdjust="spacing" textLength="130" x="1606" y="608.9189">+createContacto(contacto)</text><text fill="#000000" font-family="sans-serif" font-size="11" lengthAdjust="spacing" textLength="91" x="1606" y="622.7549">-validate(contacto)</text><!--MD5=[315a42a71e988f1f49de9ca39c88dd27]
class DataNascimento--><rect codeLine="52" fill="#FEFECE" filter="url(#f1r28agloo9cu6)" height="75.6719" id="DataNascimento" style="stroke:#A80036;stroke-width:1.5;" width="212" x="1353" y="553.5"/><ellipse cx="1408.25" cy="569.5" fill="#ADD1B2" rx="11" ry="11" style="stroke:#A80036;stroke-width:1.0;"/><path d="M1410.25,566 Q1410.4531,565.5 1410.6875,565.25 Q1410.9219,565 1411.1875,565 Q1411.6563,565 1411.9531,565.2813 Q1412.25,565.5625 1412.25,566.2188 L1412.25,567.7813 Q1412.25,568.4375 1411.9688,568.7188 Q1411.6875,569 1411.25,569 Q1410.8594,569 1410.6094,568.8281 Q1410.3594,568.6563 1410.25,568.2031 Q1410.2031,567.8906 1410.0313,567.7188 Q1409.7188,567.3906 1409.1563,567.2031 Q1408.5938,567 1408.0313,567 Q1407.3281,567 1406.7344,567.2813 Q1406.1563,567.5625 1405.7031,568.1875 Q1405.25,568.8125 1405.25,569.6719 L1405.25,570.5938 Q1405.25,571.625 1406.0938,572.3125 Q1406.9375,573 1408.4375,573 Q1409.3281,573 1409.9531,572.7969 Q1410.3125,572.6875 1410.7188,572.3281 Q1410.9844,572.125 1411.125,572.0625 Q1411.2656,572 1411.4375,572 Q1411.7656,572 1412,572.2656 Q1412.25,572.5156 1412.25,572.875 Q1412.25,573.2188 1411.9063,573.625 Q1411.4063,574.2188 1410.6094,574.5469 Q1409.5625,575 1408.2813,575 Q1406.7813,575 1405.5781,574.4063 Q1404.6094,573.9375 1403.9219,572.9219 Q1403.25,571.9063 1403.25,570.7031 L1403.25,569.6094 Q1403.25,568.3594 1403.8438,567.2656 Q1404.4531,566.1719 1405.5,565.5938 Q1406.5625,565 1407.75,565 Q1408.4688,565 1409.0938,565.25 Q1409.7188,565.5 1410.25,566 Z " fill="#000000"/><text fill="#000000" font-family="sans-serif" font-size="12" lengthAdjust="spacing" textLength="93" x="1428.75" y="574.4102">DataNascimento</text><line style="stroke:#A80036;stroke-width:1.5;" x1="1354" x2="1564" y1="585.5" y2="585.5"/><line style="stroke:#A80036;stroke-width:1.5;" x1="1354" x2="1564" y1="593.5" y2="593.5"/><text fill="#000000" font-family="sans-serif" font-size="11" lengthAdjust="spacing" textLength="200" x="1359" y="608.9189">+createDataNascimento(dataNascimento)</text><text fill="#000000" font-family="sans-serif" font-size="11" lengthAdjust="spacing" textLength="126" x="1359" y="622.7549">-validate(dataNascimento)</text><!--MD5=[b6491c6bfca6d442eeced1751ed765da]
class Funcao--><rect codeLine="57" fill="#FEFECE" filter="url(#f1r28agloo9cu6)" height="75.6719" id="Funcao" style="stroke:#A80036;stroke-width:1.5;" width="127" x="1941.5" y="553.5"/><ellipse cx="1980.8" cy="569.5" fill="#ADD1B2" rx="11" ry="11" style="stroke:#A80036;stroke-width:1.0;"/><path d="M1982.8,566 Q1983.0031,565.5 1983.2375,565.25 Q1983.4719,565 1983.7375,565 Q1984.2063,565 1984.5031,565.2813 Q1984.8,565.5625 1984.8,566.2188 L1984.8,567.7813 Q1984.8,568.4375 1984.5188,568.7188 Q1984.2375,569 1983.8,569 Q1983.4094,569 1983.1594,568.8281 Q1982.9094,568.6563 1982.8,568.2031 Q1982.7531,567.8906 1982.5813,567.7188 Q1982.2688,567.3906 1981.7063,567.2031 Q1981.1438,567 1980.5813,567 Q1979.8781,567 1979.2844,567.2813 Q1978.7063,567.5625 1978.2531,568.1875 Q1977.8,568.8125 1977.8,569.6719 L1977.8,570.5938 Q1977.8,571.625 1978.6438,572.3125 Q1979.4875,573 1980.9875,573 Q1981.8781,573 1982.5031,572.7969 Q1982.8625,572.6875 1983.2688,572.3281 Q1983.5344,572.125 1983.675,572.0625 Q1983.8156,572 1983.9875,572 Q1984.3156,572 1984.55,572.2656 Q1984.8,572.5156 1984.8,572.875 Q1984.8,573.2188 1984.4563,573.625 Q1983.9563,574.2188 1983.1594,574.5469 Q1982.1125,575 1980.8313,575 Q1979.3313,575 1978.1281,574.4063 Q1977.1594,573.9375 1976.4719,572.9219 Q1975.8,571.9063 1975.8,570.7031 L1975.8,569.6094 Q1975.8,568.3594 1976.3938,567.2656 Q1977.0031,566.1719 1978.05,565.5938 Q1979.1125,565 1980.3,565 Q1981.0188,565 1981.6438,565.25 Q1982.2688,565.5 1982.8,566 Z " fill="#000000"/><text fill="#000000" font-family="sans-serif" font-size="12" lengthAdjust="spacing" textLength="41" x="2000.2" y="574.4102">Funcao</text><line style="stroke:#A80036;stroke-width:1.5;" x1="1942.5" x2="2067.5" y1="585.5" y2="585.5"/><line style="stroke:#A80036;stroke-width:1.5;" x1="1942.5" x2="2067.5" y1="593.5" y2="593.5"/><text fill="#000000" font-family="sans-serif" font-size="11" lengthAdjust="spacing" textLength="115" x="1947.5" y="608.9189">+createFuncao(funcao)</text><text fill="#000000" font-family="sans-serif" font-size="11" lengthAdjust="spacing" textLength="83" x="1947.5" y="622.7549">-validate(funcao)</text><!--MD5=[a9c3518912244ace3e0f1f7595c5b60b]
class ColaboradorBuilder--><rect codeLine="63" fill="#FEFECE" filter="url(#f1r28agloo9cu6)" height="158.6875" id="ColaboradorBuilder" style="stroke:#A80036;stroke-width:1.5;" width="202" x="2843" y="512"/><ellipse cx="2885.9" cy="528" fill="#ADD1B2" rx="11" ry="11" style="stroke:#A80036;stroke-width:1.0;"/><path d="M2887.9,524.5 Q2888.1031,524 2888.3375,523.75 Q2888.5719,523.5 2888.8375,523.5 Q2889.3063,523.5 2889.6031,523.7813 Q2889.9,524.0625 2889.9,524.7188 L2889.9,526.2813 Q2889.9,526.9375 2889.6188,527.2188 Q2889.3375,527.5 2888.9,527.5 Q2888.5094,527.5 2888.2594,527.3281 Q2888.0094,527.1563 2887.9,526.7031 Q2887.8531,526.3906 2887.6813,526.2188 Q2887.3688,525.8906 2886.8063,525.7031 Q2886.2438,525.5 2885.6813,525.5 Q2884.9781,525.5 2884.3844,525.7813 Q2883.8063,526.0625 2883.3531,526.6875 Q2882.9,527.3125 2882.9,528.1719 L2882.9,529.0938 Q2882.9,530.125 2883.7438,530.8125 Q2884.5875,531.5 2886.0875,531.5 Q2886.9781,531.5 2887.6031,531.2969 Q2887.9625,531.1875 2888.3688,530.8281 Q2888.6344,530.625 2888.775,530.5625 Q2888.9156,530.5 2889.0875,530.5 Q2889.4156,530.5 2889.65,530.7656 Q2889.9,531.0156 2889.9,531.375 Q2889.9,531.7188 2889.5563,532.125 Q2889.0563,532.7188 2888.2594,533.0469 Q2887.2125,533.5 2885.9313,533.5 Q2884.4313,533.5 2883.2281,532.9063 Q2882.2594,532.4375 2881.5719,531.4219 Q2880.9,530.4063 2880.9,529.2031 L2880.9,528.1094 Q2880.9,526.8594 2881.4938,525.7656 Q2882.1031,524.6719 2883.15,524.0938 Q2884.2125,523.5 2885.4,523.5 Q2886.1188,523.5 2886.7438,523.75 Q2887.3688,524 2887.9,524.5 Z " fill="#000000"/><text fill="#000000" font-family="sans-serif" font-size="12" lengthAdjust="spacing" textLength="108" x="2906.1" y="532.9102">ColaboradorBuilder</text><line style="stroke:#A80036;stroke-width:1.5;" x1="2844" x2="3044" y1="544" y2="544"/><line style="stroke:#A80036;stroke-width:1.5;" x1="2844" x2="3044" y1="552" y2="552"/><text fill="#000000" font-family="sans-serif" font-size="11" lengthAdjust="spacing" textLength="45" x="2849" y="567.4189">+create()</text><text fill="#000000" font-family="sans-serif" font-size="11" lengthAdjust="spacing" textLength="176" x="2849" y="581.2549">+withNomeCompleto(nomeCompleto)</text><text fill="#000000" font-family="sans-serif" font-size="11" lengthAdjust="spacing" textLength="140" x="2849" y="595.0908">+withNumMecan(numMecan)</text><text fill="#000000" font-family="sans-serif" font-size="11" lengthAdjust="spacing" textLength="107" x="2849" y="608.9268">+withMorada(morada)</text><text fill="#000000" font-family="sans-serif" font-size="11" lengthAdjust="spacing" textLength="120" x="2849" y="622.7627">+withContacto(contacto)</text><text fill="#000000" font-family="sans-serif" font-size="11" lengthAdjust="spacing" textLength="190" x="2849" y="636.5986">+withDataNascimento(dataNascimento)</text><text fill="#000000" font-family="sans-serif" font-size="11" lengthAdjust="spacing" textLength="105" x="2849" y="650.4346">+withFuncao(funcao)</text><text fill="#000000" font-family="sans-serif" font-size="11" lengthAdjust="spacing" textLength="104" x="2849" y="664.2705">+createColaborador()</text><!--MD5=[e8c189551b7885b999ad7cefb30fc2a3]
class PersistenceContext--><rect codeLine="77" fill="#FEFECE" filter="url(#f1r28agloo9cu6)" height="61.8359" id="PersistenceContext" style="stroke:#A80036;stroke-width:1.5;" width="139" x="32.5" y="560.5"/><ellipse cx="47.5" cy="576.5" fill="#ADD1B2" rx="11" ry="11" style="stroke:#A80036;stroke-width:1.0;"/><path d="M49.5,573 Q49.7031,572.5 49.9375,572.25 Q50.1719,572 50.4375,572 Q50.9063,572 51.2031,572.2813 Q51.5,572.5625 51.5,573.2188 L51.5,574.7813 Q51.5,575.4375 51.2188,575.7188 Q50.9375,576 50.5,576 Q50.1094,576 49.8594,575.8281 Q49.6094,575.6563 49.5,575.2031 Q49.4531,574.8906 49.2813,574.7188 Q48.9688,574.3906 48.4063,574.2031 Q47.8438,574 47.2813,574 Q46.5781,574 45.9844,574.2813 Q45.4063,574.5625 44.9531,575.1875 Q44.5,575.8125 44.5,576.6719 L44.5,577.5938 Q44.5,578.625 45.3438,579.3125 Q46.1875,580 47.6875,580 Q48.5781,580 49.2031,579.7969 Q49.5625,579.6875 49.9688,579.3281 Q50.2344,579.125 50.375,579.0625 Q50.5156,579 50.6875,579 Q51.0156,579 51.25,579.2656 Q51.5,579.5156 51.5,579.875 Q51.5,580.2188 51.1563,580.625 Q50.6563,581.2188 49.8594,581.5469 Q48.8125,582 47.5313,582 Q46.0313,582 44.8281,581.4063 Q43.8594,580.9375 43.1719,579.9219 Q42.5,578.9063 42.5,577.7031 L42.5,576.6094 Q42.5,575.3594 43.0938,574.2656 Q43.7031,573.1719 44.75,572.5938 Q45.8125,572 47,572 Q47.7188,572 48.3438,572.25 Q48.9688,572.5 49.5,573 Z " fill="#000000"/><text fill="#000000" font-family="sans-serif" font-size="12" lengthAdjust="spacing" textLength="107" x="61.5" y="581.4102">PersistenceContext</text><line style="stroke:#A80036;stroke-width:1.5;" x1="33.5" x2="170.5" y1="592.5" y2="592.5"/><line style="stroke:#A80036;stroke-width:1.5;" x1="33.5" x2="170.5" y1="600.5" y2="600.5"/><text fill="#000000" font-family="sans-serif" font-size="11" lengthAdjust="spacing" textLength="71" x="38.5" y="615.9189">+repositories()</text><!--MD5=[b8e4c95865208c934bfcfda4f90bf50c]
class AppSettings--><rect codeLine="81" fill="#FEFECE" filter="url(#f1r28agloo9cu6)" height="75.6719" id="AppSettings" style="stroke:#A80036;stroke-width:1.5;" width="130" x="275" y="553.5"/><ellipse cx="304.4" cy="569.5" fill="#ADD1B2" rx="11" ry="11" style="stroke:#A80036;stroke-width:1.0;"/><path d="M306.4,566 Q306.6031,565.5 306.8375,565.25 Q307.0719,565 307.3375,565 Q307.8063,565 308.1031,565.2813 Q308.4,565.5625 308.4,566.2188 L308.4,567.7813 Q308.4,568.4375 308.1188,568.7188 Q307.8375,569 307.4,569 Q307.0094,569 306.7594,568.8281 Q306.5094,568.6563 306.4,568.2031 Q306.3531,567.8906 306.1813,567.7188 Q305.8688,567.3906 305.3063,567.2031 Q304.7438,567 304.1813,567 Q303.4781,567 302.8844,567.2813 Q302.3063,567.5625 301.8531,568.1875 Q301.4,568.8125 301.4,569.6719 L301.4,570.5938 Q301.4,571.625 302.2438,572.3125 Q303.0875,573 304.5875,573 Q305.4781,573 306.1031,572.7969 Q306.4625,572.6875 306.8688,572.3281 Q307.1344,572.125 307.275,572.0625 Q307.4156,572 307.5875,572 Q307.9156,572 308.15,572.2656 Q308.4,572.5156 308.4,572.875 Q308.4,573.2188 308.0563,573.625 Q307.5563,574.2188 306.7594,574.5469 Q305.7125,575 304.4313,575 Q302.9313,575 301.7281,574.4063 Q300.7594,573.9375 300.0719,572.9219 Q299.4,571.9063 299.4,570.7031 L299.4,569.6094 Q299.4,568.3594 299.9938,567.2656 Q300.6031,566.1719 301.65,565.5938 Q302.7125,565 303.9,565 Q304.6188,565 305.2438,565.25 Q305.8688,565.5 306.4,566 Z " fill="#000000"/><text fill="#000000" font-family="sans-serif" font-size="12" lengthAdjust="spacing" textLength="66" x="321.6" y="574.4102">AppSettings</text><line style="stroke:#A80036;stroke-width:1.5;" x1="276" x2="404" y1="585.5" y2="585.5"/><line style="stroke:#A80036;stroke-width:1.5;" x1="276" x2="404" y1="593.5" y2="593.5"/><text fill="#000000" font-family="sans-serif" font-size="11" lengthAdjust="spacing" textLength="55" x="281" y="608.9189">+instance()</text><text fill="#000000" font-family="sans-serif" font-size="11" lengthAdjust="spacing" textLength="118" x="281" y="622.7549">+getRepositoryFactory()</text><!--MD5=[48590afff58a68e2fcba47824d6f8a11]
class RepositoryFactory--><rect codeLine="87" fill="#FEFECE" filter="url(#f1r28agloo9cu6)" height="75.6719" id="RepositoryFactory" style="stroke:#A80036;stroke-width:1.5;" width="130" x="842" y="553.5"/><ellipse cx="857" cy="569.5" fill="#ADD1B2" rx="11" ry="11" style="stroke:#A80036;stroke-width:1.0;"/><path d="M859,566 Q859.2031,565.5 859.4375,565.25 Q859.6719,565 859.9375,565 Q860.4063,565 860.7031,565.2813 Q861,565.5625 861,566.2188 L861,567.7813 Q861,568.4375 860.7188,568.7188 Q860.4375,569 860,569 Q859.6094,569 859.3594,568.8281 Q859.1094,568.6563 859,568.2031 Q858.9531,567.8906 858.7813,567.7188 Q858.4688,567.3906 857.9063,567.2031 Q857.3438,567 856.7813,567 Q856.0781,567 855.4844,567.2813 Q854.9063,567.5625 854.4531,568.1875 Q854,568.8125 854,569.6719 L854,570.5938 Q854,571.625 854.8438,572.3125 Q855.6875,573 857.1875,573 Q858.0781,573 858.7031,572.7969 Q859.0625,572.6875 859.4688,572.3281 Q859.7344,572.125 859.875,572.0625 Q860.0156,572 860.1875,572 Q860.5156,572 860.75,572.2656 Q861,572.5156 861,572.875 Q861,573.2188 860.6563,573.625 Q860.1563,574.2188 859.3594,574.5469 Q858.3125,575 857.0313,575 Q855.5313,575 854.3281,574.4063 Q853.3594,573.9375 852.6719,572.9219 Q852,571.9063 852,570.7031 L852,569.6094 Q852,568.3594 852.5938,567.2656 Q853.2031,566.1719 854.25,565.5938 Q855.3125,565 856.5,565 Q857.2188,565 857.8438,565.25 Q858.4688,565.5 859,566 Z " fill="#000000"/><text fill="#000000" font-family="sans-serif" font-size="12" lengthAdjust="spacing" textLength="98" x="871" y="574.4102">RepositoryFactory</text><line style="stroke:#A80036;stroke-width:1.5;" x1="843" x2="971" y1="585.5" y2="585.5"/><line style="stroke:#A80036;stroke-width:1.5;" x1="843" x2="971" y1="593.5" y2="593.5"/><text fill="#000000" font-family="sans-serif" font-size="11" lengthAdjust="spacing" textLength="84" x="848" y="608.9189">+colaboradores()</text><text fill="#000000" font-family="sans-serif" font-size="11" lengthAdjust="spacing" textLength="54" x="848" y="622.7549">+funcoes()</text><!--MD5=[9a0e8f7957502662f95e783c1c3d84fe]
class ColaboradorRepository--><rect codeLine="94" fill="#FEFECE" filter="url(#f1r28agloo9cu6)" height="75.6719" id="ColaboradorRepository" style="stroke:#A80036;stroke-width:1.5;" width="160" x="607" y="553.5"/><ellipse cx="622" cy="569.5" fill="#ADD1B2" rx="11" ry="11" style="stroke:#A80036;stroke-width:1.0;"/><path d="M624,566 Q624.2031,565.5 624.4375,565.25 Q624.6719,565 624.9375,565 Q625.4063,565 625.7031,565.2813 Q626,565.5625 626,566.2188 L626,567.7813 Q626,568.4375 625.7188,568.7188 Q625.4375,569 625,569 Q624.6094,569 624.3594,568.8281 Q624.1094,568.6563 624,568.2031 Q623.9531,567.8906 623.7813,567.7188 Q623.4688,567.3906 622.9063,567.2031 Q622.3438,567 621.7813,567 Q621.0781,567 620.4844,567.2813 Q619.9063,567.5625 619.4531,568.1875 Q619,568.8125 619,569.6719 L619,570.5938 Q619,571.625 619.8438,572.3125 Q620.6875,573 622.1875,573 Q623.0781,573 623.7031,572.7969 Q624.0625,572.6875 624.4688,572.3281 Q624.7344,572.125 624.875,572.0625 Q625.0156,572 625.1875,572 Q625.5156,572 625.75,572.2656 Q626,572.5156 626,572.875 Q626,573.2188 625.6563,573.625 Q625.1563,574.2188 624.3594,574.5469 Q623.3125,575 622.0313,575 Q620.5313,575 619.3281,574.4063 Q618.3594,573.9375 617.6719,572.9219 Q617,571.9063 617,570.7031 L617,569.6094 Q617,568.3594 617.5938,567.2656 Q618.2031,566.1719 619.25,565.5938 Q620.3125,565 621.5,565 Q622.2188,565 622.8438,565.25 Q623.4688,565.5 624,566 Z " fill="#000000"/><text fill="#000000" font-family="sans-serif" font-size="12" lengthAdjust="spacing" textLength="128" x="636" y="574.4102">ColaboradorRepository</text><line style="stroke:#A80036;stroke-width:1.5;" x1="608" x2="766" y1="585.5" y2="585.5"/><line style="stroke:#A80036;stroke-width:1.5;" x1="608" x2="766" y1="593.5" y2="593.5"/><text fill="#000000" font-family="sans-serif" font-size="11" lengthAdjust="spacing" textLength="45" x="613" y="608.9189">+create()</text><text fill="#000000" font-family="sans-serif" font-size="11" lengthAdjust="spacing" textLength="96" x="613" y="622.7549">+save(colaborador)</text><!--MD5=[25ef1d309e5391bf1cd66b01d6bc17b2]
class FuncaoRepository--><rect codeLine="99" fill="#FEFECE" filter="url(#f1r28agloo9cu6)" height="75.6719" id="FuncaoRepository" style="stroke:#A80036;stroke-width:1.5;" width="132" x="440" y="553.5"/><ellipse cx="455" cy="569.5" fill="#ADD1B2" rx="11" ry="11" style="stroke:#A80036;stroke-width:1.0;"/><path d="M457,566 Q457.2031,565.5 457.4375,565.25 Q457.6719,565 457.9375,565 Q458.4063,565 458.7031,565.2813 Q459,565.5625 459,566.2188 L459,567.7813 Q459,568.4375 458.7188,568.7188 Q458.4375,569 458,569 Q457.6094,569 457.3594,568.8281 Q457.1094,568.6563 457,568.2031 Q456.9531,567.8906 456.7813,567.7188 Q456.4688,567.3906 455.9063,567.2031 Q455.3438,567 454.7813,567 Q454.0781,567 453.4844,567.2813 Q452.9063,567.5625 452.4531,568.1875 Q452,568.8125 452,569.6719 L452,570.5938 Q452,571.625 452.8438,572.3125 Q453.6875,573 455.1875,573 Q456.0781,573 456.7031,572.7969 Q457.0625,572.6875 457.4688,572.3281 Q457.7344,572.125 457.875,572.0625 Q458.0156,572 458.1875,572 Q458.5156,572 458.75,572.2656 Q459,572.5156 459,572.875 Q459,573.2188 458.6563,573.625 Q458.1563,574.2188 457.3594,574.5469 Q456.3125,575 455.0313,575 Q453.5313,575 452.3281,574.4063 Q451.3594,573.9375 450.6719,572.9219 Q450,571.9063 450,570.7031 L450,569.6094 Q450,568.3594 450.5938,567.2656 Q451.2031,566.1719 452.25,565.5938 Q453.3125,565 454.5,565 Q455.2188,565 455.8438,565.25 Q456.4688,565.5 457,566 Z " fill="#000000"/><text fill="#000000" font-family="sans-serif" font-size="12" lengthAdjust="spacing" textLength="100" x="469" y="574.4102">FuncaoRepository</text><line style="stroke:#A80036;stroke-width:1.5;" x1="441" x2="571" y1="585.5" y2="585.5"/><line style="stroke:#A80036;stroke-width:1.5;" x1="441" x2="571" y1="593.5" y2="593.5"/><text fill="#000000" font-family="sans-serif" font-size="11" lengthAdjust="spacing" textLength="45" x="446" y="608.9189">+create()</text><text fill="#000000" font-family="sans-serif" font-size="11" lengthAdjust="spacing" textLength="72" x="446" y="622.7549">+save(funcao)</text><!--MD5=[efc07359af4002ede352d360e3e5f791]
link EspecificarColaboradorUI to EspecificarColaboradorController--><path codeLine="108" d="M872,110.22 C872,134.81 872,174.83 872,209.78 " fill="none" id="EspecificarColaboradorUI-to-EspecificarColaboradorController" style="stroke:#A80036;stroke-width:1.0;stroke-dasharray:7.0,7.0;"/><polygon fill="#A80036" points="872,214.9,876,205.9,872,209.9,868,205.9,872,214.9" style="stroke:#A80036;stroke-width:1.0;"/><!--MD5=[cf0990d56f2a1429403674d4e675ed46]
link EspecificarColaboradorController to ColaboradorBuilder--><path codeLine="109" d="M1016.13,282.61 C1443.85,286.98 2685.78,307.91 2839,404 C2876.36,427.43 2901.64,469.21 2918.02,507.3 " fill="none" id="EspecificarColaboradorController-to-ColaboradorBuilder" style="stroke:#A80036;stroke-width:1.0;stroke-dasharray:7.0,7.0;"/><polygon fill="#A80036" points="2919.98,511.93,2920.1631,502.0828,2918.0346,507.324,2912.7935,505.1955,2919.98,511.93" style="stroke:#A80036;stroke-width:1.0;"/><!--MD5=[2163307b8210c90ad7d9f9a6825f440f]
link EspecificarColaboradorController to PersistenceContext--><path codeLine="110" d="M727.72,283.54 C596.79,291.33 402.66,318.16 258,404 C195.3,441.2 146.2,513.09 120.89,555.93 " fill="none" id="EspecificarColaboradorController-to-PersistenceContext" style="stroke:#A80036;stroke-width:1.0;stroke-dasharray:7.0,7.0;"/><polygon fill="#A80036" points="118.21,560.5,126.2118,554.7579,120.7382,556.1863,119.3099,550.7127,118.21,560.5" style="stroke:#A80036;stroke-width:1.0;"/><!--MD5=[d66efb439816738ddd3e9d5fff4bf3a7]
link AppSettings to RepositoryFactory--><path codeLine="112" d="M346.84,553.3 C356.37,512.73 377.95,450.57 424,422 C491.79,379.94 711.86,385.9 783,422 C834.71,448.24 870.03,507.29 889.36,548.26 " fill="none" id="AppSettings-to-RepositoryFactory" style="stroke:#A80036;stroke-width:1.0;"/><polygon fill="#A80036" points="891.64,553.17,891.4571,543.3228,889.5248,548.6394,884.2082,546.7072,891.64,553.17" style="stroke:#A80036;stroke-width:1.0;"/><text fill="#000000" font-family="sans-serif" font-size="13" lengthAdjust="spacing" textLength="21" x="708.5" y="392.4951">cria</text><!--MD5=[27fe1c91fe18bafc5695938053528609]
link PersistenceContext to AppSettings--><path codeLine="113" d="M171.8,591.5 C202.53,591.5 238.57,591.5 269.39,591.5 " fill="none" id="PersistenceContext-to-AppSettings" style="stroke:#A80036;stroke-width:1.0;"/><polygon fill="#A80036" points="274.69,591.5,265.69,587.5,269.69,591.5,265.69,595.5,274.69,591.5" style="stroke:#A80036;stroke-width:1.0;"/><text fill="#000000" font-family="sans-serif" font-size="13" lengthAdjust="spacing" textLength="67" x="189.75" y="584.9951">implementa</text><!--MD5=[f69c8ab88bf9359224da8c715bf10dd8]
link RepositoryFactory to ColaboradorRepository--><path codeLine="115" d="M841.8,591.5 C820,591.5 795.36,591.5 772.26,591.5 " fill="none" id="RepositoryFactory-to-ColaboradorRepository" style="stroke:#A80036;stroke-width:1.0;"/><polygon fill="#A80036" points="767.05,591.5,776.05,595.5,772.05,591.5,776.05,587.5,767.05,591.5" style="stroke:#A80036;stroke-width:1.0;"/><text fill="#000000" font-family="sans-serif" font-size="13" lengthAdjust="spacing" textLength="38" x="785.5" y="584.9951">possui</text><text fill="#000000" font-family="sans-serif" font-size="13" lengthAdjust="spacing" textLength="7" x="826.8566" y="588.1094">1</text><text fill="#000000" font-family="sans-serif" font-size="13" lengthAdjust="spacing" textLength="7" x="775.0134" y="588.265">1</text><!--MD5=[94834d6022310dc5d9983d74b4a1b839]
link RepositoryFactory to FuncaoRepository--><path codeLine="116" d="M891.64,553.17 C872.87,512.15 836.81,449.31 783,422 C706.51,383.18 662.89,376.77 590,422 C545.93,449.34 524.27,507.45 514.14,547.96 " fill="none" id="RepositoryFactory-to-FuncaoRepository" style="stroke:#A80036;stroke-width:1.0;"/><polygon fill="#A80036" points="512.84,553.3,518.8603,545.5054,514.0258,548.4426,511.0885,543.6081,512.84,553.3" style="stroke:#A80036;stroke-width:1.0;"/><text fill="#000000" font-family="sans-serif" font-size="13" lengthAdjust="spacing" textLength="38" x="633" y="392.4951">possui</text><text fill="#000000" font-family="sans-serif" font-size="13" lengthAdjust="spacing" textLength="7" x="881.3984" y="542.7606">1</text><text fill="#000000" font-family="sans-serif" font-size="13" lengthAdjust="spacing" textLength="7" x="506.4349" y="542.6263">1</text><!--MD5=[5bcf8820858effeb55a15e355c78d738]
link ColaboradorRepository to Colaborador--><path codeLine="118" d="M705.29,553.4 C727.4,512.27 768.9,449.02 826,422 C891.08,391.2 920.89,395.91 988,422 C1053.49,447.46 1109.89,508.13 1142.66,549.53 " fill="none" id="ColaboradorRepository-to-Colaborador" style="stroke:#A80036;stroke-width:1.0;"/><polygon fill="#A80036" points="1145.76,553.47,1143.3464,543.9215,1142.6715,549.5379,1137.0551,548.863,1145.76,553.47" style="stroke:#A80036;stroke-width:1.0;"/><text fill="#000000" font-family="sans-serif" font-size="13" lengthAdjust="spacing" textLength="39" x="889.5" y="392.4951">guarda</text><text fill="#000000" font-family="sans-serif" font-size="13" lengthAdjust="spacing" textLength="7" x="700.9245" y="542.7441">1</text><text fill="#000000" font-family="sans-serif" font-size="13" lengthAdjust="spacing" textLength="5" x="1135.2767" y="542.541">*</text><!--MD5=[c0a5c765c5ce7cf7289fac39c81461b4]
link ColaboradorBuilder to Colaborador--><path codeLine="119" d="M2915.4,511.95 C2898.72,477.85 2873.93,441.45 2839,422 C2766.05,381.38 1412.83,389.29 1336,422 C1275.71,447.66 1226.95,507.77 1198.96,549.04 " fill="none" id="ColaboradorBuilder-to-Colaborador" style="stroke:#A80036;stroke-width:1.0;"/><polygon fill="#A80036" points="1196.15,553.22,1204.4913,547.9834,1198.94,549.0708,1197.8526,543.5194,1196.15,553.22" style="stroke:#A80036;stroke-width:1.0;"/><text fill="#000000" font-family="sans-serif" font-size="13" lengthAdjust="spacing" textLength="21" x="1302.5" y="392.4951">cria</text><text fill="#000000" font-family="sans-serif" font-size="13" lengthAdjust="spacing" textLength="7" x="2905.3405" y="501.1322">1</text><text fill="#000000" font-family="sans-serif" font-size="13" lengthAdjust="spacing" textLength="5" x="1194.8283" y="542.532">*</text><!--MD5=[cedf2a02ecef55d381e1e4c70379f9b7]
link Colaborador to NomeCurto--><path codeLine="121" d="M1196.15,553.22 C1223.62,511.93 1273.64,448.55 1336,422 C1402.09,393.86 2566.78,386.1 2629,422 C2675.82,449.01 2702.29,507.88 2715.62,548.6 " fill="none" id="Colaborador-to-NomeCurto" style="stroke:#A80036;stroke-width:1.0;"/><polygon fill="#A80036" points="2717.19,553.47,2718.2535,543.6787,2715.6646,548.7084,2710.6349,546.1194,2717.19,553.47" style="stroke:#A80036;stroke-width:1.0;"/><text fill="#000000" font-family="sans-serif" font-size="13" lengthAdjust="spacing" textLength="22" x="1335" y="392.4951">tem</text><text fill="#000000" font-family="sans-serif" font-size="13" lengthAdjust="spacing" textLength="7" x="1192.6502" y="542.532">1</text><text fill="#000000" font-family="sans-serif" font-size="13" lengthAdjust="spacing" textLength="7" x="2707.736" y="542.541">1</text><!--MD5=[db86a666d1e8c76b6007677491ba2596]
link Colaborador to NomeCompleto--><path codeLine="122" d="M1196.15,553.22 C1223.62,511.93 1273.64,448.55 1336,422 C1444.37,375.87 2291.82,367.06 2396,422 C2446.16,448.45 2478.77,507.46 2496.27,548.35 " fill="none" id="Colaborador-to-NomeCompleto" style="stroke:#A80036;stroke-width:1.0;"/><polygon fill="#A80036" points="2498.33,553.25,2498.5131,543.4028,2496.3846,548.644,2491.1435,546.5155,2498.33,553.25" style="stroke:#A80036;stroke-width:1.0;"/><text fill="#000000" font-family="sans-serif" font-size="13" lengthAdjust="spacing" textLength="22" x="1366" y="392.4951">tem</text><text fill="#000000" font-family="sans-serif" font-size="13" lengthAdjust="spacing" textLength="7" x="1200.897" y="542.532">1</text><text fill="#000000" font-family="sans-serif" font-size="13" lengthAdjust="spacing" textLength="7" x="2488.2716" y="542.5674">1</text><!--MD5=[43054636d7e81e1f6481b7e30435a741]
link Colaborador to NumeroMecanografico--><path codeLine="123" d="M1196.15,553.22 C1223.62,511.93 1273.64,448.55 1336,422 C1412.67,389.36 2009.74,388.4 2086,422 C2144.44,447.75 2190.43,507.63 2216.67,548.85 " fill="none" id="Colaborador-to-NumeroMecanografico" style="stroke:#A80036;stroke-width:1.0;"/><polygon fill="#A80036" points="2219.46,553.28,2218.0348,543.5348,2216.7895,549.0529,2211.2714,547.8076,2219.46,553.28" style="stroke:#A80036;stroke-width:1.0;"/><text fill="#000000" font-family="sans-serif" font-size="13" lengthAdjust="spacing" textLength="98" x="1396" y="392.4951">é identificado por</text><text fill="#000000" font-family="sans-serif" font-size="13" lengthAdjust="spacing" textLength="7" x="1192.6502" y="542.532">1</text><text fill="#000000" font-family="sans-serif" font-size="13" lengthAdjust="spacing" textLength="7" x="2207.9998" y="542.6027">1</text><!--MD5=[6e11fc7dc4f4cce934340b65939f2e4c]
link Colaborador to Funcao--><path codeLine="124" d="M1196.15,553.22 C1223.62,511.93 1273.64,448.55 1336,422 C1396.11,396.41 1868.73,387.16 1924,422 C1967.57,449.47 1988.21,507.54 1997.63,548.01 " fill="none" id="Colaborador-to-Funcao" style="stroke:#A80036;stroke-width:1.0;"/><polygon fill="#A80036" points="1998.83,553.35,2000.7555,543.6912,1997.7318,548.4721,1992.9509,545.4484,1998.83,553.35" style="stroke:#A80036;stroke-width:1.0;"/><text fill="#000000" font-family="sans-serif" font-size="13" lengthAdjust="spacing" textLength="22" x="1502" y="392.4951">tem</text><text fill="#000000" font-family="sans-serif" font-size="13" lengthAdjust="spacing" textLength="7" x="1205.3613" y="542.0145">1</text><text fill="#000000" font-family="sans-serif" font-size="13" lengthAdjust="spacing" textLength="7" x="1990.1075" y="542.6852">1</text><!--MD5=[4c35b97d8a27683586ae8e0fc476485a]
link Colaborador to Morada--><path codeLine="125" d="M1196.15,553.22 C1223.62,511.93 1273.64,448.55 1336,422 C1422.69,385.09 1680.18,371.94 1760,422 C1803.73,449.42 1824.71,507.51 1834.37,547.99 " fill="none" id="Colaborador-to-Morada" style="stroke:#A80036;stroke-width:1.0;"/><polygon fill="#A80036" points="1835.6,553.34,1837.4655,543.6694,1834.4715,548.469,1829.672,545.475,1835.6,553.34" style="stroke:#A80036;stroke-width:1.0;"/><text fill="#000000" font-family="sans-serif" font-size="13" lengthAdjust="spacing" textLength="22" x="1531" y="392.4951">tem</text><text fill="#000000" font-family="sans-serif" font-size="13" lengthAdjust="spacing" textLength="7" x="1200.897" y="542.532">1</text><text fill="#000000" font-family="sans-serif" font-size="13" lengthAdjust="spacing" textLength="7" x="1826.8366" y="542.6734">1</text><!--MD5=[869017d5290d387bd301c9c06e71a6f8]
link Colaborador to Contacto--><path codeLine="126" d="M1196.15,553.22 C1223.62,511.93 1273.64,448.55 1336,422 C1437.01,379 1489.18,365 1583,422 C1627.93,449.3 1650.96,507.8 1661.98,548.38 " fill="none" id="Colaborador-to-Contacto" style="stroke:#A80036;stroke-width:1.0;"/><polygon fill="#A80036" points="1663.27,553.24,1664.8196,543.5138,1661.9835,548.4084,1657.0889,545.5723,1663.27,553.24" style="stroke:#A80036;stroke-width:1.0;"/><text fill="#000000" font-family="sans-serif" font-size="13" lengthAdjust="spacing" textLength="38" x="1560" y="392.4951">possui</text><text fill="#000000" font-family="sans-serif" font-size="13" lengthAdjust="spacing" textLength="7" x="1218.1363" y="542.0145">1</text><text fill="#000000" font-family="sans-serif" font-size="13" lengthAdjust="spacing" textLength="7" x="1654.2697" y="542.5556">1</text><!--MD5=[d8a47b85e411fb44723dcc8af4dfb1bf]
link Colaborador to DataNascimento--><path codeLine="127" d="M1294.29,591.5 C1311.95,591.5 1330.06,591.5 1347.52,591.5 " fill="none" id="Colaborador-to-DataNascimento" style="stroke:#A80036;stroke-width:1.0;"/><polygon fill="#A80036" points="1352.91,591.5,1343.91,587.5,1347.91,591.5,1343.91,595.5,1352.91,591.5" style="stroke:#A80036;stroke-width:1.0;"/><text fill="#000000" font-family="sans-serif" font-size="13" lengthAdjust="spacing" textLength="22" x="1312.5" y="584.9951">tem</text><text fill="#000000" font-family="sans-serif" font-size="13" lengthAdjust="spacing" textLength="7" x="1301.8944" y="588.5283">1</text><text fill="#000000" font-family="sans-serif" font-size="13" lengthAdjust="spacing" textLength="7" x="1337.862" y="588.4326">1</text><!--MD5=[400c122f4582c83305fb473e822a8458]
@startuml
skinparam classAttributeIconSize 0


package "UI" #DDDDDD {
class EspecificarColaboradorUI{

}
}


package "Application" #DDDDDD {
class EspecificarColaboradorController{
+create()
+addColaborador(nomeCurto, nomeCompleto, numMecan,\nmorada, contacto, dataNascimento)
+getFuncaoList()
+addFuncao(funcao)
+saveColaborador()
}
}


package "Domain" #DDDDDD {
class Colaborador{
+create(nomeCurto, nomeCompleto, numMecan,\nmorada, contacto, dataNascimento,funcao)
}

class NomeCurto {
+createNomeCurto(nomeCurto)
-validate(nomeCurto)
}

class NomeCompleto {
+createNomeCompleto(nomeCompleto)
-validate(nomeCompleto)
}

class NumeroMecanografico {
+createNumeroMecanografico(numeroMecanografico)
-validate(numeroMecanografico)
}

class Morada {
+createMorada(morada)
-validate(morada)
}

class Contacto {
+createContacto(contacto)
-validate(contacto)
}

class DataNascimento {
+createDataNascimento(dataNascimento)
-validate(dataNascimento)
}

class Funcao {
+createFuncao(funcao)
-validate(funcao)
}

package Builder #DDDDDD {
class ColaboradorBuilder{
+create()
+withNomeCompleto(nomeCompleto)
+withNumMecan(numMecan)
+withMorada(morada)
+withContacto(contacto)
+withDataNascimento(dataNascimento)
+withFuncao(funcao)
+createColaborador()
}
}
}

package Persistence #DDDDDD {
class PersistenceContext{
+repositories()
}

class AppSettings{
+instance()
+getRepositoryFactory()
}

package Factory #DDDDDD {
class RepositoryFactory{
+colaboradores()
+funcoes()
}
}

package "Repository" #DDDDDD {
class ColaboradorRepository{
+create()
+save(colaborador)
}

class FuncaoRepository{
+create()
+save(funcao)
}
}

}


EspecificarColaboradorUI ..> EspecificarColaboradorController
EspecificarColaboradorController ..> ColaboradorBuilder
EspecificarColaboradorController ..> PersistenceContext

AppSettings -> RepositoryFactory : cria
PersistenceContext -> AppSettings : implementa

RepositoryFactory "1" -> "1" ColaboradorRepository : possui
RepositoryFactory "1" -> "1" FuncaoRepository : possui

ColaboradorRepository "1" -> "*" Colaborador : guarda
ColaboradorBuilder "1" -> "*" Colaborador : cria

Colaborador "1" -> "1" NomeCurto : tem
Colaborador "1" -> "1" NomeCompleto : tem
Colaborador "1" -> "1" NumeroMecanografico : é identificado por
Colaborador "1" -> "1" Funcao : tem
Colaborador "1" -> "1" Morada : tem
Colaborador "1" -> "1" Contacto : possui
Colaborador "1" -> "1" DataNascimento : tem

@enduml

PlantUML version 1.2021.5(Sun Apr 25 12:20:28 BST 2021)
(GPL source distribution)
Java Runtime: OpenJDK Runtime Environment
JVM: OpenJDK 64-Bit Server VM
Default Encoding: Cp1252
Language: pt
Country: PT
--></g></svg>