<?xml version="1.0" encoding="UTF-8" standalone="no"?><svg xmlns="http://www.w3.org/2000/svg" xmlns:xlink="http://www.w3.org/1999/xlink" contentScriptType="application/ecmascript" contentStyleType="text/css" height="912px" preserveAspectRatio="none" style="width:1124px;height:912px;" version="1.1" viewBox="0 0 1124 912" width="1124px" zoomAndPan="magnify"><defs><filter height="300%" id="f1swvzeu84i6dk" width="300%" x="-1" y="-1"><feGaussianBlur result="blurOut" stdDeviation="2.0"/><feColorMatrix in="blurOut" result="blurOut2" type="matrix" values="0 0 0 0 0 0 0 0 0 0 0 0 0 0 0 0 0 0 .4 0"/><feOffset dx="4.0" dy="4.0" in="blurOut2" result="blurOut3"/><feBlend in="SourceGraphic" in2="blurOut3" mode="normal"/></filter></defs><g><!--MD5=[9681dc6e01e10c6b4fe06895ae94f592]
cluster UI--><polygon fill="#DDDDDD" filter="url(#f1swvzeu84i6dk)" points="860,6,880,6,887,29.6094,1066,29.6094,1066,126,860,126,860,6" style="stroke:#000000;stroke-width:1.5;"/><line style="stroke:#000000;stroke-width:1.5;" x1="860" x2="887" y1="29.6094" y2="29.6094"/><text fill="#000000" font-family="sans-serif" font-size="14" font-weight="bold" lengthAdjust="spacing" textLength="14" x="864" y="22.5332">UI</text><!--MD5=[1f2cfc53d9d308f53762fd0fcbaa4873]
cluster Controller--><polygon fill="#DDDDDD" filter="url(#f1swvzeu84i6dk)" points="819,159,896,159,903,182.6094,1107,182.6094,1107,362,819,362,819,159" style="stroke:#000000;stroke-width:1.5;"/><line style="stroke:#000000;stroke-width:1.5;" x1="819" x2="903" y1="182.6094" y2="182.6094"/><text fill="#000000" font-family="sans-serif" font-size="14" font-weight="bold" lengthAdjust="spacing" textLength="71" x="823" y="175.5332">Controller</text><!--MD5=[15636c1ca4a123c16a2a1a8e90aca7a9]
cluster Model--><polygon fill="#DDDDDD" filter="url(#f1swvzeu84i6dk)" points="16,412,66,412,73,435.6094,1101,435.6094,1101,905.5,16,905.5,16,412" style="stroke:#000000;stroke-width:1.5;"/><line style="stroke:#000000;stroke-width:1.5;" x1="16" x2="73" y1="435.6094" y2="435.6094"/><text fill="#000000" font-family="sans-serif" font-size="14" font-weight="bold" lengthAdjust="spacing" textLength="44" x="20" y="428.5332">Model</text><!--MD5=[44cc74aea8168fb4471e814fff38ed12]
cluster Builder--><polygon fill="#DDDDDD" filter="url(#f1swvzeu84i6dk)" points="849,456,906,456,913,479.6094,1077,479.6094,1077,687,849,687,849,456" style="stroke:#000000;stroke-width:1.5;"/><line style="stroke:#000000;stroke-width:1.5;" x1="849" x2="913" y1="479.6094" y2="479.6094"/><text fill="#000000" font-family="sans-serif" font-size="14" font-weight="bold" lengthAdjust="spacing" textLength="51" x="853" y="472.5332">Builder</text><!--MD5=[0d5799440b3bfefd92b00abfcd2c79b9]
cluster Factory--><polygon fill="#DDDDDD" filter="url(#f1swvzeu84i6dk)" points="426,737,484,737,491,760.6094,588,760.6094,588,871,426,871,426,737" style="stroke:#000000;stroke-width:1.5;"/><line style="stroke:#000000;stroke-width:1.5;" x1="426" x2="491" y1="760.6094" y2="760.6094"/><text fill="#000000" font-family="sans-serif" font-size="14" font-weight="bold" lengthAdjust="spacing" textLength="52" x="430" y="753.5332">Factory</text><!--MD5=[bc6b40dadbf86ab6a0c8405a467a48af]
cluster Persistence--><polygon fill="#DDDDDD" filter="url(#f1swvzeu84i6dk)" points="423,497.5,513,497.5,520,521.1094,825,521.1094,825,645.5,423,645.5,423,497.5" style="stroke:#000000;stroke-width:1.5;"/><line style="stroke:#000000;stroke-width:1.5;" x1="423" x2="520" y1="521.1094" y2="521.1094"/><text fill="#000000" font-family="sans-serif" font-size="14" font-weight="bold" lengthAdjust="spacing" textLength="84" x="427" y="514.0332">Persistence</text><!--MD5=[71971f99a41bb66cf321ce46bb59f738]
cluster Repository--><polygon fill="#DDDDDD" filter="url(#f1swvzeu84i6dk)" points="40,497.5,122,497.5,129,521.1094,399,521.1094,399,645.5,40,645.5,40,497.5" style="stroke:#000000;stroke-width:1.5;"/><line style="stroke:#000000;stroke-width:1.5;" x1="40" x2="129" y1="521.1094" y2="521.1094"/><text fill="#000000" font-family="sans-serif" font-size="14" font-weight="bold" lengthAdjust="spacing" textLength="76" x="44" y="514.0332">Repository</text><!--MD5=[fdd143688dd4c22e6f2ee475119423ce]
class EspecificarColaboradorUI--><rect codeLine="5" fill="#FEFECE" filter="url(#f1swvzeu84i6dk)" height="48" id="EspecificarColaboradorUI" style="stroke:#A80036;stroke-width:1.5;" width="174" x="876" y="62"/><ellipse cx="891" cy="78" fill="#ADD1B2" rx="11" ry="11" style="stroke:#A80036;stroke-width:1.0;"/><path d="M893,74.5 Q893.2031,74 893.4375,73.75 Q893.6719,73.5 893.9375,73.5 Q894.4063,73.5 894.7031,73.7813 Q895,74.0625 895,74.7188 L895,76.2813 Q895,76.9375 894.7188,77.2188 Q894.4375,77.5 894,77.5 Q893.6094,77.5 893.3594,77.3281 Q893.1094,77.1563 893,76.7031 Q892.9531,76.3906 892.7813,76.2188 Q892.4688,75.8906 891.9063,75.7031 Q891.3438,75.5 890.7813,75.5 Q890.0781,75.5 889.4844,75.7813 Q888.9063,76.0625 888.4531,76.6875 Q888,77.3125 888,78.1719 L888,79.0938 Q888,80.125 888.8438,80.8125 Q889.6875,81.5 891.1875,81.5 Q892.0781,81.5 892.7031,81.2969 Q893.0625,81.1875 893.4688,80.8281 Q893.7344,80.625 893.875,80.5625 Q894.0156,80.5 894.1875,80.5 Q894.5156,80.5 894.75,80.7656 Q895,81.0156 895,81.375 Q895,81.7188 894.6563,82.125 Q894.1563,82.7188 893.3594,83.0469 Q892.3125,83.5 891.0313,83.5 Q889.5313,83.5 888.3281,82.9063 Q887.3594,82.4375 886.6719,81.4219 Q886,80.4063 886,79.2031 L886,78.1094 Q886,76.8594 886.5938,75.7656 Q887.2031,74.6719 888.25,74.0938 Q889.3125,73.5 890.5,73.5 Q891.2188,73.5 891.8438,73.75 Q892.4688,74 893,74.5 Z " fill="#000000"/><text fill="#000000" font-family="sans-serif" font-size="12" lengthAdjust="spacing" textLength="142" x="905" y="82.9102">EspecificarColaboradorUI</text><line style="stroke:#A80036;stroke-width:1.5;" x1="877" x2="1049" y1="94" y2="94"/><line style="stroke:#A80036;stroke-width:1.5;" x1="877" x2="1049" y1="102" y2="102"/><!--MD5=[ad1e0dfb7967d80be5dad4c9388df9ec]
class EspecificarColaboradorController--><rect codeLine="12" fill="#FEFECE" filter="url(#f1swvzeu84i6dk)" height="131.0156" id="EspecificarColaboradorController" style="stroke:#A80036;stroke-width:1.5;" width="256" x="835" y="215"/><ellipse cx="868" cy="231" fill="#ADD1B2" rx="11" ry="11" style="stroke:#A80036;stroke-width:1.0;"/><path d="M870,227.5 Q870.2031,227 870.4375,226.75 Q870.6719,226.5 870.9375,226.5 Q871.4063,226.5 871.7031,226.7813 Q872,227.0625 872,227.7188 L872,229.2813 Q872,229.9375 871.7188,230.2188 Q871.4375,230.5 871,230.5 Q870.6094,230.5 870.3594,230.3281 Q870.1094,230.1563 870,229.7031 Q869.9531,229.3906 869.7813,229.2188 Q869.4688,228.8906 868.9063,228.7031 Q868.3438,228.5 867.7813,228.5 Q867.0781,228.5 866.4844,228.7813 Q865.9063,229.0625 865.4531,229.6875 Q865,230.3125 865,231.1719 L865,232.0938 Q865,233.125 865.8438,233.8125 Q866.6875,234.5 868.1875,234.5 Q869.0781,234.5 869.7031,234.2969 Q870.0625,234.1875 870.4688,233.8281 Q870.7344,233.625 870.875,233.5625 Q871.0156,233.5 871.1875,233.5 Q871.5156,233.5 871.75,233.7656 Q872,234.0156 872,234.375 Q872,234.7188 871.6563,235.125 Q871.1563,235.7188 870.3594,236.0469 Q869.3125,236.5 868.0313,236.5 Q866.5313,236.5 865.3281,235.9063 Q864.3594,235.4375 863.6719,234.4219 Q863,233.4063 863,232.2031 L863,231.1094 Q863,229.8594 863.5938,228.7656 Q864.2031,227.6719 865.25,227.0938 Q866.3125,226.5 867.5,226.5 Q868.2188,226.5 868.8438,226.75 Q869.4688,227 870,227.5 Z " fill="#000000"/><text fill="#000000" font-family="sans-serif" font-size="12" lengthAdjust="spacing" textLength="184" x="886" y="235.9102">EspecificarColaboradorController</text><line style="stroke:#A80036;stroke-width:1.5;" x1="836" x2="1090" y1="247" y2="247"/><line style="stroke:#A80036;stroke-width:1.5;" x1="836" x2="1090" y1="255" y2="255"/><text fill="#000000" font-family="sans-serif" font-size="11" lengthAdjust="spacing" textLength="45" x="841" y="270.4189">+create()</text><text fill="#000000" font-family="sans-serif" font-size="11" lengthAdjust="spacing" textLength="244" x="841" y="284.2549">+addColab(nomeCurto, nomeCompleto, numMecan,</text><text fill="#000000" font-family="sans-serif" font-size="11" lengthAdjust="spacing" textLength="171" x="841" y="298.0908">morada, contacto, dataNascimento)</text><text fill="#000000" font-family="sans-serif" font-size="11" lengthAdjust="spacing" textLength="82" x="841" y="311.9268">+getFuncaoList()</text><text fill="#000000" font-family="sans-serif" font-size="11" lengthAdjust="spacing" textLength="102" x="841" y="325.7627">+addFuncao(funcao)</text><text fill="#000000" font-family="sans-serif" font-size="11" lengthAdjust="spacing" textLength="65" x="841" y="339.5986">+saveColab()</text><!--MD5=[ac8682ea5466d223e49472789fb200d2]
class Colaborador--><rect codeLine="23" fill="#FEFECE" filter="url(#f1swvzeu84i6dk)" height="131.0156" id="Colaborador" style="stroke:#A80036;stroke-width:1.5;" width="118" x="904" y="758.5"/><ellipse cx="926.65" cy="774.5" fill="#ADD1B2" rx="11" ry="11" style="stroke:#A80036;stroke-width:1.0;"/><path d="M928.65,771 Q928.8531,770.5 929.0875,770.25 Q929.3219,770 929.5875,770 Q930.0563,770 930.3531,770.2813 Q930.65,770.5625 930.65,771.2188 L930.65,772.7813 Q930.65,773.4375 930.3688,773.7188 Q930.0875,774 929.65,774 Q929.2594,774 929.0094,773.8281 Q928.7594,773.6563 928.65,773.2031 Q928.6031,772.8906 928.4313,772.7188 Q928.1188,772.3906 927.5563,772.2031 Q926.9938,772 926.4313,772 Q925.7281,772 925.1344,772.2813 Q924.5563,772.5625 924.1031,773.1875 Q923.65,773.8125 923.65,774.6719 L923.65,775.5938 Q923.65,776.625 924.4938,777.3125 Q925.3375,778 926.8375,778 Q927.7281,778 928.3531,777.7969 Q928.7125,777.6875 929.1188,777.3281 Q929.3844,777.125 929.525,777.0625 Q929.6656,777 929.8375,777 Q930.1656,777 930.4,777.2656 Q930.65,777.5156 930.65,777.875 Q930.65,778.2188 930.3063,778.625 Q929.8063,779.2188 929.0094,779.5469 Q927.9625,780 926.6813,780 Q925.1813,780 923.9781,779.4063 Q923.0094,778.9375 922.3219,777.9219 Q921.65,776.9063 921.65,775.7031 L921.65,774.6094 Q921.65,773.3594 922.2438,772.2656 Q922.8531,771.1719 923.9,770.5938 Q924.9625,770 926.15,770 Q926.8688,770 927.4938,770.25 Q928.1188,770.5 928.65,771 Z " fill="#000000"/><text fill="#000000" font-family="sans-serif" font-size="12" lengthAdjust="spacing" textLength="69" x="942.35" y="779.4102">Colaborador</text><line style="stroke:#A80036;stroke-width:1.5;" x1="905" x2="1021" y1="790.5" y2="790.5"/><text fill="#000000" font-family="sans-serif" font-size="11" lengthAdjust="spacing" textLength="87" x="910" y="805.9189">-String nomeCurto</text><text fill="#000000" font-family="sans-serif" font-size="11" lengthAdjust="spacing" textLength="105" x="910" y="819.7549">-String nomeCompleto</text><text fill="#000000" font-family="sans-serif" font-size="11" lengthAdjust="spacing" textLength="92" x="910" y="833.5908">-Integer numMecan</text><text fill="#000000" font-family="sans-serif" font-size="11" lengthAdjust="spacing" textLength="71" x="910" y="847.4268">-String morada</text><text fill="#000000" font-family="sans-serif" font-size="11" lengthAdjust="spacing" textLength="82" x="910" y="861.2627">-Integer contacto</text><text fill="#000000" font-family="sans-serif" font-size="11" lengthAdjust="spacing" textLength="106" x="910" y="875.0986">-Date dataNascimento</text><line style="stroke:#A80036;stroke-width:1.5;" x1="905" x2="1021" y1="881.5156" y2="881.5156"/><!--MD5=[a9c3518912244ace3e0f1f7595c5b60b]
class ColaboradorBuilder--><rect codeLine="33" fill="#FEFECE" filter="url(#f1swvzeu84i6dk)" height="158.6875" id="ColaboradorBuilder" style="stroke:#A80036;stroke-width:1.5;" width="196" x="865" y="512"/><ellipse cx="905.2" cy="528" fill="#ADD1B2" rx="11" ry="11" style="stroke:#A80036;stroke-width:1.0;"/><path d="M907.2,524.5 Q907.4031,524 907.6375,523.75 Q907.8719,523.5 908.1375,523.5 Q908.6063,523.5 908.9031,523.7813 Q909.2,524.0625 909.2,524.7188 L909.2,526.2813 Q909.2,526.9375 908.9188,527.2188 Q908.6375,527.5 908.2,527.5 Q907.8094,527.5 907.5594,527.3281 Q907.3094,527.1563 907.2,526.7031 Q907.1531,526.3906 906.9813,526.2188 Q906.6688,525.8906 906.1063,525.7031 Q905.5438,525.5 904.9813,525.5 Q904.2781,525.5 903.6844,525.7813 Q903.1063,526.0625 902.6531,526.6875 Q902.2,527.3125 902.2,528.1719 L902.2,529.0938 Q902.2,530.125 903.0438,530.8125 Q903.8875,531.5 905.3875,531.5 Q906.2781,531.5 906.9031,531.2969 Q907.2625,531.1875 907.6688,530.8281 Q907.9344,530.625 908.075,530.5625 Q908.2156,530.5 908.3875,530.5 Q908.7156,530.5 908.95,530.7656 Q909.2,531.0156 909.2,531.375 Q909.2,531.7188 908.8563,532.125 Q908.3563,532.7188 907.5594,533.0469 Q906.5125,533.5 905.2313,533.5 Q903.7313,533.5 902.5281,532.9063 Q901.5594,532.4375 900.8719,531.4219 Q900.2,530.4063 900.2,529.2031 L900.2,528.1094 Q900.2,526.8594 900.7938,525.7656 Q901.4031,524.6719 902.45,524.0938 Q903.5125,523.5 904.7,523.5 Q905.4188,523.5 906.0438,523.75 Q906.6688,524 907.2,524.5 Z " fill="#000000"/><text fill="#000000" font-family="sans-serif" font-size="12" lengthAdjust="spacing" textLength="108" x="924.8" y="532.9102">ColaboradorBuilder</text><line style="stroke:#A80036;stroke-width:1.5;" x1="866" x2="1060" y1="544" y2="544"/><line style="stroke:#A80036;stroke-width:1.5;" x1="866" x2="1060" y1="552" y2="552"/><text fill="#000000" font-family="sans-serif" font-size="11" lengthAdjust="spacing" textLength="45" x="871" y="567.4189">+create()</text><text fill="#000000" font-family="sans-serif" font-size="11" lengthAdjust="spacing" textLength="170" x="871" y="581.2549">+setNomeCompleto(nomeCompleto)</text><text fill="#000000" font-family="sans-serif" font-size="11" lengthAdjust="spacing" textLength="134" x="871" y="595.0908">+setNumMecan(numMecan)</text><text fill="#000000" font-family="sans-serif" font-size="11" lengthAdjust="spacing" textLength="101" x="871" y="608.9268">+setMorada(morada)</text><text fill="#000000" font-family="sans-serif" font-size="11" lengthAdjust="spacing" textLength="114" x="871" y="622.7627">+setContacto(contacto)</text><text fill="#000000" font-family="sans-serif" font-size="11" lengthAdjust="spacing" textLength="184" x="871" y="636.5986">+setDataNascimento(dataNascimento)</text><text fill="#000000" font-family="sans-serif" font-size="11" lengthAdjust="spacing" textLength="99" x="871" y="650.4346">+setFuncao(funcao)</text><text fill="#000000" font-family="sans-serif" font-size="11" lengthAdjust="spacing" textLength="72" x="871" y="664.2705">+createColab()</text><!--MD5=[48590afff58a68e2fcba47824d6f8a11]
class RepositoryFactory--><rect codeLine="47" fill="#FEFECE" filter="url(#f1swvzeu84i6dk)" height="61.8359" id="RepositoryFactory" style="stroke:#A80036;stroke-width:1.5;" width="130" x="442" y="793"/><ellipse cx="457" cy="809" fill="#ADD1B2" rx="11" ry="11" style="stroke:#A80036;stroke-width:1.0;"/><path d="M459,805.5 Q459.2031,805 459.4375,804.75 Q459.6719,804.5 459.9375,804.5 Q460.4063,804.5 460.7031,804.7813 Q461,805.0625 461,805.7188 L461,807.2813 Q461,807.9375 460.7188,808.2188 Q460.4375,808.5 460,808.5 Q459.6094,808.5 459.3594,808.3281 Q459.1094,808.1563 459,807.7031 Q458.9531,807.3906 458.7813,807.2188 Q458.4688,806.8906 457.9063,806.7031 Q457.3438,806.5 456.7813,806.5 Q456.0781,806.5 455.4844,806.7813 Q454.9063,807.0625 454.4531,807.6875 Q454,808.3125 454,809.1719 L454,810.0938 Q454,811.125 454.8438,811.8125 Q455.6875,812.5 457.1875,812.5 Q458.0781,812.5 458.7031,812.2969 Q459.0625,812.1875 459.4688,811.8281 Q459.7344,811.625 459.875,811.5625 Q460.0156,811.5 460.1875,811.5 Q460.5156,811.5 460.75,811.7656 Q461,812.0156 461,812.375 Q461,812.7188 460.6563,813.125 Q460.1563,813.7188 459.3594,814.0469 Q458.3125,814.5 457.0313,814.5 Q455.5313,814.5 454.3281,813.9063 Q453.3594,813.4375 452.6719,812.4219 Q452,811.4063 452,810.2031 L452,809.1094 Q452,807.8594 452.5938,806.7656 Q453.2031,805.6719 454.25,805.0938 Q455.3125,804.5 456.5,804.5 Q457.2188,804.5 457.8438,804.75 Q458.4688,805 459,805.5 Z " fill="#000000"/><text fill="#000000" font-family="sans-serif" font-size="12" lengthAdjust="spacing" textLength="98" x="471" y="813.9102">RepositoryFactory</text><line style="stroke:#A80036;stroke-width:1.5;" x1="443" x2="571" y1="825" y2="825"/><line style="stroke:#A80036;stroke-width:1.5;" x1="443" x2="571" y1="833" y2="833"/><text fill="#000000" font-family="sans-serif" font-size="11" lengthAdjust="spacing" textLength="46" x="448" y="848.4189">+colabs()</text><!--MD5=[c393f068889240f99b513cd59772874d]
class PersistenceContex--><rect codeLine="54" fill="#FEFECE" filter="url(#f1swvzeu84i6dk)" height="61.8359" id="PersistenceContex" style="stroke:#A80036;stroke-width:1.5;" width="136" x="439" y="560.5"/><ellipse cx="454" cy="576.5" fill="#ADD1B2" rx="11" ry="11" style="stroke:#A80036;stroke-width:1.0;"/><path d="M456,573 Q456.2031,572.5 456.4375,572.25 Q456.6719,572 456.9375,572 Q457.4063,572 457.7031,572.2813 Q458,572.5625 458,573.2188 L458,574.7813 Q458,575.4375 457.7188,575.7188 Q457.4375,576 457,576 Q456.6094,576 456.3594,575.8281 Q456.1094,575.6563 456,575.2031 Q455.9531,574.8906 455.7813,574.7188 Q455.4688,574.3906 454.9063,574.2031 Q454.3438,574 453.7813,574 Q453.0781,574 452.4844,574.2813 Q451.9063,574.5625 451.4531,575.1875 Q451,575.8125 451,576.6719 L451,577.5938 Q451,578.625 451.8438,579.3125 Q452.6875,580 454.1875,580 Q455.0781,580 455.7031,579.7969 Q456.0625,579.6875 456.4688,579.3281 Q456.7344,579.125 456.875,579.0625 Q457.0156,579 457.1875,579 Q457.5156,579 457.75,579.2656 Q458,579.5156 458,579.875 Q458,580.2188 457.6563,580.625 Q457.1563,581.2188 456.3594,581.5469 Q455.3125,582 454.0313,582 Q452.5313,582 451.3281,581.4063 Q450.3594,580.9375 449.6719,579.9219 Q449,578.9063 449,577.7031 L449,576.6094 Q449,575.3594 449.5938,574.2656 Q450.2031,573.1719 451.25,572.5938 Q452.3125,572 453.5,572 Q454.2188,572 454.8438,572.25 Q455.4688,572.5 456,573 Z " fill="#000000"/><text fill="#000000" font-family="sans-serif" font-size="12" lengthAdjust="spacing" textLength="104" x="468" y="581.4102">PersistenceContex</text><line style="stroke:#A80036;stroke-width:1.5;" x1="440" x2="574" y1="592.5" y2="592.5"/><line style="stroke:#A80036;stroke-width:1.5;" x1="440" x2="574" y1="600.5" y2="600.5"/><text fill="#000000" font-family="sans-serif" font-size="11" lengthAdjust="spacing" textLength="71" x="445" y="615.9189">+repositories()</text><!--MD5=[b8e4c95865208c934bfcfda4f90bf50c]
class AppSettings--><rect codeLine="58" fill="#FEFECE" filter="url(#f1swvzeu84i6dk)" height="75.6719" id="AppSettings" style="stroke:#A80036;stroke-width:1.5;" width="130" x="679" y="553.5"/><ellipse cx="708.4" cy="569.5" fill="#ADD1B2" rx="11" ry="11" style="stroke:#A80036;stroke-width:1.0;"/><path d="M710.4,566 Q710.6031,565.5 710.8375,565.25 Q711.0719,565 711.3375,565 Q711.8063,565 712.1031,565.2813 Q712.4,565.5625 712.4,566.2188 L712.4,567.7813 Q712.4,568.4375 712.1188,568.7188 Q711.8375,569 711.4,569 Q711.0094,569 710.7594,568.8281 Q710.5094,568.6563 710.4,568.2031 Q710.3531,567.8906 710.1813,567.7188 Q709.8688,567.3906 709.3063,567.2031 Q708.7438,567 708.1813,567 Q707.4781,567 706.8844,567.2813 Q706.3063,567.5625 705.8531,568.1875 Q705.4,568.8125 705.4,569.6719 L705.4,570.5938 Q705.4,571.625 706.2438,572.3125 Q707.0875,573 708.5875,573 Q709.4781,573 710.1031,572.7969 Q710.4625,572.6875 710.8688,572.3281 Q711.1344,572.125 711.275,572.0625 Q711.4156,572 711.5875,572 Q711.9156,572 712.15,572.2656 Q712.4,572.5156 712.4,572.875 Q712.4,573.2188 712.0563,573.625 Q711.5563,574.2188 710.7594,574.5469 Q709.7125,575 708.4313,575 Q706.9313,575 705.7281,574.4063 Q704.7594,573.9375 704.0719,572.9219 Q703.4,571.9063 703.4,570.7031 L703.4,569.6094 Q703.4,568.3594 703.9938,567.2656 Q704.6031,566.1719 705.65,565.5938 Q706.7125,565 707.9,565 Q708.6188,565 709.2438,565.25 Q709.8688,565.5 710.4,566 Z " fill="#000000"/><text fill="#000000" font-family="sans-serif" font-size="12" lengthAdjust="spacing" textLength="66" x="725.6" y="574.4102">AppSettings</text><line style="stroke:#A80036;stroke-width:1.5;" x1="680" x2="808" y1="585.5" y2="585.5"/><line style="stroke:#A80036;stroke-width:1.5;" x1="680" x2="808" y1="593.5" y2="593.5"/><text fill="#000000" font-family="sans-serif" font-size="11" lengthAdjust="spacing" textLength="55" x="685" y="608.9189">+instance()</text><text fill="#000000" font-family="sans-serif" font-size="11" lengthAdjust="spacing" textLength="118" x="685" y="622.7549">+getRepositoryFactory()</text><!--MD5=[9a0e8f7957502662f95e783c1c3d84fe]
class ColaboradorRepository--><rect codeLine="67" fill="#FEFECE" filter="url(#f1swvzeu84i6dk)" height="75.6719" id="ColaboradorRepository" style="stroke:#A80036;stroke-width:1.5;" width="160" x="223" y="553.5"/><ellipse cx="238" cy="569.5" fill="#ADD1B2" rx="11" ry="11" style="stroke:#A80036;stroke-width:1.0;"/><path d="M240,566 Q240.2031,565.5 240.4375,565.25 Q240.6719,565 240.9375,565 Q241.4063,565 241.7031,565.2813 Q242,565.5625 242,566.2188 L242,567.7813 Q242,568.4375 241.7188,568.7188 Q241.4375,569 241,569 Q240.6094,569 240.3594,568.8281 Q240.1094,568.6563 240,568.2031 Q239.9531,567.8906 239.7813,567.7188 Q239.4688,567.3906 238.9063,567.2031 Q238.3438,567 237.7813,567 Q237.0781,567 236.4844,567.2813 Q235.9063,567.5625 235.4531,568.1875 Q235,568.8125 235,569.6719 L235,570.5938 Q235,571.625 235.8438,572.3125 Q236.6875,573 238.1875,573 Q239.0781,573 239.7031,572.7969 Q240.0625,572.6875 240.4688,572.3281 Q240.7344,572.125 240.875,572.0625 Q241.0156,572 241.1875,572 Q241.5156,572 241.75,572.2656 Q242,572.5156 242,572.875 Q242,573.2188 241.6563,573.625 Q241.1563,574.2188 240.3594,574.5469 Q239.3125,575 238.0313,575 Q236.5313,575 235.3281,574.4063 Q234.3594,573.9375 233.6719,572.9219 Q233,571.9063 233,570.7031 L233,569.6094 Q233,568.3594 233.5938,567.2656 Q234.2031,566.1719 235.25,565.5938 Q236.3125,565 237.5,565 Q238.2188,565 238.8438,565.25 Q239.4688,565.5 240,566 Z " fill="#000000"/><text fill="#000000" font-family="sans-serif" font-size="12" lengthAdjust="spacing" textLength="128" x="252" y="574.4102">ColaboradorRepository</text><line style="stroke:#A80036;stroke-width:1.5;" x1="224" x2="382" y1="585.5" y2="585.5"/><line style="stroke:#A80036;stroke-width:1.5;" x1="224" x2="382" y1="593.5" y2="593.5"/><text fill="#000000" font-family="sans-serif" font-size="11" lengthAdjust="spacing" textLength="45" x="229" y="608.9189">+create()</text><text fill="#000000" font-family="sans-serif" font-size="11" lengthAdjust="spacing" textLength="64" x="229" y="622.7549">+save(colab)</text><!--MD5=[25ef1d309e5391bf1cd66b01d6bc17b2]
class FuncaoRepository--><rect codeLine="72" fill="#FEFECE" filter="url(#f1swvzeu84i6dk)" height="75.6719" id="FuncaoRepository" style="stroke:#A80036;stroke-width:1.5;" width="132" x="56" y="553.5"/><ellipse cx="71" cy="569.5" fill="#ADD1B2" rx="11" ry="11" style="stroke:#A80036;stroke-width:1.0;"/><path d="M73,566 Q73.2031,565.5 73.4375,565.25 Q73.6719,565 73.9375,565 Q74.4063,565 74.7031,565.2813 Q75,565.5625 75,566.2188 L75,567.7813 Q75,568.4375 74.7188,568.7188 Q74.4375,569 74,569 Q73.6094,569 73.3594,568.8281 Q73.1094,568.6563 73,568.2031 Q72.9531,567.8906 72.7813,567.7188 Q72.4688,567.3906 71.9063,567.2031 Q71.3438,567 70.7813,567 Q70.0781,567 69.4844,567.2813 Q68.9063,567.5625 68.4531,568.1875 Q68,568.8125 68,569.6719 L68,570.5938 Q68,571.625 68.8438,572.3125 Q69.6875,573 71.1875,573 Q72.0781,573 72.7031,572.7969 Q73.0625,572.6875 73.4688,572.3281 Q73.7344,572.125 73.875,572.0625 Q74.0156,572 74.1875,572 Q74.5156,572 74.75,572.2656 Q75,572.5156 75,572.875 Q75,573.2188 74.6563,573.625 Q74.1563,574.2188 73.3594,574.5469 Q72.3125,575 71.0313,575 Q69.5313,575 68.3281,574.4063 Q67.3594,573.9375 66.6719,572.9219 Q66,571.9063 66,570.7031 L66,569.6094 Q66,568.3594 66.5938,567.2656 Q67.2031,566.1719 68.25,565.5938 Q69.3125,565 70.5,565 Q71.2188,565 71.8438,565.25 Q72.4688,565.5 73,566 Z " fill="#000000"/><text fill="#000000" font-family="sans-serif" font-size="12" lengthAdjust="spacing" textLength="100" x="85" y="574.4102">FuncaoRepository</text><line style="stroke:#A80036;stroke-width:1.5;" x1="57" x2="187" y1="585.5" y2="585.5"/><line style="stroke:#A80036;stroke-width:1.5;" x1="57" x2="187" y1="593.5" y2="593.5"/><text fill="#000000" font-family="sans-serif" font-size="11" lengthAdjust="spacing" textLength="45" x="62" y="608.9189">+create()</text><text fill="#000000" font-family="sans-serif" font-size="11" lengthAdjust="spacing" textLength="24" x="62" y="622.7549">+all()</text><!--MD5=[efc07359af4002ede352d360e3e5f791]
link EspecificarColaboradorUI to EspecificarColaboradorController--><path codeLine="80" d="M963,110.22 C963,134.81 963,174.83 963,209.78 " fill="none" id="EspecificarColaboradorUI-to-EspecificarColaboradorController" style="stroke:#A80036;stroke-width:1.0;stroke-dasharray:7.0,7.0;"/><polygon fill="#A80036" points="963,214.9,967,205.9,963,209.9,959,205.9,963,214.9" style="stroke:#A80036;stroke-width:1.0;"/><!--MD5=[cf0990d56f2a1429403674d4e675ed46]
link EspecificarColaboradorController to ColaboradorBuilder--><path codeLine="81" d="M963,346.28 C963,392.9 963,456.2 963,506.68 " fill="none" id="EspecificarColaboradorController-to-ColaboradorBuilder" style="stroke:#A80036;stroke-width:1.0;stroke-dasharray:7.0,7.0;"/><polygon fill="#A80036" points="963,511.83,967,502.83,963,506.83,959,502.83,963,511.83" style="stroke:#A80036;stroke-width:1.0;"/><!--MD5=[c0a5c765c5ce7cf7289fac39c81461b4]
link ColaboradorBuilder to Colaborador--><path codeLine="82" d="M963,671.18 C963,697.83 963,727.4 963,753.31 " fill="none" id="ColaboradorBuilder-to-Colaborador" style="stroke:#A80036;stroke-width:1.0;"/><polygon fill="#A80036" points="963,758.44,967,749.44,963,753.44,959,749.44,963,758.44" style="stroke:#A80036;stroke-width:1.0;"/><text fill="#000000" font-family="sans-serif" font-size="13" lengthAdjust="spacing" textLength="43" x="964" y="717.4951">creates</text><text fill="#000000" font-family="sans-serif" font-size="13" lengthAdjust="spacing" textLength="7" x="955.6992" y="692.2387">1</text><text fill="#000000" font-family="sans-serif" font-size="13" lengthAdjust="spacing" textLength="5" x="957.7109" y="747.4492">*</text><!--MD5=[77b151a81c44a6141e8c19402b30ed65]
link ColaboradorBuilder to ColaboradorRepository--><path codeLine="83" d="M918.38,511.92 C895.21,478.88 863.62,444.08 825,426 C744.1,388.12 502.58,385.41 423,426 C373.03,451.49 339.01,508.61 320.31,548.57 " fill="none" id="ColaboradorBuilder-to-ColaboradorRepository" style="stroke:#A80036;stroke-width:1.0;"/><polygon fill="#A80036" points="318.1,553.35,325.5072,546.859,320.198,548.8115,318.2456,543.5022,318.1,553.35" style="stroke:#A80036;stroke-width:1.0;"/><text fill="#000000" font-family="sans-serif" font-size="13" lengthAdjust="spacing" textLength="21" x="688.5" y="392.4951">has</text><text fill="#000000" font-family="sans-serif" font-size="13" lengthAdjust="spacing" textLength="7" x="906.7936" y="501.0993">1</text><text fill="#000000" font-family="sans-serif" font-size="13" lengthAdjust="spacing" textLength="7" x="313.1663" y="542.6852">1</text><!--MD5=[c75879d31b329e8e5fda2a2ea1a7616e]
link ColaboradorBuilder to FuncaoRepository--><path codeLine="84" d="M918.38,511.92 C895.21,478.88 863.62,444.08 825,426 C762.71,396.84 264.61,390.02 206,426 C162.9,452.46 141.07,508.68 130.64,548.23 " fill="none" id="ColaboradorBuilder-to-FuncaoRepository" style="stroke:#A80036;stroke-width:1.0;"/><polygon fill="#A80036" points="129.3,553.45,135.4117,545.7268,130.5429,548.6069,127.6628,543.7382,129.3,553.45" style="stroke:#A80036;stroke-width:1.0;"/><text fill="#000000" font-family="sans-serif" font-size="13" lengthAdjust="spacing" textLength="28" x="498" y="392.4951">uses</text><text fill="#000000" font-family="sans-serif" font-size="13" lengthAdjust="spacing" textLength="7" x="914.4608" y="501.0993">1</text><text fill="#000000" font-family="sans-serif" font-size="13" lengthAdjust="spacing" textLength="7" x="123.0006" y="542.5173">1</text><!--MD5=[b8d696763848bedb2214a5e77cdd8669]
link PersistenceContex to RepositoryFactory--><path codeLine="85" d="M507,622.63 C507,665.17 507,742.65 507,787.79 " fill="none" id="PersistenceContex-to-RepositoryFactory" style="stroke:#A80036;stroke-width:1.0;stroke-dasharray:7.0,7.0;"/><polygon fill="#A80036" points="507,792.86,511,783.86,507,787.86,503,783.86,507,792.86" style="stroke:#A80036;stroke-width:1.0;"/><!--MD5=[262899dad6ffe369ba4fc2933c5fe249]
link PersistenceContex to AppSettings--><path codeLine="86" d="M575.23,591.5 C606,591.5 642.31,591.5 673.36,591.5 " fill="none" id="PersistenceContex-to-AppSettings" style="stroke:#A80036;stroke-width:1.0;"/><polygon fill="#A80036" points="678.69,591.5,669.69,587.5,673.69,591.5,669.69,595.5,678.69,591.5" style="stroke:#A80036;stroke-width:1.0;"/><text fill="#000000" font-family="sans-serif" font-size="13" lengthAdjust="spacing" textLength="67" x="593.5" y="584.9951">implements</text><!--MD5=[b767695c152726a58e32e41448174547]
@startuml
skinparam classAttributeIconSize 0


package "UI" #DDDDDD {
class EspecificarColaboradorUI{

}
}


package "Controller" #DDDDDD {
class EspecificarColaboradorController{
+create()
+addColab(nomeCurto, nomeCompleto, numMecan,\nmorada, contacto, dataNascimento)
+getFuncaoList()
+addFuncao(funcao)
+saveColab()
}
}


package "Model" #DDDDDD {
class Colaborador{
-String nomeCurto
-String nomeCompleto
-Integer numMecan
-String morada
-Integer contacto
-Date dataNascimento
}

package Builder #DDDDDD {
class ColaboradorBuilder{
+create()
+setNomeCompleto(nomeCompleto)
+setNumMecan(numMecan)
+setMorada(morada)
+setContacto(contacto)
+setDataNascimento(dataNascimento)
+setFuncao(funcao)
+createColab()
}

}

package Factory #DDDDDD {
class RepositoryFactory{
+colabs()
}

}

package Persistence #DDDDDD {
class PersistenceContex{
+repositories()
}

class AppSettings{
+instance()
+getRepositoryFactory()
}

}


package "Repository" #DDDDDD {
class ColaboradorRepository{
+create()
+save(colab)
}

class FuncaoRepository{
+create()
+all()
}

}


EspecificarColaboradorUI ..> EspecificarColaboradorController
EspecificarColaboradorController ..> ColaboradorBuilder
ColaboradorBuilder "1" - -> "*" Colaborador : creates
ColaboradorBuilder "1" -> "1" ColaboradorRepository : has
ColaboradorBuilder "1" -> "1" FuncaoRepository : uses
PersistenceContex ..> RepositoryFactory
PersistenceContex -> AppSettings : implements
@enduml

PlantUML version 1.2021.4(Sun Apr 04 09:49:39 BST 2021)
(GPL source distribution)
Java Runtime: OpenJDK Runtime Environment
JVM: OpenJDK 64-Bit Server VM
Default Encoding: Cp1252
Language: pt
Country: PT
--></g></svg>