<?xml version="1.0" encoding="UTF-8" standalone="no"?><svg xmlns="http://www.w3.org/2000/svg" xmlns:xlink="http://www.w3.org/1999/xlink" contentScriptType="application/ecmascript" contentStyleType="text/css" height="732px" preserveAspectRatio="none" style="width:3214px;height:732px;" version="1.1" viewBox="0 0 3214 732" width="3214px" zoomAndPan="magnify"><defs><filter height="300%" id="fgmvcy4hl6g6n" width="300%" x="-1" y="-1"><feGaussianBlur result="blurOut" stdDeviation="2.0"/><feColorMatrix in="blurOut" result="blurOut2" type="matrix" values="0 0 0 0 0 0 0 0 0 0 0 0 0 0 0 0 0 0 .4 0"/><feOffset dx="4.0" dy="4.0" in="blurOut2" result="blurOut3"/><feBlend in="SourceGraphic" in2="blurOut3" mode="normal"/></filter></defs><g><!--MD5=[9681dc6e01e10c6b4fe06895ae94f592]
cluster UI--><polygon fill="#DDDDDD" filter="url(#fgmvcy4hl6g6n)" points="783,6,803,6,810,29.6094,997,29.6094,997,126,783,126,783,6" style="stroke:#000000;stroke-width:1.5;"/><line style="stroke:#000000;stroke-width:1.5;" x1="783" x2="810" y1="29.6094" y2="29.6094"/><text fill="#000000" font-family="sans-serif" font-size="14" font-weight="bold" lengthAdjust="spacing" textLength="14" x="787" y="22.5332">UI</text><!--MD5=[d64883541e3d62e3241c4d12decf100d]
cluster Application--><polygon fill="#DDDDDD" filter="url(#fgmvcy4hl6g6n)" points="698,159,782,159,789,182.6094,1082,182.6094,1082,362,698,362,698,159" style="stroke:#000000;stroke-width:1.5;"/><line style="stroke:#000000;stroke-width:1.5;" x1="698" x2="789" y1="182.6094" y2="182.6094"/><text fill="#000000" font-family="sans-serif" font-size="14" font-weight="bold" lengthAdjust="spacing" textLength="78" x="702" y="175.5332">Application</text><!--MD5=[121a8bf1197281ab89ed693fab589f94]
cluster Domain--><polygon fill="#DDDDDD" filter="url(#fgmvcy4hl6g6n)" points="1003,412,1061,412,1068,435.6094,3197,435.6094,3197,725,1003,725,1003,412" style="stroke:#000000;stroke-width:1.5;"/><line style="stroke:#000000;stroke-width:1.5;" x1="1003" x2="1068" y1="435.6094" y2="435.6094"/><text fill="#000000" font-family="sans-serif" font-size="14" font-weight="bold" lengthAdjust="spacing" textLength="52" x="1007" y="428.5332">Domain</text><!--MD5=[44cc74aea8168fb4471e814fff38ed12]
cluster Builder--><polygon fill="#DDDDDD" filter="url(#fgmvcy4hl6g6n)" points="2859,456,2916,456,2923,479.6094,3173,479.6094,3173,701,2859,701,2859,456" style="stroke:#000000;stroke-width:1.5;"/><line style="stroke:#000000;stroke-width:1.5;" x1="2859" x2="2923" y1="479.6094" y2="479.6094"/><text fill="#000000" font-family="sans-serif" font-size="14" font-weight="bold" lengthAdjust="spacing" textLength="51" x="2863" y="472.5332">Builder</text><!--MD5=[bc6b40dadbf86ab6a0c8405a467a48af]
cluster Persistence--><polygon fill="#DDDDDD" filter="url(#fgmvcy4hl6g6n)" points="16,460.5,106,460.5,113,484.1094,979,484.1094,979,676.5,16,676.5,16,460.5" style="stroke:#000000;stroke-width:1.5;"/><line style="stroke:#000000;stroke-width:1.5;" x1="16" x2="113" y1="484.1094" y2="484.1094"/><text fill="#000000" font-family="sans-serif" font-size="14" font-weight="bold" lengthAdjust="spacing" textLength="84" x="20" y="477.0332">Persistence</text><!--MD5=[0d5799440b3bfefd92b00abfcd2c79b9]
cluster Factory--><polygon fill="#DDDDDD" filter="url(#fgmvcy4hl6g6n)" points="793,504.5,851,504.5,858,528.1094,955,528.1094,955,652.5,793,652.5,793,504.5" style="stroke:#000000;stroke-width:1.5;"/><line style="stroke:#000000;stroke-width:1.5;" x1="793" x2="858" y1="528.1094" y2="528.1094"/><text fill="#000000" font-family="sans-serif" font-size="14" font-weight="bold" lengthAdjust="spacing" textLength="52" x="797" y="521.0332">Factory</text><!--MD5=[71971f99a41bb66cf321ce46bb59f738]
cluster Repository--><polygon fill="#DDDDDD" filter="url(#fgmvcy4hl6g6n)" points="424,504.5,506,504.5,513,528.1094,768,528.1094,768,652.5,424,652.5,424,504.5" style="stroke:#000000;stroke-width:1.5;"/><line style="stroke:#000000;stroke-width:1.5;" x1="424" x2="513" y1="528.1094" y2="528.1094"/><text fill="#000000" font-family="sans-serif" font-size="14" font-weight="bold" lengthAdjust="spacing" textLength="76" x="428" y="521.0332">Repository</text><!--MD5=[93c84338c8133da314580433f8790b00]
class CollaboratorSpecificationUI--><rect codeLine="5" fill="#FEFECE" filter="url(#fgmvcy4hl6g6n)" height="48" id="CollaboratorSpecificationUI" style="stroke:#A80036;stroke-width:1.5;" width="182" x="799" y="62"/><ellipse cx="814" cy="78" fill="#ADD1B2" rx="11" ry="11" style="stroke:#A80036;stroke-width:1.0;"/><path d="M816,74.5 Q816.2031,74 816.4375,73.75 Q816.6719,73.5 816.9375,73.5 Q817.4063,73.5 817.7031,73.7813 Q818,74.0625 818,74.7188 L818,76.2813 Q818,76.9375 817.7188,77.2188 Q817.4375,77.5 817,77.5 Q816.6094,77.5 816.3594,77.3281 Q816.1094,77.1563 816,76.7031 Q815.9531,76.3906 815.7813,76.2188 Q815.4688,75.8906 814.9063,75.7031 Q814.3438,75.5 813.7813,75.5 Q813.0781,75.5 812.4844,75.7813 Q811.9063,76.0625 811.4531,76.6875 Q811,77.3125 811,78.1719 L811,79.0938 Q811,80.125 811.8438,80.8125 Q812.6875,81.5 814.1875,81.5 Q815.0781,81.5 815.7031,81.2969 Q816.0625,81.1875 816.4688,80.8281 Q816.7344,80.625 816.875,80.5625 Q817.0156,80.5 817.1875,80.5 Q817.5156,80.5 817.75,80.7656 Q818,81.0156 818,81.375 Q818,81.7188 817.6563,82.125 Q817.1563,82.7188 816.3594,83.0469 Q815.3125,83.5 814.0313,83.5 Q812.5313,83.5 811.3281,82.9063 Q810.3594,82.4375 809.6719,81.4219 Q809,80.4063 809,79.2031 L809,78.1094 Q809,76.8594 809.5938,75.7656 Q810.2031,74.6719 811.25,74.0938 Q812.3125,73.5 813.5,73.5 Q814.2188,73.5 814.8438,73.75 Q815.4688,74 816,74.5 Z " fill="#000000"/><text fill="#000000" font-family="sans-serif" font-size="12" lengthAdjust="spacing" textLength="150" x="828" y="82.9102">CollaboratorSpecificationUI</text><line style="stroke:#A80036;stroke-width:1.5;" x1="800" x2="980" y1="94" y2="94"/><line style="stroke:#A80036;stroke-width:1.5;" x1="800" x2="980" y1="102" y2="102"/><!--MD5=[f1bbe1cf2453e6a45e68131c63d26ace]
class CollaboratorSpecificationController--><rect codeLine="12" fill="#FEFECE" filter="url(#fgmvcy4hl6g6n)" height="131.0156" id="CollaboratorSpecificationController" style="stroke:#A80036;stroke-width:1.5;" width="352" x="714" y="215"/><ellipse cx="789.75" cy="231" fill="#ADD1B2" rx="11" ry="11" style="stroke:#A80036;stroke-width:1.0;"/><path d="M791.75,227.5 Q791.9531,227 792.1875,226.75 Q792.4219,226.5 792.6875,226.5 Q793.1563,226.5 793.4531,226.7813 Q793.75,227.0625 793.75,227.7188 L793.75,229.2813 Q793.75,229.9375 793.4688,230.2188 Q793.1875,230.5 792.75,230.5 Q792.3594,230.5 792.1094,230.3281 Q791.8594,230.1563 791.75,229.7031 Q791.7031,229.3906 791.5313,229.2188 Q791.2188,228.8906 790.6563,228.7031 Q790.0938,228.5 789.5313,228.5 Q788.8281,228.5 788.2344,228.7813 Q787.6563,229.0625 787.2031,229.6875 Q786.75,230.3125 786.75,231.1719 L786.75,232.0938 Q786.75,233.125 787.5938,233.8125 Q788.4375,234.5 789.9375,234.5 Q790.8281,234.5 791.4531,234.2969 Q791.8125,234.1875 792.2188,233.8281 Q792.4844,233.625 792.625,233.5625 Q792.7656,233.5 792.9375,233.5 Q793.2656,233.5 793.5,233.7656 Q793.75,234.0156 793.75,234.375 Q793.75,234.7188 793.4063,235.125 Q792.9063,235.7188 792.1094,236.0469 Q791.0625,236.5 789.7813,236.5 Q788.2813,236.5 787.0781,235.9063 Q786.1094,235.4375 785.4219,234.4219 Q784.75,233.4063 784.75,232.2031 L784.75,231.1094 Q784.75,229.8594 785.3438,228.7656 Q785.9531,227.6719 787,227.0938 Q788.0625,226.5 789.25,226.5 Q789.9688,226.5 790.5938,226.75 Q791.2188,227 791.75,227.5 Z " fill="#000000"/><text fill="#000000" font-family="sans-serif" font-size="12" lengthAdjust="spacing" textLength="192" x="810.25" y="235.9102">CollaboratorSpecificationController</text><line style="stroke:#A80036;stroke-width:1.5;" x1="715" x2="1065" y1="247" y2="247"/><line style="stroke:#A80036;stroke-width:1.5;" x1="715" x2="1065" y1="255" y2="255"/><text fill="#000000" font-family="sans-serif" font-size="11" lengthAdjust="spacing" textLength="45" x="720" y="270.4189">+create()</text><text fill="#000000" font-family="sans-serif" font-size="11" lengthAdjust="spacing" textLength="340" x="720" y="284.2549">+addCollaborator(shortName, completeName, mechanographicNumber,</text><text fill="#000000" font-family="sans-serif" font-size="11" lengthAdjust="spacing" textLength="166" x="720" y="298.0908">address, phoneNumber, birthDate)</text><text fill="#000000" font-family="sans-serif" font-size="11" lengthAdjust="spacing" textLength="67" x="720" y="311.9268">+getRoleList()</text><text fill="#000000" font-family="sans-serif" font-size="11" lengthAdjust="spacing" textLength="71" x="720" y="325.7627">+addRole(role)</text><text fill="#000000" font-family="sans-serif" font-size="11" lengthAdjust="spacing" textLength="96" x="720" y="339.5986">+saveCollaborator()</text><!--MD5=[f483d6e5de34a60207b28a5563be5e8b]
class Collaborator--><rect codeLine="23" fill="#FEFECE" filter="url(#fgmvcy4hl6g6n)" height="75.6719" id="Collaborator" style="stroke:#A80036;stroke-width:1.5;" width="307" x="1019.5" y="560.5"/><ellipse cx="1134.75" cy="576.5" fill="#ADD1B2" rx="11" ry="11" style="stroke:#A80036;stroke-width:1.0;"/><path d="M1136.75,573 Q1136.9531,572.5 1137.1875,572.25 Q1137.4219,572 1137.6875,572 Q1138.1563,572 1138.4531,572.2813 Q1138.75,572.5625 1138.75,573.2188 L1138.75,574.7813 Q1138.75,575.4375 1138.4688,575.7188 Q1138.1875,576 1137.75,576 Q1137.3594,576 1137.1094,575.8281 Q1136.8594,575.6563 1136.75,575.2031 Q1136.7031,574.8906 1136.5313,574.7188 Q1136.2188,574.3906 1135.6563,574.2031 Q1135.0938,574 1134.5313,574 Q1133.8281,574 1133.2344,574.2813 Q1132.6563,574.5625 1132.2031,575.1875 Q1131.75,575.8125 1131.75,576.6719 L1131.75,577.5938 Q1131.75,578.625 1132.5938,579.3125 Q1133.4375,580 1134.9375,580 Q1135.8281,580 1136.4531,579.7969 Q1136.8125,579.6875 1137.2188,579.3281 Q1137.4844,579.125 1137.625,579.0625 Q1137.7656,579 1137.9375,579 Q1138.2656,579 1138.5,579.2656 Q1138.75,579.5156 1138.75,579.875 Q1138.75,580.2188 1138.4063,580.625 Q1137.9063,581.2188 1137.1094,581.5469 Q1136.0625,582 1134.7813,582 Q1133.2813,582 1132.0781,581.4063 Q1131.1094,580.9375 1130.4219,579.9219 Q1129.75,578.9063 1129.75,577.7031 L1129.75,576.6094 Q1129.75,575.3594 1130.3438,574.2656 Q1130.9531,573.1719 1132,572.5938 Q1133.0625,572 1134.25,572 Q1134.9688,572 1135.5938,572.25 Q1136.2188,572.5 1136.75,573 Z " fill="#000000"/><text fill="#000000" font-family="sans-serif" font-size="12" lengthAdjust="spacing" textLength="68" x="1155.25" y="581.4102">Collaborator</text><line style="stroke:#A80036;stroke-width:1.5;" x1="1020.5" x2="1325.5" y1="592.5" y2="592.5"/><line style="stroke:#A80036;stroke-width:1.5;" x1="1020.5" x2="1325.5" y1="600.5" y2="600.5"/><text fill="#000000" font-family="sans-serif" font-size="11" lengthAdjust="spacing" textLength="295" x="1025.5" y="615.9189">+create(shortName, completeName, mechanographicNumber,</text><text fill="#000000" font-family="sans-serif" font-size="11" lengthAdjust="spacing" textLength="190" x="1025.5" y="629.7549">address, phoneNumber, birthDate,Role)</text><!--MD5=[f338b7fac0450cb697edae5d9e4bb9ca]
class ShortName--><rect codeLine="27" fill="#FEFECE" filter="url(#fgmvcy4hl6g6n)" height="75.6719" id="ShortName" style="stroke:#A80036;stroke-width:1.5;" width="162" x="2678" y="560.5"/><ellipse cx="2723.25" cy="576.5" fill="#ADD1B2" rx="11" ry="11" style="stroke:#A80036;stroke-width:1.0;"/><path d="M2725.25,573 Q2725.4531,572.5 2725.6875,572.25 Q2725.9219,572 2726.1875,572 Q2726.6563,572 2726.9531,572.2813 Q2727.25,572.5625 2727.25,573.2188 L2727.25,574.7813 Q2727.25,575.4375 2726.9688,575.7188 Q2726.6875,576 2726.25,576 Q2725.8594,576 2725.6094,575.8281 Q2725.3594,575.6563 2725.25,575.2031 Q2725.2031,574.8906 2725.0313,574.7188 Q2724.7188,574.3906 2724.1563,574.2031 Q2723.5938,574 2723.0313,574 Q2722.3281,574 2721.7344,574.2813 Q2721.1563,574.5625 2720.7031,575.1875 Q2720.25,575.8125 2720.25,576.6719 L2720.25,577.5938 Q2720.25,578.625 2721.0938,579.3125 Q2721.9375,580 2723.4375,580 Q2724.3281,580 2724.9531,579.7969 Q2725.3125,579.6875 2725.7188,579.3281 Q2725.9844,579.125 2726.125,579.0625 Q2726.2656,579 2726.4375,579 Q2726.7656,579 2727,579.2656 Q2727.25,579.5156 2727.25,579.875 Q2727.25,580.2188 2726.9063,580.625 Q2726.4063,581.2188 2725.6094,581.5469 Q2724.5625,582 2723.2813,582 Q2721.7813,582 2720.5781,581.4063 Q2719.6094,580.9375 2718.9219,579.9219 Q2718.25,578.9063 2718.25,577.7031 L2718.25,576.6094 Q2718.25,575.3594 2718.8438,574.2656 Q2719.4531,573.1719 2720.5,572.5938 Q2721.5625,572 2722.75,572 Q2723.4688,572 2724.0938,572.25 Q2724.7188,572.5 2725.25,573 Z " fill="#000000"/><text fill="#000000" font-family="sans-serif" font-size="12" lengthAdjust="spacing" textLength="63" x="2743.75" y="581.4102">ShortName</text><line style="stroke:#A80036;stroke-width:1.5;" x1="2679" x2="2839" y1="592.5" y2="592.5"/><line style="stroke:#A80036;stroke-width:1.5;" x1="2679" x2="2839" y1="600.5" y2="600.5"/><text fill="#000000" font-family="sans-serif" font-size="11" lengthAdjust="spacing" textLength="150" x="2684" y="615.9189">+createShortName(shortName)</text><text fill="#000000" font-family="sans-serif" font-size="11" lengthAdjust="spacing" textLength="101" x="2684" y="629.7549">-validate(shortName)</text><!--MD5=[cadca83c4c6337f88ae4425081101a2d]
class CompleteName--><rect codeLine="32" fill="#FEFECE" filter="url(#fgmvcy4hl6g6n)" height="75.6719" id="CompleteName" style="stroke:#A80036;stroke-width:1.5;" width="198" x="2445" y="560.5"/><ellipse cx="2495.75" cy="576.5" fill="#ADD1B2" rx="11" ry="11" style="stroke:#A80036;stroke-width:1.0;"/><path d="M2497.75,573 Q2497.9531,572.5 2498.1875,572.25 Q2498.4219,572 2498.6875,572 Q2499.1563,572 2499.4531,572.2813 Q2499.75,572.5625 2499.75,573.2188 L2499.75,574.7813 Q2499.75,575.4375 2499.4688,575.7188 Q2499.1875,576 2498.75,576 Q2498.3594,576 2498.1094,575.8281 Q2497.8594,575.6563 2497.75,575.2031 Q2497.7031,574.8906 2497.5313,574.7188 Q2497.2188,574.3906 2496.6563,574.2031 Q2496.0938,574 2495.5313,574 Q2494.8281,574 2494.2344,574.2813 Q2493.6563,574.5625 2493.2031,575.1875 Q2492.75,575.8125 2492.75,576.6719 L2492.75,577.5938 Q2492.75,578.625 2493.5938,579.3125 Q2494.4375,580 2495.9375,580 Q2496.8281,580 2497.4531,579.7969 Q2497.8125,579.6875 2498.2188,579.3281 Q2498.4844,579.125 2498.625,579.0625 Q2498.7656,579 2498.9375,579 Q2499.2656,579 2499.5,579.2656 Q2499.75,579.5156 2499.75,579.875 Q2499.75,580.2188 2499.4063,580.625 Q2498.9063,581.2188 2498.1094,581.5469 Q2497.0625,582 2495.7813,582 Q2494.2813,582 2493.0781,581.4063 Q2492.1094,580.9375 2491.4219,579.9219 Q2490.75,578.9063 2490.75,577.7031 L2490.75,576.6094 Q2490.75,575.3594 2491.3438,574.2656 Q2491.9531,573.1719 2493,572.5938 Q2494.0625,572 2495.25,572 Q2495.9688,572 2496.5938,572.25 Q2497.2188,572.5 2497.75,573 Z " fill="#000000"/><text fill="#000000" font-family="sans-serif" font-size="12" lengthAdjust="spacing" textLength="88" x="2516.25" y="581.4102">CompleteName</text><line style="stroke:#A80036;stroke-width:1.5;" x1="2446" x2="2642" y1="592.5" y2="592.5"/><line style="stroke:#A80036;stroke-width:1.5;" x1="2446" x2="2642" y1="600.5" y2="600.5"/><text fill="#000000" font-family="sans-serif" font-size="11" lengthAdjust="spacing" textLength="186" x="2451" y="615.9189">+createCompleteName(completeName)</text><text fill="#000000" font-family="sans-serif" font-size="11" lengthAdjust="spacing" textLength="119" x="2451" y="629.7549">-validate(completeName)</text><!--MD5=[60b365d8f6d5c8e3e73e4be0aaaeb2da]
class NumeroMecanografico--><rect codeLine="37" fill="#FEFECE" filter="url(#fgmvcy4hl6g6n)" height="75.6719" id="NumeroMecanografico" style="stroke:#A80036;stroke-width:1.5;" width="274" x="2136" y="560.5"/><ellipse cx="2206.25" cy="576.5" fill="#ADD1B2" rx="11" ry="11" style="stroke:#A80036;stroke-width:1.0;"/><path d="M2208.25,573 Q2208.4531,572.5 2208.6875,572.25 Q2208.9219,572 2209.1875,572 Q2209.6563,572 2209.9531,572.2813 Q2210.25,572.5625 2210.25,573.2188 L2210.25,574.7813 Q2210.25,575.4375 2209.9688,575.7188 Q2209.6875,576 2209.25,576 Q2208.8594,576 2208.6094,575.8281 Q2208.3594,575.6563 2208.25,575.2031 Q2208.2031,574.8906 2208.0313,574.7188 Q2207.7188,574.3906 2207.1563,574.2031 Q2206.5938,574 2206.0313,574 Q2205.3281,574 2204.7344,574.2813 Q2204.1563,574.5625 2203.7031,575.1875 Q2203.25,575.8125 2203.25,576.6719 L2203.25,577.5938 Q2203.25,578.625 2204.0938,579.3125 Q2204.9375,580 2206.4375,580 Q2207.3281,580 2207.9531,579.7969 Q2208.3125,579.6875 2208.7188,579.3281 Q2208.9844,579.125 2209.125,579.0625 Q2209.2656,579 2209.4375,579 Q2209.7656,579 2210,579.2656 Q2210.25,579.5156 2210.25,579.875 Q2210.25,580.2188 2209.9063,580.625 Q2209.4063,581.2188 2208.6094,581.5469 Q2207.5625,582 2206.2813,582 Q2204.7813,582 2203.5781,581.4063 Q2202.6094,580.9375 2201.9219,579.9219 Q2201.25,578.9063 2201.25,577.7031 L2201.25,576.6094 Q2201.25,575.3594 2201.8438,574.2656 Q2202.4531,573.1719 2203.5,572.5938 Q2204.5625,572 2205.75,572 Q2206.4688,572 2207.0938,572.25 Q2207.7188,572.5 2208.25,573 Z " fill="#000000"/><text fill="#000000" font-family="sans-serif" font-size="12" lengthAdjust="spacing" textLength="125" x="2226.75" y="581.4102">NumeroMecanografico</text><line style="stroke:#A80036;stroke-width:1.5;" x1="2137" x2="2409" y1="592.5" y2="592.5"/><line style="stroke:#A80036;stroke-width:1.5;" x1="2137" x2="2409" y1="600.5" y2="600.5"/><text fill="#000000" font-family="sans-serif" font-size="11" lengthAdjust="spacing" textLength="262" x="2142" y="615.9189">+createNumeroMecanografico(numeroMecanografico)</text><text fill="#000000" font-family="sans-serif" font-size="11" lengthAdjust="spacing" textLength="157" x="2142" y="629.7549">-validate(numeroMecanografico)</text><!--MD5=[0f39e4cb6f03951afbf6d14bd2505654]
class Address--><rect codeLine="42" fill="#FEFECE" filter="url(#fgmvcy4hl6g6n)" height="75.6719" id="Address" style="stroke:#A80036;stroke-width:1.5;" width="139" x="1827.5" y="560.5"/><ellipse cx="1869.95" cy="576.5" fill="#ADD1B2" rx="11" ry="11" style="stroke:#A80036;stroke-width:1.0;"/><path d="M1871.95,573 Q1872.1531,572.5 1872.3875,572.25 Q1872.6219,572 1872.8875,572 Q1873.3563,572 1873.6531,572.2813 Q1873.95,572.5625 1873.95,573.2188 L1873.95,574.7813 Q1873.95,575.4375 1873.6688,575.7188 Q1873.3875,576 1872.95,576 Q1872.5594,576 1872.3094,575.8281 Q1872.0594,575.6563 1871.95,575.2031 Q1871.9031,574.8906 1871.7313,574.7188 Q1871.4188,574.3906 1870.8563,574.2031 Q1870.2938,574 1869.7313,574 Q1869.0281,574 1868.4344,574.2813 Q1867.8563,574.5625 1867.4031,575.1875 Q1866.95,575.8125 1866.95,576.6719 L1866.95,577.5938 Q1866.95,578.625 1867.7938,579.3125 Q1868.6375,580 1870.1375,580 Q1871.0281,580 1871.6531,579.7969 Q1872.0125,579.6875 1872.4188,579.3281 Q1872.6844,579.125 1872.825,579.0625 Q1872.9656,579 1873.1375,579 Q1873.4656,579 1873.7,579.2656 Q1873.95,579.5156 1873.95,579.875 Q1873.95,580.2188 1873.6063,580.625 Q1873.1063,581.2188 1872.3094,581.5469 Q1871.2625,582 1869.9813,582 Q1868.4813,582 1867.2781,581.4063 Q1866.3094,580.9375 1865.6219,579.9219 Q1864.95,578.9063 1864.95,577.7031 L1864.95,576.6094 Q1864.95,575.3594 1865.5438,574.2656 Q1866.1531,573.1719 1867.2,572.5938 Q1868.2625,572 1869.45,572 Q1870.1688,572 1870.7938,572.25 Q1871.4188,572.5 1871.95,573 Z " fill="#000000"/><text fill="#000000" font-family="sans-serif" font-size="12" lengthAdjust="spacing" textLength="46" x="1890.05" y="581.4102">Address</text><line style="stroke:#A80036;stroke-width:1.5;" x1="1828.5" x2="1965.5" y1="592.5" y2="592.5"/><line style="stroke:#A80036;stroke-width:1.5;" x1="1828.5" x2="1965.5" y1="600.5" y2="600.5"/><text fill="#000000" font-family="sans-serif" font-size="11" lengthAdjust="spacing" textLength="127" x="1833.5" y="615.9189">+createAddress(address)</text><text fill="#000000" font-family="sans-serif" font-size="11" lengthAdjust="spacing" textLength="89" x="1833.5" y="629.7549">-validate(address)</text><!--MD5=[b5e265065262f4f9caf90311e5706eef]
class PhoneNumber--><rect codeLine="47" fill="#FEFECE" filter="url(#fgmvcy4hl6g6n)" height="75.6719" id="PhoneNumber" style="stroke:#A80036;stroke-width:1.5;" width="191" x="1601.5" y="560.5"/><ellipse cx="1652.25" cy="576.5" fill="#ADD1B2" rx="11" ry="11" style="stroke:#A80036;stroke-width:1.0;"/><path d="M1654.25,573 Q1654.4531,572.5 1654.6875,572.25 Q1654.9219,572 1655.1875,572 Q1655.6563,572 1655.9531,572.2813 Q1656.25,572.5625 1656.25,573.2188 L1656.25,574.7813 Q1656.25,575.4375 1655.9688,575.7188 Q1655.6875,576 1655.25,576 Q1654.8594,576 1654.6094,575.8281 Q1654.3594,575.6563 1654.25,575.2031 Q1654.2031,574.8906 1654.0313,574.7188 Q1653.7188,574.3906 1653.1563,574.2031 Q1652.5938,574 1652.0313,574 Q1651.3281,574 1650.7344,574.2813 Q1650.1563,574.5625 1649.7031,575.1875 Q1649.25,575.8125 1649.25,576.6719 L1649.25,577.5938 Q1649.25,578.625 1650.0938,579.3125 Q1650.9375,580 1652.4375,580 Q1653.3281,580 1653.9531,579.7969 Q1654.3125,579.6875 1654.7188,579.3281 Q1654.9844,579.125 1655.125,579.0625 Q1655.2656,579 1655.4375,579 Q1655.7656,579 1656,579.2656 Q1656.25,579.5156 1656.25,579.875 Q1656.25,580.2188 1655.9063,580.625 Q1655.4063,581.2188 1654.6094,581.5469 Q1653.5625,582 1652.2813,582 Q1650.7813,582 1649.5781,581.4063 Q1648.6094,580.9375 1647.9219,579.9219 Q1647.25,578.9063 1647.25,577.7031 L1647.25,576.6094 Q1647.25,575.3594 1647.8438,574.2656 Q1648.4531,573.1719 1649.5,572.5938 Q1650.5625,572 1651.75,572 Q1652.4688,572 1653.0938,572.25 Q1653.7188,572.5 1654.25,573 Z " fill="#000000"/><text fill="#000000" font-family="sans-serif" font-size="12" lengthAdjust="spacing" textLength="81" x="1672.75" y="581.4102">PhoneNumber</text><line style="stroke:#A80036;stroke-width:1.5;" x1="1602.5" x2="1791.5" y1="592.5" y2="592.5"/><line style="stroke:#A80036;stroke-width:1.5;" x1="1602.5" x2="1791.5" y1="600.5" y2="600.5"/><text fill="#000000" font-family="sans-serif" font-size="11" lengthAdjust="spacing" textLength="179" x="1607.5" y="615.9189">+createPhoneNumber(phoneNumber)</text><text fill="#000000" font-family="sans-serif" font-size="11" lengthAdjust="spacing" textLength="116" x="1607.5" y="629.7549">-validate(phoneNumber)</text><!--MD5=[ec957f90f125634d426aef890efece94]
class BirthDate--><rect codeLine="52" fill="#FEFECE" filter="url(#fgmvcy4hl6g6n)" height="75.6719" id="BirthDate" style="stroke:#A80036;stroke-width:1.5;" width="144" x="1384" y="560.5"/><ellipse cx="1426.45" cy="576.5" fill="#ADD1B2" rx="11" ry="11" style="stroke:#A80036;stroke-width:1.0;"/><path d="M1428.45,573 Q1428.6531,572.5 1428.8875,572.25 Q1429.1219,572 1429.3875,572 Q1429.8563,572 1430.1531,572.2813 Q1430.45,572.5625 1430.45,573.2188 L1430.45,574.7813 Q1430.45,575.4375 1430.1688,575.7188 Q1429.8875,576 1429.45,576 Q1429.0594,576 1428.8094,575.8281 Q1428.5594,575.6563 1428.45,575.2031 Q1428.4031,574.8906 1428.2313,574.7188 Q1427.9188,574.3906 1427.3563,574.2031 Q1426.7938,574 1426.2313,574 Q1425.5281,574 1424.9344,574.2813 Q1424.3563,574.5625 1423.9031,575.1875 Q1423.45,575.8125 1423.45,576.6719 L1423.45,577.5938 Q1423.45,578.625 1424.2938,579.3125 Q1425.1375,580 1426.6375,580 Q1427.5281,580 1428.1531,579.7969 Q1428.5125,579.6875 1428.9188,579.3281 Q1429.1844,579.125 1429.325,579.0625 Q1429.4656,579 1429.6375,579 Q1429.9656,579 1430.2,579.2656 Q1430.45,579.5156 1430.45,579.875 Q1430.45,580.2188 1430.1063,580.625 Q1429.6063,581.2188 1428.8094,581.5469 Q1427.7625,582 1426.4813,582 Q1424.9813,582 1423.7781,581.4063 Q1422.8094,580.9375 1422.1219,579.9219 Q1421.45,578.9063 1421.45,577.7031 L1421.45,576.6094 Q1421.45,575.3594 1422.0438,574.2656 Q1422.6531,573.1719 1423.7,572.5938 Q1424.7625,572 1425.95,572 Q1426.6688,572 1427.2938,572.25 Q1427.9188,572.5 1428.45,573 Z " fill="#000000"/><text fill="#000000" font-family="sans-serif" font-size="12" lengthAdjust="spacing" textLength="51" x="1446.55" y="581.4102">BirthDate</text><line style="stroke:#A80036;stroke-width:1.5;" x1="1385" x2="1527" y1="592.5" y2="592.5"/><line style="stroke:#A80036;stroke-width:1.5;" x1="1385" x2="1527" y1="600.5" y2="600.5"/><text fill="#000000" font-family="sans-serif" font-size="11" lengthAdjust="spacing" textLength="132" x="1390" y="615.9189">+createBirthDate(birthDate)</text><text fill="#000000" font-family="sans-serif" font-size="11" lengthAdjust="spacing" textLength="92" x="1390" y="629.7549">-validate(birthDate)</text><!--MD5=[a3638c1e5b65d287ecad7f06f5c0f212]
class Role--><rect codeLine="57" fill="#FEFECE" filter="url(#fgmvcy4hl6g6n)" height="75.6719" id="Role" style="stroke:#A80036;stroke-width:1.5;" width="99" x="2001.5" y="560.5"/><ellipse cx="2034.95" cy="576.5" fill="#ADD1B2" rx="11" ry="11" style="stroke:#A80036;stroke-width:1.0;"/><path d="M2036.95,573 Q2037.1531,572.5 2037.3875,572.25 Q2037.6219,572 2037.8875,572 Q2038.3563,572 2038.6531,572.2813 Q2038.95,572.5625 2038.95,573.2188 L2038.95,574.7813 Q2038.95,575.4375 2038.6688,575.7188 Q2038.3875,576 2037.95,576 Q2037.5594,576 2037.3094,575.8281 Q2037.0594,575.6563 2036.95,575.2031 Q2036.9031,574.8906 2036.7313,574.7188 Q2036.4188,574.3906 2035.8563,574.2031 Q2035.2938,574 2034.7313,574 Q2034.0281,574 2033.4344,574.2813 Q2032.8563,574.5625 2032.4031,575.1875 Q2031.95,575.8125 2031.95,576.6719 L2031.95,577.5938 Q2031.95,578.625 2032.7938,579.3125 Q2033.6375,580 2035.1375,580 Q2036.0281,580 2036.6531,579.7969 Q2037.0125,579.6875 2037.4188,579.3281 Q2037.6844,579.125 2037.825,579.0625 Q2037.9656,579 2038.1375,579 Q2038.4656,579 2038.7,579.2656 Q2038.95,579.5156 2038.95,579.875 Q2038.95,580.2188 2038.6063,580.625 Q2038.1063,581.2188 2037.3094,581.5469 Q2036.2625,582 2034.9813,582 Q2033.4813,582 2032.2781,581.4063 Q2031.3094,580.9375 2030.6219,579.9219 Q2029.95,578.9063 2029.95,577.7031 L2029.95,576.6094 Q2029.95,575.3594 2030.5438,574.2656 Q2031.1531,573.1719 2032.2,572.5938 Q2033.2625,572 2034.45,572 Q2035.1688,572 2035.7938,572.25 Q2036.4188,572.5 2036.95,573 Z " fill="#000000"/><text fill="#000000" font-family="sans-serif" font-size="12" lengthAdjust="spacing" textLength="26" x="2053.05" y="581.4102">Role</text><line style="stroke:#A80036;stroke-width:1.5;" x1="2002.5" x2="2099.5" y1="592.5" y2="592.5"/><line style="stroke:#A80036;stroke-width:1.5;" x1="2002.5" x2="2099.5" y1="600.5" y2="600.5"/><text fill="#000000" font-family="sans-serif" font-size="11" lengthAdjust="spacing" textLength="87" x="2007.5" y="615.9189">+createRole(Role)</text><text fill="#000000" font-family="sans-serif" font-size="11" lengthAdjust="spacing" textLength="70" x="2007.5" y="629.7549">-validate(Role)</text><!--MD5=[164e5e9cf855eb64ce2728330d9f659f]
class CollaboratorBuilder--><rect codeLine="63" fill="#FEFECE" filter="url(#fgmvcy4hl6g6n)" height="172.5234" id="CollaboratorBuilder" style="stroke:#A80036;stroke-width:1.5;" width="281" x="2875.5" y="512"/><ellipse cx="2958.25" cy="528" fill="#ADD1B2" rx="11" ry="11" style="stroke:#A80036;stroke-width:1.0;"/><path d="M2960.25,524.5 Q2960.4531,524 2960.6875,523.75 Q2960.9219,523.5 2961.1875,523.5 Q2961.6563,523.5 2961.9531,523.7813 Q2962.25,524.0625 2962.25,524.7188 L2962.25,526.2813 Q2962.25,526.9375 2961.9688,527.2188 Q2961.6875,527.5 2961.25,527.5 Q2960.8594,527.5 2960.6094,527.3281 Q2960.3594,527.1563 2960.25,526.7031 Q2960.2031,526.3906 2960.0313,526.2188 Q2959.7188,525.8906 2959.1563,525.7031 Q2958.5938,525.5 2958.0313,525.5 Q2957.3281,525.5 2956.7344,525.7813 Q2956.1563,526.0625 2955.7031,526.6875 Q2955.25,527.3125 2955.25,528.1719 L2955.25,529.0938 Q2955.25,530.125 2956.0938,530.8125 Q2956.9375,531.5 2958.4375,531.5 Q2959.3281,531.5 2959.9531,531.2969 Q2960.3125,531.1875 2960.7188,530.8281 Q2960.9844,530.625 2961.125,530.5625 Q2961.2656,530.5 2961.4375,530.5 Q2961.7656,530.5 2962,530.7656 Q2962.25,531.0156 2962.25,531.375 Q2962.25,531.7188 2961.9063,532.125 Q2961.4063,532.7188 2960.6094,533.0469 Q2959.5625,533.5 2958.2813,533.5 Q2956.7813,533.5 2955.5781,532.9063 Q2954.6094,532.4375 2953.9219,531.4219 Q2953.25,530.4063 2953.25,529.2031 L2953.25,528.1094 Q2953.25,526.8594 2953.8438,525.7656 Q2954.4531,524.6719 2955.5,524.0938 Q2956.5625,523.5 2957.75,523.5 Q2958.4688,523.5 2959.0938,523.75 Q2959.7188,524 2960.25,524.5 Z " fill="#000000"/><text fill="#000000" font-family="sans-serif" font-size="12" lengthAdjust="spacing" textLength="107" x="2978.75" y="532.9102">CollaboratorBuilder</text><line style="stroke:#A80036;stroke-width:1.5;" x1="2876.5" x2="3155.5" y1="544" y2="544"/><line style="stroke:#A80036;stroke-width:1.5;" x1="2876.5" x2="3155.5" y1="552" y2="552"/><text fill="#000000" font-family="sans-serif" font-size="11" lengthAdjust="spacing" textLength="45" x="2881.5" y="567.4189">+create()</text><text fill="#000000" font-family="sans-serif" font-size="11" lengthAdjust="spacing" textLength="140" x="2881.5" y="581.2549">+withShortName(shortName)</text><text fill="#000000" font-family="sans-serif" font-size="11" lengthAdjust="spacing" textLength="176" x="2881.5" y="595.0908">+withCompleteName(completeName)</text><text fill="#000000" font-family="sans-serif" font-size="11" lengthAdjust="spacing" textLength="269" x="2881.5" y="608.9268">+withMechanographicNumber(mechanographicNumber)</text><text fill="#000000" font-family="sans-serif" font-size="11" lengthAdjust="spacing" textLength="117" x="2881.5" y="622.7627">+withAddress(address)</text><text fill="#000000" font-family="sans-serif" font-size="11" lengthAdjust="spacing" textLength="169" x="2881.5" y="636.5986">+withPhoneNumber(phoneNumber)</text><text fill="#000000" font-family="sans-serif" font-size="11" lengthAdjust="spacing" textLength="122" x="2881.5" y="650.4346">+withBirthDate(birthDate)</text><text fill="#000000" font-family="sans-serif" font-size="11" lengthAdjust="spacing" textLength="77" x="2881.5" y="664.2705">+withRole(Role)</text><text fill="#000000" font-family="sans-serif" font-size="11" lengthAdjust="spacing" textLength="103" x="2881.5" y="678.1064">+createCollaborator()</text><!--MD5=[e8c189551b7885b999ad7cefb30fc2a3]
class PersistenceContext--><rect codeLine="78" fill="#FEFECE" filter="url(#fgmvcy4hl6g6n)" height="61.8359" id="PersistenceContext" style="stroke:#A80036;stroke-width:1.5;" width="139" x="32.5" y="567.5"/><ellipse cx="47.5" cy="583.5" fill="#ADD1B2" rx="11" ry="11" style="stroke:#A80036;stroke-width:1.0;"/><path d="M49.5,580 Q49.7031,579.5 49.9375,579.25 Q50.1719,579 50.4375,579 Q50.9063,579 51.2031,579.2813 Q51.5,579.5625 51.5,580.2188 L51.5,581.7813 Q51.5,582.4375 51.2188,582.7188 Q50.9375,583 50.5,583 Q50.1094,583 49.8594,582.8281 Q49.6094,582.6563 49.5,582.2031 Q49.4531,581.8906 49.2813,581.7188 Q48.9688,581.3906 48.4063,581.2031 Q47.8438,581 47.2813,581 Q46.5781,581 45.9844,581.2813 Q45.4063,581.5625 44.9531,582.1875 Q44.5,582.8125 44.5,583.6719 L44.5,584.5938 Q44.5,585.625 45.3438,586.3125 Q46.1875,587 47.6875,587 Q48.5781,587 49.2031,586.7969 Q49.5625,586.6875 49.9688,586.3281 Q50.2344,586.125 50.375,586.0625 Q50.5156,586 50.6875,586 Q51.0156,586 51.25,586.2656 Q51.5,586.5156 51.5,586.875 Q51.5,587.2188 51.1563,587.625 Q50.6563,588.2188 49.8594,588.5469 Q48.8125,589 47.5313,589 Q46.0313,589 44.8281,588.4063 Q43.8594,587.9375 43.1719,586.9219 Q42.5,585.9063 42.5,584.7031 L42.5,583.6094 Q42.5,582.3594 43.0938,581.2656 Q43.7031,580.1719 44.75,579.5938 Q45.8125,579 47,579 Q47.7188,579 48.3438,579.25 Q48.9688,579.5 49.5,580 Z " fill="#000000"/><text fill="#000000" font-family="sans-serif" font-size="12" lengthAdjust="spacing" textLength="107" x="61.5" y="588.4102">PersistenceContext</text><line style="stroke:#A80036;stroke-width:1.5;" x1="33.5" x2="170.5" y1="599.5" y2="599.5"/><line style="stroke:#A80036;stroke-width:1.5;" x1="33.5" x2="170.5" y1="607.5" y2="607.5"/><text fill="#000000" font-family="sans-serif" font-size="11" lengthAdjust="spacing" textLength="71" x="38.5" y="622.9189">+repositories()</text><!--MD5=[b8e4c95865208c934bfcfda4f90bf50c]
class AppSettings--><rect codeLine="82" fill="#FEFECE" filter="url(#fgmvcy4hl6g6n)" height="75.6719" id="AppSettings" style="stroke:#A80036;stroke-width:1.5;" width="130" x="275" y="560.5"/><ellipse cx="304.4" cy="576.5" fill="#ADD1B2" rx="11" ry="11" style="stroke:#A80036;stroke-width:1.0;"/><path d="M306.4,573 Q306.6031,572.5 306.8375,572.25 Q307.0719,572 307.3375,572 Q307.8063,572 308.1031,572.2813 Q308.4,572.5625 308.4,573.2188 L308.4,574.7813 Q308.4,575.4375 308.1188,575.7188 Q307.8375,576 307.4,576 Q307.0094,576 306.7594,575.8281 Q306.5094,575.6563 306.4,575.2031 Q306.3531,574.8906 306.1813,574.7188 Q305.8688,574.3906 305.3063,574.2031 Q304.7438,574 304.1813,574 Q303.4781,574 302.8844,574.2813 Q302.3063,574.5625 301.8531,575.1875 Q301.4,575.8125 301.4,576.6719 L301.4,577.5938 Q301.4,578.625 302.2438,579.3125 Q303.0875,580 304.5875,580 Q305.4781,580 306.1031,579.7969 Q306.4625,579.6875 306.8688,579.3281 Q307.1344,579.125 307.275,579.0625 Q307.4156,579 307.5875,579 Q307.9156,579 308.15,579.2656 Q308.4,579.5156 308.4,579.875 Q308.4,580.2188 308.0563,580.625 Q307.5563,581.2188 306.7594,581.5469 Q305.7125,582 304.4313,582 Q302.9313,582 301.7281,581.4063 Q300.7594,580.9375 300.0719,579.9219 Q299.4,578.9063 299.4,577.7031 L299.4,576.6094 Q299.4,575.3594 299.9938,574.2656 Q300.6031,573.1719 301.65,572.5938 Q302.7125,572 303.9,572 Q304.6188,572 305.2438,572.25 Q305.8688,572.5 306.4,573 Z " fill="#000000"/><text fill="#000000" font-family="sans-serif" font-size="12" lengthAdjust="spacing" textLength="66" x="321.6" y="581.4102">AppSettings</text><line style="stroke:#A80036;stroke-width:1.5;" x1="276" x2="404" y1="592.5" y2="592.5"/><line style="stroke:#A80036;stroke-width:1.5;" x1="276" x2="404" y1="600.5" y2="600.5"/><text fill="#000000" font-family="sans-serif" font-size="11" lengthAdjust="spacing" textLength="55" x="281" y="615.9189">+instance()</text><text fill="#000000" font-family="sans-serif" font-size="11" lengthAdjust="spacing" textLength="118" x="281" y="629.7549">+getRepositoryFactory()</text><!--MD5=[48590afff58a68e2fcba47824d6f8a11]
class RepositoryFactory--><rect codeLine="88" fill="#FEFECE" filter="url(#fgmvcy4hl6g6n)" height="75.6719" id="RepositoryFactory" style="stroke:#A80036;stroke-width:1.5;" width="130" x="809" y="560.5"/><ellipse cx="824" cy="576.5" fill="#ADD1B2" rx="11" ry="11" style="stroke:#A80036;stroke-width:1.0;"/><path d="M826,573 Q826.2031,572.5 826.4375,572.25 Q826.6719,572 826.9375,572 Q827.4063,572 827.7031,572.2813 Q828,572.5625 828,573.2188 L828,574.7813 Q828,575.4375 827.7188,575.7188 Q827.4375,576 827,576 Q826.6094,576 826.3594,575.8281 Q826.1094,575.6563 826,575.2031 Q825.9531,574.8906 825.7813,574.7188 Q825.4688,574.3906 824.9063,574.2031 Q824.3438,574 823.7813,574 Q823.0781,574 822.4844,574.2813 Q821.9063,574.5625 821.4531,575.1875 Q821,575.8125 821,576.6719 L821,577.5938 Q821,578.625 821.8438,579.3125 Q822.6875,580 824.1875,580 Q825.0781,580 825.7031,579.7969 Q826.0625,579.6875 826.4688,579.3281 Q826.7344,579.125 826.875,579.0625 Q827.0156,579 827.1875,579 Q827.5156,579 827.75,579.2656 Q828,579.5156 828,579.875 Q828,580.2188 827.6563,580.625 Q827.1563,581.2188 826.3594,581.5469 Q825.3125,582 824.0313,582 Q822.5313,582 821.3281,581.4063 Q820.3594,580.9375 819.6719,579.9219 Q819,578.9063 819,577.7031 L819,576.6094 Q819,575.3594 819.5938,574.2656 Q820.2031,573.1719 821.25,572.5938 Q822.3125,572 823.5,572 Q824.2188,572 824.8438,572.25 Q825.4688,572.5 826,573 Z " fill="#000000"/><text fill="#000000" font-family="sans-serif" font-size="12" lengthAdjust="spacing" textLength="98" x="838" y="581.4102">RepositoryFactory</text><line style="stroke:#A80036;stroke-width:1.5;" x1="810" x2="938" y1="592.5" y2="592.5"/><line style="stroke:#A80036;stroke-width:1.5;" x1="810" x2="938" y1="600.5" y2="600.5"/><text fill="#000000" font-family="sans-serif" font-size="11" lengthAdjust="spacing" textLength="77" x="815" y="615.9189">+collaborators()</text><text fill="#000000" font-family="sans-serif" font-size="11" lengthAdjust="spacing" textLength="38" x="815" y="629.7549">+roles()</text><!--MD5=[7d8ac9ac30c94f5163e620de18c62996]
class CollaboratorRepository--><rect codeLine="95" fill="#FEFECE" filter="url(#fgmvcy4hl6g6n)" height="75.6719" id="CollaboratorRepository" style="stroke:#A80036;stroke-width:1.5;" width="159" x="592.5" y="560.5"/><ellipse cx="607.5" cy="576.5" fill="#ADD1B2" rx="11" ry="11" style="stroke:#A80036;stroke-width:1.0;"/><path d="M609.5,573 Q609.7031,572.5 609.9375,572.25 Q610.1719,572 610.4375,572 Q610.9063,572 611.2031,572.2813 Q611.5,572.5625 611.5,573.2188 L611.5,574.7813 Q611.5,575.4375 611.2188,575.7188 Q610.9375,576 610.5,576 Q610.1094,576 609.8594,575.8281 Q609.6094,575.6563 609.5,575.2031 Q609.4531,574.8906 609.2813,574.7188 Q608.9688,574.3906 608.4063,574.2031 Q607.8438,574 607.2813,574 Q606.5781,574 605.9844,574.2813 Q605.4063,574.5625 604.9531,575.1875 Q604.5,575.8125 604.5,576.6719 L604.5,577.5938 Q604.5,578.625 605.3438,579.3125 Q606.1875,580 607.6875,580 Q608.5781,580 609.2031,579.7969 Q609.5625,579.6875 609.9688,579.3281 Q610.2344,579.125 610.375,579.0625 Q610.5156,579 610.6875,579 Q611.0156,579 611.25,579.2656 Q611.5,579.5156 611.5,579.875 Q611.5,580.2188 611.1563,580.625 Q610.6563,581.2188 609.8594,581.5469 Q608.8125,582 607.5313,582 Q606.0313,582 604.8281,581.4063 Q603.8594,580.9375 603.1719,579.9219 Q602.5,578.9063 602.5,577.7031 L602.5,576.6094 Q602.5,575.3594 603.0938,574.2656 Q603.7031,573.1719 604.75,572.5938 Q605.8125,572 607,572 Q607.7188,572 608.3438,572.25 Q608.9688,572.5 609.5,573 Z " fill="#000000"/><text fill="#000000" font-family="sans-serif" font-size="12" lengthAdjust="spacing" textLength="127" x="621.5" y="581.4102">CollaboratorRepository</text><line style="stroke:#A80036;stroke-width:1.5;" x1="593.5" x2="750.5" y1="592.5" y2="592.5"/><line style="stroke:#A80036;stroke-width:1.5;" x1="593.5" x2="750.5" y1="600.5" y2="600.5"/><text fill="#000000" font-family="sans-serif" font-size="11" lengthAdjust="spacing" textLength="45" x="598.5" y="615.9189">+create()</text><text fill="#000000" font-family="sans-serif" font-size="11" lengthAdjust="spacing" textLength="95" x="598.5" y="629.7549">+save(collaborator)</text><!--MD5=[d6052a3c80808cdd359bffcdb3d9689b]
class RoleRepository--><rect codeLine="100" fill="#FEFECE" filter="url(#fgmvcy4hl6g6n)" height="75.6719" id="RoleRepository" style="stroke:#A80036;stroke-width:1.5;" width="117" x="440.5" y="560.5"/><ellipse cx="455.5" cy="576.5" fill="#ADD1B2" rx="11" ry="11" style="stroke:#A80036;stroke-width:1.0;"/><path d="M457.5,573 Q457.7031,572.5 457.9375,572.25 Q458.1719,572 458.4375,572 Q458.9063,572 459.2031,572.2813 Q459.5,572.5625 459.5,573.2188 L459.5,574.7813 Q459.5,575.4375 459.2188,575.7188 Q458.9375,576 458.5,576 Q458.1094,576 457.8594,575.8281 Q457.6094,575.6563 457.5,575.2031 Q457.4531,574.8906 457.2813,574.7188 Q456.9688,574.3906 456.4063,574.2031 Q455.8438,574 455.2813,574 Q454.5781,574 453.9844,574.2813 Q453.4063,574.5625 452.9531,575.1875 Q452.5,575.8125 452.5,576.6719 L452.5,577.5938 Q452.5,578.625 453.3438,579.3125 Q454.1875,580 455.6875,580 Q456.5781,580 457.2031,579.7969 Q457.5625,579.6875 457.9688,579.3281 Q458.2344,579.125 458.375,579.0625 Q458.5156,579 458.6875,579 Q459.0156,579 459.25,579.2656 Q459.5,579.5156 459.5,579.875 Q459.5,580.2188 459.1563,580.625 Q458.6563,581.2188 457.8594,581.5469 Q456.8125,582 455.5313,582 Q454.0313,582 452.8281,581.4063 Q451.8594,580.9375 451.1719,579.9219 Q450.5,578.9063 450.5,577.7031 L450.5,576.6094 Q450.5,575.3594 451.0938,574.2656 Q451.7031,573.1719 452.75,572.5938 Q453.8125,572 455,572 Q455.7188,572 456.3438,572.25 Q456.9688,572.5 457.5,573 Z " fill="#000000"/><text fill="#000000" font-family="sans-serif" font-size="12" lengthAdjust="spacing" textLength="85" x="469.5" y="581.4102">RoleRepository</text><line style="stroke:#A80036;stroke-width:1.5;" x1="441.5" x2="556.5" y1="592.5" y2="592.5"/><line style="stroke:#A80036;stroke-width:1.5;" x1="441.5" x2="556.5" y1="600.5" y2="600.5"/><text fill="#000000" font-family="sans-serif" font-size="11" lengthAdjust="spacing" textLength="45" x="446.5" y="615.9189">+create()</text><text fill="#000000" font-family="sans-serif" font-size="11" lengthAdjust="spacing" textLength="56" x="446.5" y="629.7549">+save(role)</text><!--MD5=[eb3433108b320f38a9b86aba7717ec12]
link CollaboratorSpecificationUI to CollaboratorSpecificationController--><path codeLine="109" d="M890,110.22 C890,134.81 890,174.83 890,209.78 " fill="none" id="CollaboratorSpecificationUI-to-CollaboratorSpecificationController" style="stroke:#A80036;stroke-width:1.0;stroke-dasharray:7.0,7.0;"/><polygon fill="#A80036" points="890,214.9,894,205.9,890,209.9,886,205.9,890,214.9" style="stroke:#A80036;stroke-width:1.0;"/><!--MD5=[5d6bd615180f56874b8ef30ed2319198]
link CollaboratorSpecificationController to CollaboratorBuilder--><path codeLine="110" d="M1066.1,283.96 C1521.85,291.51 2715.5,319.24 2872,404 C2914.46,427 2947.89,468.54 2971.8,507.25 " fill="none" id="CollaboratorSpecificationController-to-CollaboratorBuilder" style="stroke:#A80036;stroke-width:1.0;stroke-dasharray:7.0,7.0;"/><polygon fill="#A80036" points="2974.67,511.95,2973.3835,502.1855,2972.0599,507.6854,2966.56,506.3617,2974.67,511.95" style="stroke:#A80036;stroke-width:1.0;"/><!--MD5=[3ed01820e4ceee59de10e9959e59d459]
link CollaboratorSpecificationController to PersistenceContext--><path codeLine="111" d="M713.66,301.94 C554.19,322.87 333.23,358.72 258,404 C193.49,442.84 144.44,518.64 119.75,562.97 " fill="none" id="CollaboratorSpecificationController-to-PersistenceContext" style="stroke:#A80036;stroke-width:1.0;stroke-dasharray:7.0,7.0;"/><polygon fill="#A80036" points="117.29,567.42,125.1492,561.4843,119.7122,563.0459,118.1506,557.6088,117.29,567.42" style="stroke:#A80036;stroke-width:1.0;"/><!--MD5=[d66efb439816738ddd3e9d5fff4bf3a7]
link AppSettings to RepositoryFactory--><path codeLine="113" d="M346.17,560.14 C355.19,518.2 376.41,452.98 424,423 C488.68,382.25 701.42,385.43 768,423 C817.85,451.13 846.9,513.16 861.61,555.41 " fill="none" id="AppSettings-to-RepositoryFactory" style="stroke:#A80036;stroke-width:1.0;"/><polygon fill="#A80036" points="863.24,560.21,864.1178,550.4003,861.6246,555.4781,856.5468,552.985,863.24,560.21" style="stroke:#A80036;stroke-width:1.0;"/><text fill="#000000" font-family="sans-serif" font-size="13" lengthAdjust="spacing" textLength="43" x="673.5" y="392.4951">creates</text><!--MD5=[27fe1c91fe18bafc5695938053528609]
link PersistenceContext to AppSettings--><path codeLine="114" d="M171.8,598.5 C202.53,598.5 238.57,598.5 269.39,598.5 " fill="none" id="PersistenceContext-to-AppSettings" style="stroke:#A80036;stroke-width:1.0;"/><polygon fill="#A80036" points="274.69,598.5,265.69,594.5,269.69,598.5,265.69,602.5,274.69,598.5" style="stroke:#A80036;stroke-width:1.0;"/><text fill="#000000" font-family="sans-serif" font-size="13" lengthAdjust="spacing" textLength="67" x="189.75" y="591.9951">implements</text><!--MD5=[d5e2752559733233d551f65818949b4e]
link RepositoryFactory to CollaboratorRepository--><path codeLine="116" d="M808.84,598.5 C792.3,598.5 774.28,598.5 756.91,598.5 " fill="none" id="RepositoryFactory-to-CollaboratorRepository" style="stroke:#A80036;stroke-width:1.0;"/><polygon fill="#A80036" points="751.55,598.5,760.55,602.5,756.55,598.5,760.55,594.5,751.55,598.5" style="stroke:#A80036;stroke-width:1.0;"/><text fill="#000000" font-family="sans-serif" font-size="13" lengthAdjust="spacing" textLength="21" x="769.75" y="591.9951">has</text><text fill="#000000" font-family="sans-serif" font-size="13" lengthAdjust="spacing" textLength="7" x="793.9012" y="595.1094">1</text><text fill="#000000" font-family="sans-serif" font-size="13" lengthAdjust="spacing" textLength="7" x="759.4657" y="595.265">1</text><!--MD5=[e8d7bf6b88b7a010096b65522ca25b76]
link RepositoryFactory to RoleRepository--><path codeLine="117" d="M863.24,560.21 C849.11,518 819.77,452.21 768,423 C693.29,380.85 646.7,375.92 575,423 C530.6,452.16 512.01,513.42 504.31,555.27 " fill="none" id="RepositoryFactory-to-RoleRepository" style="stroke:#A80036;stroke-width:1.0;"/><polygon fill="#A80036" points="503.43,560.27,508.94,552.1067,504.303,555.3468,501.0629,550.7098,503.43,560.27" style="stroke:#A80036;stroke-width:1.0;"/><text fill="#000000" font-family="sans-serif" font-size="13" lengthAdjust="spacing" textLength="21" x="616.5" y="392.4951">has</text><text fill="#000000" font-family="sans-serif" font-size="13" lengthAdjust="spacing" textLength="7" x="853.6999" y="549.5202">1</text><text fill="#000000" font-family="sans-serif" font-size="13" lengthAdjust="spacing" textLength="7" x="496.5957" y="549.5909">1</text><!--MD5=[e3ed578b90dd6415261c95d17075385f]
link CollaboratorRepository to Collaborator--><path codeLine="119" d="M685.71,560.41 C703.25,518.06 738.12,451.82 793,423 C856.74,389.52 887.1,399.06 955,423 C1029.73,449.34 1097.71,513.34 1137.22,556.33 " fill="none" id="CollaboratorRepository-to-Collaborator" style="stroke:#A80036;stroke-width:1.0;"/><polygon fill="#A80036" points="1140.72,560.16,1137.5969,550.8194,1137.3453,556.4707,1131.694,556.219,1140.72,560.16" style="stroke:#A80036;stroke-width:1.0;"/><text fill="#000000" font-family="sans-serif" font-size="13" lengthAdjust="spacing" textLength="33" x="868.5" y="392.4951">saves</text><text fill="#000000" font-family="sans-serif" font-size="13" lengthAdjust="spacing" textLength="7" x="680.5287" y="549.7559">1</text><text fill="#000000" font-family="sans-serif" font-size="13" lengthAdjust="spacing" textLength="5" x="1129.7422" y="549.7488">*</text><!--MD5=[720a9a454e208d6aeb02f55992318bcd]
link CollaboratorBuilder to Collaborator--><path codeLine="120" d="M2968.13,511.84 C2944.16,477.51 2911.72,441.79 2872,423 C2796.42,387.25 1445.02,392.95 1367,423 C1298.02,449.57 1238.34,513.29 1204.01,556.18 " fill="none" id="CollaboratorBuilder-to-Collaborator" style="stroke:#A80036;stroke-width:1.0;"/><polygon fill="#A80036" points="1200.77,560.27,1209.5036,555.7176,1203.883,556.3573,1203.2433,550.7367,1200.77,560.27" style="stroke:#A80036;stroke-width:1.0;"/><text fill="#000000" font-family="sans-serif" font-size="13" lengthAdjust="spacing" textLength="43" x="1327.5" y="392.4951">creates</text><text fill="#000000" font-family="sans-serif" font-size="13" lengthAdjust="spacing" textLength="7" x="2956.7154" y="501.2359">1</text><text fill="#000000" font-family="sans-serif" font-size="13" lengthAdjust="spacing" textLength="5" x="1200.2712" y="549.5909">*</text><!--MD5=[d22bc09bf5195203640f66a3337dfcbe]
link Collaborator to ShortName--><path codeLine="122" d="M1200.77,560.27 C1234.5,517.44 1295.8,450.43 1367,423 C1434.08,397.16 2599,386.61 2661,423 C2709.3,451.35 2735.55,513.12 2748.42,555.27 " fill="none" id="Collaborator-to-ShortName" style="stroke:#A80036;stroke-width:1.0;"/><polygon fill="#A80036" points="2749.93,560.31,2751.1886,550.5419,2748.4998,555.5189,2743.5228,552.8302,2749.93,560.31" style="stroke:#A80036;stroke-width:1.0;"/><text fill="#000000" font-family="sans-serif" font-size="13" lengthAdjust="spacing" textLength="21" x="1377.5" y="392.4951">has</text><text fill="#000000" font-family="sans-serif" font-size="13" lengthAdjust="spacing" textLength="7" x="1198.0931" y="549.5909">1</text><text fill="#000000" font-family="sans-serif" font-size="13" lengthAdjust="spacing" textLength="7" x="2740.691" y="549.6381">1</text><!--MD5=[48c622d472d667764da07d20d8b811ec]
link Collaborator to CompleteName--><path codeLine="123" d="M1200.77,560.27 C1234.5,517.44 1295.8,450.43 1367,423 C1477.01,380.62 2324.17,367.17 2428,423 C2479.88,450.9 2512.43,513.3 2529.42,555.66 " fill="none" id="Collaborator-to-CompleteName" style="stroke:#A80036;stroke-width:1.0;"/><polygon fill="#A80036" points="2531.31,560.47,2531.7179,550.6296,2529.4703,555.8208,2524.2791,553.5732,2531.31,560.47" style="stroke:#A80036;stroke-width:1.0;"/><text fill="#000000" font-family="sans-serif" font-size="13" lengthAdjust="spacing" textLength="21" x="1405.5" y="392.4951">has</text><text fill="#000000" font-family="sans-serif" font-size="13" lengthAdjust="spacing" textLength="7" x="1206.34" y="549.5909">1</text><text fill="#000000" font-family="sans-serif" font-size="13" lengthAdjust="spacing" textLength="7" x="2521.325" y="549.541">1</text><!--MD5=[f904c2f8a465426d1ef66730e14f9f7d]
link Collaborator to NumeroMecanografico--><path codeLine="124" d="M1200.77,560.27 C1234.5,517.44 1295.8,450.43 1367,423 C1444.87,393.01 2041.93,388.7 2118,423 C2178.19,450.14 2224.4,513.49 2250.14,556.17 " fill="none" id="Collaborator-to-NumeroMecanografico" style="stroke:#A80036;stroke-width:1.0;"/><polygon fill="#A80036" points="2252.71,560.5,2251.5478,550.72,2250.1543,556.2025,2244.6718,554.809,2252.71,560.5" style="stroke:#A80036;stroke-width:1.0;"/><text fill="#000000" font-family="sans-serif" font-size="13" lengthAdjust="spacing" textLength="83" x="1433.5" y="392.4951">is identified by</text><text fill="#000000" font-family="sans-serif" font-size="13" lengthAdjust="spacing" textLength="7" x="1198.0931" y="549.5909">1</text><text fill="#000000" font-family="sans-serif" font-size="13" lengthAdjust="spacing" textLength="7" x="2241.3237" y="549.5765">1</text><!--MD5=[88332974cd7c8ff67bc130ee7f987c8e]
link Collaborator to Role--><path codeLine="125" d="M1200.77,560.27 C1234.5,517.44 1295.8,450.43 1367,423 C1430.97,398.36 1927.54,384.12 1984,423 C2026.98,452.59 2042.4,513.75 2047.93,555.45 " fill="none" id="Collaborator-to-Role" style="stroke:#A80036;stroke-width:1.0;"/><polygon fill="#A80036" points="2048.56,560.44,2051.3961,551.0083,2047.931,555.4797,2043.4596,552.0147,2048.56,560.44" style="stroke:#A80036;stroke-width:1.0;"/><text fill="#000000" font-family="sans-serif" font-size="13" lengthAdjust="spacing" textLength="21" x="1523.5" y="392.4951">has</text><text fill="#000000" font-family="sans-serif" font-size="13" lengthAdjust="spacing" textLength="7" x="1213.7928" y="549.1057">1</text><text fill="#000000" font-family="sans-serif" font-size="13" lengthAdjust="spacing" textLength="7" x="2040.4648" y="549.5055">1</text><!--MD5=[ad690bf35cce9ca8717407802e52e6b0]
link Collaborator to Address--><path codeLine="126" d="M1200.77,560.27 C1234.5,517.44 1295.8,450.43 1367,423 C1458.86,387.61 1726.35,371.1 1810,423 C1856.37,451.77 1878.79,513.43 1889.07,555.45 " fill="none" id="Collaborator-to-Address" style="stroke:#A80036;stroke-width:1.0;"/><polygon fill="#A80036" points="1890.26,560.47,1892.0654,550.788,1889.1013,555.6061,1884.2832,552.642,1890.26,560.47" style="stroke:#A80036;stroke-width:1.0;"/><text fill="#000000" font-family="sans-serif" font-size="13" lengthAdjust="spacing" textLength="21" x="1551.5" y="392.4951">has</text><text fill="#000000" font-family="sans-serif" font-size="13" lengthAdjust="spacing" textLength="7" x="1206.34" y="549.5909">1</text><text fill="#000000" font-family="sans-serif" font-size="13" lengthAdjust="spacing" textLength="7" x="1881.372" y="549.541">1</text><!--MD5=[3362ed3ae5a9e5cbc027fbfeff814e21]
link Collaborator to PhoneNumber--><path codeLine="127" d="M1200.77,560.27 C1234.5,517.44 1295.8,450.43 1367,423 C1441.24,394.4 1473.69,389.82 1546,423 C1605.04,450.09 1649.72,512.92 1674.63,555.57 " fill="none" id="Collaborator-to-PhoneNumber" style="stroke:#A80036;stroke-width:1.0;"/><polygon fill="#A80036" points="1677.28,560.15,1676.2426,550.3559,1674.7793,555.8203,1669.315,554.357,1677.28,560.15" style="stroke:#A80036;stroke-width:1.0;"/><text fill="#000000" font-family="sans-serif" font-size="13" lengthAdjust="spacing" textLength="21" x="1579.5" y="392.4951">has</text><text fill="#000000" font-family="sans-serif" font-size="13" lengthAdjust="spacing" textLength="7" x="1226.5678" y="549.1057">1</text><text fill="#000000" font-family="sans-serif" font-size="13" lengthAdjust="spacing" textLength="7" x="1666.2891" y="549.7371">1</text><!--MD5=[dfbc31d49ce19e9e78ec22b58e38968f]
link Collaborator to BirthDate--><path codeLine="128" d="M1326.51,598.5 C1344.64,598.5 1362.51,598.5 1378.91,598.5 " fill="none" id="Collaborator-to-BirthDate" style="stroke:#A80036;stroke-width:1.0;"/><polygon fill="#A80036" points="1383.96,598.5,1374.96,594.5,1378.96,598.5,1374.96,602.5,1383.96,598.5" style="stroke:#A80036;stroke-width:1.0;"/><text fill="#000000" font-family="sans-serif" font-size="13" lengthAdjust="spacing" textLength="21" x="1344.75" y="591.9951">has</text><text fill="#000000" font-family="sans-serif" font-size="13" lengthAdjust="spacing" textLength="7" x="1334.6058" y="595.6001">1</text><text fill="#000000" font-family="sans-serif" font-size="13" lengthAdjust="spacing" textLength="7" x="1369.1699" y="595.2052">1</text><!--MD5=[e24caf55242bb5a55355c07840860333]
@startuml
skinparam classAttributeIconSize 0


package "UI" #DDDDDD {
class CollaboratorSpecificationUI{

}
}


package "Application" #DDDDDD {
class CollaboratorSpecificationController{
+create()
+addCollaborator(shortName, completeName, mechanographicNumber,\naddress, phoneNumber, birthDate)
+getRoleList()
+addRole(role)
+saveCollaborator()
}
}


package "Domain" #DDDDDD {
class Collaborator{
+create(shortName, completeName, mechanographicNumber,\naddress, phoneNumber, birthDate,Role)
}

class ShortName {
+createShortName(shortName)
-validate(shortName)
}

class CompleteName {
+createCompleteName(completeName)
-validate(completeName)
}

class NumeroMecanografico {
+createNumeroMecanografico(numeroMecanografico)
-validate(numeroMecanografico)
}

class Address {
+createAddress(address)
-validate(address)
}

class PhoneNumber {
+createPhoneNumber(phoneNumber)
-validate(phoneNumber)
}

class BirthDate {
+createBirthDate(birthDate)
-validate(birthDate)
}

class Role {
+createRole(Role)
-validate(Role)
}

package Builder #DDDDDD {
class CollaboratorBuilder{
+create()
+withShortName(shortName)
+withCompleteName(completeName)
+withMechanographicNumber(mechanographicNumber)
+withAddress(address)
+withPhoneNumber(phoneNumber)
+withBirthDate(birthDate)
+withRole(Role)
+createCollaborator()
}
}
}

package Persistence #DDDDDD {
class PersistenceContext{
+repositories()
}

class AppSettings{
+instance()
+getRepositoryFactory()
}

package Factory #DDDDDD {
class RepositoryFactory{
+collaborators()
+roles()
}
}

package "Repository" #DDDDDD {
class CollaboratorRepository{
+create()
+save(collaborator)
}

class RoleRepository{
+create()
+save(role)
}
}

}


CollaboratorSpecificationUI ..> CollaboratorSpecificationController
CollaboratorSpecificationController ..> CollaboratorBuilder
CollaboratorSpecificationController ..> PersistenceContext

AppSettings -> RepositoryFactory : creates
PersistenceContext -> AppSettings : implements

RepositoryFactory "1" -> "1" CollaboratorRepository : has
RepositoryFactory "1" -> "1" RoleRepository : has

CollaboratorRepository "1" -> "*" Collaborator : saves
CollaboratorBuilder "1" -> "*" Collaborator : creates

Collaborator "1" -> "1" ShortName : has
Collaborator "1" -> "1" CompleteName : has
Collaborator "1" -> "1" NumeroMecanografico : is identified by
Collaborator "1" -> "1" Role : has
Collaborator "1" -> "1" Address : has
Collaborator "1" -> "1" PhoneNumber : has
Collaborator "1" -> "1" BirthDate : has

@enduml

PlantUML version 1.2021.5(Sun Apr 25 12:20:28 BST 2021)
(GPL source distribution)
Java Runtime: OpenJDK Runtime Environment
JVM: OpenJDK 64-Bit Server VM
Default Encoding: Cp1252
Language: pt
Country: PT
--></g></svg>