<?xml version="1.0" encoding="UTF-8" standalone="no"?><svg xmlns="http://www.w3.org/2000/svg" xmlns:xlink="http://www.w3.org/1999/xlink" contentScriptType="application/ecmascript" contentStyleType="text/css" height="1912px" preserveAspectRatio="none" style="width:3264px;height:1912px;" version="1.1" viewBox="0 0 3264 1912" width="3264px" zoomAndPan="magnify"><defs><filter height="300%" id="fjpjbizso0dab" width="300%" x="-1" y="-1"><feGaussianBlur result="blurOut" stdDeviation="2.0"/><feColorMatrix in="blurOut" result="blurOut2" type="matrix" values="0 0 0 0 0 0 0 0 0 0 0 0 0 0 0 0 0 0 .4 0"/><feOffset dx="4.0" dy="4.0" in="blurOut2" result="blurOut3"/><feBlend in="SourceGraphic" in2="blurOut3" mode="normal"/></filter></defs><g><rect fill="#FFFFFF" filter="url(#fjpjbizso0dab)" height="1788.2969" style="stroke:#A80036;stroke-width:1.0;" width="10" x="117.5" y="99.6094"/><rect fill="#FFFFFF" filter="url(#fjpjbizso0dab)" height="127.2734" style="stroke:#A80036;stroke-width:1.0;" width="10" x="528.5" y="121.9609"/><rect fill="#FFFFFF" filter="url(#fjpjbizso0dab)" height="842.6875" style="stroke:#A80036;stroke-width:1.0;" width="10" x="528.5" y="279.5859"/><rect fill="#FFFFFF" filter="url(#fjpjbizso0dab)" height="121.0547" style="stroke:#A80036;stroke-width:1.0;" width="10" x="528.5" y="1152.625"/><rect fill="#FFFFFF" filter="url(#fjpjbizso0dab)" height="583.875" style="stroke:#A80036;stroke-width:1.0;" width="10" x="528.5" y="1304.0313"/><rect fill="#FFFFFF" filter="url(#fjpjbizso0dab)" height="246.3281" style="stroke:#A80036;stroke-width:1.0;" width="10" x="896.5" y="326.2891"/><rect fill="#FFFFFF" filter="url(#fjpjbizso0dab)" height="519.3047" style="stroke:#A80036;stroke-width:1.0;" width="10" x="896.5" y="602.9688"/><rect fill="#FFFFFF" filter="url(#fjpjbizso0dab)" height="60.3516" style="stroke:#A80036;stroke-width:1.0;" width="10" x="896.5" y="1182.9766"/><rect fill="#FFFFFF" filter="url(#fjpjbizso0dab)" height="523.1719" style="stroke:#A80036;stroke-width:1.0;" width="10" x="896.5" y="1334.3828"/><rect fill="#FFFFFF" filter="url(#fjpjbizso0dab)" height="151.7578" style="stroke:#A80036;stroke-width:1.0;" width="10" x="1169.5" y="420.8594"/><rect fill="#FFFFFF" filter="url(#fjpjbizso0dab)" height="30" style="stroke:#A80036;stroke-width:1.0;" width="10" x="1169.5" y="1213.3281"/><rect fill="#FFFFFF" filter="url(#fjpjbizso0dab)" height="124.9219" style="stroke:#A80036;stroke-width:1.0;" width="10" x="1169.5" y="1364.7344"/><rect fill="#FFFFFF" filter="url(#fjpjbizso0dab)" height="37.8672" style="stroke:#A80036;stroke-width:1.0;" width="10" x="1550" y="1421.4375"/><rect fill="#FFFFFF" filter="url(#fjpjbizso0dab)" height="215.625" style="stroke:#A80036;stroke-width:1.0;" width="10" x="1695.5" y="633.3203"/><rect fill="#FFFFFF" filter="url(#fjpjbizso0dab)" height="94.5703" style="stroke:#A80036;stroke-width:1.0;" width="10" x="1695.5" y="1520.0078"/><rect fill="#FFFFFF" filter="url(#fjpjbizso0dab)" height="30" style="stroke:#A80036;stroke-width:1.0;" width="10" x="1874.5" y="663.6719"/><rect fill="#FFFFFF" filter="url(#fjpjbizso0dab)" height="124.9219" style="stroke:#A80036;stroke-width:1.0;" width="10" x="1874.5" y="724.0234"/><rect fill="#FFFFFF" filter="url(#fjpjbizso0dab)" height="121.5703" style="stroke:#A80036;stroke-width:1.0;" width="10" x="2024.5" y="879.2969"/><rect fill="#FFFFFF" filter="url(#fjpjbizso0dab)" height="121.5703" style="stroke:#A80036;stroke-width:1.0;" width="10" x="2024.5" y="1644.9297"/><rect fill="#FFFFFF" filter="url(#fjpjbizso0dab)" height="30.3516" style="stroke:#A80036;stroke-width:1.0;" width="10" x="2176.5" y="1031.2188"/><rect fill="#FFFFFF" filter="url(#fjpjbizso0dab)" height="30.3516" style="stroke:#A80036;stroke-width:1.0;" width="10" x="2324" y="1796.8516"/><line style="stroke:#A80036;stroke-width:1.0;stroke-dasharray:5.0,5.0;" x1="122" x2="122" y1="89.6094" y2="1905.9063"/><line style="stroke:#A80036;stroke-width:1.0;stroke-dasharray:5.0,5.0;" x1="533.5" x2="533.5" y1="89.6094" y2="1905.9063"/><line style="stroke:#A80036;stroke-width:1.0;stroke-dasharray:5.0,5.0;" x1="901.5" x2="901.5" y1="172.0703" y2="1905.9063"/><line style="stroke:#A80036;stroke-width:1.0;stroke-dasharray:5.0,5.0;" x1="1174" x2="1174" y1="376.3984" y2="1905.9063"/><line style="stroke:#A80036;stroke-width:1.0;stroke-dasharray:5.0,5.0;" x1="1554.5" x2="1554.5" y1="1414.8438" y2="1905.9063"/><line style="stroke:#A80036;stroke-width:1.0;stroke-dasharray:5.0,5.0;" x1="1700.5" x2="1700.5" y1="89.6094" y2="1905.9063"/><line style="stroke:#A80036;stroke-width:1.0;stroke-dasharray:5.0,5.0;" x1="1879" x2="1879" y1="89.6094" y2="1905.9063"/><line style="stroke:#A80036;stroke-width:1.0;stroke-dasharray:5.0,5.0;" x1="2029.5" x2="2029.5" y1="1570.1172" y2="1905.9063"/><line style="stroke:#A80036;stroke-width:1.0;stroke-dasharray:5.0,5.0;" x1="2181.5" x2="2181.5" y1="942.9063" y2="1905.9063"/><line style="stroke:#A80036;stroke-width:1.0;stroke-dasharray:5.0,5.0;" x1="2328.5" x2="2328.5" y1="1708.5391" y2="1905.9063"/><line style="stroke:#A80036;stroke-width:1.0;stroke-dasharray:5.0,5.0;" x1="2463.5" x2="2463.5" y1="89.6094" y2="1905.9063"/><line style="stroke:#A80036;stroke-width:1.0;stroke-dasharray:5.0,5.0;" x1="2578.5" x2="2578.5" y1="89.6094" y2="1905.9063"/><line style="stroke:#A80036;stroke-width:1.0;stroke-dasharray:5.0,5.0;" x1="2725.5" x2="2725.5" y1="89.6094" y2="1905.9063"/><line style="stroke:#A80036;stroke-width:1.0;stroke-dasharray:5.0,5.0;" x1="2863.5" x2="2863.5" y1="89.6094" y2="1905.9063"/><line style="stroke:#A80036;stroke-width:1.0;stroke-dasharray:5.0,5.0;" x1="2969.5" x2="2969.5" y1="89.6094" y2="1905.9063"/><line style="stroke:#A80036;stroke-width:1.0;stroke-dasharray:5.0,5.0;" x1="3075.5" x2="3075.5" y1="89.6094" y2="1905.9063"/><line style="stroke:#A80036;stroke-width:1.0;stroke-dasharray:5.0,5.0;" x1="3193.5" x2="3193.5" y1="89.6094" y2="1905.9063"/><text fill="#000000" font-family="sans-serif" font-size="14" lengthAdjust="spacing" textLength="229" x="5" y="86.5332">Responsável de Recursos Humanos</text><ellipse cx="122.5" cy="15" fill="#FEFECE" filter="url(#fjpjbizso0dab)" rx="8" ry="8" style="stroke:#A80036;stroke-width:2.0;"/><path d="M122.5,23 L122.5,50 M109.5,31 L135.5,31 M122.5,50 L109.5,65 M122.5,50 L135.5,65 " fill="none" filter="url(#fjpjbizso0dab)" style="stroke:#A80036;stroke-width:2.0;"/><rect fill="#FEFECE" filter="url(#fjpjbizso0dab)" height="49.2188" style="stroke:#A80036;stroke-width:1.5;" width="174" x="444.5" y="35.3906"/><text fill="#000000" font-family="sans-serif" font-size="14" lengthAdjust="spacing" textLength="111" x="476" y="56.9238">&lt;&lt;presentation&gt;&gt;</text><text fill="#000000" font-family="sans-serif" font-size="14" lengthAdjust="spacing" textLength="160" x="451.5" y="74.5332">EspecificarColaboradorUI</text><rect fill="#FEFECE" filter="url(#fjpjbizso0dab)" height="49.2188" style="stroke:#A80036;stroke-width:1.5;" width="132" x="1632.5" y="35.3906"/><text fill="#000000" font-family="sans-serif" font-size="14" lengthAdjust="spacing" textLength="105" x="1646" y="56.9238">&lt;&lt;persistence&gt;&gt;</text><text fill="#000000" font-family="sans-serif" font-size="14" lengthAdjust="spacing" textLength="118" x="1639.5" y="74.5332">PersistenceContex</text><rect fill="#FEFECE" filter="url(#fjpjbizso0dab)" height="49.2188" style="stroke:#A80036;stroke-width:1.5;" width="119" x="1818" y="35.3906"/><text fill="#000000" font-family="sans-serif" font-size="14" lengthAdjust="spacing" textLength="105" x="1825" y="56.9238">&lt;&lt;persistence&gt;&gt;</text><text fill="#000000" font-family="sans-serif" font-size="14" lengthAdjust="spacing" textLength="76" x="1839.5" y="74.5332">AppSettings</text><rect fill="#FEFECE" filter="url(#fjpjbizso0dab)" height="49.2188" style="stroke:#A80036;stroke-width:1.5;" width="92" x="2415.5" y="35.3906"/><text fill="#000000" font-family="sans-serif" font-size="14" lengthAdjust="spacing" textLength="78" x="2422.5" y="56.9238">&lt;&lt;domain&gt;&gt;</text><text fill="#000000" font-family="sans-serif" font-size="14" lengthAdjust="spacing" textLength="71" x="2426" y="74.5332">NomeCurto</text><rect fill="#FEFECE" filter="url(#fjpjbizso0dab)" height="49.2188" style="stroke:#A80036;stroke-width:1.5;" width="110" x="2521.5" y="35.3906"/><text fill="#000000" font-family="sans-serif" font-size="14" lengthAdjust="spacing" textLength="78" x="2537.5" y="56.9238">&lt;&lt;domain&gt;&gt;</text><text fill="#000000" font-family="sans-serif" font-size="14" lengthAdjust="spacing" textLength="96" x="2528.5" y="74.5332">NomeCompleto</text><rect fill="#FEFECE" filter="url(#fjpjbizso0dab)" height="49.2188" style="stroke:#A80036;stroke-width:1.5;" width="156" x="2645.5" y="35.3906"/><text fill="#000000" font-family="sans-serif" font-size="14" lengthAdjust="spacing" textLength="78" x="2684.5" y="56.9238">&lt;&lt;domain&gt;&gt;</text><text fill="#000000" font-family="sans-serif" font-size="14" lengthAdjust="spacing" textLength="142" x="2652.5" y="74.5332">NumeroMecanografico</text><rect fill="#FEFECE" filter="url(#fjpjbizso0dab)" height="49.2188" style="stroke:#A80036;stroke-width:1.5;" width="92" x="2815.5" y="35.3906"/><text fill="#000000" font-family="sans-serif" font-size="14" lengthAdjust="spacing" textLength="78" x="2822.5" y="56.9238">&lt;&lt;domain&gt;&gt;</text><text fill="#000000" font-family="sans-serif" font-size="14" lengthAdjust="spacing" textLength="48" x="2837.5" y="74.5332">Funcao</text><rect fill="#FEFECE" filter="url(#fjpjbizso0dab)" height="49.2188" style="stroke:#A80036;stroke-width:1.5;" width="92" x="2921.5" y="35.3906"/><text fill="#000000" font-family="sans-serif" font-size="14" lengthAdjust="spacing" textLength="78" x="2928.5" y="56.9238">&lt;&lt;domain&gt;&gt;</text><text fill="#000000" font-family="sans-serif" font-size="14" lengthAdjust="spacing" textLength="48" x="2943.5" y="74.5332">Morada</text><rect fill="#FEFECE" filter="url(#fjpjbizso0dab)" height="49.2188" style="stroke:#A80036;stroke-width:1.5;" width="92" x="3027.5" y="35.3906"/><text fill="#000000" font-family="sans-serif" font-size="14" lengthAdjust="spacing" textLength="78" x="3034.5" y="56.9238">&lt;&lt;domain&gt;&gt;</text><text fill="#000000" font-family="sans-serif" font-size="14" lengthAdjust="spacing" textLength="57" x="3045" y="74.5332">Contacto</text><rect fill="#FEFECE" filter="url(#fjpjbizso0dab)" height="49.2188" style="stroke:#A80036;stroke-width:1.5;" width="117" x="3133.5" y="35.3906"/><text fill="#000000" font-family="sans-serif" font-size="14" lengthAdjust="spacing" textLength="78" x="3153" y="56.9238">&lt;&lt;domain&gt;&gt;</text><text fill="#000000" font-family="sans-serif" font-size="14" lengthAdjust="spacing" textLength="103" x="3140.5" y="74.5332">DataNascimento</text><rect fill="#FFFFFF" filter="url(#fjpjbizso0dab)" height="1788.2969" style="stroke:#A80036;stroke-width:1.0;" width="10" x="117.5" y="99.6094"/><rect fill="#FFFFFF" filter="url(#fjpjbizso0dab)" height="127.2734" style="stroke:#A80036;stroke-width:1.0;" width="10" x="528.5" y="121.9609"/><rect fill="#FFFFFF" filter="url(#fjpjbizso0dab)" height="842.6875" style="stroke:#A80036;stroke-width:1.0;" width="10" x="528.5" y="279.5859"/><rect fill="#FFFFFF" filter="url(#fjpjbizso0dab)" height="121.0547" style="stroke:#A80036;stroke-width:1.0;" width="10" x="528.5" y="1152.625"/><rect fill="#FFFFFF" filter="url(#fjpjbizso0dab)" height="583.875" style="stroke:#A80036;stroke-width:1.0;" width="10" x="528.5" y="1304.0313"/><rect fill="#FFFFFF" filter="url(#fjpjbizso0dab)" height="246.3281" style="stroke:#A80036;stroke-width:1.0;" width="10" x="896.5" y="326.2891"/><rect fill="#FFFFFF" filter="url(#fjpjbizso0dab)" height="519.3047" style="stroke:#A80036;stroke-width:1.0;" width="10" x="896.5" y="602.9688"/><rect fill="#FFFFFF" filter="url(#fjpjbizso0dab)" height="60.3516" style="stroke:#A80036;stroke-width:1.0;" width="10" x="896.5" y="1182.9766"/><rect fill="#FFFFFF" filter="url(#fjpjbizso0dab)" height="523.1719" style="stroke:#A80036;stroke-width:1.0;" width="10" x="896.5" y="1334.3828"/><rect fill="#FFFFFF" filter="url(#fjpjbizso0dab)" height="151.7578" style="stroke:#A80036;stroke-width:1.0;" width="10" x="1169.5" y="420.8594"/><rect fill="#FFFFFF" filter="url(#fjpjbizso0dab)" height="30" style="stroke:#A80036;stroke-width:1.0;" width="10" x="1169.5" y="1213.3281"/><rect fill="#FFFFFF" filter="url(#fjpjbizso0dab)" height="124.9219" style="stroke:#A80036;stroke-width:1.0;" width="10" x="1169.5" y="1364.7344"/><rect fill="#FFFFFF" filter="url(#fjpjbizso0dab)" height="37.8672" style="stroke:#A80036;stroke-width:1.0;" width="10" x="1550" y="1421.4375"/><rect fill="#FFFFFF" filter="url(#fjpjbizso0dab)" height="215.625" style="stroke:#A80036;stroke-width:1.0;" width="10" x="1695.5" y="633.3203"/><rect fill="#FFFFFF" filter="url(#fjpjbizso0dab)" height="94.5703" style="stroke:#A80036;stroke-width:1.0;" width="10" x="1695.5" y="1520.0078"/><rect fill="#FFFFFF" filter="url(#fjpjbizso0dab)" height="30" style="stroke:#A80036;stroke-width:1.0;" width="10" x="1874.5" y="663.6719"/><rect fill="#FFFFFF" filter="url(#fjpjbizso0dab)" height="124.9219" style="stroke:#A80036;stroke-width:1.0;" width="10" x="1874.5" y="724.0234"/><rect fill="#FFFFFF" filter="url(#fjpjbizso0dab)" height="121.5703" style="stroke:#A80036;stroke-width:1.0;" width="10" x="2024.5" y="879.2969"/><rect fill="#FFFFFF" filter="url(#fjpjbizso0dab)" height="121.5703" style="stroke:#A80036;stroke-width:1.0;" width="10" x="2024.5" y="1644.9297"/><rect fill="#FFFFFF" filter="url(#fjpjbizso0dab)" height="30.3516" style="stroke:#A80036;stroke-width:1.0;" width="10" x="2176.5" y="1031.2188"/><rect fill="#FFFFFF" filter="url(#fjpjbizso0dab)" height="30.3516" style="stroke:#A80036;stroke-width:1.0;" width="10" x="2324" y="1796.8516"/><polygon fill="#A80036" points="516.5,117.9609,526.5,121.9609,516.5,125.9609,520.5,121.9609" style="stroke:#A80036;stroke-width:1.0;"/><line style="stroke:#A80036;stroke-width:1.0;" x1="127.5" x2="522.5" y1="121.9609" y2="121.9609"/><text fill="#000000" font-family="sans-serif" font-size="13" font-weight="bold" lengthAdjust="spacing" textLength="7" x="134.5" y="117.1045">1</text><text fill="#000000" font-family="sans-serif" font-size="13" lengthAdjust="spacing" textLength="283" x="145.5" y="117.1045">Envia um pedido para especificar um colaborador</text><polygon fill="#A80036" points="775.5,148.3125,785.5,152.3125,775.5,156.3125,779.5,152.3125" style="stroke:#A80036;stroke-width:1.0;"/><line style="stroke:#A80036;stroke-width:1.0;" x1="538.5" x2="781.5" y1="152.3125" y2="152.3125"/><text fill="#000000" font-family="sans-serif" font-size="13" font-weight="bold" lengthAdjust="spacing" textLength="7" x="545.5" y="147.4561">2</text><text fill="#000000" font-family="sans-serif" font-size="13" lengthAdjust="spacing" textLength="44" x="556.5" y="147.4561">create()</text><rect fill="#FEFECE" filter="url(#fjpjbizso0dab)" height="49.2188" style="stroke:#A80036;stroke-width:1.5;" width="224" x="787.5" y="129.9609"/><text fill="#000000" font-family="sans-serif" font-size="14" lengthAdjust="spacing" textLength="92" x="853.5" y="151.4941">&lt;&lt;aplication&gt;&gt;</text><text fill="#000000" font-family="sans-serif" font-size="14" lengthAdjust="spacing" textLength="210" x="794.5" y="169.1035">EspecificarColaboradorController</text><polygon fill="#A80036" points="138.5,245.2344,128.5,249.2344,138.5,253.2344,134.5,249.2344" style="stroke:#A80036;stroke-width:1.0;"/><line style="stroke:#A80036;stroke-width:1.0;stroke-dasharray:2.0,2.0;" x1="132.5" x2="532.5" y1="249.2344" y2="249.2344"/><text fill="#000000" font-family="sans-serif" font-size="13" font-weight="bold" lengthAdjust="spacing" textLength="7" x="144.5" y="228.0264">3</text><text fill="#000000" font-family="sans-serif" font-size="13" lengthAdjust="spacing" textLength="340" x="155.5" y="211.6748">Solicita toda a informação necessária para a especificação</text><text fill="#000000" font-family="sans-serif" font-size="13" lengthAdjust="spacing" textLength="270" x="159.5" y="228.0264">de um colaborador(i.e. nome curto e completo,</text><text fill="#000000" font-family="sans-serif" font-size="13" lengthAdjust="spacing" textLength="366" x="155.5" y="244.3779">número mecanográfico, morada, contacto, data de nascimento)</text><polygon fill="#A80036" points="516.5,275.5859,526.5,279.5859,516.5,283.5859,520.5,279.5859" style="stroke:#A80036;stroke-width:1.0;"/><line style="stroke:#A80036;stroke-width:1.0;" x1="127.5" x2="522.5" y1="279.5859" y2="279.5859"/><text fill="#000000" font-family="sans-serif" font-size="13" font-weight="bold" lengthAdjust="spacing" textLength="7" x="134.5" y="274.7295">4</text><text fill="#000000" font-family="sans-serif" font-size="13" lengthAdjust="spacing" textLength="250" x="145.5" y="274.7295">Preenche com toda a informação solicitada</text><polygon fill="#A80036" points="884.5,322.2891,894.5,326.2891,884.5,330.2891,888.5,326.2891" style="stroke:#A80036;stroke-width:1.0;"/><line style="stroke:#A80036;stroke-width:1.0;" x1="538.5" x2="890.5" y1="326.2891" y2="326.2891"/><text fill="#000000" font-family="sans-serif" font-size="13" font-weight="bold" lengthAdjust="spacing" textLength="7" x="545.5" y="313.2568">5</text><text fill="#000000" font-family="sans-serif" font-size="13" lengthAdjust="spacing" textLength="328" x="556.5" y="305.0811">addColaborador(nomeCurto, nomeCompleto, numMecan,</text><text fill="#000000" font-family="sans-serif" font-size="13" lengthAdjust="spacing" textLength="207" x="556.5" y="321.4326">morada, contacto, dataNascimento)</text><polygon fill="#A80036" points="1092,352.6406,1102,356.6406,1092,360.6406,1096,356.6406" style="stroke:#A80036;stroke-width:1.0;"/><line style="stroke:#A80036;stroke-width:1.0;" x1="906.5" x2="1098" y1="356.6406" y2="356.6406"/><text fill="#000000" font-family="sans-serif" font-size="13" font-weight="bold" lengthAdjust="spacing" textLength="7" x="913.5" y="351.7842">6</text><text fill="#000000" font-family="sans-serif" font-size="13" lengthAdjust="spacing" textLength="44" x="924.5" y="351.7842">create()</text><rect fill="#FEFECE" filter="url(#fjpjbizso0dab)" height="49.2188" style="stroke:#A80036;stroke-width:1.5;" width="137" x="1104" y="334.2891"/><text fill="#000000" font-family="sans-serif" font-size="14" lengthAdjust="spacing" textLength="75" x="1135" y="355.8223">&lt;&lt;builder&gt;&gt;</text><text fill="#000000" font-family="sans-serif" font-size="14" lengthAdjust="spacing" textLength="123" x="1111" y="373.4316">ColaboradorBuilder</text><polygon fill="#A80036" points="1157.5,416.8594,1167.5,420.8594,1157.5,424.8594,1161.5,420.8594" style="stroke:#A80036;stroke-width:1.0;"/><line style="stroke:#A80036;stroke-width:1.0;" x1="906.5" x2="1163.5" y1="420.8594" y2="420.8594"/><text fill="#000000" font-family="sans-serif" font-size="13" font-weight="bold" lengthAdjust="spacing" textLength="7" x="913.5" y="416.0029">7</text><text fill="#000000" font-family="sans-serif" font-size="13" lengthAdjust="spacing" textLength="159" x="924.5" y="416.0029">withNomeCurto(nomeCurto)</text><polygon fill="#A80036" points="1157.5,447.2109,1167.5,451.2109,1157.5,455.2109,1161.5,451.2109" style="stroke:#A80036;stroke-width:1.0;"/><line style="stroke:#A80036;stroke-width:1.0;" x1="906.5" x2="1163.5" y1="451.2109" y2="451.2109"/><text fill="#000000" font-family="sans-serif" font-size="13" font-weight="bold" lengthAdjust="spacing" textLength="7" x="913.5" y="446.3545">8</text><text fill="#000000" font-family="sans-serif" font-size="13" lengthAdjust="spacing" textLength="207" x="924.5" y="446.3545">withNomeCompleto(nomeCompleto)</text><polygon fill="#A80036" points="1157.5,477.5625,1167.5,481.5625,1157.5,485.5625,1161.5,481.5625" style="stroke:#A80036;stroke-width:1.0;"/><line style="stroke:#A80036;stroke-width:1.0;" x1="906.5" x2="1163.5" y1="481.5625" y2="481.5625"/><text fill="#000000" font-family="sans-serif" font-size="13" font-weight="bold" lengthAdjust="spacing" textLength="7" x="913.5" y="476.7061">9</text><text fill="#000000" font-family="sans-serif" font-size="13" lengthAdjust="spacing" textLength="161" x="924.5" y="476.7061">withNumMecan(numMecan)</text><polygon fill="#A80036" points="1157.5,507.9141,1167.5,511.9141,1157.5,515.9141,1161.5,511.9141" style="stroke:#A80036;stroke-width:1.0;"/><line style="stroke:#A80036;stroke-width:1.0;" x1="906.5" x2="1163.5" y1="511.9141" y2="511.9141"/><text fill="#000000" font-family="sans-serif" font-size="13" font-weight="bold" lengthAdjust="spacing" textLength="14" x="913.5" y="507.0576">10</text><text fill="#000000" font-family="sans-serif" font-size="13" lengthAdjust="spacing" textLength="117" x="931.5" y="507.0576">withMorada(morada)</text><polygon fill="#A80036" points="1157.5,538.2656,1167.5,542.2656,1157.5,546.2656,1161.5,542.2656" style="stroke:#A80036;stroke-width:1.0;"/><line style="stroke:#A80036;stroke-width:1.0;" x1="906.5" x2="1163.5" y1="542.2656" y2="542.2656"/><text fill="#000000" font-family="sans-serif" font-size="13" font-weight="bold" lengthAdjust="spacing" textLength="14" x="913.5" y="537.4092">11</text><text fill="#000000" font-family="sans-serif" font-size="13" lengthAdjust="spacing" textLength="133" x="931.5" y="537.4092">withContacto(contacto)</text><polygon fill="#A80036" points="1162.5,568.6172,1172.5,572.6172,1162.5,576.6172,1166.5,572.6172" style="stroke:#A80036;stroke-width:1.0;"/><line style="stroke:#A80036;stroke-width:1.0;" x1="901.5" x2="1168.5" y1="572.6172" y2="572.6172"/><text fill="#000000" font-family="sans-serif" font-size="13" font-weight="bold" lengthAdjust="spacing" textLength="14" x="908.5" y="567.7607">12</text><text fill="#000000" font-family="sans-serif" font-size="13" lengthAdjust="spacing" textLength="221" x="926.5" y="567.7607">withDataNascimento(dataNascimento)</text><polygon fill="#A80036" points="884.5,598.9688,894.5,602.9688,884.5,606.9688,888.5,602.9688" style="stroke:#A80036;stroke-width:1.0;"/><line style="stroke:#A80036;stroke-width:1.0;" x1="538.5" x2="890.5" y1="602.9688" y2="602.9688"/><text fill="#000000" font-family="sans-serif" font-size="13" font-weight="bold" lengthAdjust="spacing" textLength="14" x="545.5" y="598.1123">13</text><text fill="#000000" font-family="sans-serif" font-size="13" lengthAdjust="spacing" textLength="90" x="563.5" y="598.1123">getFuncaoList()</text><polygon fill="#A80036" points="1683.5,629.3203,1693.5,633.3203,1683.5,637.3203,1687.5,633.3203" style="stroke:#A80036;stroke-width:1.0;"/><line style="stroke:#A80036;stroke-width:1.0;" x1="906.5" x2="1689.5" y1="633.3203" y2="633.3203"/><text fill="#000000" font-family="sans-serif" font-size="13" font-weight="bold" lengthAdjust="spacing" textLength="14" x="913.5" y="628.4639">14</text><text fill="#000000" font-family="sans-serif" font-size="13" lengthAdjust="spacing" textLength="75" x="931.5" y="628.4639">repositories()</text><polygon fill="#A80036" points="1862.5,659.6719,1872.5,663.6719,1862.5,667.6719,1866.5,663.6719" style="stroke:#A80036;stroke-width:1.0;"/><line style="stroke:#A80036;stroke-width:1.0;" x1="1705.5" x2="1868.5" y1="663.6719" y2="663.6719"/><text fill="#000000" font-family="sans-serif" font-size="13" font-weight="bold" lengthAdjust="spacing" textLength="14" x="1712.5" y="658.8154">15</text><text fill="#000000" font-family="sans-serif" font-size="13" lengthAdjust="spacing" textLength="57" x="1730.5" y="658.8154">instance()</text><polygon fill="#A80036" points="1862.5,720.0234,1872.5,724.0234,1862.5,728.0234,1866.5,724.0234" style="stroke:#A80036;stroke-width:1.0;"/><line style="stroke:#A80036;stroke-width:1.0;" x1="1705.5" x2="1868.5" y1="724.0234" y2="724.0234"/><text fill="#000000" font-family="sans-serif" font-size="13" font-weight="bold" lengthAdjust="spacing" textLength="14" x="1712.5" y="719.167">16</text><text fill="#000000" font-family="sans-serif" font-size="13" lengthAdjust="spacing" textLength="132" x="1730.5" y="719.167">getRepositoryFactory()</text><polygon fill="#A80036" points="1950.5,750.375,1960.5,754.375,1950.5,758.375,1954.5,754.375" style="stroke:#A80036;stroke-width:1.0;"/><line style="stroke:#A80036;stroke-width:1.0;" x1="1884.5" x2="1956.5" y1="754.375" y2="754.375"/><text fill="#000000" font-family="sans-serif" font-size="13" font-weight="bold" lengthAdjust="spacing" textLength="14" x="1891.5" y="749.5186">17</text><text fill="#000000" font-family="sans-serif" font-size="13" lengthAdjust="spacing" textLength="36" x="1909.5" y="749.5186">create</text><rect fill="#FEFECE" filter="url(#fjpjbizso0dab)" height="49.2188" style="stroke:#A80036;stroke-width:1.5;" width="130" x="1962.5" y="732.0234"/><text fill="#000000" font-family="sans-serif" font-size="14" lengthAdjust="spacing" textLength="75" x="1990" y="753.5566">&lt;&lt;factory&gt;&gt;</text><text fill="#000000" font-family="sans-serif" font-size="14" lengthAdjust="spacing" textLength="116" x="1969.5" y="771.166">RepositoryFactory</text><polygon fill="#A80036" points="1716.5,814.5938,1706.5,818.5938,1716.5,822.5938,1712.5,818.5938" style="stroke:#A80036;stroke-width:1.0;"/><line style="stroke:#A80036;stroke-width:1.0;stroke-dasharray:2.0,2.0;" x1="1710.5" x2="1873.5" y1="818.5938" y2="818.5938"/><text fill="#000000" font-family="sans-serif" font-size="13" font-weight="bold" lengthAdjust="spacing" textLength="14" x="1722.5" y="813.7373">18</text><text fill="#000000" font-family="sans-serif" font-size="13" lengthAdjust="spacing" textLength="39" x="1740.5" y="813.7373">factory</text><polygon fill="#A80036" points="917.5,844.9453,907.5,848.9453,917.5,852.9453,913.5,848.9453" style="stroke:#A80036;stroke-width:1.0;"/><line style="stroke:#A80036;stroke-width:1.0;stroke-dasharray:2.0,2.0;" x1="911.5" x2="1699.5" y1="848.9453" y2="848.9453"/><text fill="#000000" font-family="sans-serif" font-size="13" font-weight="bold" lengthAdjust="spacing" textLength="14" x="923.5" y="844.0889">19</text><text fill="#000000" font-family="sans-serif" font-size="13" lengthAdjust="spacing" textLength="39" x="941.5" y="844.0889">factory</text><polygon fill="#A80036" points="2012.5,875.2969,2022.5,879.2969,2012.5,883.2969,2016.5,879.2969" style="stroke:#A80036;stroke-width:1.0;"/><line style="stroke:#A80036;stroke-width:1.0;" x1="906.5" x2="2018.5" y1="879.2969" y2="879.2969"/><text fill="#000000" font-family="sans-serif" font-size="13" font-weight="bold" lengthAdjust="spacing" textLength="14" x="913.5" y="874.4404">20</text><text fill="#000000" font-family="sans-serif" font-size="13" lengthAdjust="spacing" textLength="53" x="931.5" y="874.4404">funcoes()</text><polygon fill="#A80036" points="2108.5,905.6484,2118.5,909.6484,2108.5,913.6484,2112.5,909.6484" style="stroke:#A80036;stroke-width:1.0;"/><line style="stroke:#A80036;stroke-width:1.0;" x1="2034.5" x2="2114.5" y1="909.6484" y2="909.6484"/><text fill="#000000" font-family="sans-serif" font-size="13" font-weight="bold" lengthAdjust="spacing" textLength="14" x="2041.5" y="904.792">21</text><text fill="#000000" font-family="sans-serif" font-size="13" lengthAdjust="spacing" textLength="44" x="2059.5" y="904.792">create()</text><text fill="#000000" font-family="sans-serif" font-size="14" lengthAdjust="spacing" textLength="95" x="2131" y="947.8301">&lt;&lt;repository&gt;&gt;</text><text fill="#000000" font-family="sans-serif" font-size="14" lengthAdjust="spacing" textLength="116" x="2120.5" y="965.4395">FuncaoRepository</text><path d="M2163.5,897.2969 C2163.5,887.2969 2181.5,887.2969 2181.5,887.2969 C2181.5,887.2969 2199.5,887.2969 2199.5,897.2969 L2199.5,923.2969 C2199.5,933.2969 2181.5,933.2969 2181.5,933.2969 C2181.5,933.2969 2163.5,933.2969 2163.5,923.2969 L2163.5,897.2969 " fill="#FEFECE" filter="url(#fjpjbizso0dab)" style="stroke:#000000;stroke-width:1.5;"/><path d="M2163.5,897.2969 C2163.5,907.2969 2181.5,907.2969 2181.5,907.2969 C2181.5,907.2969 2199.5,907.2969 2199.5,897.2969 " fill="none" style="stroke:#000000;stroke-width:1.5;"/><polygon fill="#A80036" points="917.5,996.8672,907.5,1000.8672,917.5,1004.8672,913.5,1000.8672" style="stroke:#A80036;stroke-width:1.0;"/><line style="stroke:#A80036;stroke-width:1.0;stroke-dasharray:2.0,2.0;" x1="911.5" x2="2028.5" y1="1000.8672" y2="1000.8672"/><text fill="#000000" font-family="sans-serif" font-size="13" font-weight="bold" lengthAdjust="spacing" textLength="14" x="923.5" y="996.0107">22</text><text fill="#000000" font-family="sans-serif" font-size="13" lengthAdjust="spacing" textLength="100" x="941.5" y="996.0107">funcaoRepository</text><polygon fill="#A80036" points="2164.5,1027.2188,2174.5,1031.2188,2164.5,1035.2188,2168.5,1031.2188" style="stroke:#A80036;stroke-width:1.0;"/><line style="stroke:#A80036;stroke-width:1.0;" x1="906.5" x2="2170.5" y1="1031.2188" y2="1031.2188"/><text fill="#000000" font-family="sans-serif" font-size="13" font-weight="bold" lengthAdjust="spacing" textLength="14" x="913.5" y="1026.3623">23</text><text fill="#000000" font-family="sans-serif" font-size="13" lengthAdjust="spacing" textLength="72" x="931.5" y="1026.3623">save(funcao)</text><polygon fill="#A80036" points="917.5,1057.5703,907.5,1061.5703,917.5,1065.5703,913.5,1061.5703" style="stroke:#A80036;stroke-width:1.0;"/><line style="stroke:#A80036;stroke-width:1.0;stroke-dasharray:2.0,2.0;" x1="911.5" x2="2180.5" y1="1061.5703" y2="1061.5703"/><text fill="#000000" font-family="sans-serif" font-size="13" font-weight="bold" lengthAdjust="spacing" textLength="14" x="923.5" y="1056.7139">24</text><text fill="#000000" font-family="sans-serif" font-size="13" lengthAdjust="spacing" textLength="38" x="941.5" y="1056.7139">funcao</text><polygon fill="#A80036" points="549.5,1087.9219,539.5,1091.9219,549.5,1095.9219,545.5,1091.9219" style="stroke:#A80036;stroke-width:1.0;"/><line style="stroke:#A80036;stroke-width:1.0;stroke-dasharray:2.0,2.0;" x1="543.5" x2="895.5" y1="1091.9219" y2="1091.9219"/><text fill="#000000" font-family="sans-serif" font-size="13" font-weight="bold" lengthAdjust="spacing" textLength="14" x="555.5" y="1087.0654">25</text><text fill="#000000" font-family="sans-serif" font-size="13" lengthAdjust="spacing" textLength="38" x="573.5" y="1087.0654">funcao</text><polygon fill="#A80036" points="138.5,1118.2734,128.5,1122.2734,138.5,1126.2734,134.5,1122.2734" style="stroke:#A80036;stroke-width:1.0;"/><line style="stroke:#A80036;stroke-width:1.0;stroke-dasharray:2.0,2.0;" x1="132.5" x2="532.5" y1="1122.2734" y2="1122.2734"/><text fill="#000000" font-family="sans-serif" font-size="13" font-weight="bold" lengthAdjust="spacing" textLength="14" x="144.5" y="1117.417">26</text><text fill="#000000" font-family="sans-serif" font-size="13" lengthAdjust="spacing" textLength="165" x="162.5" y="1117.417">Apresenta a lista de funções</text><polygon fill="#A80036" points="516.5,1148.625,526.5,1152.625,516.5,1156.625,520.5,1152.625" style="stroke:#A80036;stroke-width:1.0;"/><line style="stroke:#A80036;stroke-width:1.0;" x1="127.5" x2="522.5" y1="1152.625" y2="1152.625"/><text fill="#000000" font-family="sans-serif" font-size="13" font-weight="bold" lengthAdjust="spacing" textLength="14" x="134.5" y="1147.7686">27</text><text fill="#000000" font-family="sans-serif" font-size="13" lengthAdjust="spacing" textLength="174" x="152.5" y="1147.7686">Seleciona a função pretendida</text><polygon fill="#A80036" points="884.5,1178.9766,894.5,1182.9766,884.5,1186.9766,888.5,1182.9766" style="stroke:#A80036;stroke-width:1.0;"/><line style="stroke:#A80036;stroke-width:1.0;" x1="538.5" x2="890.5" y1="1182.9766" y2="1182.9766"/><text fill="#000000" font-family="sans-serif" font-size="13" font-weight="bold" lengthAdjust="spacing" textLength="14" x="545.5" y="1178.1201">28</text><text fill="#000000" font-family="sans-serif" font-size="13" lengthAdjust="spacing" textLength="110" x="563.5" y="1178.1201">addFuncao(funcao)</text><polygon fill="#A80036" points="1157.5,1209.3281,1167.5,1213.3281,1157.5,1217.3281,1161.5,1213.3281" style="stroke:#A80036;stroke-width:1.0;"/><line style="stroke:#A80036;stroke-width:1.0;" x1="906.5" x2="1163.5" y1="1213.3281" y2="1213.3281"/><text fill="#000000" font-family="sans-serif" font-size="13" font-weight="bold" lengthAdjust="spacing" textLength="14" x="913.5" y="1208.4717">29</text><text fill="#000000" font-family="sans-serif" font-size="13" lengthAdjust="spacing" textLength="112" x="931.5" y="1208.4717">withFuncao(funcao)</text><polygon fill="#A80036" points="138.5,1269.6797,128.5,1273.6797,138.5,1277.6797,134.5,1273.6797" style="stroke:#A80036;stroke-width:1.0;"/><line style="stroke:#A80036;stroke-width:1.0;stroke-dasharray:2.0,2.0;" x1="132.5" x2="532.5" y1="1273.6797" y2="1273.6797"/><text fill="#000000" font-family="sans-serif" font-size="13" font-weight="bold" lengthAdjust="spacing" textLength="14" x="144.5" y="1268.8232">30</text><text fill="#000000" font-family="sans-serif" font-size="13" lengthAdjust="spacing" textLength="267" x="162.5" y="1268.8232">Apresenta a informação e solicita confirmação</text><polygon fill="#A80036" points="516.5,1300.0313,526.5,1304.0313,516.5,1308.0313,520.5,1304.0313" style="stroke:#A80036;stroke-width:1.0;"/><line style="stroke:#A80036;stroke-width:1.0;" x1="127.5" x2="522.5" y1="1304.0313" y2="1304.0313"/><text fill="#000000" font-family="sans-serif" font-size="13" font-weight="bold" lengthAdjust="spacing" textLength="14" x="134.5" y="1299.1748">31</text><text fill="#000000" font-family="sans-serif" font-size="13" lengthAdjust="spacing" textLength="51" x="152.5" y="1299.1748">Confirma</text><polygon fill="#A80036" points="884.5,1330.3828,894.5,1334.3828,884.5,1338.3828,888.5,1334.3828" style="stroke:#A80036;stroke-width:1.0;"/><line style="stroke:#A80036;stroke-width:1.0;" x1="538.5" x2="890.5" y1="1334.3828" y2="1334.3828"/><text fill="#000000" font-family="sans-serif" font-size="13" font-weight="bold" lengthAdjust="spacing" textLength="14" x="545.5" y="1329.5264">32</text><text fill="#000000" font-family="sans-serif" font-size="13" lengthAdjust="spacing" textLength="103" x="563.5" y="1329.5264">saveColaborador()</text><polygon fill="#A80036" points="1157.5,1360.7344,1167.5,1364.7344,1157.5,1368.7344,1161.5,1364.7344" style="stroke:#A80036;stroke-width:1.0;"/><line style="stroke:#A80036;stroke-width:1.0;" x1="906.5" x2="1163.5" y1="1364.7344" y2="1364.7344"/><text fill="#000000" font-family="sans-serif" font-size="13" font-weight="bold" lengthAdjust="spacing" textLength="14" x="913.5" y="1359.8779">33</text><text fill="#000000" font-family="sans-serif" font-size="13" lengthAdjust="spacing" textLength="113" x="931.5" y="1359.8779">createColaborador()</text><polygon fill="#A80036" points="1475.5,1407.4375,1485.5,1411.4375,1475.5,1415.4375,1479.5,1411.4375" style="stroke:#A80036;stroke-width:1.0;"/><line style="stroke:#A80036;stroke-width:1.0;" x1="1179.5" x2="1481.5" y1="1411.4375" y2="1411.4375"/><text fill="#000000" font-family="sans-serif" font-size="13" font-weight="bold" lengthAdjust="spacing" textLength="14" x="1186.5" y="1398.4053">34</text><text fill="#000000" font-family="sans-serif" font-size="13" lengthAdjust="spacing" textLength="266" x="1204.5" y="1390.2295">create(nomeCurto,nomeCompleto,numMecan,</text><text fill="#000000" font-family="sans-serif" font-size="13" lengthAdjust="spacing" textLength="241" x="1204.5" y="1406.5811">morada,contacto,dataNascimento,funcao)</text><rect fill="#FEFECE" filter="url(#fjpjbizso0dab)" height="49.2188" style="stroke:#A80036;stroke-width:1.5;" width="131" x="1487.5" y="1372.7344"/><text fill="#000000" font-family="sans-serif" font-size="14" lengthAdjust="spacing" textLength="78" x="1514" y="1394.2676">&lt;&lt;domain&gt;&gt;</text><text fill="#000000" font-family="sans-serif" font-size="14" lengthAdjust="spacing" textLength="117" x="1494.5" y="1411.877">colab:Colaborador</text><polygon fill="#A80036" points="1190.5,1455.3047,1180.5,1459.3047,1190.5,1463.3047,1186.5,1459.3047" style="stroke:#A80036;stroke-width:1.0;"/><line style="stroke:#A80036;stroke-width:1.0;stroke-dasharray:2.0,2.0;" x1="1184.5" x2="1554" y1="1459.3047" y2="1459.3047"/><text fill="#000000" font-family="sans-serif" font-size="13" font-weight="bold" lengthAdjust="spacing" textLength="14" x="1196.5" y="1454.4482">35</text><text fill="#000000" font-family="sans-serif" font-size="13" lengthAdjust="spacing" textLength="67" x="1214.5" y="1454.4482">colaborador</text><polygon fill="#A80036" points="917.5,1485.6563,907.5,1489.6563,917.5,1493.6563,913.5,1489.6563" style="stroke:#A80036;stroke-width:1.0;"/><line style="stroke:#A80036;stroke-width:1.0;stroke-dasharray:2.0,2.0;" x1="911.5" x2="1173.5" y1="1489.6563" y2="1489.6563"/><text fill="#000000" font-family="sans-serif" font-size="13" font-weight="bold" lengthAdjust="spacing" textLength="14" x="923.5" y="1484.7998">36</text><text fill="#000000" font-family="sans-serif" font-size="13" lengthAdjust="spacing" textLength="67" x="941.5" y="1484.7998">colaborador</text><polygon fill="#A80036" points="1683.5,1516.0078,1693.5,1520.0078,1683.5,1524.0078,1687.5,1520.0078" style="stroke:#A80036;stroke-width:1.0;"/><line style="stroke:#A80036;stroke-width:1.0;" x1="906.5" x2="1689.5" y1="1520.0078" y2="1520.0078"/><text fill="#000000" font-family="sans-serif" font-size="13" font-weight="bold" lengthAdjust="spacing" textLength="14" x="913.5" y="1515.1514">37</text><text fill="#000000" font-family="sans-serif" font-size="13" lengthAdjust="spacing" textLength="75" x="931.5" y="1515.1514">repositories()</text><polygon fill="#A80036" points="1950.5,1546.3594,1960.5,1550.3594,1950.5,1554.3594,1954.5,1550.3594" style="stroke:#A80036;stroke-width:1.0;"/><line style="stroke:#A80036;stroke-width:1.0;" x1="1705.5" x2="1956.5" y1="1550.3594" y2="1550.3594"/><text fill="#000000" font-family="sans-serif" font-size="13" font-weight="bold" lengthAdjust="spacing" textLength="14" x="1712.5" y="1545.5029">38</text><text fill="#000000" font-family="sans-serif" font-size="13" lengthAdjust="spacing" textLength="44" x="1730.5" y="1545.5029">create()</text><rect fill="#FEFECE" filter="url(#fjpjbizso0dab)" height="49.2188" style="stroke:#A80036;stroke-width:1.5;" width="130" x="1962.5" y="1528.0078"/><text fill="#000000" font-family="sans-serif" font-size="14" lengthAdjust="spacing" textLength="75" x="1990" y="1549.541">&lt;&lt;factory&gt;&gt;</text><text fill="#000000" font-family="sans-serif" font-size="14" lengthAdjust="spacing" textLength="116" x="1969.5" y="1567.1504">RepositoryFactory</text><polygon fill="#A80036" points="917.5,1610.5781,907.5,1614.5781,917.5,1618.5781,913.5,1614.5781" style="stroke:#A80036;stroke-width:1.0;"/><line style="stroke:#A80036;stroke-width:1.0;stroke-dasharray:2.0,2.0;" x1="911.5" x2="1699.5" y1="1614.5781" y2="1614.5781"/><text fill="#000000" font-family="sans-serif" font-size="13" font-weight="bold" lengthAdjust="spacing" textLength="14" x="923.5" y="1609.7217">39</text><text fill="#000000" font-family="sans-serif" font-size="13" lengthAdjust="spacing" textLength="39" x="941.5" y="1609.7217">factory</text><polygon fill="#A80036" points="2012.5,1640.9297,2022.5,1644.9297,2012.5,1648.9297,2016.5,1644.9297" style="stroke:#A80036;stroke-width:1.0;"/><line style="stroke:#A80036;stroke-width:1.0;" x1="906.5" x2="2018.5" y1="1644.9297" y2="1644.9297"/><text fill="#000000" font-family="sans-serif" font-size="13" font-weight="bold" lengthAdjust="spacing" textLength="14" x="913.5" y="1640.0732">40</text><text fill="#000000" font-family="sans-serif" font-size="13" lengthAdjust="spacing" textLength="89" x="931.5" y="1640.0732">colaboradores()</text><polygon fill="#A80036" points="2240.5,1671.2813,2250.5,1675.2813,2240.5,1679.2813,2244.5,1675.2813" style="stroke:#A80036;stroke-width:1.0;"/><line style="stroke:#A80036;stroke-width:1.0;" x1="2034.5" x2="2246.5" y1="1675.2813" y2="1675.2813"/><text fill="#000000" font-family="sans-serif" font-size="13" font-weight="bold" lengthAdjust="spacing" textLength="14" x="2041.5" y="1670.4248">41</text><text fill="#000000" font-family="sans-serif" font-size="13" lengthAdjust="spacing" textLength="44" x="2059.5" y="1670.4248">create()</text><text fill="#000000" font-family="sans-serif" font-size="14" lengthAdjust="spacing" textLength="95" x="2278.5" y="1713.4629">&lt;&lt;repository&gt;&gt;</text><text fill="#000000" font-family="sans-serif" font-size="14" lengthAdjust="spacing" textLength="147" x="2252.5" y="1731.0723">ColaboradorRepository</text><path d="M2311,1662.9297 C2311,1652.9297 2329,1652.9297 2329,1652.9297 C2329,1652.9297 2347,1652.9297 2347,1662.9297 L2347,1688.9297 C2347,1698.9297 2329,1698.9297 2329,1698.9297 C2329,1698.9297 2311,1698.9297 2311,1688.9297 L2311,1662.9297 " fill="#FEFECE" filter="url(#fjpjbizso0dab)" style="stroke:#000000;stroke-width:1.5;"/><path d="M2311,1662.9297 C2311,1672.9297 2329,1672.9297 2329,1672.9297 C2329,1672.9297 2347,1672.9297 2347,1662.9297 " fill="none" style="stroke:#000000;stroke-width:1.5;"/><polygon fill="#A80036" points="917.5,1762.5,907.5,1766.5,917.5,1770.5,913.5,1766.5" style="stroke:#A80036;stroke-width:1.0;"/><line style="stroke:#A80036;stroke-width:1.0;stroke-dasharray:2.0,2.0;" x1="911.5" x2="2028.5" y1="1766.5" y2="1766.5"/><text fill="#000000" font-family="sans-serif" font-size="13" font-weight="bold" lengthAdjust="spacing" textLength="14" x="923.5" y="1761.6436">42</text><text fill="#000000" font-family="sans-serif" font-size="13" lengthAdjust="spacing" textLength="129" x="941.5" y="1761.6436">colaboradorRepository</text><polygon fill="#A80036" points="2312,1792.8516,2322,1796.8516,2312,1800.8516,2316,1796.8516" style="stroke:#A80036;stroke-width:1.0;"/><line style="stroke:#A80036;stroke-width:1.0;" x1="906.5" x2="2318" y1="1796.8516" y2="1796.8516"/><text fill="#000000" font-family="sans-serif" font-size="13" font-weight="bold" lengthAdjust="spacing" textLength="14" x="913.5" y="1791.9951">43</text><text fill="#000000" font-family="sans-serif" font-size="13" lengthAdjust="spacing" textLength="101" x="931.5" y="1791.9951">save(colaborador)</text><polygon fill="#A80036" points="917.5,1823.2031,907.5,1827.2031,917.5,1831.2031,913.5,1827.2031" style="stroke:#A80036;stroke-width:1.0;"/><line style="stroke:#A80036;stroke-width:1.0;stroke-dasharray:2.0,2.0;" x1="911.5" x2="2328" y1="1827.2031" y2="1827.2031"/><text fill="#000000" font-family="sans-serif" font-size="13" font-weight="bold" lengthAdjust="spacing" textLength="14" x="923.5" y="1822.3467">44</text><text fill="#000000" font-family="sans-serif" font-size="13" lengthAdjust="spacing" textLength="67" x="941.5" y="1822.3467">colaborador</text><polygon fill="#A80036" points="549.5,1853.5547,539.5,1857.5547,549.5,1861.5547,545.5,1857.5547" style="stroke:#A80036;stroke-width:1.0;"/><line style="stroke:#A80036;stroke-width:1.0;stroke-dasharray:2.0,2.0;" x1="543.5" x2="900.5" y1="1857.5547" y2="1857.5547"/><text fill="#000000" font-family="sans-serif" font-size="13" font-weight="bold" lengthAdjust="spacing" textLength="14" x="555.5" y="1852.6982">45</text><text fill="#000000" font-family="sans-serif" font-size="13" lengthAdjust="spacing" textLength="67" x="573.5" y="1852.6982">colaborador</text><polygon fill="#A80036" points="133.5,1883.9063,123.5,1887.9063,133.5,1891.9063,129.5,1887.9063" style="stroke:#A80036;stroke-width:1.0;"/><line style="stroke:#A80036;stroke-width:1.0;stroke-dasharray:2.0,2.0;" x1="127.5" x2="532.5" y1="1887.9063" y2="1887.9063"/><text fill="#000000" font-family="sans-serif" font-size="13" font-weight="bold" lengthAdjust="spacing" textLength="14" x="139.5" y="1883.0498">46</text><text fill="#000000" font-family="sans-serif" font-size="13" lengthAdjust="spacing" textLength="188" x="157.5" y="1883.0498">Informa do sucesso da operação</text><!--MD5=[980a134e7c9441ee815a736dea6a38f3]
@startuml
autonumber
hide footbox

actor "Responsável de Recursos Humanos" as RRH

participant "<<presentation>>\nEspecificarColaboradorUI" as UI
participant "<<aplication>>\nEspecificarColaboradorController" as CTRL
participant "<<builder>>\nColaboradorBuilder" as CB
participant "<<domain>>\ncolab:Colaborador" as COLAB
participant "<<persistence>>\nPersistenceContex" as PC
participant "<<persistence>>\nAppSettings" as AS
participant "<<factory>>\nRepositoryFactory" as RF
database "<<repository>>\nFuncaoRepository" as FR
database "<<repository>>\nColaboradorRepository" as CR

participant "<<domain>>\nNomeCurto" as NCURTO
participant "<<domain>>\nNomeCompleto" as NCOMP
participant "<<domain>>\nNumeroMecanografico" as NM
participant "<<domain>>\nFuncao" as F
participant "<<domain>>\nMorada" as M
participant "<<domain>>\nContacto" as C
participant "<<domain>>\nDataNascimento" as DN

activate RRH

RRH-> UI : Envia um pedido para especificar um colaborador
activate UI

UI-> CTRL** : create()

UI - -> RRH: Solicita toda a informação necessária para a especificação\n de um colaborador(i.e. nome curto e completo, \nnúmero mecanográfico, morada, contacto, data de nascimento)

deactivate UI
RRH-> UI : Preenche com toda a informação solicitada
activate UI
UI-> CTRL : addColaborador(nomeCurto, nomeCompleto, numMecan,\nmorada, contacto, dataNascimento)
activate CTRL

CTRL-> CB** : create()
CTRL-> CB : withNomeCurto(nomeCurto)
activate CB
CTRL-> CB : withNomeCompleto(nomeCompleto)
CTRL-> CB : withNumMecan(numMecan)
CTRL-> CB : withMorada(morada)
CTRL-> CB : withContacto(contacto)
CTRL-> CB : withDataNascimento(dataNascimento)
deactivate CB
deactivate CTRL

UI-> CTRL : getFuncaoList()
activate CTRL
CTRL-> PC: repositories()
activate PC
PC-> AS : instance()
activate AS
deactivate AS
PC -> AS : getRepositoryFactory()
activate AS

AS -> RF** : create
AS - -> PC : factory
PC - -> CTRL : factory
deactivate AS
deactivate PC

CTRL-> RF : funcoes()
activate RF
RF-> FR** : create()
RF- -> CTRL : funcaoRepository
deactivate RF

CTRL -> FR : save(funcao)
activate FR
FR - -> CTRL : funcao
deactivate FR
CTRL - -> UI : funcao


UI - -> RRH: Apresenta a lista de funções
deactivate UI
deactivate CTRL


RRH-> UI : Seleciona a função pretendida
activate UI

UI-> CTRL : addFuncao(funcao)
activate CTRL
CTRL-> CB : withFuncao(funcao)
activate CB
deactivate CB
deactivate CTRL

UI - -> RRH: Apresenta a informação e solicita confirmação
deactivate UI

deactivate UI
RRH-> UI : Confirma
activate UI

UI-> CTRL : saveColaborador()
activate CTRL

CTRL-> CB : createColaborador()
activate CB
CB-> COLAB** : create(nomeCurto,nomeCompleto,numMecan,\nmorada,contacto,dataNascimento,funcao)

activate COLAB
COLAB - -> CB : colaborador
deactivate COLAB
CB - -> CTRL : colaborador
deactivate CB

CTRL-> PC: repositories()
activate PC
PC-> RF** : create()
PC- -> CTRL : factory
deactivate PC

CTRL-> RF : colaboradores()
activate RF
RF-> CR** : create()
RF- -> CTRL : colaboradorRepository
deactivate RF

CTRL-> CR : save(colaborador)
activate CR
CR - -> CTRL : colaborador
deactivate CR
CTRL - -> UI : colaborador
deactivate CTRL

UI - -> RRH: Informa do sucesso da operação
deactivate UI
deactivate RRH

@enduml

PlantUML version 1.2021.5(Sun Apr 25 12:20:28 BST 2021)
(GPL source distribution)
Java Runtime: OpenJDK Runtime Environment
JVM: OpenJDK 64-Bit Server VM
Default Encoding: Cp1252
Language: pt
Country: PT
--></g></svg>