<?xml version="1.0" encoding="UTF-8" standalone="no"?><svg xmlns="http://www.w3.org/2000/svg" xmlns:xlink="http://www.w3.org/1999/xlink" contentScriptType="application/ecmascript" contentStyleType="text/css" height="1912px" preserveAspectRatio="none" style="width:3223px;height:1912px;" version="1.1" viewBox="0 0 3223 1912" width="3223px" zoomAndPan="magnify"><defs><filter height="300%" id="f1517wci14omrq" width="300%" x="-1" y="-1"><feGaussianBlur result="blurOut" stdDeviation="2.0"/><feColorMatrix in="blurOut" result="blurOut2" type="matrix" values="0 0 0 0 0 0 0 0 0 0 0 0 0 0 0 0 0 0 .4 0"/><feOffset dx="4.0" dy="4.0" in="blurOut2" result="blurOut3"/><feBlend in="SourceGraphic" in2="blurOut3" mode="normal"/></filter></defs><g><rect fill="#FFFFFF" filter="url(#f1517wci14omrq)" height="1788.2969" style="stroke:#A80036;stroke-width:1.0;" width="10" x="117.5" y="99.6094"/><rect fill="#FFFFFF" filter="url(#f1517wci14omrq)" height="127.2734" style="stroke:#A80036;stroke-width:1.0;" width="10" x="528.5" y="121.9609"/><rect fill="#FFFFFF" filter="url(#f1517wci14omrq)" height="842.6875" style="stroke:#A80036;stroke-width:1.0;" width="10" x="528.5" y="279.5859"/><rect fill="#FFFFFF" filter="url(#f1517wci14omrq)" height="121.0547" style="stroke:#A80036;stroke-width:1.0;" width="10" x="528.5" y="1152.625"/><rect fill="#FFFFFF" filter="url(#f1517wci14omrq)" height="583.875" style="stroke:#A80036;stroke-width:1.0;" width="10" x="528.5" y="1304.0313"/><rect fill="#FFFFFF" filter="url(#f1517wci14omrq)" height="246.3281" style="stroke:#A80036;stroke-width:1.0;" width="10" x="860.5" y="326.2891"/><rect fill="#FFFFFF" filter="url(#f1517wci14omrq)" height="519.3047" style="stroke:#A80036;stroke-width:1.0;" width="10" x="860.5" y="602.9688"/><rect fill="#FFFFFF" filter="url(#f1517wci14omrq)" height="60.3516" style="stroke:#A80036;stroke-width:1.0;" width="10" x="860.5" y="1182.9766"/><rect fill="#FFFFFF" filter="url(#f1517wci14omrq)" height="523.1719" style="stroke:#A80036;stroke-width:1.0;" width="10" x="860.5" y="1334.3828"/><rect fill="#FFFFFF" filter="url(#f1517wci14omrq)" height="151.7578" style="stroke:#A80036;stroke-width:1.0;" width="10" x="1128.5" y="420.8594"/><rect fill="#FFFFFF" filter="url(#f1517wci14omrq)" height="30" style="stroke:#A80036;stroke-width:1.0;" width="10" x="1128.5" y="1213.3281"/><rect fill="#FFFFFF" filter="url(#f1517wci14omrq)" height="124.9219" style="stroke:#A80036;stroke-width:1.0;" width="10" x="1128.5" y="1364.7344"/><rect fill="#FFFFFF" filter="url(#f1517wci14omrq)" height="37.8672" style="stroke:#A80036;stroke-width:1.0;" width="10" x="1509" y="1421.4375"/><rect fill="#FFFFFF" filter="url(#f1517wci14omrq)" height="215.625" style="stroke:#A80036;stroke-width:1.0;" width="10" x="1654.5" y="633.3203"/><rect fill="#FFFFFF" filter="url(#f1517wci14omrq)" height="94.5703" style="stroke:#A80036;stroke-width:1.0;" width="10" x="1654.5" y="1520.0078"/><rect fill="#FFFFFF" filter="url(#f1517wci14omrq)" height="30" style="stroke:#A80036;stroke-width:1.0;" width="10" x="1833.5" y="663.6719"/><rect fill="#FFFFFF" filter="url(#f1517wci14omrq)" height="124.9219" style="stroke:#A80036;stroke-width:1.0;" width="10" x="1833.5" y="724.0234"/><rect fill="#FFFFFF" filter="url(#f1517wci14omrq)" height="121.5703" style="stroke:#A80036;stroke-width:1.0;" width="10" x="1983.5" y="879.2969"/><rect fill="#FFFFFF" filter="url(#f1517wci14omrq)" height="121.5703" style="stroke:#A80036;stroke-width:1.0;" width="10" x="1983.5" y="1644.9297"/><rect fill="#FFFFFF" filter="url(#f1517wci14omrq)" height="30.3516" style="stroke:#A80036;stroke-width:1.0;" width="10" x="2135.5" y="1031.2188"/><rect fill="#FFFFFF" filter="url(#f1517wci14omrq)" height="30.3516" style="stroke:#A80036;stroke-width:1.0;" width="10" x="2283" y="1796.8516"/><line style="stroke:#A80036;stroke-width:1.0;stroke-dasharray:5.0,5.0;" x1="122" x2="122" y1="89.6094" y2="1905.9063"/><line style="stroke:#A80036;stroke-width:1.0;stroke-dasharray:5.0,5.0;" x1="533.5" x2="533.5" y1="89.6094" y2="1905.9063"/><line style="stroke:#A80036;stroke-width:1.0;stroke-dasharray:5.0,5.0;" x1="865.5" x2="865.5" y1="172.0703" y2="1905.9063"/><line style="stroke:#A80036;stroke-width:1.0;stroke-dasharray:5.0,5.0;" x1="1133" x2="1133" y1="376.3984" y2="1905.9063"/><line style="stroke:#A80036;stroke-width:1.0;stroke-dasharray:5.0,5.0;" x1="1513.5" x2="1513.5" y1="1414.8438" y2="1905.9063"/><line style="stroke:#A80036;stroke-width:1.0;stroke-dasharray:5.0,5.0;" x1="1659.5" x2="1659.5" y1="89.6094" y2="1905.9063"/><line style="stroke:#A80036;stroke-width:1.0;stroke-dasharray:5.0,5.0;" x1="1838" x2="1838" y1="89.6094" y2="1905.9063"/><line style="stroke:#A80036;stroke-width:1.0;stroke-dasharray:5.0,5.0;" x1="1988.5" x2="1988.5" y1="1570.1172" y2="1905.9063"/><line style="stroke:#A80036;stroke-width:1.0;stroke-dasharray:5.0,5.0;" x1="2140.5" x2="2140.5" y1="942.9063" y2="1905.9063"/><line style="stroke:#A80036;stroke-width:1.0;stroke-dasharray:5.0,5.0;" x1="2287.5" x2="2287.5" y1="1708.5391" y2="1905.9063"/><line style="stroke:#A80036;stroke-width:1.0;stroke-dasharray:5.0,5.0;" x1="2422.5" x2="2422.5" y1="89.6094" y2="1905.9063"/><line style="stroke:#A80036;stroke-width:1.0;stroke-dasharray:5.0,5.0;" x1="2537.5" x2="2537.5" y1="89.6094" y2="1905.9063"/><line style="stroke:#A80036;stroke-width:1.0;stroke-dasharray:5.0,5.0;" x1="2684.5" x2="2684.5" y1="89.6094" y2="1905.9063"/><line style="stroke:#A80036;stroke-width:1.0;stroke-dasharray:5.0,5.0;" x1="2822.5" x2="2822.5" y1="89.6094" y2="1905.9063"/><line style="stroke:#A80036;stroke-width:1.0;stroke-dasharray:5.0,5.0;" x1="2928.5" x2="2928.5" y1="89.6094" y2="1905.9063"/><line style="stroke:#A80036;stroke-width:1.0;stroke-dasharray:5.0,5.0;" x1="3034.5" x2="3034.5" y1="89.6094" y2="1905.9063"/><line style="stroke:#A80036;stroke-width:1.0;stroke-dasharray:5.0,5.0;" x1="3152.5" x2="3152.5" y1="89.6094" y2="1905.9063"/><text fill="#000000" font-family="sans-serif" font-size="14" lengthAdjust="spacing" textLength="229" x="5" y="86.5332">Responsável de Recursos Humanos</text><ellipse cx="122.5" cy="15" fill="#FEFECE" filter="url(#f1517wci14omrq)" rx="8" ry="8" style="stroke:#A80036;stroke-width:2.0;"/><path d="M122.5,23 L122.5,50 M109.5,31 L135.5,31 M122.5,50 L109.5,65 M122.5,50 L135.5,65 " fill="none" filter="url(#f1517wci14omrq)" style="stroke:#A80036;stroke-width:2.0;"/><rect fill="#FEFECE" filter="url(#f1517wci14omrq)" height="49.2188" style="stroke:#A80036;stroke-width:1.5;" width="174" x="444.5" y="35.3906"/><text fill="#000000" font-family="sans-serif" font-size="14" lengthAdjust="spacing" textLength="111" x="476" y="56.9238">&lt;&lt;presentation&gt;&gt;</text><text fill="#000000" font-family="sans-serif" font-size="14" lengthAdjust="spacing" textLength="160" x="451.5" y="74.5332">EspecificarColaboradorUI</text><rect fill="#FEFECE" filter="url(#f1517wci14omrq)" height="49.2188" style="stroke:#A80036;stroke-width:1.5;" width="132" x="1591.5" y="35.3906"/><text fill="#000000" font-family="sans-serif" font-size="14" lengthAdjust="spacing" textLength="105" x="1605" y="56.9238">&lt;&lt;persistence&gt;&gt;</text><text fill="#000000" font-family="sans-serif" font-size="14" lengthAdjust="spacing" textLength="118" x="1598.5" y="74.5332">PersistenceContex</text><rect fill="#FEFECE" filter="url(#f1517wci14omrq)" height="49.2188" style="stroke:#A80036;stroke-width:1.5;" width="119" x="1777" y="35.3906"/><text fill="#000000" font-family="sans-serif" font-size="14" lengthAdjust="spacing" textLength="105" x="1784" y="56.9238">&lt;&lt;persistence&gt;&gt;</text><text fill="#000000" font-family="sans-serif" font-size="14" lengthAdjust="spacing" textLength="76" x="1798.5" y="74.5332">AppSettings</text><rect fill="#FEFECE" filter="url(#f1517wci14omrq)" height="49.2188" style="stroke:#A80036;stroke-width:1.5;" width="92" x="2374.5" y="35.3906"/><text fill="#000000" font-family="sans-serif" font-size="14" lengthAdjust="spacing" textLength="78" x="2381.5" y="56.9238">&lt;&lt;domain&gt;&gt;</text><text fill="#000000" font-family="sans-serif" font-size="14" lengthAdjust="spacing" textLength="71" x="2385" y="74.5332">NomeCurto</text><rect fill="#FEFECE" filter="url(#f1517wci14omrq)" height="49.2188" style="stroke:#A80036;stroke-width:1.5;" width="110" x="2480.5" y="35.3906"/><text fill="#000000" font-family="sans-serif" font-size="14" lengthAdjust="spacing" textLength="78" x="2496.5" y="56.9238">&lt;&lt;domain&gt;&gt;</text><text fill="#000000" font-family="sans-serif" font-size="14" lengthAdjust="spacing" textLength="96" x="2487.5" y="74.5332">NomeCompleto</text><rect fill="#FEFECE" filter="url(#f1517wci14omrq)" height="49.2188" style="stroke:#A80036;stroke-width:1.5;" width="156" x="2604.5" y="35.3906"/><text fill="#000000" font-family="sans-serif" font-size="14" lengthAdjust="spacing" textLength="78" x="2643.5" y="56.9238">&lt;&lt;domain&gt;&gt;</text><text fill="#000000" font-family="sans-serif" font-size="14" lengthAdjust="spacing" textLength="142" x="2611.5" y="74.5332">NumeroMecanografico</text><rect fill="#FEFECE" filter="url(#f1517wci14omrq)" height="49.2188" style="stroke:#A80036;stroke-width:1.5;" width="92" x="2774.5" y="35.3906"/><text fill="#000000" font-family="sans-serif" font-size="14" lengthAdjust="spacing" textLength="78" x="2781.5" y="56.9238">&lt;&lt;domain&gt;&gt;</text><text fill="#000000" font-family="sans-serif" font-size="14" lengthAdjust="spacing" textLength="48" x="2796.5" y="74.5332">Funcao</text><rect fill="#FEFECE" filter="url(#f1517wci14omrq)" height="49.2188" style="stroke:#A80036;stroke-width:1.5;" width="92" x="2880.5" y="35.3906"/><text fill="#000000" font-family="sans-serif" font-size="14" lengthAdjust="spacing" textLength="78" x="2887.5" y="56.9238">&lt;&lt;domain&gt;&gt;</text><text fill="#000000" font-family="sans-serif" font-size="14" lengthAdjust="spacing" textLength="48" x="2902.5" y="74.5332">Morada</text><rect fill="#FEFECE" filter="url(#f1517wci14omrq)" height="49.2188" style="stroke:#A80036;stroke-width:1.5;" width="92" x="2986.5" y="35.3906"/><text fill="#000000" font-family="sans-serif" font-size="14" lengthAdjust="spacing" textLength="78" x="2993.5" y="56.9238">&lt;&lt;domain&gt;&gt;</text><text fill="#000000" font-family="sans-serif" font-size="14" lengthAdjust="spacing" textLength="57" x="3004" y="74.5332">Contacto</text><rect fill="#FEFECE" filter="url(#f1517wci14omrq)" height="49.2188" style="stroke:#A80036;stroke-width:1.5;" width="117" x="3092.5" y="35.3906"/><text fill="#000000" font-family="sans-serif" font-size="14" lengthAdjust="spacing" textLength="78" x="3112" y="56.9238">&lt;&lt;domain&gt;&gt;</text><text fill="#000000" font-family="sans-serif" font-size="14" lengthAdjust="spacing" textLength="103" x="3099.5" y="74.5332">DataNascimento</text><rect fill="#FFFFFF" filter="url(#f1517wci14omrq)" height="1788.2969" style="stroke:#A80036;stroke-width:1.0;" width="10" x="117.5" y="99.6094"/><rect fill="#FFFFFF" filter="url(#f1517wci14omrq)" height="127.2734" style="stroke:#A80036;stroke-width:1.0;" width="10" x="528.5" y="121.9609"/><rect fill="#FFFFFF" filter="url(#f1517wci14omrq)" height="842.6875" style="stroke:#A80036;stroke-width:1.0;" width="10" x="528.5" y="279.5859"/><rect fill="#FFFFFF" filter="url(#f1517wci14omrq)" height="121.0547" style="stroke:#A80036;stroke-width:1.0;" width="10" x="528.5" y="1152.625"/><rect fill="#FFFFFF" filter="url(#f1517wci14omrq)" height="583.875" style="stroke:#A80036;stroke-width:1.0;" width="10" x="528.5" y="1304.0313"/><rect fill="#FFFFFF" filter="url(#f1517wci14omrq)" height="246.3281" style="stroke:#A80036;stroke-width:1.0;" width="10" x="860.5" y="326.2891"/><rect fill="#FFFFFF" filter="url(#f1517wci14omrq)" height="519.3047" style="stroke:#A80036;stroke-width:1.0;" width="10" x="860.5" y="602.9688"/><rect fill="#FFFFFF" filter="url(#f1517wci14omrq)" height="60.3516" style="stroke:#A80036;stroke-width:1.0;" width="10" x="860.5" y="1182.9766"/><rect fill="#FFFFFF" filter="url(#f1517wci14omrq)" height="523.1719" style="stroke:#A80036;stroke-width:1.0;" width="10" x="860.5" y="1334.3828"/><rect fill="#FFFFFF" filter="url(#f1517wci14omrq)" height="151.7578" style="stroke:#A80036;stroke-width:1.0;" width="10" x="1128.5" y="420.8594"/><rect fill="#FFFFFF" filter="url(#f1517wci14omrq)" height="30" style="stroke:#A80036;stroke-width:1.0;" width="10" x="1128.5" y="1213.3281"/><rect fill="#FFFFFF" filter="url(#f1517wci14omrq)" height="124.9219" style="stroke:#A80036;stroke-width:1.0;" width="10" x="1128.5" y="1364.7344"/><rect fill="#FFFFFF" filter="url(#f1517wci14omrq)" height="37.8672" style="stroke:#A80036;stroke-width:1.0;" width="10" x="1509" y="1421.4375"/><rect fill="#FFFFFF" filter="url(#f1517wci14omrq)" height="215.625" style="stroke:#A80036;stroke-width:1.0;" width="10" x="1654.5" y="633.3203"/><rect fill="#FFFFFF" filter="url(#f1517wci14omrq)" height="94.5703" style="stroke:#A80036;stroke-width:1.0;" width="10" x="1654.5" y="1520.0078"/><rect fill="#FFFFFF" filter="url(#f1517wci14omrq)" height="30" style="stroke:#A80036;stroke-width:1.0;" width="10" x="1833.5" y="663.6719"/><rect fill="#FFFFFF" filter="url(#f1517wci14omrq)" height="124.9219" style="stroke:#A80036;stroke-width:1.0;" width="10" x="1833.5" y="724.0234"/><rect fill="#FFFFFF" filter="url(#f1517wci14omrq)" height="121.5703" style="stroke:#A80036;stroke-width:1.0;" width="10" x="1983.5" y="879.2969"/><rect fill="#FFFFFF" filter="url(#f1517wci14omrq)" height="121.5703" style="stroke:#A80036;stroke-width:1.0;" width="10" x="1983.5" y="1644.9297"/><rect fill="#FFFFFF" filter="url(#f1517wci14omrq)" height="30.3516" style="stroke:#A80036;stroke-width:1.0;" width="10" x="2135.5" y="1031.2188"/><rect fill="#FFFFFF" filter="url(#f1517wci14omrq)" height="30.3516" style="stroke:#A80036;stroke-width:1.0;" width="10" x="2283" y="1796.8516"/><polygon fill="#A80036" points="516.5,117.9609,526.5,121.9609,516.5,125.9609,520.5,121.9609" style="stroke:#A80036;stroke-width:1.0;"/><line style="stroke:#A80036;stroke-width:1.0;" x1="127.5" x2="522.5" y1="121.9609" y2="121.9609"/><text fill="#000000" font-family="sans-serif" font-size="13" font-weight="bold" lengthAdjust="spacing" textLength="7" x="134.5" y="117.1045">1</text><text fill="#000000" font-family="sans-serif" font-size="13" lengthAdjust="spacing" textLength="283" x="145.5" y="117.1045">Envia um pedido para especificar um colaborador</text><polygon fill="#A80036" points="739.5,148.3125,749.5,152.3125,739.5,156.3125,743.5,152.3125" style="stroke:#A80036;stroke-width:1.0;"/><line style="stroke:#A80036;stroke-width:1.0;" x1="538.5" x2="745.5" y1="152.3125" y2="152.3125"/><text fill="#000000" font-family="sans-serif" font-size="13" font-weight="bold" lengthAdjust="spacing" textLength="7" x="545.5" y="147.4561">2</text><text fill="#000000" font-family="sans-serif" font-size="13" lengthAdjust="spacing" textLength="44" x="556.5" y="147.4561">create()</text><rect fill="#FEFECE" filter="url(#f1517wci14omrq)" height="49.2188" style="stroke:#A80036;stroke-width:1.5;" width="224" x="751.5" y="129.9609"/><text fill="#000000" font-family="sans-serif" font-size="14" lengthAdjust="spacing" textLength="92" x="817.5" y="151.4941">&lt;&lt;aplication&gt;&gt;</text><text fill="#000000" font-family="sans-serif" font-size="14" lengthAdjust="spacing" textLength="210" x="758.5" y="169.1035">EspecificarColaboradorController</text><polygon fill="#A80036" points="138.5,245.2344,128.5,249.2344,138.5,253.2344,134.5,249.2344" style="stroke:#A80036;stroke-width:1.0;"/><line style="stroke:#A80036;stroke-width:1.0;stroke-dasharray:2.0,2.0;" x1="132.5" x2="532.5" y1="249.2344" y2="249.2344"/><text fill="#000000" font-family="sans-serif" font-size="13" font-weight="bold" lengthAdjust="spacing" textLength="7" x="144.5" y="228.0264">3</text><text fill="#000000" font-family="sans-serif" font-size="13" lengthAdjust="spacing" textLength="340" x="155.5" y="211.6748">Solicita toda a informação necessária para a especificação</text><text fill="#000000" font-family="sans-serif" font-size="13" lengthAdjust="spacing" textLength="270" x="159.5" y="228.0264">de um colaborador(i.e. nome curto e completo,</text><text fill="#000000" font-family="sans-serif" font-size="13" lengthAdjust="spacing" textLength="366" x="155.5" y="244.3779">número mecanográfico, morada, contacto, data de nascimento)</text><polygon fill="#A80036" points="516.5,275.5859,526.5,279.5859,516.5,283.5859,520.5,279.5859" style="stroke:#A80036;stroke-width:1.0;"/><line style="stroke:#A80036;stroke-width:1.0;" x1="127.5" x2="522.5" y1="279.5859" y2="279.5859"/><text fill="#000000" font-family="sans-serif" font-size="13" font-weight="bold" lengthAdjust="spacing" textLength="7" x="134.5" y="274.7295">4</text><text fill="#000000" font-family="sans-serif" font-size="13" lengthAdjust="spacing" textLength="250" x="145.5" y="274.7295">Preenche com toda a informação solicitada</text><polygon fill="#A80036" points="848.5,322.2891,858.5,326.2891,848.5,330.2891,852.5,326.2891" style="stroke:#A80036;stroke-width:1.0;"/><line style="stroke:#A80036;stroke-width:1.0;" x1="538.5" x2="854.5" y1="326.2891" y2="326.2891"/><text fill="#000000" font-family="sans-serif" font-size="13" font-weight="bold" lengthAdjust="spacing" textLength="7" x="545.5" y="313.2568">5</text><text fill="#000000" font-family="sans-serif" font-size="13" lengthAdjust="spacing" textLength="292" x="556.5" y="305.0811">addColab(nomeCurto, nomeCompleto, numMecan,</text><text fill="#000000" font-family="sans-serif" font-size="13" lengthAdjust="spacing" textLength="207" x="556.5" y="321.4326">morada, contacto, dataNascimento)</text><polygon fill="#A80036" points="1051,352.6406,1061,356.6406,1051,360.6406,1055,356.6406" style="stroke:#A80036;stroke-width:1.0;"/><line style="stroke:#A80036;stroke-width:1.0;" x1="870.5" x2="1057" y1="356.6406" y2="356.6406"/><text fill="#000000" font-family="sans-serif" font-size="13" font-weight="bold" lengthAdjust="spacing" textLength="7" x="877.5" y="351.7842">6</text><text fill="#000000" font-family="sans-serif" font-size="13" lengthAdjust="spacing" textLength="44" x="888.5" y="351.7842">create()</text><rect fill="#FEFECE" filter="url(#f1517wci14omrq)" height="49.2188" style="stroke:#A80036;stroke-width:1.5;" width="137" x="1063" y="334.2891"/><text fill="#000000" font-family="sans-serif" font-size="14" lengthAdjust="spacing" textLength="75" x="1094" y="355.8223">&lt;&lt;builder&gt;&gt;</text><text fill="#000000" font-family="sans-serif" font-size="14" lengthAdjust="spacing" textLength="123" x="1070" y="373.4316">ColaboradorBuilder</text><polygon fill="#A80036" points="1116.5,416.8594,1126.5,420.8594,1116.5,424.8594,1120.5,420.8594" style="stroke:#A80036;stroke-width:1.0;"/><line style="stroke:#A80036;stroke-width:1.0;" x1="870.5" x2="1122.5" y1="420.8594" y2="420.8594"/><text fill="#000000" font-family="sans-serif" font-size="13" font-weight="bold" lengthAdjust="spacing" textLength="7" x="877.5" y="416.0029">7</text><text fill="#000000" font-family="sans-serif" font-size="13" lengthAdjust="spacing" textLength="154" x="888.5" y="416.0029">setNomeCurto(nomeCurto)</text><polygon fill="#A80036" points="1116.5,447.2109,1126.5,451.2109,1116.5,455.2109,1120.5,451.2109" style="stroke:#A80036;stroke-width:1.0;"/><line style="stroke:#A80036;stroke-width:1.0;" x1="870.5" x2="1122.5" y1="451.2109" y2="451.2109"/><text fill="#000000" font-family="sans-serif" font-size="13" font-weight="bold" lengthAdjust="spacing" textLength="7" x="877.5" y="446.3545">8</text><text fill="#000000" font-family="sans-serif" font-size="13" lengthAdjust="spacing" textLength="202" x="888.5" y="446.3545">setNomeCompleto(nomeCompleto)</text><polygon fill="#A80036" points="1116.5,477.5625,1126.5,481.5625,1116.5,485.5625,1120.5,481.5625" style="stroke:#A80036;stroke-width:1.0;"/><line style="stroke:#A80036;stroke-width:1.0;" x1="870.5" x2="1122.5" y1="481.5625" y2="481.5625"/><text fill="#000000" font-family="sans-serif" font-size="13" font-weight="bold" lengthAdjust="spacing" textLength="7" x="877.5" y="476.7061">9</text><text fill="#000000" font-family="sans-serif" font-size="13" lengthAdjust="spacing" textLength="156" x="888.5" y="476.7061">setNumMecan(numMecan)</text><polygon fill="#A80036" points="1116.5,507.9141,1126.5,511.9141,1116.5,515.9141,1120.5,511.9141" style="stroke:#A80036;stroke-width:1.0;"/><line style="stroke:#A80036;stroke-width:1.0;" x1="870.5" x2="1122.5" y1="511.9141" y2="511.9141"/><text fill="#000000" font-family="sans-serif" font-size="13" font-weight="bold" lengthAdjust="spacing" textLength="14" x="877.5" y="507.0576">10</text><text fill="#000000" font-family="sans-serif" font-size="13" lengthAdjust="spacing" textLength="112" x="895.5" y="507.0576">setMorada(morada)</text><polygon fill="#A80036" points="1116.5,538.2656,1126.5,542.2656,1116.5,546.2656,1120.5,542.2656" style="stroke:#A80036;stroke-width:1.0;"/><line style="stroke:#A80036;stroke-width:1.0;" x1="870.5" x2="1122.5" y1="542.2656" y2="542.2656"/><text fill="#000000" font-family="sans-serif" font-size="13" font-weight="bold" lengthAdjust="spacing" textLength="14" x="877.5" y="537.4092">11</text><text fill="#000000" font-family="sans-serif" font-size="13" lengthAdjust="spacing" textLength="128" x="895.5" y="537.4092">setContacto(contacto)</text><polygon fill="#A80036" points="1121.5,568.6172,1131.5,572.6172,1121.5,576.6172,1125.5,572.6172" style="stroke:#A80036;stroke-width:1.0;"/><line style="stroke:#A80036;stroke-width:1.0;" x1="865.5" x2="1127.5" y1="572.6172" y2="572.6172"/><text fill="#000000" font-family="sans-serif" font-size="13" font-weight="bold" lengthAdjust="spacing" textLength="14" x="872.5" y="567.7607">12</text><text fill="#000000" font-family="sans-serif" font-size="13" lengthAdjust="spacing" textLength="216" x="890.5" y="567.7607">setDataNascimento(dataNascimento)</text><polygon fill="#A80036" points="848.5,598.9688,858.5,602.9688,848.5,606.9688,852.5,602.9688" style="stroke:#A80036;stroke-width:1.0;"/><line style="stroke:#A80036;stroke-width:1.0;" x1="538.5" x2="854.5" y1="602.9688" y2="602.9688"/><text fill="#000000" font-family="sans-serif" font-size="13" font-weight="bold" lengthAdjust="spacing" textLength="14" x="545.5" y="598.1123">13</text><text fill="#000000" font-family="sans-serif" font-size="13" lengthAdjust="spacing" textLength="90" x="563.5" y="598.1123">getFuncaoList()</text><polygon fill="#A80036" points="1642.5,629.3203,1652.5,633.3203,1642.5,637.3203,1646.5,633.3203" style="stroke:#A80036;stroke-width:1.0;"/><line style="stroke:#A80036;stroke-width:1.0;" x1="870.5" x2="1648.5" y1="633.3203" y2="633.3203"/><text fill="#000000" font-family="sans-serif" font-size="13" font-weight="bold" lengthAdjust="spacing" textLength="14" x="877.5" y="628.4639">14</text><text fill="#000000" font-family="sans-serif" font-size="13" lengthAdjust="spacing" textLength="75" x="895.5" y="628.4639">repositories()</text><polygon fill="#A80036" points="1821.5,659.6719,1831.5,663.6719,1821.5,667.6719,1825.5,663.6719" style="stroke:#A80036;stroke-width:1.0;"/><line style="stroke:#A80036;stroke-width:1.0;" x1="1664.5" x2="1827.5" y1="663.6719" y2="663.6719"/><text fill="#000000" font-family="sans-serif" font-size="13" font-weight="bold" lengthAdjust="spacing" textLength="14" x="1671.5" y="658.8154">15</text><text fill="#000000" font-family="sans-serif" font-size="13" lengthAdjust="spacing" textLength="57" x="1689.5" y="658.8154">instance()</text><polygon fill="#A80036" points="1821.5,720.0234,1831.5,724.0234,1821.5,728.0234,1825.5,724.0234" style="stroke:#A80036;stroke-width:1.0;"/><line style="stroke:#A80036;stroke-width:1.0;" x1="1664.5" x2="1827.5" y1="724.0234" y2="724.0234"/><text fill="#000000" font-family="sans-serif" font-size="13" font-weight="bold" lengthAdjust="spacing" textLength="14" x="1671.5" y="719.167">16</text><text fill="#000000" font-family="sans-serif" font-size="13" lengthAdjust="spacing" textLength="132" x="1689.5" y="719.167">getRepositoryFactory()</text><polygon fill="#A80036" points="1909.5,750.375,1919.5,754.375,1909.5,758.375,1913.5,754.375" style="stroke:#A80036;stroke-width:1.0;"/><line style="stroke:#A80036;stroke-width:1.0;" x1="1843.5" x2="1915.5" y1="754.375" y2="754.375"/><text fill="#000000" font-family="sans-serif" font-size="13" font-weight="bold" lengthAdjust="spacing" textLength="14" x="1850.5" y="749.5186">17</text><text fill="#000000" font-family="sans-serif" font-size="13" lengthAdjust="spacing" textLength="36" x="1868.5" y="749.5186">create</text><rect fill="#FEFECE" filter="url(#f1517wci14omrq)" height="49.2188" style="stroke:#A80036;stroke-width:1.5;" width="130" x="1921.5" y="732.0234"/><text fill="#000000" font-family="sans-serif" font-size="14" lengthAdjust="spacing" textLength="75" x="1949" y="753.5566">&lt;&lt;factory&gt;&gt;</text><text fill="#000000" font-family="sans-serif" font-size="14" lengthAdjust="spacing" textLength="116" x="1928.5" y="771.166">RepositoryFactory</text><polygon fill="#A80036" points="1675.5,814.5938,1665.5,818.5938,1675.5,822.5938,1671.5,818.5938" style="stroke:#A80036;stroke-width:1.0;"/><line style="stroke:#A80036;stroke-width:1.0;stroke-dasharray:2.0,2.0;" x1="1669.5" x2="1832.5" y1="818.5938" y2="818.5938"/><text fill="#000000" font-family="sans-serif" font-size="13" font-weight="bold" lengthAdjust="spacing" textLength="14" x="1681.5" y="813.7373">18</text><text fill="#000000" font-family="sans-serif" font-size="13" lengthAdjust="spacing" textLength="39" x="1699.5" y="813.7373">factory</text><polygon fill="#A80036" points="881.5,844.9453,871.5,848.9453,881.5,852.9453,877.5,848.9453" style="stroke:#A80036;stroke-width:1.0;"/><line style="stroke:#A80036;stroke-width:1.0;stroke-dasharray:2.0,2.0;" x1="875.5" x2="1658.5" y1="848.9453" y2="848.9453"/><text fill="#000000" font-family="sans-serif" font-size="13" font-weight="bold" lengthAdjust="spacing" textLength="14" x="887.5" y="844.0889">19</text><text fill="#000000" font-family="sans-serif" font-size="13" lengthAdjust="spacing" textLength="39" x="905.5" y="844.0889">factory</text><polygon fill="#A80036" points="1971.5,875.2969,1981.5,879.2969,1971.5,883.2969,1975.5,879.2969" style="stroke:#A80036;stroke-width:1.0;"/><line style="stroke:#A80036;stroke-width:1.0;" x1="870.5" x2="1977.5" y1="879.2969" y2="879.2969"/><text fill="#000000" font-family="sans-serif" font-size="13" font-weight="bold" lengthAdjust="spacing" textLength="14" x="877.5" y="874.4404">20</text><text fill="#000000" font-family="sans-serif" font-size="13" lengthAdjust="spacing" textLength="53" x="895.5" y="874.4404">funcoes()</text><polygon fill="#A80036" points="2067.5,905.6484,2077.5,909.6484,2067.5,913.6484,2071.5,909.6484" style="stroke:#A80036;stroke-width:1.0;"/><line style="stroke:#A80036;stroke-width:1.0;" x1="1993.5" x2="2073.5" y1="909.6484" y2="909.6484"/><text fill="#000000" font-family="sans-serif" font-size="13" font-weight="bold" lengthAdjust="spacing" textLength="14" x="2000.5" y="904.792">21</text><text fill="#000000" font-family="sans-serif" font-size="13" lengthAdjust="spacing" textLength="44" x="2018.5" y="904.792">create()</text><text fill="#000000" font-family="sans-serif" font-size="14" lengthAdjust="spacing" textLength="95" x="2090" y="947.8301">&lt;&lt;repository&gt;&gt;</text><text fill="#000000" font-family="sans-serif" font-size="14" lengthAdjust="spacing" textLength="116" x="2079.5" y="965.4395">FuncaoRepository</text><path d="M2122.5,897.2969 C2122.5,887.2969 2140.5,887.2969 2140.5,887.2969 C2140.5,887.2969 2158.5,887.2969 2158.5,897.2969 L2158.5,923.2969 C2158.5,933.2969 2140.5,933.2969 2140.5,933.2969 C2140.5,933.2969 2122.5,933.2969 2122.5,923.2969 L2122.5,897.2969 " fill="#FEFECE" filter="url(#f1517wci14omrq)" style="stroke:#000000;stroke-width:1.5;"/><path d="M2122.5,897.2969 C2122.5,907.2969 2140.5,907.2969 2140.5,907.2969 C2140.5,907.2969 2158.5,907.2969 2158.5,897.2969 " fill="none" style="stroke:#000000;stroke-width:1.5;"/><polygon fill="#A80036" points="881.5,996.8672,871.5,1000.8672,881.5,1004.8672,877.5,1000.8672" style="stroke:#A80036;stroke-width:1.0;"/><line style="stroke:#A80036;stroke-width:1.0;stroke-dasharray:2.0,2.0;" x1="875.5" x2="1987.5" y1="1000.8672" y2="1000.8672"/><text fill="#000000" font-family="sans-serif" font-size="13" font-weight="bold" lengthAdjust="spacing" textLength="14" x="887.5" y="996.0107">22</text><text fill="#000000" font-family="sans-serif" font-size="13" lengthAdjust="spacing" textLength="100" x="905.5" y="996.0107">funcaoRepository</text><polygon fill="#A80036" points="2123.5,1027.2188,2133.5,1031.2188,2123.5,1035.2188,2127.5,1031.2188" style="stroke:#A80036;stroke-width:1.0;"/><line style="stroke:#A80036;stroke-width:1.0;" x1="870.5" x2="2129.5" y1="1031.2188" y2="1031.2188"/><text fill="#000000" font-family="sans-serif" font-size="13" font-weight="bold" lengthAdjust="spacing" textLength="14" x="877.5" y="1026.3623">23</text><text fill="#000000" font-family="sans-serif" font-size="13" lengthAdjust="spacing" textLength="72" x="895.5" y="1026.3623">save(funcao)</text><polygon fill="#A80036" points="881.5,1057.5703,871.5,1061.5703,881.5,1065.5703,877.5,1061.5703" style="stroke:#A80036;stroke-width:1.0;"/><line style="stroke:#A80036;stroke-width:1.0;stroke-dasharray:2.0,2.0;" x1="875.5" x2="2139.5" y1="1061.5703" y2="1061.5703"/><text fill="#000000" font-family="sans-serif" font-size="13" font-weight="bold" lengthAdjust="spacing" textLength="14" x="887.5" y="1056.7139">24</text><text fill="#000000" font-family="sans-serif" font-size="13" lengthAdjust="spacing" textLength="38" x="905.5" y="1056.7139">funcao</text><polygon fill="#A80036" points="549.5,1087.9219,539.5,1091.9219,549.5,1095.9219,545.5,1091.9219" style="stroke:#A80036;stroke-width:1.0;"/><line style="stroke:#A80036;stroke-width:1.0;stroke-dasharray:2.0,2.0;" x1="543.5" x2="859.5" y1="1091.9219" y2="1091.9219"/><text fill="#000000" font-family="sans-serif" font-size="13" font-weight="bold" lengthAdjust="spacing" textLength="14" x="555.5" y="1087.0654">25</text><text fill="#000000" font-family="sans-serif" font-size="13" lengthAdjust="spacing" textLength="38" x="573.5" y="1087.0654">funcao</text><polygon fill="#A80036" points="138.5,1118.2734,128.5,1122.2734,138.5,1126.2734,134.5,1122.2734" style="stroke:#A80036;stroke-width:1.0;"/><line style="stroke:#A80036;stroke-width:1.0;stroke-dasharray:2.0,2.0;" x1="132.5" x2="532.5" y1="1122.2734" y2="1122.2734"/><text fill="#000000" font-family="sans-serif" font-size="13" font-weight="bold" lengthAdjust="spacing" textLength="14" x="144.5" y="1117.417">26</text><text fill="#000000" font-family="sans-serif" font-size="13" lengthAdjust="spacing" textLength="165" x="162.5" y="1117.417">Apresenta a lista de funções</text><polygon fill="#A80036" points="516.5,1148.625,526.5,1152.625,516.5,1156.625,520.5,1152.625" style="stroke:#A80036;stroke-width:1.0;"/><line style="stroke:#A80036;stroke-width:1.0;" x1="127.5" x2="522.5" y1="1152.625" y2="1152.625"/><text fill="#000000" font-family="sans-serif" font-size="13" font-weight="bold" lengthAdjust="spacing" textLength="14" x="134.5" y="1147.7686">27</text><text fill="#000000" font-family="sans-serif" font-size="13" lengthAdjust="spacing" textLength="174" x="152.5" y="1147.7686">Seleciona a função pretendida</text><polygon fill="#A80036" points="848.5,1178.9766,858.5,1182.9766,848.5,1186.9766,852.5,1182.9766" style="stroke:#A80036;stroke-width:1.0;"/><line style="stroke:#A80036;stroke-width:1.0;" x1="538.5" x2="854.5" y1="1182.9766" y2="1182.9766"/><text fill="#000000" font-family="sans-serif" font-size="13" font-weight="bold" lengthAdjust="spacing" textLength="14" x="545.5" y="1178.1201">28</text><text fill="#000000" font-family="sans-serif" font-size="13" lengthAdjust="spacing" textLength="110" x="563.5" y="1178.1201">addFuncao(funcao)</text><polygon fill="#A80036" points="1116.5,1209.3281,1126.5,1213.3281,1116.5,1217.3281,1120.5,1213.3281" style="stroke:#A80036;stroke-width:1.0;"/><line style="stroke:#A80036;stroke-width:1.0;" x1="870.5" x2="1122.5" y1="1213.3281" y2="1213.3281"/><text fill="#000000" font-family="sans-serif" font-size="13" font-weight="bold" lengthAdjust="spacing" textLength="14" x="877.5" y="1208.4717">29</text><text fill="#000000" font-family="sans-serif" font-size="13" lengthAdjust="spacing" textLength="107" x="895.5" y="1208.4717">setFuncao(funcao)</text><polygon fill="#A80036" points="138.5,1269.6797,128.5,1273.6797,138.5,1277.6797,134.5,1273.6797" style="stroke:#A80036;stroke-width:1.0;"/><line style="stroke:#A80036;stroke-width:1.0;stroke-dasharray:2.0,2.0;" x1="132.5" x2="532.5" y1="1273.6797" y2="1273.6797"/><text fill="#000000" font-family="sans-serif" font-size="13" font-weight="bold" lengthAdjust="spacing" textLength="14" x="144.5" y="1268.8232">30</text><text fill="#000000" font-family="sans-serif" font-size="13" lengthAdjust="spacing" textLength="267" x="162.5" y="1268.8232">Apresenta a informação e solicita confirmação</text><polygon fill="#A80036" points="516.5,1300.0313,526.5,1304.0313,516.5,1308.0313,520.5,1304.0313" style="stroke:#A80036;stroke-width:1.0;"/><line style="stroke:#A80036;stroke-width:1.0;" x1="127.5" x2="522.5" y1="1304.0313" y2="1304.0313"/><text fill="#000000" font-family="sans-serif" font-size="13" font-weight="bold" lengthAdjust="spacing" textLength="14" x="134.5" y="1299.1748">31</text><text fill="#000000" font-family="sans-serif" font-size="13" lengthAdjust="spacing" textLength="51" x="152.5" y="1299.1748">Confirma</text><polygon fill="#A80036" points="848.5,1330.3828,858.5,1334.3828,848.5,1338.3828,852.5,1334.3828" style="stroke:#A80036;stroke-width:1.0;"/><line style="stroke:#A80036;stroke-width:1.0;" x1="538.5" x2="854.5" y1="1334.3828" y2="1334.3828"/><text fill="#000000" font-family="sans-serif" font-size="13" font-weight="bold" lengthAdjust="spacing" textLength="14" x="545.5" y="1329.5264">32</text><text fill="#000000" font-family="sans-serif" font-size="13" lengthAdjust="spacing" textLength="103" x="563.5" y="1329.5264">saveColaborador()</text><polygon fill="#A80036" points="1116.5,1360.7344,1126.5,1364.7344,1116.5,1368.7344,1120.5,1364.7344" style="stroke:#A80036;stroke-width:1.0;"/><line style="stroke:#A80036;stroke-width:1.0;" x1="870.5" x2="1122.5" y1="1364.7344" y2="1364.7344"/><text fill="#000000" font-family="sans-serif" font-size="13" font-weight="bold" lengthAdjust="spacing" textLength="14" x="877.5" y="1359.8779">33</text><text fill="#000000" font-family="sans-serif" font-size="13" lengthAdjust="spacing" textLength="113" x="895.5" y="1359.8779">createColaborador()</text><polygon fill="#A80036" points="1434.5,1407.4375,1444.5,1411.4375,1434.5,1415.4375,1438.5,1411.4375" style="stroke:#A80036;stroke-width:1.0;"/><line style="stroke:#A80036;stroke-width:1.0;" x1="1138.5" x2="1440.5" y1="1411.4375" y2="1411.4375"/><text fill="#000000" font-family="sans-serif" font-size="13" font-weight="bold" lengthAdjust="spacing" textLength="14" x="1145.5" y="1398.4053">34</text><text fill="#000000" font-family="sans-serif" font-size="13" lengthAdjust="spacing" textLength="266" x="1163.5" y="1390.2295">create(nomeCurto,nomeCompleto,numMecan,</text><text fill="#000000" font-family="sans-serif" font-size="13" lengthAdjust="spacing" textLength="241" x="1163.5" y="1406.5811">morada,contacto,dataNascimento,funcao)</text><rect fill="#FEFECE" filter="url(#f1517wci14omrq)" height="49.2188" style="stroke:#A80036;stroke-width:1.5;" width="131" x="1446.5" y="1372.7344"/><text fill="#000000" font-family="sans-serif" font-size="14" lengthAdjust="spacing" textLength="78" x="1473" y="1394.2676">&lt;&lt;domain&gt;&gt;</text><text fill="#000000" font-family="sans-serif" font-size="14" lengthAdjust="spacing" textLength="117" x="1453.5" y="1411.877">colab:Colaborador</text><polygon fill="#A80036" points="1149.5,1455.3047,1139.5,1459.3047,1149.5,1463.3047,1145.5,1459.3047" style="stroke:#A80036;stroke-width:1.0;"/><line style="stroke:#A80036;stroke-width:1.0;stroke-dasharray:2.0,2.0;" x1="1143.5" x2="1513" y1="1459.3047" y2="1459.3047"/><text fill="#000000" font-family="sans-serif" font-size="13" font-weight="bold" lengthAdjust="spacing" textLength="14" x="1155.5" y="1454.4482">35</text><text fill="#000000" font-family="sans-serif" font-size="13" lengthAdjust="spacing" textLength="67" x="1173.5" y="1454.4482">colaborador</text><polygon fill="#A80036" points="881.5,1485.6563,871.5,1489.6563,881.5,1493.6563,877.5,1489.6563" style="stroke:#A80036;stroke-width:1.0;"/><line style="stroke:#A80036;stroke-width:1.0;stroke-dasharray:2.0,2.0;" x1="875.5" x2="1132.5" y1="1489.6563" y2="1489.6563"/><text fill="#000000" font-family="sans-serif" font-size="13" font-weight="bold" lengthAdjust="spacing" textLength="14" x="887.5" y="1484.7998">36</text><text fill="#000000" font-family="sans-serif" font-size="13" lengthAdjust="spacing" textLength="67" x="905.5" y="1484.7998">colaborador</text><polygon fill="#A80036" points="1642.5,1516.0078,1652.5,1520.0078,1642.5,1524.0078,1646.5,1520.0078" style="stroke:#A80036;stroke-width:1.0;"/><line style="stroke:#A80036;stroke-width:1.0;" x1="870.5" x2="1648.5" y1="1520.0078" y2="1520.0078"/><text fill="#000000" font-family="sans-serif" font-size="13" font-weight="bold" lengthAdjust="spacing" textLength="14" x="877.5" y="1515.1514">37</text><text fill="#000000" font-family="sans-serif" font-size="13" lengthAdjust="spacing" textLength="75" x="895.5" y="1515.1514">repositories()</text><polygon fill="#A80036" points="1909.5,1546.3594,1919.5,1550.3594,1909.5,1554.3594,1913.5,1550.3594" style="stroke:#A80036;stroke-width:1.0;"/><line style="stroke:#A80036;stroke-width:1.0;" x1="1664.5" x2="1915.5" y1="1550.3594" y2="1550.3594"/><text fill="#000000" font-family="sans-serif" font-size="13" font-weight="bold" lengthAdjust="spacing" textLength="14" x="1671.5" y="1545.5029">38</text><text fill="#000000" font-family="sans-serif" font-size="13" lengthAdjust="spacing" textLength="44" x="1689.5" y="1545.5029">create()</text><rect fill="#FEFECE" filter="url(#f1517wci14omrq)" height="49.2188" style="stroke:#A80036;stroke-width:1.5;" width="130" x="1921.5" y="1528.0078"/><text fill="#000000" font-family="sans-serif" font-size="14" lengthAdjust="spacing" textLength="75" x="1949" y="1549.541">&lt;&lt;factory&gt;&gt;</text><text fill="#000000" font-family="sans-serif" font-size="14" lengthAdjust="spacing" textLength="116" x="1928.5" y="1567.1504">RepositoryFactory</text><polygon fill="#A80036" points="881.5,1610.5781,871.5,1614.5781,881.5,1618.5781,877.5,1614.5781" style="stroke:#A80036;stroke-width:1.0;"/><line style="stroke:#A80036;stroke-width:1.0;stroke-dasharray:2.0,2.0;" x1="875.5" x2="1658.5" y1="1614.5781" y2="1614.5781"/><text fill="#000000" font-family="sans-serif" font-size="13" font-weight="bold" lengthAdjust="spacing" textLength="14" x="887.5" y="1609.7217">39</text><text fill="#000000" font-family="sans-serif" font-size="13" lengthAdjust="spacing" textLength="39" x="905.5" y="1609.7217">factory</text><polygon fill="#A80036" points="1971.5,1640.9297,1981.5,1644.9297,1971.5,1648.9297,1975.5,1644.9297" style="stroke:#A80036;stroke-width:1.0;"/><line style="stroke:#A80036;stroke-width:1.0;" x1="870.5" x2="1977.5" y1="1644.9297" y2="1644.9297"/><text fill="#000000" font-family="sans-serif" font-size="13" font-weight="bold" lengthAdjust="spacing" textLength="14" x="877.5" y="1640.0732">40</text><text fill="#000000" font-family="sans-serif" font-size="13" lengthAdjust="spacing" textLength="89" x="895.5" y="1640.0732">colaboradores()</text><polygon fill="#A80036" points="2199.5,1671.2813,2209.5,1675.2813,2199.5,1679.2813,2203.5,1675.2813" style="stroke:#A80036;stroke-width:1.0;"/><line style="stroke:#A80036;stroke-width:1.0;" x1="1993.5" x2="2205.5" y1="1675.2813" y2="1675.2813"/><text fill="#000000" font-family="sans-serif" font-size="13" font-weight="bold" lengthAdjust="spacing" textLength="14" x="2000.5" y="1670.4248">41</text><text fill="#000000" font-family="sans-serif" font-size="13" lengthAdjust="spacing" textLength="44" x="2018.5" y="1670.4248">create()</text><text fill="#000000" font-family="sans-serif" font-size="14" lengthAdjust="spacing" textLength="95" x="2237.5" y="1713.4629">&lt;&lt;repository&gt;&gt;</text><text fill="#000000" font-family="sans-serif" font-size="14" lengthAdjust="spacing" textLength="147" x="2211.5" y="1731.0723">ColaboradorRepository</text><path d="M2270,1662.9297 C2270,1652.9297 2288,1652.9297 2288,1652.9297 C2288,1652.9297 2306,1652.9297 2306,1662.9297 L2306,1688.9297 C2306,1698.9297 2288,1698.9297 2288,1698.9297 C2288,1698.9297 2270,1698.9297 2270,1688.9297 L2270,1662.9297 " fill="#FEFECE" filter="url(#f1517wci14omrq)" style="stroke:#000000;stroke-width:1.5;"/><path d="M2270,1662.9297 C2270,1672.9297 2288,1672.9297 2288,1672.9297 C2288,1672.9297 2306,1672.9297 2306,1662.9297 " fill="none" style="stroke:#000000;stroke-width:1.5;"/><polygon fill="#A80036" points="881.5,1762.5,871.5,1766.5,881.5,1770.5,877.5,1766.5" style="stroke:#A80036;stroke-width:1.0;"/><line style="stroke:#A80036;stroke-width:1.0;stroke-dasharray:2.0,2.0;" x1="875.5" x2="1987.5" y1="1766.5" y2="1766.5"/><text fill="#000000" font-family="sans-serif" font-size="13" font-weight="bold" lengthAdjust="spacing" textLength="14" x="887.5" y="1761.6436">42</text><text fill="#000000" font-family="sans-serif" font-size="13" lengthAdjust="spacing" textLength="129" x="905.5" y="1761.6436">colaboradorRepository</text><polygon fill="#A80036" points="2271,1792.8516,2281,1796.8516,2271,1800.8516,2275,1796.8516" style="stroke:#A80036;stroke-width:1.0;"/><line style="stroke:#A80036;stroke-width:1.0;" x1="870.5" x2="2277" y1="1796.8516" y2="1796.8516"/><text fill="#000000" font-family="sans-serif" font-size="13" font-weight="bold" lengthAdjust="spacing" textLength="14" x="877.5" y="1791.9951">43</text><text fill="#000000" font-family="sans-serif" font-size="13" lengthAdjust="spacing" textLength="101" x="895.5" y="1791.9951">save(colaborador)</text><polygon fill="#A80036" points="881.5,1823.2031,871.5,1827.2031,881.5,1831.2031,877.5,1827.2031" style="stroke:#A80036;stroke-width:1.0;"/><line style="stroke:#A80036;stroke-width:1.0;stroke-dasharray:2.0,2.0;" x1="875.5" x2="2287" y1="1827.2031" y2="1827.2031"/><text fill="#000000" font-family="sans-serif" font-size="13" font-weight="bold" lengthAdjust="spacing" textLength="14" x="887.5" y="1822.3467">44</text><text fill="#000000" font-family="sans-serif" font-size="13" lengthAdjust="spacing" textLength="67" x="905.5" y="1822.3467">colaborador</text><polygon fill="#A80036" points="549.5,1853.5547,539.5,1857.5547,549.5,1861.5547,545.5,1857.5547" style="stroke:#A80036;stroke-width:1.0;"/><line style="stroke:#A80036;stroke-width:1.0;stroke-dasharray:2.0,2.0;" x1="543.5" x2="864.5" y1="1857.5547" y2="1857.5547"/><text fill="#000000" font-family="sans-serif" font-size="13" font-weight="bold" lengthAdjust="spacing" textLength="14" x="555.5" y="1852.6982">45</text><text fill="#000000" font-family="sans-serif" font-size="13" lengthAdjust="spacing" textLength="67" x="573.5" y="1852.6982">colaborador</text><polygon fill="#A80036" points="133.5,1883.9063,123.5,1887.9063,133.5,1891.9063,129.5,1887.9063" style="stroke:#A80036;stroke-width:1.0;"/><line style="stroke:#A80036;stroke-width:1.0;stroke-dasharray:2.0,2.0;" x1="127.5" x2="532.5" y1="1887.9063" y2="1887.9063"/><text fill="#000000" font-family="sans-serif" font-size="13" font-weight="bold" lengthAdjust="spacing" textLength="14" x="139.5" y="1883.0498">46</text><text fill="#000000" font-family="sans-serif" font-size="13" lengthAdjust="spacing" textLength="188" x="157.5" y="1883.0498">Informa do sucesso da operação</text><!--MD5=[8279ad8e7045fdd8f2d3633f205789d3]
@startuml
autonumber
hide footbox

actor "Responsável de Recursos Humanos" as RRH

participant "<<presentation>>\nEspecificarColaboradorUI" as UI
participant "<<aplication>>\nEspecificarColaboradorController" as CTRL
participant "<<builder>>\nColaboradorBuilder" as CB
participant "<<domain>>\ncolab:Colaborador" as COLAB
participant "<<persistence>>\nPersistenceContex" as PC
participant "<<persistence>>\nAppSettings" as AS
participant "<<factory>>\nRepositoryFactory" as RF
database "<<repository>>\nFuncaoRepository" as FR
database "<<repository>>\nColaboradorRepository" as CR

participant "<<domain>>\nNomeCurto" as NCURTO
participant "<<domain>>\nNomeCompleto" as NCOMP
participant "<<domain>>\nNumeroMecanografico" as NM
participant "<<domain>>\nFuncao" as F
participant "<<domain>>\nMorada" as M
participant "<<domain>>\nContacto" as C
participant "<<domain>>\nDataNascimento" as DN

activate RRH

RRH-> UI : Envia um pedido para especificar um colaborador
activate UI

UI-> CTRL** : create()

UI - -> RRH: Solicita toda a informação necessária para a especificação\n de um colaborador(i.e. nome curto e completo, \nnúmero mecanográfico, morada, contacto, data de nascimento)

deactivate UI
RRH-> UI : Preenche com toda a informação solicitada
activate UI
UI-> CTRL : addColab(nomeCurto, nomeCompleto, numMecan,\nmorada, contacto, dataNascimento)
activate CTRL

CTRL-> CB** : create()
CTRL-> CB : setNomeCurto(nomeCurto)
activate CB
CTRL-> CB : setNomeCompleto(nomeCompleto)
CTRL-> CB : setNumMecan(numMecan)
CTRL-> CB : setMorada(morada)
CTRL-> CB : setContacto(contacto)
CTRL-> CB : setDataNascimento(dataNascimento)
deactivate CB
deactivate CTRL

UI-> CTRL : getFuncaoList()
activate CTRL
CTRL-> PC: repositories()
activate PC
PC-> AS : instance()
activate AS
deactivate AS
PC -> AS : getRepositoryFactory()
activate AS

AS -> RF** : create
AS - -> PC : factory
PC - -> CTRL : factory
deactivate AS
deactivate PC

CTRL-> RF : funcoes()
activate RF
RF-> FR** : create()
RF- -> CTRL : funcaoRepository
deactivate RF

CTRL -> FR : save(funcao)
activate FR
FR - -> CTRL : funcao
deactivate FR
CTRL - -> UI : funcao


UI - -> RRH: Apresenta a lista de funções
deactivate UI
deactivate CTRL


RRH-> UI : Seleciona a função pretendida
activate UI

UI-> CTRL : addFuncao(funcao)
activate CTRL
CTRL-> CB : setFuncao(funcao)
activate CB
deactivate CB
deactivate CTRL

UI - -> RRH: Apresenta a informação e solicita confirmação
deactivate UI

deactivate UI
RRH-> UI : Confirma
activate UI

UI-> CTRL : saveColaborador()
activate CTRL

CTRL-> CB : createColaborador()
activate CB
CB-> COLAB** : create(nomeCurto,nomeCompleto,numMecan,\nmorada,contacto,dataNascimento,funcao)

activate COLAB
COLAB - -> CB : colaborador
deactivate COLAB
CB - -> CTRL : colaborador
deactivate CB

CTRL-> PC: repositories()
activate PC
PC-> RF** : create()
PC- -> CTRL : factory
deactivate PC

CTRL-> RF : colaboradores()
activate RF
RF-> CR** : create()
RF- -> CTRL : colaboradorRepository
deactivate RF

CTRL-> CR : save(colaborador)
activate CR
CR - -> CTRL : colaborador
deactivate CR
CTRL - -> UI : colaborador
deactivate CTRL

UI - -> RRH: Informa do sucesso da operação
deactivate UI
deactivate RRH

@enduml

PlantUML version 1.2021.5(Sun Apr 25 12:20:28 BST 2021)
(GPL source distribution)
Java Runtime: OpenJDK Runtime Environment
JVM: Dynamic Code Evolution 64-Bit Server VM
Default Encoding: Cp1252
Language: pt
Country: PT
--></g></svg>