<?xml version="1.0" encoding="UTF-8" standalone="no"?><svg xmlns="http://www.w3.org/2000/svg" xmlns:xlink="http://www.w3.org/1999/xlink" contentScriptType="application/ecmascript" contentStyleType="text/css" height="787px" preserveAspectRatio="none" style="width:6247px;height:787px;" version="1.1" viewBox="0 0 6247 787" width="6247px" zoomAndPan="magnify"><defs><filter height="300%" id="f12qhkwd3at0li" width="300%" x="-1" y="-1"><feGaussianBlur result="blurOut" stdDeviation="2.0"/><feColorMatrix in="blurOut" result="blurOut2" type="matrix" values="0 0 0 0 0 0 0 0 0 0 0 0 0 0 0 0 0 0 .4 0"/><feOffset dx="4.0" dy="4.0" in="blurOut2" result="blurOut3"/><feBlend in="SourceGraphic" in2="blurOut3" mode="normal"/></filter></defs><g><!--MD5=[9681dc6e01e10c6b4fe06895ae94f592]
cluster UI--><polygon fill="#DDDDDD" filter="url(#f12qhkwd3at0li)" points="2835,6,2855,6,2862,29.6094,3013,29.6094,3013,126,2835,126,2835,6" style="stroke:#000000;stroke-width:1.5;"/><line style="stroke:#000000;stroke-width:1.5;" x1="2835" x2="2862" y1="29.6094" y2="29.6094"/><text fill="#000000" font-family="sans-serif" font-size="14" font-weight="bold" lengthAdjust="spacing" textLength="14" x="2839" y="22.5332">UI</text><!--MD5=[d64883541e3d62e3241c4d12decf100d]
cluster Application--><polygon fill="#DDDDDD" filter="url(#f12qhkwd3at0li)" points="2779,159,2863,159,2870,182.6094,3069,182.6094,3069,431,2779,431,2779,159" style="stroke:#000000;stroke-width:1.5;"/><line style="stroke:#000000;stroke-width:1.5;" x1="2779" x2="2870" y1="182.6094" y2="182.6094"/><text fill="#000000" font-family="sans-serif" font-size="14" font-weight="bold" lengthAdjust="spacing" textLength="78" x="2783" y="175.5332">Application</text><!--MD5=[121a8bf1197281ab89ed693fab589f94]
cluster Domain--><polygon fill="#DDDDDD" filter="url(#f12qhkwd3at0li)" points="1202,481,1260,481,1267,504.6094,6230,504.6094,6230,780,1202,780,1202,481" style="stroke:#000000;stroke-width:1.5;"/><line style="stroke:#000000;stroke-width:1.5;" x1="1202" x2="1267" y1="504.6094" y2="504.6094"/><text fill="#000000" font-family="sans-serif" font-size="14" font-weight="bold" lengthAdjust="spacing" textLength="52" x="1206" y="497.5332">Domain</text><!--MD5=[44cc74aea8168fb4471e814fff38ed12]
cluster Builder--><polygon fill="#DDDDDD" filter="url(#f12qhkwd3at0li)" points="5556,525,5613,525,5620,548.6094,6206,548.6094,6206,756,5556,756,5556,525" style="stroke:#000000;stroke-width:1.5;"/><line style="stroke:#000000;stroke-width:1.5;" x1="5556" x2="5620" y1="548.6094" y2="548.6094"/><text fill="#000000" font-family="sans-serif" font-size="14" font-weight="bold" lengthAdjust="spacing" textLength="51" x="5560" y="541.5332">Builder</text><!--MD5=[bc6b40dadbf86ab6a0c8405a467a48af]
cluster Persistence--><polygon fill="#DDDDDD" filter="url(#f12qhkwd3at0li)" points="16,509,106,509,113,532.6094,1178,532.6094,1178,752,16,752,16,509" style="stroke:#000000;stroke-width:1.5;"/><line style="stroke:#000000;stroke-width:1.5;" x1="16" x2="113" y1="532.6094" y2="532.6094"/><text fill="#000000" font-family="sans-serif" font-size="14" font-weight="bold" lengthAdjust="spacing" textLength="84" x="20" y="525.5332">Persistence</text><!--MD5=[0d5799440b3bfefd92b00abfcd2c79b9]
cluster Factory--><polygon fill="#DDDDDD" filter="url(#f12qhkwd3at0li)" points="992,553,1050,553,1057,576.6094,1154,576.6094,1154,728,992,728,992,553" style="stroke:#000000;stroke-width:1.5;"/><line style="stroke:#000000;stroke-width:1.5;" x1="992" x2="1057" y1="576.6094" y2="576.6094"/><text fill="#000000" font-family="sans-serif" font-size="14" font-weight="bold" lengthAdjust="spacing" textLength="52" x="996" y="569.5332">Factory</text><!--MD5=[71971f99a41bb66cf321ce46bb59f738]
cluster Repository--><polygon fill="#DDDDDD" filter="url(#f12qhkwd3at0li)" points="424,566.5,506,566.5,513,590.1094,950,590.1094,950,714.5,424,714.5,424,566.5" style="stroke:#000000;stroke-width:1.5;"/><line style="stroke:#000000;stroke-width:1.5;" x1="424" x2="513" y1="590.1094" y2="590.1094"/><text fill="#000000" font-family="sans-serif" font-size="14" font-weight="bold" lengthAdjust="spacing" textLength="76" x="428" y="583.0332">Repository</text><!--MD5=[7edf8479ad866c43c0130f19b028396c]
class EspecificarServicoUI--><rect codeLine="4" fill="#FEFECE" filter="url(#f12qhkwd3at0li)" height="48" id="EspecificarServicoUI" style="stroke:#A80036;stroke-width:1.5;" width="145" x="2851.5" y="62"/><ellipse cx="2866.5" cy="78" fill="#ADD1B2" rx="11" ry="11" style="stroke:#A80036;stroke-width:1.0;"/><path d="M2868.5,74.5 Q2868.7031,74 2868.9375,73.75 Q2869.1719,73.5 2869.4375,73.5 Q2869.9063,73.5 2870.2031,73.7813 Q2870.5,74.0625 2870.5,74.7188 L2870.5,76.2813 Q2870.5,76.9375 2870.2188,77.2188 Q2869.9375,77.5 2869.5,77.5 Q2869.1094,77.5 2868.8594,77.3281 Q2868.6094,77.1563 2868.5,76.7031 Q2868.4531,76.3906 2868.2813,76.2188 Q2867.9688,75.8906 2867.4063,75.7031 Q2866.8438,75.5 2866.2813,75.5 Q2865.5781,75.5 2864.9844,75.7813 Q2864.4063,76.0625 2863.9531,76.6875 Q2863.5,77.3125 2863.5,78.1719 L2863.5,79.0938 Q2863.5,80.125 2864.3438,80.8125 Q2865.1875,81.5 2866.6875,81.5 Q2867.5781,81.5 2868.2031,81.2969 Q2868.5625,81.1875 2868.9688,80.8281 Q2869.2344,80.625 2869.375,80.5625 Q2869.5156,80.5 2869.6875,80.5 Q2870.0156,80.5 2870.25,80.7656 Q2870.5,81.0156 2870.5,81.375 Q2870.5,81.7188 2870.1563,82.125 Q2869.6563,82.7188 2868.8594,83.0469 Q2867.8125,83.5 2866.5313,83.5 Q2865.0313,83.5 2863.8281,82.9063 Q2862.8594,82.4375 2862.1719,81.4219 Q2861.5,80.4063 2861.5,79.2031 L2861.5,78.1094 Q2861.5,76.8594 2862.0938,75.7656 Q2862.7031,74.6719 2863.75,74.0938 Q2864.8125,73.5 2866,73.5 Q2866.7188,73.5 2867.3438,73.75 Q2867.9688,74 2868.5,74.5 Z " fill="#000000"/><text fill="#000000" font-family="sans-serif" font-size="12" lengthAdjust="spacing" textLength="113" x="2880.5" y="82.9102">EspecificarServicoUI</text><line style="stroke:#A80036;stroke-width:1.5;" x1="2852.5" x2="2995.5" y1="94" y2="94"/><line style="stroke:#A80036;stroke-width:1.5;" x1="2852.5" x2="2995.5" y1="102" y2="102"/><!--MD5=[0d4e5460865fab64524af805768c65c5]
class EspecificarServicoController--><rect codeLine="11" fill="#FEFECE" filter="url(#f12qhkwd3at0li)" height="200.1953" id="EspecificarServicoController" style="stroke:#A80036;stroke-width:1.5;" width="257" x="2795.5" y="215"/><ellipse cx="2842.25" cy="231" fill="#ADD1B2" rx="11" ry="11" style="stroke:#A80036;stroke-width:1.0;"/><path d="M2844.25,227.5 Q2844.4531,227 2844.6875,226.75 Q2844.9219,226.5 2845.1875,226.5 Q2845.6563,226.5 2845.9531,226.7813 Q2846.25,227.0625 2846.25,227.7188 L2846.25,229.2813 Q2846.25,229.9375 2845.9688,230.2188 Q2845.6875,230.5 2845.25,230.5 Q2844.8594,230.5 2844.6094,230.3281 Q2844.3594,230.1563 2844.25,229.7031 Q2844.2031,229.3906 2844.0313,229.2188 Q2843.7188,228.8906 2843.1563,228.7031 Q2842.5938,228.5 2842.0313,228.5 Q2841.3281,228.5 2840.7344,228.7813 Q2840.1563,229.0625 2839.7031,229.6875 Q2839.25,230.3125 2839.25,231.1719 L2839.25,232.0938 Q2839.25,233.125 2840.0938,233.8125 Q2840.9375,234.5 2842.4375,234.5 Q2843.3281,234.5 2843.9531,234.2969 Q2844.3125,234.1875 2844.7188,233.8281 Q2844.9844,233.625 2845.125,233.5625 Q2845.2656,233.5 2845.4375,233.5 Q2845.7656,233.5 2846,233.7656 Q2846.25,234.0156 2846.25,234.375 Q2846.25,234.7188 2845.9063,235.125 Q2845.4063,235.7188 2844.6094,236.0469 Q2843.5625,236.5 2842.2813,236.5 Q2840.7813,236.5 2839.5781,235.9063 Q2838.6094,235.4375 2837.9219,234.4219 Q2837.25,233.4063 2837.25,232.2031 L2837.25,231.1094 Q2837.25,229.8594 2837.8438,228.7656 Q2838.4531,227.6719 2839.5,227.0938 Q2840.5625,226.5 2841.75,226.5 Q2842.4688,226.5 2843.0938,226.75 Q2843.7188,227 2844.25,227.5 Z " fill="#000000"/><text fill="#000000" font-family="sans-serif" font-size="12" lengthAdjust="spacing" textLength="155" x="2862.75" y="235.9102">EspecificarServicoController</text><line style="stroke:#A80036;stroke-width:1.5;" x1="2796.5" x2="3051.5" y1="247" y2="247"/><line style="stroke:#A80036;stroke-width:1.5;" x1="2796.5" x2="3051.5" y1="255" y2="255"/><text fill="#000000" font-family="sans-serif" font-size="11" lengthAdjust="spacing" textLength="45" x="2801.5" y="270.4189">+create()</text><text fill="#000000" font-family="sans-serif" font-size="11" lengthAdjust="spacing" textLength="244" x="2801.5" y="284.2549">+addServico(descricaoBreve, descricaoCompleta)</text><text fill="#000000" font-family="sans-serif" font-size="11" lengthAdjust="spacing" textLength="120" x="2801.5" y="298.0908">+addKeyword(keyword)</text><text fill="#000000" font-family="sans-serif" font-size="11" lengthAdjust="spacing" textLength="143" x="2801.5" y="311.9268">+addKeywordListToService()</text><text fill="#000000" font-family="sans-serif" font-size="11" lengthAdjust="spacing" textLength="133" x="2801.5" y="325.7627">+enableFeedback(duracao)</text><text fill="#000000" font-family="sans-serif" font-size="11" lengthAdjust="spacing" textLength="77" x="2801.5" y="339.5986">+getCatalogos()</text><text fill="#000000" font-family="sans-serif" font-size="11" lengthAdjust="spacing" textLength="131" x="2801.5" y="353.4346">+addFormulario(nome, tipo)</text><text fill="#000000" font-family="sans-serif" font-size="11" lengthAdjust="spacing" textLength="245" x="2801.5" y="367.2705">+addAtributo(nome, label, descricao, regex, script)</text><text fill="#000000" font-family="sans-serif" font-size="11" lengthAdjust="spacing" textLength="138" x="2801.5" y="381.1064">+addAtributoTipo(tipoDados)</text><text fill="#000000" font-family="sans-serif" font-size="11" lengthAdjust="spacing" textLength="88" x="2801.5" y="394.9424">+saveFormulario()</text><text fill="#000000" font-family="sans-serif" font-size="11" lengthAdjust="spacing" textLength="75" x="2801.5" y="408.7783">+saveServico()</text><!--MD5=[faf4d635eea35b16677487bac6ad9bf5]
class Servico--><rect codeLine="28" fill="#FEFECE" filter="url(#f12qhkwd3at0li)" height="61.8359" id="Servico" style="stroke:#A80036;stroke-width:1.5;" width="466" x="1218" y="629.5"/><ellipse cx="1426.75" cy="645.5" fill="#ADD1B2" rx="11" ry="11" style="stroke:#A80036;stroke-width:1.0;"/><path d="M1428.75,642 Q1428.9531,641.5 1429.1875,641.25 Q1429.4219,641 1429.6875,641 Q1430.1563,641 1430.4531,641.2813 Q1430.75,641.5625 1430.75,642.2188 L1430.75,643.7813 Q1430.75,644.4375 1430.4688,644.7188 Q1430.1875,645 1429.75,645 Q1429.3594,645 1429.1094,644.8281 Q1428.8594,644.6563 1428.75,644.2031 Q1428.7031,643.8906 1428.5313,643.7188 Q1428.2188,643.3906 1427.6563,643.2031 Q1427.0938,643 1426.5313,643 Q1425.8281,643 1425.2344,643.2813 Q1424.6563,643.5625 1424.2031,644.1875 Q1423.75,644.8125 1423.75,645.6719 L1423.75,646.5938 Q1423.75,647.625 1424.5938,648.3125 Q1425.4375,649 1426.9375,649 Q1427.8281,649 1428.4531,648.7969 Q1428.8125,648.6875 1429.2188,648.3281 Q1429.4844,648.125 1429.625,648.0625 Q1429.7656,648 1429.9375,648 Q1430.2656,648 1430.5,648.2656 Q1430.75,648.5156 1430.75,648.875 Q1430.75,649.2188 1430.4063,649.625 Q1429.9063,650.2188 1429.1094,650.5469 Q1428.0625,651 1426.7813,651 Q1425.2813,651 1424.0781,650.4063 Q1423.1094,649.9375 1422.4219,648.9219 Q1421.75,647.9063 1421.75,646.7031 L1421.75,645.6094 Q1421.75,644.3594 1422.3438,643.2656 Q1422.9531,642.1719 1424,641.5938 Q1425.0625,641 1426.25,641 Q1426.9688,641 1427.5938,641.25 Q1428.2188,641.5 1428.75,642 Z " fill="#000000"/><text fill="#000000" font-family="sans-serif" font-size="12" lengthAdjust="spacing" textLength="40" x="1447.25" y="650.4102">Servico</text><line style="stroke:#A80036;stroke-width:1.5;" x1="1219" x2="1683" y1="661.5" y2="661.5"/><line style="stroke:#A80036;stroke-width:1.5;" x1="1219" x2="1683" y1="669.5" y2="669.5"/><text fill="#000000" font-family="sans-serif" font-size="11" lengthAdjust="spacing" textLength="454" x="1224" y="684.9189">+create(descricaoBreve, descricaoCompleta, feedback, duracao, keywordList, formularioList)</text><!--MD5=[76acc874f09693b2f2def29d0cdf8ced]
class Formulario--><rect codeLine="32" fill="#FEFECE" filter="url(#f12qhkwd3at0li)" height="61.8359" id="Formulario" style="stroke:#A80036;stroke-width:1.5;" width="345" x="2897.5" y="629.5"/><ellipse cx="3035.75" cy="645.5" fill="#ADD1B2" rx="11" ry="11" style="stroke:#A80036;stroke-width:1.0;"/><path d="M3037.75,642 Q3037.9531,641.5 3038.1875,641.25 Q3038.4219,641 3038.6875,641 Q3039.1563,641 3039.4531,641.2813 Q3039.75,641.5625 3039.75,642.2188 L3039.75,643.7813 Q3039.75,644.4375 3039.4688,644.7188 Q3039.1875,645 3038.75,645 Q3038.3594,645 3038.1094,644.8281 Q3037.8594,644.6563 3037.75,644.2031 Q3037.7031,643.8906 3037.5313,643.7188 Q3037.2188,643.3906 3036.6563,643.2031 Q3036.0938,643 3035.5313,643 Q3034.8281,643 3034.2344,643.2813 Q3033.6563,643.5625 3033.2031,644.1875 Q3032.75,644.8125 3032.75,645.6719 L3032.75,646.5938 Q3032.75,647.625 3033.5938,648.3125 Q3034.4375,649 3035.9375,649 Q3036.8281,649 3037.4531,648.7969 Q3037.8125,648.6875 3038.2188,648.3281 Q3038.4844,648.125 3038.625,648.0625 Q3038.7656,648 3038.9375,648 Q3039.2656,648 3039.5,648.2656 Q3039.75,648.5156 3039.75,648.875 Q3039.75,649.2188 3039.4063,649.625 Q3038.9063,650.2188 3038.1094,650.5469 Q3037.0625,651 3035.7813,651 Q3034.2813,651 3033.0781,650.4063 Q3032.1094,649.9375 3031.4219,648.9219 Q3030.75,647.9063 3030.75,646.7031 L3030.75,645.6094 Q3030.75,644.3594 3031.3438,643.2656 Q3031.9531,642.1719 3033,641.5938 Q3034.0625,641 3035.25,641 Q3035.9688,641 3036.5938,641.25 Q3037.2188,641.5 3037.75,642 Z " fill="#000000"/><text fill="#000000" font-family="sans-serif" font-size="12" lengthAdjust="spacing" textLength="60" x="3056.25" y="650.4102">Formulario</text><line style="stroke:#A80036;stroke-width:1.5;" x1="2898.5" x2="3241.5" y1="661.5" y2="661.5"/><line style="stroke:#A80036;stroke-width:1.5;" x1="2898.5" x2="3241.5" y1="669.5" y2="669.5"/><text fill="#000000" font-family="sans-serif" font-size="11" lengthAdjust="spacing" textLength="333" x="2903.5" y="684.9189">+create(nome, label, descricao, regex, script, tipoDados, atributoList)</text><!--MD5=[309c0390f5d754f37a04a9368907c71a]
class Atributo--><rect codeLine="36" fill="#FEFECE" filter="url(#f12qhkwd3at0li)" height="61.8359" id="Atributo" style="stroke:#A80036;stroke-width:1.5;" width="286" x="3317" y="629.5"/><ellipse cx="3435.25" cy="645.5" fill="#ADD1B2" rx="11" ry="11" style="stroke:#A80036;stroke-width:1.0;"/><path d="M3437.25,642 Q3437.4531,641.5 3437.6875,641.25 Q3437.9219,641 3438.1875,641 Q3438.6563,641 3438.9531,641.2813 Q3439.25,641.5625 3439.25,642.2188 L3439.25,643.7813 Q3439.25,644.4375 3438.9688,644.7188 Q3438.6875,645 3438.25,645 Q3437.8594,645 3437.6094,644.8281 Q3437.3594,644.6563 3437.25,644.2031 Q3437.2031,643.8906 3437.0313,643.7188 Q3436.7188,643.3906 3436.1563,643.2031 Q3435.5938,643 3435.0313,643 Q3434.3281,643 3433.7344,643.2813 Q3433.1563,643.5625 3432.7031,644.1875 Q3432.25,644.8125 3432.25,645.6719 L3432.25,646.5938 Q3432.25,647.625 3433.0938,648.3125 Q3433.9375,649 3435.4375,649 Q3436.3281,649 3436.9531,648.7969 Q3437.3125,648.6875 3437.7188,648.3281 Q3437.9844,648.125 3438.125,648.0625 Q3438.2656,648 3438.4375,648 Q3438.7656,648 3439,648.2656 Q3439.25,648.5156 3439.25,648.875 Q3439.25,649.2188 3438.9063,649.625 Q3438.4063,650.2188 3437.6094,650.5469 Q3436.5625,651 3435.2813,651 Q3433.7813,651 3432.5781,650.4063 Q3431.6094,649.9375 3430.9219,648.9219 Q3430.25,647.9063 3430.25,646.7031 L3430.25,645.6094 Q3430.25,644.3594 3430.8438,643.2656 Q3431.4531,642.1719 3432.5,641.5938 Q3433.5625,641 3434.75,641 Q3435.4688,641 3436.0938,641.25 Q3436.7188,641.5 3437.25,642 Z " fill="#000000"/><text fill="#000000" font-family="sans-serif" font-size="12" lengthAdjust="spacing" textLength="41" x="3455.75" y="650.4102">Atributo</text><line style="stroke:#A80036;stroke-width:1.5;" x1="3318" x2="3602" y1="661.5" y2="661.5"/><line style="stroke:#A80036;stroke-width:1.5;" x1="3318" x2="3602" y1="669.5" y2="669.5"/><text fill="#000000" font-family="sans-serif" font-size="11" lengthAdjust="spacing" textLength="274" x="3323" y="684.9189">+create(nome, label, descricao, regex, script, tipoDados)</text><!--MD5=[46f4bd424d5f61885b88a80190f6ab45]
class DescricaoBreve--><rect codeLine="40" fill="#FEFECE" filter="url(#f12qhkwd3at0li)" height="75.6719" id="DescricaoBreve" style="stroke:#A80036;stroke-width:1.5;" width="212" x="2650" y="622.5"/><ellipse cx="2708.25" cy="638.5" fill="#ADD1B2" rx="11" ry="11" style="stroke:#A80036;stroke-width:1.0;"/><path d="M2710.25,635 Q2710.4531,634.5 2710.6875,634.25 Q2710.9219,634 2711.1875,634 Q2711.6563,634 2711.9531,634.2813 Q2712.25,634.5625 2712.25,635.2188 L2712.25,636.7813 Q2712.25,637.4375 2711.9688,637.7188 Q2711.6875,638 2711.25,638 Q2710.8594,638 2710.6094,637.8281 Q2710.3594,637.6563 2710.25,637.2031 Q2710.2031,636.8906 2710.0313,636.7188 Q2709.7188,636.3906 2709.1563,636.2031 Q2708.5938,636 2708.0313,636 Q2707.3281,636 2706.7344,636.2813 Q2706.1563,636.5625 2705.7031,637.1875 Q2705.25,637.8125 2705.25,638.6719 L2705.25,639.5938 Q2705.25,640.625 2706.0938,641.3125 Q2706.9375,642 2708.4375,642 Q2709.3281,642 2709.9531,641.7969 Q2710.3125,641.6875 2710.7188,641.3281 Q2710.9844,641.125 2711.125,641.0625 Q2711.2656,641 2711.4375,641 Q2711.7656,641 2712,641.2656 Q2712.25,641.5156 2712.25,641.875 Q2712.25,642.2188 2711.9063,642.625 Q2711.4063,643.2188 2710.6094,643.5469 Q2709.5625,644 2708.2813,644 Q2706.7813,644 2705.5781,643.4063 Q2704.6094,642.9375 2703.9219,641.9219 Q2703.25,640.9063 2703.25,639.7031 L2703.25,638.6094 Q2703.25,637.3594 2703.8438,636.2656 Q2704.4531,635.1719 2705.5,634.5938 Q2706.5625,634 2707.75,634 Q2708.4688,634 2709.0938,634.25 Q2709.7188,634.5 2710.25,635 Z " fill="#000000"/><text fill="#000000" font-family="sans-serif" font-size="12" lengthAdjust="spacing" textLength="87" x="2728.75" y="643.4102">DescricaoBreve</text><line style="stroke:#A80036;stroke-width:1.5;" x1="2651" x2="2861" y1="654.5" y2="654.5"/><line style="stroke:#A80036;stroke-width:1.5;" x1="2651" x2="2861" y1="662.5" y2="662.5"/><text fill="#000000" font-family="sans-serif" font-size="11" lengthAdjust="spacing" textLength="200" x="2656" y="677.9189">+createDescricaoBreve(descricaoBreve)</text><text fill="#000000" font-family="sans-serif" font-size="11" lengthAdjust="spacing" textLength="126" x="2656" y="691.7549">-validate(descricaoBreve)</text><!--MD5=[42b462ea57d3ac6fe4cb15d4b94bbe47]
class DescricaoCompleta--><rect codeLine="45" fill="#FEFECE" filter="url(#f12qhkwd3at0li)" height="75.6719" id="DescricaoCompleta" style="stroke:#A80036;stroke-width:1.5;" width="242" x="2373" y="622.5"/><ellipse cx="2434.75" cy="638.5" fill="#ADD1B2" rx="11" ry="11" style="stroke:#A80036;stroke-width:1.0;"/><path d="M2436.75,635 Q2436.9531,634.5 2437.1875,634.25 Q2437.4219,634 2437.6875,634 Q2438.1563,634 2438.4531,634.2813 Q2438.75,634.5625 2438.75,635.2188 L2438.75,636.7813 Q2438.75,637.4375 2438.4688,637.7188 Q2438.1875,638 2437.75,638 Q2437.3594,638 2437.1094,637.8281 Q2436.8594,637.6563 2436.75,637.2031 Q2436.7031,636.8906 2436.5313,636.7188 Q2436.2188,636.3906 2435.6563,636.2031 Q2435.0938,636 2434.5313,636 Q2433.8281,636 2433.2344,636.2813 Q2432.6563,636.5625 2432.2031,637.1875 Q2431.75,637.8125 2431.75,638.6719 L2431.75,639.5938 Q2431.75,640.625 2432.5938,641.3125 Q2433.4375,642 2434.9375,642 Q2435.8281,642 2436.4531,641.7969 Q2436.8125,641.6875 2437.2188,641.3281 Q2437.4844,641.125 2437.625,641.0625 Q2437.7656,641 2437.9375,641 Q2438.2656,641 2438.5,641.2656 Q2438.75,641.5156 2438.75,641.875 Q2438.75,642.2188 2438.4063,642.625 Q2437.9063,643.2188 2437.1094,643.5469 Q2436.0625,644 2434.7813,644 Q2433.2813,644 2432.0781,643.4063 Q2431.1094,642.9375 2430.4219,641.9219 Q2429.75,640.9063 2429.75,639.7031 L2429.75,638.6094 Q2429.75,637.3594 2430.3438,636.2656 Q2430.9531,635.1719 2432,634.5938 Q2433.0625,634 2434.25,634 Q2434.9688,634 2435.5938,634.25 Q2436.2188,634.5 2436.75,635 Z " fill="#000000"/><text fill="#000000" font-family="sans-serif" font-size="12" lengthAdjust="spacing" textLength="110" x="2455.25" y="643.4102">DescricaoCompleta</text><line style="stroke:#A80036;stroke-width:1.5;" x1="2374" x2="2614" y1="654.5" y2="654.5"/><line style="stroke:#A80036;stroke-width:1.5;" x1="2374" x2="2614" y1="662.5" y2="662.5"/><text fill="#000000" font-family="sans-serif" font-size="11" lengthAdjust="spacing" textLength="230" x="2379" y="677.9189">+createDescricaoCompleta(descricaoCompleta)</text><text fill="#000000" font-family="sans-serif" font-size="11" lengthAdjust="spacing" textLength="141" x="2379" y="691.7549">-validate(descricaoCompleta)</text><!--MD5=[1ac27345a8a52a4a812e38456e107300]
class Keyword--><rect codeLine="50" fill="#FEFECE" filter="url(#f12qhkwd3at0li)" height="75.6719" id="Keyword" style="stroke:#A80036;stroke-width:1.5;" width="145" x="2192.5" y="622.5"/><ellipse cx="2237.25" cy="638.5" fill="#ADD1B2" rx="11" ry="11" style="stroke:#A80036;stroke-width:1.0;"/><path d="M2239.25,635 Q2239.4531,634.5 2239.6875,634.25 Q2239.9219,634 2240.1875,634 Q2240.6563,634 2240.9531,634.2813 Q2241.25,634.5625 2241.25,635.2188 L2241.25,636.7813 Q2241.25,637.4375 2240.9688,637.7188 Q2240.6875,638 2240.25,638 Q2239.8594,638 2239.6094,637.8281 Q2239.3594,637.6563 2239.25,637.2031 Q2239.2031,636.8906 2239.0313,636.7188 Q2238.7188,636.3906 2238.1563,636.2031 Q2237.5938,636 2237.0313,636 Q2236.3281,636 2235.7344,636.2813 Q2235.1563,636.5625 2234.7031,637.1875 Q2234.25,637.8125 2234.25,638.6719 L2234.25,639.5938 Q2234.25,640.625 2235.0938,641.3125 Q2235.9375,642 2237.4375,642 Q2238.3281,642 2238.9531,641.7969 Q2239.3125,641.6875 2239.7188,641.3281 Q2239.9844,641.125 2240.125,641.0625 Q2240.2656,641 2240.4375,641 Q2240.7656,641 2241,641.2656 Q2241.25,641.5156 2241.25,641.875 Q2241.25,642.2188 2240.9063,642.625 Q2240.4063,643.2188 2239.6094,643.5469 Q2238.5625,644 2237.2813,644 Q2235.7813,644 2234.5781,643.4063 Q2233.6094,642.9375 2232.9219,641.9219 Q2232.25,640.9063 2232.25,639.7031 L2232.25,638.6094 Q2232.25,637.3594 2232.8438,636.2656 Q2233.4531,635.1719 2234.5,634.5938 Q2235.5625,634 2236.75,634 Q2237.4688,634 2238.0938,634.25 Q2238.7188,634.5 2239.25,635 Z " fill="#000000"/><text fill="#000000" font-family="sans-serif" font-size="12" lengthAdjust="spacing" textLength="47" x="2257.75" y="643.4102">Keyword</text><line style="stroke:#A80036;stroke-width:1.5;" x1="2193.5" x2="2336.5" y1="654.5" y2="654.5"/><line style="stroke:#A80036;stroke-width:1.5;" x1="2193.5" x2="2336.5" y1="662.5" y2="662.5"/><text fill="#000000" font-family="sans-serif" font-size="11" lengthAdjust="spacing" textLength="133" x="2198.5" y="677.9189">+createKeyword(keyword)</text><text fill="#000000" font-family="sans-serif" font-size="11" lengthAdjust="spacing" textLength="92" x="2198.5" y="691.7549">-validate(keyword)</text><!--MD5=[1a502b0dbedafd291c48f46ef8646183]
class Feedback--><rect codeLine="55" fill="#FEFECE" filter="url(#f12qhkwd3at0li)" height="75.6719" id="Feedback" style="stroke:#A80036;stroke-width:1.5;" width="149" x="2008.5" y="622.5"/><ellipse cx="2051.85" cy="638.5" fill="#ADD1B2" rx="11" ry="11" style="stroke:#A80036;stroke-width:1.0;"/><path d="M2053.85,635 Q2054.0531,634.5 2054.2875,634.25 Q2054.5219,634 2054.7875,634 Q2055.2563,634 2055.5531,634.2813 Q2055.85,634.5625 2055.85,635.2188 L2055.85,636.7813 Q2055.85,637.4375 2055.5688,637.7188 Q2055.2875,638 2054.85,638 Q2054.4594,638 2054.2094,637.8281 Q2053.9594,637.6563 2053.85,637.2031 Q2053.8031,636.8906 2053.6313,636.7188 Q2053.3188,636.3906 2052.7563,636.2031 Q2052.1938,636 2051.6313,636 Q2050.9281,636 2050.3344,636.2813 Q2049.7563,636.5625 2049.3031,637.1875 Q2048.85,637.8125 2048.85,638.6719 L2048.85,639.5938 Q2048.85,640.625 2049.6938,641.3125 Q2050.5375,642 2052.0375,642 Q2052.9281,642 2053.5531,641.7969 Q2053.9125,641.6875 2054.3188,641.3281 Q2054.5844,641.125 2054.725,641.0625 Q2054.8656,641 2055.0375,641 Q2055.3656,641 2055.6,641.2656 Q2055.85,641.5156 2055.85,641.875 Q2055.85,642.2188 2055.5063,642.625 Q2055.0063,643.2188 2054.2094,643.5469 Q2053.1625,644 2051.8813,644 Q2050.3813,644 2049.1781,643.4063 Q2048.2094,642.9375 2047.5219,641.9219 Q2046.85,640.9063 2046.85,639.7031 L2046.85,638.6094 Q2046.85,637.3594 2047.4438,636.2656 Q2048.0531,635.1719 2049.1,634.5938 Q2050.1625,634 2051.35,634 Q2052.0688,634 2052.6938,634.25 Q2053.3188,634.5 2053.85,635 Z " fill="#000000"/><text fill="#000000" font-family="sans-serif" font-size="12" lengthAdjust="spacing" textLength="54" x="2072.15" y="643.4102">Feedback</text><line style="stroke:#A80036;stroke-width:1.5;" x1="2009.5" x2="2156.5" y1="654.5" y2="654.5"/><line style="stroke:#A80036;stroke-width:1.5;" x1="2009.5" x2="2156.5" y1="662.5" y2="662.5"/><text fill="#000000" font-family="sans-serif" font-size="11" lengthAdjust="spacing" textLength="137" x="2014.5" y="677.9189">+createFeedback(feedback)</text><text fill="#000000" font-family="sans-serif" font-size="11" lengthAdjust="spacing" textLength="94" x="2014.5" y="691.7549">-validate(feedback)</text><!--MD5=[d8a10917dc24856f485346becba59e31]
class FeedbackDuracao--><rect codeLine="60" fill="#FEFECE" filter="url(#f12qhkwd3at0li)" height="75.6719" id="FeedbackDuracao" style="stroke:#A80036;stroke-width:1.5;" width="231" x="1742.5" y="622.5"/><ellipse cx="1803.25" cy="638.5" fill="#ADD1B2" rx="11" ry="11" style="stroke:#A80036;stroke-width:1.0;"/><path d="M1805.25,635 Q1805.4531,634.5 1805.6875,634.25 Q1805.9219,634 1806.1875,634 Q1806.6563,634 1806.9531,634.2813 Q1807.25,634.5625 1807.25,635.2188 L1807.25,636.7813 Q1807.25,637.4375 1806.9688,637.7188 Q1806.6875,638 1806.25,638 Q1805.8594,638 1805.6094,637.8281 Q1805.3594,637.6563 1805.25,637.2031 Q1805.2031,636.8906 1805.0313,636.7188 Q1804.7188,636.3906 1804.1563,636.2031 Q1803.5938,636 1803.0313,636 Q1802.3281,636 1801.7344,636.2813 Q1801.1563,636.5625 1800.7031,637.1875 Q1800.25,637.8125 1800.25,638.6719 L1800.25,639.5938 Q1800.25,640.625 1801.0938,641.3125 Q1801.9375,642 1803.4375,642 Q1804.3281,642 1804.9531,641.7969 Q1805.3125,641.6875 1805.7188,641.3281 Q1805.9844,641.125 1806.125,641.0625 Q1806.2656,641 1806.4375,641 Q1806.7656,641 1807,641.2656 Q1807.25,641.5156 1807.25,641.875 Q1807.25,642.2188 1806.9063,642.625 Q1806.4063,643.2188 1805.6094,643.5469 Q1804.5625,644 1803.2813,644 Q1801.7813,644 1800.5781,643.4063 Q1799.6094,642.9375 1798.9219,641.9219 Q1798.25,640.9063 1798.25,639.7031 L1798.25,638.6094 Q1798.25,637.3594 1798.8438,636.2656 Q1799.4531,635.1719 1800.5,634.5938 Q1801.5625,634 1802.75,634 Q1803.4688,634 1804.0938,634.25 Q1804.7188,634.5 1805.25,635 Z " fill="#000000"/><text fill="#000000" font-family="sans-serif" font-size="12" lengthAdjust="spacing" textLength="101" x="1823.75" y="643.4102">FeedbackDuracao</text><line style="stroke:#A80036;stroke-width:1.5;" x1="1743.5" x2="1972.5" y1="654.5" y2="654.5"/><line style="stroke:#A80036;stroke-width:1.5;" x1="1743.5" x2="1972.5" y1="662.5" y2="662.5"/><text fill="#000000" font-family="sans-serif" font-size="11" lengthAdjust="spacing" textLength="219" x="1748.5" y="677.9189">+createFeedbackDuracao(feedbackDuracao)</text><text fill="#000000" font-family="sans-serif" font-size="11" lengthAdjust="spacing" textLength="135" x="1748.5" y="691.7549">-validate(feedbackDuracao)</text><!--MD5=[740c267b66d8281ffd76fc66b1493114]
class FormularioNome--><rect codeLine="65" fill="#FEFECE" filter="url(#f12qhkwd3at0li)" height="75.6719" id="FormularioNome" style="stroke:#A80036;stroke-width:1.5;" width="209" x="5327.5" y="622.5"/><ellipse cx="5380.75" cy="638.5" fill="#ADD1B2" rx="11" ry="11" style="stroke:#A80036;stroke-width:1.0;"/><path d="M5382.75,635 Q5382.9531,634.5 5383.1875,634.25 Q5383.4219,634 5383.6875,634 Q5384.1563,634 5384.4531,634.2813 Q5384.75,634.5625 5384.75,635.2188 L5384.75,636.7813 Q5384.75,637.4375 5384.4688,637.7188 Q5384.1875,638 5383.75,638 Q5383.3594,638 5383.1094,637.8281 Q5382.8594,637.6563 5382.75,637.2031 Q5382.7031,636.8906 5382.5313,636.7188 Q5382.2188,636.3906 5381.6563,636.2031 Q5381.0938,636 5380.5313,636 Q5379.8281,636 5379.2344,636.2813 Q5378.6563,636.5625 5378.2031,637.1875 Q5377.75,637.8125 5377.75,638.6719 L5377.75,639.5938 Q5377.75,640.625 5378.5938,641.3125 Q5379.4375,642 5380.9375,642 Q5381.8281,642 5382.4531,641.7969 Q5382.8125,641.6875 5383.2188,641.3281 Q5383.4844,641.125 5383.625,641.0625 Q5383.7656,641 5383.9375,641 Q5384.2656,641 5384.5,641.2656 Q5384.75,641.5156 5384.75,641.875 Q5384.75,642.2188 5384.4063,642.625 Q5383.9063,643.2188 5383.1094,643.5469 Q5382.0625,644 5380.7813,644 Q5379.2813,644 5378.0781,643.4063 Q5377.1094,642.9375 5376.4219,641.9219 Q5375.75,640.9063 5375.75,639.7031 L5375.75,638.6094 Q5375.75,637.3594 5376.3438,636.2656 Q5376.9531,635.1719 5378,634.5938 Q5379.0625,634 5380.25,634 Q5380.9688,634 5381.5938,634.25 Q5382.2188,634.5 5382.75,635 Z " fill="#000000"/><text fill="#000000" font-family="sans-serif" font-size="12" lengthAdjust="spacing" textLength="94" x="5401.25" y="643.4102">FormularioNome</text><line style="stroke:#A80036;stroke-width:1.5;" x1="5328.5" x2="5535.5" y1="654.5" y2="654.5"/><line style="stroke:#A80036;stroke-width:1.5;" x1="5328.5" x2="5535.5" y1="662.5" y2="662.5"/><text fill="#000000" font-family="sans-serif" font-size="11" lengthAdjust="spacing" textLength="197" x="5333.5" y="677.9189">+createFormularioNome(formularioNome)</text><text fill="#000000" font-family="sans-serif" font-size="11" lengthAdjust="spacing" textLength="124" x="5333.5" y="691.7549">-validate(formularioNome)</text><!--MD5=[9c68e34566f4c517995fe3210910c420]
class FormularioTipo--><rect codeLine="70" fill="#FEFECE" filter="url(#f12qhkwd3at0li)" height="75.6719" id="FormularioTipo" style="stroke:#A80036;stroke-width:1.5;" width="195" x="5097.5" y="622.5"/><ellipse cx="5148.75" cy="638.5" fill="#ADD1B2" rx="11" ry="11" style="stroke:#A80036;stroke-width:1.0;"/><path d="M5150.75,635 Q5150.9531,634.5 5151.1875,634.25 Q5151.4219,634 5151.6875,634 Q5152.1563,634 5152.4531,634.2813 Q5152.75,634.5625 5152.75,635.2188 L5152.75,636.7813 Q5152.75,637.4375 5152.4688,637.7188 Q5152.1875,638 5151.75,638 Q5151.3594,638 5151.1094,637.8281 Q5150.8594,637.6563 5150.75,637.2031 Q5150.7031,636.8906 5150.5313,636.7188 Q5150.2188,636.3906 5149.6563,636.2031 Q5149.0938,636 5148.5313,636 Q5147.8281,636 5147.2344,636.2813 Q5146.6563,636.5625 5146.2031,637.1875 Q5145.75,637.8125 5145.75,638.6719 L5145.75,639.5938 Q5145.75,640.625 5146.5938,641.3125 Q5147.4375,642 5148.9375,642 Q5149.8281,642 5150.4531,641.7969 Q5150.8125,641.6875 5151.2188,641.3281 Q5151.4844,641.125 5151.625,641.0625 Q5151.7656,641 5151.9375,641 Q5152.2656,641 5152.5,641.2656 Q5152.75,641.5156 5152.75,641.875 Q5152.75,642.2188 5152.4063,642.625 Q5151.9063,643.2188 5151.1094,643.5469 Q5150.0625,644 5148.7813,644 Q5147.2813,644 5146.0781,643.4063 Q5145.1094,642.9375 5144.4219,641.9219 Q5143.75,640.9063 5143.75,639.7031 L5143.75,638.6094 Q5143.75,637.3594 5144.3438,636.2656 Q5144.9531,635.1719 5146,634.5938 Q5147.0625,634 5148.25,634 Q5148.9688,634 5149.5938,634.25 Q5150.2188,634.5 5150.75,635 Z " fill="#000000"/><text fill="#000000" font-family="sans-serif" font-size="12" lengthAdjust="spacing" textLength="84" x="5169.25" y="643.4102">FormularioTipo</text><line style="stroke:#A80036;stroke-width:1.5;" x1="5098.5" x2="5291.5" y1="654.5" y2="654.5"/><line style="stroke:#A80036;stroke-width:1.5;" x1="5098.5" x2="5291.5" y1="662.5" y2="662.5"/><text fill="#000000" font-family="sans-serif" font-size="11" lengthAdjust="spacing" textLength="183" x="5103.5" y="677.9189">+createFormularioTipo(formularioTipo)</text><text fill="#000000" font-family="sans-serif" font-size="11" lengthAdjust="spacing" textLength="117" x="5103.5" y="691.7549">-validate(formularioTipo)</text><!--MD5=[4446d135b4314676cf71f870ba88da23]
class AtributoNome--><rect codeLine="75" fill="#FEFECE" filter="url(#f12qhkwd3at0li)" height="75.6719" id="AtributoNome" style="stroke:#A80036;stroke-width:1.5;" width="185" x="4877.5" y="622.5"/><ellipse cx="4928.25" cy="638.5" fill="#ADD1B2" rx="11" ry="11" style="stroke:#A80036;stroke-width:1.0;"/><path d="M4930.25,635 Q4930.4531,634.5 4930.6875,634.25 Q4930.9219,634 4931.1875,634 Q4931.6563,634 4931.9531,634.2813 Q4932.25,634.5625 4932.25,635.2188 L4932.25,636.7813 Q4932.25,637.4375 4931.9688,637.7188 Q4931.6875,638 4931.25,638 Q4930.8594,638 4930.6094,637.8281 Q4930.3594,637.6563 4930.25,637.2031 Q4930.2031,636.8906 4930.0313,636.7188 Q4929.7188,636.3906 4929.1563,636.2031 Q4928.5938,636 4928.0313,636 Q4927.3281,636 4926.7344,636.2813 Q4926.1563,636.5625 4925.7031,637.1875 Q4925.25,637.8125 4925.25,638.6719 L4925.25,639.5938 Q4925.25,640.625 4926.0938,641.3125 Q4926.9375,642 4928.4375,642 Q4929.3281,642 4929.9531,641.7969 Q4930.3125,641.6875 4930.7188,641.3281 Q4930.9844,641.125 4931.125,641.0625 Q4931.2656,641 4931.4375,641 Q4931.7656,641 4932,641.2656 Q4932.25,641.5156 4932.25,641.875 Q4932.25,642.2188 4931.9063,642.625 Q4931.4063,643.2188 4930.6094,643.5469 Q4929.5625,644 4928.2813,644 Q4926.7813,644 4925.5781,643.4063 Q4924.6094,642.9375 4923.9219,641.9219 Q4923.25,640.9063 4923.25,639.7031 L4923.25,638.6094 Q4923.25,637.3594 4923.8438,636.2656 Q4924.4531,635.1719 4925.5,634.5938 Q4926.5625,634 4927.75,634 Q4928.4688,634 4929.0938,634.25 Q4929.7188,634.5 4930.25,635 Z " fill="#000000"/><text fill="#000000" font-family="sans-serif" font-size="12" lengthAdjust="spacing" textLength="75" x="4948.75" y="643.4102">AtributoNome</text><line style="stroke:#A80036;stroke-width:1.5;" x1="4878.5" x2="5061.5" y1="654.5" y2="654.5"/><line style="stroke:#A80036;stroke-width:1.5;" x1="4878.5" x2="5061.5" y1="662.5" y2="662.5"/><text fill="#000000" font-family="sans-serif" font-size="11" lengthAdjust="spacing" textLength="173" x="4883.5" y="677.9189">+createAtributoNome(atributoNome)</text><text fill="#000000" font-family="sans-serif" font-size="11" lengthAdjust="spacing" textLength="112" x="4883.5" y="691.7549">-validate(atributoNome)</text><!--MD5=[97054b9bf914d0f518ad5b882bfb0ab6]
class AtributoLabel--><rect codeLine="80" fill="#FEFECE" filter="url(#f12qhkwd3at0li)" height="75.6719" id="AtributoLabel" style="stroke:#A80036;stroke-width:1.5;" width="183" x="4659.5" y="622.5"/><ellipse cx="4710.75" cy="638.5" fill="#ADD1B2" rx="11" ry="11" style="stroke:#A80036;stroke-width:1.0;"/><path d="M4712.75,635 Q4712.9531,634.5 4713.1875,634.25 Q4713.4219,634 4713.6875,634 Q4714.1563,634 4714.4531,634.2813 Q4714.75,634.5625 4714.75,635.2188 L4714.75,636.7813 Q4714.75,637.4375 4714.4688,637.7188 Q4714.1875,638 4713.75,638 Q4713.3594,638 4713.1094,637.8281 Q4712.8594,637.6563 4712.75,637.2031 Q4712.7031,636.8906 4712.5313,636.7188 Q4712.2188,636.3906 4711.6563,636.2031 Q4711.0938,636 4710.5313,636 Q4709.8281,636 4709.2344,636.2813 Q4708.6563,636.5625 4708.2031,637.1875 Q4707.75,637.8125 4707.75,638.6719 L4707.75,639.5938 Q4707.75,640.625 4708.5938,641.3125 Q4709.4375,642 4710.9375,642 Q4711.8281,642 4712.4531,641.7969 Q4712.8125,641.6875 4713.2188,641.3281 Q4713.4844,641.125 4713.625,641.0625 Q4713.7656,641 4713.9375,641 Q4714.2656,641 4714.5,641.2656 Q4714.75,641.5156 4714.75,641.875 Q4714.75,642.2188 4714.4063,642.625 Q4713.9063,643.2188 4713.1094,643.5469 Q4712.0625,644 4710.7813,644 Q4709.2813,644 4708.0781,643.4063 Q4707.1094,642.9375 4706.4219,641.9219 Q4705.75,640.9063 4705.75,639.7031 L4705.75,638.6094 Q4705.75,637.3594 4706.3438,636.2656 Q4706.9531,635.1719 4708,634.5938 Q4709.0625,634 4710.25,634 Q4710.9688,634 4711.5938,634.25 Q4712.2188,634.5 4712.75,635 Z " fill="#000000"/><text fill="#000000" font-family="sans-serif" font-size="12" lengthAdjust="spacing" textLength="72" x="4731.25" y="643.4102">AtributoLabel</text><line style="stroke:#A80036;stroke-width:1.5;" x1="4660.5" x2="4841.5" y1="654.5" y2="654.5"/><line style="stroke:#A80036;stroke-width:1.5;" x1="4660.5" x2="4841.5" y1="662.5" y2="662.5"/><text fill="#000000" font-family="sans-serif" font-size="11" lengthAdjust="spacing" textLength="171" x="4665.5" y="677.9189">+createAtributoLabel(atributoLabel)</text><text fill="#000000" font-family="sans-serif" font-size="11" lengthAdjust="spacing" textLength="111" x="4665.5" y="691.7549">-validate(atributoLabel)</text><!--MD5=[6b07de3e032ad42d11e5aa45f207e934]
class AtributoDescricao--><rect codeLine="85" fill="#FEFECE" filter="url(#f12qhkwd3at0li)" height="75.6719" id="AtributoDescricao" style="stroke:#A80036;stroke-width:1.5;" width="229" x="4395.5" y="622.5"/><ellipse cx="4457.25" cy="638.5" fill="#ADD1B2" rx="11" ry="11" style="stroke:#A80036;stroke-width:1.0;"/><path d="M4459.25,635 Q4459.4531,634.5 4459.6875,634.25 Q4459.9219,634 4460.1875,634 Q4460.6563,634 4460.9531,634.2813 Q4461.25,634.5625 4461.25,635.2188 L4461.25,636.7813 Q4461.25,637.4375 4460.9688,637.7188 Q4460.6875,638 4460.25,638 Q4459.8594,638 4459.6094,637.8281 Q4459.3594,637.6563 4459.25,637.2031 Q4459.2031,636.8906 4459.0313,636.7188 Q4458.7188,636.3906 4458.1563,636.2031 Q4457.5938,636 4457.0313,636 Q4456.3281,636 4455.7344,636.2813 Q4455.1563,636.5625 4454.7031,637.1875 Q4454.25,637.8125 4454.25,638.6719 L4454.25,639.5938 Q4454.25,640.625 4455.0938,641.3125 Q4455.9375,642 4457.4375,642 Q4458.3281,642 4458.9531,641.7969 Q4459.3125,641.6875 4459.7188,641.3281 Q4459.9844,641.125 4460.125,641.0625 Q4460.2656,641 4460.4375,641 Q4460.7656,641 4461,641.2656 Q4461.25,641.5156 4461.25,641.875 Q4461.25,642.2188 4460.9063,642.625 Q4460.4063,643.2188 4459.6094,643.5469 Q4458.5625,644 4457.2813,644 Q4455.7813,644 4454.5781,643.4063 Q4453.6094,642.9375 4452.9219,641.9219 Q4452.25,640.9063 4452.25,639.7031 L4452.25,638.6094 Q4452.25,637.3594 4452.8438,636.2656 Q4453.4531,635.1719 4454.5,634.5938 Q4455.5625,634 4456.75,634 Q4457.4688,634 4458.0938,634.25 Q4458.7188,634.5 4459.25,635 Z " fill="#000000"/><text fill="#000000" font-family="sans-serif" font-size="12" lengthAdjust="spacing" textLength="97" x="4477.75" y="643.4102">AtributoDescricao</text><line style="stroke:#A80036;stroke-width:1.5;" x1="4396.5" x2="4623.5" y1="654.5" y2="654.5"/><line style="stroke:#A80036;stroke-width:1.5;" x1="4396.5" x2="4623.5" y1="662.5" y2="662.5"/><text fill="#000000" font-family="sans-serif" font-size="11" lengthAdjust="spacing" textLength="217" x="4401.5" y="677.9189">+createAtributoDescricao(atributoDescricao)</text><text fill="#000000" font-family="sans-serif" font-size="11" lengthAdjust="spacing" textLength="134" x="4401.5" y="691.7549">-validate(atributoDescricao)</text><!--MD5=[bbebeda304afd06dc4ae5fd529f35eec]
class AtributoRegex--><rect codeLine="90" fill="#FEFECE" filter="url(#f12qhkwd3at0li)" height="75.6719" id="AtributoRegex" style="stroke:#A80036;stroke-width:1.5;" width="193" x="4167.5" y="622.5"/><ellipse cx="4221.75" cy="638.5" fill="#ADD1B2" rx="11" ry="11" style="stroke:#A80036;stroke-width:1.0;"/><path d="M4223.75,635 Q4223.9531,634.5 4224.1875,634.25 Q4224.4219,634 4224.6875,634 Q4225.1563,634 4225.4531,634.2813 Q4225.75,634.5625 4225.75,635.2188 L4225.75,636.7813 Q4225.75,637.4375 4225.4688,637.7188 Q4225.1875,638 4224.75,638 Q4224.3594,638 4224.1094,637.8281 Q4223.8594,637.6563 4223.75,637.2031 Q4223.7031,636.8906 4223.5313,636.7188 Q4223.2188,636.3906 4222.6563,636.2031 Q4222.0938,636 4221.5313,636 Q4220.8281,636 4220.2344,636.2813 Q4219.6563,636.5625 4219.2031,637.1875 Q4218.75,637.8125 4218.75,638.6719 L4218.75,639.5938 Q4218.75,640.625 4219.5938,641.3125 Q4220.4375,642 4221.9375,642 Q4222.8281,642 4223.4531,641.7969 Q4223.8125,641.6875 4224.2188,641.3281 Q4224.4844,641.125 4224.625,641.0625 Q4224.7656,641 4224.9375,641 Q4225.2656,641 4225.5,641.2656 Q4225.75,641.5156 4225.75,641.875 Q4225.75,642.2188 4225.4063,642.625 Q4224.9063,643.2188 4224.1094,643.5469 Q4223.0625,644 4221.7813,644 Q4220.2813,644 4219.0781,643.4063 Q4218.1094,642.9375 4217.4219,641.9219 Q4216.75,640.9063 4216.75,639.7031 L4216.75,638.6094 Q4216.75,637.3594 4217.3438,636.2656 Q4217.9531,635.1719 4219,634.5938 Q4220.0625,634 4221.25,634 Q4221.9688,634 4222.5938,634.25 Q4223.2188,634.5 4223.75,635 Z " fill="#000000"/><text fill="#000000" font-family="sans-serif" font-size="12" lengthAdjust="spacing" textLength="76" x="4242.25" y="643.4102">AtributoRegex</text><line style="stroke:#A80036;stroke-width:1.5;" x1="4168.5" x2="4359.5" y1="654.5" y2="654.5"/><line style="stroke:#A80036;stroke-width:1.5;" x1="4168.5" x2="4359.5" y1="662.5" y2="662.5"/><text fill="#000000" font-family="sans-serif" font-size="11" lengthAdjust="spacing" textLength="181" x="4173.5" y="677.9189">+createAtributoRegex(atributoRegex)</text><text fill="#000000" font-family="sans-serif" font-size="11" lengthAdjust="spacing" textLength="116" x="4173.5" y="691.7549">-validate(atributoRegex)</text><!--MD5=[e6c87a68624cef29bf1954d5c4cae92e]
class AtributoScript--><rect codeLine="95" fill="#FEFECE" filter="url(#f12qhkwd3at0li)" height="75.6719" id="AtributoScript" style="stroke:#A80036;stroke-width:1.5;" width="187" x="3945.5" y="622.5"/><ellipse cx="3998.75" cy="638.5" fill="#ADD1B2" rx="11" ry="11" style="stroke:#A80036;stroke-width:1.0;"/><path d="M4000.75,635 Q4000.9531,634.5 4001.1875,634.25 Q4001.4219,634 4001.6875,634 Q4002.1563,634 4002.4531,634.2813 Q4002.75,634.5625 4002.75,635.2188 L4002.75,636.7813 Q4002.75,637.4375 4002.4688,637.7188 Q4002.1875,638 4001.75,638 Q4001.3594,638 4001.1094,637.8281 Q4000.8594,637.6563 4000.75,637.2031 Q4000.7031,636.8906 4000.5313,636.7188 Q4000.2188,636.3906 3999.6563,636.2031 Q3999.0938,636 3998.5313,636 Q3997.8281,636 3997.2344,636.2813 Q3996.6563,636.5625 3996.2031,637.1875 Q3995.75,637.8125 3995.75,638.6719 L3995.75,639.5938 Q3995.75,640.625 3996.5938,641.3125 Q3997.4375,642 3998.9375,642 Q3999.8281,642 4000.4531,641.7969 Q4000.8125,641.6875 4001.2188,641.3281 Q4001.4844,641.125 4001.625,641.0625 Q4001.7656,641 4001.9375,641 Q4002.2656,641 4002.5,641.2656 Q4002.75,641.5156 4002.75,641.875 Q4002.75,642.2188 4002.4063,642.625 Q4001.9063,643.2188 4001.1094,643.5469 Q4000.0625,644 3998.7813,644 Q3997.2813,644 3996.0781,643.4063 Q3995.1094,642.9375 3994.4219,641.9219 Q3993.75,640.9063 3993.75,639.7031 L3993.75,638.6094 Q3993.75,637.3594 3994.3438,636.2656 Q3994.9531,635.1719 3996,634.5938 Q3997.0625,634 3998.25,634 Q3998.9688,634 3999.5938,634.25 Q4000.2188,634.5 4000.75,635 Z " fill="#000000"/><text fill="#000000" font-family="sans-serif" font-size="12" lengthAdjust="spacing" textLength="72" x="4019.25" y="643.4102">AtributoScript</text><line style="stroke:#A80036;stroke-width:1.5;" x1="3946.5" x2="4131.5" y1="654.5" y2="654.5"/><line style="stroke:#A80036;stroke-width:1.5;" x1="3946.5" x2="4131.5" y1="662.5" y2="662.5"/><text fill="#000000" font-family="sans-serif" font-size="11" lengthAdjust="spacing" textLength="175" x="3951.5" y="677.9189">+createAtributoScript(atributoScript)</text><text fill="#000000" font-family="sans-serif" font-size="11" lengthAdjust="spacing" textLength="113" x="3951.5" y="691.7549">-validate(atributoScript)</text><!--MD5=[1e8824bf6f99fb962f73e2f5efd5833b]
class AtributoTipoDados--><rect codeLine="100" fill="#FEFECE" filter="url(#f12qhkwd3at0li)" height="75.6719" id="AtributoTipoDados" style="stroke:#A80036;stroke-width:1.5;" width="233" x="3677.5" y="622.5"/><ellipse cx="3738.75" cy="638.5" fill="#ADD1B2" rx="11" ry="11" style="stroke:#A80036;stroke-width:1.0;"/><path d="M3740.75,635 Q3740.9531,634.5 3741.1875,634.25 Q3741.4219,634 3741.6875,634 Q3742.1563,634 3742.4531,634.2813 Q3742.75,634.5625 3742.75,635.2188 L3742.75,636.7813 Q3742.75,637.4375 3742.4688,637.7188 Q3742.1875,638 3741.75,638 Q3741.3594,638 3741.1094,637.8281 Q3740.8594,637.6563 3740.75,637.2031 Q3740.7031,636.8906 3740.5313,636.7188 Q3740.2188,636.3906 3739.6563,636.2031 Q3739.0938,636 3738.5313,636 Q3737.8281,636 3737.2344,636.2813 Q3736.6563,636.5625 3736.2031,637.1875 Q3735.75,637.8125 3735.75,638.6719 L3735.75,639.5938 Q3735.75,640.625 3736.5938,641.3125 Q3737.4375,642 3738.9375,642 Q3739.8281,642 3740.4531,641.7969 Q3740.8125,641.6875 3741.2188,641.3281 Q3741.4844,641.125 3741.625,641.0625 Q3741.7656,641 3741.9375,641 Q3742.2656,641 3742.5,641.2656 Q3742.75,641.5156 3742.75,641.875 Q3742.75,642.2188 3742.4063,642.625 Q3741.9063,643.2188 3741.1094,643.5469 Q3740.0625,644 3738.7813,644 Q3737.2813,644 3736.0781,643.4063 Q3735.1094,642.9375 3734.4219,641.9219 Q3733.75,640.9063 3733.75,639.7031 L3733.75,638.6094 Q3733.75,637.3594 3734.3438,636.2656 Q3734.9531,635.1719 3736,634.5938 Q3737.0625,634 3738.25,634 Q3738.9688,634 3739.5938,634.25 Q3740.2188,634.5 3740.75,635 Z " fill="#000000"/><text fill="#000000" font-family="sans-serif" font-size="12" lengthAdjust="spacing" textLength="102" x="3759.25" y="643.4102">AtributoTipoDados</text><line style="stroke:#A80036;stroke-width:1.5;" x1="3678.5" x2="3909.5" y1="654.5" y2="654.5"/><line style="stroke:#A80036;stroke-width:1.5;" x1="3678.5" x2="3909.5" y1="662.5" y2="662.5"/><text fill="#000000" font-family="sans-serif" font-size="11" lengthAdjust="spacing" textLength="221" x="3683.5" y="677.9189">+createAtributoTipoDados(atributoTipoDados)</text><text fill="#000000" font-family="sans-serif" font-size="11" lengthAdjust="spacing" textLength="136" x="3683.5" y="691.7549">-validate(atributoTipoDados)</text><!--MD5=[27fbecddafeed049b4f631f921ad8164]
class ServicoBuilder--><rect codeLine="106" fill="#FEFECE" filter="url(#f12qhkwd3at0li)" height="158.6875" id="ServicoBuilder" style="stroke:#A80036;stroke-width:1.5;" width="226" x="5572" y="581"/><ellipse cx="5641.25" cy="597" fill="#ADD1B2" rx="11" ry="11" style="stroke:#A80036;stroke-width:1.0;"/><path d="M5643.25,593.5 Q5643.4531,593 5643.6875,592.75 Q5643.9219,592.5 5644.1875,592.5 Q5644.6563,592.5 5644.9531,592.7813 Q5645.25,593.0625 5645.25,593.7188 L5645.25,595.2813 Q5645.25,595.9375 5644.9688,596.2188 Q5644.6875,596.5 5644.25,596.5 Q5643.8594,596.5 5643.6094,596.3281 Q5643.3594,596.1563 5643.25,595.7031 Q5643.2031,595.3906 5643.0313,595.2188 Q5642.7188,594.8906 5642.1563,594.7031 Q5641.5938,594.5 5641.0313,594.5 Q5640.3281,594.5 5639.7344,594.7813 Q5639.1563,595.0625 5638.7031,595.6875 Q5638.25,596.3125 5638.25,597.1719 L5638.25,598.0938 Q5638.25,599.125 5639.0938,599.8125 Q5639.9375,600.5 5641.4375,600.5 Q5642.3281,600.5 5642.9531,600.2969 Q5643.3125,600.1875 5643.7188,599.8281 Q5643.9844,599.625 5644.125,599.5625 Q5644.2656,599.5 5644.4375,599.5 Q5644.7656,599.5 5645,599.7656 Q5645.25,600.0156 5645.25,600.375 Q5645.25,600.7188 5644.9063,601.125 Q5644.4063,601.7188 5643.6094,602.0469 Q5642.5625,602.5 5641.2813,602.5 Q5639.7813,602.5 5638.5781,601.9063 Q5637.6094,601.4375 5636.9219,600.4219 Q5636.25,599.4063 5636.25,598.2031 L5636.25,597.1094 Q5636.25,595.8594 5636.8438,594.7656 Q5637.4531,593.6719 5638.5,593.0938 Q5639.5625,592.5 5640.75,592.5 Q5641.4688,592.5 5642.0938,592.75 Q5642.7188,593 5643.25,593.5 Z " fill="#000000"/><text fill="#000000" font-family="sans-serif" font-size="12" lengthAdjust="spacing" textLength="79" x="5661.75" y="601.9102">ServicoBuilder</text><line style="stroke:#A80036;stroke-width:1.5;" x1="5573" x2="5797" y1="613" y2="613"/><line style="stroke:#A80036;stroke-width:1.5;" x1="5573" x2="5797" y1="621" y2="621"/><text fill="#000000" font-family="sans-serif" font-size="11" lengthAdjust="spacing" textLength="45" x="5578" y="636.4189">+create()</text><text fill="#000000" font-family="sans-serif" font-size="11" lengthAdjust="spacing" textLength="184" x="5578" y="650.2549">+setDescricaoBreve(descricaoBreve)</text><text fill="#000000" font-family="sans-serif" font-size="11" lengthAdjust="spacing" textLength="214" x="5578" y="664.0908">+setDescricaoCompleta(descricaoCompleta)</text><text fill="#000000" font-family="sans-serif" font-size="11" lengthAdjust="spacing" textLength="151" x="5578" y="677.9268">+setKeywordList(keywordList)</text><text fill="#000000" font-family="sans-serif" font-size="11" lengthAdjust="spacing" textLength="121" x="5578" y="691.7627">+setFeedback(feedback)</text><text fill="#000000" font-family="sans-serif" font-size="11" lengthAdjust="spacing" textLength="157" x="5578" y="705.5986">+setFeedbackDuracao(duracao)</text><text fill="#000000" font-family="sans-serif" font-size="11" lengthAdjust="spacing" textLength="161" x="5578" y="719.4346">+setFormularioList(formularioList)</text><text fill="#000000" font-family="sans-serif" font-size="11" lengthAdjust="spacing" textLength="82" x="5578" y="733.2705">+createServico()</text><!--MD5=[c55a7d1204abc0e2e4d4f4e87fd7214f]
class FormularioBuilder--><rect codeLine="117" fill="#FEFECE" filter="url(#f12qhkwd3at0li)" height="158.6875" id="FormularioBuilder" style="stroke:#A80036;stroke-width:1.5;" width="140" x="5833" y="581"/><ellipse cx="5852.05" cy="597" fill="#ADD1B2" rx="11" ry="11" style="stroke:#A80036;stroke-width:1.0;"/><path d="M5854.05,593.5 Q5854.2531,593 5854.4875,592.75 Q5854.7219,592.5 5854.9875,592.5 Q5855.4563,592.5 5855.7531,592.7813 Q5856.05,593.0625 5856.05,593.7188 L5856.05,595.2813 Q5856.05,595.9375 5855.7688,596.2188 Q5855.4875,596.5 5855.05,596.5 Q5854.6594,596.5 5854.4094,596.3281 Q5854.1594,596.1563 5854.05,595.7031 Q5854.0031,595.3906 5853.8313,595.2188 Q5853.5188,594.8906 5852.9563,594.7031 Q5852.3938,594.5 5851.8313,594.5 Q5851.1281,594.5 5850.5344,594.7813 Q5849.9563,595.0625 5849.5031,595.6875 Q5849.05,596.3125 5849.05,597.1719 L5849.05,598.0938 Q5849.05,599.125 5849.8938,599.8125 Q5850.7375,600.5 5852.2375,600.5 Q5853.1281,600.5 5853.7531,600.2969 Q5854.1125,600.1875 5854.5188,599.8281 Q5854.7844,599.625 5854.925,599.5625 Q5855.0656,599.5 5855.2375,599.5 Q5855.5656,599.5 5855.8,599.7656 Q5856.05,600.0156 5856.05,600.375 Q5856.05,600.7188 5855.7063,601.125 Q5855.2063,601.7188 5854.4094,602.0469 Q5853.3625,602.5 5852.0813,602.5 Q5850.5813,602.5 5849.3781,601.9063 Q5848.4094,601.4375 5847.7219,600.4219 Q5847.05,599.4063 5847.05,598.2031 L5847.05,597.1094 Q5847.05,595.8594 5847.6438,594.7656 Q5848.2531,593.6719 5849.3,593.0938 Q5850.3625,592.5 5851.55,592.5 Q5852.2688,592.5 5852.8938,592.75 Q5853.5188,593 5854.05,593.5 Z " fill="#000000"/><text fill="#000000" font-family="sans-serif" font-size="12" lengthAdjust="spacing" textLength="99" x="5866.95" y="601.9102">FormularioBuilder</text><line style="stroke:#A80036;stroke-width:1.5;" x1="5834" x2="5972" y1="613" y2="613"/><line style="stroke:#A80036;stroke-width:1.5;" x1="5834" x2="5972" y1="621" y2="621"/><text fill="#000000" font-family="sans-serif" font-size="11" lengthAdjust="spacing" textLength="45" x="5839" y="636.4189">+create()</text><text fill="#000000" font-family="sans-serif" font-size="11" lengthAdjust="spacing" textLength="82" x="5839" y="650.2549">+setNome(nome)</text><text fill="#000000" font-family="sans-serif" font-size="11" lengthAdjust="spacing" textLength="77" x="5839" y="664.0908">+setLabel(label)</text><text fill="#000000" font-family="sans-serif" font-size="11" lengthAdjust="spacing" textLength="126" x="5839" y="677.9268">+setDescricao(descricao)</text><text fill="#000000" font-family="sans-serif" font-size="11" lengthAdjust="spacing" textLength="88" x="5839" y="691.7627">+setRegex(regex)</text><text fill="#000000" font-family="sans-serif" font-size="11" lengthAdjust="spacing" textLength="84" x="5839" y="705.5986">+setScript(script)</text><text fill="#000000" font-family="sans-serif" font-size="11" lengthAdjust="spacing" textLength="128" x="5839" y="719.4346">+setTipoDados(tipoDados)</text><text fill="#000000" font-family="sans-serif" font-size="11" lengthAdjust="spacing" textLength="83" x="5839" y="733.2705">+createAtributo()</text><!--MD5=[da44cd0a1365801c3a8d01aefaa577cf]
class AtributoBuilder--><rect codeLine="128" fill="#FEFECE" filter="url(#f12qhkwd3at0li)" height="89.5078" id="AtributoBuilder" style="stroke:#A80036;stroke-width:1.5;" width="182" x="6008" y="615.5"/><ellipse cx="6054.75" cy="631.5" fill="#ADD1B2" rx="11" ry="11" style="stroke:#A80036;stroke-width:1.0;"/><path d="M6056.75,628 Q6056.9531,627.5 6057.1875,627.25 Q6057.4219,627 6057.6875,627 Q6058.1563,627 6058.4531,627.2813 Q6058.75,627.5625 6058.75,628.2188 L6058.75,629.7813 Q6058.75,630.4375 6058.4688,630.7188 Q6058.1875,631 6057.75,631 Q6057.3594,631 6057.1094,630.8281 Q6056.8594,630.6563 6056.75,630.2031 Q6056.7031,629.8906 6056.5313,629.7188 Q6056.2188,629.3906 6055.6563,629.2031 Q6055.0938,629 6054.5313,629 Q6053.8281,629 6053.2344,629.2813 Q6052.6563,629.5625 6052.2031,630.1875 Q6051.75,630.8125 6051.75,631.6719 L6051.75,632.5938 Q6051.75,633.625 6052.5938,634.3125 Q6053.4375,635 6054.9375,635 Q6055.8281,635 6056.4531,634.7969 Q6056.8125,634.6875 6057.2188,634.3281 Q6057.4844,634.125 6057.625,634.0625 Q6057.7656,634 6057.9375,634 Q6058.2656,634 6058.5,634.2656 Q6058.75,634.5156 6058.75,634.875 Q6058.75,635.2188 6058.4063,635.625 Q6057.9063,636.2188 6057.1094,636.5469 Q6056.0625,637 6054.7813,637 Q6053.2813,637 6052.0781,636.4063 Q6051.1094,635.9375 6050.4219,634.9219 Q6049.75,633.9063 6049.75,632.7031 L6049.75,631.6094 Q6049.75,630.3594 6050.3438,629.2656 Q6050.9531,628.1719 6052,627.5938 Q6053.0625,627 6054.25,627 Q6054.9688,627 6055.5938,627.25 Q6056.2188,627.5 6056.75,628 Z " fill="#000000"/><text fill="#000000" font-family="sans-serif" font-size="12" lengthAdjust="spacing" textLength="80" x="6075.25" y="636.4102">AtributoBuilder</text><line style="stroke:#A80036;stroke-width:1.5;" x1="6009" x2="6189" y1="647.5" y2="647.5"/><line style="stroke:#A80036;stroke-width:1.5;" x1="6009" x2="6189" y1="655.5" y2="655.5"/><text fill="#000000" font-family="sans-serif" font-size="11" lengthAdjust="spacing" textLength="45" x="6014" y="670.9189">+create()</text><text fill="#000000" font-family="sans-serif" font-size="11" lengthAdjust="spacing" textLength="170" x="6014" y="684.7549">+setNomeCompleto(nomeCompleto)</text><text fill="#000000" font-family="sans-serif" font-size="11" lengthAdjust="spacing" textLength="72" x="6014" y="698.5908">+createColab()</text><!--MD5=[e8c189551b7885b999ad7cefb30fc2a3]
class PersistenceContext--><rect codeLine="139" fill="#FEFECE" filter="url(#f12qhkwd3at0li)" height="61.8359" id="PersistenceContext" style="stroke:#A80036;stroke-width:1.5;" width="139" x="32.5" y="629.5"/><ellipse cx="47.5" cy="645.5" fill="#ADD1B2" rx="11" ry="11" style="stroke:#A80036;stroke-width:1.0;"/><path d="M49.5,642 Q49.7031,641.5 49.9375,641.25 Q50.1719,641 50.4375,641 Q50.9063,641 51.2031,641.2813 Q51.5,641.5625 51.5,642.2188 L51.5,643.7813 Q51.5,644.4375 51.2188,644.7188 Q50.9375,645 50.5,645 Q50.1094,645 49.8594,644.8281 Q49.6094,644.6563 49.5,644.2031 Q49.4531,643.8906 49.2813,643.7188 Q48.9688,643.3906 48.4063,643.2031 Q47.8438,643 47.2813,643 Q46.5781,643 45.9844,643.2813 Q45.4063,643.5625 44.9531,644.1875 Q44.5,644.8125 44.5,645.6719 L44.5,646.5938 Q44.5,647.625 45.3438,648.3125 Q46.1875,649 47.6875,649 Q48.5781,649 49.2031,648.7969 Q49.5625,648.6875 49.9688,648.3281 Q50.2344,648.125 50.375,648.0625 Q50.5156,648 50.6875,648 Q51.0156,648 51.25,648.2656 Q51.5,648.5156 51.5,648.875 Q51.5,649.2188 51.1563,649.625 Q50.6563,650.2188 49.8594,650.5469 Q48.8125,651 47.5313,651 Q46.0313,651 44.8281,650.4063 Q43.8594,649.9375 43.1719,648.9219 Q42.5,647.9063 42.5,646.7031 L42.5,645.6094 Q42.5,644.3594 43.0938,643.2656 Q43.7031,642.1719 44.75,641.5938 Q45.8125,641 47,641 Q47.7188,641 48.3438,641.25 Q48.9688,641.5 49.5,642 Z " fill="#000000"/><text fill="#000000" font-family="sans-serif" font-size="12" lengthAdjust="spacing" textLength="107" x="61.5" y="650.4102">PersistenceContext</text><line style="stroke:#A80036;stroke-width:1.5;" x1="33.5" x2="170.5" y1="661.5" y2="661.5"/><line style="stroke:#A80036;stroke-width:1.5;" x1="33.5" x2="170.5" y1="669.5" y2="669.5"/><text fill="#000000" font-family="sans-serif" font-size="11" lengthAdjust="spacing" textLength="71" x="38.5" y="684.9189">+repositories()</text><!--MD5=[b8e4c95865208c934bfcfda4f90bf50c]
class AppSettings--><rect codeLine="143" fill="#FEFECE" filter="url(#f12qhkwd3at0li)" height="75.6719" id="AppSettings" style="stroke:#A80036;stroke-width:1.5;" width="130" x="275" y="622.5"/><ellipse cx="304.4" cy="638.5" fill="#ADD1B2" rx="11" ry="11" style="stroke:#A80036;stroke-width:1.0;"/><path d="M306.4,635 Q306.6031,634.5 306.8375,634.25 Q307.0719,634 307.3375,634 Q307.8063,634 308.1031,634.2813 Q308.4,634.5625 308.4,635.2188 L308.4,636.7813 Q308.4,637.4375 308.1188,637.7188 Q307.8375,638 307.4,638 Q307.0094,638 306.7594,637.8281 Q306.5094,637.6563 306.4,637.2031 Q306.3531,636.8906 306.1813,636.7188 Q305.8688,636.3906 305.3063,636.2031 Q304.7438,636 304.1813,636 Q303.4781,636 302.8844,636.2813 Q302.3063,636.5625 301.8531,637.1875 Q301.4,637.8125 301.4,638.6719 L301.4,639.5938 Q301.4,640.625 302.2438,641.3125 Q303.0875,642 304.5875,642 Q305.4781,642 306.1031,641.7969 Q306.4625,641.6875 306.8688,641.3281 Q307.1344,641.125 307.275,641.0625 Q307.4156,641 307.5875,641 Q307.9156,641 308.15,641.2656 Q308.4,641.5156 308.4,641.875 Q308.4,642.2188 308.0563,642.625 Q307.5563,643.2188 306.7594,643.5469 Q305.7125,644 304.4313,644 Q302.9313,644 301.7281,643.4063 Q300.7594,642.9375 300.0719,641.9219 Q299.4,640.9063 299.4,639.7031 L299.4,638.6094 Q299.4,637.3594 299.9938,636.2656 Q300.6031,635.1719 301.65,634.5938 Q302.7125,634 303.9,634 Q304.6188,634 305.2438,634.25 Q305.8688,634.5 306.4,635 Z " fill="#000000"/><text fill="#000000" font-family="sans-serif" font-size="12" lengthAdjust="spacing" textLength="66" x="321.6" y="643.4102">AppSettings</text><line style="stroke:#A80036;stroke-width:1.5;" x1="276" x2="404" y1="654.5" y2="654.5"/><line style="stroke:#A80036;stroke-width:1.5;" x1="276" x2="404" y1="662.5" y2="662.5"/><text fill="#000000" font-family="sans-serif" font-size="11" lengthAdjust="spacing" textLength="55" x="281" y="677.9189">+instance()</text><text fill="#000000" font-family="sans-serif" font-size="11" lengthAdjust="spacing" textLength="118" x="281" y="691.7549">+getRepositoryFactory()</text><!--MD5=[48590afff58a68e2fcba47824d6f8a11]
class RepositoryFactory--><rect codeLine="149" fill="#FEFECE" filter="url(#f12qhkwd3at0li)" height="103.3438" id="RepositoryFactory" style="stroke:#A80036;stroke-width:1.5;" width="130" x="1008" y="609"/><ellipse cx="1023" cy="625" fill="#ADD1B2" rx="11" ry="11" style="stroke:#A80036;stroke-width:1.0;"/><path d="M1025,621.5 Q1025.2031,621 1025.4375,620.75 Q1025.6719,620.5 1025.9375,620.5 Q1026.4063,620.5 1026.7031,620.7813 Q1027,621.0625 1027,621.7188 L1027,623.2813 Q1027,623.9375 1026.7188,624.2188 Q1026.4375,624.5 1026,624.5 Q1025.6094,624.5 1025.3594,624.3281 Q1025.1094,624.1563 1025,623.7031 Q1024.9531,623.3906 1024.7813,623.2188 Q1024.4688,622.8906 1023.9063,622.7031 Q1023.3438,622.5 1022.7813,622.5 Q1022.0781,622.5 1021.4844,622.7813 Q1020.9063,623.0625 1020.4531,623.6875 Q1020,624.3125 1020,625.1719 L1020,626.0938 Q1020,627.125 1020.8438,627.8125 Q1021.6875,628.5 1023.1875,628.5 Q1024.0781,628.5 1024.7031,628.2969 Q1025.0625,628.1875 1025.4688,627.8281 Q1025.7344,627.625 1025.875,627.5625 Q1026.0156,627.5 1026.1875,627.5 Q1026.5156,627.5 1026.75,627.7656 Q1027,628.0156 1027,628.375 Q1027,628.7188 1026.6563,629.125 Q1026.1563,629.7188 1025.3594,630.0469 Q1024.3125,630.5 1023.0313,630.5 Q1021.5313,630.5 1020.3281,629.9063 Q1019.3594,629.4375 1018.6719,628.4219 Q1018,627.4063 1018,626.2031 L1018,625.1094 Q1018,623.8594 1018.5938,622.7656 Q1019.2031,621.6719 1020.25,621.0938 Q1021.3125,620.5 1022.5,620.5 Q1023.2188,620.5 1023.8438,620.75 Q1024.4688,621 1025,621.5 Z " fill="#000000"/><text fill="#000000" font-family="sans-serif" font-size="12" lengthAdjust="spacing" textLength="98" x="1037" y="629.9102">RepositoryFactory</text><line style="stroke:#A80036;stroke-width:1.5;" x1="1009" x2="1137" y1="641" y2="641"/><line style="stroke:#A80036;stroke-width:1.5;" x1="1009" x2="1137" y1="649" y2="649"/><text fill="#000000" font-family="sans-serif" font-size="11" lengthAdjust="spacing" textLength="45" x="1014" y="664.4189">+create()</text><text fill="#000000" font-family="sans-serif" font-size="11" lengthAdjust="spacing" textLength="56" x="1014" y="678.2549">+servicos()</text><text fill="#000000" font-family="sans-serif" font-size="11" lengthAdjust="spacing" textLength="61" x="1014" y="692.0908">+catalogos()</text><text fill="#000000" font-family="sans-serif" font-size="11" lengthAdjust="spacing" textLength="68" x="1014" y="705.9268">+formularios()</text><!--MD5=[51865f8cbfe0824679c335d6e733f291]
class ServicoRepository--><rect codeLine="158" fill="#FEFECE" filter="url(#f12qhkwd3at0li)" height="75.6719" id="ServicoRepository" style="stroke:#A80036;stroke-width:1.5;" width="131" x="802.5" y="622.5"/><ellipse cx="817.5" cy="638.5" fill="#ADD1B2" rx="11" ry="11" style="stroke:#A80036;stroke-width:1.0;"/><path d="M819.5,635 Q819.7031,634.5 819.9375,634.25 Q820.1719,634 820.4375,634 Q820.9063,634 821.2031,634.2813 Q821.5,634.5625 821.5,635.2188 L821.5,636.7813 Q821.5,637.4375 821.2188,637.7188 Q820.9375,638 820.5,638 Q820.1094,638 819.8594,637.8281 Q819.6094,637.6563 819.5,637.2031 Q819.4531,636.8906 819.2813,636.7188 Q818.9688,636.3906 818.4063,636.2031 Q817.8438,636 817.2813,636 Q816.5781,636 815.9844,636.2813 Q815.4063,636.5625 814.9531,637.1875 Q814.5,637.8125 814.5,638.6719 L814.5,639.5938 Q814.5,640.625 815.3438,641.3125 Q816.1875,642 817.6875,642 Q818.5781,642 819.2031,641.7969 Q819.5625,641.6875 819.9688,641.3281 Q820.2344,641.125 820.375,641.0625 Q820.5156,641 820.6875,641 Q821.0156,641 821.25,641.2656 Q821.5,641.5156 821.5,641.875 Q821.5,642.2188 821.1563,642.625 Q820.6563,643.2188 819.8594,643.5469 Q818.8125,644 817.5313,644 Q816.0313,644 814.8281,643.4063 Q813.8594,642.9375 813.1719,641.9219 Q812.5,640.9063 812.5,639.7031 L812.5,638.6094 Q812.5,637.3594 813.0938,636.2656 Q813.7031,635.1719 814.75,634.5938 Q815.8125,634 817,634 Q817.7188,634 818.3438,634.25 Q818.9688,634.5 819.5,635 Z " fill="#000000"/><text fill="#000000" font-family="sans-serif" font-size="12" lengthAdjust="spacing" textLength="99" x="831.5" y="643.4102">ServicoRepository</text><line style="stroke:#A80036;stroke-width:1.5;" x1="803.5" x2="932.5" y1="654.5" y2="654.5"/><line style="stroke:#A80036;stroke-width:1.5;" x1="803.5" x2="932.5" y1="662.5" y2="662.5"/><text fill="#000000" font-family="sans-serif" font-size="11" lengthAdjust="spacing" textLength="45" x="808.5" y="677.9189">+create()</text><text fill="#000000" font-family="sans-serif" font-size="11" lengthAdjust="spacing" textLength="74" x="808.5" y="691.7549">+save(servico)</text><!--MD5=[37de35b2239f3e75f2a4e341603fb23d]
class CatalogoRepository--><rect codeLine="163" fill="#FEFECE" filter="url(#f12qhkwd3at0li)" height="75.6719" id="CatalogoRepository" style="stroke:#A80036;stroke-width:1.5;" width="141" x="626.5" y="622.5"/><ellipse cx="641.5" cy="638.5" fill="#ADD1B2" rx="11" ry="11" style="stroke:#A80036;stroke-width:1.0;"/><path d="M643.5,635 Q643.7031,634.5 643.9375,634.25 Q644.1719,634 644.4375,634 Q644.9063,634 645.2031,634.2813 Q645.5,634.5625 645.5,635.2188 L645.5,636.7813 Q645.5,637.4375 645.2188,637.7188 Q644.9375,638 644.5,638 Q644.1094,638 643.8594,637.8281 Q643.6094,637.6563 643.5,637.2031 Q643.4531,636.8906 643.2813,636.7188 Q642.9688,636.3906 642.4063,636.2031 Q641.8438,636 641.2813,636 Q640.5781,636 639.9844,636.2813 Q639.4063,636.5625 638.9531,637.1875 Q638.5,637.8125 638.5,638.6719 L638.5,639.5938 Q638.5,640.625 639.3438,641.3125 Q640.1875,642 641.6875,642 Q642.5781,642 643.2031,641.7969 Q643.5625,641.6875 643.9688,641.3281 Q644.2344,641.125 644.375,641.0625 Q644.5156,641 644.6875,641 Q645.0156,641 645.25,641.2656 Q645.5,641.5156 645.5,641.875 Q645.5,642.2188 645.1563,642.625 Q644.6563,643.2188 643.8594,643.5469 Q642.8125,644 641.5313,644 Q640.0313,644 638.8281,643.4063 Q637.8594,642.9375 637.1719,641.9219 Q636.5,640.9063 636.5,639.7031 L636.5,638.6094 Q636.5,637.3594 637.0938,636.2656 Q637.7031,635.1719 638.75,634.5938 Q639.8125,634 641,634 Q641.7188,634 642.3438,634.25 Q642.9688,634.5 643.5,635 Z " fill="#000000"/><text fill="#000000" font-family="sans-serif" font-size="12" lengthAdjust="spacing" textLength="109" x="655.5" y="643.4102">CatalogoRepository</text><line style="stroke:#A80036;stroke-width:1.5;" x1="627.5" x2="766.5" y1="654.5" y2="654.5"/><line style="stroke:#A80036;stroke-width:1.5;" x1="627.5" x2="766.5" y1="662.5" y2="662.5"/><text fill="#000000" font-family="sans-serif" font-size="11" lengthAdjust="spacing" textLength="45" x="632.5" y="677.9189">+create()</text><text fill="#000000" font-family="sans-serif" font-size="11" lengthAdjust="spacing" textLength="24" x="632.5" y="691.7549">+all()</text><!--MD5=[571dfd84f94b451ef35da58f48b34c72]
class FormularioRepository--><rect codeLine="168" fill="#FEFECE" filter="url(#f12qhkwd3at0li)" height="75.6719" id="FormularioRepository" style="stroke:#A80036;stroke-width:1.5;" width="151" x="440.5" y="622.5"/><ellipse cx="455.5" cy="638.5" fill="#ADD1B2" rx="11" ry="11" style="stroke:#A80036;stroke-width:1.0;"/><path d="M457.5,635 Q457.7031,634.5 457.9375,634.25 Q458.1719,634 458.4375,634 Q458.9063,634 459.2031,634.2813 Q459.5,634.5625 459.5,635.2188 L459.5,636.7813 Q459.5,637.4375 459.2188,637.7188 Q458.9375,638 458.5,638 Q458.1094,638 457.8594,637.8281 Q457.6094,637.6563 457.5,637.2031 Q457.4531,636.8906 457.2813,636.7188 Q456.9688,636.3906 456.4063,636.2031 Q455.8438,636 455.2813,636 Q454.5781,636 453.9844,636.2813 Q453.4063,636.5625 452.9531,637.1875 Q452.5,637.8125 452.5,638.6719 L452.5,639.5938 Q452.5,640.625 453.3438,641.3125 Q454.1875,642 455.6875,642 Q456.5781,642 457.2031,641.7969 Q457.5625,641.6875 457.9688,641.3281 Q458.2344,641.125 458.375,641.0625 Q458.5156,641 458.6875,641 Q459.0156,641 459.25,641.2656 Q459.5,641.5156 459.5,641.875 Q459.5,642.2188 459.1563,642.625 Q458.6563,643.2188 457.8594,643.5469 Q456.8125,644 455.5313,644 Q454.0313,644 452.8281,643.4063 Q451.8594,642.9375 451.1719,641.9219 Q450.5,640.9063 450.5,639.7031 L450.5,638.6094 Q450.5,637.3594 451.0938,636.2656 Q451.7031,635.1719 452.75,634.5938 Q453.8125,634 455,634 Q455.7188,634 456.3438,634.25 Q456.9688,634.5 457.5,635 Z " fill="#000000"/><text fill="#000000" font-family="sans-serif" font-size="12" lengthAdjust="spacing" textLength="119" x="469.5" y="643.4102">FormularioRepository</text><line style="stroke:#A80036;stroke-width:1.5;" x1="441.5" x2="590.5" y1="654.5" y2="654.5"/><line style="stroke:#A80036;stroke-width:1.5;" x1="441.5" x2="590.5" y1="662.5" y2="662.5"/><text fill="#000000" font-family="sans-serif" font-size="11" lengthAdjust="spacing" textLength="45" x="446.5" y="677.9189">+create()</text><text fill="#000000" font-family="sans-serif" font-size="11" lengthAdjust="spacing" textLength="86" x="446.5" y="691.7549">+save(formulario)</text><!--MD5=[efe504891857edf9ba4f5cd907237d6b]
link EspecificarServicoUI to EspecificarServicoController--><path codeLine="177" d="M2924,110.02 C2924,133.75 2924,172.46 2924,209.81 " fill="none" id="EspecificarServicoUI-to-EspecificarServicoController" style="stroke:#A80036;stroke-width:1.0;stroke-dasharray:7.0,7.0;"/><polygon fill="#A80036" points="2924,214.83,2928,205.83,2924,209.83,2920,205.83,2924,214.83" style="stroke:#A80036;stroke-width:1.0;"/><!--MD5=[5c07f8b2ac68e9f81a3704481c603bbb]
link EspecificarServicoController to ServicoBuilder--><path codeLine="178" d="M2795.4,316.07 C2335.42,317.41 806.09,331.86 939,465 C950.36,476.38 5553.94,465.21 5568,473 C5608,495.17 5636.16,537.35 5654.82,575.99 " fill="none" id="EspecificarServicoController-to-ServicoBuilder" style="stroke:#A80036;stroke-width:1.0;stroke-dasharray:7.0,7.0;"/><polygon fill="#A80036" points="5657.05,580.69,5656.8041,570.8442,5654.9059,576.1731,5649.577,574.2748,5657.05,580.69" style="stroke:#A80036;stroke-width:1.0;"/><!--MD5=[decee934849482644bb42d08d64d6b31]
link EspecificarServicoController to FormularioBuilder--><path codeLine="179" d="M3052.61,324.81 C3430.19,350.38 4568.44,425.29 5514,465 C5530.77,465.7 5801.96,463.8 5816,473 C5851.31,496.16 5872.56,537.68 5885.21,575.68 " fill="none" id="EspecificarServicoController-to-FormularioBuilder" style="stroke:#A80036;stroke-width:1.0;stroke-dasharray:7.0,7.0;"/><polygon fill="#A80036" points="5886.86,580.78,5887.8883,570.985,5885.3175,576.0239,5880.2786,573.453,5886.86,580.78" style="stroke:#A80036;stroke-width:1.0;"/><!--MD5=[466b31285b611fa9d3769e2afcfa6394]
link EspecificarServicoController to AtributoBuilder--><path codeLine="180" d="M3052.96,315.42 C3603.15,313.92 5737.65,318.19 5991,473 C6040.9,503.49 6070.13,566.28 6085.32,610.55 " fill="none" id="EspecificarServicoController-to-AtributoBuilder" style="stroke:#A80036;stroke-width:1.0;stroke-dasharray:7.0,7.0;"/><polygon fill="#A80036" points="6086.93,615.31,6087.8698,605.5061,6085.3446,610.568,6080.2826,608.0428,6086.93,615.31" style="stroke:#A80036;stroke-width:1.0;"/><!--MD5=[f445eaf63a95a027fd666edc240d9caa]
link EspecificarServicoController to PersistenceContext--><path codeLine="181" d="M2795.46,317.62 C2294.04,324.74 485.95,358.21 258,473 C192.21,506.13 143.62,580.76 119.36,624.91 " fill="none" id="EspecificarServicoController-to-PersistenceContext" style="stroke:#A80036;stroke-width:1.0;stroke-dasharray:7.0,7.0;"/><polygon fill="#A80036" points="116.95,629.35,124.7644,623.3554,119.3392,624.9578,117.7369,619.5326,116.95,629.35" style="stroke:#A80036;stroke-width:1.0;"/><!--MD5=[d66efb439816738ddd3e9d5fff4bf3a7]
link AppSettings to RepositoryFactory--><path codeLine="183" d="M346.84,622.3 C356.37,581.73 377.95,519.57 424,491 C523.32,429.37 845.87,437.9 950,491 C996.22,514.57 1029.13,564.53 1049.21,604.13 " fill="none" id="AppSettings-to-RepositoryFactory" style="stroke:#A80036;stroke-width:1.0;"/><polygon fill="#A80036" points="1051.59,608.91,1051.1428,599.0713,1049.3539,604.4379,1043.9874,602.649,1051.59,608.91" style="stroke:#A80036;stroke-width:1.0;"/><text fill="#000000" font-family="sans-serif" font-size="13" lengthAdjust="spacing" textLength="21" x="986.5" y="461.4951">cria</text><!--MD5=[27fe1c91fe18bafc5695938053528609]
link PersistenceContext to AppSettings--><path codeLine="184" d="M171.8,660.5 C202.53,660.5 238.57,660.5 269.39,660.5 " fill="none" id="PersistenceContext-to-AppSettings" style="stroke:#A80036;stroke-width:1.0;"/><polygon fill="#A80036" points="274.69,660.5,265.69,656.5,269.69,660.5,265.69,664.5,274.69,660.5" style="stroke:#A80036;stroke-width:1.0;"/><text fill="#000000" font-family="sans-serif" font-size="13" lengthAdjust="spacing" textLength="67" x="189.75" y="653.9951">implementa</text><!--MD5=[4c2782ef650e763910e10e8b58df1401]
link RepositoryFactory to ServicoRepository--><path codeLine="186" d="M1007.74,678.73 C1002.03,679.85 996.31,680.8 990.75,681.5 C973.11,683.72 968.39,683.7 950.75,681.5 C946.82,681.01 942.81,680.39 938.78,679.68 " fill="none" id="RepositoryFactory-to-ServicoRepository" style="stroke:#A80036;stroke-width:1.0;"/><polygon fill="#A80036" points="933.66,678.73,941.7765,684.3087,938.5757,679.6445,943.2398,676.4437,933.66,678.73" style="stroke:#A80036;stroke-width:1.0;"/><text fill="#000000" font-family="sans-serif" font-size="13" lengthAdjust="spacing" textLength="38" x="951.75" y="677.9951">possui</text><text fill="#000000" font-family="sans-serif" font-size="13" lengthAdjust="spacing" textLength="7" x="992.7896" y="677.4084">1</text><text fill="#000000" font-family="sans-serif" font-size="13" lengthAdjust="spacing" textLength="7" x="941.6566" y="677.4473">1</text><!--MD5=[4c2782ef650e763910e10e8b58df1401]
link RepositoryFactory to ServicoRepository--><path codeLine="188" d="M1007.66,660.5 C985.7,660.5 961.1,660.5 938.74,660.5 " fill="none" id="RepositoryFactory-to-ServicoRepository-1" style="stroke:#A80036;stroke-width:1.0;"/><polygon fill="#A80036" points="933.71,660.5,942.71,664.5,938.71,660.5,942.71,656.5,933.71,660.5" style="stroke:#A80036;stroke-width:1.0;"/><text fill="#000000" font-family="sans-serif" font-size="13" lengthAdjust="spacing" textLength="38" x="951.75" y="653.9951">possui</text><text fill="#000000" font-family="sans-serif" font-size="13" lengthAdjust="spacing" textLength="7" x="993.1306" y="657.1205">1</text><text fill="#000000" font-family="sans-serif" font-size="13" lengthAdjust="spacing" textLength="7" x="941.7124" y="657.1094">1</text><!--MD5=[1c7e7a1fe085f3cc90df717ea11f1cec]
link RepositoryFactory to CatalogoRepository--><path codeLine="187" d="M1051.59,608.91 C1031.79,568.63 998.1,515.53 950,491 C884.67,457.69 847.67,452.92 785,491 C740.07,518.3 717.04,576.8 706.02,617.38 " fill="none" id="RepositoryFactory-to-CatalogoRepository" style="stroke:#A80036;stroke-width:1.0;"/><polygon fill="#A80036" points="704.73,622.24,710.9111,614.5723,706.0165,617.4084,703.1804,612.5138,704.73,622.24" style="stroke:#A80036;stroke-width:1.0;"/><text fill="#000000" font-family="sans-serif" font-size="13" lengthAdjust="spacing" textLength="38" x="941" y="461.4951">possui</text><text fill="#000000" font-family="sans-serif" font-size="13" lengthAdjust="spacing" textLength="7" x="1041.087" y="598.0258">1</text><text fill="#000000" font-family="sans-serif" font-size="13" lengthAdjust="spacing" textLength="7" x="698.4835" y="611.5556">1</text><!--MD5=[dfb084a615439c9ae1d6a169a0559ddc]
link ServicoRepository to Servico--><path codeLine="190" d="M883.36,622.17 C902.13,581.15 938.19,518.31 992,491 C1056.21,458.42 1084.41,472.54 1154,491 C1252.71,517.19 1352.86,584.71 1407.95,626.2 " fill="none" id="ServicoRepository-to-Servico" style="stroke:#A80036;stroke-width:1.0;"/><polygon fill="#A80036" points="1412.17,629.39,1407.4045,620.7709,1408.182,626.374,1402.5789,627.1516,1412.17,629.39" style="stroke:#A80036;stroke-width:1.0;"/><text fill="#000000" font-family="sans-serif" font-size="13" lengthAdjust="spacing" textLength="39" x="1148.5" y="461.4951">guarda</text><text fill="#000000" font-family="sans-serif" font-size="13" lengthAdjust="spacing" textLength="7" x="878.3984" y="611.7606">1</text><text fill="#000000" font-family="sans-serif" font-size="13" lengthAdjust="spacing" textLength="5" x="1398.6457" y="618.8719">*</text><!--MD5=[4573656542172fcc5754215e0ff87282]
link ServicoBuilder to Servico--><path codeLine="191" d="M5651,580.72 C5631.96,546.57 5604.57,510.19 5568,491 C5473.48,441.39 1827.68,461.81 1725,491 C1632.63,517.26 1540.93,584.53 1490.54,625.99 " fill="none" id="ServicoBuilder-to-Servico" style="stroke:#A80036;stroke-width:1.0;"/><polygon fill="#A80036" points="1486.39,629.42,1495.8764,626.7728,1490.2451,626.236,1490.782,620.6046,1486.39,629.42" style="stroke:#A80036;stroke-width:1.0;"/><text fill="#000000" font-family="sans-serif" font-size="13" lengthAdjust="spacing" textLength="21" x="1730.5" y="461.4951">cria</text><text fill="#000000" font-family="sans-serif" font-size="13" lengthAdjust="spacing" textLength="7" x="5640.543" y="570.1535">1</text><text fill="#000000" font-family="sans-serif" font-size="13" lengthAdjust="spacing" textLength="5" x="1527.1218" y="618.3813">*</text><!--MD5=[2dc93be2505461576cdeaf949155c42a]
link FormularioRepository to Formulario--><path codeLine="192" d="M524.83,622.17 C536.48,581.47 561.34,519.21 609,491 C717.57,426.73 2762.11,446.06 2880,491 C2950.28,517.79 3011.08,583.85 3043.94,625.14 " fill="none" id="FormularioRepository-to-Formulario" style="stroke:#A80036;stroke-width:1.0;"/><polygon fill="#A80036" points="3047.23,629.31,3044.795,619.7669,3044.1327,625.3849,3038.5148,624.7226,3047.23,629.31" style="stroke:#A80036;stroke-width:1.0;"/><text fill="#000000" font-family="sans-serif" font-size="13" lengthAdjust="spacing" textLength="39" x="1043.5" y="461.4951">guarda</text><text fill="#000000" font-family="sans-serif" font-size="13" lengthAdjust="spacing" textLength="7" x="518.7461" y="611.7606">1</text><text fill="#000000" font-family="sans-serif" font-size="13" lengthAdjust="spacing" textLength="5" x="3043.0493" y="618.7754">*</text><!--MD5=[ae6f115efdbd6fecfb1670be40afc5bd]
link FormularioBuilder to Formulario--><path codeLine="193" d="M5882.44,580.93 C5869.32,547.05 5848.46,510.83 5816,491 C5756.36,454.57 3366.39,469.18 3300,491 C3219.66,517.41 3144.31,583.83 3102.94,625.25 " fill="none" id="FormularioBuilder-to-Formulario" style="stroke:#A80036;stroke-width:1.0;"/><polygon fill="#A80036" points="3099.05,629.17,3108.2352,625.6159,3102.5784,625.6273,3102.567,619.9705,3099.05,629.17" style="stroke:#A80036;stroke-width:1.0;"/><text fill="#000000" font-family="sans-serif" font-size="13" lengthAdjust="spacing" textLength="21" x="3372.5" y="461.4951">cria</text><text fill="#000000" font-family="sans-serif" font-size="13" lengthAdjust="spacing" textLength="7" x="5873.1468" y="570.1102">1</text><text fill="#000000" font-family="sans-serif" font-size="13" lengthAdjust="spacing" textLength="5" x="3099.5259" y="618.6065">*</text><!--MD5=[f2745be426f5cd4da3649723fdcf5eef]
link Servico to DescricaoBreve--><path codeLine="195" d="M1486.39,629.42 C1535.77,588.34 1630.04,518 1725,491 C1822.04,463.41 2543.12,445.17 2633,491 C2684.51,517.27 2719.49,576.31 2738.6,617.27 " fill="none" id="Servico-to-DescricaoBreve" style="stroke:#A80036;stroke-width:1.0;"/><polygon fill="#A80036" points="2740.85,622.18,2740.73,612.3319,2738.7638,617.636,2733.4596,615.6698,2740.85,622.18" style="stroke:#A80036;stroke-width:1.0;"/><text fill="#000000" font-family="sans-serif" font-size="13" lengthAdjust="spacing" textLength="38" x="1823" y="461.4951">possui</text><text fill="#000000" font-family="sans-serif" font-size="13" lengthAdjust="spacing" textLength="7" x="1494.8972" y="618.4228">1</text><text fill="#000000" font-family="sans-serif" font-size="13" lengthAdjust="spacing" textLength="7" x="2730.6445" y="611.7723">1</text><!--MD5=[f0a431540c03dcec89b31464b52afc2c]
link Servico to DescricaoCompleta--><path codeLine="196" d="M1486.39,629.42 C1535.77,588.34 1630.04,518 1725,491 C1859.66,452.71 2228.45,431.12 2355,491 C2410.1,517.07 2450.66,576.87 2473.31,617.98 " fill="none" id="Servico-to-DescricaoCompleta" style="stroke:#A80036;stroke-width:1.0;"/><polygon fill="#A80036" points="2475.71,622.4,2474.8985,612.5846,2473.3097,618.0138,2467.8806,616.4251,2475.71,622.4" style="stroke:#A80036;stroke-width:1.0;"/><text fill="#000000" font-family="sans-serif" font-size="13" lengthAdjust="spacing" textLength="38" x="1874" y="461.4951">possui</text><text fill="#000000" font-family="sans-serif" font-size="13" lengthAdjust="spacing" textLength="7" x="1486.3659" y="618.4228">1</text><text fill="#000000" font-family="sans-serif" font-size="13" lengthAdjust="spacing" textLength="7" x="2464.8287" y="611.7441">1</text><!--MD5=[d1916e0386bcc375e00c2fbf9a421d94]
link Servico to Keyword--><path codeLine="197" d="M1486.39,629.42 C1535.77,588.34 1630.04,518 1725,491 C1821.19,463.65 2089.3,439.47 2175,491 C2220.27,518.22 2243.99,576.74 2255.49,617.35 " fill="none" id="Servico-to-Keyword" style="stroke:#A80036;stroke-width:1.0;"/><polygon fill="#A80036" points="2256.83,622.21,2258.2917,612.4702,2255.4999,617.3902,2250.5799,614.5984,2256.83,622.21" style="stroke:#A80036;stroke-width:1.0;"/><text fill="#000000" font-family="sans-serif" font-size="13" lengthAdjust="spacing" textLength="38" x="1922" y="461.4951">possui</text><text fill="#000000" font-family="sans-serif" font-size="13" lengthAdjust="spacing" textLength="7" x="1513.6718" y="618.3813">1</text><text fill="#000000" font-family="sans-serif" font-size="13" lengthAdjust="spacing" textLength="5" x="2249.9294" y="611.5202">*</text><!--MD5=[250b5f6ed28c439491099211fa7f5f51]
link Servico to Feedback--><path codeLine="198" d="M1486.39,629.42 C1535.77,588.34 1630.04,518 1725,491 C1838.72,458.67 1889.4,430.55 1991,491 C2036.62,518.15 2061.02,576.69 2072.99,617.32 " fill="none" id="Servico-to-Feedback" style="stroke:#A80036;stroke-width:1.0;"/><polygon fill="#A80036" points="2074.39,622.18,2075.7445,612.4247,2073.007,617.3751,2068.0566,614.6376,2074.39,622.18" style="stroke:#A80036;stroke-width:1.0;"/><text fill="#000000" font-family="sans-serif" font-size="13" lengthAdjust="spacing" textLength="38" x="1968" y="461.4951">possui</text><text fill="#000000" font-family="sans-serif" font-size="13" lengthAdjust="spacing" textLength="7" x="1494.8972" y="618.4228">1</text><text fill="#000000" font-family="sans-serif" font-size="13" lengthAdjust="spacing" textLength="22" x="2049.0195" y="611.7723">0..1</text><!--MD5=[076994561bf9ac06bc20acd221061f68]
link Servico to FeedbackDuracao--><path codeLine="199" d="M1684.21,660.5 C1702.4,660.5 1720.27,660.5 1737.21,660.5 " fill="none" id="Servico-to-FeedbackDuracao" style="stroke:#A80036;stroke-width:1.0;"/><polygon fill="#A80036" points="1742.44,660.5,1733.44,656.5,1737.44,660.5,1733.44,664.5,1742.44,660.5" style="stroke:#A80036;stroke-width:1.0;"/><text fill="#000000" font-family="sans-serif" font-size="13" lengthAdjust="spacing" textLength="22" x="1702.25" y="653.9951">tem</text><text fill="#000000" font-family="sans-serif" font-size="13" lengthAdjust="spacing" textLength="7" x="1691.977" y="657.7411">1</text><text fill="#000000" font-family="sans-serif" font-size="13" lengthAdjust="spacing" textLength="22" x="1712.3323" y="674.5294">0..1</text><!--MD5=[4468d3cac2dd2436ca488767a169056c]
link Servico to Formulario--><path codeLine="200" d="M1486.39,629.42 C1535.77,588.34 1630.04,518 1725,491 C1848.44,455.9 2760.09,445.29 2880,491 C2950.28,517.79 3011.08,583.85 3043.94,625.14 " fill="none" id="Servico-to-Formulario" style="stroke:#A80036;stroke-width:1.0;"/><polygon fill="#A80036" points="3047.23,629.31,3044.795,619.7669,3044.1327,625.3849,3038.5148,624.7226,3047.23,629.31" style="stroke:#A80036;stroke-width:1.0;"/><text fill="#000000" font-family="sans-serif" font-size="13" lengthAdjust="spacing" textLength="22" x="1782" y="461.4951">tem</text><text fill="#000000" font-family="sans-serif" font-size="13" lengthAdjust="spacing" textLength="7" x="1486.3659" y="618.4228">1</text><text fill="#000000" font-family="sans-serif" font-size="13" lengthAdjust="spacing" textLength="5" x="3037.0181" y="618.7754">*</text><!--MD5=[a8471d8e67094fb537cf09361652787a]
link Formulario to FormularioNome--><path codeLine="202" d="M3099.05,629.17 C3139.45,588.15 3217.06,518.26 3300,491 C3406.08,456.13 5210.62,440.08 5310,491 C5361.32,517.29 5395.96,576.33 5414.84,617.29 " fill="none" id="Formulario-to-FormularioNome" style="stroke:#A80036;stroke-width:1.0;"/><polygon fill="#A80036" points="5417.06,622.19,5416.9772,612.3415,5414.991,617.6382,5409.6943,615.6519,5417.06,622.19" style="stroke:#A80036;stroke-width:1.0;"/><text fill="#000000" font-family="sans-serif" font-size="13" lengthAdjust="spacing" textLength="38" x="3465" y="461.4951">possui</text><text fill="#000000" font-family="sans-serif" font-size="13" lengthAdjust="spacing" textLength="7" x="3097.3197" y="618.6065">1</text><text fill="#000000" font-family="sans-serif" font-size="13" lengthAdjust="spacing" textLength="7" x="5406.8906" y="611.784">1</text><!--MD5=[67f9c71fb2e8729d8c6577338ec8bc25]
link Formulario to FormularioTipo--><path codeLine="203" d="M3099.05,629.17 C3139.45,588.15 3217.06,518.26 3300,491 C3393.94,460.12 4992.62,444.69 5080,491 C5129.97,517.48 5162.24,576.48 5179.51,617.37 " fill="none" id="Formulario-to-FormularioTipo" style="stroke:#A80036;stroke-width:1.0;"/><polygon fill="#A80036" points="5181.54,622.26,5181.7859,612.4142,5179.624,617.6417,5174.3966,615.4798,5181.54,622.26" style="stroke:#A80036;stroke-width:1.0;"/><text fill="#000000" font-family="sans-serif" font-size="13" lengthAdjust="spacing" textLength="22" x="3542" y="461.4951">tem</text><text fill="#000000" font-family="sans-serif" font-size="13" lengthAdjust="spacing" textLength="7" x="3105.7634" y="618.6065">1</text><text fill="#000000" font-family="sans-serif" font-size="13" lengthAdjust="spacing" textLength="7" x="5171.519" y="611.5792">1</text><!--MD5=[3097fc231e74786bfd6f5892e42c1584]
link Formulario to Atributo--><path codeLine="204" d="M3242.76,660.5 C3265.78,660.5 3289.21,660.5 3311.76,660.5 " fill="none" id="Formulario-to-Atributo" style="stroke:#A80036;stroke-width:1.0;"/><polygon fill="#A80036" points="3316.86,660.5,3307.86,656.5,3311.86,660.5,3307.86,664.5,3316.86,660.5" style="stroke:#A80036;stroke-width:1.0;"/><text fill="#000000" font-family="sans-serif" font-size="13" lengthAdjust="spacing" textLength="38" x="3260.75" y="653.9951">possui</text><text fill="#000000" font-family="sans-serif" font-size="13" lengthAdjust="spacing" textLength="7" x="3250.7468" y="657.6443">1</text><text fill="#000000" font-family="sans-serif" font-size="13" lengthAdjust="spacing" textLength="20" x="3288.9637" y="674.4209">1..*</text><!--MD5=[b8fa0761981398010d99dd8f45a1f21f]
link Atributo to AtributoNome--><path codeLine="206" d="M3484.35,629.27 C3518.46,588.35 3584.79,518.58 3660,491 C3785.18,445.09 4742.83,427.36 4860,491 C4909.03,517.63 4939.59,576.59 4955.71,617.43 " fill="none" id="Atributo-to-AtributoNome" style="stroke:#A80036;stroke-width:1.0;"/><polygon fill="#A80036" points="4957.61,622.32,4958.0702,612.4819,4955.795,617.6611,4950.6159,615.3859,4957.61,622.32" style="stroke:#A80036;stroke-width:1.0;"/><text fill="#000000" font-family="sans-serif" font-size="13" lengthAdjust="spacing" textLength="38" x="3608" y="461.4951">possui</text><text fill="#000000" font-family="sans-serif" font-size="13" lengthAdjust="spacing" textLength="7" x="3481.6503" y="618.7271">1</text><text fill="#000000" font-family="sans-serif" font-size="13" lengthAdjust="spacing" textLength="7" x="4947.7796" y="611.6498">1</text><!--MD5=[bec31b79bf8fb647069b22e799953dbe]
link Atributo to AtributoLabel--><path codeLine="207" d="M3484.35,629.27 C3518.46,588.35 3584.79,518.58 3660,491 C3762.44,453.43 4546.23,438.72 4642,491 C4690.84,517.66 4721.06,576.61 4736.95,617.44 " fill="none" id="Atributo-to-AtributoLabel" style="stroke:#A80036;stroke-width:1.0;"/><polygon fill="#A80036" points="4738.82,622.33,4739.3427,612.495,4737.0347,617.6596,4731.8701,615.3515,4738.82,622.33" style="stroke:#A80036;stroke-width:1.0;"/><text fill="#000000" font-family="sans-serif" font-size="13" lengthAdjust="spacing" textLength="38" x="3714" y="461.4951">possui</text><text fill="#000000" font-family="sans-serif" font-size="13" lengthAdjust="spacing" textLength="7" x="3490.0941" y="618.7271">1</text><text fill="#000000" font-family="sans-serif" font-size="13" lengthAdjust="spacing" textLength="7" x="4729.027" y="611.6616">1</text><!--MD5=[940b6a8579a69c13ed8122b65fd8a5bd]
link Atributo to AtributoDescricao--><path codeLine="208" d="M3484.35,629.27 C3518.46,588.35 3584.79,518.58 3660,491 C3734.9,463.53 4306.32,455.97 4378,491 C4431.45,517.12 4469.54,576.5 4490.66,617.55 " fill="none" id="Atributo-to-AtributoDescricao" style="stroke:#A80036;stroke-width:1.0;"/><polygon fill="#A80036" points="4493.15,622.46,4492.6525,612.6237,4490.8911,617.9994,4485.5154,616.238,4493.15,622.46" style="stroke:#A80036;stroke-width:1.0;"/><text fill="#000000" font-family="sans-serif" font-size="13" lengthAdjust="spacing" textLength="38" x="3790" y="461.4951">possui</text><text fill="#000000" font-family="sans-serif" font-size="13" lengthAdjust="spacing" textLength="7" x="3481.6503" y="618.7271">1</text><text fill="#000000" font-family="sans-serif" font-size="13" lengthAdjust="spacing" textLength="7" x="4482.398" y="611.5292">1</text><!--MD5=[b6e6a13af3b64afb10592750ad8af3e2]
link Atributo to AtributoRegex--><path codeLine="209" d="M3484.35,629.27 C3518.46,588.35 3584.79,518.58 3660,491 C3762.23,453.51 4053.89,439.82 4150,491 C4199.78,517.51 4231.71,576.5 4248.75,617.38 " fill="none" id="Atributo-to-AtributoRegex" style="stroke:#A80036;stroke-width:1.0;"/><polygon fill="#A80036" points="4250.75,622.27,4251.0327,612.4252,4248.8513,617.6445,4243.6319,615.4632,4250.75,622.27" style="stroke:#A80036;stroke-width:1.0;"/><text fill="#000000" font-family="sans-serif" font-size="13" lengthAdjust="spacing" textLength="38" x="3850" y="461.4951">possui</text><text fill="#000000" font-family="sans-serif" font-size="13" lengthAdjust="spacing" textLength="7" x="3499.7637" y="618.07">1</text><text fill="#000000" font-family="sans-serif" font-size="13" lengthAdjust="spacing" textLength="7" x="4240.7664" y="611.5909">1</text><!--MD5=[8f0a9aeebb050a7563529944a3aa0f2c]
link Atributo to AtributoScript--><path codeLine="210" d="M3484.35,629.27 C3518.46,588.35 3584.79,518.58 3660,491 C3771.83,449.99 3823.21,434.37 3928,491 C3977.21,517.6 4008.12,576.56 4024.47,617.42 " fill="none" id="Atributo-to-AtributoScript" style="stroke:#A80036;stroke-width:1.0;"/><polygon fill="#A80036" points="4026.39,622.31,4026.824,612.4707,4024.5626,617.6559,4019.3774,615.3945,4026.39,622.31" style="stroke:#A80036;stroke-width:1.0;"/><text fill="#000000" font-family="sans-serif" font-size="13" lengthAdjust="spacing" textLength="38" x="3903" y="461.4951">possui</text><text fill="#000000" font-family="sans-serif" font-size="13" lengthAdjust="spacing" textLength="7" x="3490.0941" y="618.7271">1</text><text fill="#000000" font-family="sans-serif" font-size="13" lengthAdjust="spacing" textLength="7" x="4016.5204" y="611.6381">1</text><!--MD5=[27aec25f30635fc45d1a27b54a711ab5]
link Atributo to AtributoTipoDados--><path codeLine="211" d="M3603.1,660.5 C3626.14,660.5 3649.81,660.5 3672.29,660.5 " fill="none" id="Atributo-to-AtributoTipoDados" style="stroke:#A80036;stroke-width:1.0;"/><polygon fill="#A80036" points="3677.37,660.5,3668.37,656.5,3672.37,660.5,3668.37,664.5,3677.37,660.5" style="stroke:#A80036;stroke-width:1.0;"/><text fill="#000000" font-family="sans-serif" font-size="13" lengthAdjust="spacing" textLength="38" x="3621.25" y="653.9951">possui</text><text fill="#000000" font-family="sans-serif" font-size="13" lengthAdjust="spacing" textLength="7" x="3611.1172" y="657.5717">1</text><text fill="#000000" font-family="sans-serif" font-size="13" lengthAdjust="spacing" textLength="7" x="3662.6742" y="657.5044">1</text><!--MD5=[5455cb0e5abab14182104a5bb38ae3a7]
@startuml
skinparam classAttributeIconSize 0

package "UI" #DDDDDD {
class EspecificarServicoUI{

}
}


package "Application" #DDDDDD {
class EspecificarServicoController{
+create()
+addServico(descricaoBreve, descricaoCompleta)
+addKeyword(keyword)
+addKeywordListToService()
+enableFeedback(duracao)
+getCatalogos()
+addFormulario(nome, tipo)
+addAtributo(nome, label, descricao, regex, script)
+addAtributoTipo(tipoDados)
+saveFormulario()
+saveServico()
}
}


package "Domain" #DDDDDD {
class Servico{
+create(descricaoBreve, descricaoCompleta, feedback, duracao, keywordList, formularioList)
}

class Formulario{
+create(nome, label, descricao, regex, script, tipoDados, atributoList)
}

class Atributo{
+create(nome, label, descricao, regex, script, tipoDados)
}

class DescricaoBreve{
+createDescricaoBreve(descricaoBreve)
-validate(descricaoBreve)
}

class DescricaoCompleta{
+createDescricaoCompleta(descricaoCompleta)
-validate(descricaoCompleta)
}

class Keyword{
+createKeyword(keyword)
-validate(keyword)
}

class Feedback{
+createFeedback(feedback)
-validate(feedback)
}

class FeedbackDuracao{
+createFeedbackDuracao(feedbackDuracao)
-validate(feedbackDuracao)
}

class FormularioNome{
+createFormularioNome(formularioNome)
-validate(formularioNome)
}

class FormularioTipo{
+createFormularioTipo(formularioTipo)
-validate(formularioTipo)
}

class AtributoNome{
+createAtributoNome(atributoNome)
-validate(atributoNome)
}

class AtributoLabel{
+createAtributoLabel(atributoLabel)
-validate(atributoLabel)
}

class AtributoDescricao{
+createAtributoDescricao(atributoDescricao)
-validate(atributoDescricao)
}

class AtributoRegex{
+createAtributoRegex(atributoRegex)
-validate(atributoRegex)
}

class AtributoScript{
+createAtributoScript(atributoScript)
-validate(atributoScript)
}

class AtributoTipoDados{
+createAtributoTipoDados(atributoTipoDados)
-validate(atributoTipoDados)
}

package Builder #DDDDDD {
class ServicoBuilder{
+create()
+setDescricaoBreve(descricaoBreve)
+setDescricaoCompleta(descricaoCompleta)
+setKeywordList(keywordList)
+setFeedback(feedback)
+setFeedbackDuracao(duracao)
+setFormularioList(formularioList)
+createServico()
}

class FormularioBuilder{
+create()
+setNome(nome)
+setLabel(label)
+setDescricao(descricao)
+setRegex(regex)
+setScript(script)
+setTipoDados(tipoDados)
+createAtributo()
}

class AtributoBuilder{
+create()
+setNomeCompleto(nomeCompleto)
+createColab()
}

}

}

package Persistence #DDDDDD {
class PersistenceContext{
+repositories()
}

class AppSettings{
+instance()
+getRepositoryFactory()
}

package Factory #DDDDDD {
class RepositoryFactory{
+create()
+servicos()
+catalogos()
+formularios()
}
}

package "Repository" #DDDDDD {
class ServicoRepository{
+create()
+save(servico)
}

class CatalogoRepository{
+create()
+all()
}

class FormularioRepository{
+create()
+save(formulario)
}

}



EspecificarServicoUI ..> EspecificarServicoController
EspecificarServicoController ..> ServicoBuilder
EspecificarServicoController ..> FormularioBuilder
EspecificarServicoController ..> AtributoBuilder
EspecificarServicoController ..> PersistenceContext

AppSettings -> RepositoryFactory : cria
PersistenceContext -> AppSettings : implementa

RepositoryFactory "1" -> "1" ServicoRepository : possui
RepositoryFactory "1" -> "1" CatalogoRepository : possui
RepositoryFactory "1" -> "1" ServicoRepository : possui

ServicoRepository "1" -> "*" Servico : guarda
ServicoBuilder "1" -> "*" Servico : cria
FormularioRepository "1" -> "*" Formulario : guarda
FormularioBuilder "1" -> "*" Formulario : cria

Servico "1" -> "1" DescricaoBreve : possui
Servico "1" -> "1" DescricaoCompleta : possui
Servico "1" -> "*" Keyword : possui
Servico "1" -> "0..1" Feedback : possui
Servico "1" -> "0..1" FeedbackDuracao : tem
Servico "1" -> "*" Formulario : tem

Formulario "1" -> "1" FormularioNome : possui
Formulario "1" -> "1" FormularioTipo : tem
Formulario "1" -> "1..*" Atributo : possui

Atributo "1" -> "1" AtributoNome : possui
Atributo "1" -> "1" AtributoLabel : possui
Atributo "1" -> "1" AtributoDescricao : possui
Atributo "1" -> "1" AtributoRegex : possui
Atributo "1" -> "1" AtributoScript : possui
Atributo "1" -> "1" AtributoTipoDados : possui


@enduml

PlantUML version 1.2021.5(Sun Apr 25 12:20:28 BST 2021)
(GPL source distribution)
Java Runtime: OpenJDK Runtime Environment
JVM: Dynamic Code Evolution 64-Bit Server VM
Default Encoding: Cp1252
Language: pt
Country: PT
--></g></svg>