<?xml version="1.0" encoding="UTF-8" standalone="no"?><svg xmlns="http://www.w3.org/2000/svg" xmlns:xlink="http://www.w3.org/1999/xlink" contentScriptType="application/ecmascript" contentStyleType="text/css" height="2236.25px" preserveAspectRatio="none" style="width:1963px;height:2236px;" version="1.1" viewBox="0 0 1963 2236" width="1963.75px" zoomAndPan="magnify"><defs><filter height="300%" id="fqu1eqezyrjxh" width="300%" x="-1" y="-1"><feGaussianBlur result="blurOut" stdDeviation="2.5"/><feColorMatrix in="blurOut" result="blurOut2" type="matrix" values="0 0 0 0 0 0 0 0 0 0 0 0 0 0 0 0 0 0 .4 0"/><feOffset dx="5.0" dy="5.0" in="blurOut2" result="blurOut3"/><feBlend in="SourceGraphic" in2="blurOut3" mode="normal"/></filter></defs><g><rect fill="#FFFFFF" filter="url(#fqu1eqezyrjxh)" height="1993.2715" style="stroke: #A80036; stroke-width: 1.25;" width="12.5" x="25.625" y="122.0117"/><rect fill="#FFFFFF" filter="url(#fqu1eqezyrjxh)" height="1964.082" style="stroke: #A80036; stroke-width: 1.25;" width="12.5" x="378.125" y="149.9512"/><rect fill="#FFFFFF" filter="url(#fqu1eqezyrjxh)" height="37.9395" style="stroke: #A80036; stroke-width: 1.25;" width="12.5" x="918.125" y="149.9512"/><rect fill="#FFFFFF" filter="url(#fqu1eqezyrjxh)" height="189.6973" style="stroke: #A80036; stroke-width: 1.25;" width="12.5" x="918.125" y="305.7813"/><rect fill="#FFFFFF" filter="url(#fqu1eqezyrjxh)" height="37.9395" style="stroke: #A80036; stroke-width: 1.25;" width="12.5" x="1568.75" y="419.5996"/><rect fill="#FFFFFF" filter="url(#fqu1eqezyrjxh)" height="37.5" style="stroke: #A80036; stroke-width: 1.25;" width="12.5" x="1568.75" y="733.1152"/><rect fill="#FFFFFF" filter="url(#fqu1eqezyrjxh)" height="37.5" style="stroke: #A80036; stroke-width: 1.25;" width="12.5" x="1568.75" y="1642.6465"/><rect fill="#FFFFFF" filter="url(#fqu1eqezyrjxh)" height="37.9395" style="stroke: #A80036; stroke-width: 1.25;" width="12.5" x="1764.375" y="343.7207"/><rect fill="#FFFFFF" filter="url(#fqu1eqezyrjxh)" height="37.5" style="stroke: #A80036; stroke-width: 1.25;" width="12.5" x="1764.375" y="808.5547"/><rect fill="#FFFFFF" filter="url(#fqu1eqezyrjxh)" height="37.5" style="stroke: #A80036; stroke-width: 1.25;" width="12.5" x="1764.375" y="1450.8887"/><rect fill="#FFFFFF" filter="url(#fqu1eqezyrjxh)" height="37.5" style="stroke: #A80036; stroke-width: 1.25;" width="12.5" x="1764.375" y="1718.0859"/><rect fill="#FFFFFF" filter="url(#fqu1eqezyrjxh)" height="37.5" style="stroke: #A80036; stroke-width: 1.25;" width="12.5" x="1764.375" y="2057.7832"/><rect fill="#FFFFFF" filter="url(#fqu1eqezyrjxh)" height="37.5" style="stroke: #A80036; stroke-width: 1.25;" width="12.5" x="1885.625" y="959.873"/><rect fill="#FFFFFF" filter="url(#fqu1eqezyrjxh)" height="37.5" style="stroke: #A80036; stroke-width: 1.25;" width="12.5" x="1885.625" y="1035.3125"/><rect fill="#FFFFFF" filter="url(#fqu1eqezyrjxh)" height="37.5" style="stroke: #A80036; stroke-width: 1.25;" width="12.5" x="1885.625" y="1196.6309"/><rect fill="#FFFFFF" filter="url(#fqu1eqezyrjxh)" height="37.5" style="stroke: #A80036; stroke-width: 1.25;" width="12.5" x="1885.625" y="1366.6992"/><rect fill="#FFFFFF" filter="url(#fqu1eqezyrjxh)" height="37.5" style="stroke: #A80036; stroke-width: 1.25;" width="12.5" x="1885.625" y="1831.4648"/><rect fill="#FFFFFF" filter="url(#fqu1eqezyrjxh)" height="37.5" style="stroke: #A80036; stroke-width: 1.25;" width="12.5" x="1885.625" y="1906.9043"/><rect fill="#FFFFFF" filter="url(#fqu1eqezyrjxh)" height="37.5" style="stroke: #A80036; stroke-width: 1.25;" width="12.5" x="1885.625" y="1982.3438"/><rect fill="#FFFFFF" filter="url(#fqu1eqezyrjxh)" height="854.0918" style="stroke: #000000; stroke-width: 2.5;" width="1695.625" x="254.375" y="644.2969"/><rect fill="#FFFFFF" filter="url(#fqu1eqezyrjxh)" height="152.5684" style="stroke: #000000; stroke-width: 2.5;" width="1220" x="717.5" y="1091.5625"/><rect fill="#FFFFFF" filter="url(#fqu1eqezyrjxh)" height="152.5684" style="stroke: #000000; stroke-width: 2.5;" width="1226.25" x="711.25" y="1261.6309"/><rect fill="#FFFFFF" filter="url(#fqu1eqezyrjxh)" height="589.3945" style="stroke: #000000; stroke-width: 2.5;" width="1683.125" x="254.375" y="1515.8887"/><line style="stroke: #A80036; stroke-width: 1.25; stroke-dasharray: 5.0,5.0;" x1="31.25" x2="31.25" y1="109.5117" y2="2126.5332"/><line style="stroke: #A80036; stroke-width: 1.25; stroke-dasharray: 5.0,5.0;" x1="384.375" x2="384.375" y1="109.5117" y2="2126.5332"/><line style="stroke: #A80036; stroke-width: 1.25; stroke-dasharray: 5.0,5.0;" x1="924.375" x2="924.375" y1="201.582" y2="2126.5332"/><line style="stroke: #A80036; stroke-width: 1.25; stroke-dasharray: 5.0,5.0;" x1="1185" x2="1185" y1="109.5117" y2="2126.5332"/><line style="stroke: #A80036; stroke-width: 1.25; stroke-dasharray: 5.0,5.0;" x1="1360" x2="1360" y1="109.5117" y2="2126.5332"/><line style="stroke: #A80036; stroke-width: 1.25; stroke-dasharray: 5.0,5.0;" x1="1575" x2="1575" y1="109.5117" y2="2126.5332"/><line style="stroke: #A80036; stroke-width: 1.25; stroke-dasharray: 5.0,5.0;" x1="1770" x2="1770" y1="109.5117" y2="2126.5332"/><line style="stroke: #A80036; stroke-width: 1.25; stroke-dasharray: 5.0,5.0;" x1="1891.25" x2="1891.25" y1="109.5117" y2="2126.5332"/><text fill="#000000" font-family="sans-serif" font-size="17.5" lengthAdjust="spacingAndGlyphs" textLength="36.25" x="10" y="105.6665">User</text><ellipse cx="31.875" cy="16.25" fill="#FEFECE" filter="url(#fqu1eqezyrjxh)" rx="10" ry="10" style="stroke: #A80036; stroke-width: 2.5;"/><path d="M31.875,26.25 L31.875,60 M15.625,36.25 L48.125,36.25 M31.875,60 L15.625,78.75 M31.875,60 L48.125,78.75 " fill="none" filter="url(#fqu1eqezyrjxh)" style="stroke: #A80036; stroke-width: 2.5;"/><text fill="#000000" font-family="sans-serif" font-size="17.5" lengthAdjust="spacingAndGlyphs" textLength="36.25" x="10" y="2143.4497">User</text><ellipse cx="31.875" cy="2159.7949" fill="#FEFECE" filter="url(#fqu1eqezyrjxh)" rx="10" ry="10" style="stroke: #A80036; stroke-width: 2.5;"/><path d="M31.875,2169.7949 L31.875,2203.5449 M15.625,2179.7949 L48.125,2179.7949 M31.875,2203.5449 L15.625,2222.2949 M31.875,2203.5449 L48.125,2222.2949 " fill="none" filter="url(#fqu1eqezyrjxh)" style="stroke: #A80036; stroke-width: 2.5;"/><rect fill="#FEFECE" filter="url(#fqu1eqezyrjxh)" height="39.5117" style="stroke: #A80036; stroke-width: 1.875;" width="230" x="266.875" y="63.75"/><text fill="#000000" font-family="sans-serif" font-size="17.5" lengthAdjust="spacingAndGlyphs" textLength="212.5" x="275.625" y="90.6665">:AccomplishPendingTaskUI</text><rect fill="#FEFECE" filter="url(#fqu1eqezyrjxh)" height="39.5117" style="stroke: #A80036; stroke-width: 1.875;" width="230" x="266.875" y="2125.2832"/><text fill="#000000" font-family="sans-serif" font-size="17.5" lengthAdjust="spacingAndGlyphs" textLength="212.5" x="275.625" y="2152.1997">:AccomplishPendingTaskUI</text><rect fill="#FEFECE" filter="url(#fqu1eqezyrjxh)" height="39.5117" style="stroke: #A80036; stroke-width: 1.875;" width="292.5" x="775.625" y="2125.2832"/><text fill="#000000" font-family="sans-serif" font-size="17.5" lengthAdjust="spacingAndGlyphs" textLength="275" x="784.375" y="2152.1997">:AccomplishPendingTaskController</text><rect fill="#FEFECE" filter="url(#fqu1eqezyrjxh)" height="39.5117" style="stroke: #A80036; stroke-width: 1.875;" width="131.25" x="1117.5" y="63.75"/><text fill="#000000" font-family="sans-serif" font-size="17.5" lengthAdjust="spacingAndGlyphs" textLength="113.75" x="1126.25" y="90.6665">:AuthzRegistry</text><rect fill="#FEFECE" filter="url(#fqu1eqezyrjxh)" height="39.5117" style="stroke: #A80036; stroke-width: 1.875;" width="131.25" x="1117.5" y="2125.2832"/><text fill="#000000" font-family="sans-serif" font-size="17.5" lengthAdjust="spacingAndGlyphs" textLength="113.75" x="1126.25" y="2152.1997">:AuthzRegistry</text><rect fill="#FEFECE" filter="url(#fqu1eqezyrjxh)" height="61.5234" style="stroke: #A80036; stroke-width: 1.875;" width="183.75" x="1266.25" y="41.7383"/><text fill="#000000" font-family="sans-serif" font-size="17.5" lengthAdjust="spacingAndGlyphs" textLength="42.5" x="1336.875" y="68.6548">authz</text><text fill="#000000" font-family="sans-serif" font-size="17.5" lengthAdjust="spacingAndGlyphs" textLength="166.25" x="1275" y="90.6665">:AuthorizationService</text><rect fill="#FEFECE" filter="url(#fqu1eqezyrjxh)" height="61.5234" style="stroke: #A80036; stroke-width: 1.875;" width="183.75" x="1266.25" y="2125.2832"/><text fill="#000000" font-family="sans-serif" font-size="17.5" lengthAdjust="spacingAndGlyphs" textLength="42.5" x="1336.875" y="2152.1997">authz</text><text fill="#000000" font-family="sans-serif" font-size="17.5" lengthAdjust="spacingAndGlyphs" textLength="166.25" x="1275" y="2174.2114">:AuthorizationService</text><rect fill="#FEFECE" filter="url(#fqu1eqezyrjxh)" height="39.5117" style="stroke: #A80036; stroke-width: 1.875;" width="210" x="1467.5" y="63.75"/><text fill="#000000" font-family="sans-serif" font-size="17.5" lengthAdjust="spacingAndGlyphs" textLength="192.5" x="1476.25" y="90.6665">:CollaboradorRepository</text><rect fill="#FEFECE" filter="url(#fqu1eqezyrjxh)" height="39.5117" style="stroke: #A80036; stroke-width: 1.875;" width="210" x="1467.5" y="2125.2832"/><text fill="#000000" font-family="sans-serif" font-size="17.5" lengthAdjust="spacingAndGlyphs" textLength="192.5" x="1476.25" y="2152.1997">:CollaboradorRepository</text><rect fill="#FEFECE" filter="url(#fqu1eqezyrjxh)" height="39.5117" style="stroke: #A80036; stroke-width: 1.875;" width="146.25" x="1695" y="63.75"/><text fill="#000000" font-family="sans-serif" font-size="17.5" lengthAdjust="spacingAndGlyphs" textLength="128.75" x="1703.75" y="90.6665">:TaskRepository</text><rect fill="#FEFECE" filter="url(#fqu1eqezyrjxh)" height="39.5117" style="stroke: #A80036; stroke-width: 1.875;" width="146.25" x="1695" y="2125.2832"/><text fill="#000000" font-family="sans-serif" font-size="17.5" lengthAdjust="spacingAndGlyphs" textLength="128.75" x="1703.75" y="2152.1997">:TaskRepository</text><rect fill="#FEFECE" filter="url(#fqu1eqezyrjxh)" height="39.5117" style="stroke: #A80036; stroke-width: 1.875;" width="61.25" x="1858.75" y="63.75"/><text fill="#000000" font-family="sans-serif" font-size="17.5" lengthAdjust="spacingAndGlyphs" textLength="43.75" x="1867.5" y="90.6665">:Task</text><rect fill="#FEFECE" filter="url(#fqu1eqezyrjxh)" height="39.5117" style="stroke: #A80036; stroke-width: 1.875;" width="61.25" x="1858.75" y="2125.2832"/><text fill="#000000" font-family="sans-serif" font-size="17.5" lengthAdjust="spacingAndGlyphs" textLength="43.75" x="1867.5" y="2152.1997">:Task</text><rect fill="#FFFFFF" filter="url(#fqu1eqezyrjxh)" height="1993.2715" style="stroke: #A80036; stroke-width: 1.25;" width="12.5" x="25.625" y="122.0117"/><rect fill="#FFFFFF" filter="url(#fqu1eqezyrjxh)" height="1964.082" style="stroke: #A80036; stroke-width: 1.25;" width="12.5" x="378.125" y="149.9512"/><rect fill="#FFFFFF" filter="url(#fqu1eqezyrjxh)" height="37.9395" style="stroke: #A80036; stroke-width: 1.25;" width="12.5" x="918.125" y="149.9512"/><rect fill="#FFFFFF" filter="url(#fqu1eqezyrjxh)" height="189.6973" style="stroke: #A80036; stroke-width: 1.25;" width="12.5" x="918.125" y="305.7813"/><rect fill="#FFFFFF" filter="url(#fqu1eqezyrjxh)" height="37.9395" style="stroke: #A80036; stroke-width: 1.25;" width="12.5" x="1568.75" y="419.5996"/><rect fill="#FFFFFF" filter="url(#fqu1eqezyrjxh)" height="37.5" style="stroke: #A80036; stroke-width: 1.25;" width="12.5" x="1568.75" y="733.1152"/><rect fill="#FFFFFF" filter="url(#fqu1eqezyrjxh)" height="37.5" style="stroke: #A80036; stroke-width: 1.25;" width="12.5" x="1568.75" y="1642.6465"/><rect fill="#FFFFFF" filter="url(#fqu1eqezyrjxh)" height="37.9395" style="stroke: #A80036; stroke-width: 1.25;" width="12.5" x="1764.375" y="343.7207"/><rect fill="#FFFFFF" filter="url(#fqu1eqezyrjxh)" height="37.5" style="stroke: #A80036; stroke-width: 1.25;" width="12.5" x="1764.375" y="808.5547"/><rect fill="#FFFFFF" filter="url(#fqu1eqezyrjxh)" height="37.5" style="stroke: #A80036; stroke-width: 1.25;" width="12.5" x="1764.375" y="1450.8887"/><rect fill="#FFFFFF" filter="url(#fqu1eqezyrjxh)" height="37.5" style="stroke: #A80036; stroke-width: 1.25;" width="12.5" x="1764.375" y="1718.0859"/><rect fill="#FFFFFF" filter="url(#fqu1eqezyrjxh)" height="37.5" style="stroke: #A80036; stroke-width: 1.25;" width="12.5" x="1764.375" y="2057.7832"/><rect fill="#FFFFFF" filter="url(#fqu1eqezyrjxh)" height="37.5" style="stroke: #A80036; stroke-width: 1.25;" width="12.5" x="1885.625" y="959.873"/><rect fill="#FFFFFF" filter="url(#fqu1eqezyrjxh)" height="37.5" style="stroke: #A80036; stroke-width: 1.25;" width="12.5" x="1885.625" y="1035.3125"/><rect fill="#FFFFFF" filter="url(#fqu1eqezyrjxh)" height="37.5" style="stroke: #A80036; stroke-width: 1.25;" width="12.5" x="1885.625" y="1196.6309"/><rect fill="#FFFFFF" filter="url(#fqu1eqezyrjxh)" height="37.5" style="stroke: #A80036; stroke-width: 1.25;" width="12.5" x="1885.625" y="1366.6992"/><rect fill="#FFFFFF" filter="url(#fqu1eqezyrjxh)" height="37.5" style="stroke: #A80036; stroke-width: 1.25;" width="12.5" x="1885.625" y="1831.4648"/><rect fill="#FFFFFF" filter="url(#fqu1eqezyrjxh)" height="37.5" style="stroke: #A80036; stroke-width: 1.25;" width="12.5" x="1885.625" y="1906.9043"/><rect fill="#FFFFFF" filter="url(#fqu1eqezyrjxh)" height="37.5" style="stroke: #A80036; stroke-width: 1.25;" width="12.5" x="1885.625" y="1982.3438"/><polygon fill="#A80036" points="363.125,144.9512,375.625,149.9512,363.125,154.9512,368.125,149.9512" style="stroke: #A80036; stroke-width: 1.25;"/><line style="stroke: #A80036; stroke-width: 1.25;" x1="38.125" x2="370.625" y1="149.9512" y2="149.9512"/><text fill="#000000" font-family="sans-serif" font-size="16.25" font-weight="bold" lengthAdjust="spacingAndGlyphs" textLength="8.75" x="46.875" y="143.8806">1</text><text fill="#000000" font-family="sans-serif" font-size="16.25" lengthAdjust="spacingAndGlyphs" textLength="302.5" x="60.625" y="143.8806">Iniciates the request to accomplish a task</text><polygon fill="#A80036" points="760.625,182.8906,773.125,187.8906,760.625,192.8906,765.625,187.8906" style="stroke: #A80036; stroke-width: 1.25;"/><line style="stroke: #A80036; stroke-width: 1.25;" x1="390.625" x2="768.125" y1="187.8906" y2="187.8906"/><text fill="#000000" font-family="sans-serif" font-size="16.25" font-weight="bold" lengthAdjust="spacingAndGlyphs" textLength="8.75" x="399.375" y="181.8201">2</text><text fill="#000000" font-family="sans-serif" font-size="16.25" lengthAdjust="spacingAndGlyphs" textLength="55" x="413.125" y="181.8201">create()</text><rect fill="#FEFECE" filter="url(#fqu1eqezyrjxh)" height="39.5117" style="stroke: #A80036; stroke-width: 1.875;" width="292.5" x="775.625" y="159.9512"/><text fill="#000000" font-family="sans-serif" font-size="17.5" lengthAdjust="spacingAndGlyphs" textLength="275" x="784.375" y="186.8677">:AccomplishPendingTaskController</text><rect fill="#FFFFFF" filter="url(#fqu1eqezyrjxh)" height="53.3789" style="stroke: #000000; stroke-width: 2.5;" width="300" x="771.875" y="218.2129"/><polygon fill="#EEEEEE" points="771.875,218.2129,849.375,218.2129,849.375,228.2129,836.875,240.7129,771.875,240.7129,771.875,218.2129" style="stroke: #000000; stroke-width: 2.5;"/><text fill="#000000" font-family="sans-serif" font-size="16.25" font-weight="bold" lengthAdjust="spacingAndGlyphs" textLength="21.25" x="788.125" y="237.5818">ref</text><text fill="#000000" font-family="sans-serif" font-size="16.25" lengthAdjust="spacingAndGlyphs" textLength="153.75" x="847.5" y="262.5818">US-1-2051_SD_Repo</text><polygon fill="#A80036" points="903.125,300.7813,915.625,305.7813,903.125,310.7813,908.125,305.7813" style="stroke: #A80036; stroke-width: 1.25;"/><line style="stroke: #A80036; stroke-width: 1.25;" x1="390.625" x2="910.625" y1="305.7813" y2="305.7813"/><text fill="#000000" font-family="sans-serif" font-size="16.25" font-weight="bold" lengthAdjust="spacingAndGlyphs" textLength="8.75" x="399.375" y="299.7107">3</text><text fill="#000000" font-family="sans-serif" font-size="16.25" lengthAdjust="spacingAndGlyphs" textLength="135" x="413.125" y="299.7107">getPendingTasks()</text><polygon fill="#A80036" points="1749.375,338.7207,1761.875,343.7207,1749.375,348.7207,1754.375,343.7207" style="stroke: #A80036; stroke-width: 1.25;"/><line style="stroke: #A80036; stroke-width: 1.25;" x1="930.625" x2="1756.875" y1="343.7207" y2="343.7207"/><text fill="#000000" font-family="sans-serif" font-size="16.25" font-weight="bold" lengthAdjust="spacingAndGlyphs" textLength="8.75" x="939.375" y="337.6501">4</text><text fill="#000000" font-family="sans-serif" font-size="16.25" lengthAdjust="spacingAndGlyphs" textLength="206.25" x="953.125" y="337.6501">getPendingTasks(username)</text><polygon fill="#A80036" points="944.375,376.6602,931.875,381.6602,944.375,386.6602,939.375,381.6602" style="stroke: #A80036; stroke-width: 1.25;"/><line style="stroke: #A80036; stroke-width: 1.25; stroke-dasharray: 2.0,2.0;" x1="936.875" x2="1769.375" y1="381.6602" y2="381.6602"/><text fill="#000000" font-family="sans-serif" font-size="16.25" font-weight="bold" lengthAdjust="spacingAndGlyphs" textLength="8.75" x="951.875" y="375.5896">5</text><text fill="#000000" font-family="sans-serif" font-size="16.25" lengthAdjust="spacingAndGlyphs" textLength="100" x="965.625" y="375.5896">pendingTasks</text><polygon fill="#A80036" points="1553.75,414.5996,1566.25,419.5996,1553.75,424.5996,1558.75,419.5996" style="stroke: #A80036; stroke-width: 1.25;"/><line style="stroke: #A80036; stroke-width: 1.25;" x1="930.625" x2="1561.25" y1="419.5996" y2="419.5996"/><text fill="#000000" font-family="sans-serif" font-size="16.25" font-weight="bold" lengthAdjust="spacingAndGlyphs" textLength="8.75" x="939.375" y="413.5291">6</text><text fill="#000000" font-family="sans-serif" font-size="16.25" lengthAdjust="spacingAndGlyphs" textLength="202.5" x="953.125" y="413.5291">findByUserName(username)</text><polygon fill="#A80036" points="944.375,452.5391,931.875,457.5391,944.375,462.5391,939.375,457.5391" style="stroke: #A80036; stroke-width: 1.25;"/><line style="stroke: #A80036; stroke-width: 1.25; stroke-dasharray: 2.0,2.0;" x1="936.875" x2="1573.75" y1="457.5391" y2="457.5391"/><text fill="#000000" font-family="sans-serif" font-size="16.25" font-weight="bold" lengthAdjust="spacingAndGlyphs" textLength="8.75" x="951.875" y="451.4685">7</text><text fill="#000000" font-family="sans-serif" font-size="16.25" lengthAdjust="spacingAndGlyphs" textLength="42.5" x="965.625" y="451.4685">collab</text><polygon fill="#A80036" points="404.375,490.4785,391.875,495.4785,404.375,500.4785,399.375,495.4785" style="stroke: #A80036; stroke-width: 1.25;"/><line style="stroke: #A80036; stroke-width: 1.25; stroke-dasharray: 2.0,2.0;" x1="396.875" x2="923.125" y1="495.4785" y2="495.4785"/><text fill="#000000" font-family="sans-serif" font-size="16.25" font-weight="bold" lengthAdjust="spacingAndGlyphs" textLength="8.75" x="411.875" y="489.408">8</text><text fill="#000000" font-family="sans-serif" font-size="16.25" lengthAdjust="spacingAndGlyphs" textLength="100" x="425.625" y="489.408">pendingTasks</text><line style="stroke: #A80036; stroke-width: 1.25;" x1="390.625" x2="443.125" y1="533.418" y2="533.418"/><line style="stroke: #A80036; stroke-width: 1.25;" x1="443.125" x2="443.125" y1="533.418" y2="549.668"/><line style="stroke: #A80036; stroke-width: 1.25;" x1="391.875" x2="443.125" y1="549.668" y2="549.668"/><polygon fill="#A80036" points="404.375,544.668,391.875,549.668,404.375,554.668,399.375,549.668" style="stroke: #A80036; stroke-width: 1.25;"/><text fill="#000000" font-family="sans-serif" font-size="16.25" font-weight="bold" lengthAdjust="spacingAndGlyphs" textLength="8.75" x="399.375" y="527.3474">9</text><text fill="#000000" font-family="sans-serif" font-size="16.25" lengthAdjust="spacingAndGlyphs" textLength="67.5" x="413.125" y="527.3474">doShow()</text><polygon fill="#A80036" points="51.875,582.6074,39.375,587.6074,51.875,592.6074,46.875,587.6074" style="stroke: #A80036; stroke-width: 1.25;"/><line style="stroke: #A80036; stroke-width: 1.25; stroke-dasharray: 2.0,2.0;" x1="44.375" x2="376.875" y1="587.6074" y2="587.6074"/><text fill="#000000" font-family="sans-serif" font-size="16.25" font-weight="bold" lengthAdjust="spacingAndGlyphs" textLength="17.5" x="59.375" y="581.5369">10</text><text fill="#000000" font-family="sans-serif" font-size="16.25" lengthAdjust="spacingAndGlyphs" textLength="143.75" x="81.875" y="581.5369">show pending tasks</text><polygon fill="#A80036" points="363.125,620.5469,375.625,625.5469,363.125,630.5469,368.125,625.5469" style="stroke: #A80036; stroke-width: 1.25;"/><line style="stroke: #A80036; stroke-width: 1.25;" x1="38.125" x2="370.625" y1="625.5469" y2="625.5469"/><text fill="#000000" font-family="sans-serif" font-size="16.25" font-weight="bold" lengthAdjust="spacingAndGlyphs" textLength="17.5" x="46.875" y="619.4763">11</text><text fill="#000000" font-family="sans-serif" font-size="16.25" lengthAdjust="spacingAndGlyphs" textLength="195" x="69.375" y="619.4763">choose task to accomplish</text><path d="M254.375,644.2969 L335.625,644.2969 L335.625,654.2969 L323.125,666.7969 L254.375,666.7969 L254.375,644.2969 " fill="#EEEEEE" style="stroke: #000000; stroke-width: 1.25;"/><rect fill="none" height="854.0918" style="stroke: #000000; stroke-width: 2.5;" width="1695.625" x="254.375" y="644.2969"/><text fill="#000000" font-family="sans-serif" font-size="16.25" font-weight="bold" lengthAdjust="spacingAndGlyphs" textLength="25" x="273.125" y="662.4158">opt</text><polygon fill="#A80036" points="909.375,690.1758,921.875,695.1758,909.375,700.1758,914.375,695.1758" style="stroke: #A80036; stroke-width: 1.25;"/><line style="stroke: #A80036; stroke-width: 1.25;" x1="390.625" x2="916.875" y1="695.1758" y2="695.1758"/><text fill="#000000" font-family="sans-serif" font-size="16.25" font-weight="bold" lengthAdjust="spacingAndGlyphs" textLength="17.5" x="399.375" y="689.1052">12</text><text fill="#000000" font-family="sans-serif" font-size="16.25" lengthAdjust="spacingAndGlyphs" textLength="233.75" x="421.875" y="689.1052">pendingTaskApproval(username)</text><polygon fill="#A80036" points="1553.75,728.1152,1566.25,733.1152,1553.75,738.1152,1558.75,733.1152" style="stroke: #A80036; stroke-width: 1.25;"/><line style="stroke: #A80036; stroke-width: 1.25;" x1="924.375" x2="1561.25" y1="733.1152" y2="733.1152"/><text fill="#000000" font-family="sans-serif" font-size="16.25" font-weight="bold" lengthAdjust="spacingAndGlyphs" textLength="17.5" x="933.125" y="727.0447">13</text><text fill="#000000" font-family="sans-serif" font-size="16.25" lengthAdjust="spacingAndGlyphs" textLength="293.75" x="955.625" y="727.0447">colaborador=findByUsername(username)</text><polygon fill="#A80036" points="1749.375,803.5547,1761.875,808.5547,1749.375,813.5547,1754.375,808.5547" style="stroke: #A80036; stroke-width: 1.25;"/><line style="stroke: #A80036; stroke-width: 1.25;" x1="924.375" x2="1756.875" y1="808.5547" y2="808.5547"/><text fill="#000000" font-family="sans-serif" font-size="16.25" font-weight="bold" lengthAdjust="spacingAndGlyphs" textLength="17.5" x="933.125" y="802.4841">14</text><text fill="#000000" font-family="sans-serif" font-size="16.25" lengthAdjust="spacingAndGlyphs" textLength="363.75" x="955.625" y="802.4841">findpendingTaskApprovalCollaborador(Colaborador)</text><polygon fill="#A80036" points="404.375,878.9941,391.875,883.9941,404.375,888.9941,399.375,883.9941" style="stroke: #A80036; stroke-width: 1.25;"/><line style="stroke: #A80036; stroke-width: 1.25;" x1="396.875" x2="923.125" y1="883.9941" y2="883.9941"/><text fill="#000000" font-family="sans-serif" font-size="16.25" font-weight="bold" lengthAdjust="spacingAndGlyphs" textLength="17.5" x="411.875" y="877.9236">15</text><text fill="#000000" font-family="sans-serif" font-size="16.25" lengthAdjust="spacingAndGlyphs" textLength="43.75" x="434.375" y="877.9236">Tasks</text><polygon fill="#A80036" points="909.375,916.9336,921.875,921.9336,909.375,926.9336,914.375,921.9336" style="stroke: #A80036; stroke-width: 1.25;"/><line style="stroke: #A80036; stroke-width: 1.25;" x1="390.625" x2="916.875" y1="921.9336" y2="921.9336"/><text fill="#000000" font-family="sans-serif" font-size="16.25" font-weight="bold" lengthAdjust="spacingAndGlyphs" textLength="17.5" x="399.375" y="915.863">16</text><text fill="#000000" font-family="sans-serif" font-size="16.25" lengthAdjust="spacingAndGlyphs" textLength="481.25" x="421.875" y="915.863">accomplishPendingTaskApproval(Task, formData, isTaskApproved)</text><polygon fill="#A80036" points="1870.625,954.873,1883.125,959.873,1870.625,964.873,1875.625,959.873" style="stroke: #A80036; stroke-width: 1.25;"/><line style="stroke: #A80036; stroke-width: 1.25;" x1="924.375" x2="1878.125" y1="959.873" y2="959.873"/><text fill="#000000" font-family="sans-serif" font-size="16.25" font-weight="bold" lengthAdjust="spacingAndGlyphs" textLength="17.5" x="933.125" y="953.8025">17</text><text fill="#000000" font-family="sans-serif" font-size="16.25" lengthAdjust="spacingAndGlyphs" textLength="166.25" x="955.625" y="953.8025">validateForm(formData)</text><polygon fill="#A80036" points="1870.625,1030.3125,1883.125,1035.3125,1870.625,1040.3125,1875.625,1035.3125" style="stroke: #A80036; stroke-width: 1.25;"/><line style="stroke: #A80036; stroke-width: 1.25;" x1="924.375" x2="1878.125" y1="1035.3125" y2="1035.3125"/><text fill="#000000" font-family="sans-serif" font-size="16.25" font-weight="bold" lengthAdjust="spacingAndGlyphs" textLength="17.5" x="933.125" y="1029.2419">18</text><text fill="#000000" font-family="sans-serif" font-size="16.25" lengthAdjust="spacingAndGlyphs" textLength="161.25" x="955.625" y="1029.2419">updateForm(formData)</text><path d="M717.5,1091.5625 L798.75,1091.5625 L798.75,1101.5625 L786.25,1114.0625 L717.5,1114.0625 L717.5,1091.5625 " fill="#EEEEEE" style="stroke: #000000; stroke-width: 1.25;"/><rect fill="none" height="152.5684" style="stroke: #000000; stroke-width: 2.5;" width="1220" x="717.5" y="1091.5625"/><text fill="#000000" font-family="sans-serif" font-size="16.25" font-weight="bold" lengthAdjust="spacingAndGlyphs" textLength="25" x="736.25" y="1109.6814">opt</text><line style="stroke: #A80036; stroke-width: 1.25;" x1="924.375" x2="976.875" y1="1142.4414" y2="1142.4414"/><line style="stroke: #A80036; stroke-width: 1.25;" x1="976.875" x2="976.875" y1="1142.4414" y2="1158.6914"/><line style="stroke: #A80036; stroke-width: 1.25;" x1="925.625" x2="976.875" y1="1158.6914" y2="1158.6914"/><polygon fill="#A80036" points="938.125,1153.6914,925.625,1158.6914,938.125,1163.6914,933.125,1158.6914" style="stroke: #A80036; stroke-width: 1.25;"/><text fill="#000000" font-family="sans-serif" font-size="16.25" font-weight="bold" lengthAdjust="spacingAndGlyphs" textLength="17.5" x="933.125" y="1136.3708">19</text><text fill="#000000" font-family="sans-serif" font-size="16.25" lengthAdjust="spacingAndGlyphs" textLength="213.75" x="955.625" y="1136.3708">criarTarefasFluxoValido(Task)</text><path d="M730,1122.627 L730,1155.127 L912.5,1155.127 L912.5,1135.127 L900,1122.627 L730,1122.627 " fill="#FBFB77" filter="url(#fqu1eqezyrjxh)" style="stroke: #A80036; stroke-width: 1.25;"/><path d="M900,1122.627 L900,1135.127 L912.5,1135.127 L900,1122.627 " fill="#FBFB77" style="stroke: #A80036; stroke-width: 1.25;"/><text fill="#000000" font-family="sans-serif" font-size="16.25" lengthAdjust="spacingAndGlyphs" textLength="156.25" x="737.5" y="1145.7458">isTaskApproved : true</text><polygon fill="#A80036" points="1870.625,1191.6309,1883.125,1196.6309,1870.625,1201.6309,1875.625,1196.6309" style="stroke: #A80036; stroke-width: 1.25;"/><line style="stroke: #A80036; stroke-width: 1.25;" x1="924.375" x2="1878.125" y1="1196.6309" y2="1196.6309"/><text fill="#000000" font-family="sans-serif" font-size="16.25" font-weight="bold" lengthAdjust="spacingAndGlyphs" textLength="17.5" x="933.125" y="1190.5603">20</text><text fill="#000000" font-family="sans-serif" font-size="16.25" lengthAdjust="spacingAndGlyphs" textLength="222.5" x="955.625" y="1190.5603">changeTaskResult(SUCCESS)</text><path d="M711.25,1261.6309 L792.5,1261.6309 L792.5,1271.6309 L780,1284.1309 L711.25,1284.1309 L711.25,1261.6309 " fill="#EEEEEE" style="stroke: #000000; stroke-width: 1.25;"/><rect fill="none" height="152.5684" style="stroke: #000000; stroke-width: 2.5;" width="1226.25" x="711.25" y="1261.6309"/><text fill="#000000" font-family="sans-serif" font-size="16.25" font-weight="bold" lengthAdjust="spacingAndGlyphs" textLength="25" x="730" y="1279.7498">opt</text><line style="stroke: #A80036; stroke-width: 1.25;" x1="924.375" x2="976.875" y1="1312.5098" y2="1312.5098"/><line style="stroke: #A80036; stroke-width: 1.25;" x1="976.875" x2="976.875" y1="1312.5098" y2="1328.7598"/><line style="stroke: #A80036; stroke-width: 1.25;" x1="925.625" x2="976.875" y1="1328.7598" y2="1328.7598"/><polygon fill="#A80036" points="938.125,1323.7598,925.625,1328.7598,938.125,1333.7598,933.125,1328.7598" style="stroke: #A80036; stroke-width: 1.25;"/><text fill="#000000" font-family="sans-serif" font-size="16.25" font-weight="bold" lengthAdjust="spacingAndGlyphs" textLength="17.5" x="933.125" y="1306.4392">21</text><text fill="#000000" font-family="sans-serif" font-size="16.25" lengthAdjust="spacingAndGlyphs" textLength="221.25" x="955.625" y="1306.4392">criarTarefasFluxoInvalido(Task)</text><path d="M723.75,1292.6953 L723.75,1325.1953 L912.5,1325.1953 L912.5,1305.1953 L900,1292.6953 L723.75,1292.6953 " fill="#FBFB77" filter="url(#fqu1eqezyrjxh)" style="stroke: #A80036; stroke-width: 1.25;"/><path d="M900,1292.6953 L900,1305.1953 L912.5,1305.1953 L900,1292.6953 " fill="#FBFB77" style="stroke: #A80036; stroke-width: 1.25;"/><text fill="#000000" font-family="sans-serif" font-size="16.25" lengthAdjust="spacingAndGlyphs" textLength="162.5" x="731.25" y="1315.8142">isTaskApproved : false</text><polygon fill="#A80036" points="1870.625,1361.6992,1883.125,1366.6992,1870.625,1371.6992,1875.625,1366.6992" style="stroke: #A80036; stroke-width: 1.25;"/><line style="stroke: #A80036; stroke-width: 1.25;" x1="924.375" x2="1878.125" y1="1366.6992" y2="1366.6992"/><text fill="#000000" font-family="sans-serif" font-size="16.25" font-weight="bold" lengthAdjust="spacingAndGlyphs" textLength="17.5" x="933.125" y="1360.6287">22</text><text fill="#000000" font-family="sans-serif" font-size="16.25" lengthAdjust="spacingAndGlyphs" textLength="203.75" x="955.625" y="1360.6287">changeTaskResult(DENIED)</text><polygon fill="#A80036" points="1749.375,1445.8887,1761.875,1450.8887,1749.375,1455.8887,1754.375,1450.8887" style="stroke: #A80036; stroke-width: 1.25;"/><line style="stroke: #A80036; stroke-width: 1.25;" x1="924.375" x2="1756.875" y1="1450.8887" y2="1450.8887"/><text fill="#000000" font-family="sans-serif" font-size="16.25" font-weight="bold" lengthAdjust="spacingAndGlyphs" textLength="17.5" x="933.125" y="1444.8181">23</text><text fill="#000000" font-family="sans-serif" font-size="16.25" lengthAdjust="spacingAndGlyphs" textLength="73.75" x="955.625" y="1444.8181">save(task)</text><path d="M254.375,1515.8887 L335.625,1515.8887 L335.625,1525.8887 L323.125,1538.3887 L254.375,1538.3887 L254.375,1515.8887 " fill="#EEEEEE" style="stroke: #000000; stroke-width: 1.25;"/><rect fill="none" height="589.3945" style="stroke: #000000; stroke-width: 2.5;" width="1683.125" x="254.375" y="1515.8887"/><text fill="#000000" font-family="sans-serif" font-size="16.25" font-weight="bold" lengthAdjust="spacingAndGlyphs" textLength="25" x="273.125" y="1534.0076">opt</text><polygon fill="#A80036" points="909.375,1561.7676,921.875,1566.7676,909.375,1571.7676,914.375,1566.7676" style="stroke: #A80036; stroke-width: 1.25;"/><line style="stroke: #A80036; stroke-width: 1.25;" x1="390.625" x2="916.875" y1="1566.7676" y2="1566.7676"/><text fill="#000000" font-family="sans-serif" font-size="16.25" font-weight="bold" lengthAdjust="spacingAndGlyphs" textLength="17.5" x="399.375" y="1560.697">24</text><text fill="#000000" font-family="sans-serif" font-size="16.25" lengthAdjust="spacingAndGlyphs" textLength="372.5" x="421.875" y="1560.697">accomplishPendingTaskResolution(Task, formData)</text><polygon fill="#A80036" points="909.375,1599.707,921.875,1604.707,909.375,1609.707,914.375,1604.707" style="stroke: #A80036; stroke-width: 1.25;"/><line style="stroke: #A80036; stroke-width: 1.25;" x1="390.625" x2="916.875" y1="1604.707" y2="1604.707"/><text fill="#000000" font-family="sans-serif" font-size="16.25" font-weight="bold" lengthAdjust="spacingAndGlyphs" textLength="17.5" x="399.375" y="1598.6365">25</text><text fill="#000000" font-family="sans-serif" font-size="16.25" lengthAdjust="spacingAndGlyphs" textLength="251.25" x="421.875" y="1598.6365">PendingTaskResolution(username)</text><polygon fill="#A80036" points="1553.75,1637.6465,1566.25,1642.6465,1553.75,1647.6465,1558.75,1642.6465" style="stroke: #A80036; stroke-width: 1.25;"/><line style="stroke: #A80036; stroke-width: 1.25;" x1="924.375" x2="1561.25" y1="1642.6465" y2="1642.6465"/><text fill="#000000" font-family="sans-serif" font-size="16.25" font-weight="bold" lengthAdjust="spacingAndGlyphs" textLength="17.5" x="933.125" y="1636.5759">26</text><text fill="#000000" font-family="sans-serif" font-size="16.25" lengthAdjust="spacingAndGlyphs" textLength="293.75" x="955.625" y="1636.5759">collaborator=findByUsername(username)</text><polygon fill="#A80036" points="1749.375,1713.0859,1761.875,1718.0859,1749.375,1723.0859,1754.375,1718.0859" style="stroke: #A80036; stroke-width: 1.25;"/><line style="stroke: #A80036; stroke-width: 1.25;" x1="924.375" x2="1756.875" y1="1718.0859" y2="1718.0859"/><text fill="#000000" font-family="sans-serif" font-size="16.25" font-weight="bold" lengthAdjust="spacingAndGlyphs" textLength="17.5" x="933.125" y="1712.0154">27</text><text fill="#000000" font-family="sans-serif" font-size="16.25" lengthAdjust="spacingAndGlyphs" textLength="295" x="955.625" y="1712.0154">findPendingTaskResolution(Collaborador)</text><polygon fill="#A80036" points="404.375,1788.5254,391.875,1793.5254,404.375,1798.5254,399.375,1793.5254" style="stroke: #A80036; stroke-width: 1.25;"/><line style="stroke: #A80036; stroke-width: 1.25;" x1="396.875" x2="923.125" y1="1793.5254" y2="1793.5254"/><text fill="#000000" font-family="sans-serif" font-size="16.25" font-weight="bold" lengthAdjust="spacingAndGlyphs" textLength="17.5" x="411.875" y="1787.4548">28</text><text fill="#000000" font-family="sans-serif" font-size="16.25" lengthAdjust="spacingAndGlyphs" textLength="43.75" x="434.375" y="1787.4548">Tasks</text><polygon fill="#A80036" points="1870.625,1826.4648,1883.125,1831.4648,1870.625,1836.4648,1875.625,1831.4648" style="stroke: #A80036; stroke-width: 1.25;"/><line style="stroke: #A80036; stroke-width: 1.25;" x1="924.375" x2="1878.125" y1="1831.4648" y2="1831.4648"/><text fill="#000000" font-family="sans-serif" font-size="16.25" font-weight="bold" lengthAdjust="spacingAndGlyphs" textLength="17.5" x="933.125" y="1825.3943">29</text><text fill="#000000" font-family="sans-serif" font-size="16.25" lengthAdjust="spacingAndGlyphs" textLength="203.75" x="955.625" y="1825.3943">validateDataForm(dataForm)</text><polygon fill="#A80036" points="1870.625,1901.9043,1883.125,1906.9043,1870.625,1911.9043,1875.625,1906.9043" style="stroke: #A80036; stroke-width: 1.25;"/><line style="stroke: #A80036; stroke-width: 1.25;" x1="924.375" x2="1878.125" y1="1906.9043" y2="1906.9043"/><text fill="#000000" font-family="sans-serif" font-size="16.25" font-weight="bold" lengthAdjust="spacingAndGlyphs" textLength="17.5" x="933.125" y="1900.8337">30</text><text fill="#000000" font-family="sans-serif" font-size="16.25" lengthAdjust="spacingAndGlyphs" textLength="198.75" x="955.625" y="1900.8337">updateDataForm(dataForm)</text><polygon fill="#A80036" points="1870.625,1977.3438,1883.125,1982.3438,1870.625,1987.3438,1875.625,1982.3438" style="stroke: #A80036; stroke-width: 1.25;"/><line style="stroke: #A80036; stroke-width: 1.25;" x1="924.375" x2="1878.125" y1="1982.3438" y2="1982.3438"/><text fill="#000000" font-family="sans-serif" font-size="16.25" font-weight="bold" lengthAdjust="spacingAndGlyphs" textLength="17.5" x="933.125" y="1976.2732">31</text><text fill="#000000" font-family="sans-serif" font-size="16.25" lengthAdjust="spacingAndGlyphs" textLength="222.5" x="955.625" y="1976.2732">changeTaskResult(SUCCESS)</text><polygon fill="#A80036" points="1749.375,2052.7832,1761.875,2057.7832,1749.375,2062.7832,1754.375,2057.7832" style="stroke: #A80036; stroke-width: 1.25;"/><line style="stroke: #A80036; stroke-width: 1.25;" x1="924.375" x2="1756.875" y1="2057.7832" y2="2057.7832"/><text fill="#000000" font-family="sans-serif" font-size="16.25" font-weight="bold" lengthAdjust="spacingAndGlyphs" textLength="17.5" x="933.125" y="2051.7126">32</text><text fill="#000000" font-family="sans-serif" font-size="16.25" lengthAdjust="spacingAndGlyphs" textLength="86.25" x="955.625" y="2051.7126">save(Tarefa)</text><!--MD5=[d406fb5dcbba8b290795850d78457357]
@startuml
autonumber

 actor "User" as U
participant ":AccomplishPendingTaskUI" as UI
participant ":AccomplishPendingTaskController" as CTRL
participant ":AuthzRegistry" as AR
participant "authz\n:AuthorizationService" as AS
participant ":CollaboradorRepository" as CR
participant ":TaskRepository" as TR
participant ":Task" as T

activate U
U-> UI : Iniciates the request to accomplish a task
activate UI
activate CTRL
         UI-> CTRL** : create()
         ref over CTRL
         US-1-2051_SD_Repo
         end ref
         deactivate CTRL



           deactivate CTRL

                  UI-> CTRL : getPendingTasks()
                  activate CTRL

                  CTRL-> TR : getPendingTasks(username)
                  activate TR

                  TR- -> CTRL : pendingTasks
                  deactivate TR

                  CTRL-> CR : findByUserName(username)
                  activate CR
                  CR- -> CTRL : collab
                  deactivate CR

                  CTRL- -> UI : pendingTasks
                  deactivate CTRL




UI -> UI : doShow()
UI - -> U: show pending tasks
U-> UI : choose task to accomplish
opt
UI -> CTRL : pendingTaskApproval(username)
CTRL -> CR : colaborador=findByUsername(username)
activate CR
deactivate CR
CTRL -> TR : findpendingTaskApprovalCollaborador(Colaborador)
activate TR
deactivate TR
CTRL -> UI : Tasks
UI -> CTRL : accomplishPendingTaskApproval(Task, formData, isTaskApproved)
CTRL -> T : validateForm(formData)
activate T
deactivate T
CTRL -> T : updateForm(formData)
activate T
deactivate T
opt
CTRL -> CTRL : criarTarefasFluxoValido(Task)
note left : isTaskApproved : true
CTRL -> T : changeTaskResult(SUCCESS)
activate T
deactivate T
end opt
opt
CTRL -> CTRL : criarTarefasFluxoInvalido(Task)
note left : isTaskApproved : false
CTRL -> T : changeTaskResult(DENIED)
activate T
deactivate T
end opt
CTRL -> TR : save(task)
activate TR
deactivate TR
end opt
opt
UI -> CTRL : accomplishPendingTaskResolution(Task, formData)
UI -> CTRL : PendingTaskResolution(username)
CTRL -> CR : collaborator=findByUsername(username)
activate CR
deactivate CR
CTRL -> TR : findPendingTaskResolution(Collaborador)
activate TR
deactivate TR
CTRL -> UI : Tasks
CTRL -> T : validateDataForm(dataForm)
activate T
deactivate T
CTRL -> T : updateDataForm(dataForm)
activate T
deactivate T
CTRL -> T : changeTaskResult(SUCCESS)
activate T
deactivate T
CTRL -> TR : save(Tarefa)
activate TR
deactivate TR
end opt
deactivate CTRL
deactivate UI

@enduml

PlantUML version 1.2020.07(Sun Apr 19 12:42:40 BST 2020)
(GPL source distribution)
Java Runtime: OpenJDK Runtime Environment
JVM: OpenJDK 64-Bit Server VM
Java Version: 11.0.6+8-b765.25
Operating System: Windows 10
Default Encoding: Cp1252
Language: pt
Country: PT
--></g></svg>