<?xml version="1.0" encoding="UTF-8" standalone="no"?><svg xmlns="http://www.w3.org/2000/svg" xmlns:xlink="http://www.w3.org/1999/xlink" contentScriptType="application/ecmascript" contentStyleType="text/css" height="933px" preserveAspectRatio="none" style="width:3831px;height:933px;" version="1.1" viewBox="0 0 3831 933" width="3831px" zoomAndPan="magnify"><defs><filter height="300%" id="f8ipl3se1b42b" width="300%" x="-1" y="-1"><feGaussianBlur result="blurOut" stdDeviation="2.0"/><feColorMatrix in="blurOut" result="blurOut2" type="matrix" values="0 0 0 0 0 0 0 0 0 0 0 0 0 0 0 0 0 0 .4 0"/><feOffset dx="4.0" dy="4.0" in="blurOut2" result="blurOut3"/><feBlend in="SourceGraphic" in2="blurOut3" mode="normal"/></filter></defs><g><!--MD5=[8fd473fd151a2794da4f2c8684676405]
cluster Presentation--><polygon fill="#DDDDDD" filter="url(#f8ipl3se1b42b)" points="3058,6,3154,6,3161,29.6094,3272,29.6094,3272,134,3058,134,3058,6" style="stroke:#000000;stroke-width:1.5;"/><line style="stroke:#000000;stroke-width:1.5;" x1="3058" x2="3161" y1="29.6094" y2="29.6094"/><text fill="#000000" font-family="sans-serif" font-size="14" font-weight="bold" lengthAdjust="spacing" textLength="90" x="3062" y="22.5332">Presentation</text><!--MD5=[d64883541e3d62e3241c4d12decf100d]
cluster Application--><polygon fill="#DDDDDD" filter="url(#f8ipl3se1b42b)" points="3004,167,3088,167,3095,190.6094,3326,190.6094,3326,406,3004,406,3004,167" style="stroke:#000000;stroke-width:1.5;"/><line style="stroke:#000000;stroke-width:1.5;" x1="3004" x2="3095" y1="190.6094" y2="190.6094"/><text fill="#000000" font-family="sans-serif" font-size="14" font-weight="bold" lengthAdjust="spacing" textLength="78" x="3008" y="183.5332">Application</text><!--MD5=[121a8bf1197281ab89ed693fab589f94]
cluster Domain--><polygon fill="#DDDDDD" filter="url(#f8ipl3se1b42b)" points="895,456,953,456,960,479.6094,3814,479.6094,3814,791,895,791,895,456" style="stroke:#000000;stroke-width:1.5;"/><line style="stroke:#000000;stroke-width:1.5;" x1="895" x2="960" y1="479.6094" y2="479.6094"/><text fill="#000000" font-family="sans-serif" font-size="14" font-weight="bold" lengthAdjust="spacing" textLength="52" x="899" y="472.5332">Domain</text><!--MD5=[44cc74aea8168fb4471e814fff38ed12]
cluster Builder--><polygon fill="#DDDDDD" filter="url(#f8ipl3se1b42b)" points="2752,500,2809,500,2816,523.6094,3066,523.6094,3066,767,2752,767,2752,500" style="stroke:#000000;stroke-width:1.5;"/><line style="stroke:#000000;stroke-width:1.5;" x1="2752" x2="2816" y1="523.6094" y2="523.6094"/><text fill="#000000" font-family="sans-serif" font-size="14" font-weight="bold" lengthAdjust="spacing" textLength="51" x="2756" y="516.5332">Builder</text><!--MD5=[bc6b40dadbf86ab6a0c8405a467a48af]
cluster Persistence--><polygon fill="#DDDDDD" filter="url(#f8ipl3se1b42b)" points="16,511.5,106,511.5,113,535.1094,871,535.1094,871,926,16,926,16,511.5" style="stroke:#000000;stroke-width:1.5;"/><line style="stroke:#000000;stroke-width:1.5;" x1="16" x2="113" y1="535.1094" y2="535.1094"/><text fill="#000000" font-family="sans-serif" font-size="14" font-weight="bold" lengthAdjust="spacing" textLength="84" x="20" y="528.0332">Persistence</text><!--MD5=[0d5799440b3bfefd92b00abfcd2c79b9]
cluster Factory--><polygon fill="#DDDDDD" filter="url(#f8ipl3se1b42b)" points="685,555.5,743,555.5,750,579.1094,847,579.1094,847,711.5,685,711.5,685,555.5" style="stroke:#000000;stroke-width:1.5;"/><line style="stroke:#000000;stroke-width:1.5;" x1="685" x2="750" y1="579.1094" y2="579.1094"/><text fill="#000000" font-family="sans-serif" font-size="14" font-weight="bold" lengthAdjust="spacing" textLength="52" x="689" y="572.0332">Factory</text><!--MD5=[71971f99a41bb66cf321ce46bb59f738]
cluster Repository--><polygon fill="#DDDDDD" filter="url(#f8ipl3se1b42b)" points="421,555.5,503,555.5,510,579.1094,661,579.1094,661,902,421,902,421,555.5" style="stroke:#000000;stroke-width:1.5;"/><line style="stroke:#000000;stroke-width:1.5;" x1="421" x2="510" y1="579.1094" y2="579.1094"/><text fill="#000000" font-family="sans-serif" font-size="14" font-weight="bold" lengthAdjust="spacing" textLength="76" x="425" y="572.0332">Repository</text><!--MD5=[93c84338c8133da314580433f8790b00]
class CollaboratorSpecificationUI--><rect codeLine="5" fill="#FEFECE" filter="url(#f8ipl3se1b42b)" height="56.1875" id="CollaboratorSpecificationUI" style="stroke:#A80036;stroke-width:1.5;" width="182" x="3074" y="62"/><ellipse cx="3089" cy="82.0938" fill="#ADD1B2" rx="11" ry="11" style="stroke:#A80036;stroke-width:1.0;"/><path d="M3091,78.5938 Q3091.2031,78.0938 3091.4375,77.8438 Q3091.6719,77.5938 3091.9375,77.5938 Q3092.4063,77.5938 3092.7031,77.875 Q3093,78.1563 3093,78.8125 L3093,80.375 Q3093,81.0313 3092.7188,81.3125 Q3092.4375,81.5938 3092,81.5938 Q3091.6094,81.5938 3091.3594,81.4219 Q3091.1094,81.25 3091,80.7969 Q3090.9531,80.4844 3090.7813,80.3125 Q3090.4688,79.9844 3089.9063,79.7969 Q3089.3438,79.5938 3088.7813,79.5938 Q3088.0781,79.5938 3087.4844,79.875 Q3086.9063,80.1563 3086.4531,80.7813 Q3086,81.4063 3086,82.2656 L3086,83.1875 Q3086,84.2188 3086.8438,84.9063 Q3087.6875,85.5938 3089.1875,85.5938 Q3090.0781,85.5938 3090.7031,85.3906 Q3091.0625,85.2813 3091.4688,84.9219 Q3091.7344,84.7188 3091.875,84.6563 Q3092.0156,84.5938 3092.1875,84.5938 Q3092.5156,84.5938 3092.75,84.8594 Q3093,85.1094 3093,85.4688 Q3093,85.8125 3092.6563,86.2188 Q3092.1563,86.8125 3091.3594,87.1406 Q3090.3125,87.5938 3089.0313,87.5938 Q3087.5313,87.5938 3086.3281,87 Q3085.3594,86.5313 3084.6719,85.5156 Q3084,84.5 3084,83.2969 L3084,82.2031 Q3084,80.9531 3084.5938,79.8594 Q3085.2031,78.7656 3086.25,78.1875 Q3087.3125,77.5938 3088.5,77.5938 Q3089.2188,77.5938 3089.8438,77.8438 Q3090.4688,78.0938 3091,78.5938 Z " fill="#000000"/><text fill="#000000" font-family="sans-serif" font-size="12" font-style="italic" lengthAdjust="spacing" textLength="82" x="3137" y="79.457">«presentation»</text><text fill="#000000" font-family="sans-serif" font-size="12" lengthAdjust="spacing" textLength="150" x="3103" y="94.5508">CollaboratorSpecificationUI</text><line style="stroke:#A80036;stroke-width:1.5;" x1="3075" x2="3255" y1="102.1875" y2="102.1875"/><line style="stroke:#A80036;stroke-width:1.5;" x1="3075" x2="3255" y1="110.1875" y2="110.1875"/><!--MD5=[f1bbe1cf2453e6a45e68131c63d26ace]
class CollaboratorSpecificationController--><rect codeLine="12" fill="#FEFECE" filter="url(#f8ipl3se1b42b)" height="166.875" id="CollaboratorSpecificationController" style="stroke:#A80036;stroke-width:1.5;" width="289" x="3020.5" y="223"/><ellipse cx="3064.75" cy="243.0938" fill="#ADD1B2" rx="11" ry="11" style="stroke:#A80036;stroke-width:1.0;"/><path d="M3066.75,239.5938 Q3066.9531,239.0938 3067.1875,238.8438 Q3067.4219,238.5938 3067.6875,238.5938 Q3068.1563,238.5938 3068.4531,238.875 Q3068.75,239.1563 3068.75,239.8125 L3068.75,241.375 Q3068.75,242.0313 3068.4688,242.3125 Q3068.1875,242.5938 3067.75,242.5938 Q3067.3594,242.5938 3067.1094,242.4219 Q3066.8594,242.25 3066.75,241.7969 Q3066.7031,241.4844 3066.5313,241.3125 Q3066.2188,240.9844 3065.6563,240.7969 Q3065.0938,240.5938 3064.5313,240.5938 Q3063.8281,240.5938 3063.2344,240.875 Q3062.6563,241.1563 3062.2031,241.7813 Q3061.75,242.4063 3061.75,243.2656 L3061.75,244.1875 Q3061.75,245.2188 3062.5938,245.9063 Q3063.4375,246.5938 3064.9375,246.5938 Q3065.8281,246.5938 3066.4531,246.3906 Q3066.8125,246.2813 3067.2188,245.9219 Q3067.4844,245.7188 3067.625,245.6563 Q3067.7656,245.5938 3067.9375,245.5938 Q3068.2656,245.5938 3068.5,245.8594 Q3068.75,246.1094 3068.75,246.4688 Q3068.75,246.8125 3068.4063,247.2188 Q3067.9063,247.8125 3067.1094,248.1406 Q3066.0625,248.5938 3064.7813,248.5938 Q3063.2813,248.5938 3062.0781,248 Q3061.1094,247.5313 3060.4219,246.5156 Q3059.75,245.5 3059.75,244.2969 L3059.75,243.2031 Q3059.75,241.9531 3060.3438,240.8594 Q3060.9531,239.7656 3062,239.1875 Q3063.0625,238.5938 3064.25,238.5938 Q3064.9688,238.5938 3065.5938,238.8438 Q3066.2188,239.0938 3066.75,239.5938 Z " fill="#000000"/><text fill="#000000" font-family="sans-serif" font-size="12" font-style="italic" lengthAdjust="spacing" textLength="67" x="3147.75" y="240.457">«aplication»</text><text fill="#000000" font-family="sans-serif" font-size="12" lengthAdjust="spacing" textLength="192" x="3085.25" y="255.5508">CollaboratorSpecificationController</text><line style="stroke:#A80036;stroke-width:1.5;" x1="3021.5" x2="3308.5" y1="263.1875" y2="263.1875"/><line style="stroke:#A80036;stroke-width:1.5;" x1="3021.5" x2="3308.5" y1="271.1875" y2="271.1875"/><text fill="#000000" font-family="sans-serif" font-size="11" lengthAdjust="spacing" textLength="45" x="3026.5" y="286.6064">+create()</text><text fill="#000000" font-family="sans-serif" font-size="11" lengthAdjust="spacing" textLength="274" x="3026.5" y="300.4424">+addColaborador(email, firstName, lastName, shortName,</text><text fill="#000000" font-family="sans-serif" font-size="11" lengthAdjust="spacing" textLength="196" x="3026.5" y="314.2783">completeName, mechanographicNumber,</text><text fill="#000000" font-family="sans-serif" font-size="11" lengthAdjust="spacing" textLength="166" x="3026.5" y="328.1143">address, phoneNumber, birthDate)</text><text fill="#000000" font-family="sans-serif" font-size="11" lengthAdjust="spacing" textLength="67" x="3026.5" y="341.9502">+getRoleList()</text><text fill="#000000" font-family="sans-serif" font-size="11" lengthAdjust="spacing" textLength="83" x="3026.5" y="355.7861">+addRoles(roles)</text><text fill="#000000" font-family="sans-serif" font-size="11" lengthAdjust="spacing" textLength="93" x="3026.5" y="369.6221">+getCollaborators()</text><text fill="#000000" font-family="sans-serif" font-size="11" lengthAdjust="spacing" textLength="96" x="3026.5" y="383.458">+saveCollaborator()</text><!--MD5=[f483d6e5de34a60207b28a5563be5e8b]
class Collaborator--><rect codeLine="24" fill="#FEFECE" filter="url(#f8ipl3se1b42b)" height="83.8594" id="Collaborator" style="stroke:#A80036;stroke-width:1.5;" width="371" x="911.5" y="611.5"/><ellipse cx="1058.75" cy="631.5938" fill="#ADD1B2" rx="11" ry="11" style="stroke:#A80036;stroke-width:1.0;"/><path d="M1060.75,628.0938 Q1060.9531,627.5938 1061.1875,627.3438 Q1061.4219,627.0938 1061.6875,627.0938 Q1062.1563,627.0938 1062.4531,627.375 Q1062.75,627.6563 1062.75,628.3125 L1062.75,629.875 Q1062.75,630.5313 1062.4688,630.8125 Q1062.1875,631.0938 1061.75,631.0938 Q1061.3594,631.0938 1061.1094,630.9219 Q1060.8594,630.75 1060.75,630.2969 Q1060.7031,629.9844 1060.5313,629.8125 Q1060.2188,629.4844 1059.6563,629.2969 Q1059.0938,629.0938 1058.5313,629.0938 Q1057.8281,629.0938 1057.2344,629.375 Q1056.6563,629.6563 1056.2031,630.2813 Q1055.75,630.9063 1055.75,631.7656 L1055.75,632.6875 Q1055.75,633.7188 1056.5938,634.4063 Q1057.4375,635.0938 1058.9375,635.0938 Q1059.8281,635.0938 1060.4531,634.8906 Q1060.8125,634.7813 1061.2188,634.4219 Q1061.4844,634.2188 1061.625,634.1563 Q1061.7656,634.0938 1061.9375,634.0938 Q1062.2656,634.0938 1062.5,634.3594 Q1062.75,634.6094 1062.75,634.9688 Q1062.75,635.3125 1062.4063,635.7188 Q1061.9063,636.3125 1061.1094,636.6406 Q1060.0625,637.0938 1058.7813,637.0938 Q1057.2813,637.0938 1056.0781,636.5 Q1055.1094,636.0313 1054.4219,635.0156 Q1053.75,634 1053.75,632.7969 L1053.75,631.7031 Q1053.75,630.4531 1054.3438,629.3594 Q1054.9531,628.2656 1056,627.6875 Q1057.0625,627.0938 1058.25,627.0938 Q1058.9688,627.0938 1059.5938,627.3438 Q1060.2188,627.5938 1060.75,628.0938 Z " fill="#000000"/><text fill="#000000" font-family="sans-serif" font-size="12" font-style="italic" lengthAdjust="spacing" textLength="43" x="1091.75" y="628.957">«entity»</text><text fill="#000000" font-family="sans-serif" font-size="12" lengthAdjust="spacing" textLength="68" x="1079.25" y="644.0508">Collaborator</text><line style="stroke:#A80036;stroke-width:1.5;" x1="912.5" x2="1281.5" y1="651.6875" y2="651.6875"/><line style="stroke:#A80036;stroke-width:1.5;" x1="912.5" x2="1281.5" y1="659.6875" y2="659.6875"/><text fill="#000000" font-family="sans-serif" font-size="11" lengthAdjust="spacing" textLength="359" x="917.5" y="675.1064">+create(systemUser, shortName, completeName, mechanographicNumber,</text><text fill="#000000" font-family="sans-serif" font-size="11" lengthAdjust="spacing" textLength="190" x="917.5" y="688.9424">address, phoneNumber, birthDate,Role)</text><!--MD5=[f338b7fac0450cb697edae5d9e4bb9ca]
class ShortName--><rect codeLine="28" fill="#FEFECE" filter="url(#f8ipl3se1b42b)" height="83.8594" id="ShortName" style="stroke:#A80036;stroke-width:1.5;" width="162" x="2166" y="611.5"/><ellipse cx="2204.85" cy="631.5938" fill="#ADD1B2" rx="11" ry="11" style="stroke:#A80036;stroke-width:1.0;"/><path d="M2206.85,628.0938 Q2207.0531,627.5938 2207.2875,627.3438 Q2207.5219,627.0938 2207.7875,627.0938 Q2208.2563,627.0938 2208.5531,627.375 Q2208.85,627.6563 2208.85,628.3125 L2208.85,629.875 Q2208.85,630.5313 2208.5688,630.8125 Q2208.2875,631.0938 2207.85,631.0938 Q2207.4594,631.0938 2207.2094,630.9219 Q2206.9594,630.75 2206.85,630.2969 Q2206.8031,629.9844 2206.6313,629.8125 Q2206.3188,629.4844 2205.7563,629.2969 Q2205.1938,629.0938 2204.6313,629.0938 Q2203.9281,629.0938 2203.3344,629.375 Q2202.7563,629.6563 2202.3031,630.2813 Q2201.85,630.9063 2201.85,631.7656 L2201.85,632.6875 Q2201.85,633.7188 2202.6938,634.4063 Q2203.5375,635.0938 2205.0375,635.0938 Q2205.9281,635.0938 2206.5531,634.8906 Q2206.9125,634.7813 2207.3188,634.4219 Q2207.5844,634.2188 2207.725,634.1563 Q2207.8656,634.0938 2208.0375,634.0938 Q2208.3656,634.0938 2208.6,634.3594 Q2208.85,634.6094 2208.85,634.9688 Q2208.85,635.3125 2208.5063,635.7188 Q2208.0063,636.3125 2207.2094,636.6406 Q2206.1625,637.0938 2204.8813,637.0938 Q2203.3813,637.0938 2202.1781,636.5 Q2201.2094,636.0313 2200.5219,635.0156 Q2199.85,634 2199.85,632.7969 L2199.85,631.7031 Q2199.85,630.4531 2200.4438,629.3594 Q2201.0531,628.2656 2202.1,627.6875 Q2203.1625,627.0938 2204.35,627.0938 Q2205.0688,627.0938 2205.6938,627.3438 Q2206.3188,627.5938 2206.85,628.0938 Z " fill="#000000"/><text fill="#000000" font-family="sans-serif" font-size="12" font-style="italic" lengthAdjust="spacing" textLength="81" x="2222.15" y="628.957">«value object»</text><text fill="#000000" font-family="sans-serif" font-size="12" lengthAdjust="spacing" textLength="63" x="2231.15" y="644.0508">ShortName</text><line style="stroke:#A80036;stroke-width:1.5;" x1="2167" x2="2327" y1="651.6875" y2="651.6875"/><line style="stroke:#A80036;stroke-width:1.5;" x1="2167" x2="2327" y1="659.6875" y2="659.6875"/><text fill="#000000" font-family="sans-serif" font-size="11" lengthAdjust="spacing" textLength="150" x="2172" y="675.1064">+createShortName(shortName)</text><text fill="#000000" font-family="sans-serif" font-size="11" lengthAdjust="spacing" textLength="101" x="2172" y="688.9424">-validate(shortName)</text><!--MD5=[cadca83c4c6337f88ae4425081101a2d]
class CompleteName--><rect codeLine="33" fill="#FEFECE" filter="url(#f8ipl3se1b42b)" height="83.8594" id="CompleteName" style="stroke:#A80036;stroke-width:1.5;" width="198" x="1933" y="611.5"/><ellipse cx="1983.75" cy="631.5938" fill="#ADD1B2" rx="11" ry="11" style="stroke:#A80036;stroke-width:1.0;"/><path d="M1985.75,628.0938 Q1985.9531,627.5938 1986.1875,627.3438 Q1986.4219,627.0938 1986.6875,627.0938 Q1987.1563,627.0938 1987.4531,627.375 Q1987.75,627.6563 1987.75,628.3125 L1987.75,629.875 Q1987.75,630.5313 1987.4688,630.8125 Q1987.1875,631.0938 1986.75,631.0938 Q1986.3594,631.0938 1986.1094,630.9219 Q1985.8594,630.75 1985.75,630.2969 Q1985.7031,629.9844 1985.5313,629.8125 Q1985.2188,629.4844 1984.6563,629.2969 Q1984.0938,629.0938 1983.5313,629.0938 Q1982.8281,629.0938 1982.2344,629.375 Q1981.6563,629.6563 1981.2031,630.2813 Q1980.75,630.9063 1980.75,631.7656 L1980.75,632.6875 Q1980.75,633.7188 1981.5938,634.4063 Q1982.4375,635.0938 1983.9375,635.0938 Q1984.8281,635.0938 1985.4531,634.8906 Q1985.8125,634.7813 1986.2188,634.4219 Q1986.4844,634.2188 1986.625,634.1563 Q1986.7656,634.0938 1986.9375,634.0938 Q1987.2656,634.0938 1987.5,634.3594 Q1987.75,634.6094 1987.75,634.9688 Q1987.75,635.3125 1987.4063,635.7188 Q1986.9063,636.3125 1986.1094,636.6406 Q1985.0625,637.0938 1983.7813,637.0938 Q1982.2813,637.0938 1981.0781,636.5 Q1980.1094,636.0313 1979.4219,635.0156 Q1978.75,634 1978.75,632.7969 L1978.75,631.7031 Q1978.75,630.4531 1979.3438,629.3594 Q1979.9531,628.2656 1981,627.6875 Q1982.0625,627.0938 1983.25,627.0938 Q1983.9688,627.0938 1984.5938,627.3438 Q1985.2188,627.5938 1985.75,628.0938 Z " fill="#000000"/><text fill="#000000" font-family="sans-serif" font-size="12" font-style="italic" lengthAdjust="spacing" textLength="81" x="2007.75" y="628.957">«value object»</text><text fill="#000000" font-family="sans-serif" font-size="12" lengthAdjust="spacing" textLength="88" x="2004.25" y="644.0508">CompleteName</text><line style="stroke:#A80036;stroke-width:1.5;" x1="1934" x2="2130" y1="651.6875" y2="651.6875"/><line style="stroke:#A80036;stroke-width:1.5;" x1="1934" x2="2130" y1="659.6875" y2="659.6875"/><text fill="#000000" font-family="sans-serif" font-size="11" lengthAdjust="spacing" textLength="186" x="1939" y="675.1064">+createCompleteName(completeName)</text><text fill="#000000" font-family="sans-serif" font-size="11" lengthAdjust="spacing" textLength="119" x="1939" y="688.9424">-validate(completeName)</text><!--MD5=[60b365d8f6d5c8e3e73e4be0aaaeb2da]
class NumeroMecanografico--><rect codeLine="38" fill="#FEFECE" filter="url(#f8ipl3se1b42b)" height="83.8594" id="NumeroMecanografico" style="stroke:#A80036;stroke-width:1.5;" width="274" x="1624" y="611.5"/><ellipse cx="1694.25" cy="631.5938" fill="#ADD1B2" rx="11" ry="11" style="stroke:#A80036;stroke-width:1.0;"/><path d="M1696.25,628.0938 Q1696.4531,627.5938 1696.6875,627.3438 Q1696.9219,627.0938 1697.1875,627.0938 Q1697.6563,627.0938 1697.9531,627.375 Q1698.25,627.6563 1698.25,628.3125 L1698.25,629.875 Q1698.25,630.5313 1697.9688,630.8125 Q1697.6875,631.0938 1697.25,631.0938 Q1696.8594,631.0938 1696.6094,630.9219 Q1696.3594,630.75 1696.25,630.2969 Q1696.2031,629.9844 1696.0313,629.8125 Q1695.7188,629.4844 1695.1563,629.2969 Q1694.5938,629.0938 1694.0313,629.0938 Q1693.3281,629.0938 1692.7344,629.375 Q1692.1563,629.6563 1691.7031,630.2813 Q1691.25,630.9063 1691.25,631.7656 L1691.25,632.6875 Q1691.25,633.7188 1692.0938,634.4063 Q1692.9375,635.0938 1694.4375,635.0938 Q1695.3281,635.0938 1695.9531,634.8906 Q1696.3125,634.7813 1696.7188,634.4219 Q1696.9844,634.2188 1697.125,634.1563 Q1697.2656,634.0938 1697.4375,634.0938 Q1697.7656,634.0938 1698,634.3594 Q1698.25,634.6094 1698.25,634.9688 Q1698.25,635.3125 1697.9063,635.7188 Q1697.4063,636.3125 1696.6094,636.6406 Q1695.5625,637.0938 1694.2813,637.0938 Q1692.7813,637.0938 1691.5781,636.5 Q1690.6094,636.0313 1689.9219,635.0156 Q1689.25,634 1689.25,632.7969 L1689.25,631.7031 Q1689.25,630.4531 1689.8438,629.3594 Q1690.4531,628.2656 1691.5,627.6875 Q1692.5625,627.0938 1693.75,627.0938 Q1694.4688,627.0938 1695.0938,627.3438 Q1695.7188,627.5938 1696.25,628.0938 Z " fill="#000000"/><text fill="#000000" font-family="sans-serif" font-size="12" font-style="italic" lengthAdjust="spacing" textLength="81" x="1736.75" y="628.957">«value object»</text><text fill="#000000" font-family="sans-serif" font-size="12" lengthAdjust="spacing" textLength="125" x="1714.75" y="644.0508">NumeroMecanografico</text><line style="stroke:#A80036;stroke-width:1.5;" x1="1625" x2="1897" y1="651.6875" y2="651.6875"/><line style="stroke:#A80036;stroke-width:1.5;" x1="1625" x2="1897" y1="659.6875" y2="659.6875"/><text fill="#000000" font-family="sans-serif" font-size="11" lengthAdjust="spacing" textLength="262" x="1630" y="675.1064">+createNumeroMecanografico(numeroMecanografico)</text><text fill="#000000" font-family="sans-serif" font-size="11" lengthAdjust="spacing" textLength="157" x="1630" y="688.9424">-validate(numeroMecanografico)</text><!--MD5=[0f39e4cb6f03951afbf6d14bd2505654]
class Address--><rect codeLine="43" fill="#FEFECE" filter="url(#f8ipl3se1b42b)" height="83.8594" id="Address" style="stroke:#A80036;stroke-width:1.5;" width="139" x="1340.5" y="611.5"/><ellipse cx="1369" cy="631.5938" fill="#ADD1B2" rx="11" ry="11" style="stroke:#A80036;stroke-width:1.0;"/><path d="M1371,628.0938 Q1371.2031,627.5938 1371.4375,627.3438 Q1371.6719,627.0938 1371.9375,627.0938 Q1372.4063,627.0938 1372.7031,627.375 Q1373,627.6563 1373,628.3125 L1373,629.875 Q1373,630.5313 1372.7188,630.8125 Q1372.4375,631.0938 1372,631.0938 Q1371.6094,631.0938 1371.3594,630.9219 Q1371.1094,630.75 1371,630.2969 Q1370.9531,629.9844 1370.7813,629.8125 Q1370.4688,629.4844 1369.9063,629.2969 Q1369.3438,629.0938 1368.7813,629.0938 Q1368.0781,629.0938 1367.4844,629.375 Q1366.9063,629.6563 1366.4531,630.2813 Q1366,630.9063 1366,631.7656 L1366,632.6875 Q1366,633.7188 1366.8438,634.4063 Q1367.6875,635.0938 1369.1875,635.0938 Q1370.0781,635.0938 1370.7031,634.8906 Q1371.0625,634.7813 1371.4688,634.4219 Q1371.7344,634.2188 1371.875,634.1563 Q1372.0156,634.0938 1372.1875,634.0938 Q1372.5156,634.0938 1372.75,634.3594 Q1373,634.6094 1373,634.9688 Q1373,635.3125 1372.6563,635.7188 Q1372.1563,636.3125 1371.3594,636.6406 Q1370.3125,637.0938 1369.0313,637.0938 Q1367.5313,637.0938 1366.3281,636.5 Q1365.3594,636.0313 1364.6719,635.0156 Q1364,634 1364,632.7969 L1364,631.7031 Q1364,630.4531 1364.5938,629.3594 Q1365.2031,628.2656 1366.25,627.6875 Q1367.3125,627.0938 1368.5,627.0938 Q1369.2188,627.0938 1369.8438,627.3438 Q1370.4688,627.5938 1371,628.0938 Z " fill="#000000"/><text fill="#000000" font-family="sans-serif" font-size="12" font-style="italic" lengthAdjust="spacing" textLength="81" x="1384" y="628.957">«value object»</text><text fill="#000000" font-family="sans-serif" font-size="12" lengthAdjust="spacing" textLength="46" x="1401.5" y="644.0508">Address</text><line style="stroke:#A80036;stroke-width:1.5;" x1="1341.5" x2="1478.5" y1="651.6875" y2="651.6875"/><line style="stroke:#A80036;stroke-width:1.5;" x1="1341.5" x2="1478.5" y1="659.6875" y2="659.6875"/><text fill="#000000" font-family="sans-serif" font-size="11" lengthAdjust="spacing" textLength="127" x="1346.5" y="675.1064">+createAddress(address)</text><text fill="#000000" font-family="sans-serif" font-size="11" lengthAdjust="spacing" textLength="89" x="1346.5" y="688.9424">-validate(address)</text><!--MD5=[b5e265065262f4f9caf90311e5706eef]
class PhoneNumber--><rect codeLine="48" fill="#FEFECE" filter="url(#f8ipl3se1b42b)" height="83.8594" id="PhoneNumber" style="stroke:#A80036;stroke-width:1.5;" width="191" x="2542.5" y="611.5"/><ellipse cx="2593.25" cy="631.5938" fill="#ADD1B2" rx="11" ry="11" style="stroke:#A80036;stroke-width:1.0;"/><path d="M2595.25,628.0938 Q2595.4531,627.5938 2595.6875,627.3438 Q2595.9219,627.0938 2596.1875,627.0938 Q2596.6563,627.0938 2596.9531,627.375 Q2597.25,627.6563 2597.25,628.3125 L2597.25,629.875 Q2597.25,630.5313 2596.9688,630.8125 Q2596.6875,631.0938 2596.25,631.0938 Q2595.8594,631.0938 2595.6094,630.9219 Q2595.3594,630.75 2595.25,630.2969 Q2595.2031,629.9844 2595.0313,629.8125 Q2594.7188,629.4844 2594.1563,629.2969 Q2593.5938,629.0938 2593.0313,629.0938 Q2592.3281,629.0938 2591.7344,629.375 Q2591.1563,629.6563 2590.7031,630.2813 Q2590.25,630.9063 2590.25,631.7656 L2590.25,632.6875 Q2590.25,633.7188 2591.0938,634.4063 Q2591.9375,635.0938 2593.4375,635.0938 Q2594.3281,635.0938 2594.9531,634.8906 Q2595.3125,634.7813 2595.7188,634.4219 Q2595.9844,634.2188 2596.125,634.1563 Q2596.2656,634.0938 2596.4375,634.0938 Q2596.7656,634.0938 2597,634.3594 Q2597.25,634.6094 2597.25,634.9688 Q2597.25,635.3125 2596.9063,635.7188 Q2596.4063,636.3125 2595.6094,636.6406 Q2594.5625,637.0938 2593.2813,637.0938 Q2591.7813,637.0938 2590.5781,636.5 Q2589.6094,636.0313 2588.9219,635.0156 Q2588.25,634 2588.25,632.7969 L2588.25,631.7031 Q2588.25,630.4531 2588.8438,629.3594 Q2589.4531,628.2656 2590.5,627.6875 Q2591.5625,627.0938 2592.75,627.0938 Q2593.4688,627.0938 2594.0938,627.3438 Q2594.7188,627.5938 2595.25,628.0938 Z " fill="#000000"/><text fill="#000000" font-family="sans-serif" font-size="12" font-style="italic" lengthAdjust="spacing" textLength="81" x="2613.75" y="628.957">«value object»</text><text fill="#000000" font-family="sans-serif" font-size="12" lengthAdjust="spacing" textLength="81" x="2613.75" y="644.0508">PhoneNumber</text><line style="stroke:#A80036;stroke-width:1.5;" x1="2543.5" x2="2732.5" y1="651.6875" y2="651.6875"/><line style="stroke:#A80036;stroke-width:1.5;" x1="2543.5" x2="2732.5" y1="659.6875" y2="659.6875"/><text fill="#000000" font-family="sans-serif" font-size="11" lengthAdjust="spacing" textLength="179" x="2548.5" y="675.1064">+createPhoneNumber(phoneNumber)</text><text fill="#000000" font-family="sans-serif" font-size="11" lengthAdjust="spacing" textLength="116" x="2548.5" y="688.9424">-validate(phoneNumber)</text><!--MD5=[ec957f90f125634d426aef890efece94]
class BirthDate--><rect codeLine="53" fill="#FEFECE" filter="url(#f8ipl3se1b42b)" height="83.8594" id="BirthDate" style="stroke:#A80036;stroke-width:1.5;" width="144" x="2363" y="611.5"/><ellipse cx="2393.75" cy="631.5938" fill="#ADD1B2" rx="11" ry="11" style="stroke:#A80036;stroke-width:1.0;"/><path d="M2395.75,628.0938 Q2395.9531,627.5938 2396.1875,627.3438 Q2396.4219,627.0938 2396.6875,627.0938 Q2397.1563,627.0938 2397.4531,627.375 Q2397.75,627.6563 2397.75,628.3125 L2397.75,629.875 Q2397.75,630.5313 2397.4688,630.8125 Q2397.1875,631.0938 2396.75,631.0938 Q2396.3594,631.0938 2396.1094,630.9219 Q2395.8594,630.75 2395.75,630.2969 Q2395.7031,629.9844 2395.5313,629.8125 Q2395.2188,629.4844 2394.6563,629.2969 Q2394.0938,629.0938 2393.5313,629.0938 Q2392.8281,629.0938 2392.2344,629.375 Q2391.6563,629.6563 2391.2031,630.2813 Q2390.75,630.9063 2390.75,631.7656 L2390.75,632.6875 Q2390.75,633.7188 2391.5938,634.4063 Q2392.4375,635.0938 2393.9375,635.0938 Q2394.8281,635.0938 2395.4531,634.8906 Q2395.8125,634.7813 2396.2188,634.4219 Q2396.4844,634.2188 2396.625,634.1563 Q2396.7656,634.0938 2396.9375,634.0938 Q2397.2656,634.0938 2397.5,634.3594 Q2397.75,634.6094 2397.75,634.9688 Q2397.75,635.3125 2397.4063,635.7188 Q2396.9063,636.3125 2396.1094,636.6406 Q2395.0625,637.0938 2393.7813,637.0938 Q2392.2813,637.0938 2391.0781,636.5 Q2390.1094,636.0313 2389.4219,635.0156 Q2388.75,634 2388.75,632.7969 L2388.75,631.7031 Q2388.75,630.4531 2389.3438,629.3594 Q2389.9531,628.2656 2391,627.6875 Q2392.0625,627.0938 2393.25,627.0938 Q2393.9688,627.0938 2394.5938,627.3438 Q2395.2188,627.5938 2395.75,628.0938 Z " fill="#000000"/><text fill="#000000" font-family="sans-serif" font-size="12" font-style="italic" lengthAdjust="spacing" textLength="81" x="2409.25" y="628.957">«value object»</text><text fill="#000000" font-family="sans-serif" font-size="12" lengthAdjust="spacing" textLength="51" x="2424.25" y="644.0508">BirthDate</text><line style="stroke:#A80036;stroke-width:1.5;" x1="2364" x2="2506" y1="651.6875" y2="651.6875"/><line style="stroke:#A80036;stroke-width:1.5;" x1="2364" x2="2506" y1="659.6875" y2="659.6875"/><text fill="#000000" font-family="sans-serif" font-size="11" lengthAdjust="spacing" textLength="132" x="2369" y="675.1064">+createBirthDate(birthDate)</text><text fill="#000000" font-family="sans-serif" font-size="11" lengthAdjust="spacing" textLength="92" x="2369" y="688.9424">-validate(birthDate)</text><!--MD5=[a3638c1e5b65d287ecad7f06f5c0f212]
class Role--><rect codeLine="58" fill="#FEFECE" filter="url(#f8ipl3se1b42b)" height="70.0234" id="Role" style="stroke:#A80036;stroke-width:1.5;" width="74" x="1515" y="618.5"/><ellipse cx="1530" cy="638.5938" fill="#ADD1B2" rx="11" ry="11" style="stroke:#A80036;stroke-width:1.0;"/><path d="M1532,635.0938 Q1532.2031,634.5938 1532.4375,634.3438 Q1532.6719,634.0938 1532.9375,634.0938 Q1533.4063,634.0938 1533.7031,634.375 Q1534,634.6563 1534,635.3125 L1534,636.875 Q1534,637.5313 1533.7188,637.8125 Q1533.4375,638.0938 1533,638.0938 Q1532.6094,638.0938 1532.3594,637.9219 Q1532.1094,637.75 1532,637.2969 Q1531.9531,636.9844 1531.7813,636.8125 Q1531.4688,636.4844 1530.9063,636.2969 Q1530.3438,636.0938 1529.7813,636.0938 Q1529.0781,636.0938 1528.4844,636.375 Q1527.9063,636.6563 1527.4531,637.2813 Q1527,637.9063 1527,638.7656 L1527,639.6875 Q1527,640.7188 1527.8438,641.4063 Q1528.6875,642.0938 1530.1875,642.0938 Q1531.0781,642.0938 1531.7031,641.8906 Q1532.0625,641.7813 1532.4688,641.4219 Q1532.7344,641.2188 1532.875,641.1563 Q1533.0156,641.0938 1533.1875,641.0938 Q1533.5156,641.0938 1533.75,641.3594 Q1534,641.6094 1534,641.9688 Q1534,642.3125 1533.6563,642.7188 Q1533.1563,643.3125 1532.3594,643.6406 Q1531.3125,644.0938 1530.0313,644.0938 Q1528.5313,644.0938 1527.3281,643.5 Q1526.3594,643.0313 1525.6719,642.0156 Q1525,641 1525,639.7969 L1525,638.7031 Q1525,637.4531 1525.5938,636.3594 Q1526.2031,635.2656 1527.25,634.6875 Q1528.3125,634.0938 1529.5,634.0938 Q1530.2188,634.0938 1530.8438,634.3438 Q1531.4688,634.5938 1532,635.0938 Z " fill="#000000"/><text fill="#000000" font-family="sans-serif" font-size="12" font-style="italic" lengthAdjust="spacing" textLength="46" x="1542" y="635.957">«enum»</text><text fill="#000000" font-family="sans-serif" font-size="12" lengthAdjust="spacing" textLength="26" x="1552" y="651.0508">Role</text><line style="stroke:#A80036;stroke-width:1.5;" x1="1516" x2="1588" y1="658.6875" y2="658.6875"/><line style="stroke:#A80036;stroke-width:1.5;" x1="1516" x2="1588" y1="666.6875" y2="666.6875"/><text fill="#000000" font-family="sans-serif" font-size="11" lengthAdjust="spacing" textLength="46" x="1521" y="682.1064">+values()</text><!--MD5=[7add3abbba9a945a681f7e44bfe039aa]
class RandomRawPassword--><rect codeLine="62" fill="#FEFECE" filter="url(#f8ipl3se1b42b)" height="70.0234" id="RandomRawPassword" style="stroke:#A80036;stroke-width:1.5;" width="161" x="3084.5" y="618.5"/><ellipse cx="3099.5" cy="638.5938" fill="#ADD1B2" rx="11" ry="11" style="stroke:#A80036;stroke-width:1.0;"/><path d="M3101.5,635.0938 Q3101.7031,634.5938 3101.9375,634.3438 Q3102.1719,634.0938 3102.4375,634.0938 Q3102.9063,634.0938 3103.2031,634.375 Q3103.5,634.6563 3103.5,635.3125 L3103.5,636.875 Q3103.5,637.5313 3103.2188,637.8125 Q3102.9375,638.0938 3102.5,638.0938 Q3102.1094,638.0938 3101.8594,637.9219 Q3101.6094,637.75 3101.5,637.2969 Q3101.4531,636.9844 3101.2813,636.8125 Q3100.9688,636.4844 3100.4063,636.2969 Q3099.8438,636.0938 3099.2813,636.0938 Q3098.5781,636.0938 3097.9844,636.375 Q3097.4063,636.6563 3096.9531,637.2813 Q3096.5,637.9063 3096.5,638.7656 L3096.5,639.6875 Q3096.5,640.7188 3097.3438,641.4063 Q3098.1875,642.0938 3099.6875,642.0938 Q3100.5781,642.0938 3101.2031,641.8906 Q3101.5625,641.7813 3101.9688,641.4219 Q3102.2344,641.2188 3102.375,641.1563 Q3102.5156,641.0938 3102.6875,641.0938 Q3103.0156,641.0938 3103.25,641.3594 Q3103.5,641.6094 3103.5,641.9688 Q3103.5,642.3125 3103.1563,642.7188 Q3102.6563,643.3125 3101.8594,643.6406 Q3100.8125,644.0938 3099.5313,644.0938 Q3098.0313,644.0938 3096.8281,643.5 Q3095.8594,643.0313 3095.1719,642.0156 Q3094.5,641 3094.5,639.7969 L3094.5,638.7031 Q3094.5,637.4531 3095.0938,636.3594 Q3095.7031,635.2656 3096.75,634.6875 Q3097.8125,634.0938 3099,634.0938 Q3099.7188,634.0938 3100.3438,634.3438 Q3100.9688,634.5938 3101.5,635.0938 Z " fill="#000000"/><text fill="#000000" font-family="sans-serif" font-size="12" font-style="italic" lengthAdjust="spacing" textLength="56" x="3150" y="635.957">«domain»</text><text fill="#000000" font-family="sans-serif" font-size="12" lengthAdjust="spacing" textLength="129" x="3113.5" y="651.0508">RandomRawPassword</text><line style="stroke:#A80036;stroke-width:1.5;" x1="3085.5" x2="3244.5" y1="658.6875" y2="658.6875"/><line style="stroke:#A80036;stroke-width:1.5;" x1="3085.5" x2="3244.5" y1="666.6875" y2="666.6875"/><text fill="#000000" font-family="sans-serif" font-size="11" lengthAdjust="spacing" textLength="51" x="3090.5" y="682.1064">+toString()</text><!--MD5=[0b1f3d1c1978f9b151365e147219e3b1]
class AuthzRegistry--><rect codeLine="66" fill="#FEFECE" filter="url(#f8ipl3se1b42b)" height="70.0234" id="AuthzRegistry" style="stroke:#A80036;stroke-width:1.5;" width="106" x="3281" y="618.5"/><ellipse cx="3296" cy="638.5938" fill="#ADD1B2" rx="11" ry="11" style="stroke:#A80036;stroke-width:1.0;"/><path d="M3298,635.0938 Q3298.2031,634.5938 3298.4375,634.3438 Q3298.6719,634.0938 3298.9375,634.0938 Q3299.4063,634.0938 3299.7031,634.375 Q3300,634.6563 3300,635.3125 L3300,636.875 Q3300,637.5313 3299.7188,637.8125 Q3299.4375,638.0938 3299,638.0938 Q3298.6094,638.0938 3298.3594,637.9219 Q3298.1094,637.75 3298,637.2969 Q3297.9531,636.9844 3297.7813,636.8125 Q3297.4688,636.4844 3296.9063,636.2969 Q3296.3438,636.0938 3295.7813,636.0938 Q3295.0781,636.0938 3294.4844,636.375 Q3293.9063,636.6563 3293.4531,637.2813 Q3293,637.9063 3293,638.7656 L3293,639.6875 Q3293,640.7188 3293.8438,641.4063 Q3294.6875,642.0938 3296.1875,642.0938 Q3297.0781,642.0938 3297.7031,641.8906 Q3298.0625,641.7813 3298.4688,641.4219 Q3298.7344,641.2188 3298.875,641.1563 Q3299.0156,641.0938 3299.1875,641.0938 Q3299.5156,641.0938 3299.75,641.3594 Q3300,641.6094 3300,641.9688 Q3300,642.3125 3299.6563,642.7188 Q3299.1563,643.3125 3298.3594,643.6406 Q3297.3125,644.0938 3296.0313,644.0938 Q3294.5313,644.0938 3293.3281,643.5 Q3292.3594,643.0313 3291.6719,642.0156 Q3291,641 3291,639.7969 L3291,638.7031 Q3291,637.4531 3291.5938,636.3594 Q3292.2031,635.2656 3293.25,634.6875 Q3294.3125,634.0938 3295.5,634.0938 Q3296.2188,634.0938 3296.8438,634.3438 Q3297.4688,634.5938 3298,635.0938 Z " fill="#000000"/><text fill="#000000" font-family="sans-serif" font-size="12" font-style="italic" lengthAdjust="spacing" textLength="56" x="3319" y="635.957">«domain»</text><text fill="#000000" font-family="sans-serif" font-size="12" lengthAdjust="spacing" textLength="74" x="3310" y="651.0508">AuthzRegistry</text><line style="stroke:#A80036;stroke-width:1.5;" x1="3282" x2="3386" y1="658.6875" y2="658.6875"/><line style="stroke:#A80036;stroke-width:1.5;" x1="3282" x2="3386" y1="666.6875" y2="666.6875"/><text fill="#000000" font-family="sans-serif" font-size="11" lengthAdjust="spacing" textLength="73" x="3287" y="682.1064">+userService()</text><!--MD5=[e4ac4745f81aec2db60ad4ddae80b659]
class UserService--><rect codeLine="70" fill="#FEFECE" filter="url(#f8ipl3se1b42b)" height="70.0234" id="UserService" style="stroke:#A80036;stroke-width:1.5;" width="375" x="3422.5" y="618.5"/><ellipse cx="3572.25" cy="638.5938" fill="#ADD1B2" rx="11" ry="11" style="stroke:#A80036;stroke-width:1.0;"/><path d="M3574.25,635.0938 Q3574.4531,634.5938 3574.6875,634.3438 Q3574.9219,634.0938 3575.1875,634.0938 Q3575.6563,634.0938 3575.9531,634.375 Q3576.25,634.6563 3576.25,635.3125 L3576.25,636.875 Q3576.25,637.5313 3575.9688,637.8125 Q3575.6875,638.0938 3575.25,638.0938 Q3574.8594,638.0938 3574.6094,637.9219 Q3574.3594,637.75 3574.25,637.2969 Q3574.2031,636.9844 3574.0313,636.8125 Q3573.7188,636.4844 3573.1563,636.2969 Q3572.5938,636.0938 3572.0313,636.0938 Q3571.3281,636.0938 3570.7344,636.375 Q3570.1563,636.6563 3569.7031,637.2813 Q3569.25,637.9063 3569.25,638.7656 L3569.25,639.6875 Q3569.25,640.7188 3570.0938,641.4063 Q3570.9375,642.0938 3572.4375,642.0938 Q3573.3281,642.0938 3573.9531,641.8906 Q3574.3125,641.7813 3574.7188,641.4219 Q3574.9844,641.2188 3575.125,641.1563 Q3575.2656,641.0938 3575.4375,641.0938 Q3575.7656,641.0938 3576,641.3594 Q3576.25,641.6094 3576.25,641.9688 Q3576.25,642.3125 3575.9063,642.7188 Q3575.4063,643.3125 3574.6094,643.6406 Q3573.5625,644.0938 3572.2813,644.0938 Q3570.7813,644.0938 3569.5781,643.5 Q3568.6094,643.0313 3567.9219,642.0156 Q3567.25,641 3567.25,639.7969 L3567.25,638.7031 Q3567.25,637.4531 3567.8438,636.3594 Q3568.4531,635.2656 3569.5,634.6875 Q3570.5625,634.0938 3571.75,634.0938 Q3572.4688,634.0938 3573.0938,634.3438 Q3573.7188,634.5938 3574.25,635.0938 Z " fill="#000000"/><text fill="#000000" font-family="sans-serif" font-size="12" font-style="italic" lengthAdjust="spacing" textLength="56" x="3598.25" y="635.957">«domain»</text><text fill="#000000" font-family="sans-serif" font-size="12" lengthAdjust="spacing" textLength="67" x="3592.75" y="651.0508">UserService</text><line style="stroke:#A80036;stroke-width:1.5;" x1="3423.5" x2="3796.5" y1="658.6875" y2="658.6875"/><line style="stroke:#A80036;stroke-width:1.5;" x1="3423.5" x2="3796.5" y1="666.6875" y2="666.6875"/><text fill="#000000" font-family="sans-serif" font-size="11" lengthAdjust="spacing" textLength="363" x="3428.5" y="682.1064">+registerNewUser(username, password, firstName, lastName, email, roles)</text><!--MD5=[164e5e9cf855eb64ce2728330d9f659f]
class CollaboratorBuilder--><rect codeLine="75" fill="#FEFECE" filter="url(#f8ipl3se1b42b)" height="194.5469" id="CollaboratorBuilder" style="stroke:#A80036;stroke-width:1.5;" width="281" x="2768.5" y="556"/><ellipse cx="2851.25" cy="576.0938" fill="#ADD1B2" rx="11" ry="11" style="stroke:#A80036;stroke-width:1.0;"/><path d="M2853.25,572.5938 Q2853.4531,572.0938 2853.6875,571.8438 Q2853.9219,571.5938 2854.1875,571.5938 Q2854.6563,571.5938 2854.9531,571.875 Q2855.25,572.1563 2855.25,572.8125 L2855.25,574.375 Q2855.25,575.0313 2854.9688,575.3125 Q2854.6875,575.5938 2854.25,575.5938 Q2853.8594,575.5938 2853.6094,575.4219 Q2853.3594,575.25 2853.25,574.7969 Q2853.2031,574.4844 2853.0313,574.3125 Q2852.7188,573.9844 2852.1563,573.7969 Q2851.5938,573.5938 2851.0313,573.5938 Q2850.3281,573.5938 2849.7344,573.875 Q2849.1563,574.1563 2848.7031,574.7813 Q2848.25,575.4063 2848.25,576.2656 L2848.25,577.1875 Q2848.25,578.2188 2849.0938,578.9063 Q2849.9375,579.5938 2851.4375,579.5938 Q2852.3281,579.5938 2852.9531,579.3906 Q2853.3125,579.2813 2853.7188,578.9219 Q2853.9844,578.7188 2854.125,578.6563 Q2854.2656,578.5938 2854.4375,578.5938 Q2854.7656,578.5938 2855,578.8594 Q2855.25,579.1094 2855.25,579.4688 Q2855.25,579.8125 2854.9063,580.2188 Q2854.4063,580.8125 2853.6094,581.1406 Q2852.5625,581.5938 2851.2813,581.5938 Q2849.7813,581.5938 2848.5781,581 Q2847.6094,580.5313 2846.9219,579.5156 Q2846.25,578.5 2846.25,577.2969 L2846.25,576.2031 Q2846.25,574.9531 2846.8438,573.8594 Q2847.4531,572.7656 2848.5,572.1875 Q2849.5625,571.5938 2850.75,571.5938 Q2851.4688,571.5938 2852.0938,571.8438 Q2852.7188,572.0938 2853.25,572.5938 Z " fill="#000000"/><text fill="#000000" font-family="sans-serif" font-size="12" font-style="italic" lengthAdjust="spacing" textLength="53" x="2898.75" y="573.457">«builder»</text><text fill="#000000" font-family="sans-serif" font-size="12" lengthAdjust="spacing" textLength="107" x="2871.75" y="588.5508">CollaboratorBuilder</text><line style="stroke:#A80036;stroke-width:1.5;" x1="2769.5" x2="3048.5" y1="596.1875" y2="596.1875"/><line style="stroke:#A80036;stroke-width:1.5;" x1="2769.5" x2="3048.5" y1="604.1875" y2="604.1875"/><text fill="#000000" font-family="sans-serif" font-size="11" lengthAdjust="spacing" textLength="45" x="2774.5" y="619.6064">+create()</text><text fill="#000000" font-family="sans-serif" font-size="11" lengthAdjust="spacing" textLength="140" x="2774.5" y="633.4424">+withShortName(shortName)</text><text fill="#000000" font-family="sans-serif" font-size="11" lengthAdjust="spacing" textLength="176" x="2774.5" y="647.2783">+withCompleteName(completeName)</text><text fill="#000000" font-family="sans-serif" font-size="11" lengthAdjust="spacing" textLength="269" x="2774.5" y="661.1143">+withMechanographicNumber(mechanographicNumber)</text><text fill="#000000" font-family="sans-serif" font-size="11" lengthAdjust="spacing" textLength="117" x="2774.5" y="674.9502">+withAddress(address)</text><text fill="#000000" font-family="sans-serif" font-size="11" lengthAdjust="spacing" textLength="169" x="2774.5" y="688.7861">+withPhoneNumber(phoneNumber)</text><text fill="#000000" font-family="sans-serif" font-size="11" lengthAdjust="spacing" textLength="122" x="2774.5" y="702.6221">+withBirthDate(birthDate)</text><text fill="#000000" font-family="sans-serif" font-size="11" lengthAdjust="spacing" textLength="77" x="2774.5" y="716.458">+withRole(Role)</text><text fill="#000000" font-family="sans-serif" font-size="11" lengthAdjust="spacing" textLength="152" x="2774.5" y="730.2939">+withSystemUser(systemUser)</text><text fill="#000000" font-family="sans-serif" font-size="11" lengthAdjust="spacing" textLength="36" x="2774.5" y="744.1299">+build()</text><!--MD5=[e8c189551b7885b999ad7cefb30fc2a3]
class PersistenceContext--><rect codeLine="91" fill="#FEFECE" filter="url(#f8ipl3se1b42b)" height="70.0234" id="PersistenceContext" style="stroke:#A80036;stroke-width:1.5;" width="139" x="32.5" y="618.5"/><ellipse cx="47.5" cy="638.5938" fill="#ADD1B2" rx="11" ry="11" style="stroke:#A80036;stroke-width:1.0;"/><path d="M49.5,635.0938 Q49.7031,634.5938 49.9375,634.3438 Q50.1719,634.0938 50.4375,634.0938 Q50.9063,634.0938 51.2031,634.375 Q51.5,634.6563 51.5,635.3125 L51.5,636.875 Q51.5,637.5313 51.2188,637.8125 Q50.9375,638.0938 50.5,638.0938 Q50.1094,638.0938 49.8594,637.9219 Q49.6094,637.75 49.5,637.2969 Q49.4531,636.9844 49.2813,636.8125 Q48.9688,636.4844 48.4063,636.2969 Q47.8438,636.0938 47.2813,636.0938 Q46.5781,636.0938 45.9844,636.375 Q45.4063,636.6563 44.9531,637.2813 Q44.5,637.9063 44.5,638.7656 L44.5,639.6875 Q44.5,640.7188 45.3438,641.4063 Q46.1875,642.0938 47.6875,642.0938 Q48.5781,642.0938 49.2031,641.8906 Q49.5625,641.7813 49.9688,641.4219 Q50.2344,641.2188 50.375,641.1563 Q50.5156,641.0938 50.6875,641.0938 Q51.0156,641.0938 51.25,641.3594 Q51.5,641.6094 51.5,641.9688 Q51.5,642.3125 51.1563,642.7188 Q50.6563,643.3125 49.8594,643.6406 Q48.8125,644.0938 47.5313,644.0938 Q46.0313,644.0938 44.8281,643.5 Q43.8594,643.0313 43.1719,642.0156 Q42.5,641 42.5,639.7969 L42.5,638.7031 Q42.5,637.4531 43.0938,636.3594 Q43.7031,635.2656 44.75,634.6875 Q45.8125,634.0938 47,634.0938 Q47.7188,634.0938 48.3438,634.3438 Q48.9688,634.5938 49.5,635.0938 Z " fill="#000000"/><text fill="#000000" font-family="sans-serif" font-size="12" font-style="italic" lengthAdjust="spacing" textLength="77" x="76.5" y="635.957">«persistence»</text><text fill="#000000" font-family="sans-serif" font-size="12" lengthAdjust="spacing" textLength="107" x="61.5" y="651.0508">PersistenceContext</text><line style="stroke:#A80036;stroke-width:1.5;" x1="33.5" x2="170.5" y1="658.6875" y2="658.6875"/><line style="stroke:#A80036;stroke-width:1.5;" x1="33.5" x2="170.5" y1="666.6875" y2="666.6875"/><text fill="#000000" font-family="sans-serif" font-size="11" lengthAdjust="spacing" textLength="71" x="38.5" y="682.1064">+repositories()</text><!--MD5=[b8e4c95865208c934bfcfda4f90bf50c]
class AppSettings--><rect codeLine="95" fill="#FEFECE" filter="url(#f8ipl3se1b42b)" height="83.8594" id="AppSettings" style="stroke:#A80036;stroke-width:1.5;" width="130" x="275" y="611.5"/><ellipse cx="301.25" cy="631.5938" fill="#ADD1B2" rx="11" ry="11" style="stroke:#A80036;stroke-width:1.0;"/><path d="M303.25,628.0938 Q303.4531,627.5938 303.6875,627.3438 Q303.9219,627.0938 304.1875,627.0938 Q304.6563,627.0938 304.9531,627.375 Q305.25,627.6563 305.25,628.3125 L305.25,629.875 Q305.25,630.5313 304.9688,630.8125 Q304.6875,631.0938 304.25,631.0938 Q303.8594,631.0938 303.6094,630.9219 Q303.3594,630.75 303.25,630.2969 Q303.2031,629.9844 303.0313,629.8125 Q302.7188,629.4844 302.1563,629.2969 Q301.5938,629.0938 301.0313,629.0938 Q300.3281,629.0938 299.7344,629.375 Q299.1563,629.6563 298.7031,630.2813 Q298.25,630.9063 298.25,631.7656 L298.25,632.6875 Q298.25,633.7188 299.0938,634.4063 Q299.9375,635.0938 301.4375,635.0938 Q302.3281,635.0938 302.9531,634.8906 Q303.3125,634.7813 303.7188,634.4219 Q303.9844,634.2188 304.125,634.1563 Q304.2656,634.0938 304.4375,634.0938 Q304.7656,634.0938 305,634.3594 Q305.25,634.6094 305.25,634.9688 Q305.25,635.3125 304.9063,635.7188 Q304.4063,636.3125 303.6094,636.6406 Q302.5625,637.0938 301.2813,637.0938 Q299.7813,637.0938 298.5781,636.5 Q297.6094,636.0313 296.9219,635.0156 Q296.25,634 296.25,632.7969 L296.25,631.7031 Q296.25,630.4531 296.8438,629.3594 Q297.4531,628.2656 298.5,627.6875 Q299.5625,627.0938 300.75,627.0938 Q301.4688,627.0938 302.0938,627.3438 Q302.7188,627.5938 303.25,628.0938 Z " fill="#000000"/><text fill="#000000" font-family="sans-serif" font-size="12" font-style="italic" lengthAdjust="spacing" textLength="77" x="315.75" y="628.957">«persistence»</text><text fill="#000000" font-family="sans-serif" font-size="12" lengthAdjust="spacing" textLength="66" x="321.25" y="644.0508">AppSettings</text><line style="stroke:#A80036;stroke-width:1.5;" x1="276" x2="404" y1="651.6875" y2="651.6875"/><line style="stroke:#A80036;stroke-width:1.5;" x1="276" x2="404" y1="659.6875" y2="659.6875"/><text fill="#000000" font-family="sans-serif" font-size="11" lengthAdjust="spacing" textLength="55" x="281" y="675.1064">+instance()</text><text fill="#000000" font-family="sans-serif" font-size="11" lengthAdjust="spacing" textLength="118" x="281" y="688.9424">+getRepositoryFactory()</text><!--MD5=[48590afff58a68e2fcba47824d6f8a11]
class RepositoryFactory--><rect codeLine="101" fill="#FEFECE" filter="url(#f8ipl3se1b42b)" height="83.8594" id="RepositoryFactory" style="stroke:#A80036;stroke-width:1.5;" width="130" x="701" y="611.5"/><ellipse cx="716" cy="631.5938" fill="#ADD1B2" rx="11" ry="11" style="stroke:#A80036;stroke-width:1.0;"/><path d="M718,628.0938 Q718.2031,627.5938 718.4375,627.3438 Q718.6719,627.0938 718.9375,627.0938 Q719.4063,627.0938 719.7031,627.375 Q720,627.6563 720,628.3125 L720,629.875 Q720,630.5313 719.7188,630.8125 Q719.4375,631.0938 719,631.0938 Q718.6094,631.0938 718.3594,630.9219 Q718.1094,630.75 718,630.2969 Q717.9531,629.9844 717.7813,629.8125 Q717.4688,629.4844 716.9063,629.2969 Q716.3438,629.0938 715.7813,629.0938 Q715.0781,629.0938 714.4844,629.375 Q713.9063,629.6563 713.4531,630.2813 Q713,630.9063 713,631.7656 L713,632.6875 Q713,633.7188 713.8438,634.4063 Q714.6875,635.0938 716.1875,635.0938 Q717.0781,635.0938 717.7031,634.8906 Q718.0625,634.7813 718.4688,634.4219 Q718.7344,634.2188 718.875,634.1563 Q719.0156,634.0938 719.1875,634.0938 Q719.5156,634.0938 719.75,634.3594 Q720,634.6094 720,634.9688 Q720,635.3125 719.6563,635.7188 Q719.1563,636.3125 718.3594,636.6406 Q717.3125,637.0938 716.0313,637.0938 Q714.5313,637.0938 713.3281,636.5 Q712.3594,636.0313 711.6719,635.0156 Q711,634 711,632.7969 L711,631.7031 Q711,630.4531 711.5938,629.3594 Q712.2031,628.2656 713.25,627.6875 Q714.3125,627.0938 715.5,627.0938 Q716.2188,627.0938 716.8438,627.3438 Q717.4688,627.5938 718,628.0938 Z " fill="#000000"/><text fill="#000000" font-family="sans-serif" font-size="12" font-style="italic" lengthAdjust="spacing" textLength="50" x="754" y="628.957">«factory»</text><text fill="#000000" font-family="sans-serif" font-size="12" lengthAdjust="spacing" textLength="98" x="730" y="644.0508">RepositoryFactory</text><line style="stroke:#A80036;stroke-width:1.5;" x1="702" x2="830" y1="651.6875" y2="651.6875"/><line style="stroke:#A80036;stroke-width:1.5;" x1="702" x2="830" y1="659.6875" y2="659.6875"/><text fill="#000000" font-family="sans-serif" font-size="11" lengthAdjust="spacing" textLength="77" x="707" y="675.1064">+collaborators()</text><text fill="#000000" font-family="sans-serif" font-size="11" lengthAdjust="spacing" textLength="38" x="707" y="688.9424">+roles()</text><!--MD5=[7d8ac9ac30c94f5163e620de18c62996]
class CollaboratorRepository--><rect codeLine="108" fill="#FEFECE" filter="url(#f8ipl3se1b42b)" height="83.8594" id="CollaboratorRepository" style="stroke:#A80036;stroke-width:1.5;" width="159" x="484.5" y="611.5"/><ellipse cx="499.5" cy="631.5938" fill="#ADD1B2" rx="11" ry="11" style="stroke:#A80036;stroke-width:1.0;"/><path d="M501.5,628.0938 Q501.7031,627.5938 501.9375,627.3438 Q502.1719,627.0938 502.4375,627.0938 Q502.9063,627.0938 503.2031,627.375 Q503.5,627.6563 503.5,628.3125 L503.5,629.875 Q503.5,630.5313 503.2188,630.8125 Q502.9375,631.0938 502.5,631.0938 Q502.1094,631.0938 501.8594,630.9219 Q501.6094,630.75 501.5,630.2969 Q501.4531,629.9844 501.2813,629.8125 Q500.9688,629.4844 500.4063,629.2969 Q499.8438,629.0938 499.2813,629.0938 Q498.5781,629.0938 497.9844,629.375 Q497.4063,629.6563 496.9531,630.2813 Q496.5,630.9063 496.5,631.7656 L496.5,632.6875 Q496.5,633.7188 497.3438,634.4063 Q498.1875,635.0938 499.6875,635.0938 Q500.5781,635.0938 501.2031,634.8906 Q501.5625,634.7813 501.9688,634.4219 Q502.2344,634.2188 502.375,634.1563 Q502.5156,634.0938 502.6875,634.0938 Q503.0156,634.0938 503.25,634.3594 Q503.5,634.6094 503.5,634.9688 Q503.5,635.3125 503.1563,635.7188 Q502.6563,636.3125 501.8594,636.6406 Q500.8125,637.0938 499.5313,637.0938 Q498.0313,637.0938 496.8281,636.5 Q495.8594,636.0313 495.1719,635.0156 Q494.5,634 494.5,632.7969 L494.5,631.7031 Q494.5,630.4531 495.0938,629.3594 Q495.7031,628.2656 496.75,627.6875 Q497.8125,627.0938 499,627.0938 Q499.7188,627.0938 500.3438,627.3438 Q500.9688,627.5938 501.5,628.0938 Z " fill="#000000"/><text fill="#000000" font-family="sans-serif" font-size="12" font-style="italic" lengthAdjust="spacing" textLength="68" x="543" y="628.957">«repository»</text><text fill="#000000" font-family="sans-serif" font-size="12" lengthAdjust="spacing" textLength="127" x="513.5" y="644.0508">CollaboratorRepository</text><line style="stroke:#A80036;stroke-width:1.5;" x1="485.5" x2="642.5" y1="651.6875" y2="651.6875"/><line style="stroke:#A80036;stroke-width:1.5;" x1="485.5" x2="642.5" y1="659.6875" y2="659.6875"/><text fill="#000000" font-family="sans-serif" font-size="11" lengthAdjust="spacing" textLength="24" x="490.5" y="675.1064">+all()</text><text fill="#000000" font-family="sans-serif" font-size="11" lengthAdjust="spacing" textLength="95" x="490.5" y="688.9424">+save(collaborator)</text><!--MD5=[fb5a3980349928d6991386b21c626158]
class CollaboratorRepositoryInterface--><rect codeLine="113" fill="#FEFECE" filter="url(#f8ipl3se1b42b)" height="48" id="CollaboratorRepositoryInterface" style="stroke:#A80036;stroke-width:1.5;" width="208" x="437" y="838"/><ellipse cx="452" cy="854" fill="#B4A7E5" rx="11" ry="11" style="stroke:#A80036;stroke-width:1.0;"/><path d="M453,851 L453,857 L455,857 L455.4844,857 L456,857.625 L456,858 L456,858.375 L455.4844,859 L455,859 L449,859 L448.5156,859 L448,858.375 L448,858 L448,857.625 L448.5156,857 L449,857 L451,857 L451,851 L449,851 L448.5156,851 L448,850.375 L448,850 L448,849.625 L448.5156,849 L449,849 L455,849 L455.4844,849 L456,849.625 L456,850 L456,850.375 L455.4844,851 L455,851 L453,851 Z " fill="#000000"/><text fill="#000000" font-family="sans-serif" font-size="12" font-style="italic" lengthAdjust="spacing" textLength="176" x="466" y="858.9102">CollaboratorRepositoryInterface</text><line style="stroke:#A80036;stroke-width:1.5;" x1="438" x2="644" y1="870" y2="870"/><line style="stroke:#A80036;stroke-width:1.5;" x1="438" x2="644" y1="878" y2="878"/><!--MD5=[eb3433108b320f38a9b86aba7717ec12]
link CollaboratorSpecificationUI to CollaboratorSpecificationController--><path codeLine="121" d="M3165,118.17 C3165,143.2 3165,181.76 3165,217.41 " fill="none" id="CollaboratorSpecificationUI-to-CollaboratorSpecificationController" style="stroke:#A80036;stroke-width:1.0;stroke-dasharray:7.0,7.0;"/><polygon fill="#A80036" points="3165,222.64,3169,213.64,3165,217.64,3161,213.64,3165,222.64" style="stroke:#A80036;stroke-width:1.0;"/><!--MD5=[5d6bd615180f56874b8ef30ed2319198]
link CollaboratorSpecificationController to CollaboratorBuilder--><path codeLine="122" d="M3020.48,308.64 C2498.52,313.47 737.09,336.08 655,422 C649.47,427.78 649.35,434.33 655,440 C665.34,450.38 2752.01,441.23 2765,448 C2807.72,470.27 2840.46,511.65 2863.85,551.4 " fill="none" id="CollaboratorSpecificationController-to-CollaboratorBuilder" style="stroke:#A80036;stroke-width:1.0;stroke-dasharray:7.0,7.0;"/><polygon fill="#A80036" points="2866.37,555.73,2865.3084,545.9385,2863.8586,551.4065,2858.3907,549.9567,2866.37,555.73" style="stroke:#A80036;stroke-width:1.0;"/><!--MD5=[3ed01820e4ceee59de10e9959e59d459]
link CollaboratorSpecificationController to PersistenceContext--><path codeLine="123" d="M3020.24,312.94 C2633.89,327.71 1546.27,370.87 642,422 C471.22,431.66 408.66,366.99 258,448 C189.8,484.67 142.42,565.49 118.94,613.83 " fill="none" id="CollaboratorSpecificationController-to-PersistenceContext" style="stroke:#A80036;stroke-width:1.0;stroke-dasharray:7.0,7.0;"/><polygon fill="#A80036" points="116.74,618.4,124.2295,612.0041,118.8958,613.8886,117.0113,608.5549,116.74,618.4" style="stroke:#A80036;stroke-width:1.0;"/><!--MD5=[087ccd6aae2a45edac7d0e681d6d8716]
link CollaboratorSpecificationController to RandomRawPassword--><path codeLine="124" d="M3165,390.14 C3165,460.82 3165,559.42 3165,613.38 " fill="none" id="CollaboratorSpecificationController-to-RandomRawPassword" style="stroke:#A80036;stroke-width:1.0;stroke-dasharray:7.0,7.0;"/><polygon fill="#A80036" points="3165,618.46,3169,609.46,3165,613.46,3161,609.46,3165,618.46" style="stroke:#A80036;stroke-width:1.0;"/><!--MD5=[b900fc22ddac0a281ea59176488e21d6]
link CollaboratorSpecificationController to AuthzRegistry--><path codeLine="125" d="M3228.26,390.22 C3240.76,408.65 3253.07,428.53 3263,448 C3290.97,502.85 3312.22,571.26 3323.9,613.4 " fill="none" id="CollaboratorSpecificationController-to-AuthzRegistry" style="stroke:#A80036;stroke-width:1.0;stroke-dasharray:7.0,7.0;"/><polygon fill="#A80036" points="3325.27,618.41,3326.7391,608.6713,3323.9436,613.5892,3319.0257,610.7936,3325.27,618.41" style="stroke:#A80036;stroke-width:1.0;"/><!--MD5=[15c8ef94e227b65d81965100ec8908d5]
link CollaboratorSpecificationController to UserService--><path codeLine="126" d="M3309.74,384.22 C3342.12,403.54 3375.56,425.3 3405,448 C3471.66,499.4 3538.82,571.05 3577.31,614.47 " fill="none" id="CollaboratorSpecificationController-to-UserService" style="stroke:#A80036;stroke-width:1.0;stroke-dasharray:7.0,7.0;"/><polygon fill="#A80036" points="3580.72,618.33,3577.7659,608.9346,3577.4124,614.5804,3571.7666,614.2268,3580.72,618.33" style="stroke:#A80036;stroke-width:1.0;"/><!--MD5=[d66efb439816738ddd3e9d5fff4bf3a7]
link AppSettings to RepositoryFactory--><path codeLine="128" d="M345.25,611.3 C353.23,567.27 372.97,500.37 421,469 C510.31,410.67 568.79,415.38 661,469 C711.47,498.35 739.68,562.01 753.86,606.29 " fill="none" id="AppSettings-to-RepositoryFactory" style="stroke:#A80036;stroke-width:1.0;"/><polygon fill="#A80036" points="755.43,611.32,756.5468,601.5347,753.9305,606.5501,748.915,603.9339,755.43,611.32" style="stroke:#A80036;stroke-width:1.0;"/><text fill="#000000" font-family="sans-serif" font-size="13" lengthAdjust="spacing" textLength="43" x="657.5" y="436.4951">creates</text><!--MD5=[27fe1c91fe18bafc5695938053528609]
link PersistenceContext to AppSettings--><path codeLine="129" d="M171.8,653.5 C202.53,653.5 238.57,653.5 269.39,653.5 " fill="none" id="PersistenceContext-to-AppSettings" style="stroke:#A80036;stroke-width:1.0;"/><polygon fill="#A80036" points="274.69,653.5,265.69,649.5,269.69,653.5,265.69,657.5,274.69,653.5" style="stroke:#A80036;stroke-width:1.0;"/><text fill="#000000" font-family="sans-serif" font-size="13" lengthAdjust="spacing" textLength="67" x="189.75" y="646.9951">implements</text><!--MD5=[d5e2752559733233d551f65818949b4e]
link RepositoryFactory to CollaboratorRepository--><path codeLine="131" d="M700.84,653.5 C684.3,653.5 666.28,653.5 648.91,653.5 " fill="none" id="RepositoryFactory-to-CollaboratorRepository" style="stroke:#A80036;stroke-width:1.0;"/><polygon fill="#A80036" points="643.55,653.5,652.55,657.5,648.55,653.5,652.55,649.5,643.55,653.5" style="stroke:#A80036;stroke-width:1.0;"/><text fill="#000000" font-family="sans-serif" font-size="13" lengthAdjust="spacing" textLength="21" x="661.75" y="646.9951">has</text><text fill="#000000" font-family="sans-serif" font-size="13" lengthAdjust="spacing" textLength="7" x="685.9012" y="650.0986">1</text><text fill="#000000" font-family="sans-serif" font-size="13" lengthAdjust="spacing" textLength="7" x="651.4657" y="650.2561">1</text><!--MD5=[275670b01fcf667cdfea022428a37f7a]
link CollaboratorRepository to CollaboratorRepositoryInterface--><path codeLine="132" d="M559.4,695.79 C554.88,736.4 548.09,797.3 544.15,832.71 " fill="none" id="CollaboratorRepository-to-CollaboratorRepositoryInterface" style="stroke:#A80036;stroke-width:1.0;stroke-dasharray:7.0,7.0;"/><polygon fill="#A80036" points="543.59,837.74,548.546,829.2289,544.1343,832.7697,540.5935,828.358,543.59,837.74" style="stroke:#A80036;stroke-width:1.0;"/><!--MD5=[e3ed578b90dd6415261c95d17075385f]
link CollaboratorRepository to Collaborator--><path codeLine="134" d="M578.07,611.11 C595.4,566.59 629.56,498.94 685,469 C748.35,434.79 778.61,446.5 847,469 C929.48,496.14 1007.08,562.1 1053.33,607.33 " fill="none" id="CollaboratorRepository-to-Collaborator" style="stroke:#A80036;stroke-width:1.0;"/><polygon fill="#A80036" points="1057.15,611.09,1053.5588,601.9192,1053.5931,607.576,1047.9364,607.6102,1057.15,611.09" style="stroke:#A80036;stroke-width:1.0;"/><text fill="#000000" font-family="sans-serif" font-size="13" lengthAdjust="spacing" textLength="33" x="792.5" y="436.4951">saves</text><text fill="#000000" font-family="sans-serif" font-size="13" lengthAdjust="spacing" textLength="7" x="572.7546" y="600.6134">1</text><text fill="#000000" font-family="sans-serif" font-size="13" lengthAdjust="spacing" textLength="5" x="1045.4005" y="600.5902">*</text><!--MD5=[720a9a454e208d6aeb02f55992318bcd]
link CollaboratorBuilder to Collaborator--><path codeLine="135" d="M2857.49,555.7 C2834.16,521.79 2803.16,487.62 2765,469 C2621.01,398.73 1473.93,415.22 1323,469 C1246.2,496.37 1176.62,562.27 1135.55,607.42 " fill="none" id="CollaboratorBuilder-to-Collaborator" style="stroke:#A80036;stroke-width:1.0;"/><polygon fill="#A80036" points="1132.16,611.18,1141.1539,607.1662,1135.5048,607.4635,1135.2075,601.8145,1132.16,611.18" style="stroke:#A80036;stroke-width:1.0;"/><text fill="#000000" font-family="sans-serif" font-size="13" lengthAdjust="spacing" textLength="43" x="1284.5" y="436.4951">creates</text><text fill="#000000" font-family="sans-serif" font-size="13" lengthAdjust="spacing" textLength="7" x="2846.2783" y="545.1256">1</text><text fill="#000000" font-family="sans-serif" font-size="13" lengthAdjust="spacing" textLength="5" x="1138.1621" y="600.6946">*</text><!--MD5=[d22bc09bf5195203640f66a3337dfcbe]
link Collaborator to ShortName--><path codeLine="137" d="M1132.16,611.18 C1172.72,566.01 1244.04,497.14 1323,469 C1409.45,438.19 2070.34,421.71 2149,469 C2198.24,498.6 2224.06,562.2 2236.6,606.4 " fill="none" id="Collaborator-to-ShortName" style="stroke:#A80036;stroke-width:1.0;"/><polygon fill="#A80036" points="2237.99,611.42,2239.4248,601.6762,2236.6466,606.6038,2231.719,603.8256,2237.99,611.42" style="stroke:#A80036;stroke-width:1.0;"/><text fill="#000000" font-family="sans-serif" font-size="13" lengthAdjust="spacing" textLength="21" x="1337.5" y="436.4951">has</text><text fill="#000000" font-family="sans-serif" font-size="13" lengthAdjust="spacing" textLength="7" x="1130.2058" y="600.6946">1</text><text fill="#000000" font-family="sans-serif" font-size="13" lengthAdjust="spacing" textLength="7" x="2228.918" y="600.6614">1</text><!--MD5=[48c622d472d667764da07d20d8b811ec]
link Collaborator to CompleteName--><path codeLine="138" d="M1132.16,611.18 C1172.72,566.01 1244.04,497.14 1323,469 C1447.13,424.77 1800.66,405.27 1916,469 C1968.56,498.04 2000.54,561.99 2017.25,606.4 " fill="none" id="Collaborator-to-CompleteName" style="stroke:#A80036;stroke-width:1.0;"/><polygon fill="#A80036" points="2019.02,611.17,2019.6579,601.3418,2017.2895,606.479,2012.1523,604.1106,2019.02,611.17" style="stroke:#A80036;stroke-width:1.0;"/><text fill="#000000" font-family="sans-serif" font-size="13" lengthAdjust="spacing" textLength="21" x="1367.5" y="436.4951">has</text><text fill="#000000" font-family="sans-serif" font-size="13" lengthAdjust="spacing" textLength="7" x="1138.3214" y="600.6946">1</text><text fill="#000000" font-family="sans-serif" font-size="13" lengthAdjust="spacing" textLength="7" x="2009.3935" y="600.683">1</text><!--MD5=[f904c2f8a465426d1ef66730e14f9f7d]
link Collaborator to NumeroMecanografico--><path codeLine="139" d="M1132.16,611.18 C1172.72,566.01 1244.04,497.14 1323,469 C1441.9,426.63 1492.67,415.51 1607,469 C1667.28,497.21 1712.24,561.9 1737.56,606.66 " fill="none" id="Collaborator-to-NumeroMecanografico" style="stroke:#A80036;stroke-width:1.0;"/><polygon fill="#A80036" points="1740.09,611.19,1739.1777,601.3835,1737.6448,606.8287,1732.1996,605.2958,1740.09,611.19" style="stroke:#A80036;stroke-width:1.0;"/><text fill="#000000" font-family="sans-serif" font-size="13" lengthAdjust="spacing" textLength="83" x="1396.5" y="436.4951">is identified by</text><text fill="#000000" font-family="sans-serif" font-size="13" lengthAdjust="spacing" textLength="7" x="1130.2058" y="600.6946">1</text><text fill="#000000" font-family="sans-serif" font-size="13" lengthAdjust="spacing" textLength="7" x="1729.1997" y="600.7062">1</text><!--MD5=[88332974cd7c8ff67bc130ee7f987c8e]
link Collaborator to Role--><path codeLine="140" d="M1134.52,611.28 C1208.8,532.79 1377.74,380.11 1497,469 C1541.42,502.11 1551.38,569.7 1552.87,613.23 " fill="none" id="Collaborator-to-Role" style="stroke:#A80036;stroke-width:1.0;"/><polygon fill="#A80036" points="1553.02,618.42,1556.7613,609.3094,1552.8772,613.422,1548.7646,609.5379,1553.02,618.42" style="stroke:#A80036;stroke-width:1.0;"/><text fill="#000000" font-family="sans-serif" font-size="13" lengthAdjust="spacing" textLength="21" x="1486.5" y="436.4951">has</text><text fill="#000000" font-family="sans-serif" font-size="13" lengthAdjust="spacing" textLength="7" x="1141.3139" y="600.4982">1</text><text fill="#000000" font-family="sans-serif" font-size="13" lengthAdjust="spacing" textLength="7" x="1545.5473" y="607.7343">1</text><!--MD5=[ad690bf35cce9ca8717407802e52e6b0]
link Collaborator to Address--><path codeLine="141" d="M1282.69,653.5 C1301.02,653.5 1318.8,653.5 1334.97,653.5 " fill="none" id="Collaborator-to-Address" style="stroke:#A80036;stroke-width:1.0;"/><polygon fill="#A80036" points="1340.39,653.5,1331.39,649.5,1335.39,653.5,1331.39,657.5,1340.39,653.5" style="stroke:#A80036;stroke-width:1.0;"/><text fill="#000000" font-family="sans-serif" font-size="13" lengthAdjust="spacing" textLength="21" x="1301" y="646.9951">has</text><text fill="#000000" font-family="sans-serif" font-size="13" lengthAdjust="spacing" textLength="7" x="1290.6715" y="650.668">1</text><text fill="#000000" font-family="sans-serif" font-size="13" lengthAdjust="spacing" textLength="7" x="1325.3936" y="650.147">1</text><!--MD5=[3362ed3ae5a9e5cbc027fbfeff814e21]
link Collaborator to PhoneNumber--><path codeLine="142" d="M1132.16,611.18 C1172.72,566.01 1244.04,497.14 1323,469 C1448.81,424.17 2408.48,403.73 2525,469 C2577.01,498.14 2607.97,562.06 2623.98,606.44 " fill="none" id="Collaborator-to-PhoneNumber" style="stroke:#A80036;stroke-width:1.0;"/><polygon fill="#A80036" points="2625.67,611.21,2626.4326,601.3907,2623.9992,606.4974,2618.8925,604.064,2625.67,611.21" style="stroke:#A80036;stroke-width:1.0;"/><text fill="#000000" font-family="sans-serif" font-size="13" lengthAdjust="spacing" textLength="21" x="1714.5" y="436.4951">has</text><text fill="#000000" font-family="sans-serif" font-size="13" lengthAdjust="spacing" textLength="7" x="1147.7178" y="600.3975">1</text><text fill="#000000" font-family="sans-serif" font-size="13" lengthAdjust="spacing" textLength="7" x="2616.1471" y="600.7294">1</text><!--MD5=[dfbc31d49ce19e9e78ec22b58e38968f]
link Collaborator to BirthDate--><path codeLine="143" d="M1132.16,611.18 C1172.72,566.01 1244.04,497.14 1323,469 C1430.07,430.84 2249.74,408.56 2346,469 C2393.56,498.86 2416.31,562.09 2426.76,606.15 " fill="none" id="Collaborator-to-BirthDate" style="stroke:#A80036;stroke-width:1.0;"/><polygon fill="#A80036" points="2427.92,611.16,2429.7855,601.4894,2426.7915,606.289,2421.992,603.295,2427.92,611.16" style="stroke:#A80036;stroke-width:1.0;"/><text fill="#000000" font-family="sans-serif" font-size="13" lengthAdjust="spacing" textLength="21" x="1942.5" y="436.4951">has</text><text fill="#000000" font-family="sans-serif" font-size="13" lengthAdjust="spacing" textLength="7" x="1159.7053" y="600.3975">1</text><text fill="#000000" font-family="sans-serif" font-size="13" lengthAdjust="spacing" textLength="7" x="2419.2338" y="600.6714">1</text><!--MD5=[00b1aa58aa444c36b5aaf2b863050fcf]
@startuml
skinparam classAttributeIconSize 0


package "Presentation" #DDDDDD {
class CollaboratorSpecificationUI <<presentation>>{

}
}


package "Application" #DDDDDD {
class CollaboratorSpecificationController <<aplication>>{
+create()
+addColaborador(email, firstName, lastName, shortName, \ncompleteName, mechanographicNumber,\naddress, phoneNumber, birthDate)
+getRoleList()
+addRoles(roles)
+getCollaborators()
+saveCollaborator()
}
}


package "Domain" #DDDDDD {
class Collaborator <<entity>>{
+create(systemUser, shortName, completeName, mechanographicNumber,\naddress, phoneNumber, birthDate,Role)
}

class ShortName <<value object>>{
+createShortName(shortName)
-validate(shortName)
}

class CompleteName <<value object>>{
+createCompleteName(completeName)
-validate(completeName)
}

class NumeroMecanografico <<value object>>{
+createNumeroMecanografico(numeroMecanografico)
-validate(numeroMecanografico)
}

class Address <<value object>>{
+createAddress(address)
-validate(address)
}

class PhoneNumber <<value object>>{
+createPhoneNumber(phoneNumber)
-validate(phoneNumber)
}

class BirthDate <<value object>>{
+createBirthDate(birthDate)
-validate(birthDate)
}

class Role <<enum>>{
+values()
}

class RandomRawPassword <<domain>>{
+toString()
}

class AuthzRegistry <<domain>>{
+userService()
}

class UserService <<domain>>{
+registerNewUser(username, password, firstName, lastName, email, roles)
}

package Builder #DDDDDD {
class CollaboratorBuilder <<builder>>{
+create()
+withShortName(shortName)
+withCompleteName(completeName)
+withMechanographicNumber(mechanographicNumber)
+withAddress(address)
+withPhoneNumber(phoneNumber)
+withBirthDate(birthDate)
+withRole(Role)
+withSystemUser(systemUser)
+build()
}
}
}

package Persistence #DDDDDD {
class PersistenceContext <<persistence>>{
+repositories()
}

class AppSettings <<persistence>>{
+instance()
+getRepositoryFactory()
}

package Factory #DDDDDD {
class RepositoryFactory <<factory>>{
+collaborators()
+roles()
}
}

package "Repository" #DDDDDD {
class CollaboratorRepository <<repository>>{
+all()
+save(collaborator)
}

interface CollaboratorRepositoryInterface{

}
}

}


CollaboratorSpecificationUI ..> CollaboratorSpecificationController
CollaboratorSpecificationController ..> CollaboratorBuilder
CollaboratorSpecificationController ..> PersistenceContext
CollaboratorSpecificationController ..> RandomRawPassword
CollaboratorSpecificationController ..> AuthzRegistry
CollaboratorSpecificationController ..> UserService

AppSettings -> RepositoryFactory : creates
PersistenceContext -> AppSettings : implements

RepositoryFactory "1" -> "1" CollaboratorRepository : has
CollaboratorRepository ..> CollaboratorRepositoryInterface

CollaboratorRepository "1" -> "*" Collaborator : saves
CollaboratorBuilder "1" -> "*" Collaborator : creates

Collaborator "1" -> "1" ShortName : has
Collaborator "1" -> "1" CompleteName : has
Collaborator "1" -> "1" NumeroMecanografico : is identified by
Collaborator "1" -> "1" Role : has
Collaborator "1" -> "1" Address : has
Collaborator "1" -> "1" PhoneNumber : has
Collaborator "1" -> "1" BirthDate : has

@enduml

PlantUML version 1.2021.5(Sun Apr 25 12:20:28 BST 2021)
(GPL source distribution)
Java Runtime: OpenJDK Runtime Environment
JVM: OpenJDK 64-Bit Server VM
Default Encoding: Cp1252
Language: pt
Country: PT
--></g></svg>