<?xml version="1.0" encoding="UTF-8" standalone="no"?><svg xmlns="http://www.w3.org/2000/svg" xmlns:xlink="http://www.w3.org/1999/xlink" contentScriptType="application/ecmascript" contentStyleType="text/css" height="933px" preserveAspectRatio="none" style="width:3858px;height:933px;" version="1.1" viewBox="0 0 3858 933" width="3858px" zoomAndPan="magnify"><defs><filter height="300%" id="fnv2e1oesejnb" width="300%" x="-1" y="-1"><feGaussianBlur result="blurOut" stdDeviation="2.0"/><feColorMatrix in="blurOut" result="blurOut2" type="matrix" values="0 0 0 0 0 0 0 0 0 0 0 0 0 0 0 0 0 0 .4 0"/><feOffset dx="4.0" dy="4.0" in="blurOut2" result="blurOut3"/><feBlend in="SourceGraphic" in2="blurOut3" mode="normal"/></filter></defs><g><!--MD5=[8fd473fd151a2794da4f2c8684676405]
cluster Presentation--><polygon fill="#DDDDDD" filter="url(#fnv2e1oesejnb)" points="3085,6,3181,6,3188,29.6094,3299,29.6094,3299,134,3085,134,3085,6" style="stroke:#000000;stroke-width:1.5;"/><line style="stroke:#000000;stroke-width:1.5;" x1="3085" x2="3188" y1="29.6094" y2="29.6094"/><text fill="#000000" font-family="sans-serif" font-size="14" font-weight="bold" lengthAdjust="spacing" textLength="90" x="3089" y="22.5332">Presentation</text><!--MD5=[d64883541e3d62e3241c4d12decf100d]
cluster Application--><polygon fill="#DDDDDD" filter="url(#fnv2e1oesejnb)" points="3031,167,3115,167,3122,190.6094,3353,190.6094,3353,406,3031,406,3031,167" style="stroke:#000000;stroke-width:1.5;"/><line style="stroke:#000000;stroke-width:1.5;" x1="3031" x2="3122" y1="190.6094" y2="190.6094"/><text fill="#000000" font-family="sans-serif" font-size="14" font-weight="bold" lengthAdjust="spacing" textLength="78" x="3035" y="183.5332">Application</text><!--MD5=[121a8bf1197281ab89ed693fab589f94]
cluster Domain--><polygon fill="#DDDDDD" filter="url(#fnv2e1oesejnb)" points="895,456,953,456,960,479.6094,3841,479.6094,3841,791,895,791,895,456" style="stroke:#000000;stroke-width:1.5;"/><line style="stroke:#000000;stroke-width:1.5;" x1="895" x2="960" y1="479.6094" y2="479.6094"/><text fill="#000000" font-family="sans-serif" font-size="14" font-weight="bold" lengthAdjust="spacing" textLength="52" x="899" y="472.5332">Domain</text><!--MD5=[44cc74aea8168fb4471e814fff38ed12]
cluster Builder--><polygon fill="#DDDDDD" filter="url(#fnv2e1oesejnb)" points="2779,500,2836,500,2843,523.6094,3093,523.6094,3093,767,2779,767,2779,500" style="stroke:#000000;stroke-width:1.5;"/><line style="stroke:#000000;stroke-width:1.5;" x1="2779" x2="2843" y1="523.6094" y2="523.6094"/><text fill="#000000" font-family="sans-serif" font-size="14" font-weight="bold" lengthAdjust="spacing" textLength="51" x="2783" y="516.5332">Builder</text><!--MD5=[bc6b40dadbf86ab6a0c8405a467a48af]
cluster Persistence--><polygon fill="#DDDDDD" filter="url(#fnv2e1oesejnb)" points="16,511.5,106,511.5,113,535.1094,871,535.1094,871,926,16,926,16,511.5" style="stroke:#000000;stroke-width:1.5;"/><line style="stroke:#000000;stroke-width:1.5;" x1="16" x2="113" y1="535.1094" y2="535.1094"/><text fill="#000000" font-family="sans-serif" font-size="14" font-weight="bold" lengthAdjust="spacing" textLength="84" x="20" y="528.0332">Persistence</text><!--MD5=[0d5799440b3bfefd92b00abfcd2c79b9]
cluster Factory--><polygon fill="#DDDDDD" filter="url(#fnv2e1oesejnb)" points="685,555.5,743,555.5,750,579.1094,847,579.1094,847,711.5,685,711.5,685,555.5" style="stroke:#000000;stroke-width:1.5;"/><line style="stroke:#000000;stroke-width:1.5;" x1="685" x2="750" y1="579.1094" y2="579.1094"/><text fill="#000000" font-family="sans-serif" font-size="14" font-weight="bold" lengthAdjust="spacing" textLength="52" x="689" y="572.0332">Factory</text><!--MD5=[71971f99a41bb66cf321ce46bb59f738]
cluster Repository--><polygon fill="#DDDDDD" filter="url(#fnv2e1oesejnb)" points="421,555.5,503,555.5,510,579.1094,661,579.1094,661,902,421,902,421,555.5" style="stroke:#000000;stroke-width:1.5;"/><line style="stroke:#000000;stroke-width:1.5;" x1="421" x2="510" y1="579.1094" y2="579.1094"/><text fill="#000000" font-family="sans-serif" font-size="14" font-weight="bold" lengthAdjust="spacing" textLength="76" x="425" y="572.0332">Repository</text><!--MD5=[93c84338c8133da314580433f8790b00]
class CollaboratorSpecificationUI--><rect codeLine="5" fill="#FEFECE" filter="url(#fnv2e1oesejnb)" height="56.1875" id="CollaboratorSpecificationUI" style="stroke:#A80036;stroke-width:1.5;" width="182" x="3101" y="62"/><ellipse cx="3116" cy="82.0938" fill="#ADD1B2" rx="11" ry="11" style="stroke:#A80036;stroke-width:1.0;"/><path d="M3118,78.5938 Q3118.2031,78.0938 3118.4375,77.8438 Q3118.6719,77.5938 3118.9375,77.5938 Q3119.4063,77.5938 3119.7031,77.875 Q3120,78.1563 3120,78.8125 L3120,80.375 Q3120,81.0313 3119.7188,81.3125 Q3119.4375,81.5938 3119,81.5938 Q3118.6094,81.5938 3118.3594,81.4219 Q3118.1094,81.25 3118,80.7969 Q3117.9531,80.4844 3117.7813,80.3125 Q3117.4688,79.9844 3116.9063,79.7969 Q3116.3438,79.5938 3115.7813,79.5938 Q3115.0781,79.5938 3114.4844,79.875 Q3113.9063,80.1563 3113.4531,80.7813 Q3113,81.4063 3113,82.2656 L3113,83.1875 Q3113,84.2188 3113.8438,84.9063 Q3114.6875,85.5938 3116.1875,85.5938 Q3117.0781,85.5938 3117.7031,85.3906 Q3118.0625,85.2813 3118.4688,84.9219 Q3118.7344,84.7188 3118.875,84.6563 Q3119.0156,84.5938 3119.1875,84.5938 Q3119.5156,84.5938 3119.75,84.8594 Q3120,85.1094 3120,85.4688 Q3120,85.8125 3119.6563,86.2188 Q3119.1563,86.8125 3118.3594,87.1406 Q3117.3125,87.5938 3116.0313,87.5938 Q3114.5313,87.5938 3113.3281,87 Q3112.3594,86.5313 3111.6719,85.5156 Q3111,84.5 3111,83.2969 L3111,82.2031 Q3111,80.9531 3111.5938,79.8594 Q3112.2031,78.7656 3113.25,78.1875 Q3114.3125,77.5938 3115.5,77.5938 Q3116.2188,77.5938 3116.8438,77.8438 Q3117.4688,78.0938 3118,78.5938 Z " fill="#000000"/><text fill="#000000" font-family="sans-serif" font-size="12" font-style="italic" lengthAdjust="spacing" textLength="82" x="3164" y="79.457">«presentation»</text><text fill="#000000" font-family="sans-serif" font-size="12" lengthAdjust="spacing" textLength="150" x="3130" y="94.5508">CollaboratorSpecificationUI</text><line style="stroke:#A80036;stroke-width:1.5;" x1="3102" x2="3282" y1="102.1875" y2="102.1875"/><line style="stroke:#A80036;stroke-width:1.5;" x1="3102" x2="3282" y1="110.1875" y2="110.1875"/><!--MD5=[f1bbe1cf2453e6a45e68131c63d26ace]
class CollaboratorSpecificationController--><rect codeLine="12" fill="#FEFECE" filter="url(#fnv2e1oesejnb)" height="166.875" id="CollaboratorSpecificationController" style="stroke:#A80036;stroke-width:1.5;" width="289" x="3047.5" y="223"/><ellipse cx="3091.75" cy="243.0938" fill="#ADD1B2" rx="11" ry="11" style="stroke:#A80036;stroke-width:1.0;"/><path d="M3093.75,239.5938 Q3093.9531,239.0938 3094.1875,238.8438 Q3094.4219,238.5938 3094.6875,238.5938 Q3095.1563,238.5938 3095.4531,238.875 Q3095.75,239.1563 3095.75,239.8125 L3095.75,241.375 Q3095.75,242.0313 3095.4688,242.3125 Q3095.1875,242.5938 3094.75,242.5938 Q3094.3594,242.5938 3094.1094,242.4219 Q3093.8594,242.25 3093.75,241.7969 Q3093.7031,241.4844 3093.5313,241.3125 Q3093.2188,240.9844 3092.6563,240.7969 Q3092.0938,240.5938 3091.5313,240.5938 Q3090.8281,240.5938 3090.2344,240.875 Q3089.6563,241.1563 3089.2031,241.7813 Q3088.75,242.4063 3088.75,243.2656 L3088.75,244.1875 Q3088.75,245.2188 3089.5938,245.9063 Q3090.4375,246.5938 3091.9375,246.5938 Q3092.8281,246.5938 3093.4531,246.3906 Q3093.8125,246.2813 3094.2188,245.9219 Q3094.4844,245.7188 3094.625,245.6563 Q3094.7656,245.5938 3094.9375,245.5938 Q3095.2656,245.5938 3095.5,245.8594 Q3095.75,246.1094 3095.75,246.4688 Q3095.75,246.8125 3095.4063,247.2188 Q3094.9063,247.8125 3094.1094,248.1406 Q3093.0625,248.5938 3091.7813,248.5938 Q3090.2813,248.5938 3089.0781,248 Q3088.1094,247.5313 3087.4219,246.5156 Q3086.75,245.5 3086.75,244.2969 L3086.75,243.2031 Q3086.75,241.9531 3087.3438,240.8594 Q3087.9531,239.7656 3089,239.1875 Q3090.0625,238.5938 3091.25,238.5938 Q3091.9688,238.5938 3092.5938,238.8438 Q3093.2188,239.0938 3093.75,239.5938 Z " fill="#000000"/><text fill="#000000" font-family="sans-serif" font-size="12" font-style="italic" lengthAdjust="spacing" textLength="67" x="3174.75" y="240.457">«aplication»</text><text fill="#000000" font-family="sans-serif" font-size="12" lengthAdjust="spacing" textLength="192" x="3112.25" y="255.5508">CollaboratorSpecificationController</text><line style="stroke:#A80036;stroke-width:1.5;" x1="3048.5" x2="3335.5" y1="263.1875" y2="263.1875"/><line style="stroke:#A80036;stroke-width:1.5;" x1="3048.5" x2="3335.5" y1="271.1875" y2="271.1875"/><text fill="#000000" font-family="sans-serif" font-size="11" lengthAdjust="spacing" textLength="45" x="3053.5" y="286.6064">+create()</text><text fill="#000000" font-family="sans-serif" font-size="11" lengthAdjust="spacing" textLength="274" x="3053.5" y="300.4424">+addColaborador(email, firstName, lastName, shortName,</text><text fill="#000000" font-family="sans-serif" font-size="11" lengthAdjust="spacing" textLength="196" x="3053.5" y="314.2783">completeName, mechanographicNumber,</text><text fill="#000000" font-family="sans-serif" font-size="11" lengthAdjust="spacing" textLength="166" x="3053.5" y="328.1143">address, phoneNumber, birthDate)</text><text fill="#000000" font-family="sans-serif" font-size="11" lengthAdjust="spacing" textLength="67" x="3053.5" y="341.9502">+getRoleList()</text><text fill="#000000" font-family="sans-serif" font-size="11" lengthAdjust="spacing" textLength="83" x="3053.5" y="355.7861">+addRoles(roles)</text><text fill="#000000" font-family="sans-serif" font-size="11" lengthAdjust="spacing" textLength="93" x="3053.5" y="369.6221">+getCollaborators()</text><text fill="#000000" font-family="sans-serif" font-size="11" lengthAdjust="spacing" textLength="96" x="3053.5" y="383.458">+saveCollaborator()</text><!--MD5=[f483d6e5de34a60207b28a5563be5e8b]
class Collaborator--><rect codeLine="24" fill="#FEFECE" filter="url(#fnv2e1oesejnb)" height="83.8594" id="Collaborator" style="stroke:#A80036;stroke-width:1.5;" width="371" x="911.5" y="611.5"/><ellipse cx="1058.75" cy="631.5938" fill="#ADD1B2" rx="11" ry="11" style="stroke:#A80036;stroke-width:1.0;"/><path d="M1060.75,628.0938 Q1060.9531,627.5938 1061.1875,627.3438 Q1061.4219,627.0938 1061.6875,627.0938 Q1062.1563,627.0938 1062.4531,627.375 Q1062.75,627.6563 1062.75,628.3125 L1062.75,629.875 Q1062.75,630.5313 1062.4688,630.8125 Q1062.1875,631.0938 1061.75,631.0938 Q1061.3594,631.0938 1061.1094,630.9219 Q1060.8594,630.75 1060.75,630.2969 Q1060.7031,629.9844 1060.5313,629.8125 Q1060.2188,629.4844 1059.6563,629.2969 Q1059.0938,629.0938 1058.5313,629.0938 Q1057.8281,629.0938 1057.2344,629.375 Q1056.6563,629.6563 1056.2031,630.2813 Q1055.75,630.9063 1055.75,631.7656 L1055.75,632.6875 Q1055.75,633.7188 1056.5938,634.4063 Q1057.4375,635.0938 1058.9375,635.0938 Q1059.8281,635.0938 1060.4531,634.8906 Q1060.8125,634.7813 1061.2188,634.4219 Q1061.4844,634.2188 1061.625,634.1563 Q1061.7656,634.0938 1061.9375,634.0938 Q1062.2656,634.0938 1062.5,634.3594 Q1062.75,634.6094 1062.75,634.9688 Q1062.75,635.3125 1062.4063,635.7188 Q1061.9063,636.3125 1061.1094,636.6406 Q1060.0625,637.0938 1058.7813,637.0938 Q1057.2813,637.0938 1056.0781,636.5 Q1055.1094,636.0313 1054.4219,635.0156 Q1053.75,634 1053.75,632.7969 L1053.75,631.7031 Q1053.75,630.4531 1054.3438,629.3594 Q1054.9531,628.2656 1056,627.6875 Q1057.0625,627.0938 1058.25,627.0938 Q1058.9688,627.0938 1059.5938,627.3438 Q1060.2188,627.5938 1060.75,628.0938 Z " fill="#000000"/><text fill="#000000" font-family="sans-serif" font-size="12" font-style="italic" lengthAdjust="spacing" textLength="43" x="1091.75" y="628.957">«entity»</text><text fill="#000000" font-family="sans-serif" font-size="12" lengthAdjust="spacing" textLength="68" x="1079.25" y="644.0508">Collaborator</text><line style="stroke:#A80036;stroke-width:1.5;" x1="912.5" x2="1281.5" y1="651.6875" y2="651.6875"/><line style="stroke:#A80036;stroke-width:1.5;" x1="912.5" x2="1281.5" y1="659.6875" y2="659.6875"/><text fill="#000000" font-family="sans-serif" font-size="11" lengthAdjust="spacing" textLength="359" x="917.5" y="675.1064">+create(systemUser, shortName, completeName, mechanographicNumber,</text><text fill="#000000" font-family="sans-serif" font-size="11" lengthAdjust="spacing" textLength="190" x="917.5" y="688.9424">address, phoneNumber, birthDate,Role)</text><!--MD5=[f338b7fac0450cb697edae5d9e4bb9ca]
class ShortName--><rect codeLine="28" fill="#FEFECE" filter="url(#fnv2e1oesejnb)" height="83.8594" id="ShortName" style="stroke:#A80036;stroke-width:1.5;" width="162" x="2193" y="611.5"/><ellipse cx="2231.85" cy="631.5938" fill="#ADD1B2" rx="11" ry="11" style="stroke:#A80036;stroke-width:1.0;"/><path d="M2233.85,628.0938 Q2234.0531,627.5938 2234.2875,627.3438 Q2234.5219,627.0938 2234.7875,627.0938 Q2235.2563,627.0938 2235.5531,627.375 Q2235.85,627.6563 2235.85,628.3125 L2235.85,629.875 Q2235.85,630.5313 2235.5688,630.8125 Q2235.2875,631.0938 2234.85,631.0938 Q2234.4594,631.0938 2234.2094,630.9219 Q2233.9594,630.75 2233.85,630.2969 Q2233.8031,629.9844 2233.6313,629.8125 Q2233.3188,629.4844 2232.7563,629.2969 Q2232.1938,629.0938 2231.6313,629.0938 Q2230.9281,629.0938 2230.3344,629.375 Q2229.7563,629.6563 2229.3031,630.2813 Q2228.85,630.9063 2228.85,631.7656 L2228.85,632.6875 Q2228.85,633.7188 2229.6938,634.4063 Q2230.5375,635.0938 2232.0375,635.0938 Q2232.9281,635.0938 2233.5531,634.8906 Q2233.9125,634.7813 2234.3188,634.4219 Q2234.5844,634.2188 2234.725,634.1563 Q2234.8656,634.0938 2235.0375,634.0938 Q2235.3656,634.0938 2235.6,634.3594 Q2235.85,634.6094 2235.85,634.9688 Q2235.85,635.3125 2235.5063,635.7188 Q2235.0063,636.3125 2234.2094,636.6406 Q2233.1625,637.0938 2231.8813,637.0938 Q2230.3813,637.0938 2229.1781,636.5 Q2228.2094,636.0313 2227.5219,635.0156 Q2226.85,634 2226.85,632.7969 L2226.85,631.7031 Q2226.85,630.4531 2227.4438,629.3594 Q2228.0531,628.2656 2229.1,627.6875 Q2230.1625,627.0938 2231.35,627.0938 Q2232.0688,627.0938 2232.6938,627.3438 Q2233.3188,627.5938 2233.85,628.0938 Z " fill="#000000"/><text fill="#000000" font-family="sans-serif" font-size="12" font-style="italic" lengthAdjust="spacing" textLength="81" x="2249.15" y="628.957">«value object»</text><text fill="#000000" font-family="sans-serif" font-size="12" lengthAdjust="spacing" textLength="63" x="2258.15" y="644.0508">ShortName</text><line style="stroke:#A80036;stroke-width:1.5;" x1="2194" x2="2354" y1="651.6875" y2="651.6875"/><line style="stroke:#A80036;stroke-width:1.5;" x1="2194" x2="2354" y1="659.6875" y2="659.6875"/><text fill="#000000" font-family="sans-serif" font-size="11" lengthAdjust="spacing" textLength="150" x="2199" y="675.1064">+createShortName(shortName)</text><text fill="#000000" font-family="sans-serif" font-size="11" lengthAdjust="spacing" textLength="101" x="2199" y="688.9424">-validate(shortName)</text><!--MD5=[cadca83c4c6337f88ae4425081101a2d]
class CompleteName--><rect codeLine="33" fill="#FEFECE" filter="url(#fnv2e1oesejnb)" height="83.8594" id="CompleteName" style="stroke:#A80036;stroke-width:1.5;" width="198" x="1960" y="611.5"/><ellipse cx="2010.75" cy="631.5938" fill="#ADD1B2" rx="11" ry="11" style="stroke:#A80036;stroke-width:1.0;"/><path d="M2012.75,628.0938 Q2012.9531,627.5938 2013.1875,627.3438 Q2013.4219,627.0938 2013.6875,627.0938 Q2014.1563,627.0938 2014.4531,627.375 Q2014.75,627.6563 2014.75,628.3125 L2014.75,629.875 Q2014.75,630.5313 2014.4688,630.8125 Q2014.1875,631.0938 2013.75,631.0938 Q2013.3594,631.0938 2013.1094,630.9219 Q2012.8594,630.75 2012.75,630.2969 Q2012.7031,629.9844 2012.5313,629.8125 Q2012.2188,629.4844 2011.6563,629.2969 Q2011.0938,629.0938 2010.5313,629.0938 Q2009.8281,629.0938 2009.2344,629.375 Q2008.6563,629.6563 2008.2031,630.2813 Q2007.75,630.9063 2007.75,631.7656 L2007.75,632.6875 Q2007.75,633.7188 2008.5938,634.4063 Q2009.4375,635.0938 2010.9375,635.0938 Q2011.8281,635.0938 2012.4531,634.8906 Q2012.8125,634.7813 2013.2188,634.4219 Q2013.4844,634.2188 2013.625,634.1563 Q2013.7656,634.0938 2013.9375,634.0938 Q2014.2656,634.0938 2014.5,634.3594 Q2014.75,634.6094 2014.75,634.9688 Q2014.75,635.3125 2014.4063,635.7188 Q2013.9063,636.3125 2013.1094,636.6406 Q2012.0625,637.0938 2010.7813,637.0938 Q2009.2813,637.0938 2008.0781,636.5 Q2007.1094,636.0313 2006.4219,635.0156 Q2005.75,634 2005.75,632.7969 L2005.75,631.7031 Q2005.75,630.4531 2006.3438,629.3594 Q2006.9531,628.2656 2008,627.6875 Q2009.0625,627.0938 2010.25,627.0938 Q2010.9688,627.0938 2011.5938,627.3438 Q2012.2188,627.5938 2012.75,628.0938 Z " fill="#000000"/><text fill="#000000" font-family="sans-serif" font-size="12" font-style="italic" lengthAdjust="spacing" textLength="81" x="2034.75" y="628.957">«value object»</text><text fill="#000000" font-family="sans-serif" font-size="12" lengthAdjust="spacing" textLength="88" x="2031.25" y="644.0508">CompleteName</text><line style="stroke:#A80036;stroke-width:1.5;" x1="1961" x2="2157" y1="651.6875" y2="651.6875"/><line style="stroke:#A80036;stroke-width:1.5;" x1="1961" x2="2157" y1="659.6875" y2="659.6875"/><text fill="#000000" font-family="sans-serif" font-size="11" lengthAdjust="spacing" textLength="186" x="1966" y="675.1064">+createCompleteName(completeName)</text><text fill="#000000" font-family="sans-serif" font-size="11" lengthAdjust="spacing" textLength="119" x="1966" y="688.9424">-validate(completeName)</text><!--MD5=[60b365d8f6d5c8e3e73e4be0aaaeb2da]
class NumeroMecanografico--><rect codeLine="38" fill="#FEFECE" filter="url(#fnv2e1oesejnb)" height="83.8594" id="NumeroMecanografico" style="stroke:#A80036;stroke-width:1.5;" width="274" x="1651" y="611.5"/><ellipse cx="1721.25" cy="631.5938" fill="#ADD1B2" rx="11" ry="11" style="stroke:#A80036;stroke-width:1.0;"/><path d="M1723.25,628.0938 Q1723.4531,627.5938 1723.6875,627.3438 Q1723.9219,627.0938 1724.1875,627.0938 Q1724.6563,627.0938 1724.9531,627.375 Q1725.25,627.6563 1725.25,628.3125 L1725.25,629.875 Q1725.25,630.5313 1724.9688,630.8125 Q1724.6875,631.0938 1724.25,631.0938 Q1723.8594,631.0938 1723.6094,630.9219 Q1723.3594,630.75 1723.25,630.2969 Q1723.2031,629.9844 1723.0313,629.8125 Q1722.7188,629.4844 1722.1563,629.2969 Q1721.5938,629.0938 1721.0313,629.0938 Q1720.3281,629.0938 1719.7344,629.375 Q1719.1563,629.6563 1718.7031,630.2813 Q1718.25,630.9063 1718.25,631.7656 L1718.25,632.6875 Q1718.25,633.7188 1719.0938,634.4063 Q1719.9375,635.0938 1721.4375,635.0938 Q1722.3281,635.0938 1722.9531,634.8906 Q1723.3125,634.7813 1723.7188,634.4219 Q1723.9844,634.2188 1724.125,634.1563 Q1724.2656,634.0938 1724.4375,634.0938 Q1724.7656,634.0938 1725,634.3594 Q1725.25,634.6094 1725.25,634.9688 Q1725.25,635.3125 1724.9063,635.7188 Q1724.4063,636.3125 1723.6094,636.6406 Q1722.5625,637.0938 1721.2813,637.0938 Q1719.7813,637.0938 1718.5781,636.5 Q1717.6094,636.0313 1716.9219,635.0156 Q1716.25,634 1716.25,632.7969 L1716.25,631.7031 Q1716.25,630.4531 1716.8438,629.3594 Q1717.4531,628.2656 1718.5,627.6875 Q1719.5625,627.0938 1720.75,627.0938 Q1721.4688,627.0938 1722.0938,627.3438 Q1722.7188,627.5938 1723.25,628.0938 Z " fill="#000000"/><text fill="#000000" font-family="sans-serif" font-size="12" font-style="italic" lengthAdjust="spacing" textLength="81" x="1763.75" y="628.957">«value object»</text><text fill="#000000" font-family="sans-serif" font-size="12" lengthAdjust="spacing" textLength="125" x="1741.75" y="644.0508">NumeroMecanografico</text><line style="stroke:#A80036;stroke-width:1.5;" x1="1652" x2="1924" y1="651.6875" y2="651.6875"/><line style="stroke:#A80036;stroke-width:1.5;" x1="1652" x2="1924" y1="659.6875" y2="659.6875"/><text fill="#000000" font-family="sans-serif" font-size="11" lengthAdjust="spacing" textLength="262" x="1657" y="675.1064">+createNumeroMecanografico(numeroMecanografico)</text><text fill="#000000" font-family="sans-serif" font-size="11" lengthAdjust="spacing" textLength="157" x="1657" y="688.9424">-validate(numeroMecanografico)</text><!--MD5=[0f39e4cb6f03951afbf6d14bd2505654]
class Address--><rect codeLine="43" fill="#FEFECE" filter="url(#fnv2e1oesejnb)" height="83.8594" id="Address" style="stroke:#A80036;stroke-width:1.5;" width="139" x="1340.5" y="611.5"/><ellipse cx="1369" cy="631.5938" fill="#ADD1B2" rx="11" ry="11" style="stroke:#A80036;stroke-width:1.0;"/><path d="M1371,628.0938 Q1371.2031,627.5938 1371.4375,627.3438 Q1371.6719,627.0938 1371.9375,627.0938 Q1372.4063,627.0938 1372.7031,627.375 Q1373,627.6563 1373,628.3125 L1373,629.875 Q1373,630.5313 1372.7188,630.8125 Q1372.4375,631.0938 1372,631.0938 Q1371.6094,631.0938 1371.3594,630.9219 Q1371.1094,630.75 1371,630.2969 Q1370.9531,629.9844 1370.7813,629.8125 Q1370.4688,629.4844 1369.9063,629.2969 Q1369.3438,629.0938 1368.7813,629.0938 Q1368.0781,629.0938 1367.4844,629.375 Q1366.9063,629.6563 1366.4531,630.2813 Q1366,630.9063 1366,631.7656 L1366,632.6875 Q1366,633.7188 1366.8438,634.4063 Q1367.6875,635.0938 1369.1875,635.0938 Q1370.0781,635.0938 1370.7031,634.8906 Q1371.0625,634.7813 1371.4688,634.4219 Q1371.7344,634.2188 1371.875,634.1563 Q1372.0156,634.0938 1372.1875,634.0938 Q1372.5156,634.0938 1372.75,634.3594 Q1373,634.6094 1373,634.9688 Q1373,635.3125 1372.6563,635.7188 Q1372.1563,636.3125 1371.3594,636.6406 Q1370.3125,637.0938 1369.0313,637.0938 Q1367.5313,637.0938 1366.3281,636.5 Q1365.3594,636.0313 1364.6719,635.0156 Q1364,634 1364,632.7969 L1364,631.7031 Q1364,630.4531 1364.5938,629.3594 Q1365.2031,628.2656 1366.25,627.6875 Q1367.3125,627.0938 1368.5,627.0938 Q1369.2188,627.0938 1369.8438,627.3438 Q1370.4688,627.5938 1371,628.0938 Z " fill="#000000"/><text fill="#000000" font-family="sans-serif" font-size="12" font-style="italic" lengthAdjust="spacing" textLength="81" x="1384" y="628.957">«value object»</text><text fill="#000000" font-family="sans-serif" font-size="12" lengthAdjust="spacing" textLength="46" x="1401.5" y="644.0508">Address</text><line style="stroke:#A80036;stroke-width:1.5;" x1="1341.5" x2="1478.5" y1="651.6875" y2="651.6875"/><line style="stroke:#A80036;stroke-width:1.5;" x1="1341.5" x2="1478.5" y1="659.6875" y2="659.6875"/><text fill="#000000" font-family="sans-serif" font-size="11" lengthAdjust="spacing" textLength="127" x="1346.5" y="675.1064">+createAddress(address)</text><text fill="#000000" font-family="sans-serif" font-size="11" lengthAdjust="spacing" textLength="89" x="1346.5" y="688.9424">-validate(address)</text><!--MD5=[b5e265065262f4f9caf90311e5706eef]
class PhoneNumber--><rect codeLine="48" fill="#FEFECE" filter="url(#fnv2e1oesejnb)" height="83.8594" id="PhoneNumber" style="stroke:#A80036;stroke-width:1.5;" width="191" x="2569.5" y="611.5"/><ellipse cx="2620.25" cy="631.5938" fill="#ADD1B2" rx="11" ry="11" style="stroke:#A80036;stroke-width:1.0;"/><path d="M2622.25,628.0938 Q2622.4531,627.5938 2622.6875,627.3438 Q2622.9219,627.0938 2623.1875,627.0938 Q2623.6563,627.0938 2623.9531,627.375 Q2624.25,627.6563 2624.25,628.3125 L2624.25,629.875 Q2624.25,630.5313 2623.9688,630.8125 Q2623.6875,631.0938 2623.25,631.0938 Q2622.8594,631.0938 2622.6094,630.9219 Q2622.3594,630.75 2622.25,630.2969 Q2622.2031,629.9844 2622.0313,629.8125 Q2621.7188,629.4844 2621.1563,629.2969 Q2620.5938,629.0938 2620.0313,629.0938 Q2619.3281,629.0938 2618.7344,629.375 Q2618.1563,629.6563 2617.7031,630.2813 Q2617.25,630.9063 2617.25,631.7656 L2617.25,632.6875 Q2617.25,633.7188 2618.0938,634.4063 Q2618.9375,635.0938 2620.4375,635.0938 Q2621.3281,635.0938 2621.9531,634.8906 Q2622.3125,634.7813 2622.7188,634.4219 Q2622.9844,634.2188 2623.125,634.1563 Q2623.2656,634.0938 2623.4375,634.0938 Q2623.7656,634.0938 2624,634.3594 Q2624.25,634.6094 2624.25,634.9688 Q2624.25,635.3125 2623.9063,635.7188 Q2623.4063,636.3125 2622.6094,636.6406 Q2621.5625,637.0938 2620.2813,637.0938 Q2618.7813,637.0938 2617.5781,636.5 Q2616.6094,636.0313 2615.9219,635.0156 Q2615.25,634 2615.25,632.7969 L2615.25,631.7031 Q2615.25,630.4531 2615.8438,629.3594 Q2616.4531,628.2656 2617.5,627.6875 Q2618.5625,627.0938 2619.75,627.0938 Q2620.4688,627.0938 2621.0938,627.3438 Q2621.7188,627.5938 2622.25,628.0938 Z " fill="#000000"/><text fill="#000000" font-family="sans-serif" font-size="12" font-style="italic" lengthAdjust="spacing" textLength="81" x="2640.75" y="628.957">«value object»</text><text fill="#000000" font-family="sans-serif" font-size="12" lengthAdjust="spacing" textLength="81" x="2640.75" y="644.0508">PhoneNumber</text><line style="stroke:#A80036;stroke-width:1.5;" x1="2570.5" x2="2759.5" y1="651.6875" y2="651.6875"/><line style="stroke:#A80036;stroke-width:1.5;" x1="2570.5" x2="2759.5" y1="659.6875" y2="659.6875"/><text fill="#000000" font-family="sans-serif" font-size="11" lengthAdjust="spacing" textLength="179" x="2575.5" y="675.1064">+createPhoneNumber(phoneNumber)</text><text fill="#000000" font-family="sans-serif" font-size="11" lengthAdjust="spacing" textLength="116" x="2575.5" y="688.9424">-validate(phoneNumber)</text><!--MD5=[ec957f90f125634d426aef890efece94]
class BirthDate--><rect codeLine="53" fill="#FEFECE" filter="url(#fnv2e1oesejnb)" height="83.8594" id="BirthDate" style="stroke:#A80036;stroke-width:1.5;" width="144" x="2390" y="611.5"/><ellipse cx="2420.75" cy="631.5938" fill="#ADD1B2" rx="11" ry="11" style="stroke:#A80036;stroke-width:1.0;"/><path d="M2422.75,628.0938 Q2422.9531,627.5938 2423.1875,627.3438 Q2423.4219,627.0938 2423.6875,627.0938 Q2424.1563,627.0938 2424.4531,627.375 Q2424.75,627.6563 2424.75,628.3125 L2424.75,629.875 Q2424.75,630.5313 2424.4688,630.8125 Q2424.1875,631.0938 2423.75,631.0938 Q2423.3594,631.0938 2423.1094,630.9219 Q2422.8594,630.75 2422.75,630.2969 Q2422.7031,629.9844 2422.5313,629.8125 Q2422.2188,629.4844 2421.6563,629.2969 Q2421.0938,629.0938 2420.5313,629.0938 Q2419.8281,629.0938 2419.2344,629.375 Q2418.6563,629.6563 2418.2031,630.2813 Q2417.75,630.9063 2417.75,631.7656 L2417.75,632.6875 Q2417.75,633.7188 2418.5938,634.4063 Q2419.4375,635.0938 2420.9375,635.0938 Q2421.8281,635.0938 2422.4531,634.8906 Q2422.8125,634.7813 2423.2188,634.4219 Q2423.4844,634.2188 2423.625,634.1563 Q2423.7656,634.0938 2423.9375,634.0938 Q2424.2656,634.0938 2424.5,634.3594 Q2424.75,634.6094 2424.75,634.9688 Q2424.75,635.3125 2424.4063,635.7188 Q2423.9063,636.3125 2423.1094,636.6406 Q2422.0625,637.0938 2420.7813,637.0938 Q2419.2813,637.0938 2418.0781,636.5 Q2417.1094,636.0313 2416.4219,635.0156 Q2415.75,634 2415.75,632.7969 L2415.75,631.7031 Q2415.75,630.4531 2416.3438,629.3594 Q2416.9531,628.2656 2418,627.6875 Q2419.0625,627.0938 2420.25,627.0938 Q2420.9688,627.0938 2421.5938,627.3438 Q2422.2188,627.5938 2422.75,628.0938 Z " fill="#000000"/><text fill="#000000" font-family="sans-serif" font-size="12" font-style="italic" lengthAdjust="spacing" textLength="81" x="2436.25" y="628.957">«value object»</text><text fill="#000000" font-family="sans-serif" font-size="12" lengthAdjust="spacing" textLength="51" x="2451.25" y="644.0508">BirthDate</text><line style="stroke:#A80036;stroke-width:1.5;" x1="2391" x2="2533" y1="651.6875" y2="651.6875"/><line style="stroke:#A80036;stroke-width:1.5;" x1="2391" x2="2533" y1="659.6875" y2="659.6875"/><text fill="#000000" font-family="sans-serif" font-size="11" lengthAdjust="spacing" textLength="132" x="2396" y="675.1064">+createBirthDate(birthDate)</text><text fill="#000000" font-family="sans-serif" font-size="11" lengthAdjust="spacing" textLength="92" x="2396" y="688.9424">-validate(birthDate)</text><!--MD5=[a9b02957f15c05fa9f213e9359f50233]
class BaseRoles--><rect codeLine="58" fill="#FEFECE" filter="url(#fnv2e1oesejnb)" height="70.0234" id="BaseRoles" style="stroke:#A80036;stroke-width:1.5;" width="101" x="1514.5" y="618.5"/><ellipse cx="1532.65" cy="638.5938" fill="#ADD1B2" rx="11" ry="11" style="stroke:#A80036;stroke-width:1.0;"/><path d="M1534.65,635.0938 Q1534.8531,634.5938 1535.0875,634.3438 Q1535.3219,634.0938 1535.5875,634.0938 Q1536.0563,634.0938 1536.3531,634.375 Q1536.65,634.6563 1536.65,635.3125 L1536.65,636.875 Q1536.65,637.5313 1536.3688,637.8125 Q1536.0875,638.0938 1535.65,638.0938 Q1535.2594,638.0938 1535.0094,637.9219 Q1534.7594,637.75 1534.65,637.2969 Q1534.6031,636.9844 1534.4313,636.8125 Q1534.1188,636.4844 1533.5563,636.2969 Q1532.9938,636.0938 1532.4313,636.0938 Q1531.7281,636.0938 1531.1344,636.375 Q1530.5563,636.6563 1530.1031,637.2813 Q1529.65,637.9063 1529.65,638.7656 L1529.65,639.6875 Q1529.65,640.7188 1530.4938,641.4063 Q1531.3375,642.0938 1532.8375,642.0938 Q1533.7281,642.0938 1534.3531,641.8906 Q1534.7125,641.7813 1535.1188,641.4219 Q1535.3844,641.2188 1535.525,641.1563 Q1535.6656,641.0938 1535.8375,641.0938 Q1536.1656,641.0938 1536.4,641.3594 Q1536.65,641.6094 1536.65,641.9688 Q1536.65,642.3125 1536.3063,642.7188 Q1535.8063,643.3125 1535.0094,643.6406 Q1533.9625,644.0938 1532.6813,644.0938 Q1531.1813,644.0938 1529.9781,643.5 Q1529.0094,643.0313 1528.3219,642.0156 Q1527.65,641 1527.65,639.7969 L1527.65,638.7031 Q1527.65,637.4531 1528.2438,636.3594 Q1528.8531,635.2656 1529.9,634.6875 Q1530.9625,634.0938 1532.15,634.0938 Q1532.8688,634.0938 1533.4938,634.3438 Q1534.1188,634.5938 1534.65,635.0938 Z " fill="#000000"/><text fill="#000000" font-family="sans-serif" font-size="12" font-style="italic" lengthAdjust="spacing" textLength="46" x="1555.35" y="635.957">«enum»</text><text fill="#000000" font-family="sans-serif" font-size="12" lengthAdjust="spacing" textLength="62" x="1547.35" y="651.0508">BaseRoles</text><line style="stroke:#A80036;stroke-width:1.5;" x1="1515.5" x2="1614.5" y1="658.6875" y2="658.6875"/><line style="stroke:#A80036;stroke-width:1.5;" x1="1515.5" x2="1614.5" y1="666.6875" y2="666.6875"/><text fill="#000000" font-family="sans-serif" font-size="11" lengthAdjust="spacing" textLength="89" x="1520.5" y="682.1064">+nonUserValues()</text><!--MD5=[7add3abbba9a945a681f7e44bfe039aa]
class RandomRawPassword--><rect codeLine="62" fill="#FEFECE" filter="url(#fnv2e1oesejnb)" height="70.0234" id="RandomRawPassword" style="stroke:#A80036;stroke-width:1.5;" width="161" x="3111.5" y="618.5"/><ellipse cx="3126.5" cy="638.5938" fill="#ADD1B2" rx="11" ry="11" style="stroke:#A80036;stroke-width:1.0;"/><path d="M3128.5,635.0938 Q3128.7031,634.5938 3128.9375,634.3438 Q3129.1719,634.0938 3129.4375,634.0938 Q3129.9063,634.0938 3130.2031,634.375 Q3130.5,634.6563 3130.5,635.3125 L3130.5,636.875 Q3130.5,637.5313 3130.2188,637.8125 Q3129.9375,638.0938 3129.5,638.0938 Q3129.1094,638.0938 3128.8594,637.9219 Q3128.6094,637.75 3128.5,637.2969 Q3128.4531,636.9844 3128.2813,636.8125 Q3127.9688,636.4844 3127.4063,636.2969 Q3126.8438,636.0938 3126.2813,636.0938 Q3125.5781,636.0938 3124.9844,636.375 Q3124.4063,636.6563 3123.9531,637.2813 Q3123.5,637.9063 3123.5,638.7656 L3123.5,639.6875 Q3123.5,640.7188 3124.3438,641.4063 Q3125.1875,642.0938 3126.6875,642.0938 Q3127.5781,642.0938 3128.2031,641.8906 Q3128.5625,641.7813 3128.9688,641.4219 Q3129.2344,641.2188 3129.375,641.1563 Q3129.5156,641.0938 3129.6875,641.0938 Q3130.0156,641.0938 3130.25,641.3594 Q3130.5,641.6094 3130.5,641.9688 Q3130.5,642.3125 3130.1563,642.7188 Q3129.6563,643.3125 3128.8594,643.6406 Q3127.8125,644.0938 3126.5313,644.0938 Q3125.0313,644.0938 3123.8281,643.5 Q3122.8594,643.0313 3122.1719,642.0156 Q3121.5,641 3121.5,639.7969 L3121.5,638.7031 Q3121.5,637.4531 3122.0938,636.3594 Q3122.7031,635.2656 3123.75,634.6875 Q3124.8125,634.0938 3126,634.0938 Q3126.7188,634.0938 3127.3438,634.3438 Q3127.9688,634.5938 3128.5,635.0938 Z " fill="#000000"/><text fill="#000000" font-family="sans-serif" font-size="12" font-style="italic" lengthAdjust="spacing" textLength="56" x="3177" y="635.957">«domain»</text><text fill="#000000" font-family="sans-serif" font-size="12" lengthAdjust="spacing" textLength="129" x="3140.5" y="651.0508">RandomRawPassword</text><line style="stroke:#A80036;stroke-width:1.5;" x1="3112.5" x2="3271.5" y1="658.6875" y2="658.6875"/><line style="stroke:#A80036;stroke-width:1.5;" x1="3112.5" x2="3271.5" y1="666.6875" y2="666.6875"/><text fill="#000000" font-family="sans-serif" font-size="11" lengthAdjust="spacing" textLength="51" x="3117.5" y="682.1064">+toString()</text><!--MD5=[0b1f3d1c1978f9b151365e147219e3b1]
class AuthzRegistry--><rect codeLine="66" fill="#FEFECE" filter="url(#fnv2e1oesejnb)" height="70.0234" id="AuthzRegistry" style="stroke:#A80036;stroke-width:1.5;" width="106" x="3308" y="618.5"/><ellipse cx="3323" cy="638.5938" fill="#ADD1B2" rx="11" ry="11" style="stroke:#A80036;stroke-width:1.0;"/><path d="M3325,635.0938 Q3325.2031,634.5938 3325.4375,634.3438 Q3325.6719,634.0938 3325.9375,634.0938 Q3326.4063,634.0938 3326.7031,634.375 Q3327,634.6563 3327,635.3125 L3327,636.875 Q3327,637.5313 3326.7188,637.8125 Q3326.4375,638.0938 3326,638.0938 Q3325.6094,638.0938 3325.3594,637.9219 Q3325.1094,637.75 3325,637.2969 Q3324.9531,636.9844 3324.7813,636.8125 Q3324.4688,636.4844 3323.9063,636.2969 Q3323.3438,636.0938 3322.7813,636.0938 Q3322.0781,636.0938 3321.4844,636.375 Q3320.9063,636.6563 3320.4531,637.2813 Q3320,637.9063 3320,638.7656 L3320,639.6875 Q3320,640.7188 3320.8438,641.4063 Q3321.6875,642.0938 3323.1875,642.0938 Q3324.0781,642.0938 3324.7031,641.8906 Q3325.0625,641.7813 3325.4688,641.4219 Q3325.7344,641.2188 3325.875,641.1563 Q3326.0156,641.0938 3326.1875,641.0938 Q3326.5156,641.0938 3326.75,641.3594 Q3327,641.6094 3327,641.9688 Q3327,642.3125 3326.6563,642.7188 Q3326.1563,643.3125 3325.3594,643.6406 Q3324.3125,644.0938 3323.0313,644.0938 Q3321.5313,644.0938 3320.3281,643.5 Q3319.3594,643.0313 3318.6719,642.0156 Q3318,641 3318,639.7969 L3318,638.7031 Q3318,637.4531 3318.5938,636.3594 Q3319.2031,635.2656 3320.25,634.6875 Q3321.3125,634.0938 3322.5,634.0938 Q3323.2188,634.0938 3323.8438,634.3438 Q3324.4688,634.5938 3325,635.0938 Z " fill="#000000"/><text fill="#000000" font-family="sans-serif" font-size="12" font-style="italic" lengthAdjust="spacing" textLength="56" x="3346" y="635.957">«domain»</text><text fill="#000000" font-family="sans-serif" font-size="12" lengthAdjust="spacing" textLength="74" x="3337" y="651.0508">AuthzRegistry</text><line style="stroke:#A80036;stroke-width:1.5;" x1="3309" x2="3413" y1="658.6875" y2="658.6875"/><line style="stroke:#A80036;stroke-width:1.5;" x1="3309" x2="3413" y1="666.6875" y2="666.6875"/><text fill="#000000" font-family="sans-serif" font-size="11" lengthAdjust="spacing" textLength="73" x="3314" y="682.1064">+userService()</text><!--MD5=[e4ac4745f81aec2db60ad4ddae80b659]
class UserService--><rect codeLine="70" fill="#FEFECE" filter="url(#fnv2e1oesejnb)" height="70.0234" id="UserService" style="stroke:#A80036;stroke-width:1.5;" width="375" x="3449.5" y="618.5"/><ellipse cx="3599.25" cy="638.5938" fill="#ADD1B2" rx="11" ry="11" style="stroke:#A80036;stroke-width:1.0;"/><path d="M3601.25,635.0938 Q3601.4531,634.5938 3601.6875,634.3438 Q3601.9219,634.0938 3602.1875,634.0938 Q3602.6563,634.0938 3602.9531,634.375 Q3603.25,634.6563 3603.25,635.3125 L3603.25,636.875 Q3603.25,637.5313 3602.9688,637.8125 Q3602.6875,638.0938 3602.25,638.0938 Q3601.8594,638.0938 3601.6094,637.9219 Q3601.3594,637.75 3601.25,637.2969 Q3601.2031,636.9844 3601.0313,636.8125 Q3600.7188,636.4844 3600.1563,636.2969 Q3599.5938,636.0938 3599.0313,636.0938 Q3598.3281,636.0938 3597.7344,636.375 Q3597.1563,636.6563 3596.7031,637.2813 Q3596.25,637.9063 3596.25,638.7656 L3596.25,639.6875 Q3596.25,640.7188 3597.0938,641.4063 Q3597.9375,642.0938 3599.4375,642.0938 Q3600.3281,642.0938 3600.9531,641.8906 Q3601.3125,641.7813 3601.7188,641.4219 Q3601.9844,641.2188 3602.125,641.1563 Q3602.2656,641.0938 3602.4375,641.0938 Q3602.7656,641.0938 3603,641.3594 Q3603.25,641.6094 3603.25,641.9688 Q3603.25,642.3125 3602.9063,642.7188 Q3602.4063,643.3125 3601.6094,643.6406 Q3600.5625,644.0938 3599.2813,644.0938 Q3597.7813,644.0938 3596.5781,643.5 Q3595.6094,643.0313 3594.9219,642.0156 Q3594.25,641 3594.25,639.7969 L3594.25,638.7031 Q3594.25,637.4531 3594.8438,636.3594 Q3595.4531,635.2656 3596.5,634.6875 Q3597.5625,634.0938 3598.75,634.0938 Q3599.4688,634.0938 3600.0938,634.3438 Q3600.7188,634.5938 3601.25,635.0938 Z " fill="#000000"/><text fill="#000000" font-family="sans-serif" font-size="12" font-style="italic" lengthAdjust="spacing" textLength="56" x="3625.25" y="635.957">«domain»</text><text fill="#000000" font-family="sans-serif" font-size="12" lengthAdjust="spacing" textLength="67" x="3619.75" y="651.0508">UserService</text><line style="stroke:#A80036;stroke-width:1.5;" x1="3450.5" x2="3823.5" y1="658.6875" y2="658.6875"/><line style="stroke:#A80036;stroke-width:1.5;" x1="3450.5" x2="3823.5" y1="666.6875" y2="666.6875"/><text fill="#000000" font-family="sans-serif" font-size="11" lengthAdjust="spacing" textLength="363" x="3455.5" y="682.1064">+registerNewUser(username, password, firstName, lastName, email, roles)</text><!--MD5=[164e5e9cf855eb64ce2728330d9f659f]
class CollaboratorBuilder--><rect codeLine="75" fill="#FEFECE" filter="url(#fnv2e1oesejnb)" height="194.5469" id="CollaboratorBuilder" style="stroke:#A80036;stroke-width:1.5;" width="281" x="2795.5" y="556"/><ellipse cx="2878.25" cy="576.0938" fill="#ADD1B2" rx="11" ry="11" style="stroke:#A80036;stroke-width:1.0;"/><path d="M2880.25,572.5938 Q2880.4531,572.0938 2880.6875,571.8438 Q2880.9219,571.5938 2881.1875,571.5938 Q2881.6563,571.5938 2881.9531,571.875 Q2882.25,572.1563 2882.25,572.8125 L2882.25,574.375 Q2882.25,575.0313 2881.9688,575.3125 Q2881.6875,575.5938 2881.25,575.5938 Q2880.8594,575.5938 2880.6094,575.4219 Q2880.3594,575.25 2880.25,574.7969 Q2880.2031,574.4844 2880.0313,574.3125 Q2879.7188,573.9844 2879.1563,573.7969 Q2878.5938,573.5938 2878.0313,573.5938 Q2877.3281,573.5938 2876.7344,573.875 Q2876.1563,574.1563 2875.7031,574.7813 Q2875.25,575.4063 2875.25,576.2656 L2875.25,577.1875 Q2875.25,578.2188 2876.0938,578.9063 Q2876.9375,579.5938 2878.4375,579.5938 Q2879.3281,579.5938 2879.9531,579.3906 Q2880.3125,579.2813 2880.7188,578.9219 Q2880.9844,578.7188 2881.125,578.6563 Q2881.2656,578.5938 2881.4375,578.5938 Q2881.7656,578.5938 2882,578.8594 Q2882.25,579.1094 2882.25,579.4688 Q2882.25,579.8125 2881.9063,580.2188 Q2881.4063,580.8125 2880.6094,581.1406 Q2879.5625,581.5938 2878.2813,581.5938 Q2876.7813,581.5938 2875.5781,581 Q2874.6094,580.5313 2873.9219,579.5156 Q2873.25,578.5 2873.25,577.2969 L2873.25,576.2031 Q2873.25,574.9531 2873.8438,573.8594 Q2874.4531,572.7656 2875.5,572.1875 Q2876.5625,571.5938 2877.75,571.5938 Q2878.4688,571.5938 2879.0938,571.8438 Q2879.7188,572.0938 2880.25,572.5938 Z " fill="#000000"/><text fill="#000000" font-family="sans-serif" font-size="12" font-style="italic" lengthAdjust="spacing" textLength="53" x="2925.75" y="573.457">«builder»</text><text fill="#000000" font-family="sans-serif" font-size="12" lengthAdjust="spacing" textLength="107" x="2898.75" y="588.5508">CollaboratorBuilder</text><line style="stroke:#A80036;stroke-width:1.5;" x1="2796.5" x2="3075.5" y1="596.1875" y2="596.1875"/><line style="stroke:#A80036;stroke-width:1.5;" x1="2796.5" x2="3075.5" y1="604.1875" y2="604.1875"/><text fill="#000000" font-family="sans-serif" font-size="11" lengthAdjust="spacing" textLength="45" x="2801.5" y="619.6064">+create()</text><text fill="#000000" font-family="sans-serif" font-size="11" lengthAdjust="spacing" textLength="140" x="2801.5" y="633.4424">+withShortName(shortName)</text><text fill="#000000" font-family="sans-serif" font-size="11" lengthAdjust="spacing" textLength="176" x="2801.5" y="647.2783">+withCompleteName(completeName)</text><text fill="#000000" font-family="sans-serif" font-size="11" lengthAdjust="spacing" textLength="269" x="2801.5" y="661.1143">+withMechanographicNumber(mechanographicNumber)</text><text fill="#000000" font-family="sans-serif" font-size="11" lengthAdjust="spacing" textLength="117" x="2801.5" y="674.9502">+withAddress(address)</text><text fill="#000000" font-family="sans-serif" font-size="11" lengthAdjust="spacing" textLength="169" x="2801.5" y="688.7861">+withPhoneNumber(phoneNumber)</text><text fill="#000000" font-family="sans-serif" font-size="11" lengthAdjust="spacing" textLength="122" x="2801.5" y="702.6221">+withBirthDate(birthDate)</text><text fill="#000000" font-family="sans-serif" font-size="11" lengthAdjust="spacing" textLength="77" x="2801.5" y="716.458">+withRole(Role)</text><text fill="#000000" font-family="sans-serif" font-size="11" lengthAdjust="spacing" textLength="152" x="2801.5" y="730.2939">+withSystemUser(systemUser)</text><text fill="#000000" font-family="sans-serif" font-size="11" lengthAdjust="spacing" textLength="36" x="2801.5" y="744.1299">+build()</text><!--MD5=[e8c189551b7885b999ad7cefb30fc2a3]
class PersistenceContext--><rect codeLine="91" fill="#FEFECE" filter="url(#fnv2e1oesejnb)" height="70.0234" id="PersistenceContext" style="stroke:#A80036;stroke-width:1.5;" width="139" x="32.5" y="618.5"/><ellipse cx="47.5" cy="638.5938" fill="#ADD1B2" rx="11" ry="11" style="stroke:#A80036;stroke-width:1.0;"/><path d="M49.5,635.0938 Q49.7031,634.5938 49.9375,634.3438 Q50.1719,634.0938 50.4375,634.0938 Q50.9063,634.0938 51.2031,634.375 Q51.5,634.6563 51.5,635.3125 L51.5,636.875 Q51.5,637.5313 51.2188,637.8125 Q50.9375,638.0938 50.5,638.0938 Q50.1094,638.0938 49.8594,637.9219 Q49.6094,637.75 49.5,637.2969 Q49.4531,636.9844 49.2813,636.8125 Q48.9688,636.4844 48.4063,636.2969 Q47.8438,636.0938 47.2813,636.0938 Q46.5781,636.0938 45.9844,636.375 Q45.4063,636.6563 44.9531,637.2813 Q44.5,637.9063 44.5,638.7656 L44.5,639.6875 Q44.5,640.7188 45.3438,641.4063 Q46.1875,642.0938 47.6875,642.0938 Q48.5781,642.0938 49.2031,641.8906 Q49.5625,641.7813 49.9688,641.4219 Q50.2344,641.2188 50.375,641.1563 Q50.5156,641.0938 50.6875,641.0938 Q51.0156,641.0938 51.25,641.3594 Q51.5,641.6094 51.5,641.9688 Q51.5,642.3125 51.1563,642.7188 Q50.6563,643.3125 49.8594,643.6406 Q48.8125,644.0938 47.5313,644.0938 Q46.0313,644.0938 44.8281,643.5 Q43.8594,643.0313 43.1719,642.0156 Q42.5,641 42.5,639.7969 L42.5,638.7031 Q42.5,637.4531 43.0938,636.3594 Q43.7031,635.2656 44.75,634.6875 Q45.8125,634.0938 47,634.0938 Q47.7188,634.0938 48.3438,634.3438 Q48.9688,634.5938 49.5,635.0938 Z " fill="#000000"/><text fill="#000000" font-family="sans-serif" font-size="12" font-style="italic" lengthAdjust="spacing" textLength="77" x="76.5" y="635.957">«persistence»</text><text fill="#000000" font-family="sans-serif" font-size="12" lengthAdjust="spacing" textLength="107" x="61.5" y="651.0508">PersistenceContext</text><line style="stroke:#A80036;stroke-width:1.5;" x1="33.5" x2="170.5" y1="658.6875" y2="658.6875"/><line style="stroke:#A80036;stroke-width:1.5;" x1="33.5" x2="170.5" y1="666.6875" y2="666.6875"/><text fill="#000000" font-family="sans-serif" font-size="11" lengthAdjust="spacing" textLength="71" x="38.5" y="682.1064">+repositories()</text><!--MD5=[b8e4c95865208c934bfcfda4f90bf50c]
class AppSettings--><rect codeLine="95" fill="#FEFECE" filter="url(#fnv2e1oesejnb)" height="83.8594" id="AppSettings" style="stroke:#A80036;stroke-width:1.5;" width="130" x="275" y="611.5"/><ellipse cx="301.25" cy="631.5938" fill="#ADD1B2" rx="11" ry="11" style="stroke:#A80036;stroke-width:1.0;"/><path d="M303.25,628.0938 Q303.4531,627.5938 303.6875,627.3438 Q303.9219,627.0938 304.1875,627.0938 Q304.6563,627.0938 304.9531,627.375 Q305.25,627.6563 305.25,628.3125 L305.25,629.875 Q305.25,630.5313 304.9688,630.8125 Q304.6875,631.0938 304.25,631.0938 Q303.8594,631.0938 303.6094,630.9219 Q303.3594,630.75 303.25,630.2969 Q303.2031,629.9844 303.0313,629.8125 Q302.7188,629.4844 302.1563,629.2969 Q301.5938,629.0938 301.0313,629.0938 Q300.3281,629.0938 299.7344,629.375 Q299.1563,629.6563 298.7031,630.2813 Q298.25,630.9063 298.25,631.7656 L298.25,632.6875 Q298.25,633.7188 299.0938,634.4063 Q299.9375,635.0938 301.4375,635.0938 Q302.3281,635.0938 302.9531,634.8906 Q303.3125,634.7813 303.7188,634.4219 Q303.9844,634.2188 304.125,634.1563 Q304.2656,634.0938 304.4375,634.0938 Q304.7656,634.0938 305,634.3594 Q305.25,634.6094 305.25,634.9688 Q305.25,635.3125 304.9063,635.7188 Q304.4063,636.3125 303.6094,636.6406 Q302.5625,637.0938 301.2813,637.0938 Q299.7813,637.0938 298.5781,636.5 Q297.6094,636.0313 296.9219,635.0156 Q296.25,634 296.25,632.7969 L296.25,631.7031 Q296.25,630.4531 296.8438,629.3594 Q297.4531,628.2656 298.5,627.6875 Q299.5625,627.0938 300.75,627.0938 Q301.4688,627.0938 302.0938,627.3438 Q302.7188,627.5938 303.25,628.0938 Z " fill="#000000"/><text fill="#000000" font-family="sans-serif" font-size="12" font-style="italic" lengthAdjust="spacing" textLength="77" x="315.75" y="628.957">«persistence»</text><text fill="#000000" font-family="sans-serif" font-size="12" lengthAdjust="spacing" textLength="66" x="321.25" y="644.0508">AppSettings</text><line style="stroke:#A80036;stroke-width:1.5;" x1="276" x2="404" y1="651.6875" y2="651.6875"/><line style="stroke:#A80036;stroke-width:1.5;" x1="276" x2="404" y1="659.6875" y2="659.6875"/><text fill="#000000" font-family="sans-serif" font-size="11" lengthAdjust="spacing" textLength="55" x="281" y="675.1064">+instance()</text><text fill="#000000" font-family="sans-serif" font-size="11" lengthAdjust="spacing" textLength="118" x="281" y="688.9424">+getRepositoryFactory()</text><!--MD5=[48590afff58a68e2fcba47824d6f8a11]
class RepositoryFactory--><rect codeLine="101" fill="#FEFECE" filter="url(#fnv2e1oesejnb)" height="83.8594" id="RepositoryFactory" style="stroke:#A80036;stroke-width:1.5;" width="130" x="701" y="611.5"/><ellipse cx="716" cy="631.5938" fill="#ADD1B2" rx="11" ry="11" style="stroke:#A80036;stroke-width:1.0;"/><path d="M718,628.0938 Q718.2031,627.5938 718.4375,627.3438 Q718.6719,627.0938 718.9375,627.0938 Q719.4063,627.0938 719.7031,627.375 Q720,627.6563 720,628.3125 L720,629.875 Q720,630.5313 719.7188,630.8125 Q719.4375,631.0938 719,631.0938 Q718.6094,631.0938 718.3594,630.9219 Q718.1094,630.75 718,630.2969 Q717.9531,629.9844 717.7813,629.8125 Q717.4688,629.4844 716.9063,629.2969 Q716.3438,629.0938 715.7813,629.0938 Q715.0781,629.0938 714.4844,629.375 Q713.9063,629.6563 713.4531,630.2813 Q713,630.9063 713,631.7656 L713,632.6875 Q713,633.7188 713.8438,634.4063 Q714.6875,635.0938 716.1875,635.0938 Q717.0781,635.0938 717.7031,634.8906 Q718.0625,634.7813 718.4688,634.4219 Q718.7344,634.2188 718.875,634.1563 Q719.0156,634.0938 719.1875,634.0938 Q719.5156,634.0938 719.75,634.3594 Q720,634.6094 720,634.9688 Q720,635.3125 719.6563,635.7188 Q719.1563,636.3125 718.3594,636.6406 Q717.3125,637.0938 716.0313,637.0938 Q714.5313,637.0938 713.3281,636.5 Q712.3594,636.0313 711.6719,635.0156 Q711,634 711,632.7969 L711,631.7031 Q711,630.4531 711.5938,629.3594 Q712.2031,628.2656 713.25,627.6875 Q714.3125,627.0938 715.5,627.0938 Q716.2188,627.0938 716.8438,627.3438 Q717.4688,627.5938 718,628.0938 Z " fill="#000000"/><text fill="#000000" font-family="sans-serif" font-size="12" font-style="italic" lengthAdjust="spacing" textLength="50" x="754" y="628.957">«factory»</text><text fill="#000000" font-family="sans-serif" font-size="12" lengthAdjust="spacing" textLength="98" x="730" y="644.0508">RepositoryFactory</text><line style="stroke:#A80036;stroke-width:1.5;" x1="702" x2="830" y1="651.6875" y2="651.6875"/><line style="stroke:#A80036;stroke-width:1.5;" x1="702" x2="830" y1="659.6875" y2="659.6875"/><text fill="#000000" font-family="sans-serif" font-size="11" lengthAdjust="spacing" textLength="77" x="707" y="675.1064">+collaborators()</text><text fill="#000000" font-family="sans-serif" font-size="11" lengthAdjust="spacing" textLength="38" x="707" y="688.9424">+roles()</text><!--MD5=[7d8ac9ac30c94f5163e620de18c62996]
class CollaboratorRepository--><rect codeLine="108" fill="#FEFECE" filter="url(#fnv2e1oesejnb)" height="83.8594" id="CollaboratorRepository" style="stroke:#A80036;stroke-width:1.5;" width="159" x="484.5" y="611.5"/><ellipse cx="499.5" cy="631.5938" fill="#ADD1B2" rx="11" ry="11" style="stroke:#A80036;stroke-width:1.0;"/><path d="M501.5,628.0938 Q501.7031,627.5938 501.9375,627.3438 Q502.1719,627.0938 502.4375,627.0938 Q502.9063,627.0938 503.2031,627.375 Q503.5,627.6563 503.5,628.3125 L503.5,629.875 Q503.5,630.5313 503.2188,630.8125 Q502.9375,631.0938 502.5,631.0938 Q502.1094,631.0938 501.8594,630.9219 Q501.6094,630.75 501.5,630.2969 Q501.4531,629.9844 501.2813,629.8125 Q500.9688,629.4844 500.4063,629.2969 Q499.8438,629.0938 499.2813,629.0938 Q498.5781,629.0938 497.9844,629.375 Q497.4063,629.6563 496.9531,630.2813 Q496.5,630.9063 496.5,631.7656 L496.5,632.6875 Q496.5,633.7188 497.3438,634.4063 Q498.1875,635.0938 499.6875,635.0938 Q500.5781,635.0938 501.2031,634.8906 Q501.5625,634.7813 501.9688,634.4219 Q502.2344,634.2188 502.375,634.1563 Q502.5156,634.0938 502.6875,634.0938 Q503.0156,634.0938 503.25,634.3594 Q503.5,634.6094 503.5,634.9688 Q503.5,635.3125 503.1563,635.7188 Q502.6563,636.3125 501.8594,636.6406 Q500.8125,637.0938 499.5313,637.0938 Q498.0313,637.0938 496.8281,636.5 Q495.8594,636.0313 495.1719,635.0156 Q494.5,634 494.5,632.7969 L494.5,631.7031 Q494.5,630.4531 495.0938,629.3594 Q495.7031,628.2656 496.75,627.6875 Q497.8125,627.0938 499,627.0938 Q499.7188,627.0938 500.3438,627.3438 Q500.9688,627.5938 501.5,628.0938 Z " fill="#000000"/><text fill="#000000" font-family="sans-serif" font-size="12" font-style="italic" lengthAdjust="spacing" textLength="68" x="543" y="628.957">«repository»</text><text fill="#000000" font-family="sans-serif" font-size="12" lengthAdjust="spacing" textLength="127" x="513.5" y="644.0508">CollaboratorRepository</text><line style="stroke:#A80036;stroke-width:1.5;" x1="485.5" x2="642.5" y1="651.6875" y2="651.6875"/><line style="stroke:#A80036;stroke-width:1.5;" x1="485.5" x2="642.5" y1="659.6875" y2="659.6875"/><text fill="#000000" font-family="sans-serif" font-size="11" lengthAdjust="spacing" textLength="24" x="490.5" y="675.1064">+all()</text><text fill="#000000" font-family="sans-serif" font-size="11" lengthAdjust="spacing" textLength="95" x="490.5" y="688.9424">+save(collaborator)</text><!--MD5=[fb5a3980349928d6991386b21c626158]
class CollaboratorRepositoryInterface--><rect codeLine="113" fill="#FEFECE" filter="url(#fnv2e1oesejnb)" height="48" id="CollaboratorRepositoryInterface" style="stroke:#A80036;stroke-width:1.5;" width="208" x="437" y="838"/><ellipse cx="452" cy="854" fill="#B4A7E5" rx="11" ry="11" style="stroke:#A80036;stroke-width:1.0;"/><path d="M453,851 L453,857 L455,857 L455.4844,857 L456,857.625 L456,858 L456,858.375 L455.4844,859 L455,859 L449,859 L448.5156,859 L448,858.375 L448,858 L448,857.625 L448.5156,857 L449,857 L451,857 L451,851 L449,851 L448.5156,851 L448,850.375 L448,850 L448,849.625 L448.5156,849 L449,849 L455,849 L455.4844,849 L456,849.625 L456,850 L456,850.375 L455.4844,851 L455,851 L453,851 Z " fill="#000000"/><text fill="#000000" font-family="sans-serif" font-size="12" font-style="italic" lengthAdjust="spacing" textLength="176" x="466" y="858.9102">CollaboratorRepositoryInterface</text><line style="stroke:#A80036;stroke-width:1.5;" x1="438" x2="644" y1="870" y2="870"/><line style="stroke:#A80036;stroke-width:1.5;" x1="438" x2="644" y1="878" y2="878"/><!--MD5=[eb3433108b320f38a9b86aba7717ec12]
link CollaboratorSpecificationUI to CollaboratorSpecificationController--><path codeLine="121" d="M3192,118.17 C3192,143.2 3192,181.76 3192,217.41 " fill="none" id="CollaboratorSpecificationUI-to-CollaboratorSpecificationController" style="stroke:#A80036;stroke-width:1.0;stroke-dasharray:7.0,7.0;"/><polygon fill="#A80036" points="3192,222.64,3196,213.64,3192,217.64,3188,213.64,3192,222.64" style="stroke:#A80036;stroke-width:1.0;"/><!--MD5=[5d6bd615180f56874b8ef30ed2319198]
link CollaboratorSpecificationController to CollaboratorBuilder--><path codeLine="122" d="M3047.29,308.57 C2521.42,313.16 738.07,335.1 655,422 C649.47,427.78 649.35,434.33 655,440 C665.47,450.51 2778.84,441.14 2792,448 C2834.72,470.27 2867.46,511.65 2890.85,551.4 " fill="none" id="CollaboratorSpecificationController-to-CollaboratorBuilder" style="stroke:#A80036;stroke-width:1.0;stroke-dasharray:7.0,7.0;"/><polygon fill="#A80036" points="2893.37,555.73,2892.3084,545.9385,2890.8586,551.4065,2885.3907,549.9567,2893.37,555.73" style="stroke:#A80036;stroke-width:1.0;"/><!--MD5=[3ed01820e4ceee59de10e9959e59d459]
link CollaboratorSpecificationController to PersistenceContext--><path codeLine="123" d="M3047.45,312.84 C2658.53,327.45 1557.33,370.47 642,422 C471.21,431.61 408.66,366.99 258,448 C189.8,484.67 142.42,565.49 118.94,613.83 " fill="none" id="CollaboratorSpecificationController-to-PersistenceContext" style="stroke:#A80036;stroke-width:1.0;stroke-dasharray:7.0,7.0;"/><polygon fill="#A80036" points="116.74,618.4,124.2295,612.0041,118.8958,613.8886,117.0113,608.5549,116.74,618.4" style="stroke:#A80036;stroke-width:1.0;"/><!--MD5=[087ccd6aae2a45edac7d0e681d6d8716]
link CollaboratorSpecificationController to RandomRawPassword--><path codeLine="124" d="M3192,390.14 C3192,460.82 3192,559.42 3192,613.38 " fill="none" id="CollaboratorSpecificationController-to-RandomRawPassword" style="stroke:#A80036;stroke-width:1.0;stroke-dasharray:7.0,7.0;"/><polygon fill="#A80036" points="3192,618.46,3196,609.46,3192,613.46,3188,609.46,3192,618.46" style="stroke:#A80036;stroke-width:1.0;"/><!--MD5=[b900fc22ddac0a281ea59176488e21d6]
link CollaboratorSpecificationController to AuthzRegistry--><path codeLine="125" d="M3255.26,390.22 C3267.76,408.65 3280.07,428.53 3290,448 C3317.97,502.85 3339.22,571.26 3350.9,613.4 " fill="none" id="CollaboratorSpecificationController-to-AuthzRegistry" style="stroke:#A80036;stroke-width:1.0;stroke-dasharray:7.0,7.0;"/><polygon fill="#A80036" points="3352.27,618.41,3353.7391,608.6713,3350.9436,613.5892,3346.0257,610.7936,3352.27,618.41" style="stroke:#A80036;stroke-width:1.0;"/><!--MD5=[15c8ef94e227b65d81965100ec8908d5]
link CollaboratorSpecificationController to UserService--><path codeLine="126" d="M3336.74,384.22 C3369.12,403.54 3402.56,425.3 3432,448 C3498.66,499.4 3565.82,571.05 3604.31,614.47 " fill="none" id="CollaboratorSpecificationController-to-UserService" style="stroke:#A80036;stroke-width:1.0;stroke-dasharray:7.0,7.0;"/><polygon fill="#A80036" points="3607.72,618.33,3604.7659,608.9346,3604.4124,614.5804,3598.7666,614.2268,3607.72,618.33" style="stroke:#A80036;stroke-width:1.0;"/><!--MD5=[d66efb439816738ddd3e9d5fff4bf3a7]
link AppSettings to RepositoryFactory--><path codeLine="128" d="M345.25,611.3 C353.23,567.27 372.97,500.37 421,469 C510.31,410.67 568.79,415.38 661,469 C711.47,498.35 739.68,562.01 753.86,606.29 " fill="none" id="AppSettings-to-RepositoryFactory" style="stroke:#A80036;stroke-width:1.0;"/><polygon fill="#A80036" points="755.43,611.32,756.5468,601.5347,753.9305,606.5501,748.915,603.9339,755.43,611.32" style="stroke:#A80036;stroke-width:1.0;"/><text fill="#000000" font-family="sans-serif" font-size="13" lengthAdjust="spacing" textLength="43" x="657.5" y="436.4951">creates</text><!--MD5=[27fe1c91fe18bafc5695938053528609]
link PersistenceContext to AppSettings--><path codeLine="129" d="M171.8,653.5 C202.53,653.5 238.57,653.5 269.39,653.5 " fill="none" id="PersistenceContext-to-AppSettings" style="stroke:#A80036;stroke-width:1.0;"/><polygon fill="#A80036" points="274.69,653.5,265.69,649.5,269.69,653.5,265.69,657.5,274.69,653.5" style="stroke:#A80036;stroke-width:1.0;"/><text fill="#000000" font-family="sans-serif" font-size="13" lengthAdjust="spacing" textLength="67" x="189.75" y="646.9951">implements</text><!--MD5=[d5e2752559733233d551f65818949b4e]
link RepositoryFactory to CollaboratorRepository--><path codeLine="131" d="M700.84,653.5 C684.3,653.5 666.28,653.5 648.91,653.5 " fill="none" id="RepositoryFactory-to-CollaboratorRepository" style="stroke:#A80036;stroke-width:1.0;"/><polygon fill="#A80036" points="643.55,653.5,652.55,657.5,648.55,653.5,652.55,649.5,643.55,653.5" style="stroke:#A80036;stroke-width:1.0;"/><text fill="#000000" font-family="sans-serif" font-size="13" lengthAdjust="spacing" textLength="21" x="661.75" y="646.9951">has</text><text fill="#000000" font-family="sans-serif" font-size="13" lengthAdjust="spacing" textLength="7" x="685.9012" y="650.0986">1</text><text fill="#000000" font-family="sans-serif" font-size="13" lengthAdjust="spacing" textLength="7" x="651.4657" y="650.2561">1</text><!--MD5=[275670b01fcf667cdfea022428a37f7a]
link CollaboratorRepository to CollaboratorRepositoryInterface--><path codeLine="132" d="M559.4,695.79 C554.88,736.4 548.09,797.3 544.15,832.71 " fill="none" id="CollaboratorRepository-to-CollaboratorRepositoryInterface" style="stroke:#A80036;stroke-width:1.0;stroke-dasharray:7.0,7.0;"/><polygon fill="#A80036" points="543.59,837.74,548.546,829.2289,544.1343,832.7697,540.5935,828.358,543.59,837.74" style="stroke:#A80036;stroke-width:1.0;"/><!--MD5=[e3ed578b90dd6415261c95d17075385f]
link CollaboratorRepository to Collaborator--><path codeLine="134" d="M578.07,611.11 C595.4,566.59 629.56,498.94 685,469 C748.35,434.79 778.61,446.5 847,469 C929.48,496.14 1007.08,562.1 1053.33,607.33 " fill="none" id="CollaboratorRepository-to-Collaborator" style="stroke:#A80036;stroke-width:1.0;"/><polygon fill="#A80036" points="1057.15,611.09,1053.5588,601.9192,1053.5931,607.576,1047.9364,607.6102,1057.15,611.09" style="stroke:#A80036;stroke-width:1.0;"/><text fill="#000000" font-family="sans-serif" font-size="13" lengthAdjust="spacing" textLength="33" x="792.5" y="436.4951">saves</text><text fill="#000000" font-family="sans-serif" font-size="13" lengthAdjust="spacing" textLength="7" x="572.7546" y="600.6134">1</text><text fill="#000000" font-family="sans-serif" font-size="13" lengthAdjust="spacing" textLength="5" x="1045.4005" y="600.5902">*</text><!--MD5=[720a9a454e208d6aeb02f55992318bcd]
link CollaboratorBuilder to Collaborator--><path codeLine="135" d="M2884.49,555.7 C2861.16,521.79 2830.16,487.62 2792,469 C2718.66,433.21 1399.88,441.61 1323,469 C1246.2,496.37 1176.62,562.27 1135.55,607.42 " fill="none" id="CollaboratorBuilder-to-Collaborator" style="stroke:#A80036;stroke-width:1.0;"/><polygon fill="#A80036" points="1132.16,611.18,1141.1539,607.1662,1135.5048,607.4635,1135.2075,601.8145,1132.16,611.18" style="stroke:#A80036;stroke-width:1.0;"/><text fill="#000000" font-family="sans-serif" font-size="13" lengthAdjust="spacing" textLength="43" x="1284.5" y="436.4951">creates</text><text fill="#000000" font-family="sans-serif" font-size="13" lengthAdjust="spacing" textLength="7" x="2873.2783" y="545.1256">1</text><text fill="#000000" font-family="sans-serif" font-size="13" lengthAdjust="spacing" textLength="5" x="1132.3652" y="600.6946">*</text><!--MD5=[d22bc09bf5195203640f66a3337dfcbe]
link Collaborator to ShortName--><path codeLine="137" d="M1132.16,611.18 C1172.72,566.01 1244.04,497.14 1323,469 C1412.28,437.19 2094.77,420.17 2176,469 C2225.24,498.6 2251.06,562.2 2263.6,606.4 " fill="none" id="Collaborator-to-ShortName" style="stroke:#A80036;stroke-width:1.0;"/><polygon fill="#A80036" points="2264.99,611.42,2266.4248,601.6762,2263.6466,606.6038,2258.719,603.8256,2264.99,611.42" style="stroke:#A80036;stroke-width:1.0;"/><text fill="#000000" font-family="sans-serif" font-size="13" lengthAdjust="spacing" textLength="21" x="1337.5" y="436.4951">has</text><text fill="#000000" font-family="sans-serif" font-size="13" lengthAdjust="spacing" textLength="7" x="1130.2058" y="600.6946">1</text><text fill="#000000" font-family="sans-serif" font-size="13" lengthAdjust="spacing" textLength="7" x="2255.918" y="600.6614">1</text><!--MD5=[48c622d472d667764da07d20d8b811ec]
link Collaborator to CompleteName--><path codeLine="138" d="M1132.16,611.18 C1172.72,566.01 1244.04,497.14 1323,469 C1452.78,422.75 1822.4,402.37 1943,469 C1995.56,498.04 2027.54,561.99 2044.25,606.4 " fill="none" id="Collaborator-to-CompleteName" style="stroke:#A80036;stroke-width:1.0;"/><polygon fill="#A80036" points="2046.02,611.17,2046.6579,601.3418,2044.2895,606.479,2039.1523,604.1106,2046.02,611.17" style="stroke:#A80036;stroke-width:1.0;"/><text fill="#000000" font-family="sans-serif" font-size="13" lengthAdjust="spacing" textLength="21" x="1367.5" y="436.4951">has</text><text fill="#000000" font-family="sans-serif" font-size="13" lengthAdjust="spacing" textLength="7" x="1138.3214" y="600.6946">1</text><text fill="#000000" font-family="sans-serif" font-size="13" lengthAdjust="spacing" textLength="7" x="2036.3935" y="600.683">1</text><!--MD5=[f904c2f8a465426d1ef66730e14f9f7d]
link Collaborator to NumeroMecanografico--><path codeLine="139" d="M1132.16,611.18 C1172.72,566.01 1244.04,497.14 1323,469 C1452.78,422.75 1508.11,410.81 1633,469 C1693.49,497.19 1738.78,561.88 1764.32,606.65 " fill="none" id="Collaborator-to-NumeroMecanografico" style="stroke:#A80036;stroke-width:1.0;"/><polygon fill="#A80036" points="1766.89,611.19,1765.9533,601.3858,1764.4339,606.8348,1758.9849,605.3155,1766.89,611.19" style="stroke:#A80036;stroke-width:1.0;"/><text fill="#000000" font-family="sans-serif" font-size="13" lengthAdjust="spacing" textLength="83" x="1396.5" y="436.4951">is identified by</text><text fill="#000000" font-family="sans-serif" font-size="13" lengthAdjust="spacing" textLength="7" x="1130.2058" y="600.6946">1</text><text fill="#000000" font-family="sans-serif" font-size="13" lengthAdjust="spacing" textLength="7" x="1755.9678" y="600.7062">1</text><!--MD5=[8d9dabce818e956fab3a60d05f645865]
link Collaborator to BaseRoles--><path codeLine="140" d="M1132.16,611.18 C1172.72,566.01 1244.04,497.14 1323,469 C1395.85,443.04 1433.56,424.77 1497,469 C1543.42,501.36 1558.23,569.17 1562.91,612.95 " fill="none" id="Collaborator-to-BaseRoles" style="stroke:#A80036;stroke-width:1.0;"/><polygon fill="#A80036" points="1563.43,618.17,1566.512,608.8158,1562.9311,613.195,1558.5519,609.6141,1563.43,618.17" style="stroke:#A80036;stroke-width:1.0;"/><text fill="#000000" font-family="sans-serif" font-size="13" lengthAdjust="spacing" textLength="21" x="1486.5" y="436.4951">has</text><text fill="#000000" font-family="sans-serif" font-size="13" lengthAdjust="spacing" textLength="7" x="1147.7178" y="600.3975">1</text><text fill="#000000" font-family="sans-serif" font-size="13" lengthAdjust="spacing" textLength="7" x="1555.4952" y="607.7064">1</text><!--MD5=[ad690bf35cce9ca8717407802e52e6b0]
link Collaborator to Address--><path codeLine="141" d="M1282.69,653.5 C1301.02,653.5 1318.8,653.5 1334.97,653.5 " fill="none" id="Collaborator-to-Address" style="stroke:#A80036;stroke-width:1.0;"/><polygon fill="#A80036" points="1340.39,653.5,1331.39,649.5,1335.39,653.5,1331.39,657.5,1340.39,653.5" style="stroke:#A80036;stroke-width:1.0;"/><text fill="#000000" font-family="sans-serif" font-size="13" lengthAdjust="spacing" textLength="21" x="1301" y="646.9951">has</text><text fill="#000000" font-family="sans-serif" font-size="13" lengthAdjust="spacing" textLength="7" x="1290.6715" y="650.668">1</text><text fill="#000000" font-family="sans-serif" font-size="13" lengthAdjust="spacing" textLength="7" x="1325.3936" y="650.147">1</text><!--MD5=[3362ed3ae5a9e5cbc027fbfeff814e21]
link Collaborator to PhoneNumber--><path codeLine="142" d="M1132.16,611.18 C1172.72,566.01 1244.04,497.14 1323,469 C1451.63,423.16 2432.86,402.26 2552,469 C2604.01,498.14 2634.97,562.06 2650.98,606.44 " fill="none" id="Collaborator-to-PhoneNumber" style="stroke:#A80036;stroke-width:1.0;"/><polygon fill="#A80036" points="2652.67,611.21,2653.4326,601.3907,2650.9992,606.4974,2645.8925,604.064,2652.67,611.21" style="stroke:#A80036;stroke-width:1.0;"/><text fill="#000000" font-family="sans-serif" font-size="13" lengthAdjust="spacing" textLength="21" x="1721.5" y="436.4951">has</text><text fill="#000000" font-family="sans-serif" font-size="13" lengthAdjust="spacing" textLength="7" x="1138.3214" y="600.6946">1</text><text fill="#000000" font-family="sans-serif" font-size="13" lengthAdjust="spacing" textLength="7" x="2643.1471" y="600.7294">1</text><!--MD5=[dfbc31d49ce19e9e78ec22b58e38968f]
link Collaborator to BirthDate--><path codeLine="143" d="M1132.16,611.18 C1172.72,566.01 1244.04,497.14 1323,469 C1432.9,429.84 2274.2,406.96 2373,469 C2420.56,498.86 2443.31,562.09 2453.76,606.15 " fill="none" id="Collaborator-to-BirthDate" style="stroke:#A80036;stroke-width:1.0;"/><polygon fill="#A80036" points="2454.92,611.16,2456.7855,601.4894,2453.7915,606.289,2448.992,603.295,2454.92,611.16" style="stroke:#A80036;stroke-width:1.0;"/><text fill="#000000" font-family="sans-serif" font-size="13" lengthAdjust="spacing" textLength="21" x="1955.5" y="436.4951">has</text><text fill="#000000" font-family="sans-serif" font-size="13" lengthAdjust="spacing" textLength="7" x="1159.7053" y="600.3975">1</text><text fill="#000000" font-family="sans-serif" font-size="13" lengthAdjust="spacing" textLength="7" x="2446.2338" y="600.6714">1</text><!--MD5=[e482efd3b0049d2c0961eae01d40d0fb]
@startuml
skinparam classAttributeIconSize 0


package "Presentation" #DDDDDD {
class CollaboratorSpecificationUI <<presentation>>{

}
}


package "Application" #DDDDDD {
class CollaboratorSpecificationController <<aplication>>{
+create()
+addColaborador(email, firstName, lastName, shortName, \ncompleteName, mechanographicNumber,\naddress, phoneNumber, birthDate)
+getRoleList()
+addRoles(roles)
+getCollaborators()
+saveCollaborator()
}
}


package "Domain" #DDDDDD {
class Collaborator <<entity>>{
+create(systemUser, shortName, completeName, mechanographicNumber,\naddress, phoneNumber, birthDate,Role)
}

class ShortName <<value object>>{
+createShortName(shortName)
-validate(shortName)
}

class CompleteName <<value object>>{
+createCompleteName(completeName)
-validate(completeName)
}

class NumeroMecanografico <<value object>>{
+createNumeroMecanografico(numeroMecanografico)
-validate(numeroMecanografico)
}

class Address <<value object>>{
+createAddress(address)
-validate(address)
}

class PhoneNumber <<value object>>{
+createPhoneNumber(phoneNumber)
-validate(phoneNumber)
}

class BirthDate <<value object>>{
+createBirthDate(birthDate)
-validate(birthDate)
}

class BaseRoles <<enum>>{
+nonUserValues()
}

class RandomRawPassword <<domain>>{
+toString()
}

class AuthzRegistry <<domain>>{
+userService()
}

class UserService <<domain>>{
+registerNewUser(username, password, firstName, lastName, email, roles)
}

package Builder #DDDDDD {
class CollaboratorBuilder <<builder>>{
+create()
+withShortName(shortName)
+withCompleteName(completeName)
+withMechanographicNumber(mechanographicNumber)
+withAddress(address)
+withPhoneNumber(phoneNumber)
+withBirthDate(birthDate)
+withRole(Role)
+withSystemUser(systemUser)
+build()
}
}
}

package Persistence #DDDDDD {
class PersistenceContext <<persistence>>{
+repositories()
}

class AppSettings <<persistence>>{
+instance()
+getRepositoryFactory()
}

package Factory #DDDDDD {
class RepositoryFactory <<factory>>{
+collaborators()
+roles()
}
}

package "Repository" #DDDDDD {
class CollaboratorRepository <<repository>>{
+all()
+save(collaborator)
}

interface CollaboratorRepositoryInterface{

}
}

}


CollaboratorSpecificationUI ..> CollaboratorSpecificationController
CollaboratorSpecificationController ..> CollaboratorBuilder
CollaboratorSpecificationController ..> PersistenceContext
CollaboratorSpecificationController ..> RandomRawPassword
CollaboratorSpecificationController ..> AuthzRegistry
CollaboratorSpecificationController ..> UserService

AppSettings -> RepositoryFactory : creates
PersistenceContext -> AppSettings : implements

RepositoryFactory "1" -> "1" CollaboratorRepository : has
CollaboratorRepository ..> CollaboratorRepositoryInterface

CollaboratorRepository "1" -> "*" Collaborator : saves
CollaboratorBuilder "1" -> "*" Collaborator : creates

Collaborator "1" -> "1" ShortName : has
Collaborator "1" -> "1" CompleteName : has
Collaborator "1" -> "1" NumeroMecanografico : is identified by
Collaborator "1" -> "1" BaseRoles : has
Collaborator "1" -> "1" Address : has
Collaborator "1" -> "1" PhoneNumber : has
Collaborator "1" -> "1" BirthDate : has

@enduml

PlantUML version 1.2021.5(Sun Apr 25 12:20:28 BST 2021)
(GPL source distribution)
Java Runtime: OpenJDK Runtime Environment
JVM: OpenJDK 64-Bit Server VM
Default Encoding: Cp1252
Language: pt
Country: PT
--></g></svg>