<?xml version="1.0" encoding="UTF-8" standalone="no"?><svg xmlns="http://www.w3.org/2000/svg" xmlns:xlink="http://www.w3.org/1999/xlink" contentScriptType="application/ecmascript" contentStyleType="text/css" height="960px" preserveAspectRatio="none" style="width:3858px;height:960px;" version="1.1" viewBox="0 0 3858 960" width="3858px" zoomAndPan="magnify"><defs><filter height="300%" id="fq85bfz9ax6ds" width="300%" x="-1" y="-1"><feGaussianBlur result="blurOut" stdDeviation="2.0"/><feColorMatrix in="blurOut" result="blurOut2" type="matrix" values="0 0 0 0 0 0 0 0 0 0 0 0 0 0 0 0 0 0 .4 0"/><feOffset dx="4.0" dy="4.0" in="blurOut2" result="blurOut3"/><feBlend in="SourceGraphic" in2="blurOut3" mode="normal"/></filter></defs><g><!--MD5=[8fd473fd151a2794da4f2c8684676405]
cluster Presentation--><polygon fill="#DDDDDD" filter="url(#fq85bfz9ax6ds)" points="3085,6,3181,6,3188,29.6094,3299,29.6094,3299,134,3085,134,3085,6" style="stroke:#000000;stroke-width:1.5;"/><line style="stroke:#000000;stroke-width:1.5;" x1="3085" x2="3188" y1="29.6094" y2="29.6094"/><text fill="#000000" font-family="sans-serif" font-size="14" font-weight="bold" lengthAdjust="spacing" textLength="90" x="3089" y="22.5332">Presentation</text><!--MD5=[d64883541e3d62e3241c4d12decf100d]
cluster Application--><polygon fill="#DDDDDD" filter="url(#fq85bfz9ax6ds)" points="3031,167,3115,167,3122,190.6094,3353,190.6094,3353,420,3031,420,3031,167" style="stroke:#000000;stroke-width:1.5;"/><line style="stroke:#000000;stroke-width:1.5;" x1="3031" x2="3122" y1="190.6094" y2="190.6094"/><text fill="#000000" font-family="sans-serif" font-size="14" font-weight="bold" lengthAdjust="spacing" textLength="78" x="3035" y="183.5332">Application</text><!--MD5=[121a8bf1197281ab89ed693fab589f94]
cluster Domain--><polygon fill="#DDDDDD" filter="url(#fq85bfz9ax6ds)" points="895,470,953,470,960,493.6094,3841,493.6094,3841,818,895,818,895,470" style="stroke:#000000;stroke-width:1.5;"/><line style="stroke:#000000;stroke-width:1.5;" x1="895" x2="960" y1="493.6094" y2="493.6094"/><text fill="#000000" font-family="sans-serif" font-size="14" font-weight="bold" lengthAdjust="spacing" textLength="52" x="899" y="486.5332">Domain</text><!--MD5=[44cc74aea8168fb4471e814fff38ed12]
cluster Builder--><polygon fill="#DDDDDD" filter="url(#fq85bfz9ax6ds)" points="2779,514,2836,514,2843,537.6094,3093,537.6094,3093,794,2779,794,2779,514" style="stroke:#000000;stroke-width:1.5;"/><line style="stroke:#000000;stroke-width:1.5;" x1="2779" x2="2843" y1="537.6094" y2="537.6094"/><text fill="#000000" font-family="sans-serif" font-size="14" font-weight="bold" lengthAdjust="spacing" textLength="51" x="2783" y="530.5332">Builder</text><!--MD5=[bc6b40dadbf86ab6a0c8405a467a48af]
cluster Persistence--><polygon fill="#DDDDDD" filter="url(#fq85bfz9ax6ds)" points="16,532,106,532,113,555.6094,871,555.6094,871,953,16,953,16,532" style="stroke:#000000;stroke-width:1.5;"/><line style="stroke:#000000;stroke-width:1.5;" x1="16" x2="113" y1="555.6094" y2="555.6094"/><text fill="#000000" font-family="sans-serif" font-size="14" font-weight="bold" lengthAdjust="spacing" textLength="84" x="20" y="548.5332">Persistence</text><!--MD5=[0d5799440b3bfefd92b00abfcd2c79b9]
cluster Factory--><polygon fill="#DDDDDD" filter="url(#fq85bfz9ax6ds)" points="685,576,743,576,750,599.6094,847,599.6094,847,732,685,732,685,576" style="stroke:#000000;stroke-width:1.5;"/><line style="stroke:#000000;stroke-width:1.5;" x1="685" x2="750" y1="599.6094" y2="599.6094"/><text fill="#000000" font-family="sans-serif" font-size="14" font-weight="bold" lengthAdjust="spacing" textLength="52" x="689" y="592.5332">Factory</text><!--MD5=[71971f99a41bb66cf321ce46bb59f738]
cluster Repository--><polygon fill="#DDDDDD" filter="url(#fq85bfz9ax6ds)" points="421,576,503,576,510,599.6094,661,599.6094,661,929,421,929,421,576" style="stroke:#000000;stroke-width:1.5;"/><line style="stroke:#000000;stroke-width:1.5;" x1="421" x2="510" y1="599.6094" y2="599.6094"/><text fill="#000000" font-family="sans-serif" font-size="14" font-weight="bold" lengthAdjust="spacing" textLength="76" x="425" y="592.5332">Repository</text><!--MD5=[93c84338c8133da314580433f8790b00]
class CollaboratorSpecificationUI--><rect codeLine="5" fill="#FEFECE" filter="url(#fq85bfz9ax6ds)" height="56.1875" id="CollaboratorSpecificationUI" style="stroke:#A80036;stroke-width:1.5;" width="182" x="3101" y="62"/><ellipse cx="3116" cy="82.0938" fill="#ADD1B2" rx="11" ry="11" style="stroke:#A80036;stroke-width:1.0;"/><path d="M3118,78.5938 Q3118.2031,78.0938 3118.4375,77.8438 Q3118.6719,77.5938 3118.9375,77.5938 Q3119.4063,77.5938 3119.7031,77.875 Q3120,78.1563 3120,78.8125 L3120,80.375 Q3120,81.0313 3119.7188,81.3125 Q3119.4375,81.5938 3119,81.5938 Q3118.6094,81.5938 3118.3594,81.4219 Q3118.1094,81.25 3118,80.7969 Q3117.9531,80.4844 3117.7813,80.3125 Q3117.4688,79.9844 3116.9063,79.7969 Q3116.3438,79.5938 3115.7813,79.5938 Q3115.0781,79.5938 3114.4844,79.875 Q3113.9063,80.1563 3113.4531,80.7813 Q3113,81.4063 3113,82.2656 L3113,83.1875 Q3113,84.2188 3113.8438,84.9063 Q3114.6875,85.5938 3116.1875,85.5938 Q3117.0781,85.5938 3117.7031,85.3906 Q3118.0625,85.2813 3118.4688,84.9219 Q3118.7344,84.7188 3118.875,84.6563 Q3119.0156,84.5938 3119.1875,84.5938 Q3119.5156,84.5938 3119.75,84.8594 Q3120,85.1094 3120,85.4688 Q3120,85.8125 3119.6563,86.2188 Q3119.1563,86.8125 3118.3594,87.1406 Q3117.3125,87.5938 3116.0313,87.5938 Q3114.5313,87.5938 3113.3281,87 Q3112.3594,86.5313 3111.6719,85.5156 Q3111,84.5 3111,83.2969 L3111,82.2031 Q3111,80.9531 3111.5938,79.8594 Q3112.2031,78.7656 3113.25,78.1875 Q3114.3125,77.5938 3115.5,77.5938 Q3116.2188,77.5938 3116.8438,77.8438 Q3117.4688,78.0938 3118,78.5938 Z " fill="#000000"/><text fill="#000000" font-family="sans-serif" font-size="12" font-style="italic" lengthAdjust="spacing" textLength="82" x="3164" y="79.457">«presentation»</text><text fill="#000000" font-family="sans-serif" font-size="12" lengthAdjust="spacing" textLength="150" x="3130" y="94.5508">CollaboratorSpecificationUI</text><line style="stroke:#A80036;stroke-width:1.5;" x1="3102" x2="3282" y1="102.1875" y2="102.1875"/><line style="stroke:#A80036;stroke-width:1.5;" x1="3102" x2="3282" y1="110.1875" y2="110.1875"/><!--MD5=[f1bbe1cf2453e6a45e68131c63d26ace]
class CollaboratorSpecificationController--><rect codeLine="12" fill="#FEFECE" filter="url(#fq85bfz9ax6ds)" height="180.7109" id="CollaboratorSpecificationController" style="stroke:#A80036;stroke-width:1.5;" width="289" x="3047.5" y="223"/><ellipse cx="3091.75" cy="243.0938" fill="#ADD1B2" rx="11" ry="11" style="stroke:#A80036;stroke-width:1.0;"/><path d="M3093.75,239.5938 Q3093.9531,239.0938 3094.1875,238.8438 Q3094.4219,238.5938 3094.6875,238.5938 Q3095.1563,238.5938 3095.4531,238.875 Q3095.75,239.1563 3095.75,239.8125 L3095.75,241.375 Q3095.75,242.0313 3095.4688,242.3125 Q3095.1875,242.5938 3094.75,242.5938 Q3094.3594,242.5938 3094.1094,242.4219 Q3093.8594,242.25 3093.75,241.7969 Q3093.7031,241.4844 3093.5313,241.3125 Q3093.2188,240.9844 3092.6563,240.7969 Q3092.0938,240.5938 3091.5313,240.5938 Q3090.8281,240.5938 3090.2344,240.875 Q3089.6563,241.1563 3089.2031,241.7813 Q3088.75,242.4063 3088.75,243.2656 L3088.75,244.1875 Q3088.75,245.2188 3089.5938,245.9063 Q3090.4375,246.5938 3091.9375,246.5938 Q3092.8281,246.5938 3093.4531,246.3906 Q3093.8125,246.2813 3094.2188,245.9219 Q3094.4844,245.7188 3094.625,245.6563 Q3094.7656,245.5938 3094.9375,245.5938 Q3095.2656,245.5938 3095.5,245.8594 Q3095.75,246.1094 3095.75,246.4688 Q3095.75,246.8125 3095.4063,247.2188 Q3094.9063,247.8125 3094.1094,248.1406 Q3093.0625,248.5938 3091.7813,248.5938 Q3090.2813,248.5938 3089.0781,248 Q3088.1094,247.5313 3087.4219,246.5156 Q3086.75,245.5 3086.75,244.2969 L3086.75,243.2031 Q3086.75,241.9531 3087.3438,240.8594 Q3087.9531,239.7656 3089,239.1875 Q3090.0625,238.5938 3091.25,238.5938 Q3091.9688,238.5938 3092.5938,238.8438 Q3093.2188,239.0938 3093.75,239.5938 Z " fill="#000000"/><text fill="#000000" font-family="sans-serif" font-size="12" font-style="italic" lengthAdjust="spacing" textLength="67" x="3174.75" y="240.457">«aplication»</text><text fill="#000000" font-family="sans-serif" font-size="12" lengthAdjust="spacing" textLength="192" x="3112.25" y="255.5508">CollaboratorSpecificationController</text><line style="stroke:#A80036;stroke-width:1.5;" x1="3048.5" x2="3335.5" y1="263.1875" y2="263.1875"/><line style="stroke:#A80036;stroke-width:1.5;" x1="3048.5" x2="3335.5" y1="271.1875" y2="271.1875"/><text fill="#000000" font-family="sans-serif" font-size="11" lengthAdjust="spacing" textLength="45" x="3053.5" y="286.6064">+create()</text><text fill="#000000" font-family="sans-serif" font-size="11" lengthAdjust="spacing" textLength="274" x="3053.5" y="300.4424">+addColaborador(email, firstName, lastName, shortName,</text><text fill="#000000" font-family="sans-serif" font-size="11" lengthAdjust="spacing" textLength="196" x="3053.5" y="314.2783">completeName, mechanographicNumber,</text><text fill="#000000" font-family="sans-serif" font-size="11" lengthAdjust="spacing" textLength="166" x="3053.5" y="328.1143">address, phoneNumber, birthDate)</text><text fill="#000000" font-family="sans-serif" font-size="11" lengthAdjust="spacing" textLength="67" x="3053.5" y="341.9502">+getRoleList()</text><text fill="#000000" font-family="sans-serif" font-size="11" lengthAdjust="spacing" textLength="83" x="3053.5" y="355.7861">+addRoles(roles)</text><text fill="#000000" font-family="sans-serif" font-size="11" lengthAdjust="spacing" textLength="93" x="3053.5" y="369.6221">+getCollaborators()</text><text fill="#000000" font-family="sans-serif" font-size="11" lengthAdjust="spacing" textLength="116" x="3053.5" y="383.458">+addManager(manager)</text><text fill="#000000" font-family="sans-serif" font-size="11" lengthAdjust="spacing" textLength="96" x="3053.5" y="397.2939">+saveCollaborator()</text><!--MD5=[f483d6e5de34a60207b28a5563be5e8b]
class Collaborator--><rect codeLine="25" fill="#FEFECE" filter="url(#fq85bfz9ax6ds)" height="83.8594" id="Collaborator" style="stroke:#A80036;stroke-width:1.5;" width="371" x="911.5" y="632"/><ellipse cx="1058.75" cy="652.0938" fill="#ADD1B2" rx="11" ry="11" style="stroke:#A80036;stroke-width:1.0;"/><path d="M1060.75,648.5938 Q1060.9531,648.0938 1061.1875,647.8438 Q1061.4219,647.5938 1061.6875,647.5938 Q1062.1563,647.5938 1062.4531,647.875 Q1062.75,648.1563 1062.75,648.8125 L1062.75,650.375 Q1062.75,651.0313 1062.4688,651.3125 Q1062.1875,651.5938 1061.75,651.5938 Q1061.3594,651.5938 1061.1094,651.4219 Q1060.8594,651.25 1060.75,650.7969 Q1060.7031,650.4844 1060.5313,650.3125 Q1060.2188,649.9844 1059.6563,649.7969 Q1059.0938,649.5938 1058.5313,649.5938 Q1057.8281,649.5938 1057.2344,649.875 Q1056.6563,650.1563 1056.2031,650.7813 Q1055.75,651.4063 1055.75,652.2656 L1055.75,653.1875 Q1055.75,654.2188 1056.5938,654.9063 Q1057.4375,655.5938 1058.9375,655.5938 Q1059.8281,655.5938 1060.4531,655.3906 Q1060.8125,655.2813 1061.2188,654.9219 Q1061.4844,654.7188 1061.625,654.6563 Q1061.7656,654.5938 1061.9375,654.5938 Q1062.2656,654.5938 1062.5,654.8594 Q1062.75,655.1094 1062.75,655.4688 Q1062.75,655.8125 1062.4063,656.2188 Q1061.9063,656.8125 1061.1094,657.1406 Q1060.0625,657.5938 1058.7813,657.5938 Q1057.2813,657.5938 1056.0781,657 Q1055.1094,656.5313 1054.4219,655.5156 Q1053.75,654.5 1053.75,653.2969 L1053.75,652.2031 Q1053.75,650.9531 1054.3438,649.8594 Q1054.9531,648.7656 1056,648.1875 Q1057.0625,647.5938 1058.25,647.5938 Q1058.9688,647.5938 1059.5938,647.8438 Q1060.2188,648.0938 1060.75,648.5938 Z " fill="#000000"/><text fill="#000000" font-family="sans-serif" font-size="12" font-style="italic" lengthAdjust="spacing" textLength="43" x="1091.75" y="649.457">«entity»</text><text fill="#000000" font-family="sans-serif" font-size="12" lengthAdjust="spacing" textLength="68" x="1079.25" y="664.5508">Collaborator</text><line style="stroke:#A80036;stroke-width:1.5;" x1="912.5" x2="1281.5" y1="672.1875" y2="672.1875"/><line style="stroke:#A80036;stroke-width:1.5;" x1="912.5" x2="1281.5" y1="680.1875" y2="680.1875"/><text fill="#000000" font-family="sans-serif" font-size="11" lengthAdjust="spacing" textLength="359" x="917.5" y="695.6064">+create(systemUser, shortName, completeName, mechanographicNumber,</text><text fill="#000000" font-family="sans-serif" font-size="11" lengthAdjust="spacing" textLength="190" x="917.5" y="709.4424">address, phoneNumber, birthDate,Role)</text><!--MD5=[f338b7fac0450cb697edae5d9e4bb9ca]
class ShortName--><rect codeLine="29" fill="#FEFECE" filter="url(#fq85bfz9ax6ds)" height="83.8594" id="ShortName" style="stroke:#A80036;stroke-width:1.5;" width="162" x="2193" y="632"/><ellipse cx="2231.85" cy="652.0938" fill="#ADD1B2" rx="11" ry="11" style="stroke:#A80036;stroke-width:1.0;"/><path d="M2233.85,648.5938 Q2234.0531,648.0938 2234.2875,647.8438 Q2234.5219,647.5938 2234.7875,647.5938 Q2235.2563,647.5938 2235.5531,647.875 Q2235.85,648.1563 2235.85,648.8125 L2235.85,650.375 Q2235.85,651.0313 2235.5688,651.3125 Q2235.2875,651.5938 2234.85,651.5938 Q2234.4594,651.5938 2234.2094,651.4219 Q2233.9594,651.25 2233.85,650.7969 Q2233.8031,650.4844 2233.6313,650.3125 Q2233.3188,649.9844 2232.7563,649.7969 Q2232.1938,649.5938 2231.6313,649.5938 Q2230.9281,649.5938 2230.3344,649.875 Q2229.7563,650.1563 2229.3031,650.7813 Q2228.85,651.4063 2228.85,652.2656 L2228.85,653.1875 Q2228.85,654.2188 2229.6938,654.9063 Q2230.5375,655.5938 2232.0375,655.5938 Q2232.9281,655.5938 2233.5531,655.3906 Q2233.9125,655.2813 2234.3188,654.9219 Q2234.5844,654.7188 2234.725,654.6563 Q2234.8656,654.5938 2235.0375,654.5938 Q2235.3656,654.5938 2235.6,654.8594 Q2235.85,655.1094 2235.85,655.4688 Q2235.85,655.8125 2235.5063,656.2188 Q2235.0063,656.8125 2234.2094,657.1406 Q2233.1625,657.5938 2231.8813,657.5938 Q2230.3813,657.5938 2229.1781,657 Q2228.2094,656.5313 2227.5219,655.5156 Q2226.85,654.5 2226.85,653.2969 L2226.85,652.2031 Q2226.85,650.9531 2227.4438,649.8594 Q2228.0531,648.7656 2229.1,648.1875 Q2230.1625,647.5938 2231.35,647.5938 Q2232.0688,647.5938 2232.6938,647.8438 Q2233.3188,648.0938 2233.85,648.5938 Z " fill="#000000"/><text fill="#000000" font-family="sans-serif" font-size="12" font-style="italic" lengthAdjust="spacing" textLength="81" x="2249.15" y="649.457">«value object»</text><text fill="#000000" font-family="sans-serif" font-size="12" lengthAdjust="spacing" textLength="63" x="2258.15" y="664.5508">ShortName</text><line style="stroke:#A80036;stroke-width:1.5;" x1="2194" x2="2354" y1="672.1875" y2="672.1875"/><line style="stroke:#A80036;stroke-width:1.5;" x1="2194" x2="2354" y1="680.1875" y2="680.1875"/><text fill="#000000" font-family="sans-serif" font-size="11" lengthAdjust="spacing" textLength="150" x="2199" y="695.6064">+createShortName(shortName)</text><text fill="#000000" font-family="sans-serif" font-size="11" lengthAdjust="spacing" textLength="101" x="2199" y="709.4424">-validate(shortName)</text><!--MD5=[cadca83c4c6337f88ae4425081101a2d]
class CompleteName--><rect codeLine="34" fill="#FEFECE" filter="url(#fq85bfz9ax6ds)" height="83.8594" id="CompleteName" style="stroke:#A80036;stroke-width:1.5;" width="198" x="1960" y="632"/><ellipse cx="2010.75" cy="652.0938" fill="#ADD1B2" rx="11" ry="11" style="stroke:#A80036;stroke-width:1.0;"/><path d="M2012.75,648.5938 Q2012.9531,648.0938 2013.1875,647.8438 Q2013.4219,647.5938 2013.6875,647.5938 Q2014.1563,647.5938 2014.4531,647.875 Q2014.75,648.1563 2014.75,648.8125 L2014.75,650.375 Q2014.75,651.0313 2014.4688,651.3125 Q2014.1875,651.5938 2013.75,651.5938 Q2013.3594,651.5938 2013.1094,651.4219 Q2012.8594,651.25 2012.75,650.7969 Q2012.7031,650.4844 2012.5313,650.3125 Q2012.2188,649.9844 2011.6563,649.7969 Q2011.0938,649.5938 2010.5313,649.5938 Q2009.8281,649.5938 2009.2344,649.875 Q2008.6563,650.1563 2008.2031,650.7813 Q2007.75,651.4063 2007.75,652.2656 L2007.75,653.1875 Q2007.75,654.2188 2008.5938,654.9063 Q2009.4375,655.5938 2010.9375,655.5938 Q2011.8281,655.5938 2012.4531,655.3906 Q2012.8125,655.2813 2013.2188,654.9219 Q2013.4844,654.7188 2013.625,654.6563 Q2013.7656,654.5938 2013.9375,654.5938 Q2014.2656,654.5938 2014.5,654.8594 Q2014.75,655.1094 2014.75,655.4688 Q2014.75,655.8125 2014.4063,656.2188 Q2013.9063,656.8125 2013.1094,657.1406 Q2012.0625,657.5938 2010.7813,657.5938 Q2009.2813,657.5938 2008.0781,657 Q2007.1094,656.5313 2006.4219,655.5156 Q2005.75,654.5 2005.75,653.2969 L2005.75,652.2031 Q2005.75,650.9531 2006.3438,649.8594 Q2006.9531,648.7656 2008,648.1875 Q2009.0625,647.5938 2010.25,647.5938 Q2010.9688,647.5938 2011.5938,647.8438 Q2012.2188,648.0938 2012.75,648.5938 Z " fill="#000000"/><text fill="#000000" font-family="sans-serif" font-size="12" font-style="italic" lengthAdjust="spacing" textLength="81" x="2034.75" y="649.457">«value object»</text><text fill="#000000" font-family="sans-serif" font-size="12" lengthAdjust="spacing" textLength="88" x="2031.25" y="664.5508">CompleteName</text><line style="stroke:#A80036;stroke-width:1.5;" x1="1961" x2="2157" y1="672.1875" y2="672.1875"/><line style="stroke:#A80036;stroke-width:1.5;" x1="1961" x2="2157" y1="680.1875" y2="680.1875"/><text fill="#000000" font-family="sans-serif" font-size="11" lengthAdjust="spacing" textLength="186" x="1966" y="695.6064">+createCompleteName(completeName)</text><text fill="#000000" font-family="sans-serif" font-size="11" lengthAdjust="spacing" textLength="119" x="1966" y="709.4424">-validate(completeName)</text><!--MD5=[60b365d8f6d5c8e3e73e4be0aaaeb2da]
class NumeroMecanografico--><rect codeLine="39" fill="#FEFECE" filter="url(#fq85bfz9ax6ds)" height="83.8594" id="NumeroMecanografico" style="stroke:#A80036;stroke-width:1.5;" width="274" x="1651" y="632"/><ellipse cx="1721.25" cy="652.0938" fill="#ADD1B2" rx="11" ry="11" style="stroke:#A80036;stroke-width:1.0;"/><path d="M1723.25,648.5938 Q1723.4531,648.0938 1723.6875,647.8438 Q1723.9219,647.5938 1724.1875,647.5938 Q1724.6563,647.5938 1724.9531,647.875 Q1725.25,648.1563 1725.25,648.8125 L1725.25,650.375 Q1725.25,651.0313 1724.9688,651.3125 Q1724.6875,651.5938 1724.25,651.5938 Q1723.8594,651.5938 1723.6094,651.4219 Q1723.3594,651.25 1723.25,650.7969 Q1723.2031,650.4844 1723.0313,650.3125 Q1722.7188,649.9844 1722.1563,649.7969 Q1721.5938,649.5938 1721.0313,649.5938 Q1720.3281,649.5938 1719.7344,649.875 Q1719.1563,650.1563 1718.7031,650.7813 Q1718.25,651.4063 1718.25,652.2656 L1718.25,653.1875 Q1718.25,654.2188 1719.0938,654.9063 Q1719.9375,655.5938 1721.4375,655.5938 Q1722.3281,655.5938 1722.9531,655.3906 Q1723.3125,655.2813 1723.7188,654.9219 Q1723.9844,654.7188 1724.125,654.6563 Q1724.2656,654.5938 1724.4375,654.5938 Q1724.7656,654.5938 1725,654.8594 Q1725.25,655.1094 1725.25,655.4688 Q1725.25,655.8125 1724.9063,656.2188 Q1724.4063,656.8125 1723.6094,657.1406 Q1722.5625,657.5938 1721.2813,657.5938 Q1719.7813,657.5938 1718.5781,657 Q1717.6094,656.5313 1716.9219,655.5156 Q1716.25,654.5 1716.25,653.2969 L1716.25,652.2031 Q1716.25,650.9531 1716.8438,649.8594 Q1717.4531,648.7656 1718.5,648.1875 Q1719.5625,647.5938 1720.75,647.5938 Q1721.4688,647.5938 1722.0938,647.8438 Q1722.7188,648.0938 1723.25,648.5938 Z " fill="#000000"/><text fill="#000000" font-family="sans-serif" font-size="12" font-style="italic" lengthAdjust="spacing" textLength="81" x="1763.75" y="649.457">«value object»</text><text fill="#000000" font-family="sans-serif" font-size="12" lengthAdjust="spacing" textLength="125" x="1741.75" y="664.5508">NumeroMecanografico</text><line style="stroke:#A80036;stroke-width:1.5;" x1="1652" x2="1924" y1="672.1875" y2="672.1875"/><line style="stroke:#A80036;stroke-width:1.5;" x1="1652" x2="1924" y1="680.1875" y2="680.1875"/><text fill="#000000" font-family="sans-serif" font-size="11" lengthAdjust="spacing" textLength="262" x="1657" y="695.6064">+createNumeroMecanografico(numeroMecanografico)</text><text fill="#000000" font-family="sans-serif" font-size="11" lengthAdjust="spacing" textLength="157" x="1657" y="709.4424">-validate(numeroMecanografico)</text><!--MD5=[0f39e4cb6f03951afbf6d14bd2505654]
class Address--><rect codeLine="44" fill="#FEFECE" filter="url(#fq85bfz9ax6ds)" height="83.8594" id="Address" style="stroke:#A80036;stroke-width:1.5;" width="139" x="1340.5" y="632"/><ellipse cx="1369" cy="652.0938" fill="#ADD1B2" rx="11" ry="11" style="stroke:#A80036;stroke-width:1.0;"/><path d="M1371,648.5938 Q1371.2031,648.0938 1371.4375,647.8438 Q1371.6719,647.5938 1371.9375,647.5938 Q1372.4063,647.5938 1372.7031,647.875 Q1373,648.1563 1373,648.8125 L1373,650.375 Q1373,651.0313 1372.7188,651.3125 Q1372.4375,651.5938 1372,651.5938 Q1371.6094,651.5938 1371.3594,651.4219 Q1371.1094,651.25 1371,650.7969 Q1370.9531,650.4844 1370.7813,650.3125 Q1370.4688,649.9844 1369.9063,649.7969 Q1369.3438,649.5938 1368.7813,649.5938 Q1368.0781,649.5938 1367.4844,649.875 Q1366.9063,650.1563 1366.4531,650.7813 Q1366,651.4063 1366,652.2656 L1366,653.1875 Q1366,654.2188 1366.8438,654.9063 Q1367.6875,655.5938 1369.1875,655.5938 Q1370.0781,655.5938 1370.7031,655.3906 Q1371.0625,655.2813 1371.4688,654.9219 Q1371.7344,654.7188 1371.875,654.6563 Q1372.0156,654.5938 1372.1875,654.5938 Q1372.5156,654.5938 1372.75,654.8594 Q1373,655.1094 1373,655.4688 Q1373,655.8125 1372.6563,656.2188 Q1372.1563,656.8125 1371.3594,657.1406 Q1370.3125,657.5938 1369.0313,657.5938 Q1367.5313,657.5938 1366.3281,657 Q1365.3594,656.5313 1364.6719,655.5156 Q1364,654.5 1364,653.2969 L1364,652.2031 Q1364,650.9531 1364.5938,649.8594 Q1365.2031,648.7656 1366.25,648.1875 Q1367.3125,647.5938 1368.5,647.5938 Q1369.2188,647.5938 1369.8438,647.8438 Q1370.4688,648.0938 1371,648.5938 Z " fill="#000000"/><text fill="#000000" font-family="sans-serif" font-size="12" font-style="italic" lengthAdjust="spacing" textLength="81" x="1384" y="649.457">«value object»</text><text fill="#000000" font-family="sans-serif" font-size="12" lengthAdjust="spacing" textLength="46" x="1401.5" y="664.5508">Address</text><line style="stroke:#A80036;stroke-width:1.5;" x1="1341.5" x2="1478.5" y1="672.1875" y2="672.1875"/><line style="stroke:#A80036;stroke-width:1.5;" x1="1341.5" x2="1478.5" y1="680.1875" y2="680.1875"/><text fill="#000000" font-family="sans-serif" font-size="11" lengthAdjust="spacing" textLength="127" x="1346.5" y="695.6064">+createAddress(address)</text><text fill="#000000" font-family="sans-serif" font-size="11" lengthAdjust="spacing" textLength="89" x="1346.5" y="709.4424">-validate(address)</text><!--MD5=[b5e265065262f4f9caf90311e5706eef]
class PhoneNumber--><rect codeLine="49" fill="#FEFECE" filter="url(#fq85bfz9ax6ds)" height="83.8594" id="PhoneNumber" style="stroke:#A80036;stroke-width:1.5;" width="191" x="2569.5" y="632"/><ellipse cx="2620.25" cy="652.0938" fill="#ADD1B2" rx="11" ry="11" style="stroke:#A80036;stroke-width:1.0;"/><path d="M2622.25,648.5938 Q2622.4531,648.0938 2622.6875,647.8438 Q2622.9219,647.5938 2623.1875,647.5938 Q2623.6563,647.5938 2623.9531,647.875 Q2624.25,648.1563 2624.25,648.8125 L2624.25,650.375 Q2624.25,651.0313 2623.9688,651.3125 Q2623.6875,651.5938 2623.25,651.5938 Q2622.8594,651.5938 2622.6094,651.4219 Q2622.3594,651.25 2622.25,650.7969 Q2622.2031,650.4844 2622.0313,650.3125 Q2621.7188,649.9844 2621.1563,649.7969 Q2620.5938,649.5938 2620.0313,649.5938 Q2619.3281,649.5938 2618.7344,649.875 Q2618.1563,650.1563 2617.7031,650.7813 Q2617.25,651.4063 2617.25,652.2656 L2617.25,653.1875 Q2617.25,654.2188 2618.0938,654.9063 Q2618.9375,655.5938 2620.4375,655.5938 Q2621.3281,655.5938 2621.9531,655.3906 Q2622.3125,655.2813 2622.7188,654.9219 Q2622.9844,654.7188 2623.125,654.6563 Q2623.2656,654.5938 2623.4375,654.5938 Q2623.7656,654.5938 2624,654.8594 Q2624.25,655.1094 2624.25,655.4688 Q2624.25,655.8125 2623.9063,656.2188 Q2623.4063,656.8125 2622.6094,657.1406 Q2621.5625,657.5938 2620.2813,657.5938 Q2618.7813,657.5938 2617.5781,657 Q2616.6094,656.5313 2615.9219,655.5156 Q2615.25,654.5 2615.25,653.2969 L2615.25,652.2031 Q2615.25,650.9531 2615.8438,649.8594 Q2616.4531,648.7656 2617.5,648.1875 Q2618.5625,647.5938 2619.75,647.5938 Q2620.4688,647.5938 2621.0938,647.8438 Q2621.7188,648.0938 2622.25,648.5938 Z " fill="#000000"/><text fill="#000000" font-family="sans-serif" font-size="12" font-style="italic" lengthAdjust="spacing" textLength="81" x="2640.75" y="649.457">«value object»</text><text fill="#000000" font-family="sans-serif" font-size="12" lengthAdjust="spacing" textLength="81" x="2640.75" y="664.5508">PhoneNumber</text><line style="stroke:#A80036;stroke-width:1.5;" x1="2570.5" x2="2759.5" y1="672.1875" y2="672.1875"/><line style="stroke:#A80036;stroke-width:1.5;" x1="2570.5" x2="2759.5" y1="680.1875" y2="680.1875"/><text fill="#000000" font-family="sans-serif" font-size="11" lengthAdjust="spacing" textLength="179" x="2575.5" y="695.6064">+createPhoneNumber(phoneNumber)</text><text fill="#000000" font-family="sans-serif" font-size="11" lengthAdjust="spacing" textLength="116" x="2575.5" y="709.4424">-validate(phoneNumber)</text><!--MD5=[ec957f90f125634d426aef890efece94]
class BirthDate--><rect codeLine="54" fill="#FEFECE" filter="url(#fq85bfz9ax6ds)" height="83.8594" id="BirthDate" style="stroke:#A80036;stroke-width:1.5;" width="144" x="2390" y="632"/><ellipse cx="2420.75" cy="652.0938" fill="#ADD1B2" rx="11" ry="11" style="stroke:#A80036;stroke-width:1.0;"/><path d="M2422.75,648.5938 Q2422.9531,648.0938 2423.1875,647.8438 Q2423.4219,647.5938 2423.6875,647.5938 Q2424.1563,647.5938 2424.4531,647.875 Q2424.75,648.1563 2424.75,648.8125 L2424.75,650.375 Q2424.75,651.0313 2424.4688,651.3125 Q2424.1875,651.5938 2423.75,651.5938 Q2423.3594,651.5938 2423.1094,651.4219 Q2422.8594,651.25 2422.75,650.7969 Q2422.7031,650.4844 2422.5313,650.3125 Q2422.2188,649.9844 2421.6563,649.7969 Q2421.0938,649.5938 2420.5313,649.5938 Q2419.8281,649.5938 2419.2344,649.875 Q2418.6563,650.1563 2418.2031,650.7813 Q2417.75,651.4063 2417.75,652.2656 L2417.75,653.1875 Q2417.75,654.2188 2418.5938,654.9063 Q2419.4375,655.5938 2420.9375,655.5938 Q2421.8281,655.5938 2422.4531,655.3906 Q2422.8125,655.2813 2423.2188,654.9219 Q2423.4844,654.7188 2423.625,654.6563 Q2423.7656,654.5938 2423.9375,654.5938 Q2424.2656,654.5938 2424.5,654.8594 Q2424.75,655.1094 2424.75,655.4688 Q2424.75,655.8125 2424.4063,656.2188 Q2423.9063,656.8125 2423.1094,657.1406 Q2422.0625,657.5938 2420.7813,657.5938 Q2419.2813,657.5938 2418.0781,657 Q2417.1094,656.5313 2416.4219,655.5156 Q2415.75,654.5 2415.75,653.2969 L2415.75,652.2031 Q2415.75,650.9531 2416.3438,649.8594 Q2416.9531,648.7656 2418,648.1875 Q2419.0625,647.5938 2420.25,647.5938 Q2420.9688,647.5938 2421.5938,647.8438 Q2422.2188,648.0938 2422.75,648.5938 Z " fill="#000000"/><text fill="#000000" font-family="sans-serif" font-size="12" font-style="italic" lengthAdjust="spacing" textLength="81" x="2436.25" y="649.457">«value object»</text><text fill="#000000" font-family="sans-serif" font-size="12" lengthAdjust="spacing" textLength="51" x="2451.25" y="664.5508">BirthDate</text><line style="stroke:#A80036;stroke-width:1.5;" x1="2391" x2="2533" y1="672.1875" y2="672.1875"/><line style="stroke:#A80036;stroke-width:1.5;" x1="2391" x2="2533" y1="680.1875" y2="680.1875"/><text fill="#000000" font-family="sans-serif" font-size="11" lengthAdjust="spacing" textLength="132" x="2396" y="695.6064">+createBirthDate(birthDate)</text><text fill="#000000" font-family="sans-serif" font-size="11" lengthAdjust="spacing" textLength="92" x="2396" y="709.4424">-validate(birthDate)</text><!--MD5=[a9b02957f15c05fa9f213e9359f50233]
class BaseRoles--><rect codeLine="59" fill="#FEFECE" filter="url(#fq85bfz9ax6ds)" height="70.0234" id="BaseRoles" style="stroke:#A80036;stroke-width:1.5;" width="101" x="1514.5" y="639"/><ellipse cx="1532.65" cy="659.0938" fill="#ADD1B2" rx="11" ry="11" style="stroke:#A80036;stroke-width:1.0;"/><path d="M1534.65,655.5938 Q1534.8531,655.0938 1535.0875,654.8438 Q1535.3219,654.5938 1535.5875,654.5938 Q1536.0563,654.5938 1536.3531,654.875 Q1536.65,655.1563 1536.65,655.8125 L1536.65,657.375 Q1536.65,658.0313 1536.3688,658.3125 Q1536.0875,658.5938 1535.65,658.5938 Q1535.2594,658.5938 1535.0094,658.4219 Q1534.7594,658.25 1534.65,657.7969 Q1534.6031,657.4844 1534.4313,657.3125 Q1534.1188,656.9844 1533.5563,656.7969 Q1532.9938,656.5938 1532.4313,656.5938 Q1531.7281,656.5938 1531.1344,656.875 Q1530.5563,657.1563 1530.1031,657.7813 Q1529.65,658.4063 1529.65,659.2656 L1529.65,660.1875 Q1529.65,661.2188 1530.4938,661.9063 Q1531.3375,662.5938 1532.8375,662.5938 Q1533.7281,662.5938 1534.3531,662.3906 Q1534.7125,662.2813 1535.1188,661.9219 Q1535.3844,661.7188 1535.525,661.6563 Q1535.6656,661.5938 1535.8375,661.5938 Q1536.1656,661.5938 1536.4,661.8594 Q1536.65,662.1094 1536.65,662.4688 Q1536.65,662.8125 1536.3063,663.2188 Q1535.8063,663.8125 1535.0094,664.1406 Q1533.9625,664.5938 1532.6813,664.5938 Q1531.1813,664.5938 1529.9781,664 Q1529.0094,663.5313 1528.3219,662.5156 Q1527.65,661.5 1527.65,660.2969 L1527.65,659.2031 Q1527.65,657.9531 1528.2438,656.8594 Q1528.8531,655.7656 1529.9,655.1875 Q1530.9625,654.5938 1532.15,654.5938 Q1532.8688,654.5938 1533.4938,654.8438 Q1534.1188,655.0938 1534.65,655.5938 Z " fill="#000000"/><text fill="#000000" font-family="sans-serif" font-size="12" font-style="italic" lengthAdjust="spacing" textLength="46" x="1555.35" y="656.457">«enum»</text><text fill="#000000" font-family="sans-serif" font-size="12" lengthAdjust="spacing" textLength="62" x="1547.35" y="671.5508">BaseRoles</text><line style="stroke:#A80036;stroke-width:1.5;" x1="1515.5" x2="1614.5" y1="679.1875" y2="679.1875"/><line style="stroke:#A80036;stroke-width:1.5;" x1="1515.5" x2="1614.5" y1="687.1875" y2="687.1875"/><text fill="#000000" font-family="sans-serif" font-size="11" lengthAdjust="spacing" textLength="89" x="1520.5" y="702.6064">+nonUserValues()</text><!--MD5=[7add3abbba9a945a681f7e44bfe039aa]
class RandomRawPassword--><rect codeLine="63" fill="#FEFECE" filter="url(#fq85bfz9ax6ds)" height="70.0234" id="RandomRawPassword" style="stroke:#A80036;stroke-width:1.5;" width="161" x="3111.5" y="639"/><ellipse cx="3126.5" cy="659.0938" fill="#ADD1B2" rx="11" ry="11" style="stroke:#A80036;stroke-width:1.0;"/><path d="M3128.5,655.5938 Q3128.7031,655.0938 3128.9375,654.8438 Q3129.1719,654.5938 3129.4375,654.5938 Q3129.9063,654.5938 3130.2031,654.875 Q3130.5,655.1563 3130.5,655.8125 L3130.5,657.375 Q3130.5,658.0313 3130.2188,658.3125 Q3129.9375,658.5938 3129.5,658.5938 Q3129.1094,658.5938 3128.8594,658.4219 Q3128.6094,658.25 3128.5,657.7969 Q3128.4531,657.4844 3128.2813,657.3125 Q3127.9688,656.9844 3127.4063,656.7969 Q3126.8438,656.5938 3126.2813,656.5938 Q3125.5781,656.5938 3124.9844,656.875 Q3124.4063,657.1563 3123.9531,657.7813 Q3123.5,658.4063 3123.5,659.2656 L3123.5,660.1875 Q3123.5,661.2188 3124.3438,661.9063 Q3125.1875,662.5938 3126.6875,662.5938 Q3127.5781,662.5938 3128.2031,662.3906 Q3128.5625,662.2813 3128.9688,661.9219 Q3129.2344,661.7188 3129.375,661.6563 Q3129.5156,661.5938 3129.6875,661.5938 Q3130.0156,661.5938 3130.25,661.8594 Q3130.5,662.1094 3130.5,662.4688 Q3130.5,662.8125 3130.1563,663.2188 Q3129.6563,663.8125 3128.8594,664.1406 Q3127.8125,664.5938 3126.5313,664.5938 Q3125.0313,664.5938 3123.8281,664 Q3122.8594,663.5313 3122.1719,662.5156 Q3121.5,661.5 3121.5,660.2969 L3121.5,659.2031 Q3121.5,657.9531 3122.0938,656.8594 Q3122.7031,655.7656 3123.75,655.1875 Q3124.8125,654.5938 3126,654.5938 Q3126.7188,654.5938 3127.3438,654.8438 Q3127.9688,655.0938 3128.5,655.5938 Z " fill="#000000"/><text fill="#000000" font-family="sans-serif" font-size="12" font-style="italic" lengthAdjust="spacing" textLength="56" x="3177" y="656.457">«domain»</text><text fill="#000000" font-family="sans-serif" font-size="12" lengthAdjust="spacing" textLength="129" x="3140.5" y="671.5508">RandomRawPassword</text><line style="stroke:#A80036;stroke-width:1.5;" x1="3112.5" x2="3271.5" y1="679.1875" y2="679.1875"/><line style="stroke:#A80036;stroke-width:1.5;" x1="3112.5" x2="3271.5" y1="687.1875" y2="687.1875"/><text fill="#000000" font-family="sans-serif" font-size="11" lengthAdjust="spacing" textLength="51" x="3117.5" y="702.6064">+toString()</text><!--MD5=[0b1f3d1c1978f9b151365e147219e3b1]
class AuthzRegistry--><rect codeLine="67" fill="#FEFECE" filter="url(#fq85bfz9ax6ds)" height="70.0234" id="AuthzRegistry" style="stroke:#A80036;stroke-width:1.5;" width="106" x="3308" y="639"/><ellipse cx="3323" cy="659.0938" fill="#ADD1B2" rx="11" ry="11" style="stroke:#A80036;stroke-width:1.0;"/><path d="M3325,655.5938 Q3325.2031,655.0938 3325.4375,654.8438 Q3325.6719,654.5938 3325.9375,654.5938 Q3326.4063,654.5938 3326.7031,654.875 Q3327,655.1563 3327,655.8125 L3327,657.375 Q3327,658.0313 3326.7188,658.3125 Q3326.4375,658.5938 3326,658.5938 Q3325.6094,658.5938 3325.3594,658.4219 Q3325.1094,658.25 3325,657.7969 Q3324.9531,657.4844 3324.7813,657.3125 Q3324.4688,656.9844 3323.9063,656.7969 Q3323.3438,656.5938 3322.7813,656.5938 Q3322.0781,656.5938 3321.4844,656.875 Q3320.9063,657.1563 3320.4531,657.7813 Q3320,658.4063 3320,659.2656 L3320,660.1875 Q3320,661.2188 3320.8438,661.9063 Q3321.6875,662.5938 3323.1875,662.5938 Q3324.0781,662.5938 3324.7031,662.3906 Q3325.0625,662.2813 3325.4688,661.9219 Q3325.7344,661.7188 3325.875,661.6563 Q3326.0156,661.5938 3326.1875,661.5938 Q3326.5156,661.5938 3326.75,661.8594 Q3327,662.1094 3327,662.4688 Q3327,662.8125 3326.6563,663.2188 Q3326.1563,663.8125 3325.3594,664.1406 Q3324.3125,664.5938 3323.0313,664.5938 Q3321.5313,664.5938 3320.3281,664 Q3319.3594,663.5313 3318.6719,662.5156 Q3318,661.5 3318,660.2969 L3318,659.2031 Q3318,657.9531 3318.5938,656.8594 Q3319.2031,655.7656 3320.25,655.1875 Q3321.3125,654.5938 3322.5,654.5938 Q3323.2188,654.5938 3323.8438,654.8438 Q3324.4688,655.0938 3325,655.5938 Z " fill="#000000"/><text fill="#000000" font-family="sans-serif" font-size="12" font-style="italic" lengthAdjust="spacing" textLength="56" x="3346" y="656.457">«domain»</text><text fill="#000000" font-family="sans-serif" font-size="12" lengthAdjust="spacing" textLength="74" x="3337" y="671.5508">AuthzRegistry</text><line style="stroke:#A80036;stroke-width:1.5;" x1="3309" x2="3413" y1="679.1875" y2="679.1875"/><line style="stroke:#A80036;stroke-width:1.5;" x1="3309" x2="3413" y1="687.1875" y2="687.1875"/><text fill="#000000" font-family="sans-serif" font-size="11" lengthAdjust="spacing" textLength="73" x="3314" y="702.6064">+userService()</text><!--MD5=[e4ac4745f81aec2db60ad4ddae80b659]
class UserService--><rect codeLine="71" fill="#FEFECE" filter="url(#fq85bfz9ax6ds)" height="70.0234" id="UserService" style="stroke:#A80036;stroke-width:1.5;" width="375" x="3449.5" y="639"/><ellipse cx="3599.25" cy="659.0938" fill="#ADD1B2" rx="11" ry="11" style="stroke:#A80036;stroke-width:1.0;"/><path d="M3601.25,655.5938 Q3601.4531,655.0938 3601.6875,654.8438 Q3601.9219,654.5938 3602.1875,654.5938 Q3602.6563,654.5938 3602.9531,654.875 Q3603.25,655.1563 3603.25,655.8125 L3603.25,657.375 Q3603.25,658.0313 3602.9688,658.3125 Q3602.6875,658.5938 3602.25,658.5938 Q3601.8594,658.5938 3601.6094,658.4219 Q3601.3594,658.25 3601.25,657.7969 Q3601.2031,657.4844 3601.0313,657.3125 Q3600.7188,656.9844 3600.1563,656.7969 Q3599.5938,656.5938 3599.0313,656.5938 Q3598.3281,656.5938 3597.7344,656.875 Q3597.1563,657.1563 3596.7031,657.7813 Q3596.25,658.4063 3596.25,659.2656 L3596.25,660.1875 Q3596.25,661.2188 3597.0938,661.9063 Q3597.9375,662.5938 3599.4375,662.5938 Q3600.3281,662.5938 3600.9531,662.3906 Q3601.3125,662.2813 3601.7188,661.9219 Q3601.9844,661.7188 3602.125,661.6563 Q3602.2656,661.5938 3602.4375,661.5938 Q3602.7656,661.5938 3603,661.8594 Q3603.25,662.1094 3603.25,662.4688 Q3603.25,662.8125 3602.9063,663.2188 Q3602.4063,663.8125 3601.6094,664.1406 Q3600.5625,664.5938 3599.2813,664.5938 Q3597.7813,664.5938 3596.5781,664 Q3595.6094,663.5313 3594.9219,662.5156 Q3594.25,661.5 3594.25,660.2969 L3594.25,659.2031 Q3594.25,657.9531 3594.8438,656.8594 Q3595.4531,655.7656 3596.5,655.1875 Q3597.5625,654.5938 3598.75,654.5938 Q3599.4688,654.5938 3600.0938,654.8438 Q3600.7188,655.0938 3601.25,655.5938 Z " fill="#000000"/><text fill="#000000" font-family="sans-serif" font-size="12" font-style="italic" lengthAdjust="spacing" textLength="56" x="3625.25" y="656.457">«domain»</text><text fill="#000000" font-family="sans-serif" font-size="12" lengthAdjust="spacing" textLength="67" x="3619.75" y="671.5508">UserService</text><line style="stroke:#A80036;stroke-width:1.5;" x1="3450.5" x2="3823.5" y1="679.1875" y2="679.1875"/><line style="stroke:#A80036;stroke-width:1.5;" x1="3450.5" x2="3823.5" y1="687.1875" y2="687.1875"/><text fill="#000000" font-family="sans-serif" font-size="11" lengthAdjust="spacing" textLength="363" x="3455.5" y="702.6064">+registerNewUser(username, password, firstName, lastName, email, roles)</text><!--MD5=[164e5e9cf855eb64ce2728330d9f659f]
class CollaboratorBuilder--><rect codeLine="76" fill="#FEFECE" filter="url(#fq85bfz9ax6ds)" height="208.3828" id="CollaboratorBuilder" style="stroke:#A80036;stroke-width:1.5;" width="281" x="2795.5" y="570"/><ellipse cx="2878.25" cy="590.0938" fill="#ADD1B2" rx="11" ry="11" style="stroke:#A80036;stroke-width:1.0;"/><path d="M2880.25,586.5938 Q2880.4531,586.0938 2880.6875,585.8438 Q2880.9219,585.5938 2881.1875,585.5938 Q2881.6563,585.5938 2881.9531,585.875 Q2882.25,586.1563 2882.25,586.8125 L2882.25,588.375 Q2882.25,589.0313 2881.9688,589.3125 Q2881.6875,589.5938 2881.25,589.5938 Q2880.8594,589.5938 2880.6094,589.4219 Q2880.3594,589.25 2880.25,588.7969 Q2880.2031,588.4844 2880.0313,588.3125 Q2879.7188,587.9844 2879.1563,587.7969 Q2878.5938,587.5938 2878.0313,587.5938 Q2877.3281,587.5938 2876.7344,587.875 Q2876.1563,588.1563 2875.7031,588.7813 Q2875.25,589.4063 2875.25,590.2656 L2875.25,591.1875 Q2875.25,592.2188 2876.0938,592.9063 Q2876.9375,593.5938 2878.4375,593.5938 Q2879.3281,593.5938 2879.9531,593.3906 Q2880.3125,593.2813 2880.7188,592.9219 Q2880.9844,592.7188 2881.125,592.6563 Q2881.2656,592.5938 2881.4375,592.5938 Q2881.7656,592.5938 2882,592.8594 Q2882.25,593.1094 2882.25,593.4688 Q2882.25,593.8125 2881.9063,594.2188 Q2881.4063,594.8125 2880.6094,595.1406 Q2879.5625,595.5938 2878.2813,595.5938 Q2876.7813,595.5938 2875.5781,595 Q2874.6094,594.5313 2873.9219,593.5156 Q2873.25,592.5 2873.25,591.2969 L2873.25,590.2031 Q2873.25,588.9531 2873.8438,587.8594 Q2874.4531,586.7656 2875.5,586.1875 Q2876.5625,585.5938 2877.75,585.5938 Q2878.4688,585.5938 2879.0938,585.8438 Q2879.7188,586.0938 2880.25,586.5938 Z " fill="#000000"/><text fill="#000000" font-family="sans-serif" font-size="12" font-style="italic" lengthAdjust="spacing" textLength="53" x="2925.75" y="587.457">«builder»</text><text fill="#000000" font-family="sans-serif" font-size="12" lengthAdjust="spacing" textLength="107" x="2898.75" y="602.5508">CollaboratorBuilder</text><line style="stroke:#A80036;stroke-width:1.5;" x1="2796.5" x2="3075.5" y1="610.1875" y2="610.1875"/><line style="stroke:#A80036;stroke-width:1.5;" x1="2796.5" x2="3075.5" y1="618.1875" y2="618.1875"/><text fill="#000000" font-family="sans-serif" font-size="11" lengthAdjust="spacing" textLength="45" x="2801.5" y="633.6064">+create()</text><text fill="#000000" font-family="sans-serif" font-size="11" lengthAdjust="spacing" textLength="140" x="2801.5" y="647.4424">+withShortName(shortName)</text><text fill="#000000" font-family="sans-serif" font-size="11" lengthAdjust="spacing" textLength="176" x="2801.5" y="661.2783">+withCompleteName(completeName)</text><text fill="#000000" font-family="sans-serif" font-size="11" lengthAdjust="spacing" textLength="269" x="2801.5" y="675.1143">+withMechanographicNumber(mechanographicNumber)</text><text fill="#000000" font-family="sans-serif" font-size="11" lengthAdjust="spacing" textLength="117" x="2801.5" y="688.9502">+withAddress(address)</text><text fill="#000000" font-family="sans-serif" font-size="11" lengthAdjust="spacing" textLength="169" x="2801.5" y="702.7861">+withPhoneNumber(phoneNumber)</text><text fill="#000000" font-family="sans-serif" font-size="11" lengthAdjust="spacing" textLength="122" x="2801.5" y="716.6221">+withBirthDate(birthDate)</text><text fill="#000000" font-family="sans-serif" font-size="11" lengthAdjust="spacing" textLength="77" x="2801.5" y="730.458">+withRole(Role)</text><text fill="#000000" font-family="sans-serif" font-size="11" lengthAdjust="spacing" textLength="0" x="2804.5" y="744.2939"/><text fill="#000000" font-family="sans-serif" font-size="11" lengthAdjust="spacing" textLength="152" x="2801.5" y="758.1299">+withSystemUser(systemUser)</text><text fill="#000000" font-family="sans-serif" font-size="11" lengthAdjust="spacing" textLength="36" x="2801.5" y="771.9658">+build()</text><!--MD5=[e8c189551b7885b999ad7cefb30fc2a3]
class PersistenceContext--><rect codeLine="93" fill="#FEFECE" filter="url(#fq85bfz9ax6ds)" height="70.0234" id="PersistenceContext" style="stroke:#A80036;stroke-width:1.5;" width="139" x="32.5" y="639"/><ellipse cx="47.5" cy="659.0938" fill="#ADD1B2" rx="11" ry="11" style="stroke:#A80036;stroke-width:1.0;"/><path d="M49.5,655.5938 Q49.7031,655.0938 49.9375,654.8438 Q50.1719,654.5938 50.4375,654.5938 Q50.9063,654.5938 51.2031,654.875 Q51.5,655.1563 51.5,655.8125 L51.5,657.375 Q51.5,658.0313 51.2188,658.3125 Q50.9375,658.5938 50.5,658.5938 Q50.1094,658.5938 49.8594,658.4219 Q49.6094,658.25 49.5,657.7969 Q49.4531,657.4844 49.2813,657.3125 Q48.9688,656.9844 48.4063,656.7969 Q47.8438,656.5938 47.2813,656.5938 Q46.5781,656.5938 45.9844,656.875 Q45.4063,657.1563 44.9531,657.7813 Q44.5,658.4063 44.5,659.2656 L44.5,660.1875 Q44.5,661.2188 45.3438,661.9063 Q46.1875,662.5938 47.6875,662.5938 Q48.5781,662.5938 49.2031,662.3906 Q49.5625,662.2813 49.9688,661.9219 Q50.2344,661.7188 50.375,661.6563 Q50.5156,661.5938 50.6875,661.5938 Q51.0156,661.5938 51.25,661.8594 Q51.5,662.1094 51.5,662.4688 Q51.5,662.8125 51.1563,663.2188 Q50.6563,663.8125 49.8594,664.1406 Q48.8125,664.5938 47.5313,664.5938 Q46.0313,664.5938 44.8281,664 Q43.8594,663.5313 43.1719,662.5156 Q42.5,661.5 42.5,660.2969 L42.5,659.2031 Q42.5,657.9531 43.0938,656.8594 Q43.7031,655.7656 44.75,655.1875 Q45.8125,654.5938 47,654.5938 Q47.7188,654.5938 48.3438,654.8438 Q48.9688,655.0938 49.5,655.5938 Z " fill="#000000"/><text fill="#000000" font-family="sans-serif" font-size="12" font-style="italic" lengthAdjust="spacing" textLength="77" x="76.5" y="656.457">«persistence»</text><text fill="#000000" font-family="sans-serif" font-size="12" lengthAdjust="spacing" textLength="107" x="61.5" y="671.5508">PersistenceContext</text><line style="stroke:#A80036;stroke-width:1.5;" x1="33.5" x2="170.5" y1="679.1875" y2="679.1875"/><line style="stroke:#A80036;stroke-width:1.5;" x1="33.5" x2="170.5" y1="687.1875" y2="687.1875"/><text fill="#000000" font-family="sans-serif" font-size="11" lengthAdjust="spacing" textLength="71" x="38.5" y="702.6064">+repositories()</text><!--MD5=[b8e4c95865208c934bfcfda4f90bf50c]
class AppSettings--><rect codeLine="97" fill="#FEFECE" filter="url(#fq85bfz9ax6ds)" height="83.8594" id="AppSettings" style="stroke:#A80036;stroke-width:1.5;" width="130" x="275" y="632"/><ellipse cx="301.25" cy="652.0938" fill="#ADD1B2" rx="11" ry="11" style="stroke:#A80036;stroke-width:1.0;"/><path d="M303.25,648.5938 Q303.4531,648.0938 303.6875,647.8438 Q303.9219,647.5938 304.1875,647.5938 Q304.6563,647.5938 304.9531,647.875 Q305.25,648.1563 305.25,648.8125 L305.25,650.375 Q305.25,651.0313 304.9688,651.3125 Q304.6875,651.5938 304.25,651.5938 Q303.8594,651.5938 303.6094,651.4219 Q303.3594,651.25 303.25,650.7969 Q303.2031,650.4844 303.0313,650.3125 Q302.7188,649.9844 302.1563,649.7969 Q301.5938,649.5938 301.0313,649.5938 Q300.3281,649.5938 299.7344,649.875 Q299.1563,650.1563 298.7031,650.7813 Q298.25,651.4063 298.25,652.2656 L298.25,653.1875 Q298.25,654.2188 299.0938,654.9063 Q299.9375,655.5938 301.4375,655.5938 Q302.3281,655.5938 302.9531,655.3906 Q303.3125,655.2813 303.7188,654.9219 Q303.9844,654.7188 304.125,654.6563 Q304.2656,654.5938 304.4375,654.5938 Q304.7656,654.5938 305,654.8594 Q305.25,655.1094 305.25,655.4688 Q305.25,655.8125 304.9063,656.2188 Q304.4063,656.8125 303.6094,657.1406 Q302.5625,657.5938 301.2813,657.5938 Q299.7813,657.5938 298.5781,657 Q297.6094,656.5313 296.9219,655.5156 Q296.25,654.5 296.25,653.2969 L296.25,652.2031 Q296.25,650.9531 296.8438,649.8594 Q297.4531,648.7656 298.5,648.1875 Q299.5625,647.5938 300.75,647.5938 Q301.4688,647.5938 302.0938,647.8438 Q302.7188,648.0938 303.25,648.5938 Z " fill="#000000"/><text fill="#000000" font-family="sans-serif" font-size="12" font-style="italic" lengthAdjust="spacing" textLength="77" x="315.75" y="649.457">«persistence»</text><text fill="#000000" font-family="sans-serif" font-size="12" lengthAdjust="spacing" textLength="66" x="321.25" y="664.5508">AppSettings</text><line style="stroke:#A80036;stroke-width:1.5;" x1="276" x2="404" y1="672.1875" y2="672.1875"/><line style="stroke:#A80036;stroke-width:1.5;" x1="276" x2="404" y1="680.1875" y2="680.1875"/><text fill="#000000" font-family="sans-serif" font-size="11" lengthAdjust="spacing" textLength="55" x="281" y="695.6064">+instance()</text><text fill="#000000" font-family="sans-serif" font-size="11" lengthAdjust="spacing" textLength="118" x="281" y="709.4424">+getRepositoryFactory()</text><!--MD5=[48590afff58a68e2fcba47824d6f8a11]
class RepositoryFactory--><rect codeLine="103" fill="#FEFECE" filter="url(#fq85bfz9ax6ds)" height="83.8594" id="RepositoryFactory" style="stroke:#A80036;stroke-width:1.5;" width="130" x="701" y="632"/><ellipse cx="716" cy="652.0938" fill="#ADD1B2" rx="11" ry="11" style="stroke:#A80036;stroke-width:1.0;"/><path d="M718,648.5938 Q718.2031,648.0938 718.4375,647.8438 Q718.6719,647.5938 718.9375,647.5938 Q719.4063,647.5938 719.7031,647.875 Q720,648.1563 720,648.8125 L720,650.375 Q720,651.0313 719.7188,651.3125 Q719.4375,651.5938 719,651.5938 Q718.6094,651.5938 718.3594,651.4219 Q718.1094,651.25 718,650.7969 Q717.9531,650.4844 717.7813,650.3125 Q717.4688,649.9844 716.9063,649.7969 Q716.3438,649.5938 715.7813,649.5938 Q715.0781,649.5938 714.4844,649.875 Q713.9063,650.1563 713.4531,650.7813 Q713,651.4063 713,652.2656 L713,653.1875 Q713,654.2188 713.8438,654.9063 Q714.6875,655.5938 716.1875,655.5938 Q717.0781,655.5938 717.7031,655.3906 Q718.0625,655.2813 718.4688,654.9219 Q718.7344,654.7188 718.875,654.6563 Q719.0156,654.5938 719.1875,654.5938 Q719.5156,654.5938 719.75,654.8594 Q720,655.1094 720,655.4688 Q720,655.8125 719.6563,656.2188 Q719.1563,656.8125 718.3594,657.1406 Q717.3125,657.5938 716.0313,657.5938 Q714.5313,657.5938 713.3281,657 Q712.3594,656.5313 711.6719,655.5156 Q711,654.5 711,653.2969 L711,652.2031 Q711,650.9531 711.5938,649.8594 Q712.2031,648.7656 713.25,648.1875 Q714.3125,647.5938 715.5,647.5938 Q716.2188,647.5938 716.8438,647.8438 Q717.4688,648.0938 718,648.5938 Z " fill="#000000"/><text fill="#000000" font-family="sans-serif" font-size="12" font-style="italic" lengthAdjust="spacing" textLength="50" x="754" y="649.457">«factory»</text><text fill="#000000" font-family="sans-serif" font-size="12" lengthAdjust="spacing" textLength="98" x="730" y="664.5508">RepositoryFactory</text><line style="stroke:#A80036;stroke-width:1.5;" x1="702" x2="830" y1="672.1875" y2="672.1875"/><line style="stroke:#A80036;stroke-width:1.5;" x1="702" x2="830" y1="680.1875" y2="680.1875"/><text fill="#000000" font-family="sans-serif" font-size="11" lengthAdjust="spacing" textLength="77" x="707" y="695.6064">+collaborators()</text><text fill="#000000" font-family="sans-serif" font-size="11" lengthAdjust="spacing" textLength="38" x="707" y="709.4424">+roles()</text><!--MD5=[7d8ac9ac30c94f5163e620de18c62996]
class CollaboratorRepository--><rect codeLine="110" fill="#FEFECE" filter="url(#fq85bfz9ax6ds)" height="83.8594" id="CollaboratorRepository" style="stroke:#A80036;stroke-width:1.5;" width="159" x="484.5" y="632"/><ellipse cx="499.5" cy="652.0938" fill="#ADD1B2" rx="11" ry="11" style="stroke:#A80036;stroke-width:1.0;"/><path d="M501.5,648.5938 Q501.7031,648.0938 501.9375,647.8438 Q502.1719,647.5938 502.4375,647.5938 Q502.9063,647.5938 503.2031,647.875 Q503.5,648.1563 503.5,648.8125 L503.5,650.375 Q503.5,651.0313 503.2188,651.3125 Q502.9375,651.5938 502.5,651.5938 Q502.1094,651.5938 501.8594,651.4219 Q501.6094,651.25 501.5,650.7969 Q501.4531,650.4844 501.2813,650.3125 Q500.9688,649.9844 500.4063,649.7969 Q499.8438,649.5938 499.2813,649.5938 Q498.5781,649.5938 497.9844,649.875 Q497.4063,650.1563 496.9531,650.7813 Q496.5,651.4063 496.5,652.2656 L496.5,653.1875 Q496.5,654.2188 497.3438,654.9063 Q498.1875,655.5938 499.6875,655.5938 Q500.5781,655.5938 501.2031,655.3906 Q501.5625,655.2813 501.9688,654.9219 Q502.2344,654.7188 502.375,654.6563 Q502.5156,654.5938 502.6875,654.5938 Q503.0156,654.5938 503.25,654.8594 Q503.5,655.1094 503.5,655.4688 Q503.5,655.8125 503.1563,656.2188 Q502.6563,656.8125 501.8594,657.1406 Q500.8125,657.5938 499.5313,657.5938 Q498.0313,657.5938 496.8281,657 Q495.8594,656.5313 495.1719,655.5156 Q494.5,654.5 494.5,653.2969 L494.5,652.2031 Q494.5,650.9531 495.0938,649.8594 Q495.7031,648.7656 496.75,648.1875 Q497.8125,647.5938 499,647.5938 Q499.7188,647.5938 500.3438,647.8438 Q500.9688,648.0938 501.5,648.5938 Z " fill="#000000"/><text fill="#000000" font-family="sans-serif" font-size="12" font-style="italic" lengthAdjust="spacing" textLength="68" x="543" y="649.457">«repository»</text><text fill="#000000" font-family="sans-serif" font-size="12" lengthAdjust="spacing" textLength="127" x="513.5" y="664.5508">CollaboratorRepository</text><line style="stroke:#A80036;stroke-width:1.5;" x1="485.5" x2="642.5" y1="672.1875" y2="672.1875"/><line style="stroke:#A80036;stroke-width:1.5;" x1="485.5" x2="642.5" y1="680.1875" y2="680.1875"/><text fill="#000000" font-family="sans-serif" font-size="11" lengthAdjust="spacing" textLength="24" x="490.5" y="695.6064">+all()</text><text fill="#000000" font-family="sans-serif" font-size="11" lengthAdjust="spacing" textLength="95" x="490.5" y="709.4424">+save(collaborator)</text><!--MD5=[fb5a3980349928d6991386b21c626158]
class CollaboratorRepositoryInterface--><rect codeLine="115" fill="#FEFECE" filter="url(#fq85bfz9ax6ds)" height="48" id="CollaboratorRepositoryInterface" style="stroke:#A80036;stroke-width:1.5;" width="208" x="437" y="865"/><ellipse cx="452" cy="881" fill="#B4A7E5" rx="11" ry="11" style="stroke:#A80036;stroke-width:1.0;"/><path d="M453,878 L453,884 L455,884 L455.4844,884 L456,884.625 L456,885 L456,885.375 L455.4844,886 L455,886 L449,886 L448.5156,886 L448,885.375 L448,885 L448,884.625 L448.5156,884 L449,884 L451,884 L451,878 L449,878 L448.5156,878 L448,877.375 L448,877 L448,876.625 L448.5156,876 L449,876 L455,876 L455.4844,876 L456,876.625 L456,877 L456,877.375 L455.4844,878 L455,878 L453,878 Z " fill="#000000"/><text fill="#000000" font-family="sans-serif" font-size="12" font-style="italic" lengthAdjust="spacing" textLength="176" x="466" y="885.9102">CollaboratorRepositoryInterface</text><line style="stroke:#A80036;stroke-width:1.5;" x1="438" x2="644" y1="897" y2="897"/><line style="stroke:#A80036;stroke-width:1.5;" x1="438" x2="644" y1="905" y2="905"/><!--MD5=[eb3433108b320f38a9b86aba7717ec12]
link CollaboratorSpecificationUI to CollaboratorSpecificationController--><path codeLine="123" d="M3192,118.16 C3192,143.04 3192,181.39 3192,217.46 " fill="none" id="CollaboratorSpecificationUI-to-CollaboratorSpecificationController" style="stroke:#A80036;stroke-width:1.0;stroke-dasharray:7.0,7.0;"/><polygon fill="#A80036" points="3192,222.77,3196,213.77,3192,217.77,3188,213.77,3192,222.77" style="stroke:#A80036;stroke-width:1.0;"/><!--MD5=[5d6bd615180f56874b8ef30ed2319198]
link CollaboratorSpecificationController to CollaboratorBuilder--><path codeLine="124" d="M3047.28,315.98 C2521.38,322.04 737.96,348.98 655,436 C649.48,441.79 649.35,448.33 655,454 C665.47,464.51 2778.89,455.04 2792,462 C2834.33,484.46 2866.59,525.56 2889.73,565.55 " fill="none" id="CollaboratorSpecificationController-to-CollaboratorBuilder" style="stroke:#A80036;stroke-width:1.0;stroke-dasharray:7.0,7.0;"/><polygon fill="#A80036" points="2892.22,569.92,2891.2208,560.122,2889.7362,565.5805,2884.2777,564.096,2892.22,569.92" style="stroke:#A80036;stroke-width:1.0;"/><!--MD5=[3ed01820e4ceee59de10e9959e59d459]
link CollaboratorSpecificationController to PersistenceContext--><path codeLine="125" d="M3047.46,320.37 C2658.55,336.4 1557.37,383.21 642,436 C471.23,445.85 408.04,379.86 258,462 C188.32,500.15 141.19,584.22 118.21,633.96 " fill="none" id="CollaboratorSpecificationController-to-PersistenceContext" style="stroke:#A80036;stroke-width:1.0;stroke-dasharray:7.0,7.0;"/><polygon fill="#A80036" points="116.07,638.66,123.4434,632.1306,118.1444,634.1106,116.1644,628.8116,116.07,638.66" style="stroke:#A80036;stroke-width:1.0;"/><!--MD5=[087ccd6aae2a45edac7d0e681d6d8716]
link CollaboratorSpecificationController to RandomRawPassword--><path codeLine="126" d="M3192,404.04 C3192,477.77 3192,578.8 3192,633.65 " fill="none" id="CollaboratorSpecificationController-to-RandomRawPassword" style="stroke:#A80036;stroke-width:1.0;stroke-dasharray:7.0,7.0;"/><polygon fill="#A80036" points="3192,638.82,3196,629.82,3192,633.82,3188,629.82,3192,638.82" style="stroke:#A80036;stroke-width:1.0;"/><!--MD5=[b900fc22ddac0a281ea59176488e21d6]
link CollaboratorSpecificationController to AuthzRegistry--><path codeLine="127" d="M3257.03,404.34 C3268.92,422.89 3280.53,442.67 3290,462 C3318.08,519.32 3339.48,590.49 3351.13,633.79 " fill="none" id="CollaboratorSpecificationController-to-AuthzRegistry" style="stroke:#A80036;stroke-width:1.0;stroke-dasharray:7.0,7.0;"/><polygon fill="#A80036" points="3352.43,638.67,3353.9527,628.9396,3351.1301,633.8419,3346.2278,631.0194,3352.43,638.67" style="stroke:#A80036;stroke-width:1.0;"/><!--MD5=[15c8ef94e227b65d81965100ec8908d5]
link CollaboratorSpecificationController to UserService--><path codeLine="128" d="M3336.5,395.26 C3368.97,415.58 3402.52,438.38 3432,462 C3499.13,515.78 3566.66,590.12 3605.01,634.69 " fill="none" id="CollaboratorSpecificationController-to-UserService" style="stroke:#A80036;stroke-width:1.0;stroke-dasharray:7.0,7.0;"/><polygon fill="#A80036" points="3608.4,638.65,3605.5799,629.2135,3605.146,634.8537,3599.5059,634.4199,3608.4,638.65" style="stroke:#A80036;stroke-width:1.0;"/><!--MD5=[d66efb439816738ddd3e9d5fff4bf3a7]
link AppSettings to RepositoryFactory--><path codeLine="130" d="M344.65,631.82 C352.14,586.54 371.49,516.72 421,484 C509.99,425.2 569.13,429.8 661,484 C712.99,514.67 741.03,581.33 754.73,626.95 " fill="none" id="AppSettings-to-RepositoryFactory" style="stroke:#A80036;stroke-width:1.0;"/><polygon fill="#A80036" points="756.17,631.85,757.4632,622.0864,754.7569,627.0539,749.7894,624.3475,756.17,631.85" style="stroke:#A80036;stroke-width:1.0;"/><text fill="#000000" font-family="sans-serif" font-size="13" lengthAdjust="spacing" textLength="43" x="657.5" y="450.4951">creates</text><!--MD5=[27fe1c91fe18bafc5695938053528609]
link PersistenceContext to AppSettings--><path codeLine="131" d="M171.8,674 C202.53,674 238.57,674 269.39,674 " fill="none" id="PersistenceContext-to-AppSettings" style="stroke:#A80036;stroke-width:1.0;"/><polygon fill="#A80036" points="274.69,674,265.69,670,269.69,674,265.69,678,274.69,674" style="stroke:#A80036;stroke-width:1.0;"/><text fill="#000000" font-family="sans-serif" font-size="13" lengthAdjust="spacing" textLength="67" x="189.75" y="667.4951">implements</text><!--MD5=[d5e2752559733233d551f65818949b4e]
link RepositoryFactory to CollaboratorRepository--><path codeLine="133" d="M700.84,674 C684.3,674 666.28,674 648.91,674 " fill="none" id="RepositoryFactory-to-CollaboratorRepository" style="stroke:#A80036;stroke-width:1.0;"/><polygon fill="#A80036" points="643.55,674,652.55,678,648.55,674,652.55,670,643.55,674" style="stroke:#A80036;stroke-width:1.0;"/><text fill="#000000" font-family="sans-serif" font-size="13" lengthAdjust="spacing" textLength="21" x="661.75" y="667.4951">has</text><text fill="#000000" font-family="sans-serif" font-size="13" lengthAdjust="spacing" textLength="7" x="685.9012" y="670.5986">1</text><text fill="#000000" font-family="sans-serif" font-size="13" lengthAdjust="spacing" textLength="7" x="651.4657" y="670.7561">1</text><!--MD5=[275670b01fcf667cdfea022428a37f7a]
link CollaboratorRepository to CollaboratorRepositoryInterface--><path codeLine="134" d="M559.57,716.07 C555.01,758.24 548.04,822.76 544.07,859.6 " fill="none" id="CollaboratorRepository-to-CollaboratorRepositoryInterface" style="stroke:#A80036;stroke-width:1.0;stroke-dasharray:7.0,7.0;"/><polygon fill="#A80036" points="543.5,864.83,548.4291,856.3033,544.0286,859.858,540.474,855.4575,543.5,864.83" style="stroke:#A80036;stroke-width:1.0;"/><!--MD5=[e3ed578b90dd6415261c95d17075385f]
link CollaboratorRepository to Collaborator--><path codeLine="136" d="M577.25,631.64 C594.11,585.85 628.09,515.23 685,484 C748.12,449.36 778.77,461.01 847,484 C931.09,512.33 1009.31,581.44 1055.13,628.02 " fill="none" id="CollaboratorRepository-to-Collaborator" style="stroke:#A80036;stroke-width:1.0;"/><polygon fill="#A80036" points="1058.64,631.61,1055.1975,622.3824,1055.1404,628.0389,1049.4838,627.9818,1058.64,631.61" style="stroke:#A80036;stroke-width:1.0;"/><text fill="#000000" font-family="sans-serif" font-size="13" lengthAdjust="spacing" textLength="33" x="792.5" y="450.4951">saves</text><text fill="#000000" font-family="sans-serif" font-size="13" lengthAdjust="spacing" textLength="7" x="571.8039" y="621.1482">1</text><text fill="#000000" font-family="sans-serif" font-size="13" lengthAdjust="spacing" textLength="5" x="1047.1279" y="621.1134">*</text><!--MD5=[720a9a454e208d6aeb02f55992318bcd]
link CollaboratorBuilder to Collaborator--><path codeLine="137" d="M2882.73,569.84 C2859.75,536.1 2829.44,502.6 2792,484 C2718.91,447.69 1399.68,456.05 1323,484 C1244.77,512.51 1174.83,581.34 1134.15,627.84 " fill="none" id="CollaboratorBuilder-to-Collaborator" style="stroke:#A80036;stroke-width:1.0;"/><polygon fill="#A80036" points="1130.79,631.7,1139.7179,627.5416,1134.0744,627.93,1133.686,622.2865,1130.79,631.7" style="stroke:#A80036;stroke-width:1.0;"/><text fill="#000000" font-family="sans-serif" font-size="13" lengthAdjust="spacing" textLength="43" x="1284.5" y="450.4951">creates</text><text fill="#000000" font-family="sans-serif" font-size="13" lengthAdjust="spacing" textLength="7" x="2871.561" y="559.0972">1</text><text fill="#000000" font-family="sans-serif" font-size="13" lengthAdjust="spacing" textLength="5" x="1130.7768" y="621.2178">*</text><!--MD5=[d22bc09bf5195203640f66a3337dfcbe]
link Collaborator to ShortName--><path codeLine="139" d="M1130.79,631.7 C1170.9,585.24 1242.57,513.32 1323,484 C1412.05,451.54 2095.07,434.68 2176,484 C2226.76,514.93 2252.37,581.53 2264.42,627.06 " fill="none" id="Collaborator-to-ShortName" style="stroke:#A80036;stroke-width:1.0;"/><polygon fill="#A80036" points="2265.69,631.95,2267.3003,622.2337,2264.4337,627.1104,2259.557,624.2438,2265.69,631.95" style="stroke:#A80036;stroke-width:1.0;"/><text fill="#000000" font-family="sans-serif" font-size="13" lengthAdjust="spacing" textLength="21" x="1337.5" y="450.4951">has</text><text fill="#000000" font-family="sans-serif" font-size="13" lengthAdjust="spacing" textLength="7" x="1128.6175" y="621.2178">1</text><text fill="#000000" font-family="sans-serif" font-size="13" lengthAdjust="spacing" textLength="7" x="2256.734" y="621.1963">1</text><!--MD5=[48c622d472d667764da07d20d8b811ec]
link Collaborator to CompleteName--><path codeLine="140" d="M1130.79,631.7 C1170.9,585.24 1242.57,513.32 1323,484 C1452.45,436.82 1822.85,416.58 1943,484 C1996.98,514.29 2028.82,581.05 2045.1,626.79 " fill="none" id="Collaborator-to-CompleteName" style="stroke:#A80036;stroke-width:1.0;"/><polygon fill="#A80036" points="2046.81,631.7,2047.6083,621.8836,2045.1563,626.9814,2040.0585,624.5294,2046.81,631.7" style="stroke:#A80036;stroke-width:1.0;"/><text fill="#000000" font-family="sans-serif" font-size="13" lengthAdjust="spacing" textLength="21" x="1367.5" y="450.4951">has</text><text fill="#000000" font-family="sans-serif" font-size="13" lengthAdjust="spacing" textLength="7" x="1136.7331" y="621.2178">1</text><text fill="#000000" font-family="sans-serif" font-size="13" lengthAdjust="spacing" textLength="7" x="2037.3094" y="621.2178">1</text><!--MD5=[f904c2f8a465426d1ef66730e14f9f7d]
link Collaborator to NumeroMecanografico--><path codeLine="141" d="M1130.79,631.7 C1170.9,585.24 1242.57,513.32 1323,484 C1452.45,436.82 1508.54,424.91 1633,484 C1694.9,513.39 1740.24,580.94 1765.37,627.04 " fill="none" id="Collaborator-to-NumeroMecanografico" style="stroke:#A80036;stroke-width:1.0;"/><polygon fill="#A80036" points="1767.89,631.72,1767.1412,621.8996,1765.5178,627.3186,1760.0989,625.6952,1767.89,631.72" style="stroke:#A80036;stroke-width:1.0;"/><text fill="#000000" font-family="sans-serif" font-size="13" lengthAdjust="spacing" textLength="83" x="1396.5" y="450.4951">is identified by</text><text fill="#000000" font-family="sans-serif" font-size="13" lengthAdjust="spacing" textLength="7" x="1128.6175" y="621.2178">1</text><text fill="#000000" font-family="sans-serif" font-size="13" lengthAdjust="spacing" textLength="7" x="1757.1272" y="621.241">1</text><!--MD5=[8d9dabce818e956fab3a60d05f645865]
link Collaborator to BaseRoles--><path codeLine="142" d="M1130.79,631.7 C1170.9,585.24 1242.57,513.32 1323,484 C1395.66,457.52 1433.77,439.47 1497,484 C1544.99,517.8 1559.29,588.74 1563.44,633.73 " fill="none" id="Collaborator-to-BaseRoles" style="stroke:#A80036;stroke-width:1.0;"/><polygon fill="#A80036" points="1563.88,638.81,1567.0945,629.5005,1563.4518,633.8284,1559.1239,630.1856,1563.88,638.81" style="stroke:#A80036;stroke-width:1.0;"/><text fill="#000000" font-family="sans-serif" font-size="13" lengthAdjust="spacing" textLength="21" x="1486.5" y="450.4951">has</text><text fill="#000000" font-family="sans-serif" font-size="13" lengthAdjust="spacing" textLength="7" x="1145.3716" y="620.9317">1</text><text fill="#000000" font-family="sans-serif" font-size="13" lengthAdjust="spacing" textLength="7" x="1555.9993" y="628.1033">1</text><!--MD5=[ad690bf35cce9ca8717407802e52e6b0]
link Collaborator to Address--><path codeLine="143" d="M1282.69,674 C1301.02,674 1318.8,674 1334.97,674 " fill="none" id="Collaborator-to-Address" style="stroke:#A80036;stroke-width:1.0;"/><polygon fill="#A80036" points="1340.39,674,1331.39,670,1335.39,674,1331.39,678,1340.39,674" style="stroke:#A80036;stroke-width:1.0;"/><text fill="#000000" font-family="sans-serif" font-size="13" lengthAdjust="spacing" textLength="21" x="1301" y="667.4951">has</text><text fill="#000000" font-family="sans-serif" font-size="13" lengthAdjust="spacing" textLength="7" x="1290.6715" y="671.168">1</text><text fill="#000000" font-family="sans-serif" font-size="13" lengthAdjust="spacing" textLength="7" x="1325.3936" y="670.647">1</text><!--MD5=[3362ed3ae5a9e5cbc027fbfeff814e21]
link Collaborator to PhoneNumber--><path codeLine="144" d="M1130.79,631.7 C1170.9,585.24 1242.57,513.32 1323,484 C1451.3,437.23 2433.3,416.49 2552,484 C2605.43,514.39 2636.24,581.12 2651.81,626.83 " fill="none" id="Collaborator-to-PhoneNumber" style="stroke:#A80036;stroke-width:1.0;"/><polygon fill="#A80036" points="2653.45,631.74,2654.3898,621.9361,2651.8646,626.998,2646.8026,624.4728,2653.45,631.74" style="stroke:#A80036;stroke-width:1.0;"/><text fill="#000000" font-family="sans-serif" font-size="13" lengthAdjust="spacing" textLength="21" x="1721.5" y="450.4951">has</text><text fill="#000000" font-family="sans-serif" font-size="13" lengthAdjust="spacing" textLength="7" x="1136.7331" y="621.2178">1</text><text fill="#000000" font-family="sans-serif" font-size="13" lengthAdjust="spacing" textLength="7" x="2644.0514" y="621.2642">1</text><!--MD5=[dfbc31d49ce19e9e78ec22b58e38968f]
link Collaborator to BirthDate--><path codeLine="145" d="M1130.79,631.7 C1170.9,585.24 1242.57,513.32 1323,484 C1432.61,444.05 2274.55,421.4 2373,484 C2421.98,515.15 2444.47,581.14 2454.47,626.53 " fill="none" id="Collaborator-to-BirthDate" style="stroke:#A80036;stroke-width:1.0;"/><polygon fill="#A80036" points="2455.57,631.68,2457.6089,622.0445,2454.5292,626.7895,2449.7841,623.7098,2455.57,631.68" style="stroke:#A80036;stroke-width:1.0;"/><text fill="#000000" font-family="sans-serif" font-size="13" lengthAdjust="spacing" textLength="21" x="1955.5" y="450.4951">has</text><text fill="#000000" font-family="sans-serif" font-size="13" lengthAdjust="spacing" textLength="7" x="1157.3591" y="620.9317">1</text><text fill="#000000" font-family="sans-serif" font-size="13" lengthAdjust="spacing" textLength="7" x="2446.9874" y="621.1946">1</text><!--MD5=[dc3cbe8bc00e712072dcf9a94ecebe9b]
@startuml
skinparam classAttributeIconSize 0


package "Presentation" #DDDDDD {
class CollaboratorSpecificationUI <<presentation>>{

}
}


package "Application" #DDDDDD {
class CollaboratorSpecificationController <<aplication>>{
+create()
+addColaborador(email, firstName, lastName, shortName, \ncompleteName, mechanographicNumber,\naddress, phoneNumber, birthDate)
+getRoleList()
+addRoles(roles)
+getCollaborators()
+addManager(manager)
+saveCollaborator()
}
}


package "Domain" #DDDDDD {
class Collaborator <<entity>>{
+create(systemUser, shortName, completeName, mechanographicNumber,\naddress, phoneNumber, birthDate,Role)
}

class ShortName <<value object>>{
+createShortName(shortName)
-validate(shortName)
}

class CompleteName <<value object>>{
+createCompleteName(completeName)
-validate(completeName)
}

class NumeroMecanografico <<value object>>{
+createNumeroMecanografico(numeroMecanografico)
-validate(numeroMecanografico)
}

class Address <<value object>>{
+createAddress(address)
-validate(address)
}

class PhoneNumber <<value object>>{
+createPhoneNumber(phoneNumber)
-validate(phoneNumber)
}

class BirthDate <<value object>>{
+createBirthDate(birthDate)
-validate(birthDate)
}

class BaseRoles <<enum>>{
+nonUserValues()
}

class RandomRawPassword <<domain>>{
+toString()
}

class AuthzRegistry <<domain>>{
+userService()
}

class UserService <<domain>>{
+registerNewUser(username, password, firstName, lastName, email, roles)
}

package Builder #DDDDDD {
class CollaboratorBuilder <<builder>>{
+create()
+withShortName(shortName)
+withCompleteName(completeName)
+withMechanographicNumber(mechanographicNumber)
+withAddress(address)
+withPhoneNumber(phoneNumber)
+withBirthDate(birthDate)
+withRole(Role)

+withSystemUser(systemUser)
+build()
}
}
}

package Persistence #DDDDDD {
class PersistenceContext <<persistence>>{
+repositories()
}

class AppSettings <<persistence>>{
+instance()
+getRepositoryFactory()
}

package Factory #DDDDDD {
class RepositoryFactory <<factory>>{
+collaborators()
+roles()
}
}

package "Repository" #DDDDDD {
class CollaboratorRepository <<repository>>{
+all()
+save(collaborator)
}

interface CollaboratorRepositoryInterface{

}
}

}


CollaboratorSpecificationUI ..> CollaboratorSpecificationController
CollaboratorSpecificationController ..> CollaboratorBuilder
CollaboratorSpecificationController ..> PersistenceContext
CollaboratorSpecificationController ..> RandomRawPassword
CollaboratorSpecificationController ..> AuthzRegistry
CollaboratorSpecificationController ..> UserService

AppSettings -> RepositoryFactory : creates
PersistenceContext -> AppSettings : implements

RepositoryFactory "1" -> "1" CollaboratorRepository : has
CollaboratorRepository ..> CollaboratorRepositoryInterface

CollaboratorRepository "1" -> "*" Collaborator : saves
CollaboratorBuilder "1" -> "*" Collaborator : creates

Collaborator "1" -> "1" ShortName : has
Collaborator "1" -> "1" CompleteName : has
Collaborator "1" -> "1" NumeroMecanografico : is identified by
Collaborator "1" -> "1" BaseRoles : has
Collaborator "1" -> "1" Address : has
Collaborator "1" -> "1" PhoneNumber : has
Collaborator "1" -> "1" BirthDate : has

@enduml

PlantUML version 1.2021.5(Sun Apr 25 12:20:28 BST 2021)
(GPL source distribution)
Java Runtime: OpenJDK Runtime Environment
JVM: OpenJDK 64-Bit Server VM
Default Encoding: Cp1252
Language: pt
Country: PT
--></g></svg>