<?xml version="1.0" encoding="UTF-8" standalone="no"?><svg xmlns="http://www.w3.org/2000/svg" xmlns:xlink="http://www.w3.org/1999/xlink" contentScriptType="application/ecmascript" contentStyleType="text/css" height="1449px" preserveAspectRatio="none" style="width:3285px;height:1449px;" version="1.1" viewBox="0 0 3285 1449" width="3285px" zoomAndPan="magnify"><defs><filter height="300%" id="fx6rw4uqgibsy" width="300%" x="-1" y="-1"><feGaussianBlur result="blurOut" stdDeviation="2.0"/><feColorMatrix in="blurOut" result="blurOut2" type="matrix" values="0 0 0 0 0 0 0 0 0 0 0 0 0 0 0 0 0 0 .4 0"/><feOffset dx="4.0" dy="4.0" in="blurOut2" result="blurOut3"/><feBlend in="SourceGraphic" in2="blurOut3" mode="normal"/></filter></defs><g><rect fill="#FFFFFF" filter="url(#fx6rw4uqgibsy)" height="1324.9063" style="stroke:#A80036;stroke-width:1.0;" width="10" x="107.5" y="99.6094"/><rect fill="#FFFFFF" filter="url(#fx6rw4uqgibsy)" height="110.9219" style="stroke:#A80036;stroke-width:1.0;" width="10" x="511.5" y="121.9609"/><rect fill="#FFFFFF" filter="url(#fx6rw4uqgibsy)" height="624.7891" style="stroke:#A80036;stroke-width:1.0;" width="10" x="511.5" y="263.2344"/><rect fill="#FFFFFF" filter="url(#fx6rw4uqgibsy)" height="121.0547" style="stroke:#A80036;stroke-width:1.0;" width="10" x="511.5" y="918.375"/><rect fill="#FFFFFF" filter="url(#fx6rw4uqgibsy)" height="354.7344" style="stroke:#A80036;stroke-width:1.0;" width="10" x="511.5" y="1069.7813"/><rect fill="#FFFFFF" filter="url(#fx6rw4uqgibsy)" height="426.3281" style="stroke:#A80036;stroke-width:1.0;" width="10" x="955.5" y="309.9375"/><rect fill="#FFFFFF" filter="url(#fx6rw4uqgibsy)" height="91.0547" style="stroke:#A80036;stroke-width:1.0;" width="10" x="955.5" y="766.6172"/><rect fill="#FFFFFF" filter="url(#fx6rw4uqgibsy)" height="60.3516" style="stroke:#A80036;stroke-width:1.0;" width="10" x="955.5" y="948.7266"/><rect fill="#FFFFFF" filter="url(#fx6rw4uqgibsy)" height="294.0313" style="stroke:#A80036;stroke-width:1.0;" width="10" x="955.5" y="1100.1328"/><rect fill="#FFFFFF" filter="url(#fx6rw4uqgibsy)" height="30" style="stroke:#A80036;stroke-width:1.0;" width="10" x="1306.5" y="404.5078"/><rect fill="#FFFFFF" filter="url(#fx6rw4uqgibsy)" height="30" style="stroke:#A80036;stroke-width:1.0;" width="10" x="1306.5" y="464.8594"/><rect fill="#FFFFFF" filter="url(#fx6rw4uqgibsy)" height="30" style="stroke:#A80036;stroke-width:1.0;" width="10" x="1306.5" y="525.2109"/><rect fill="#FFFFFF" filter="url(#fx6rw4uqgibsy)" height="30" style="stroke:#A80036;stroke-width:1.0;" width="10" x="1306.5" y="585.5625"/><rect fill="#FFFFFF" filter="url(#fx6rw4uqgibsy)" height="30" style="stroke:#A80036;stroke-width:1.0;" width="10" x="1306.5" y="645.9141"/><rect fill="#FFFFFF" filter="url(#fx6rw4uqgibsy)" height="30" style="stroke:#A80036;stroke-width:1.0;" width="10" x="1306.5" y="706.2656"/><rect fill="#FFFFFF" filter="url(#fx6rw4uqgibsy)" height="30" style="stroke:#A80036;stroke-width:1.0;" width="10" x="1306.5" y="979.0781"/><rect fill="#FFFFFF" filter="url(#fx6rw4uqgibsy)" height="124.9219" style="stroke:#A80036;stroke-width:1.0;" width="10" x="1306.5" y="1130.4844"/><rect fill="#FFFFFF" filter="url(#fx6rw4uqgibsy)" height="30.3516" style="stroke:#A80036;stroke-width:1.0;" width="10" x="1434.5" y="796.9688"/><rect fill="#FFFFFF" filter="url(#fx6rw4uqgibsy)" height="37.8672" style="stroke:#A80036;stroke-width:1.0;" width="10" x="1770.5" y="1187.1875"/><rect fill="#FFFFFF" filter="url(#fx6rw4uqgibsy)" height="30.3516" style="stroke:#A80036;stroke-width:1.0;" width="10" x="1923.5" y="1333.4609"/><line style="stroke:#A80036;stroke-width:1.0;stroke-dasharray:5.0,5.0;" x1="112" x2="112" y1="89.6094" y2="1442.5156"/><line style="stroke:#A80036;stroke-width:1.0;stroke-dasharray:5.0,5.0;" x1="516.5" x2="516.5" y1="89.6094" y2="1442.5156"/><line style="stroke:#A80036;stroke-width:1.0;stroke-dasharray:5.0,5.0;" x1="960.5" x2="960.5" y1="172.0703" y2="1442.5156"/><line style="stroke:#A80036;stroke-width:1.0;stroke-dasharray:5.0,5.0;" x1="1311.5" x2="1311.5" y1="360.0469" y2="1442.5156"/><line style="stroke:#A80036;stroke-width:1.0;stroke-dasharray:5.0,5.0;" x1="1439.5" x2="1439.5" y1="89.6094" y2="1442.5156"/><line style="stroke:#A80036;stroke-width:1.0;stroke-dasharray:5.0,5.0;" x1="1775.5" x2="1775.5" y1="1180.5938" y2="1442.5156"/><line style="stroke:#A80036;stroke-width:1.0;stroke-dasharray:5.0,5.0;" x1="1928.5" x2="1928.5" y1="89.6094" y2="1442.5156"/><line style="stroke:#A80036;stroke-width:1.0;stroke-dasharray:5.0,5.0;" x1="2082.5" x2="2082.5" y1="89.6094" y2="1442.5156"/><line style="stroke:#A80036;stroke-width:1.0;stroke-dasharray:5.0,5.0;" x1="2221.5" x2="2221.5" y1="89.6094" y2="1442.5156"/><line style="stroke:#A80036;stroke-width:1.0;stroke-dasharray:5.0,5.0;" x1="2360.5" x2="2360.5" y1="89.6094" y2="1442.5156"/><line style="stroke:#A80036;stroke-width:1.0;stroke-dasharray:5.0,5.0;" x1="2485.5" x2="2485.5" y1="89.6094" y2="1442.5156"/><line style="stroke:#A80036;stroke-width:1.0;stroke-dasharray:5.0,5.0;" x1="2600.5" x2="2600.5" y1="89.6094" y2="1442.5156"/><line style="stroke:#A80036;stroke-width:1.0;stroke-dasharray:5.0,5.0;" x1="2753.5" x2="2753.5" y1="89.6094" y2="1442.5156"/><line style="stroke:#A80036;stroke-width:1.0;stroke-dasharray:5.0,5.0;" x1="2897.5" x2="2897.5" y1="89.6094" y2="1442.5156"/><line style="stroke:#A80036;stroke-width:1.0;stroke-dasharray:5.0,5.0;" x1="3003.5" x2="3003.5" y1="89.6094" y2="1442.5156"/><line style="stroke:#A80036;stroke-width:1.0;stroke-dasharray:5.0,5.0;" x1="3115.5" x2="3115.5" y1="89.6094" y2="1442.5156"/><line style="stroke:#A80036;stroke-width:1.0;stroke-dasharray:5.0,5.0;" x1="3227.5" x2="3227.5" y1="89.6094" y2="1442.5156"/><text fill="#000000" font-family="sans-serif" font-size="14" lengthAdjust="spacing" textLength="209" x="5" y="86.5332">Human Resource Representative</text><ellipse cx="112.5" cy="15" fill="#FEFECE" filter="url(#fx6rw4uqgibsy)" rx="8" ry="8" style="stroke:#A80036;stroke-width:2.0;"/><path d="M112.5,23 L112.5,50 M99.5,31 L125.5,31 M112.5,50 L99.5,65 M112.5,50 L125.5,65 " fill="none" filter="url(#fx6rw4uqgibsy)" style="stroke:#A80036;stroke-width:2.0;"/><rect fill="#FEFECE" filter="url(#fx6rw4uqgibsy)" height="49.2188" style="stroke:#A80036;stroke-width:1.5;" width="184" x="422.5" y="35.3906"/><text fill="#000000" font-family="sans-serif" font-size="14" lengthAdjust="spacing" textLength="111" x="459" y="56.9238">&lt;&lt;presentation&gt;&gt;</text><text fill="#000000" font-family="sans-serif" font-size="14" lengthAdjust="spacing" textLength="170" x="429.5" y="74.5332">CollaboratorSpecificationUI</text><rect fill="#FEFECE" filter="url(#fx6rw4uqgibsy)" height="49.2188" style="stroke:#A80036;stroke-width:1.5;" width="92" x="1391.5" y="35.3906"/><text fill="#000000" font-family="sans-serif" font-size="14" lengthAdjust="spacing" textLength="78" x="1398.5" y="56.9238">&lt;&lt;domain&gt;&gt;</text><text fill="#000000" font-family="sans-serif" font-size="14" lengthAdjust="spacing" textLength="57" x="1409" y="74.5332">role:Role</text><text fill="#000000" font-family="sans-serif" font-size="14" lengthAdjust="spacing" textLength="95" x="1878" y="68.9238">&lt;&lt;repository&gt;&gt;</text><text fill="#000000" font-family="sans-serif" font-size="14" lengthAdjust="spacing" textLength="146" x="1852.5" y="86.5332">CollaboratorRepository</text><path d="M1910.5,18.3906 C1910.5,8.3906 1928.5,8.3906 1928.5,8.3906 C1928.5,8.3906 1946.5,8.3906 1946.5,18.3906 L1946.5,44.3906 C1946.5,54.3906 1928.5,54.3906 1928.5,54.3906 C1928.5,54.3906 1910.5,54.3906 1910.5,44.3906 L1910.5,18.3906 " fill="#FEFECE" filter="url(#fx6rw4uqgibsy)" style="stroke:#000000;stroke-width:1.5;"/><path d="M1910.5,18.3906 C1910.5,28.3906 1928.5,28.3906 1928.5,28.3906 C1928.5,28.3906 1946.5,28.3906 1946.5,18.3906 " fill="none" style="stroke:#000000;stroke-width:1.5;"/><rect fill="#FEFECE" filter="url(#fx6rw4uqgibsy)" height="49.2188" style="stroke:#A80036;stroke-width:1.5;" width="132" x="2014.5" y="35.3906"/><text fill="#000000" font-family="sans-serif" font-size="14" lengthAdjust="spacing" textLength="105" x="2028" y="56.9238">&lt;&lt;persistence&gt;&gt;</text><text fill="#000000" font-family="sans-serif" font-size="14" lengthAdjust="spacing" textLength="118" x="2021.5" y="74.5332">PersistenceContex</text><rect fill="#FEFECE" filter="url(#fx6rw4uqgibsy)" height="49.2188" style="stroke:#A80036;stroke-width:1.5;" width="119" x="2160.5" y="35.3906"/><text fill="#000000" font-family="sans-serif" font-size="14" lengthAdjust="spacing" textLength="105" x="2167.5" y="56.9238">&lt;&lt;persistence&gt;&gt;</text><text fill="#000000" font-family="sans-serif" font-size="14" lengthAdjust="spacing" textLength="76" x="2182" y="74.5332">AppSettings</text><rect fill="#FEFECE" filter="url(#fx6rw4uqgibsy)" height="49.2188" style="stroke:#A80036;stroke-width:1.5;" width="130" x="2293.5" y="35.3906"/><text fill="#000000" font-family="sans-serif" font-size="14" lengthAdjust="spacing" textLength="75" x="2321" y="56.9238">&lt;&lt;factory&gt;&gt;</text><text fill="#000000" font-family="sans-serif" font-size="14" lengthAdjust="spacing" textLength="116" x="2300.5" y="74.5332">RepositoryFactory</text><rect fill="#FEFECE" filter="url(#fx6rw4uqgibsy)" height="49.2188" style="stroke:#A80036;stroke-width:1.5;" width="92" x="2437.5" y="35.3906"/><text fill="#000000" font-family="sans-serif" font-size="14" lengthAdjust="spacing" textLength="78" x="2444.5" y="56.9238">&lt;&lt;domain&gt;&gt;</text><text fill="#000000" font-family="sans-serif" font-size="14" lengthAdjust="spacing" textLength="70" x="2448.5" y="74.5332">ShortName</text><rect fill="#FEFECE" filter="url(#fx6rw4uqgibsy)" height="49.2188" style="stroke:#A80036;stroke-width:1.5;" width="110" x="2543.5" y="35.3906"/><text fill="#000000" font-family="sans-serif" font-size="14" lengthAdjust="spacing" textLength="78" x="2559.5" y="56.9238">&lt;&lt;domain&gt;&gt;</text><text fill="#000000" font-family="sans-serif" font-size="14" lengthAdjust="spacing" textLength="96" x="2550.5" y="74.5332">CompleteName</text><rect fill="#FEFECE" filter="url(#fx6rw4uqgibsy)" height="49.2188" style="stroke:#A80036;stroke-width:1.5;" width="168" x="2667.5" y="35.3906"/><text fill="#000000" font-family="sans-serif" font-size="14" lengthAdjust="spacing" textLength="78" x="2712.5" y="56.9238">&lt;&lt;domain&gt;&gt;</text><text fill="#000000" font-family="sans-serif" font-size="14" lengthAdjust="spacing" textLength="154" x="2674.5" y="74.5332">MechanographicNumber</text><rect fill="#FEFECE" filter="url(#fx6rw4uqgibsy)" height="49.2188" style="stroke:#A80036;stroke-width:1.5;" width="92" x="2849.5" y="35.3906"/><text fill="#000000" font-family="sans-serif" font-size="14" lengthAdjust="spacing" textLength="78" x="2856.5" y="56.9238">&lt;&lt;domain&gt;&gt;</text><text fill="#000000" font-family="sans-serif" font-size="14" lengthAdjust="spacing" textLength="29" x="2881" y="74.5332">Role</text><rect fill="#FEFECE" filter="url(#fx6rw4uqgibsy)" height="49.2188" style="stroke:#A80036;stroke-width:1.5;" width="92" x="2955.5" y="35.3906"/><text fill="#000000" font-family="sans-serif" font-size="14" lengthAdjust="spacing" textLength="78" x="2962.5" y="56.9238">&lt;&lt;domain&gt;&gt;</text><text fill="#000000" font-family="sans-serif" font-size="14" lengthAdjust="spacing" textLength="52" x="2975.5" y="74.5332">Address</text><rect fill="#FEFECE" filter="url(#fx6rw4uqgibsy)" height="49.2188" style="stroke:#A80036;stroke-width:1.5;" width="104" x="3061.5" y="35.3906"/><text fill="#000000" font-family="sans-serif" font-size="14" lengthAdjust="spacing" textLength="78" x="3074.5" y="56.9238">&lt;&lt;domain&gt;&gt;</text><text fill="#000000" font-family="sans-serif" font-size="14" lengthAdjust="spacing" textLength="90" x="3068.5" y="74.5332">PhoneNumber</text><rect fill="#FEFECE" filter="url(#fx6rw4uqgibsy)" height="49.2188" style="stroke:#A80036;stroke-width:1.5;" width="92" x="3179.5" y="35.3906"/><text fill="#000000" font-family="sans-serif" font-size="14" lengthAdjust="spacing" textLength="78" x="3186.5" y="56.9238">&lt;&lt;domain&gt;&gt;</text><text fill="#000000" font-family="sans-serif" font-size="14" lengthAdjust="spacing" textLength="59" x="3196" y="74.5332">BirthDate</text><rect fill="#FFFFFF" filter="url(#fx6rw4uqgibsy)" height="1324.9063" style="stroke:#A80036;stroke-width:1.0;" width="10" x="107.5" y="99.6094"/><rect fill="#FFFFFF" filter="url(#fx6rw4uqgibsy)" height="110.9219" style="stroke:#A80036;stroke-width:1.0;" width="10" x="511.5" y="121.9609"/><rect fill="#FFFFFF" filter="url(#fx6rw4uqgibsy)" height="624.7891" style="stroke:#A80036;stroke-width:1.0;" width="10" x="511.5" y="263.2344"/><rect fill="#FFFFFF" filter="url(#fx6rw4uqgibsy)" height="121.0547" style="stroke:#A80036;stroke-width:1.0;" width="10" x="511.5" y="918.375"/><rect fill="#FFFFFF" filter="url(#fx6rw4uqgibsy)" height="354.7344" style="stroke:#A80036;stroke-width:1.0;" width="10" x="511.5" y="1069.7813"/><rect fill="#FFFFFF" filter="url(#fx6rw4uqgibsy)" height="426.3281" style="stroke:#A80036;stroke-width:1.0;" width="10" x="955.5" y="309.9375"/><rect fill="#FFFFFF" filter="url(#fx6rw4uqgibsy)" height="91.0547" style="stroke:#A80036;stroke-width:1.0;" width="10" x="955.5" y="766.6172"/><rect fill="#FFFFFF" filter="url(#fx6rw4uqgibsy)" height="60.3516" style="stroke:#A80036;stroke-width:1.0;" width="10" x="955.5" y="948.7266"/><rect fill="#FFFFFF" filter="url(#fx6rw4uqgibsy)" height="294.0313" style="stroke:#A80036;stroke-width:1.0;" width="10" x="955.5" y="1100.1328"/><rect fill="#FFFFFF" filter="url(#fx6rw4uqgibsy)" height="30" style="stroke:#A80036;stroke-width:1.0;" width="10" x="1306.5" y="404.5078"/><rect fill="#FFFFFF" filter="url(#fx6rw4uqgibsy)" height="30" style="stroke:#A80036;stroke-width:1.0;" width="10" x="1306.5" y="464.8594"/><rect fill="#FFFFFF" filter="url(#fx6rw4uqgibsy)" height="30" style="stroke:#A80036;stroke-width:1.0;" width="10" x="1306.5" y="525.2109"/><rect fill="#FFFFFF" filter="url(#fx6rw4uqgibsy)" height="30" style="stroke:#A80036;stroke-width:1.0;" width="10" x="1306.5" y="585.5625"/><rect fill="#FFFFFF" filter="url(#fx6rw4uqgibsy)" height="30" style="stroke:#A80036;stroke-width:1.0;" width="10" x="1306.5" y="645.9141"/><rect fill="#FFFFFF" filter="url(#fx6rw4uqgibsy)" height="30" style="stroke:#A80036;stroke-width:1.0;" width="10" x="1306.5" y="706.2656"/><rect fill="#FFFFFF" filter="url(#fx6rw4uqgibsy)" height="30" style="stroke:#A80036;stroke-width:1.0;" width="10" x="1306.5" y="979.0781"/><rect fill="#FFFFFF" filter="url(#fx6rw4uqgibsy)" height="124.9219" style="stroke:#A80036;stroke-width:1.0;" width="10" x="1306.5" y="1130.4844"/><rect fill="#FFFFFF" filter="url(#fx6rw4uqgibsy)" height="30.3516" style="stroke:#A80036;stroke-width:1.0;" width="10" x="1434.5" y="796.9688"/><rect fill="#FFFFFF" filter="url(#fx6rw4uqgibsy)" height="37.8672" style="stroke:#A80036;stroke-width:1.0;" width="10" x="1770.5" y="1187.1875"/><rect fill="#FFFFFF" filter="url(#fx6rw4uqgibsy)" height="30.3516" style="stroke:#A80036;stroke-width:1.0;" width="10" x="1923.5" y="1333.4609"/><polygon fill="#A80036" points="499.5,117.9609,509.5,121.9609,499.5,125.9609,503.5,121.9609" style="stroke:#A80036;stroke-width:1.0;"/><line style="stroke:#A80036;stroke-width:1.0;" x1="117.5" x2="505.5" y1="121.9609" y2="121.9609"/><text fill="#000000" font-family="sans-serif" font-size="13" font-weight="bold" lengthAdjust="spacing" textLength="7" x="124.5" y="117.1045">1</text><text fill="#000000" font-family="sans-serif" font-size="13" lengthAdjust="spacing" textLength="259" x="135.5" y="117.1045">Iniciates the request to specify a collaborator</text><polygon fill="#A80036" points="829.5,148.3125,839.5,152.3125,829.5,156.3125,833.5,152.3125" style="stroke:#A80036;stroke-width:1.0;"/><line style="stroke:#A80036;stroke-width:1.0;" x1="521.5" x2="835.5" y1="152.3125" y2="152.3125"/><text fill="#000000" font-family="sans-serif" font-size="13" font-weight="bold" lengthAdjust="spacing" textLength="7" x="528.5" y="147.4561">2</text><text fill="#000000" font-family="sans-serif" font-size="13" lengthAdjust="spacing" textLength="44" x="539.5" y="147.4561">create()</text><rect fill="#FEFECE" filter="url(#fx6rw4uqgibsy)" height="49.2188" style="stroke:#A80036;stroke-width:1.5;" width="234" x="841.5" y="129.9609"/><text fill="#000000" font-family="sans-serif" font-size="14" lengthAdjust="spacing" textLength="92" x="912.5" y="151.4941">&lt;&lt;aplication&gt;&gt;</text><text fill="#000000" font-family="sans-serif" font-size="14" lengthAdjust="spacing" textLength="220" x="848.5" y="169.1035">CollaboratorSpecificationController</text><polygon fill="#A80036" points="128.5,228.8828,118.5,232.8828,128.5,236.8828,124.5,232.8828" style="stroke:#A80036;stroke-width:1.0;"/><line style="stroke:#A80036;stroke-width:1.0;stroke-dasharray:2.0,2.0;" x1="122.5" x2="515.5" y1="232.8828" y2="232.8828"/><text fill="#000000" font-family="sans-serif" font-size="13" font-weight="bold" lengthAdjust="spacing" textLength="7" x="134.5" y="219.8506">3</text><text fill="#000000" font-family="sans-serif" font-size="13" lengthAdjust="spacing" textLength="359" x="145.5" y="211.6748">Request all information needed (i.e. short and complete name,</text><text fill="#000000" font-family="sans-serif" font-size="13" lengthAdjust="spacing" textLength="352" x="145.5" y="228.0264">mechanographic number, address, phone number, birth date)</text><polygon fill="#A80036" points="499.5,259.2344,509.5,263.2344,499.5,267.2344,503.5,263.2344" style="stroke:#A80036;stroke-width:1.0;"/><line style="stroke:#A80036;stroke-width:1.0;" x1="117.5" x2="505.5" y1="263.2344" y2="263.2344"/><text fill="#000000" font-family="sans-serif" font-size="13" font-weight="bold" lengthAdjust="spacing" textLength="7" x="124.5" y="258.3779">4</text><text fill="#000000" font-family="sans-serif" font-size="13" lengthAdjust="spacing" textLength="189" x="135.5" y="258.3779">Inserts the requested information</text><polygon fill="#A80036" points="943.5,305.9375,953.5,309.9375,943.5,313.9375,947.5,309.9375" style="stroke:#A80036;stroke-width:1.0;"/><line style="stroke:#A80036;stroke-width:1.0;" x1="521.5" x2="949.5" y1="309.9375" y2="309.9375"/><text fill="#000000" font-family="sans-serif" font-size="13" font-weight="bold" lengthAdjust="spacing" textLength="7" x="528.5" y="296.9053">5</text><text fill="#000000" font-family="sans-serif" font-size="13" lengthAdjust="spacing" textLength="404" x="539.5" y="288.7295">addColaborador(shortName, completeName, mechanographicNumber,</text><text fill="#000000" font-family="sans-serif" font-size="13" lengthAdjust="spacing" textLength="198" x="539.5" y="305.0811">address, phoneNumber, birthDate)</text><polygon fill="#A80036" points="1229.5,336.2891,1239.5,340.2891,1229.5,344.2891,1233.5,340.2891" style="stroke:#A80036;stroke-width:1.0;"/><line style="stroke:#A80036;stroke-width:1.0;" x1="965.5" x2="1235.5" y1="340.2891" y2="340.2891"/><text fill="#000000" font-family="sans-serif" font-size="13" font-weight="bold" lengthAdjust="spacing" textLength="7" x="972.5" y="335.4326">6</text><text fill="#000000" font-family="sans-serif" font-size="13" lengthAdjust="spacing" textLength="44" x="983.5" y="335.4326">create()</text><rect fill="#FEFECE" filter="url(#fx6rw4uqgibsy)" height="49.2188" style="stroke:#A80036;stroke-width:1.5;" width="136" x="1241.5" y="317.9375"/><text fill="#000000" font-family="sans-serif" font-size="14" lengthAdjust="spacing" textLength="75" x="1272" y="339.4707">&lt;&lt;builder&gt;&gt;</text><text fill="#000000" font-family="sans-serif" font-size="14" lengthAdjust="spacing" textLength="122" x="1248.5" y="357.0801">CollaboratorBuilder</text><polygon fill="#A80036" points="1294.5,400.5078,1304.5,404.5078,1294.5,408.5078,1298.5,404.5078" style="stroke:#A80036;stroke-width:1.0;"/><line style="stroke:#A80036;stroke-width:1.0;" x1="965.5" x2="1300.5" y1="404.5078" y2="404.5078"/><text fill="#000000" font-family="sans-serif" font-size="13" font-weight="bold" lengthAdjust="spacing" textLength="7" x="972.5" y="399.6514">7</text><text fill="#000000" font-family="sans-serif" font-size="13" lengthAdjust="spacing" textLength="159" x="983.5" y="399.6514">withShortName(shortName)</text><polygon fill="#A80036" points="1294.5,460.8594,1304.5,464.8594,1294.5,468.8594,1298.5,464.8594" style="stroke:#A80036;stroke-width:1.0;"/><line style="stroke:#A80036;stroke-width:1.0;" x1="965.5" x2="1300.5" y1="464.8594" y2="464.8594"/><text fill="#000000" font-family="sans-serif" font-size="13" font-weight="bold" lengthAdjust="spacing" textLength="7" x="972.5" y="460.0029">8</text><text fill="#000000" font-family="sans-serif" font-size="13" lengthAdjust="spacing" textLength="207" x="983.5" y="460.0029">withCompleteName(completeName)</text><polygon fill="#A80036" points="1294.5,521.2109,1304.5,525.2109,1294.5,529.2109,1298.5,525.2109" style="stroke:#A80036;stroke-width:1.0;"/><line style="stroke:#A80036;stroke-width:1.0;" x1="965.5" x2="1300.5" y1="525.2109" y2="525.2109"/><text fill="#000000" font-family="sans-serif" font-size="13" font-weight="bold" lengthAdjust="spacing" textLength="7" x="972.5" y="520.3545">9</text><text fill="#000000" font-family="sans-serif" font-size="13" lengthAdjust="spacing" textLength="311" x="983.5" y="520.3545">withMechanographicNumber(mechanographicNumber)</text><polygon fill="#A80036" points="1294.5,581.5625,1304.5,585.5625,1294.5,589.5625,1298.5,585.5625" style="stroke:#A80036;stroke-width:1.0;"/><line style="stroke:#A80036;stroke-width:1.0;" x1="965.5" x2="1300.5" y1="585.5625" y2="585.5625"/><text fill="#000000" font-family="sans-serif" font-size="13" font-weight="bold" lengthAdjust="spacing" textLength="14" x="972.5" y="580.7061">10</text><text fill="#000000" font-family="sans-serif" font-size="13" lengthAdjust="spacing" textLength="125" x="990.5" y="580.7061">withAddress(address)</text><polygon fill="#A80036" points="1294.5,641.9141,1304.5,645.9141,1294.5,649.9141,1298.5,645.9141" style="stroke:#A80036;stroke-width:1.0;"/><line style="stroke:#A80036;stroke-width:1.0;" x1="965.5" x2="1300.5" y1="645.9141" y2="645.9141"/><text fill="#000000" font-family="sans-serif" font-size="13" font-weight="bold" lengthAdjust="spacing" textLength="14" x="972.5" y="641.0576">11</text><text fill="#000000" font-family="sans-serif" font-size="13" lengthAdjust="spacing" textLength="193" x="990.5" y="641.0576">withPhoneNumber(phoneNumber)</text><polygon fill="#A80036" points="1294.5,702.2656,1304.5,706.2656,1294.5,710.2656,1298.5,706.2656" style="stroke:#A80036;stroke-width:1.0;"/><line style="stroke:#A80036;stroke-width:1.0;" x1="965.5" x2="1300.5" y1="706.2656" y2="706.2656"/><text fill="#000000" font-family="sans-serif" font-size="13" font-weight="bold" lengthAdjust="spacing" textLength="14" x="972.5" y="701.4092">12</text><text fill="#000000" font-family="sans-serif" font-size="13" lengthAdjust="spacing" textLength="137" x="990.5" y="701.4092">withBirthDate(birthDate)</text><polygon fill="#A80036" points="943.5,762.6172,953.5,766.6172,943.5,770.6172,947.5,766.6172" style="stroke:#A80036;stroke-width:1.0;"/><line style="stroke:#A80036;stroke-width:1.0;" x1="521.5" x2="949.5" y1="766.6172" y2="766.6172"/><text fill="#000000" font-family="sans-serif" font-size="13" font-weight="bold" lengthAdjust="spacing" textLength="14" x="528.5" y="761.7607">13</text><text fill="#000000" font-family="sans-serif" font-size="13" lengthAdjust="spacing" textLength="73" x="546.5" y="761.7607">getRoleList()</text><polygon fill="#A80036" points="1422.5,792.9688,1432.5,796.9688,1422.5,800.9688,1426.5,796.9688" style="stroke:#A80036;stroke-width:1.0;"/><line style="stroke:#A80036;stroke-width:1.0;" x1="965.5" x2="1428.5" y1="796.9688" y2="796.9688"/><text fill="#000000" font-family="sans-serif" font-size="13" font-weight="bold" lengthAdjust="spacing" textLength="14" x="972.5" y="792.1123">14</text><text fill="#000000" font-family="sans-serif" font-size="13" lengthAdjust="spacing" textLength="44" x="990.5" y="792.1123">values()</text><polygon fill="#A80036" points="976.5,823.3203,966.5,827.3203,976.5,831.3203,972.5,827.3203" style="stroke:#A80036;stroke-width:1.0;"/><line style="stroke:#A80036;stroke-width:1.0;stroke-dasharray:2.0,2.0;" x1="970.5" x2="1438.5" y1="827.3203" y2="827.3203"/><text fill="#000000" font-family="sans-serif" font-size="13" font-weight="bold" lengthAdjust="spacing" textLength="14" x="982.5" y="822.4639">15</text><text fill="#000000" font-family="sans-serif" font-size="13" lengthAdjust="spacing" textLength="49" x="1000.5" y="822.4639">rolesList</text><polygon fill="#A80036" points="532.5,853.6719,522.5,857.6719,532.5,861.6719,528.5,857.6719" style="stroke:#A80036;stroke-width:1.0;"/><line style="stroke:#A80036;stroke-width:1.0;stroke-dasharray:2.0,2.0;" x1="526.5" x2="959.5" y1="857.6719" y2="857.6719"/><text fill="#000000" font-family="sans-serif" font-size="13" font-weight="bold" lengthAdjust="spacing" textLength="14" x="538.5" y="852.8154">16</text><text fill="#000000" font-family="sans-serif" font-size="13" lengthAdjust="spacing" textLength="49" x="556.5" y="852.8154">rolesList</text><polygon fill="#A80036" points="128.5,884.0234,118.5,888.0234,128.5,892.0234,124.5,888.0234" style="stroke:#A80036;stroke-width:1.0;"/><line style="stroke:#A80036;stroke-width:1.0;stroke-dasharray:2.0,2.0;" x1="122.5" x2="515.5" y1="888.0234" y2="888.0234"/><text fill="#000000" font-family="sans-serif" font-size="13" font-weight="bold" lengthAdjust="spacing" textLength="14" x="134.5" y="883.167">17</text><text fill="#000000" font-family="sans-serif" font-size="13" lengthAdjust="spacing" textLength="94" x="152.5" y="883.167">Shows roles' list</text><polygon fill="#A80036" points="499.5,914.375,509.5,918.375,499.5,922.375,503.5,918.375" style="stroke:#A80036;stroke-width:1.0;"/><line style="stroke:#A80036;stroke-width:1.0;" x1="117.5" x2="505.5" y1="918.375" y2="918.375"/><text fill="#000000" font-family="sans-serif" font-size="13" font-weight="bold" lengthAdjust="spacing" textLength="14" x="124.5" y="913.5186">18</text><text fill="#000000" font-family="sans-serif" font-size="13" lengthAdjust="spacing" textLength="137" x="142.5" y="913.5186">Select the intended role</text><polygon fill="#A80036" points="943.5,944.7266,953.5,948.7266,943.5,952.7266,947.5,948.7266" style="stroke:#A80036;stroke-width:1.0;"/><line style="stroke:#A80036;stroke-width:1.0;" x1="521.5" x2="949.5" y1="948.7266" y2="948.7266"/><text fill="#000000" font-family="sans-serif" font-size="13" font-weight="bold" lengthAdjust="spacing" textLength="14" x="528.5" y="943.8701">19</text><text fill="#000000" font-family="sans-serif" font-size="13" lengthAdjust="spacing" textLength="76" x="546.5" y="943.8701">addRole(role)</text><polygon fill="#A80036" points="1294.5,975.0781,1304.5,979.0781,1294.5,983.0781,1298.5,979.0781" style="stroke:#A80036;stroke-width:1.0;"/><line style="stroke:#A80036;stroke-width:1.0;" x1="965.5" x2="1300.5" y1="979.0781" y2="979.0781"/><text fill="#000000" font-family="sans-serif" font-size="13" font-weight="bold" lengthAdjust="spacing" textLength="14" x="972.5" y="974.2217">20</text><text fill="#000000" font-family="sans-serif" font-size="13" lengthAdjust="spacing" textLength="78" x="990.5" y="974.2217">withRole(role)</text><polygon fill="#A80036" points="128.5,1035.4297,118.5,1039.4297,128.5,1043.4297,124.5,1039.4297" style="stroke:#A80036;stroke-width:1.0;"/><line style="stroke:#A80036;stroke-width:1.0;stroke-dasharray:2.0,2.0;" x1="122.5" x2="515.5" y1="1039.4297" y2="1039.4297"/><text fill="#000000" font-family="sans-serif" font-size="13" font-weight="bold" lengthAdjust="spacing" textLength="14" x="134.5" y="1034.5732">21</text><text fill="#000000" font-family="sans-serif" font-size="13" lengthAdjust="spacing" textLength="350" x="152.5" y="1034.5732">Validates, presents the information and asks for confirmation</text><polygon fill="#A80036" points="499.5,1065.7813,509.5,1069.7813,499.5,1073.7813,503.5,1069.7813" style="stroke:#A80036;stroke-width:1.0;"/><line style="stroke:#A80036;stroke-width:1.0;" x1="117.5" x2="505.5" y1="1069.7813" y2="1069.7813"/><text fill="#000000" font-family="sans-serif" font-size="13" font-weight="bold" lengthAdjust="spacing" textLength="14" x="124.5" y="1064.9248">22</text><text fill="#000000" font-family="sans-serif" font-size="13" lengthAdjust="spacing" textLength="51" x="142.5" y="1064.9248">Confirms</text><polygon fill="#A80036" points="943.5,1096.1328,953.5,1100.1328,943.5,1104.1328,947.5,1100.1328" style="stroke:#A80036;stroke-width:1.0;"/><line style="stroke:#A80036;stroke-width:1.0;" x1="521.5" x2="949.5" y1="1100.1328" y2="1100.1328"/><text fill="#000000" font-family="sans-serif" font-size="13" font-weight="bold" lengthAdjust="spacing" textLength="14" x="528.5" y="1095.2764">23</text><text fill="#000000" font-family="sans-serif" font-size="13" lengthAdjust="spacing" textLength="100" x="546.5" y="1095.2764">saveColaborator()</text><polygon fill="#A80036" points="1294.5,1126.4844,1304.5,1130.4844,1294.5,1134.4844,1298.5,1130.4844" style="stroke:#A80036;stroke-width:1.0;"/><line style="stroke:#A80036;stroke-width:1.0;" x1="965.5" x2="1300.5" y1="1130.4844" y2="1130.4844"/><text fill="#000000" font-family="sans-serif" font-size="13" font-weight="bold" lengthAdjust="spacing" textLength="14" x="972.5" y="1125.6279">24</text><text fill="#000000" font-family="sans-serif" font-size="13" lengthAdjust="spacing" textLength="35" x="990.5" y="1125.6279">build()</text><polygon fill="#A80036" points="1696.5,1173.1875,1706.5,1177.1875,1696.5,1181.1875,1700.5,1177.1875" style="stroke:#A80036;stroke-width:1.0;"/><line style="stroke:#A80036;stroke-width:1.0;" x1="1316.5" x2="1702.5" y1="1177.1875" y2="1177.1875"/><text fill="#000000" font-family="sans-serif" font-size="13" font-weight="bold" lengthAdjust="spacing" textLength="14" x="1323.5" y="1164.1553">25</text><text fill="#000000" font-family="sans-serif" font-size="13" lengthAdjust="spacing" textLength="350" x="1341.5" y="1155.9795">create(shortName, completeName, mechanographicNumber,</text><text fill="#000000" font-family="sans-serif" font-size="13" lengthAdjust="spacing" textLength="223" x="1341.5" y="1172.3311">address, phoneNumber, birthDate,role)</text><rect fill="#FEFECE" filter="url(#fx6rw4uqgibsy)" height="49.2188" style="stroke:#A80036;stroke-width:1.5;" width="130" x="1708.5" y="1138.4844"/><text fill="#000000" font-family="sans-serif" font-size="14" lengthAdjust="spacing" textLength="78" x="1734.5" y="1160.0176">&lt;&lt;domain&gt;&gt;</text><text fill="#000000" font-family="sans-serif" font-size="14" lengthAdjust="spacing" textLength="116" x="1715.5" y="1177.627">colab:Collaborator</text><polygon fill="#A80036" points="1327.5,1221.0547,1317.5,1225.0547,1327.5,1229.0547,1323.5,1225.0547" style="stroke:#A80036;stroke-width:1.0;"/><line style="stroke:#A80036;stroke-width:1.0;stroke-dasharray:2.0,2.0;" x1="1321.5" x2="1774.5" y1="1225.0547" y2="1225.0547"/><text fill="#000000" font-family="sans-serif" font-size="13" font-weight="bold" lengthAdjust="spacing" textLength="14" x="1333.5" y="1220.1982">26</text><text fill="#000000" font-family="sans-serif" font-size="13" lengthAdjust="spacing" textLength="67" x="1351.5" y="1220.1982">collaborator</text><polygon fill="#A80036" points="976.5,1251.4063,966.5,1255.4063,976.5,1259.4063,972.5,1255.4063" style="stroke:#A80036;stroke-width:1.0;"/><line style="stroke:#A80036;stroke-width:1.0;stroke-dasharray:2.0,2.0;" x1="970.5" x2="1310.5" y1="1255.4063" y2="1255.4063"/><text fill="#000000" font-family="sans-serif" font-size="13" font-weight="bold" lengthAdjust="spacing" textLength="14" x="982.5" y="1250.5498">27</text><text fill="#000000" font-family="sans-serif" font-size="13" lengthAdjust="spacing" textLength="67" x="1000.5" y="1250.5498">collaborator</text><rect fill="#FFFFFF" filter="url(#fx6rw4uqgibsy)" height="42.7031" style="stroke:#000000;stroke-width:2.0;" width="240" x="838.5" y="1263.4063"/><polygon fill="#EEEEEE" points="838.5,1263.4063,900.5,1263.4063,900.5,1271.4063,890.5,1281.4063,838.5,1281.4063,838.5,1263.4063" style="stroke:#000000;stroke-width:2.0;"/><text fill="#000000" font-family="sans-serif" font-size="13" font-weight="bold" lengthAdjust="spacing" textLength="17" x="851.5" y="1278.9014">ref</text><text fill="#000000" font-family="sans-serif" font-size="13" lengthAdjust="spacing" textLength="123" x="899" y="1298.9014">US-1-2051_SD_Repo</text><polygon fill="#A80036" points="1911.5,1329.4609,1921.5,1333.4609,1911.5,1337.4609,1915.5,1333.4609" style="stroke:#A80036;stroke-width:1.0;"/><line style="stroke:#A80036;stroke-width:1.0;" x1="965.5" x2="1917.5" y1="1333.4609" y2="1333.4609"/><text fill="#000000" font-family="sans-serif" font-size="13" font-weight="bold" lengthAdjust="spacing" textLength="14" x="972.5" y="1328.6045">28</text><text fill="#000000" font-family="sans-serif" font-size="13" lengthAdjust="spacing" textLength="101" x="990.5" y="1328.6045">save(collaborator)</text><polygon fill="#A80036" points="976.5,1359.8125,966.5,1363.8125,976.5,1367.8125,972.5,1363.8125" style="stroke:#A80036;stroke-width:1.0;"/><line style="stroke:#A80036;stroke-width:1.0;stroke-dasharray:2.0,2.0;" x1="970.5" x2="1927.5" y1="1363.8125" y2="1363.8125"/><text fill="#000000" font-family="sans-serif" font-size="13" font-weight="bold" lengthAdjust="spacing" textLength="14" x="982.5" y="1358.9561">29</text><text fill="#000000" font-family="sans-serif" font-size="13" lengthAdjust="spacing" textLength="67" x="1000.5" y="1358.9561">collaborator</text><polygon fill="#A80036" points="532.5,1390.1641,522.5,1394.1641,532.5,1398.1641,528.5,1394.1641" style="stroke:#A80036;stroke-width:1.0;"/><line style="stroke:#A80036;stroke-width:1.0;stroke-dasharray:2.0,2.0;" x1="526.5" x2="959.5" y1="1394.1641" y2="1394.1641"/><text fill="#000000" font-family="sans-serif" font-size="13" font-weight="bold" lengthAdjust="spacing" textLength="14" x="538.5" y="1389.3076">30</text><text fill="#000000" font-family="sans-serif" font-size="13" lengthAdjust="spacing" textLength="67" x="556.5" y="1389.3076">collaborator</text><polygon fill="#A80036" points="123.5,1420.5156,113.5,1424.5156,123.5,1428.5156,119.5,1424.5156" style="stroke:#A80036;stroke-width:1.0;"/><line style="stroke:#A80036;stroke-width:1.0;stroke-dasharray:2.0,2.0;" x1="117.5" x2="515.5" y1="1424.5156" y2="1424.5156"/><text fill="#000000" font-family="sans-serif" font-size="13" font-weight="bold" lengthAdjust="spacing" textLength="14" x="129.5" y="1419.6592">31</text><text fill="#000000" font-family="sans-serif" font-size="13" lengthAdjust="spacing" textLength="224" x="147.5" y="1419.6592">Informs of the success of the operation</text><!--MD5=[e492a24f4e9de2da950b8f4cb88862f8]
@startuml
autonumber
hide footbox

actor "Human Resource Representative" as HRR

participant "<<presentation>>\nCollaboratorSpecificationUI" as UI
participant "<<aplication>>\nCollaboratorSpecificationController" as CTRL
participant "<<builder>>\nCollaboratorBuilder" as CB
participant "<<domain>>\nrole:Role" as ROLE
participant "<<domain>>\ncolab:Collaborator" as COLAB
database "<<repository>>\nCollaboratorRepository" as CR

participant "<<persistence>>\nPersistenceContex" as PC
participant "<<persistence>>\nAppSettings" as AS
participant "<<factory>>\nRepositoryFactory" as RF
participant "<<domain>>\nShortName" as SN
participant "<<domain>>\nCompleteName" as CN
participant "<<domain>>\nMechanographicNumber" as MN
participant "<<domain>>\nRole" as R
participant "<<domain>>\nAddress" as A
participant "<<domain>>\nPhoneNumber" as PN
participant "<<domain>>\nBirthDate" as BD

activate HRR

HRR-> UI : Iniciates the request to specify a collaborator
activate UI

UI-> CTRL** : create()

UI - -> HRR: Request all information needed (i.e. short and complete name,\nmechanographic number, address, phone number, birth date)

deactivate UI
HRR-> UI : Inserts the requested information
activate UI
UI-> CTRL : addColaborador(shortName, completeName, mechanographicNumber,\naddress, phoneNumber, birthDate)
activate CTRL

CTRL-> CB** : create()
CTRL-> CB : withShortName(shortName)
activate CB
deactivate CB
CTRL-> CB : withCompleteName(completeName)
activate CB
deactivate CB
CTRL-> CB : withMechanographicNumber(mechanographicNumber)
activate CB
deactivate CB
CTRL-> CB : withAddress(address)
activate CB
deactivate CB
CTRL-> CB : withPhoneNumber(phoneNumber)
activate CB
deactivate CB
CTRL-> CB : withBirthDate(birthDate)
activate CB
deactivate CB
deactivate CB
deactivate CTRL

UI-> CTRL : getRoleList()
activate CTRL

CTRL-> ROLE : values()
activate ROLE

ROLE- -> CTRL : rolesList
deactivate ROLE
CTRL- -> UI : rolesList
deactivate CTRL

UI - -> HRR: Shows roles' list
deactivate UI

HRR-> UI : Select the intended role
activate UI

UI-> CTRL : addRole(role)
activate CTRL
CTRL-> CB : withRole(role)
activate CB
deactivate CB
deactivate CTRL

UI - -> HRR: Validates, presents the information and asks for confirmation
deactivate UI

deactivate UI
HRR-> UI : Confirms
activate UI

UI-> CTRL : saveColaborator()
activate CTRL

CTRL-> CB : build()
activate CB
CB-> COLAB** : create(shortName, completeName, mechanographicNumber,\naddress, phoneNumber, birthDate,role)

activate COLAB
COLAB - -> CB : collaborator
deactivate COLAB
CB - -> CTRL : collaborator
deactivate CB

ref over CTRL
US-1-2051_SD_Repo
end ref

CTRL-> CR : save(collaborator)
activate CR
CR - -> CTRL : collaborator
deactivate CR
CTRL - -> UI : collaborator
deactivate CTRL

UI - -> HRR: Informs of the success of the operation
deactivate UI
deactivate HRR

@enduml

PlantUML version 1.2021.5(Sun Apr 25 12:20:28 BST 2021)
(GPL source distribution)
Java Runtime: OpenJDK Runtime Environment
JVM: OpenJDK 64-Bit Server VM
Default Encoding: Cp1252
Language: pt
Country: PT
--></g></svg>