<?xml version="1.0" encoding="UTF-8" standalone="no"?><svg xmlns="http://www.w3.org/2000/svg" xmlns:xlink="http://www.w3.org/1999/xlink" contentScriptType="application/ecmascript" contentStyleType="text/css" height="820px" preserveAspectRatio="none" style="width:739px;height:820px;" version="1.1" viewBox="0 0 739 820" width="739px" zoomAndPan="magnify"><defs><filter height="300%" id="fs46amuz7vv9f" width="300%" x="-1" y="-1"><feGaussianBlur result="blurOut" stdDeviation="2.0"/><feColorMatrix in="blurOut" result="blurOut2" type="matrix" values="0 0 0 0 0 0 0 0 0 0 0 0 0 0 0 0 0 0 .4 0"/><feOffset dx="4.0" dy="4.0" in="blurOut2" result="blurOut3"/><feBlend in="SourceGraphic" in2="blurOut3" mode="normal"/></filter></defs><g><rect fill="#FFFFFF" filter="url(#fs46amuz7vv9f)" height="696.0859" style="stroke:#A80036;stroke-width:1.0;" width="10" x="132.5" y="99.6094"/><rect fill="#FFFFFF" filter="url(#fs46amuz7vv9f)" height="30.3516" style="stroke:#A80036;stroke-width:1.0;" width="10" x="666.5" y="121.9609"/><rect fill="#FFFFFF" filter="url(#fs46amuz7vv9f)" height="30.3516" style="stroke:#A80036;stroke-width:1.0;" width="10" x="666.5" y="182.6641"/><rect fill="#FFFFFF" filter="url(#fs46amuz7vv9f)" height="55.7031" style="stroke:#A80036;stroke-width:1.0;" width="10" x="666.5" y="243.3672"/><rect fill="#FFFFFF" filter="url(#fs46amuz7vv9f)" height="37.3516" style="stroke:#A80036;stroke-width:1.0;" width="10" x="666.5" y="329.4219"/><rect fill="#FFFFFF" filter="url(#fs46amuz7vv9f)" height="55.7031" style="stroke:#A80036;stroke-width:1.0;" width="10" x="666.5" y="397.125"/><rect fill="#FFFFFF" filter="url(#fs46amuz7vv9f)" height="55.7031" style="stroke:#A80036;stroke-width:1.0;" width="10" x="666.5" y="483.1797"/><rect fill="#FFFFFF" filter="url(#fs46amuz7vv9f)" height="30.3516" style="stroke:#A80036;stroke-width:1.0;" width="10" x="666.5" y="569.2344"/><rect fill="#FFFFFF" filter="url(#fs46amuz7vv9f)" height="37.3516" style="stroke:#A80036;stroke-width:1.0;" width="10" x="666.5" y="629.9375"/><rect fill="#FFFFFF" filter="url(#fs46amuz7vv9f)" height="37.3516" style="stroke:#A80036;stroke-width:1.0;" width="10" x="666.5" y="697.6406"/><rect fill="#FFFFFF" filter="url(#fs46amuz7vv9f)" height="30.3516" style="stroke:#A80036;stroke-width:1.0;" width="10" x="666.5" y="765.3438"/><rect fill="#FFFFFF" filter="url(#fs46amuz7vv9f)" height="79.0547" style="stroke:#000000;stroke-width:2.0;" width="695.5" x="20" y="258.3672"/><rect fill="#FFFFFF" filter="url(#fs46amuz7vv9f)" height="293.5156" style="stroke:#000000;stroke-width:2.0;" width="715.5" x="10" y="412.125"/><rect fill="#FFFFFF" filter="url(#fs46amuz7vv9f)" height="139.7578" style="stroke:#000000;stroke-width:2.0;" width="695.5" x="20" y="498.1797"/><line style="stroke:#A80036;stroke-width:1.0;stroke-dasharray:5.0,5.0;" x1="137" x2="137" y1="89.6094" y2="813.6953"/><line style="stroke:#A80036;stroke-width:1.0;stroke-dasharray:5.0,5.0;" x1="671.5" x2="671.5" y1="89.6094" y2="813.6953"/><text fill="#000000" font-family="sans-serif" font-size="14" lengthAdjust="spacing" textLength="209" x="30" y="86.5332">Gestor de Serviços de Help Desk</text><ellipse cx="137.5" cy="15" fill="#FEFECE" filter="url(#fs46amuz7vv9f)" rx="8" ry="8" style="stroke:#A80036;stroke-width:2.0;"/><path d="M137.5,23 L137.5,50 M124.5,31 L150.5,31 M137.5,50 L124.5,65 M137.5,50 L150.5,65 " fill="none" filter="url(#fs46amuz7vv9f)" style="stroke:#A80036;stroke-width:2.0;"/><rect fill="#FEFECE" filter="url(#fs46amuz7vv9f)" height="31.6094" style="stroke:#A80036;stroke-width:1.5;" width="64" x="637.5" y="53"/><text fill="#000000" font-family="sans-serif" font-size="14" lengthAdjust="spacing" textLength="50" x="644.5" y="74.5332">:System</text><rect fill="#FFFFFF" filter="url(#fs46amuz7vv9f)" height="696.0859" style="stroke:#A80036;stroke-width:1.0;" width="10" x="132.5" y="99.6094"/><rect fill="#FFFFFF" filter="url(#fs46amuz7vv9f)" height="30.3516" style="stroke:#A80036;stroke-width:1.0;" width="10" x="666.5" y="121.9609"/><rect fill="#FFFFFF" filter="url(#fs46amuz7vv9f)" height="30.3516" style="stroke:#A80036;stroke-width:1.0;" width="10" x="666.5" y="182.6641"/><rect fill="#FFFFFF" filter="url(#fs46amuz7vv9f)" height="55.7031" style="stroke:#A80036;stroke-width:1.0;" width="10" x="666.5" y="243.3672"/><rect fill="#FFFFFF" filter="url(#fs46amuz7vv9f)" height="37.3516" style="stroke:#A80036;stroke-width:1.0;" width="10" x="666.5" y="329.4219"/><rect fill="#FFFFFF" filter="url(#fs46amuz7vv9f)" height="55.7031" style="stroke:#A80036;stroke-width:1.0;" width="10" x="666.5" y="397.125"/><rect fill="#FFFFFF" filter="url(#fs46amuz7vv9f)" height="55.7031" style="stroke:#A80036;stroke-width:1.0;" width="10" x="666.5" y="483.1797"/><rect fill="#FFFFFF" filter="url(#fs46amuz7vv9f)" height="30.3516" style="stroke:#A80036;stroke-width:1.0;" width="10" x="666.5" y="569.2344"/><rect fill="#FFFFFF" filter="url(#fs46amuz7vv9f)" height="37.3516" style="stroke:#A80036;stroke-width:1.0;" width="10" x="666.5" y="629.9375"/><rect fill="#FFFFFF" filter="url(#fs46amuz7vv9f)" height="37.3516" style="stroke:#A80036;stroke-width:1.0;" width="10" x="666.5" y="697.6406"/><rect fill="#FFFFFF" filter="url(#fs46amuz7vv9f)" height="30.3516" style="stroke:#A80036;stroke-width:1.0;" width="10" x="666.5" y="765.3438"/><polygon fill="#A80036" points="654.5,117.9609,664.5,121.9609,654.5,125.9609,658.5,121.9609" style="stroke:#A80036;stroke-width:1.0;"/><line style="stroke:#A80036;stroke-width:1.0;" x1="142.5" x2="660.5" y1="121.9609" y2="121.9609"/><text fill="#000000" font-family="sans-serif" font-size="13" font-weight="bold" lengthAdjust="spacing" textLength="7" x="149.5" y="117.1045">1</text><text fill="#000000" font-family="sans-serif" font-size="13" lengthAdjust="spacing" textLength="254" x="160.5" y="117.1045">envia um pedido para especificar um servico</text><polygon fill="#A80036" points="153.5,148.3125,143.5,152.3125,153.5,156.3125,149.5,152.3125" style="stroke:#A80036;stroke-width:1.0;"/><line style="stroke:#A80036;stroke-width:1.0;" x1="147.5" x2="670.5" y1="152.3125" y2="152.3125"/><text fill="#000000" font-family="sans-serif" font-size="13" font-weight="bold" lengthAdjust="spacing" textLength="7" x="159.5" y="147.4561">2</text><text fill="#000000" font-family="sans-serif" font-size="13" lengthAdjust="spacing" textLength="343" x="170.5" y="147.4561">solicita a introdução de dados (descrição breve e completa)</text><polygon fill="#A80036" points="654.5,178.6641,664.5,182.6641,654.5,186.6641,658.5,182.6641" style="stroke:#A80036;stroke-width:1.0;"/><line style="stroke:#A80036;stroke-width:1.0;" x1="142.5" x2="660.5" y1="182.6641" y2="182.6641"/><text fill="#000000" font-family="sans-serif" font-size="13" font-weight="bold" lengthAdjust="spacing" textLength="7" x="149.5" y="177.8076">3</text><text fill="#000000" font-family="sans-serif" font-size="13" lengthAdjust="spacing" textLength="103" x="160.5" y="177.8076">introduz os dados</text><polygon fill="#A80036" points="153.5,209.0156,143.5,213.0156,153.5,217.0156,149.5,213.0156" style="stroke:#A80036;stroke-width:1.0;"/><line style="stroke:#A80036;stroke-width:1.0;" x1="147.5" x2="670.5" y1="213.0156" y2="213.0156"/><text fill="#000000" font-family="sans-serif" font-size="13" font-weight="bold" lengthAdjust="spacing" textLength="7" x="159.5" y="208.1592">4</text><text fill="#000000" font-family="sans-serif" font-size="13" lengthAdjust="spacing" textLength="219" x="170.5" y="208.1592">pergunta se o serviço requer feedback</text><polygon fill="#A80036" points="654.5,239.3672,664.5,243.3672,654.5,247.3672,658.5,243.3672" style="stroke:#A80036;stroke-width:1.0;"/><line style="stroke:#A80036;stroke-width:1.0;" x1="142.5" x2="660.5" y1="243.3672" y2="243.3672"/><text fill="#000000" font-family="sans-serif" font-size="13" font-weight="bold" lengthAdjust="spacing" textLength="7" x="149.5" y="238.5107">5</text><text fill="#000000" font-family="sans-serif" font-size="13" lengthAdjust="spacing" textLength="306" x="160.5" y="238.5107">seleciona se pretende ou não feedback neste serviço</text><path d="M20,258.3672 L81,258.3672 L81,266.3672 L71,276.3672 L20,276.3672 L20,258.3672 " fill="#EEEEEE" style="stroke:#000000;stroke-width:1.0;"/><rect fill="none" height="79.0547" style="stroke:#000000;stroke-width:2.0;" width="695.5" x="20" y="258.3672"/><text fill="#000000" font-family="sans-serif" font-size="13" font-weight="bold" lengthAdjust="spacing" textLength="16" x="35" y="272.8623">alt</text><text fill="#000000" font-family="sans-serif" font-size="11" font-weight="bold" lengthAdjust="spacing" textLength="192" x="96" y="271.7861">[caso o serviço requeira feedback]</text><polygon fill="#A80036" points="153.5,295.0703,143.5,299.0703,153.5,303.0703,149.5,299.0703" style="stroke:#A80036;stroke-width:1.0;"/><line style="stroke:#A80036;stroke-width:1.0;" x1="147.5" x2="670.5" y1="299.0703" y2="299.0703"/><text fill="#000000" font-family="sans-serif" font-size="13" font-weight="bold" lengthAdjust="spacing" textLength="7" x="159.5" y="294.2139">6</text><text fill="#000000" font-family="sans-serif" font-size="13" lengthAdjust="spacing" textLength="305" x="170.5" y="294.2139">solicita a duração máxima permitida para o feedback</text><polygon fill="#A80036" points="654.5,325.4219,664.5,329.4219,654.5,333.4219,658.5,329.4219" style="stroke:#A80036;stroke-width:1.0;"/><line style="stroke:#A80036;stroke-width:1.0;" x1="142.5" x2="660.5" y1="329.4219" y2="329.4219"/><text fill="#000000" font-family="sans-serif" font-size="13" font-weight="bold" lengthAdjust="spacing" textLength="7" x="149.5" y="324.5654">7</text><text fill="#000000" font-family="sans-serif" font-size="13" lengthAdjust="spacing" textLength="157" x="160.5" y="324.5654">introduz a duração máxima</text><polygon fill="#A80036" points="153.5,362.7734,143.5,366.7734,153.5,370.7734,149.5,366.7734" style="stroke:#A80036;stroke-width:1.0;"/><line style="stroke:#A80036;stroke-width:1.0;" x1="147.5" x2="670.5" y1="366.7734" y2="366.7734"/><text fill="#000000" font-family="sans-serif" font-size="13" font-weight="bold" lengthAdjust="spacing" textLength="7" x="159.5" y="361.917">8</text><text fill="#000000" font-family="sans-serif" font-size="13" lengthAdjust="spacing" textLength="366" x="170.5" y="361.917">mostra a lista de catálogos e solicita a escolha de um catálogo</text><polygon fill="#A80036" points="654.5,393.125,664.5,397.125,654.5,401.125,658.5,397.125" style="stroke:#A80036;stroke-width:1.0;"/><line style="stroke:#A80036;stroke-width:1.0;" x1="142.5" x2="660.5" y1="397.125" y2="397.125"/><text fill="#000000" font-family="sans-serif" font-size="13" font-weight="bold" lengthAdjust="spacing" textLength="7" x="149.5" y="392.2686">9</text><text fill="#000000" font-family="sans-serif" font-size="13" lengthAdjust="spacing" textLength="314" x="160.5" y="392.2686">escolhe o catálogo onde será disponibilizado o serviço</text><path d="M10,412.125 L83,412.125 L83,420.125 L73,430.125 L10,430.125 L10,412.125 " fill="#EEEEEE" style="stroke:#000000;stroke-width:1.0;"/><rect fill="none" height="293.5156" style="stroke:#000000;stroke-width:2.0;" width="715.5" x="10" y="412.125"/><text fill="#000000" font-family="sans-serif" font-size="13" font-weight="bold" lengthAdjust="spacing" textLength="28" x="25" y="426.6201">loop</text><text fill="#000000" font-family="sans-serif" font-size="11" font-weight="bold" lengthAdjust="spacing" textLength="238" x="98" y="425.5439">[até não serem precisos mais formulários]</text><polygon fill="#A80036" points="153.5,448.8281,143.5,452.8281,153.5,456.8281,149.5,452.8281" style="stroke:#A80036;stroke-width:1.0;"/><line style="stroke:#A80036;stroke-width:1.0;" x1="147.5" x2="670.5" y1="452.8281" y2="452.8281"/><text fill="#000000" font-family="sans-serif" font-size="13" font-weight="bold" lengthAdjust="spacing" textLength="14" x="159.5" y="447.9717">10</text><text fill="#000000" font-family="sans-serif" font-size="13" lengthAdjust="spacing" textLength="370" x="177.5" y="447.9717">solicita a introdução de dados do formulário (código, nome, tipo)</text><polygon fill="#A80036" points="654.5,479.1797,664.5,483.1797,654.5,487.1797,658.5,483.1797" style="stroke:#A80036;stroke-width:1.0;"/><line style="stroke:#A80036;stroke-width:1.0;" x1="142.5" x2="660.5" y1="483.1797" y2="483.1797"/><text fill="#000000" font-family="sans-serif" font-size="13" font-weight="bold" lengthAdjust="spacing" textLength="14" x="149.5" y="478.3232">11</text><text fill="#000000" font-family="sans-serif" font-size="13" lengthAdjust="spacing" textLength="103" x="167.5" y="478.3232">introduz os dados</text><path d="M20,498.1797 L93,498.1797 L93,506.1797 L83,516.1797 L20,516.1797 L20,498.1797 " fill="#EEEEEE" style="stroke:#000000;stroke-width:1.0;"/><rect fill="none" height="139.7578" style="stroke:#000000;stroke-width:2.0;" width="695.5" x="20" y="498.1797"/><text fill="#000000" font-family="sans-serif" font-size="13" font-weight="bold" lengthAdjust="spacing" textLength="28" x="35" y="512.6748">loop</text><text fill="#000000" font-family="sans-serif" font-size="11" font-weight="bold" lengthAdjust="spacing" textLength="223" x="108" y="511.5986">[até não serem precisos mais atributos]</text><polygon fill="#A80036" points="153.5,534.8828,143.5,538.8828,153.5,542.8828,149.5,538.8828" style="stroke:#A80036;stroke-width:1.0;"/><line style="stroke:#A80036;stroke-width:1.0;" x1="147.5" x2="670.5" y1="538.8828" y2="538.8828"/><text fill="#000000" font-family="sans-serif" font-size="13" font-weight="bold" lengthAdjust="spacing" textLength="14" x="159.5" y="534.0264">12</text><text fill="#000000" font-family="sans-serif" font-size="13" lengthAdjust="spacing" textLength="482" x="177.5" y="534.0264">solicita a introdução de dados (tipo de dados, regex, descrição, script, label, nome)</text><polygon fill="#A80036" points="654.5,565.2344,664.5,569.2344,654.5,573.2344,658.5,569.2344" style="stroke:#A80036;stroke-width:1.0;"/><line style="stroke:#A80036;stroke-width:1.0;" x1="142.5" x2="660.5" y1="569.2344" y2="569.2344"/><text fill="#000000" font-family="sans-serif" font-size="13" font-weight="bold" lengthAdjust="spacing" textLength="14" x="149.5" y="564.3779">13</text><text fill="#000000" font-family="sans-serif" font-size="13" lengthAdjust="spacing" textLength="103" x="167.5" y="564.3779">introduz os dados</text><polygon fill="#A80036" points="153.5,595.5859,143.5,599.5859,153.5,603.5859,149.5,599.5859" style="stroke:#A80036;stroke-width:1.0;"/><line style="stroke:#A80036;stroke-width:1.0;" x1="147.5" x2="670.5" y1="599.5859" y2="599.5859"/><text fill="#000000" font-family="sans-serif" font-size="13" font-weight="bold" lengthAdjust="spacing" textLength="14" x="159.5" y="594.7295">14</text><text fill="#000000" font-family="sans-serif" font-size="13" lengthAdjust="spacing" textLength="402" x="177.5" y="594.7295">pergunta se deseja adicionar mais atributos ao formulário em questão</text><polygon fill="#A80036" points="654.5,625.9375,664.5,629.9375,654.5,633.9375,658.5,629.9375" style="stroke:#A80036;stroke-width:1.0;"/><line style="stroke:#A80036;stroke-width:1.0;" x1="142.5" x2="660.5" y1="629.9375" y2="629.9375"/><text fill="#000000" font-family="sans-serif" font-size="13" font-weight="bold" lengthAdjust="spacing" textLength="14" x="149.5" y="625.0811">15</text><text fill="#000000" font-family="sans-serif" font-size="13" lengthAdjust="spacing" textLength="310" x="167.5" y="625.0811">responde se pretende ou não adicionar mais atributos</text><polygon fill="#A80036" points="153.5,663.2891,143.5,667.2891,153.5,671.2891,149.5,667.2891" style="stroke:#A80036;stroke-width:1.0;"/><line style="stroke:#A80036;stroke-width:1.0;" x1="147.5" x2="670.5" y1="667.2891" y2="667.2891"/><text fill="#000000" font-family="sans-serif" font-size="13" font-weight="bold" lengthAdjust="spacing" textLength="14" x="159.5" y="662.4326">16</text><text fill="#000000" font-family="sans-serif" font-size="13" lengthAdjust="spacing" textLength="399" x="177.5" y="662.4326">pergunta se deseja adicionar mais formulários ao serviço em questão</text><polygon fill="#A80036" points="654.5,693.6406,664.5,697.6406,654.5,701.6406,658.5,697.6406" style="stroke:#A80036;stroke-width:1.0;"/><line style="stroke:#A80036;stroke-width:1.0;" x1="142.5" x2="660.5" y1="697.6406" y2="697.6406"/><text fill="#000000" font-family="sans-serif" font-size="13" font-weight="bold" lengthAdjust="spacing" textLength="14" x="149.5" y="692.7842">17</text><text fill="#000000" font-family="sans-serif" font-size="13" lengthAdjust="spacing" textLength="323" x="167.5" y="692.7842">responde se pretende ou não adicionar mais formulários</text><polygon fill="#A80036" points="153.5,730.9922,143.5,734.9922,153.5,738.9922,149.5,734.9922" style="stroke:#A80036;stroke-width:1.0;"/><line style="stroke:#A80036;stroke-width:1.0;" x1="147.5" x2="670.5" y1="734.9922" y2="734.9922"/><text fill="#000000" font-family="sans-serif" font-size="13" font-weight="bold" lengthAdjust="spacing" textLength="14" x="159.5" y="730.1357">18</text><text fill="#000000" font-family="sans-serif" font-size="13" lengthAdjust="spacing" textLength="375" x="177.5" y="730.1357">valida, apresenta os dados do servico e solicita uma confirmação</text><polygon fill="#A80036" points="654.5,761.3438,664.5,765.3438,654.5,769.3438,658.5,765.3438" style="stroke:#A80036;stroke-width:1.0;"/><line style="stroke:#A80036;stroke-width:1.0;" x1="142.5" x2="660.5" y1="765.3438" y2="765.3438"/><text fill="#000000" font-family="sans-serif" font-size="13" font-weight="bold" lengthAdjust="spacing" textLength="14" x="149.5" y="760.4873">19</text><text fill="#000000" font-family="sans-serif" font-size="13" lengthAdjust="spacing" textLength="49" x="167.5" y="760.4873">confirma</text><polygon fill="#A80036" points="148.5,791.6953,138.5,795.6953,148.5,799.6953,144.5,795.6953" style="stroke:#A80036;stroke-width:1.0;"/><line style="stroke:#A80036;stroke-width:1.0;" x1="142.5" x2="670.5" y1="795.6953" y2="795.6953"/><text fill="#000000" font-family="sans-serif" font-size="13" font-weight="bold" lengthAdjust="spacing" textLength="14" x="154.5" y="790.8389">20</text><text fill="#000000" font-family="sans-serif" font-size="13" lengthAdjust="spacing" textLength="297" x="172.5" y="790.8389">regista o servico e informa do sucesso da operação</text><!--MD5=[771c7d4e70e3f8127ab57c4f2d9b71ae]
@startuml
autonumber
hide footbox

actor "Gestor de Serviços de Help Desk" as GSH
participant ":System" as SYST

activate GSH

GSH -> SYST : envia um pedido para especificar um servico
activate SYST
SYST -> GSH : solicita a introdução de dados (descrição breve e completa)
deactivate SYST

GSH -> SYST : introduz os dados
activate SYST
SYST -> GSH : pergunta se o serviço requer feedback
deactivate SYST

GSH -> SYST : seleciona se pretende ou não feedback neste serviço
activate SYST

alt caso o serviço requeira feedback

SYST -> GSH : solicita a duração máxima permitida para o feedback
deactivate SYST

GSH -> SYST : introduz a duração máxima
activate SYST
end

SYST -> GSH : mostra a lista de catálogos e solicita a escolha de um catálogo
deactivate SYST

GSH -> SYST : escolhe o catálogo onde será disponibilizado o serviço
activate SYST

loop até não serem precisos mais formulários
SYST -> GSH : solicita a introdução de dados do formulário (código, nome, tipo)
deactivate SYST

GSH -> SYST : introduz os dados
activate SYST

loop até não serem precisos mais atributos
SYST -> GSH : solicita a introdução de dados (tipo de dados, regex, descrição, script, label, nome)
deactivate SYST

GSH -> SYST : introduz os dados
activate SYST

SYST -> GSH : pergunta se deseja adicionar mais atributos ao formulário em questão
deactivate SYST

GSH -> SYST : responde se pretende ou não adicionar mais atributos
activate SYST
end

SYST -> GSH : pergunta se deseja adicionar mais formulários ao serviço em questão
deactivate SYST

GSH -> SYST : responde se pretende ou não adicionar mais formulários
activate SYST
end

SYST -> GSH : valida, apresenta os dados do servico e solicita uma confirmação
deactivate SYST

GSH -> SYST : confirma
activate SYST
SYST -> GSH : regista o servico e informa do sucesso da operação
deactivate SYST

deactivate GSH

@enduml

PlantUML version 1.2021.4(Sun Apr 04 09:49:39 BST 2021)
(GPL source distribution)
Java Runtime: OpenJDK Runtime Environment
JVM: OpenJDK 64-Bit Server VM
Default Encoding: Cp1252
Language: pt
Country: PT
--></g></svg>