<?xml version="1.0" encoding="UTF-8" standalone="no"?><svg xmlns="http://www.w3.org/2000/svg" xmlns:xlink="http://www.w3.org/1999/xlink" contentScriptType="application/ecmascript" contentStyleType="text/css" height="1978px" preserveAspectRatio="none" style="width:1634px;height:1978px;" version="1.1" viewBox="0 0 1634 1978" width="1634px" zoomAndPan="magnify"><defs><filter height="300%" id="fdzvtskik5q94" width="300%" x="-1" y="-1"><feGaussianBlur result="blurOut" stdDeviation="4.0"/><feColorMatrix in="blurOut" result="blurOut2" type="matrix" values="0 0 0 0 0 0 0 0 0 0 0 0 0 0 0 0 0 0 .4 0"/><feOffset dx="8.0" dy="8.0" in="blurOut2" result="blurOut3"/><feBlend in="SourceGraphic" in2="blurOut3" mode="normal"/></filter></defs><g><rect fill="#FFFFFF" filter="url(#fdzvtskik5q94)" height="1732.543" style="stroke:#A80036;stroke-width:2.0;" width="20" x="247" y="196.9766"/><rect fill="#FFFFFF" filter="url(#fdzvtskik5q94)" height="58.6211" style="stroke:#A80036;stroke-width:2.0;" width="20" x="1491" y="239.5977"/><rect fill="#FFFFFF" filter="url(#fdzvtskik5q94)" height="107.2422" style="stroke:#A80036;stroke-width:2.0;" width="20" x="1491" y="356.8398"/><rect fill="#FFFFFF" filter="url(#fdzvtskik5q94)" height="121.2422" style="stroke:#A80036;stroke-width:2.0;" width="20" x="1491" y="522.7031"/><rect fill="#FFFFFF" filter="url(#fdzvtskik5q94)" height="72.6211" style="stroke:#A80036;stroke-width:2.0;" width="20" x="1491" y="702.5664"/><rect fill="#FFFFFF" filter="url(#fdzvtskik5q94)" height="58.6211" style="stroke:#A80036;stroke-width:2.0;" width="20" x="1491" y="833.8086"/><rect fill="#FFFFFF" filter="url(#fdzvtskik5q94)" height="107.2422" style="stroke:#A80036;stroke-width:2.0;" width="20" x="1491" y="951.0508"/><rect fill="#FFFFFF" filter="url(#fdzvtskik5q94)" height="107.2422" style="stroke:#A80036;stroke-width:2.0;" width="20" x="1491" y="1116.9141"/><rect fill="#FFFFFF" filter="url(#fdzvtskik5q94)" height="58.6211" style="stroke:#A80036;stroke-width:2.0;" width="20" x="1491" y="1282.7773"/><rect fill="#FFFFFF" filter="url(#fdzvtskik5q94)" height="58.6211" style="stroke:#A80036;stroke-width:2.0;" width="20" x="1491" y="1400.0195"/><rect fill="#FFFFFF" filter="url(#fdzvtskik5q94)" height="102.5313" style="stroke:#A80036;stroke-width:2.0;" width="20" x="1491" y="1517.2617"/><rect fill="#FFFFFF" filter="url(#fdzvtskik5q94)" height="103.2422" style="stroke:#A80036;stroke-width:2.0;" width="20" x="1491" y="1678.4141"/><rect fill="#FFFFFF" filter="url(#fdzvtskik5q94)" height="89.2422" style="stroke:#A80036;stroke-width:2.0;" width="20" x="1491" y="1840.2773"/><rect fill="#FFFFFF" filter="url(#fdzvtskik5q94)" height="151.8633" style="stroke:#000000;stroke-width:4.0;" width="1547" x="40" y="386.8398"/><rect fill="#FFFFFF" filter="url(#fdzvtskik5q94)" height="151.8633" style="stroke:#000000;stroke-width:4.0;" width="1547" x="40" y="566.7031"/><rect fill="#FFFFFF" filter="url(#fdzvtskik5q94)" height="713.3633" style="stroke:#000000;stroke-width:4.0;" width="1587" x="20" y="981.0508"/><rect fill="#FFFFFF" filter="url(#fdzvtskik5q94)" height="386.3477" style="stroke:#000000;stroke-width:4.0;" width="1547" x="40" y="1146.9141"/><rect fill="#FFFFFF" height="147.1523" style="stroke:none;stroke-width:2.0;" width="1587" x="20" y="1547.2617"/><line style="stroke:#A80036;stroke-width:2.0;stroke-dasharray:5.0,5.0;" x1="256" x2="256" y1="176.9766" y2="1965.5195"/><line style="stroke:#A80036;stroke-width:2.0;stroke-dasharray:5.0,5.0;" x1="1501" x2="1501" y1="176.9766" y2="1965.5195"/><text fill="#000000" font-family="sans-serif" font-size="28" lengthAdjust="spacing" textLength="382" x="60" y="171.0703">Help Desk Services Manager</text><ellipse cx="257" cy="30" fill="#FEFECE" filter="url(#fdzvtskik5q94)" rx="16" ry="16" style="stroke:#A80036;stroke-width:4.0;"/><path d="M257,46 L257,100 M231,62 L283,62 M257,100 L231,130 M257,100 L283,130 " fill="none" filter="url(#fdzvtskik5q94)" style="stroke:#A80036;stroke-width:4.0;"/><rect fill="#FEFECE" filter="url(#fdzvtskik5q94)" height="60.9766" style="stroke:#A80036;stroke-width:3.0;" width="124" x="1435" y="106"/><text fill="#000000" font-family="sans-serif" font-size="28" lengthAdjust="spacing" textLength="96" x="1449" y="147.0703">System</text><rect fill="#FFFFFF" filter="url(#fdzvtskik5q94)" height="1732.543" style="stroke:#A80036;stroke-width:2.0;" width="20" x="247" y="196.9766"/><rect fill="#FFFFFF" filter="url(#fdzvtskik5q94)" height="58.6211" style="stroke:#A80036;stroke-width:2.0;" width="20" x="1491" y="239.5977"/><rect fill="#FFFFFF" filter="url(#fdzvtskik5q94)" height="107.2422" style="stroke:#A80036;stroke-width:2.0;" width="20" x="1491" y="356.8398"/><rect fill="#FFFFFF" filter="url(#fdzvtskik5q94)" height="121.2422" style="stroke:#A80036;stroke-width:2.0;" width="20" x="1491" y="522.7031"/><rect fill="#FFFFFF" filter="url(#fdzvtskik5q94)" height="72.6211" style="stroke:#A80036;stroke-width:2.0;" width="20" x="1491" y="702.5664"/><rect fill="#FFFFFF" filter="url(#fdzvtskik5q94)" height="58.6211" style="stroke:#A80036;stroke-width:2.0;" width="20" x="1491" y="833.8086"/><rect fill="#FFFFFF" filter="url(#fdzvtskik5q94)" height="107.2422" style="stroke:#A80036;stroke-width:2.0;" width="20" x="1491" y="951.0508"/><rect fill="#FFFFFF" filter="url(#fdzvtskik5q94)" height="107.2422" style="stroke:#A80036;stroke-width:2.0;" width="20" x="1491" y="1116.9141"/><rect fill="#FFFFFF" filter="url(#fdzvtskik5q94)" height="58.6211" style="stroke:#A80036;stroke-width:2.0;" width="20" x="1491" y="1282.7773"/><rect fill="#FFFFFF" filter="url(#fdzvtskik5q94)" height="58.6211" style="stroke:#A80036;stroke-width:2.0;" width="20" x="1491" y="1400.0195"/><rect fill="#FFFFFF" filter="url(#fdzvtskik5q94)" height="102.5313" style="stroke:#A80036;stroke-width:2.0;" width="20" x="1491" y="1517.2617"/><rect fill="#FFFFFF" filter="url(#fdzvtskik5q94)" height="103.2422" style="stroke:#A80036;stroke-width:2.0;" width="20" x="1491" y="1678.4141"/><rect fill="#FFFFFF" filter="url(#fdzvtskik5q94)" height="89.2422" style="stroke:#A80036;stroke-width:2.0;" width="20" x="1491" y="1840.2773"/><polygon fill="#A80036" points="1467,231.5977,1487,239.5977,1467,247.5977,1475,239.5977" style="stroke:#A80036;stroke-width:2.0;"/><line style="stroke:#A80036;stroke-width:2.0;" x1="267" x2="1479" y1="239.5977" y2="239.5977"/><text fill="#000000" font-family="sans-serif" font-size="26" font-weight="bold" lengthAdjust="spacing" textLength="18" x="281" y="230.1133">1</text><text fill="#000000" font-family="sans-serif" font-size="26" lengthAdjust="spacing" textLength="734" x="307" y="230.1133">initiates the request to add/update tasks in a service draft</text><polygon fill="#A80036" points="289,290.2188,269,298.2188,289,306.2188,281,298.2188" style="stroke:#A80036;stroke-width:2.0;"/><line style="stroke:#A80036;stroke-width:2.0;" x1="277" x2="1499" y1="298.2188" y2="298.2188"/><text fill="#000000" font-family="sans-serif" font-size="26" font-weight="bold" lengthAdjust="spacing" textLength="18" x="301" y="288.7344">2</text><text fill="#000000" font-family="sans-serif" font-size="26" lengthAdjust="spacing" textLength="614" x="327" y="288.7344">asks if the user pretends to use an existing draft</text><polygon fill="#A80036" points="1467,348.8398,1487,356.8398,1467,364.8398,1475,356.8398" style="stroke:#A80036;stroke-width:2.0;"/><line style="stroke:#A80036;stroke-width:2.0;" x1="267" x2="1479" y1="356.8398" y2="356.8398"/><text fill="#000000" font-family="sans-serif" font-size="26" font-weight="bold" lengthAdjust="spacing" textLength="18" x="281" y="347.3555">3</text><text fill="#000000" font-family="sans-serif" font-size="26" lengthAdjust="spacing" textLength="116" x="307" y="347.3555">responds</text><path d="M40,386.8398 L164,386.8398 L164,400.8398 L144,420.8398 L40,420.8398 L40,386.8398 " fill="#EEEEEE" style="stroke:#000000;stroke-width:2.0;"/><rect fill="none" height="151.8633" style="stroke:#000000;stroke-width:4.0;" width="1547" x="40" y="386.8398"/><text fill="#000000" font-family="sans-serif" font-size="26" font-weight="bold" lengthAdjust="spacing" textLength="34" x="70" y="413.9766">alt</text><text fill="#000000" font-family="sans-serif" font-size="22" font-weight="bold" lengthAdjust="spacing" textLength="504" x="194" y="412.1094">[if the user pretends to use an existing draft]</text><polygon fill="#A80036" points="289,456.082,269,464.082,289,472.082,281,464.082" style="stroke:#A80036;stroke-width:2.0;"/><line style="stroke:#A80036;stroke-width:2.0;" x1="277" x2="1499" y1="464.082" y2="464.082"/><text fill="#000000" font-family="sans-serif" font-size="26" font-weight="bold" lengthAdjust="spacing" textLength="18" x="301" y="454.5977">4</text><text fill="#000000" font-family="sans-serif" font-size="26" lengthAdjust="spacing" textLength="724" x="327" y="454.5977">presents the draft list and asks the user to choose a draft</text><polygon fill="#A80036" points="1467,514.7031,1487,522.7031,1467,530.7031,1475,522.7031" style="stroke:#A80036;stroke-width:2.0;"/><line style="stroke:#A80036;stroke-width:2.0;" x1="267" x2="1479" y1="522.7031" y2="522.7031"/><text fill="#000000" font-family="sans-serif" font-size="26" font-weight="bold" lengthAdjust="spacing" textLength="18" x="281" y="513.2188">5</text><text fill="#000000" font-family="sans-serif" font-size="26" lengthAdjust="spacing" textLength="194" x="307" y="513.2188">chooses a draft</text><path d="M40,566.7031 L164,566.7031 L164,580.7031 L144,600.7031 L40,600.7031 L40,566.7031 " fill="#EEEEEE" style="stroke:#000000;stroke-width:2.0;"/><rect fill="none" height="151.8633" style="stroke:#000000;stroke-width:4.0;" width="1547" x="40" y="566.7031"/><text fill="#000000" font-family="sans-serif" font-size="26" font-weight="bold" lengthAdjust="spacing" textLength="34" x="70" y="593.8398">alt</text><text fill="#000000" font-family="sans-serif" font-size="22" font-weight="bold" lengthAdjust="spacing" textLength="610" x="194" y="591.9727">[if the user wants to add an approval task to the draft]</text><polygon fill="#A80036" points="289,635.9453,269,643.9453,289,651.9453,281,643.9453" style="stroke:#A80036;stroke-width:2.0;"/><line style="stroke:#A80036;stroke-width:2.0;" x1="277" x2="1499" y1="643.9453" y2="643.9453"/><text fill="#000000" font-family="sans-serif" font-size="26" font-weight="bold" lengthAdjust="spacing" textLength="18" x="301" y="634.4609">6</text><text fill="#000000" font-family="sans-serif" font-size="26" lengthAdjust="spacing" textLength="728" x="327" y="634.4609">requests the user to insert the approval task's description</text><polygon fill="#A80036" points="1467,694.5664,1487,702.5664,1467,710.5664,1475,702.5664" style="stroke:#A80036;stroke-width:2.0;"/><line style="stroke:#A80036;stroke-width:2.0;" x1="267" x2="1479" y1="702.5664" y2="702.5664"/><text fill="#000000" font-family="sans-serif" font-size="26" font-weight="bold" lengthAdjust="spacing" textLength="18" x="281" y="693.082">7</text><text fill="#000000" font-family="sans-serif" font-size="26" lengthAdjust="spacing" textLength="366" x="307" y="693.082">inserts the task's description</text><polygon fill="#A80036" points="289,767.1875,269,775.1875,289,783.1875,281,775.1875" style="stroke:#A80036;stroke-width:2.0;"/><line style="stroke:#A80036;stroke-width:2.0;" x1="277" x2="1499" y1="775.1875" y2="775.1875"/><text fill="#000000" font-family="sans-serif" font-size="26" font-weight="bold" lengthAdjust="spacing" textLength="18" x="301" y="765.7031">8</text><text fill="#000000" font-family="sans-serif" font-size="26" lengthAdjust="spacing" textLength="748" x="327" y="765.7031">requests the user to insert the resolution task's description</text><polygon fill="#A80036" points="1467,825.8086,1487,833.8086,1467,841.8086,1475,833.8086" style="stroke:#A80036;stroke-width:2.0;"/><line style="stroke:#A80036;stroke-width:2.0;" x1="267" x2="1479" y1="833.8086" y2="833.8086"/><text fill="#000000" font-family="sans-serif" font-size="26" font-weight="bold" lengthAdjust="spacing" textLength="18" x="281" y="824.3242">9</text><text fill="#000000" font-family="sans-serif" font-size="26" lengthAdjust="spacing" textLength="502" x="307" y="824.3242">inserts the resolution task's description</text><polygon fill="#A80036" points="289,884.4297,269,892.4297,289,900.4297,281,892.4297" style="stroke:#A80036;stroke-width:2.0;"/><line style="stroke:#A80036;stroke-width:2.0;" x1="277" x2="1499" y1="892.4297" y2="892.4297"/><text fill="#000000" font-family="sans-serif" font-size="26" font-weight="bold" lengthAdjust="spacing" textLength="36" x="301" y="882.9453">10</text><text fill="#000000" font-family="sans-serif" font-size="26" lengthAdjust="spacing" textLength="660" x="345" y="882.9453">requests the user to insert the resolution task's type</text><polygon fill="#A80036" points="1467,943.0508,1487,951.0508,1467,959.0508,1475,951.0508" style="stroke:#A80036;stroke-width:2.0;"/><line style="stroke:#A80036;stroke-width:2.0;" x1="267" x2="1479" y1="951.0508" y2="951.0508"/><text fill="#000000" font-family="sans-serif" font-size="26" font-weight="bold" lengthAdjust="spacing" textLength="36" x="281" y="941.5664">11</text><text fill="#000000" font-family="sans-serif" font-size="26" lengthAdjust="spacing" textLength="414" x="325" y="941.5664">inserts the resolution task's type</text><path d="M20,981.0508 L144,981.0508 L144,995.0508 L124,1015.0508 L20,1015.0508 L20,981.0508 " fill="#EEEEEE" style="stroke:#000000;stroke-width:2.0;"/><rect fill="none" height="713.3633" style="stroke:#000000;stroke-width:4.0;" width="1587" x="20" y="981.0508"/><text fill="#000000" font-family="sans-serif" font-size="26" font-weight="bold" lengthAdjust="spacing" textLength="34" x="50" y="1008.1875">alt</text><text fill="#000000" font-family="sans-serif" font-size="22" font-weight="bold" lengthAdjust="spacing" textLength="478" x="174" y="1006.3203">[if the user pretends to add a manual task]</text><polygon fill="#A80036" points="289,1050.293,269,1058.293,289,1066.293,281,1058.293" style="stroke:#A80036;stroke-width:2.0;"/><line style="stroke:#A80036;stroke-width:2.0;" x1="277" x2="1499" y1="1058.293" y2="1058.293"/><text fill="#000000" font-family="sans-serif" font-size="26" font-weight="bold" lengthAdjust="spacing" textLength="36" x="301" y="1048.8086">12</text><text fill="#000000" font-family="sans-serif" font-size="26" lengthAdjust="spacing" textLength="544" x="345" y="1048.8086">requests the user to insert the form's name</text><polygon fill="#A80036" points="1467,1108.9141,1487,1116.9141,1467,1124.9141,1475,1116.9141" style="stroke:#A80036;stroke-width:2.0;"/><line style="stroke:#A80036;stroke-width:2.0;" x1="267" x2="1479" y1="1116.9141" y2="1116.9141"/><text fill="#000000" font-family="sans-serif" font-size="26" font-weight="bold" lengthAdjust="spacing" textLength="36" x="281" y="1107.4297">13</text><text fill="#000000" font-family="sans-serif" font-size="26" lengthAdjust="spacing" textLength="298" x="325" y="1107.4297">inserts the form's name</text><path d="M40,1146.9141 L188,1146.9141 L188,1160.9141 L168,1180.9141 L40,1180.9141 L40,1146.9141 " fill="#EEEEEE" style="stroke:#000000;stroke-width:2.0;"/><rect fill="none" height="386.3477" style="stroke:#000000;stroke-width:4.0;" width="1547" x="40" y="1146.9141"/><text fill="#000000" font-family="sans-serif" font-size="26" font-weight="bold" lengthAdjust="spacing" textLength="58" x="70" y="1174.0508">loop</text><text fill="#000000" font-family="sans-serif" font-size="22" font-weight="bold" lengthAdjust="spacing" textLength="534" x="218" y="1172.1836">[until the user doesn't want to add more forms]</text><polygon fill="#A80036" points="289,1216.1563,269,1224.1563,289,1232.1563,281,1224.1563" style="stroke:#A80036;stroke-width:2.0;"/><line style="stroke:#A80036;stroke-width:2.0;" x1="277" x2="1499" y1="1224.1563" y2="1224.1563"/><text fill="#000000" font-family="sans-serif" font-size="26" font-weight="bold" lengthAdjust="spacing" textLength="36" x="301" y="1214.6719">14</text><text fill="#000000" font-family="sans-serif" font-size="26" lengthAdjust="spacing" textLength="1132" x="345" y="1214.6719">requests the user to insert the attribute's data (name, label, description, regex, scriptPath)</text><polygon fill="#A80036" points="1467,1274.7773,1487,1282.7773,1467,1290.7773,1475,1282.7773" style="stroke:#A80036;stroke-width:2.0;"/><line style="stroke:#A80036;stroke-width:2.0;" x1="267" x2="1479" y1="1282.7773" y2="1282.7773"/><text fill="#000000" font-family="sans-serif" font-size="26" font-weight="bold" lengthAdjust="spacing" textLength="36" x="281" y="1273.293">15</text><text fill="#000000" font-family="sans-serif" font-size="26" lengthAdjust="spacing" textLength="196" x="325" y="1273.293">inserts the data</text><polygon fill="#A80036" points="289,1333.3984,269,1341.3984,289,1349.3984,281,1341.3984" style="stroke:#A80036;stroke-width:2.0;"/><line style="stroke:#A80036;stroke-width:2.0;" x1="277" x2="1499" y1="1341.3984" y2="1341.3984"/><text fill="#000000" font-family="sans-serif" font-size="26" font-weight="bold" lengthAdjust="spacing" textLength="36" x="301" y="1331.9141">16</text><text fill="#000000" font-family="sans-serif" font-size="26" lengthAdjust="spacing" textLength="412" x="345" y="1331.9141">presents the available data types</text><polygon fill="#A80036" points="1467,1392.0195,1487,1400.0195,1467,1408.0195,1475,1400.0195" style="stroke:#A80036;stroke-width:2.0;"/><line style="stroke:#A80036;stroke-width:2.0;" x1="267" x2="1479" y1="1400.0195" y2="1400.0195"/><text fill="#000000" font-family="sans-serif" font-size="26" font-weight="bold" lengthAdjust="spacing" textLength="36" x="281" y="1390.5352">17</text><text fill="#000000" font-family="sans-serif" font-size="26" lengthAdjust="spacing" textLength="274" x="325" y="1390.5352">selects the data types</text><polygon fill="#A80036" points="289,1450.6406,269,1458.6406,289,1466.6406,281,1458.6406" style="stroke:#A80036;stroke-width:2.0;"/><line style="stroke:#A80036;stroke-width:2.0;" x1="277" x2="1499" y1="1458.6406" y2="1458.6406"/><text fill="#000000" font-family="sans-serif" font-size="26" font-weight="bold" lengthAdjust="spacing" textLength="36" x="301" y="1449.1563">18</text><text fill="#000000" font-family="sans-serif" font-size="26" lengthAdjust="spacing" textLength="710" x="345" y="1449.1563">asks if there is more attribute to add to the current form</text><polygon fill="#A80036" points="1467,1509.2617,1487,1517.2617,1467,1525.2617,1475,1517.2617" style="stroke:#A80036;stroke-width:2.0;"/><line style="stroke:#A80036;stroke-width:2.0;" x1="267" x2="1479" y1="1517.2617" y2="1517.2617"/><text fill="#000000" font-family="sans-serif" font-size="26" font-weight="bold" lengthAdjust="spacing" textLength="36" x="281" y="1507.7773">19</text><text fill="#000000" font-family="sans-serif" font-size="26" lengthAdjust="spacing" textLength="116" x="325" y="1507.7773">responds</text><line style="stroke:#000000;stroke-width:2.0;stroke-dasharray:2.0,2.0;" x1="20" x2="1607" y1="1549.2617" y2="1549.2617"/><text fill="#000000" font-family="sans-serif" font-size="22" font-weight="bold" lengthAdjust="spacing" textLength="520" x="30" y="1570.5313">[if the user pretends to add an automatic task]</text><polygon fill="#A80036" points="289,1611.793,269,1619.793,289,1627.793,281,1619.793" style="stroke:#A80036;stroke-width:2.0;"/><line style="stroke:#A80036;stroke-width:2.0;" x1="277" x2="1499" y1="1619.793" y2="1619.793"/><text fill="#000000" font-family="sans-serif" font-size="26" font-weight="bold" lengthAdjust="spacing" textLength="36" x="301" y="1610.3086">20</text><text fill="#000000" font-family="sans-serif" font-size="26" lengthAdjust="spacing" textLength="626" x="345" y="1610.3086">requests the user to insert the task's script's path</text><polygon fill="#A80036" points="1467,1670.4141,1487,1678.4141,1467,1686.4141,1475,1678.4141" style="stroke:#A80036;stroke-width:2.0;"/><line style="stroke:#A80036;stroke-width:2.0;" x1="267" x2="1479" y1="1678.4141" y2="1678.4141"/><text fill="#000000" font-family="sans-serif" font-size="26" font-weight="bold" lengthAdjust="spacing" textLength="36" x="281" y="1668.9297">21</text><text fill="#000000" font-family="sans-serif" font-size="26" lengthAdjust="spacing" textLength="380" x="325" y="1668.9297">inserts the task's script's path</text><polygon fill="#A80036" points="289,1773.6563,269,1781.6563,289,1789.6563,281,1781.6563" style="stroke:#A80036;stroke-width:2.0;"/><line style="stroke:#A80036;stroke-width:2.0;" x1="277" x2="1499" y1="1781.6563" y2="1781.6563"/><text fill="#000000" font-family="sans-serif" font-size="26" font-weight="bold" lengthAdjust="spacing" textLength="36" x="301" y="1756.8613">22</text><text fill="#000000" font-family="sans-serif" font-size="26" lengthAdjust="spacing" textLength="382" x="345" y="1741.5508">validates, presents the current</text><text fill="#000000" font-family="sans-serif" font-size="26" lengthAdjust="spacing" textLength="630" x="345" y="1772.1719">information in the draft and asks for confirmation</text><polygon fill="#A80036" points="1467,1832.2773,1487,1840.2773,1467,1848.2773,1475,1840.2773" style="stroke:#A80036;stroke-width:2.0;"/><line style="stroke:#A80036;stroke-width:2.0;" x1="267" x2="1479" y1="1840.2773" y2="1840.2773"/><text fill="#000000" font-family="sans-serif" font-size="26" font-weight="bold" lengthAdjust="spacing" textLength="36" x="281" y="1830.793">23</text><text fill="#000000" font-family="sans-serif" font-size="26" lengthAdjust="spacing" textLength="112" x="325" y="1830.793">confirms</text><polygon fill="#A80036" points="279,1921.5195,259,1929.5195,279,1937.5195,271,1929.5195" style="stroke:#A80036;stroke-width:2.0;"/><line style="stroke:#A80036;stroke-width:2.0;" x1="267" x2="1499" y1="1929.5195" y2="1929.5195"/><text fill="#000000" font-family="sans-serif" font-size="26" font-weight="bold" lengthAdjust="spacing" textLength="36" x="291" y="1904.7246">24</text><text fill="#000000" font-family="sans-serif" font-size="26" lengthAdjust="spacing" textLength="458" x="335" y="1889.4141">registers the draft in the persistence</text><text fill="#000000" font-family="sans-serif" font-size="26" lengthAdjust="spacing" textLength="552" x="343" y="1920.0352">and informs of the success of the operation</text><!--MD5=[1edd308f687b5660352b91de16b96072]
@startuml
autonumber
hide footbox

actor "Help Desk Services Manager" as HSM
participant "System" as SYST

activate HSM

HSM -> SYST : initiates the request to add/update tasks in a service draft
activate SYST

SYST -> HSM : asks if the user pretends to use an existing draft
deactivate SYST

HSM -> SYST : responds
activate SYST

alt if the user pretends to use an existing draft

SYST -> HSM : presents the draft list and asks the user to choose a draft
deactivate SYST

HSM -> SYST : chooses a draft
activate SYST
end

alt if the user wants to add an approval task to the draft
SYST -> HSM : requests the user to insert the approval task's description
deactivate SYST

HSM -> SYST : inserts the task's description
activate SYST
end

SYST -> HSM : requests the user to insert the resolution task's description
deactivate SYST

HSM -> SYST : inserts the resolution task's description
activate SYST

SYST -> HSM : requests the user to insert the resolution task's type
deactivate SYST

HSM -> SYST : inserts the resolution task's type
activate SYST

alt if the user pretends to add a manual task
SYST -> HSM : requests the user to insert the form's name
deactivate SYST

HSM -> SYST : inserts the form's name
activate SYST

loop until the user doesn't want to add more forms
SYST -> HSM : requests the user to insert the attribute's data (name, label, description, regex, scriptPath)
deactivate SYST

HSM -> SYST : inserts the data
activate SYST

SYST -> HSM : presents the available data types
deactivate SYST

HSM -> SYST : selects the data types
activate SYST

SYST -> HSM : asks if there is more attribute to add to the current form
deactivate SYST

HSM -> SYST : responds
activate SYST
end

else if the user pretends to add an automatic task
SYST -> HSM : requests the user to insert the task's script's path
deactivate SYST

HSM -> SYST : inserts the task's script's path
activate SYST
end
SYST -> HSM : validates, presents the current \ninformation in the draft and asks for confirmation
deactivate SYST

HSM -> SYST : confirms
activate SYST

SYST -> HSM : registers the draft in the persistence\n and informs of the success of the operation
deactivate SYST
deactivate HSM

@enduml

PlantUML version 1.2021.00(Sun Jan 10 10:25:05 WET 2021)
(GPL source distribution)
Java Runtime: OpenJDK Runtime Environment
JVM: OpenJDK 64-Bit Server VM
Default Encoding: UTF-8
Language: en
Country: PT
--></g></svg>