<?xml version="1.0" encoding="UTF-8" standalone="no"?><svg xmlns="http://www.w3.org/2000/svg" xmlns:xlink="http://www.w3.org/1999/xlink" contentScriptType="application/ecmascript" contentStyleType="text/css" height="1775px" preserveAspectRatio="none" style="width:2882px;height:1775px;" version="1.1" viewBox="0 0 2882 1775" width="2882.5px" zoomAndPan="magnify"><defs><filter height="300%" id="fnktzeul1u6ww" width="300%" x="-1" y="-1"><feGaussianBlur result="blurOut" stdDeviation="2.5"/><feColorMatrix in="blurOut" result="blurOut2" type="matrix" values="0 0 0 0 0 0 0 0 0 0 0 0 0 0 0 0 0 0 .4 0"/><feOffset dx="5.0" dy="5.0" in="blurOut2" result="blurOut3"/><feBlend in="SourceGraphic" in2="blurOut3" mode="normal"/></filter></defs><g><rect fill="#FFFFFF" filter="url(#fnktzeul1u6ww)" height="1631.6406" style="stroke:#A80036;stroke-width:1.25;" width="12.5" x="153.125" y="124.5117"/><rect fill="#FFFFFF" filter="url(#fnktzeul1u6ww)" height="1603.7012" style="stroke:#A80036;stroke-width:1.25;" width="12.5" x="646.875" y="152.4512"/><rect fill="#FFFFFF" filter="url(#fnktzeul1u6ww)" height="164.9023" style="stroke:#A80036;stroke-width:1.25;" width="12.5" x="1115.625" y="202.8906"/><rect fill="#FFFFFF" filter="url(#fnktzeul1u6ww)" height="151.7578" style="stroke:#A80036;stroke-width:1.25;" width="12.5" x="1115.625" y="405.7324"/><rect fill="#FFFFFF" filter="url(#fnktzeul1u6ww)" height="151.7578" style="stroke:#A80036;stroke-width:1.25;" width="12.5" x="1115.625" y="747.1875"/><rect fill="#FFFFFF" filter="url(#fnktzeul1u6ww)" height="577.8809" style="stroke:#A80036;stroke-width:1.25;" width="12.5" x="1115.625" y="1129.082"/><rect fill="#FFFFFF" filter="url(#fnktzeul1u6ww)" height="37.5" style="stroke:#A80036;stroke-width:1.25;" width="12.5" x="1414.375" y="330.293"/><rect fill="#FFFFFF" filter="url(#fnktzeul1u6ww)" height="37.9395" style="stroke:#A80036;stroke-width:1.25;" width="12.5" x="1796.25" y="481.6113"/><rect fill="#FFFFFF" filter="url(#fnktzeul1u6ww)" height="37.9395" style="stroke:#A80036;stroke-width:1.25;" width="12.5" x="2008.125" y="823.0664"/><rect fill="#FFFFFF" filter="url(#fnktzeul1u6ww)" height="307.9102" style="stroke:#A80036;stroke-width:1.25;" width="12.5" x="2176.875" y="1285.2344"/><rect fill="#FFFFFF" filter="url(#fnktzeul1u6ww)" height="67.7734" style="stroke:#A80036;stroke-width:1.25;" width="12.5" x="2665.625" y="1487.4316"/><rect fill="#FFFFFF" filter="url(#fnktzeul1u6ww)" height="37.9395" style="stroke:#A80036;stroke-width:1.25;" width="12.5" x="2806.875" y="1631.084"/><rect fill="#FFFFFF" filter="url(#fnktzeul1u6ww)" height="174.6973" style="stroke:#000000;stroke-width:2.5;" width="733.75" x="12.5" y="917.6953"/><line style="stroke:#A80036;stroke-width:1.25;stroke-dasharray:5.0,5.0;" x1="158.75" x2="158.75" y1="112.0117" y2="1767.4023"/><line style="stroke:#A80036;stroke-width:1.25;stroke-dasharray:5.0,5.0;" x1="652.5" x2="652.5" y1="112.0117" y2="1767.4023"/><line style="stroke:#A80036;stroke-width:1.25;stroke-dasharray:5.0,5.0;" x1="1121.875" x2="1121.875" y1="215.0879" y2="1767.4023"/><line style="stroke:#A80036;stroke-width:1.25;stroke-dasharray:5.0,5.0;" x1="1420.625" x2="1420.625" y1="112.0117" y2="1767.4023"/><line style="stroke:#A80036;stroke-width:1.25;stroke-dasharray:5.0,5.0;" x1="1593.125" x2="1593.125" y1="112.0117" y2="1767.4023"/><line style="stroke:#A80036;stroke-width:1.25;stroke-dasharray:5.0,5.0;" x1="1801.875" x2="1801.875" y1="112.0117" y2="1767.4023"/><line style="stroke:#A80036;stroke-width:1.25;stroke-dasharray:5.0,5.0;" x1="2014.375" x2="2014.375" y1="112.0117" y2="1767.4023"/><line style="stroke:#A80036;stroke-width:1.25;stroke-dasharray:5.0,5.0;" x1="2183.125" x2="2183.125" y1="1229.6582" y2="1767.4023"/><line style="stroke:#A80036;stroke-width:1.25;stroke-dasharray:5.0,5.0;" x1="2671.875" x2="2671.875" y1="1499.6289" y2="1767.4023"/><line style="stroke:#A80036;stroke-width:1.25;stroke-dasharray:5.0,5.0;" x1="2813.125" x2="2813.125" y1="112.0117" y2="1767.4023"/><text fill="#000000" font-family="sans-serif" font-size="17.5" lengthAdjust="spacing" textLength="261.25" x="25" y="108.1665">Human Resource Representative</text><ellipse cx="159.375" cy="18.75" fill="#FEFECE" filter="url(#fnktzeul1u6ww)" rx="10" ry="10" style="stroke:#A80036;stroke-width:2.5;"/><path d="M159.375,28.75 L159.375,62.5 M143.125,38.75 L175.625,38.75 M159.375,62.5 L143.125,81.25 M159.375,62.5 L175.625,81.25 " fill="none" filter="url(#fnktzeul1u6ww)" style="stroke:#A80036;stroke-width:2.5;"/><rect fill="#FEFECE" filter="url(#fnktzeul1u6ww)" height="61.5234" style="stroke:#A80036;stroke-width:1.875;" width="156.25" x="572.5" y="44.2383"/><text fill="#000000" font-family="sans-serif" font-size="17.5" lengthAdjust="spacing" textLength="138.75" x="581.25" y="71.1548">&lt;&lt;presentation&gt;&gt;</text><text fill="#000000" font-family="sans-serif" font-size="17.5" lengthAdjust="spacing" textLength="120" x="590.625" y="93.1665">TeamCreatorUI</text><rect fill="#FEFECE" filter="url(#fnktzeul1u6ww)" height="61.5234" style="stroke:#A80036;stroke-width:1.875;" width="132.5" x="1351.875" y="44.2383"/><text fill="#000000" font-family="sans-serif" font-size="17.5" lengthAdjust="spacing" textLength="115" x="1360.625" y="71.1548">&lt;&lt;aplication&gt;&gt;</text><text fill="#000000" font-family="sans-serif" font-size="17.5" lengthAdjust="spacing" textLength="108.75" x="1363.75" y="93.1665">AuthzRegistry</text><rect fill="#FEFECE" filter="url(#fnktzeul1u6ww)" height="61.5234" style="stroke:#A80036;stroke-width:1.875;" width="178.75" x="1501.875" y="44.2383"/><text fill="#000000" font-family="sans-serif" font-size="17.5" lengthAdjust="spacing" textLength="115" x="1533.75" y="71.1548">&lt;&lt;aplication&gt;&gt;</text><text fill="#000000" font-family="sans-serif" font-size="17.5" lengthAdjust="spacing" textLength="161.25" x="1510.625" y="93.1665">AuthorizationService</text><rect fill="#FEFECE" filter="url(#fnktzeul1u6ww)" height="61.5234" style="stroke:#A80036;stroke-width:1.875;" width="203.75" x="1698.125" y="44.2383"/><text fill="#000000" font-family="sans-serif" font-size="17.5" lengthAdjust="spacing" textLength="97.5" x="1751.25" y="71.1548">&lt;&lt;domain&gt;&gt;</text><text fill="#000000" font-family="sans-serif" font-size="17.5" lengthAdjust="spacing" textLength="186.25" x="1706.875" y="93.1665">teamTypes:TeamTypes</text><text fill="#000000" font-family="sans-serif" font-size="17.5" lengthAdjust="spacing" textLength="118.75" x="1951.25" y="86.1548">&lt;&lt;repository&gt;&gt;</text><text fill="#000000" font-family="sans-serif" font-size="17.5" lengthAdjust="spacing" textLength="182.5" x="1919.375" y="108.1665">CollaboratorRepository</text><path d="M1991.875,22.9883 C1991.875,10.4883 2014.375,10.4883 2014.375,10.4883 C2014.375,10.4883 2036.875,10.4883 2036.875,22.9883 L2036.875,55.4883 C2036.875,67.9883 2014.375,67.9883 2014.375,67.9883 C2014.375,67.9883 1991.875,67.9883 1991.875,55.4883 L1991.875,22.9883 " fill="#FEFECE" filter="url(#fnktzeul1u6ww)" style="stroke:#000000;stroke-width:1.875;"/><path d="M1991.875,22.9883 C1991.875,35.4883 2014.375,35.4883 2014.375,35.4883 C2014.375,35.4883 2036.875,35.4883 2036.875,22.9883 " fill="none" style="stroke:#000000;stroke-width:1.875;"/><text fill="#000000" font-family="sans-serif" font-size="17.5" lengthAdjust="spacing" textLength="118.75" x="2750" y="86.1548">&lt;&lt;repository&gt;&gt;</text><text fill="#000000" font-family="sans-serif" font-size="17.5" lengthAdjust="spacing" textLength="130" x="2744.375" y="108.1665">TeamRepository</text><path d="M2790.625,22.9883 C2790.625,10.4883 2813.125,10.4883 2813.125,10.4883 C2813.125,10.4883 2835.625,10.4883 2835.625,22.9883 L2835.625,55.4883 C2835.625,67.9883 2813.125,67.9883 2813.125,67.9883 C2813.125,67.9883 2790.625,67.9883 2790.625,55.4883 L2790.625,22.9883 " fill="#FEFECE" filter="url(#fnktzeul1u6ww)" style="stroke:#000000;stroke-width:1.875;"/><path d="M2790.625,22.9883 C2790.625,35.4883 2813.125,35.4883 2813.125,35.4883 C2813.125,35.4883 2835.625,35.4883 2835.625,22.9883 " fill="none" style="stroke:#000000;stroke-width:1.875;"/><rect fill="#FFFFFF" filter="url(#fnktzeul1u6ww)" height="1631.6406" style="stroke:#A80036;stroke-width:1.25;" width="12.5" x="153.125" y="124.5117"/><rect fill="#FFFFFF" filter="url(#fnktzeul1u6ww)" height="1603.7012" style="stroke:#A80036;stroke-width:1.25;" width="12.5" x="646.875" y="152.4512"/><rect fill="#FFFFFF" filter="url(#fnktzeul1u6ww)" height="164.9023" style="stroke:#A80036;stroke-width:1.25;" width="12.5" x="1115.625" y="202.8906"/><rect fill="#FFFFFF" filter="url(#fnktzeul1u6ww)" height="151.7578" style="stroke:#A80036;stroke-width:1.25;" width="12.5" x="1115.625" y="405.7324"/><rect fill="#FFFFFF" filter="url(#fnktzeul1u6ww)" height="151.7578" style="stroke:#A80036;stroke-width:1.25;" width="12.5" x="1115.625" y="747.1875"/><rect fill="#FFFFFF" filter="url(#fnktzeul1u6ww)" height="577.8809" style="stroke:#A80036;stroke-width:1.25;" width="12.5" x="1115.625" y="1129.082"/><rect fill="#FFFFFF" filter="url(#fnktzeul1u6ww)" height="37.5" style="stroke:#A80036;stroke-width:1.25;" width="12.5" x="1414.375" y="330.293"/><rect fill="#FFFFFF" filter="url(#fnktzeul1u6ww)" height="37.9395" style="stroke:#A80036;stroke-width:1.25;" width="12.5" x="1796.25" y="481.6113"/><rect fill="#FFFFFF" filter="url(#fnktzeul1u6ww)" height="37.9395" style="stroke:#A80036;stroke-width:1.25;" width="12.5" x="2008.125" y="823.0664"/><rect fill="#FFFFFF" filter="url(#fnktzeul1u6ww)" height="307.9102" style="stroke:#A80036;stroke-width:1.25;" width="12.5" x="2176.875" y="1285.2344"/><rect fill="#FFFFFF" filter="url(#fnktzeul1u6ww)" height="67.7734" style="stroke:#A80036;stroke-width:1.25;" width="12.5" x="2665.625" y="1487.4316"/><rect fill="#FFFFFF" filter="url(#fnktzeul1u6ww)" height="37.9395" style="stroke:#A80036;stroke-width:1.25;" width="12.5" x="2806.875" y="1631.084"/><polygon fill="#A80036" points="631.875,147.4512,644.375,152.4512,631.875,157.4512,636.875,152.4512" style="stroke:#A80036;stroke-width:1.25;"/><line style="stroke:#A80036;stroke-width:1.25;" x1="165.625" x2="639.375" y1="152.4512" y2="152.4512"/><text fill="#000000" font-family="sans-serif" font-size="16.25" font-weight="bold" lengthAdjust="spacing" textLength="8.75" x="174.375" y="146.3806">1</text><text fill="#000000" font-family="sans-serif" font-size="16.25" lengthAdjust="spacing" textLength="270" x="188.125" y="146.3806">Initiates the request to create a Team</text><polygon fill="#A80036" points="1004.375,185.3906,1016.875,190.3906,1004.375,195.3906,1009.375,190.3906" style="stroke:#A80036;stroke-width:1.25;"/><line style="stroke:#A80036;stroke-width:1.25;" x1="659.375" x2="1011.875" y1="190.3906" y2="190.3906"/><text fill="#000000" font-family="sans-serif" font-size="16.25" font-weight="bold" lengthAdjust="spacing" textLength="8.75" x="668.125" y="184.3201">2</text><text fill="#000000" font-family="sans-serif" font-size="16.25" lengthAdjust="spacing" textLength="55" x="681.875" y="184.3201">create()</text><rect fill="#FEFECE" filter="url(#fnktzeul1u6ww)" height="61.5234" style="stroke:#A80036;stroke-width:1.875;" width="200" x="1019.375" y="162.4512"/><text fill="#000000" font-family="sans-serif" font-size="17.5" lengthAdjust="spacing" textLength="115" x="1061.875" y="189.3677">&lt;&lt;aplication&gt;&gt;</text><text fill="#000000" font-family="sans-serif" font-size="17.5" lengthAdjust="spacing" textLength="182.5" x="1028.125" y="211.3794">TeamCreatorController</text><rect fill="#FFFFFF" filter="url(#fnktzeul1u6ww)" height="53.3789" style="stroke:#000000;stroke-width:2.5;" width="207.5" x="1015.625" y="242.7246"/><polygon fill="#EEEEEE" points="1015.625,242.7246,1093.125,242.7246,1093.125,252.7246,1080.625,265.2246,1015.625,265.2246,1015.625,242.7246" style="stroke:#000000;stroke-width:2.5;"/><text fill="#000000" font-family="sans-serif" font-size="16.25" font-weight="bold" lengthAdjust="spacing" textLength="21.25" x="1031.875" y="262.0935">ref</text><text fill="#000000" font-family="sans-serif" font-size="16.25" lengthAdjust="spacing" textLength="153.75" x="1045" y="287.0935">US-1-2052_SD_Repo</text><polygon fill="#A80036" points="1399.375,325.293,1411.875,330.293,1399.375,335.293,1404.375,330.293" style="stroke:#A80036;stroke-width:1.25;"/><line style="stroke:#A80036;stroke-width:1.25;" x1="1128.125" x2="1406.875" y1="330.293" y2="330.293"/><text fill="#000000" font-family="sans-serif" font-size="16.25" font-weight="bold" lengthAdjust="spacing" textLength="8.75" x="1136.875" y="324.2224">3</text><text fill="#000000" font-family="sans-serif" font-size="16.25" lengthAdjust="spacing" textLength="248.75" x="1150.625" y="324.2224">m_oAuthz = authorizationService()</text><polygon fill="#A80036" points="1100.625,400.7324,1113.125,405.7324,1100.625,410.7324,1105.625,405.7324" style="stroke:#A80036;stroke-width:1.25;"/><line style="stroke:#A80036;stroke-width:1.25;" x1="659.375" x2="1108.125" y1="405.7324" y2="405.7324"/><text fill="#000000" font-family="sans-serif" font-size="16.25" font-weight="bold" lengthAdjust="spacing" textLength="8.75" x="668.125" y="399.6619">4</text><text fill="#000000" font-family="sans-serif" font-size="16.25" lengthAdjust="spacing" textLength="116.25" x="681.875" y="399.6619">getTeamTypes()</text><polygon fill="#A80036" points="1578.75,438.6719,1591.25,443.6719,1578.75,448.6719,1583.75,443.6719" style="stroke:#A80036;stroke-width:1.25;"/><line style="stroke:#A80036;stroke-width:1.25;" x1="1128.125" x2="1586.25" y1="443.6719" y2="443.6719"/><text fill="#000000" font-family="sans-serif" font-size="16.25" font-weight="bold" lengthAdjust="spacing" textLength="8.75" x="1136.875" y="437.6013">5</text><text fill="#000000" font-family="sans-serif" font-size="16.25" lengthAdjust="spacing" textLength="328.75" x="1150.625" y="437.6013">ensureAuthenticatedUserHasAnyOf(role, role)</text><polygon fill="#A80036" points="1781.25,476.6113,1793.75,481.6113,1781.25,486.6113,1786.25,481.6113" style="stroke:#A80036;stroke-width:1.25;"/><line style="stroke:#A80036;stroke-width:1.25;" x1="1128.125" x2="1788.75" y1="481.6113" y2="481.6113"/><text fill="#000000" font-family="sans-serif" font-size="16.25" font-weight="bold" lengthAdjust="spacing" textLength="8.75" x="1136.875" y="475.5408">6</text><text fill="#000000" font-family="sans-serif" font-size="16.25" lengthAdjust="spacing" textLength="55" x="1150.625" y="475.5408">values()</text><polygon fill="#A80036" points="1141.875,514.5508,1129.375,519.5508,1141.875,524.5508,1136.875,519.5508" style="stroke:#A80036;stroke-width:1.25;"/><line style="stroke:#A80036;stroke-width:1.25;stroke-dasharray:2.0,2.0;" x1="1134.375" x2="1801.25" y1="519.5508" y2="519.5508"/><text fill="#000000" font-family="sans-serif" font-size="16.25" font-weight="bold" lengthAdjust="spacing" textLength="8.75" x="1149.375" y="513.4802">7</text><text fill="#000000" font-family="sans-serif" font-size="16.25" lengthAdjust="spacing" textLength="80" x="1163.125" y="513.4802">teamTypes</text><polygon fill="#A80036" points="673.125,552.4902,660.625,557.4902,673.125,562.4902,668.125,557.4902" style="stroke:#A80036;stroke-width:1.25;"/><line style="stroke:#A80036;stroke-width:1.25;stroke-dasharray:2.0,2.0;" x1="665.625" x2="1120.625" y1="557.4902" y2="557.4902"/><text fill="#000000" font-family="sans-serif" font-size="16.25" font-weight="bold" lengthAdjust="spacing" textLength="8.75" x="680.625" y="551.4197">8</text><text fill="#000000" font-family="sans-serif" font-size="16.25" lengthAdjust="spacing" textLength="80" x="694.375" y="551.4197">teamTypes</text><polygon fill="#A80036" points="179.375,590.4297,166.875,595.4297,179.375,600.4297,174.375,595.4297" style="stroke:#A80036;stroke-width:1.25;"/><line style="stroke:#A80036;stroke-width:1.25;stroke-dasharray:2.0,2.0;" x1="171.875" x2="645.625" y1="595.4297" y2="595.4297"/><text fill="#000000" font-family="sans-serif" font-size="16.25" font-weight="bold" lengthAdjust="spacing" textLength="8.75" x="186.875" y="589.3591">9</text><text fill="#000000" font-family="sans-serif" font-size="16.25" lengthAdjust="spacing" textLength="255" x="200.625" y="589.3591">Displays the existing type of teams</text><polygon fill="#A80036" points="631.875,628.3691,644.375,633.3691,631.875,638.3691,636.875,633.3691" style="stroke:#A80036;stroke-width:1.25;"/><line style="stroke:#A80036;stroke-width:1.25;" x1="165.625" x2="639.375" y1="633.3691" y2="633.3691"/><text fill="#000000" font-family="sans-serif" font-size="16.25" font-weight="bold" lengthAdjust="spacing" textLength="17.5" x="174.375" y="627.2986">10</text><text fill="#000000" font-family="sans-serif" font-size="16.25" lengthAdjust="spacing" textLength="180" x="196.875" y="627.2986">Select's the type of team</text><polygon fill="#A80036" points="179.375,666.3086,166.875,671.3086,179.375,676.3086,174.375,671.3086" style="stroke:#A80036;stroke-width:1.25;"/><line style="stroke:#A80036;stroke-width:1.25;stroke-dasharray:2.0,2.0;" x1="171.875" x2="645.625" y1="671.3086" y2="671.3086"/><text fill="#000000" font-family="sans-serif" font-size="16.25" font-weight="bold" lengthAdjust="spacing" textLength="17.5" x="186.875" y="665.238">11</text><text fill="#000000" font-family="sans-serif" font-size="16.25" lengthAdjust="spacing" textLength="428.75" x="209.375" y="665.238">Requests all information needed (i.e. acronym, designation)</text><polygon fill="#A80036" points="631.875,704.248,644.375,709.248,631.875,714.248,636.875,709.248" style="stroke:#A80036;stroke-width:1.25;"/><line style="stroke:#A80036;stroke-width:1.25;" x1="165.625" x2="639.375" y1="709.248" y2="709.248"/><text fill="#000000" font-family="sans-serif" font-size="16.25" font-weight="bold" lengthAdjust="spacing" textLength="17.5" x="174.375" y="703.1775">12</text><text fill="#000000" font-family="sans-serif" font-size="16.25" lengthAdjust="spacing" textLength="236.25" x="196.875" y="703.1775">Inserts the requested information</text><polygon fill="#A80036" points="1100.625,742.1875,1113.125,747.1875,1100.625,752.1875,1105.625,747.1875" style="stroke:#A80036;stroke-width:1.25;"/><line style="stroke:#A80036;stroke-width:1.25;" x1="659.375" x2="1108.125" y1="747.1875" y2="747.1875"/><text fill="#000000" font-family="sans-serif" font-size="16.25" font-weight="bold" lengthAdjust="spacing" textLength="17.5" x="668.125" y="741.1169">13</text><text fill="#000000" font-family="sans-serif" font-size="16.25" lengthAdjust="spacing" textLength="127.5" x="690.625" y="741.1169">getCollaborators()</text><polygon fill="#A80036" points="1578.75,780.127,1591.25,785.127,1578.75,790.127,1583.75,785.127" style="stroke:#A80036;stroke-width:1.25;"/><line style="stroke:#A80036;stroke-width:1.25;" x1="1128.125" x2="1586.25" y1="785.127" y2="785.127"/><text fill="#000000" font-family="sans-serif" font-size="16.25" font-weight="bold" lengthAdjust="spacing" textLength="17.5" x="1136.875" y="779.0564">14</text><text fill="#000000" font-family="sans-serif" font-size="16.25" lengthAdjust="spacing" textLength="328.75" x="1159.375" y="779.0564">ensureAuthenticatedUserHasAnyOf(role, role)</text><polygon fill="#A80036" points="1993.125,818.0664,2005.625,823.0664,1993.125,828.0664,1998.125,823.0664" style="stroke:#A80036;stroke-width:1.25;"/><line style="stroke:#A80036;stroke-width:1.25;" x1="1128.125" x2="2000.625" y1="823.0664" y2="823.0664"/><text fill="#000000" font-family="sans-serif" font-size="16.25" font-weight="bold" lengthAdjust="spacing" textLength="17.5" x="1136.875" y="816.9958">15</text><text fill="#000000" font-family="sans-serif" font-size="16.25" lengthAdjust="spacing" textLength="26.25" x="1159.375" y="816.9958">all()</text><polygon fill="#A80036" points="1141.875,856.0059,1129.375,861.0059,1141.875,866.0059,1136.875,861.0059" style="stroke:#A80036;stroke-width:1.25;"/><line style="stroke:#A80036;stroke-width:1.25;stroke-dasharray:2.0,2.0;" x1="1134.375" x2="2013.125" y1="861.0059" y2="861.0059"/><text fill="#000000" font-family="sans-serif" font-size="16.25" font-weight="bold" lengthAdjust="spacing" textLength="17.5" x="1149.375" y="854.9353">16</text><text fill="#000000" font-family="sans-serif" font-size="16.25" lengthAdjust="spacing" textLength="68.75" x="1171.875" y="854.9353">collabList</text><polygon fill="#A80036" points="673.125,893.9453,660.625,898.9453,673.125,903.9453,668.125,898.9453" style="stroke:#A80036;stroke-width:1.25;"/><line style="stroke:#A80036;stroke-width:1.25;stroke-dasharray:2.0,2.0;" x1="665.625" x2="1120.625" y1="898.9453" y2="898.9453"/><text fill="#000000" font-family="sans-serif" font-size="16.25" font-weight="bold" lengthAdjust="spacing" textLength="17.5" x="680.625" y="892.8748">17</text><text fill="#000000" font-family="sans-serif" font-size="16.25" lengthAdjust="spacing" textLength="68.75" x="703.125" y="892.8748">collabList</text><path d="M12.5,917.6953 L103.75,917.6953 L103.75,927.6953 L91.25,940.1953 L12.5,940.1953 L12.5,917.6953 " fill="#EEEEEE" style="stroke:#000000;stroke-width:1.25;"/><rect fill="none" height="174.6973" style="stroke:#000000;stroke-width:2.5;" width="733.75" x="12.5" y="917.6953"/><text fill="#000000" font-family="sans-serif" font-size="16.25" font-weight="bold" lengthAdjust="spacing" textLength="35" x="31.25" y="935.8142">loop</text><text fill="#000000" font-family="sans-serif" font-size="13.75" font-weight="bold" lengthAdjust="spacing" textLength="148.75" x="122.5" y="934.469">[until user command]</text><polygon fill="#A80036" points="179.375,963.5742,166.875,968.5742,179.375,973.5742,174.375,968.5742" style="stroke:#A80036;stroke-width:1.25;"/><line style="stroke:#A80036;stroke-width:1.25;stroke-dasharray:2.0,2.0;" x1="171.875" x2="645.625" y1="968.5742" y2="968.5742"/><text fill="#000000" font-family="sans-serif" font-size="16.25" font-weight="bold" lengthAdjust="spacing" textLength="17.5" x="186.875" y="962.5037">18</text><text fill="#000000" font-family="sans-serif" font-size="16.25" lengthAdjust="spacing" textLength="188.75" x="209.375" y="962.5037">Displays collaborator's list</text><polygon fill="#A80036" points="631.875,1001.5137,644.375,1006.5137,631.875,1011.5137,636.875,1006.5137" style="stroke:#A80036;stroke-width:1.25;"/><line style="stroke:#A80036;stroke-width:1.25;" x1="165.625" x2="639.375" y1="1006.5137" y2="1006.5137"/><text fill="#000000" font-family="sans-serif" font-size="16.25" font-weight="bold" lengthAdjust="spacing" textLength="17.5" x="174.375" y="1000.4431">19</text><text fill="#000000" font-family="sans-serif" font-size="16.25" lengthAdjust="spacing" textLength="295" x="196.875" y="1000.4431">Selects the intended team representative</text><polygon fill="#A80036" points="179.375,1039.4531,166.875,1044.4531,179.375,1049.4531,174.375,1044.4531" style="stroke:#A80036;stroke-width:1.25;"/><line style="stroke:#A80036;stroke-width:1.25;stroke-dasharray:2.0,2.0;" x1="171.875" x2="645.625" y1="1044.4531" y2="1044.4531"/><text fill="#000000" font-family="sans-serif" font-size="16.25" font-weight="bold" lengthAdjust="spacing" textLength="17.5" x="186.875" y="1038.3826">20</text><text fill="#000000" font-family="sans-serif" font-size="16.25" lengthAdjust="spacing" textLength="373.75" x="209.375" y="1038.3826">Asks if the user wishes to add more representatives</text><polygon fill="#A80036" points="631.875,1077.3926,644.375,1082.3926,631.875,1087.3926,636.875,1082.3926" style="stroke:#A80036;stroke-width:1.25;"/><line style="stroke:#A80036;stroke-width:1.25;stroke-dasharray:2.0,2.0;" x1="165.625" x2="639.375" y1="1082.3926" y2="1082.3926"/><text fill="#000000" font-family="sans-serif" font-size="16.25" font-weight="bold" lengthAdjust="spacing" textLength="17.5" x="174.375" y="1076.322">21</text><text fill="#000000" font-family="sans-serif" font-size="16.25" lengthAdjust="spacing" textLength="72.5" x="196.875" y="1076.322">Responds</text><polygon fill="#A80036" points="1100.625,1124.082,1113.125,1129.082,1100.625,1134.082,1105.625,1129.082" style="stroke:#A80036;stroke-width:1.25;"/><line style="stroke:#A80036;stroke-width:1.25;" x1="659.375" x2="1108.125" y1="1129.082" y2="1129.082"/><text fill="#000000" font-family="sans-serif" font-size="16.25" font-weight="bold" lengthAdjust="spacing" textLength="17.5" x="668.125" y="1123.0115">22</text><text fill="#000000" font-family="sans-serif" font-size="16.25" lengthAdjust="spacing" textLength="410" x="690.625" y="1123.0115">createTeam(teamType, acronym, designation, collabList)</text><polygon fill="#A80036" points="1578.75,1162.0215,1591.25,1167.0215,1578.75,1172.0215,1583.75,1167.0215" style="stroke:#A80036;stroke-width:1.25;"/><line style="stroke:#A80036;stroke-width:1.25;" x1="1128.125" x2="1586.25" y1="1167.0215" y2="1167.0215"/><text fill="#000000" font-family="sans-serif" font-size="16.25" font-weight="bold" lengthAdjust="spacing" textLength="17.5" x="1136.875" y="1160.9509">23</text><text fill="#000000" font-family="sans-serif" font-size="16.25" lengthAdjust="spacing" textLength="328.75" x="1159.375" y="1160.9509">ensureAuthenticatedUserHasAnyOf(role, role)</text><polygon fill="#A80036" points="2106.875,1199.9609,2119.375,1204.9609,2106.875,1209.9609,2111.875,1204.9609" style="stroke:#A80036;stroke-width:1.25;"/><line style="stroke:#A80036;stroke-width:1.25;" x1="1128.125" x2="2114.375" y1="1204.9609" y2="1204.9609"/><text fill="#000000" font-family="sans-serif" font-size="16.25" font-weight="bold" lengthAdjust="spacing" textLength="17.5" x="1136.875" y="1198.8904">24</text><text fill="#000000" font-family="sans-serif" font-size="16.25" lengthAdjust="spacing" textLength="55" x="1159.375" y="1198.8904">create()</text><rect fill="#FEFECE" filter="url(#fnktzeul1u6ww)" height="61.5234" style="stroke:#A80036;stroke-width:1.875;" width="117.5" x="2121.875" y="1177.0215"/><text fill="#000000" font-family="sans-serif" font-size="17.5" lengthAdjust="spacing" textLength="93.75" x="2133.75" y="1203.938">&lt;&lt;builder&gt;&gt;</text><text fill="#000000" font-family="sans-serif" font-size="17.5" lengthAdjust="spacing" textLength="100" x="2130.625" y="1225.9497">TeamBuilder</text><polygon fill="#A80036" points="2161.875,1280.2344,2174.375,1285.2344,2161.875,1290.2344,2166.875,1285.2344" style="stroke:#A80036;stroke-width:1.25;"/><line style="stroke:#A80036;stroke-width:1.25;" x1="1128.125" x2="2169.375" y1="1285.2344" y2="1285.2344"/><text fill="#000000" font-family="sans-serif" font-size="16.25" font-weight="bold" lengthAdjust="spacing" textLength="17.5" x="1136.875" y="1279.1638">25</text><text fill="#000000" font-family="sans-serif" font-size="16.25" lengthAdjust="spacing" textLength="113.75" x="1159.375" y="1279.1638">withTeamType()</text><polygon fill="#A80036" points="2161.875,1318.1738,2174.375,1323.1738,2161.875,1328.1738,2166.875,1323.1738" style="stroke:#A80036;stroke-width:1.25;"/><line style="stroke:#A80036;stroke-width:1.25;" x1="1128.125" x2="2169.375" y1="1323.1738" y2="1323.1738"/><text fill="#000000" font-family="sans-serif" font-size="16.25" font-weight="bold" lengthAdjust="spacing" textLength="17.5" x="1136.875" y="1317.1033">26</text><text fill="#000000" font-family="sans-serif" font-size="16.25" lengthAdjust="spacing" textLength="153.75" x="1159.375" y="1317.1033">withRepresentatives()</text><polygon fill="#A80036" points="2161.875,1356.1133,2174.375,1361.1133,2161.875,1366.1133,2166.875,1361.1133" style="stroke:#A80036;stroke-width:1.25;"/><line style="stroke:#A80036;stroke-width:1.25;" x1="1128.125" x2="2169.375" y1="1361.1133" y2="1361.1133"/><text fill="#000000" font-family="sans-serif" font-size="16.25" font-weight="bold" lengthAdjust="spacing" textLength="17.5" x="1136.875" y="1355.0427">27</text><text fill="#000000" font-family="sans-serif" font-size="16.25" lengthAdjust="spacing" textLength="103.75" x="1159.375" y="1355.0427">withAcronym()</text><polygon fill="#A80036" points="2161.875,1394.0527,2174.375,1399.0527,2161.875,1404.0527,2166.875,1399.0527" style="stroke:#A80036;stroke-width:1.25;"/><line style="stroke:#A80036;stroke-width:1.25;" x1="1128.125" x2="2169.375" y1="1399.0527" y2="1399.0527"/><text fill="#000000" font-family="sans-serif" font-size="16.25" font-weight="bold" lengthAdjust="spacing" textLength="17.5" x="1136.875" y="1392.9822">28</text><text fill="#000000" font-family="sans-serif" font-size="16.25" lengthAdjust="spacing" textLength="123.75" x="1159.375" y="1392.9822">withDesignation()</text><polygon fill="#A80036" points="2161.875,1431.9922,2174.375,1436.9922,2161.875,1441.9922,2166.875,1436.9922" style="stroke:#A80036;stroke-width:1.25;"/><line style="stroke:#A80036;stroke-width:1.25;" x1="1128.125" x2="2169.375" y1="1436.9922" y2="1436.9922"/><text fill="#000000" font-family="sans-serif" font-size="16.25" font-weight="bold" lengthAdjust="spacing" textLength="17.5" x="1136.875" y="1430.9216">29</text><text fill="#000000" font-family="sans-serif" font-size="16.25" lengthAdjust="spacing" textLength="43.75" x="1159.375" y="1430.9216">build()</text><polygon fill="#A80036" points="2596.875,1469.9316,2609.375,1474.9316,2596.875,1479.9316,2601.875,1474.9316" style="stroke:#A80036;stroke-width:1.25;"/><line style="stroke:#A80036;stroke-width:1.25;" x1="2189.375" x2="2604.375" y1="1474.9316" y2="1474.9316"/><text fill="#000000" font-family="sans-serif" font-size="16.25" font-weight="bold" lengthAdjust="spacing" textLength="17.5" x="2198.125" y="1468.8611">30</text><text fill="#000000" font-family="sans-serif" font-size="16.25" lengthAdjust="spacing" textLength="370" x="2220.625" y="1468.8611">create(teamType, acronym, designation, collabList)</text><rect fill="#FEFECE" filter="url(#fnktzeul1u6ww)" height="61.5234" style="stroke:#A80036;stroke-width:1.875;" width="115" x="2611.875" y="1446.9922"/><text fill="#000000" font-family="sans-serif" font-size="17.5" lengthAdjust="spacing" textLength="97.5" x="2620.625" y="1473.9087">&lt;&lt;domain&gt;&gt;</text><text fill="#000000" font-family="sans-serif" font-size="17.5" lengthAdjust="spacing" textLength="45" x="2646.875" y="1495.9204">Team</text><polygon fill="#A80036" points="2203.125,1550.2051,2190.625,1555.2051,2203.125,1560.2051,2198.125,1555.2051" style="stroke:#A80036;stroke-width:1.25;"/><line style="stroke:#A80036;stroke-width:1.25;stroke-dasharray:2.0,2.0;" x1="2195.625" x2="2670.625" y1="1555.2051" y2="1555.2051"/><text fill="#000000" font-family="sans-serif" font-size="16.25" font-weight="bold" lengthAdjust="spacing" textLength="17.5" x="2210.625" y="1549.1345">31</text><text fill="#000000" font-family="sans-serif" font-size="16.25" lengthAdjust="spacing" textLength="36.25" x="2233.125" y="1549.1345">team</text><polygon fill="#A80036" points="1141.875,1588.1445,1129.375,1593.1445,1141.875,1598.1445,1136.875,1593.1445" style="stroke:#A80036;stroke-width:1.25;"/><line style="stroke:#A80036;stroke-width:1.25;stroke-dasharray:2.0,2.0;" x1="1134.375" x2="2181.875" y1="1593.1445" y2="1593.1445"/><text fill="#000000" font-family="sans-serif" font-size="16.25" font-weight="bold" lengthAdjust="spacing" textLength="17.5" x="1149.375" y="1587.074">32</text><text fill="#000000" font-family="sans-serif" font-size="16.25" lengthAdjust="spacing" textLength="36.25" x="1171.875" y="1587.074">team</text><polygon fill="#A80036" points="2791.875,1626.084,2804.375,1631.084,2791.875,1636.084,2796.875,1631.084" style="stroke:#A80036;stroke-width:1.25;"/><line style="stroke:#A80036;stroke-width:1.25;" x1="1128.125" x2="2799.375" y1="1631.084" y2="1631.084"/><text fill="#000000" font-family="sans-serif" font-size="16.25" font-weight="bold" lengthAdjust="spacing" textLength="17.5" x="1136.875" y="1625.0134">33</text><text fill="#000000" font-family="sans-serif" font-size="16.25" lengthAdjust="spacing" textLength="78.75" x="1159.375" y="1625.0134">save(team)</text><polygon fill="#A80036" points="1141.875,1664.0234,1129.375,1669.0234,1141.875,1674.0234,1136.875,1669.0234" style="stroke:#A80036;stroke-width:1.25;"/><line style="stroke:#A80036;stroke-width:1.25;stroke-dasharray:2.0,2.0;" x1="1134.375" x2="2811.875" y1="1669.0234" y2="1669.0234"/><text fill="#000000" font-family="sans-serif" font-size="16.25" font-weight="bold" lengthAdjust="spacing" textLength="17.5" x="1149.375" y="1662.9529">34</text><text fill="#000000" font-family="sans-serif" font-size="16.25" lengthAdjust="spacing" textLength="36.25" x="1171.875" y="1662.9529">team</text><polygon fill="#A80036" points="673.125,1701.9629,660.625,1706.9629,673.125,1711.9629,668.125,1706.9629" style="stroke:#A80036;stroke-width:1.25;"/><line style="stroke:#A80036;stroke-width:1.25;stroke-dasharray:2.0,2.0;" x1="665.625" x2="1120.625" y1="1706.9629" y2="1706.9629"/><text fill="#000000" font-family="sans-serif" font-size="16.25" font-weight="bold" lengthAdjust="spacing" textLength="17.5" x="680.625" y="1700.8923">35</text><text fill="#000000" font-family="sans-serif" font-size="16.25" lengthAdjust="spacing" textLength="36.25" x="703.125" y="1700.8923">team</text><polygon fill="#A80036" points="179.375,1739.9023,166.875,1744.9023,179.375,1749.9023,174.375,1744.9023" style="stroke:#A80036;stroke-width:1.25;"/><line style="stroke:#A80036;stroke-width:1.25;stroke-dasharray:2.0,2.0;" x1="171.875" x2="645.625" y1="1744.9023" y2="1744.9023"/><text fill="#000000" font-family="sans-serif" font-size="16.25" font-weight="bold" lengthAdjust="spacing" textLength="17.5" x="186.875" y="1738.8318">36</text><text fill="#000000" font-family="sans-serif" font-size="16.25" lengthAdjust="spacing" textLength="280" x="209.375" y="1738.8318">Informs of the success of the operation</text><!--MD5=[6e3b81e05cde65df451160cd31d9e7bc]
@startuml
autonumber
hide footbox

actor "Human Resource Representative" as HRR

participant "<<presentation>>\nTeamCreatorUI" as UI
participant "<<aplication>>\nTeamCreatorController" as CTRL
participant "<<aplication>>\nAuthzRegistry" as AUTHR
participant "<<aplication>>\nAuthorizationService" as AUTH
participant "<<domain>>\nteamTypes:TeamTypes" as TT
database "<<repository>>\nCollaboratorRepository" as CR
participant "<<builder>>\nTeamBuilder" as TB
participant "<<domain>>\nTeam" as TEAM
database "<<repository>>\nTeamRepository" as TR

activate HRR
HRR -> UI : Initiates the request to create a Team

activate UI
UI -> CTRL** : create()

activate CTRL
ref over CTRL
US-1-2052_SD_Repo
end ref

CTRL -> AUTHR : m_oAuthz = authorizationService()
activate AUTHR
deactivate CTRL
deactivate AUTHR

UI -> CTRL : getTeamTypes()

activate CTRL
CTRL -> AUTH : ensureAuthenticatedUserHasAnyOf(role, role)
CTRL -> TT : values()

activate TT
TT - -> CTRL : teamTypes
deactivate TT

CTRL - -> UI : teamTypes
deactivate CTRL

UI - -> HRR : Displays the existing type of teams

HRR -> UI : Select's the type of team

UI - -> HRR : Requests all information needed (i.e. acronym, designation)

HRR -> UI : Inserts the requested information

UI -> CTRL : getCollaborators()

activate CTRL
CTRL -> AUTH : ensureAuthenticatedUserHasAnyOf(role, role)
CTRL -> CR : all()

activate CR
CR - -> CTRL : collabList

deactivate CR
CTRL - -> UI : collabList
deactivate CTRL


loop until user command
UI - -> HRR : Displays collaborator's list

HRR -> UI : Selects the intended team representative

UI - -> HRR : Asks if the user wishes to add more representatives

HRR - -> UI : Responds
end

UI -> CTRL : createTeam(teamType, acronym, designation, collabList)

activate CTRL
CTRL -> AUTH : ensureAuthenticatedUserHasAnyOf(role, role)
CTRL -> TB** : create()
CTRL -> TB : withTeamType()

activate TB

CTRL -> TB : withRepresentatives()
CTRL -> TB : withAcronym()
CTRL -> TB : withDesignation()
CTRL -> TB : build()

TB -> TEAM** : create(teamType, acronym, designation, collabList)

activate TEAM
TEAM - -> TB : team
deactivate TEAM

TB - -> CTRL : team
deactivate TB

CTRL -> TR : save(team)

activate TR
TR - -> CTRL : team
deactivate TR

CTRL - -> UI : team
deactivate CTRL

UI - -> HRR : Informs of the success of the operation







@enduml

PlantUML version 1.2021.5(Sun Apr 25 12:20:28 BST 2021)
(GPL source distribution)
Java Runtime: OpenJDK Runtime Environment
JVM: OpenJDK 64-Bit Server VM
Default Encoding: Cp1252
Language: pt
Country: PT
--></g></svg>