<?xml version="1.0" encoding="UTF-8" standalone="no"?><svg xmlns="http://www.w3.org/2000/svg" xmlns:xlink="http://www.w3.org/1999/xlink" contentScriptType="application/ecmascript" contentStyleType="text/css" height="1775px" preserveAspectRatio="none" style="width:3055px;height:1775px;" version="1.1" viewBox="0 0 3055 1775" width="3055px" zoomAndPan="magnify"><defs><filter height="300%" id="f1h70ijxzkm18k" width="300%" x="-1" y="-1"><feGaussianBlur result="blurOut" stdDeviation="2.5"/><feColorMatrix in="blurOut" result="blurOut2" type="matrix" values="0 0 0 0 0 0 0 0 0 0 0 0 0 0 0 0 0 0 .4 0"/><feOffset dx="5.0" dy="5.0" in="blurOut2" result="blurOut3"/><feBlend in="SourceGraphic" in2="blurOut3" mode="normal"/></filter></defs><g><rect fill="#FFFFFF" filter="url(#f1h70ijxzkm18k)" height="1631.6406" style="stroke:#A80036;stroke-width:1.25;" width="12.5" x="153.125" y="124.5117"/><rect fill="#FFFFFF" filter="url(#f1h70ijxzkm18k)" height="1603.7012" style="stroke:#A80036;stroke-width:1.25;" width="12.5" x="681.875" y="152.4512"/><rect fill="#FFFFFF" filter="url(#f1h70ijxzkm18k)" height="164.9023" style="stroke:#A80036;stroke-width:1.25;" width="12.5" x="1219.375" y="202.8906"/><rect fill="#FFFFFF" filter="url(#f1h70ijxzkm18k)" height="151.7578" style="stroke:#A80036;stroke-width:1.25;" width="12.5" x="1219.375" y="405.7324"/><rect fill="#FFFFFF" filter="url(#f1h70ijxzkm18k)" height="151.7578" style="stroke:#A80036;stroke-width:1.25;" width="12.5" x="1219.375" y="747.1875"/><rect fill="#FFFFFF" filter="url(#f1h70ijxzkm18k)" height="577.8809" style="stroke:#A80036;stroke-width:1.25;" width="12.5" x="1219.375" y="1129.082"/><rect fill="#FFFFFF" filter="url(#f1h70ijxzkm18k)" height="37.5" style="stroke:#A80036;stroke-width:1.25;" width="12.5" x="1518.125" y="330.293"/><rect fill="#FFFFFF" filter="url(#f1h70ijxzkm18k)" height="37.9395" style="stroke:#A80036;stroke-width:1.25;" width="12.5" x="1900" y="481.6113"/><rect fill="#FFFFFF" filter="url(#f1h70ijxzkm18k)" height="37.9395" style="stroke:#A80036;stroke-width:1.25;" width="12.5" x="2111.875" y="823.0664"/><rect fill="#FFFFFF" filter="url(#f1h70ijxzkm18k)" height="307.9102" style="stroke:#A80036;stroke-width:1.25;" width="12.5" x="2280.625" y="1285.2344"/><rect fill="#FFFFFF" filter="url(#f1h70ijxzkm18k)" height="67.7734" style="stroke:#A80036;stroke-width:1.25;" width="12.5" x="2838.125" y="1487.4316"/><rect fill="#FFFFFF" filter="url(#f1h70ijxzkm18k)" height="37.9395" style="stroke:#A80036;stroke-width:1.25;" width="12.5" x="2979.375" y="1631.084"/><rect fill="#FFFFFF" filter="url(#f1h70ijxzkm18k)" height="174.6973" style="stroke:#000000;stroke-width:2.5;" width="768.75" x="12.5" y="917.6953"/><line style="stroke:#A80036;stroke-width:1.25;stroke-dasharray:5.0,5.0;" x1="158.75" x2="158.75" y1="112.0117" y2="1767.4023"/><line style="stroke:#A80036;stroke-width:1.25;stroke-dasharray:5.0,5.0;" x1="687.5" x2="687.5" y1="112.0117" y2="1767.4023"/><line style="stroke:#A80036;stroke-width:1.25;stroke-dasharray:5.0,5.0;" x1="1225.625" x2="1225.625" y1="215.0879" y2="1767.4023"/><line style="stroke:#A80036;stroke-width:1.25;stroke-dasharray:5.0,5.0;" x1="1524.375" x2="1524.375" y1="112.0117" y2="1767.4023"/><line style="stroke:#A80036;stroke-width:1.25;stroke-dasharray:5.0,5.0;" x1="1696.875" x2="1696.875" y1="112.0117" y2="1767.4023"/><line style="stroke:#A80036;stroke-width:1.25;stroke-dasharray:5.0,5.0;" x1="1905.625" x2="1905.625" y1="112.0117" y2="1767.4023"/><line style="stroke:#A80036;stroke-width:1.25;stroke-dasharray:5.0,5.0;" x1="2118.125" x2="2118.125" y1="112.0117" y2="1767.4023"/><line style="stroke:#A80036;stroke-width:1.25;stroke-dasharray:5.0,5.0;" x1="2286.875" x2="2286.875" y1="1229.6582" y2="1767.4023"/><line style="stroke:#A80036;stroke-width:1.25;stroke-dasharray:5.0,5.0;" x1="2844.375" x2="2844.375" y1="1499.6289" y2="1767.4023"/><line style="stroke:#A80036;stroke-width:1.25;stroke-dasharray:5.0,5.0;" x1="2985.625" x2="2985.625" y1="112.0117" y2="1767.4023"/><text fill="#000000" font-family="sans-serif" font-size="17.5" lengthAdjust="spacing" textLength="261.25" x="25" y="108.1665">Human Resource Representative</text><ellipse cx="159.375" cy="18.75" fill="#FEFECE" filter="url(#f1h70ijxzkm18k)" rx="10" ry="10" style="stroke:#A80036;stroke-width:2.5;"/><path d="M159.375,28.75 L159.375,62.5 M143.125,38.75 L175.625,38.75 M159.375,62.5 L143.125,81.25 M159.375,62.5 L175.625,81.25 " fill="none" filter="url(#f1h70ijxzkm18k)" style="stroke:#A80036;stroke-width:2.5;"/><rect fill="#FEFECE" filter="url(#f1h70ijxzkm18k)" height="61.5234" style="stroke:#A80036;stroke-width:1.875;" width="156.25" x="607.5" y="44.2383"/><text fill="#000000" font-family="sans-serif" font-size="17.5" lengthAdjust="spacing" textLength="138.75" x="616.25" y="71.1548">&lt;&lt;presentation&gt;&gt;</text><text fill="#000000" font-family="sans-serif" font-size="17.5" lengthAdjust="spacing" textLength="120" x="625.625" y="93.1665">TeamCreatorUI</text><rect fill="#FEFECE" filter="url(#f1h70ijxzkm18k)" height="61.5234" style="stroke:#A80036;stroke-width:1.875;" width="132.5" x="1455.625" y="44.2383"/><text fill="#000000" font-family="sans-serif" font-size="17.5" lengthAdjust="spacing" textLength="115" x="1464.375" y="71.1548">&lt;&lt;aplication&gt;&gt;</text><text fill="#000000" font-family="sans-serif" font-size="17.5" lengthAdjust="spacing" textLength="108.75" x="1467.5" y="93.1665">AuthzRegistry</text><rect fill="#FEFECE" filter="url(#f1h70ijxzkm18k)" height="61.5234" style="stroke:#A80036;stroke-width:1.875;" width="178.75" x="1605.625" y="44.2383"/><text fill="#000000" font-family="sans-serif" font-size="17.5" lengthAdjust="spacing" textLength="115" x="1637.5" y="71.1548">&lt;&lt;aplication&gt;&gt;</text><text fill="#000000" font-family="sans-serif" font-size="17.5" lengthAdjust="spacing" textLength="161.25" x="1614.375" y="93.1665">AuthorizationService</text><rect fill="#FEFECE" filter="url(#f1h70ijxzkm18k)" height="61.5234" style="stroke:#A80036;stroke-width:1.875;" width="203.75" x="1801.875" y="44.2383"/><text fill="#000000" font-family="sans-serif" font-size="17.5" lengthAdjust="spacing" textLength="97.5" x="1855" y="71.1548">&lt;&lt;domain&gt;&gt;</text><text fill="#000000" font-family="sans-serif" font-size="17.5" lengthAdjust="spacing" textLength="186.25" x="1810.625" y="93.1665">teamTypes:TeamTypes</text><text fill="#000000" font-family="sans-serif" font-size="17.5" lengthAdjust="spacing" textLength="118.75" x="2055" y="86.1548">&lt;&lt;repository&gt;&gt;</text><text fill="#000000" font-family="sans-serif" font-size="17.5" lengthAdjust="spacing" textLength="182.5" x="2023.125" y="108.1665">CollaboratorRepository</text><path d="M2095.625,22.9883 C2095.625,10.4883 2118.125,10.4883 2118.125,10.4883 C2118.125,10.4883 2140.625,10.4883 2140.625,22.9883 L2140.625,55.4883 C2140.625,67.9883 2118.125,67.9883 2118.125,67.9883 C2118.125,67.9883 2095.625,67.9883 2095.625,55.4883 L2095.625,22.9883 " fill="#FEFECE" filter="url(#f1h70ijxzkm18k)" style="stroke:#000000;stroke-width:1.875;"/><path d="M2095.625,22.9883 C2095.625,35.4883 2118.125,35.4883 2118.125,35.4883 C2118.125,35.4883 2140.625,35.4883 2140.625,22.9883 " fill="none" style="stroke:#000000;stroke-width:1.875;"/><text fill="#000000" font-family="sans-serif" font-size="17.5" lengthAdjust="spacing" textLength="118.75" x="2922.5" y="86.1548">&lt;&lt;repository&gt;&gt;</text><text fill="#000000" font-family="sans-serif" font-size="17.5" lengthAdjust="spacing" textLength="130" x="2916.875" y="108.1665">TeamRepository</text><path d="M2963.125,22.9883 C2963.125,10.4883 2985.625,10.4883 2985.625,10.4883 C2985.625,10.4883 3008.125,10.4883 3008.125,22.9883 L3008.125,55.4883 C3008.125,67.9883 2985.625,67.9883 2985.625,67.9883 C2985.625,67.9883 2963.125,67.9883 2963.125,55.4883 L2963.125,22.9883 " fill="#FEFECE" filter="url(#f1h70ijxzkm18k)" style="stroke:#000000;stroke-width:1.875;"/><path d="M2963.125,22.9883 C2963.125,35.4883 2985.625,35.4883 2985.625,35.4883 C2985.625,35.4883 3008.125,35.4883 3008.125,22.9883 " fill="none" style="stroke:#000000;stroke-width:1.875;"/><rect fill="#FFFFFF" filter="url(#f1h70ijxzkm18k)" height="1631.6406" style="stroke:#A80036;stroke-width:1.25;" width="12.5" x="153.125" y="124.5117"/><rect fill="#FFFFFF" filter="url(#f1h70ijxzkm18k)" height="1603.7012" style="stroke:#A80036;stroke-width:1.25;" width="12.5" x="681.875" y="152.4512"/><rect fill="#FFFFFF" filter="url(#f1h70ijxzkm18k)" height="164.9023" style="stroke:#A80036;stroke-width:1.25;" width="12.5" x="1219.375" y="202.8906"/><rect fill="#FFFFFF" filter="url(#f1h70ijxzkm18k)" height="151.7578" style="stroke:#A80036;stroke-width:1.25;" width="12.5" x="1219.375" y="405.7324"/><rect fill="#FFFFFF" filter="url(#f1h70ijxzkm18k)" height="151.7578" style="stroke:#A80036;stroke-width:1.25;" width="12.5" x="1219.375" y="747.1875"/><rect fill="#FFFFFF" filter="url(#f1h70ijxzkm18k)" height="577.8809" style="stroke:#A80036;stroke-width:1.25;" width="12.5" x="1219.375" y="1129.082"/><rect fill="#FFFFFF" filter="url(#f1h70ijxzkm18k)" height="37.5" style="stroke:#A80036;stroke-width:1.25;" width="12.5" x="1518.125" y="330.293"/><rect fill="#FFFFFF" filter="url(#f1h70ijxzkm18k)" height="37.9395" style="stroke:#A80036;stroke-width:1.25;" width="12.5" x="1900" y="481.6113"/><rect fill="#FFFFFF" filter="url(#f1h70ijxzkm18k)" height="37.9395" style="stroke:#A80036;stroke-width:1.25;" width="12.5" x="2111.875" y="823.0664"/><rect fill="#FFFFFF" filter="url(#f1h70ijxzkm18k)" height="307.9102" style="stroke:#A80036;stroke-width:1.25;" width="12.5" x="2280.625" y="1285.2344"/><rect fill="#FFFFFF" filter="url(#f1h70ijxzkm18k)" height="67.7734" style="stroke:#A80036;stroke-width:1.25;" width="12.5" x="2838.125" y="1487.4316"/><rect fill="#FFFFFF" filter="url(#f1h70ijxzkm18k)" height="37.9395" style="stroke:#A80036;stroke-width:1.25;" width="12.5" x="2979.375" y="1631.084"/><polygon fill="#A80036" points="666.875,147.4512,679.375,152.4512,666.875,157.4512,671.875,152.4512" style="stroke:#A80036;stroke-width:1.25;"/><line style="stroke:#A80036;stroke-width:1.25;" x1="165.625" x2="674.375" y1="152.4512" y2="152.4512"/><text fill="#000000" font-family="sans-serif" font-size="16.25" font-weight="bold" lengthAdjust="spacing" textLength="8.75" x="174.375" y="146.3806">1</text><text fill="#000000" font-family="sans-serif" font-size="16.25" lengthAdjust="spacing" textLength="270" x="188.125" y="146.3806">Initiates the request to create a Team</text><polygon fill="#A80036" points="1108.125,185.3906,1120.625,190.3906,1108.125,195.3906,1113.125,190.3906" style="stroke:#A80036;stroke-width:1.25;"/><line style="stroke:#A80036;stroke-width:1.25;" x1="694.375" x2="1115.625" y1="190.3906" y2="190.3906"/><text fill="#000000" font-family="sans-serif" font-size="16.25" font-weight="bold" lengthAdjust="spacing" textLength="8.75" x="703.125" y="184.3201">2</text><text fill="#000000" font-family="sans-serif" font-size="16.25" lengthAdjust="spacing" textLength="55" x="716.875" y="184.3201">create()</text><rect fill="#FEFECE" filter="url(#f1h70ijxzkm18k)" height="61.5234" style="stroke:#A80036;stroke-width:1.875;" width="200" x="1123.125" y="162.4512"/><text fill="#000000" font-family="sans-serif" font-size="17.5" lengthAdjust="spacing" textLength="115" x="1165.625" y="189.3677">&lt;&lt;aplication&gt;&gt;</text><text fill="#000000" font-family="sans-serif" font-size="17.5" lengthAdjust="spacing" textLength="182.5" x="1131.875" y="211.3794">TeamCreatorController</text><rect fill="#FFFFFF" filter="url(#f1h70ijxzkm18k)" height="53.3789" style="stroke:#000000;stroke-width:2.5;" width="207.5" x="1119.375" y="242.7246"/><polygon fill="#EEEEEE" points="1119.375,242.7246,1196.875,242.7246,1196.875,252.7246,1184.375,265.2246,1119.375,265.2246,1119.375,242.7246" style="stroke:#000000;stroke-width:2.5;"/><text fill="#000000" font-family="sans-serif" font-size="16.25" font-weight="bold" lengthAdjust="spacing" textLength="21.25" x="1135.625" y="262.0935">ref</text><text fill="#000000" font-family="sans-serif" font-size="16.25" lengthAdjust="spacing" textLength="153.75" x="1148.75" y="287.0935">US-1-2052_SD_Repo</text><polygon fill="#A80036" points="1503.125,325.293,1515.625,330.293,1503.125,335.293,1508.125,330.293" style="stroke:#A80036;stroke-width:1.25;"/><line style="stroke:#A80036;stroke-width:1.25;" x1="1231.875" x2="1510.625" y1="330.293" y2="330.293"/><text fill="#000000" font-family="sans-serif" font-size="16.25" font-weight="bold" lengthAdjust="spacing" textLength="8.75" x="1240.625" y="324.2224">3</text><text fill="#000000" font-family="sans-serif" font-size="16.25" lengthAdjust="spacing" textLength="248.75" x="1254.375" y="324.2224">m_oAuthz = authorizationService()</text><polygon fill="#A80036" points="1204.375,400.7324,1216.875,405.7324,1204.375,410.7324,1209.375,405.7324" style="stroke:#A80036;stroke-width:1.25;"/><line style="stroke:#A80036;stroke-width:1.25;" x1="694.375" x2="1211.875" y1="405.7324" y2="405.7324"/><text fill="#000000" font-family="sans-serif" font-size="16.25" font-weight="bold" lengthAdjust="spacing" textLength="8.75" x="703.125" y="399.6619">4</text><text fill="#000000" font-family="sans-serif" font-size="16.25" lengthAdjust="spacing" textLength="116.25" x="716.875" y="399.6619">getTeamTypes()</text><polygon fill="#A80036" points="1682.5,438.6719,1695,443.6719,1682.5,448.6719,1687.5,443.6719" style="stroke:#A80036;stroke-width:1.25;"/><line style="stroke:#A80036;stroke-width:1.25;" x1="1231.875" x2="1690" y1="443.6719" y2="443.6719"/><text fill="#000000" font-family="sans-serif" font-size="16.25" font-weight="bold" lengthAdjust="spacing" textLength="8.75" x="1240.625" y="437.6013">5</text><text fill="#000000" font-family="sans-serif" font-size="16.25" lengthAdjust="spacing" textLength="328.75" x="1254.375" y="437.6013">ensureAuthenticatedUserHasAnyOf(role, role)</text><polygon fill="#A80036" points="1885,476.6113,1897.5,481.6113,1885,486.6113,1890,481.6113" style="stroke:#A80036;stroke-width:1.25;"/><line style="stroke:#A80036;stroke-width:1.25;" x1="1231.875" x2="1892.5" y1="481.6113" y2="481.6113"/><text fill="#000000" font-family="sans-serif" font-size="16.25" font-weight="bold" lengthAdjust="spacing" textLength="8.75" x="1240.625" y="475.5408">6</text><text fill="#000000" font-family="sans-serif" font-size="16.25" lengthAdjust="spacing" textLength="55" x="1254.375" y="475.5408">values()</text><polygon fill="#A80036" points="1245.625,514.5508,1233.125,519.5508,1245.625,524.5508,1240.625,519.5508" style="stroke:#A80036;stroke-width:1.25;"/><line style="stroke:#A80036;stroke-width:1.25;stroke-dasharray:2.0,2.0;" x1="1238.125" x2="1905" y1="519.5508" y2="519.5508"/><text fill="#000000" font-family="sans-serif" font-size="16.25" font-weight="bold" lengthAdjust="spacing" textLength="8.75" x="1253.125" y="513.4802">7</text><text fill="#000000" font-family="sans-serif" font-size="16.25" lengthAdjust="spacing" textLength="80" x="1266.875" y="513.4802">teamTypes</text><polygon fill="#A80036" points="708.125,552.4902,695.625,557.4902,708.125,562.4902,703.125,557.4902" style="stroke:#A80036;stroke-width:1.25;"/><line style="stroke:#A80036;stroke-width:1.25;stroke-dasharray:2.0,2.0;" x1="700.625" x2="1224.375" y1="557.4902" y2="557.4902"/><text fill="#000000" font-family="sans-serif" font-size="16.25" font-weight="bold" lengthAdjust="spacing" textLength="8.75" x="715.625" y="551.4197">8</text><text fill="#000000" font-family="sans-serif" font-size="16.25" lengthAdjust="spacing" textLength="80" x="729.375" y="551.4197">teamTypes</text><polygon fill="#A80036" points="179.375,590.4297,166.875,595.4297,179.375,600.4297,174.375,595.4297" style="stroke:#A80036;stroke-width:1.25;"/><line style="stroke:#A80036;stroke-width:1.25;stroke-dasharray:2.0,2.0;" x1="171.875" x2="680.625" y1="595.4297" y2="595.4297"/><text fill="#000000" font-family="sans-serif" font-size="16.25" font-weight="bold" lengthAdjust="spacing" textLength="8.75" x="186.875" y="589.3591">9</text><text fill="#000000" font-family="sans-serif" font-size="16.25" lengthAdjust="spacing" textLength="255" x="200.625" y="589.3591">Displays the existing type of teams</text><polygon fill="#A80036" points="666.875,628.3691,679.375,633.3691,666.875,638.3691,671.875,633.3691" style="stroke:#A80036;stroke-width:1.25;"/><line style="stroke:#A80036;stroke-width:1.25;" x1="165.625" x2="674.375" y1="633.3691" y2="633.3691"/><text fill="#000000" font-family="sans-serif" font-size="16.25" font-weight="bold" lengthAdjust="spacing" textLength="17.5" x="174.375" y="627.2986">10</text><text fill="#000000" font-family="sans-serif" font-size="16.25" lengthAdjust="spacing" textLength="180" x="196.875" y="627.2986">Select's the type of team</text><polygon fill="#A80036" points="179.375,666.3086,166.875,671.3086,179.375,676.3086,174.375,671.3086" style="stroke:#A80036;stroke-width:1.25;"/><line style="stroke:#A80036;stroke-width:1.25;stroke-dasharray:2.0,2.0;" x1="171.875" x2="680.625" y1="671.3086" y2="671.3086"/><text fill="#000000" font-family="sans-serif" font-size="16.25" font-weight="bold" lengthAdjust="spacing" textLength="17.5" x="186.875" y="665.238">11</text><text fill="#000000" font-family="sans-serif" font-size="16.25" lengthAdjust="spacing" textLength="463.75" x="209.375" y="665.238">Requests all information needed (i.e. acronym, teamDescription)</text><polygon fill="#A80036" points="666.875,704.248,679.375,709.248,666.875,714.248,671.875,709.248" style="stroke:#A80036;stroke-width:1.25;"/><line style="stroke:#A80036;stroke-width:1.25;" x1="165.625" x2="674.375" y1="709.248" y2="709.248"/><text fill="#000000" font-family="sans-serif" font-size="16.25" font-weight="bold" lengthAdjust="spacing" textLength="17.5" x="174.375" y="703.1775">12</text><text fill="#000000" font-family="sans-serif" font-size="16.25" lengthAdjust="spacing" textLength="236.25" x="196.875" y="703.1775">Inserts the requested information</text><polygon fill="#A80036" points="1204.375,742.1875,1216.875,747.1875,1204.375,752.1875,1209.375,747.1875" style="stroke:#A80036;stroke-width:1.25;"/><line style="stroke:#A80036;stroke-width:1.25;" x1="694.375" x2="1211.875" y1="747.1875" y2="747.1875"/><text fill="#000000" font-family="sans-serif" font-size="16.25" font-weight="bold" lengthAdjust="spacing" textLength="17.5" x="703.125" y="741.1169">13</text><text fill="#000000" font-family="sans-serif" font-size="16.25" lengthAdjust="spacing" textLength="127.5" x="725.625" y="741.1169">getCollaborators()</text><polygon fill="#A80036" points="1682.5,780.127,1695,785.127,1682.5,790.127,1687.5,785.127" style="stroke:#A80036;stroke-width:1.25;"/><line style="stroke:#A80036;stroke-width:1.25;" x1="1231.875" x2="1690" y1="785.127" y2="785.127"/><text fill="#000000" font-family="sans-serif" font-size="16.25" font-weight="bold" lengthAdjust="spacing" textLength="17.5" x="1240.625" y="779.0564">14</text><text fill="#000000" font-family="sans-serif" font-size="16.25" lengthAdjust="spacing" textLength="328.75" x="1263.125" y="779.0564">ensureAuthenticatedUserHasAnyOf(role, role)</text><polygon fill="#A80036" points="2096.875,818.0664,2109.375,823.0664,2096.875,828.0664,2101.875,823.0664" style="stroke:#A80036;stroke-width:1.25;"/><line style="stroke:#A80036;stroke-width:1.25;" x1="1231.875" x2="2104.375" y1="823.0664" y2="823.0664"/><text fill="#000000" font-family="sans-serif" font-size="16.25" font-weight="bold" lengthAdjust="spacing" textLength="17.5" x="1240.625" y="816.9958">15</text><text fill="#000000" font-family="sans-serif" font-size="16.25" lengthAdjust="spacing" textLength="26.25" x="1263.125" y="816.9958">all()</text><polygon fill="#A80036" points="1245.625,856.0059,1233.125,861.0059,1245.625,866.0059,1240.625,861.0059" style="stroke:#A80036;stroke-width:1.25;"/><line style="stroke:#A80036;stroke-width:1.25;stroke-dasharray:2.0,2.0;" x1="1238.125" x2="2116.875" y1="861.0059" y2="861.0059"/><text fill="#000000" font-family="sans-serif" font-size="16.25" font-weight="bold" lengthAdjust="spacing" textLength="17.5" x="1253.125" y="854.9353">16</text><text fill="#000000" font-family="sans-serif" font-size="16.25" lengthAdjust="spacing" textLength="67.5" x="1275.625" y="854.9353">collabSet</text><polygon fill="#A80036" points="708.125,893.9453,695.625,898.9453,708.125,903.9453,703.125,898.9453" style="stroke:#A80036;stroke-width:1.25;"/><line style="stroke:#A80036;stroke-width:1.25;stroke-dasharray:2.0,2.0;" x1="700.625" x2="1224.375" y1="898.9453" y2="898.9453"/><text fill="#000000" font-family="sans-serif" font-size="16.25" font-weight="bold" lengthAdjust="spacing" textLength="17.5" x="715.625" y="892.8748">17</text><text fill="#000000" font-family="sans-serif" font-size="16.25" lengthAdjust="spacing" textLength="63.75" x="738.125" y="892.8748">collabLis</text><path d="M12.5,917.6953 L103.75,917.6953 L103.75,927.6953 L91.25,940.1953 L12.5,940.1953 L12.5,917.6953 " fill="#EEEEEE" style="stroke:#000000;stroke-width:1.25;"/><rect fill="none" height="174.6973" style="stroke:#000000;stroke-width:2.5;" width="768.75" x="12.5" y="917.6953"/><text fill="#000000" font-family="sans-serif" font-size="16.25" font-weight="bold" lengthAdjust="spacing" textLength="35" x="31.25" y="935.8142">loop</text><text fill="#000000" font-family="sans-serif" font-size="13.75" font-weight="bold" lengthAdjust="spacing" textLength="148.75" x="122.5" y="934.469">[until user command]</text><polygon fill="#A80036" points="179.375,963.5742,166.875,968.5742,179.375,973.5742,174.375,968.5742" style="stroke:#A80036;stroke-width:1.25;"/><line style="stroke:#A80036;stroke-width:1.25;stroke-dasharray:2.0,2.0;" x1="171.875" x2="680.625" y1="968.5742" y2="968.5742"/><text fill="#000000" font-family="sans-serif" font-size="16.25" font-weight="bold" lengthAdjust="spacing" textLength="17.5" x="186.875" y="962.5037">18</text><text fill="#000000" font-family="sans-serif" font-size="16.25" lengthAdjust="spacing" textLength="188.75" x="209.375" y="962.5037">Displays collaborator's list</text><polygon fill="#A80036" points="666.875,1001.5137,679.375,1006.5137,666.875,1011.5137,671.875,1006.5137" style="stroke:#A80036;stroke-width:1.25;"/><line style="stroke:#A80036;stroke-width:1.25;" x1="165.625" x2="674.375" y1="1006.5137" y2="1006.5137"/><text fill="#000000" font-family="sans-serif" font-size="16.25" font-weight="bold" lengthAdjust="spacing" textLength="17.5" x="174.375" y="1000.4431">19</text><text fill="#000000" font-family="sans-serif" font-size="16.25" lengthAdjust="spacing" textLength="295" x="196.875" y="1000.4431">Selects the intended team representative</text><polygon fill="#A80036" points="179.375,1039.4531,166.875,1044.4531,179.375,1049.4531,174.375,1044.4531" style="stroke:#A80036;stroke-width:1.25;"/><line style="stroke:#A80036;stroke-width:1.25;stroke-dasharray:2.0,2.0;" x1="171.875" x2="680.625" y1="1044.4531" y2="1044.4531"/><text fill="#000000" font-family="sans-serif" font-size="16.25" font-weight="bold" lengthAdjust="spacing" textLength="17.5" x="186.875" y="1038.3826">20</text><text fill="#000000" font-family="sans-serif" font-size="16.25" lengthAdjust="spacing" textLength="373.75" x="209.375" y="1038.3826">Asks if the user wishes to add more representatives</text><polygon fill="#A80036" points="666.875,1077.3926,679.375,1082.3926,666.875,1087.3926,671.875,1082.3926" style="stroke:#A80036;stroke-width:1.25;"/><line style="stroke:#A80036;stroke-width:1.25;stroke-dasharray:2.0,2.0;" x1="165.625" x2="674.375" y1="1082.3926" y2="1082.3926"/><text fill="#000000" font-family="sans-serif" font-size="16.25" font-weight="bold" lengthAdjust="spacing" textLength="17.5" x="174.375" y="1076.322">21</text><text fill="#000000" font-family="sans-serif" font-size="16.25" lengthAdjust="spacing" textLength="72.5" x="196.875" y="1076.322">Responds</text><polygon fill="#A80036" points="1204.375,1124.082,1216.875,1129.082,1204.375,1134.082,1209.375,1129.082" style="stroke:#A80036;stroke-width:1.25;"/><line style="stroke:#A80036;stroke-width:1.25;" x1="694.375" x2="1211.875" y1="1129.082" y2="1129.082"/><text fill="#000000" font-family="sans-serif" font-size="16.25" font-weight="bold" lengthAdjust="spacing" textLength="17.5" x="703.125" y="1123.0115">22</text><text fill="#000000" font-family="sans-serif" font-size="16.25" lengthAdjust="spacing" textLength="478.75" x="725.625" y="1123.0115">createTeam(teamType, acronym, teamDescription, representation)</text><polygon fill="#A80036" points="1682.5,1162.0215,1695,1167.0215,1682.5,1172.0215,1687.5,1167.0215" style="stroke:#A80036;stroke-width:1.25;"/><line style="stroke:#A80036;stroke-width:1.25;" x1="1231.875" x2="1690" y1="1167.0215" y2="1167.0215"/><text fill="#000000" font-family="sans-serif" font-size="16.25" font-weight="bold" lengthAdjust="spacing" textLength="17.5" x="1240.625" y="1160.9509">23</text><text fill="#000000" font-family="sans-serif" font-size="16.25" lengthAdjust="spacing" textLength="328.75" x="1263.125" y="1160.9509">ensureAuthenticatedUserHasAnyOf(role, role)</text><polygon fill="#A80036" points="2210.625,1199.9609,2223.125,1204.9609,2210.625,1209.9609,2215.625,1204.9609" style="stroke:#A80036;stroke-width:1.25;"/><line style="stroke:#A80036;stroke-width:1.25;" x1="1231.875" x2="2218.125" y1="1204.9609" y2="1204.9609"/><text fill="#000000" font-family="sans-serif" font-size="16.25" font-weight="bold" lengthAdjust="spacing" textLength="17.5" x="1240.625" y="1198.8904">24</text><text fill="#000000" font-family="sans-serif" font-size="16.25" lengthAdjust="spacing" textLength="55" x="1263.125" y="1198.8904">create()</text><rect fill="#FEFECE" filter="url(#f1h70ijxzkm18k)" height="61.5234" style="stroke:#A80036;stroke-width:1.875;" width="117.5" x="2225.625" y="1177.0215"/><text fill="#000000" font-family="sans-serif" font-size="17.5" lengthAdjust="spacing" textLength="93.75" x="2237.5" y="1203.938">&lt;&lt;builder&gt;&gt;</text><text fill="#000000" font-family="sans-serif" font-size="17.5" lengthAdjust="spacing" textLength="100" x="2234.375" y="1225.9497">TeamBuilder</text><polygon fill="#A80036" points="2265.625,1280.2344,2278.125,1285.2344,2265.625,1290.2344,2270.625,1285.2344" style="stroke:#A80036;stroke-width:1.25;"/><line style="stroke:#A80036;stroke-width:1.25;" x1="1231.875" x2="2273.125" y1="1285.2344" y2="1285.2344"/><text fill="#000000" font-family="sans-serif" font-size="16.25" font-weight="bold" lengthAdjust="spacing" textLength="17.5" x="1240.625" y="1279.1638">25</text><text fill="#000000" font-family="sans-serif" font-size="16.25" lengthAdjust="spacing" textLength="113.75" x="1263.125" y="1279.1638">withTeamType()</text><polygon fill="#A80036" points="2265.625,1318.1738,2278.125,1323.1738,2265.625,1328.1738,2270.625,1323.1738" style="stroke:#A80036;stroke-width:1.25;"/><line style="stroke:#A80036;stroke-width:1.25;" x1="1231.875" x2="2273.125" y1="1323.1738" y2="1323.1738"/><text fill="#000000" font-family="sans-serif" font-size="16.25" font-weight="bold" lengthAdjust="spacing" textLength="17.5" x="1240.625" y="1317.1033">26</text><text fill="#000000" font-family="sans-serif" font-size="16.25" lengthAdjust="spacing" textLength="147.5" x="1263.125" y="1317.1033">withRepresentation()</text><polygon fill="#A80036" points="2265.625,1356.1133,2278.125,1361.1133,2265.625,1366.1133,2270.625,1361.1133" style="stroke:#A80036;stroke-width:1.25;"/><line style="stroke:#A80036;stroke-width:1.25;" x1="1231.875" x2="2273.125" y1="1361.1133" y2="1361.1133"/><text fill="#000000" font-family="sans-serif" font-size="16.25" font-weight="bold" lengthAdjust="spacing" textLength="17.5" x="1240.625" y="1355.0427">27</text><text fill="#000000" font-family="sans-serif" font-size="16.25" lengthAdjust="spacing" textLength="103.75" x="1263.125" y="1355.0427">withAcronym()</text><polygon fill="#A80036" points="2265.625,1394.0527,2278.125,1399.0527,2265.625,1404.0527,2270.625,1399.0527" style="stroke:#A80036;stroke-width:1.25;"/><line style="stroke:#A80036;stroke-width:1.25;" x1="1231.875" x2="2273.125" y1="1399.0527" y2="1399.0527"/><text fill="#000000" font-family="sans-serif" font-size="16.25" font-weight="bold" lengthAdjust="spacing" textLength="17.5" x="1240.625" y="1392.9822">28</text><text fill="#000000" font-family="sans-serif" font-size="16.25" lengthAdjust="spacing" textLength="120" x="1263.125" y="1392.9822">withDescription()</text><polygon fill="#A80036" points="2265.625,1431.9922,2278.125,1436.9922,2265.625,1441.9922,2270.625,1436.9922" style="stroke:#A80036;stroke-width:1.25;"/><line style="stroke:#A80036;stroke-width:1.25;" x1="1231.875" x2="2273.125" y1="1436.9922" y2="1436.9922"/><text fill="#000000" font-family="sans-serif" font-size="16.25" font-weight="bold" lengthAdjust="spacing" textLength="17.5" x="1240.625" y="1430.9216">29</text><text fill="#000000" font-family="sans-serif" font-size="16.25" lengthAdjust="spacing" textLength="43.75" x="1263.125" y="1430.9216">build()</text><polygon fill="#A80036" points="2769.375,1469.9316,2781.875,1474.9316,2769.375,1479.9316,2774.375,1474.9316" style="stroke:#A80036;stroke-width:1.25;"/><line style="stroke:#A80036;stroke-width:1.25;" x1="2293.125" x2="2776.875" y1="1474.9316" y2="1474.9316"/><text fill="#000000" font-family="sans-serif" font-size="16.25" font-weight="bold" lengthAdjust="spacing" textLength="17.5" x="2301.875" y="1468.8611">30</text><text fill="#000000" font-family="sans-serif" font-size="16.25" lengthAdjust="spacing" textLength="438.75" x="2324.375" y="1468.8611">create(teamType, acronym, teamDescription, representation)</text><rect fill="#FEFECE" filter="url(#f1h70ijxzkm18k)" height="61.5234" style="stroke:#A80036;stroke-width:1.875;" width="115" x="2784.375" y="1446.9922"/><text fill="#000000" font-family="sans-serif" font-size="17.5" lengthAdjust="spacing" textLength="97.5" x="2793.125" y="1473.9087">&lt;&lt;domain&gt;&gt;</text><text fill="#000000" font-family="sans-serif" font-size="17.5" lengthAdjust="spacing" textLength="45" x="2819.375" y="1495.9204">Team</text><polygon fill="#A80036" points="2306.875,1550.2051,2294.375,1555.2051,2306.875,1560.2051,2301.875,1555.2051" style="stroke:#A80036;stroke-width:1.25;"/><line style="stroke:#A80036;stroke-width:1.25;stroke-dasharray:2.0,2.0;" x1="2299.375" x2="2843.125" y1="1555.2051" y2="1555.2051"/><text fill="#000000" font-family="sans-serif" font-size="16.25" font-weight="bold" lengthAdjust="spacing" textLength="17.5" x="2314.375" y="1549.1345">31</text><text fill="#000000" font-family="sans-serif" font-size="16.25" lengthAdjust="spacing" textLength="36.25" x="2336.875" y="1549.1345">team</text><polygon fill="#A80036" points="1245.625,1588.1445,1233.125,1593.1445,1245.625,1598.1445,1240.625,1593.1445" style="stroke:#A80036;stroke-width:1.25;"/><line style="stroke:#A80036;stroke-width:1.25;stroke-dasharray:2.0,2.0;" x1="1238.125" x2="2285.625" y1="1593.1445" y2="1593.1445"/><text fill="#000000" font-family="sans-serif" font-size="16.25" font-weight="bold" lengthAdjust="spacing" textLength="17.5" x="1253.125" y="1587.074">32</text><text fill="#000000" font-family="sans-serif" font-size="16.25" lengthAdjust="spacing" textLength="36.25" x="1275.625" y="1587.074">team</text><polygon fill="#A80036" points="2964.375,1626.084,2976.875,1631.084,2964.375,1636.084,2969.375,1631.084" style="stroke:#A80036;stroke-width:1.25;"/><line style="stroke:#A80036;stroke-width:1.25;" x1="1231.875" x2="2971.875" y1="1631.084" y2="1631.084"/><text fill="#000000" font-family="sans-serif" font-size="16.25" font-weight="bold" lengthAdjust="spacing" textLength="17.5" x="1240.625" y="1625.0134">33</text><text fill="#000000" font-family="sans-serif" font-size="16.25" lengthAdjust="spacing" textLength="78.75" x="1263.125" y="1625.0134">save(team)</text><polygon fill="#A80036" points="1245.625,1664.0234,1233.125,1669.0234,1245.625,1674.0234,1240.625,1669.0234" style="stroke:#A80036;stroke-width:1.25;"/><line style="stroke:#A80036;stroke-width:1.25;stroke-dasharray:2.0,2.0;" x1="1238.125" x2="2984.375" y1="1669.0234" y2="1669.0234"/><text fill="#000000" font-family="sans-serif" font-size="16.25" font-weight="bold" lengthAdjust="spacing" textLength="17.5" x="1253.125" y="1662.9529">34</text><text fill="#000000" font-family="sans-serif" font-size="16.25" lengthAdjust="spacing" textLength="36.25" x="1275.625" y="1662.9529">team</text><polygon fill="#A80036" points="708.125,1701.9629,695.625,1706.9629,708.125,1711.9629,703.125,1706.9629" style="stroke:#A80036;stroke-width:1.25;"/><line style="stroke:#A80036;stroke-width:1.25;stroke-dasharray:2.0,2.0;" x1="700.625" x2="1224.375" y1="1706.9629" y2="1706.9629"/><text fill="#000000" font-family="sans-serif" font-size="16.25" font-weight="bold" lengthAdjust="spacing" textLength="17.5" x="715.625" y="1700.8923">35</text><text fill="#000000" font-family="sans-serif" font-size="16.25" lengthAdjust="spacing" textLength="36.25" x="738.125" y="1700.8923">team</text><polygon fill="#A80036" points="179.375,1739.9023,166.875,1744.9023,179.375,1749.9023,174.375,1744.9023" style="stroke:#A80036;stroke-width:1.25;"/><line style="stroke:#A80036;stroke-width:1.25;stroke-dasharray:2.0,2.0;" x1="171.875" x2="680.625" y1="1744.9023" y2="1744.9023"/><text fill="#000000" font-family="sans-serif" font-size="16.25" font-weight="bold" lengthAdjust="spacing" textLength="17.5" x="186.875" y="1738.8318">36</text><text fill="#000000" font-family="sans-serif" font-size="16.25" lengthAdjust="spacing" textLength="280" x="209.375" y="1738.8318">Informs of the success of the operation</text><!--MD5=[7d7cec7d9eae13d6c2d330d096ed2e43]
@startuml
autonumber
hide footbox

actor "Human Resource Representative" as HRR

participant "<<presentation>>\nTeamCreatorUI" as UI
participant "<<aplication>>\nTeamCreatorController" as CTRL
participant "<<aplication>>\nAuthzRegistry" as AUTHR
participant "<<aplication>>\nAuthorizationService" as AUTH
participant "<<domain>>\nteamTypes:TeamTypes" as TT
database "<<repository>>\nCollaboratorRepository" as CR
participant "<<builder>>\nTeamBuilder" as TB
participant "<<domain>>\nTeam" as TEAM
database "<<repository>>\nTeamRepository" as TR

activate HRR
HRR -> UI : Initiates the request to create a Team

activate UI
UI -> CTRL** : create()

activate CTRL
ref over CTRL
US-1-2052_SD_Repo
end ref

CTRL -> AUTHR : m_oAuthz = authorizationService()
activate AUTHR
deactivate CTRL
deactivate AUTHR

UI -> CTRL : getTeamTypes()

activate CTRL
CTRL -> AUTH : ensureAuthenticatedUserHasAnyOf(role, role)
CTRL -> TT : values()

activate TT
TT - -> CTRL : teamTypes
deactivate TT

CTRL - -> UI : teamTypes
deactivate CTRL

UI - -> HRR : Displays the existing type of teams

HRR -> UI : Select's the type of team

UI - -> HRR : Requests all information needed (i.e. acronym, teamDescription)

HRR -> UI : Inserts the requested information

UI -> CTRL : getCollaborators()

activate CTRL
CTRL -> AUTH : ensureAuthenticatedUserHasAnyOf(role, role)
CTRL -> CR : all()

activate CR
CR - -> CTRL : collabSet

deactivate CR
CTRL - -> UI : collabLis
deactivate CTRL


loop until user command
UI - -> HRR : Displays collaborator's list

HRR -> UI : Selects the intended team representative

UI - -> HRR : Asks if the user wishes to add more representatives

HRR - -> UI : Responds
end

UI -> CTRL : createTeam(teamType, acronym, teamDescription, representation)

activate CTRL
CTRL -> AUTH : ensureAuthenticatedUserHasAnyOf(role, role)
CTRL -> TB** : create()
CTRL -> TB : withTeamType()

activate TB

CTRL -> TB : withRepresentation()
CTRL -> TB : withAcronym()
CTRL -> TB : withDescription()
CTRL -> TB : build()

TB -> TEAM** : create(teamType, acronym, teamDescription, representation)

activate TEAM
TEAM - -> TB : team
deactivate TEAM

TB - -> CTRL : team
deactivate TB

CTRL -> TR : save(team)

activate TR
TR - -> CTRL : team
deactivate TR

CTRL - -> UI : team
deactivate CTRL

UI - -> HRR : Informs of the success of the operation







@enduml

PlantUML version 1.2021.5(Sun Apr 25 12:20:28 BST 2021)
(GPL source distribution)
Java Runtime: OpenJDK Runtime Environment
JVM: OpenJDK 64-Bit Server VM
Default Encoding: Cp1252
Language: pt
Country: PT
--></g></svg>